<?xml version="1.0" standalone="no"?>
<!DOCTYPE svg PUBLIC "-//W3C//DTD SVG 1.1//EN" "http://www.w3.org/Graphics/SVG/1.1/DTD/svg11.dtd" >
<svg xmlns="http://www.w3.org/2000/svg" xmlns:xlink="http://www.w3.org/1999/xlink" version="1.1">
<metadata>
Created by FontForge 20201107 at Fri Jun 18 05:32:25 2021
 By 
Copyright 2016-2020 The Glory Project Authors (https://github.com/googlefonts/glory)
</metadata>
<defs>
<font id="Glory-MediumItalic" horiz-adv-x="0" >
  <font-face 
    font-family="Glory Medium"
    font-weight="500"
    font-style="italic"
    font-stretch="normal"
    units-per-em="1000"
    panose-1="0 0 0 0 0 0 0 0 0 0"
    ascent="800"
    descent="-200"
    x-height="472"
    cap-height="673"
    bbox="-162.167 -242 1054.56 970"
    underline-thickness="50"
    underline-position="-125"
    slope="-12"
    unicode-range="U+000D-FB02"
  />
<missing-glyph horiz-adv-x="560" 
d="M28 0q-3 0 -3 4q3 33 11 85.5t19.5 115.5t25.5 129q15 67 30.5 131.5t30.5 118t26 85.5q0 2 2 3t3 1h402q3 0 3 -4q-3 -32 -11 -85.5t-19.5 -118t-26.5 -131.5q-14 -66 -29.5 -129t-29.5 -115.5t-25 -85.5q0 -4 -5 -4h-404zM61 30h352q13 42 27 96.5t27 110t22 100.5
q17 79 30 158t22 148h-348q-24 -85 -44 -162.5t-34 -145.5q-10 -47 -21 -101t-19.5 -107t-13.5 -97zM117 80q-8 0 -2 6l337 502q4 5 6 5.5t5 0.5h19q7 0 0 -7l-334 -499q-5 -8 -13 -8h-18zM371 80h-18q-7 0 -9 8l-122 499q-4 7 4 7h19q6 0 7 -6l125 -502v-3.5t-6 -2.5z" />
    <glyph glyph-name="fi" unicode="fi" horiz-adv-x="547" 
d="M430 9q-2 -9 -10 -9h-71q-9 0 -7 9l96 454q2 9 11 9h71q3 0 5.5 -2.5t0.5 -6.5zM-78 -234q-34 0 -53 6t-18 6q-7 3 -4 14q1 4 3.5 13t4 18.5t2.5 12.5q2 6 3.5 6t6.5 -1q15 -6 28.5 -8t29.5 -2q46 0 73.5 29.5t38.5 84.5q13 69 23 126t18.5 109t18 104.5t21.5 110.5
q2 10 -7 10h-27.5h-26.5q-4 0 -6 2t-1 7q3 12 5.5 24t4.5 24q1 6 4.5 8t8.5 2h32.5h22.5q8 0 9 8q7 43 20.5 85.5t46.5 79.5q28 31 75 49t122 18q47 0 82.5 -8t60.5 -17.5t38 -14.5q7 -3 4.5 -7.5t-4.5 -8.5q-4 -8 -11 -20t-11 -18q-1 -2 -6 -5t-9 -1q-9 5 -26 10.5t-39 10
t-44.5 7.5t-42.5 3q-52 0 -81 -11.5t-46 -35.5q-14 -18 -22 -39t-12 -41l-7 -35q-2 -9 6 -9h35h57.5h66h62h45.5q4 0 5.5 -1.5t0.5 -9.5l-4 -20t-6 -26q-1 -6 -4 -8t-9 -2h-56.5h-75h-75h-56.5q-2 0 -5.5 -2.5t-4.5 -7.5q-1 -4 -3 -12.5t-3.5 -17t-2.5 -13.5
q-9 -44 -17.5 -89t-17 -94t-18 -103.5t-21.5 -119.5q-16 -86 -62 -133t-140 -47z" />
    <glyph glyph-name="fl" unicode="fl" horiz-adv-x="589" 
d="M391 9l139 654q3 9 11 9h69q2 0 6.5 -2.5t2.5 -6.5l-139 -654q-2 -9 -12 -9h-69q-10 0 -8 9zM-78 -234q-34 0 -53 6t-18 6q-7 3 -4 14q1 4 3.5 13t4 18.5t2.5 12.5q2 6 3.5 6t6.5 -1q15 -6 28.5 -8t29.5 -2q46 0 73.5 29.5t38.5 84.5q13 69 23 126t18.5 109t18 104.5
t21.5 110.5q2 10 -7 10h-27.5h-26.5q-4 0 -6 2t-1 7q3 12 5.5 24t4.5 24q1 6 4.5 8t8.5 2h32.5h22.5q8 0 9 8q7 43 20.5 85.5t46.5 79.5q28 31 73 49t109 18q59 0 105 -8t77 -18t44 -14q7 -4 4 -8.5t-5 -9.5q-3 -5 -9.5 -14t-13.5 -17t-11 -13q-5 -6 -10.5 -6t-9.5 3.5
t-7 4.5q-14 7 -35 13t-44 10.5t-43 7t-33 2.5q-60 0 -91.5 -15.5t-47.5 -49.5q-12 -21 -19 -48.5t-12 -50.5q-2 -9 6 -9h63h79q5 0 6 -1.5t0 -9.5l-4 -20t-6 -26q0 -6 -3 -8t-9 -2h-49h-42h-49q-2 0 -5.5 -2.5t-4.5 -7.5q-1 -4 -3 -12.5t-3.5 -17t-2.5 -13.5
q-9 -44 -17.5 -89t-17 -94t-18 -103.5t-21.5 -119.5q-16 -86 -62 -133t-140 -47z" />
    <glyph glyph-name=".notdef" horiz-adv-x="560" 
d="M28 0q-3 0 -3 4q3 33 11 85.5t19.5 115.5t25.5 129q15 67 30.5 131.5t30.5 118t26 85.5q0 2 2 3t3 1h402q3 0 3 -4q-3 -32 -11 -85.5t-19.5 -118t-26.5 -131.5q-14 -66 -29.5 -129t-29.5 -115.5t-25 -85.5q0 -4 -5 -4h-404zM61 30h352q13 42 27 96.5t27 110t22 100.5
q17 79 30 158t22 148h-348q-24 -85 -44 -162.5t-34 -145.5q-10 -47 -21 -101t-19.5 -107t-13.5 -97zM117 80q-8 0 -2 6l337 502q4 5 6 5.5t5 0.5h19q7 0 0 -7l-334 -499q-5 -8 -13 -8h-18zM371 80h-18q-7 0 -9 8l-122 499q-4 7 4 7h19q6 0 7 -6l125 -502v-3.5t-6 -2.5z" />
    <glyph glyph-name=".null" 
 />
    <glyph glyph-name="nonmarkingreturn" horiz-adv-x="333" 
 />
    <glyph glyph-name="CR" unicode="&#xd;" horiz-adv-x="600" 
 />
    <glyph glyph-name="space" unicode=" " horiz-adv-x="238" 
 />
    <glyph glyph-name="exclam" unicode="!" horiz-adv-x="249" 
d="M85 222q-5 0 -6 2t0 9l80 431q1 5 3 7t7 2h81q9 0 7 -8l-103 -432q-2 -7 -4 -9t-9 -2h-56zM137 29q-4 -20 -15.5 -30t-40.5 -10q-26 0 -35 10t-4 30q4 20 17 30.5t39 10.5q29 0 36 -10.5t3 -30.5z" />
    <glyph glyph-name="quotedbl" unicode="&#x22;" horiz-adv-x="356" 
d="M120 457q-3 0 -5 2.5t0 10.5l42 222q2 10 5 12.5t10 2.5h52q9 0 10 -2.5t0 -8.5l-54 -228q-1 -7 -4 -9t-9 -2h-47zM279 457q-4 0 -5.5 2.5t0.5 10.5l42 222q2 10 5 12.5t10 2.5h52q8 0 9.5 -2.5t0.5 -8.5l-53 -228q-2 -7 -5 -9t-8 -2h-48z" />
    <glyph glyph-name="numbersign" unicode="#" horiz-adv-x="731" 
d="M198 215h-145q-8 0 -10 2t0 9l14 41q2 6 5.5 8.5t9.5 2.5h144l41 147h-140q-7 0 -10 1.5t0 9.5l14 41q3 7 5.5 9t8.5 2h139l59 208q2 6 5 8.5t9 2.5h47q7 0 7.5 -3t-2.5 -10l-59 -206l156 -1l60 209q2 6 4.5 8.5t9.5 2.5h46q7 0 8 -3t-2 -10l-60 -207h162q11 1 13 -2
t0 -8l-13 -42q-2 -6 -6 -8t-8 -2h-163l-42 -148h154q11 1 14 -1.5t1 -8.5l-15 -43q-1 -5 -5 -7t-8 -2h-159l-56 -206q-1 -3 -3.5 -6t-9.5 -3h-45q-6 0 -8 3t1 13l55 199h-155l-57 -206q-1 -3 -4 -6t-9 -3h-46q-5 0 -7 3t1 13zM283 278l156 -1l41 148h-156z" />
    <glyph glyph-name="dollar" unicode="$" horiz-adv-x="482" 
d="M163 36q-16 4 -41 12t-42 17q-10 6 -14.5 10.5t-3.5 12.5q2 18 3.5 35t4.5 35q0 6 4.5 6.5t10 -2.5t10.5 -7q32 -23 63 -33t60 -10t54.5 10t42.5 30t19 49q3 27 -8.5 45.5t-35 34t-55.5 29.5q-33 17 -65 37t-50.5 52.5t-13.5 84.5q6 50 32 84t65 51.5t83 17.5h15.5h15.5
l29 99q1 5 3 7t10 2h46q8 0 9 -2.5t-1 -8.5l-32 -108q26 -7 49.5 -20t47.5 -30q6 -4 6.5 -7t-2.5 -9q-7 -12 -16.5 -27t-18.5 -25q-4 -5 -7.5 -3t-11.5 8q-13 8 -35 19t-48 19t-51 8q-39 0 -68.5 -19.5t-33.5 -58.5q-2 -24 10.5 -41t36.5 -31t53 -29q34 -17 65.5 -38.5
t50.5 -54t14 -84.5q-5 -50 -34 -88.5t-71 -60t-89 -23.5l-41 -157q-2 -6 -4.5 -7t-8.5 -1h-48q-4 0 -5.5 2.5t1.5 13.5z" />
    <glyph glyph-name="percent" unicode="%" horiz-adv-x="798" 
d="M111 0q-5 0 -5 3t4 7l540 690q4 5 6 6t6 1h63q6 0 6.5 -3t-10.5 -15l-529 -680q-3 -4 -7 -6.5t-9 -2.5h-65zM246 414q-54 0 -82.5 19t-36 52t1.5 76q14 65 56 106.5t123 41.5q80 0 105.5 -41.5t11.5 -106.5q-13 -64 -56.5 -105.5t-122.5 -41.5zM258 470q44 0 69.5 24
t34.5 67q9 44 -6 68t-60 24q-44 0 -69.5 -23.5t-35.5 -68.5q-9 -43 6.5 -67t60.5 -24zM540 0q-54 0 -82 19t-35.5 52.5t1.5 75.5q14 65 56 106.5t123 41.5q80 0 105.5 -41.5t10.5 -106.5q-13 -64 -56 -105.5t-123 -41.5zM552 56q45 0 70 24t34 67q10 44 -5 68t-61 24
q-44 0 -69.5 -23.5t-35.5 -68.5q-9 -43 7 -67t60 -24z" />
    <glyph glyph-name="ampersand" unicode="&#x26;" horiz-adv-x="696" 
d="M221 -8q-65 0 -107.5 18t-65.5 47.5t-28.5 65t1.5 70.5q9 42 32 78.5t56.5 62.5t72.5 36q-20 9 -32.5 25.5t-18.5 37t-7 41t3 34.5q6 28 23.5 57t47.5 54.5t73.5 41t100.5 15.5q55 0 100.5 -24.5t70.5 -83.5q5 -9 2 -14.5t-8 -8.5l-50 -33q-11 -6 -16 5q-15 33 -44 57.5
t-74 24.5q-34 0 -63.5 -12t-50 -34t-27.5 -54q-4 -21 2 -40.5t21.5 -32.5t39.5 -17q4 0 14 -0.5l20 -1t13 -0.5q11 0 15 -1t3 -6l-13 -62q-2 -6 -5 -7t-8 -1h-53q-33 0 -62 -18t-48.5 -46.5t-27.5 -61.5q-7 -32 2 -62.5t38 -50t85 -19.5q48 0 93 25.5t83 66t65 85.5l-71 43
q-3 2 -4 4.5t5 9.5l42 51q5 7 9 8.5t8 -1.5l172 -103q5 -2 4.5 -6t-4.5 -8l-40 -52q-5 -6 -8.5 -8t-10.5 2l-41 25q-26 -43 -60 -82.5t-75.5 -71t-90 -50t-103.5 -18.5z" />
    <glyph glyph-name="quotesingle" unicode="'" horiz-adv-x="195" 
d="M120 457q-4 0 -6 2.5t0 10.5l43 222q1 10 4 12.5t11 2.5h51q9 0 10 -2.5t0 -8.5l-53 -228q-2 -7 -5 -9t-8 -2h-47z" />
    <glyph glyph-name="parenleft" unicode="(" horiz-adv-x="371" 
d="M245 -73q-2 -6 -5 -7.5t-19 -1.5q-74 0 -117.5 51.5t-54.5 142t14 208.5q11 48 31.5 100.5t50 102.5t67.5 90t82 64t94 24q15 0 17.5 -2t1.5 -7l-9 -45q-2 -5 -5.5 -5.5t-14.5 -0.5q-37 0 -69 -21t-58.5 -56t-47.5 -77.5t-36 -86t-23 -79.5q-11 -53 -15 -103t0 -93
t17 -76t36 -51.5t57 -19.5q12 0 13.5 -2t1.5 -7z" />
    <glyph glyph-name="parenright" unicode=")" horiz-adv-x="370" 
d="M-5 -73l9 42q1 5 4 7t14 2q34 1 65 19.5t58.5 51.5t49.5 76t39 93t28 103q8 36 12 79.5t0.5 86t-15.5 77.5t-34.5 56t-59.5 21q-10 0 -14.5 0.5t-2.5 5.5l9 45q1 5 5 7t19 2q49 0 83.5 -24t55 -64t29 -90t7 -102.5t-12.5 -100.5q-18 -88 -51 -162t-76.5 -127.5t-95 -83
t-106.5 -29.5q-15 0 -18 1.5t-1 7.5z" />
    <glyph glyph-name="asterisk" unicode="*" horiz-adv-x="542" 
d="M310 421l-136 -142q-6 -6 -10 -7.5t-8 2.5l-31 31q-4 4 -3.5 7.5t6.5 9.5l137 137l-155 52q-6 2 -8 5t1 8l25 47q4 6 7.5 7.5t10.5 -1.5l152 -57l34 174q2 7 4.5 10t8.5 3h49q7 0 8.5 -2.5t-0.5 -10.5l-40 -175l178 58q8 3 10.5 1.5t3.5 -8.5l6 -46q0 -10 -14 -14
l-177 -52l79 -137q4 -5 3.5 -8.5t-7.5 -8.5l-44 -31q-6 -3 -9 -2t-6 7z" />
    <glyph glyph-name="plus" unicode="+" horiz-adv-x="483" 
d="M187 109q-6 0 -7.5 1.5t-0.5 6.5l34 157h-147q-5 0 -6 2t0 6l10 48q1 5 3 6.5t7 1.5h147l33 157q1 5 3 6.5t8 1.5h51q3 0 4 -1.5t0 -7.5l-33 -156l153 -1q4 0 5.5 -1.5t0.5 -6.5l-10 -49q-1 -4 -3 -5.5t-7 -1.5l-152 1l-34 -158q-1 -5 -3 -6t-7 -1h-49z" />
    <glyph glyph-name="comma" unicode="," horiz-adv-x="208" 
d="M109 28q-4 -18 -17 -42.5t-29 -48.5t-29 -39q-4 -5 -9 -6h-16.5h-18.5q-3 1 -2.5 3.5t4.5 8.5q5 9 14.5 24.5t18.5 32.5t15 29q-17 1 -22 12t-2 25q4 19 16.5 30t37.5 11q22 0 32.5 -8t6.5 -32z" />
    <glyph glyph-name="hyphen" unicode="-" horiz-adv-x="410" 
d="M70 244q-6 0 -6.5 2t0.5 7l10 48q1 6 3 7.5t8 1.5h272q5 0 6.5 -1.5t0.5 -7.5l-11 -50q-1 -4 -2.5 -5.5t-7.5 -1.5h-273z" />
    <glyph glyph-name="period" unicode="." horiz-adv-x="187" 
d="M98 28q-5 -20 -16.5 -30t-41.5 -10q-26 0 -35 10t-4 30q4 20 17 30t40 10q30 0 37 -10t3 -30z" />
    <glyph glyph-name="slash" unicode="/" horiz-adv-x="556" 
d="M73 9q-4 -4 -7.5 -6.5t-9.5 -2.5h-63q-4 0 -4 3t3 7l567 690q5 5 7.5 6t6.5 1h61q6 0 6.5 -3t-10.5 -15z" />
    <glyph glyph-name="zero" unicode="0" horiz-adv-x="542" 
d="M518 336q-20 -96 -58.5 -174t-97.5 -123.5t-143 -45.5q-63 0 -101 26t-54 72.5t-14.5 109t16.5 135.5q21 98 59 176t97 123t143 45q63 0 100.5 -26.5t54 -73.5t15.5 -109t-17 -135zM422 336q28 130 11 200t-84 70t-113.5 -69t-74.5 -201q-28 -131 -11.5 -200.5
t84.5 -69.5q67 0 114 70t74 200z" />
    <glyph glyph-name="one" unicode="1" horiz-adv-x="338" 
d="M130 0q-9 0 -6 9l117 555q2 9 -6 5l-123 -62q-8 -5 -11 2l-18 47q-4 10 5 14l185 94q7 3 13 6t11 3h48q11 0 9 -8l-140 -657q-1 -5 -3.5 -6.5t-7.5 -1.5h-73z" />
    <glyph glyph-name="two" unicode="2" horiz-adv-x="496" 
d="M-5 0q-7 0 -8.5 1.5t-0.5 7.5l11 52q1 6 3.5 9.5t7.5 5.5q57 34 121 76.5t121.5 93t98.5 106.5t55 115q9 43 -2.5 72t-39.5 44t-69 15q-39 0 -72 -10.5t-56 -22t-35 -14.5q-15 -5 -13 4l12 61q2 6 5 9t11 7q16 8 43.5 19t61.5 19t69 8q54 0 99.5 -21t68 -67t6.5 -120
q-13 -60 -47 -114t-83 -103.5t-106.5 -92.5t-117.5 -82q-2 -2 -1.5 -4t3.5 -2h262q7 0 6 -7l-11 -56q-2 -6 -3.5 -7.5t-9.5 -1.5h-390z" />
    <glyph glyph-name="three" unicode="3" horiz-adv-x="486" 
d="M167 -5q-36 0 -68 9t-57 26t-41 40q-3 5 -1.5 9.5t5.5 8.5l40 40q5 5 10 5.5t8 -4.5q22 -27 52 -41.5t67 -14.5q42 0 75 18.5t54 46.5t27 57q6 28 -3.5 56.5t-37.5 47t-77 18.5h-12h-13q-5 0 -8 3t-1 10l10 49q3 13 14 13h16.5h22.5q39 1 68.5 17.5t49 41.5t24.5 51
q6 26 -2.5 48.5t-31 36.5t-62.5 14q-33 0 -72.5 -15t-68.5 -36q-15 -12 -19 1l-18 50q-2 4 1 9.5t5 6.5q34 23 69 36t67.5 19t58.5 6q64 0 102 -24t52 -62t4 -81q-7 -33 -25 -62.5t-44 -52t-58 -35.5q-6 -2 -9.5 -3t-3.5 -3q0 -1 12 -6q47 -17 68.5 -56.5t9.5 -96.5
q-11 -50 -46 -96.5t-89.5 -75.5t-123.5 -29z" />
    <glyph glyph-name="four" unicode="4" horiz-adv-x="506" 
d="M264 0q-8 0 -7 9l35 161q2 10 -8 10h-264q-9 0 -7 9l9 45q2 6 6.5 12t7.5 9l364 408q6 6 10 8t8 2h58q5 0 6.5 -2t0.5 -7l-86 -405q-1 -10 8 -10h64q6 0 5 -7l-11 -55q-2 -7 -8 -7h-65q-10 0 -12 -10l-35 -161q-1 -9 -11 -9h-68zM132 249h167q11 0 12 10l57 267
q1 5 -1 5.5t-5 -3.5l-233 -268q-10 -11 3 -11z" />
    <glyph glyph-name="five" unicode="5" horiz-adv-x="485" 
d="M148 -5q-21 0 -46 4.5t-50 15t-44 26.5q-3 3 -4.5 7t1.5 7l45 54q4 6 8 5t7 -3q26 -17 48.5 -24.5t51.5 -7.5q26 0 54.5 8.5t55.5 26.5t47 45.5t27 64.5q9 42 -2.5 73.5t-42 49t-79.5 17.5q-14 0 -32.5 -1t-37.5 -4t-35 -9q-12 -3 -15.5 -1.5t-1.5 9.5l64 303q1 6 3.5 9
t10.5 3h287q5 0 7 -1.5t1 -6.5l-12 -57q-1 -9 -11 -9h-214q-9 0 -10 -8l-32 -153q-1 -5 0.5 -7t7.5 -2q12 2 23.5 2h19.5q79 0 124.5 -26.5t61.5 -72t4 -103.5q-11 -53 -40 -96.5t-69.5 -74.5t-87 -47.5t-93.5 -15.5z" />
    <glyph glyph-name="six" unicode="6" horiz-adv-x="551" 
d="M226 -12q-46 1 -84.5 18.5t-64.5 54.5t-33.5 96t10.5 143q14 66 48.5 133t88 123t123 89.5t152.5 33.5q8 0 24 -1t30 -5q6 -1 10.5 -4.5t1.5 -14.5q-2 -12 -4.5 -23.5t-5.5 -23.5q-1 -8 -4 -10t-11 1q-6 2 -24.5 4t-41 0t-43.5 -13q-43 -4 -82 -26t-71.5 -55.5t-56 -73
t-34.5 -78.5q-3 -8 -1.5 -10t9.5 6q31 32 80.5 53t100.5 21q57 0 93.5 -18t56 -48t23.5 -67t-4 -76q-12 -57 -51.5 -110t-99.5 -86t-135 -33zM243 67q48 0 85.5 21.5t62 56t32.5 70.5q8 34 -1 64t-35.5 49t-73.5 19q-33 0 -67.5 -15.5t-64 -38t-48.5 -46.5
q-10 -45 0.5 -86.5t38.5 -67.5t71 -26z" />
    <glyph glyph-name="seven" unicode="7" horiz-adv-x="465" 
d="M75 0q-9 0 -11.5 1t-0.5 8q12 36 37 87.5t57.5 110t65.5 114.5q34 56 68 108t62.5 94.5t47.5 69.5q2 4 0 5.5t-9 2.5h-284q-4 0 -5.5 1t-0.5 5l11 58q2 6 4.5 7t7.5 1h400q4 0 5.5 -1t-0.5 -7l-7 -35q-1 -4 -3 -8t-5 -9q-20 -24 -53.5 -70t-74.5 -108t-85 -135
q-31 -52 -61 -105.5t-52.5 -101.5t-32.5 -85q-3 -5 -7.5 -6.5t-7.5 -1.5h-66z" />
    <glyph glyph-name="eight" unicode="8" horiz-adv-x="505" 
d="M200 -6q-59 0 -103.5 26t-65 70.5t-9.5 99.5q13 59 50.5 101.5t85.5 62.5q7 3 10 7t0 6q-34 15 -46.5 48.5t-2.5 82.5q11 51 45.5 91.5t82.5 64.5t99 24q52 0 90 -24t55 -64.5t6 -91.5q-11 -52 -38 -84.5t-65 -49.5q-1 -2 -0.5 -5t5.5 -5q40 -22 58.5 -62.5t5.5 -101.5
q-12 -55 -51.5 -99.5t-95 -70.5t-116.5 -26zM288 403q27 0 52.5 11t45 32.5t25.5 51.5q6 27 -3 49t-30 35t-50 13q-28 0 -54.5 -13t-45 -35t-24.5 -49q-6 -29 4 -50.5t31.5 -33t48.5 -11.5zM217 75q39 0 72.5 16t57.5 42.5t30 58.5q8 39 -4.5 66.5t-39.5 42.5t-62 15
q-35 1 -69 -13.5t-59.5 -42.5t-33.5 -68q-7 -32 5 -58.5t39 -42.5t64 -16z" />
    <glyph glyph-name="nine" unicode="9" horiz-adv-x="547" 
d="M248 242q-76 0 -116.5 30.5t-51.5 78t1 101.5q10 41 34.5 82t62 73.5t85.5 52t105 19.5q53 0 91.5 -20.5t61.5 -57.5t28.5 -89t-9.5 -118q-14 -72 -49 -143t-89.5 -129.5t-127 -94t-162.5 -35.5q-8 0 -22.5 1.5t-31.5 4.5q-6 1 -10.5 5t-2.5 14l11 48q2 8 5 9.5t10 -0.5
q13 -4 28.5 -5t25.5 -1q36 0 69 10t62.5 26.5t53.5 37.5t45.5 48.5t38.5 55.5t28.5 49.5t15.5 30.5q-38 -39 -89 -61.5t-101 -22.5zM351 600q-48 1 -86.5 -21.5t-63 -56.5t-31.5 -71q-7 -35 0.5 -64.5t32.5 -48t73 -18.5q49 0 96 29.5t80 72.5q15 66 3 105t-40 56t-64 17z
" />
    <glyph glyph-name="colon" unicode=":" horiz-adv-x="225" 
d="M118 28q-5 -20 -16.5 -30t-41.5 -10q-26 0 -35 10t-4 30q4 20 17 30t39 10q30 0 37.5 -10t3.5 -30zM205 443q-5 -20 -16.5 -30.5t-41.5 -10.5q-27 0 -36 10.5t-4 30.5q4 20 17.5 30t39.5 10q30 0 37.5 -10t3.5 -30z" />
    <glyph glyph-name="semicolon" unicode=";" horiz-adv-x="229" 
d="M213 443q-5 -20 -16.5 -30t-41.5 -10q-26 0 -35 10t-4 30q4 20 17 30.5t39 10.5q31 0 38 -10.5t3 -30.5zM114 28q-4 -18 -17 -43t-29 -48.5t-29 -38.5q-4 -5 -9 -6h-16.5h-18.5q-3 1 -2.5 3.5t4.5 8.5q5 9 14.5 24.5t18.5 32.5t15 29q-17 1 -22 12t-2 25q4 19 16.5 30
t37.5 11q22 0 33 -8t6 -32z" />
    <glyph glyph-name="less" unicode="&#x3c;" horiz-adv-x="457" 
d="M363 121l-294 152q-5 3 -7 5.5t-1 7.5l9 44q1 8 4.5 10t7.5 4l364 155q16 6 14 -7l-10 -50q-2 -5 -5.5 -7.5t-12.5 -6.5l-287 -125l237 -121q11 -6 11 -12l-11 -45q-1 -5 -5 -7.5t-14 3.5z" />
    <glyph glyph-name="equal" unicode="=" horiz-adv-x="506" 
d="M89 361q-6 0 -7 2.5t-1 6.5l8 46q1 6 3 8t8 2h366q5 0 6.5 -1.5t0.5 -7.5l-8 -48q0 -4 -2 -6t-8 -2h-366zM67 174q-6 0 -6.5 2t-0.5 7l8 46q1 6 3 7.5t8 1.5h365q5 0 7 -1.5t1 -7.5l-8 -48q0 -4 -2 -5.5t-8 -1.5h-367z" />
    <glyph glyph-name="greater" unicode="&#x3e;" horiz-adv-x="437" 
d="M33 119q-16 -7 -15 7l11 50q1 5 5 7.5t12 6.5l287 124l-237 123q-11 6 -10 12l11 44q1 5 5 7.5t14 -3.5l293 -152q5 -3 7.5 -5t1.5 -7l-10 -45q0 -6 -3.5 -9t-8.5 -5z" />
    <glyph glyph-name="question" unicode="?" horiz-adv-x="452" 
d="M111 168q-7 0 -7.5 3.5t0.5 11.5q12 50 26.5 84.5t33.5 59t43.5 44.5t54.5 39q22 14 47 30t44 36.5t23 46.5q7 36 -17 55.5t-67 19.5q-27 0 -52.5 -5t-47 -12t-36.5 -13q-9 -3 -11.5 -4.5t-3.5 7.5l-6 50q0 6 6 10.5t12 7.5q32 15 73.5 23.5t75.5 8.5q87 0 130 -40.5
t28 -110.5q-10 -48 -34.5 -76.5t-55 -46.5t-58.5 -35q-39 -24 -64 -49.5t-40 -57t-27 -75.5q-2 -7 -3.5 -9.5t-5.5 -2.5h-61zM68 29q4 20 17 30.5t39 10.5q29 0 36.5 -10.5t2.5 -30.5q-4 -20 -15.5 -30t-40.5 -10q-26 0 -34.5 10t-4.5 30z" />
    <glyph glyph-name="at" unicode="@" horiz-adv-x="841" 
d="M65 328q15 72 56.5 136t103.5 114t138.5 78.5t161.5 28.5q102 0 166.5 -25.5t98.5 -69t42 -97t-4 -109.5q-10 -49 -33 -94.5t-55 -80.5t-71 -55.5t-82 -20.5q-27 0 -44 10t-25.5 26t-10 35.5t0.5 37.5q0 3 0.5 5.5t-1 2t-7.5 -9.5q-19 -27 -44 -51t-54 -39t-62 -15
q-53 0 -82.5 26t-35 68.5t10.5 92.5q20 61 60 112.5t93.5 83t114.5 31.5q56 0 92 -13t64 -34q8 -6 8.5 -14t-5.5 -19q-8 -15 -16 -31t-16 -31q-11 -23 -24.5 -51.5t-24 -57.5t-14 -53t2.5 -39t25 -15q34 0 66.5 29.5t57.5 75.5t36 97q9 43 2.5 85t-33.5 76t-78 54.5
t-132 20.5q-67 0 -129 -24t-112 -66t-83.5 -95.5t-46.5 -114.5q-14 -63 -3.5 -115.5t43 -90.5t84 -58.5t121.5 -21.5q85 0 165 12.5t143 40.5q9 5 15.5 7.5t12.5 5.5q7 4 10 2.5t6 -5.5l13 -30q4 -6 -0.5 -10.5t-11.5 -9.5q-6 -3 -12.5 -6t-14.5 -6q-62 -29 -143.5 -43.5
t-192.5 -14.5q-86 1 -151 25t-106.5 69t-55.5 107.5t2 140.5zM561 435q5 10 9.5 18t1.5 13q-16 9 -34.5 13.5t-43.5 4.5q-32 0 -61.5 -16.5t-54 -43t-42 -58t-26.5 -61.5q-7 -29 -7 -53t11 -39.5t36 -15.5q27 0 51.5 20t47.5 51q22 27 52 72.5t60 94.5z" />
    <glyph glyph-name="A" unicode="A" horiz-adv-x="562" 
d="M-5 0q-6 0 -6.5 4.5t4.5 17.5q16 47 44 112t62.5 138.5t72 147t73.5 136t66 104.5q5 6 9.5 9.5t9.5 3.5h87q5 -1 8 -3.5t5 -9.5q12 -41 21.5 -104t16 -137t10 -148.5t3.5 -139t-3 -108.5q-1 -14 -3 -18.5t-9 -4.5h-71q-6 0 -7.5 3t-1.5 15q2 26 2 61v69q1 6 -1 7.5
t-9 1.5h-229q-6 0 -8.5 -1.5t-5.5 -8.5q-13 -33 -28 -68t-25 -61q-5 -12 -7.5 -15t-7.5 -3h-72zM184 229h190q5 0 7.5 3t2.5 12q-3 74 -7 150.5t-16 143.5q0 7 -7 7h-15q-5 0 -10 -7q-21 -35 -47.5 -85t-53 -105.5t-50.5 -107.5q-2 -4 -1.5 -7.5t7.5 -3.5z" />
    <glyph glyph-name="B" unicode="B" horiz-adv-x="527" 
d="M472 187q-15 -68 -50 -109.5t-83.5 -59.5t-102.5 -18h-201q-4 0 -6.5 2.5t-1.5 6.5l139 655q3 9 12 9h151q48 0 88.5 -4.5t68.5 -20t38.5 -49t-1.5 -91.5q-7 -31 -22 -61.5t-36.5 -54t-47.5 -35.5q-5 -2 -6 -6.5t4 -6.5q35 -16 52 -59t5 -98zM376 189q11 51 0.5 77
t-38.5 35t-70 9h-79q-7 0 -7 -6l-50 -232q0 -3 0.5 -4.5t4.5 -1.5h100q23 0 51 8t52.5 34.5t35.5 80.5zM427 505q10 46 -3.5 68t-44 28t-74.5 6h-53q-7 0 -8 -7l-45 -212q-1 -6 6 -6h88q37 0 63.5 14.5t44.5 42t26 66.5z" />
    <glyph glyph-name="C" unicode="C" horiz-adv-x="456" 
d="M377 25q-4 -16 -24 -22q-15 -5 -35.5 -7.5t-39 -3.5t-28.5 -1q-114 0 -165.5 87t-15.5 257q37 172 122.5 258.5t204.5 86.5q10 0 28 -1.5t37.5 -4t32.5 -6.5q9 -3 13.5 -7t2.5 -11l-13 -60q-4 -20 -20 -6q-14 10 -37 16.5t-51 6.5q-49 0 -86.5 -20.5t-64 -57t-44 -83
t-28.5 -97.5q-8 -35 -12.5 -74t-2.5 -76.5t14.5 -68.5t38.5 -49t70 -18q29 0 55 6.5t39 14.5q15 8 19 6.5t1 -12.5z" />
    <glyph glyph-name="D" unicode="D" horiz-adv-x="581" 
d="M556 347q-19 -88 -49 -149t-66.5 -100t-74.5 -60.5t-73 -29.5t-62 -8h-196q-4 0 -6.5 2.5t-1.5 6.5l139 655q3 9 12 9h196q32 0 66 -6t62.5 -24.5t47.5 -54.5t22 -94.5t-16 -146.5zM466 347q15 72 14.5 119t-12 74.5t-30 40.5t-40 16.5t-40.5 3.5h-105q-6 0 -7.5 -1.5
t-2.5 -5.5l-109 -515q-1 -4 0 -5.5t5 -1.5h89q26 0 58.5 9t67 37.5t64 83t48.5 145.5z" />
    <glyph glyph-name="E" unicode="E" horiz-adv-x="449" 
d="M35 0q-4 0 -6.5 2.5t-1.5 6.5l139 655q2 9 12 9h321q8 0 9 -1.5t-1 -8.5l-10 -51q-2 -8 -4.5 -9.5t-8.5 -1.5h-232q-6 0 -7 -1.5t-2 -6.5l-45 -210q-1 -5 0.5 -6.5t5.5 -1.5h186q9 0 10 -2t-1 -11l-10 -46q-1 -8 -3.5 -10.5t-10.5 -2.5h-187q-4 0 -6 -1t-3 -6l-45 -215
q-1 -5 -0.5 -7t6.5 -2h230q9 0 10 -2t0 -11l-10 -46q-3 -9 -5.5 -11t-10.5 -2h-319z" />
    <glyph glyph-name="F" unicode="F" horiz-adv-x="435" 
d="M35 0q-4 0 -6.5 2.5t-1.5 6.5l139 655q3 9 12 9h321q8 0 9 -1.5t-1 -8.5l-10 -51q-2 -8 -4.5 -9.5t-8.5 -1.5h-232q-6 0 -7 -1.5t-2 -6.5l-45 -210q-1 -5 0.5 -6.5t5.5 -1.5h180q9 0 10.5 -2t-1.5 -11l-9 -46q-2 -8 -4.5 -10.5t-10.5 -2.5h-181q-4 0 -5.5 -1t-3.5 -6
l-59 -283q-3 -9 -5 -11t-12 -2h-68z" />
    <glyph glyph-name="G" unicode="G" horiz-adv-x="564" 
d="M460 26q-3 -13 -20 -20t-42 -9.5t-53 -2.5q-175 0 -248.5 84t-39.5 247q24 110 81.5 189t138.5 121.5t172 42.5q32 0 67.5 -2.5t55.5 -9.5q10 -4 13.5 -6.5t1.5 -11.5l-11 -51q-2 -13 -8 -16t-13 1q-22 14 -48 19t-57 5q-33 0 -76 -12.5t-87 -43t-79.5 -83.5t-52.5 -135
q-14 -68 -8.5 -114.5t25 -77t47.5 -46.5t58.5 -22.5t58.5 -6.5q35 0 43 12l47 219q1 6 -0.5 7.5t-6.5 1.5h-136q-6 0 -8 2t-1 8l11 51q1 6 4 8.5t9 2.5h221q11 0 13 -2.5t-1 -13.5z" />
    <glyph glyph-name="H" unicode="H" horiz-adv-x="610" 
d="M48 0q-4 0 -8 1.5t-3 7.5q3 34 11 87.5t19.5 116.5t25.5 129q13 64 28 125t29.5 112t27.5 84q1 5 6 7t8 2h36h36q8 0 5 -9q-15 -49 -29.5 -102t-26 -99t-18.5 -75q-2 -8 -1 -10t8 -2h132h132q5 0 9 2t5 10q5 27 12.5 72t16 98.5t14.5 106.5q1 4 3 6t5 2h36.5h35.5
q4 0 8 -2t3 -7q-2 -33 -9 -84.5t-18 -113t-25 -124.5q-14 -66 -29.5 -129t-30 -116t-25.5 -87q-2 -6 -6.5 -7.5t-9.5 -1.5h-36h-36q-6 0 -3 9q12 36 23.5 76t21 79t17 73t12.5 56q2 7 0 8.5t-8 1.5h-132.5h-133.5q-6 0 -8.5 -1.5t-4.5 -8.5q-5 -24 -11.5 -58t-13.5 -72.5
t-12.5 -78t-7.5 -75.5q-1 -9 -7 -9h-37h-36z" />
    <glyph glyph-name="I" unicode="I" horiz-adv-x="242" 
d="M118 9q-2 -9 -11 -9h-72q-10 0 -8 9l139 655q2 9 12 9h72q4 0 6 -2.5t1 -6.5z" />
    <glyph glyph-name="J" unicode="J" horiz-adv-x="308" 
d="M225 176q-15 -69 -36.5 -107.5t-55.5 -54t-85 -15.5l-75 1q-7 0 -14.5 2.5t-6.5 8.5l11 51q2 10 11 9q15 0 35 -1t34 -1q36 0 56 18.5t31 70.5l107 506q3 9 11 9h73q4 0 6.5 -2.5t0.5 -6.5z" />
    <glyph glyph-name="K" unicode="K" horiz-adv-x="538" 
d="M29 0q-4 0 -3 4q35 167 70.5 333t70.5 332q2 4 5 4h15h27h27h15q5 0 3 -4q-8 -38 -15 -71.5t-14 -65t-14 -65.5t-15 -72q-1 -3 -0.5 -5.5t3.5 -2.5h57q5 0 9 3t7 7q28 38 52 71t46.5 63t46.5 62.5t52 70.5q5 5 7.5 7t6.5 2h15h26h25.5h14.5q7 0 5.5 -4.5t-8.5 -16.5
q-39 -50 -75 -97t-70.5 -95t-70.5 -101q-6 -9 -8 -15t-3 -12q-4 -25 -1.5 -53.5t10.5 -57.5t20.5 -54.5t27.5 -42.5q17 -19 39.5 -30.5t53.5 -11.5q2 0 5 -1t2 -3l-15 -73q-1 -5 -4 -5q-53 0 -89 11.5t-64 38.5q-17 17 -31 42.5t-24 55.5t-15.5 61t-6.5 60q0 8 -3.5 10.5
t-5.5 2.5h-28h-28l-2.5 -1t-4.5 -6q-8 -39 -15 -71.5t-13.5 -64t-13.5 -64t-15 -71.5q-1 -4 -5 -4h-15h-27h-27h-15z" />
    <glyph glyph-name="L" unicode="L" horiz-adv-x="429" 
d="M35 0q-10 0 -8 9l139 655q2 9 12 9h70q7 0 8.5 -2.5t0.5 -8.5l-123 -581q-1 -5 -0.5 -7t6.5 -2h229q9 0 10.5 -2t-0.5 -11l-10 -46q-2 -9 -4.5 -11t-11.5 -2h-318z" />
    <glyph glyph-name="M" unicode="M" horiz-adv-x="713" 
d="M31 0q-11 0 -8 11q17 82 39.5 172.5t46.5 179t47.5 166.5t43.5 134q2 6 4.5 8t7.5 2h45q12 0 15 -9q26 -71 53 -144t53 -146q3 -5 7 -5.5t7 4.5l232 292q4 6 8 7t10 1h44q9 0 8 -11q-5 -55 -14 -132t-22.5 -165.5t-29.5 -179.5t-33 -174q-2 -6 -5 -8.5t-11 -2.5h-67
q-10 0 -8 11q8 39 17 87t18 100t17.5 102.5t15.5 96.5t11 82q1 7 -3 7t-9 -6l-188 -231q-4 -6 -11 -6h-31q-6 0 -8 5l-87 229q-2 5 -6.5 5t-6.5 -5q-14 -46 -28.5 -100t-30.5 -114t-31.5 -124.5t-29.5 -131.5q-1 -5 -3 -6t-6 -1h-73z" />
    <glyph glyph-name="N" unicode="N" horiz-adv-x="641" 
d="M454 194q2 -4 6.5 -4t5.5 6q9 34 20 79t22 95.5t20.5 102.5t16.5 100.5t10 89.5q2 10 8 10h73q4 0 7.5 -2.5t2.5 -6.5q-1 -36 -9 -88.5t-20 -115t-26 -128t-29 -127t-29 -112.5t-26 -84q-2 -6 -6.5 -7.5t-9.5 -1.5h-48q-6 0 -9 11l-205 472q-1 4 -4.5 4t-4.5 -5
q-12 -48 -24 -100t-23.5 -104.5t-21 -102t-15.5 -92t-9 -73.5q-1 -10 -8 -10h-71q-5 0 -9 1.5t-3 7.5q4 34 11.5 85.5t19 113.5t25 127t28.5 127.5t29.5 114.5t28.5 87q2 4 6.5 6.5t7.5 2.5h48q6 0 8 -7z" />
    <glyph glyph-name="O" unicode="O" horiz-adv-x="631" 
d="M69 335q24 110 63 186.5t105.5 116t170.5 39.5q82 0 129.5 -22.5t67.5 -65.5t18 -107t-19 -147q-23 -111 -61 -187t-104.5 -115.5t-175.5 -39.5q-105 0 -154.5 39.5t-56 115.5t16.5 187zM164 335q-22 -105 -16.5 -162.5t38 -80t92.5 -22.5q59 0 102.5 22.5t75 80
t53.5 162.5q23 105 16 163t-41 81t-93 23q-60 0 -102.5 -23.5t-72.5 -81t-52 -162.5z" />
    <glyph glyph-name="P" unicode="P" horiz-adv-x="488" 
d="M498 460q-13 -64 -47 -117t-85 -85t-117 -32h-77q-4 0 -6 -2.5t-3 -6.5l-44 -208q-2 -9 -12 -9h-72q-4 0 -6.5 2.5t-1.5 6.5l139 655q3 9 12 9h156q111 0 149.5 -52t14.5 -161zM181 303q-1 -5 1 -6.5t5 -1.5h68q57 0 97.5 43.5t56.5 120.5q17 81 -6.5 114.5t-83.5 33.5
h-66q-4 0 -6 -1.5t-3 -7.5z" />
    <glyph glyph-name="Q" unicode="Q" horiz-adv-x="631" 
d="M69 333q24 111 63 187.5t105 116t171 39.5q81 0 129 -22.5t68 -65.5t18 -107.5t-20 -147.5q-20 -94 -50 -163t-78.5 -111.5t-123.5 -57.5q-7 -2 -14.5 -3.5t-14.5 -2.5q-5 -1 -8 -3t-4 -6q-7 -38 -3 -60.5t24 -32.5t61 -10h34q11 0 9 -11l-9 -42q-2 -6 -4.5 -8.5
t-9.5 -4.5q-4 -1 -18 -1.5t-27 -0.5q-69 0 -105 19.5t-45.5 57.5t-0.5 93q1 4 -0.5 6.5t-7.5 3.5q-7 1 -14.5 2.5t-17.5 5.5q-66 15 -95.5 57t-30.5 110.5t19 162.5zM164 334q-23 -104 -17.5 -161.5t38.5 -80t92 -22.5q60 0 103 22t75 79.5t54 162.5q23 105 15.5 163
t-41.5 81t-93 23t-101.5 -23t-72.5 -81t-52 -163z" />
    <glyph glyph-name="R" unicode="R" horiz-adv-x="537" 
d="M35 0q-4 0 -6.5 2.5t-1.5 6.5l139 655q2 9 12 9h152q76 0 119 -18.5t56 -61.5t-3 -118q-13 -61 -47 -110t-88 -73q-14 -9 -20.5 -17.5t-1.5 -21.5q2 -26 8.5 -53.5t18.5 -50.5t28 -38q16 -13 36 -21t46 -8q6 0 8 -2t1 -9l-13 -62q-1 -4 -2.5 -6t-8 -2.5t-20.5 -0.5
q-40 0 -70 12.5t-53 33.5q-22 21 -37.5 52t-25 68t-11.5 74q0 4 -2 10.5t-10 6.5h-60q-3 0 -5.5 -2.5t-3.5 -9.5l-50 -236q-2 -9 -12 -9h-72zM189 339q-1 -8 6 -8h67q57 0 96 35.5t54 108.5q12 55 4.5 83t-34 38.5t-70.5 10.5h-59q-4 0 -6 -1.5t-3 -7.5z" />
    <glyph glyph-name="S" unicode="S" horiz-adv-x="468" 
d="M11 30l13 59q1 6 4.5 5.5t10.5 -3.5q18 -6 42 -12t47.5 -9.5t40.5 -3.5q65 0 105 35.5t51 89.5q9 40 -2.5 63.5t-35.5 37t-54 21.5q-25 7 -54 17.5t-52.5 29.5t-34 52t1.5 86q13 64 50.5 103.5t89 57.5t106.5 18q16 0 40.5 -3t50 -9.5t42.5 -15.5q5 -1 7 -4t0 -8l-11 -53
q-4 -18 -23 -6q-15 8 -35 14.5t-41.5 10.5t-38.5 4q-54 0 -94 -27.5t-50 -74.5q-7 -34 3.5 -55.5t32 -33.5t47.5 -20t49 -16q28 -9 51 -21.5t38 -32.5t19 -51t-6 -77q-14 -68 -51 -113.5t-92.5 -69.5t-123.5 -24q-29 0 -66 7t-66 17q-7 2 -10 5.5t-1 9.5z" />
    <glyph glyph-name="T" unicode="T" horiz-adv-x="442" 
d="M134 0q-4 0 -6.5 2.5t-1.5 7.5l124 583q1 5 0 6.5t-6 1.5h-135q-8 0 -9 1.5t0 7.5l11 54q2 6 4 7.5t8 1.5h380q8 0 9.5 -1.5t0.5 -7.5l-12 -54q-1 -6 -3.5 -7.5t-10.5 -1.5h-137q-5 0 -6.5 -1.5t-2.5 -6.5l-124 -584q-2 -9 -11 -9h-72z" />
    <glyph glyph-name="U" unicode="U" horiz-adv-x="634" 
d="M264 -10q-65 0 -106 12.5t-63 33.5t-30 45.5t-8 48.5t2 42q5 41 13 89.5t18 92.5q11 48 24.5 102.5t29.5 108t32 98.5q2 4 5.5 7t8.5 3h33.5h33.5q7 0 7.5 -2t-2.5 -14q-13 -40 -25.5 -84t-24.5 -90q-20 -78 -36.5 -154t-24.5 -145q-3 -18 -2 -36t7.5 -33.5t20.5 -27.5
t39 -18.5t61 -6.5q47 0 78.5 10t52 28t33 39.5t18.5 44.5q20 68 36 142.5t29 151.5q8 48 14 93t11 86q1 12 2.5 14t8.5 2h34.5h35.5q5 0 7.5 -3t1.5 -7q-2 -45 -9.5 -98t-16.5 -107t-19 -102q-9 -45 -20.5 -93.5t-24.5 -90.5q-8 -23 -22.5 -53.5t-44.5 -60t-82.5 -49
t-135.5 -19.5z" />
    <glyph glyph-name="V" unicode="V" horiz-adv-x="546" 
d="M186 0q-5 1 -8 3.5t-5 8.5q-13 42 -22.5 105t-16 136t-10 147t-3.5 139t4 111q1 13 3 18t9 5h70q6 0 8 -3t1 -15q-2 -35 -2 -79t1.5 -92t4 -96.5t7 -92.5t10.5 -81q1 -17 3 -41t5 -42q2 -5 4 -5t6 5q11 17 23 41t22 42q20 36 43 80t47 93t46.5 97t40.5 92.5t30 78.5
q5 12 8 15t9 3h71q7 0 7 -5t-5 -18q-13 -37 -34.5 -88.5t-49 -111.5t-58 -122.5t-62 -121.5t-60.5 -109t-54 -84q-5 -7 -9 -9.5t-10 -3.5h-74z" />
    <glyph glyph-name="W" unicode="W" horiz-adv-x="842" 
d="M184 0q-9 0 -12 3t-4 8q-12 42 -22 105t-16.5 136.5t-10 148.5t-3 142.5t4.5 116.5q1 6 2.5 9.5t8.5 3.5h70q6 0 7.5 -2t1.5 -8q-1 -40 -2 -81.5t0 -89.5t3 -107q2 -32 4 -68t5 -71t7 -64.5t8 -48.5q1 -2 2 -5.5t3 -3.5h5q3 0 5 2.5t5 6.5q12 18 28.5 47t35 63t35.5 69
t31.5 65t23.5 52q8 32 15 67.5t13 69.5t11 59t7 36q2 6 3 9.5t8 3.5h71q6 0 7.5 -2t0.5 -9q-19 -94 -25 -180t0 -171t21 -176l1.5 -9t2.5 -3h3.5h3.5q3 0 7 7q23 38 48 85.5t49 96t43 88.5q29 62 60.5 132t52.5 127q3 8 5.5 10.5t6.5 2.5h73q11 0 4 -15q-14 -35 -36.5 -86.5
t-50 -112.5t-58.5 -125.5t-62 -125t-60 -111t-54 -84.5q-2 -4 -7 -8.5t-11 -4.5h-23h-29h-23q-4 0 -8 4t-5 8q-8 32 -15.5 74t-13.5 92t-10 105q0 6 -3 7t-7 -6q-24 -50 -51.5 -102t-54 -96.5t-46.5 -72.5q-4 -7 -9 -10t-9 -3h-72z" />
    <glyph glyph-name="X" unicode="X" horiz-adv-x="533" 
d="M385 355q-8 -9 -9 -16.5t3 -17.5q5 -11 9.5 -20t7.5 -19q18 -43 30.5 -84.5t21.5 -78t13.5 -63t4.5 -40.5q0 -10 -4.5 -13t-11.5 -3h-72q-4 0 -6.5 2.5t-4.5 11.5q-1 9 -5.5 32.5t-12.5 55t-17.5 65.5t-20 64.5t-20.5 50.5q-6 4 -13 4.5t-15 -4.5q-22 -24 -46.5 -56
t-48.5 -65t-44 -63.5t-34 -52.5t-18 -31q-5 -8 -8 -11t-9 -3h-72q-7 0 -10 3t1 13q3 6 15 27.5t33.5 55t50.5 74.5t65 86q11 14 25 31t27 31q5 5 8 16.5t-1 17.5q-21 50 -36.5 97t-25 87.5t-13.5 70.5t-4 46q0 10 5 13.5t11 3.5h71q6 0 8 -2t2 -9l2.5 -17.5t7.5 -46.5
t13 -64t18.5 -70t24.5 -64q2 -2 3.5 -4.5t4.5 -4.5q5 -3 9.5 -2t9.5 2q4 3 5.5 3.5t5.5 4.5q26 28 52 63t48.5 70t40.5 64.5t28 47.5l10 18q4 7 7 9t8 2h72q6 0 9.5 -3.5t-0.5 -13.5q-7 -16 -26.5 -48.5t-48.5 -75t-63.5 -88t-70.5 -89.5z" />
    <glyph glyph-name="Y" unicode="Y" horiz-adv-x="503" 
d="M322 295q-7 -8 -13 -22.5t-8 -25.5l-51 -238q-1 -4 -4.5 -6.5t-6.5 -2.5h-73q-4 0 -6 2.5t-1 6.5l50 237q4 20 0 40.5t-10 33.5q-6 10 -14 28.5t-16.5 39t-15 38t-8.5 26.5q-17 53 -26 97t-12.5 72.5t-3.5 34.5q0 10 5 13.5t12 3.5h70q5 0 7 -2.5t3 -8.5q1 -17 6 -45.5
t13 -61.5t16 -63q8 -27 17.5 -52.5t20.5 -49.5q5 -9 8.5 -10.5t12.5 9.5q12 12 25.5 27.5t26.5 32.5t25 32q22 31 45 66.5t41.5 66.5t25.5 49q3 6 6.5 8t9.5 2h72q5 0 8.5 -3.5t-1.5 -13.5q-2 -6 -17 -34.5t-42 -72.5t-66 -96q-9 -13 -25 -33t-34.5 -43t-37.5 -44.5
t-34 -37.5z" />
    <glyph glyph-name="Z" unicode="Z" horiz-adv-x="458" 
d="M507 673q5 0 6.5 -2t-0.5 -10l-8 -39q-3 -14 -20 -33t-37 -39q-34 -31 -74.5 -75t-82.5 -95t-82 -105t-73 -106t-55 -97h319q8 0 9.5 -2t-0.5 -8l-10 -53q-2 -6 -4 -7.5t-9 -1.5h-395q-14 0 -16 8.5t2 23.5q11 39 37.5 88.5t63 104t79.5 109.5t86 105.5t81 92t65 69.5
h-271q-8 0 -9.5 2t-0.5 7l12 54q1 5 3.5 7t9.5 2h374z" />
    <glyph glyph-name="bracketleft" unicode="[" horiz-adv-x="353" 
d="M206 -103q-3 -10 -10 -10h-213q-6 0 -8 3t-1 9l178 839q3 10 13 10h211q7 0 8.5 -1t0.5 -6l-9 -44q-1 -4 -3.5 -5.5t-7.5 -1.5h-136l-158 -744h136q5 0 7 -1.5t1 -6.5z" />
    <glyph glyph-name="backslash" unicode="\" horiz-adv-x="563" 
d="M414 0q-6 0 -9 3t-5 8l-266 675q-6 13 -4.5 17t8.5 4h57q7 0 9 -1.5t6 -7.5l273 -686q2 -4 0.5 -8t-8.5 -4h-61z" />
    <glyph glyph-name="bracketright" unicode="]" horiz-adv-x="353" 
d="M10 -113q-9 0 -6 10l9 41q1 5 3.5 6.5t7.5 1.5h135l159 744h-136q-4 0 -6.5 1.5t-1.5 5.5l9 44q1 5 3.5 6t9.5 1h211q11 0 8 -10l-179 -839q-1 -6 -3.5 -9t-8.5 -3h-214z" />
    <glyph glyph-name="asciicircum" unicode="^" horiz-adv-x="593" 
d="M95 410q-9 0 -11 3t4 8l257 277q4 4 8.5 6.5t15.5 2.5h60q7 0 10 -2.5t5 -8.5l139 -273q6 -8 2 -10.5t-12 -2.5h-68q-6 0 -13 10l-109 221l-203 -220q-6 -6 -10 -8.5t-12 -2.5h-63z" />
    <glyph glyph-name="underscore" unicode="_" horiz-adv-x="560" 
d="M-46 -92q-5 0 -6 2.5t0 6.5l7 34q1 6 3 8t7 2h513q5 0 6.5 -1.5t0.5 -7.5l-8 -37q0 -4 -2 -5.5t-9 -1.5h-512z" />
    <glyph glyph-name="grave" unicode="`" horiz-adv-x="155" 
d="M169 529q-9 0 -17 8l-67 89q-3 3 -1 6t5 3h69q7 0 10.5 -1.5t6.5 -7.5l40 -87q7 -10 -2 -10h-44z" />
    <glyph glyph-name="a" unicode="a" horiz-adv-x="482" 
d="M183 -6q-97 0 -135 57.5t-11 178.5q16 76 44.5 123.5t64 74t72.5 36.5t71 10q30 0 57 -10t38 -20l5 20q1 4 4 5.5t7 1.5h68q10 0 9 -9q-3 -21 -10 -56.5t-17 -80t-22 -93.5t-25 -97.5t-26 -90.5q-4 -8 -9 -14t-22 -11q-27 -10 -72.5 -17.5t-90.5 -7.5zM204 64
q15 0 32 2.5t31 6t19 4.5q6 2 11 6t8 13q6 24 13 53t14.5 59.5t14 59.5t11.5 53t8 38q2 6 -0.5 10.5t-8.5 7.5q-15 7 -35 14t-45 7q-17 0 -38 -6t-42.5 -23t-39.5 -50.5t-30 -89.5q-20 -93 1 -129t76 -36z" />
    <glyph glyph-name="b" unicode="b" horiz-adv-x="482" 
d="M192 -6q-51 0 -89 9t-49 13q-14 5 -20 9t-7 12t0 22q0 18 5.5 55.5t13.5 81t15 79.5q23 113 51.5 223t56.5 201q2 5 6 7t10 2h64q11 0 10.5 -4t-3.5 -13q-6 -17 -13 -40.5t-14.5 -50t-14 -51.5t-11.5 -44.5t-8 -30.5q-2 -9 2 -11.5t11 -0.5q15 4 41.5 9t50.5 5
q35 0 66.5 -11t54.5 -38.5t30 -76t-9 -124.5q-25 -121 -91 -176.5t-159 -55.5zM205 63q32 0 61 15.5t51 51.5t35 98q12 56 8.5 90t-16 52t-31 24.5t-36.5 6.5q-11 0 -29 -3t-34.5 -7t-24.5 -6q-5 -1 -8.5 -4t-6.5 -11q-5 -19 -11.5 -50t-14 -69.5t-15 -78.5t-12.5 -77
q-1 -8 0.5 -12t5.5 -6q13 -5 33 -9.5t45 -4.5z" />
    <glyph glyph-name="c" unicode="c" horiz-adv-x="403" 
d="M191 -5q-62 0 -98 18.5t-51.5 52t-15 77.5t11.5 94q10 47 28.5 90.5t49 78.5t74 55t104.5 20q42 0 71 -9t48 -27q5 -6 6 -9t-1 -9l-11 -53q-1 -7 -6 -7t-8 3q-18 21 -46 29t-59 8q-35 0 -62.5 -15t-47 -40t-32.5 -55t-20 -61q-10 -52 -6 -90.5t26 -59.5t65 -21
q29 0 54.5 6t52.5 18q14 6 16 -5l10 -40q1 -6 -1 -9t-8 -6q-28 -18 -66.5 -26t-77.5 -8z" />
    <glyph glyph-name="d" unicode="d" horiz-adv-x="487" 
d="M37 230q17 76 45 123.5t63 74t72 36.5t71 10q23 0 45.5 -3.5t36.5 -7.5q10 -2 14 -1.5t6 9.5q4 17 8.5 41t8.5 49.5t8 50t6.5 43.5t3.5 27q1 11 4 13.5t9 2.5h67q5 0 8 -1.5t2 -6.5q-6 -46 -15 -101.5t-20.5 -115t-23.5 -120t-25.5 -117t-27 -105.5t-26.5 -87
q-3 -8 -8.5 -14t-24.5 -12q-24 -10 -67 -18t-89 -8q-40 0 -73.5 10t-53.5 32q-26 28 -33 77t9 119zM127 229q-14 -67 -6.5 -101.5t31.5 -46.5q15 -13 39 -16.5t50.5 0t46.5 11.5q5 3 9 6t5 8q6 24 14 54.5t15.5 63t14.5 63t13 56t9 40.5q2 9 -0.5 12.5t-7.5 4.5
q-19 6 -42 10t-41 4q-17 0 -38 -6t-42.5 -23t-39.5 -50.5t-30 -89.5z" />
    <glyph glyph-name="e" unicode="e" horiz-adv-x="466" 
d="M38 237q10 47 28.5 90.5t49 78.5t74 55t104.5 20q63 0 96.5 -18.5t46 -49t11.5 -67t-9 -72.5q-8 -39 -19 -49.5t-27 -10.5h-258q-4 0 -7.5 -2t-5.5 -11q-7 -40 0.5 -72t32 -50t68.5 -18q35 0 73.5 9t62.5 22q9 5 15.5 6.5t9.5 -10.5l9 -30q3 -8 0 -11t-12 -8
q-38 -24 -89 -34t-101 -10q-63 0 -98.5 18.5t-51 52t-15 77.5t11.5 94zM352 288q5 25 5 47t-7.5 39.5t-25.5 27t-47 9.5q-31 0 -54 -11.5t-39.5 -30.5t-27.5 -40.5t-17 -41.5q-3 -11 -2.5 -15t7.5 -4h94.5h94.5q9 0 12.5 3.5t6.5 16.5z" />
    <glyph glyph-name="f" unicode="f" horiz-adv-x="343" 
d="M-78 -234q-34 0 -53 6t-18 6q-7 3 -4 14q1 4 3.5 13t4 18.5t2.5 12.5q2 6 3.5 6t6.5 -1q15 -6 28.5 -8t29.5 -2q46 0 73.5 29.5t38.5 84.5q13 69 23 126t18.5 109t18 104.5t21.5 110.5q2 10 -7 10h-27.5h-26.5q-4 0 -6 2t-1 7q3 12 5.5 24t4.5 24q1 6 4.5 8t8.5 2h32.5
h22.5q8 0 9 8q7 43 20.5 85.5t46.5 79.5q28 31 73 49t109 18q30 0 53.5 -8.5t33.5 -15.5q7 -4 7.5 -7.5t-1.5 -8.5q-5 -10 -10.5 -19.5t-10.5 -19.5q-3 -7 -6 -8t-7 2q-11 7 -31 12.5t-46 5.5q-40 0 -68 -15.5t-44 -49.5q-12 -21 -19 -48.5t-12 -50.5q-2 -9 6 -9h63h79
q5 0 6 -1.5t0 -9.5l-4 -20t-6 -26q0 -6 -3 -8t-9 -2h-49h-42h-49q-2 0 -5.5 -2.5t-4.5 -7.5q-1 -4 -3 -12.5t-3.5 -17t-2.5 -13.5q-9 -44 -17.5 -89t-17 -94t-18 -103.5t-21.5 -119.5q-16 -86 -62 -133t-140 -47z" />
    <glyph glyph-name="g" unicode="g" horiz-adv-x="489" 
d="M39 242q15 67 44.5 120.5t81.5 84.5t134 31q39 0 76 -6t63 -18q17 -6 20 -16.5t1 -32.5q-8 -76 -27 -173.5t-54 -199.5q-29 -86 -88.5 -126t-150.5 -40q-36 0 -75.5 10t-69.5 36q-4 4 -5 9t3 10q3 4 8 10.5t10.5 13.5t8.5 10q7 8 10.5 8.5t9.5 -3.5q12 -9 30.5 -17.5
t40 -14t40.5 -5.5q25 0 50.5 8t48 27.5t35.5 53.5q0 2 1 3.5t1 2.5q2 7 -1.5 9.5t-12.5 0.5q-17 -4 -39 -7.5t-44 -3.5q-59 0 -98.5 25t-53 73t1.5 117zM134 254q-10 -46 -7.5 -82t23 -56.5t63.5 -20.5q20 0 39.5 2.5t36.5 8.5q10 4 17.5 10.5t9.5 14.5q8 25 15.5 59.5
t14.5 70t12 66t7 49.5q1 6 0 15t-9 13q-10 6 -29.5 9t-42.5 3q-65 0 -100 -45t-50 -117z" />
    <glyph glyph-name="h" unicode="h" horiz-adv-x="480" 
d="M12 9q37 172 73.5 345t73.5 345q1 9 11 9h35.5h34.5q9 0 8 -9q-12 -56 -24.5 -113.5t-24.5 -114.5q-1 -7 1.5 -9t9.5 0q19 5 45.5 10t51.5 5q40 0 69 -11.5t45.5 -39t19 -73.5t-10.5 -114q-8 -40 -18.5 -82t-22.5 -80.5t-22 -68.5q-2 -5 -5.5 -6.5t-9.5 -1.5h-31h-31
q-11 0 -12 2.5t4 14.5q14 44 27 94.5t24 98.5q13 55 14 92.5t-7.5 61t-25.5 34.5t-42 11q-15 0 -35 -3.5t-37 -8.5q-7 -1 -13 -6t-8 -17l-78 -365q-2 -9 -11 -9h-70q-10 0 -8 9z" />
    <glyph glyph-name="i" unicode="i" horiz-adv-x="205" 
d="M231 602q-4 -22 -15.5 -33.5t-42.5 -11.5q-28 0 -36 11.5t-4 33.5q4 20 17.5 31.5t41.5 11.5q32 0 37.5 -11.5t1.5 -31.5zM101 9q-2 -9 -10 -9h-71q-9 0 -7 9l96 454q2 9 11 9h71q3 0 5.5 -2.5t0.5 -6.5z" />
    <glyph glyph-name="j" unicode="j" horiz-adv-x="204" 
d="M-64 -127q-22 0 -47 4.5t-39 13.5q-11 8 -12 12t4 11l22 30q4 6 7.5 6t8.5 -3q23 -12 48 -11q40 1 62.5 27t32.5 74l91 426q2 9 10 9h71q3 0 6 -2.5t1 -6.5l-91 -426q-16 -77 -55 -120.5t-120 -43.5zM178 557q-29 0 -36.5 11.5t-3.5 33.5q4 20 17 31.5t42 11.5
q31 0 37 -11.5t2 -31.5q-4 -22 -16 -33.5t-42 -11.5z" />
    <glyph glyph-name="k" unicode="k" horiz-adv-x="439" 
d="M11 4l146 685q1 4 4 4h81q5 0 4 -4l-82 -387q-1 -2 -1 -5.5t2 -3.5q11 0 22.5 1t21.5 2q9 3 14 6t14 12q23 23 42.5 47t37 50t32.5 51q5 8 9 9t12 1h71q7 0 6.5 -3.5t-2.5 -7.5q-1 -3 -13.5 -21.5t-33 -46.5t-45.5 -58.5t-52 -57.5q-5 -4 -8.5 -7.5l-7.5 -7.5
q1 -1 3.5 -3t3.5 -4q14 -18 26 -47.5t22 -63.5t17.5 -64t11.5 -50t5 -22q2 -8 -5 -8h-14.5h-25.5h-26h-15q-4 0 -5 0.5t-3 6.5l-6 23t-15 56.5t-19.5 64.5t-20.5 49q-4 8 -10.5 14.5t-19.5 10t-38 -0.5q-4 -1 -7 -11l-44 -209q-1 -4 -5 -4h-81q-4 0 -3 4z" />
    <glyph glyph-name="l" unicode="l" horiz-adv-x="207" 
d="M12 9l147 690q2 9 11 9h69q11 0 9 -9l-147 -690q-2 -9 -12 -9h-69q-10 0 -8 9z" />
    <glyph glyph-name="m" unicode="m" horiz-adv-x="737" 
d="M529 405q-27 0 -55 -15.5t-34 -46.5l-10 -48q-13 -62 -25.5 -120.5t-21.5 -101.5t-14 -61q-1 -4 -3.5 -8t-9.5 -4h-72q-7 0 -5 7l53 246q10 48 7 82t-27 54q-21 16 -50 15t-55 -9q-7 0 -17 -4.5t-12 -16.5l-77 -362q-1 -4 -3 -8t-6 -4h-71q-3 0 -6.5 1.5t-2.5 7.5l89 418
q1 6 7 12t18 10q16 6 41 12t51 10.5t43 4.5q63 0 96 -15.5t51 -42.5q19 18 43 31t48.5 20t48.5 7q76 0 110.5 -30t40 -80.5t-7.5 -113.5q-11 -51 -22.5 -95.5t-23 -82t-21.5 -69.5q-2 -5 -10 -5h-70q-5 0 -6 2.5t1 11.5q6 22 16.5 61t22.5 86.5t22 94.5q5 23 6 49.5t-6 49
t-23.5 36.5t-47.5 14z" />
    <glyph glyph-name="n" unicode="n" horiz-adv-x="481" 
d="M21 0q-3 0 -6.5 1.5t-2.5 7.5q23 105 45 210l44 210q2 8 8 12.5t24 9.5q13 4 40 9.5t57.5 10.5t55.5 5q59 0 93 -17.5t49 -48.5t15.5 -71.5t-9.5 -86.5q-9 -43 -20 -87.5t-22 -83.5t-19 -65q-4 -12 -7.5 -14t-13.5 -2h-64q-9 0 -6 9q1 5 6.5 26t13.5 50.5t16 61.5l15 60
t11 46q12 53 7.5 86t-24.5 49t-58 16q-20 0 -37.5 -3t-32.5 -8q-7 -1 -13.5 -7t-8.5 -18q-18 -86 -37 -175.5t-39 -180.5q-1 -4 -2.5 -8t-6.5 -4h-71z" />
    <glyph glyph-name="o" unicode="o" horiz-adv-x="496" 
d="M196 -6q-63 0 -99.5 18t-53 50.5t-16.5 77t11 97.5q15 70 46 124.5t83.5 85.5t131.5 31q80 0 119 -31t47.5 -85.5t-6.5 -124.5t-44.5 -125t-82 -86.5t-136.5 -31.5zM210 63q67 0 103.5 45.5t53.5 127.5q18 81 -2 125t-82 44t-100 -44t-56 -125q-17 -83 0 -128t83 -45z
" />
    <glyph glyph-name="p" unicode="p" horiz-adv-x="490" 
d="M-6 -103q8 53 22.5 129t36.5 177q9 36 18.5 77.5t20 81.5t20.5 70q3 8 9 14t23 10q30 10 72 17t91 7q97 0 135 -56.5t12 -177.5q-14 -64 -42 -116.5t-69 -85.5t-95 -41q-19 -4 -43.5 -5.5t-47.5 -0.5t-38 4q-7 2 -11 2t-6 -6q-2 -8 -5.5 -24t-7 -34.5t-5.5 -32.5
q-1 -9 -2.5 -13.5t-12.5 -4.5h-64q-6 0 -9 2.5t-2 6.5zM123 100q-2 -8 1.5 -11t8.5 -4q17 -6 40 -9.5t40 -3.5q19 0 39.5 7t42 25t39.5 52.5t30 89.5q13 63 7 99t-27 51t-54 15q-23 0 -46.5 -3.5t-41.5 -10.5q-4 -2 -8 -5t-5 -8q-7 -24 -15 -55t-15.5 -64.5t-14.5 -65.5
t-12.5 -58t-8.5 -41z" />
    <glyph glyph-name="q" unicode="q" horiz-adv-x="488" 
d="M130 3q-26 6 -49 21t-38 43t-17 72t14 107q31 121 96.5 177.5t162.5 56.5q49 0 87.5 -7t64.5 -17q14 -4 16.5 -10t2.5 -14q-2 -26 -10.5 -67t-20.5 -91t-26 -103.5t-27.5 -105t-26.5 -95t-22 -73.5q-2 -4 -5.5 -6.5t-9.5 -2.5h-65q-10 0 -9 4.5t4 13.5q4 14 9 32.5
t9 34.5l6 24q1 6 -3.5 6t-13.5 -2q-28 -4 -63.5 -4.5t-65.5 6.5zM131 246q-14 -55 -12 -89.5t14 -52.5t30 -24.5t35 -6.5q18 0 43.5 3t47.5 9q5 1 9 4t5 11q5 15 11.5 41l14.5 58t15.5 65.5t14.5 64.5t12 55q2 5 0 8t-7 5q-16 7 -37 10.5t-44 3.5q-50 0 -89 -35.5
t-63 -129.5z" />
    <glyph glyph-name="r" unicode="r" horiz-adv-x="355" 
d="M271 477q66 0 106 -18q7 -3 8 -6t-1 -8l-22 -46q-2 -6 -5.5 -7t-8.5 1q-16 6 -36.5 8.5t-36.5 2.5t-32 -2.5t-28 -5.5t-18 -6t-11.5 -7t-8.5 -18l-75 -351q-3 -9 -6 -11.5t-9 -2.5h-68q-3 0 -5.5 2t-0.5 10l86 406q3 15 8 20t15 9q32 14 74 22t75 8z" />
    <glyph glyph-name="s" unicode="s" horiz-adv-x="399" 
d="M11 93q2 7 7 6.5t8 -4.5q14 -9 36.5 -16t46 -11t41.5 -4q26 0 50 8t41.5 25t23.5 44q6 24 -3.5 36.5t-32 19t-59.5 11.5q-22 3 -45.5 9t-41.5 20t-26 39.5t1 67.5q9 43 40 72.5t77 45t98 15.5q17 0 41 -4t47 -12t37 -21q5 -4 4.5 -6.5t-2.5 -7.5l-27 -47q-4 -9 -14 -4
q-12 9 -29.5 16.5t-36.5 12.5t-34 5q-49 0 -79 -18.5t-36 -44.5q-5 -25 5 -38.5t30.5 -19t45.5 -7.5q22 -1 47.5 -7t46 -20t30 -39.5t0.5 -66.5q-12 -58 -47.5 -91.5t-79.5 -47.5t-85 -14q-18 0 -45.5 3.5t-54 12.5t-44.5 22q-4 5 -2 11z" />
    <glyph glyph-name="t" unicode="t" horiz-adv-x="337" 
d="M175 0q-64 0 -89 27t-25 76q1 42 10.5 88t19.5 94q7 32 13 60t15 59q2 9 -7 9h-47q-5 0 -6.5 2t-0.5 8l8 39q1 6 3.5 8t8.5 2h49q6 0 8.5 3t3.5 10l22 82q3 9 10 9h69q4 0 7 -2.5t2 -6.5l-22 -82q-3 -8 -2 -10.5t6 -2.5h107q7 0 8 -1.5t-1 -9.5l-7 -38q-1 -5 -4 -7.5
t-10 -2.5h-106q-4 0 -7.5 -2.5t-4.5 -9.5q-8 -30 -15.5 -61t-14.5 -63q-8 -39 -15.5 -79.5t-7.5 -77.5q0 -26 12.5 -38.5t41.5 -12.5q14 0 28 3.5t27 7.5q9 5 11 3.5t4 -8.5l3 -42q3 -10 -22 -19q-12 -4 -27.5 -7.5t-30.5 -5t-25 -1.5z" />
    <glyph glyph-name="u" unicode="u" horiz-adv-x="479" 
d="M198 -4q-59 0 -93.5 17.5t-49.5 48.5t-15.5 71.5t9.5 86.5q10 44 21 88t22 83t18 65q5 12 8.5 14t13.5 2h55q10 0 14 -1t-1 -13q-1 -6 -8 -31t-16.5 -61t-19 -75.5t-16.5 -74.5q-15 -71 1 -109.5t73 -38.5q7 0 21.5 1t29.5 4t26.5 9t13.5 16l77 362q2 4 3.5 8t5.5 4h72
q3 0 6 -1.5t2 -7.5l-88 -414q-2 -12 -10 -17.5t-29 -12.5q-10 -3 -35.5 -8.5t-55.5 -10t-55 -4.5z" />
    <glyph glyph-name="v" unicode="v" horiz-adv-x="408" 
d="M128 0q-7 0 -10 6q-16 41 -24.5 89t-15.5 95q-11 80 -13.5 145.5t-0.5 113.5q1 11 3.5 17t8.5 6h70q5 0 8 -3t3 -8q-4 -33 -3.5 -75t2.5 -92q2 -37 4.5 -69t6 -56.5t6.5 -40.5q3 -12 9 -10.5t12 9.5q12 18 31.5 54.5t44.5 86.5q26 55 47.5 108.5t32.5 88.5q3 7 8 7h77
q6 0 4 -7q-20 -57 -51 -126t-70 -139q-28 -50 -58.5 -98.5t-65.5 -95.5q-5 -6 -10 -6h-56z" />
    <glyph glyph-name="w" unicode="w" horiz-adv-x="633" 
d="M131 0q-6 0 -9 2.5t-5 8.5q-17 54 -28 115t-17 120.5t-7.5 111.5t0.5 91q0 10 2.5 16.5t9.5 6.5h70q11 0 11 -11q-2 -31 -1.5 -70t2.5 -79.5t5 -77t6.5 -64.5t6.5 -41q5 -20 17 -4q12 15 26.5 41t28 55t23.5 55t14 41q3 17 7 37.5t8 40.5t8 37.5t6 27.5q2 12 12 12h74
q4 0 7 -2.5t2 -8.5q-5 -24 -12 -60.5t-16 -84.5q-2 -16 -2 -38t2 -46t5.5 -46.5t6.5 -39.5t6 -26q3 -15 12 -1q12 17 28.5 47t35.5 67t37 77.5t34.5 79t26.5 69.5q5 13 19 13h64q6 0 6.5 -5.5t-2.5 -15.5q-12 -34 -31.5 -78t-44 -92.5t-51 -97.5t-55 -93t-55.5 -78
q-4 -7 -8 -9.5t-10 -2.5h-49q-6 0 -8.5 2t-4.5 7q-7 19 -14 45.5t-12.5 55t-8.5 49.5q-2 9 -6.5 9t-8.5 -8q-7 -12 -17 -29.5t-21 -35t-20 -32.5q-10 -14 -21 -29t-18 -25q-3 -4 -7.5 -6.5t-9.5 -2.5h-49z" />
    <glyph glyph-name="x" unicode="x" horiz-adv-x="401" 
d="M-28 0q-5 0 -6 4.5t1.5 10t3.5 8.5q3 7 15 28t31.5 51t45 65t54.5 70q5 5 5 9.5t-2 9.5q-16 32 -26 68.5t-16 68.5t-8 52.5l-2 20.5q0 6 5 6h81q5 0 7 -1.5t3 -9.5q0 -7 2.5 -30.5t7.5 -52.5t13 -55t19 -39h10h9q17 13 36 38.5t36 54t29 52t15 30.5q3 8 6.5 10.5
t12.5 2.5h62q3 0 6.5 -1.5t0.5 -8.5t-13.5 -28t-27.5 -50t-41 -62.5t-54 -65.5q-5 -4 -5 -8.5t2 -9.5q18 -35 28.5 -71.5t15.5 -68t7 -52.5t2 -26q0 -9 -2.5 -14.5t-8.5 -5.5h-64q-8 0 -11 2.5t-3 10.5l-3.5 35t-8 55t-14 57t-21.5 42h-7.5h-3.5h-8q-23 -24 -45.5 -56.5
t-41 -63t-30 -51l-11.5 -20.5q-3 -8 -6 -9.5t-9 -1.5h-73z" />
    <glyph glyph-name="y" unicode="y" horiz-adv-x="415" 
d="M-33 -127q-20 0 -34.5 2.5t-24.5 6.5q-14 7 -4 20l23 34q6 10 15 7q5 -1 10.5 -2t13.5 -1q24 0 49.5 10t45.5 27q15 11 27.5 24.5t20.5 27t9 23.5q1 14 -3.5 26t-13.5 39q-7 23 -13.5 60t-11.5 82.5t-7 96t1 102.5q0 14 13 14h66q7 0 10.5 -3.5t2.5 -14.5
q-3 -30 -2.5 -71.5t4 -85t8 -81t10.5 -59.5q3 -12 10 -14t14 10q25 42 52 93.5t52 106t43 106.5q4 7 7 10t11 3h61q15 0 9 -15q-13 -37 -28.5 -73t-35 -74.5t-46.5 -86.5q-15 -29 -40.5 -72.5t-59 -91.5t-75 -90t-89 -69t-100.5 -27z" />
    <glyph glyph-name="z" unicode="z" horiz-adv-x="367" 
d="M-20 23q20 58 59 115.5t87 115.5q33 40 65.5 75t61.5 62q4 4 5.5 6.5t-5.5 4.5h-161q-5 0 -7 1.5t-1 7.5l11 51q1 8 3.5 9t8.5 1h272q9 0 9.5 -2.5t-1.5 -10.5l-9 -42q-1 -5 -6 -13t-16 -14q-23 -17 -50.5 -43t-54.5 -55.5t-51 -57.5q-35 -42 -64.5 -81t-46.5 -69
q-1 -4 -1.5 -9t8.5 -5h199q6 0 6.5 -2t-0.5 -9l-11 -50q-1 -6 -4 -7.5t-10 -1.5h-289q-7 0 -9.5 3.5t2.5 19.5z" />
    <glyph glyph-name="braceleft" unicode="{" horiz-adv-x="426" 
d="M279 -96q-2 -10 -6 -14t-15 -4h-71q-37 0 -57 11t-27 28t-6 37.5t5 40.5l40 187q5 26 -0.5 47.5t-20.5 33.5q-6 6 -19.5 11.5t-36.5 5.5q-6 0 -6.5 4.5t0.5 9.5l11 50q1 5 4.5 7t11.5 2q41 0 72.5 26.5t39.5 70.5l37 172q6 26 18.5 52.5t40 45t76.5 18.5h79q6 0 7 -2
t0 -5l-9 -44q-1 -3 -2.5 -5t-7.5 -2h-52q-31 0 -42 -16t-17 -42l-37 -172q-6 -27 -23 -54t-42 -47t-55 -30q-3 -1 -5.5 -2.5t-2.5 -2.5q4 -1 10 -4.5t10 -7.5q31 -17 45 -51.5t6 -68.5l-40 -187q-5 -26 -0.5 -42t34.5 -16h44q10 0 13.5 -3t1.5 -13z" />
    <glyph glyph-name="bar" unicode="|" horiz-adv-x="274" 
d="M273 707q7 0 8 -3t0 -10l-170 -798q-1 -3 -3.5 -6.5t-8.5 -3.5h-71q-6 0 -8.5 3.5t0.5 13.5l169 793q1 6 3.5 8.5t8.5 2.5h72z" />
    <glyph glyph-name="braceright" unicode="}" horiz-adv-x="426" 
d="M5 -96l6 25q2 10 6.5 13t13.5 3h44q31 0 41.5 16t16.5 42l40 187q5 23 19.5 46.5t36.5 43t47 30.5q6 4 13.5 7.5t11.5 4.5q0 1 -2 2.5t-5 2.5q-26 10 -42 30t-22 47t-1 54l37 172q7 26 2.5 42t-35.5 16h-53q-5 0 -6 2t-1 5l9 44q1 3 3 5t7 2h80q37 0 57 -11t27 -28
t6 -37.5t-5 -39.5l-37 -172q-9 -44 10.5 -70.5t61.5 -26.5q7 0 10.5 -2t2.5 -7l-10 -50q-1 -5 -3.5 -9.5t-9.5 -4.5q-23 0 -38 -5.5t-25 -11.5q-19 -12 -34.5 -33.5t-21.5 -47.5l-40 -187q-5 -26 -17.5 -53t-39 -45.5t-76.5 -18.5h-71q-11 0 -13.5 4t-0.5 14z" />
    <glyph glyph-name="asciitilde" unicode="~" horiz-adv-x="495" 
d="M519 590q-17 -13 -34.5 -25.5t-38 -20.5t-46.5 -8q-23 0 -42.5 8.5t-38 19t-38 19t-43.5 8.5q-27 0 -49.5 -19.5t-35.5 -34.5q-4 -4 -5.5 -3.5t-6.5 3.5l-22 29q-4 3 -1.5 7.5t3.5 6.5q12 15 32.5 32t45 29t49.5 12q26 0 46.5 -8t39 -18.5t37 -18.5t39.5 -8q22 0 42 12.5
t36 25.5q3 3 6.5 4.5t6.5 -2.5l24 -31q4 -5 1.5 -10t-7.5 -9z" />
    <glyph glyph-name="uni00A0" unicode="&#xa0;" horiz-adv-x="238" 
 />
    <glyph glyph-name="exclamdown" unicode="&#xa1;" horiz-adv-x="249" 
d="M179 256q5 0 6 -1.5t0 -9.5l-80 -431q0 -4 -2.5 -6.5t-7.5 -2.5h-81q-9 0 -7 8l103 432q3 7 4.5 9t8.5 2h56zM127 449q4 20 15.5 30t40.5 10q26 0 35 -10t4 -30q-4 -20 -17 -30.5t-39 -10.5q-29 0 -36 10.5t-3 30.5z" />
    <glyph glyph-name="cent" unicode="&#xa2;" horiz-adv-x="469" 
d="M231 73q-62 0 -98.5 18.5t-51.5 52t-14.5 77.5t10.5 94q10 47 28.5 90.5t49 78.5t74 55t104.5 20q42 0 71 -9t48 -27q5 -6 6 -9t-1 -9l-10 -53q-2 -7 -6.5 -7t-8.5 3q-17 21 -45 29t-59 8q-35 0 -62.5 -15t-47.5 -40t-33 -55t-19 -61q-11 -52 -6.5 -90.5t26.5 -59.5
t65 -21q29 0 54.5 6t52.5 18q13 6 15 -5l10 -40q2 -10 -8 -15q-29 -18 -67 -26t-77 -8zM277 114l-40 -188q-1 -3 -3.5 -6.5t-8.5 -3.5h-71q-5 0 -7.5 3.5t-0.5 13.5l39 181h92zM269 511l39 185q2 6 4.5 8.5t8.5 2.5h72q7 0 8 -3t0 -10l-40 -183h-92z" />
    <glyph glyph-name="sterling" unicode="&#xa3;" horiz-adv-x="514" 
d="M318 -13q-35 0 -65 9t-67 18q-22 6 -44 8.5t-45 -1.5q-15 -2 -38 -5t-41 -8q-11 -3 -15 -2t-2 9q2 11 4.5 22t4.5 22q2 6 5 10t11 7q48 18 79 43.5t48.5 60.5t22.5 78h-46.5h-46.5q-7 0 -10 2t-2 7q2 11 4 21l4 20q2 9 4.5 11.5t7.5 2.5h41.5h41.5q-9 58 -11 108t5 84
q8 41 38 78t77.5 60t107.5 23q16 0 37.5 -3t42 -8.5t33.5 -11.5q5 -2 5.5 -7.5t-0.5 -9.5q-3 -12 -5 -24t-6 -24q-1 -7 -3.5 -8.5t-11.5 2.5q-23 10 -51 18t-46 8q-37 0 -63.5 -13t-42 -34t-20.5 -46q-8 -37 -4.5 -83.5t6.5 -108.5h58h57q5 0 6 -3t-1 -11l-4 -20l-4 -20
q-1 -6 -3.5 -8t-8.5 -2h-51.5h-51.5q-1 -5 -1.5 -10t-1.5 -10q-8 -45 -27 -82t-55 -71q35 -4 60.5 -11t49.5 -13t50 -6q27 0 54.5 7.5t45.5 15.5q6 2 9 0.5t1 -8.5l-8 -38q-3 -11 -6.5 -15.5t-5.5 -5.5q-23 -13 -49.5 -18.5t-56.5 -5.5z" />
    <glyph glyph-name="currency" unicode="&#xa4;" horiz-adv-x="530" 
d="M77 148l-24 28q-3 5 -3 8t4 6l100 79q-5 15 -6.5 31.5t2.5 35.5t12.5 36t20.5 32l-57 69q-3 3 -0.5 6.5t6.5 6.5l37 31q5 3 7 3t5 -3l56 -68q18 10 37.5 15.5t40.5 5.5q40 0 69 -21l86 68q5 5 11 0l25 -31q3 -3 3.5 -6.5t-3.5 -6.5l-87 -69q13 -30 5 -68t-34 -67l67 -79
q4 -3 2 -6t-7 -8l-36 -28q-5 -4 -8 -4t-6 4l-65 76q-37 -21 -79 -21q-41 0 -69 21l-97 -76q-6 -4 -9 -4t-6 4zM206 336q-7 -34 11 -56.5t53 -22.5t62.5 22.5t34.5 56.5q6 34 -11.5 56.5t-51.5 22.5q-35 0 -63.5 -22.5t-34.5 -56.5z" />
    <glyph glyph-name="yen" unicode="&#xa5;" horiz-adv-x="547" 
d="M344 295q-7 -8 -13 -22.5t-8 -25.5l-51 -238q-1 -4 -4.5 -6.5t-6.5 -2.5h-73q-4 0 -6 2.5t-1 6.5l50 237q4 20 0 40.5t-10 33.5q-6 10 -14 28.5t-16.5 39t-15 38t-8.5 26.5q-17 53 -26 97t-12.5 72.5t-3.5 34.5q0 10 5 13.5t12 3.5h70q5 0 7 -2.5t3 -8.5q1 -17 6 -45.5
t13 -61.5t16 -63q8 -27 17.5 -52.5t20.5 -49.5q5 -9 8.5 -10.5t12.5 9.5q12 12 25.5 27.5t27 32.5t24.5 32q22 31 45 66.5t41.5 66.5t25.5 49q3 6 6.5 8t9.5 2h72q5 0 8.5 -3.5t-1.5 -13.5q-2 -6 -17 -34.5t-42 -72.5t-66 -96q-9 -13 -24.5 -33t-34.5 -43t-38 -44.5
t-34 -37.5zM101 233q-6 0 -6.5 2t0.5 6l6 34q2 6 4 8t8 2h337q5 0 7 -2t0 -7l-7 -36q-1 -4 -3 -5.5t-8 -1.5h-338zM79 131q-6 0 -6.5 2t0.5 7l7 33q1 6 3 7.5t8 1.5h337q5 0 7 -1.5t0 -7.5l-7 -35q-1 -4 -3 -5.5t-8 -1.5h-338z" />
    <glyph glyph-name="brokenbar" unicode="&#xa6;" horiz-adv-x="274" 
d="M194 286l-83 -390q-1 -3 -3.5 -6.5t-8.5 -3.5h-71q-6 0 -8.5 3.5t0.5 13.5l81 383h93zM117 360l72 336q1 6 3.5 8.5t8.5 2.5h72q7 0 8 -3t0 -10l-71 -334h-93z" />
    <glyph glyph-name="section" unicode="&#xa7;" horiz-adv-x="532" 
d="M-29 -194l11 53q2 5 5.5 5t8.5 -2q17 -6 38 -11.5t42.5 -8.5t37.5 -3q59 0 95 32t46 81q8 36 -2.5 57t-32 33.5t-48.5 20.5q-23 6 -49 15.5t-47.5 26.5t-31 47t0.5 78q13 57 48 100.5t84 67.5t103 24q16 0 40.5 -3.5t49 -10t41.5 -14.5q6 -2 7.5 -5.5t0.5 -8.5l-12 -55
q-4 -19 -25 -7q-12 7 -31.5 13.5t-41 10.5t-39.5 4q-34 0 -65 -13t-52.5 -36t-28.5 -54q-4 -34 6 -54.5t29.5 -32t42.5 -18.5t44 -14q25 -8 46.5 -19.5t35.5 -30t19 -47t-5 -69.5q-12 -62 -46 -103t-84 -62.5t-112 -21.5q-26 0 -59.5 6t-59.5 16q-7 2 -9 4.5t-1 8.5zM138 98
l10 53q1 3 6.5 5t11.5 2t9 -2q26 -18 54 -23t53 -4q51 1 86.5 29t46.5 82q7 32 -4 51t-32.5 30t-48.5 18q-23 6 -48.5 15t-46.5 26t-30.5 46.5t0.5 77.5q12 57 45.5 92t79.5 51t95 16q14 0 36 -3t44.5 -8.5t38.5 -12.5q5 -2 6.5 -4.5t-0.5 -6.5l-10 -47q-1 -8 -6.5 -10
t-13.5 4q-12 7 -31 12.5t-38 9t-35 3.5q-47 0 -83 -24.5t-45 -65.5q-6 -30 3 -49.5t28.5 -30.5t43 -18t44.5 -14q24 -8 44.5 -19t34 -28t18 -43t-3.5 -64q-13 -64 -46.5 -104t-80.5 -58t-102 -18q-31 0 -61.5 4.5t-60.5 15.5q-7 3 -9.5 5.5t-1.5 8.5z" />
    <glyph glyph-name="dieresis" unicode="&#xa8;" horiz-adv-x="240" 
d="M161 573q-3 -18 -14 -27.5t-37 -9.5q-24 0 -31 9.5t-4 27.5q4 19 15.5 28.5t35.5 9.5q26 0 32.5 -9.5t2.5 -28.5zM308 573q-4 -18 -14.5 -27.5t-37.5 -9.5q-23 0 -30.5 9.5t-4.5 27.5q4 19 15.5 28.5t35.5 9.5q27 0 33.5 -9.5t2.5 -28.5z" />
    <glyph glyph-name="copyright" unicode="&#xa9;" horiz-adv-x="866" 
d="M81 333q16 73 58.5 137.5t104.5 113.5t135 77t151 28q77 0 138.5 -28t102.5 -77t56 -113.5t0 -137.5q-16 -74 -58.5 -139t-104.5 -114.5t-135.5 -77.5t-150.5 -28q-78 0 -139.5 28t-102 77.5t-56 114.5t0.5 139zM152 333q-13 -61 -1 -114.5t44.5 -93.5t82.5 -63.5
t113 -23.5q62 0 122 23.5t110 63.5t84.5 93.5t47.5 114.5q13 60 0.5 113t-45 93t-82.5 62.5t-112 22.5t-122 -22.5t-109.5 -62.5t-84.5 -93t-48 -113zM279 336q14 65 48.5 107.5t84.5 64t108 21.5q18 0 40.5 -2.5t42.5 -7.5q6 -1 10 -3t3 -6l-8 -38q-2 -9 -17 -2
q-17 6 -36 9.5t-37 3.5q-41 0 -74.5 -16t-56 -48t-32.5 -80q-10 -49 -1.5 -88t39.5 -59t86 -12q14 1 29 5t25 8q11 5 14.5 4t2.5 -7l-7 -32q-1 -6 -5.5 -9t-11.5 -5q-12 -3 -29.5 -5.5t-30.5 -3.5q-69 -9 -116 12.5t-66 69.5t-5 119z" />
    <glyph glyph-name="ordfeminine" unicode="&#xaa;" horiz-adv-x="482" 
d="M183 -6q-97 0 -135 57.5t-11 178.5q16 76 44.5 123.5t64 74t72.5 36.5t71 10q30 0 57 -10t38 -20l5 20q1 4 4 5.5t7 1.5h68q10 0 9 -9q-3 -21 -10 -56.5t-17 -80t-22 -93.5t-25 -97.5t-26 -90.5q-4 -8 -9 -14t-22 -11q-27 -10 -72.5 -17.5t-90.5 -7.5zM204 64
q15 0 32 2.5t31 6t19 4.5q6 2 11 6t8 13q6 24 13 53t14.5 59.5t14 59.5t11.5 53t8 38q2 6 -0.5 10.5t-8.5 7.5q-15 7 -35 14t-45 7q-17 0 -38 -6t-42.5 -23t-39.5 -50.5t-30 -89.5q-20 -93 1 -129t76 -36z" />
    <glyph glyph-name="guillemotleft" unicode="&#xab;" horiz-adv-x="559" 
d="M386 158q-5 0 -7 3q-25 42 -50 83.5t-50 82.5q-8 10 4 19q43 41 85 82.5t85 82.5q3 3 5 3.5t3 0.5h40h37q6 0 4 -2.5t-4 -4.5q-1 -1 -19 -18.5t-43.5 -43.5t-51 -51t-42.5 -42l-17 -17l10 -17t24.5 -42t29 -50.5t25 -43t11.5 -18.5q2 -1 2.5 -4t-5.5 -3h-37h-39zM177 158
q-5 0 -7 3q-25 42 -50 83.5t-50 82.5q-8 10 4 19q43 41 85 82.5t85 82.5q3 3 5 3.5t3 0.5h40h37q6 0 4 -2.5t-4 -4.5q-1 -1 -19 -18.5t-43.5 -43.5t-51 -51t-42.5 -42l-17 -17l10 -17t24.5 -42t29 -50.5t25 -43t11.5 -18.5q2 -1 2.5 -4t-5.5 -3h-37h-39z" />
    <glyph glyph-name="logicalnot" unicode="&#xac;" horiz-adv-x="680" 
d="M554 104q-6 0 -7 1.5t0 6.5l38 179h-515q-6 0 -6.5 2t-0.5 6l10 43q1 5 3 7t8 2h562q5 0 6.5 -1.5t0.5 -6.5l-50 -231q0 -5 -2.5 -6.5t-7.5 -1.5h-39z" />
    <glyph glyph-name="uni00AD" unicode="&#xad;" horiz-adv-x="422" 
d="M69 244q-6 0 -6 2t1 7l21 48q2 6 4.5 7.5t8.5 1.5h272q5 0 6 -1.5t-1 -7.5l-22 -50q-2 -4 -4 -5.5t-8 -1.5h-272z" />
    <glyph glyph-name="registered" unicode="&#xae;" horiz-adv-x="696" 
d="M338 190q-74 0 -129 34.5t-79.5 92.5t-9.5 128q11 54 42 100t76.5 80.5t99 54.5t109.5 20q75 0 129.5 -34.5t79 -92t9.5 -128.5q-12 -52 -43 -98.5t-75.5 -81.5t-98.5 -55t-110 -20zM349 239q61 0 117 28t95.5 75t50.5 103q13 58 -7 104.5t-63.5 74t-105.5 27.5
q-60 0 -116 -27.5t-95.5 -74t-52.5 -104.5q-11 -56 8.5 -103t63.5 -75t105 -28zM283 313q-5 0 -4 3l56 265q1 3 5 3h72q54 0 75 -19.5t11 -65.5q-6 -25 -22 -44t-41 -29q-6 -4 -9 -7t-1 -8q3 -15 8 -27t15 -20q8 -6 19 -9.5t22 -3.5q4 0 4.5 -0.5t-0.5 -3.5l-6 -29
q0 -2 -2 -3t-12 -1q-20 0 -33.5 4.5t-25.5 12.5q-16 13 -27.5 32t-10.5 41q0 2 -1 4.5t-5 2.5h-21q-3 0 -4 -5l-19 -90q-1 -3 -5 -3h-38zM354 448q-1 -4 3 -4h28q28 0 45 13.5t23 40.5q7 33 -4.5 44.5t-43.5 11.5h-25q-3 0 -4 -4z" />
    <glyph glyph-name="macron" unicode="&#xaf;" horiz-adv-x="220" 
d="M285 543q-1 -2 -2 -3t-7 -1h-204q-5 0 -6 1.5t0 4.5l9 44q1 5 2.5 6t6.5 1h205q5 0 6 -1t0 -5z" />
    <glyph glyph-name="degree" unicode="&#xb0;" horiz-adv-x="395" 
d="M157 692q9 37 33.5 67.5t59.5 48.5t73 18t65.5 -18t39.5 -48.5t4 -67.5t-33 -67.5t-60 -48.5t-73 -18t-65.5 18t-39 48.5t-4.5 67.5zM213 692q-7 -34 11.5 -57t53.5 -23q34 0 61.5 23t34.5 57q7 33 -11 55.5t-52 22.5q-35 0 -63 -22.5t-35 -55.5z" />
    <glyph glyph-name="plusminus" unicode="&#xb1;" horiz-adv-x="462" 
d="M187 154q-6 0 -7.5 1.5t-0.5 6.5l28 130h-137q-5 0 -5.5 2t-0.5 6l9 42q1 5 3.5 7t7.5 2h135l28 130q1 4 3 6t8 2h50q4 0 5 -1.5t0 -7.5l-27 -129l142 -1q4 0 5.5 -2t0.5 -7l-10 -43q0 -3 -1.5 -5t-7.5 -2l-142 1l-28 -131q-1 -5 -3.5 -6t-6.5 -1h-48zM19 43q-7 0 -8 2
t0 7l9 40q1 6 3 7.5t10 1.5h339q6 0 8 -1.5t1 -6.5l-10 -43q0 -4 -2.5 -5.5t-10.5 -1.5h-339z" />
    <glyph glyph-name="uni00B2" unicode="&#xb2;" horiz-adv-x="348" 
d="M46 260q-5 0 -6.5 1t-0.5 6l8 41q1 5 2 7.5t7 5.5q37 20 78 46t77 56.5t62 64t34 66.5q5 21 -1 37.5t-22.5 26.5t-46.5 10q-27 0 -51 -7.5t-40.5 -15.5t-22.5 -10q-9 -1 -7 5l10 50q2 5 4 7.5t8 5.5q17 9 51 20t70 11q38 0 70 -14.5t48 -44.5t5 -78q-9 -45 -40.5 -85.5
t-77 -77.5t-99.5 -72q-3 -1 -2 -2.5t3 -1.5h161q5 0 5 -5l-10 -46q-2 -5 -2.5 -6t-7.5 -1h-266z" />
    <glyph glyph-name="uni00B3" unicode="&#xb3;" horiz-adv-x="345" 
d="M161 257q-39 0 -69 14t-48 39q-3 5 -1.5 8.5t3.5 5.5l34 32q5 5 9.5 5t6.5 -3q14 -18 33.5 -27.5t44.5 -9.5q26 0 45.5 11t32 26.5t15.5 31.5q5 21 -12 44t-63 23h-9h-12q-3 0 -5.5 1.5t-1.5 8.5l8 40q2 5 3.5 7.5t7.5 2.5h16h17q32 1 55.5 20t27.5 41q4 19 -9.5 36
t-50.5 17q-22 0 -48 -10.5t-44 -24.5q-11 -9 -15 1l-15 42q-1 3 1 7.5t3 5.5q39 25 74.5 33.5t62.5 8.5q66 0 93.5 -32.5t18.5 -75.5q-7 -34 -30.5 -60t-53.5 -35q-10 -3 -10 -4t1.5 -1t8.5 -2q31 -9 46.5 -32.5t7.5 -62.5q-7 -33 -31 -63.5t-61.5 -49.5t-86.5 -19z" />
    <glyph glyph-name="acute" unicode="&#xb4;" horiz-adv-x="132" 
d="M69 528q-6 0 -6 2.5t4 8.5l67 90q4 6 16 6h61q4 0 5.5 -2.5t-3.5 -7.5l-85 -92q-4 -3 -6.5 -4t-8.5 -1h-44z" />
    <glyph glyph-name="uni00B5" unicode="&#xb5;" horiz-adv-x="530" 
d="M6 -112q-7 0 -9.5 3t-1.5 12q6 32 14 73.5t17 85t17 80.5q4 22 7 42.5t7 35.5q9 44 20 88t22 82.5t18 64.5q4 12 8 14.5t15 2.5h57q9 0 11 -2.5t-1 -11.5q-2 -8 -9 -33t-16.5 -61.5t-19.5 -78t-18 -79.5q-15 -73 4 -105.5t76 -32.5q40 0 64 12t27 30l75 350q1 7 3.5 9.5
t8.5 2.5h69q4 0 6 -2.5t1 -8.5l-73 -344q-6 -29 2 -40.5t25 -11.5q10 0 20 3.5t16 6.5q13 7 15 -4l4 -42q1 -10 -14 -17q-18 -8 -33.5 -12t-37.5 -4q-16 0 -33.5 6t-29 20t-11.5 36l27 -7q-30 -26 -69.5 -40.5t-80.5 -14.5q-46 0 -78 18.5t-41 53.5l24 7q-3 -21 -6.5 -43.5
t-7.5 -45.5q-2 -15 -4 -32.5t-4.5 -31t-3.5 -19.5q-1 -8 -4 -11.5t-12 -3.5h-62z" />
    <glyph glyph-name="paragraph" unicode="&#xb6;" horiz-adv-x="527" 
d="M253 309q-9 0 -16.5 0.5t-16.5 0.5q-38 3 -64.5 19.5t-41 43t-17.5 58t3 62.5q11 50 39 90.5t73.5 65t109.5 24.5h125.5h125.5q6 0 8.5 -1.5t1.5 -7.5l-9 -41q-2 -8 -4 -10t-7 -2h-18h-18q-16 -76 -34.5 -163.5t-37.5 -178.5t-37.5 -178t-34.5 -163q-2 -6 -3 -7t-6 -1
h-56q-7 0 -8.5 1t0.5 7q16 75 34 162t37.5 177t38 177t33.5 162q1 2 0.5 3t-4.5 2h-26h-26q-6 -1 -6 -5l-144 -678q-1 -6 -2.5 -7t-6.5 -1h-62q-3 0 -4 1t0 7z" />
    <glyph glyph-name="periodcentered" unicode="&#xb7;" horiz-adv-x="298" 
d="M192 280q-5 -20 -16.5 -30t-41.5 -10q-26 0 -35 10t-4 30q4 20 17 30t40 10q30 0 37 -10t3 -30z" />
    <glyph glyph-name="cedilla" unicode="&#xb8;" horiz-adv-x="177" 
d="M106 -122q-6 -28 -35 -51t-71 -23q-29 0 -47.5 11.5t-27.5 27.5q-3 5 -1.5 11t7.5 9l20 9q14 5 18 -4q4 -10 14 -16t21 -6q21 0 33 11t14 23q4 15 -5 22.5t-23.5 11t-29.5 3.5q-7 0 -9 4.5t2 12.5l30 61q3 6 8 7t9 1h24q6 0 3 -9l-23 -64l-9 19q41 -3 63 -20t15 -51z" />
    <glyph glyph-name="uni00B9" unicode="&#xb9;" horiz-adv-x="191" 
d="M82 260q-7 0 -5 7l72 336q1 5 -4 3l-73 -34q-3 -1 -5 -0.5t-4 2.5l-14 38q-3 9 4 12l127 61q4 3 7.5 4.5t8.5 1.5h39q3 0 6 -1t1 -6l-89 -418q-1 -4 -2.5 -5t-5.5 -1h-63z" />
    <glyph glyph-name="ordmasculine" unicode="&#xba;" horiz-adv-x="496" 
d="M196 -6q-63 0 -99.5 18t-53 50.5t-16.5 77t11 97.5q15 70 46 124.5t83.5 85.5t131.5 31q80 0 119 -31t47.5 -85.5t-6.5 -124.5t-44.5 -125t-82 -86.5t-136.5 -31.5zM210 63q67 0 103.5 45.5t53.5 127.5q18 81 -2 125t-82 44t-100 -44t-56 -125q-17 -83 0 -128t83 -45z
" />
    <glyph glyph-name="guillemotright" unicode="&#xbb;" horiz-adv-x="570" 
d="M284 158q-5 0 -3 3t3 4t19 18.5t43.5 43t51 50.5t42.5 42l17 17l-9.5 17t-24.5 42t-29.5 51t-25 43.5t-11.5 18.5q-1 2 -1.5 4.5t4.5 2.5h37.5h39.5q4 0 7 -4q25 -41 50 -82.5t49 -82.5q8 -10 -4 -19q-42 -41 -84.5 -82.5t-84.5 -83.5q-4 -2 -5.5 -2.5t-3.5 -0.5h-39.5
h-37.5zM63 158q-6 0 -4 3t3 4t19.5 18.5t44 43t51 50.5t42.5 42l17 17l-9.5 17t-24.5 42t-30 51t-25 43.5t-11 18.5q-1 2 -2 4.5t5 2.5h37h40q4 0 7 -4q25 -41 50 -82.5t49 -82.5q8 -10 -4 -19q-43 -41 -85 -82.5t-84 -83.5q-4 -2 -5.5 -2.5t-3.5 -0.5h-40h-37z" />
    <glyph glyph-name="onequarter" unicode="&#xbc;" horiz-adv-x="829" 
d="M175 245q-5 0 -4 6l80 375q1 5 -4 3l-83 -42q-6 -3 -8 1l-12 32q-2 7 3 9l125 63q5 3 9 5t8 2h32q7 0 6 -6l-94 -443q-1 -3 -3 -4t-5 -1h-50zM603 -2q-6 0 -5 6l24 111q1 7 -6 7h-181q-6 0 -5 6l7 30q1 5 4 9t6 6l249 280q4 4 6.5 5.5t5.5 1.5h40q4 0 5 -1.5t0 -5.5
l-59 -278q-1 -7 6 -7h43q5 0 4 -4l-8 -37q-1 -5 -6 -5h-43q-7 0 -9 -7l-24 -111q-1 -6 -8 -6h-46zM512 168h114q8 0 9 7l39 184q1 3 -0.5 3.5t-3.5 -2.5l-160 -184q-7 -8 2 -8zM180 0q-8 0 -8 3.5t3 7.5l396 681q3 6 5 7t8 1h40q7 0 8.5 -3t-4.5 -17l-390 -669
q-3 -5 -6.5 -8t-9.5 -3h-42z" />
    <glyph glyph-name="onehalf" unicode="&#xbd;" horiz-adv-x="888" 
d="M246 0q-8 0 -8 3.5t3 7.5l396 681q3 6 5 7t8 1h39q8 0 9.5 -3t-4.5 -17l-390 -669q-3 -5 -6.5 -8t-9.5 -3h-42zM175 245q-5 0 -4 6l80 375q1 5 -4 3l-83 -42q-6 -3 -8 1l-12 32q-2 7 3 9l125 63q5 3 9 5t8 2h32q7 0 6 -6l-94 -443q-1 -3 -3 -4t-5 -1h-50zM500 0
q-5 0 -6.5 1t0.5 5l7 34q1 4 2.5 6.5t4.5 3.5q38 22 80 50.5t80 61.5t65.5 70.5t36.5 76.5q5 28 -2.5 47.5t-25.5 29t-46 9.5q-26 0 -47.5 -7t-37 -14.5t-22.5 -9.5q-11 -3 -9 3l8 40q1 4 3 6t7 5q11 5 29 12.5t40.5 12.5t46.5 5q35 0 65 -14t45 -44.5t4 -78.5
q-8 -40 -30.5 -76t-55 -68.5t-70.5 -61t-77 -53.5q-2 -2 -1.5 -3t2.5 -1h174q4 0 3 -5l-8 -37q-1 -5 -2 -5.5t-6 -0.5h-257z" />
    <glyph glyph-name="threequarters" unicode="&#xbe;" horiz-adv-x="864" 
d="M638 -2q-6 0 -5 6l24 111q2 7 -5 7h-182q-6 0 -5 6l7 30q1 5 4 9t6 6l249 280q4 4 6.5 5.5t5.5 1.5h40q4 0 5 -1.5t0 -5.5l-59 -278q-1 -7 6 -7h43q5 0 4 -4l-8 -37q-1 -5 -5 -5h-44q-7 0 -9 -7l-24 -111q-1 -6 -8 -6h-46zM547 168h114q8 0 9 7l39 184q1 3 -0.5 3.5
t-3.5 -2.5l-160 -184q-7 -8 2 -8zM172 253q-23 0 -44 6t-37.5 17t-26.5 26q-2 3 -1 6t4 5l25 26q4 3 7 3.5t6 -2.5q14 -18 33.5 -27t43.5 -9q27 0 48.5 12t35.5 30t18 37q3 18 -3 37t-24 31t-50 12h-8h-9q-3 0 -5 2t-1 6l7 32q2 8 9 8h11.5h13.5q25 1 45 12t32.5 27.5
t15.5 33.5q4 16 -1.5 30.5t-20 24.5t-40.5 10q-22 0 -47.5 -10t-44.5 -24q-10 -7 -13 1l-12 32q-1 3 1 6t3 4q23 15 45.5 23.5t43.5 12.5t38 4q42 0 67 -15.5t34 -40.5t3 -53q-5 -21 -16.5 -40.5t-28.5 -34t-39 -23.5q-3 -1 -5.5 -1.5t-2.5 -1.5t8 -4q31 -12 45 -37.5
t6 -63.5q-7 -32 -30 -62t-58.5 -49t-80.5 -19zM221 0q-7 0 -7.5 3.5t2.5 7.5l396 681q3 6 5 7t8 1h40q8 0 9.5 -3t-4.5 -17l-390 -669q-4 -5 -7.5 -8t-8.5 -3h-43z" />
    <glyph glyph-name="questiondown" unicode="&#xbf;" horiz-adv-x="452" 
d="M343 310q7 0 7.5 -3.5t-1.5 -11.5q-11 -50 -26 -84.5t-34 -59t-43.5 -44t-54.5 -39.5q-21 -13 -46 -29.5t-44 -36.5t-24 -47q-6 -35 17.5 -55t66.5 -20q28 0 53.5 5t47 12t35.5 13q9 4 12 5t3 -8l6 -50q1 -6 -5 -10.5t-12 -7.5q-32 -14 -74 -23t-76 -9q-86 0 -129 40.5
t-28 110.5q10 48 34.5 76.5t55 47t57.5 34.5q40 24 64.5 49.5t40.5 57.5t26 75q2 7 4 9.5t5 2.5h62zM385 449q-4 -20 -17 -30.5t-39 -10.5q-29 0 -36.5 10.5t-2.5 30.5q4 20 15.5 30t40.5 10q27 0 35 -10t4 -30z" />
    <glyph glyph-name="Agrave" unicode="&#xc0;" horiz-adv-x="562" 
d="M-5 0q-6 0 -6.5 4.5t4.5 17.5q16 47 44 112t62.5 138.5t72 147t73.5 136t66 104.5q5 6 9.5 9.5t9.5 3.5h87q5 -1 8 -3.5t5 -9.5q12 -41 21.5 -104t16 -137t10 -148.5t3.5 -139t-3 -108.5q-1 -14 -3 -18.5t-9 -4.5h-71q-6 0 -7.5 3t-1.5 15q2 26 2 61v69q1 6 -1 7.5
t-9 1.5h-229q-6 0 -8.5 -1.5t-5.5 -8.5q-13 -33 -28 -68t-25 -61q-5 -12 -7.5 -15t-7.5 -3h-72zM184 229h190q5 0 7.5 3t2.5 12q-3 74 -7 150.5t-16 143.5q0 7 -7 7h-15q-5 0 -10 -7q-21 -35 -47.5 -85t-53 -105.5t-50.5 -107.5q-2 -4 -1.5 -7.5t7.5 -3.5zM375 729
q-9 0 -17 8l-67 89q-3 3 -1 6t5 3h69q7 0 10.5 -1.5t6.5 -7.5l40 -87q7 -10 -2 -10h-44z" />
    <glyph glyph-name="Aacute" unicode="&#xc1;" horiz-adv-x="562" 
d="M-5 0q-6 0 -6.5 4.5t4.5 17.5q16 47 44 112t62.5 138.5t72 147t73.5 136t66 104.5q5 6 9.5 9.5t9.5 3.5h87q5 -1 8 -3.5t5 -9.5q12 -41 21.5 -104t16 -137t10 -148.5t3.5 -139t-3 -108.5q-1 -14 -3 -18.5t-9 -4.5h-71q-6 0 -7.5 3t-1.5 15q2 26 2 61v69q1 6 -1 7.5
t-9 1.5h-229q-6 0 -8.5 -1.5t-5.5 -8.5q-13 -33 -28 -68t-25 -61q-5 -12 -7.5 -15t-7.5 -3h-72zM184 229h190q5 0 7.5 3t2.5 12q-3 74 -7 150.5t-16 143.5q0 7 -7 7h-15q-5 0 -10 -7q-21 -35 -47.5 -85t-53 -105.5t-50.5 -107.5q-2 -4 -1.5 -7.5t7.5 -3.5zM345 728
q-6 0 -6 2.5t4 8.5l67 90q4 6 16 6h61q4 0 5.5 -2.5t-3.5 -7.5l-85 -92q-4 -3 -6.5 -4t-8.5 -1h-44z" />
    <glyph glyph-name="Acircumflex" unicode="&#xc2;" horiz-adv-x="562" 
d="M-5 0q-6 0 -6.5 4.5t4.5 17.5q16 47 44 112t62.5 138.5t72 147t73.5 136t66 104.5q5 6 9.5 9.5t9.5 3.5h87q5 -1 8 -3.5t5 -9.5q12 -41 21.5 -104t16 -137t10 -148.5t3.5 -139t-3 -108.5q-1 -14 -3 -18.5t-9 -4.5h-71q-6 0 -7.5 3t-1.5 15q2 26 2 61v69q1 6 -1 7.5
t-9 1.5h-229q-6 0 -8.5 -1.5t-5.5 -8.5q-13 -33 -28 -68t-25 -61q-5 -12 -7.5 -15t-7.5 -3h-72zM184 229h190q5 0 7.5 3t2.5 12q-3 74 -7 150.5t-16 143.5q0 7 -7 7h-15q-5 0 -10 -7q-21 -35 -47.5 -85t-53 -105.5t-50.5 -107.5q-2 -4 -1.5 -7.5t7.5 -3.5zM284 728
q-3 0 -3.5 2.5t1.5 4.5l90 93q3 4 8 4h46q5 0 6 -4l50 -93q2 -2 0.5 -4.5t-5.5 -2.5h-42q-4 0 -6 3l-34 46q-4 5 -9 0l-52 -46q-4 -3 -8 -3h-42z" />
    <glyph glyph-name="Atilde" unicode="&#xc3;" horiz-adv-x="562" 
d="M-5 0q-6 0 -6.5 4.5t4.5 17.5q16 47 44 112t62.5 138.5t72 147t73.5 136t66 104.5q5 6 9.5 9.5t9.5 3.5h87q5 -1 8 -3.5t5 -9.5q12 -41 21.5 -104t16 -137t10 -148.5t3.5 -139t-3 -108.5q-1 -14 -3 -18.5t-9 -4.5h-71q-6 0 -7.5 3t-1.5 15q2 26 2 61v69q1 6 -1 7.5
t-9 1.5h-229q-6 0 -8.5 -1.5t-5.5 -8.5q-13 -33 -28 -68t-25 -61q-5 -12 -7.5 -15t-7.5 -3h-72zM184 229h190q5 0 7.5 3t2.5 12q-3 74 -7 150.5t-16 143.5q0 7 -7 7h-15q-5 0 -10 -7q-21 -35 -47.5 -85t-53 -105.5t-50.5 -107.5q-2 -4 -1.5 -7.5t7.5 -3.5zM286 719
q-6 0 -4 6q7 33 28 54t49 21q15 0 28 -9.5t23.5 -19t18.5 -9.5q6 0 11.5 6.5t8.5 17.5q1 7 6 7h37q5 0 4 -7q-6 -29 -28 -51t-49 -22q-18 0 -30.5 9.5t-21.5 18.5t-18 9q-7 0 -13 -7t-8 -18q0 -6 -6 -6h-36z" />
    <glyph glyph-name="Adieresis" unicode="&#xc4;" horiz-adv-x="562" 
d="M-5 0q-6 0 -6.5 4.5t4.5 17.5q16 47 44 112t62.5 138.5t72 147t73.5 136t66 104.5q5 6 9.5 9.5t9.5 3.5h87q5 -1 8 -3.5t5 -9.5q12 -41 21.5 -104t16 -137t10 -148.5t3.5 -139t-3 -108.5q-1 -14 -3 -18.5t-9 -4.5h-71q-6 0 -7.5 3t-1.5 15q2 26 2 61v69q1 6 -1 7.5
t-9 1.5h-229q-6 0 -8.5 -1.5t-5.5 -8.5q-13 -33 -28 -68t-25 -61q-5 -12 -7.5 -15t-7.5 -3h-72zM184 229h190q5 0 7.5 3t2.5 12q-3 74 -7 150.5t-16 143.5q0 7 -7 7h-15q-5 0 -10 -7q-21 -35 -47.5 -85t-53 -105.5t-50.5 -107.5q-2 -4 -1.5 -7.5t7.5 -3.5zM361 773
q-3 -18 -14 -27.5t-37 -9.5q-24 0 -31 9.5t-4 27.5q4 19 15.5 28.5t35.5 9.5q26 0 32.5 -9.5t2.5 -28.5zM508 773q-4 -18 -14.5 -27.5t-37.5 -9.5q-23 0 -30.5 9.5t-4.5 27.5q4 19 15.5 28.5t35.5 9.5q27 0 33.5 -9.5t2.5 -28.5z" />
    <glyph glyph-name="Aring" unicode="&#xc5;" horiz-adv-x="562" 
d="M-5 0q-6 0 -6.5 4.5t4.5 17.5q16 47 44 112t62.5 138.5t72 147t73.5 136t66 104.5q5 6 9.5 9.5t9.5 3.5h87q5 -1 8 -3.5t5 -9.5q12 -41 21.5 -104t16 -137t10 -148.5t3.5 -139t-3 -108.5q-1 -14 -3 -18.5t-9 -4.5h-71q-6 0 -7.5 3t-1.5 15q2 26 2 61v69q1 6 -1 7.5
t-9 1.5h-229q-6 0 -8.5 -1.5t-5.5 -8.5q-13 -33 -28 -68t-25 -61q-5 -12 -7.5 -15t-7.5 -3h-72zM184 229h190q5 0 7.5 3t2.5 12q-3 74 -7 150.5t-16 143.5q0 7 -7 7h-15q-5 0 -10 -7q-21 -35 -47.5 -85t-53 -105.5t-50.5 -107.5q-2 -4 -1.5 -7.5t7.5 -3.5zM483 792
q-8 -37 -33 -59t-71 -22q-48 0 -63 22t-7 59t32.5 59t72.5 22q46 0 61.5 -22t7.5 -59zM441 795q3 14 -3 24t-33 10q-29 0 -38.5 -10t-12.5 -24t1.5 -27t34.5 -13t39 13.5t12 26.5z" />
    <glyph glyph-name="AE" unicode="&#xc6;" horiz-adv-x="773" 
d="M345 0q-3 0 -5.5 2.5t-1.5 6.5l31 148h-219q-6 0 -8.5 -1.5t-6.5 -8.5q-16 -33 -33 -68t-27 -61q-5 -12 -7.5 -15t-8.5 -3h-71q-6 0 -6.5 4.5t4.5 17.5q14 39 40 90.5t60.5 109.5t74.5 119t82 119.5t82 110t75 89.5q6 6 11 9.5t10 3.5h388q8 0 9.5 -1.5t-0.5 -8.5
l-11 -51q-2 -8 -4 -9.5t-9 -1.5h-231q-6 0 -7.5 -1.5t-2.5 -6.5l-44 -210q-1 -5 0 -6.5t6 -1.5h186q9 0 10.5 -2t-1.5 -11l-9 -46q-2 -8 -4.5 -10.5t-10.5 -2.5h-186q-5 0 -7 -1t-3 -6l-46 -215q-1 -5 0 -7t7 -2h230q8 0 9 -2t0 -11l-10 -46q-2 -9 -4.5 -11t-10.5 -2h-320z
M385 229l72 343q0 6 -3 6h-19q-3 0 -5.5 -1.5t-7.5 -6.5q-22 -26 -51.5 -64.5t-62 -84t-64 -92t-59.5 -89.5q-1 -2 -1 -6.5t5 -4.5h196z" />
    <glyph glyph-name="Ccedilla" unicode="&#xc7;" horiz-adv-x="456" 
d="M377 25q-4 -16 -24 -22q-15 -5 -35.5 -7.5t-39 -3.5t-28.5 -1q-114 0 -165.5 87t-15.5 257q37 172 122.5 258.5t204.5 86.5q10 0 28 -1.5t37.5 -4t32.5 -6.5q9 -3 13.5 -7t2.5 -11l-13 -60q-4 -20 -20 -6q-14 10 -37 16.5t-51 6.5q-49 0 -86.5 -20.5t-64 -57t-44 -83
t-28.5 -97.5q-8 -35 -12.5 -74t-2.5 -76.5t14.5 -68.5t38.5 -49t70 -18q29 0 55 6.5t39 14.5q15 8 19 6.5t1 -12.5zM319 -121q-6 -28 -35 -51t-71 -23q-29 0 -47.5 11.5t-27.5 27.5q-3 5 -1.5 11t7.5 9l20 9q14 5 18 -4q4 -10 14 -16t21 -6q21 0 33 11t14 23q4 15 -5 22.5
t-23.5 11t-29.5 3.5q-7 0 -9 4.5t2 12.5l30 61q3 6 8 7t9 1h24q6 0 3 -9l-23 -64l-9 19q41 -3 63 -20t15 -51z" />
    <glyph glyph-name="Egrave" unicode="&#xc8;" horiz-adv-x="449" 
d="M35 0q-4 0 -6.5 2.5t-1.5 6.5l139 655q2 9 12 9h321q8 0 9 -1.5t-1 -8.5l-10 -51q-2 -8 -4.5 -9.5t-8.5 -1.5h-232q-6 0 -7 -1.5t-2 -6.5l-45 -210q-1 -5 0.5 -6.5t5.5 -1.5h186q9 0 10 -2t-1 -11l-10 -46q-1 -8 -3.5 -10.5t-10.5 -2.5h-187q-4 0 -6 -1t-3 -6l-45 -215
q-1 -5 -0.5 -7t6.5 -2h230q9 0 10 -2t0 -11l-10 -46q-3 -9 -5.5 -11t-10.5 -2h-319zM352 718q-5 0 -8 2.5t-8 5.5l-73 74q-2 2 0 5.5t5 3.5h69q7 0 9.5 -2t6.5 -7l48 -71q3 -4 2.5 -7.5t-6.5 -3.5h-45z" />
    <glyph glyph-name="Eacute" unicode="&#xc9;" horiz-adv-x="449" 
d="M35 0q-4 0 -6.5 2.5t-1.5 6.5l139 655q2 9 12 9h321q8 0 9 -1.5t-1 -8.5l-10 -51q-2 -8 -4.5 -9.5t-8.5 -1.5h-232q-6 0 -7 -1.5t-2 -6.5l-45 -210q-1 -5 0.5 -6.5t5.5 -1.5h186q9 0 10 -2t-1 -11l-10 -46q-1 -8 -3.5 -10.5t-10.5 -2.5h-187q-4 0 -6 -1t-3 -6l-45 -215
q-1 -5 -0.5 -7t6.5 -2h230q9 0 10 -2t0 -11l-10 -46q-3 -9 -5.5 -11t-10.5 -2h-319zM343 718h-45q-6 0 -6 3.5t4 7.5l62 71q4 5 7 7t10 2h69q3 0 5 -3.5t-1 -5.5l-88 -74q-5 -3 -8.5 -5.5t-8.5 -2.5z" />
    <glyph glyph-name="Ecircumflex" unicode="&#xca;" horiz-adv-x="449" 
d="M35 0q-4 0 -6.5 2.5t-1.5 6.5l139 655q2 9 12 9h321q8 0 9 -1.5t-1 -8.5l-10 -51q-2 -8 -4.5 -9.5t-8.5 -1.5h-232q-6 0 -7 -1.5t-2 -6.5l-45 -210q-1 -5 0.5 -6.5t5.5 -1.5h186q9 0 10 -2t-1 -11l-10 -46q-1 -8 -3.5 -10.5t-10.5 -2.5h-187q-4 0 -6 -1t-3 -6l-45 -215
q-1 -5 -0.5 -7t6.5 -2h230q9 0 10 -2t0 -11l-10 -46q-3 -9 -5.5 -11t-10.5 -2h-319zM249 717q-3 0 -3.5 2.5t2.5 5.5l88 80q4 5 9 5h49q6 0 8 -5l55 -80q1 -3 -0.5 -5.5t-5.5 -2.5h-39q-4 0 -6.5 1.5t-6.5 4.5l-34 37q-3 4 -10 0l-52 -38q-3 -2 -6 -3.5t-7 -1.5h-41z" />
    <glyph glyph-name="Edieresis" unicode="&#xcb;" horiz-adv-x="449" 
d="M35 0q-4 0 -6.5 2.5t-1.5 6.5l139 655q2 9 12 9h321q8 0 9 -1.5t-1 -8.5l-10 -51q-2 -8 -4.5 -9.5t-8.5 -1.5h-232q-6 0 -7 -1.5t-2 -6.5l-45 -210q-1 -5 0.5 -6.5t5.5 -1.5h186q9 0 10 -2t-1 -11l-10 -46q-1 -8 -3.5 -10.5t-10.5 -2.5h-187q-4 0 -6 -1t-3 -6l-45 -215
q-1 -5 -0.5 -7t6.5 -2h230q9 0 10 -2t0 -11l-10 -46q-3 -9 -5.5 -11t-10.5 -2h-319zM331 773q-3 -18 -14 -27.5t-37 -9.5q-24 0 -31 9.5t-4 27.5q4 19 15.5 28.5t35.5 9.5q26 0 32.5 -9.5t2.5 -28.5zM478 773q-4 -18 -14.5 -27.5t-37.5 -9.5q-23 0 -30.5 9.5t-4.5 27.5
q4 19 15.5 28.5t35.5 9.5q27 0 33.5 -9.5t2.5 -28.5z" />
    <glyph glyph-name="Igrave" unicode="&#xcc;" horiz-adv-x="242" 
d="M118 9q-2 -9 -11 -9h-72q-10 0 -8 9l139 655q2 9 12 9h72q4 0 6 -2.5t1 -6.5zM225 718q-5 0 -8 2.5t-8 5.5l-73 74q-2 2 0 5.5t5 3.5h69q7 0 9.5 -2t6.5 -7l48 -71q3 -4 2.5 -7.5t-6.5 -3.5h-45z" />
    <glyph glyph-name="Iacute" unicode="&#xcd;" horiz-adv-x="242" 
d="M118 9q-2 -9 -11 -9h-72q-10 0 -8 9l139 655q2 9 12 9h72q4 0 6 -2.5t1 -6.5zM216 718h-45q-6 0 -6 3.5t4 7.5l62 71q4 5 7 7t10 2h69q3 0 5 -3.5t-1 -5.5l-88 -74q-5 -3 -8.5 -5.5t-8.5 -2.5z" />
    <glyph glyph-name="Icircumflex" unicode="&#xce;" horiz-adv-x="242" 
d="M118 9q-2 -9 -11 -9h-72q-10 0 -8 9l139 655q2 9 12 9h72q4 0 6 -2.5t1 -6.5zM123 717q-3 0 -3.5 2.5t2.5 5.5l88 80q4 5 9 5h49q6 0 8 -5l55 -80q1 -3 -0.5 -5.5t-5.5 -2.5h-39q-4 0 -6.5 1.5t-6.5 4.5l-34 37q-3 4 -10 0l-52 -38q-3 -2 -6 -3.5t-7 -1.5h-41z" />
    <glyph glyph-name="Idieresis" unicode="&#xcf;" horiz-adv-x="242" 
d="M118 9q-2 -9 -11 -9h-72q-10 0 -8 9l139 655q2 9 12 9h72q4 0 6 -2.5t1 -6.5zM204 773q-3 -18 -14 -27.5t-37 -9.5q-24 0 -31 9.5t-4 27.5q4 19 15.5 28.5t35.5 9.5q26 0 32.5 -9.5t2.5 -28.5zM351 773q-4 -18 -14.5 -27.5t-37.5 -9.5q-23 0 -30.5 9.5t-4.5 27.5
q4 19 15.5 28.5t35.5 9.5q27 0 33.5 -9.5t2.5 -28.5z" />
    <glyph glyph-name="Eth" unicode="&#xd0;" horiz-adv-x="573" 
d="M579 347q-19 -88 -49 -149t-66.5 -100t-74.5 -60.5t-73 -29.5t-62 -8h-196q-4 0 -6.5 2.5t-1.5 6.5l139 655q3 9 12 9h196q32 0 66 -6t62.5 -24.5t47.5 -54.5t22 -94.5t-16 -146.5zM489 347q15 72 14.5 119t-12 74.5t-30 40.5t-40 16.5t-40.5 3.5h-105q-6 0 -7.5 -1.5
t-2.5 -5.5l-109 -515q-1 -4 0 -5.5t5 -1.5h89q26 0 58.5 9t67 37.5t64 83t48.5 145.5zM38 291q-6 0 -6.5 2t0.5 7l10 48q1 6 3 7.5t8 1.5h272q5 0 6.5 -1.5t0.5 -7.5l-11 -50q-1 -4 -2.5 -5.5t-7.5 -1.5h-273z" />
    <glyph glyph-name="Ntilde" unicode="&#xd1;" horiz-adv-x="641" 
d="M454 194q2 -4 6.5 -4t5.5 6q9 34 20 79t22 95.5t20.5 102.5t16.5 100.5t10 89.5q2 10 8 10h73q4 0 7.5 -2.5t2.5 -6.5q-1 -36 -9 -88.5t-20 -115t-26 -128t-29 -127t-29 -112.5t-26 -84q-2 -6 -6.5 -7.5t-9.5 -1.5h-48q-6 0 -9 11l-205 472q-1 4 -4.5 4t-4.5 -5
q-12 -48 -24 -100t-23.5 -104.5t-21 -102t-15.5 -92t-9 -73.5q-1 -10 -8 -10h-71q-5 0 -9 1.5t-3 7.5q4 34 11.5 85.5t19 113.5t25 127t28.5 127.5t29.5 114.5t28.5 87q2 4 6.5 6.5t7.5 2.5h48q6 0 8 -7zM318 719q-6 0 -4 6q7 33 28 54t49 21q15 0 28 -9.5t23.5 -19
t18.5 -9.5q6 0 11.5 6.5t8.5 17.5q1 7 6 7h37q5 0 4 -7q-6 -29 -28 -51t-49 -22q-18 0 -30.5 9.5t-21.5 18.5t-18 9q-7 0 -13 -7t-8 -18q0 -6 -6 -6h-36z" />
    <glyph glyph-name="Ograve" unicode="&#xd2;" horiz-adv-x="631" 
d="M69 335q24 110 63 186.5t105.5 116t170.5 39.5q82 0 129.5 -22.5t67.5 -65.5t18 -107t-19 -147q-23 -111 -61 -187t-104.5 -115.5t-175.5 -39.5q-105 0 -154.5 39.5t-56 115.5t16.5 187zM164 335q-22 -105 -16.5 -162.5t38 -80t92.5 -22.5q59 0 102.5 22.5t75 80
t53.5 162.5q23 105 16 163t-41 81t-93 23q-60 0 -102.5 -23.5t-72.5 -81t-52 -162.5zM417 718q-5 0 -8 2.5t-8 5.5l-73 74q-2 2 0 5.5t5 3.5h69q7 0 9.5 -2t6.5 -7l48 -71q3 -4 2.5 -7.5t-6.5 -3.5h-45z" />
    <glyph glyph-name="Oacute" unicode="&#xd3;" horiz-adv-x="631" 
d="M69 335q24 110 63 186.5t105.5 116t170.5 39.5q82 0 129.5 -22.5t67.5 -65.5t18 -107t-19 -147q-23 -111 -61 -187t-104.5 -115.5t-175.5 -39.5q-105 0 -154.5 39.5t-56 115.5t16.5 187zM164 335q-22 -105 -16.5 -162.5t38 -80t92.5 -22.5q59 0 102.5 22.5t75 80
t53.5 162.5q23 105 16 163t-41 81t-93 23q-60 0 -102.5 -23.5t-72.5 -81t-52 -162.5zM408 718h-45q-6 0 -6 3.5t4 7.5l62 71q4 5 7 7t10 2h69q3 0 5 -3.5t-1 -5.5l-88 -74q-5 -3 -8.5 -5.5t-8.5 -2.5z" />
    <glyph glyph-name="Ocircumflex" unicode="&#xd4;" horiz-adv-x="631" 
d="M69 335q24 110 63 186.5t105.5 116t170.5 39.5q82 0 129.5 -22.5t67.5 -65.5t18 -107t-19 -147q-23 -111 -61 -187t-104.5 -115.5t-175.5 -39.5q-105 0 -154.5 39.5t-56 115.5t16.5 187zM164 335q-22 -105 -16.5 -162.5t38 -80t92.5 -22.5q59 0 102.5 22.5t75 80
t53.5 162.5q23 105 16 163t-41 81t-93 23q-60 0 -102.5 -23.5t-72.5 -81t-52 -162.5zM314 717q-3 0 -3.5 2.5t2.5 5.5l88 80q4 5 9 5h49q6 0 8 -5l55 -80q1 -3 -0.5 -5.5t-5.5 -2.5h-39q-4 0 -6.5 1.5t-6.5 4.5l-34 37q-3 4 -10 0l-52 -38q-3 -2 -6 -3.5t-7 -1.5h-41z" />
    <glyph glyph-name="Otilde" unicode="&#xd5;" horiz-adv-x="631" 
d="M69 335q24 110 63 186.5t105.5 116t170.5 39.5q82 0 129.5 -22.5t67.5 -65.5t18 -107t-19 -147q-23 -111 -61 -187t-104.5 -115.5t-175.5 -39.5q-105 0 -154.5 39.5t-56 115.5t16.5 187zM164 335q-22 -105 -16.5 -162.5t38 -80t92.5 -22.5q59 0 102.5 22.5t75 80
t53.5 162.5q23 105 16 163t-41 81t-93 23q-60 0 -102.5 -23.5t-72.5 -81t-52 -162.5zM321 719q-6 0 -4 6q7 33 28 54t49 21q15 0 28 -9.5t23.5 -19t18.5 -9.5q6 0 11.5 6.5t8.5 17.5q1 7 6 7h37q5 0 4 -7q-6 -29 -28 -51t-49 -22q-18 0 -30.5 9.5t-21.5 18.5t-18 9
q-7 0 -13 -7t-8 -18q0 -6 -6 -6h-36z" />
    <glyph glyph-name="Odieresis" unicode="&#xd6;" horiz-adv-x="631" 
d="M69 335q24 110 63 186.5t105.5 116t170.5 39.5q82 0 129.5 -22.5t67.5 -65.5t18 -107t-19 -147q-23 -111 -61 -187t-104.5 -115.5t-175.5 -39.5q-105 0 -154.5 39.5t-56 115.5t16.5 187zM164 335q-22 -105 -16.5 -162.5t38 -80t92.5 -22.5q59 0 102.5 22.5t75 80
t53.5 162.5q23 105 16 163t-41 81t-93 23q-60 0 -102.5 -23.5t-72.5 -81t-52 -162.5zM396 773q-3 -18 -14 -27.5t-37 -9.5q-24 0 -31 9.5t-4 27.5q4 19 15.5 28.5t35.5 9.5q26 0 32.5 -9.5t2.5 -28.5zM543 773q-4 -18 -14.5 -27.5t-37.5 -9.5q-23 0 -30.5 9.5t-4.5 27.5
q4 19 15.5 28.5t35.5 9.5q27 0 33.5 -9.5t2.5 -28.5z" />
    <glyph glyph-name="multiply" unicode="&#xd7;" horiz-adv-x="490" 
d="M27 150q-3 5 -3 8t4 6l186 147l-114 136q-3 3 -0.5 6.5t6.5 5.5l38 32q5 3 6.5 3t4.5 -3l115 -138l174 138q6 5 11 0l25 -32q3 -2 3.5 -5.5t-3.5 -6.5l-172 -136l123 -147q4 -3 2 -6t-7 -8l-36 -29q-5 -4 -8 -4t-7 4l-123 147l-186 -147q-5 -4 -8.5 -4t-7.5 4z" />
    <glyph glyph-name="Oslash" unicode="&#xd8;" horiz-adv-x="628" 
d="M69 335q24 110 63 186.5t105.5 116t170.5 39.5q82 0 129.5 -22.5t67.5 -65.5t18 -107t-19 -147q-23 -111 -61 -187t-104.5 -115.5t-175.5 -39.5q-105 0 -154.5 39.5t-56 115.5t16.5 187zM164 335q-22 -105 -16.5 -162.5t38 -80t92.5 -22.5q59 0 102.5 22.5t75 80
t53.5 162.5q23 105 16 163t-41 81t-93 23q-60 0 -102.5 -23.5t-72.5 -81t-52 -162.5zM77 9q-4 -4 -7.5 -6.5t-9.5 -2.5h-63q-4 0 -4 3t3 7l567 690q5 5 7.5 6t6.5 1h61q6 0 6.5 -3t-10.5 -15z" />
    <glyph glyph-name="Ugrave" unicode="&#xd9;" horiz-adv-x="634" 
d="M264 -10q-65 0 -106 12.5t-63 33.5t-30 45.5t-8 48.5t2 42q5 41 13 89.5t18 92.5q11 48 24.5 102.5t29.5 108t32 98.5q2 4 5.5 7t8.5 3h33.5h33.5q7 0 7.5 -2t-2.5 -14q-13 -40 -25.5 -84t-24.5 -90q-20 -78 -36.5 -154t-24.5 -145q-3 -18 -2 -36t7.5 -33.5t20.5 -27.5
t39 -18.5t61 -6.5q47 0 78.5 10t52 28t33 39.5t18.5 44.5q20 68 36 142.5t29 151.5q8 48 14 93t11 86q1 12 2.5 14t8.5 2h34.5h35.5q5 0 7.5 -3t1.5 -7q-2 -45 -9.5 -98t-16.5 -107t-19 -102q-9 -45 -20.5 -93.5t-24.5 -90.5q-8 -23 -22.5 -53.5t-44.5 -60t-82.5 -49
t-135.5 -19.5zM418 718q-5 0 -8 2.5t-8 5.5l-73 74q-2 2 0 5.5t5 3.5h69q7 0 9.5 -2t6.5 -7l48 -71q3 -4 2.5 -7.5t-6.5 -3.5h-45z" />
    <glyph glyph-name="Uacute" unicode="&#xda;" horiz-adv-x="634" 
d="M264 -10q-65 0 -106 12.5t-63 33.5t-30 45.5t-8 48.5t2 42q5 41 13 89.5t18 92.5q11 48 24.5 102.5t29.5 108t32 98.5q2 4 5.5 7t8.5 3h33.5h33.5q7 0 7.5 -2t-2.5 -14q-13 -40 -25.5 -84t-24.5 -90q-20 -78 -36.5 -154t-24.5 -145q-3 -18 -2 -36t7.5 -33.5t20.5 -27.5
t39 -18.5t61 -6.5q47 0 78.5 10t52 28t33 39.5t18.5 44.5q20 68 36 142.5t29 151.5q8 48 14 93t11 86q1 12 2.5 14t8.5 2h34.5h35.5q5 0 7.5 -3t1.5 -7q-2 -45 -9.5 -98t-16.5 -107t-19 -102q-9 -45 -20.5 -93.5t-24.5 -90.5q-8 -23 -22.5 -53.5t-44.5 -60t-82.5 -49
t-135.5 -19.5zM408 718h-45q-6 0 -6 3.5t4 7.5l62 71q4 5 7 7t10 2h69q3 0 5 -3.5t-1 -5.5l-88 -74q-5 -3 -8.5 -5.5t-8.5 -2.5z" />
    <glyph glyph-name="Ucircumflex" unicode="&#xdb;" horiz-adv-x="634" 
d="M264 -10q-65 0 -106 12.5t-63 33.5t-30 45.5t-8 48.5t2 42q5 41 13 89.5t18 92.5q11 48 24.5 102.5t29.5 108t32 98.5q2 4 5.5 7t8.5 3h33.5h33.5q7 0 7.5 -2t-2.5 -14q-13 -40 -25.5 -84t-24.5 -90q-20 -78 -36.5 -154t-24.5 -145q-3 -18 -2 -36t7.5 -33.5t20.5 -27.5
t39 -18.5t61 -6.5q47 0 78.5 10t52 28t33 39.5t18.5 44.5q20 68 36 142.5t29 151.5q8 48 14 93t11 86q1 12 2.5 14t8.5 2h34.5h35.5q5 0 7.5 -3t1.5 -7q-2 -45 -9.5 -98t-16.5 -107t-19 -102q-9 -45 -20.5 -93.5t-24.5 -90.5q-8 -23 -22.5 -53.5t-44.5 -60t-82.5 -49
t-135.5 -19.5zM315 717q-3 0 -3.5 2.5t2.5 5.5l88 80q4 5 9 5h49q6 0 8 -5l55 -80q1 -3 -0.5 -5.5t-5.5 -2.5h-39q-4 0 -6.5 1.5t-6.5 4.5l-34 37q-3 4 -10 0l-52 -38q-3 -2 -6 -3.5t-7 -1.5h-41z" />
    <glyph glyph-name="Udieresis" unicode="&#xdc;" horiz-adv-x="634" 
d="M264 -10q-65 0 -106 12.5t-63 33.5t-30 45.5t-8 48.5t2 42q5 41 13 89.5t18 92.5q11 48 24.5 102.5t29.5 108t32 98.5q2 4 5.5 7t8.5 3h33.5h33.5q7 0 7.5 -2t-2.5 -14q-13 -40 -25.5 -84t-24.5 -90q-20 -78 -36.5 -154t-24.5 -145q-3 -18 -2 -36t7.5 -33.5t20.5 -27.5
t39 -18.5t61 -6.5q47 0 78.5 10t52 28t33 39.5t18.5 44.5q20 68 36 142.5t29 151.5q8 48 14 93t11 86q1 12 2.5 14t8.5 2h34.5h35.5q5 0 7.5 -3t1.5 -7q-2 -45 -9.5 -98t-16.5 -107t-19 -102q-9 -45 -20.5 -93.5t-24.5 -90.5q-8 -23 -22.5 -53.5t-44.5 -60t-82.5 -49
t-135.5 -19.5zM396 773q-3 -18 -14 -27.5t-37 -9.5q-24 0 -31 9.5t-4 27.5q4 19 15.5 28.5t35.5 9.5q26 0 32.5 -9.5t2.5 -28.5zM543 773q-4 -18 -14.5 -27.5t-37.5 -9.5q-23 0 -30.5 9.5t-4.5 27.5q4 19 15.5 28.5t35.5 9.5q27 0 33.5 -9.5t2.5 -28.5z" />
    <glyph glyph-name="Yacute" unicode="&#xdd;" horiz-adv-x="503" 
d="M322 295q-7 -8 -13 -22.5t-8 -25.5l-51 -238q-1 -4 -4.5 -6.5t-6.5 -2.5h-73q-4 0 -6 2.5t-1 6.5l50 237q4 20 0 40.5t-10 33.5q-6 10 -14 28.5t-16.5 39t-15 38t-8.5 26.5q-17 53 -26 97t-12.5 72.5t-3.5 34.5q0 10 5 13.5t12 3.5h70q5 0 7 -2.5t3 -8.5q1 -17 6 -45.5
t13 -61.5t16 -63q8 -27 17.5 -52.5t20.5 -49.5q5 -9 8.5 -10.5t12.5 9.5q12 12 25.5 27.5t26.5 32.5t25 32q22 31 45 66.5t41.5 66.5t25.5 49q3 6 6.5 8t9.5 2h72q5 0 8.5 -3.5t-1.5 -13.5q-2 -6 -17 -34.5t-42 -72.5t-66 -96q-9 -13 -25 -33t-34.5 -43t-37.5 -44.5
t-34 -37.5zM346 718h-45q-6 0 -6 3.5t4 7.5l62 71q4 5 7 7t10 2h69q3 0 5 -3.5t-1 -5.5l-88 -74q-5 -3 -8.5 -5.5t-8.5 -2.5z" />
    <glyph glyph-name="Thorn" unicode="&#xde;" horiz-adv-x="468" 
d="M461 378q-13 -63 -47 -116.5t-85 -85.5t-117 -32h-78q-6 0 -8 -6l-27 -129q-2 -9 -12 -9h-72q-4 0 -6.5 2.5t-1.5 6.5l147 690q1 9 11 9h71q6 0 8.5 -1.5t0.5 -7.5l-20 -98q-1 -3 -0.5 -6t2.5 -4h69q111 0 149.5 -51.5t15.5 -161.5zM372 378q17 80 -6.5 113.5t-84.5 33.5
h-67q-3 0 -4.5 -1t-2.5 -5l-64 -300q-1 -6 6 -6h68q58 0 98 44t57 121z" />
    <glyph glyph-name="germandbls" unicode="&#xdf;" horiz-adv-x="631" 
d="M-18 -105q-19 0 -30.5 1t-14.5 6q-1 4 -1 8.5t1 9.5l4 18t5 16q9 6 18 7.5t17 2.5q20 4 38 16t34 36.5t30 66.5t28 108q9 38 20.5 93.5t25.5 120.5t28 133q7 33 24 63.5t44 54.5t65 38t86 14q20 0 44 -4.5t46.5 -15.5t40 -29t24 -45.5t-1.5 -65.5q-5 -24 -16 -44.5
t-29 -39.5q-15 -14 -35.5 -25t-41.5 -20q-19 -8 -25.5 -19t-2.5 -21t17 -16q28 -12 56.5 -29t50.5 -39q24 -23 32.5 -56.5t-0.5 -70.5q-11 -54 -44 -93.5t-79.5 -60.5t-100.5 -21q-29 0 -65.5 8t-61.5 28q-3 3 -4.5 6t-0.5 8q6 13 11.5 26t10.5 25q4 9 8 8.5t8 -3.5
q10 -8 26.5 -15t35 -11t33.5 -4q36 0 59.5 16.5t37.5 38.5q13 16 17.5 38.5t-1.5 45.5q1 23 -8 38.5t-26 28t-40.5 24t-52.5 26.5q-22 10 -28.5 30.5t7 42t51.5 37.5q15 5 31 12t34 23q15 13 28.5 32.5t18.5 48.5q6 29 -2.5 47.5t-27 27.5t-43.5 9q-45 0 -79 -28t-46 -84
q-5 -25 -12.5 -60.5t-16.5 -78t-18.5 -86.5t-18.5 -84.5t-16 -73.5t-11 -54q-20 -96 -68.5 -143.5t-126.5 -47.5z" />
    <glyph glyph-name="agrave" unicode="&#xe0;" horiz-adv-x="482" 
d="M183 -6q-97 0 -135 57.5t-11 178.5q16 76 44.5 123.5t64 74t72.5 36.5t71 10q30 0 57 -10t38 -20l5 20q1 4 4 5.5t7 1.5h68q10 0 9 -9q-3 -21 -10 -56.5t-17 -80t-22 -93.5t-25 -97.5t-26 -90.5q-4 -8 -9 -14t-22 -11q-27 -10 -72.5 -17.5t-90.5 -7.5zM204 64
q15 0 32 2.5t31 6t19 4.5q6 2 11 6t8 13q6 24 13 53t14.5 59.5t14 59.5t11.5 53t8 38q2 6 -0.5 10.5t-8.5 7.5q-15 7 -35 14t-45 7q-17 0 -38 -6t-42.5 -23t-39.5 -50.5t-30 -89.5q-20 -93 1 -129t76 -36zM323 529q-9 0 -17 8l-67 89q-3 3 -1 6t5 3h69q7 0 10.5 -1.5
t6.5 -7.5l40 -87q7 -10 -2 -10h-44z" />
    <glyph glyph-name="aacute" unicode="&#xe1;" horiz-adv-x="482" 
d="M183 -6q-97 0 -135 57.5t-11 178.5q16 76 44.5 123.5t64 74t72.5 36.5t71 10q30 0 57 -10t38 -20l5 20q1 4 4 5.5t7 1.5h68q10 0 9 -9q-3 -21 -10 -56.5t-17 -80t-22 -93.5t-25 -97.5t-26 -90.5q-4 -8 -9 -14t-22 -11q-27 -10 -72.5 -17.5t-90.5 -7.5zM204 64
q15 0 32 2.5t31 6t19 4.5q6 2 11 6t8 13q6 24 13 53t14.5 59.5t14 59.5t11.5 53t8 38q2 6 -0.5 10.5t-8.5 7.5q-15 7 -35 14t-45 7q-17 0 -38 -6t-42.5 -23t-39.5 -50.5t-30 -89.5q-20 -93 1 -129t76 -36zM293 528q-6 0 -6 2.5t4 8.5l67 90q4 6 16 6h61q4 0 5.5 -2.5
t-3.5 -7.5l-85 -92q-4 -3 -6.5 -4t-8.5 -1h-44z" />
    <glyph glyph-name="acircumflex" unicode="&#xe2;" horiz-adv-x="482" 
d="M183 -6q-97 0 -135 57.5t-11 178.5q16 76 44.5 123.5t64 74t72.5 36.5t71 10q30 0 57 -10t38 -20l5 20q1 4 4 5.5t7 1.5h68q10 0 9 -9q-3 -21 -10 -56.5t-17 -80t-22 -93.5t-25 -97.5t-26 -90.5q-4 -8 -9 -14t-22 -11q-27 -10 -72.5 -17.5t-90.5 -7.5zM204 64
q15 0 32 2.5t31 6t19 4.5q6 2 11 6t8 13q6 24 13 53t14.5 59.5t14 59.5t11.5 53t8 38q2 6 -0.5 10.5t-8.5 7.5q-15 7 -35 14t-45 7q-17 0 -38 -6t-42.5 -23t-39.5 -50.5t-30 -89.5q-20 -93 1 -129t76 -36zM232 528q-3 0 -3.5 2.5t1.5 4.5l90 93q3 4 8 4h46q5 0 6 -4l50 -93
q2 -2 0.5 -4.5t-5.5 -2.5h-42q-4 0 -6 3l-34 46q-4 5 -9 0l-52 -46q-4 -3 -8 -3h-42z" />
    <glyph glyph-name="atilde" unicode="&#xe3;" horiz-adv-x="482" 
d="M183 -6q-97 0 -135 57.5t-11 178.5q16 76 44.5 123.5t64 74t72.5 36.5t71 10q30 0 57 -10t38 -20l5 20q1 4 4 5.5t7 1.5h68q10 0 9 -9q-3 -21 -10 -56.5t-17 -80t-22 -93.5t-25 -97.5t-26 -90.5q-4 -8 -9 -14t-22 -11q-27 -10 -72.5 -17.5t-90.5 -7.5zM204 64
q15 0 32 2.5t31 6t19 4.5q6 2 11 6t8 13q6 24 13 53t14.5 59.5t14 59.5t11.5 53t8 38q2 6 -0.5 10.5t-8.5 7.5q-15 7 -35 14t-45 7q-17 0 -38 -6t-42.5 -23t-39.5 -50.5t-30 -89.5q-20 -93 1 -129t76 -36zM234 532q-6 0 -4 6q7 32 27.5 51t50.5 19q15 0 28.5 -8.5t24.5 -17
t19 -8.5q7 0 13 6t7 15q1 4 3 5.5t3 1.5h39q6 0 4 -6q-6 -29 -28 -49.5t-50 -20.5q-19 0 -32 9t-22.5 17t-18.5 8q-8 0 -13.5 -6t-7.5 -16q-2 -6 -6 -6h-37z" />
    <glyph glyph-name="adieresis" unicode="&#xe4;" horiz-adv-x="482" 
d="M183 -6q-97 0 -135 57.5t-11 178.5q16 76 44.5 123.5t64 74t72.5 36.5t71 10q30 0 57 -10t38 -20l5 20q1 4 4 5.5t7 1.5h68q10 0 9 -9q-3 -21 -10 -56.5t-17 -80t-22 -93.5t-25 -97.5t-26 -90.5q-4 -8 -9 -14t-22 -11q-27 -10 -72.5 -17.5t-90.5 -7.5zM204 64
q15 0 32 2.5t31 6t19 4.5q6 2 11 6t8 13q6 24 13 53t14.5 59.5t14 59.5t11.5 53t8 38q2 6 -0.5 10.5t-8.5 7.5q-15 7 -35 14t-45 7q-17 0 -38 -6t-42.5 -23t-39.5 -50.5t-30 -89.5q-20 -93 1 -129t76 -36zM309 573q-3 -18 -14 -27.5t-37 -9.5q-24 0 -31 9.5t-4 27.5
q4 19 15.5 28.5t35.5 9.5q26 0 32.5 -9.5t2.5 -28.5zM456 573q-4 -18 -14.5 -27.5t-37.5 -9.5q-23 0 -30.5 9.5t-4.5 27.5q4 19 15.5 28.5t35.5 9.5q27 0 33.5 -9.5t2.5 -28.5z" />
    <glyph glyph-name="aring" unicode="&#xe5;" horiz-adv-x="482" 
d="M183 -6q-97 0 -135 57.5t-11 178.5q16 76 44.5 123.5t64 74t72.5 36.5t71 10q30 0 57 -10t38 -20l5 20q1 4 4 5.5t7 1.5h68q10 0 9 -9q-3 -21 -10 -56.5t-17 -80t-22 -93.5t-25 -97.5t-26 -90.5q-4 -8 -9 -14t-22 -11q-27 -10 -72.5 -17.5t-90.5 -7.5zM204 64
q15 0 32 2.5t31 6t19 4.5q6 2 11 6t8 13q6 24 13 53t14.5 59.5t14 59.5t11.5 53t8 38q2 6 -0.5 10.5t-8.5 7.5q-15 7 -35 14t-45 7q-17 0 -38 -6t-42.5 -23t-39.5 -50.5t-30 -89.5q-20 -93 1 -129t76 -36zM431 592q-8 -37 -33 -59t-71 -22q-48 0 -63 22t-7 59t32.5 59
t72.5 22q46 0 61.5 -22t7.5 -59zM389 595q3 14 -3 24t-33 10q-29 0 -38.5 -10t-12.5 -24t1.5 -27t34.5 -13t39 13.5t12 26.5z" />
    <glyph glyph-name="ae" unicode="&#xe6;" horiz-adv-x="771" 
d="M180 -8q-37 0 -69.5 6t-55.5 22t-31.5 45t1.5 75q11 51 36 84t57.5 50.5t66 24.5t61.5 7q27 0 52.5 -2.5t42.5 -5.5q12 -3 16 17q12 53 -11 75t-79 22q-38 0 -75 -12.5t-63 -25.5q-8 -4 -11 -3t-2 8q1 11 1 21.5t1 21.5q0 9 2.5 12t9.5 7q28 16 68 26t85 10q46 0 75 -8.5
t46 -23.5t24 -35q29 32 69.5 51.5t96.5 19.5q62 0 95.5 -18.5t46.5 -49t11.5 -67t-9.5 -72.5q-8 -39 -18.5 -49.5t-26.5 -10.5h-129h-129q-4 0 -7.5 -2t-4.5 -8q-10 -70 13 -106.5t87 -36.5q35 0 74 9t61 22q10 5 16.5 6.5t9.5 -10.5l9 -30q2 -7 -1 -10.5t-11 -8.5
q-38 -24 -88.5 -34t-100.5 -10t-80 13.5t-45 38.5q-2 -6 -4.5 -11.5t-4.5 -10.5q-2 -3 -5.5 -6t-13.5 -6q-22 -7 -51.5 -11.5t-58.5 -7t-49 -2.5zM332 223q3 12 -12 17t-38.5 6t-46.5 1q-19 0 -44 -7.5t-47 -30.5t-32 -69q-6 -30 2.5 -50t30 -30t52.5 -10q9 0 24 1.5t31.5 5
t29.5 9.5t16 16q7 26 17 66t17 75zM632 266q10 0 13.5 3.5t5.5 16.5q6 26 6 48t-7.5 39.5t-25 27.5t-47.5 10t-53.5 -11.5t-40.5 -30.5t-27.5 -40.5t-16.5 -41.5q-2 -11 -2 -15t6 -4q47 -1 94.5 -1t94.5 -1z" />
    <glyph glyph-name="ccedilla" unicode="&#xe7;" horiz-adv-x="403" 
d="M191 -5q-62 0 -98 18.5t-51.5 52t-15 77.5t11.5 94q10 47 28.5 90.5t49 78.5t74 55t104.5 20q42 0 71 -9t48 -27q5 -6 6 -9t-1 -9l-11 -53q-1 -7 -6 -7t-8 3q-18 21 -46 29t-59 8q-35 0 -62.5 -15t-47 -40t-32.5 -55t-20 -61q-10 -52 -6 -90.5t26 -59.5t65 -21
q29 0 54.5 6t52.5 18q14 6 16 -5l10 -40q1 -6 -1 -9t-8 -6q-28 -18 -66.5 -26t-77.5 -8zM258 -121q-6 -28 -35 -51t-71 -23q-29 0 -47.5 11.5t-27.5 27.5q-3 5 -1.5 11t7.5 9l20 9q14 5 18 -4q4 -10 14 -16t21 -6q21 0 33 11t14 23q4 15 -5 22.5t-23.5 11t-29.5 3.5
q-7 0 -9 4.5t2 12.5l30 61q3 6 8 7t9 1h24q6 0 3 -9l-23 -64l-9 19q41 -3 63 -20t15 -51z" />
    <glyph glyph-name="egrave" unicode="&#xe8;" horiz-adv-x="466" 
d="M38 237q10 47 28.5 90.5t49 78.5t74 55t104.5 20q63 0 96.5 -18.5t46 -49t11.5 -67t-9 -72.5q-8 -39 -19 -49.5t-27 -10.5h-258q-4 0 -7.5 -2t-5.5 -11q-7 -40 0.5 -72t32 -50t68.5 -18q35 0 73.5 9t62.5 22q9 5 15.5 6.5t9.5 -10.5l9 -30q3 -8 0 -11t-12 -8
q-38 -24 -89 -34t-101 -10q-63 0 -98.5 18.5t-51 52t-15 77.5t11.5 94zM352 288q5 25 5 47t-7.5 39.5t-25.5 27t-47 9.5q-31 0 -54 -11.5t-39.5 -30.5t-27.5 -40.5t-17 -41.5q-3 -11 -2.5 -15t7.5 -4h94.5h94.5q9 0 12.5 3.5t6.5 16.5zM297 529q-9 0 -17 8l-67 89q-3 3 -1 6
t5 3h69q7 0 10.5 -1.5t6.5 -7.5l40 -87q7 -10 -2 -10h-44z" />
    <glyph glyph-name="eacute" unicode="&#xe9;" horiz-adv-x="466" 
d="M38 237q10 47 28.5 90.5t49 78.5t74 55t104.5 20q63 0 96.5 -18.5t46 -49t11.5 -67t-9 -72.5q-8 -39 -19 -49.5t-27 -10.5h-258q-4 0 -7.5 -2t-5.5 -11q-7 -40 0.5 -72t32 -50t68.5 -18q35 0 73.5 9t62.5 22q9 5 15.5 6.5t9.5 -10.5l9 -30q3 -8 0 -11t-12 -8
q-38 -24 -89 -34t-101 -10q-63 0 -98.5 18.5t-51 52t-15 77.5t11.5 94zM352 288q5 25 5 47t-7.5 39.5t-25.5 27t-47 9.5q-31 0 -54 -11.5t-39.5 -30.5t-27.5 -40.5t-17 -41.5q-3 -11 -2.5 -15t7.5 -4h94.5h94.5q9 0 12.5 3.5t6.5 16.5zM267 528q-6 0 -6 2.5t4 8.5l67 90
q4 6 16 6h61q4 0 5.5 -2.5t-3.5 -7.5l-85 -92q-4 -3 -6.5 -4t-8.5 -1h-44z" />
    <glyph glyph-name="ecircumflex" unicode="&#xea;" horiz-adv-x="466" 
d="M38 237q10 47 28.5 90.5t49 78.5t74 55t104.5 20q63 0 96.5 -18.5t46 -49t11.5 -67t-9 -72.5q-8 -39 -19 -49.5t-27 -10.5h-258q-4 0 -7.5 -2t-5.5 -11q-7 -40 0.5 -72t32 -50t68.5 -18q35 0 73.5 9t62.5 22q9 5 15.5 6.5t9.5 -10.5l9 -30q3 -8 0 -11t-12 -8
q-38 -24 -89 -34t-101 -10q-63 0 -98.5 18.5t-51 52t-15 77.5t11.5 94zM352 288q5 25 5 47t-7.5 39.5t-25.5 27t-47 9.5q-31 0 -54 -11.5t-39.5 -30.5t-27.5 -40.5t-17 -41.5q-3 -11 -2.5 -15t7.5 -4h94.5h94.5q9 0 12.5 3.5t6.5 16.5zM206 528q-3 0 -3.5 2.5t1.5 4.5l90 93
q3 4 8 4h46q5 0 6 -4l50 -93q2 -2 0.5 -4.5t-5.5 -2.5h-42q-4 0 -6 3l-34 46q-4 5 -9 0l-52 -46q-4 -3 -8 -3h-42z" />
    <glyph glyph-name="edieresis" unicode="&#xeb;" horiz-adv-x="466" 
d="M38 237q10 47 28.5 90.5t49 78.5t74 55t104.5 20q63 0 96.5 -18.5t46 -49t11.5 -67t-9 -72.5q-8 -39 -19 -49.5t-27 -10.5h-258q-4 0 -7.5 -2t-5.5 -11q-7 -40 0.5 -72t32 -50t68.5 -18q35 0 73.5 9t62.5 22q9 5 15.5 6.5t9.5 -10.5l9 -30q3 -8 0 -11t-12 -8
q-38 -24 -89 -34t-101 -10q-63 0 -98.5 18.5t-51 52t-15 77.5t11.5 94zM352 288q5 25 5 47t-7.5 39.5t-25.5 27t-47 9.5q-31 0 -54 -11.5t-39.5 -30.5t-27.5 -40.5t-17 -41.5q-3 -11 -2.5 -15t7.5 -4h94.5h94.5q9 0 12.5 3.5t6.5 16.5zM283 573q-3 -18 -14 -27.5t-37 -9.5
q-24 0 -31 9.5t-4 27.5q4 19 15.5 28.5t35.5 9.5q26 0 32.5 -9.5t2.5 -28.5zM430 573q-4 -18 -14.5 -27.5t-37.5 -9.5q-23 0 -30.5 9.5t-4.5 27.5q4 19 15.5 28.5t35.5 9.5q27 0 33.5 -9.5t2.5 -28.5z" />
    <glyph glyph-name="igrave" unicode="&#xec;" horiz-adv-x="205" 
d="M101 9q-2 -9 -11 -9h-71q-9 0 -7 9l96 454q3 9 11 9h71q3 0 5.5 -2.5t1.5 -6.5zM157 529q-9 0 -17 8l-67 89q-3 3 -1 6t5 3h69q7 0 10.5 -1.5t6.5 -7.5l40 -87q7 -10 -2 -10h-44z" />
    <glyph glyph-name="iacute" unicode="&#xed;" horiz-adv-x="205" 
d="M101 9q-2 -9 -11 -9h-71q-9 0 -7 9l96 454q3 9 11 9h71q3 0 5.5 -2.5t1.5 -6.5zM127 528q-6 0 -6 2.5t4 8.5l67 90q4 6 16 6h61q4 0 5.5 -2.5t-3.5 -7.5l-85 -92q-4 -3 -6.5 -4t-8.5 -1h-44z" />
    <glyph glyph-name="icircumflex" unicode="&#xee;" horiz-adv-x="205" 
d="M101 9q-2 -9 -11 -9h-71q-9 0 -7 9l96 454q3 9 11 9h71q3 0 5.5 -2.5t1.5 -6.5zM66 528q-3 0 -3.5 2.5t1.5 4.5l90 93q3 4 8 4h46q5 0 6 -4l50 -93q2 -2 0.5 -4.5t-5.5 -2.5h-42q-4 0 -6 3l-34 46q-4 5 -9 0l-52 -46q-4 -3 -8 -3h-42z" />
    <glyph glyph-name="idieresis" unicode="&#xef;" horiz-adv-x="205" 
d="M101 9q-2 -9 -11 -9h-71q-9 0 -7 9l96 454q3 9 11 9h71q3 0 5.5 -2.5t1.5 -6.5zM143 573q-3 -18 -14 -27.5t-37 -9.5q-24 0 -31 9.5t-4 27.5q4 19 15.5 28.5t35.5 9.5q26 0 32.5 -9.5t2.5 -28.5zM290 573q-4 -18 -14.5 -27.5t-37.5 -9.5q-23 0 -30.5 9.5t-4.5 27.5
q4 19 15.5 28.5t35.5 9.5q27 0 33.5 -9.5t2.5 -28.5z" />
    <glyph glyph-name="eth" unicode="&#xf0;" horiz-adv-x="511" 
d="M466 239q-14 -66 -44 -122t-83 -90t-135 -34q-61 0 -97.5 18t-53.5 51.5t-18 78t10 97.5q16 70 47.5 125t84 86t130.5 31q18 0 36 -4.5t28 -15.5q-15 28 -33.5 51t-41.5 43q-19 16 -40 31.5t-45 29.5q-8 6 -2 13l33 41q3 3 7 4.5t11 -2.5q10 -6 19.5 -12t19.5 -12
q73 -44 116.5 -107t56 -139.5t-5.5 -161.5zM374 236q18 82 -1 126t-83 44q-63 0 -100.5 -44t-55.5 -126q-17 -83 1 -128t82 -45q65 0 102.5 46t54.5 127zM197 502q-5 -2 -6.5 -2t-2.5 3l-12 28q0 3 0.5 5t5.5 5l236 128q5 2 6.5 2t2.5 -3l13 -30q1 -2 0 -3t-7 -4z" />
    <glyph glyph-name="ntilde" unicode="&#xf1;" horiz-adv-x="481" 
d="M21 0q-3 0 -6.5 1.5t-2.5 7.5q23 105 45 210l44 210q2 8 8 12.5t24 9.5q13 4 40 9.5t57.5 10.5t55.5 5q59 0 93 -17.5t49 -48.5t15.5 -71.5t-9.5 -86.5q-9 -43 -20 -87.5t-22 -83.5t-19 -65q-4 -12 -7.5 -14t-13.5 -2h-64q-9 0 -6 9q1 5 6.5 26t13.5 50.5t16 61.5l15 60
t11 46q12 53 7.5 86t-24.5 49t-58 16q-20 0 -37.5 -3t-32.5 -8q-7 -1 -13.5 -7t-8.5 -18q-18 -86 -37 -175.5t-39 -180.5q-1 -4 -2.5 -8t-6.5 -4h-71zM205 532q-6 0 -4 6q7 32 27.5 51t50.5 19q15 0 28.5 -8.5t24.5 -17t19 -8.5q7 0 13 6t7 15q1 4 3 5.5t3 1.5h39q6 0 4 -6
q-6 -29 -28 -49.5t-50 -20.5q-19 0 -32 9t-22.5 17t-18.5 8q-8 0 -13.5 -6t-7.5 -16q-2 -6 -6 -6h-37z" />
    <glyph glyph-name="ograve" unicode="&#xf2;" horiz-adv-x="496" 
d="M196 -6q-63 0 -99.5 18t-53 50.5t-16.5 77t11 97.5q15 70 46 124.5t83.5 85.5t131.5 31q80 0 119 -31t47.5 -85.5t-6.5 -124.5t-44.5 -125t-82 -86.5t-136.5 -31.5zM210 63q67 0 103.5 45.5t53.5 127.5q18 81 -2 125t-82 44t-100 -44t-56 -125q-17 -83 0 -128t83 -45z
M302 529q-9 0 -17 8l-67 89q-3 3 -1 6t5 3h69q7 0 10.5 -1.5t6.5 -7.5l40 -87q7 -10 -2 -10h-44z" />
    <glyph glyph-name="oacute" unicode="&#xf3;" horiz-adv-x="496" 
d="M196 -6q-63 0 -99.5 18t-53 50.5t-16.5 77t11 97.5q15 70 46 124.5t83.5 85.5t131.5 31q80 0 119 -31t47.5 -85.5t-6.5 -124.5t-44.5 -125t-82 -86.5t-136.5 -31.5zM210 63q67 0 103.5 45.5t53.5 127.5q18 81 -2 125t-82 44t-100 -44t-56 -125q-17 -83 0 -128t83 -45z
M272 528q-6 0 -6 2.5t4 8.5l67 90q4 6 16 6h61q4 0 5.5 -2.5t-3.5 -7.5l-85 -92q-4 -3 -6.5 -4t-8.5 -1h-44z" />
    <glyph glyph-name="ocircumflex" unicode="&#xf4;" horiz-adv-x="496" 
d="M196 -6q-63 0 -99.5 18t-53 50.5t-16.5 77t11 97.5q15 70 46 124.5t83.5 85.5t131.5 31q80 0 119 -31t47.5 -85.5t-6.5 -124.5t-44.5 -125t-82 -86.5t-136.5 -31.5zM210 63q67 0 103.5 45.5t53.5 127.5q18 81 -2 125t-82 44t-100 -44t-56 -125q-17 -83 0 -128t83 -45z
M211 528q-3 0 -3.5 2.5t1.5 4.5l90 93q3 4 8 4h46q5 0 6 -4l50 -93q2 -2 0.5 -4.5t-5.5 -2.5h-42q-4 0 -6 3l-34 46q-4 5 -9 0l-52 -46q-4 -3 -8 -3h-42z" />
    <glyph glyph-name="otilde" unicode="&#xf5;" horiz-adv-x="496" 
d="M196 -6q-63 0 -99.5 18t-53 50.5t-16.5 77t11 97.5q15 70 46 124.5t83.5 85.5t131.5 31q80 0 119 -31t47.5 -85.5t-6.5 -124.5t-44.5 -125t-82 -86.5t-136.5 -31.5zM210 63q67 0 103.5 45.5t53.5 127.5q18 81 -2 125t-82 44t-100 -44t-56 -125q-17 -83 0 -128t83 -45z
M213 532q-6 0 -4 6q7 32 27.5 51t50.5 19q15 0 28.5 -8.5t24.5 -17t19 -8.5q7 0 13 6t7 15q1 4 3 5.5t3 1.5h39q6 0 4 -6q-6 -29 -28 -49.5t-50 -20.5q-19 0 -32 9t-22.5 17t-18.5 8q-8 0 -13.5 -6t-7.5 -16q-2 -6 -6 -6h-37z" />
    <glyph glyph-name="odieresis" unicode="&#xf6;" horiz-adv-x="496" 
d="M196 -6q-63 0 -99.5 18t-53 50.5t-16.5 77t11 97.5q15 70 46 124.5t83.5 85.5t131.5 31q80 0 119 -31t47.5 -85.5t-6.5 -124.5t-44.5 -125t-82 -86.5t-136.5 -31.5zM210 63q67 0 103.5 45.5t53.5 127.5q18 81 -2 125t-82 44t-100 -44t-56 -125q-17 -83 0 -128t83 -45z
M288 573q-3 -18 -14 -27.5t-37 -9.5q-24 0 -31 9.5t-4 27.5q4 19 15.5 28.5t35.5 9.5q26 0 32.5 -9.5t2.5 -28.5zM435 573q-4 -18 -14.5 -27.5t-37.5 -9.5q-23 0 -30.5 9.5t-4.5 27.5q4 19 15.5 28.5t35.5 9.5q27 0 33.5 -9.5t2.5 -28.5z" />
    <glyph glyph-name="divide" unicode="&#xf7;" horiz-adv-x="477" 
d="M273 169q-4 -20 -15.5 -29.5t-40.5 -9.5q-26 0 -34.5 9.5t-4.5 29.5q4 19 16.5 29.5t38.5 10.5q30 0 37 -10.5t3 -29.5zM331 440q-4 -20 -15.5 -30t-41.5 -10q-26 0 -34 10t-4 30q3 19 15.5 29t39.5 10q29 0 36 -10t4 -29zM68 274q-7 0 -8 2t0 7l10 46q1 6 3 7.5t9 1.5
h356q6 0 8 -1.5t1 -7.5l-10 -48q-1 -4 -3 -5.5t-10 -1.5h-356z" />
    <glyph glyph-name="oslash" unicode="&#xf8;" horiz-adv-x="928" 
d="M196 -6q-63 0 -99.5 18t-53 50.5t-16.5 77t11 97.5q15 70 46 124.5t83.5 85.5t131.5 31q80 0 119 -31t47.5 -85.5t-6.5 -124.5t-44.5 -125t-82 -86.5t-136.5 -31.5zM210 63q67 0 103.5 45.5t53.5 127.5q18 81 -2 125t-82 44t-100 -44t-56 -125q-17 -83 0 -128t83 -45z
M53 -67q-2 -4 -5.5 -6.5t-7.5 -2.5h-44q-2 0 -1.5 3t3.5 7l434 599q3 5 6 6t6 1h41q5 0 4 -3t-10 -15z" />
    <glyph glyph-name="ugrave" unicode="&#xf9;" horiz-adv-x="479" 
d="M198 -4q-59 0 -93.5 17.5t-49.5 48.5t-15.5 71.5t9.5 86.5q10 44 21 88t22 83t18 65q5 12 8.5 14t13.5 2h55q10 0 14 -1t-1 -13q-1 -6 -8 -31t-16.5 -61t-19 -75.5t-16.5 -74.5q-15 -71 1 -109.5t73 -38.5q7 0 21.5 1t29.5 4t26.5 9t13.5 16l77 362q2 4 3.5 8t5.5 4h72
q3 0 6 -1.5t2 -7.5l-88 -414q-2 -12 -10 -17.5t-29 -12.5q-10 -3 -35.5 -8.5t-55.5 -10t-55 -4.5zM291 529q-9 0 -17 8l-67 89q-3 3 -1 6t5 3h69q7 0 10.5 -1.5t6.5 -7.5l40 -87q7 -10 -2 -10h-44z" />
    <glyph glyph-name="uacute" unicode="&#xfa;" horiz-adv-x="479" 
d="M198 -4q-59 0 -93.5 17.5t-49.5 48.5t-15.5 71.5t9.5 86.5q10 44 21 88t22 83t18 65q5 12 8.5 14t13.5 2h55q10 0 14 -1t-1 -13q-1 -6 -8 -31t-16.5 -61t-19 -75.5t-16.5 -74.5q-15 -71 1 -109.5t73 -38.5q7 0 21.5 1t29.5 4t26.5 9t13.5 16l77 362q2 4 3.5 8t5.5 4h72
q3 0 6 -1.5t2 -7.5l-88 -414q-2 -12 -10 -17.5t-29 -12.5q-10 -3 -35.5 -8.5t-55.5 -10t-55 -4.5zM261 528q-6 0 -6 2.5t4 8.5l67 90q4 6 16 6h61q4 0 5.5 -2.5t-3.5 -7.5l-85 -92q-4 -3 -6.5 -4t-8.5 -1h-44z" />
    <glyph glyph-name="ucircumflex" unicode="&#xfb;" horiz-adv-x="479" 
d="M198 -4q-59 0 -93.5 17.5t-49.5 48.5t-15.5 71.5t9.5 86.5q10 44 21 88t22 83t18 65q5 12 8.5 14t13.5 2h55q10 0 14 -1t-1 -13q-1 -6 -8 -31t-16.5 -61t-19 -75.5t-16.5 -74.5q-15 -71 1 -109.5t73 -38.5q7 0 21.5 1t29.5 4t26.5 9t13.5 16l77 362q2 4 3.5 8t5.5 4h72
q3 0 6 -1.5t2 -7.5l-88 -414q-2 -12 -10 -17.5t-29 -12.5q-10 -3 -35.5 -8.5t-55.5 -10t-55 -4.5zM201 528q-3 0 -3.5 2.5t1.5 4.5l90 93q3 4 8 4h46q5 0 6 -4l50 -93q2 -2 0.5 -4.5t-5.5 -2.5h-42q-4 0 -6 3l-34 46q-4 5 -9 0l-52 -46q-4 -3 -8 -3h-42z" />
    <glyph glyph-name="udieresis" unicode="&#xfc;" horiz-adv-x="479" 
d="M198 -4q-59 0 -93.5 17.5t-49.5 48.5t-15.5 71.5t9.5 86.5q10 44 21 88t22 83t18 65q5 12 8.5 14t13.5 2h55q10 0 14 -1t-1 -13q-1 -6 -8 -31t-16.5 -61t-19 -75.5t-16.5 -74.5q-15 -71 1 -109.5t73 -38.5q7 0 21.5 1t29.5 4t26.5 9t13.5 16l77 362q2 4 3.5 8t5.5 4h72
q3 0 6 -1.5t2 -7.5l-88 -414q-2 -12 -10 -17.5t-29 -12.5q-10 -3 -35.5 -8.5t-55.5 -10t-55 -4.5zM277 573q-3 -18 -14 -27.5t-37 -9.5q-24 0 -31 9.5t-4 27.5q4 19 15.5 28.5t35.5 9.5q26 0 32.5 -9.5t2.5 -28.5zM424 573q-4 -18 -14.5 -27.5t-37.5 -9.5q-23 0 -30.5 9.5
t-4.5 27.5q4 19 15.5 28.5t35.5 9.5q27 0 33.5 -9.5t2.5 -28.5z" />
    <glyph glyph-name="yacute" unicode="&#xfd;" horiz-adv-x="415" 
d="M-33 -127q-20 0 -34.5 2.5t-24.5 6.5q-14 7 -4 20l23 34q6 10 15 7q5 -1 10.5 -2t13.5 -1q24 0 49.5 10t45.5 27q15 11 27.5 24.5t20.5 27t9 23.5q1 14 -3.5 26t-13.5 39q-7 23 -13.5 60t-11.5 82.5t-7 96t1 102.5q0 14 13 14h66q7 0 10.5 -3.5t2.5 -14.5
q-3 -30 -2.5 -71.5t4 -85t8 -81t10.5 -59.5q3 -12 10 -14t14 10q25 42 52 93.5t52 106t43 106.5q4 7 7 10t11 3h61q15 0 9 -15q-13 -37 -28.5 -73t-35 -74.5t-46.5 -86.5q-15 -29 -40.5 -72.5t-59 -91.5t-75 -90t-89 -69t-100.5 -27zM232 528q-6 0 -6 2.5t4 8.5l67 90
q4 6 16 6h61q4 0 5.5 -2.5t-3.5 -7.5l-85 -92q-4 -3 -6.5 -4t-8.5 -1h-44z" />
    <glyph glyph-name="thorn" unicode="&#xfe;" horiz-adv-x="494" 
d="M453 245q-17 -79 -51 -129.5t-74.5 -77.5t-78.5 -35q-31 -6 -64.5 -2.5t-53.5 12.5q-6 1 -9.5 1.5t-6.5 -1.5q-7 -18 -15.5 -36.5t-14.5 -35.5q-2 -12 -5 -23.5t-7 -22.5q-3 -4 -8 -5.5t-13 -1.5q-15 0 -30 0.5t-28 1.5q16 91 34 183t38 186q17 83 35 165.5t36 164.5
q4 4 10.5 6t13.5 2q16 0 30.5 -0.5t28.5 -1.5q-2 -22 -4 -45t-8 -50q-3 -12 -5 -24.5t-3 -23.5q19 11 45 19.5t60 8.5q97 0 134.5 -60.5t13.5 -174.5zM362 245q19 87 -1 126.5t-71 39.5q-19 0 -41 -5t-40.5 -15.5t-29.5 -26.5q-6 -8 -7 -18l-24 -108t-23 -107l-1.5 -10.5
t1.5 -7.5q3 -14 16.5 -23t32.5 -13t39 -4q23 0 52 14.5t55.5 52t41.5 105.5z" />
    <glyph glyph-name="ydieresis" unicode="&#xff;" horiz-adv-x="415" 
d="M-33 -127q-20 0 -34.5 2.5t-24.5 6.5q-14 7 -4 20l23 34q6 10 15 7q5 -1 10.5 -2t13.5 -1q24 0 49.5 10t45.5 27q15 11 27.5 24.5t20.5 27t9 23.5q1 14 -3.5 26t-13.5 39q-7 23 -13.5 60t-11.5 82.5t-7 96t1 102.5q0 14 13 14h66q7 0 10.5 -3.5t2.5 -14.5
q-3 -30 -2.5 -71.5t4 -85t8 -81t10.5 -59.5q3 -12 10 -14t14 10q25 42 52 93.5t52 106t43 106.5q4 7 7 10t11 3h61q15 0 9 -15q-13 -37 -28.5 -73t-35 -74.5t-46.5 -86.5q-15 -29 -40.5 -72.5t-59 -91.5t-75 -90t-89 -69t-100.5 -27zM248 573q-3 -18 -14 -27.5t-37 -9.5
q-24 0 -31 9.5t-4 27.5q4 19 15.5 28.5t35.5 9.5q26 0 32.5 -9.5t2.5 -28.5zM395 573q-4 -18 -14.5 -27.5t-37.5 -9.5q-23 0 -30.5 9.5t-4.5 27.5q4 19 15.5 28.5t35.5 9.5q27 0 33.5 -9.5t2.5 -28.5z" />
    <glyph glyph-name="Amacron" unicode="&#x100;" horiz-adv-x="562" 
d="M-5 0q-6 0 -6.5 4.5t4.5 17.5q16 47 44 112t62.5 138.5t72 147t73.5 136t66 104.5q5 6 9.5 9.5t9.5 3.5h87q5 -1 8 -3.5t5 -9.5q12 -41 21.5 -104t16 -137t10 -148.5t3.5 -139t-3 -108.5q-1 -14 -3 -18.5t-9 -4.5h-71q-6 0 -7.5 3t-1.5 15q2 26 2 61v69q1 6 -1 7.5
t-9 1.5h-229q-6 0 -8.5 -1.5t-5.5 -8.5q-13 -33 -28 -68t-25 -61q-5 -12 -7.5 -15t-7.5 -3h-72zM184 229h190q5 0 7.5 3t2.5 12q-3 74 -7 150.5t-16 143.5q0 7 -7 7h-15q-5 0 -10 -7q-21 -35 -47.5 -85t-53 -105.5t-50.5 -107.5q-2 -4 -1.5 -7.5t7.5 -3.5zM496 743
q-1 -2 -2 -3t-7 -1h-204q-5 0 -6 1.5t0 4.5l9 44q1 5 2.5 6t6.5 1h205q5 0 6 -1t0 -5z" />
    <glyph glyph-name="amacron" unicode="&#x101;" horiz-adv-x="482" 
d="M183 -6q-97 0 -135 57.5t-11 178.5q16 76 44.5 123.5t64 74t72.5 36.5t71 10q30 0 57 -10t38 -20l5 20q1 4 4 5.5t7 1.5h68q10 0 9 -9q-3 -21 -10 -56.5t-17 -80t-22 -93.5t-25 -97.5t-26 -90.5q-4 -8 -9 -14t-22 -11q-27 -10 -72.5 -17.5t-90.5 -7.5zM204 64
q15 0 32 2.5t31 6t19 4.5q6 2 11 6t8 13q6 24 13 53t14.5 59.5t14 59.5t11.5 53t8 38q2 6 -0.5 10.5t-8.5 7.5q-15 7 -35 14t-45 7q-17 0 -38 -6t-42.5 -23t-39.5 -50.5t-30 -89.5q-20 -93 1 -129t76 -36zM444 543q-1 -2 -2 -3t-7 -1h-204q-5 0 -6 1.5t0 4.5l9 44q1 5 2.5 6
t6.5 1h205q5 0 6 -1t0 -5z" />
    <glyph glyph-name="Abreve" unicode="&#x102;" horiz-adv-x="562" 
d="M-5 0q-6 0 -6.5 4.5t4.5 17.5q16 47 44 112t62.5 138.5t72 147t73.5 136t66 104.5q5 6 9.5 9.5t9.5 3.5h87q5 -1 8 -3.5t5 -9.5q12 -41 21.5 -104t16 -137t10 -148.5t3.5 -139t-3 -108.5q-1 -14 -3 -18.5t-9 -4.5h-71q-6 0 -7.5 3t-1.5 15q2 26 2 61v69q1 6 -1 7.5
t-9 1.5h-229q-6 0 -8.5 -1.5t-5.5 -8.5q-13 -33 -28 -68t-25 -61q-5 -12 -7.5 -15t-7.5 -3h-72zM184 229h190q5 0 7.5 3t2.5 12q-3 74 -7 150.5t-16 143.5q0 7 -7 7h-15q-5 0 -10 -7q-21 -35 -47.5 -85t-53 -105.5t-50.5 -107.5q-2 -4 -1.5 -7.5t7.5 -3.5zM383 724
q-50 0 -72 21.5t-15 62.5q2 9 4 11.5t9 2.5h38q6 0 7.5 -1.5t0.5 -7.5q-3 -20 7 -29t31 -9t35.5 9t19.5 29q1 6 3.5 7.5t6.5 1.5h40q6 0 6.5 -2.5t-1.5 -11.5q-9 -39 -38.5 -61.5t-81.5 -22.5z" />
    <glyph glyph-name="abreve" unicode="&#x103;" horiz-adv-x="482" 
d="M183 -6q-97 0 -135 57.5t-11 178.5q16 76 44.5 123.5t64 74t72.5 36.5t71 10q30 0 57 -10t38 -20l5 20q1 4 4 5.5t7 1.5h68q10 0 9 -9q-3 -21 -10 -56.5t-17 -80t-22 -93.5t-25 -97.5t-26 -90.5q-4 -8 -9 -14t-22 -11q-27 -10 -72.5 -17.5t-90.5 -7.5zM204 64
q15 0 32 2.5t31 6t19 4.5q6 2 11 6t8 13q6 24 13 53t14.5 59.5t14 59.5t11.5 53t8 38q2 6 -0.5 10.5t-8.5 7.5q-15 7 -35 14t-45 7q-17 0 -38 -6t-42.5 -23t-39.5 -50.5t-30 -89.5q-20 -93 1 -129t76 -36zM331 524q-50 0 -72 21.5t-15 62.5q2 9 4 11.5t9 2.5h38
q6 0 7.5 -1.5t0.5 -7.5q-3 -20 7 -29t31 -9t35.5 9t19.5 29q1 6 3.5 7.5t6.5 1.5h40q6 0 6.5 -2.5t-1.5 -11.5q-9 -39 -38.5 -61.5t-81.5 -22.5z" />
    <glyph glyph-name="Aogonek" unicode="&#x104;" horiz-adv-x="562" 
d="M-5 0q-6 0 -6.5 4.5t4.5 17.5q16 47 44 112t62.5 138.5t72 147t73.5 136t66 104.5q5 6 9.5 9.5t9.5 3.5h87q5 -1 8 -3.5t5 -9.5q12 -41 21.5 -104t16 -137t10 -148.5t3.5 -139t-3 -108.5q-1 -14 -3 -18.5t-9 -4.5h-71q-6 0 -7.5 3t-1.5 15q2 26 2 61v69q1 6 -1 7.5
t-9 1.5h-229q-6 0 -8.5 -1.5t-5.5 -8.5q-13 -33 -28 -68t-25 -61q-5 -12 -7.5 -15t-7.5 -3h-72zM184 229h190q5 0 7.5 3t2.5 12q-3 74 -7 150.5t-16 143.5q0 7 -7 7h-15q-5 0 -10 -7q-21 -35 -47.5 -85t-53 -105.5t-50.5 -107.5q-2 -4 -1.5 -7.5t7.5 -3.5zM331 -221
q-40 0 -63 22.5t-16 58.5q7 31 27.5 57.5t48.5 48t58 37.5q8 4 17 7t18 3h46q5 0 5 -3.5t-6 -7.5q-44 -25 -74.5 -47.5t-48 -44t-22.5 -43.5q-4 -19 5.5 -27.5t25.5 -8.5q17 1 39.5 10.5t37.5 21.5q6 4 10 3.5t2 -6.5l-7 -32q-1 -6 -5.5 -11.5t-11.5 -9.5q-19 -12 -39.5 -20
t-46.5 -8z" />
    <glyph glyph-name="aogonek" unicode="&#x105;" horiz-adv-x="482" 
d="M183 -6q-97 0 -135 57.5t-11 178.5q16 76 44.5 123.5t64 74t72.5 36.5t71 10q30 0 57 -10t38 -20l5 20q1 4 4 5.5t7 1.5h68q10 0 9 -9q-3 -21 -10 -56.5t-17 -80t-22 -93.5t-25 -97.5t-26 -90.5q-4 -8 -9 -14t-22 -11q-27 -10 -72.5 -17.5t-90.5 -7.5zM204 64
q15 0 32 2.5t31 6t19 4.5q6 2 11 6t8 13q6 24 13 53t14.5 59.5t14 59.5t11.5 53t8 38q2 6 -0.5 10.5t-8.5 7.5q-15 7 -35 14t-45 7q-17 0 -38 -6t-42.5 -23t-39.5 -50.5t-30 -89.5q-20 -93 1 -129t76 -36zM224 -196q-40 0 -63 22.5t-16 58.5q7 31 27.5 57.5t48.5 48t58 37.5
q8 4 17 7t18 3h46q5 0 5 -3.5t-6 -7.5q-44 -25 -74.5 -47.5t-48 -44t-22.5 -43.5q-4 -19 5.5 -27.5t25.5 -8.5q17 1 39.5 10.5t37.5 21.5q6 4 10 3.5t2 -6.5l-7 -32q-1 -6 -5.5 -11.5t-11.5 -9.5q-19 -12 -39.5 -20t-46.5 -8z" />
    <glyph glyph-name="Cacute" unicode="&#x106;" horiz-adv-x="456" 
d="M377 25q-4 -16 -24 -22q-15 -5 -35.5 -7.5t-39 -3.5t-28.5 -1q-114 0 -165.5 87t-15.5 257q37 172 122.5 258.5t204.5 86.5q10 0 28 -1.5t37.5 -4t32.5 -6.5q9 -3 13.5 -7t2.5 -11l-13 -60q-4 -20 -20 -6q-14 10 -37 16.5t-51 6.5q-49 0 -86.5 -20.5t-64 -57t-44 -83
t-28.5 -97.5q-8 -35 -12.5 -74t-2.5 -76.5t14.5 -68.5t38.5 -49t70 -18q29 0 55 6.5t39 14.5q15 8 19 6.5t1 -12.5zM400 718h-45q-6 0 -6 3.5t4 7.5l62 71q4 5 7 7t10 2h69q3 0 5 -3.5t-1 -5.5l-88 -74q-5 -3 -8.5 -5.5t-8.5 -2.5z" />
    <glyph glyph-name="cacute" unicode="&#x107;" horiz-adv-x="403" 
d="M191 -5q-62 0 -98 18.5t-51.5 52t-15 77.5t11.5 94q10 47 28.5 90.5t49 78.5t74 55t104.5 20q42 0 71 -9t48 -27q5 -6 6 -9t-1 -9l-11 -53q-1 -7 -6 -7t-8 3q-18 21 -46 29t-59 8q-35 0 -62.5 -15t-47 -40t-32.5 -55t-20 -61q-10 -52 -6 -90.5t26 -59.5t65 -21
q29 0 54.5 6t52.5 18q14 6 16 -5l10 -40q1 -6 -1 -9t-8 -6q-28 -18 -66.5 -26t-77.5 -8zM267 528q-6 0 -6 2.5t4 8.5l67 90q4 6 16 6h61q4 0 5.5 -2.5t-3.5 -7.5l-85 -92q-4 -3 -6.5 -4t-8.5 -1h-44z" />
    <glyph glyph-name="Cdotaccent" unicode="&#x10a;" horiz-adv-x="456" 
d="M377 25q-4 -16 -24 -22q-15 -5 -35.5 -7.5t-39 -3.5t-28.5 -1q-114 0 -165.5 87t-15.5 257q37 172 122.5 258.5t204.5 86.5q10 0 28 -1.5t37.5 -4t32.5 -6.5q9 -3 13.5 -7t2.5 -11l-13 -60q-4 -20 -20 -6q-14 10 -37 16.5t-51 6.5q-49 0 -86.5 -20.5t-64 -57t-44 -83
t-28.5 -97.5q-8 -35 -12.5 -74t-2.5 -76.5t14.5 -68.5t38.5 -49t70 -18q29 0 55 6.5t39 14.5q15 8 19 6.5t1 -12.5zM461 775q-4 -20 -14 -30t-35 -10t-31.5 10t-2.5 30q4 18 15 28.5t36 10.5q26 0 31 -10.5t1 -28.5z" />
    <glyph glyph-name="cdotaccent" unicode="&#x10b;" horiz-adv-x="403" 
d="M191 -5q-62 0 -98 18.5t-51.5 52t-15 77.5t11.5 94q10 47 28.5 90.5t49 78.5t74 55t104.5 20q42 0 71 -9t48 -27q5 -6 6 -9t-1 -9l-11 -53q-1 -7 -6 -7t-8 3q-18 21 -46 29t-59 8q-35 0 -62.5 -15t-47 -40t-32.5 -55t-20 -61q-10 -52 -6 -90.5t26 -59.5t65 -21
q29 0 54.5 6t52.5 18q14 6 16 -5l10 -40q1 -6 -1 -9t-8 -6q-28 -18 -66.5 -26t-77.5 -8zM356 575q-4 -20 -14 -30t-35 -10t-31.5 10t-2.5 30q4 18 15 28.5t36 10.5q26 0 31 -10.5t1 -28.5z" />
    <glyph glyph-name="Ccaron" unicode="&#x10c;" horiz-adv-x="456" 
d="M377 25q-4 -16 -24 -22q-15 -5 -35.5 -7.5t-39 -3.5t-28.5 -1q-114 0 -165.5 87t-15.5 257q37 172 122.5 258.5t204.5 86.5q10 0 28 -1.5t37.5 -4t32.5 -6.5q9 -3 13.5 -7t2.5 -11l-13 -60q-4 -20 -20 -6q-14 10 -37 16.5t-51 6.5q-49 0 -86.5 -20.5t-64 -57t-44 -83
t-28.5 -97.5q-8 -35 -12.5 -74t-2.5 -76.5t14.5 -68.5t38.5 -49t70 -18q29 0 55 6.5t39 14.5q15 8 19 6.5t1 -12.5zM384 717q-4 0 -6 4l-57 81q-1 3 0.5 5.5t5.5 2.5h39q5 0 7 -4l40 -43q3 -5 9 0l59 43q4 4 9 4h39q4 0 4 -2.5t-2 -5.5l-91 -81q-3 -4 -8 -4h-48z" />
    <glyph glyph-name="ccaron" unicode="&#x10d;" horiz-adv-x="403" 
d="M191 -5q-62 0 -98 18.5t-51.5 52t-15 77.5t11.5 94q10 47 28.5 90.5t49 78.5t74 55t104.5 20q42 0 71 -9t48 -27q5 -6 6 -9t-1 -9l-11 -53q-1 -7 -6 -7t-8 3q-18 21 -46 29t-59 8q-35 0 -62.5 -15t-47 -40t-32.5 -55t-20 -61q-10 -52 -6 -90.5t26 -59.5t65 -21
q29 0 54.5 6t52.5 18q14 6 16 -5l10 -40q1 -6 -1 -9t-8 -6q-28 -18 -66.5 -26t-77.5 -8zM289 528q-5 0 -6 3l-42 93q-1 3 1 5.5t5 2.5h42q5 0 6 -4l26 -46q3 -5 9 0l59 46q5 4 9 4h42q4 0 3.5 -2.5t-2.5 -5.5l-98 -93q-4 -3 -9 -3h-45z" />
    <glyph glyph-name="Dcaron" unicode="&#x10e;" horiz-adv-x="581" 
d="M556 347q-19 -88 -49 -149t-66.5 -100t-74.5 -60.5t-73 -29.5t-62 -8h-196q-4 0 -6.5 2.5t-1.5 6.5l139 655q3 9 12 9h196q32 0 66 -6t62.5 -24.5t47.5 -54.5t22 -94.5t-16 -146.5zM466 347q15 72 14.5 119t-12 74.5t-30 40.5t-40 16.5t-40.5 3.5h-105q-6 0 -7.5 -1.5
t-2.5 -5.5l-109 -515q-1 -4 0 -5.5t5 -1.5h89q26 0 58.5 9t67 37.5t64 83t48.5 145.5zM346 717q-4 0 -6 4l-57 81q-1 3 0.5 5.5t5.5 2.5h39q5 0 7 -4l40 -43q3 -5 9 0l59 43q4 4 9 4h39q4 0 4 -2.5t-2 -5.5l-91 -81q-3 -4 -8 -4h-48z" />
    <glyph glyph-name="dcaron" unicode="&#x10f;" horiz-adv-x="487" 
d="M37 230q17 76 45 123.5t63 74t72 36.5t71 10q23 0 45.5 -3.5t36.5 -7.5q10 -2 14 -1.5t6 9.5q4 17 8.5 41t8.5 49.5t8 50t6.5 43.5t3.5 27q1 11 4 13.5t9 2.5h67q5 0 8 -1.5t2 -6.5q-6 -46 -15 -101.5t-20.5 -115t-23.5 -120t-25.5 -117t-27 -105.5t-26.5 -87
q-3 -8 -8.5 -14t-24.5 -12q-24 -10 -67 -18t-89 -8q-40 0 -73.5 10t-53.5 32q-26 28 -33 77t9 119zM127 229q-14 -67 -6.5 -101.5t31.5 -46.5q15 -13 39 -16.5t50.5 0t46.5 11.5q5 3 9 6t5 8q6 24 14 54.5t15.5 63t14.5 63t13 56t9 40.5q2 9 -0.5 12.5t-7.5 4.5
q-19 6 -42 10t-41 4q-17 0 -38 -6t-42.5 -23t-39.5 -50.5t-30 -89.5zM572 530q-3 0 -4.5 2.5t-0.5 10.5l26 143q2 9 5 11.5t10 2.5h42q9 0 10 -2.5t0 -8.5l-37 -148q-2 -7 -5 -9t-8 -2h-38z" />
    <glyph glyph-name="Dcroat" unicode="&#x110;" horiz-adv-x="573" 
d="M579 347q-19 -88 -49 -149t-66.5 -100t-74.5 -60.5t-73 -29.5t-62 -8h-196q-4 0 -6.5 2.5t-1.5 6.5l139 655q3 9 12 9h196q32 0 66 -6t62.5 -24.5t47.5 -54.5t22 -94.5t-16 -146.5zM489 347q15 72 14.5 119t-12 74.5t-30 40.5t-40 16.5t-40.5 3.5h-105q-6 0 -7.5 -1.5
t-2.5 -5.5l-109 -515q-1 -4 0 -5.5t5 -1.5h89q26 0 58.5 9t67 37.5t64 83t48.5 145.5zM38 291q-6 0 -6.5 2t0.5 7l10 48q1 6 3 7.5t8 1.5h272q5 0 6.5 -1.5t0.5 -7.5l-11 -50q-1 -4 -2.5 -5.5t-7.5 -1.5h-273z" />
    <glyph glyph-name="dcroat" unicode="&#x111;" horiz-adv-x="458" 
d="M37 230q17 76 45 123.5t63 74t72 36.5t71 10q23 0 45.5 -3.5t36.5 -7.5q10 -2 14 -1.5t6 9.5q4 17 8.5 41t8.5 49.5t8 50t6.5 43.5t3.5 27q1 11 4 13.5t9 2.5h67q5 0 8 -1.5t2 -6.5q-6 -46 -15 -101.5t-20.5 -115t-23.5 -120t-25.5 -117t-27 -105.5t-26.5 -87
q-3 -8 -8.5 -14t-24.5 -12q-24 -10 -67 -18t-89 -8q-40 0 -73.5 10t-53.5 32q-26 28 -33 77t9 119zM127 229q-14 -67 -6.5 -101.5t31.5 -46.5q15 -13 39 -16.5t50.5 0t46.5 11.5q5 3 9 6t5 8q6 24 14 54.5t15.5 63t14.5 63t13 56t9 40.5q2 9 -0.5 12.5t-7.5 4.5
q-19 6 -42 10t-41 4q-17 0 -38 -6t-42.5 -23t-39.5 -50.5t-30 -89.5zM250 567q-6 0 -6.5 2t0.5 7l10 48q1 6 3 7.5t8 1.5h272q5 0 6.5 -1.5t0.5 -7.5l-11 -50q-1 -4 -2.5 -5.5t-7.5 -1.5h-273z" />
    <glyph glyph-name="Emacron" unicode="&#x112;" horiz-adv-x="449" 
d="M35 0q-4 0 -6.5 2.5t-1.5 6.5l139 655q2 9 12 9h321q8 0 9 -1.5t-1 -8.5l-10 -51q-2 -8 -4.5 -9.5t-8.5 -1.5h-232q-6 0 -7 -1.5t-2 -6.5l-45 -210q-1 -5 0.5 -6.5t5.5 -1.5h186q9 0 10 -2t-1 -11l-10 -46q-1 -8 -3.5 -10.5t-10.5 -2.5h-187q-4 0 -6 -1t-3 -6l-45 -215
q-1 -5 -0.5 -7t6.5 -2h230q9 0 10 -2t0 -11l-10 -46q-3 -9 -5.5 -11t-10.5 -2h-319zM466 743q-1 -2 -2 -3t-7 -1h-204q-5 0 -6 1.5t0 4.5l9 44q1 5 2.5 6t6.5 1h205q5 0 6 -1t0 -5z" />
    <glyph glyph-name="emacron" unicode="&#x113;" horiz-adv-x="466" 
d="M38 237q10 47 28.5 90.5t49 78.5t74 55t104.5 20q63 0 96.5 -18.5t46 -49t11.5 -67t-9 -72.5q-8 -39 -19 -49.5t-27 -10.5h-258q-4 0 -7.5 -2t-5.5 -11q-7 -40 0.5 -72t32 -50t68.5 -18q35 0 73.5 9t62.5 22q9 5 15.5 6.5t9.5 -10.5l9 -30q3 -8 0 -11t-12 -8
q-38 -24 -89 -34t-101 -10q-63 0 -98.5 18.5t-51 52t-15 77.5t11.5 94zM352 288q5 25 5 47t-7.5 39.5t-25.5 27t-47 9.5q-31 0 -54 -11.5t-39.5 -30.5t-27.5 -40.5t-17 -41.5q-3 -11 -2.5 -15t7.5 -4h94.5h94.5q9 0 12.5 3.5t6.5 16.5zM418 543q-1 -2 -2 -3t-7 -1h-204
q-5 0 -6 1.5t0 4.5l9 44q1 5 2.5 6t6.5 1h205q5 0 6 -1t0 -5z" />
    <glyph glyph-name="Edotaccent" unicode="&#x116;" horiz-adv-x="449" 
d="M35 0q-4 0 -6.5 2.5t-1.5 6.5l139 655q2 9 12 9h321q8 0 9 -1.5t-1 -8.5l-10 -51q-2 -8 -4.5 -9.5t-8.5 -1.5h-232q-6 0 -7 -1.5t-2 -6.5l-45 -210q-1 -5 0.5 -6.5t5.5 -1.5h186q9 0 10 -2t-1 -11l-10 -46q-1 -8 -3.5 -10.5t-10.5 -2.5h-187q-4 0 -6 -1t-3 -6l-45 -215
q-1 -5 -0.5 -7t6.5 -2h230q9 0 10 -2t0 -11l-10 -46q-3 -9 -5.5 -11t-10.5 -2h-319zM404 775q-4 -20 -14 -30t-35 -10t-31.5 10t-2.5 30q4 18 15 28.5t36 10.5q26 0 31 -10.5t1 -28.5z" />
    <glyph glyph-name="edotaccent" unicode="&#x117;" horiz-adv-x="466" 
d="M38 237q10 47 28.5 90.5t49 78.5t74 55t104.5 20q63 0 96.5 -18.5t46 -49t11.5 -67t-9 -72.5q-8 -39 -19 -49.5t-27 -10.5h-258q-4 0 -7.5 -2t-5.5 -11q-7 -40 0.5 -72t32 -50t68.5 -18q35 0 73.5 9t62.5 22q9 5 15.5 6.5t9.5 -10.5l9 -30q3 -8 0 -11t-12 -8
q-38 -24 -89 -34t-101 -10q-63 0 -98.5 18.5t-51 52t-15 77.5t11.5 94zM352 288q5 25 5 47t-7.5 39.5t-25.5 27t-47 9.5q-31 0 -54 -11.5t-39.5 -30.5t-27.5 -40.5t-17 -41.5q-3 -11 -2.5 -15t7.5 -4h94.5h94.5q9 0 12.5 3.5t6.5 16.5zM356 575q-4 -20 -14 -30t-35 -10
t-31.5 10t-2.5 30q4 18 15 28.5t36 10.5q26 0 31 -10.5t1 -28.5z" />
    <glyph glyph-name="Eogonek" unicode="&#x118;" horiz-adv-x="449" 
d="M35 0q-4 0 -6.5 2.5t-1.5 6.5l139 655q2 9 12 9h321q8 0 9 -1.5t-1 -8.5l-10 -51q-2 -8 -4.5 -9.5t-8.5 -1.5h-232q-6 0 -7 -1.5t-2 -6.5l-45 -210q-1 -5 0.5 -6.5t5.5 -1.5h186q9 0 10 -2t-1 -11l-10 -46q-1 -8 -3.5 -10.5t-10.5 -2.5h-187q-4 0 -6 -1t-3 -6l-45 -215
q-1 -5 -0.5 -7t6.5 -2h230q9 0 10 -2t0 -11l-10 -46q-3 -9 -5.5 -11t-10.5 -2h-319zM92 -221q-40 0 -63 22.5t-16 58.5q7 31 27.5 57.5t48.5 48t58 37.5q8 4 17 7t18 3h46q5 0 5 -3.5t-6 -7.5q-44 -25 -74.5 -47.5t-48 -44t-22.5 -43.5q-4 -19 5.5 -27.5t25.5 -8.5
q17 1 39.5 10.5t37.5 21.5q6 4 10 3.5t2 -6.5l-7 -32q-1 -6 -5.5 -11.5t-11.5 -9.5q-19 -12 -39.5 -20t-46.5 -8z" />
    <glyph glyph-name="eogonek" unicode="&#x119;" horiz-adv-x="466" 
d="M38 237q10 47 28.5 90.5t49 78.5t74 55t104.5 20q63 0 96.5 -18.5t46 -49t11.5 -67t-9 -72.5q-8 -39 -19 -49.5t-27 -10.5h-258q-4 0 -7.5 -2t-5.5 -11q-7 -40 0.5 -72t32 -50t68.5 -18q35 0 73.5 9t62.5 22q9 5 15.5 6.5t9.5 -10.5l9 -30q3 -8 0 -11t-12 -8
q-38 -24 -89 -34t-101 -10q-63 0 -98.5 18.5t-51 52t-15 77.5t11.5 94zM352 288q5 25 5 47t-7.5 39.5t-25.5 27t-47 9.5q-31 0 -54 -11.5t-39.5 -30.5t-27.5 -40.5t-17 -41.5q-3 -11 -2.5 -15t7.5 -4h94.5h94.5q9 0 12.5 3.5t6.5 16.5zM95 -221q-40 0 -63 22.5t-16 58.5
q7 31 27.5 57.5t48.5 48t58 37.5q8 4 17 7t18 3h46q5 0 5 -3.5t-6 -7.5q-44 -25 -74.5 -47.5t-48 -44t-22.5 -43.5q-4 -19 5.5 -27.5t25.5 -8.5q17 1 39.5 10.5t37.5 21.5q6 4 10 3.5t2 -6.5l-7 -32q-1 -6 -5.5 -11.5t-11.5 -9.5q-19 -12 -39.5 -20t-46.5 -8z" />
    <glyph glyph-name="Ecaron" unicode="&#x11a;" horiz-adv-x="449" 
d="M35 0q-4 0 -6.5 2.5t-1.5 6.5l139 655q2 9 12 9h321q8 0 9 -1.5t-1 -8.5l-10 -51q-2 -8 -4.5 -9.5t-8.5 -1.5h-232q-6 0 -7 -1.5t-2 -6.5l-45 -210q-1 -5 0.5 -6.5t5.5 -1.5h186q9 0 10 -2t-1 -11l-10 -46q-1 -8 -3.5 -10.5t-10.5 -2.5h-187q-4 0 -6 -1t-3 -6l-45 -215
q-1 -5 -0.5 -7t6.5 -2h230q9 0 10 -2t0 -11l-10 -46q-3 -9 -5.5 -11t-10.5 -2h-319zM326 717q-4 0 -6 4l-57 81q-1 3 0.5 5.5t5.5 2.5h39q5 0 7 -4l40 -43q3 -5 9 0l59 43q4 4 9 4h39q4 0 4 -2.5t-2 -5.5l-91 -81q-3 -4 -8 -4h-48z" />
    <glyph glyph-name="ecaron" unicode="&#x11b;" horiz-adv-x="466" 
d="M38 237q10 47 28.5 90.5t49 78.5t74 55t104.5 20q63 0 96.5 -18.5t46 -49t11.5 -67t-9 -72.5q-8 -39 -19 -49.5t-27 -10.5h-258q-4 0 -7.5 -2t-5.5 -11q-7 -40 0.5 -72t32 -50t68.5 -18q35 0 73.5 9t62.5 22q9 5 15.5 6.5t9.5 -10.5l9 -30q3 -8 0 -11t-12 -8
q-38 -24 -89 -34t-101 -10q-63 0 -98.5 18.5t-51 52t-15 77.5t11.5 94zM352 288q5 25 5 47t-7.5 39.5t-25.5 27t-47 9.5q-31 0 -54 -11.5t-39.5 -30.5t-27.5 -40.5t-17 -41.5q-3 -11 -2.5 -15t7.5 -4h94.5h94.5q9 0 12.5 3.5t6.5 16.5zM289 528q-5 0 -6 3l-42 93q-1 3 1 5.5
t5 2.5h42q5 0 6 -4l26 -46q3 -5 9 0l59 46q5 4 9 4h42q4 0 3.5 -2.5t-2.5 -5.5l-98 -93q-4 -3 -9 -3h-45z" />
    <glyph glyph-name="Gbreve" unicode="&#x11e;" horiz-adv-x="564" 
d="M460 26q-3 -13 -20 -20t-42 -9.5t-53 -2.5q-175 0 -248.5 84t-39.5 247q24 110 81.5 189t138.5 121.5t172 42.5q32 0 67.5 -2.5t55.5 -9.5q10 -4 13.5 -6.5t1.5 -11.5l-11 -51q-2 -13 -8 -16t-13 1q-22 14 -48 19t-57 5q-33 0 -76 -12.5t-87 -43t-79.5 -83.5t-52.5 -135
q-14 -68 -8.5 -114.5t25 -77t47.5 -46.5t58.5 -22.5t58.5 -6.5q35 0 43 12l47 219q1 6 -0.5 7.5t-6.5 1.5h-136q-6 0 -8 2t-1 8l11 51q1 6 4 8.5t9 2.5h221q11 0 13 -2.5t-1 -13.5zM455 713q-45 0 -64.5 21t-12.5 61q1 7 3 9t8 2h33q6 0 7.5 -1t0.5 -7q-3 -20 6.5 -29.5
t28.5 -9.5t33 9.5t19 30.5q1 5 3.5 6t5.5 1h35q4 0 5.5 -1.5t-0.5 -9.5q-8 -39 -36 -60.5t-75 -21.5z" />
    <glyph glyph-name="gbreve" unicode="&#x11f;" horiz-adv-x="489" 
d="M39 242q15 67 44.5 120.5t81.5 84.5t134 31q39 0 76 -6t63 -18q17 -6 20 -16.5t1 -32.5q-8 -76 -27 -173.5t-54 -199.5q-29 -86 -88.5 -126t-150.5 -40q-36 0 -75.5 10t-69.5 36q-4 4 -5 9t3 10q3 4 8 10.5t10.5 13.5t8.5 10q7 8 10.5 8.5t9.5 -3.5q12 -9 30.5 -17.5
t40 -14t40.5 -5.5q25 0 50.5 8t48 27.5t35.5 53.5q0 2 1 3.5t1 2.5q2 7 -1.5 9.5t-12.5 0.5q-17 -4 -39 -7.5t-44 -3.5q-59 0 -98.5 25t-53 73t1.5 117zM134 254q-10 -46 -7.5 -82t23 -56.5t63.5 -20.5q20 0 39.5 2.5t36.5 8.5q10 4 17.5 10.5t9.5 14.5q8 25 15.5 59.5
t14.5 70t12 66t7 49.5q1 6 0 15t-9 13q-10 6 -29.5 9t-42.5 3q-65 0 -100 -45t-50 -117zM321 524q-50 0 -72 21.5t-15 62.5q2 9 4 11.5t9 2.5h38q6 0 7.5 -1.5t0.5 -7.5q-3 -20 7 -29t31 -9t35.5 9t19.5 29q1 6 3.5 7.5t6.5 1.5h40q6 0 6.5 -2.5t-1.5 -11.5
q-9 -39 -38.5 -61.5t-81.5 -22.5z" />
    <glyph glyph-name="Gdotaccent" unicode="&#x120;" horiz-adv-x="564" 
d="M460 26q-3 -13 -20 -20t-42 -9.5t-53 -2.5q-175 0 -248.5 84t-39.5 247q24 110 81.5 189t138.5 121.5t172 42.5q32 0 67.5 -2.5t55.5 -9.5q10 -4 13.5 -6.5t1.5 -11.5l-11 -51q-2 -13 -8 -16t-13 1q-22 14 -48 19t-57 5q-33 0 -76 -12.5t-87 -43t-79.5 -83.5t-52.5 -135
q-14 -68 -8.5 -114.5t25 -77t47.5 -46.5t58.5 -22.5t58.5 -6.5q35 0 43 12l47 219q1 6 -0.5 7.5t-6.5 1.5h-136q-6 0 -8 2t-1 8l11 51q1 6 4 8.5t9 2.5h221q11 0 13 -2.5t-1 -13.5zM509 775q-4 -20 -14 -30t-35 -10t-31.5 10t-2.5 30q4 18 15 28.5t36 10.5q26 0 31 -10.5
t1 -28.5z" />
    <glyph glyph-name="gdotaccent" unicode="&#x121;" horiz-adv-x="489" 
d="M39 242q15 67 44.5 120.5t81.5 84.5t134 31q39 0 76 -6t63 -18q17 -6 20 -16.5t1 -32.5q-8 -76 -27 -173.5t-54 -199.5q-29 -86 -88.5 -126t-150.5 -40q-36 0 -75.5 10t-69.5 36q-4 4 -5 9t3 10q3 4 8 10.5t10.5 13.5t8.5 10q7 8 10.5 8.5t9.5 -3.5q12 -9 30.5 -17.5
t40 -14t40.5 -5.5q25 0 50.5 8t48 27.5t35.5 53.5q0 2 1 3.5t1 2.5q2 7 -1.5 9.5t-12.5 0.5q-17 -4 -39 -7.5t-44 -3.5q-59 0 -98.5 25t-53 73t1.5 117zM134 254q-10 -46 -7.5 -82t23 -56.5t63.5 -20.5q20 0 39.5 2.5t36.5 8.5q10 4 17.5 10.5t9.5 14.5q8 25 15.5 59.5
t14.5 70t12 66t7 49.5q1 6 0 15t-9 13q-10 6 -29.5 9t-42.5 3q-65 0 -100 -45t-50 -117zM372 575q-4 -20 -14 -30t-35 -10t-31.5 10t-2.5 30q4 18 15 28.5t36 10.5q26 0 31 -10.5t1 -28.5z" />
    <glyph glyph-name="uni0122" unicode="&#x122;" horiz-adv-x="564" 
d="M460 26q-3 -13 -20 -20t-42 -9.5t-53 -2.5q-175 0 -248.5 84t-39.5 247q24 110 81.5 189t138.5 121.5t172 42.5q32 0 67.5 -2.5t55.5 -9.5q10 -4 13.5 -6.5t1.5 -11.5l-11 -51q-2 -13 -8 -16t-13 1q-22 14 -48 19t-57 5q-33 0 -76 -12.5t-87 -43t-79.5 -83.5t-52.5 -135
q-14 -68 -8.5 -114.5t25 -77t47.5 -46.5t58.5 -22.5t58.5 -6.5q35 0 43 12l47 219q1 6 -0.5 7.5t-6.5 1.5h-136q-6 0 -8 2t-1 8l11 51q1 6 4 8.5t9 2.5h221q11 0 13 -2.5t-1 -13.5zM347 -73q-3 -16 -14.5 -37t-26 -41t-26.5 -34q-5 -5 -9 -5h-16.5h-17.5q-3 1 -2.5 2.5
t4.5 8.5q9 12 22 34t21 37q-16 1 -20.5 12t-2.5 22q3 17 15.5 27.5t36.5 10.5q20 0 30.5 -7.5t5.5 -29.5z" />
    <glyph glyph-name="uni0123" unicode="&#x123;" horiz-adv-x="489" 
d="M39 242q15 67 44.5 120.5t81.5 84.5t134 31q39 0 76 -6t63 -18q17 -6 20 -16.5t1 -32.5q-8 -76 -27 -173.5t-54 -199.5q-29 -86 -88.5 -126t-150.5 -40q-36 0 -75.5 10t-69.5 36q-4 4 -5 9t3 10q3 4 8 10.5t10.5 13.5t8.5 10q7 8 10.5 8.5t9.5 -3.5q12 -9 30.5 -17.5
t40 -14t40.5 -5.5q25 0 50.5 8t48 27.5t35.5 53.5q0 2 1 3.5t1 2.5q2 7 -1.5 9.5t-12.5 0.5q-17 -4 -39 -7.5t-44 -3.5q-59 0 -98.5 25t-53 73t1.5 117zM134 254q-10 -46 -7.5 -82t23 -56.5t63.5 -20.5q20 0 39.5 2.5t36.5 8.5q10 4 17.5 10.5t9.5 14.5q8 25 15.5 59.5
t14.5 70t12 66t7 49.5q1 6 0 15t-9 13q-10 6 -29.5 9t-42.5 3q-65 0 -100 -45t-50 -117zM288 589q3 19 15 44t27 48.5t27 39.5q4 5 9 6q7 0 17 0.5t18 0.5q4 -1 3.5 -3.5t-5.5 -8.5q-5 -8 -13 -24.5t-16.5 -33.5t-13.5 -29q17 0 22.5 -11t2.5 -25q-3 -19 -15 -30t-38 -13
q-21 -1 -32.5 7t-7.5 32z" />
    <glyph glyph-name="Hbar" unicode="&#x126;" horiz-adv-x="666" 
d="M54 537q-8 0 -8.5 1.5t-0.5 4.5l14 34q1 3 3 4.5t10 1.5h578q6 0 8 -1t0 -5l-13 -35q-1 -3 -3.5 -4t-9.5 -1h-578zM31 0q-4 0 -8 1.5t-3 7.5q3 34 11 87.5t19.5 116.5t25.5 129q14 64 28.5 125t29 112t27.5 84q2 5 6.5 7t7.5 2h36.5h36.5q7 0 4 -9q-15 -49 -29.5 -102
t-26 -99t-18.5 -75q-2 -8 -1 -10t8 -2h132.5h132.5q4 0 8 2t5 10q5 27 12.5 72t16 98.5t14.5 106.5q2 4 4 6t5 2h35.5h36.5q3 0 7 -2t3 -7q-1 -33 -8.5 -84.5t-18.5 -113t-25 -124.5q-14 -66 -29.5 -129t-29.5 -116t-26 -87q-2 -6 -6 -7.5t-9 -1.5h-37h-36q-5 0 -3 9
q13 36 24 76t21 79t17.5 73t12.5 56q1 7 -1 8.5t-7 1.5h-133.5h-132.5q-6 0 -9 -1.5t-4 -8.5q-5 -24 -12 -58t-13.5 -72.5t-12.5 -78t-8 -75.5q-1 -9 -7 -9h-36h-37z" />
    <glyph glyph-name="hbar" unicode="&#x127;" horiz-adv-x="473" 
d="M24 9q37 172 73.5 345t73.5 345q1 9 11 9h35.5h34.5q9 0 8 -9q-12 -56 -24.5 -113.5t-24.5 -114.5q-1 -7 1.5 -9t9.5 0q19 5 45.5 10t51.5 5q40 0 69 -11.5t45.5 -39t19 -73.5t-10.5 -114q-8 -40 -18.5 -82t-22.5 -80.5t-22 -68.5q-2 -5 -5.5 -6.5t-9.5 -1.5h-31h-31
q-11 0 -12 2.5t4 14.5q14 44 27 94.5t24 98.5q13 55 14 92.5t-7.5 61t-25.5 34.5t-42 11q-15 0 -35 -3.5t-37 -8.5q-7 -1 -13 -6t-8 -17l-78 -365q-2 -9 -11 -9h-70q-10 0 -8 9zM92 560q-6 0 -6.5 2t0.5 7l10 48q1 6 3 7.5t8 1.5h272q5 0 6.5 -1.5t0.5 -7.5l-11 -50
q-1 -4 -2.5 -5.5t-7.5 -1.5h-273z" />
    <glyph glyph-name="Itilde" unicode="&#x128;" horiz-adv-x="242" 
d="M118 9q-2 -9 -11 -9h-72q-10 0 -8 9l139 655q2 9 12 9h72q4 0 6 -2.5t1 -6.5zM129 719q-6 0 -4 6q7 33 28 54t49 21q15 0 28 -9.5t23.5 -19t18.5 -9.5q6 0 11.5 6.5t8.5 17.5q1 7 6 7h37q5 0 4 -7q-6 -29 -28 -51t-49 -22q-18 0 -30.5 9.5t-21.5 18.5t-18 9q-7 0 -13 -7
t-8 -18q0 -6 -6 -6h-36z" />
    <glyph glyph-name="itilde" unicode="&#x129;" horiz-adv-x="205" 
d="M101 9q-2 -9 -11 -9h-71q-9 0 -7 9l96 454q3 9 11 9h71q3 0 5.5 -2.5t1.5 -6.5zM68 532q-6 0 -4 6q7 32 27.5 51t50.5 19q15 0 28.5 -8.5t24.5 -17t19 -8.5q7 0 13 6t7 15q1 4 3 5.5t3 1.5h39q6 0 4 -6q-6 -29 -28 -49.5t-50 -20.5q-19 0 -32 9t-22.5 17t-18.5 8
q-8 0 -13.5 -6t-7.5 -16q-2 -6 -6 -6h-37z" />
    <glyph glyph-name="Imacron" unicode="&#x12a;" horiz-adv-x="242" 
d="M118 9q-2 -9 -11 -9h-72q-10 0 -8 9l139 655q2 9 12 9h72q4 0 6 -2.5t1 -6.5zM339 743q-1 -2 -2 -3t-7 -1h-204q-5 0 -6 1.5t0 4.5l9 44q1 5 2.5 6t6.5 1h205q5 0 6 -1t0 -5z" />
    <glyph glyph-name="imacron" unicode="&#x12b;" horiz-adv-x="205" 
d="M101 9q-2 -9 -11 -9h-71q-9 0 -7 9l96 454q3 9 11 9h71q3 0 5.5 -2.5t1.5 -6.5zM278 543q-1 -2 -2 -3t-7 -1h-204q-5 0 -6 1.5t0 4.5l9 44q1 5 2.5 6t6.5 1h205q5 0 6 -1t0 -5z" />
    <glyph glyph-name="Iogonek" unicode="&#x12e;" horiz-adv-x="242" 
d="M118 9q-2 -9 -11 -9h-72q-10 0 -8 9l139 655q2 9 12 9h72q4 0 6 -2.5t1 -6.5zM-2 -221q-40 0 -63 22.5t-16 58.5q7 31 27.5 57.5t48.5 48t58 37.5q8 4 17 7t18 3h46q5 0 5 -3.5t-6 -7.5q-44 -25 -74.5 -47.5t-48 -44t-22.5 -43.5q-4 -19 5.5 -27.5t25.5 -8.5
q17 1 39.5 10.5t37.5 21.5q6 4 10 3.5t2 -6.5l-7 -32q-1 -6 -5.5 -11.5t-11.5 -9.5q-19 -12 -39.5 -20t-46.5 -8z" />
    <glyph glyph-name="iogonek" unicode="&#x12f;" horiz-adv-x="205" 
d="M101 9q-2 -9 -11 -9h-71q-9 0 -7 9l96 454q3 9 11 9h71q3 0 5.5 -2.5t1.5 -6.5zM216 575q-4 -20 -14 -30t-35 -10t-31.5 10t-2.5 30q4 18 15 28.5t36 10.5q26 0 31 -10.5t1 -28.5zM-47 -221q-40 0 -63 22.5t-16 58.5q7 31 27.5 57.5t48.5 48t58 37.5q8 4 17 7t18 3h46
q5 0 5 -3.5t-6 -7.5q-44 -25 -74.5 -47.5t-48 -44t-22.5 -43.5q-4 -19 5.5 -27.5t25.5 -8.5q17 1 39.5 10.5t37.5 21.5q6 4 10 3.5t2 -6.5l-7 -32q-1 -6 -5.5 -11.5t-11.5 -9.5q-19 -12 -39.5 -20t-46.5 -8z" />
    <glyph glyph-name="Idotaccent" unicode="&#x130;" horiz-adv-x="242" 
d="M118 9q-2 -9 -11 -9h-72q-10 0 -8 9l139 655q2 9 12 9h72q4 0 6 -2.5t1 -6.5zM277 775q-4 -20 -14 -30t-35 -10t-31.5 10t-2.5 30q4 18 15 28.5t36 10.5q26 0 31 -10.5t1 -28.5z" />
    <glyph glyph-name="dotlessi" unicode="&#x131;" horiz-adv-x="205" 
d="M101 9q-2 -9 -11 -9h-71q-9 0 -7 9l96 454q3 9 11 9h71q3 0 5.5 -2.5t1.5 -6.5z" />
    <glyph glyph-name="uni0136" unicode="&#x136;" horiz-adv-x="538" 
d="M29 0q-4 0 -3 4q35 167 70.5 333t70.5 332q2 4 5 4h15h27h27h15q5 0 3 -4q-8 -38 -15 -71.5t-14 -65t-14 -65.5t-15 -72q-1 -3 -0.5 -5.5t3.5 -2.5h57q5 0 9 3t7 7q28 38 52 71t46.5 63t46.5 62.5t52 70.5q5 5 7.5 7t6.5 2h15h26h25.5h14.5q7 0 5.5 -4.5t-8.5 -16.5
q-39 -50 -75 -97t-70.5 -95t-70.5 -101q-6 -9 -8 -15t-3 -12q-4 -25 -1.5 -53.5t10.5 -57.5t20.5 -54.5t27.5 -42.5q17 -19 39.5 -30.5t53.5 -11.5q2 0 5 -1t2 -3l-15 -73q-1 -5 -4 -5q-53 0 -89 11.5t-64 38.5q-17 17 -31 42.5t-24 55.5t-15.5 61t-6.5 60q0 8 -3.5 10.5
t-5.5 2.5h-28h-28l-2.5 -1t-4.5 -6q-8 -39 -15 -71.5t-13.5 -64t-13.5 -64t-15 -71.5q-1 -4 -5 -4h-15h-27h-27h-15zM244 -73q-3 -16 -14.5 -37t-26 -41t-26.5 -34q-5 -5 -9 -5h-16.5h-17.5q-3 1 -2.5 2.5t4.5 8.5q9 12 22 34t21 37q-16 1 -20.5 12t-2.5 22q3 17 15.5 27.5
t36.5 10.5q20 0 30.5 -7.5t5.5 -29.5z" />
    <glyph glyph-name="uni0137" unicode="&#x137;" horiz-adv-x="439" 
d="M11 4l146 685q1 4 4 4h81q5 0 4 -4l-82 -387q-1 -2 -1 -5.5t2 -3.5q11 0 22.5 1t21.5 2q9 3 14 6t14 12q23 23 42.5 47t37 50t32.5 51q5 8 9 9t12 1h71q7 0 6.5 -3.5t-2.5 -7.5q-1 -3 -13.5 -21.5t-33 -46.5t-45.5 -58.5t-52 -57.5q-5 -4 -8.5 -7.5l-7.5 -7.5
q1 -1 3.5 -3t3.5 -4q14 -18 26 -47.5t22 -63.5t17.5 -64t11.5 -50t5 -22q2 -8 -5 -8h-14.5h-25.5h-26h-15q-4 0 -5 0.5t-3 6.5l-6 23t-15 56.5t-19.5 64.5t-20.5 49q-4 8 -10.5 14.5t-19.5 10t-38 -0.5q-4 -1 -7 -11l-44 -209q-1 -4 -5 -4h-81q-4 0 -3 4zM217 -73
q-3 -16 -14.5 -37t-26 -41t-26.5 -34q-5 -5 -9 -5h-16.5h-17.5q-3 1 -2.5 2.5t4.5 8.5q9 12 22 34t21 37q-16 1 -20.5 12t-2.5 22q3 17 15.5 27.5t36.5 10.5q20 0 30.5 -7.5t5.5 -29.5z" />
    <glyph glyph-name="Lacute" unicode="&#x139;" horiz-adv-x="429" 
d="M35 0q-10 0 -8 9l139 655q2 9 12 9h70q7 0 8.5 -2.5t0.5 -8.5l-123 -581q-1 -5 -0.5 -7t6.5 -2h229q9 0 10.5 -2t-0.5 -11l-10 -46q-2 -9 -4.5 -11t-11.5 -2h-318zM216 718h-45q-6 0 -6 3.5t4 7.5l62 71q4 5 7 7t10 2h69q3 0 5 -3.5t-1 -5.5l-88 -74q-5 -3 -8.5 -5.5
t-8.5 -2.5z" />
    <glyph glyph-name="lacute" unicode="&#x13a;" horiz-adv-x="207" 
d="M12 9l147 690q2 9 11 9h69q11 0 9 -9l-147 -690q-2 -9 -12 -9h-69q-10 0 -8 9zM203 745h-45q-6 0 -6 3.5t4 7.5l62 71q4 5 7 7t10 2h69q3 0 5 -3.5t-1 -5.5l-88 -74q-5 -3 -8.5 -5.5t-8.5 -2.5z" />
    <glyph glyph-name="uni013B" unicode="&#x13b;" horiz-adv-x="429" 
d="M35 0q-10 0 -8 9l139 655q2 9 12 9h70q7 0 8.5 -2.5t0.5 -8.5l-123 -581q-1 -5 -0.5 -7t6.5 -2h229q9 0 10.5 -2t-0.5 -11l-10 -46q-2 -9 -4.5 -11t-11.5 -2h-318zM221 -73q-3 -16 -14.5 -37t-26 -41t-26.5 -34q-5 -5 -9 -5h-16.5h-17.5q-3 1 -2.5 2.5t4.5 8.5
q9 12 22 34t21 37q-16 1 -20.5 12t-2.5 22q3 17 15.5 27.5t36.5 10.5q20 0 30.5 -7.5t5.5 -29.5z" />
    <glyph glyph-name="uni013C" unicode="&#x13c;" horiz-adv-x="207" 
d="M12 9l147 690q2 9 11 9h69q11 0 9 -9l-147 -690q-2 -9 -12 -9h-69q-10 0 -8 9zM78 -73q-3 -16 -14.5 -37t-26 -41t-26.5 -34q-5 -5 -9 -5h-16.5h-17.5q-3 1 -2.5 2.5t4.5 8.5q9 12 22 34t21 37q-16 1 -20.5 12t-2.5 22q3 17 15.5 27.5t36.5 10.5q20 0 30.5 -7.5
t5.5 -29.5z" />
    <glyph glyph-name="Lcaron" unicode="&#x13d;" horiz-adv-x="429" 
d="M35 0q-10 0 -8 9l139 655q2 9 12 9h70q7 0 8.5 -2.5t0.5 -8.5l-123 -581q-1 -5 -0.5 -7t6.5 -2h229q9 0 10.5 -2t-0.5 -11l-10 -46q-2 -9 -4.5 -11t-11.5 -2h-318zM357 504q-3 0 -4.5 2.5t-0.5 10.5l26 143q2 9 5 11.5t10 2.5h42q9 0 10 -2.5t0 -8.5l-37 -148
q-2 -7 -5 -9t-8 -2h-38z" />
    <glyph glyph-name="lcaron" unicode="&#x13e;" horiz-adv-x="236" 
d="M12 9l147 690q2 9 11 9h69q11 0 9 -9l-147 -690q-2 -9 -12 -9h-69q-10 0 -8 9zM286 539q-3 0 -4.5 2.5t-0.5 10.5l26 143q2 9 5 11.5t10 2.5h42q9 0 10 -2.5t0 -8.5l-37 -148q-2 -7 -5 -9t-8 -2h-38z" />
    <glyph glyph-name="Lslash" unicode="&#x141;" horiz-adv-x="457" 
d="M48 0q-10 0 -8 9l139 655q3 9 12 9h70q7 0 8.5 -2.5t0.5 -8.5l-123 -581q-1 -5 -0.5 -7t6.5 -2h229q9 0 10.5 -2t-0.5 -11l-10 -46q-2 -9 -4.5 -11t-11.5 -2h-318zM-2 115q-3 -1 -4 -0.5l-1 0.5l-14 32q-1 1 3 4l289 157q2 1 4 -1l13 -30q2 -3 -2 -4z" />
    <glyph glyph-name="lslash" unicode="&#x142;" horiz-adv-x="296" 
d="M58 9l147 690q1 9 11 9h69q10 0 9 -9l-147 -690q-2 -9 -12 -9h-69q-10 0 -8 9zM12 108q-3 -1 -4 -0.5l-1 0.5l-12 32q-1 2 3 4l271 148q2 1 4 -1l12 -32q2 -2 -2 -4z" />
    <glyph glyph-name="Nacute" unicode="&#x143;" horiz-adv-x="641" 
d="M454 194q2 -4 6.5 -4t5.5 6q9 34 20 79t22 95.5t20.5 102.5t16.5 100.5t10 89.5q2 10 8 10h73q4 0 7.5 -2.5t2.5 -6.5q-1 -36 -9 -88.5t-20 -115t-26 -128t-29 -127t-29 -112.5t-26 -84q-2 -6 -6.5 -7.5t-9.5 -1.5h-48q-6 0 -9 11l-205 472q-1 4 -4.5 4t-4.5 -5
q-12 -48 -24 -100t-23.5 -104.5t-21 -102t-15.5 -92t-9 -73.5q-1 -10 -8 -10h-71q-5 0 -9 1.5t-3 7.5q4 34 11.5 85.5t19 113.5t25 127t28.5 127.5t29.5 114.5t28.5 87q2 4 6.5 6.5t7.5 2.5h48q6 0 8 -7zM405 718h-45q-6 0 -6 3.5t4 7.5l62 71q4 5 7 7t10 2h69q3 0 5 -3.5
t-1 -5.5l-88 -74q-5 -3 -8.5 -5.5t-8.5 -2.5z" />
    <glyph glyph-name="nacute" unicode="&#x144;" horiz-adv-x="481" 
d="M21 0q-3 0 -6.5 1.5t-2.5 7.5q23 105 45 210l44 210q2 8 8 12.5t24 9.5q13 4 40 9.5t57.5 10.5t55.5 5q59 0 93 -17.5t49 -48.5t15.5 -71.5t-9.5 -86.5q-9 -43 -20 -87.5t-22 -83.5t-19 -65q-4 -12 -7.5 -14t-13.5 -2h-64q-9 0 -6 9q1 5 6.5 26t13.5 50.5t16 61.5l15 60
t11 46q12 53 7.5 86t-24.5 49t-58 16q-20 0 -37.5 -3t-32.5 -8q-7 -1 -13.5 -7t-8.5 -18q-18 -86 -37 -175.5t-39 -180.5q-1 -4 -2.5 -8t-6.5 -4h-71zM264 528q-6 0 -6 2.5t4 8.5l67 90q4 6 16 6h61q4 0 5.5 -2.5t-3.5 -7.5l-85 -92q-4 -3 -6.5 -4t-8.5 -1h-44z" />
    <glyph glyph-name="uni0145" unicode="&#x145;" horiz-adv-x="641" 
d="M454 194q2 -4 6.5 -4t5.5 6q9 34 20 79t22 95.5t20.5 102.5t16.5 100.5t10 89.5q2 10 8 10h73q4 0 7.5 -2.5t2.5 -6.5q-1 -36 -9 -88.5t-20 -115t-26 -128t-29 -127t-29 -112.5t-26 -84q-2 -6 -6.5 -7.5t-9.5 -1.5h-48q-6 0 -9 11l-205 472q-1 4 -4.5 4t-4.5 -5
q-12 -48 -24 -100t-23.5 -104.5t-21 -102t-15.5 -92t-9 -73.5q-1 -10 -8 -10h-71q-5 0 -9 1.5t-3 7.5q4 34 11.5 85.5t19 113.5t25 127t28.5 127.5t29.5 114.5t28.5 87q2 4 6.5 6.5t7.5 2.5h48q6 0 8 -7zM305 -73q-3 -16 -14.5 -37t-26 -41t-26.5 -34q-5 -5 -9 -5h-16.5
h-17.5q-3 1 -2.5 2.5t4.5 8.5q9 12 22 34t21 37q-16 1 -20.5 12t-2.5 22q3 17 15.5 27.5t36.5 10.5q20 0 30.5 -7.5t5.5 -29.5z" />
    <glyph glyph-name="uni0146" unicode="&#x146;" horiz-adv-x="481" 
d="M21 0q-3 0 -6.5 1.5t-2.5 7.5q23 105 45 210l44 210q2 8 8 12.5t24 9.5q13 4 40 9.5t57.5 10.5t55.5 5q59 0 93 -17.5t49 -48.5t15.5 -71.5t-9.5 -86.5q-9 -43 -20 -87.5t-22 -83.5t-19 -65q-4 -12 -7.5 -14t-13.5 -2h-64q-9 0 -6 9q1 5 6.5 26t13.5 50.5t16 61.5l15 60
t11 46q12 53 7.5 86t-24.5 49t-58 16q-20 0 -37.5 -3t-32.5 -8q-7 -1 -13.5 -7t-8.5 -18q-18 -86 -37 -175.5t-39 -180.5q-1 -4 -2.5 -8t-6.5 -4h-71zM215 -73q-3 -16 -14.5 -37t-26 -41t-26.5 -34q-5 -5 -9 -5h-16.5h-17.5q-3 1 -2.5 2.5t4.5 8.5q9 12 22 34t21 37
q-16 1 -20.5 12t-2.5 22q3 17 15.5 27.5t36.5 10.5q20 0 30.5 -7.5t5.5 -29.5z" />
    <glyph glyph-name="Ncaron" unicode="&#x147;" horiz-adv-x="641" 
d="M454 194q2 -4 6.5 -4t5.5 6q9 34 20 79t22 95.5t20.5 102.5t16.5 100.5t10 89.5q2 10 8 10h73q4 0 7.5 -2.5t2.5 -6.5q-1 -36 -9 -88.5t-20 -115t-26 -128t-29 -127t-29 -112.5t-26 -84q-2 -6 -6.5 -7.5t-9.5 -1.5h-48q-6 0 -9 11l-205 472q-1 4 -4.5 4t-4.5 -5
q-12 -48 -24 -100t-23.5 -104.5t-21 -102t-15.5 -92t-9 -73.5q-1 -10 -8 -10h-71q-5 0 -9 1.5t-3 7.5q4 34 11.5 85.5t19 113.5t25 127t28.5 127.5t29.5 114.5t28.5 87q2 4 6.5 6.5t7.5 2.5h48q6 0 8 -7zM389 717q-4 0 -6 4l-57 81q-1 3 0.5 5.5t5.5 2.5h39q5 0 7 -4l40 -43
q3 -5 9 0l59 43q4 4 9 4h39q4 0 4 -2.5t-2 -5.5l-91 -81q-3 -4 -8 -4h-48z" />
    <glyph glyph-name="ncaron" unicode="&#x148;" horiz-adv-x="481" 
d="M21 0q-3 0 -6.5 1.5t-2.5 7.5q23 105 45 210l44 210q2 8 8 12.5t24 9.5q13 4 40 9.5t57.5 10.5t55.5 5q59 0 93 -17.5t49 -48.5t15.5 -71.5t-9.5 -86.5q-9 -43 -20 -87.5t-22 -83.5t-19 -65q-4 -12 -7.5 -14t-13.5 -2h-64q-9 0 -6 9q1 5 6.5 26t13.5 50.5t16 61.5l15 60
t11 46q12 53 7.5 86t-24.5 49t-58 16q-20 0 -37.5 -3t-32.5 -8q-7 -1 -13.5 -7t-8.5 -18q-18 -86 -37 -175.5t-39 -180.5q-1 -4 -2.5 -8t-6.5 -4h-71zM286 528q-5 0 -6 3l-42 93q-1 3 1 5.5t5 2.5h42q5 0 6 -4l26 -46q3 -5 9 0l59 46q5 4 9 4h42q4 0 3.5 -2.5t-2.5 -5.5
l-98 -93q-4 -3 -9 -3h-45z" />
    <glyph glyph-name="Eng" unicode="&#x14a;" horiz-adv-x="591" 
d="M621 664q-2 -44 -12 -107.5t-25 -140.5t-34.5 -159t-41 -163t-42.5 -153q-18 -62 -42.5 -102.5t-60.5 -60.5t-91 -20q-22 0 -44 4t-36 12q-9 6 -13.5 11t2.5 13l24 31q5 5 8.5 5t7.5 -3q10 -7 23 -9t25 -1q36 1 62 28t39 72l32 106l-198 456q-1 4 -4.5 4t-4.5 -5
q-12 -48 -24.5 -100t-23.5 -104.5t-20.5 -102t-15.5 -92t-8 -73.5q-2 -10 -9 -10h-71q-5 0 -9 1.5t-3 7.5q3 34 11 85.5t19.5 113.5t25 127t28.5 127.5t29.5 114.5t28.5 87q1 4 6 6.5t8 2.5h48q6 0 8 -7l206 -472q2 -4 6.5 -4t5.5 6q9 34 19.5 79t21.5 95.5t20.5 102.5
t17 100.5t10.5 89.5q2 10 8 10h73q10 0 10 -9z" />
    <glyph glyph-name="eng" unicode="&#x14b;" horiz-adv-x="491" 
d="M22 0q-3 0 -6.5 1.5t-2.5 7.5q22 105 44.5 210t44.5 210q2 8 8 12.5t23 9.5q14 4 41 9.5t57.5 10.5t55.5 5q59 0 93 -17.5t49 -48.5t15 -71.5t-10 -86.5q-13 -65 -28.5 -123t-32.5 -112q-4 -12 -7 -14.5t-13 -2.5h-28h-28q-10 0 -12.5 2t-0.5 12q1 4 6.5 24.5t13 49.5
t15.5 60t14.5 59t10.5 46q10 43 9 71.5t-12.5 45t-32.5 24.5q-14 9 -35 10t-41.5 -3t-36.5 -10q-5 -3 -11 -12t-9 -27q-16 -74 -35 -161.5t-38 -178.5q-1 -4 -2.5 -8t-6.5 -4h-35.5h-35.5zM391 79l-25 -88q-21 -77 -63 -120t-123 -43q-23 0 -44.5 3.5t-36.5 12.5
q-8 5 -13 10t2 14l25 31q4 5 8 5t8 -3q11 -6 23.5 -8.5t23.5 -1.5q40 1 64 26.5t37 73.5l25 88h89z" />
    <glyph glyph-name="Omacron" unicode="&#x14c;" horiz-adv-x="631" 
d="M69 335q24 110 63 186.5t105.5 116t170.5 39.5q82 0 129.5 -22.5t67.5 -65.5t18 -107t-19 -147q-23 -111 -61 -187t-104.5 -115.5t-175.5 -39.5q-105 0 -154.5 39.5t-56 115.5t16.5 187zM164 335q-22 -105 -16.5 -162.5t38 -80t92.5 -22.5q59 0 102.5 22.5t75 80
t53.5 162.5q23 105 16 163t-41 81t-93 23q-60 0 -102.5 -23.5t-72.5 -81t-52 -162.5zM531 743q-1 -2 -2 -3t-7 -1h-204q-5 0 -6 1.5t0 4.5l9 44q1 5 2.5 6t6.5 1h205q5 0 6 -1t0 -5z" />
    <glyph glyph-name="omacron" unicode="&#x14d;" horiz-adv-x="496" 
d="M196 -6q-63 0 -99.5 18t-53 50.5t-16.5 77t11 97.5q15 70 46 124.5t83.5 85.5t131.5 31q80 0 119 -31t47.5 -85.5t-6.5 -124.5t-44.5 -125t-82 -86.5t-136.5 -31.5zM210 63q67 0 103.5 45.5t53.5 127.5q18 81 -2 125t-82 44t-100 -44t-56 -125q-17 -83 0 -128t83 -45z
M423 543q-1 -2 -2 -3t-7 -1h-204q-5 0 -6 1.5t0 4.5l9 44q1 5 2.5 6t6.5 1h205q5 0 6 -1t0 -5z" />
    <glyph glyph-name="Ohungarumlaut" unicode="&#x150;" horiz-adv-x="631" 
d="M69 335q24 110 63 186.5t105.5 116t170.5 39.5q82 0 129.5 -22.5t67.5 -65.5t18 -107t-19 -147q-23 -111 -61 -187t-104.5 -115.5t-175.5 -39.5q-105 0 -154.5 39.5t-56 115.5t16.5 187zM164 335q-22 -105 -16.5 -162.5t38 -80t92.5 -22.5q59 0 102.5 22.5t75 80
t53.5 162.5q23 105 16 163t-41 81t-93 23q-60 0 -102.5 -23.5t-72.5 -81t-52 -162.5zM393 720q-2 -2 -4.5 -3.5t-10.5 -1.5h-31q-11 0 -4 10l68 93q4 6 16 6h52q5 0 6 -3t-3 -7zM490 720q-3 -2 -5.5 -3.5t-9.5 -1.5h-31q-6 0 -7 3t3 7l75 93q3 4 6.5 5t9.5 1h52q4 0 5.5 -3
t-2.5 -7z" />
    <glyph glyph-name="ohungarumlaut" unicode="&#x151;" horiz-adv-x="496" 
d="M196 -6q-63 0 -99.5 18t-53 50.5t-16.5 77t11 97.5q15 70 46 124.5t83.5 85.5t131.5 31q80 0 119 -31t47.5 -85.5t-6.5 -124.5t-44.5 -125t-82 -86.5t-136.5 -31.5zM210 63q67 0 103.5 45.5t53.5 127.5q18 81 -2 125t-82 44t-100 -44t-56 -125q-17 -83 0 -128t83 -45z
M290 533q-2 -2 -5 -3.5t-10 -1.5h-30q-6 0 -5.5 3t2.5 7l58 107q3 4 7 5t10 1h51q4 0 5 -3t-3 -7zM387 533q-2 -2 -5 -3.5t-10 -1.5h-30q-6 0 -6 3t3 7l65 107q5 6 17 6h51q4 0 5 -3t-3 -7z" />
    <glyph glyph-name="OE" unicode="&#x152;" horiz-adv-x="852" 
d="M263 -7q-105 0 -154.5 39t-56 115t16.5 187q24 111 63 187.5t105.5 115.5t170.5 39q55 0 93 -11t62 -33q2 8 3.5 15.5t3.5 16.5t10 9h161h161q8 0 9 -1.5t-1 -8.5q-2 -13 -4.5 -26t-5.5 -25q-2 -8 -4 -9.5t-9 -1.5h-116h-116q-5 0 -6.5 -1.5t-2.5 -6.5
q-11 -53 -22 -105.5t-23 -104.5q-1 -5 0.5 -6.5t5.5 -1.5h94h93q8 0 9 -2t-1 -11q-2 -12 -4.5 -23.5t-5.5 -22.5q-1 -8 -3.5 -10.5t-10.5 -2.5h-92.5h-94.5q-4 0 -5.5 -1t-2.5 -6q-11 -53 -23 -107t-23 -108q-1 -5 -0.5 -7t6.5 -2h115h115q9 0 10 -2t0 -11q-3 -11 -5 -23
t-5 -23q-3 -9 -5 -11t-11 -2h-160h-160q-8 0 -7 6q2 8 3.5 15.5t3.5 14.5q-34 -21 -77 -32t-97 -11zM278 70q43 0 77.5 13t62.5 45.5t50 90.5l47 222q4 63 -9.5 98t-42.5 48.5t-72 13.5q-60 0 -102.5 -23t-72.5 -81t-52 -163q-22 -104 -16.5 -161.5t38 -80t92.5 -22.5z" />
    <glyph glyph-name="oe" unicode="&#x153;" horiz-adv-x="794" 
d="M196 -6q-63 0 -99.5 18t-53 50.5t-16.5 77t11 97.5q15 70 46 124.5t83.5 85.5t131.5 31q73 0 108.5 -31.5t42 -86t-7.5 -123.5q-15 -67 -43 -122.5t-77 -88t-126 -32.5zM210 63q47 0 77.5 20.5t49.5 59t30 93.5q17 81 -1 125t-83 44q-61 0 -99.5 -44t-56.5 -125
q-17 -83 0 -128t83 -45zM381 237q14 63 41.5 117.5t75.5 89t123 34.5q62 0 96 -18t46.5 -48t11.5 -66t-9 -72q-8 -39 -18.5 -49.5t-26.5 -10.5h-260q-4 0 -7.5 -2t-5.5 -11q-6 -40 1.5 -71.5t32 -49.5t69.5 -18q35 0 73.5 9t61.5 22q9 5 15.5 6.5t9.5 -9.5l9 -31
q3 -7 0 -10.5t-11 -7.5q-38 -25 -89 -35t-101 -10q-58 0 -91 18.5t-46.5 52t-12 77t11.5 93.5zM679 288q5 25 5 47t-7.5 38.5t-25.5 26t-47 9.5q-31 0 -53.5 -11.5t-39.5 -29.5t-27.5 -39.5t-17.5 -41.5q-3 -11 -2.5 -15t6.5 -4h95h95q9 0 13 3.5t6 16.5z" />
    <glyph glyph-name="Racute" unicode="&#x154;" horiz-adv-x="537" 
d="M35 0q-4 0 -6.5 2.5t-1.5 6.5l139 655q2 9 12 9h152q76 0 119 -18.5t56 -61.5t-3 -118q-13 -61 -47 -110t-88 -73q-14 -9 -20.5 -17.5t-1.5 -21.5q2 -26 8.5 -53.5t18.5 -50.5t28 -38q16 -13 36 -21t46 -8q6 0 8 -2t1 -9l-13 -62q-1 -4 -2.5 -6t-8 -2.5t-20.5 -0.5
q-40 0 -70 12.5t-53 33.5q-22 21 -37.5 52t-25 68t-11.5 74q0 4 -2 10.5t-10 6.5h-60q-3 0 -5.5 -2.5t-3.5 -9.5l-50 -236q-2 -9 -12 -9h-72zM189 339q-1 -8 6 -8h67q57 0 96 35.5t54 108.5q12 55 4.5 83t-34 38.5t-70.5 10.5h-59q-4 0 -6 -1.5t-3 -7.5zM317 719h-45
q-6 0 -6 3.5t4 7.5l62 71q4 5 7 7t10 2h69q3 0 5 -3.5t-1 -5.5l-88 -74q-5 -3 -8.5 -5.5t-8.5 -2.5z" />
    <glyph glyph-name="racute" unicode="&#x155;" horiz-adv-x="355" 
d="M271 477q66 0 106 -18q7 -3 8 -6t-1 -8l-22 -46q-2 -6 -5.5 -7t-8.5 1q-16 6 -36.5 8.5t-36.5 2.5t-32 -2.5t-28 -5.5t-18 -6t-11.5 -7t-8.5 -18l-75 -351q-3 -9 -6 -11.5t-9 -2.5h-68q-3 0 -5.5 2t-0.5 10l86 406q3 15 8 20t15 9q32 14 74 22t75 8zM202 528q-6 0 -6 2.5
t4 8.5l67 90q4 6 16 6h61q4 0 5.5 -2.5t-3.5 -7.5l-85 -92q-4 -3 -6.5 -4t-8.5 -1h-44z" />
    <glyph glyph-name="uni0156" unicode="&#x156;" horiz-adv-x="537" 
d="M35 0q-4 0 -6.5 2.5t-1.5 6.5l139 655q2 9 12 9h152q76 0 119 -18.5t56 -61.5t-3 -118q-13 -61 -47 -110t-88 -73q-14 -9 -20.5 -17.5t-1.5 -21.5q2 -26 8.5 -53.5t18.5 -50.5t28 -38q16 -13 36 -21t46 -8q6 0 8 -2t1 -9l-13 -62q-1 -4 -2.5 -6t-8 -2.5t-20.5 -0.5
q-40 0 -70 12.5t-53 33.5q-22 21 -37.5 52t-25 68t-11.5 74q0 4 -2 10.5t-10 6.5h-60q-3 0 -5.5 -2.5t-3.5 -9.5l-50 -236q-2 -9 -12 -9h-72zM189 339q-1 -8 6 -8h67q57 0 96 35.5t54 108.5q12 55 4.5 83t-34 38.5t-70.5 10.5h-59q-4 0 -6 -1.5t-3 -7.5zM244 -73
q-3 -16 -14.5 -37t-26 -41t-26.5 -34q-5 -5 -9 -5h-16.5h-17.5q-3 1 -2.5 2.5t4.5 8.5q9 12 22 34t21 37q-16 1 -20.5 12t-2.5 22q3 17 15.5 27.5t36.5 10.5q20 0 30.5 -7.5t5.5 -29.5z" />
    <glyph glyph-name="uni0157" unicode="&#x157;" horiz-adv-x="355" 
d="M271 477q66 0 106 -18q7 -3 8 -6t-1 -8l-22 -46q-2 -6 -5.5 -7t-8.5 1q-16 6 -36.5 8.5t-36.5 2.5t-32 -2.5t-28 -5.5t-18 -6t-11.5 -7t-8.5 -18l-75 -351q-3 -9 -6 -11.5t-9 -2.5h-68q-3 0 -5.5 2t-0.5 10l86 406q3 15 8 20t15 9q32 14 74 22t75 8zM79 -73
q-3 -16 -14.5 -37t-26 -41t-26.5 -34q-5 -5 -9 -5h-16.5h-17.5q-3 1 -2.5 2.5t4.5 8.5q9 12 22 34t21 37q-16 1 -20.5 12t-2.5 22q3 17 15.5 27.5t36.5 10.5q20 0 30.5 -7.5t5.5 -29.5z" />
    <glyph glyph-name="Rcaron" unicode="&#x158;" horiz-adv-x="537" 
d="M35 0q-4 0 -6.5 2.5t-1.5 6.5l139 655q2 9 12 9h152q76 0 119 -18.5t56 -61.5t-3 -118q-13 -61 -47 -110t-88 -73q-14 -9 -20.5 -17.5t-1.5 -21.5q2 -26 8.5 -53.5t18.5 -50.5t28 -38q16 -13 36 -21t46 -8q6 0 8 -2t1 -9l-13 -62q-1 -4 -2.5 -6t-8 -2.5t-20.5 -0.5
q-40 0 -70 12.5t-53 33.5q-22 21 -37.5 52t-25 68t-11.5 74q0 4 -2 10.5t-10 6.5h-60q-3 0 -5.5 -2.5t-3.5 -9.5l-50 -236q-2 -9 -12 -9h-72zM189 339q-1 -8 6 -8h67q57 0 96 35.5t54 108.5q12 55 4.5 83t-34 38.5t-70.5 10.5h-59q-4 0 -6 -1.5t-3 -7.5zM300 718q-4 0 -6 4
l-57 81q-1 3 0.5 5.5t5.5 2.5h39q5 0 7 -4l40 -43q3 -5 9 0l59 43q4 4 9 4h39q4 0 4 -2.5t-2 -5.5l-91 -81q-3 -4 -8 -4h-48z" />
    <glyph glyph-name="rcaron" unicode="&#x159;" horiz-adv-x="355" 
d="M271 477q66 0 106 -18q7 -3 8 -6t-1 -8l-22 -46q-2 -6 -5.5 -7t-8.5 1q-16 6 -36.5 8.5t-36.5 2.5t-32 -2.5t-28 -5.5t-18 -6t-11.5 -7t-8.5 -18l-75 -351q-3 -9 -6 -11.5t-9 -2.5h-68q-3 0 -5.5 2t-0.5 10l86 406q3 15 8 20t15 9q32 14 74 22t75 8zM224 528q-5 0 -6 3
l-42 93q-1 3 1 5.5t5 2.5h42q5 0 6 -4l26 -46q3 -5 9 0l59 46q5 4 9 4h42q4 0 3.5 -2.5t-2.5 -5.5l-98 -93q-4 -3 -9 -3h-45z" />
    <glyph glyph-name="Sacute" unicode="&#x15a;" horiz-adv-x="468" 
d="M11 30l13 59q1 6 4.5 5.5t10.5 -3.5q18 -6 42 -12t47.5 -9.5t40.5 -3.5q65 0 105 35.5t51 89.5q9 40 -2.5 63.5t-35.5 37t-54 21.5q-25 7 -54 17.5t-52.5 29.5t-34 52t1.5 86q13 64 50.5 103.5t89 57.5t106.5 18q16 0 40.5 -3t50 -9.5t42.5 -15.5q5 -1 7 -4t0 -8l-11 -53
q-4 -18 -23 -6q-15 8 -35 14.5t-41.5 10.5t-38.5 4q-54 0 -94 -27.5t-50 -74.5q-7 -34 3.5 -55.5t32 -33.5t47.5 -20t49 -16q28 -9 51 -21.5t38 -32.5t19 -51t-6 -77q-14 -68 -51 -113.5t-92.5 -69.5t-123.5 -24q-29 0 -66 7t-66 17q-7 2 -10 5.5t-1 9.5zM336 718h-45
q-6 0 -6 3.5t4 7.5l62 71q4 5 7 7t10 2h69q3 0 5 -3.5t-1 -5.5l-88 -74q-5 -3 -8.5 -5.5t-8.5 -2.5z" />
    <glyph glyph-name="sacute" unicode="&#x15b;" horiz-adv-x="399" 
d="M11 93q2 7 7 6.5t8 -4.5q14 -9 36.5 -16t46 -11t41.5 -4q26 0 50 8t41.5 25t23.5 44q6 24 -3.5 36.5t-32 19t-59.5 11.5q-22 3 -45.5 9t-41.5 20t-26 39.5t1 67.5q9 43 40 72.5t77 45t98 15.5q17 0 41 -4t47 -12t37 -21q5 -4 4.5 -6.5t-2.5 -7.5l-27 -47q-4 -9 -14 -4
q-12 9 -29.5 16.5t-36.5 12.5t-34 5q-49 0 -79 -18.5t-36 -44.5q-5 -25 5 -38.5t30.5 -19t45.5 -7.5q22 -1 47.5 -7t46 -20t30 -39.5t0.5 -66.5q-12 -58 -47.5 -91.5t-79.5 -47.5t-85 -14q-18 0 -45.5 3.5t-54 12.5t-44.5 22q-4 5 -2 11zM235 528q-6 0 -6 2.5t4 8.5l67 90
q4 6 16 6h61q4 0 5.5 -2.5t-3.5 -7.5l-85 -92q-4 -3 -6.5 -4t-8.5 -1h-44z" />
    <glyph glyph-name="Scedilla" unicode="&#x15e;" horiz-adv-x="468" 
d="M11 30l13 59q1 6 4.5 5.5t10.5 -3.5q18 -6 42 -12t47.5 -9.5t40.5 -3.5q65 0 105 35.5t51 89.5q9 40 -2.5 63.5t-35.5 37t-54 21.5q-25 7 -54 17.5t-52.5 29.5t-34 52t1.5 86q13 64 50.5 103.5t89 57.5t106.5 18q16 0 40.5 -3t50 -9.5t42.5 -15.5q5 -1 7 -4t0 -8l-11 -53
q-4 -18 -23 -6q-15 8 -35 14.5t-41.5 10.5t-38.5 4q-54 0 -94 -27.5t-50 -74.5q-7 -34 3.5 -55.5t32 -33.5t47.5 -20t49 -16q28 -9 51 -21.5t38 -32.5t19 -51t-6 -77q-14 -68 -51 -113.5t-92.5 -69.5t-123.5 -24q-29 0 -66 7t-66 17q-7 2 -10 5.5t-1 9.5zM226 -121
q-6 -28 -35 -51t-71 -23q-29 0 -47.5 11.5t-27.5 27.5q-3 5 -1.5 11t7.5 9l20 9q14 5 18 -4q4 -10 14 -16t21 -6q21 0 33 11t14 23q4 15 -5 22.5t-23.5 11t-29.5 3.5q-7 0 -9 4.5t2 12.5l30 61q3 6 8 7t9 1h24q6 0 3 -9l-23 -64l-9 19q41 -3 63 -20t15 -51z" />
    <glyph glyph-name="scedilla" unicode="&#x15f;" horiz-adv-x="399" 
d="M11 93q2 7 7 6.5t8 -4.5q14 -9 36.5 -16t46 -11t41.5 -4q26 0 50 8t41.5 25t23.5 44q6 24 -3.5 36.5t-32 19t-59.5 11.5q-22 3 -45.5 9t-41.5 20t-26 39.5t1 67.5q9 43 40 72.5t77 45t98 15.5q17 0 41 -4t47 -12t37 -21q5 -4 4.5 -6.5t-2.5 -7.5l-27 -47q-4 -9 -14 -4
q-12 9 -29.5 16.5t-36.5 12.5t-34 5q-49 0 -79 -18.5t-36 -44.5q-5 -25 5 -38.5t30.5 -19t45.5 -7.5q22 -1 47.5 -7t46 -20t30 -39.5t0.5 -66.5q-12 -58 -47.5 -91.5t-79.5 -47.5t-85 -14q-18 0 -45.5 3.5t-54 12.5t-44.5 22q-4 5 -2 11zM206 -121q-6 -28 -35 -51t-71 -23
q-29 0 -47.5 11.5t-27.5 27.5q-3 5 -1.5 11t7.5 9l20 9q14 5 18 -4q4 -10 14 -16t21 -6q21 0 33 11t14 23q4 15 -5 22.5t-23.5 11t-29.5 3.5q-7 0 -9 4.5t2 12.5l30 61q3 6 8 7t9 1h24q6 0 3 -9l-23 -64l-9 19q41 -3 63 -20t15 -51z" />
    <glyph glyph-name="Scaron" unicode="&#x160;" horiz-adv-x="468" 
d="M11 30l13 59q1 6 4.5 5.5t10.5 -3.5q18 -6 42 -12t47.5 -9.5t40.5 -3.5q65 0 105 35.5t51 89.5q9 40 -2.5 63.5t-35.5 37t-54 21.5q-25 7 -54 17.5t-52.5 29.5t-34 52t1.5 86q13 64 50.5 103.5t89 57.5t106.5 18q16 0 40.5 -3t50 -9.5t42.5 -15.5q5 -1 7 -4t0 -8l-11 -53
q-4 -18 -23 -6q-15 8 -35 14.5t-41.5 10.5t-38.5 4q-54 0 -94 -27.5t-50 -74.5q-7 -34 3.5 -55.5t32 -33.5t47.5 -20t49 -16q28 -9 51 -21.5t38 -32.5t19 -51t-6 -77q-14 -68 -51 -113.5t-92.5 -69.5t-123.5 -24q-29 0 -66 7t-66 17q-7 2 -10 5.5t-1 9.5zM319 717q-4 0 -6 4
l-57 81q-1 3 0.5 5.5t5.5 2.5h39q5 0 7 -4l40 -43q3 -5 9 0l59 43q4 4 9 4h39q4 0 4 -2.5t-2 -5.5l-91 -81q-3 -4 -8 -4h-48z" />
    <glyph glyph-name="scaron" unicode="&#x161;" horiz-adv-x="399" 
d="M11 93q2 7 7 6.5t8 -4.5q14 -9 36.5 -16t46 -11t41.5 -4q26 0 50 8t41.5 25t23.5 44q6 24 -3.5 36.5t-32 19t-59.5 11.5q-22 3 -45.5 9t-41.5 20t-26 39.5t1 67.5q9 43 40 72.5t77 45t98 15.5q17 0 41 -4t47 -12t37 -21q5 -4 4.5 -6.5t-2.5 -7.5l-27 -47q-4 -9 -14 -4
q-12 9 -29.5 16.5t-36.5 12.5t-34 5q-49 0 -79 -18.5t-36 -44.5q-5 -25 5 -38.5t30.5 -19t45.5 -7.5q22 -1 47.5 -7t46 -20t30 -39.5t0.5 -66.5q-12 -58 -47.5 -91.5t-79.5 -47.5t-85 -14q-18 0 -45.5 3.5t-54 12.5t-44.5 22q-4 5 -2 11zM257 528q-5 0 -6 3l-42 93
q-1 3 1 5.5t5 2.5h42q5 0 6 -4l26 -46q3 -5 9 0l59 46q5 4 9 4h42q4 0 3.5 -2.5t-2.5 -5.5l-98 -93q-4 -3 -9 -3h-45z" />
    <glyph glyph-name="uni0162" unicode="&#x162;" horiz-adv-x="442" 
d="M134 0q-4 0 -6.5 2.5t-1.5 7.5l124 583q1 5 0 6.5t-6 1.5h-135q-8 0 -9 1.5t0 7.5l11 54q2 6 4 7.5t8 1.5h380q8 0 9.5 -1.5t0.5 -7.5l-12 -54q-1 -6 -3.5 -7.5t-10.5 -1.5h-137q-5 0 -6.5 -1.5t-2.5 -6.5l-124 -584q-2 -9 -11 -9h-72zM234 -121q-6 -28 -35 -51t-71 -23
q-29 0 -47.5 11.5t-27.5 27.5q-3 5 -1.5 11t7.5 9l20 9q14 5 18 -4q4 -10 14 -16t21 -6q21 0 33 11t14 23q4 15 -5 22.5t-23.5 11t-29.5 3.5q-7 0 -9 4.5t2 12.5l30 61q3 6 8 7t9 1h24q6 0 3 -9l-23 -64l-9 19q41 -3 63 -20t15 -51z" />
    <glyph glyph-name="uni0163" unicode="&#x163;" horiz-adv-x="337" 
d="M175 0q-64 0 -89 27t-25 76q1 42 10.5 88t19.5 94q7 32 13 60t15 59q2 9 -7 9h-47q-5 0 -6.5 2t-0.5 8l8 39q1 6 3.5 8t8.5 2h49q6 0 8.5 3t3.5 10l22 82q3 9 10 9h69q4 0 7 -2.5t2 -6.5l-22 -82q-3 -8 -2 -10.5t6 -2.5h107q7 0 8 -1.5t-1 -9.5l-7 -38q-1 -5 -4 -7.5
t-10 -2.5h-106q-4 0 -7.5 -2.5t-4.5 -9.5q-8 -30 -15.5 -61t-14.5 -63q-8 -39 -15.5 -79.5t-7.5 -77.5q0 -26 12.5 -38.5t41.5 -12.5q14 0 28 3.5t27 7.5q9 5 11 3.5t4 -8.5l3 -42q3 -10 -22 -19q-12 -4 -27.5 -7.5t-30.5 -5t-25 -1.5zM230 -118q-6 -28 -35 -51t-71 -23
q-29 0 -47.5 11.5t-27.5 27.5q-3 5 -1.5 11t7.5 9l20 9q14 5 18 -4q4 -10 14 -16t21 -6q21 0 33 11t14 23q4 15 -5 22.5t-23.5 11t-29.5 3.5q-7 0 -9 4.5t2 12.5l30 61q3 6 8 7t9 1h24q6 0 3 -9l-23 -64l-9 19q41 -3 63 -20t15 -51z" />
    <glyph glyph-name="Tcaron" unicode="&#x164;" horiz-adv-x="442" 
d="M134 0q-4 0 -6.5 2.5t-1.5 7.5l124 583q1 5 0 6.5t-6 1.5h-135q-8 0 -9 1.5t0 7.5l11 54q2 6 4 7.5t8 1.5h380q8 0 9.5 -1.5t0.5 -7.5l-12 -54q-1 -6 -3.5 -7.5t-10.5 -1.5h-137q-5 0 -6.5 -1.5t-2.5 -6.5l-124 -584q-2 -9 -11 -9h-72zM300 717q-4 0 -6 4l-57 81
q-1 3 0.5 5.5t5.5 2.5h39q5 0 7 -4l40 -43q3 -5 9 0l59 43q4 4 9 4h39q4 0 4 -2.5t-2 -5.5l-91 -81q-3 -4 -8 -4h-48z" />
    <glyph glyph-name="tcaron" unicode="&#x165;" horiz-adv-x="337" 
d="M175 0q-64 0 -89 27t-25 76q1 42 10.5 88t19.5 94q7 32 13 60t15 59q2 9 -7 9h-47q-5 0 -6.5 2t-0.5 8l8 39q1 6 3.5 8t8.5 2h49q6 0 8.5 3t3.5 10l22 82q3 9 10 9h69q4 0 7 -2.5t2 -6.5l-22 -82q-3 -8 -2 -10.5t6 -2.5h107q7 0 8 -1.5t-1 -9.5l-7 -38q-1 -5 -4 -7.5
t-10 -2.5h-106q-4 0 -7.5 -2.5t-4.5 -9.5q-8 -30 -15.5 -61t-14.5 -63q-8 -39 -15.5 -79.5t-7.5 -77.5q0 -26 12.5 -38.5t41.5 -12.5q14 0 28 3.5t27 7.5q9 5 11 3.5t4 -8.5l3 -42q3 -10 -22 -19q-12 -4 -27.5 -7.5t-30.5 -5t-25 -1.5zM370 352q-3 0 -4.5 2.5t-0.5 10.5
l26 143q2 9 5 11.5t10 2.5h42q9 0 10 -2.5t0 -8.5l-37 -148q-2 -7 -5 -9t-8 -2h-38z" />
    <glyph glyph-name="Tbar" unicode="&#x166;" horiz-adv-x="462" 
d="M134 0q-4 0 -6.5 2.5t-1.5 7.5l124 583q1 5 0 6.5t-6 1.5h-135q-8 0 -9 1.5t0 7.5l11 54q2 6 4 7.5t8 1.5h380q8 0 9.5 -1.5t0.5 -7.5l-12 -54q-1 -6 -3.5 -7.5t-10.5 -1.5h-137q-5 0 -6.5 -1.5t-2.5 -6.5l-124 -584q-2 -9 -11 -9h-72zM118 392q-6 0 -6.5 2t0.5 7l10 48
q1 6 3 7.5t8 1.5h272q5 0 6.5 -1.5t0.5 -7.5l-11 -50q-1 -4 -2.5 -5.5t-7.5 -1.5h-273z" />
    <glyph glyph-name="tbar" unicode="&#x167;" horiz-adv-x="337" 
d="M45 299q-5 0 -5.5 1.5t0.5 5.5l7 37q1 4 2.5 5.5t6.5 1.5h207q4 0 5 -1t0 -6l-8 -39q0 -3 -1.5 -4t-6.5 -1h-207zM175 0q-64 0 -89 27t-25 76q1 42 10.5 88t19.5 94q7 32 13 60t15 59q2 9 -7 9h-47q-5 0 -6.5 2t-0.5 8l8 39q1 6 3.5 8t8.5 2h49q6 0 8.5 3t3.5 10l22 82
q3 9 10 9h69q4 0 7 -2.5t2 -6.5l-22 -82q-3 -8 -2 -10.5t6 -2.5h107q7 0 8 -1.5t-1 -9.5l-7 -38q-1 -5 -4 -7.5t-10 -2.5h-106q-4 0 -7.5 -2.5t-4.5 -9.5q-8 -30 -15.5 -61t-14.5 -63q-8 -39 -15.5 -79.5t-7.5 -77.5q0 -26 12.5 -38.5t41.5 -12.5q14 0 28 3.5t27 7.5
q9 5 11 3.5t4 -8.5l3 -42q3 -10 -22 -19q-12 -4 -27.5 -7.5t-30.5 -5t-25 -1.5z" />
    <glyph glyph-name="Utilde" unicode="&#x168;" horiz-adv-x="634" 
d="M264 -10q-65 0 -106 12.5t-63 33.5t-30 45.5t-8 48.5t2 42q5 41 13 89.5t18 92.5q11 48 24.5 102.5t29.5 108t32 98.5q2 4 5.5 7t8.5 3h33.5h33.5q7 0 7.5 -2t-2.5 -14q-13 -40 -25.5 -84t-24.5 -90q-20 -78 -36.5 -154t-24.5 -145q-3 -18 -2 -36t7.5 -33.5t20.5 -27.5
t39 -18.5t61 -6.5q47 0 78.5 10t52 28t33 39.5t18.5 44.5q20 68 36 142.5t29 151.5q8 48 14 93t11 86q1 12 2.5 14t8.5 2h34.5h35.5q5 0 7.5 -3t1.5 -7q-2 -45 -9.5 -98t-16.5 -107t-19 -102q-9 -45 -20.5 -93.5t-24.5 -90.5q-8 -23 -22.5 -53.5t-44.5 -60t-82.5 -49
t-135.5 -19.5zM321 719q-6 0 -4 6q7 33 28 54t49 21q15 0 28 -9.5t23.5 -19t18.5 -9.5q6 0 11.5 6.5t8.5 17.5q1 7 6 7h37q5 0 4 -7q-6 -29 -28 -51t-49 -22q-18 0 -30.5 9.5t-21.5 18.5t-18 9q-7 0 -13 -7t-8 -18q0 -6 -6 -6h-36z" />
    <glyph glyph-name="utilde" unicode="&#x169;" horiz-adv-x="479" 
d="M198 -4q-59 0 -93.5 17.5t-49.5 48.5t-15.5 71.5t9.5 86.5q10 44 21 88t22 83t18 65q5 12 8.5 14t13.5 2h55q10 0 14 -1t-1 -13q-1 -6 -8 -31t-16.5 -61t-19 -75.5t-16.5 -74.5q-15 -71 1 -109.5t73 -38.5q7 0 21.5 1t29.5 4t26.5 9t13.5 16l77 362q2 4 3.5 8t5.5 4h72
q3 0 6 -1.5t2 -7.5l-88 -414q-2 -12 -10 -17.5t-29 -12.5q-10 -3 -35.5 -8.5t-55.5 -10t-55 -4.5zM202 532q-6 0 -4 6q7 32 27.5 51t50.5 19q15 0 28.5 -8.5t24.5 -17t19 -8.5q7 0 13 6t7 15q1 4 3 5.5t3 1.5h39q6 0 4 -6q-6 -29 -28 -49.5t-50 -20.5q-19 0 -32 9t-22.5 17
t-18.5 8q-8 0 -13.5 -6t-7.5 -16q-2 -6 -6 -6h-37z" />
    <glyph glyph-name="Umacron" unicode="&#x16a;" horiz-adv-x="634" 
d="M264 -10q-65 0 -106 12.5t-63 33.5t-30 45.5t-8 48.5t2 42q5 41 13 89.5t18 92.5q11 48 24.5 102.5t29.5 108t32 98.5q2 4 5.5 7t8.5 3h33.5h33.5q7 0 7.5 -2t-2.5 -14q-13 -40 -25.5 -84t-24.5 -90q-20 -78 -36.5 -154t-24.5 -145q-3 -18 -2 -36t7.5 -33.5t20.5 -27.5
t39 -18.5t61 -6.5q47 0 78.5 10t52 28t33 39.5t18.5 44.5q20 68 36 142.5t29 151.5q8 48 14 93t11 86q1 12 2.5 14t8.5 2h34.5h35.5q5 0 7.5 -3t1.5 -7q-2 -45 -9.5 -98t-16.5 -107t-19 -102q-9 -45 -20.5 -93.5t-24.5 -90.5q-8 -23 -22.5 -53.5t-44.5 -60t-82.5 -49
t-135.5 -19.5zM532 743q-1 -2 -2 -3t-7 -1h-204q-5 0 -6 1.5t0 4.5l9 44q1 5 2.5 6t6.5 1h205q5 0 6 -1t0 -5z" />
    <glyph glyph-name="umacron" unicode="&#x16b;" horiz-adv-x="479" 
d="M198 -4q-59 0 -93.5 17.5t-49.5 48.5t-15.5 71.5t9.5 86.5q10 44 21 88t22 83t18 65q5 12 8.5 14t13.5 2h55q10 0 14 -1t-1 -13q-1 -6 -8 -31t-16.5 -61t-19 -75.5t-16.5 -74.5q-15 -71 1 -109.5t73 -38.5q7 0 21.5 1t29.5 4t26.5 9t13.5 16l77 362q2 4 3.5 8t5.5 4h72
q3 0 6 -1.5t2 -7.5l-88 -414q-2 -12 -10 -17.5t-29 -12.5q-10 -3 -35.5 -8.5t-55.5 -10t-55 -4.5zM413 543q-1 -2 -2 -3t-7 -1h-204q-5 0 -6 1.5t0 4.5l9 44q1 5 2.5 6t6.5 1h205q5 0 6 -1t0 -5z" />
    <glyph glyph-name="Uring" unicode="&#x16e;" horiz-adv-x="634" 
d="M264 -10q-65 0 -106 12.5t-63 33.5t-30 45.5t-8 48.5t2 42q5 41 13 89.5t18 92.5q11 48 24.5 102.5t29.5 108t32 98.5q2 4 5.5 7t8.5 3h33.5h33.5q7 0 7.5 -2t-2.5 -14q-13 -40 -25.5 -84t-24.5 -90q-20 -78 -36.5 -154t-24.5 -145q-3 -18 -2 -36t7.5 -33.5t20.5 -27.5
t39 -18.5t61 -6.5q47 0 78.5 10t52 28t33 39.5t18.5 44.5q20 68 36 142.5t29 151.5q8 48 14 93t11 86q1 12 2.5 14t8.5 2h34.5h35.5q5 0 7.5 -3t1.5 -7q-2 -45 -9.5 -98t-16.5 -107t-19 -102q-9 -45 -20.5 -93.5t-24.5 -90.5q-8 -23 -22.5 -53.5t-44.5 -60t-82.5 -49
t-135.5 -19.5zM519 792q-8 -37 -33 -59t-71 -22q-48 0 -63 22t-7 59t32.5 59t72.5 22q46 0 61.5 -22t7.5 -59zM477 795q3 14 -3 24t-33 10q-29 0 -38.5 -10t-12.5 -24t1.5 -27t34.5 -13t39 13.5t12 26.5z" />
    <glyph glyph-name="uring" unicode="&#x16f;" horiz-adv-x="479" 
d="M198 -4q-59 0 -93.5 17.5t-49.5 48.5t-15.5 71.5t9.5 86.5q10 44 21 88t22 83t18 65q5 12 8.5 14t13.5 2h55q10 0 14 -1t-1 -13q-1 -6 -8 -31t-16.5 -61t-19 -75.5t-16.5 -74.5q-15 -71 1 -109.5t73 -38.5q7 0 21.5 1t29.5 4t26.5 9t13.5 16l77 362q2 4 3.5 8t5.5 4h72
q3 0 6 -1.5t2 -7.5l-88 -414q-2 -12 -10 -17.5t-29 -12.5q-10 -3 -35.5 -8.5t-55.5 -10t-55 -4.5zM400 592q-8 -37 -33 -59t-71 -22q-48 0 -63 22t-7 59t32.5 59t72.5 22q46 0 61.5 -22t7.5 -59zM358 595q3 14 -3 24t-33 10q-29 0 -38.5 -10t-12.5 -24t1.5 -27t34.5 -13
t39 13.5t12 26.5z" />
    <glyph glyph-name="Uhungarumlaut" unicode="&#x170;" horiz-adv-x="634" 
d="M264 -10q-65 0 -106 12.5t-63 33.5t-30 45.5t-8 48.5t2 42q5 41 13 89.5t18 92.5q11 48 24.5 102.5t29.5 108t32 98.5q2 4 5.5 7t8.5 3h33.5h33.5q7 0 7.5 -2t-2.5 -14q-13 -40 -25.5 -84t-24.5 -90q-20 -78 -36.5 -154t-24.5 -145q-3 -18 -2 -36t7.5 -33.5t20.5 -27.5
t39 -18.5t61 -6.5q47 0 78.5 10t52 28t33 39.5t18.5 44.5q20 68 36 142.5t29 151.5q8 48 14 93t11 86q1 12 2.5 14t8.5 2h34.5h35.5q5 0 7.5 -3t1.5 -7q-2 -45 -9.5 -98t-16.5 -107t-19 -102q-9 -45 -20.5 -93.5t-24.5 -90.5q-8 -23 -22.5 -53.5t-44.5 -60t-82.5 -49
t-135.5 -19.5zM394 720q-2 -2 -4.5 -3.5t-10.5 -1.5h-31q-11 0 -4 10l68 93q4 6 16 6h52q5 0 6 -3t-3 -7zM491 720q-3 -2 -5.5 -3.5t-9.5 -1.5h-31q-6 0 -7 3t3 7l75 93q3 4 6.5 5t9.5 1h52q4 0 5.5 -3t-2.5 -7z" />
    <glyph glyph-name="uhungarumlaut" unicode="&#x171;" horiz-adv-x="479" 
d="M198 -4q-59 0 -93.5 17.5t-49.5 48.5t-15.5 71.5t9.5 86.5q10 44 21 88t22 83t18 65q5 12 8.5 14t13.5 2h55q10 0 14 -1t-1 -13q-1 -6 -8 -31t-16.5 -61t-19 -75.5t-16.5 -74.5q-15 -71 1 -109.5t73 -38.5q7 0 21.5 1t29.5 4t26.5 9t13.5 16l77 362q2 4 3.5 8t5.5 4h72
q3 0 6 -1.5t2 -7.5l-88 -414q-2 -12 -10 -17.5t-29 -12.5q-10 -3 -35.5 -8.5t-55.5 -10t-55 -4.5zM279 533q-2 -2 -5 -3.5t-10 -1.5h-30q-6 0 -5.5 3t2.5 7l58 107q3 4 7 5t10 1h51q4 0 5 -3t-3 -7zM376 533q-2 -2 -5 -3.5t-10 -1.5h-30q-6 0 -6 3t3 7l65 107q5 6 17 6h51
q4 0 5 -3t-3 -7z" />
    <glyph glyph-name="Uogonek" unicode="&#x172;" horiz-adv-x="634" 
d="M264 -10q-65 0 -106 12.5t-63 33.5t-30 45.5t-8 48.5t2 42q5 41 13 89.5t18 92.5q11 48 24.5 102.5t29.5 108t32 98.5q2 4 5.5 7t8.5 3h33.5h33.5q7 0 7.5 -2t-2.5 -14q-13 -40 -25.5 -84t-24.5 -90q-20 -78 -36.5 -154t-24.5 -145q-3 -18 -2 -36t7.5 -33.5t20.5 -27.5
t39 -18.5t61 -6.5q47 0 78.5 10t52 28t33 39.5t18.5 44.5q20 68 36 142.5t29 151.5q8 48 14 93t11 86q1 12 2.5 14t8.5 2h34.5h35.5q5 0 7.5 -3t1.5 -7q-2 -45 -9.5 -98t-16.5 -107t-19 -102q-9 -45 -20.5 -93.5t-24.5 -90.5q-8 -23 -22.5 -53.5t-44.5 -60t-82.5 -49
t-135.5 -19.5zM172 -221q-40 0 -63 22.5t-16 58.5q7 31 27.5 57.5t48.5 48t58 37.5q8 4 17 7t18 3h46q5 0 5 -3.5t-6 -7.5q-44 -25 -74.5 -47.5t-48 -44t-22.5 -43.5q-4 -19 5.5 -27.5t25.5 -8.5q17 1 39.5 10.5t37.5 21.5q6 4 10 3.5t2 -6.5l-7 -32q-1 -6 -5.5 -11.5
t-11.5 -9.5q-19 -12 -39.5 -20t-46.5 -8z" />
    <glyph glyph-name="uogonek" unicode="&#x173;" horiz-adv-x="479" 
d="M198 -4q-59 0 -93.5 17.5t-49.5 48.5t-15.5 71.5t9.5 86.5q10 44 21 88t22 83t18 65q5 12 8.5 14t13.5 2h55q10 0 14 -1t-1 -13q-1 -6 -8 -31t-16.5 -61t-19 -75.5t-16.5 -74.5q-15 -71 1 -109.5t73 -38.5q7 0 21.5 1t29.5 4t26.5 9t13.5 16l77 362q2 4 3.5 8t5.5 4h72
q3 0 6 -1.5t2 -7.5l-88 -414q-2 -12 -10 -17.5t-29 -12.5q-10 -3 -35.5 -8.5t-55.5 -10t-55 -4.5zM236 -189q-40 0 -63 22.5t-16 58.5q7 31 27.5 57.5t48.5 48t58 37.5q8 4 17 7t18 3h46q5 0 5 -3.5t-6 -7.5q-44 -25 -74.5 -47.5t-48 -44t-22.5 -43.5q-4 -19 5.5 -27.5
t25.5 -8.5q17 1 39.5 10.5t37.5 21.5q6 4 10 3.5t2 -6.5l-7 -32q-1 -6 -5.5 -11.5t-11.5 -9.5q-19 -12 -39.5 -20t-46.5 -8z" />
    <glyph glyph-name="Wcircumflex" unicode="&#x174;" horiz-adv-x="842" 
d="M184 0q-9 0 -12 3t-4 8q-12 42 -22 105t-16.5 136.5t-10 148.5t-3 142.5t4.5 116.5q1 6 2.5 9.5t8.5 3.5h70q6 0 7.5 -2t1.5 -8q-1 -40 -2 -81.5t0 -89.5t3 -107q2 -32 4 -68t5 -71t7 -64.5t8 -48.5q1 -2 2 -5.5t3 -3.5h5q3 0 5 2.5t5 6.5q12 18 28.5 47t35 63t35.5 69
t31.5 65t23.5 52q8 32 15 67.5t13 69.5t11 59t7 36q2 6 3 9.5t8 3.5h71q6 0 7.5 -2t0.5 -9q-19 -94 -25 -180t0 -171t21 -176l1.5 -9t2.5 -3h3.5h3.5q3 0 7 7q23 38 48 85.5t49 96t43 88.5q29 62 60.5 132t52.5 127q3 8 5.5 10.5t6.5 2.5h73q11 0 4 -15q-14 -35 -36.5 -86.5
t-50 -112.5t-58.5 -125.5t-62 -125t-60 -111t-54 -84.5q-2 -4 -7 -8.5t-11 -4.5h-23h-29h-23q-4 0 -8 4t-5 8q-8 32 -15.5 74t-13.5 92t-10 105q0 6 -3 7t-7 -6q-24 -50 -51.5 -102t-54 -96.5t-46.5 -72.5q-4 -7 -9 -10t-9 -3h-72zM423 717q-3 0 -3.5 2.5t2.5 5.5l88 80
q4 5 9 5h49q6 0 8 -5l55 -80q1 -3 -0.5 -5.5t-5.5 -2.5h-39q-4 0 -6.5 1.5t-6.5 4.5l-34 37q-3 4 -10 0l-52 -38q-3 -2 -6 -3.5t-7 -1.5h-41z" />
    <glyph glyph-name="wcircumflex" unicode="&#x175;" horiz-adv-x="633" 
d="M131 0q-6 0 -9 2.5t-5 8.5q-17 54 -28 115t-17 120.5t-7.5 111.5t0.5 91q0 10 2.5 16.5t9.5 6.5h70q11 0 11 -11q-2 -31 -1.5 -70t2.5 -79.5t5 -77t6.5 -64.5t6.5 -41q5 -20 17 -4q12 15 26.5 41t28 55t23.5 55t14 41q3 17 7 37.5t8 40.5t8 37.5t6 27.5q2 12 12 12h74
q4 0 7 -2.5t2 -8.5q-5 -24 -12 -60.5t-16 -84.5q-2 -16 -2 -38t2 -46t5.5 -46.5t6.5 -39.5t6 -26q3 -15 12 -1q12 17 28.5 47t35.5 67t37 77.5t34.5 79t26.5 69.5q5 13 19 13h64q6 0 6.5 -5.5t-2.5 -15.5q-12 -34 -31.5 -78t-44 -92.5t-51 -97.5t-55 -93t-55.5 -78
q-4 -7 -8 -9.5t-10 -2.5h-49q-6 0 -8.5 2t-4.5 7q-7 19 -14 45.5t-12.5 55t-8.5 49.5q-2 9 -6.5 9t-8.5 -8q-7 -12 -17 -29.5t-21 -35t-20 -32.5q-10 -14 -21 -29t-18 -25q-3 -4 -7.5 -6.5t-9.5 -2.5h-49zM280 528q-3 0 -3.5 2.5t1.5 4.5l90 93q3 4 8 4h46q5 0 6 -4l50 -93
q2 -2 0.5 -4.5t-5.5 -2.5h-42q-4 0 -6 3l-34 46q-4 5 -9 0l-52 -46q-4 -3 -8 -3h-42z" />
    <glyph glyph-name="Ycircumflex" unicode="&#x176;" horiz-adv-x="503" 
d="M322 295q-7 -8 -13 -22.5t-8 -25.5l-51 -238q-1 -4 -4.5 -6.5t-6.5 -2.5h-73q-4 0 -6 2.5t-1 6.5l50 237q4 20 0 40.5t-10 33.5q-6 10 -14 28.5t-16.5 39t-15 38t-8.5 26.5q-17 53 -26 97t-12.5 72.5t-3.5 34.5q0 10 5 13.5t12 3.5h70q5 0 7 -2.5t3 -8.5q1 -17 6 -45.5
t13 -61.5t16 -63q8 -27 17.5 -52.5t20.5 -49.5q5 -9 8.5 -10.5t12.5 9.5q12 12 25.5 27.5t26.5 32.5t25 32q22 31 45 66.5t41.5 66.5t25.5 49q3 6 6.5 8t9.5 2h72q5 0 8.5 -3.5t-1.5 -13.5q-2 -6 -17 -34.5t-42 -72.5t-66 -96q-9 -13 -25 -33t-34.5 -43t-37.5 -44.5
t-34 -37.5zM253 717q-3 0 -3.5 2.5t2.5 5.5l88 80q4 5 9 5h49q6 0 8 -5l55 -80q1 -3 -0.5 -5.5t-5.5 -2.5h-39q-4 0 -6.5 1.5t-6.5 4.5l-34 37q-3 4 -10 0l-52 -38q-3 -2 -6 -3.5t-7 -1.5h-41z" />
    <glyph glyph-name="ycircumflex" unicode="&#x177;" horiz-adv-x="415" 
d="M-33 -127q-20 0 -34.5 2.5t-24.5 6.5q-14 7 -4 20l23 34q6 10 15 7q5 -1 10.5 -2t13.5 -1q24 0 49.5 10t45.5 27q15 11 27.5 24.5t20.5 27t9 23.5q1 14 -3.5 26t-13.5 39q-7 23 -13.5 60t-11.5 82.5t-7 96t1 102.5q0 14 13 14h66q7 0 10.5 -3.5t2.5 -14.5
q-3 -30 -2.5 -71.5t4 -85t8 -81t10.5 -59.5q3 -12 10 -14t14 10q25 42 52 93.5t52 106t43 106.5q4 7 7 10t11 3h61q15 0 9 -15q-13 -37 -28.5 -73t-35 -74.5t-46.5 -86.5q-15 -29 -40.5 -72.5t-59 -91.5t-75 -90t-89 -69t-100.5 -27zM171 528q-3 0 -3.5 2.5t1.5 4.5l90 93
q3 4 8 4h46q5 0 6 -4l50 -93q2 -2 0.5 -4.5t-5.5 -2.5h-42q-4 0 -6 3l-34 46q-4 5 -9 0l-52 -46q-4 -3 -8 -3h-42z" />
    <glyph glyph-name="Ydieresis" unicode="&#x178;" horiz-adv-x="503" 
d="M322 295q-7 -8 -13 -22.5t-8 -25.5l-51 -238q-1 -4 -4.5 -6.5t-6.5 -2.5h-73q-4 0 -6 2.5t-1 6.5l50 237q4 20 0 40.5t-10 33.5q-6 10 -14 28.5t-16.5 39t-15 38t-8.5 26.5q-17 53 -26 97t-12.5 72.5t-3.5 34.5q0 10 5 13.5t12 3.5h70q5 0 7 -2.5t3 -8.5q1 -17 6 -45.5
t13 -61.5t16 -63q8 -27 17.5 -52.5t20.5 -49.5q5 -9 8.5 -10.5t12.5 9.5q12 12 25.5 27.5t26.5 32.5t25 32q22 31 45 66.5t41.5 66.5t25.5 49q3 6 6.5 8t9.5 2h72q5 0 8.5 -3.5t-1.5 -13.5q-2 -6 -17 -34.5t-42 -72.5t-66 -96q-9 -13 -25 -33t-34.5 -43t-37.5 -44.5
t-34 -37.5zM334 773q-3 -18 -14 -27.5t-37 -9.5q-24 0 -31 9.5t-4 27.5q4 19 15.5 28.5t35.5 9.5q26 0 32.5 -9.5t2.5 -28.5zM481 773q-4 -18 -14.5 -27.5t-37.5 -9.5q-23 0 -30.5 9.5t-4.5 27.5q4 19 15.5 28.5t35.5 9.5q27 0 33.5 -9.5t2.5 -28.5z" />
    <glyph glyph-name="Zacute" unicode="&#x179;" horiz-adv-x="458" 
d="M507 673q5 0 6.5 -2t-0.5 -10l-8 -39q-3 -14 -20 -33t-37 -39q-34 -31 -74.5 -75t-82.5 -95t-82 -105t-73 -106t-55 -97h319q8 0 9.5 -2t-0.5 -8l-10 -53q-2 -6 -4 -7.5t-9 -1.5h-395q-14 0 -16 8.5t2 23.5q11 39 37.5 88.5t63 104t79.5 109.5t86 105.5t81 92t65 69.5
h-271q-8 0 -9.5 2t-0.5 7l12 54q1 5 3.5 7t9.5 2h374zM324 718h-45q-6 0 -6 3.5t4 7.5l62 71q4 5 7 7t10 2h69q3 0 5 -3.5t-1 -5.5l-88 -74q-5 -3 -8.5 -5.5t-8.5 -2.5z" />
    <glyph glyph-name="zacute" unicode="&#x17a;" horiz-adv-x="367" 
d="M-20 23q20 58 59 115.5t87 115.5q33 40 65.5 75t61.5 62q4 4 5.5 6.5t-5.5 4.5h-161q-5 0 -7 1.5t-1 7.5l11 51q1 8 3.5 9t8.5 1h272q9 0 9.5 -2.5t-1.5 -10.5l-9 -42q-1 -5 -6 -13t-16 -14q-23 -17 -50.5 -43t-54.5 -55.5t-51 -57.5q-35 -42 -64.5 -81t-46.5 -69
q-1 -4 -1.5 -9t8.5 -5h199q6 0 6.5 -2t-0.5 -9l-11 -50q-1 -6 -4 -7.5t-10 -1.5h-289q-7 0 -9.5 3.5t2.5 19.5zM213 528q-6 0 -6 2.5t4 8.5l67 90q4 6 16 6h61q4 0 5.5 -2.5t-3.5 -7.5l-85 -92q-4 -3 -6.5 -4t-8.5 -1h-44z" />
    <glyph glyph-name="Zdotaccent" unicode="&#x17b;" horiz-adv-x="458" 
d="M507 673q5 0 6.5 -2t-0.5 -10l-8 -39q-3 -14 -20 -33t-37 -39q-34 -31 -74.5 -75t-82.5 -95t-82 -105t-73 -106t-55 -97h319q8 0 9.5 -2t-0.5 -8l-10 -53q-2 -6 -4 -7.5t-9 -1.5h-395q-14 0 -16 8.5t2 23.5q11 39 37.5 88.5t63 104t79.5 109.5t86 105.5t81 92t65 69.5
h-271q-8 0 -9.5 2t-0.5 7l12 54q1 5 3.5 7t9.5 2h374zM385 775q-4 -20 -14 -30t-35 -10t-31.5 10t-2.5 30q4 18 15 28.5t36 10.5q26 0 31 -10.5t1 -28.5z" />
    <glyph glyph-name="zdotaccent" unicode="&#x17c;" horiz-adv-x="367" 
d="M-20 23q20 58 59 115.5t87 115.5q33 40 65.5 75t61.5 62q4 4 5.5 6.5t-5.5 4.5h-161q-5 0 -7 1.5t-1 7.5l11 51q1 8 3.5 9t8.5 1h272q9 0 9.5 -2.5t-1.5 -10.5l-9 -42q-1 -5 -6 -13t-16 -14q-23 -17 -50.5 -43t-54.5 -55.5t-51 -57.5q-35 -42 -64.5 -81t-46.5 -69
q-1 -4 -1.5 -9t8.5 -5h199q6 0 6.5 -2t-0.5 -9l-11 -50q-1 -6 -4 -7.5t-10 -1.5h-289q-7 0 -9.5 3.5t2.5 19.5zM302 575q-4 -20 -14 -30t-35 -10t-31.5 10t-2.5 30q4 18 15 28.5t36 10.5q26 0 31 -10.5t1 -28.5z" />
    <glyph glyph-name="Zcaron" unicode="&#x17d;" horiz-adv-x="458" 
d="M507 673q5 0 6.5 -2t-0.5 -10l-8 -39q-3 -14 -20 -33t-37 -39q-34 -31 -74.5 -75t-82.5 -95t-82 -105t-73 -106t-55 -97h319q8 0 9.5 -2t-0.5 -8l-10 -53q-2 -6 -4 -7.5t-9 -1.5h-395q-14 0 -16 8.5t2 23.5q11 39 37.5 88.5t63 104t79.5 109.5t86 105.5t81 92t65 69.5
h-271q-8 0 -9.5 2t-0.5 7l12 54q1 5 3.5 7t9.5 2h374zM308 717q-4 0 -6 4l-57 81q-1 3 0.5 5.5t5.5 2.5h39q5 0 7 -4l40 -43q3 -5 9 0l59 43q4 4 9 4h39q4 0 4 -2.5t-2 -5.5l-91 -81q-3 -4 -8 -4h-48z" />
    <glyph glyph-name="zcaron" unicode="&#x17e;" horiz-adv-x="367" 
d="M-20 23q20 58 59 115.5t87 115.5q33 40 65.5 75t61.5 62q4 4 5.5 6.5t-5.5 4.5h-161q-5 0 -7 1.5t-1 7.5l11 51q1 8 3.5 9t8.5 1h272q9 0 9.5 -2.5t-1.5 -10.5l-9 -42q-1 -5 -6 -13t-16 -14q-23 -17 -50.5 -43t-54.5 -55.5t-51 -57.5q-35 -42 -64.5 -81t-46.5 -69
q-1 -4 -1.5 -9t8.5 -5h199q6 0 6.5 -2t-0.5 -9l-11 -50q-1 -6 -4 -7.5t-10 -1.5h-289q-7 0 -9.5 3.5t2.5 19.5zM235 528q-5 0 -6 3l-42 93q-1 3 1 5.5t5 2.5h42q5 0 6 -4l26 -46q3 -5 9 0l59 46q5 4 9 4h42q4 0 3.5 -2.5t-2.5 -5.5l-98 -93q-4 -3 -9 -3h-45z" />
    <glyph glyph-name="florin" unicode="&#x192;" horiz-adv-x="404" 
d="M27 -108q-12 0 -28 0.5t-31 3t-25 7.5q-5 2 -4 6q0 2 1.5 9t3 15.5t3 15.5t1.5 9q1 2 2.5 4.5t7.5 0.5q38 -8 64.5 0t45 28.5t29.5 49t18 60.5q18 85 34 160.5t29 139.5q0 1 0.5 2t0.5 2h-41h-41q-2 0 -2.5 2l-0.5 2q1 3 2.5 11t3.5 18.5t3.5 18.5t2.5 11l1 2t3 2h41h41
q1 2 1 4t1 4q4 19 8 37.5t8 37.5q11 50 39 85t69.5 53.5t91.5 18.5q17 0 36 -3t30 -8q7 -3 8 -5t0 -6l-10 -48q-1 -4 -1.5 -5.5t-4.5 -0.5q-16 6 -31 8.5t-31 2.5q-48 0 -72.5 -25.5t-38.5 -82.5q-3 -14 -5 -23.5t-4.5 -19.5t-5.5 -24h4.5h4.5h50h45.5h49.5q5 0 4 -4
q-1 -3 -3 -11t-4 -18.5t-3.5 -18.5t-2.5 -11l-1.5 -2t-3.5 -2h-51.5h-47h-52.5q-3 0 -3 -3q-9 -46 -17 -85t-16.5 -75.5t-17 -75t-17.5 -84.5q-10 -48 -31 -91t-55.5 -70.5t-84.5 -28.5z" />
    <glyph glyph-name="Ohorn" unicode="&#x1a0;" horiz-adv-x="631" 
d="M69 335q24 110 63 186.5t105.5 116t170.5 39.5q82 0 129.5 -22.5t67.5 -65.5t18 -107t-19 -147q-23 -111 -61 -187t-104.5 -115.5t-175.5 -39.5q-105 0 -154.5 39.5t-56 115.5t16.5 187zM164 335q-22 -105 -16.5 -162.5t38 -80t92.5 -22.5q59 0 102.5 22.5t75 80
t53.5 162.5q23 105 16 163t-41 81t-93 23q-60 0 -102.5 -23.5t-72.5 -81t-52 -162.5zM600 755q5 2 5 -4q0 -8 -1 -15.5t-3 -14.5q-7 -33 -26.5 -55.5t-48 -34t-64.5 -13.5q-5 0 -4 5l10 44q1 5 5 5q29 2 46.5 14t22.5 37q1 4 1.5 8.5t1.5 8.5q0 4 5 6z" />
    <glyph glyph-name="ohorn" unicode="&#x1a1;" horiz-adv-x="496" 
d="M196 -6q-63 0 -99.5 18t-53 50.5t-16.5 77t11 97.5q15 70 46 124.5t83.5 85.5t131.5 31q80 0 119 -31t47.5 -85.5t-6.5 -124.5t-44.5 -125t-82 -86.5t-136.5 -31.5zM210 63q67 0 103.5 45.5t53.5 127.5q18 81 -2 125t-82 44t-100 -44t-56 -125q-17 -83 0 -128t83 -45z
M488 555q5 2 5 -4q0 -8 -1 -15.5t-3 -14.5q-7 -33 -26.5 -55.5t-48 -34t-64.5 -13.5q-5 0 -4 5l10 44q1 5 5 5q29 2 46.5 14t22.5 37q1 4 1.5 8.5t1.5 8.5q0 4 5 6z" />
    <glyph glyph-name="Uhorn" unicode="&#x1af;" horiz-adv-x="634" 
d="M264 -10q-65 0 -106 12.5t-63 33.5t-30 45.5t-8 48.5t2 42q5 41 13 89.5t18 92.5q11 48 24.5 102.5t29.5 108t32 98.5q2 4 5.5 7t8.5 3h33.5h33.5q7 0 7.5 -2t-2.5 -14q-13 -40 -25.5 -84t-24.5 -90q-20 -78 -36.5 -154t-24.5 -145q-3 -18 -2 -36t7.5 -33.5t20.5 -27.5
t39 -18.5t61 -6.5q47 0 78.5 10t52 28t33 39.5t18.5 44.5q20 68 36 142.5t29 151.5q8 48 14 93t11 86q1 12 2.5 14t8.5 2h34.5h35.5q5 0 7.5 -3t1.5 -7q-2 -45 -9.5 -98t-16.5 -107t-19 -102q-9 -45 -20.5 -93.5t-24.5 -90.5q-8 -23 -22.5 -53.5t-44.5 -60t-82.5 -49
t-135.5 -19.5zM718 755q5 2 5 -4q0 -8 -1 -15.5t-3 -14.5q-7 -33 -26.5 -55.5t-48 -34t-64.5 -13.5q-5 0 -4 5l10 44q1 5 5 5q29 2 46.5 14t22.5 37q1 4 1.5 8.5t1.5 8.5q0 4 5 6z" />
    <glyph glyph-name="uhorn" unicode="&#x1b0;" horiz-adv-x="479" 
d="M198 -4q-59 0 -93.5 17.5t-49.5 48.5t-15.5 71.5t9.5 86.5q10 44 21 88t22 83t18 65q5 12 8.5 14t13.5 2h55q10 0 14 -1t-1 -13q-1 -6 -8 -31t-16.5 -61t-19 -75.5t-16.5 -74.5q-15 -71 1 -109.5t73 -38.5q7 0 21.5 1t29.5 4t26.5 9t13.5 16l77 362q2 4 3.5 8t5.5 4h72
q3 0 6 -1.5t2 -7.5l-88 -414q-2 -12 -10 -17.5t-29 -12.5q-10 -3 -35.5 -8.5t-55.5 -10t-55 -4.5zM540 555q5 2 5 -4q0 -8 -1 -15.5t-3 -14.5q-7 -33 -26.5 -55.5t-48 -34t-64.5 -13.5q-5 0 -4 5l10 44q1 5 5 5q29 2 46.5 14t22.5 37q1 4 1.5 8.5t1.5 8.5q0 4 5 6z" />
    <glyph glyph-name="uni0218" unicode="&#x218;" horiz-adv-x="468" 
d="M11 30l13 59q1 6 4.5 5.5t10.5 -3.5q18 -6 42 -12t47.5 -9.5t40.5 -3.5q65 0 105 35.5t51 89.5q9 40 -2.5 63.5t-35.5 37t-54 21.5q-25 7 -54 17.5t-52.5 29.5t-34 52t1.5 86q13 64 50.5 103.5t89 57.5t106.5 18q16 0 40.5 -3t50 -9.5t42.5 -15.5q5 -1 7 -4t0 -8l-11 -53
q-4 -18 -23 -6q-15 8 -35 14.5t-41.5 10.5t-38.5 4q-54 0 -94 -27.5t-50 -74.5q-7 -34 3.5 -55.5t32 -33.5t47.5 -20t49 -16q28 -9 51 -21.5t38 -32.5t19 -51t-6 -77q-14 -68 -51 -113.5t-92.5 -69.5t-123.5 -24q-29 0 -66 7t-66 17q-7 2 -10 5.5t-1 9.5zM188 -73
q-3 -16 -14.5 -37t-26 -41t-26.5 -34q-5 -5 -9 -5h-16.5h-17.5q-3 1 -2.5 2.5t4.5 8.5q9 12 22 34t21 37q-16 1 -20.5 12t-2.5 22q3 17 15.5 27.5t36.5 10.5q20 0 30.5 -7.5t5.5 -29.5z" />
    <glyph glyph-name="uni0219" unicode="&#x219;" horiz-adv-x="399" 
d="M11 93q2 7 7 6.5t8 -4.5q14 -9 36.5 -16t46 -11t41.5 -4q26 0 50 8t41.5 25t23.5 44q6 24 -3.5 36.5t-32 19t-59.5 11.5q-22 3 -45.5 9t-41.5 20t-26 39.5t1 67.5q9 43 40 72.5t77 45t98 15.5q17 0 41 -4t47 -12t37 -21q5 -4 4.5 -6.5t-2.5 -7.5l-27 -47q-4 -9 -14 -4
q-12 9 -29.5 16.5t-36.5 12.5t-34 5q-49 0 -79 -18.5t-36 -44.5q-5 -25 5 -38.5t30.5 -19t45.5 -7.5q22 -1 47.5 -7t46 -20t30 -39.5t0.5 -66.5q-12 -58 -47.5 -91.5t-79.5 -47.5t-85 -14q-18 0 -45.5 3.5t-54 12.5t-44.5 22q-4 5 -2 11zM169 -73q-3 -16 -14.5 -37t-26 -41
t-26.5 -34q-5 -5 -9 -5h-16.5h-17.5q-3 1 -2.5 2.5t4.5 8.5q9 12 22 34t21 37q-16 1 -20.5 12t-2.5 22q3 17 15.5 27.5t36.5 10.5q20 0 30.5 -7.5t5.5 -29.5z" />
    <glyph glyph-name="uni021A" unicode="&#x21a;" horiz-adv-x="442" 
d="M134 0q-4 0 -6.5 2.5t-1.5 7.5l124 583q1 5 0 6.5t-6 1.5h-135q-8 0 -9 1.5t0 7.5l11 54q2 6 4 7.5t8 1.5h380q8 0 9.5 -1.5t0.5 -7.5l-12 -54q-1 -6 -3.5 -7.5t-10.5 -1.5h-137q-5 0 -6.5 -1.5t-2.5 -6.5l-124 -584q-2 -9 -11 -9h-72zM196 -73q-3 -16 -14.5 -37t-26 -41
t-26.5 -34q-5 -5 -9 -5h-16.5h-17.5q-3 1 -2.5 2.5t4.5 8.5q9 12 22 34t21 37q-16 1 -20.5 12t-2.5 22q3 17 15.5 27.5t36.5 10.5q20 0 30.5 -7.5t5.5 -29.5z" />
    <glyph glyph-name="uni021B" unicode="&#x21b;" horiz-adv-x="337" 
d="M175 0q-64 0 -89 27t-25 76q1 42 10.5 88t19.5 94q7 32 13 60t15 59q2 9 -7 9h-47q-5 0 -6.5 2t-0.5 8l8 39q1 6 3.5 8t8.5 2h49q6 0 8.5 3t3.5 10l22 82q3 9 10 9h69q4 0 7 -2.5t2 -6.5l-22 -82q-3 -8 -2 -10.5t6 -2.5h107q7 0 8 -1.5t-1 -9.5l-7 -38q-1 -5 -4 -7.5
t-10 -2.5h-106q-4 0 -7.5 -2.5t-4.5 -9.5q-8 -30 -15.5 -61t-14.5 -63q-8 -39 -15.5 -79.5t-7.5 -77.5q0 -26 12.5 -38.5t41.5 -12.5q14 0 28 3.5t27 7.5q9 5 11 3.5t4 -8.5l3 -42q3 -10 -22 -19q-12 -4 -27.5 -7.5t-30.5 -5t-25 -1.5zM192 -70q-3 -16 -14.5 -37t-26 -41
t-26.5 -34q-5 -5 -9 -5h-16.5h-17.5q-3 1 -2.5 2.5t4.5 8.5q9 12 22 34t21 37q-16 1 -20.5 12t-2.5 22q3 17 15.5 27.5t36.5 10.5q20 0 30.5 -7.5t5.5 -29.5z" />
    <glyph glyph-name="circumflex" unicode="&#x2c6;" horiz-adv-x="207" 
d="M69 528q-3 0 -3.5 2.5t1.5 4.5l90 93q3 4 8 4h46q5 0 6 -4l50 -93q2 -2 0.5 -4.5t-5.5 -2.5h-42q-4 0 -6 3l-34 46q-4 5 -9 0l-52 -46q-4 -3 -8 -3h-42z" />
    <glyph glyph-name="caron" unicode="&#x2c7;" horiz-adv-x="208" 
d="M134 528q-5 0 -6 3l-42 93q-1 3 1 5.5t5 2.5h42q5 0 6 -4l26 -46q3 -5 9 0l59 46q5 4 9 4h42q4 0 3.5 -2.5t-2.5 -5.5l-98 -93q-4 -3 -9 -3h-45z" />
    <glyph glyph-name="breve" unicode="&#x2d8;" horiz-adv-x="207" 
d="M166 524q-50 0 -72 21.5t-15 62.5q2 9 4 11.5t9 2.5h38q6 0 7.5 -1.5t0.5 -7.5q-3 -20 7 -29t31 -9t35.5 9t19.5 29q1 6 3.5 7.5t6.5 1.5h40q6 0 6.5 -2.5t-1.5 -11.5q-9 -39 -38.5 -61.5t-81.5 -22.5z" />
    <glyph glyph-name="dotaccent" unicode="&#x2d9;" horiz-adv-x="85" 
d="M175 664q-2 -19 -10.5 -29.5t-33.5 -10.5q-24 0 -32.5 10.5t-6.5 29.5t11.5 29t33.5 10q26 0 33 -10t5 -29z" />
    <glyph glyph-name="ring" unicode="&#x2da;" horiz-adv-x="174" 
d="M250 592q-8 -37 -33 -59t-71 -22q-48 0 -63 22t-7 59t32.5 59t72.5 22q46 0 61.5 -22t7.5 -59zM208 595q3 14 -3 24t-33 10q-29 0 -38.5 -10t-12.5 -24t1.5 -27t34.5 -13t39 13.5t12 26.5z" />
    <glyph glyph-name="ogonek" unicode="&#x2db;" horiz-adv-x="193" 
d="M3 -200q-40 0 -63 22.5t-16 58.5q7 31 27.5 57.5t48.5 48t58 37.5q8 4 17 7t18 3h46q5 0 5 -3.5t-6 -7.5q-44 -25 -74.5 -47.5t-48 -44t-22.5 -43.5q-4 -19 5.5 -27.5t25.5 -8.5q17 1 39.5 10.5t37.5 21.5q6 4 10 3.5t2 -6.5l-7 -32q-1 -6 -5.5 -11.5t-11.5 -9.5
q-19 -12 -39.5 -20t-46.5 -8z" />
    <glyph glyph-name="tilde" unicode="&#x2dc;" horiz-adv-x="202" 
d="M67 536q-6 0 -4 6q7 32 27.5 51t50.5 19q15 0 28.5 -8.5t24.5 -17t19 -8.5q7 0 13 6t7 15q1 4 3 5.5t3 1.5h39q6 0 4 -6q-6 -29 -28 -49.5t-50 -20.5q-19 0 -32 9t-22.5 17t-18.5 8q-8 0 -13.5 -6t-7.5 -16q-2 -6 -6 -6h-37z" />
    <glyph glyph-name="hungarumlaut" unicode="&#x2dd;" horiz-adv-x="198" 
d="M114 533q-2 -2 -5 -3.5t-10 -1.5h-30q-6 0 -5.5 3t2.5 7l58 107q3 4 7 5t10 1h51q4 0 5 -3t-3 -7zM211 533q-2 -2 -5 -3.5t-10 -1.5h-30q-6 0 -6 3t3 7l65 107q5 6 17 6h51q4 0 5 -3t-3 -7z" />
    <glyph glyph-name="gravecomb" unicode="&#x300;" 
d="M169 529q-9 0 -17 8l-67 89q-3 3 -1 6t5 3h69q7 0 10.5 -1.5t6.5 -7.5l40 -87q7 -10 -2 -10h-44z" />
    <glyph glyph-name="acutecomb" unicode="&#x301;" 
d="M69 528q-6 0 -6 2.5t4 8.5l67 90q4 6 16 6h61q4 0 5.5 -2.5t-3.5 -7.5l-85 -92q-4 -3 -6.5 -4t-8.5 -1h-44z" />
    <glyph glyph-name="uni0302" unicode="&#x302;" 
d="M69 528q-3 0 -3.5 2.5t1.5 4.5l90 93q3 4 8 4h46q5 0 6 -4l50 -93q2 -2 0.5 -4.5t-5.5 -2.5h-42q-4 0 -6 3l-34 46q-4 5 -9 0l-52 -46q-4 -3 -8 -3h-42z" />
    <glyph glyph-name="tildecomb" unicode="&#x303;" 
d="M67 536q-6 0 -4 6q7 32 27.5 51t50.5 19q15 0 28.5 -8.5t24.5 -17t19 -8.5q7 0 13 6t7 15q1 4 3 5.5t3 1.5h39q6 0 4 -6q-6 -29 -28 -49.5t-50 -20.5q-19 0 -32 9t-22.5 17t-18.5 8q-8 0 -13.5 -6t-7.5 -16q-2 -6 -6 -6h-37z" />
    <glyph glyph-name="uni0304" unicode="&#x304;" 
d="M285 543q-1 -2 -2 -3t-7 -1h-204q-5 0 -6 1.5t0 4.5l9 44q1 5 2.5 6t6.5 1h205q5 0 6 -1t0 -5z" />
    <glyph glyph-name="uni0306" unicode="&#x306;" 
d="M166 524q-50 0 -72 21.5t-15 62.5q2 9 4 11.5t9 2.5h38q6 0 7.5 -1.5t0.5 -7.5q-3 -20 7 -29t31 -9t35.5 9t19.5 29q1 6 3.5 7.5t6.5 1.5h40q6 0 6.5 -2.5t-1.5 -11.5q-9 -39 -38.5 -61.5t-81.5 -22.5z" />
    <glyph glyph-name="uni0307" unicode="&#x307;" 
d="M155 575q-4 -20 -14 -30t-35 -10t-31.5 10t-2.5 30q4 18 15 28.5t36 10.5q26 0 31 -10.5t1 -28.5z" />
    <glyph glyph-name="uni0308" unicode="&#x308;" 
d="M161 573q-3 -18 -14 -27.5t-37 -9.5q-24 0 -31 9.5t-4 27.5q4 19 15.5 28.5t35.5 9.5q26 0 32.5 -9.5t2.5 -28.5zM308 573q-4 -18 -14.5 -27.5t-37.5 -9.5q-23 0 -30.5 9.5t-4.5 27.5q4 19 15.5 28.5t35.5 9.5q27 0 33.5 -9.5t2.5 -28.5z" />
    <glyph glyph-name="hookabovecomb" unicode="&#x309;" 
d="M115 524q-2 0 -4 2.5t-1 4.5q3 16 12 25t17 13q10 7 18 12.5t10 15.5q3 17 -18 17q-10 0 -18.5 -3t-18.5 -10q-8 -5 -11 1l-12 25q-2 5 4 9q12 9 33.5 17t44.5 8q31 0 44.5 -17t8.5 -45q-5 -23 -18.5 -33.5t-24.5 -15.5q-7 -4 -12.5 -7.5t-7.5 -11.5q-1 -7 -8 -7h-38z
" />
    <glyph glyph-name="uni030A" unicode="&#x30a;" 
d="M250 592q-8 -37 -33 -59t-71 -22q-48 0 -63 22t-7 59t32.5 59t72.5 22q46 0 61.5 -22t7.5 -59zM208 595q3 14 -3 24t-33 10q-29 0 -38.5 -10t-12.5 -24t1.5 -27t34.5 -13t39 13.5t12 26.5z" />
    <glyph glyph-name="uni030B" unicode="&#x30b;" 
d="M114 533q-2 -2 -5 -3.5t-10 -1.5h-30q-6 0 -5.5 3t2.5 7l58 107q3 4 7 5t10 1h51q4 0 5 -3t-3 -7zM211 533q-2 -2 -5 -3.5t-10 -1.5h-30q-6 0 -6 3t3 7l65 107q5 6 17 6h51q4 0 5 -3t-3 -7z" />
    <glyph glyph-name="uni030C" unicode="&#x30c;" 
d="M134 528q-5 0 -6 3l-42 93q-1 3 1 5.5t5 2.5h42q5 0 6 -4l26 -46q3 -5 9 0l59 46q5 4 9 4h42q4 0 3.5 -2.5t-2.5 -5.5l-98 -93q-4 -3 -9 -3h-45z" />
    <glyph glyph-name="uni0312" unicode="&#x312;" 
d="M75 589q3 19 15 44t27 48.5t27 39.5q4 5 9 6q7 0 17 0.5t18 0.5q4 -1 3.5 -3.5t-5.5 -8.5q-5 -8 -13 -24.5t-16.5 -33.5t-13.5 -29q17 0 22.5 -11t2.5 -25q-3 -19 -15 -30t-38 -13q-21 -1 -32.5 7t-7.5 32z" />
    <glyph glyph-name="uni031B" unicode="&#x31b;" 
d="M182 555q5 2 5 -4q0 -8 -1 -15.5t-3 -14.5q-7 -33 -26.5 -55.5t-48 -34t-64.5 -13.5q-5 0 -4 5l10 44q1 5 5 5q29 2 46.5 14t22.5 37q1 4 1.5 8.5t1.5 8.5q0 4 5 6z" />
    <glyph glyph-name="dotbelowcomb" unicode="&#x323;" 
d="M0 -83q-4 -20 -14 -30t-35 -10t-31.5 10t-2.5 30q4 18 15 28.5t36 10.5q26 0 31 -10.5t1 -28.5z" />
    <glyph glyph-name="uni0326" unicode="&#x326;" 
d="M27 -73q-3 -16 -14.5 -37t-26 -41t-26.5 -34q-5 -5 -9 -5h-16.5h-17.5q-3 1 -2.5 2.5t4.5 8.5q9 12 22 34t21 37q-16 1 -20.5 12t-2.5 22q3 17 15.5 27.5t36.5 10.5q20 0 30.5 -7.5t5.5 -29.5z" />
    <glyph glyph-name="uni0327" unicode="&#x327;" 
d="M106 -122q-6 -28 -35 -51t-71 -23q-29 0 -47.5 11.5t-27.5 27.5q-3 5 -1.5 11t7.5 9l20 9q14 5 18 -4q4 -10 14 -16t21 -6q21 0 33 11t14 23q4 15 -5 22.5t-23.5 11t-29.5 3.5q-7 0 -9 4.5t2 12.5l30 61q3 6 8 7t9 1h24q6 0 3 -9l-23 -64l-9 19q41 -3 63 -20t15 -51z" />
    <glyph glyph-name="uni0328" unicode="&#x328;" 
d="M3 -200q-40 0 -63 22.5t-16 58.5q7 31 27.5 57.5t48.5 48t58 37.5q8 4 17 7t18 3h46q5 0 5 -3.5t-6 -7.5q-44 -25 -74.5 -47.5t-48 -44t-22.5 -43.5q-4 -19 5.5 -27.5t25.5 -8.5q17 1 39.5 10.5t37.5 21.5q6 4 10 3.5t2 -6.5l-7 -32q-1 -6 -5.5 -11.5t-11.5 -9.5
q-19 -12 -39.5 -20t-46.5 -8z" />
    <glyph glyph-name="uni03BC" unicode="&#x3bc;" horiz-adv-x="470" 
d="M207 -4q-19 0 -41 4t-40 9.5t-25 10.5q-5 -35 -7 -74.5t2 -77t15 -68.5h-49.5h-45.5q-8 21 -9.5 61t2.5 89.5t10.5 100t13.5 95.5t14 74q9 44 20 88t22 83t19 65q4 12 8 14t13 2h55q10 0 14 -1t-1 -13q-2 -6 -8.5 -31t-15.5 -61t-18.5 -75.5t-17.5 -74.5q-8 -40 -10 -63
t2 -45q11 -18 32.5 -29t45.5 -11q9 0 24 1t30.5 4t27.5 9t14 16l77 362q1 4 2.5 8t5.5 4h72q3 0 6.5 -1.5t1.5 -7.5l-85 -404q-4 -15 -12.5 -22.5t-29.5 -17.5q-10 -4 -33 -9.5t-49.5 -9.5t-51.5 -4z" />
    <glyph glyph-name="pi" unicode="&#x3c0;" horiz-adv-x="653" 
d="M95 0q-9 0 -11.5 4.5t-0.5 13.5l90 421h-51q-12 0 -14.5 3.5t-0.5 13.5l8 36q2 10 5.5 13.5t15.5 3.5h497q13 0 15 -3.5t0 -13.5l-8 -36q-2 -10 -5 -13.5t-16 -3.5h-51l-90 -421q-2 -9 -4.5 -13.5t-10.5 -4.5h-64q-8 0 -9 4.5t1 13.5l90 421h-219l-90 -421
q-2 -9 -5.5 -13.5t-12.5 -4.5h-59z" />
    <glyph glyph-name="Wgrave" unicode="&#x1e80;" horiz-adv-x="842" 
d="M184 0q-9 0 -12 3t-4 8q-12 42 -22 105t-16.5 136.5t-10 148.5t-3 142.5t4.5 116.5q1 6 2.5 9.5t8.5 3.5h70q6 0 7.5 -2t1.5 -8q-1 -40 -2 -81.5t0 -89.5t3 -107q2 -32 4 -68t5 -71t7 -64.5t8 -48.5q1 -2 2 -5.5t3 -3.5h5q3 0 5 2.5t5 6.5q12 18 28.5 47t35 63t35.5 69
t31.5 65t23.5 52q8 32 15 67.5t13 69.5t11 59t7 36q2 6 3 9.5t8 3.5h71q6 0 7.5 -2t0.5 -9q-19 -94 -25 -180t0 -171t21 -176l1.5 -9t2.5 -3h3.5h3.5q3 0 7 7q23 38 48 85.5t49 96t43 88.5q29 62 60.5 132t52.5 127q3 8 5.5 10.5t6.5 2.5h73q11 0 4 -15q-14 -35 -36.5 -86.5
t-50 -112.5t-58.5 -125.5t-62 -125t-60 -111t-54 -84.5q-2 -4 -7 -8.5t-11 -4.5h-23h-29h-23q-4 0 -8 4t-5 8q-8 32 -15.5 74t-13.5 92t-10 105q0 6 -3 7t-7 -6q-24 -50 -51.5 -102t-54 -96.5t-46.5 -72.5q-4 -7 -9 -10t-9 -3h-72zM525 718q-5 0 -8 2.5t-8 5.5l-73 74
q-2 2 0 5.5t5 3.5h69q7 0 9.5 -2t6.5 -7l48 -71q3 -4 2.5 -7.5t-6.5 -3.5h-45z" />
    <glyph glyph-name="wgrave" unicode="&#x1e81;" horiz-adv-x="633" 
d="M131 0q-6 0 -9 2.5t-5 8.5q-17 54 -28 115t-17 120.5t-7.5 111.5t0.5 91q0 10 2.5 16.5t9.5 6.5h70q11 0 11 -11q-2 -31 -1.5 -70t2.5 -79.5t5 -77t6.5 -64.5t6.5 -41q5 -20 17 -4q12 15 26.5 41t28 55t23.5 55t14 41q3 17 7 37.5t8 40.5t8 37.5t6 27.5q2 12 12 12h74
q4 0 7 -2.5t2 -8.5q-5 -24 -12 -60.5t-16 -84.5q-2 -16 -2 -38t2 -46t5.5 -46.5t6.5 -39.5t6 -26q3 -15 12 -1q12 17 28.5 47t35.5 67t37 77.5t34.5 79t26.5 69.5q5 13 19 13h64q6 0 6.5 -5.5t-2.5 -15.5q-12 -34 -31.5 -78t-44 -92.5t-51 -97.5t-55 -93t-55.5 -78
q-4 -7 -8 -9.5t-10 -2.5h-49q-6 0 -8.5 2t-4.5 7q-7 19 -14 45.5t-12.5 55t-8.5 49.5q-2 9 -6.5 9t-8.5 -8q-7 -12 -17 -29.5t-21 -35t-20 -32.5q-10 -14 -21 -29t-18 -25q-3 -4 -7.5 -6.5t-9.5 -2.5h-49zM371 529q-9 0 -17 8l-67 89q-3 3 -1 6t5 3h69q7 0 10.5 -1.5
t6.5 -7.5l40 -87q7 -10 -2 -10h-44z" />
    <glyph glyph-name="Wacute" unicode="&#x1e82;" horiz-adv-x="842" 
d="M184 0q-9 0 -12 3t-4 8q-12 42 -22 105t-16.5 136.5t-10 148.5t-3 142.5t4.5 116.5q1 6 2.5 9.5t8.5 3.5h70q6 0 7.5 -2t1.5 -8q-1 -40 -2 -81.5t0 -89.5t3 -107q2 -32 4 -68t5 -71t7 -64.5t8 -48.5q1 -2 2 -5.5t3 -3.5h5q3 0 5 2.5t5 6.5q12 18 28.5 47t35 63t35.5 69
t31.5 65t23.5 52q8 32 15 67.5t13 69.5t11 59t7 36q2 6 3 9.5t8 3.5h71q6 0 7.5 -2t0.5 -9q-19 -94 -25 -180t0 -171t21 -176l1.5 -9t2.5 -3h3.5h3.5q3 0 7 7q23 38 48 85.5t49 96t43 88.5q29 62 60.5 132t52.5 127q3 8 5.5 10.5t6.5 2.5h73q11 0 4 -15q-14 -35 -36.5 -86.5
t-50 -112.5t-58.5 -125.5t-62 -125t-60 -111t-54 -84.5q-2 -4 -7 -8.5t-11 -4.5h-23h-29h-23q-4 0 -8 4t-5 8q-8 32 -15.5 74t-13.5 92t-10 105q0 6 -3 7t-7 -6q-24 -50 -51.5 -102t-54 -96.5t-46.5 -72.5q-4 -7 -9 -10t-9 -3h-72zM516 718h-45q-6 0 -6 3.5t4 7.5l62 71
q4 5 7 7t10 2h69q3 0 5 -3.5t-1 -5.5l-88 -74q-5 -3 -8.5 -5.5t-8.5 -2.5z" />
    <glyph glyph-name="wacute" unicode="&#x1e83;" horiz-adv-x="633" 
d="M131 0q-6 0 -9 2.5t-5 8.5q-17 54 -28 115t-17 120.5t-7.5 111.5t0.5 91q0 10 2.5 16.5t9.5 6.5h70q11 0 11 -11q-2 -31 -1.5 -70t2.5 -79.5t5 -77t6.5 -64.5t6.5 -41q5 -20 17 -4q12 15 26.5 41t28 55t23.5 55t14 41q3 17 7 37.5t8 40.5t8 37.5t6 27.5q2 12 12 12h74
q4 0 7 -2.5t2 -8.5q-5 -24 -12 -60.5t-16 -84.5q-2 -16 -2 -38t2 -46t5.5 -46.5t6.5 -39.5t6 -26q3 -15 12 -1q12 17 28.5 47t35.5 67t37 77.5t34.5 79t26.5 69.5q5 13 19 13h64q6 0 6.5 -5.5t-2.5 -15.5q-12 -34 -31.5 -78t-44 -92.5t-51 -97.5t-55 -93t-55.5 -78
q-4 -7 -8 -9.5t-10 -2.5h-49q-6 0 -8.5 2t-4.5 7q-7 19 -14 45.5t-12.5 55t-8.5 49.5q-2 9 -6.5 9t-8.5 -8q-7 -12 -17 -29.5t-21 -35t-20 -32.5q-10 -14 -21 -29t-18 -25q-3 -4 -7.5 -6.5t-9.5 -2.5h-49zM341 528q-6 0 -6 2.5t4 8.5l67 90q4 6 16 6h61q4 0 5.5 -2.5
t-3.5 -7.5l-85 -92q-4 -3 -6.5 -4t-8.5 -1h-44z" />
    <glyph glyph-name="Wdieresis" unicode="&#x1e84;" horiz-adv-x="842" 
d="M184 0q-9 0 -12 3t-4 8q-12 42 -22 105t-16.5 136.5t-10 148.5t-3 142.5t4.5 116.5q1 6 2.5 9.5t8.5 3.5h70q6 0 7.5 -2t1.5 -8q-1 -40 -2 -81.5t0 -89.5t3 -107q2 -32 4 -68t5 -71t7 -64.5t8 -48.5q1 -2 2 -5.5t3 -3.5h5q3 0 5 2.5t5 6.5q12 18 28.5 47t35 63t35.5 69
t31.5 65t23.5 52q8 32 15 67.5t13 69.5t11 59t7 36q2 6 3 9.5t8 3.5h71q6 0 7.5 -2t0.5 -9q-19 -94 -25 -180t0 -171t21 -176l1.5 -9t2.5 -3h3.5h3.5q3 0 7 7q23 38 48 85.5t49 96t43 88.5q29 62 60.5 132t52.5 127q3 8 5.5 10.5t6.5 2.5h73q11 0 4 -15q-14 -35 -36.5 -86.5
t-50 -112.5t-58.5 -125.5t-62 -125t-60 -111t-54 -84.5q-2 -4 -7 -8.5t-11 -4.5h-23h-29h-23q-4 0 -8 4t-5 8q-8 32 -15.5 74t-13.5 92t-10 105q0 6 -3 7t-7 -6q-24 -50 -51.5 -102t-54 -96.5t-46.5 -72.5q-4 -7 -9 -10t-9 -3h-72zM504 773q-3 -18 -14 -27.5t-37 -9.5
q-24 0 -31 9.5t-4 27.5q4 19 15.5 28.5t35.5 9.5q26 0 32.5 -9.5t2.5 -28.5zM651 773q-4 -18 -14.5 -27.5t-37.5 -9.5q-23 0 -30.5 9.5t-4.5 27.5q4 19 15.5 28.5t35.5 9.5q27 0 33.5 -9.5t2.5 -28.5z" />
    <glyph glyph-name="wdieresis" unicode="&#x1e85;" horiz-adv-x="633" 
d="M131 0q-6 0 -9 2.5t-5 8.5q-17 54 -28 115t-17 120.5t-7.5 111.5t0.5 91q0 10 2.5 16.5t9.5 6.5h70q11 0 11 -11q-2 -31 -1.5 -70t2.5 -79.5t5 -77t6.5 -64.5t6.5 -41q5 -20 17 -4q12 15 26.5 41t28 55t23.5 55t14 41q3 17 7 37.5t8 40.5t8 37.5t6 27.5q2 12 12 12h74
q4 0 7 -2.5t2 -8.5q-5 -24 -12 -60.5t-16 -84.5q-2 -16 -2 -38t2 -46t5.5 -46.5t6.5 -39.5t6 -26q3 -15 12 -1q12 17 28.5 47t35.5 67t37 77.5t34.5 79t26.5 69.5q5 13 19 13h64q6 0 6.5 -5.5t-2.5 -15.5q-12 -34 -31.5 -78t-44 -92.5t-51 -97.5t-55 -93t-55.5 -78
q-4 -7 -8 -9.5t-10 -2.5h-49q-6 0 -8.5 2t-4.5 7q-7 19 -14 45.5t-12.5 55t-8.5 49.5q-2 9 -6.5 9t-8.5 -8q-7 -12 -17 -29.5t-21 -35t-20 -32.5q-10 -14 -21 -29t-18 -25q-3 -4 -7.5 -6.5t-9.5 -2.5h-49zM357 573q-3 -18 -14 -27.5t-37 -9.5q-24 0 -31 9.5t-4 27.5
q4 19 15.5 28.5t35.5 9.5q26 0 32.5 -9.5t2.5 -28.5zM504 573q-4 -18 -14.5 -27.5t-37.5 -9.5q-23 0 -30.5 9.5t-4.5 27.5q4 19 15.5 28.5t35.5 9.5q27 0 33.5 -9.5t2.5 -28.5z" />
    <glyph glyph-name="uni1E9E" unicode="&#x1e9e;" horiz-adv-x="899" 
d="M11 30l13 59q1 6 4.5 5.5t10.5 -3.5q18 -6 42 -12t47.5 -9.5t40.5 -3.5q65 0 105 35.5t51 89.5q9 40 -2.5 63.5t-35.5 37t-54 21.5q-25 7 -54 17.5t-52.5 29.5t-34 52t1.5 86q13 64 50.5 103.5t89 57.5t106.5 18q16 0 40.5 -3t50 -9.5t42.5 -15.5q5 -1 7 -4t0 -8l-11 -53
q-4 -18 -23 -6q-15 8 -35 14.5t-41.5 10.5t-38.5 4q-54 0 -94 -27.5t-50 -74.5q-7 -34 3.5 -55.5t32 -33.5t47.5 -20t49 -16q28 -9 51 -21.5t38 -32.5t19 -51t-6 -77q-14 -68 -51 -113.5t-92.5 -69.5t-123.5 -24q-29 0 -66 7t-66 17q-7 2 -10 5.5t-1 9.5zM427 30l13 59
q1 6 4.5 5.5t10.5 -3.5q18 -6 42 -12t47.5 -9.5t40.5 -3.5q65 0 105 35.5t51 89.5q9 40 -2.5 63.5t-35.5 37t-54 21.5q-25 7 -54 17.5t-52.5 29.5t-34 52t1.5 86q13 64 50.5 103.5t89 57.5t106.5 18q16 0 40.5 -3t50 -9.5t42.5 -15.5q5 -1 7 -4t0 -8l-11 -53q-4 -18 -23 -6
q-15 8 -35 14.5t-41.5 10.5t-38.5 4q-54 0 -94 -27.5t-50 -74.5q-7 -34 3.5 -55.5t32 -33.5t47.5 -20t49 -16q28 -9 51 -21.5t38 -32.5t19 -51t-6 -77q-14 -68 -51 -113.5t-92.5 -69.5t-123.5 -24q-29 0 -66 7t-66 17q-7 2 -10 5.5t-1 9.5z" />
    <glyph glyph-name="uni1EA0" unicode="&#x1ea0;" horiz-adv-x="562" 
d="M-5 0q-6 0 -6.5 4.5t4.5 17.5q16 47 44 112t62.5 138.5t72 147t73.5 136t66 104.5q5 6 9.5 9.5t9.5 3.5h87q5 -1 8 -3.5t5 -9.5q12 -41 21.5 -104t16 -137t10 -148.5t3.5 -139t-3 -108.5q-1 -14 -3 -18.5t-9 -4.5h-71q-6 0 -7.5 3t-1.5 15q2 26 2 61v69q1 6 -1 7.5
t-9 1.5h-229q-6 0 -8.5 -1.5t-5.5 -8.5q-13 -33 -28 -68t-25 -61q-5 -12 -7.5 -15t-7.5 -3h-72zM184 229h190q5 0 7.5 3t2.5 12q-3 74 -7 150.5t-16 143.5q0 7 -7 7h-15q-5 0 -10 -7q-21 -35 -47.5 -85t-53 -105.5t-50.5 -107.5q-2 -4 -1.5 -7.5t7.5 -3.5zM254 -83
q-4 -20 -14 -30t-35 -10t-31.5 10t-2.5 30q4 18 15 28.5t36 10.5q26 0 31 -10.5t1 -28.5z" />
    <glyph glyph-name="uni1EA1" unicode="&#x1ea1;" horiz-adv-x="482" 
d="M183 -6q-97 0 -135 57.5t-11 178.5q16 76 44.5 123.5t64 74t72.5 36.5t71 10q30 0 57 -10t38 -20l5 20q1 4 4 5.5t7 1.5h68q10 0 9 -9q-3 -21 -10 -56.5t-17 -80t-22 -93.5t-25 -97.5t-26 -90.5q-4 -8 -9 -14t-22 -11q-27 -10 -72.5 -17.5t-90.5 -7.5zM204 64
q15 0 32 2.5t31 6t19 4.5q6 2 11 6t8 13q6 24 13 53t14.5 59.5t14 59.5t11.5 53t8 38q2 6 -0.5 10.5t-8.5 7.5q-15 7 -35 14t-45 7q-17 0 -38 -6t-42.5 -23t-39.5 -50.5t-30 -89.5q-20 -93 1 -129t76 -36zM207 -83q-4 -20 -14 -30t-35 -10t-31.5 10t-2.5 30q4 18 15 28.5
t36 10.5q26 0 31 -10.5t1 -28.5z" />
    <glyph glyph-name="uni1EA2" unicode="&#x1ea2;" horiz-adv-x="562" 
d="M-5 0q-6 0 -6.5 4.5t4.5 17.5q16 47 44 112t62.5 138.5t72 147t73.5 136t66 104.5q5 6 9.5 9.5t9.5 3.5h87q5 -1 8 -3.5t5 -9.5q12 -41 21.5 -104t16 -137t10 -148.5t3.5 -139t-3 -108.5q-1 -14 -3 -18.5t-9 -4.5h-71q-6 0 -7.5 3t-1.5 15q2 26 2 61v69q1 6 -1 7.5
t-9 1.5h-229q-6 0 -8.5 -1.5t-5.5 -8.5q-13 -33 -28 -68t-25 -61q-5 -12 -7.5 -15t-7.5 -3h-72zM184 229h190q5 0 7.5 3t2.5 12q-3 74 -7 150.5t-16 143.5q0 7 -7 7h-15q-5 0 -10 -7q-21 -35 -47.5 -85t-53 -105.5t-50.5 -107.5q-2 -4 -1.5 -7.5t7.5 -3.5zM358 712
q-2 0 -4 2t-1 4q3 18 12.5 26.5t17.5 12.5q9 7 17.5 12.5t10.5 15.5q4 18 -19 18q-10 0 -19.5 -3.5t-19.5 -10.5q-8 -5 -10 1l-11 24q-1 3 0 5t4 3q12 10 33.5 17.5t43.5 7.5q30 0 43.5 -16.5t7.5 -43.5q-5 -23 -18 -33.5t-24 -15.5q-8 -4 -13.5 -7.5t-7.5 -12.5q0 -6 -8 -6
h-35z" />
    <glyph glyph-name="uni1EA3" unicode="&#x1ea3;" horiz-adv-x="482" 
d="M183 -6q-97 0 -135 57.5t-11 178.5q16 76 44.5 123.5t64 74t72.5 36.5t71 10q30 0 57 -10t38 -20l5 20q1 4 4 5.5t7 1.5h68q10 0 9 -9q-3 -21 -10 -56.5t-17 -80t-22 -93.5t-25 -97.5t-26 -90.5q-4 -8 -9 -14t-22 -11q-27 -10 -72.5 -17.5t-90.5 -7.5zM204 64
q15 0 32 2.5t31 6t19 4.5q6 2 11 6t8 13q6 24 13 53t14.5 59.5t14 59.5t11.5 53t8 38q2 6 -0.5 10.5t-8.5 7.5q-15 7 -35 14t-45 7q-17 0 -38 -6t-42.5 -23t-39.5 -50.5t-30 -89.5q-20 -93 1 -129t76 -36zM311 522q-2 0 -4 2.5t-1 4.5q3 16 12 25t17 13q10 7 18 12.5
t10 15.5q3 17 -18 17q-10 0 -18.5 -3t-18.5 -10q-8 -5 -11 1l-12 25q-2 5 4 9q12 9 33.5 17t44.5 8q31 0 44.5 -17t8.5 -45q-5 -23 -18.5 -33.5t-24.5 -15.5q-7 -4 -12.5 -7.5t-7.5 -11.5q-1 -7 -8 -7h-38z" />
    <glyph glyph-name="uni1EA4" unicode="&#x1ea4;" horiz-adv-x="562" 
d="M-5 0q-6 0 -6.5 4.5t4.5 17.5q16 47 44 112t62.5 138.5t72 147t73.5 136t66 104.5q5 6 9.5 9.5t9.5 3.5h87q5 -1 8 -3.5t5 -9.5q12 -41 21.5 -104t16 -137t10 -148.5t3.5 -139t-3 -108.5q-1 -14 -3 -18.5t-9 -4.5h-71q-6 0 -7.5 3t-1.5 15q2 26 2 61v69q1 6 -1 7.5
t-9 1.5h-229q-6 0 -8.5 -1.5t-5.5 -8.5q-13 -33 -28 -68t-25 -61q-5 -12 -7.5 -15t-7.5 -3h-72zM184 229h190q5 0 7.5 3t2.5 12q-3 74 -7 150.5t-16 143.5q0 7 -7 7h-15q-5 0 -10 -7q-21 -35 -47.5 -85t-53 -105.5t-50.5 -107.5q-2 -4 -1.5 -7.5t7.5 -3.5zM279 717
q-3 0 -3.5 2.5t2.5 5.5l88 80q4 5 9 5h49q6 0 8 -5l55 -80q1 -3 -0.5 -5.5t-5.5 -2.5h-39q-4 0 -6.5 1.5t-6.5 4.5l-34 37q-3 4 -10 0l-52 -38q-3 -2 -6 -3.5t-7 -1.5h-41zM544 771h-45q-6 0 -6 3.5t4 7.5l62 71q4 5 7 7t10 2h69q3 0 5 -3.5t-1 -5.5l-88 -74
q-5 -3 -8.5 -5.5t-8.5 -2.5z" />
    <glyph glyph-name="uni1EA5" unicode="&#x1ea5;" horiz-adv-x="482" 
d="M183 -6q-97 0 -135 57.5t-11 178.5q16 76 44.5 123.5t64 74t72.5 36.5t71 10q30 0 57 -10t38 -20l5 20q1 4 4 5.5t7 1.5h68q10 0 9 -9q-3 -21 -10 -56.5t-17 -80t-22 -93.5t-25 -97.5t-26 -90.5q-4 -8 -9 -14t-22 -11q-27 -10 -72.5 -17.5t-90.5 -7.5zM204 64
q15 0 32 2.5t31 6t19 4.5q6 2 11 6t8 13q6 24 13 53t14.5 59.5t14 59.5t11.5 53t8 38q2 6 -0.5 10.5t-8.5 7.5q-15 7 -35 14t-45 7q-17 0 -38 -6t-42.5 -23t-39.5 -50.5t-30 -89.5q-20 -93 1 -129t76 -36zM232 528q-3 0 -3.5 2.5t1.5 4.5l90 93q3 4 8 4h46q5 0 6 -4l50 -93
q2 -2 0.5 -4.5t-5.5 -2.5h-42q-4 0 -6 3l-34 46q-4 5 -9 0l-52 -46q-4 -3 -8 -3h-42zM463 585q-6 0 -6 2.5t4 8.5l67 90q4 6 16 6h61q4 0 5.5 -2.5t-3.5 -7.5l-85 -92q-4 -3 -6.5 -4t-8.5 -1h-44z" />
    <glyph glyph-name="uni1EA6" unicode="&#x1ea6;" horiz-adv-x="562" 
d="M-5 0q-6 0 -6.5 4.5t4.5 17.5q16 47 44 112t62.5 138.5t72 147t73.5 136t66 104.5q5 6 9.5 9.5t9.5 3.5h87q5 -1 8 -3.5t5 -9.5q12 -41 21.5 -104t16 -137t10 -148.5t3.5 -139t-3 -108.5q-1 -14 -3 -18.5t-9 -4.5h-71q-6 0 -7.5 3t-1.5 15q2 26 2 61v69q1 6 -1 7.5
t-9 1.5h-229q-6 0 -8.5 -1.5t-5.5 -8.5q-13 -33 -28 -68t-25 -61q-5 -12 -7.5 -15t-7.5 -3h-72zM184 229h190q5 0 7.5 3t2.5 12q-3 74 -7 150.5t-16 143.5q0 7 -7 7h-15q-5 0 -10 -7q-21 -35 -47.5 -85t-53 -105.5t-50.5 -107.5q-2 -4 -1.5 -7.5t7.5 -3.5zM279 717
q-3 0 -3.5 2.5t2.5 5.5l88 80q4 5 9 5h49q6 0 8 -5l55 -80q1 -3 -0.5 -5.5t-5.5 -2.5h-39q-4 0 -6.5 1.5t-6.5 4.5l-34 37q-3 4 -10 0l-52 -38q-3 -2 -6 -3.5t-7 -1.5h-41zM536 779q-5 0 -8 2.5t-8 5.5l-73 74q-2 2 0 5.5t5 3.5h69q7 0 9.5 -2t6.5 -7l48 -71q3 -4 2.5 -7.5
t-6.5 -3.5h-45z" />
    <glyph glyph-name="uni1EA7" unicode="&#x1ea7;" horiz-adv-x="482" 
d="M183 -6q-97 0 -135 57.5t-11 178.5q16 76 44.5 123.5t64 74t72.5 36.5t71 10q30 0 57 -10t38 -20l5 20q1 4 4 5.5t7 1.5h68q10 0 9 -9q-3 -21 -10 -56.5t-17 -80t-22 -93.5t-25 -97.5t-26 -90.5q-4 -8 -9 -14t-22 -11q-27 -10 -72.5 -17.5t-90.5 -7.5zM204 64
q15 0 32 2.5t31 6t19 4.5q6 2 11 6t8 13q6 24 13 53t14.5 59.5t14 59.5t11.5 53t8 38q2 6 -0.5 10.5t-8.5 7.5q-15 7 -35 14t-45 7q-17 0 -38 -6t-42.5 -23t-39.5 -50.5t-30 -89.5q-20 -93 1 -129t76 -36zM232 528q-3 0 -3.5 2.5t1.5 4.5l90 93q3 4 8 4h46q5 0 6 -4l50 -93
q2 -2 0.5 -4.5t-5.5 -2.5h-42q-4 0 -6 3l-34 46q-4 5 -9 0l-52 -46q-4 -3 -8 -3h-42zM493 586q-9 0 -17 8l-67 89q-3 3 -1 6t5 3h69q7 0 10.5 -1.5t6.5 -7.5l40 -87q7 -10 -2 -10h-44z" />
    <glyph glyph-name="uni1EA8" unicode="&#x1ea8;" horiz-adv-x="562" 
d="M-5 0q-6 0 -6.5 4.5t4.5 17.5q16 47 44 112t62.5 138.5t72 147t73.5 136t66 104.5q5 6 9.5 9.5t9.5 3.5h87q5 -1 8 -3.5t5 -9.5q12 -41 21.5 -104t16 -137t10 -148.5t3.5 -139t-3 -108.5q-1 -14 -3 -18.5t-9 -4.5h-71q-6 0 -7.5 3t-1.5 15q2 26 2 61v69q1 6 -1 7.5
t-9 1.5h-229q-6 0 -8.5 -1.5t-5.5 -8.5q-13 -33 -28 -68t-25 -61q-5 -12 -7.5 -15t-7.5 -3h-72zM184 229h190q5 0 7.5 3t2.5 12q-3 74 -7 150.5t-16 143.5q0 7 -7 7h-15q-5 0 -10 -7q-21 -35 -47.5 -85t-53 -105.5t-50.5 -107.5q-2 -4 -1.5 -7.5t7.5 -3.5zM279 717
q-3 0 -3.5 2.5t2.5 5.5l88 80q4 5 9 5h49q6 0 8 -5l55 -80q1 -3 -0.5 -5.5t-5.5 -2.5h-39q-4 0 -6.5 1.5t-6.5 4.5l-34 37q-3 4 -10 0l-52 -38q-3 -2 -6 -3.5t-7 -1.5h-41zM506 770q-2 0 -4 2t-1 4q3 18 12.5 26.5t17.5 12.5q9 7 17.5 12.5t10.5 15.5q4 18 -19 18
q-10 0 -19.5 -3.5t-19.5 -10.5q-8 -5 -10 1l-11 24q-1 3 0 5t4 3q12 10 33.5 17.5t43.5 7.5q30 0 43.5 -16.5t7.5 -43.5q-5 -23 -18 -33.5t-24 -15.5q-8 -4 -13.5 -7.5t-7.5 -12.5q0 -6 -8 -6h-35z" />
    <glyph glyph-name="uni1EA9" unicode="&#x1ea9;" horiz-adv-x="482" 
d="M183 -6q-97 0 -135 57.5t-11 178.5q16 76 44.5 123.5t64 74t72.5 36.5t71 10q30 0 57 -10t38 -20l5 20q1 4 4 5.5t7 1.5h68q10 0 9 -9q-3 -21 -10 -56.5t-17 -80t-22 -93.5t-25 -97.5t-26 -90.5q-4 -8 -9 -14t-22 -11q-27 -10 -72.5 -17.5t-90.5 -7.5zM204 64
q15 0 32 2.5t31 6t19 4.5q6 2 11 6t8 13q6 24 13 53t14.5 59.5t14 59.5t11.5 53t8 38q2 6 -0.5 10.5t-8.5 7.5q-15 7 -35 14t-45 7q-17 0 -38 -6t-42.5 -23t-39.5 -50.5t-30 -89.5q-20 -93 1 -129t76 -36zM232 528q-3 0 -3.5 2.5t1.5 4.5l90 93q3 4 8 4h46q5 0 6 -4l50 -93
q2 -2 0.5 -4.5t-5.5 -2.5h-42q-4 0 -6 3l-34 46q-4 5 -9 0l-52 -46q-4 -3 -8 -3h-42zM457 586q-2 0 -4 2.5t-1 4.5q3 16 12 25t17 13q10 7 18 12.5t10 15.5q3 17 -18 17q-10 0 -18.5 -3t-18.5 -10q-8 -5 -11 1l-12 25q-2 5 4 9q12 9 33.5 17t44.5 8q31 0 44.5 -17t8.5 -45
q-5 -23 -18.5 -33.5t-24.5 -15.5q-7 -4 -12.5 -7.5t-7.5 -11.5q-1 -7 -8 -7h-38z" />
    <glyph glyph-name="uni1EAA" unicode="&#x1eaa;" horiz-adv-x="562" 
d="M-5 0q-6 0 -6.5 4.5t4.5 17.5q16 47 44 112t62.5 138.5t72 147t73.5 136t66 104.5q5 6 9.5 9.5t9.5 3.5h87q5 -1 8 -3.5t5 -9.5q12 -41 21.5 -104t16 -137t10 -148.5t3.5 -139t-3 -108.5q-1 -14 -3 -18.5t-9 -4.5h-71q-6 0 -7.5 3t-1.5 15q2 26 2 61v69q1 6 -1 7.5
t-9 1.5h-229q-6 0 -8.5 -1.5t-5.5 -8.5q-13 -33 -28 -68t-25 -61q-5 -12 -7.5 -15t-7.5 -3h-72zM184 229h190q5 0 7.5 3t2.5 12q-3 74 -7 150.5t-16 143.5q0 7 -7 7h-15q-5 0 -10 -7q-21 -35 -47.5 -85t-53 -105.5t-50.5 -107.5q-2 -4 -1.5 -7.5t7.5 -3.5zM279 717
q-3 0 -3.5 2.5t2.5 5.5l88 80q4 5 9 5h49q6 0 8 -5l55 -80q1 -3 -0.5 -5.5t-5.5 -2.5h-39q-4 0 -6.5 1.5t-6.5 4.5l-34 37q-3 4 -10 0l-52 -38q-3 -2 -6 -3.5t-7 -1.5h-41zM314 832q-6 0 -4 6q7 33 28 54t49 21q15 0 28 -9.5t23.5 -19t18.5 -9.5q6 0 11.5 6.5t8.5 17.5
q1 7 6 7h37q5 0 4 -7q-6 -29 -28 -51t-49 -22q-18 0 -30.5 9.5t-21.5 18.5t-18 9q-7 0 -13 -7t-8 -18q0 -6 -6 -6h-36z" />
    <glyph glyph-name="uni1EAB" unicode="&#x1eab;" horiz-adv-x="482" 
d="M183 -6q-97 0 -135 57.5t-11 178.5q16 76 44.5 123.5t64 74t72.5 36.5t71 10q30 0 57 -10t38 -20l5 20q1 4 4 5.5t7 1.5h68q10 0 9 -9q-3 -21 -10 -56.5t-17 -80t-22 -93.5t-25 -97.5t-26 -90.5q-4 -8 -9 -14t-22 -11q-27 -10 -72.5 -17.5t-90.5 -7.5zM204 64
q15 0 32 2.5t31 6t19 4.5q6 2 11 6t8 13q6 24 13 53t14.5 59.5t14 59.5t11.5 53t8 38q2 6 -0.5 10.5t-8.5 7.5q-15 7 -35 14t-45 7q-17 0 -38 -6t-42.5 -23t-39.5 -50.5t-30 -89.5q-20 -93 1 -129t76 -36zM232 528q-3 0 -3.5 2.5t1.5 4.5l90 93q3 4 8 4h46q5 0 6 -4l50 -93
q2 -2 0.5 -4.5t-5.5 -2.5h-42q-4 0 -6 3l-34 46q-4 5 -9 0l-52 -46q-4 -3 -8 -3h-42zM262 659q-6 0 -4 6q7 32 27.5 51t50.5 19q15 0 28.5 -8.5t24.5 -17t19 -8.5q7 0 13 6t7 15q1 4 3 5.5t3 1.5h39q6 0 4 -6q-6 -29 -28 -49.5t-50 -20.5q-19 0 -32 9t-22.5 17t-18.5 8
q-8 0 -13.5 -6t-7.5 -16q-2 -6 -6 -6h-37z" />
    <glyph glyph-name="uni1EAC" unicode="&#x1eac;" horiz-adv-x="562" 
d="M-5 0q-6 0 -6.5 4.5t4.5 17.5q16 47 44 112t62.5 138.5t72 147t73.5 136t66 104.5q5 6 9.5 9.5t9.5 3.5h87q5 -1 8 -3.5t5 -9.5q12 -41 21.5 -104t16 -137t10 -148.5t3.5 -139t-3 -108.5q-1 -14 -3 -18.5t-9 -4.5h-71q-6 0 -7.5 3t-1.5 15q2 26 2 61v69q1 6 -1 7.5
t-9 1.5h-229q-6 0 -8.5 -1.5t-5.5 -8.5q-13 -33 -28 -68t-25 -61q-5 -12 -7.5 -15t-7.5 -3h-72zM184 229h190q5 0 7.5 3t2.5 12q-3 74 -7 150.5t-16 143.5q0 7 -7 7h-15q-5 0 -10 -7q-21 -35 -47.5 -85t-53 -105.5t-50.5 -107.5q-2 -4 -1.5 -7.5t7.5 -3.5zM254 -83
q-4 -20 -14 -30t-35 -10t-31.5 10t-2.5 30q4 18 15 28.5t36 10.5q26 0 31 -10.5t1 -28.5zM279 717q-3 0 -3.5 2.5t2.5 5.5l88 80q4 5 9 5h49q6 0 8 -5l55 -80q1 -3 -0.5 -5.5t-5.5 -2.5h-39q-4 0 -6.5 1.5t-6.5 4.5l-34 37q-3 4 -10 0l-52 -38q-3 -2 -6 -3.5t-7 -1.5h-41z
" />
    <glyph glyph-name="uni1EAD" unicode="&#x1ead;" horiz-adv-x="482" 
d="M183 -6q-97 0 -135 57.5t-11 178.5q16 76 44.5 123.5t64 74t72.5 36.5t71 10q30 0 57 -10t38 -20l5 20q1 4 4 5.5t7 1.5h68q10 0 9 -9q-3 -21 -10 -56.5t-17 -80t-22 -93.5t-25 -97.5t-26 -90.5q-4 -8 -9 -14t-22 -11q-27 -10 -72.5 -17.5t-90.5 -7.5zM204 64
q15 0 32 2.5t31 6t19 4.5q6 2 11 6t8 13q6 24 13 53t14.5 59.5t14 59.5t11.5 53t8 38q2 6 -0.5 10.5t-8.5 7.5q-15 7 -35 14t-45 7q-17 0 -38 -6t-42.5 -23t-39.5 -50.5t-30 -89.5q-20 -93 1 -129t76 -36zM207 -83q-4 -20 -14 -30t-35 -10t-31.5 10t-2.5 30q4 18 15 28.5
t36 10.5q26 0 31 -10.5t1 -28.5zM232 528q-3 0 -3.5 2.5t1.5 4.5l90 93q3 4 8 4h46q5 0 6 -4l50 -93q2 -2 0.5 -4.5t-5.5 -2.5h-42q-4 0 -6 3l-34 46q-4 5 -9 0l-52 -46q-4 -3 -8 -3h-42z" />
    <glyph glyph-name="uni1EAE" unicode="&#x1eae;" horiz-adv-x="562" 
d="M-5 0q-6 0 -6.5 4.5t4.5 17.5q16 47 44 112t62.5 138.5t72 147t73.5 136t66 104.5q5 6 9.5 9.5t9.5 3.5h87q5 -1 8 -3.5t5 -9.5q12 -41 21.5 -104t16 -137t10 -148.5t3.5 -139t-3 -108.5q-1 -14 -3 -18.5t-9 -4.5h-71q-6 0 -7.5 3t-1.5 15q2 26 2 61v69q1 6 -1 7.5
t-9 1.5h-229q-6 0 -8.5 -1.5t-5.5 -8.5q-13 -33 -28 -68t-25 -61q-5 -12 -7.5 -15t-7.5 -3h-72zM184 229h190q5 0 7.5 3t2.5 12q-3 74 -7 150.5t-16 143.5q0 7 -7 7h-15q-5 0 -10 -7q-21 -35 -47.5 -85t-53 -105.5t-50.5 -107.5q-2 -4 -1.5 -7.5t7.5 -3.5zM380 713
q-45 0 -64.5 21t-12.5 61q1 7 3 9t8 2h33q6 0 7.5 -1t0.5 -7q-3 -20 6.5 -29.5t28.5 -9.5t33 9.5t19 30.5q1 5 3.5 6t5.5 1h35q4 0 5.5 -1.5t-0.5 -9.5q-8 -39 -36 -60.5t-75 -21.5zM399 841h-45q-6 0 -6 3.5t4 7.5l62 71q4 5 7 7t10 2h69q3 0 5 -3.5t-1 -5.5l-88 -74
q-5 -3 -8.5 -5.5t-8.5 -2.5z" />
    <glyph glyph-name="uni1EAF" unicode="&#x1eaf;" horiz-adv-x="482" 
d="M183 -6q-97 0 -135 57.5t-11 178.5q16 76 44.5 123.5t64 74t72.5 36.5t71 10q30 0 57 -10t38 -20l5 20q1 4 4 5.5t7 1.5h68q10 0 9 -9q-3 -21 -10 -56.5t-17 -80t-22 -93.5t-25 -97.5t-26 -90.5q-4 -8 -9 -14t-22 -11q-27 -10 -72.5 -17.5t-90.5 -7.5zM204 64
q15 0 32 2.5t31 6t19 4.5q6 2 11 6t8 13q6 24 13 53t14.5 59.5t14 59.5t11.5 53t8 38q2 6 -0.5 10.5t-8.5 7.5q-15 7 -35 14t-45 7q-17 0 -38 -6t-42.5 -23t-39.5 -50.5t-30 -89.5q-20 -93 1 -129t76 -36zM331 524q-50 0 -72 21.5t-15 62.5q2 9 4 11.5t9 2.5h38
q6 0 7.5 -1.5t0.5 -7.5q-3 -20 7 -29t31 -9t35.5 9t19.5 29q1 6 3.5 7.5t6.5 1.5h40q6 0 6.5 -2.5t-1.5 -11.5q-9 -39 -38.5 -61.5t-81.5 -22.5zM318 647q-6 0 -6 2.5t4 8.5l67 90q4 6 16 6h61q4 0 5.5 -2.5t-3.5 -7.5l-85 -92q-4 -3 -6.5 -4t-8.5 -1h-44z" />
    <glyph glyph-name="uni1EB0" unicode="&#x1eb0;" horiz-adv-x="562" 
d="M-5 0q-6 0 -6.5 4.5t4.5 17.5q16 47 44 112t62.5 138.5t72 147t73.5 136t66 104.5q5 6 9.5 9.5t9.5 3.5h87q5 -1 8 -3.5t5 -9.5q12 -41 21.5 -104t16 -137t10 -148.5t3.5 -139t-3 -108.5q-1 -14 -3 -18.5t-9 -4.5h-71q-6 0 -7.5 3t-1.5 15q2 26 2 61v69q1 6 -1 7.5
t-9 1.5h-229q-6 0 -8.5 -1.5t-5.5 -8.5q-13 -33 -28 -68t-25 -61q-5 -12 -7.5 -15t-7.5 -3h-72zM184 229h190q5 0 7.5 3t2.5 12q-3 74 -7 150.5t-16 143.5q0 7 -7 7h-15q-5 0 -10 -7q-21 -35 -47.5 -85t-53 -105.5t-50.5 -107.5q-2 -4 -1.5 -7.5t7.5 -3.5zM380 713
q-45 0 -64.5 21t-12.5 61q1 7 3 9t8 2h33q6 0 7.5 -1t0.5 -7q-3 -20 6.5 -29.5t28.5 -9.5t33 9.5t19 30.5q1 5 3.5 6t5.5 1h35q4 0 5.5 -1.5t-0.5 -9.5q-8 -39 -36 -60.5t-75 -21.5zM408 841q-5 0 -8 2.5t-8 5.5l-73 74q-2 2 0 5.5t5 3.5h69q7 0 9.5 -2t6.5 -7l48 -71
q3 -4 2.5 -7.5t-6.5 -3.5h-45z" />
    <glyph glyph-name="uni1EB1" unicode="&#x1eb1;" horiz-adv-x="482" 
d="M183 -6q-97 0 -135 57.5t-11 178.5q16 76 44.5 123.5t64 74t72.5 36.5t71 10q30 0 57 -10t38 -20l5 20q1 4 4 5.5t7 1.5h68q10 0 9 -9q-3 -21 -10 -56.5t-17 -80t-22 -93.5t-25 -97.5t-26 -90.5q-4 -8 -9 -14t-22 -11q-27 -10 -72.5 -17.5t-90.5 -7.5zM204 64
q15 0 32 2.5t31 6t19 4.5q6 2 11 6t8 13q6 24 13 53t14.5 59.5t14 59.5t11.5 53t8 38q2 6 -0.5 10.5t-8.5 7.5q-15 7 -35 14t-45 7q-17 0 -38 -6t-42.5 -23t-39.5 -50.5t-30 -89.5q-20 -93 1 -129t76 -36zM331 524q-50 0 -72 21.5t-15 62.5q2 9 4 11.5t9 2.5h38
q6 0 7.5 -1.5t0.5 -7.5q-3 -20 7 -29t31 -9t35.5 9t19.5 29q1 6 3.5 7.5t6.5 1.5h40q6 0 6.5 -2.5t-1.5 -11.5q-9 -39 -38.5 -61.5t-81.5 -22.5zM348 648q-9 0 -17 8l-67 89q-3 3 -1 6t5 3h69q7 0 10.5 -1.5t6.5 -7.5l40 -87q7 -10 -2 -10h-44z" />
    <glyph glyph-name="uni1EB2" unicode="&#x1eb2;" horiz-adv-x="562" 
d="M-5 0q-6 0 -6.5 4.5t4.5 17.5q16 47 44 112t62.5 138.5t72 147t73.5 136t66 104.5q5 6 9.5 9.5t9.5 3.5h87q5 -1 8 -3.5t5 -9.5q12 -41 21.5 -104t16 -137t10 -148.5t3.5 -139t-3 -108.5q-1 -14 -3 -18.5t-9 -4.5h-71q-6 0 -7.5 3t-1.5 15q2 26 2 61v69q1 6 -1 7.5
t-9 1.5h-229q-6 0 -8.5 -1.5t-5.5 -8.5q-13 -33 -28 -68t-25 -61q-5 -12 -7.5 -15t-7.5 -3h-72zM184 229h190q5 0 7.5 3t2.5 12q-3 74 -7 150.5t-16 143.5q0 7 -7 7h-15q-5 0 -10 -7q-21 -35 -47.5 -85t-53 -105.5t-50.5 -107.5q-2 -4 -1.5 -7.5t7.5 -3.5zM380 713
q-45 0 -64.5 21t-12.5 61q1 7 3 9t8 2h33q6 0 7.5 -1t0.5 -7q-3 -20 6.5 -29.5t28.5 -9.5t33 9.5t19 30.5q1 5 3.5 6t5.5 1h35q4 0 5.5 -1.5t-0.5 -9.5q-8 -39 -36 -60.5t-75 -21.5zM384 835q-2 0 -4 2t-1 4q3 18 12.5 26.5t17.5 12.5q9 7 17.5 12.5t10.5 15.5q4 18 -19 18
q-10 0 -19.5 -3.5t-19.5 -10.5q-8 -5 -10 1l-11 24q-1 3 0 5t4 3q12 10 33.5 17.5t43.5 7.5q30 0 43.5 -16.5t7.5 -43.5q-5 -23 -18 -33.5t-24 -15.5q-8 -4 -13.5 -7.5t-7.5 -12.5q0 -6 -8 -6h-35z" />
    <glyph glyph-name="uni1EB3" unicode="&#x1eb3;" horiz-adv-x="482" 
d="M183 -6q-97 0 -135 57.5t-11 178.5q16 76 44.5 123.5t64 74t72.5 36.5t71 10q30 0 57 -10t38 -20l5 20q1 4 4 5.5t7 1.5h68q10 0 9 -9q-3 -21 -10 -56.5t-17 -80t-22 -93.5t-25 -97.5t-26 -90.5q-4 -8 -9 -14t-22 -11q-27 -10 -72.5 -17.5t-90.5 -7.5zM204 64
q15 0 32 2.5t31 6t19 4.5q6 2 11 6t8 13q6 24 13 53t14.5 59.5t14 59.5t11.5 53t8 38q2 6 -0.5 10.5t-8.5 7.5q-15 7 -35 14t-45 7q-17 0 -38 -6t-42.5 -23t-39.5 -50.5t-30 -89.5q-20 -93 1 -129t76 -36zM331 524q-50 0 -72 21.5t-15 62.5q2 9 4 11.5t9 2.5h38
q6 0 7.5 -1.5t0.5 -7.5q-3 -20 7 -29t31 -9t35.5 9t19.5 29q1 6 3.5 7.5t6.5 1.5h40q6 0 6.5 -2.5t-1.5 -11.5q-9 -39 -38.5 -61.5t-81.5 -22.5zM337 641q-2 0 -4 2.5t-1 4.5q3 16 12 25t17 13q10 7 18 12.5t10 15.5q3 17 -18 17q-10 0 -18.5 -3t-18.5 -10q-8 -5 -11 1
l-12 25q-2 5 4 9q12 9 33.5 17t44.5 8q31 0 44.5 -17t8.5 -45q-5 -23 -18.5 -33.5t-24.5 -15.5q-7 -4 -12.5 -7.5t-7.5 -11.5q-1 -7 -8 -7h-38z" />
    <glyph glyph-name="uni1EB4" unicode="&#x1eb4;" horiz-adv-x="562" 
d="M-5 0q-6 0 -6.5 4.5t4.5 17.5q16 47 44 112t62.5 138.5t72 147t73.5 136t66 104.5q5 6 9.5 9.5t9.5 3.5h87q5 -1 8 -3.5t5 -9.5q12 -41 21.5 -104t16 -137t10 -148.5t3.5 -139t-3 -108.5q-1 -14 -3 -18.5t-9 -4.5h-71q-6 0 -7.5 3t-1.5 15q2 26 2 61v69q1 6 -1 7.5
t-9 1.5h-229q-6 0 -8.5 -1.5t-5.5 -8.5q-13 -33 -28 -68t-25 -61q-5 -12 -7.5 -15t-7.5 -3h-72zM184 229h190q5 0 7.5 3t2.5 12q-3 74 -7 150.5t-16 143.5q0 7 -7 7h-15q-5 0 -10 -7q-21 -35 -47.5 -85t-53 -105.5t-50.5 -107.5q-2 -4 -1.5 -7.5t7.5 -3.5zM380 713
q-45 0 -64.5 21t-12.5 61q1 7 3 9t8 2h33q6 0 7.5 -1t0.5 -7q-3 -20 6.5 -29.5t28.5 -9.5t33 9.5t19 30.5q1 5 3.5 6t5.5 1h35q4 0 5.5 -1.5t-0.5 -9.5q-8 -39 -36 -60.5t-75 -21.5zM312 842q-6 0 -4 6q7 33 28 54t49 21q15 0 28 -9.5t23.5 -19t18.5 -9.5q6 0 11.5 6.5
t8.5 17.5q1 7 6 7h37q5 0 4 -7q-6 -29 -28 -51t-49 -22q-18 0 -30.5 9.5t-21.5 18.5t-18 9q-7 0 -13 -7t-8 -18q0 -6 -6 -6h-36z" />
    <glyph glyph-name="uni1EB5" unicode="&#x1eb5;" horiz-adv-x="482" 
d="M183 -6q-97 0 -135 57.5t-11 178.5q16 76 44.5 123.5t64 74t72.5 36.5t71 10q30 0 57 -10t38 -20l5 20q1 4 4 5.5t7 1.5h68q10 0 9 -9q-3 -21 -10 -56.5t-17 -80t-22 -93.5t-25 -97.5t-26 -90.5q-4 -8 -9 -14t-22 -11q-27 -10 -72.5 -17.5t-90.5 -7.5zM204 64
q15 0 32 2.5t31 6t19 4.5q6 2 11 6t8 13q6 24 13 53t14.5 59.5t14 59.5t11.5 53t8 38q2 6 -0.5 10.5t-8.5 7.5q-15 7 -35 14t-45 7q-17 0 -38 -6t-42.5 -23t-39.5 -50.5t-30 -89.5q-20 -93 1 -129t76 -36zM331 524q-50 0 -72 21.5t-15 62.5q2 9 4 11.5t9 2.5h38
q6 0 7.5 -1.5t0.5 -7.5q-3 -20 7 -29t31 -9t35.5 9t19.5 29q1 6 3.5 7.5t6.5 1.5h40q6 0 6.5 -2.5t-1.5 -11.5q-9 -39 -38.5 -61.5t-81.5 -22.5zM259 650q-6 0 -4 6q7 32 27.5 51t50.5 19q15 0 28.5 -8.5t24.5 -17t19 -8.5q7 0 13 6t7 15q1 4 3 5.5t3 1.5h39q6 0 4 -6
q-6 -29 -28 -49.5t-50 -20.5q-19 0 -32 9t-22.5 17t-18.5 8q-8 0 -13.5 -6t-7.5 -16q-2 -6 -6 -6h-37z" />
    <glyph glyph-name="uni1EB6" unicode="&#x1eb6;" horiz-adv-x="562" 
d="M-5 0q-6 0 -6.5 4.5t4.5 17.5q16 47 44 112t62.5 138.5t72 147t73.5 136t66 104.5q5 6 9.5 9.5t9.5 3.5h87q5 -1 8 -3.5t5 -9.5q12 -41 21.5 -104t16 -137t10 -148.5t3.5 -139t-3 -108.5q-1 -14 -3 -18.5t-9 -4.5h-71q-6 0 -7.5 3t-1.5 15q2 26 2 61v69q1 6 -1 7.5
t-9 1.5h-229q-6 0 -8.5 -1.5t-5.5 -8.5q-13 -33 -28 -68t-25 -61q-5 -12 -7.5 -15t-7.5 -3h-72zM184 229h190q5 0 7.5 3t2.5 12q-3 74 -7 150.5t-16 143.5q0 7 -7 7h-15q-5 0 -10 -7q-21 -35 -47.5 -85t-53 -105.5t-50.5 -107.5q-2 -4 -1.5 -7.5t7.5 -3.5zM254 -83
q-4 -20 -14 -30t-35 -10t-31.5 10t-2.5 30q4 18 15 28.5t36 10.5q26 0 31 -10.5t1 -28.5zM380 713q-45 0 -64.5 21t-12.5 61q1 7 3 9t8 2h33q6 0 7.5 -1t0.5 -7q-3 -20 6.5 -29.5t28.5 -9.5t33 9.5t19 30.5q1 5 3.5 6t5.5 1h35q4 0 5.5 -1.5t-0.5 -9.5q-8 -39 -36 -60.5
t-75 -21.5z" />
    <glyph glyph-name="uni1EB7" unicode="&#x1eb7;" horiz-adv-x="482" 
d="M183 -6q-97 0 -135 57.5t-11 178.5q16 76 44.5 123.5t64 74t72.5 36.5t71 10q30 0 57 -10t38 -20l5 20q1 4 4 5.5t7 1.5h68q10 0 9 -9q-3 -21 -10 -56.5t-17 -80t-22 -93.5t-25 -97.5t-26 -90.5q-4 -8 -9 -14t-22 -11q-27 -10 -72.5 -17.5t-90.5 -7.5zM204 64
q15 0 32 2.5t31 6t19 4.5q6 2 11 6t8 13q6 24 13 53t14.5 59.5t14 59.5t11.5 53t8 38q2 6 -0.5 10.5t-8.5 7.5q-15 7 -35 14t-45 7q-17 0 -38 -6t-42.5 -23t-39.5 -50.5t-30 -89.5q-20 -93 1 -129t76 -36zM207 -83q-4 -20 -14 -30t-35 -10t-31.5 10t-2.5 30q4 18 15 28.5
t36 10.5q26 0 31 -10.5t1 -28.5zM331 524q-50 0 -72 21.5t-15 62.5q2 9 4 11.5t9 2.5h38q6 0 7.5 -1.5t0.5 -7.5q-3 -20 7 -29t31 -9t35.5 9t19.5 29q1 6 3.5 7.5t6.5 1.5h40q6 0 6.5 -2.5t-1.5 -11.5q-9 -39 -38.5 -61.5t-81.5 -22.5z" />
    <glyph glyph-name="uni1EB8" unicode="&#x1eb8;" horiz-adv-x="449" 
d="M35 0q-4 0 -6.5 2.5t-1.5 6.5l139 655q2 9 12 9h321q8 0 9 -1.5t-1 -8.5l-10 -51q-2 -8 -4.5 -9.5t-8.5 -1.5h-232q-6 0 -7 -1.5t-2 -6.5l-45 -210q-1 -5 0.5 -6.5t5.5 -1.5h186q9 0 10 -2t-1 -11l-10 -46q-1 -8 -3.5 -10.5t-10.5 -2.5h-187q-4 0 -6 -1t-3 -6l-45 -215
q-1 -5 -0.5 -7t6.5 -2h230q9 0 10 -2t0 -11l-10 -46q-3 -9 -5.5 -11t-10.5 -2h-319zM228 -83q-4 -20 -14 -30t-35 -10t-31.5 10t-2.5 30q4 18 15 28.5t36 10.5q26 0 31 -10.5t1 -28.5z" />
    <glyph glyph-name="uni1EB9" unicode="&#x1eb9;" horiz-adv-x="466" 
d="M38 237q10 47 28.5 90.5t49 78.5t74 55t104.5 20q63 0 96.5 -18.5t46 -49t11.5 -67t-9 -72.5q-8 -39 -19 -49.5t-27 -10.5h-258q-4 0 -7.5 -2t-5.5 -11q-7 -40 0.5 -72t32 -50t68.5 -18q35 0 73.5 9t62.5 22q9 5 15.5 6.5t9.5 -10.5l9 -30q3 -8 0 -11t-12 -8
q-38 -24 -89 -34t-101 -10q-63 0 -98.5 18.5t-51 52t-15 77.5t11.5 94zM352 288q5 25 5 47t-7.5 39.5t-25.5 27t-47 9.5q-31 0 -54 -11.5t-39.5 -30.5t-27.5 -40.5t-17 -41.5q-3 -11 -2.5 -15t7.5 -4h94.5h94.5q9 0 12.5 3.5t6.5 16.5zM220 -83q-4 -20 -14 -30t-35 -10
t-31.5 10t-2.5 30q4 18 15 28.5t36 10.5q26 0 31 -10.5t1 -28.5z" />
    <glyph glyph-name="uni1EBA" unicode="&#x1eba;" horiz-adv-x="449" 
d="M35 0q-4 0 -6.5 2.5t-1.5 6.5l139 655q2 9 12 9h321q8 0 9 -1.5t-1 -8.5l-10 -51q-2 -8 -4.5 -9.5t-8.5 -1.5h-232q-6 0 -7 -1.5t-2 -6.5l-45 -210q-1 -5 0.5 -6.5t5.5 -1.5h186q9 0 10 -2t-1 -11l-10 -46q-1 -8 -3.5 -10.5t-10.5 -2.5h-187q-4 0 -6 -1t-3 -6l-45 -215
q-1 -5 -0.5 -7t6.5 -2h230q9 0 10 -2t0 -11l-10 -46q-3 -9 -5.5 -11t-10.5 -2h-319zM328 712q-2 0 -4 2t-1 4q3 18 12.5 26.5t17.5 12.5q9 7 17.5 12.5t10.5 15.5q4 18 -19 18q-10 0 -19.5 -3.5t-19.5 -10.5q-8 -5 -10 1l-11 24q-1 3 0 5t4 3q12 10 33.5 17.5t43.5 7.5
q30 0 43.5 -16.5t7.5 -43.5q-5 -23 -18 -33.5t-24 -15.5q-8 -4 -13.5 -7.5t-7.5 -12.5q0 -6 -8 -6h-35z" />
    </font>
</defs>
</svg>
