<?xml version="1.0" standalone="no"?>
<!DOCTYPE svg PUBLIC "-//W3C//DTD SVG 1.1//EN" "http://www.w3.org/Graphics/SVG/1.1/DTD/svg11.dtd" >
<svg xmlns="http://www.w3.org/2000/svg" xmlns:xlink="http://www.w3.org/1999/xlink" version="1.1">
<metadata>
Created by FontForge 20201107 at Fri Jun 18 05:32:25 2021
 By 
Copyright 2016-2020 The Glory Project Authors (https://github.com/googlefonts/glory)
</metadata>
<defs>
<font id="Glory-LightItalic" horiz-adv-x="0" >
  <font-face 
    font-family="Glory Light"
    font-weight="300"
    font-style="italic"
    font-stretch="normal"
    units-per-em="1000"
    panose-1="0 0 0 0 0 0 0 0 0 0"
    ascent="800"
    descent="-200"
    x-height="472"
    cap-height="673"
    bbox="-168.25 -241 1005.16 953"
    underline-thickness="50"
    underline-position="-125"
    slope="-12"
    unicode-range="U+000D-FB02"
  />
<missing-glyph horiz-adv-x="560" 
d="M28 0q-3 0 -3 4q3 33 11 85.5t19.5 115.5t25.5 129q15 67 30.5 131.5t30.5 118t26 85.5q0 2 2 3t3 1h402q3 0 3 -4q-3 -32 -11 -85.5t-19.5 -118t-26.5 -131.5q-14 -66 -29.5 -129t-29.5 -115.5t-25 -85.5q0 -4 -5 -4h-404zM61 30h352q13 42 27 96.5t27 110t22 100.5
q17 79 30 158t22 148h-348q-24 -85 -44 -162.5t-34 -145.5q-10 -47 -21 -101t-19.5 -107t-13.5 -97zM117 80q-8 0 -2 6l337 502q4 5 6 5.5t5 0.5h19q7 0 0 -7l-334 -499q-5 -8 -13 -8h-18zM371 80h-18q-7 0 -9 8l-122 499q-4 7 4 7h19q6 0 7 -6l125 -502v-3.5t-6 -2.5z" />
    <glyph glyph-name="fi" unicode="fi" horiz-adv-x="534" 
d="M395 6q-1 -6 -7 -6h-44q-6 0 -4 6l97 460q1 6 7 6h44q2 0 3.5 -1.5t0.5 -4.5zM-87 -236q-34 0 -54 6.5t-19 6.5q-4 2 -2 9q1 4 2.5 9.5t2.5 11.5t2 9q1 4 2.5 4.5t5.5 -1.5q15 -6 30.5 -8.5t31.5 -2.5q53 0 81 33.5t39 88.5q13 69 24.5 132t22 122.5t21.5 117.5t23 116
q1 9 -7 9h-31.5h-31.5q-2 0 -3 2t-1 4q2 8 3.5 16.5t3.5 15.5q0 3 2.5 5t5.5 2h33.5h29.5q8 0 9 8q8 43 21 87t46 81q28 31 71.5 47.5t106.5 16.5q30 0 63.5 -6t64 -13.5t47.5 -12.5q5 -2 3.5 -4.5t-2.5 -5.5q-2 -5 -6 -12.5t-7 -12.5q0 -1 -6 -5t-9 -3q-6 3 -24.5 8
t-43 9.5t-48 8t-40.5 3.5q-52 0 -84 -13t-51 -41q-14 -21 -22.5 -43t-14 -44.5t-9.5 -43.5q-2 -9 6 -9h40.5h59h65h60.5h45q2 0 3 -1.5t0 -5.5q-1 -5 -2.5 -14.5t-4.5 -17.5q0 -2 -2 -4t-5 -2h-57h-77h-77h-57q-2 0 -5.5 -2t-4.5 -7q0 -4 -1.5 -10t-3 -12.5t-2.5 -11.5
q-9 -44 -19 -96t-21 -110t-22 -120.5t-23 -127.5q-15 -78 -55 -122t-122 -44z" />
    <glyph glyph-name="fl" unicode="fl" horiz-adv-x="555" 
d="M379 6l142 668q2 6 6 6h44q1 0 4 -2t2 -4l-142 -668q-2 -6 -8 -6h-44q-5 0 -4 6zM-87 -236q-34 0 -54 6.5t-19 6.5q-4 2 -2 9q1 4 2.5 9.5t2.5 11.5t2 9q1 4 2.5 4.5t5.5 -1.5q15 -6 30.5 -8.5t31.5 -2.5q53 0 81 33.5t39 88.5q13 69 24.5 132t22 122.5t21.5 117.5
t23 116q1 9 -7 9h-31.5h-31.5q-2 0 -3 2t-1 4q2 8 3.5 16.5t3.5 15.5q0 3 2.5 5t5.5 2h33.5h29.5q8 0 9 8q8 43 21 87t46 81q28 31 71 47.5t101 16.5q35 0 73 -6t70.5 -13.5t49.5 -12.5q5 -2 3.5 -5l-2.5 -5q-2 -4 -5.5 -9l-7 -10t-5.5 -9q-2 -3 -6 -4.5t-8 -1t-6 0.5
q-8 4 -28 9t-45 9.5t-47.5 8t-36.5 3.5q-56 0 -89 -14.5t-51 -47.5q-18 -28 -26.5 -60.5t-15.5 -63.5q-2 -9 6 -9h76h82q2 0 3 -1.5t0 -5.5q-1 -5 -2.5 -14.5t-4.5 -17.5q0 -2 -2 -4t-5 -2h-53h-50h-53q-2 0 -5.5 -2t-4.5 -7q0 -4 -1.5 -10t-3 -12.5t-2.5 -11.5
q-9 -44 -19 -96t-21 -110t-22 -120.5t-23 -127.5q-15 -78 -55 -122t-122 -44z" />
    <glyph glyph-name=".notdef" horiz-adv-x="560" 
d="M28 0q-3 0 -3 4q3 33 11 85.5t19.5 115.5t25.5 129q15 67 30.5 131.5t30.5 118t26 85.5q0 2 2 3t3 1h402q3 0 3 -4q-3 -32 -11 -85.5t-19.5 -118t-26.5 -131.5q-14 -66 -29.5 -129t-29.5 -115.5t-25 -85.5q0 -4 -5 -4h-404zM61 30h352q13 42 27 96.5t27 110t22 100.5
q17 79 30 158t22 148h-348q-24 -85 -44 -162.5t-34 -145.5q-10 -47 -21 -101t-19.5 -107t-13.5 -97zM117 80q-8 0 -2 6l337 502q4 5 6 5.5t5 0.5h19q7 0 0 -7l-334 -499q-5 -8 -13 -8h-18zM371 80h-18q-7 0 -9 8l-122 499q-4 7 4 7h19q6 0 7 -6l125 -502v-3.5t-6 -2.5z" />
    <glyph glyph-name=".null" 
 />
    <glyph glyph-name="nonmarkingreturn" horiz-adv-x="333" 
 />
    <glyph glyph-name="CR" unicode="&#xd;" horiz-adv-x="600" 
 />
    <glyph glyph-name="space" unicode=" " horiz-adv-x="245" 
 />
    <glyph glyph-name="exclam" unicode="!" horiz-adv-x="240" 
d="M91 229q-2 0 -2.5 1.5t-0.5 4.5l85 432q0 3 1.5 4.5t5.5 1.5h49q5 0 5 -6l-99 -432q-1 -3 -2.5 -4.5t-5.5 -1.5h-36zM113 23q-3 -14 -10.5 -22t-28.5 -8q-18 0 -23.5 8t-2.5 22q3 15 12 22.5t27 7.5q20 0 24.5 -7.5t1.5 -22.5z" />
    <glyph glyph-name="quotedbl" unicode="&#x22;" horiz-adv-x="348" 
d="M129 466q-2 0 -3.5 1.5t0.5 5.5l44 226q1 5 3 7t6 2h38q5 0 5.5 -2t-0.5 -5l-51 -228q-2 -4 -4 -5.5t-5 -1.5h-33zM281 466q-2 0 -3 1.5t0 5.5l44 226q1 5 3.5 7t5.5 2h38q4 0 5.5 -2t-0.5 -5l-51 -228q-2 -4 -3.5 -5.5t-5.5 -1.5h-33z" />
    <glyph glyph-name="numbersign" unicode="#" horiz-adv-x="692" 
d="M193 233h-150q-4 0 -5.5 1.5t-0.5 5.5l9 29q1 4 3.5 5.5t5.5 1.5h149l44 154h-147q-3 0 -5 1t0 6l10 29q1 4 2.5 5.5t4.5 1.5h145l65 228q2 3 3.5 5t5.5 2h34q4 0 5 -2t-2 -6l-64 -227h177l65 228q1 3 3 5t5 2h34q4 0 5 -2t-1 -6l-65 -227h169q6 0 7 -1.5t0 -5.5l-9 -30
q-1 -4 -3 -5t-5 -1h-169l-44 -154h164q5 0 7 -1.5t1 -5.5l-10 -30q0 -3 -3 -4.5t-5 -1.5h-165l-63 -227q-1 -2 -2.5 -4t-5.5 -2h-33q-3 0 -4.5 2t0.5 7l61 224h-176l-63 -227q-1 -2 -2.5 -4t-5.5 -2h-34q-3 0 -4 2t0 7zM251 276h177l43 154h-177z" />
    <glyph glyph-name="dollar" unicode="$" horiz-adv-x="478" 
d="M169 35q-16 4 -39 10.5t-39 14.5q-9 5 -14 10t-4 12q1 11 1.5 21t2.5 21q0 3 2.5 3.5t6 -1t7.5 -4.5q26 -18 57 -28t62 -10q34 0 64 12.5t50.5 37t23.5 60.5q4 35 -10 57.5t-40 39.5t-57 32q-33 17 -64 36t-49 50t-13 80q6 49 31 81t63.5 47.5t81.5 16.5q8 0 14.5 -0.5
t13.5 -0.5l31 105q1 3 2.5 4.5t4.5 1.5h35q4 0 5 -1.5t0 -5.5l-34 -112q27 -7 50.5 -18.5t45.5 -28.5q3 -2 4.5 -4t-0.5 -5q-3 -7 -9.5 -19.5t-12.5 -16.5q-2 -2 -4.5 -1t-6.5 4q-12 7 -34 18.5t-49.5 21t-53.5 9.5q-48 0 -83 -24.5t-40 -74.5q-4 -30 10.5 -51t40.5 -36.5
t56 -31.5q33 -17 64 -38t49 -52.5t13 -80.5t-32.5 -86t-68.5 -57t-88 -22l-43 -159q-1 -4 -2.5 -5t-5.5 -1h-35q-2 0 -3 1.5t0 7.5z" />
    <glyph glyph-name="percent" unicode="%" horiz-adv-x="780" 
d="M116 0q-3 0 -3 2t2 5l538 695q3 3 4 4.5t4 1.5h43q4 0 4.5 -2t-4.5 -8l-533 -692q-2 -3 -5 -4.5t-6 -1.5h-44zM250 426q-50 0 -76.5 18t-33.5 50t2 74q13 62 53 102t115 40t99 -40t11 -102q-13 -63 -54 -102.5t-116 -39.5zM258 465q50 0 78.5 27t38.5 76t-6.5 76
t-66.5 27q-49 0 -77 -26.5t-39 -76.5q-10 -49 6.5 -76t65.5 -27zM518 0q-49 0 -75.5 18t-33.5 50.5t1 73.5q14 62 54 102t115 40t99 -40t9 -102q-13 -63 -53.5 -102.5t-115.5 -39.5zM527 39q50 0 78 27t38 76t-6.5 76t-66.5 27q-48 0 -76.5 -26.5t-39.5 -76.5q-10 -49 7 -76
t66 -27z" />
    <glyph glyph-name="ampersand" unicode="&#x26;" horiz-adv-x="683" 
d="M217 -6q-62 0 -102 17.5t-62.5 46.5t-27.5 65t3 72q9 41 30.5 77.5t54 64t72.5 39.5q-18 11 -29 27.5t-16.5 35.5t-6 38.5t3.5 35.5q5 25 21 53t43.5 53t69 41t97.5 16q48 0 92 -24t68 -81q2 -6 0.5 -9t-4.5 -5l-33 -22q-8 -4 -12 5q-16 38 -47.5 63t-79.5 25
q-37 0 -70.5 -14t-58 -40.5t-32.5 -64.5q-5 -23 0.5 -46.5t22 -40.5t44.5 -21q2 0 14.5 -0.5t24.5 -1t14 -0.5q6 0 8.5 -1t1.5 -5l-8 -38q-2 -5 -3.5 -6t-5.5 -1h-59q-39 0 -71.5 -21.5t-54.5 -55.5t-31 -71q-8 -37 2 -73t44 -59t98 -23q56 0 107 30.5t94 78.5t73 100
l-78 48q-3 1 -3.5 3t4.5 7l25 33q3 4 6 5t5 -1l162 -99q4 -2 4 -4.5t-4 -6.5l-24 -33q-3 -3 -5.5 -4t-6.5 1l-46 28q-25 -44 -59 -86t-76 -76.5t-90.5 -54.5t-102.5 -20z" />
    <glyph glyph-name="quotesingle" unicode="'" horiz-adv-x="147" 
d="M105 466q-2 0 -3.5 1.5t0.5 5.5l44 226q1 5 3 7t6 2h38q4 0 5 -2t0 -5l-52 -228q-1 -4 -3 -5.5t-5 -1.5h-33z" />
    <glyph glyph-name="parenleft" unicode="(" horiz-adv-x="369" 
d="M230 -78q-1 -4 -3 -5t-9 -1q-71 1 -112 52t-50 142t17 212q10 47 29.5 98.5t48 101.5t65 90.5t79 65t89.5 24.5q8 0 9.5 -1.5t1.5 -4.5l-7 -32q-1 -2 -3.5 -3t-7.5 -1q-36 0 -69.5 -21t-62.5 -56.5t-53 -80t-41 -91t-26 -88.5q-14 -66 -17 -122t3 -100.5t21.5 -76
t39.5 -48.5t56 -18q6 0 7.5 -1.5t1.5 -4.5z" />
    <glyph glyph-name="parenright" unicode=")" horiz-adv-x="368" 
d="M6 -78l6 30q1 3 3 4.5t7 1.5q32 1 64 18t61 48.5t54 76t45 100.5t35 122q9 42 11.5 88.5t-2.5 91t-19 80t-38.5 56.5t-60.5 21q-5 0 -7.5 1t-1.5 3l7 32q1 3 3 4.5t9 1.5q48 0 80 -24.5t51 -65t26.5 -90.5t5.5 -101.5t-12 -98.5q-19 -90 -51.5 -164.5t-74 -128.5
t-90.5 -83t-102 -30q-6 0 -8.5 1t-0.5 5z" />
    <glyph glyph-name="asterisk" unicode="*" horiz-adv-x="551" 
d="M319 444l-143 -157q-3 -3 -5.5 -4t-5.5 1l-23 22q-2 3 -2.5 5.5t2.5 5.5l147 151l-168 59q-4 2 -5 3.5t1 4.5l18 35q3 4 5 5t6 -1l165 -64l38 190q1 4 2.5 6t5.5 2h36q4 0 5.5 -2t-0.5 -6l-43 -190l193 64q5 2 6.5 0.5t1.5 -4.5l5 -35q0 -6 -8 -8l-193 -59l82 -152
q2 -2 1.5 -4.5t-4.5 -5.5l-34 -22q-3 -2 -5 -1.5t-4 4.5z" />
    <glyph glyph-name="plus" unicode="+" horiz-adv-x="470" 
d="M192 117q-4 0 -5 1t0 4l34 158h-156q-3 0 -4 2t0 4l7 33q1 3 2.5 4t4.5 1h155l34 159q0 3 1.5 4t5.5 1h34q2 0 3 -1t0 -5l-33 -158h157q3 0 4.5 -1t-0.5 -5l-6 -33q-1 -2 -2.5 -3.5t-4.5 -1.5h-157l-34 -158q-1 -3 -3 -4t-4 -1h-33z" />
    <glyph glyph-name="comma" unicode="," horiz-adv-x="202" 
d="M92 21q-2 -13 -14 -35.5t-26 -45t-26 -37.5q-3 -3 -6 -4h-11h-14q0 1 0.5 3t2.5 5q6 10 15.5 25t18.5 31.5t14 28.5q-15 1 -18.5 8.5t-1.5 20.5q3 14 11.5 22t26.5 8q17 0 24 -6.5t4 -23.5z" />
    <glyph glyph-name="hyphen" unicode="-" horiz-adv-x="416" 
d="M82 256q-4 0 -4.5 2t0.5 4l7 33q0 4 1.5 5t4.5 1h261q4 0 4.5 -1t0.5 -5l-8 -33q0 -3 -1 -4.5t-5 -1.5h-261z" />
    <glyph glyph-name="period" unicode="." horiz-adv-x="164" 
d="M70 22q-4 -16 -11.5 -23.5t-29.5 -7.5q-19 0 -25 7.5t-2 23.5q3 14 12 21.5t28 7.5q22 0 26.5 -7.5t1.5 -21.5z" />
    <glyph glyph-name="slash" unicode="/" horiz-adv-x="533" 
d="M50 6q-2 -3 -4.5 -4.5t-6.5 -1.5h-41q-2 0 -2 2t2 5l563 695q3 3 5 4.5t5 1.5h40q3 0 3.5 -2t-4.5 -8z" />
    <glyph glyph-name="zero" unicode="0" horiz-adv-x="542" 
d="M509 336q-21 -97 -58.5 -174.5t-94.5 -123t-138 -45.5q-60 0 -96 25.5t-51 72t-13.5 109t17.5 136.5q21 99 58 176.5t94 122.5t137 45q61 0 97 -26t51.5 -73t13.5 -109.5t-17 -135.5zM450 336q30 141 8 218.5t-104 77.5t-136.5 -76.5t-84.5 -219.5q-31 -142 -9 -219
t104 -77t137.5 77.5t84.5 218.5z" />
    <glyph glyph-name="one" unicode="1" horiz-adv-x="319" 
d="M134 0q-6 0 -4 6l125 593q2 10 -7 5l-143 -73q-6 -4 -8 1l-12 31q-3 6 3 9l176 91l13 6.5t12 3.5h32q7 0 5 -6l-140 -661q-1 -4 -2.5 -5t-4.5 -1h-45z" />
    <glyph glyph-name="two" unicode="2" horiz-adv-x="488" 
d="M-8 0q-4 0 -5.5 1.5t-0.5 5.5l8 37q1 4 2.5 6.5t5.5 4.5q61 36 128 81t128 98t105 114t59 129q11 52 -3.5 85t-46 48.5t-72.5 15.5q-33 0 -63 -8.5t-52.5 -18.5t-35.5 -15q-19 -8 -17 1l8 37q1 5 3.5 7.5t9.5 6.5q12 6 37 16t58 18t67 8q50 0 93 -20t64.5 -64t5.5 -116
q-15 -67 -54.5 -127.5t-94.5 -114t-118 -98.5t-124 -83q-3 -2 -2.5 -4t3.5 -2h295q6 0 5 -6l-7 -37q-2 -4 -3 -5t-5 -1h-381z" />
    <glyph glyph-name="three" unicode="3" horiz-adv-x="472" 
d="M155 -5q-31 0 -61 8t-54.5 22.5t-37.5 34.5q-2 3 -1.5 6t3.5 7l26 26q3 3 6 3.5t5 -2.5q23 -28 54.5 -41.5t67.5 -13.5q49 0 87 21.5t62.5 54.5t31.5 66q7 34 -4 66.5t-42 54t-84 21.5h-9h-8t-6 2t0 6l7 34q1 8 9 8h10h15q46 3 81 22.5t58 48.5t29 60q6 30 -3 57
t-35 44.5t-70 17.5q-33 0 -74.5 -14.5t-70.5 -34.5q-12 -8 -15 2l-11 30q-1 3 0.5 6.5t4.5 4.5q27 18 59 30.5t63.5 18.5t56.5 6q60 0 95.5 -23.5t49 -61t3.5 -78.5q-6 -31 -22.5 -60.5t-42 -53t-61.5 -40.5q-5 -1 -9 -2.5t-4 -3.5q0 -1 13 -7q47 -23 65.5 -64t6.5 -96
q-10 -48 -43.5 -92.5t-84.5 -72.5t-116 -28z" />
    <glyph glyph-name="four" unicode="4" horiz-adv-x="487" 
d="M269 0q-5 0 -4 6l37 173q1 10 -8 10h-273q-7 0 -5 6l6 31q2 5 5 9t5 6l371 423q4 5 8 7t6 2h39q3 0 4 -1.5t0 -4.5l-89 -421q-1 -10 8 -10h68q5 0 4 -5l-7 -37q-2 -5 -6 -5h-69q-11 0 -13 -10l-37 -173q0 -6 -7 -6h-43zM99 236h205q11 0 12 10l70 327q1 4 -1 4.5t-5 -3.5
l-283 -325q-11 -13 2 -13z" />
    <glyph glyph-name="five" unicode="5" horiz-adv-x="467" 
d="M134 -5q-20 0 -42 4t-43.5 13t-40.5 22q-1 2 -1.5 4.5t1.5 4.5l28 35q3 3 5.5 3t4.5 -2q24 -16 48.5 -23.5t51.5 -7.5q33 0 66.5 11.5t63 33.5t51 54t30.5 73q9 42 -2.5 77t-44.5 55.5t-91 20.5q-16 0 -33 -1t-34 -3.5t-32 -8.5q-9 -2 -11.5 0.5t-1.5 7.5l62 294
q1 6 3.5 8.5t10.5 2.5h265q4 0 5 -2t1 -5l-8 -36q0 -6 -9 -6h-217q-8 0 -9 -7l-40 -191q-1 -5 0.5 -7.5t6.5 -1.5q15 3 30 3h25q75 0 118.5 -27t58 -71.5t3.5 -97.5q-11 -52 -39 -95t-66.5 -73t-83 -46t-90.5 -15z" />
    <glyph glyph-name="six" unicode="6" horiz-adv-x="542" 
d="M223 -12q-44 0 -81 18t-62 55t-32 96t11 142q14 67 48.5 134t87.5 123t121 90t149 34q8 0 22.5 -1.5t23.5 -3.5q3 0 5.5 -2t1.5 -8q-2 -7 -3.5 -15t-3.5 -16q-1 -5 -3.5 -6t-6.5 0q-7 1 -18.5 2t-24.5 0.5t-24 -5.5q-59 -1 -109.5 -28t-91.5 -70t-70 -95t-43 -105
q-2 -9 0 -12t10 6q37 42 90.5 67.5t108.5 25.5t90.5 -17t55 -46t24 -65t-3.5 -75q-12 -55 -49.5 -106.5t-94 -84t-128.5 -32.5zM233 38q56 0 99 26t71 66.5t37 83.5q8 39 -2.5 73t-41 55.5t-83.5 21.5q-38 0 -78.5 -18.5t-74.5 -46t-54 -55.5q-11 -50 1 -97.5t44 -78
t82 -30.5z" />
    <glyph glyph-name="seven" unicode="7" horiz-adv-x="442" 
d="M81 0q-4 0 -5.5 1t0.5 5q7 25 30 73.5t57 111t71 126.5q36 61 72.5 119.5t67 104.5t48.5 72q4 7 3 9.5t-10 3.5h-307q-4 0 -5 1t0 4l7 36q1 4 3 5t5 1h387q3 0 4 -1t0 -5l-4 -20q-1 -4 -2.5 -7t-4.5 -6q-20 -25 -54 -74.5t-75.5 -114.5t-83.5 -137q-35 -60 -67.5 -118.5
t-55 -106.5t-29.5 -77q-2 -4 -4.5 -5t-4.5 -1h-43z" />
    <glyph glyph-name="eight" unicode="8" horiz-adv-x="484" 
d="M189 -6q-56 0 -97.5 25t-61 67.5t-8.5 95.5q13 65 53 107.5t90 64.5q9 3 11.5 8t-4.5 8q-32 16 -46.5 48t-3.5 87q10 47 42.5 86t77.5 62t93 23t83.5 -23t51 -62t4.5 -86q-12 -59 -41.5 -91t-68.5 -48q-4 -3 -4 -7t7 -6q46 -23 65.5 -63.5t5.5 -107.5
q-11 -53 -48.5 -95.5t-90 -67.5t-110.5 -25zM275 389q31 0 61 12.5t53 38.5t31 65q7 32 -3.5 58.5t-35 42.5t-58.5 16t-65 -16t-53 -42.5t-29 -58.5q-7 -37 5 -63t37.5 -39.5t56.5 -13.5zM200 47q45 0 83.5 18.5t65.5 49.5t35 68q9 47 -5.5 79.5t-45.5 49.5t-69 18
q-39 1 -78.5 -15.5t-69 -49.5t-39.5 -82q-8 -37 5.5 -68t44 -49.5t73.5 -18.5z" />
    <glyph glyph-name="nine" unicode="9" horiz-adv-x="536" 
d="M251 254q-71 0 -111 28.5t-51.5 74t-1.5 95.5q9 42 32.5 82.5t59.5 73.5t83 52.5t103 19.5q54 -1 90.5 -22.5t56 -58.5t23.5 -85.5t-9 -104.5q-14 -75 -49 -149t-89.5 -134t-127.5 -96t-164 -36q-8 0 -20 0.5t-26 3.5q-3 1 -6 3t-2 7l8 31q1 5 4 6.5t7 0.5q12 -2 24 -3
t20 -1q47 0 88 14.5t75.5 37t62.5 48.5q29 28 52.5 63.5t40 69t25.5 56t10 25.5q-43 -47 -98 -74.5t-110 -27.5zM353 629q-57 0 -100.5 -26.5t-71.5 -66.5t-37 -84q-7 -39 1 -73t36.5 -55.5t81.5 -21.5q57 0 111 35.5t95 85.5q15 79 0.5 124t-46 63.5t-70.5 18.5z" />
    <glyph glyph-name="colon" unicode=":" horiz-adv-x="219" 
d="M96 22q-3 -16 -11 -23.5t-30 -7.5q-19 0 -24.5 7.5t-1.5 23.5q2 14 11 21.5t28 7.5q22 0 26.5 -7.5t1.5 -21.5zM190 449q-4 -15 -12 -22.5t-29 -7.5q-19 0 -25 7.5t-2 22.5q3 14 12 22t28 8q21 0 26 -8t2 -22z" />
    <glyph glyph-name="semicolon" unicode=";" horiz-adv-x="226" 
d="M199 449q-4 -15 -12 -22t-30 -7q-19 0 -24.5 7t-1.5 22q3 15 11.5 22.5t27.5 7.5q22 0 27 -7.5t2 -22.5zM100 21q-2 -13 -14 -36t-26 -45t-26 -37q-3 -3 -6 -4h-11h-14q0 1 0.5 3t2.5 5q6 10 15.5 25t18.5 31.5t14 28.5q-15 1 -18.5 8.5t-1.5 20.5q3 14 11.5 22t26.5 8
q17 0 24 -6.5t4 -23.5z" />
    <glyph glyph-name="less" unicode="&#x3c;" horiz-adv-x="440" 
d="M355 123l-289 155q-2 2 -3.5 4t-1.5 4l7 36q1 4 3.5 5t4.5 2l357 156q9 4 8 -4l-8 -37q-1 -3 -3.5 -4.5t-6.5 -3.5l-306 -136l250 -134q6 -2 6 -7l-8 -32q0 -3 -2.5 -5t-7.5 1z" />
    <glyph glyph-name="equal" unicode="=" horiz-adv-x="504" 
d="M89 369q-4 0 -5 2t-1 4l4 32q0 3 1.5 4.5t4.5 1.5h358q3 0 4.5 -1.5t0.5 -4.5l-3 -33q0 -2 -1.5 -3.5t-4.5 -1.5h-358zM80 189q-3 0 -4 1.5t-1 4.5l3 32q0 3 1.5 4.5t5.5 1.5h357q4 0 5 -1.5t1 -4.5l-3 -33q-1 -2 -2 -3.5t-5 -1.5h-358z" />
    <glyph glyph-name="greater" unicode="&#x3e;" horiz-adv-x="420" 
d="M26 123q-9 -5 -8 4l8 37q1 3 3.5 4t6.5 3l306 137l-250 134q-7 4 -6 7l8 32q1 3 3 4.5t7 -0.5l289 -156l4 -2t1 -4l-7 -35q0 -4 -3 -6t-5 -3z" />
    <glyph glyph-name="question" unicode="?" horiz-adv-x="446" 
d="M117 174q-5 0 -5.5 2.5t0.5 6.5q13 53 28.5 88t36 58.5t46.5 42.5t59 38q23 14 46 31t40.5 38t22.5 47q9 45 -19 70t-82 25q-24 0 -47.5 -3.5t-43.5 -9.5t-36 -12q-9 -3 -11 -3.5t-2 5.5l-3 31q0 3 3 6t8 6q27 14 66 21.5t73 7.5q81 0 121.5 -39.5t25.5 -105.5
q-10 -47 -33 -74.5t-51.5 -45t-55.5 -32.5q-41 -24 -68 -49.5t-43.5 -58.5t-29.5 -83q-1 -4 -2 -6t-4 -2h-40zM77 23q3 15 12 22.5t27 7.5q20 0 24.5 -7.5t1.5 -22.5q-3 -14 -11 -22t-28 -8q-18 0 -23.5 8t-2.5 22z" />
    <glyph glyph-name="at" unicode="@" horiz-adv-x="837" 
d="M74 329q15 74 57 138t103 113t134.5 76t151.5 27q100 0 163 -25.5t95.5 -68t40.5 -96t-4 -109.5q-10 -48 -33 -93.5t-54.5 -80.5t-69 -56t-78.5 -21q-30 0 -47 12.5t-23 32t-5 43.5t6 46q1 2 2 6.5t-0.5 4.5t-10.5 -13q-19 -29 -45 -59.5t-58 -50.5t-71 -20
q-51 0 -76.5 26.5t-28.5 69.5t13 91q19 57 57 107t89.5 81.5t110.5 31.5q54 0 88.5 -13t56.5 -30q8 -5 7 -13t-5 -19q-7 -13 -14 -25.5t-13 -25.5q-12 -25 -26 -56.5t-25 -63.5t-14 -59t5.5 -44t33.5 -17q38 0 74.5 31t64.5 80t39 103q10 46 3 91.5t-35 81.5t-82 58t-139 22
q-68 0 -132 -24t-116.5 -67.5t-89 -100t-50.5 -122.5q-16 -73 -3 -130t49 -96.5t91 -60t124 -20.5q86 -1 161.5 12.5t135.5 38.5q9 5 16.5 7.5t13.5 6.5q5 3 7.5 2t4.5 -5l8 -22q2 -3 -0.5 -6t-7.5 -6q-6 -4 -14 -7.5t-18 -7.5q-59 -25 -137 -39.5t-178 -13.5
q-77 1 -140 22.5t-106 65t-59 108t2 151.5zM575 446q5 9 8 15.5t-3 12.5q-20 13 -41.5 19t-52.5 6q-35 0 -67 -17t-58.5 -44.5t-45.5 -60.5t-30 -66q-10 -35 -10 -65.5t14.5 -49.5t46.5 -19q30 0 58.5 23t52.5 57q24 32 59.5 84t68.5 105z" />
    <glyph glyph-name="A" unicode="A" horiz-adv-x="570" 
d="M6 0q-4 0 -4.5 2.5t2.5 9.5q16 48 44.5 115t63.5 142.5t73 150.5t74 139t66 106q4 4 7 6t6 2h79q4 -1 6.5 -2t3.5 -6q12 -41 20.5 -105.5t14 -140.5t9 -153t3.5 -143t-4 -110q0 -8 -1 -10.5t-6 -2.5h-44q-4 0 -4.5 2t-1.5 8q2 28 2.5 66t0.5 80q1 6 -1.5 7.5t-8.5 1.5
h-274q-5 0 -8 -2t-6 -8q-16 -41 -32 -79t-27 -66q-2 -6 -3.5 -8t-5.5 -2h-44zM155 212h248q4 0 7 3.5t4 12.5q-4 94 -9 188.5t-23 181.5q-1 6 -8 6h-21q-7 0 -12 -7q-26 -43 -60 -105.5t-68 -132.5t-64 -136q-1 -3 -1 -7t7 -4z" />
    <glyph glyph-name="B" unicode="B" horiz-adv-x="518" 
d="M458 182q-14 -66 -47.5 -106t-79.5 -58t-98 -18h-193q-3 0 -4.5 1.5t-0.5 4.5l141 661q2 6 7 6h136q47 0 86 -4.5t66 -20t37 -47.5t-2 -88q-9 -38 -24.5 -69t-37 -52.5t-46.5 -33.5q-4 -2 -6 -7t4 -7q38 -16 57 -59t5 -103zM401 185q12 56 -1 86t-45.5 41t-80.5 11h-108
q-7 0 -7 -5l-58 -269q0 -2 0.5 -3.5t3.5 -1.5h135q27 0 59 10t60.5 40.5t41.5 90.5zM447 512q12 54 -3.5 78.5t-49.5 31t-81 6.5h-83q-6 0 -7 -5l-53 -248q-1 -5 5 -5h117q43 0 74.5 18.5t52 50.5t28.5 73z" />
    <glyph glyph-name="C" unicode="C" horiz-adv-x="445" 
d="M362 17q-3 -10 -16 -15q-14 -4 -34 -6.5t-38 -3.5t-28 -1q-110 0 -159 86.5t-12 257.5q37 172 119.5 258.5t197.5 86.5q10 0 27.5 -1.5t36.5 -4t31 -6.5q6 -2 9 -5.5t2 -7.5l-9 -37q-2 -14 -11 -7q-11 8 -34 15t-55 7q-57 0 -99.5 -23.5t-72.5 -64.5t-49.5 -91.5
t-31.5 -104.5q-8 -36 -13 -78.5t-2 -83.5t17 -75t44 -54.5t80 -20.5q33 0 59 7t38 14q8 4 10 2t0 -8z" />
    <glyph glyph-name="D" unicode="D" horiz-adv-x="577" 
d="M547 347q-19 -88 -48 -149t-63 -100t-69 -60.5t-67.5 -29.5t-57.5 -8h-202q-3 0 -4.5 1.5t-0.5 4.5l141 661q2 6 7 6h202q30 0 61 -6t57 -24t42.5 -54t18.5 -95t-17 -147zM491 347q16 77 16 127.5t-12 81t-31 46t-42 20t-44 4.5h-148q-4 0 -5.5 -1.5t-1.5 -4.5l-121 -568
q-1 -3 0 -4.5t4 -1.5h131q28 0 63 11.5t71.5 43t68 91t51.5 155.5z" />
    <glyph glyph-name="E" unicode="E" horiz-adv-x="444" 
d="M40 0q-3 0 -4.5 1.5t-0.5 4.5l141 661q0 6 7 6h311q4 0 4.5 -1t-0.5 -6l-6 -33q-2 -4 -3 -5.5t-5 -1.5h-254q-4 0 -5.5 -2t-2.5 -5l-53 -249q-1 -3 1 -5.5t5 -2.5h207q5 0 5.5 -1t-0.5 -6l-6 -32q-1 -4 -2.5 -5.5t-5.5 -1.5h-209q-4 0 -5.5 -1.5t-2.5 -5.5l-54 -254
q-1 -4 -0.5 -6.5t6.5 -2.5h252q5 0 5.5 -1t0.5 -6l-7 -31q-2 -5 -3.5 -6.5t-5.5 -1.5h-310z" />
    <glyph glyph-name="F" unicode="F" horiz-adv-x="427" 
d="M40 0q-3 0 -4.5 1.5t-0.5 4.5l141 661q2 6 7 6h311q4 0 5 -1t-1 -6l-6 -33q-2 -4 -3 -5.5t-5 -1.5h-254q-4 0 -5.5 -2t-2.5 -5l-53 -249q-1 -3 1 -5.5t5 -2.5h198q4 0 5.5 -1t-0.5 -6l-6 -32q-1 -4 -2.5 -5.5t-6.5 -1.5h-199q-4 0 -5.5 -1.5t-2.5 -5.5l-64 -301
q-1 -5 -2.5 -6.5t-6.5 -1.5h-43z" />
    <glyph glyph-name="G" unicode="G" horiz-adv-x="555" 
d="M444 21q-2 -11 -17.5 -17t-36.5 -8t-42 -2q-171 0 -245 83.5t-40 246.5q24 111 81.5 190t137.5 121.5t169 42.5q27 0 60 -2t53 -10q6 -2 8.5 -4.5t0.5 -8.5l-7 -33q-2 -8 -5 -10t-7 0q-22 14 -49 18t-57 4q-36 0 -83.5 -14.5t-96 -49t-87.5 -92t-57 -144.5
q-15 -72 -8.5 -123t29 -84t55 -51.5t69 -26.5t69.5 -8q44 0 55 11l55 257q2 7 -0.5 9t-7.5 2h-155q-3 0 -4 1.5t-1 4.5l7 34q1 3 3 5t5 2h210q8 0 10 -2.5t-1 -9.5z" />
    <glyph glyph-name="H" unicode="H" horiz-adv-x="610" 
d="M51 0q-2 0 -4.5 1t-1.5 5q3 34 11 86.5t19.5 115.5t25.5 129q13 66 28.5 129t30 115t26.5 85q1 3 4 4.5t5 1.5h22h22q6 0 4 -6q-20 -64 -36 -125t-26.5 -106t-14.5 -63q-2 -6 -0.5 -8t5.5 -2h160h161q3 0 6.5 1.5t4.5 8.5q2 14 10.5 57.5t18.5 105.5t18 132l3.5 3.5
t3.5 1.5h22h22q2 0 4.5 -1.5t1.5 -4.5q-3 -33 -10.5 -85t-19 -115.5t-24.5 -128.5q-14 -66 -30 -129t-30 -115.5t-25 -86.5q-1 -4 -3.5 -5t-5.5 -1h-22.5h-22.5q-4 0 -2 6q15 43 27.5 89.5t22.5 88.5t17 75t10 48q1 5 -1 7t-5 2h-160.5h-160.5q-5 0 -7.5 -2t-4.5 -7
q-3 -18 -10 -50.5t-15 -74.5t-14.5 -87.5t-9.5 -88.5q-1 -6 -5 -6h-22.5h-22.5z" />
    <glyph glyph-name="I" unicode="I" horiz-adv-x="225" 
d="M92 6q-2 -6 -8 -6h-44q-6 0 -5 6l141 661q0 6 7 6h44q3 0 4 -1.5t1 -4.5z" />
    <glyph glyph-name="J" unicode="J" horiz-adv-x="291" 
d="M199 171q-15 -67 -35.5 -105t-51.5 -52.5t-79 -14.5l-76 1q-5 0 -9 1.5t-2 5.5l6 31q2 7 10 7q17 0 36 -0.5t35 -0.5q41 0 66 21.5t38 80.5l110 521q2 6 8 6h45q2 0 3.5 -1.5t0.5 -4.5z" />
    <glyph glyph-name="K" unicode="K" horiz-adv-x="521" 
d="M38 0q-4 0 -3 4q35 167 70.5 333t70.5 332q2 4 5 4h9.5h15h15h9.5q5 0 3 -4q-8 -38 -16 -74.5t-15.5 -72t-15.5 -72.5t-16 -75v-5.5t5 -2.5h88q7 0 11 3t8 7q28 38 54.5 74t52 71t51.5 71t54 74l4.5 4.5t3.5 1.5h10h14.5h14.5h10q4 0 4 -3t-4 -8q-38 -52 -75.5 -102.5
t-74 -101t-74.5 -103.5q-6 -9 -8 -15t-3 -11q-4 -28 -0.5 -61.5t13 -67t23 -62.5t29.5 -47q18 -19 40 -30t49 -11q2 0 5 -1t2 -3l-8 -41q-1 -5 -4 -5q-43 0 -74.5 12t-54.5 36q-18 19 -33 48.5t-25.5 64.5t-15.5 70t-3 64q0 8 -3 10t-6 2h-44h-44l-3 -1t-5 -6
q-8 -39 -16 -75.5t-15.5 -72.5t-15 -72.5t-15.5 -75.5q-1 -4 -5 -4h-9.5h-15h-15h-9.5z" />
    <glyph glyph-name="L" unicode="L" horiz-adv-x="421" 
d="M40 0q-6 0 -5 6l141 661q0 6 7 6h43q4 0 5 -1.5t1 -5.5l-130 -611q-1 -4 -0.5 -6.5t6.5 -2.5h251q5 0 6 -1t0 -6l-7 -31q-1 -5 -2.5 -6.5t-6.5 -1.5h-309z" />
    <glyph glyph-name="M" unicode="M" horiz-adv-x="713" 
d="M36 0q-7 0 -5 8q19 89 42 182.5t47.5 182.5t47 164.5t40.5 128.5q2 4 3.5 5.5t5.5 1.5h31q8 0 10 -9q28 -77 57 -158.5t58 -163.5q3 -4 6 -4.5t7 4.5l254 324q3 5 6 6t7 1h29q7 0 6 -9q-5 -51 -14 -125t-22 -162.5t-29.5 -183t-36.5 -185.5q-1 -5 -3 -6.5t-7 -1.5h-40
q-8 0 -6 8q9 43 19.5 99t21 117t20 120.5t17 111t11.5 87.5q1 8 -4 8.5t-10 -6.5l-220 -278q-4 -5 -11 -5h-25q-6 0 -7 4l-102 277q-2 5 -7 5t-7 -5q-15 -48 -32.5 -112t-37 -136.5t-37.5 -147t-32 -142.5q-1 -3 -2.5 -4t-4.5 -1h-44z" />
    <glyph glyph-name="N" unicode="N" horiz-adv-x="640" 
d="M462 124q2 -4 6 -3.5t6 6.5q11 36 24.5 89t27 113.5t25.5 122.5t20.5 117t11.5 96q2 8 6 8h45q3 0 4.5 -1.5t1.5 -4.5q-3 -35 -11 -88t-20.5 -116t-27 -130t-29.5 -129t-29 -114t-25 -84q-1 -4 -4 -5t-6 -1h-32q-5 0 -6 7l-229 544q-1 4 -4.5 4t-4.5 -5
q-12 -42 -26.5 -97.5t-28.5 -117.5t-26 -123t-20.5 -114t-10.5 -90q-1 -8 -7 -8h-43q-3 0 -5.5 1t-1.5 5q3 34 11.5 86.5t20.5 115t26 129.5t29 130t29.5 115t26.5 85q1 3 3.5 4.5t4.5 1.5h33q4 0 6 -6z" />
    <glyph glyph-name="O" unicode="O" horiz-adv-x="625" 
d="M75 335q24 111 62.5 187.5t102.5 115t165 38.5q79 0 125 -22t65 -65t17 -107t-20 -147q-23 -112 -60.5 -187.5t-102 -114.5t-169.5 -39q-101 0 -149 39t-53.5 114.5t17.5 187.5zM133 335q-23 -114 -16 -177t45.5 -88t107.5 -25q68 0 118 25t86 87.5t60 177.5
q24 114 15.5 178t-48 89.5t-108.5 25.5q-68 0 -117.5 -26t-83.5 -89.5t-59 -177.5z" />
    <glyph glyph-name="P" unicode="P" horiz-adv-x="480" 
d="M484 463q-13 -63 -46.5 -115.5t-82 -84t-111.5 -31.5h-96q-5 0 -7 -2.5t-2 -5.5l-47 -218q-1 -6 -8 -6h-44q-3 0 -4.5 1.5t-0.5 4.5l141 661q2 6 7 6h144q107 0 143.5 -51t13.5 -159zM151 286q-1 -4 1.5 -6t4.5 -2h91q68 0 115 49.5t65 135.5q19 90 -8 127.5t-101 37.5
h-87q-5 0 -6.5 -1.5t-3.5 -7.5z" />
    <glyph glyph-name="Q" unicode="Q" horiz-adv-x="625" 
d="M75 334q24 111 62 187.5t102 115.5t165 39q79 0 125 -22.5t65.5 -65.5t17.5 -107t-20 -147q-21 -99 -52.5 -170t-82.5 -112.5t-131 -53.5q-7 -1 -13.5 -2t-13.5 -2q-4 0 -6.5 -2t-3.5 -6q-9 -47 -7 -76t25.5 -42.5t76.5 -13.5h24q7 0 5 -6l-5 -26q-1 -3 -3 -5.5t-7 -3.5
q-3 -1 -12.5 -1h-21.5q-68 0 -100 19.5t-37.5 58.5t5.5 95q0 4 -1 6.5t-6 2.5q-7 1 -13 2t-13 3q-74 11 -108 52t-35.5 112t19.5 171zM133 334q-24 -114 -17 -177t45.5 -88t107.5 -25q68 0 118 25t86 88t61 177q24 115 15 178.5t-48.5 89t-108.5 25.5q-68 0 -117 -26
t-83 -89t-59 -178z" />
    <glyph glyph-name="R" unicode="R" horiz-adv-x="523" 
d="M40 0q-3 0 -4.5 1.5t-0.5 4.5l141 661q0 6 7 6h138q74 0 116 -17.5t54.5 -58.5t-3.5 -113q-14 -68 -51 -118t-98 -70q-12 -5 -16 -11.5t-2 -14.5q0 -34 7.5 -69t21.5 -65.5t33 -50.5q17 -16 38 -25.5t47 -9.5q3 0 5.5 -1.5t2.5 -5.5l-8 -36q0 -3 -1 -4.5t-4 -2t-10 -0.5
q-38 0 -67 12.5t-50 33.5q-23 23 -39 58.5t-25 77t-10 81.5q1 5 -1.5 9.5t-12.5 4.5h-90q-3 0 -6 -2t-5 -8l-55 -261q-1 -6 -8 -6h-44zM161 332q-1 -8 7 -8h89q69 0 113.5 37.5t61.5 122.5q14 60 4.5 91t-41 42t-85.5 11h-78q-5 0 -6.5 -1.5t-3.5 -7.5z" />
    <glyph glyph-name="S" unicode="S" horiz-adv-x="452" 
d="M15 24l9 39q1 5 4 4l6 -2q19 -7 41 -13t44.5 -9.5t40.5 -3.5q74 0 120 40.5t60 108.5q11 49 -2 76.5t-40 42t-60 22.5q-28 8 -56.5 17.5t-51 27.5t-31.5 49.5t2 82.5q13 61 48 98t83.5 55t102.5 18q13 0 36 -3t48.5 -8.5t42.5 -14.5q4 -1 5.5 -3.5t0.5 -5.5l-7 -33
q-2 -11 -15 -5q-15 8 -37.5 14t-44.5 9.5t-37 3.5q-63 0 -109.5 -31t-59.5 -91q-7 -37 1 -60t27.5 -36.5t44 -21.5t49.5 -16q29 -8 55 -19.5t44 -31t24.5 -51.5t-5.5 -82q-12 -63 -46 -107.5t-85 -68.5t-117 -24q-28 0 -64 7t-65 17q-4 1 -5.5 3t-0.5 6z" />
    <glyph glyph-name="T" unicode="T" horiz-adv-x="430" 
d="M142 0q-3 0 -4.5 2t-0.5 6l130 610q1 4 -0.5 6t-5.5 2h-148q-5 0 -6 1.5t0 5.5l7 33q1 4 2.5 5.5t6.5 1.5h369q5 0 6.5 -1.5t0.5 -5.5l-7 -34q-1 -3 -3 -4.5t-7 -1.5h-150q-4 0 -6 -1.5t-3 -6.5l-130 -611q-1 -7 -7 -7h-44z" />
    <glyph glyph-name="U" unicode="U" horiz-adv-x="633" 
d="M264 -11q-64 0 -103.5 13t-60.5 33t-28.5 44.5t-7 47.5t2.5 42q5 42 14 93.5t20 102.5q12 50 25 102.5t28.5 103t29.5 93.5q1 3 3.5 6t4.5 3h21.5h21.5q4 0 4.5 -1.5t-0.5 -7.5q-13 -40 -26 -85.5t-26 -94.5q-21 -80 -38.5 -161t-25.5 -150q-1 -14 -1.5 -32t5 -36.5
t21 -34t46 -25t78.5 -9.5q61 0 100 14.5t61.5 36.5t33.5 45t16 41q20 68 37 146t30 158q8 51 15 98.5t11 88.5q0 6 1.5 7.5t5.5 1.5h21.5h21.5q4 0 5 -3t0 -6q-3 -43 -10 -93t-15 -101.5t-18 -100.5q-11 -53 -23 -105t-26 -95q-7 -23 -21 -53t-43 -59t-79.5 -48.5
t-131.5 -19.5z" />
    <glyph glyph-name="V" unicode="V" horiz-adv-x="531" 
d="M185 0q-3 1 -5.5 2.5t-3.5 4.5q-12 43 -21 107t-15.5 139t-9 150.5t-2.5 142.5t4 115q1 6 2 9t6 3h42q5 0 6 -2t0 -8q-2 -39 -2 -94.5t1.5 -118t5.5 -125.5t10.5 -119t14.5 -97q1 -9 2 -20t5 -19q2 -2 4 -2t5 2q6 7 12 18t12 21q24 39 54 95t61.5 119.5t61 127t52 118.5
t36.5 94q3 6 4.5 8t5.5 2h44q5 0 5 -3t-3 -10q-12 -36 -34.5 -89t-50 -114.5t-58.5 -126t-63 -125.5t-61.5 -112t-52.5 -85q-3 -5 -6.5 -6t-7.5 -2h-60z" />
    <glyph glyph-name="W" unicode="W" horiz-adv-x="829" 
d="M182 0q-6 0 -8 2t-2 5q-13 42 -22 106.5t-15.5 139.5t-9 151t-2.5 144t4 117q1 3 2 5.5t6 2.5h42q5 0 5.5 -1.5t0.5 -5.5q-1 -36 -2 -81.5t0 -97.5t3 -111q2 -42 5 -84.5t7 -82.5t8.5 -74t10.5 -59q1 -2 1.5 -5.5t4.5 -3.5h7q2 0 4.5 2.5t4.5 6.5q15 23 35 58.5t42.5 77
t43.5 82.5t38 75.5t27 56.5q6 32 11.5 69t11 72t10 61.5t6.5 37.5q1 4 2 6.5t5 2.5h44q5 0 6 -2t-1 -6q-20 -103 -25 -198t3.5 -191t26.5 -201q1 -4 1.5 -7t3.5 -3h3.5h4.5q3 0 8 8q24 37 51.5 88.5t56 108t54.5 110.5q37 78 70 154t52 129q2 4 3.5 6t4.5 2h45q7 0 3 -10
q-13 -35 -35.5 -88t-50.5 -115t-59 -127.5t-63 -126.5t-61 -112.5t-53 -85.5q-2 -4 -5.5 -6t-7.5 -2h-19h-21.5h-19.5q-3 0 -6 2t-3 5q-9 37 -17.5 88t-14.5 111t-10 123q0 6 -2.5 6.5t-4.5 -5.5q-30 -62 -62 -123.5t-62 -113.5t-53 -85q-3 -5 -6.5 -6.5t-7.5 -1.5h-58z" />
    <glyph glyph-name="X" unicode="X" horiz-adv-x="506" 
d="M347 352q-6 -7 -7 -13t2 -14q6 -11 11 -22t9 -21q18 -45 31 -89.5t22 -82.5t13.5 -64.5t4.5 -35.5q0 -6 -2.5 -8t-6.5 -2h-44q-2 0 -4 2t-3 9q0 3 -5 26t-13.5 58t-19 74t-23 75t-25.5 60q-8 2 -17.5 2t-19.5 -2q-25 -26 -53 -62.5t-55.5 -75t-50 -73t-37 -57
t-16.5 -25.5q-4 -6 -6 -8.5t-6 -2.5h-43q-5 0 -6.5 2t0.5 8q3 6 16.5 29.5t36.5 59t53.5 78t66.5 87.5q11 14 24.5 30.5t26.5 30.5q5 5 7 13t-1 14q-21 50 -37 100.5t-26 94.5t-15 74.5t-4 41.5q-1 5 2 7.5t6 2.5h43q4 0 5 -2t2 -8l3 -20t10 -52.5t16 -70.5t20.5 -75.5
t25.5 -66.5q2 -2 4 -5t6 -4q6 -1 12 -0.5t12 0.5q4 1 6.5 2t6.5 5q26 28 54 65.5t53.5 76t46.5 71.5t33 53.5l12 20.5q3 6 5 8t5 2h43q5 0 7 -2.5t-1 -7.5q-5 -11 -24 -42.5t-48.5 -76.5t-66.5 -95t-77 -97z" />
    <glyph glyph-name="Y" unicode="Y" horiz-adv-x="474" 
d="M293 307q-7 -8 -13 -22.5t-8 -25.5l-54 -253q-1 -3 -3 -4.5t-4 -1.5h-45q-2 0 -3.5 1.5t-0.5 4.5l53 251q3 16 2 33t-7 27q-7 13 -15.5 31t-16.5 37t-14.5 35.5t-9.5 27.5q-16 53 -26.5 99.5t-15 78t-4.5 37.5q0 5 3 7.5t7 2.5h42q3 0 4 -2t2 -8q1 -7 6.5 -36.5t15.5 -70
t21 -81.5q7 -27 18.5 -55.5t25.5 -57.5q5 -8 8.5 -9.5t11.5 7.5q16 16 34 36.5t35 42t29 37.5q29 40 54 80.5t42.5 70t20.5 36.5q2 6 5 8t6 2h43q4 0 5.5 -2.5t-1.5 -7.5q-2 -6 -18.5 -36.5t-44.5 -75.5t-67 -97q-9 -13 -23.5 -31.5t-32 -39.5t-35 -41t-32.5 -35z" />
    <glyph glyph-name="Z" unicode="Z" horiz-adv-x="442" 
d="M493 673q4 0 5 -2t-1 -8l-6 -28q-1 -10 -12.5 -23.5t-23.5 -24.5q-38 -34 -85 -85t-96 -110.5t-95 -121.5t-82.5 -120t-57.5 -104h344q4 0 5 -1.5t0 -4.5l-6 -33q-2 -5 -3.5 -6t-5.5 -1h-388q-8 0 -9.5 5t1.5 13q9 41 38.5 94.5t72 114t91 121t95.5 115.5t86.5 97
t63.5 66h-303q-4 0 -5.5 2t-0.5 5l7 33q1 4 2.5 5.5t6.5 1.5h362z" />
    <glyph glyph-name="bracketleft" unicode="[" horiz-adv-x="345" 
d="M182 -108q-2 -7 -6 -7h-189q-4 0 -5 2t0 5l180 851q3 6 8 6h188q4 0 5 -0.5t0 -3.5l-6 -31q-1 -3 -2.5 -4t-4.5 -1h-140l-166 -782h140q2 0 3.5 -1.5t1.5 -4.5z" />
    <glyph glyph-name="backslash" unicode="\" horiz-adv-x="540" 
d="M411 0q-5 0 -7 2.5t-4 6.5l-261 685q-5 7 -3.5 10.5t6.5 3.5h35q5 0 7 -1.5t5 -7.5l265 -689q2 -3 1 -6.5t-7 -3.5h-37z" />
    <glyph glyph-name="bracketright" unicode="]" horiz-adv-x="345" 
d="M22 -115q-7 0 -4 7l6 29q1 3 2.5 4.5t4.5 1.5h139l167 782h-139q-3 0 -4.5 1t-0.5 4l5 31q2 3 3.5 3.5t5.5 0.5h188q6 0 4 -6l-181 -851q-1 -3 -2.5 -5t-4.5 -2h-189z" />
    <glyph glyph-name="asciicircum" unicode="^" horiz-adv-x="551" 
d="M100 418q-5 0 -6 2t2 5l247 276q3 3 5.5 5t8.5 2h39q4 0 6 -2t4 -5l129 -276q3 -3 0.5 -5t-7.5 -2h-42q-3 0 -8 6l-111 242l-214 -242q-3 -3 -6 -4.5t-7 -1.5h-40z" />
    <glyph glyph-name="underscore" unicode="_" horiz-adv-x="551" 
d="M-43 -79q-3 0 -4 2t0 4l5 29q2 4 3.5 5t4.5 1h504q3 0 4 -1t0 -4l-6 -31q-1 -2 -2 -3.5t-5 -1.5h-504z" />
    <glyph glyph-name="grave" unicode="`" horiz-adv-x="117" 
d="M145 531q-5 0 -10 5l-51 87q-2 2 -0.5 4t3.5 2h47q4 0 6.5 -1t4.5 -5l34 -86q4 -6 -3 -6h-31z" />
    <glyph glyph-name="a" unicode="a" horiz-adv-x="483" 
d="M180 -6q-95 0 -130 57.5t-9 178.5q16 76 44.5 123.5t63 73.5t70.5 36t69 10q35 0 68.5 -12t47.5 -24l6 28q1 3 3 4t4 1h43q6 0 6 -6q-3 -18 -9 -49.5t-15 -72.5t-20 -89.5t-25 -102.5t-30 -110q-2 -6 -5.5 -11t-16.5 -9q-31 -11 -77 -18.5t-88 -7.5zM198 39q18 0 40 4
t40 8.5t24 5.5q6 2 12.5 6.5t9.5 15.5q7 25 15 58.5t16.5 70t16 71t13.5 60.5t7 37q2 6 -0.5 10.5t-10.5 8.5q-19 10 -44 19t-58 9q-21 0 -47 -7t-52 -26t-47.5 -58t-35.5 -102q-22 -106 3.5 -148.5t97.5 -42.5z" />
    <glyph glyph-name="b" unicode="b" horiz-adv-x="482" 
d="M195 -6q-50 0 -87.5 9t-45.5 12q-12 5 -18 9t-6.5 12.5t1.5 26.5q1 18 6.5 54.5t13.5 80.5t16 84q20 104 46.5 212.5t55.5 205.5q1 3 3.5 5.5t7.5 2.5h38q8 0 7.5 -3.5t-2.5 -8.5q-4 -15 -11.5 -40.5t-15 -54.5t-14.5 -56t-11.5 -46.5t-6.5 -25.5q-2 -10 1.5 -13.5
t12.5 -0.5q18 5 51 11t65 6q33 0 63.5 -11t52.5 -38.5t29 -76.5t-9 -125q-25 -121 -89 -176t-154 -55zM203 39q39 0 74.5 17.5t63 59t42.5 112.5q13 64 8 103t-21 60t-39 29t-46 8q-14 0 -37 -4t-43.5 -8.5t-28.5 -5.5q-6 -1 -11 -5t-8 -13q-5 -15 -12.5 -49.5t-16.5 -80
t-17.5 -94t-14.5 -91.5q-1 -10 1.5 -14.5t8.5 -7.5q15 -5 40 -10.5t57 -5.5z" />
    <glyph glyph-name="c" unicode="c" horiz-adv-x="395" 
d="M188 -5q-59 0 -94 18.5t-49.5 51.5t-14 77t11.5 95q11 48 29 91.5t47.5 78.5t71.5 55t101 20q41 0 68.5 -8.5t45.5 -25.5q3 -5 4 -7t-1 -8l-8 -34q-1 -6 -4.5 -6t-6.5 3q-14 19 -43.5 28.5t-61.5 9.5q-42 0 -74 -17.5t-54 -47t-36.5 -64t-22.5 -69.5q-12 -59 -7.5 -102.5
t31 -68t79.5 -24.5q33 0 60.5 6.5t51.5 16.5q10 5 11 -2l7 -26q1 -4 -1 -6t-5 -4q-26 -16 -61.5 -23.5t-74.5 -7.5z" />
    <glyph glyph-name="d" unicode="d" horiz-adv-x="490" 
d="M41 230q16 76 44 123.5t62.5 73.5t70.5 36t69 10q30 0 57 -4t44 -8q12 -4 16 -3.5t6 9.5q4 18 9 44.5t10.5 56.5t10.5 58t8 47t3 22q1 6 3.5 7.5t5.5 1.5h42q3 0 4.5 -1t1.5 -5q-8 -52 -17.5 -107.5t-20.5 -113t-23 -115t-25 -113.5t-26.5 -108.5t-27.5 -100.5
q-2 -6 -6.5 -11t-18.5 -11q-28 -11 -70 -19t-85 -8q-41 1 -75.5 11.5t-53.5 34.5q-23 28 -28 76.5t10 116.5zM97 230q-13 -66 -8 -105.5t26 -57.5q18 -20 51 -26.5t70 -2t66 16.5q7 3 11.5 6t5.5 8q8 26 17 62t18.5 75.5t17.5 76t14 64.5t8 40q2 10 -1.5 14.5t-8.5 6.5
q-25 6 -54 10.5t-51 4.5q-21 0 -47 -7t-52 -26t-47.5 -58t-35.5 -102z" />
    <glyph glyph-name="e" unicode="e" horiz-adv-x="458" 
d="M42 237q11 48 29 91.5t47.5 78.5t71.5 55t101 20q61 0 93 -18t44 -48.5t10.5 -67t-9.5 -73.5q-8 -36 -16.5 -44t-21.5 -8h-284q-2 0 -7 -2t-7 -11q-9 -50 -2 -88.5t34.5 -60.5t78.5 -22q36 0 78.5 8.5t72.5 24.5q5 3 11 4.5t8 -5.5l6 -21q2 -4 0 -6t-8 -5
q-37 -25 -85.5 -34.5t-98.5 -9.5q-60 0 -94.5 18.5t-49 51.5t-14 77t11.5 95zM374 284q6 29 7 56t-8.5 48.5t-31.5 34t-61 12.5t-68 -14.5t-50 -38.5t-34 -50.5t-19 -51.5q-3 -9 -2 -12.5t9 -3.5h117.5h118.5q10 0 14.5 3.5t7.5 16.5z" />
    <glyph glyph-name="f" unicode="f" horiz-adv-x="322" 
d="M-87 -236q-34 0 -54 6.5t-19 6.5q-4 2 -2 9q1 4 2.5 9.5t2.5 11.5t2 9q1 4 2.5 4.5t5.5 -1.5q15 -6 30.5 -8.5t31.5 -2.5q53 0 81 33.5t39 88.5q13 69 24.5 132t22 122.5t21.5 117.5t23 116q1 9 -7 9h-31.5h-31.5q-2 0 -3 2t-1 4q2 8 3.5 16.5t3.5 15.5q0 3 2.5 5t5.5 2
h33.5h29.5q8 0 9 8q8 43 21 87t46 81q28 31 71 47.5t101 16.5q29 0 51 -8.5t30 -13.5q5 -2 4.5 -4.5t-1.5 -5.5q-2 -6 -5.5 -12t-6.5 -13q-2 -3 -4 -4t-5 1q-9 6 -28 10.5t-47 4.5q-48 0 -79.5 -14.5t-49.5 -47.5q-18 -28 -26.5 -60.5t-15.5 -63.5q-2 -9 6 -9h76h82
q2 0 3 -1.5t0 -5.5q-1 -5 -2.5 -14.5t-4.5 -17.5q0 -2 -2 -4t-5 -2h-53h-50h-53q-2 0 -5.5 -2t-4.5 -7q0 -4 -1.5 -10t-3 -12.5t-2.5 -11.5q-9 -44 -19 -96t-21 -110t-22 -120.5t-23 -127.5q-15 -78 -55 -122t-122 -44z" />
    <glyph glyph-name="g" unicode="g" horiz-adv-x="493" 
d="M43 242q15 66 44 119.5t79.5 85t129.5 31.5q39 0 76 -6t62 -18q12 -4 14.5 -13.5t0.5 -29.5q-7 -70 -25.5 -171t-57.5 -214q-28 -85 -85.5 -124t-144.5 -39q-35 0 -73 9t-65 33q-4 5 -4.5 7.5t1.5 5.5q2 4 5.5 8t7 8.5t5.5 7.5q4 4 7 4.5t6 -2.5q15 -9 34 -18t41 -14.5
t46 -5.5q32 0 62.5 11.5t56.5 36.5t42 66q0 2 1 3.5t1 3.5q2 7 -2.5 7.5t-13.5 -1.5q-23 -6 -52 -11.5t-56 -5.5q-64 0 -101 28t-47.5 78.5t5.5 119.5zM101 247q-11 -54 -7 -95.5t30.5 -65t80.5 -23.5q24 0 49 3.5t46 10.5q13 4 23 12t12 16q9 30 18 69t16.5 79.5t13 75.5
t8.5 59q1 8 0 17.5t-12 15.5q-12 6 -38 10t-54 4q-81 0 -124.5 -52t-61.5 -136z" />
    <glyph glyph-name="h" unicode="h" horiz-adv-x="489" 
d="M23 6q37 174 74.5 348t74.5 348q0 6 6 6h22h22q6 0 5 -6q-13 -59 -25.5 -118t-25.5 -118q-1 -6 1 -8.5t10 -0.5q26 7 56.5 13.5t60.5 6.5q35 0 64 -11t47 -38t21.5 -74.5t-11.5 -119.5q-8 -38 -18 -78.5t-21 -79t-21 -70.5q-1 -4 -3.5 -5t-8.5 -1h-17.5h-16.5
q-7 0 -8.5 2t1.5 9q15 48 29 103.5t26 107.5q13 63 11.5 103.5t-14.5 63.5t-33.5 32t-44.5 9q-21 0 -49.5 -4.5t-53.5 -11.5q-7 -1 -13.5 -6t-9.5 -18l-81 -384q-1 -6 -7 -6h-44q-6 0 -5 6z" />
    <glyph glyph-name="i" unicode="i" horiz-adv-x="199" 
d="M211 603q-3 -16 -10 -23.5t-28 -7.5q-20 0 -25.5 7.5t-2.5 23.5q3 14 12 22t29 8q21 0 24.5 -8t0.5 -22zM80 6q-1 -6 -6 -6h-45q-6 0 -4 6l97 460q2 6 7 6h45q1 0 3 -1.5t0 -4.5z" />
    <glyph glyph-name="j" unicode="j" horiz-adv-x="191" 
d="M-79 -127q-20 0 -44 3.5t-36 11.5q-8 6 -9 9t2 8l15 20q2 4 5 4.5t6 -1.5q27 -13 59 -12q52 0 76.5 30.5t36.5 86.5l93 433q1 6 6 6h44q2 0 4 -1.5t1 -4.5l-93 -433q-16 -76 -52 -118t-114 -42zM175 572q-20 0 -25 7.5t-2 23.5q3 14 11.5 22t28.5 8q22 0 25.5 -8t1.5 -22
q-3 -16 -11 -23.5t-29 -7.5z" />
    <glyph glyph-name="k" unicode="k" horiz-adv-x="430" 
d="M23 4l148 694q1 4 4 4h47q5 0 4 -4l-87 -409q-1 -2 -0.5 -4.5t3.5 -2.5q17 0 33 0.5t31 0.5q10 2 15 4t14 10q26 24 50 53t45 59t36 55q3 6 5.5 7t8.5 1h44q4 0 4.5 -2t-1.5 -6q0 -1 -12.5 -19.5t-33.5 -47.5t-47 -61t-53 -59q-5 -4 -8.5 -7.5l-7.5 -7.5l3 -3t3 -4
q13 -18 25 -47.5t22 -63.5t17.5 -64t12 -50t5.5 -22q2 -8 -5 -8h-10h-15h-14.5h-9.5q-4 0 -5 0.5t-3 6.5l-5 24t-14.5 59.5t-21.5 70.5t-26 57q-4 8 -12 12.5t-25 6.5t-53 1q-6 -1 -8 -9l-47 -225q-1 -4 -5 -4h-48q-4 0 -3 4z" />
    <glyph glyph-name="l" unicode="l" horiz-adv-x="199" 
d="M23 6l149 696q0 6 6 6h43q7 0 6 -6l-148 -696q-1 -6 -8 -6h-43q-6 0 -5 6z" />
    <glyph glyph-name="m" unicode="m" horiz-adv-x="750" 
d="M546 429q-39 0 -73.5 -23.5t-43.5 -64.5l-15 -71q-11 -56 -22.5 -109.5t-20 -94t-13.5 -58.5q-1 -4 -3.5 -6t-7.5 -2h-40q-7 0 -5 7l53 246q13 58 8.5 96.5t-33.5 60.5q-30 21 -69.5 18.5t-76.5 -14.5q-6 -1 -14 -7t-10 -17l-81 -383q-1 -3 -2.5 -5t-4.5 -2h-43
q-3 0 -5 1.5t-1 4.5l91 423q0 5 5.5 11t16.5 10q13 5 35.5 11t48.5 10.5t47 4.5q62 0 94.5 -19t46.5 -51q17 22 42 37.5t52.5 24t51.5 8.5q73 0 106.5 -29.5t38.5 -80.5t-8 -114q-11 -51 -23 -99t-23 -86t-18 -62q-2 -5 -10 -5h-39q-5 0 -6 2t1 8q4 15 14.5 54.5t23.5 91
t23 100.5q7 31 7 62t-8.5 56t-30 40t-56.5 15z" />
    <glyph glyph-name="n" unicode="n" horiz-adv-x="490" 
d="M29 0q-3 0 -5 1.5t-1 4.5q23 107 46 213.5t45 212.5q2 6 6 10t17 8q14 4 40.5 10t57 11t55.5 5q57 0 90 -17t47 -48t14 -71.5t-10 -87.5t-22 -95t-22.5 -87t-17.5 -60q-2 -7 -4.5 -8.5t-9.5 -1.5h-37q-7 0 -5 8q2 6 7 24.5t12 45.5t15 58.5t15.5 62.5t13.5 56
q12 54 6.5 92.5t-30 59t-72.5 20.5q-26 1 -51.5 -4t-46.5 -13q-6 -1 -13 -6t-9 -16q-20 -94 -40.5 -189.5t-40.5 -191.5q-1 -3 -2.5 -5t-4.5 -2h-43z" />
    <glyph glyph-name="o" unicode="o" horiz-adv-x="490" 
d="M194 -6q-61 0 -96.5 18t-51.5 50.5t-15.5 76.5t11.5 98q15 70 45.5 124.5t81.5 85.5t127 31q77 0 114.5 -31t45 -85.5t-7.5 -124.5q-15 -71 -44 -126t-79 -86t-131 -31zM203 40q82 0 125.5 51.5t63.5 144.5t-5 143.5t-101 50.5t-122 -50.5t-66 -143.5q-20 -94 2 -145
t103 -51z" />
    <glyph glyph-name="p" unicode="p" horiz-adv-x="490" 
d="M3 -107q11 66 26.5 142t34.5 163q9 39 18.5 80t20 81.5t20.5 76.5q2 6 6.5 11t16.5 9q36 11 77.5 17.5t88.5 6.5q95 0 129.5 -56.5t8.5 -178.5q-13 -63 -43 -118.5t-77 -91t-112 -38.5q-19 -2 -43 -1.5t-46 3.5t-34 7q-5 2 -9 1.5t-5 -5.5q-2 -8 -5.5 -25t-8 -38
t-7.5 -42q-1 -4 -2.5 -8t-8.5 -4h-39q-5 0 -6 3t-1 5zM95 75q-2 -9 3.5 -12.5t9.5 -5.5q22 -7 51 -10.5t51 -3.5t48 8.5t52.5 29.5t48.5 61t35 104q16 71 8 112.5t-34 59.5t-69 18q-28 0 -57 -5t-52 -13q-6 -3 -11.5 -6t-6.5 -8q-8 -26 -17.5 -63t-19 -78t-18 -79.5
t-14.5 -67.5t-8 -41z" />
    <glyph glyph-name="q" unicode="q" horiz-adv-x="491" 
d="M157 -3q-30 3 -57.5 15.5t-46 40.5t-23 75t13.5 117q31 122 93 178.5t157 56.5q48 0 85 -6.5t70 -17.5q10 -4 11.5 -9t0.5 -11q-4 -32 -13.5 -74t-20.5 -90t-24 -99.5t-26 -101.5t-26 -95.5t-24 -82.5q-1 -2 -3.5 -5t-6.5 -3h-39q-7 0 -6.5 4t1.5 8l12 42t10 38t5 25
q2 5 -2 5.5t-11 -1.5q-26 -6 -61 -9t-69 0zM100 246q-15 -64 -11.5 -104t19 -61t38 -29t43.5 -8q22 0 54 3.5t59 9.5q6 2 11.5 5.5t6.5 12.5q4 12 11.5 41t17 67.5t19 79.5t17.5 78t13 63q2 5 -1.5 8t-9.5 6q-20 8 -46.5 13t-55.5 5q-63 0 -110 -42t-75 -148z" />
    <glyph glyph-name="r" unicode="r" horiz-adv-x="352" 
d="M280 477q57 0 94 -15q4 -1 6 -3t0 -6l-14 -31q-2 -4 -5 -5t-6 1q-16 5 -36.5 8t-40.5 3q-16 0 -36 -3.5t-36.5 -7t-24.5 -7.5q-5 -3 -11.5 -7.5t-9.5 -18.5l-81 -377q-1 -5 -3 -6.5t-6 -1.5h-42q-3 0 -4.5 1.5t0.5 5.5l87 412q3 14 8 19t14 9q32 14 73 22t74 8z" />
    <glyph glyph-name="s" unicode="s" horiz-adv-x="390" 
d="M7 73q1 4 4 4t5 -3q13 -10 36.5 -17.5t47.5 -11.5t41 -4q31 0 60 10t51 32.5t30 58.5q7 33 -6 48.5t-39.5 21.5t-60.5 10q-25 2 -49 7t-41.5 18t-25.5 37t1 65q9 40 39 68.5t74 44t95 15.5q17 0 40 -4t44.5 -11.5t33.5 -20.5q3 -2 2.5 -3.5t-1.5 -5.5l-17 -32
q-2 -5 -10 -1q-10 9 -28.5 16t-38.5 12t-35 5q-61 0 -98.5 -25t-44.5 -57q-7 -34 5.5 -50.5t37.5 -22t54 -8.5q24 -2 49.5 -6.5t45 -17t28 -36.5t-0.5 -64q-11 -57 -45 -90t-76.5 -46.5t-81.5 -13.5q-17 0 -43 3.5t-51.5 12t-43.5 20.5q-2 4 -1 8z" />
    <glyph glyph-name="t" unicode="t" horiz-adv-x="318" 
d="M170 0q-61 0 -84.5 26t-22.5 73q1 43 10.5 90t20.5 97q7 35 15 68t17 67q2 9 -6 9h-53q-3 0 -4 2t-1 5l6 28q0 3 2.5 5t5.5 2h53q5 0 7.5 2t3.5 8l24 88q2 6 6 6h43q3 0 5 -1.5t1 -4.5l-23 -87q-2 -6 -1 -8.5t6 -2.5h126q4 0 4.5 -1.5t-0.5 -5.5l-5 -28q0 -2 -2.5 -4.5
t-5.5 -2.5h-126q-3 0 -6.5 -2t-4.5 -8q-9 -34 -17.5 -69t-16.5 -71q-8 -41 -17 -85.5t-9 -86.5q-1 -31 14 -47t54 -16q15 0 30.5 3.5t32.5 8.5q6 4 7.5 3t3.5 -6l2 -26q2 -7 -14 -14q-12 -4 -28 -7.5t-31 -5t-22 -1.5z" />
    <glyph glyph-name="u" unicode="u" horiz-adv-x="489" 
d="M200 -4q-56 0 -89 17t-47.5 48t-14.5 71.5t10 87.5q11 48 22.5 95.5t22.5 86.5t16 60q3 7 6 8.5t10 1.5h32q7 0 9 -1t-1 -9q-2 -7 -8.5 -32t-16 -60.5t-19 -76t-16.5 -77.5q-17 -79 3.5 -125.5t90.5 -46.5q9 0 28 1.5t39 6t35.5 12t17.5 18.5l81 383q2 3 3 5t3 2h45
q2 0 4 -1t1 -5l-89 -418q-2 -12 -9 -17t-27 -12q-8 -3 -32.5 -8.5t-54.5 -10t-55 -4.5z" />
    <glyph glyph-name="v" unicode="v" horiz-adv-x="396" 
d="M128 0q-7 0 -9 6q-15 41 -23.5 89t-14.5 95q-10 80 -12 150t1 118q0 8 2.5 11t5.5 3h40q3 0 6 -2t2 -7q-4 -35 -2.5 -85.5t5.5 -105.5q3 -41 7 -79t9 -67t9 -43q4 -13 10 -11t13 10q14 18 39.5 62.5t53.5 100.5q32 61 57 121t38 99q2 7 9 7h45q6 0 4 -7q-18 -51 -48 -119
t-69 -138q-30 -55 -61 -105.5t-65 -96.5q-4 -6 -9 -6h-43z" />
    <glyph glyph-name="w" unicode="w" horiz-adv-x="619" 
d="M131 0q-5 0 -7 1.5t-4 6.5q-18 56 -28.5 118.5t-16 124t-6.5 115.5t1 92q0 7 2.5 10.5t7.5 3.5h39q9 0 8 -9q-2 -32 -1 -75t3.5 -89.5t7 -89.5t10 -75.5t10.5 -47.5q6 -22 20 -5q15 18 34 50t36 67t29.5 65.5t15.5 47.5q4 15 8 37t8.5 44.5t9 41.5t6.5 29q1 9 8 9h43
q3 0 6 -1.5t2 -7.5q-4 -21 -11 -56.5t-19 -89.5q-3 -17 -2 -43.5t4.5 -56.5t8.5 -58.5t9.5 -50t7.5 -31.5q3 -14 14 -1q15 18 35.5 53t43.5 79t45 91t40.5 90t28.5 74q3 9 13 9h40q4 0 5 -3t-1 -10q-12 -32 -30 -74.5t-41.5 -90.5t-50.5 -98.5t-57 -98t-60 -89.5
q-3 -5 -6.5 -6.5t-6.5 -1.5h-38q-5 0 -7 1.5t-4 5.5q-7 26 -15 58.5t-14 64.5t-9 56q-1 8 -5.5 8t-7.5 -7q-10 -18 -22 -39.5t-24.5 -42.5t-24.5 -41q-10 -14 -21 -29.5t-20 -27.5q-2 -4 -5 -5.5t-7 -1.5h-38z" />
    <glyph glyph-name="x" unicode="x" horiz-adv-x="385" 
d="M-30 0q-3 0 -4 2t0 5l2 6t14 25t34.5 55t49.5 71t60 73q5 5 5.5 10t-1.5 10q-16 32 -26.5 68t-16.5 68t-8.5 52.5l-2.5 20.5q0 6 5 6h47q3 0 4.5 -1t2.5 -8q0 -2 3 -25t9 -54.5t16.5 -62.5t24.5 -49h14h14q22 18 45 49t43 62t32 54t13 26q3 6 5.5 7.5t7.5 1.5h38
q3 0 5 -1t0 -7q-1 -2 -12 -23t-29.5 -52t-44 -66t-55.5 -67q-5 -4 -5 -8.5t2 -9.5q18 -35 30 -72.5t18.5 -71t10 -55.5t3.5 -27q0 -6 -1.5 -9t-5.5 -3h-41q-4 0 -6 1.5t-4 7.5q-1 8 -4 33.5t-10.5 59t-18.5 65.5t-27 54h-10h-8h-10q-27 -25 -53.5 -61t-48.5 -70.5
t-35.5 -57.5l-13.5 -23q-2 -6 -4.5 -7.5t-6.5 -1.5h-45z" />
    <glyph glyph-name="y" unicode="y" horiz-adv-x="404" 
d="M-45 -127q-14 0 -26 1.5t-21 3.5q-10 4 -4 13l15 23q5 7 13 5q4 -1 8 -1.5t10 -0.5q27 0 56.5 11.5t53.5 30.5q17 13 33 28.5t26.5 30t10.5 23.5q0 12 -5.5 23.5t-15.5 38.5q-7 20 -14.5 57t-14 85.5t-8.5 104t2 112.5q0 10 9 10h39q4 0 7 -2t2 -10q-4 -35 -2.5 -83.5
t7 -98.5t13 -92t16.5 -67q4 -11 12.5 -13.5t15.5 8.5q29 46 62 104.5t63 121.5t49 122q2 6 4.5 8t8.5 2h39q10 0 6 -10q-12 -35 -26.5 -70t-33.5 -73.5t-45 -86.5q-15 -28 -41 -72.5t-60 -94t-76 -93t-89.5 -71.5t-98.5 -28z" />
    <glyph glyph-name="z" unicode="z" horiz-adv-x="352" 
d="M-22 13q21 63 65 125.5t97 127.5q38 45 73 83.5t65 65.5q5 5 6 7.5t-5 3.5h-186q-3 0 -4 1.5t-1 4.5l7 33q1 5 3 6t5 1h263q6 0 6.5 -1.5t-0.5 -7.5l-6 -26q-1 -4 -6.5 -11.5t-12.5 -11.5q-28 -22 -60 -53.5t-62.5 -66t-55.5 -65.5q-39 -51 -71.5 -94.5t-47.5 -74.5
q-1 -4 -2 -9.5t7 -5.5h220q4 0 5 -1t0 -5l-7 -33q-1 -4 -3 -5t-6 -1h-280q-4 0 -6.5 2.5t0.5 10.5z" />
    <glyph glyph-name="braceleft" unicode="{" horiz-adv-x="416" 
d="M253 -106q-1 -4 -3.5 -7t-8.5 -3h-54q-34 0 -52 10t-24.5 26.5t-6 35.5t4.5 38l41 192q6 28 0.5 51.5t-21.5 37.5q-7 8 -20 15t-34 7q-7 0 -6.5 4t1.5 8l7 35q1 3 3.5 5.5t7.5 2.5q44 0 77.5 31t42.5 78l38 177q6 24 17.5 49.5t37 42.5t69.5 17h58q4 0 4.5 -1.5t0.5 -4.5
l-7 -30q0 -2 -1.5 -3t-5.5 -1h-46q-37 0 -50.5 -19.5t-19.5 -49.5l-39 -177q-5 -30 -22 -57t-41 -47t-53 -30q-4 -1 -5 -3t1 -3q4 -1 11.5 -6t12.5 -9q26 -18 36 -51t2 -69l-41 -192q-6 -29 -0.5 -48.5t41.5 -19.5h43q6 0 8 -2t1 -7z" />
    <glyph glyph-name="bar" unicode="|" horiz-adv-x="274" 
d="M259 708q4 0 5 -2t0 -6l-172 -809q-1 -3 -2.5 -5t-5.5 -2h-44q-3 0 -4.5 2t-0.5 8l172 807q1 3 2.5 5t5.5 2h44z" />
    <glyph glyph-name="braceright" unicode="}" horiz-adv-x="416" 
d="M17 -106l6 23q1 5 3 7t8 2h43q37 0 50 19.5t19 48.5l41 192q5 24 18 47t32 42t40 31q7 4 17 9t14 6q2 1 1.5 3t-3.5 3q-25 10 -40.5 30t-21 47t0.5 57l38 177q7 30 2 49.5t-42 19.5h-46q-4 0 -5 1t-1 3l7 30q0 3 1.5 4.5t5.5 1.5h58q34 0 52 -10t24.5 -26t5.5 -35.5
t-5 -37.5l-39 -177q-9 -47 11 -78t64 -31q5 0 7.5 -2.5t1.5 -5.5l-7 -35q-1 -4 -3 -8t-9 -4q-22 0 -36.5 -7t-26.5 -15q-21 -14 -37.5 -37.5t-22.5 -51.5l-41 -192q-5 -25 -16.5 -50t-36 -42.5t-70.5 -17.5h-54q-6 0 -7 3t-1 7z" />
    <glyph glyph-name="asciitilde" unicode="~" horiz-adv-x="491" 
d="M511 601q-13 -10 -28.5 -21.5t-35 -20.5t-47.5 -9q-23 0 -42.5 9t-38 21t-38 21t-43.5 9q-27 0 -49.5 -20.5t-37.5 -36.5q-2 -4 -3.5 -3l-4.5 3l-15 19q-2 2 -1 4t2 5q11 15 29.5 31t41.5 27.5t45 11.5q25 0 46 -9t39.5 -21t37.5 -20.5t40 -8.5q23 0 45 14.5t35 25.5
q3 2 5 3t5 -2l16 -21q3 -3 1 -5.5t-4 -5.5z" />
    <glyph glyph-name="uni00A0" unicode="&#xa0;" horiz-adv-x="245" 
 />
    <glyph glyph-name="exclamdown" unicode="&#xa1;" horiz-adv-x="239" 
d="M155 249q2 0 2.5 -1t0.5 -5l-85 -432q0 -2 -1.5 -4t-5.5 -2h-49q-5 0 -5 6l99 432q2 4 3.5 5t5.5 1h35zM133 455q3 14 11 22t28 8q19 0 24 -8t2 -22q-3 -15 -11.5 -22.5t-27.5 -7.5q-20 0 -24.5 7.5t-1.5 22.5z" />
    <glyph glyph-name="cent" unicode="&#xa2;" horiz-adv-x="475" 
d="M234 73q-59 0 -93.5 18.5t-49 51.5t-14 77t11.5 95q10 48 28 91.5t47.5 78.5t72 55t100.5 20q41 0 69 -8.5t45 -25.5q4 -5 4.5 -7t-0.5 -8l-8 -34q-1 -6 -5 -6t-6 3q-15 19 -44 28.5t-61 9.5q-42 0 -73.5 -17.5t-54 -47t-37 -64t-22.5 -69.5q-12 -59 -7.5 -102.5t31 -68
t79.5 -24.5q33 0 60 6.5t52 16.5q9 5 10 -2l7 -26q1 -7 -5 -10q-27 -16 -62.5 -23.5t-74.5 -7.5zM267 99l-42 -196q-1 -3 -2.5 -5t-5.5 -2h-43q-4 0 -5.5 2t0.5 8l41 193h57zM301 529l37 172q1 3 2.5 5t5.5 2h43q4 0 5 -2t1 -6l-37 -171h-57z" />
    <glyph glyph-name="sterling" unicode="&#xa3;" horiz-adv-x="499" 
d="M316 -13q-37 0 -69 10.5t-68 18.5q-24 6 -48.5 8.5t-50.5 -4.5q-12 -2 -27.5 -5t-29.5 -7q-6 -1 -8 0t-1 6q2 8 3.5 16.5t3.5 17.5q1 4 3.5 7t7.5 6q51 19 84 51t50.5 73t20.5 86h-47h-48q-3 0 -5 1.5t-2 4.5q2 7 3.5 14.5t3.5 15.5q0 5 2 6t5 1h44h43q-9 68 -11 120
t5 85q9 39 36 75t71 58.5t102 22.5q15 0 34.5 -3t38.5 -8t33 -11q3 -1 3.5 -5t-0.5 -7q-1 -8 -2.5 -16.5t-4.5 -16.5q-1 -5 -3 -5.5t-8 2.5q-20 8 -48.5 15.5t-49.5 7.5q-42 0 -72.5 -15.5t-48 -40.5t-24.5 -53q-7 -34 -4.5 -83.5t9.5 -121.5h61.5h60.5q3 0 4 -1.5t0 -5.5
q-1 -8 -2.5 -15t-3.5 -15q0 -3 -2 -4.5t-6 -1.5h-56.5h-57.5q-1 -6 -1 -11.5t-1 -11.5q-8 -50 -31.5 -96t-66.5 -83q36 -1 66 -9.5t59 -17t61 -8.5q27 0 53 7t40 14q5 2 7.5 1.5t1.5 -5.5l-6 -28q-2 -7 -4.5 -10t-4.5 -4q-19 -11 -43.5 -16.5t-53.5 -5.5z" />
    <glyph glyph-name="currency" unicode="&#xa4;" horiz-adv-x="530" 
d="M80 150l-18 23q-2 3 -1.5 4.5t2.5 3.5l101 83q-7 15 -9.5 33t1.5 39q5 20 14.5 38.5t24.5 34.5l-57 71q-2 2 -0.5 4.5t3.5 3.5l28 24q3 2 4.5 1.5t3.5 -1.5l56 -72q19 11 39 17.5t41 6.5q42 0 70 -25l88 73q4 2 8 0l19 -24q1 -1 1 -3.5t-2 -4.5l-90 -73q16 -31 8 -71
q-9 -41 -39 -72l68 -83q3 -2 2 -3.5t-5 -4.5l-27 -23q-3 -2 -5 -2t-4 2l-67 82q-37 -23 -80 -23q-41 0 -69 23l-100 -82q-3 -2 -5 -2t-4 2zM198 336q-7 -38 12 -62.5t57 -24.5t68 24.5t37 62.5q8 37 -11 61.5t-57 24.5t-68 -24.5t-38 -61.5z" />
    <glyph glyph-name="yen" unicode="&#xa5;" horiz-adv-x="521" 
d="M317 307q-7 -8 -13 -22.5t-8 -25.5l-54 -253q-1 -3 -3 -4.5t-4 -1.5h-45q-2 0 -3.5 1.5t-0.5 4.5l53 251q3 16 1.5 33t-6.5 27q-8 13 -16 31t-16.5 37t-14.5 35.5t-9 27.5q-17 53 -27 99.5t-14.5 78t-4.5 37.5q0 5 2.5 7.5t7.5 2.5h42q3 0 4 -2t2 -8q1 -7 6.5 -36.5
t15 -70t21.5 -81.5q7 -27 18 -55.5t26 -57.5q4 -8 7.5 -9.5t12.5 7.5q16 16 34 36.5t34.5 42t29.5 37.5q28 40 53.5 80.5t43 70t20.5 36.5q2 6 5 8t6 2h43q3 0 5 -2.5t-1 -7.5q-2 -6 -18.5 -36.5t-45 -75.5t-67.5 -97q-9 -13 -23.5 -31.5t-31.5 -39.5t-34.5 -41t-32.5 -35z
M93 250q-4 0 -5 2t0 4l5 27q2 3 3.5 4.5t4.5 1.5h341q3 0 4.5 -1.5t-0.5 -4.5l-5 -28q-1 -2 -2.5 -3.5t-4.5 -1.5h-341zM72 154q-4 0 -4.5 1.5t0.5 4.5l5 26q1 4 2.5 5t4.5 1h341q3 0 4.5 -1t0.5 -5l-6 -27q0 -2 -1.5 -3.5t-5.5 -1.5h-341z" />
    <glyph glyph-name="brokenbar" unicode="&#xa6;" horiz-adv-x="274" 
d="M174 276l-82 -385q-1 -3 -2.5 -5t-5.5 -2h-44q-3 0 -4.5 2t-0.5 8l82 382h57zM137 371l70 330q1 3 2.5 5t5.5 2h44q4 0 5 -2t0 -6l-70 -329h-57z" />
    <glyph glyph-name="section" unicode="&#xa7;" horiz-adv-x="493" 
d="M-23 -199l8 35q1 4 4 3.5t6 -1.5q17 -6 37 -11.5t40 -9t36 -3.5q68 0 109.5 36.5t54.5 98.5q10 45 -2 69.5t-36.5 37.5t-54.5 21q-25 8 -51 16.5t-46 24.5t-28.5 44.5t1.5 74.5q12 54 46.5 93t81.5 59.5t96 20.5q12 0 33.5 -3t44 -8.5t38.5 -12.5q3 -2 5 -4.5t1 -6.5
l-7 -32q-2 -11 -15 -5q-11 5 -31.5 11t-42 10t-34.5 4q-37 0 -72.5 -14.5t-61 -42t-33.5 -63.5q-6 -35 1.5 -56t23.5 -33.5t38 -20t45 -13.5q26 -8 50 -18.5t41.5 -28t24.5 -47t-3 -75.5q-12 -57 -43 -97t-77 -61.5t-105 -21.5q-26 0 -58.5 6t-58.5 16q-4 1 -5 2.5t-1 5.5z
M149 99l6 34q1 3 7.5 3t13 -1t7.5 -2q18 -10 45 -16t54 -5q55 0 95 29.5t55 98.5q8 39 -4.5 60.5t-37 33.5t-53.5 19q-25 7 -50.5 15.5t-45 24.5t-28 44t1.5 74q11 54 42.5 87t75 49t90.5 16q12 0 32.5 -2.5t43.5 -7.5t38 -12q3 -2 5 -4t0 -5l-6 -30q-1 -5 -4.5 -6t-8.5 2
q-13 7 -33.5 12.5t-40.5 8.5t-33 3q-55 0 -97 -28t-54 -80q-6 -33 1 -54t24.5 -32.5t39.5 -19.5t45 -14q25 -7 48 -17t39.5 -26t23 -42t-2.5 -66q-13 -63 -43 -101t-72 -54.5t-91 -16.5q-34 0 -62 4.5t-61 15.5q-3 1 -4.5 3t-0.5 5z" />
    <glyph glyph-name="dieresis" unicode="&#xa8;" horiz-adv-x="208" 
d="M143 573q-3 -14 -11.5 -21.5t-28.5 -7.5q-19 0 -24.5 7.5t-2.5 21.5q3 16 11.5 23t27.5 7q21 0 26 -7t2 -23zM276 573q-2 -14 -10 -21.5t-30 -7.5q-19 0 -24 7.5t-3 21.5q4 16 12.5 23t27.5 7q21 0 26 -7t1 -23z" />
    <glyph glyph-name="copyright" unicode="&#xa9;" horiz-adv-x="868" 
d="M93 333q15 73 56.5 137t102 113t132 77t146.5 28q76 0 135.5 -28t99 -77t54 -113t-1.5 -137q-16 -74 -57.5 -138.5t-102 -114t-132 -77.5t-146.5 -28t-135 28t-99 77.5t-53.5 114t1.5 138.5zM141 333q-13 -64 -1 -121.5t45.5 -100.5t85.5 -67.5t117 -24.5t127.5 24.5
t114.5 67.5t88.5 100.5t50.5 121.5q13 64 0.5 120.5t-46 99.5t-85.5 67t-117 24q-64 0 -126.5 -24t-114.5 -67t-88.5 -99.5t-50.5 -120.5zM281 338q14 65 49.5 107.5t84.5 63.5t103 21q21 0 43 -3t43 -8q4 0 6.5 -1.5t1.5 -5.5l-6 -28q0 -4 -10 0q-18 5 -38.5 8.5t-39.5 3.5
q-43 0 -81.5 -16.5t-65.5 -51t-39 -89.5q-13 -61 0.5 -104t52.5 -62t102 -7q13 2 25.5 6t20.5 7t9.5 2t0.5 -4l-5 -23q-1 -5 -3 -6.5t-6 -3.5q-8 -3 -21.5 -6t-26.5 -5q-73 -14 -123.5 7t-71 72t-5.5 126z" />
    <glyph glyph-name="ordfeminine" unicode="&#xaa;" horiz-adv-x="483" 
d="M180 -6q-95 0 -130 57.5t-9 178.5q16 76 44.5 123.5t63 73.5t70.5 36t69 10q35 0 68.5 -12t47.5 -24l6 28q1 3 3 4t4 1h43q6 0 6 -6q-3 -18 -9 -49.5t-15 -72.5t-20 -89.5t-25 -102.5t-30 -110q-2 -6 -5.5 -11t-16.5 -9q-31 -11 -77 -18.5t-88 -7.5zM198 39q18 0 40 4
t40 8.5t24 5.5q6 2 12.5 6.5t9.5 15.5q7 25 15 58.5t16.5 70t16 71t13.5 60.5t7 37q2 6 -0.5 10.5t-10.5 8.5q-19 10 -44 19t-58 9q-21 0 -47 -7t-52 -26t-47.5 -58t-35.5 -102q-22 -106 3.5 -148.5t97.5 -42.5z" />
    <glyph glyph-name="guillemotleft" unicode="&#xab;" horiz-adv-x="564" 
d="M403 166q-4 0 -7 3q-27 40 -54 79.5t-55 78.5q-7 10 4 19q44 39 88 78.5t88 78.5q3 3 5 3.5t3 0.5h27.5h23.5t4.5 -2.5t-3.5 -4.5q-1 -1 -20 -18t-45.5 -41t-53 -48.5t-44 -40.5l-17.5 -16l11 -16t27 -40l32 -48t27.5 -41t12.5 -18q2 -1 2.5 -4t-5.5 -3h-24h-27zM194 166
q-4 0 -7 3q-27 40 -54 79.5t-55 78.5q-7 10 4 19q44 39 88 78.5t88 78.5q3 3 5 3.5t3 0.5h27.5h23.5t4.5 -2.5t-3.5 -4.5q-1 -1 -20 -18t-45.5 -41t-53 -48.5t-44 -40.5l-17.5 -16l11 -16t27 -40l32 -48t27.5 -41t12.5 -18q2 -1 2.5 -4t-5.5 -3h-24h-27z" />
    <glyph glyph-name="logicalnot" unicode="&#xac;" horiz-adv-x="656" 
d="M543 103q-4 0 -4.5 1t-0.5 5l38 178h-509q-4 0 -4.5 1.5t-0.5 4.5l7 30q0 3 2 4.5t6 1.5h543q4 0 4.5 -1.5t0.5 -4.5l-46 -215q-1 -3 -3 -4t-4 -1h-29z" />
    <glyph glyph-name="uni00AD" unicode="&#xad;" horiz-adv-x="424" 
d="M81 256q-4 0 -4 2t1 4l14 33q1 4 2.5 5t5.5 1h261q3 0 3.5 -1t-0.5 -5l-15 -33q0 -3 -2 -4.5t-5 -1.5h-261z" />
    <glyph glyph-name="registered" unicode="&#xae;" horiz-adv-x="721" 
d="M351 188q-75 0 -129 34.5t-78.5 92.5t-9.5 129q11 54 42 100t76 81t98 55t109 20q75 0 129 -34.5t78 -92t9 -129.5q-12 -53 -43 -99.5t-75 -81.5t-97.5 -55t-108.5 -20zM358 223q65 0 124 30.5t101 80.5t54 110q14 61 -7 111t-67 79.5t-111 29.5q-64 0 -123.5 -29.5
t-101 -79.5t-55.5 -111q-12 -60 8 -110t67 -80.5t111 -30.5zM300 309q-4 0 -4 2l58 270q0 3 3 3h66q54 0 75.5 -20t11.5 -67q-7 -28 -25.5 -48t-47.5 -27q-4 -2 -6.5 -4.5t-1.5 -5.5q3 -18 8.5 -33t15.5 -24q9 -8 21.5 -12t22.5 -4q4 0 4.5 -1t-0.5 -2l-4 -21q0 -2 -1 -2.5
t-6 -0.5q-21 0 -33.5 3.5t-23.5 12.5q-17 14 -27.5 35t-11.5 44q0 2 -1.5 4t-5.5 2h-32q-4 0 -4 -4l-21 -98q0 -2 -4 -2h-26zM358 442q-1 -4 2 -4h39q33 0 52.5 14t25.5 45q8 35 -5.5 48.5t-53.5 13.5h-32q-2 0 -4 -4z" />
    <glyph glyph-name="macron" unicode="&#xaf;" horiz-adv-x="209" 
d="M274 548q0 -1 -1 -2t-4 -1h-198q-3 0 -4 1t-1 3l8 32q0 3 1.5 4t4.5 1h198q3 0 3.5 -0.5t0.5 -3.5z" />
    <glyph glyph-name="degree" unicode="&#xb0;" horiz-adv-x="402" 
d="M170 697q8 35 31.5 64t57 46.5t67.5 17.5q37 0 62.5 -17.5t37 -46.5t2.5 -64q-7 -35 -30.5 -64t-56.5 -46t-69 -17q-35 0 -61 17t-37 46t-4 64zM212 697q-8 -37 11.5 -62t57.5 -25t67.5 25t37.5 62q7 37 -12 61.5t-57 24.5t-68 -24.5t-37 -61.5z" />
    <glyph glyph-name="plusminus" unicode="&#xb1;" horiz-adv-x="441" 
d="M185 149q-4 0 -5.5 1.5t-0.5 4.5l28 132h-140q-4 0 -4.5 1.5t-0.5 3.5l7 30q0 4 2 5t5 1h140l28 132q0 3 2 4.5t6 1.5h33q2 0 3 -1.5t1 -4.5l-28 -132h144q2 0 3 -1.5t1 -4.5l-7 -31q0 -1 -1.5 -3t-5.5 -2l-143 1l-28 -132q-1 -4 -3 -5t-4 -1h-32zM19 57q-5 0 -5.5 1.5
t-0.5 4.5l7 29q0 4 2 5t7 1h325q4 0 5 -1t1 -5l-7 -30q0 -2 -2 -3.5t-7 -1.5h-325z" />
    <glyph glyph-name="uni00B2" unicode="&#xb2;" horiz-adv-x="338" 
d="M46 260q-4 0 -5.5 1t-0.5 4l6 29q2 3 2.5 5.5t5.5 4.5q39 23 82.5 50.5t82.5 60t67 70t37 77.5q6 27 -2 46.5t-27 30.5t-50 11q-23 0 -44.5 -6t-37.5 -13t-23 -10q-11 -3 -10 2l7 32q1 4 3 6.5t7 4.5q12 6 44.5 17t66.5 11q35 0 65 -13.5t45 -42t5 -75.5
q-11 -53 -49.5 -99.5t-90.5 -86.5t-107 -73q-2 -2 -1 -3t2 -1h187q4 0 4 -4l-7 -31q-1 -3 -1.5 -4t-4.5 -1h-258z" />
    <glyph glyph-name="uni00B3" unicode="&#xb3;" horiz-adv-x="327" 
d="M149 257q-33 0 -62.5 12t-44.5 33q-2 3 -1 6t2 4l23 22q3 3 6 3t4 -2q15 -18 35.5 -26.5t45.5 -8.5q31 0 54.5 13t38 32.5t19.5 38.5q6 28 -14 55t-71 27h-6.5h-7.5q-2 0 -4 1t-1 6l6 28q1 3 2.5 5t4.5 2h11.5h10.5q41 1 69 24.5t34 51.5q5 25 -11 46.5t-58 21.5
q-22 0 -50.5 -10t-45.5 -22q-9 -7 -11 1l-10 27q-1 2 0.5 5t3.5 4q31 19 65 28t60 9q61 0 86.5 -32.5t17.5 -71.5q-7 -33 -29 -59t-55 -40q-9 -3 -9 -4t1 -1.5t8 -2.5q31 -13 44.5 -38t5.5 -63q-6 -31 -28.5 -60t-58 -47t-80.5 -18z" />
    <glyph glyph-name="acute" unicode="&#xb4;" horiz-adv-x="108" 
d="M67 530q-4 0 -3.5 2t2.5 5l66 87q3 5 12 5h44q3 0 3.5 -1.5t-3.5 -4.5l-80 -89q-2 -2 -4 -3t-6 -1h-31z" />
    <glyph glyph-name="uni00B5" unicode="&#xb5;" horiz-adv-x="520" 
d="M11 -115q-6 0 -7 3t0 9q8 42 17.5 87.5t18.5 86t14 67.5q4 22 7.5 44.5t6.5 37.5q11 48 22.5 95.5t22 86t15.5 59.5q3 7 6 9t11 2h32q7 0 8 -2t-1 -9q-2 -9 -9 -34.5t-16.5 -62t-19.5 -79.5t-19 -86q-16 -77 7 -116t96 -39q52 0 83.5 16t35.5 36l78 369q1 4 3 5.5t5 1.5
h43q3 0 4 -1.5t1 -5.5l-77 -360q-8 -36 0 -50.5t28 -14.5q10 0 19.5 3.5t15.5 6.5q9 6 11 -2l5 -25q0 -8 -10 -13q-13 -6 -27.5 -10t-32.5 -4q-14 0 -29 6t-24.5 20t-7.5 36l19 -6q-32 -28 -72.5 -42t-84.5 -14q-53 0 -89 21.5t-45 67.5l19 7q-4 -25 -8.5 -50.5t-9.5 -51.5
q-2 -16 -5.5 -35.5t-6.5 -35.5t-5 -23q-1 -6 -3.5 -8.5t-8.5 -2.5h-36z" />
    <glyph glyph-name="paragraph" unicode="&#xb6;" horiz-adv-x="498" 
d="M265 318h-17h-17q-39 1 -65 18t-40.5 44t-17.5 59t3 62q10 47 36.5 86t70 62.5t104.5 23.5h112.5h111.5q4 0 5 -1.5t1 -4.5l-7 -31q-1 -4 -2.5 -5.5t-4.5 -1.5h-19.5h-18.5q-17 -78 -36 -168t-39 -184t-39 -183.5t-35 -167.5l-2.5 -5t-3.5 -1h-38q-4 0 -5.5 1t0.5 5
q16 77 35 166.5t39 182.5t39 182.5t35 167.5q0 2 -0.5 3t-4.5 1h-30h-31q-5 0 -6 -5l-148 -698q-1 -4 -1.5 -5t-4.5 -1h-40q-1 0 -2.5 1t0.5 5z" />
    <glyph glyph-name="periodcentered" unicode="&#xb7;" horiz-adv-x="292" 
d="M164 274q-4 -16 -11.5 -23.5t-29.5 -7.5q-19 0 -25 7.5t-2 23.5q3 14 12 21.5t28 7.5q22 0 26.5 -7.5t1.5 -21.5z" />
    <glyph glyph-name="cedilla" unicode="&#xb8;" horiz-adv-x="163" 
d="M89 -118q-5 -27 -32 -48.5t-68 -21.5q-24 0 -42 9.5t-26 23.5q-2 3 -1 7t5 6l18 8q9 3 13 -3q5 -8 16 -14t22 -6q24 0 38 12.5t17 26.5q4 17 -6.5 25t-27 11.5t-31.5 3.5q-6 1 -8 4t2 11l30 60q3 5 7 5.5t6 0.5h19q4 0 2 -7l-25 -62l-4 13q37 -1 60.5 -16.5t15.5 -48.5z
" />
    <glyph glyph-name="uni00B9" unicode="&#xb9;" horiz-adv-x="171" 
d="M86 260q-5 0 -4 5l78 365q2 7 -4 3l-89 -43h-3t-3 2l-10 25q-1 6 2 8l121 60l8 4t8 2h27q3 0 4.5 -1t0.5 -4l-90 -422q-1 -2 -2 -3t-4 -1h-40z" />
    <glyph glyph-name="ordmasculine" unicode="&#xba;" horiz-adv-x="490" 
d="M194 -6q-61 0 -96.5 18t-51.5 50.5t-15.5 76.5t11.5 98q15 70 45.5 124.5t81.5 85.5t127 31q77 0 114.5 -31t45 -85.5t-7.5 -124.5q-15 -71 -44 -126t-79 -86t-131 -31zM203 40q82 0 125.5 51.5t63.5 144.5t-5 143.5t-101 50.5t-122 -50.5t-66 -143.5q-20 -94 2 -145
t103 -51z" />
    <glyph glyph-name="guillemotright" unicode="&#xbb;" horiz-adv-x="568" 
d="M293 166q-6 0 -4 3t3 4q2 1 20.5 18t45 41l53 48t44 40l17.5 16l-11 16t-27 40.5t-32 48.5t-27.5 41t-12.5 18q-1 2 -1.5 4.5t4.5 2.5h24.5h26.5q4 0 8 -4q27 -39 54 -78.5t54 -78.5q8 -10 -4 -19q-44 -39 -87.5 -78.5t-87.5 -79.5q-4 -2 -5.5 -2.5t-3.5 -0.5h-27.5
h-23.5zM80 166q-6 0 -4 3t3 4t20 18t45.5 41l53 48t44 40l17.5 16l-11 16t-27 40.5t-32 48.5t-27.5 41t-12.5 18q-1 2 -2 4.5t5 2.5h23.5h27.5q4 0 8 -4q27 -39 54 -78.5t53 -78.5q8 -10 -4 -19q-44 -39 -87.5 -78.5t-87.5 -79.5q-3 -2 -5 -2.5t-4 -0.5h-26.5h-23.5z" />
    <glyph glyph-name="onequarter" unicode="&#xbc;" horiz-adv-x="819" 
d="M189 245q-4 0 -3 4l85 400q1 7 -5 4l-96 -50q-4 -2 -6 1l-8 21q-2 4 2 5l119 62q4 3 8.5 5t8.5 2h22q4 0 3 -4l-94 -446q-1 -3 -2.5 -3.5t-3.5 -0.5h-30zM596 -2q-4 0 -3 4l25 119q2 7 -5 7h-188q-4 0 -3 4l4 21q1 3 3 6t4 4l255 290q2 4 4.5 5.5t4.5 1.5h27
q2 0 2.5 -1.5t0.5 -3.5l-62 -288q-1 -7 6 -7h47q4 0 3 -3l-5 -25q-1 -4 -5 -4h-47q-7 0 -8 -7l-26 -119q0 -4 -5 -4h-29zM479 160h141q7 0 8 7l48 224q1 3 -0.5 3.5t-3.5 -2.5l-195 -224q-7 -8 2 -8zM177 0q-7 0 -6.5 3t2.5 5l397 685q3 6 4.5 6.5t5.5 0.5h28q5 0 6 -2
t-3 -10l-393 -679l-6 -6t-7 -3h-28z" />
    <glyph glyph-name="onehalf" unicode="&#xbd;" horiz-adv-x="884" 
d="M252 0q-7 0 -6.5 3t1.5 5l398 685q3 6 4.5 6.5t5.5 0.5h28q5 0 6 -2t-3 -10l-393 -679l-6 -6t-7 -3h-28zM189 245q-4 0 -3 4l85 400q1 7 -5 4l-96 -50q-4 -2 -6 1l-8 21q-2 4 2 5l119 62q4 3 8.5 5t8.5 2h22q4 0 3 -4l-94 -446q-1 -3 -2.5 -3.5t-3.5 -0.5h-30zM486 0
q-2 0 -3.5 1t0.5 3l5 25q0 3 1.5 4.5t3.5 2.5q40 24 84.5 54t85 65t69.5 75t39 85q6 34 -3 56t-30 32.5t-48 10.5q-22 0 -42 -5.5t-35 -12.5t-23 -10q-12 -5 -11 1l5 24q1 4 2.5 5.5t5.5 3.5q9 4 25.5 11t38 12t44.5 5q33 0 61 -13.5t42 -42.5t4 -76q-9 -44 -35 -84.5
t-62.5 -75.5t-78.5 -64.5t-82 -54.5q-2 -2 -2 -3.5t3 -1.5h195q4 0 3 -3l-5 -25q-1 -3 -2 -3.5t-3 -0.5h-252z" />
    <glyph glyph-name="threequarters" unicode="&#xbe;" horiz-adv-x="842" 
d="M619 -2q-3 0 -3 4l26 119q1 7 -6 7h-187q-5 0 -4 4l5 21q1 3 3 6t4 4l254 290q3 4 5.5 5.5t3.5 1.5h27q3 0 3.5 -1.5t0.5 -3.5l-62 -288q-1 -7 6 -7h47q4 0 3 -3l-5 -25q-2 -4 -5 -4h-47q-7 0 -8 -7l-26 -119q0 -4 -6 -4h-29zM503 160h140q8 0 9 7l47 224q2 3 0.5 3.5
t-3.5 -2.5l-195 -224q-7 -8 2 -8zM170 253q-20 0 -40 5t-36 14.5t-25 22.5q-1 2 -0.5 4t3.5 4l16 17q3 3 4.5 3t2.5 -2q16 -18 36.5 -27t43.5 -9q32 0 56.5 14.5t40.5 35.5t21 43q4 22 -3 43.5t-27.5 35.5t-54.5 14h-6h-5t-3.5 1t-0.5 4l5 22q1 5 6 5h6h10q30 2 53 14.5
t37.5 32t18.5 39.5q4 19 -2 36.5t-22.5 29.5t-45.5 12q-21 0 -48.5 -10t-46.5 -22q-8 -6 -9 1l-8 19q-1 2 0.5 4t2.5 3q18 11 39 19.5t41.5 12.5t37.5 4q39 0 62 -15t32 -39.5t3 -52.5q-5 -20 -15.5 -38.5t-27.5 -34.5t-41 -26q-2 -1 -4.5 -2t-2.5 -2t7 -5
q31 -15 43.5 -41.5t3.5 -63.5q-6 -31 -28 -59.5t-55 -47t-75 -18.5zM219 0q-6 0 -6 3t2 5l397 685q3 6 5 6.5t6 0.5h27q6 0 6.5 -2t-3.5 -10l-393 -679l-6 -6t-7 -3h-28z" />
    <glyph glyph-name="questiondown" unicode="&#xbf;" horiz-adv-x="446" 
d="M330 304q5 0 5.5 -2.5t-0.5 -6.5q-12 -53 -28 -88t-36.5 -58.5t-46.5 -42.5t-59 -38q-23 -13 -46 -30.5t-40 -38.5t-23 -47q-8 -44 19.5 -69.5t82.5 -25.5q24 0 47.5 3.5t43.5 9.5t36 12q8 3 10 3.5t2 -5.5l3 -31q0 -3 -2.5 -6t-8.5 -6q-26 -14 -65.5 -21.5t-73.5 -7.5
q-81 0 -121 39.5t-26 105.5q10 47 33 75t52.5 45t54.5 32q42 24 68.5 49.5t43.5 59t29 82.5q1 4 2.5 6t3.5 2h40zM370 455q-3 -15 -11.5 -22.5t-27.5 -7.5q-20 0 -24.5 7.5t-1.5 22.5q3 14 11 22t28 8q19 0 24 -8t2 -22z" />
    <glyph glyph-name="Agrave" unicode="&#xc0;" horiz-adv-x="570" 
d="M6 0q-4 0 -4.5 2.5t2.5 9.5q16 48 44.5 115t63.5 142.5t73 150.5t74 139t66 106q4 4 7 6t6 2h79q4 -1 6.5 -2t3.5 -6q12 -41 20.5 -105.5t14 -140.5t9 -153t3.5 -143t-4 -110q0 -8 -1 -10.5t-6 -2.5h-44q-4 0 -4.5 2t-1.5 8q2 28 2.5 66t0.5 80q1 6 -1.5 7.5t-8.5 1.5
h-274q-5 0 -8 -2t-6 -8q-16 -41 -32 -79t-27 -66q-2 -6 -3.5 -8t-5.5 -2h-44zM155 212h248q4 0 7 3.5t4 12.5q-4 94 -9 188.5t-23 181.5q-1 6 -8 6h-21q-7 0 -12 -7q-26 -43 -60 -105.5t-68 -132.5t-64 -136q-1 -3 -1 -7t7 -4zM389 731q-5 0 -10 5l-51 87q-2 2 -0.5 4t3.5 2
h47q4 0 6.5 -1t4.5 -5l34 -86q4 -6 -3 -6h-31z" />
    <glyph glyph-name="Aacute" unicode="&#xc1;" horiz-adv-x="570" 
d="M6 0q-4 0 -4.5 2.5t2.5 9.5q16 48 44.5 115t63.5 142.5t73 150.5t74 139t66 106q4 4 7 6t6 2h79q4 -1 6.5 -2t3.5 -6q12 -41 20.5 -105.5t14 -140.5t9 -153t3.5 -143t-4 -110q0 -8 -1 -10.5t-6 -2.5h-44q-4 0 -4.5 2t-1.5 8q2 28 2.5 66t0.5 80q1 6 -1.5 7.5t-8.5 1.5
h-274q-5 0 -8 -2t-6 -8q-16 -41 -32 -79t-27 -66q-2 -6 -3.5 -8t-5.5 -2h-44zM155 212h248q4 0 7 3.5t4 12.5q-4 94 -9 188.5t-23 181.5q-1 6 -8 6h-21q-7 0 -12 -7q-26 -43 -60 -105.5t-68 -132.5t-64 -136q-1 -3 -1 -7t7 -4zM358 730q-4 0 -3.5 2t2.5 5l66 87q3 5 12 5h44
q3 0 3.5 -1.5t-3.5 -4.5l-80 -89q-2 -2 -4 -3t-6 -1h-31z" />
    <glyph glyph-name="Acircumflex" unicode="&#xc2;" horiz-adv-x="570" 
d="M6 0q-4 0 -4.5 2.5t2.5 9.5q16 48 44.5 115t63.5 142.5t73 150.5t74 139t66 106q4 4 7 6t6 2h79q4 -1 6.5 -2t3.5 -6q12 -41 20.5 -105.5t14 -140.5t9 -153t3.5 -143t-4 -110q0 -8 -1 -10.5t-6 -2.5h-44q-4 0 -4.5 2t-1.5 8q2 28 2.5 66t0.5 80q1 6 -1.5 7.5t-8.5 1.5
h-274q-5 0 -8 -2t-6 -8q-16 -41 -32 -79t-27 -66q-2 -6 -3.5 -8t-5.5 -2h-44zM155 212h248q4 0 7 3.5t4 12.5q-4 94 -9 188.5t-23 181.5q-1 6 -8 6h-21q-7 0 -12 -7q-26 -43 -60 -105.5t-68 -132.5t-64 -136q-1 -3 -1 -7t7 -4zM300 730q-3 0 -3 2t1 4l82 88q3 3 7 3h39
q5 0 6 -3l44 -88q2 -2 0.5 -4t-4.5 -2h-29q-4 0 -6 3l-36 54q-3 4 -7 0l-58 -54q-3 -3 -7 -3h-29z" />
    <glyph glyph-name="Atilde" unicode="&#xc3;" horiz-adv-x="570" 
d="M6 0q-4 0 -4.5 2.5t2.5 9.5q16 48 44.5 115t63.5 142.5t73 150.5t74 139t66 106q4 4 7 6t6 2h79q4 -1 6.5 -2t3.5 -6q12 -41 20.5 -105.5t14 -140.5t9 -153t3.5 -143t-4 -110q0 -8 -1 -10.5t-6 -2.5h-44q-4 0 -4.5 2t-1.5 8q2 28 2.5 66t0.5 80q1 6 -1.5 7.5t-8.5 1.5
h-274q-5 0 -8 -2t-6 -8q-16 -41 -32 -79t-27 -66q-2 -6 -3.5 -8t-5.5 -2h-44zM155 212h248q4 0 7 3.5t4 12.5q-4 94 -9 188.5t-23 181.5q-1 6 -8 6h-21q-7 0 -12 -7q-26 -43 -60 -105.5t-68 -132.5t-64 -136q-1 -3 -1 -7t7 -4zM301 721q-6 0 -4 5q6 27 25 45t42 18
q14 0 26 -9.5t23.5 -19t20.5 -9.5q6 0 12.5 8t9.5 19q1 6 5 6h26q5 0 4 -6q-5 -23 -23.5 -42.5t-42.5 -19.5q-16 0 -28.5 9.5t-22 19t-18.5 9.5t-16 -8.5t-9 -19.5q0 -5 -5 -5h-25z" />
    <glyph glyph-name="Adieresis" unicode="&#xc4;" horiz-adv-x="570" 
d="M6 0q-4 0 -4.5 2.5t2.5 9.5q16 48 44.5 115t63.5 142.5t73 150.5t74 139t66 106q4 4 7 6t6 2h79q4 -1 6.5 -2t3.5 -6q12 -41 20.5 -105.5t14 -140.5t9 -153t3.5 -143t-4 -110q0 -8 -1 -10.5t-6 -2.5h-44q-4 0 -4.5 2t-1.5 8q2 28 2.5 66t0.5 80q1 6 -1.5 7.5t-8.5 1.5
h-274q-5 0 -8 -2t-6 -8q-16 -41 -32 -79t-27 -66q-2 -6 -3.5 -8t-5.5 -2h-44zM155 212h248q4 0 7 3.5t4 12.5q-4 94 -9 188.5t-23 181.5q-1 6 -8 6h-21q-7 0 -12 -7q-26 -43 -60 -105.5t-68 -132.5t-64 -136q-1 -3 -1 -7t7 -4zM363 773q-3 -14 -11.5 -21.5t-28.5 -7.5
q-19 0 -24.5 7.5t-2.5 21.5q3 16 11.5 23t27.5 7q21 0 26 -7t2 -23zM496 773q-2 -14 -10 -21.5t-30 -7.5q-19 0 -24 7.5t-3 21.5q4 16 12.5 23t27.5 7q21 0 26 -7t1 -23z" />
    <glyph glyph-name="Aring" unicode="&#xc5;" horiz-adv-x="570" 
d="M6 0q-4 0 -4.5 2.5t2.5 9.5q16 48 44.5 115t63.5 142.5t73 150.5t74 139t66 106q4 4 7 6t6 2h79q4 -1 6.5 -2t3.5 -6q12 -41 20.5 -105.5t14 -140.5t9 -153t3.5 -143t-4 -110q0 -8 -1 -10.5t-6 -2.5h-44q-4 0 -4.5 2t-1.5 8q2 28 2.5 66t0.5 80q1 6 -1.5 7.5t-8.5 1.5
h-274q-5 0 -8 -2t-6 -8q-16 -41 -32 -79t-27 -66q-2 -6 -3.5 -8t-5.5 -2h-44zM155 212h248q4 0 7 3.5t4 12.5q-4 94 -9 188.5t-23 181.5q-1 6 -8 6h-21q-7 0 -12 -7q-26 -43 -60 -105.5t-68 -132.5t-64 -136q-1 -3 -1 -7t7 -4zM482 787q-7 -33 -30.5 -53.5t-66.5 -20.5
t-57.5 20.5t-6.5 53.5q7 34 30 53.5t66 19.5q44 0 58.5 -19.5t6.5 -53.5zM451 790q3 16 -3.5 27t-36.5 11q-32 0 -42 -11t-14 -27q-3 -15 2 -29.5t38 -14.5t42.5 14.5t13.5 29.5z" />
    <glyph glyph-name="AE" unicode="&#xc6;" horiz-adv-x="769" 
d="M347 0q-2 0 -3.5 1.5t-0.5 4.5l34 159h-246q-6 0 -8.5 -2t-7.5 -8q-22 -41 -41 -79t-29 -66q-3 -6 -4.5 -8t-5.5 -2h-43q-5 0 -5.5 2.5t2.5 9.5q15 40 42 93.5t63.5 114t78 123.5t84.5 123t82.5 111t72.5 88q3 4 6.5 6t6.5 2h376q4 0 5 -1t0 -6l-7 -33q-1 -4 -2.5 -5.5
t-5.5 -1.5h-252q-5 0 -6.5 -2t-2.5 -5l-53 -249q-1 -3 0.5 -5.5t5.5 -2.5h207q5 0 6 -1t-1 -6l-6 -32q-1 -4 -2.5 -5.5t-5.5 -1.5h-209q-4 0 -5.5 -1.5t-2.5 -5.5l-54 -254q-1 -4 -0.5 -6.5t6.5 -2.5h251q5 0 6 -1t0 -6l-7 -31q-1 -5 -2.5 -6.5t-6.5 -1.5h-310zM387 212
l85 400q-2 5 -3 5h-30q-3 0 -6 -1.5t-6 -5.5q-27 -32 -60.5 -77.5t-70.5 -97.5t-73.5 -106.5t-68.5 -105.5q-1 -2 -1.5 -6.5t5.5 -4.5h229z" />
    <glyph glyph-name="Ccedilla" unicode="&#xc7;" horiz-adv-x="445" 
d="M362 17q-3 -10 -16 -15q-14 -4 -34 -6.5t-38 -3.5t-28 -1q-110 0 -159 86.5t-12 257.5q37 172 119.5 258.5t197.5 86.5q10 0 27.5 -1.5t36.5 -4t31 -6.5q6 -2 9 -5.5t2 -7.5l-9 -37q-2 -14 -11 -7q-11 8 -34 15t-55 7q-57 0 -99.5 -23.5t-72.5 -64.5t-49.5 -91.5
t-31.5 -104.5q-8 -36 -13 -78.5t-2 -83.5t17 -75t44 -54.5t80 -20.5q33 0 59 7t38 14q8 4 10 2t0 -8zM314 -116q-5 -27 -32 -48.5t-68 -21.5q-24 0 -42 9.5t-26 23.5q-2 3 -1 7t5 6l18 8q9 3 13 -3q5 -8 16 -14t22 -6q24 0 38 12.5t17 26.5q4 17 -6.5 25t-27 11.5t-31.5 3.5
q-6 1 -8 4t2 11l30 60q3 5 7 5.5t6 0.5h19q4 0 2 -7l-25 -62l-4 13q37 -1 60.5 -16.5t15.5 -48.5z" />
    <glyph glyph-name="Egrave" unicode="&#xc8;" horiz-adv-x="444" 
d="M40 0q-3 0 -4.5 1.5t-0.5 4.5l141 661q0 6 7 6h311q4 0 4.5 -1t-0.5 -6l-6 -33q-2 -4 -3 -5.5t-5 -1.5h-254q-4 0 -5.5 -2t-2.5 -5l-53 -249q-1 -3 1 -5.5t5 -2.5h207q5 0 5.5 -1t-0.5 -6l-6 -32q-1 -4 -2.5 -5.5t-5.5 -1.5h-209q-4 0 -5.5 -1.5t-2.5 -5.5l-54 -254
q-1 -4 -0.5 -6.5t6.5 -2.5h252q5 0 5.5 -1t0.5 -6l-7 -31q-2 -5 -3.5 -6.5t-5.5 -1.5h-310zM357 720q-4 0 -5.5 1.5t-4.5 3.5l-65 73q-1 2 0 4t3 2h47q4 0 6.5 -1.5t5.5 -4.5l48 -71q2 -3 1.5 -5t-4.5 -2h-32z" />
    <glyph glyph-name="Eacute" unicode="&#xc9;" horiz-adv-x="444" 
d="M40 0q-3 0 -4.5 1.5t-0.5 4.5l141 661q0 6 7 6h311q4 0 4.5 -1t-0.5 -6l-6 -33q-2 -4 -3 -5.5t-5 -1.5h-254q-4 0 -5.5 -2t-2.5 -5l-53 -249q-1 -3 1 -5.5t5 -2.5h207q5 0 5.5 -1t-0.5 -6l-6 -32q-1 -4 -2.5 -5.5t-5.5 -1.5h-209q-4 0 -5.5 -1.5t-2.5 -5.5l-54 -254
q-1 -4 -0.5 -6.5t6.5 -2.5h252q5 0 5.5 -1t0.5 -6l-7 -31q-2 -5 -3.5 -6.5t-5.5 -1.5h-310zM340 720h-33q-4 0 -4 2t2 5l61 71q3 3 5.5 4.5t6.5 1.5h47q3 0 4 -2t-2 -4l-77 -73q-3 -2 -5 -3.5t-5 -1.5z" />
    <glyph glyph-name="Ecircumflex" unicode="&#xca;" horiz-adv-x="444" 
d="M40 0q-3 0 -4.5 1.5t-0.5 4.5l141 661q0 6 7 6h311q4 0 4.5 -1t-0.5 -6l-6 -33q-2 -4 -3 -5.5t-5 -1.5h-254q-4 0 -5.5 -2t-2.5 -5l-53 -249q-1 -3 1 -5.5t5 -2.5h207q5 0 5.5 -1t-0.5 -6l-6 -32q-1 -4 -2.5 -5.5t-5.5 -1.5h-209q-4 0 -5.5 -1.5t-2.5 -5.5l-54 -254
q-1 -4 -0.5 -6.5t6.5 -2.5h252q5 0 5.5 -1t0.5 -6l-7 -31q-2 -5 -3.5 -6.5t-5.5 -1.5h-310zM262 719q-3 0 -3 2.5t2 4.5l80 75q3 4 8 4h40q4 0 6 -4l48 -75q1 -2 -0.5 -4.5t-4.5 -2.5h-28q-2 0 -3.5 1.5t-4.5 2.5l-37 44q-1 3 -8 0l-57 -44q-1 -1 -3.5 -2.5t-5.5 -1.5h-29z
" />
    <glyph glyph-name="Edieresis" unicode="&#xcb;" horiz-adv-x="444" 
d="M40 0q-3 0 -4.5 1.5t-0.5 4.5l141 661q0 6 7 6h311q4 0 4.5 -1t-0.5 -6l-6 -33q-2 -4 -3 -5.5t-5 -1.5h-254q-4 0 -5.5 -2t-2.5 -5l-53 -249q-1 -3 1 -5.5t5 -2.5h207q5 0 5.5 -1t-0.5 -6l-6 -32q-1 -4 -2.5 -5.5t-5.5 -1.5h-209q-4 0 -5.5 -1.5t-2.5 -5.5l-54 -254
q-1 -4 -0.5 -6.5t6.5 -2.5h252q5 0 5.5 -1t0.5 -6l-7 -31q-2 -5 -3.5 -6.5t-5.5 -1.5h-310zM326 773q-3 -14 -11.5 -21.5t-28.5 -7.5q-19 0 -24.5 7.5t-2.5 21.5q3 16 11.5 23t27.5 7q21 0 26 -7t2 -23zM459 773q-2 -14 -10 -21.5t-30 -7.5q-19 0 -24 7.5t-3 21.5
q4 16 12.5 23t27.5 7q21 0 26 -7t1 -23z" />
    <glyph glyph-name="Igrave" unicode="&#xcc;" horiz-adv-x="225" 
d="M92 6q-2 -6 -8 -6h-44q-6 0 -5 6l141 661q0 6 7 6h44q3 0 4 -1.5t1 -4.5zM223 720q-4 0 -5.5 1.5t-4.5 3.5l-65 73q-1 2 0 4t3 2h47q4 0 6.5 -1.5t5.5 -4.5l48 -71q2 -3 1.5 -5t-4.5 -2h-32z" />
    <glyph glyph-name="Iacute" unicode="&#xcd;" horiz-adv-x="225" 
d="M92 6q-2 -6 -8 -6h-44q-6 0 -5 6l141 661q0 6 7 6h44q3 0 4 -1.5t1 -4.5zM206 720h-33q-4 0 -4 2t2 5l61 71q3 3 5.5 4.5t6.5 1.5h47q3 0 4 -2t-2 -4l-77 -73q-3 -2 -5 -3.5t-5 -1.5z" />
    <glyph glyph-name="Icircumflex" unicode="&#xce;" horiz-adv-x="225" 
d="M92 6q-2 -6 -8 -6h-44q-6 0 -5 6l141 661q0 6 7 6h44q3 0 4 -1.5t1 -4.5zM128 719q-3 0 -3 2.5t2 4.5l80 75q3 4 8 4h40q4 0 6 -4l48 -75q1 -2 -0.5 -4.5t-4.5 -2.5h-28q-2 0 -3.5 1.5t-4.5 2.5l-37 44q-1 3 -8 0l-57 -44q-1 -1 -3.5 -2.5t-5.5 -1.5h-29z" />
    <glyph glyph-name="Idieresis" unicode="&#xcf;" horiz-adv-x="225" 
d="M92 6q-2 -6 -8 -6h-44q-6 0 -5 6l141 661q0 6 7 6h44q3 0 4 -1.5t1 -4.5zM192 773q-3 -14 -11.5 -21.5t-28.5 -7.5q-19 0 -24.5 7.5t-2.5 21.5q3 16 11.5 23t27.5 7q21 0 26 -7t2 -23zM325 773q-2 -14 -10 -21.5t-30 -7.5q-19 0 -24 7.5t-3 21.5q4 16 12.5 23t27.5 7
q21 0 26 -7t1 -23z" />
    <glyph glyph-name="Eth" unicode="&#xd0;" horiz-adv-x="554" 
d="M556 347q-19 -88 -48 -149t-63 -100t-69 -60.5t-67.5 -29.5t-57.5 -8h-202q-3 0 -4.5 1.5t-0.5 4.5l141 661q2 6 7 6h202q30 0 61 -6t57 -24t42.5 -54t18.5 -95t-17 -147zM500 347q16 77 16 127.5t-12 81t-31 46t-42 20t-44 4.5h-148q-4 0 -5.5 -1.5t-1.5 -4.5l-121 -568
q-1 -3 0 -4.5t4 -1.5h131q28 0 63 11.5t71.5 43t68 91t51.5 155.5zM27 298q-4 0 -4.5 2t0.5 4l7 33q0 4 1.5 5t4.5 1h261q4 0 4.5 -1t0.5 -5l-8 -33q0 -3 -1 -4.5t-5 -1.5h-261z" />
    <glyph glyph-name="Ntilde" unicode="&#xd1;" horiz-adv-x="640" 
d="M462 124q2 -4 6 -3.5t6 6.5q11 36 24.5 89t27 113.5t25.5 122.5t20.5 117t11.5 96q2 8 6 8h45q3 0 4.5 -1.5t1.5 -4.5q-3 -35 -11 -88t-20.5 -116t-27 -130t-29.5 -129t-29 -114t-25 -84q-1 -4 -4 -5t-6 -1h-32q-5 0 -6 7l-229 544q-1 4 -4.5 4t-4.5 -5
q-12 -42 -26.5 -97.5t-28.5 -117.5t-26 -123t-20.5 -114t-10.5 -90q-1 -8 -7 -8h-43q-3 0 -5.5 1t-1.5 5q3 34 11.5 86.5t20.5 115t26 129.5t29 130t29.5 115t26.5 85q1 3 3.5 4.5t4.5 1.5h33q4 0 6 -6zM333 721q-6 0 -4 5q6 27 25 45t42 18q14 0 26 -9.5t23.5 -19
t20.5 -9.5q6 0 12.5 8t9.5 19q1 6 5 6h26q5 0 4 -6q-5 -23 -23.5 -42.5t-42.5 -19.5q-16 0 -28.5 9.5t-22 19t-18.5 9.5t-16 -8.5t-9 -19.5q0 -5 -5 -5h-25z" />
    <glyph glyph-name="Ograve" unicode="&#xd2;" horiz-adv-x="625" 
d="M75 335q24 111 62.5 187.5t102.5 115t165 38.5q79 0 125 -22t65 -65t17 -107t-20 -147q-23 -112 -60.5 -187.5t-102 -114.5t-169.5 -39q-101 0 -149 39t-53.5 114.5t17.5 187.5zM133 335q-23 -114 -16 -177t45.5 -88t107.5 -25q68 0 118 25t86 87.5t60 177.5
q24 114 15.5 178t-48 89.5t-108.5 25.5q-68 0 -117.5 -26t-83.5 -89.5t-59 -177.5zM422 720q-4 0 -5.5 1.5t-4.5 3.5l-65 73q-1 2 0 4t3 2h47q4 0 6.5 -1.5t5.5 -4.5l48 -71q2 -3 1.5 -5t-4.5 -2h-32z" />
    <glyph glyph-name="Oacute" unicode="&#xd3;" horiz-adv-x="625" 
d="M75 335q24 111 62.5 187.5t102.5 115t165 38.5q79 0 125 -22t65 -65t17 -107t-20 -147q-23 -112 -60.5 -187.5t-102 -114.5t-169.5 -39q-101 0 -149 39t-53.5 114.5t17.5 187.5zM133 335q-23 -114 -16 -177t45.5 -88t107.5 -25q68 0 118 25t86 87.5t60 177.5
q24 114 15.5 178t-48 89.5t-108.5 25.5q-68 0 -117.5 -26t-83.5 -89.5t-59 -177.5zM405 720h-33q-4 0 -4 2t2 5l61 71q3 3 5.5 4.5t6.5 1.5h47q3 0 4 -2t-2 -4l-77 -73q-3 -2 -5 -3.5t-5 -1.5z" />
    <glyph glyph-name="Ocircumflex" unicode="&#xd4;" horiz-adv-x="625" 
d="M75 335q24 111 62.5 187.5t102.5 115t165 38.5q79 0 125 -22t65 -65t17 -107t-20 -147q-23 -112 -60.5 -187.5t-102 -114.5t-169.5 -39q-101 0 -149 39t-53.5 114.5t17.5 187.5zM133 335q-23 -114 -16 -177t45.5 -88t107.5 -25q68 0 118 25t86 87.5t60 177.5
q24 114 15.5 178t-48 89.5t-108.5 25.5q-68 0 -117.5 -26t-83.5 -89.5t-59 -177.5zM327 719q-3 0 -3 2.5t2 4.5l80 75q3 4 8 4h40q4 0 6 -4l48 -75q1 -2 -0.5 -4.5t-4.5 -2.5h-28q-2 0 -3.5 1.5t-4.5 2.5l-37 44q-1 3 -8 0l-57 -44q-1 -1 -3.5 -2.5t-5.5 -1.5h-29z" />
    <glyph glyph-name="Otilde" unicode="&#xd5;" horiz-adv-x="625" 
d="M75 335q24 111 62.5 187.5t102.5 115t165 38.5q79 0 125 -22t65 -65t17 -107t-20 -147q-23 -112 -60.5 -187.5t-102 -114.5t-169.5 -39q-101 0 -149 39t-53.5 114.5t17.5 187.5zM133 335q-23 -114 -16 -177t45.5 -88t107.5 -25q68 0 118 25t86 87.5t60 177.5
q24 114 15.5 178t-48 89.5t-108.5 25.5q-68 0 -117.5 -26t-83.5 -89.5t-59 -177.5zM329 721q-6 0 -4 5q6 27 25 45t42 18q14 0 26 -9.5t23.5 -19t20.5 -9.5q6 0 12.5 8t9.5 19q1 6 5 6h26q5 0 4 -6q-5 -23 -23.5 -42.5t-42.5 -19.5q-16 0 -28.5 9.5t-22 19t-18.5 9.5
t-16 -8.5t-9 -19.5q0 -5 -5 -5h-25z" />
    <glyph glyph-name="Odieresis" unicode="&#xd6;" horiz-adv-x="625" 
d="M75 335q24 111 62.5 187.5t102.5 115t165 38.5q79 0 125 -22t65 -65t17 -107t-20 -147q-23 -112 -60.5 -187.5t-102 -114.5t-169.5 -39q-101 0 -149 39t-53.5 114.5t17.5 187.5zM133 335q-23 -114 -16 -177t45.5 -88t107.5 -25q68 0 118 25t86 87.5t60 177.5
q24 114 15.5 178t-48 89.5t-108.5 25.5q-68 0 -117.5 -26t-83.5 -89.5t-59 -177.5zM391 773q-3 -14 -11.5 -21.5t-28.5 -7.5q-19 0 -24.5 7.5t-2.5 21.5q3 16 11.5 23t27.5 7q21 0 26 -7t2 -23zM524 773q-2 -14 -10 -21.5t-30 -7.5q-19 0 -24 7.5t-3 21.5q4 16 12.5 23
t27.5 7q21 0 26 -7t1 -23z" />
    <glyph glyph-name="multiply" unicode="&#xd7;" horiz-adv-x="466" 
d="M23 141q-2 3 -1.5 4.5t2.5 3.5l191 155l-116 144q-2 2 -0.5 4.5t3.5 3.5l28 24q3 2 4.5 1.5t3.5 -1.5l116 -146l178 146q4 2 8 0l18 -24q2 -1 2 -3.5t-2 -4.5l-178 -144l125 -155q2 -2 1 -3.5t-4 -4.5l-27 -23q-3 -2 -5 -2t-4 2l-125 155l-191 -155q-3 -2 -5 -2t-4 2z
" />
    <glyph glyph-name="Oslash" unicode="&#xd8;" horiz-adv-x="626" 
d="M75 335q24 111 62.5 187.5t102.5 115t165 38.5q79 0 125 -22t65 -65t17 -107t-20 -147q-23 -112 -60.5 -187.5t-102 -114.5t-169.5 -39q-101 0 -149 39t-53.5 114.5t17.5 187.5zM133 335q-23 -114 -16 -177t45.5 -88t107.5 -25q68 0 118 25t86 87.5t60 177.5
q24 114 15.5 178t-48 89.5t-108.5 25.5q-68 0 -117.5 -26t-83.5 -89.5t-59 -177.5zM56 6q-2 -3 -4.5 -4.5t-6.5 -1.5h-41q-2 0 -2 2t2 5l563 695q3 3 5 4.5t5 1.5h40q3 0 3.5 -2t-4.5 -8z" />
    <glyph glyph-name="Ugrave" unicode="&#xd9;" horiz-adv-x="633" 
d="M264 -11q-64 0 -103.5 13t-60.5 33t-28.5 44.5t-7 47.5t2.5 42q5 42 14 93.5t20 102.5q12 50 25 102.5t28.5 103t29.5 93.5q1 3 3.5 6t4.5 3h21.5h21.5q4 0 4.5 -1.5t-0.5 -7.5q-13 -40 -26 -85.5t-26 -94.5q-21 -80 -38.5 -161t-25.5 -150q-1 -14 -1.5 -32t5 -36.5
t21 -34t46 -25t78.5 -9.5q61 0 100 14.5t61.5 36.5t33.5 45t16 41q20 68 37 146t30 158q8 51 15 98.5t11 88.5q0 6 1.5 7.5t5.5 1.5h21.5h21.5q4 0 5 -3t0 -6q-3 -43 -10 -93t-15 -101.5t-18 -100.5q-11 -53 -23 -105t-26 -95q-7 -23 -21 -53t-43 -59t-79.5 -48.5
t-131.5 -19.5zM426 720q-4 0 -5.5 1.5t-4.5 3.5l-65 73q-1 2 0 4t3 2h47q4 0 6.5 -1.5t5.5 -4.5l48 -71q2 -3 1.5 -5t-4.5 -2h-32z" />
    <glyph glyph-name="Uacute" unicode="&#xda;" horiz-adv-x="633" 
d="M264 -11q-64 0 -103.5 13t-60.5 33t-28.5 44.5t-7 47.5t2.5 42q5 42 14 93.5t20 102.5q12 50 25 102.5t28.5 103t29.5 93.5q1 3 3.5 6t4.5 3h21.5h21.5q4 0 4.5 -1.5t-0.5 -7.5q-13 -40 -26 -85.5t-26 -94.5q-21 -80 -38.5 -161t-25.5 -150q-1 -14 -1.5 -32t5 -36.5
t21 -34t46 -25t78.5 -9.5q61 0 100 14.5t61.5 36.5t33.5 45t16 41q20 68 37 146t30 158q8 51 15 98.5t11 88.5q0 6 1.5 7.5t5.5 1.5h21.5h21.5q4 0 5 -3t0 -6q-3 -43 -10 -93t-15 -101.5t-18 -100.5q-11 -53 -23 -105t-26 -95q-7 -23 -21 -53t-43 -59t-79.5 -48.5
t-131.5 -19.5zM409 720h-33q-4 0 -4 2t2 5l61 71q3 3 5.5 4.5t6.5 1.5h47q3 0 4 -2t-2 -4l-77 -73q-3 -2 -5 -3.5t-5 -1.5z" />
    <glyph glyph-name="Ucircumflex" unicode="&#xdb;" horiz-adv-x="633" 
d="M264 -11q-64 0 -103.5 13t-60.5 33t-28.5 44.5t-7 47.5t2.5 42q5 42 14 93.5t20 102.5q12 50 25 102.5t28.5 103t29.5 93.5q1 3 3.5 6t4.5 3h21.5h21.5q4 0 4.5 -1.5t-0.5 -7.5q-13 -40 -26 -85.5t-26 -94.5q-21 -80 -38.5 -161t-25.5 -150q-1 -14 -1.5 -32t5 -36.5
t21 -34t46 -25t78.5 -9.5q61 0 100 14.5t61.5 36.5t33.5 45t16 41q20 68 37 146t30 158q8 51 15 98.5t11 88.5q0 6 1.5 7.5t5.5 1.5h21.5h21.5q4 0 5 -3t0 -6q-3 -43 -10 -93t-15 -101.5t-18 -100.5q-11 -53 -23 -105t-26 -95q-7 -23 -21 -53t-43 -59t-79.5 -48.5
t-131.5 -19.5zM330 719q-3 0 -3 2.5t2 4.5l80 75q3 4 8 4h40q4 0 6 -4l48 -75q1 -2 -0.5 -4.5t-4.5 -2.5h-28q-2 0 -3.5 1.5t-4.5 2.5l-37 44q-1 3 -8 0l-57 -44q-1 -1 -3.5 -2.5t-5.5 -1.5h-29z" />
    <glyph glyph-name="Udieresis" unicode="&#xdc;" horiz-adv-x="633" 
d="M264 -11q-64 0 -103.5 13t-60.5 33t-28.5 44.5t-7 47.5t2.5 42q5 42 14 93.5t20 102.5q12 50 25 102.5t28.5 103t29.5 93.5q1 3 3.5 6t4.5 3h21.5h21.5q4 0 4.5 -1.5t-0.5 -7.5q-13 -40 -26 -85.5t-26 -94.5q-21 -80 -38.5 -161t-25.5 -150q-1 -14 -1.5 -32t5 -36.5
t21 -34t46 -25t78.5 -9.5q61 0 100 14.5t61.5 36.5t33.5 45t16 41q20 68 37 146t30 158q8 51 15 98.5t11 88.5q0 6 1.5 7.5t5.5 1.5h21.5h21.5q4 0 5 -3t0 -6q-3 -43 -10 -93t-15 -101.5t-18 -100.5q-11 -53 -23 -105t-26 -95q-7 -23 -21 -53t-43 -59t-79.5 -48.5
t-131.5 -19.5zM395 773q-3 -14 -11.5 -21.5t-28.5 -7.5q-19 0 -24.5 7.5t-2.5 21.5q3 16 11.5 23t27.5 7q21 0 26 -7t2 -23zM528 773q-2 -14 -10 -21.5t-30 -7.5q-19 0 -24 7.5t-3 21.5q4 16 12.5 23t27.5 7q21 0 26 -7t1 -23z" />
    <glyph glyph-name="Yacute" unicode="&#xdd;" horiz-adv-x="474" 
d="M293 307q-7 -8 -13 -22.5t-8 -25.5l-54 -253q-1 -3 -3 -4.5t-4 -1.5h-45q-2 0 -3.5 1.5t-0.5 4.5l53 251q3 16 2 33t-7 27q-7 13 -15.5 31t-16.5 37t-14.5 35.5t-9.5 27.5q-16 53 -26.5 99.5t-15 78t-4.5 37.5q0 5 3 7.5t7 2.5h42q3 0 4 -2t2 -8q1 -7 6.5 -36.5t15.5 -70
t21 -81.5q7 -27 18.5 -55.5t25.5 -57.5q5 -8 8.5 -9.5t11.5 7.5q16 16 34 36.5t35 42t29 37.5q29 40 54 80.5t42.5 70t20.5 36.5q2 6 5 8t6 2h43q4 0 5.5 -2.5t-1.5 -7.5q-2 -6 -18.5 -36.5t-44.5 -75.5t-67 -97q-9 -13 -23.5 -31.5t-32 -39.5t-35 -41t-32.5 -35zM330 720
h-33q-4 0 -4 2t2 5l61 71q3 3 5.5 4.5t6.5 1.5h47q3 0 4 -2t-2 -4l-77 -73q-3 -2 -5 -3.5t-5 -1.5z" />
    <glyph glyph-name="Thorn" unicode="&#xde;" horiz-adv-x="460" 
d="M446 381q-13 -63 -46 -115.5t-81.5 -83.5t-111.5 -31h-98q-6 0 -7 -6l-30 -139q-1 -6 -8 -6h-44q-3 0 -4.5 1.5t-0.5 4.5l149 696q0 6 6 6h43q5 0 6.5 -1.5t-0.5 -5.5l-20 -100q-1 -3 -1.5 -6t0.5 -5h92q106 0 142.5 -50.5t13.5 -158.5zM390 381q20 90 -7 127.5
t-101 37.5h-90q-3 0 -4 -1t-3 -4l-72 -340q-1 -5 5 -5h92q68 0 115 49.5t65 135.5z" />
    <glyph glyph-name="germandbls" unicode="&#xdf;" horiz-adv-x="618" 
d="M-32 -108q-17 0 -25 1t-8 4q0 4 0.5 9.5t1.5 10.5q1 4 2.5 8.5t4.5 7.5q12 2 23.5 3.5t21.5 4.5q29 8 49 28.5t34.5 56t27.5 89t29 128.5q9 43 20 93t22.5 103.5t22.5 108.5q8 36 24.5 65.5t42 51.5t60 33.5t75.5 11.5q24 0 47.5 -5t43.5 -16.5t34.5 -29.5t19.5 -43
t-2 -58q-5 -28 -18 -50t-31 -37q-18 -13 -43 -22.5t-51 -19.5q-23 -8 -33 -22t-6.5 -27.5t18.5 -22.5q29 -14 62 -31.5t60 -39.5q29 -22 39 -57t1 -73q-10 -50 -41.5 -86.5t-76 -56.5t-96.5 -20q-30 0 -66.5 7.5t-61.5 27.5q-2 3 -2.5 5.5t0.5 7.5q3 8 5.5 16t4.5 15
q3 7 5.5 7t6.5 -3q12 -9 32 -16.5t42 -12t39 -4.5q33 0 58.5 12t44.5 31q19 17 29.5 39.5t11.5 46.5q5 31 -4.5 51.5t-30.5 36.5t-51.5 31t-68.5 36q-23 12 -28 36.5t12.5 50t62.5 40.5q21 6 40 12.5t34 18.5q13 12 26.5 28t19.5 46q7 36 -3.5 59t-34.5 34t-55 11
q-55 0 -92.5 -30.5t-50.5 -90.5q-7 -34 -15 -72t-17 -79t-17.5 -83t-17.5 -82.5t-16.5 -77.5t-15.5 -69q-20 -96 -66.5 -141.5t-114.5 -45.5z" />
    <glyph glyph-name="agrave" unicode="&#xe0;" horiz-adv-x="483" 
d="M180 -6q-95 0 -130 57.5t-9 178.5q16 76 44.5 123.5t63 73.5t70.5 36t69 10q35 0 68.5 -12t47.5 -24l6 28q1 3 3 4t4 1h43q6 0 6 -6q-3 -18 -9 -49.5t-15 -72.5t-20 -89.5t-25 -102.5t-30 -110q-2 -6 -5.5 -11t-16.5 -9q-31 -11 -77 -18.5t-88 -7.5zM198 39q18 0 40 4
t40 8.5t24 5.5q6 2 12.5 6.5t9.5 15.5q7 25 15 58.5t16.5 70t16 71t13.5 60.5t7 37q2 6 -0.5 10.5t-10.5 8.5q-19 10 -44 19t-58 9q-21 0 -47 -7t-52 -26t-47.5 -58t-35.5 -102q-22 -106 3.5 -148.5t97.5 -42.5zM332 531q-5 0 -10 5l-51 87q-2 2 -0.5 4t3.5 2h47q4 0 6.5 -1
t4.5 -5l34 -86q4 -6 -3 -6h-31z" />
    <glyph glyph-name="aacute" unicode="&#xe1;" horiz-adv-x="483" 
d="M180 -6q-95 0 -130 57.5t-9 178.5q16 76 44.5 123.5t63 73.5t70.5 36t69 10q35 0 68.5 -12t47.5 -24l6 28q1 3 3 4t4 1h43q6 0 6 -6q-3 -18 -9 -49.5t-15 -72.5t-20 -89.5t-25 -102.5t-30 -110q-2 -6 -5.5 -11t-16.5 -9q-31 -11 -77 -18.5t-88 -7.5zM198 39q18 0 40 4
t40 8.5t24 5.5q6 2 12.5 6.5t9.5 15.5q7 25 15 58.5t16.5 70t16 71t13.5 60.5t7 37q2 6 -0.5 10.5t-10.5 8.5q-19 10 -44 19t-58 9q-21 0 -47 -7t-52 -26t-47.5 -58t-35.5 -102q-22 -106 3.5 -148.5t97.5 -42.5zM301 530q-4 0 -3.5 2t2.5 5l66 87q3 5 12 5h44q3 0 3.5 -1.5
t-3.5 -4.5l-80 -89q-2 -2 -4 -3t-6 -1h-31z" />
    <glyph glyph-name="acircumflex" unicode="&#xe2;" horiz-adv-x="483" 
d="M180 -6q-95 0 -130 57.5t-9 178.5q16 76 44.5 123.5t63 73.5t70.5 36t69 10q35 0 68.5 -12t47.5 -24l6 28q1 3 3 4t4 1h43q6 0 6 -6q-3 -18 -9 -49.5t-15 -72.5t-20 -89.5t-25 -102.5t-30 -110q-2 -6 -5.5 -11t-16.5 -9q-31 -11 -77 -18.5t-88 -7.5zM198 39q18 0 40 4
t40 8.5t24 5.5q6 2 12.5 6.5t9.5 15.5q7 25 15 58.5t16.5 70t16 71t13.5 60.5t7 37q2 6 -0.5 10.5t-10.5 8.5q-19 10 -44 19t-58 9q-21 0 -47 -7t-52 -26t-47.5 -58t-35.5 -102q-22 -106 3.5 -148.5t97.5 -42.5zM244 530q-3 0 -3 2t1 4l82 88q3 3 7 3h39q5 0 6 -3l44 -88
q2 -2 0.5 -4t-4.5 -2h-29q-4 0 -6 3l-36 54q-3 4 -7 0l-58 -54q-3 -3 -7 -3h-29z" />
    <glyph glyph-name="atilde" unicode="&#xe3;" horiz-adv-x="483" 
d="M180 -6q-95 0 -130 57.5t-9 178.5q16 76 44.5 123.5t63 73.5t70.5 36t69 10q35 0 68.5 -12t47.5 -24l6 28q1 3 3 4t4 1h43q6 0 6 -6q-3 -18 -9 -49.5t-15 -72.5t-20 -89.5t-25 -102.5t-30 -110q-2 -6 -5.5 -11t-16.5 -9q-31 -11 -77 -18.5t-88 -7.5zM198 39q18 0 40 4
t40 8.5t24 5.5q6 2 12.5 6.5t9.5 15.5q7 25 15 58.5t16.5 70t16 71t13.5 60.5t7 37q2 6 -0.5 10.5t-10.5 8.5q-19 10 -44 19t-58 9q-21 0 -47 -7t-52 -26t-47.5 -58t-35.5 -102q-22 -106 3.5 -148.5t97.5 -42.5zM243 535q-6 0 -4 5q6 27 25 44t44 17q15 0 27.5 -8.5
t24.5 -17.5t21 -9q7 0 14 7t9 17q1 3 2.5 4.5t2.5 1.5h28q6 0 4 -6q-5 -23 -24.5 -41.5t-43.5 -18.5q-16 0 -29.5 9t-24 18t-19.5 9q-8 0 -15.5 -7.5t-9.5 -18.5q-1 -5 -5 -5h-27z" />
    <glyph glyph-name="adieresis" unicode="&#xe4;" horiz-adv-x="483" 
d="M180 -6q-95 0 -130 57.5t-9 178.5q16 76 44.5 123.5t63 73.5t70.5 36t69 10q35 0 68.5 -12t47.5 -24l6 28q1 3 3 4t4 1h43q6 0 6 -6q-3 -18 -9 -49.5t-15 -72.5t-20 -89.5t-25 -102.5t-30 -110q-2 -6 -5.5 -11t-16.5 -9q-31 -11 -77 -18.5t-88 -7.5zM198 39q18 0 40 4
t40 8.5t24 5.5q6 2 12.5 6.5t9.5 15.5q7 25 15 58.5t16.5 70t16 71t13.5 60.5t7 37q2 6 -0.5 10.5t-10.5 8.5q-19 10 -44 19t-58 9q-21 0 -47 -7t-52 -26t-47.5 -58t-35.5 -102q-22 -106 3.5 -148.5t97.5 -42.5zM306 573q-3 -14 -11.5 -21.5t-28.5 -7.5q-19 0 -24.5 7.5
t-2.5 21.5q3 16 11.5 23t27.5 7q21 0 26 -7t2 -23zM439 573q-2 -14 -10 -21.5t-30 -7.5q-19 0 -24 7.5t-3 21.5q4 16 12.5 23t27.5 7q21 0 26 -7t1 -23z" />
    <glyph glyph-name="aring" unicode="&#xe5;" horiz-adv-x="483" 
d="M180 -6q-95 0 -130 57.5t-9 178.5q16 76 44.5 123.5t63 73.5t70.5 36t69 10q35 0 68.5 -12t47.5 -24l6 28q1 3 3 4t4 1h43q6 0 6 -6q-3 -18 -9 -49.5t-15 -72.5t-20 -89.5t-25 -102.5t-30 -110q-2 -6 -5.5 -11t-16.5 -9q-31 -11 -77 -18.5t-88 -7.5zM198 39q18 0 40 4
t40 8.5t24 5.5q6 2 12.5 6.5t9.5 15.5q7 25 15 58.5t16.5 70t16 71t13.5 60.5t7 37q2 6 -0.5 10.5t-10.5 8.5q-19 10 -44 19t-58 9q-21 0 -47 -7t-52 -26t-47.5 -58t-35.5 -102q-22 -106 3.5 -148.5t97.5 -42.5zM425 587q-7 -33 -30.5 -53.5t-66.5 -20.5t-57.5 20.5
t-6.5 53.5q7 34 30 53.5t66 19.5q44 0 58.5 -19.5t6.5 -53.5zM394 590q3 16 -3.5 27t-36.5 11q-32 0 -42 -11t-14 -27q-3 -15 2 -29.5t38 -14.5t42.5 14.5t13.5 29.5z" />
    <glyph glyph-name="ae" unicode="&#xe6;" horiz-adv-x="786" 
d="M180 -8q-35 0 -66 6t-53 21.5t-30 44t2 72.5q11 50 34 82.5t54 50t64.5 24.5t62.5 7q33 0 64 -3t48 -7q14 -3 20 22q15 66 -11 93t-95 27q-40 0 -76 -10t-61 -25q-5 -3 -7.5 -2.5t-2.5 4.5q1 8 1 16t1 16q0 5 1.5 6.5t6.5 3.5q26 17 63.5 26.5t82.5 9.5q54 0 84.5 -11
t46 -30.5t19.5 -44.5q29 41 73.5 66t106.5 25q60 0 92 -18t44 -48.5t11 -67t-9 -73.5q-8 -36 -16.5 -44t-21.5 -8h-142h-142q-2 0 -6 -2t-5 -7q-14 -89 10.5 -132t99.5 -43q35 0 77.5 8.5t71.5 24.5q6 3 11.5 4.5t7.5 -5.5l6 -21q1 -4 -0.5 -6t-6.5 -5q-37 -25 -85 -34.5
t-98 -9.5q-60 0 -92.5 19t-46.5 52q-2 -9 -5 -18l-6 -18q-2 -4 -7 -8.5t-19 -8.5q-22 -7 -49 -11.5t-55 -7t-52 -2.5zM361 236q3 10 -15 15t-48 6.5t-64 1.5q-23 0 -53 -9t-56 -35.5t-37 -78.5q-8 -37 3.5 -60t38 -33t63.5 -10q9 0 28.5 1.5t41 5t38 11t20.5 18.5
q8 28 19.5 75t20.5 92zM673 261q11 0 15.5 3.5t7.5 16.5q6 30 7 57t-8.5 49.5t-31 35t-60.5 12.5t-68.5 -14.5t-50 -38.5t-33.5 -50.5t-20 -51.5q-1 -9 -1 -12.5t8 -3.5q59 -1 117.5 -1.5t117.5 -1.5z" />
    <glyph glyph-name="ccedilla" unicode="&#xe7;" horiz-adv-x="395" 
d="M188 -5q-59 0 -94 18.5t-49.5 51.5t-14 77t11.5 95q11 48 29 91.5t47.5 78.5t71.5 55t101 20q41 0 68.5 -8.5t45.5 -25.5q3 -5 4 -7t-1 -8l-8 -34q-1 -6 -4.5 -6t-6.5 3q-14 19 -43.5 28.5t-61.5 9.5q-42 0 -74 -17.5t-54 -47t-36.5 -64t-22.5 -69.5q-12 -59 -7.5 -102.5
t31 -68t79.5 -24.5q33 0 60.5 6.5t51.5 16.5q10 5 11 -2l7 -26q1 -4 -1 -6t-5 -4q-26 -16 -61.5 -23.5t-74.5 -7.5zM256 -116q-5 -27 -32 -48.5t-68 -21.5q-24 0 -42 9.5t-26 23.5q-2 3 -1 7t5 6l18 8q9 3 13 -3q5 -8 16 -14t22 -6q24 0 38 12.5t17 26.5q4 17 -6.5 25
t-27 11.5t-31.5 3.5q-6 1 -8 4t2 11l30 60q3 5 7 5.5t6 0.5h19q4 0 2 -7l-25 -62l-4 13q37 -1 60.5 -16.5t15.5 -48.5z" />
    <glyph glyph-name="egrave" unicode="&#xe8;" horiz-adv-x="458" 
d="M42 237q11 48 29 91.5t47.5 78.5t71.5 55t101 20q61 0 93 -18t44 -48.5t10.5 -67t-9.5 -73.5q-8 -36 -16.5 -44t-21.5 -8h-284q-2 0 -7 -2t-7 -11q-9 -50 -2 -88.5t34.5 -60.5t78.5 -22q36 0 78.5 8.5t72.5 24.5q5 3 11 4.5t8 -5.5l6 -21q2 -4 0 -6t-8 -5
q-37 -25 -85.5 -34.5t-98.5 -9.5q-60 0 -94.5 18.5t-49 51.5t-14 77t11.5 95zM374 284q6 29 7 56t-8.5 48.5t-31.5 34t-61 12.5t-68 -14.5t-50 -38.5t-34 -50.5t-19 -51.5q-3 -9 -2 -12.5t9 -3.5h117.5h118.5q10 0 14.5 3.5t7.5 16.5zM301 531q-5 0 -10 5l-51 87
q-2 2 -0.5 4t3.5 2h47q4 0 6.5 -1t4.5 -5l34 -86q4 -6 -3 -6h-31z" />
    <glyph glyph-name="eacute" unicode="&#xe9;" horiz-adv-x="458" 
d="M42 237q11 48 29 91.5t47.5 78.5t71.5 55t101 20q61 0 93 -18t44 -48.5t10.5 -67t-9.5 -73.5q-8 -36 -16.5 -44t-21.5 -8h-284q-2 0 -7 -2t-7 -11q-9 -50 -2 -88.5t34.5 -60.5t78.5 -22q36 0 78.5 8.5t72.5 24.5q5 3 11 4.5t8 -5.5l6 -21q2 -4 0 -6t-8 -5
q-37 -25 -85.5 -34.5t-98.5 -9.5q-60 0 -94.5 18.5t-49 51.5t-14 77t11.5 95zM374 284q6 29 7 56t-8.5 48.5t-31.5 34t-61 12.5t-68 -14.5t-50 -38.5t-34 -50.5t-19 -51.5q-3 -9 -2 -12.5t9 -3.5h117.5h118.5q10 0 14.5 3.5t7.5 16.5zM270 530q-4 0 -3.5 2t2.5 5l66 87
q3 5 12 5h44q3 0 3.5 -1.5t-3.5 -4.5l-80 -89q-2 -2 -4 -3t-6 -1h-31z" />
    <glyph glyph-name="ecircumflex" unicode="&#xea;" horiz-adv-x="458" 
d="M42 237q11 48 29 91.5t47.5 78.5t71.5 55t101 20q61 0 93 -18t44 -48.5t10.5 -67t-9.5 -73.5q-8 -36 -16.5 -44t-21.5 -8h-284q-2 0 -7 -2t-7 -11q-9 -50 -2 -88.5t34.5 -60.5t78.5 -22q36 0 78.5 8.5t72.5 24.5q5 3 11 4.5t8 -5.5l6 -21q2 -4 0 -6t-8 -5
q-37 -25 -85.5 -34.5t-98.5 -9.5q-60 0 -94.5 18.5t-49 51.5t-14 77t11.5 95zM374 284q6 29 7 56t-8.5 48.5t-31.5 34t-61 12.5t-68 -14.5t-50 -38.5t-34 -50.5t-19 -51.5q-3 -9 -2 -12.5t9 -3.5h117.5h118.5q10 0 14.5 3.5t7.5 16.5zM213 530q-3 0 -3 2t1 4l82 88q3 3 7 3
h39q5 0 6 -3l44 -88q2 -2 0.5 -4t-4.5 -2h-29q-4 0 -6 3l-36 54q-3 4 -7 0l-58 -54q-3 -3 -7 -3h-29z" />
    <glyph glyph-name="edieresis" unicode="&#xeb;" horiz-adv-x="458" 
d="M42 237q11 48 29 91.5t47.5 78.5t71.5 55t101 20q61 0 93 -18t44 -48.5t10.5 -67t-9.5 -73.5q-8 -36 -16.5 -44t-21.5 -8h-284q-2 0 -7 -2t-7 -11q-9 -50 -2 -88.5t34.5 -60.5t78.5 -22q36 0 78.5 8.5t72.5 24.5q5 3 11 4.5t8 -5.5l6 -21q2 -4 0 -6t-8 -5
q-37 -25 -85.5 -34.5t-98.5 -9.5q-60 0 -94.5 18.5t-49 51.5t-14 77t11.5 95zM374 284q6 29 7 56t-8.5 48.5t-31.5 34t-61 12.5t-68 -14.5t-50 -38.5t-34 -50.5t-19 -51.5q-3 -9 -2 -12.5t9 -3.5h117.5h118.5q10 0 14.5 3.5t7.5 16.5zM276 573q-3 -14 -11.5 -21.5
t-28.5 -7.5q-19 0 -24.5 7.5t-2.5 21.5q3 16 11.5 23t27.5 7q21 0 26 -7t2 -23zM409 573q-2 -14 -10 -21.5t-30 -7.5q-19 0 -24 7.5t-3 21.5q4 16 12.5 23t27.5 7q21 0 26 -7t1 -23z" />
    <glyph glyph-name="igrave" unicode="&#xec;" horiz-adv-x="198" 
d="M79 6q-2 -6 -7 -6h-44q-6 0 -5 6l98 460q1 6 7 6h44q2 0 3.5 -1.5t0.5 -4.5zM161 531q-5 0 -10 5l-51 87q-2 2 -0.5 4t3.5 2h47q4 0 6.5 -1t4.5 -5l34 -86q4 -6 -3 -6h-31z" />
    <glyph glyph-name="iacute" unicode="&#xed;" horiz-adv-x="198" 
d="M79 6q-2 -6 -7 -6h-44q-6 0 -5 6l98 460q1 6 7 6h44q2 0 3.5 -1.5t0.5 -4.5zM130 530q-4 0 -3.5 2t2.5 5l66 87q3 5 12 5h44q3 0 3.5 -1.5t-3.5 -4.5l-80 -89q-2 -2 -4 -3t-6 -1h-31z" />
    <glyph glyph-name="icircumflex" unicode="&#xee;" horiz-adv-x="198" 
d="M79 6q-2 -6 -7 -6h-44q-6 0 -5 6l98 460q1 6 7 6h44q2 0 3.5 -1.5t0.5 -4.5zM73 530q-3 0 -3 2t1 4l82 88q3 3 7 3h39q5 0 6 -3l44 -88q2 -2 0.5 -4t-4.5 -2h-29q-4 0 -6 3l-36 54q-3 4 -7 0l-58 -54q-3 -3 -7 -3h-29z" />
    <glyph glyph-name="idieresis" unicode="&#xef;" horiz-adv-x="198" 
d="M79 6q-2 -6 -7 -6h-44q-6 0 -5 6l98 460q1 6 7 6h44q2 0 3.5 -1.5t0.5 -4.5zM136 573q-3 -14 -11.5 -21.5t-28.5 -7.5q-19 0 -24.5 7.5t-2.5 21.5q3 16 11.5 23t27.5 7q21 0 26 -7t2 -23zM269 573q-2 -14 -10 -21.5t-30 -7.5q-19 0 -24 7.5t-3 21.5q4 16 12.5 23t27.5 7
q21 0 26 -7t1 -23z" />
    <glyph glyph-name="eth" unicode="&#xf0;" horiz-adv-x="514" 
d="M461 240q-14 -67 -44 -123t-81.5 -90t-130.5 -34q-57 0 -92 18t-51.5 51t-18 78t10.5 98q16 71 47 126.5t82 86.5t126 31q25 0 51 -7.5t39 -23.5q-18 36 -38.5 63t-44.5 49q-22 20 -45.5 37.5t-47.5 31.5q-6 4 -1 11l21 25q2 3 5 4t7 -2q11 -7 22 -15t23 -16
q67 -44 109.5 -104.5t56 -134.5t-4.5 -160zM403 237q21 94 -2.5 145.5t-102.5 51.5q-77 0 -122.5 -51t-65.5 -146q-21 -95 2.5 -147t101.5 -52q79 0 124 53t65 146zM199 515q-3 -2 -4.5 -2t-1.5 2l-10 22q0 2 0.5 3.5t3.5 2.5l226 123q4 2 4.5 1.5t1.5 -2.5l10 -23
q0 -1 -0.5 -2t-3.5 -3z" />
    <glyph glyph-name="ntilde" unicode="&#xf1;" horiz-adv-x="490" 
d="M29 0q-3 0 -5 1.5t-1 4.5q23 107 46 213.5t45 212.5q2 6 6 10t17 8q14 4 40.5 10t57 11t55.5 5q57 0 90 -17t47 -48t14 -71.5t-10 -87.5t-22 -95t-22.5 -87t-17.5 -60q-2 -7 -4.5 -8.5t-9.5 -1.5h-37q-7 0 -5 8q2 6 7 24.5t12 45.5t15 58.5t15.5 62.5t13.5 56
q12 54 6.5 92.5t-30 59t-72.5 20.5q-26 1 -51.5 -4t-46.5 -13q-6 -1 -13 -6t-9 -16q-20 -94 -40.5 -189.5t-40.5 -191.5q-1 -3 -2.5 -5t-4.5 -2h-43zM219 535q-6 0 -4 5q6 27 25 44t44 17q15 0 27.5 -8.5t24.5 -17.5t21 -9q7 0 14 7t9 17q1 3 2.5 4.5t2.5 1.5h28q6 0 4 -6
q-5 -23 -24.5 -41.5t-43.5 -18.5q-16 0 -29.5 9t-24 18t-19.5 9q-8 0 -15.5 -7.5t-9.5 -18.5q-1 -5 -5 -5h-27z" />
    <glyph glyph-name="ograve" unicode="&#xf2;" horiz-adv-x="490" 
d="M194 -6q-61 0 -96.5 18t-51.5 50.5t-15.5 76.5t11.5 98q15 70 45.5 124.5t81.5 85.5t127 31q77 0 114.5 -31t45 -85.5t-7.5 -124.5q-15 -71 -44 -126t-79 -86t-131 -31zM203 40q82 0 125.5 51.5t63.5 144.5t-5 143.5t-101 50.5t-122 -50.5t-66 -143.5q-20 -94 2 -145
t103 -51zM307 531q-5 0 -10 5l-51 87q-2 2 -0.5 4t3.5 2h47q4 0 6.5 -1t4.5 -5l34 -86q4 -6 -3 -6h-31z" />
    <glyph glyph-name="oacute" unicode="&#xf3;" horiz-adv-x="490" 
d="M194 -6q-61 0 -96.5 18t-51.5 50.5t-15.5 76.5t11.5 98q15 70 45.5 124.5t81.5 85.5t127 31q77 0 114.5 -31t45 -85.5t-7.5 -124.5q-15 -71 -44 -126t-79 -86t-131 -31zM203 40q82 0 125.5 51.5t63.5 144.5t-5 143.5t-101 50.5t-122 -50.5t-66 -143.5q-20 -94 2 -145
t103 -51zM276 530q-4 0 -3.5 2t2.5 5l66 87q3 5 12 5h44q3 0 3.5 -1.5t-3.5 -4.5l-80 -89q-2 -2 -4 -3t-6 -1h-31z" />
    <glyph glyph-name="ocircumflex" unicode="&#xf4;" horiz-adv-x="490" 
d="M194 -6q-61 0 -96.5 18t-51.5 50.5t-15.5 76.5t11.5 98q15 70 45.5 124.5t81.5 85.5t127 31q77 0 114.5 -31t45 -85.5t-7.5 -124.5q-15 -71 -44 -126t-79 -86t-131 -31zM203 40q82 0 125.5 51.5t63.5 144.5t-5 143.5t-101 50.5t-122 -50.5t-66 -143.5q-20 -94 2 -145
t103 -51zM218 530q-3 0 -3 2t1 4l82 88q3 3 7 3h39q5 0 6 -3l44 -88q2 -2 0.5 -4t-4.5 -2h-29q-4 0 -6 3l-36 54q-3 4 -7 0l-58 -54q-3 -3 -7 -3h-29z" />
    <glyph glyph-name="otilde" unicode="&#xf5;" horiz-adv-x="490" 
d="M194 -6q-61 0 -96.5 18t-51.5 50.5t-15.5 76.5t11.5 98q15 70 45.5 124.5t81.5 85.5t127 31q77 0 114.5 -31t45 -85.5t-7.5 -124.5q-15 -71 -44 -126t-79 -86t-131 -31zM203 40q82 0 125.5 51.5t63.5 144.5t-5 143.5t-101 50.5t-122 -50.5t-66 -143.5q-20 -94 2 -145
t103 -51zM218 535q-6 0 -4 5q6 27 25 44t44 17q15 0 27.5 -8.5t24.5 -17.5t21 -9q7 0 14 7t9 17q1 3 2.5 4.5t2.5 1.5h28q6 0 4 -6q-5 -23 -24.5 -41.5t-43.5 -18.5q-16 0 -29.5 9t-24 18t-19.5 9q-8 0 -15.5 -7.5t-9.5 -18.5q-1 -5 -5 -5h-27z" />
    <glyph glyph-name="odieresis" unicode="&#xf6;" horiz-adv-x="490" 
d="M194 -6q-61 0 -96.5 18t-51.5 50.5t-15.5 76.5t11.5 98q15 70 45.5 124.5t81.5 85.5t127 31q77 0 114.5 -31t45 -85.5t-7.5 -124.5q-15 -71 -44 -126t-79 -86t-131 -31zM203 40q82 0 125.5 51.5t63.5 144.5t-5 143.5t-101 50.5t-122 -50.5t-66 -143.5q-20 -94 2 -145
t103 -51zM281 573q-3 -14 -11.5 -21.5t-28.5 -7.5q-19 0 -24.5 7.5t-2.5 21.5q3 16 11.5 23t27.5 7q21 0 26 -7t2 -23zM414 573q-2 -14 -10 -21.5t-30 -7.5q-19 0 -24 7.5t-3 21.5q4 16 12.5 23t27.5 7q21 0 26 -7t1 -23z" />
    <glyph glyph-name="divide" unicode="&#xf7;" horiz-adv-x="461" 
d="M254 179q-3 -16 -11 -23.5t-30 -7.5q-20 0 -25.5 7.5t-2.5 23.5q3 14 11.5 22t28.5 8q22 0 27 -8t2 -22zM306 423q-2 -15 -10.5 -23t-30.5 -8q-21 0 -26 8t-2 23q3 14 11.5 22t28.5 8q22 0 27 -8t2 -22zM66 280q-4 0 -5 1.5t0 4.5l7 32q0 3 1.5 4.5t6.5 1.5h347
q3 0 4.5 -1.5t0.5 -4.5l-7 -33q0 -2 -1.5 -3.5t-6.5 -1.5h-347z" />
    <glyph glyph-name="oslash" unicode="&#xf8;" horiz-adv-x="954" 
d="M194 -6q-61 0 -96.5 18t-51.5 50.5t-15.5 76.5t11.5 98q15 70 45.5 124.5t81.5 85.5t127 31q77 0 114.5 -31t45 -85.5t-7.5 -124.5q-15 -71 -44 -126t-79 -86t-131 -31zM203 40q82 0 125.5 51.5t63.5 144.5t-5 143.5t-101 50.5t-122 -50.5t-66 -143.5q-20 -94 2 -145
t103 -51zM33 -70q-1 -3 -3.5 -4.5t-5.5 -1.5h-33q-2 0 -1.5 2t1.5 5l444 599q2 3 4.5 4t4.5 1h32q3 0 2.5 -1.5t-4.5 -7.5z" />
    <glyph glyph-name="ugrave" unicode="&#xf9;" horiz-adv-x="489" 
d="M200 -4q-56 0 -89 17t-47.5 48t-14.5 71.5t10 87.5q11 48 22.5 95.5t22.5 86.5t16 60q3 7 6 8.5t10 1.5h32q7 0 9 -1t-1 -9q-2 -7 -8.5 -32t-16 -60.5t-19 -76t-16.5 -77.5q-17 -79 3.5 -125.5t90.5 -46.5q9 0 28 1.5t39 6t35.5 12t17.5 18.5l81 383q2 3 3 5t3 2h45
q2 0 4 -1t1 -5l-89 -418q-2 -12 -9 -17t-27 -12q-8 -3 -32.5 -8.5t-54.5 -10t-55 -4.5zM298 531q-5 0 -10 5l-51 87q-2 2 -0.5 4t3.5 2h47q4 0 6.5 -1t4.5 -5l34 -86q4 -6 -3 -6h-31z" />
    <glyph glyph-name="uacute" unicode="&#xfa;" horiz-adv-x="489" 
d="M200 -4q-56 0 -89 17t-47.5 48t-14.5 71.5t10 87.5q11 48 22.5 95.5t22.5 86.5t16 60q3 7 6 8.5t10 1.5h32q7 0 9 -1t-1 -9q-2 -7 -8.5 -32t-16 -60.5t-19 -76t-16.5 -77.5q-17 -79 3.5 -125.5t90.5 -46.5q9 0 28 1.5t39 6t35.5 12t17.5 18.5l81 383q2 3 3 5t3 2h45
q2 0 4 -1t1 -5l-89 -418q-2 -12 -9 -17t-27 -12q-8 -3 -32.5 -8.5t-54.5 -10t-55 -4.5zM267 530q-4 0 -3.5 2t2.5 5l66 87q3 5 12 5h44q3 0 3.5 -1.5t-3.5 -4.5l-80 -89q-2 -2 -4 -3t-6 -1h-31z" />
    <glyph glyph-name="ucircumflex" unicode="&#xfb;" horiz-adv-x="489" 
d="M200 -4q-56 0 -89 17t-47.5 48t-14.5 71.5t10 87.5q11 48 22.5 95.5t22.5 86.5t16 60q3 7 6 8.5t10 1.5h32q7 0 9 -1t-1 -9q-2 -7 -8.5 -32t-16 -60.5t-19 -76t-16.5 -77.5q-17 -79 3.5 -125.5t90.5 -46.5q9 0 28 1.5t39 6t35.5 12t17.5 18.5l81 383q2 3 3 5t3 2h45
q2 0 4 -1t1 -5l-89 -418q-2 -12 -9 -17t-27 -12q-8 -3 -32.5 -8.5t-54.5 -10t-55 -4.5zM209 530q-3 0 -3 2t1 4l82 88q3 3 7 3h39q5 0 6 -3l44 -88q2 -2 0.5 -4t-4.5 -2h-29q-4 0 -6 3l-36 54q-3 4 -7 0l-58 -54q-3 -3 -7 -3h-29z" />
    <glyph glyph-name="udieresis" unicode="&#xfc;" horiz-adv-x="489" 
d="M200 -4q-56 0 -89 17t-47.5 48t-14.5 71.5t10 87.5q11 48 22.5 95.5t22.5 86.5t16 60q3 7 6 8.5t10 1.5h32q7 0 9 -1t-1 -9q-2 -7 -8.5 -32t-16 -60.5t-19 -76t-16.5 -77.5q-17 -79 3.5 -125.5t90.5 -46.5q9 0 28 1.5t39 6t35.5 12t17.5 18.5l81 383q2 3 3 5t3 2h45
q2 0 4 -1t1 -5l-89 -418q-2 -12 -9 -17t-27 -12q-8 -3 -32.5 -8.5t-54.5 -10t-55 -4.5zM272 573q-3 -14 -11.5 -21.5t-28.5 -7.5q-19 0 -24.5 7.5t-2.5 21.5q3 16 11.5 23t27.5 7q21 0 26 -7t2 -23zM405 573q-2 -14 -10 -21.5t-30 -7.5q-19 0 -24 7.5t-3 21.5q4 16 12.5 23
t27.5 7q21 0 26 -7t1 -23z" />
    <glyph glyph-name="yacute" unicode="&#xfd;" horiz-adv-x="404" 
d="M-45 -127q-14 0 -26 1.5t-21 3.5q-10 4 -4 13l15 23q5 7 13 5q4 -1 8 -1.5t10 -0.5q27 0 56.5 11.5t53.5 30.5q17 13 33 28.5t26.5 30t10.5 23.5q0 12 -5.5 23.5t-15.5 38.5q-7 20 -14.5 57t-14 85.5t-8.5 104t2 112.5q0 10 9 10h39q4 0 7 -2t2 -10q-4 -35 -2.5 -83.5
t7 -98.5t13 -92t16.5 -67q4 -11 12.5 -13.5t15.5 8.5q29 46 62 104.5t63 121.5t49 122q2 6 4.5 8t8.5 2h39q10 0 6 -10q-12 -35 -26.5 -70t-33.5 -73.5t-45 -86.5q-15 -28 -41 -72.5t-60 -94t-76 -93t-89.5 -71.5t-98.5 -28zM233 530q-4 0 -3.5 2t2.5 5l66 87q3 5 12 5h44
q3 0 3.5 -1.5t-3.5 -4.5l-80 -89q-2 -2 -4 -3t-6 -1h-31z" />
    <glyph glyph-name="thorn" unicode="&#xfe;" horiz-adv-x="505" 
d="M453 244q-18 -86 -57 -139.5t-85.5 -79t-87.5 -28.5q-34 -2 -69 5.5t-56 22.5l-6 1.5t-4 -2.5q-8 -29 -15.5 -58t-14.5 -57q-2 -6 -4 -11.5t-4 -9.5q-5 -2 -11 -2.5t-13 -0.5t-13.5 1t-11.5 2q29 144 59 287.5t61 288.5q7 34 15 68t16 67q5 1 11.5 2t13.5 1t13.5 -0.5
t12.5 -2.5q-7 -34 -13.5 -69.5t-13.5 -72.5q-2 -5 -2.5 -11t1.5 -9q23 16 57.5 29.5t81.5 13.5q95 0 128.5 -63t10.5 -173zM396 244q21 96 -3 143.5t-89 47.5q-24 0 -53.5 -7.5t-54.5 -22.5t-38 -40q-6 -9 -7 -21q-13 -55 -24.5 -110.5t-23.5 -110.5q-1 -7 -2 -12t1 -9
q3 -21 19.5 -33.5t41 -18t50.5 -5.5q29 0 65 17.5t68.5 61t49.5 120.5z" />
    <glyph glyph-name="ydieresis" unicode="&#xff;" horiz-adv-x="404" 
d="M-45 -127q-14 0 -26 1.5t-21 3.5q-10 4 -4 13l15 23q5 7 13 5q4 -1 8 -1.5t10 -0.5q27 0 56.5 11.5t53.5 30.5q17 13 33 28.5t26.5 30t10.5 23.5q0 12 -5.5 23.5t-15.5 38.5q-7 20 -14.5 57t-14 85.5t-8.5 104t2 112.5q0 10 9 10h39q4 0 7 -2t2 -10q-4 -35 -2.5 -83.5
t7 -98.5t13 -92t16.5 -67q4 -11 12.5 -13.5t15.5 8.5q29 46 62 104.5t63 121.5t49 122q2 6 4.5 8t8.5 2h39q10 0 6 -10q-12 -35 -26.5 -70t-33.5 -73.5t-45 -86.5q-15 -28 -41 -72.5t-60 -94t-76 -93t-89.5 -71.5t-98.5 -28zM238 573q-3 -14 -11.5 -21.5t-28.5 -7.5
q-19 0 -24.5 7.5t-2.5 21.5q3 16 11.5 23t27.5 7q21 0 26 -7t2 -23zM371 573q-2 -14 -10 -21.5t-30 -7.5q-19 0 -24 7.5t-3 21.5q4 16 12.5 23t27.5 7q21 0 26 -7t1 -23z" />
    <glyph glyph-name="Amacron" unicode="&#x100;" horiz-adv-x="570" 
d="M6 0q-4 0 -4.5 2.5t2.5 9.5q16 48 44.5 115t63.5 142.5t73 150.5t74 139t66 106q4 4 7 6t6 2h79q4 -1 6.5 -2t3.5 -6q12 -41 20.5 -105.5t14 -140.5t9 -153t3.5 -143t-4 -110q0 -8 -1 -10.5t-6 -2.5h-44q-4 0 -4.5 2t-1.5 8q2 28 2.5 66t0.5 80q1 6 -1.5 7.5t-8.5 1.5
h-274q-5 0 -8 -2t-6 -8q-16 -41 -32 -79t-27 -66q-2 -6 -3.5 -8t-5.5 -2h-44zM155 212h248q4 0 7 3.5t4 12.5q-4 94 -9 188.5t-23 181.5q-1 6 -8 6h-21q-7 0 -12 -7q-26 -43 -60 -105.5t-68 -132.5t-64 -136q-1 -3 -1 -7t7 -4zM497 748q0 -1 -1 -2t-4 -1h-198q-3 0 -4 1
t-1 3l8 32q0 3 1.5 4t4.5 1h198q3 0 3.5 -0.5t0.5 -3.5z" />
    <glyph glyph-name="amacron" unicode="&#x101;" horiz-adv-x="483" 
d="M180 -6q-95 0 -130 57.5t-9 178.5q16 76 44.5 123.5t63 73.5t70.5 36t69 10q35 0 68.5 -12t47.5 -24l6 28q1 3 3 4t4 1h43q6 0 6 -6q-3 -18 -9 -49.5t-15 -72.5t-20 -89.5t-25 -102.5t-30 -110q-2 -6 -5.5 -11t-16.5 -9q-31 -11 -77 -18.5t-88 -7.5zM198 39q18 0 40 4
t40 8.5t24 5.5q6 2 12.5 6.5t9.5 15.5q7 25 15 58.5t16.5 70t16 71t13.5 60.5t7 37q2 6 -0.5 10.5t-10.5 8.5q-19 10 -44 19t-58 9q-21 0 -47 -7t-52 -26t-47.5 -58t-35.5 -102q-22 -106 3.5 -148.5t97.5 -42.5zM440 548q0 -1 -1 -2t-4 -1h-198q-3 0 -4 1t-1 3l8 32
q0 3 1.5 4t4.5 1h198q3 0 3.5 -0.5t0.5 -3.5z" />
    <glyph glyph-name="Abreve" unicode="&#x102;" horiz-adv-x="570" 
d="M6 0q-4 0 -4.5 2.5t2.5 9.5q16 48 44.5 115t63.5 142.5t73 150.5t74 139t66 106q4 4 7 6t6 2h79q4 -1 6.5 -2t3.5 -6q12 -41 20.5 -105.5t14 -140.5t9 -153t3.5 -143t-4 -110q0 -8 -1 -10.5t-6 -2.5h-44q-4 0 -4.5 2t-1.5 8q2 28 2.5 66t0.5 80q1 6 -1.5 7.5t-8.5 1.5
h-274q-5 0 -8 -2t-6 -8q-16 -41 -32 -79t-27 -66q-2 -6 -3.5 -8t-5.5 -2h-44zM155 212h248q4 0 7 3.5t4 12.5q-4 94 -9 188.5t-23 181.5q-1 6 -8 6h-21q-7 0 -12 -7q-26 -43 -60 -105.5t-68 -132.5t-64 -136q-1 -3 -1 -7t7 -4zM390 728q-45 0 -64.5 19t-12.5 60q1 4 2 5.5
t5 1.5h28q4 0 5 -1t0 -5q-3 -24 8 -34t36 -10t40.5 10t21.5 35q0 3 1.5 4t4.5 1h29q3 0 3.5 -1.5t-0.5 -5.5q-9 -38 -34.5 -58.5t-72.5 -20.5z" />
    <glyph glyph-name="abreve" unicode="&#x103;" horiz-adv-x="483" 
d="M180 -6q-95 0 -130 57.5t-9 178.5q16 76 44.5 123.5t63 73.5t70.5 36t69 10q35 0 68.5 -12t47.5 -24l6 28q1 3 3 4t4 1h43q6 0 6 -6q-3 -18 -9 -49.5t-15 -72.5t-20 -89.5t-25 -102.5t-30 -110q-2 -6 -5.5 -11t-16.5 -9q-31 -11 -77 -18.5t-88 -7.5zM198 39q18 0 40 4
t40 8.5t24 5.5q6 2 12.5 6.5t9.5 15.5q7 25 15 58.5t16.5 70t16 71t13.5 60.5t7 37q2 6 -0.5 10.5t-10.5 8.5q-19 10 -44 19t-58 9q-21 0 -47 -7t-52 -26t-47.5 -58t-35.5 -102q-22 -106 3.5 -148.5t97.5 -42.5zM333 528q-45 0 -64.5 19t-12.5 60q1 4 2 5.5t5 1.5h28
q4 0 5 -1t0 -5q-3 -24 8 -34t36 -10t40.5 10t21.5 35q0 3 1.5 4t4.5 1h29q3 0 3.5 -1.5t-0.5 -5.5q-9 -38 -34.5 -58.5t-72.5 -20.5z" />
    <glyph glyph-name="Aogonek" unicode="&#x104;" horiz-adv-x="570" 
d="M6 0q-4 0 -4.5 2.5t2.5 9.5q16 48 44.5 115t63.5 142.5t73 150.5t74 139t66 106q4 4 7 6t6 2h79q4 -1 6.5 -2t3.5 -6q12 -41 20.5 -105.5t14 -140.5t9 -153t3.5 -143t-4 -110q0 -8 -1 -10.5t-6 -2.5h-44q-4 0 -4.5 2t-1.5 8q2 28 2.5 66t0.5 80q1 6 -1.5 7.5t-8.5 1.5
h-274q-5 0 -8 -2t-6 -8q-16 -41 -32 -79t-27 -66q-2 -6 -3.5 -8t-5.5 -2h-44zM155 212h248q4 0 7 3.5t4 12.5q-4 94 -9 188.5t-23 181.5q-1 6 -8 6h-21q-7 0 -12 -7q-26 -43 -60 -105.5t-68 -132.5t-64 -136q-1 -3 -1 -7t7 -4zM352 -201q-32 0 -51.5 20t-12.5 51
q6 29 26.5 54.5t47 46.5t51.5 35q6 3 11.5 5t10.5 2h31q4 0 4.5 -3t-5.5 -7q-28 -16 -56 -37t-48.5 -44.5t-25.5 -48.5q-4 -19 5 -28t27 -9q19 0 39.5 10t33.5 20q4 4 6.5 3.5t1.5 -4.5l-5 -26q-1 -3 -3.5 -7t-8.5 -8q-14 -10 -33.5 -17.5t-45.5 -7.5z" />
    <glyph glyph-name="aogonek" unicode="&#x105;" horiz-adv-x="483" 
d="M180 -6q-95 0 -130 57.5t-9 178.5q16 76 44.5 123.5t63 73.5t70.5 36t69 10q35 0 68.5 -12t47.5 -24l6 28q1 3 3 4t4 1h43q6 0 6 -6q-3 -18 -9 -49.5t-15 -72.5t-20 -89.5t-25 -102.5t-30 -110q-2 -6 -5.5 -11t-16.5 -9q-31 -11 -77 -18.5t-88 -7.5zM198 39q18 0 40 4
t40 8.5t24 5.5q6 2 12.5 6.5t9.5 15.5q7 25 15 58.5t16.5 70t16 71t13.5 60.5t7 37q2 6 -0.5 10.5t-10.5 8.5q-19 10 -44 19t-58 9q-21 0 -47 -7t-52 -26t-47.5 -58t-35.5 -102q-22 -106 3.5 -148.5t97.5 -42.5zM237 -180q-32 0 -51.5 20t-12.5 51q6 29 26.5 54.5t47 46.5
t51.5 35q6 3 11.5 5t10.5 2h31q4 0 4.5 -3t-5.5 -7q-28 -16 -56 -37t-48.5 -44.5t-25.5 -48.5q-4 -19 5 -28t27 -9q19 0 39.5 10t33.5 20q4 4 6.5 3.5t1.5 -4.5l-5 -26q-1 -3 -3.5 -7t-8.5 -8q-14 -10 -33.5 -17.5t-45.5 -7.5z" />
    <glyph glyph-name="Cacute" unicode="&#x106;" horiz-adv-x="445" 
d="M362 17q-3 -10 -16 -15q-14 -4 -34 -6.5t-38 -3.5t-28 -1q-110 0 -159 86.5t-12 257.5q37 172 119.5 258.5t197.5 86.5q10 0 27.5 -1.5t36.5 -4t31 -6.5q6 -2 9 -5.5t2 -7.5l-9 -37q-2 -14 -11 -7q-11 8 -34 15t-55 7q-57 0 -99.5 -23.5t-72.5 -64.5t-49.5 -91.5
t-31.5 -104.5q-8 -36 -13 -78.5t-2 -83.5t17 -75t44 -54.5t80 -20.5q33 0 59 7t38 14q8 4 10 2t0 -8zM391 720h-33q-4 0 -4 2t2 5l61 71q3 3 5.5 4.5t6.5 1.5h47q3 0 4 -2t-2 -4l-77 -73q-3 -2 -5 -3.5t-5 -1.5z" />
    <glyph glyph-name="cacute" unicode="&#x107;" horiz-adv-x="395" 
d="M188 -5q-59 0 -94 18.5t-49.5 51.5t-14 77t11.5 95q11 48 29 91.5t47.5 78.5t71.5 55t101 20q41 0 68.5 -8.5t45.5 -25.5q3 -5 4 -7t-1 -8l-8 -34q-1 -6 -4.5 -6t-6.5 3q-14 19 -43.5 28.5t-61.5 9.5q-42 0 -74 -17.5t-54 -47t-36.5 -64t-22.5 -69.5q-12 -59 -7.5 -102.5
t31 -68t79.5 -24.5q33 0 60.5 6.5t51.5 16.5q10 5 11 -2l7 -26q1 -4 -1 -6t-5 -4q-26 -16 -61.5 -23.5t-74.5 -7.5zM270 530q-4 0 -3.5 2t2.5 5l66 87q3 5 12 5h44q3 0 3.5 -1.5t-3.5 -4.5l-80 -89q-2 -2 -4 -3t-6 -1h-31z" />
    <glyph glyph-name="Cdotaccent" unicode="&#x10a;" horiz-adv-x="445" 
d="M362 17q-3 -10 -16 -15q-14 -4 -34 -6.5t-38 -3.5t-28 -1q-110 0 -159 86.5t-12 257.5q37 172 119.5 258.5t197.5 86.5q10 0 27.5 -1.5t36.5 -4t31 -6.5q6 -2 9 -5.5t2 -7.5l-9 -37q-2 -14 -11 -7q-11 8 -34 15t-55 7q-57 0 -99.5 -23.5t-72.5 -64.5t-49.5 -91.5
t-31.5 -104.5q-8 -36 -13 -78.5t-2 -83.5t17 -75t44 -54.5t80 -20.5q33 0 59 7t38 14q8 4 10 2t0 -8zM445 777q-3 -17 -11 -25t-28 -8t-25 8t-1 25q3 15 11.5 23.5t28.5 8.5t24.5 -8.5t0.5 -23.5z" />
    <glyph glyph-name="cdotaccent" unicode="&#x10b;" horiz-adv-x="395" 
d="M188 -5q-59 0 -94 18.5t-49.5 51.5t-14 77t11.5 95q11 48 29 91.5t47.5 78.5t71.5 55t101 20q41 0 68.5 -8.5t45.5 -25.5q3 -5 4 -7t-1 -8l-8 -34q-1 -6 -4.5 -6t-6.5 3q-14 19 -43.5 28.5t-61.5 9.5q-42 0 -74 -17.5t-54 -47t-36.5 -64t-22.5 -69.5q-12 -59 -7.5 -102.5
t31 -68t79.5 -24.5q33 0 60.5 6.5t51.5 16.5q10 5 11 -2l7 -26q1 -4 -1 -6t-5 -4q-26 -16 -61.5 -23.5t-74.5 -7.5zM344 577q-3 -17 -11 -25t-28 -8t-25 8t-1 25q3 15 11.5 23.5t28.5 8.5t24.5 -8.5t0.5 -23.5z" />
    <glyph glyph-name="Ccaron" unicode="&#x10c;" horiz-adv-x="445" 
d="M362 17q-3 -10 -16 -15q-14 -4 -34 -6.5t-38 -3.5t-28 -1q-110 0 -159 86.5t-12 257.5q37 172 119.5 258.5t197.5 86.5q10 0 27.5 -1.5t36.5 -4t31 -6.5q6 -2 9 -5.5t2 -7.5l-9 -37q-2 -14 -11 -7q-11 8 -34 15t-55 7q-57 0 -99.5 -23.5t-72.5 -64.5t-49.5 -91.5
t-31.5 -104.5q-8 -36 -13 -78.5t-2 -83.5t17 -75t44 -54.5t80 -20.5q33 0 59 7t38 14q8 4 10 2t0 -8zM381 719q-4 0 -6 4l-49 75q-1 2 0.5 4.5t4.5 2.5h28q4 0 6 -4l39 -45q2 -5 7 0l60 45q3 4 8 4h28q3 0 3 -2.5t-2 -4.5l-81 -75q-1 -4 -7 -4h-39z" />
    <glyph glyph-name="ccaron" unicode="&#x10d;" horiz-adv-x="395" 
d="M188 -5q-59 0 -94 18.5t-49.5 51.5t-14 77t11.5 95q11 48 29 91.5t47.5 78.5t71.5 55t101 20q41 0 68.5 -8.5t45.5 -25.5q3 -5 4 -7t-1 -8l-8 -34q-1 -6 -4.5 -6t-6.5 3q-14 19 -43.5 28.5t-61.5 9.5q-42 0 -74 -17.5t-54 -47t-36.5 -64t-22.5 -69.5q-12 -59 -7.5 -102.5
t31 -68t79.5 -24.5q33 0 60.5 6.5t51.5 16.5q10 5 11 -2l7 -26q1 -4 -1 -6t-5 -4q-26 -16 -61.5 -23.5t-74.5 -7.5zM293 530q-5 0 -5 3l-31 88q-1 2 1 4t5 2h28q5 0 5 -3l25 -54q2 -5 7 0l69 54q4 3 8 3h30q3 0 2.5 -2t-2.5 -4l-96 -88q-3 -3 -8 -3h-38z" />
    <glyph glyph-name="Dcaron" unicode="&#x10e;" horiz-adv-x="577" 
d="M547 347q-19 -88 -48 -149t-63 -100t-69 -60.5t-67.5 -29.5t-57.5 -8h-202q-3 0 -4.5 1.5t-0.5 4.5l141 661q2 6 7 6h202q30 0 61 -6t57 -24t42.5 -54t18.5 -95t-17 -147zM491 347q16 77 16 127.5t-12 81t-31 46t-42 20t-44 4.5h-148q-4 0 -5.5 -1.5t-1.5 -4.5l-121 -568
q-1 -3 0 -4.5t4 -1.5h131q28 0 63 11.5t71.5 43t68 91t51.5 155.5zM360 719q-4 0 -6 4l-49 75q-1 2 0.5 4.5t4.5 2.5h28q4 0 6 -4l39 -45q2 -5 7 0l60 45q3 4 8 4h28q3 0 3 -2.5t-2 -4.5l-81 -75q-1 -4 -7 -4h-39z" />
    <glyph glyph-name="dcaron" unicode="&#x10f;" horiz-adv-x="490" 
d="M41 230q16 76 44 123.5t62.5 73.5t70.5 36t69 10q30 0 57 -4t44 -8q12 -4 16 -3.5t6 9.5q4 18 9 44.5t10.5 56.5t10.5 58t8 47t3 22q1 6 3.5 7.5t5.5 1.5h42q3 0 4.5 -1t1.5 -5q-8 -52 -17.5 -107.5t-20.5 -113t-23 -115t-25 -113.5t-26.5 -108.5t-27.5 -100.5
q-2 -6 -6.5 -11t-18.5 -11q-28 -11 -70 -19t-85 -8q-41 1 -75.5 11.5t-53.5 34.5q-23 28 -28 76.5t10 116.5zM97 230q-13 -66 -8 -105.5t26 -57.5q18 -20 51 -26.5t70 -2t66 16.5q7 3 11.5 6t5.5 8q8 26 17 62t18.5 75.5t17.5 76t14 64.5t8 40q2 10 -1.5 14.5t-8.5 6.5
q-25 6 -54 10.5t-51 4.5q-21 0 -47 -7t-52 -26t-47.5 -58t-35.5 -102zM563 550q-2 0 -2.5 1.5t-0.5 5.5l27 140q1 5 3 7t6 2h34q5 0 5.5 -2t-0.5 -5l-34 -143q-1 -3 -3 -4.5t-6 -1.5h-29z" />
    <glyph glyph-name="Dcroat" unicode="&#x110;" horiz-adv-x="554" 
d="M556 347q-19 -88 -48 -149t-63 -100t-69 -60.5t-67.5 -29.5t-57.5 -8h-202q-3 0 -4.5 1.5t-0.5 4.5l141 661q2 6 7 6h202q30 0 61 -6t57 -24t42.5 -54t18.5 -95t-17 -147zM500 347q16 77 16 127.5t-12 81t-31 46t-42 20t-44 4.5h-148q-4 0 -5.5 -1.5t-1.5 -4.5l-121 -568
q-1 -3 0 -4.5t4 -1.5h131q28 0 63 11.5t71.5 43t68 91t51.5 155.5zM27 298q-4 0 -4.5 2t0.5 4l7 33q0 4 1.5 5t4.5 1h261q4 0 4.5 -1t0.5 -5l-8 -33q0 -3 -1 -4.5t-5 -1.5h-261z" />
    <glyph glyph-name="dcroat" unicode="&#x111;" horiz-adv-x="458" 
d="M41 230q16 76 44 123.5t62.5 73.5t70.5 36t69 10q30 0 57 -4t44 -8q12 -4 16 -3.5t6 9.5q4 18 9 44.5t10.5 56.5t10.5 58t8 47t3 22q1 6 3.5 7.5t5.5 1.5h42q3 0 4.5 -1t1.5 -5q-8 -52 -17.5 -107.5t-20.5 -113t-23 -115t-25 -113.5t-26.5 -108.5t-27.5 -100.5
q-2 -6 -6.5 -11t-18.5 -11q-28 -11 -70 -19t-85 -8q-41 1 -75.5 11.5t-53.5 34.5q-23 28 -28 76.5t10 116.5zM97 230q-13 -66 -8 -105.5t26 -57.5q18 -20 51 -26.5t70 -2t66 16.5q7 3 11.5 6t5.5 8q8 26 17 62t18.5 75.5t17.5 76t14 64.5t8 40q2 10 -1.5 14.5t-8.5 6.5
q-25 6 -54 10.5t-51 4.5q-21 0 -47 -7t-52 -26t-47.5 -58t-35.5 -102zM262 579q-4 0 -4.5 2t0.5 4l7 33q0 4 1.5 5t4.5 1h261q4 0 4.5 -1t0.5 -5l-8 -33q0 -3 -1 -4.5t-5 -1.5h-261z" />
    <glyph glyph-name="Emacron" unicode="&#x112;" horiz-adv-x="444" 
d="M40 0q-3 0 -4.5 1.5t-0.5 4.5l141 661q0 6 7 6h311q4 0 4.5 -1t-0.5 -6l-6 -33q-2 -4 -3 -5.5t-5 -1.5h-254q-4 0 -5.5 -2t-2.5 -5l-53 -249q-1 -3 1 -5.5t5 -2.5h207q5 0 5.5 -1t-0.5 -6l-6 -32q-1 -4 -2.5 -5.5t-5.5 -1.5h-209q-4 0 -5.5 -1.5t-2.5 -5.5l-54 -254
q-1 -4 -0.5 -6.5t6.5 -2.5h252q5 0 5.5 -1t0.5 -6l-7 -31q-2 -5 -3.5 -6.5t-5.5 -1.5h-310zM460 748q0 -1 -1 -2t-4 -1h-198q-3 0 -4 1t-1 3l8 32q0 3 1.5 4t4.5 1h198q3 0 3.5 -0.5t0.5 -3.5z" />
    <glyph glyph-name="emacron" unicode="&#x113;" horiz-adv-x="458" 
d="M42 237q11 48 29 91.5t47.5 78.5t71.5 55t101 20q61 0 93 -18t44 -48.5t10.5 -67t-9.5 -73.5q-8 -36 -16.5 -44t-21.5 -8h-284q-2 0 -7 -2t-7 -11q-9 -50 -2 -88.5t34.5 -60.5t78.5 -22q36 0 78.5 8.5t72.5 24.5q5 3 11 4.5t8 -5.5l6 -21q2 -4 0 -6t-8 -5
q-37 -25 -85.5 -34.5t-98.5 -9.5q-60 0 -94.5 18.5t-49 51.5t-14 77t11.5 95zM374 284q6 29 7 56t-8.5 48.5t-31.5 34t-61 12.5t-68 -14.5t-50 -38.5t-34 -50.5t-19 -51.5q-3 -9 -2 -12.5t9 -3.5h117.5h118.5q10 0 14.5 3.5t7.5 16.5zM409 548q0 -1 -1 -2t-4 -1h-198
q-3 0 -4 1t-1 3l8 32q0 3 1.5 4t4.5 1h198q3 0 3.5 -0.5t0.5 -3.5z" />
    <glyph glyph-name="Edotaccent" unicode="&#x116;" horiz-adv-x="444" 
d="M40 0q-3 0 -4.5 1.5t-0.5 4.5l141 661q0 6 7 6h311q4 0 4.5 -1t-0.5 -6l-6 -33q-2 -4 -3 -5.5t-5 -1.5h-254q-4 0 -5.5 -2t-2.5 -5l-53 -249q-1 -3 1 -5.5t5 -2.5h207q5 0 5.5 -1t-0.5 -6l-6 -32q-1 -4 -2.5 -5.5t-5.5 -1.5h-209q-4 0 -5.5 -1.5t-2.5 -5.5l-54 -254
q-1 -4 -0.5 -6.5t6.5 -2.5h252q5 0 5.5 -1t0.5 -6l-7 -31q-2 -5 -3.5 -6.5t-5.5 -1.5h-310zM394 777q-3 -17 -11 -25t-28 -8t-25 8t-1 25q3 15 11.5 23.5t28.5 8.5t24.5 -8.5t0.5 -23.5z" />
    <glyph glyph-name="edotaccent" unicode="&#x117;" horiz-adv-x="458" 
d="M42 237q11 48 29 91.5t47.5 78.5t71.5 55t101 20q61 0 93 -18t44 -48.5t10.5 -67t-9.5 -73.5q-8 -36 -16.5 -44t-21.5 -8h-284q-2 0 -7 -2t-7 -11q-9 -50 -2 -88.5t34.5 -60.5t78.5 -22q36 0 78.5 8.5t72.5 24.5q5 3 11 4.5t8 -5.5l6 -21q2 -4 0 -6t-8 -5
q-37 -25 -85.5 -34.5t-98.5 -9.5q-60 0 -94.5 18.5t-49 51.5t-14 77t11.5 95zM374 284q6 29 7 56t-8.5 48.5t-31.5 34t-61 12.5t-68 -14.5t-50 -38.5t-34 -50.5t-19 -51.5q-3 -9 -2 -12.5t9 -3.5h117.5h118.5q10 0 14.5 3.5t7.5 16.5zM344 577q-3 -17 -11 -25t-28 -8t-25 8
t-1 25q3 15 11.5 23.5t28.5 8.5t24.5 -8.5t0.5 -23.5z" />
    <glyph glyph-name="Eogonek" unicode="&#x118;" horiz-adv-x="444" 
d="M40 0q-3 0 -4.5 1.5t-0.5 4.5l141 661q0 6 7 6h311q4 0 4.5 -1t-0.5 -6l-6 -33q-2 -4 -3 -5.5t-5 -1.5h-254q-4 0 -5.5 -2t-2.5 -5l-53 -249q-1 -3 1 -5.5t5 -2.5h207q5 0 5.5 -1t-0.5 -6l-6 -32q-1 -4 -2.5 -5.5t-5.5 -1.5h-209q-4 0 -5.5 -1.5t-2.5 -5.5l-54 -254
q-1 -4 -0.5 -6.5t6.5 -2.5h252q5 0 5.5 -1t0.5 -6l-7 -31q-2 -5 -3.5 -6.5t-5.5 -1.5h-310zM104 -201q-32 0 -51.5 20t-12.5 51q6 29 26.5 54.5t47 46.5t51.5 35q6 3 11.5 5t10.5 2h31q4 0 4.5 -3t-5.5 -7q-28 -16 -56 -37t-48.5 -44.5t-25.5 -48.5q-4 -19 5 -28t27 -9
q19 0 39.5 10t33.5 20q4 4 6.5 3.5t1.5 -4.5l-5 -26q-1 -3 -3.5 -7t-8.5 -8q-14 -10 -33.5 -17.5t-45.5 -7.5z" />
    <glyph glyph-name="eogonek" unicode="&#x119;" horiz-adv-x="458" 
d="M42 237q11 48 29 91.5t47.5 78.5t71.5 55t101 20q61 0 93 -18t44 -48.5t10.5 -67t-9.5 -73.5q-8 -36 -16.5 -44t-21.5 -8h-284q-2 0 -7 -2t-7 -11q-9 -50 -2 -88.5t34.5 -60.5t78.5 -22q36 0 78.5 8.5t72.5 24.5q5 3 11 4.5t8 -5.5l6 -21q2 -4 0 -6t-8 -5
q-37 -25 -85.5 -34.5t-98.5 -9.5q-60 0 -94.5 18.5t-49 51.5t-14 77t11.5 95zM374 284q6 29 7 56t-8.5 48.5t-31.5 34t-61 12.5t-68 -14.5t-50 -38.5t-34 -50.5t-19 -51.5q-3 -9 -2 -12.5t9 -3.5h117.5h118.5q10 0 14.5 3.5t7.5 16.5zM104 -201q-32 0 -51.5 20t-12.5 51
q6 29 26.5 54.5t47 46.5t51.5 35q6 3 11.5 5t10.5 2h31q4 0 4.5 -3t-5.5 -7q-28 -16 -56 -37t-48.5 -44.5t-25.5 -48.5q-4 -19 5 -28t27 -9q19 0 39.5 10t33.5 20q4 4 6.5 3.5t1.5 -4.5l-5 -26q-1 -3 -3.5 -7t-8.5 -8q-14 -10 -33.5 -17.5t-45.5 -7.5z" />
    <glyph glyph-name="Ecaron" unicode="&#x11a;" horiz-adv-x="444" 
d="M40 0q-3 0 -4.5 1.5t-0.5 4.5l141 661q0 6 7 6h311q4 0 4.5 -1t-0.5 -6l-6 -33q-2 -4 -3 -5.5t-5 -1.5h-254q-4 0 -5.5 -2t-2.5 -5l-53 -249q-1 -3 1 -5.5t5 -2.5h207q5 0 5.5 -1t-0.5 -6l-6 -32q-1 -4 -2.5 -5.5t-5.5 -1.5h-209q-4 0 -5.5 -1.5t-2.5 -5.5l-54 -254
q-1 -4 -0.5 -6.5t6.5 -2.5h252q5 0 5.5 -1t0.5 -6l-7 -31q-2 -5 -3.5 -6.5t-5.5 -1.5h-310zM330 719q-4 0 -6 4l-49 75q-1 2 0.5 4.5t4.5 2.5h28q4 0 6 -4l39 -45q2 -5 7 0l60 45q3 4 8 4h28q3 0 3 -2.5t-2 -4.5l-81 -75q-1 -4 -7 -4h-39z" />
    <glyph glyph-name="ecaron" unicode="&#x11b;" horiz-adv-x="458" 
d="M42 237q11 48 29 91.5t47.5 78.5t71.5 55t101 20q61 0 93 -18t44 -48.5t10.5 -67t-9.5 -73.5q-8 -36 -16.5 -44t-21.5 -8h-284q-2 0 -7 -2t-7 -11q-9 -50 -2 -88.5t34.5 -60.5t78.5 -22q36 0 78.5 8.5t72.5 24.5q5 3 11 4.5t8 -5.5l6 -21q2 -4 0 -6t-8 -5
q-37 -25 -85.5 -34.5t-98.5 -9.5q-60 0 -94.5 18.5t-49 51.5t-14 77t11.5 95zM374 284q6 29 7 56t-8.5 48.5t-31.5 34t-61 12.5t-68 -14.5t-50 -38.5t-34 -50.5t-19 -51.5q-3 -9 -2 -12.5t9 -3.5h117.5h118.5q10 0 14.5 3.5t7.5 16.5zM293 530q-5 0 -5 3l-31 88q-1 2 1 4
t5 2h28q5 0 5 -3l25 -54q2 -5 7 0l69 54q4 3 8 3h30q3 0 2.5 -2t-2.5 -4l-96 -88q-3 -3 -8 -3h-38z" />
    <glyph glyph-name="Gbreve" unicode="&#x11e;" horiz-adv-x="555" 
d="M444 21q-2 -11 -17.5 -17t-36.5 -8t-42 -2q-171 0 -245 83.5t-40 246.5q24 111 81.5 190t137.5 121.5t169 42.5q27 0 60 -2t53 -10q6 -2 8.5 -4.5t0.5 -8.5l-7 -33q-2 -8 -5 -10t-7 0q-22 14 -49 18t-57 4q-36 0 -83.5 -14.5t-96 -49t-87.5 -92t-57 -144.5
q-15 -72 -8.5 -123t29 -84t55 -51.5t69 -26.5t69.5 -8q44 0 55 11l55 257q2 7 -0.5 9t-7.5 2h-155q-3 0 -4 1.5t-1 4.5l7 34q1 3 3 5t5 2h210q8 0 10 -2.5t-1 -9.5zM459 716q-41 0 -58.5 19.5t-10.5 59.5q0 2 1.5 4t4.5 2h26q3 0 4 -1t1 -4q-4 -25 6.5 -35t32.5 -10
t37.5 10.5t20.5 35.5q1 2 2.5 3t3.5 1h26q2 0 3 -1t0 -5q-8 -38 -32.5 -58.5t-67.5 -20.5z" />
    <glyph glyph-name="gbreve" unicode="&#x11f;" horiz-adv-x="493" 
d="M43 242q15 66 44 119.5t79.5 85t129.5 31.5q39 0 76 -6t62 -18q12 -4 14.5 -13.5t0.5 -29.5q-7 -70 -25.5 -171t-57.5 -214q-28 -85 -85.5 -124t-144.5 -39q-35 0 -73 9t-65 33q-4 5 -4.5 7.5t1.5 5.5q2 4 5.5 8t7 8.5t5.5 7.5q4 4 7 4.5t6 -2.5q15 -9 34 -18t41 -14.5
t46 -5.5q32 0 62.5 11.5t56.5 36.5t42 66q0 2 1 3.5t1 3.5q2 7 -2.5 7.5t-13.5 -1.5q-23 -6 -52 -11.5t-56 -5.5q-64 0 -101 28t-47.5 78.5t5.5 119.5zM101 247q-11 -54 -7 -95.5t30.5 -65t80.5 -23.5q24 0 49 3.5t46 10.5q13 4 23 12t12 16q9 30 18 69t16.5 79.5t13 75.5
t8.5 59q1 8 0 17.5t-12 15.5q-12 6 -38 10t-54 4q-81 0 -124.5 -52t-61.5 -136zM322 528q-45 0 -64.5 19t-12.5 60q1 4 2 5.5t5 1.5h28q4 0 5 -1t0 -5q-3 -24 8 -34t36 -10t40.5 10t21.5 35q0 3 1.5 4t4.5 1h29q3 0 3.5 -1.5t-0.5 -5.5q-9 -38 -34.5 -58.5t-72.5 -20.5z" />
    <glyph glyph-name="Gdotaccent" unicode="&#x120;" horiz-adv-x="555" 
d="M444 21q-2 -11 -17.5 -17t-36.5 -8t-42 -2q-171 0 -245 83.5t-40 246.5q24 111 81.5 190t137.5 121.5t169 42.5q27 0 60 -2t53 -10q6 -2 8.5 -4.5t0.5 -8.5l-7 -33q-2 -8 -5 -10t-7 0q-22 14 -49 18t-57 4q-36 0 -83.5 -14.5t-96 -49t-87.5 -92t-57 -144.5
q-15 -72 -8.5 -123t29 -84t55 -51.5t69 -26.5t69.5 -8q44 0 55 11l55 257q2 7 -0.5 9t-7.5 2h-155q-3 0 -4 1.5t-1 4.5l7 34q1 3 3 5t5 2h210q8 0 10 -2.5t-1 -9.5zM503 777q-3 -17 -11 -25t-28 -8t-25 8t-1 25q3 15 11.5 23.5t28.5 8.5t24.5 -8.5t0.5 -23.5z" />
    <glyph glyph-name="gdotaccent" unicode="&#x121;" horiz-adv-x="493" 
d="M43 242q15 66 44 119.5t79.5 85t129.5 31.5q39 0 76 -6t62 -18q12 -4 14.5 -13.5t0.5 -29.5q-7 -70 -25.5 -171t-57.5 -214q-28 -85 -85.5 -124t-144.5 -39q-35 0 -73 9t-65 33q-4 5 -4.5 7.5t1.5 5.5q2 4 5.5 8t7 8.5t5.5 7.5q4 4 7 4.5t6 -2.5q15 -9 34 -18t41 -14.5
t46 -5.5q32 0 62.5 11.5t56.5 36.5t42 66q0 2 1 3.5t1 3.5q2 7 -2.5 7.5t-13.5 -1.5q-23 -6 -52 -11.5t-56 -5.5q-64 0 -101 28t-47.5 78.5t5.5 119.5zM101 247q-11 -54 -7 -95.5t30.5 -65t80.5 -23.5q24 0 49 3.5t46 10.5q13 4 23 12t12 16q9 30 18 69t16.5 79.5t13 75.5
t8.5 59q1 8 0 17.5t-12 15.5q-12 6 -38 10t-54 4q-81 0 -124.5 -52t-61.5 -136zM363 577q-3 -17 -11 -25t-28 -8t-25 8t-1 25q3 15 11.5 23.5t28.5 8.5t24.5 -8.5t0.5 -23.5z" />
    <glyph glyph-name="uni0122" unicode="&#x122;" horiz-adv-x="555" 
d="M444 21q-2 -11 -17.5 -17t-36.5 -8t-42 -2q-171 0 -245 83.5t-40 246.5q24 111 81.5 190t137.5 121.5t169 42.5q27 0 60 -2t53 -10q6 -2 8.5 -4.5t0.5 -8.5l-7 -33q-2 -8 -5 -10t-7 0q-22 14 -49 18t-57 4q-36 0 -83.5 -14.5t-96 -49t-87.5 -92t-57 -144.5
q-15 -72 -8.5 -123t29 -84t55 -51.5t69 -26.5t69.5 -8q44 0 55 11l55 257q2 7 -0.5 9t-7.5 2h-155q-3 0 -4 1.5t-1 4.5l7 34q1 3 3 5t5 2h210q8 0 10 -2.5t-1 -9.5zM342 -65q-3 -11 -13 -30t-23 -38.5t-26 -33.5q-3 -4 -5 -4h-11h-14q-1 1 -0.5 2t3.5 6q10 13 23 34.5
t20 37.5q-14 0 -18 7.5t-2 18.5q3 13 11.5 21t26.5 8q16 0 23.5 -6.5t4.5 -22.5z" />
    <glyph glyph-name="uni0123" unicode="&#x123;" horiz-adv-x="493" 
d="M43 242q15 66 44 119.5t79.5 85t129.5 31.5q39 0 76 -6t62 -18q12 -4 14.5 -13.5t0.5 -29.5q-7 -70 -25.5 -171t-57.5 -214q-28 -85 -85.5 -124t-144.5 -39q-35 0 -73 9t-65 33q-4 5 -4.5 7.5t1.5 5.5q2 4 5.5 8t7 8.5t5.5 7.5q4 4 7 4.5t6 -2.5q15 -9 34 -18t41 -14.5
t46 -5.5q32 0 62.5 11.5t56.5 36.5t42 66q0 2 1 3.5t1 3.5q2 7 -2.5 7.5t-13.5 -1.5q-23 -6 -52 -11.5t-56 -5.5q-64 0 -101 28t-47.5 78.5t5.5 119.5zM101 247q-11 -54 -7 -95.5t30.5 -65t80.5 -23.5q24 0 49 3.5t46 10.5q13 4 23 12t12 16q9 30 18 69t16.5 79.5t13 75.5
t8.5 59q1 8 0 17.5t-12 15.5q-12 6 -38 10t-54 4q-81 0 -124.5 -52t-61.5 -136zM300 581q2 15 11.5 37.5t22.5 45.5t25 38q1 3 4 5q4 0 12 0.5t14 0.5q1 -1 0 -3t-4 -6q-5 -8 -13 -24.5t-15.5 -33t-12.5 -29.5q16 2 20 -6t2 -21q-2 -14 -10 -22t-26 -9q-17 -1 -25 5t-5 22z
" />
    <glyph glyph-name="Hbar" unicode="&#x126;" horiz-adv-x="662" 
d="M50 546q-5 0 -5.5 1.5t-0.5 3.5l10 26q0 3 1.5 4.5t6.5 1.5h572q4 0 5.5 -1.5t0.5 -3.5l-9 -28l-2.5 -2.5t-6.5 -1.5h-572zM26 0q-2 0 -4.5 1t-1.5 5q3 34 11 86.5t19.5 115.5t25.5 129t29.5 129t30 115t26.5 85q1 3 3.5 4.5t4.5 1.5h22.5h21.5q7 0 4 -6
q-19 -64 -35.5 -125t-27 -106t-14.5 -63q-1 -6 0 -8t5 -2h161h160q3 0 6.5 1.5t4.5 8.5q2 14 10.5 57.5t18.5 105.5t19 132q2 2 3 3.5t3 1.5h22h22q2 0 4.5 -1.5t1.5 -4.5q-2 -33 -10 -85t-19 -115.5t-25 -128.5q-14 -66 -29.5 -129t-29.5 -115.5t-26 -86.5q-1 -4 -3.5 -5
t-5.5 -1h-22h-23q-4 0 -2 6q15 43 27.5 89.5t23 88.5t17 75t9.5 48q1 5 -1 7t-5 2h-160.5h-160.5q-4 0 -7 -2t-4 -7q-4 -18 -11 -50.5t-14.5 -74.5t-14.5 -87.5t-10 -88.5q-1 -6 -5 -6h-22h-23z" />
    <glyph glyph-name="hbar" unicode="&#x127;" horiz-adv-x="470" 
d="M34 6q37 174 74.5 348t74.5 348q0 6 6 6h22h22q6 0 5 -6q-13 -59 -25.5 -118t-25.5 -118q-1 -6 1 -8.5t10 -0.5q26 7 56.5 13.5t60.5 6.5q35 0 64 -11t47 -38t21.5 -74.5t-11.5 -119.5q-8 -38 -18 -78.5t-21 -79t-21 -70.5q-1 -4 -3.5 -5t-8.5 -1h-17.5h-16.5
q-7 0 -8.5 2t1.5 9q15 48 29 103.5t26 107.5q13 63 11.5 103.5t-14.5 63.5t-33.5 32t-44.5 9q-21 0 -49.5 -4.5t-53.5 -11.5q-7 -1 -13.5 -6t-9.5 -18l-81 -384q-1 -6 -7 -6h-44q-6 0 -5 6zM99 577q-4 0 -4.5 2t0.5 4l7 33q0 4 1.5 5t4.5 1h261q4 0 4.5 -1t0.5 -5l-8 -33
q0 -3 -1 -4.5t-5 -1.5h-261z" />
    <glyph glyph-name="Itilde" unicode="&#x128;" horiz-adv-x="225" 
d="M92 6q-2 -6 -8 -6h-44q-6 0 -5 6l141 661q0 6 7 6h44q3 0 4 -1.5t1 -4.5zM130 721q-6 0 -4 5q6 27 25 45t42 18q14 0 26 -9.5t23.5 -19t20.5 -9.5q6 0 12.5 8t9.5 19q1 6 5 6h26q5 0 4 -6q-5 -23 -23.5 -42.5t-42.5 -19.5q-16 0 -28.5 9.5t-22 19t-18.5 9.5t-16 -8.5
t-9 -19.5q0 -5 -5 -5h-25z" />
    <glyph glyph-name="itilde" unicode="&#x129;" horiz-adv-x="198" 
d="M79 6q-2 -6 -7 -6h-44q-6 0 -5 6l98 460q1 6 7 6h44q2 0 3.5 -1.5t0.5 -4.5zM72 535q-6 0 -4 5q6 27 25 44t44 17q15 0 27.5 -8.5t24.5 -17.5t21 -9q7 0 14 7t9 17q1 3 2.5 4.5t2.5 1.5h28q6 0 4 -6q-5 -23 -24.5 -41.5t-43.5 -18.5q-16 0 -29.5 9t-24 18t-19.5 9
q-8 0 -15.5 -7.5t-9.5 -18.5q-1 -5 -5 -5h-27z" />
    <glyph glyph-name="Imacron" unicode="&#x12a;" horiz-adv-x="225" 
d="M92 6q-2 -6 -8 -6h-44q-6 0 -5 6l141 661q0 6 7 6h44q3 0 4 -1.5t1 -4.5zM326 748q0 -1 -1 -2t-4 -1h-198q-3 0 -4 1t-1 3l8 32q0 3 1.5 4t4.5 1h198q3 0 3.5 -0.5t0.5 -3.5z" />
    <glyph glyph-name="imacron" unicode="&#x12b;" horiz-adv-x="198" 
d="M79 6q-2 -6 -7 -6h-44q-6 0 -5 6l98 460q1 6 7 6h44q2 0 3.5 -1.5t0.5 -4.5zM269 548q0 -1 -1 -2t-4 -1h-198q-3 0 -4 1t-1 3l8 32q0 3 1.5 4t4.5 1h198q3 0 3.5 -0.5t0.5 -3.5z" />
    <glyph glyph-name="Iogonek" unicode="&#x12e;" horiz-adv-x="225" 
d="M92 6q-2 -6 -8 -6h-44q-6 0 -5 6l141 661q0 6 7 6h44q3 0 4 -1.5t1 -4.5zM-17 -201q-32 0 -51.5 20t-12.5 51q6 29 26.5 54.5t47 46.5t51.5 35q6 3 11.5 5t10.5 2h31q4 0 4.5 -3t-5.5 -7q-28 -16 -56 -37t-48.5 -44.5t-25.5 -48.5q-4 -19 5 -28t27 -9q19 0 39.5 10
t33.5 20q4 4 6.5 3.5t1.5 -4.5l-5 -26q-1 -3 -3.5 -7t-8.5 -8q-14 -10 -33.5 -17.5t-45.5 -7.5z" />
    <glyph glyph-name="iogonek" unicode="&#x12f;" horiz-adv-x="198" 
d="M79 6q-2 -6 -7 -6h-44q-6 0 -5 6l98 460q1 6 7 6h44q2 0 3.5 -1.5t0.5 -4.5zM204 577q-3 -17 -11 -25t-28 -8t-25 8t-1 25q3 15 11.5 23.5t28.5 8.5t24.5 -8.5t0.5 -23.5zM-41 -201q-32 0 -51.5 20t-12.5 51q6 29 26.5 54.5t47 46.5t51.5 35q6 3 11.5 5t10.5 2h31
q4 0 4.5 -3t-5.5 -7q-28 -16 -56 -37t-48.5 -44.5t-25.5 -48.5q-4 -19 5 -28t27 -9q19 0 39.5 10t33.5 20q4 4 6.5 3.5t1.5 -4.5l-5 -26q-1 -3 -3.5 -7t-8.5 -8q-14 -10 -33.5 -17.5t-45.5 -7.5z" />
    <glyph glyph-name="Idotaccent" unicode="&#x130;" horiz-adv-x="225" 
d="M92 6q-2 -6 -8 -6h-44q-6 0 -5 6l141 661q0 6 7 6h44q3 0 4 -1.5t1 -4.5zM260 777q-3 -17 -11 -25t-28 -8t-25 8t-1 25q3 15 11.5 23.5t28.5 8.5t24.5 -8.5t0.5 -23.5z" />
    <glyph glyph-name="dotlessi" unicode="&#x131;" horiz-adv-x="198" 
d="M79 6q-2 -6 -7 -6h-44q-6 0 -5 6l98 460q1 6 7 6h44q2 0 3.5 -1.5t0.5 -4.5z" />
    <glyph glyph-name="uni0136" unicode="&#x136;" horiz-adv-x="521" 
d="M38 0q-4 0 -3 4q35 167 70.5 333t70.5 332q2 4 5 4h9.5h15h15h9.5q5 0 3 -4q-8 -38 -16 -74.5t-15.5 -72t-15.5 -72.5t-16 -75v-5.5t5 -2.5h88q7 0 11 3t8 7q28 38 54.5 74t52 71t51.5 71t54 74l4.5 4.5t3.5 1.5h10h14.5h14.5h10q4 0 4 -3t-4 -8q-38 -52 -75.5 -102.5
t-74 -101t-74.5 -103.5q-6 -9 -8 -15t-3 -11q-4 -28 -0.5 -61.5t13 -67t23 -62.5t29.5 -47q18 -19 40 -30t49 -11q2 0 5 -1t2 -3l-8 -41q-1 -5 -4 -5q-43 0 -74.5 12t-54.5 36q-18 19 -33 48.5t-25.5 64.5t-15.5 70t-3 64q0 8 -3 10t-6 2h-44h-44l-3 -1t-5 -6
q-8 -39 -16 -75.5t-15.5 -72.5t-15 -72.5t-15.5 -75.5q-1 -4 -5 -4h-9.5h-15h-15h-9.5zM226 -65q-3 -11 -13 -30t-23 -38.5t-26 -33.5q-3 -4 -5 -4h-11h-14q-1 1 -0.5 2t3.5 6q10 13 23 34.5t20 37.5q-14 0 -18 7.5t-2 18.5q3 13 11.5 21t26.5 8q16 0 23.5 -6.5t4.5 -22.5z
" />
    <glyph glyph-name="uni0137" unicode="&#x137;" horiz-adv-x="430" 
d="M23 4l148 694q1 4 4 4h47q5 0 4 -4l-87 -409q-1 -2 -0.5 -4.5t3.5 -2.5q17 0 33 0.5t31 0.5q10 2 15 4t14 10q26 24 50 53t45 59t36 55q3 6 5.5 7t8.5 1h44q4 0 4.5 -2t-1.5 -6q0 -1 -12.5 -19.5t-33.5 -47.5t-47 -61t-53 -59q-5 -4 -8.5 -7.5l-7.5 -7.5l3 -3t3 -4
q13 -18 25 -47.5t22 -63.5t17.5 -64t12 -50t5.5 -22q2 -8 -5 -8h-10h-15h-14.5h-9.5q-4 0 -5 0.5t-3 6.5l-5 24t-14.5 59.5t-21.5 70.5t-26 57q-4 8 -12 12.5t-25 6.5t-53 1q-6 -1 -8 -9l-47 -225q-1 -4 -5 -4h-48q-4 0 -3 4zM207 -65q-3 -11 -13 -30t-23 -38.5t-26 -33.5
q-3 -4 -5 -4h-11h-14q-1 1 -0.5 2t3.5 6q10 13 23 34.5t20 37.5q-14 0 -18 7.5t-2 18.5q3 13 11.5 21t26.5 8q16 0 23.5 -6.5t4.5 -22.5z" />
    <glyph glyph-name="Lacute" unicode="&#x139;" horiz-adv-x="421" 
d="M40 0q-6 0 -5 6l141 661q0 6 7 6h43q4 0 5 -1.5t1 -5.5l-130 -611q-1 -4 -0.5 -6.5t6.5 -2.5h251q5 0 6 -1t0 -6l-7 -31q-1 -5 -2.5 -6.5t-6.5 -1.5h-309zM206 720h-33q-4 0 -4 2t2 5l61 71q3 3 5.5 4.5t6.5 1.5h47q3 0 4 -2t-2 -4l-77 -73q-3 -2 -5 -3.5t-5 -1.5z" />
    <glyph glyph-name="lacute" unicode="&#x13a;" horiz-adv-x="199" 
d="M23 6l149 696q0 6 6 6h43q7 0 6 -6l-148 -696q-1 -6 -8 -6h-43q-6 0 -5 6zM199 752h-33q-4 0 -4 2t2 5l61 71q3 3 5.5 4.5t6.5 1.5h47q3 0 4 -2t-2 -4l-77 -73q-3 -2 -5 -3.5t-5 -1.5z" />
    <glyph glyph-name="uni013B" unicode="&#x13b;" horiz-adv-x="421" 
d="M40 0q-6 0 -5 6l141 661q0 6 7 6h43q4 0 5 -1.5t1 -5.5l-130 -611q-1 -4 -0.5 -6.5t6.5 -2.5h251q5 0 6 -1t0 -6l-7 -31q-1 -5 -2.5 -6.5t-6.5 -1.5h-309zM213 -65q-3 -11 -13 -30t-23 -38.5t-26 -33.5q-3 -4 -5 -4h-11h-14q-1 1 -0.5 2t3.5 6q10 13 23 34.5t20 37.5
q-14 0 -18 7.5t-2 18.5q3 13 11.5 21t26.5 8q16 0 23.5 -6.5t4.5 -22.5z" />
    <glyph glyph-name="uni013C" unicode="&#x13c;" horiz-adv-x="199" 
d="M23 6l149 696q0 6 6 6h43q7 0 6 -6l-148 -696q-1 -6 -8 -6h-43q-6 0 -5 6zM65 -65q-3 -11 -13 -30t-23 -38.5t-26 -33.5q-3 -4 -5 -4h-11h-14q-1 1 -0.5 2t3.5 6q10 13 23 34.5t20 37.5q-14 0 -18 7.5t-2 18.5q3 13 11.5 21t26.5 8q16 0 23.5 -6.5t4.5 -22.5z" />
    <glyph glyph-name="Lcaron" unicode="&#x13d;" horiz-adv-x="421" 
d="M40 0q-6 0 -5 6l141 661q0 6 7 6h43q4 0 5 -1.5t1 -5.5l-130 -611q-1 -4 -0.5 -6.5t6.5 -2.5h251q5 0 6 -1t0 -6l-7 -31q-1 -5 -2.5 -6.5t-6.5 -1.5h-309zM333 518q-2 0 -2.5 1.5t-0.5 5.5l27 140q1 5 3 7t6 2h34q5 0 5.5 -2t-0.5 -5l-34 -143q-1 -3 -3 -4.5t-6 -1.5h-29
z" />
    <glyph glyph-name="lcaron" unicode="&#x13e;" horiz-adv-x="211" 
d="M23 6l149 696q0 6 6 6h43q7 0 6 -6l-148 -696q-1 -6 -8 -6h-43q-6 0 -5 6zM275 554q-2 0 -2.5 1.5t-0.5 5.5l27 140q1 5 3 7t6 2h34q5 0 5.5 -2t-0.5 -5l-34 -143q-1 -3 -3 -4.5t-6 -1.5h-29z" />
    <glyph glyph-name="Lslash" unicode="&#x141;" horiz-adv-x="452" 
d="M52 0q-6 0 -4 6l140 661q2 6 7 6h44q4 0 5 -1.5t0 -5.5l-129 -611q-1 -4 -0.5 -6.5t5.5 -2.5h251q5 0 6 -1t1 -6l-7 -31q-2 -5 -3.5 -6.5t-6.5 -1.5h-309zM-2 125q-2 -1 -3.5 -0.5l-1.5 0.5l-9 24q-1 1 3 4l262 143q2 1 4 -1l9 -23q3 -2 -2 -4z" />
    <glyph glyph-name="lslash" unicode="&#x142;" horiz-adv-x="283" 
d="M66 6l148 696q0 6 6 6h44q6 0 6 -6l-149 -696q-1 -6 -7 -6h-44q-6 0 -4 6zM11 110q-3 -1 -4 -0.5l-1 0.5l-9 24q-2 2 2 4l256 139q2 1 4 -1l9 -24q2 -2 -2 -4z" />
    <glyph glyph-name="Nacute" unicode="&#x143;" horiz-adv-x="640" 
d="M462 124q2 -4 6 -3.5t6 6.5q11 36 24.5 89t27 113.5t25.5 122.5t20.5 117t11.5 96q2 8 6 8h45q3 0 4.5 -1.5t1.5 -4.5q-3 -35 -11 -88t-20.5 -116t-27 -130t-29.5 -129t-29 -114t-25 -84q-1 -4 -4 -5t-6 -1h-32q-5 0 -6 7l-229 544q-1 4 -4.5 4t-4.5 -5
q-12 -42 -26.5 -97.5t-28.5 -117.5t-26 -123t-20.5 -114t-10.5 -90q-1 -8 -7 -8h-43q-3 0 -5.5 1t-1.5 5q3 34 11.5 86.5t20.5 115t26 129.5t29 130t29.5 115t26.5 85q1 3 3.5 4.5t4.5 1.5h33q4 0 6 -6zM410 720h-33q-4 0 -4 2t2 5l61 71q3 3 5.5 4.5t6.5 1.5h47q3 0 4 -2
t-2 -4l-77 -73q-3 -2 -5 -3.5t-5 -1.5z" />
    <glyph glyph-name="nacute" unicode="&#x144;" horiz-adv-x="490" 
d="M29 0q-3 0 -5 1.5t-1 4.5q23 107 46 213.5t45 212.5q2 6 6 10t17 8q14 4 40.5 10t57 11t55.5 5q57 0 90 -17t47 -48t14 -71.5t-10 -87.5t-22 -95t-22.5 -87t-17.5 -60q-2 -7 -4.5 -8.5t-9.5 -1.5h-37q-7 0 -5 8q2 6 7 24.5t12 45.5t15 58.5t15.5 62.5t13.5 56
q12 54 6.5 92.5t-30 59t-72.5 20.5q-26 1 -51.5 -4t-46.5 -13q-6 -1 -13 -6t-9 -16q-20 -94 -40.5 -189.5t-40.5 -191.5q-1 -3 -2.5 -5t-4.5 -2h-43zM276 530q-4 0 -3.5 2t2.5 5l66 87q3 5 12 5h44q3 0 3.5 -1.5t-3.5 -4.5l-80 -89q-2 -2 -4 -3t-6 -1h-31z" />
    <glyph glyph-name="uni0145" unicode="&#x145;" horiz-adv-x="640" 
d="M462 124q2 -4 6 -3.5t6 6.5q11 36 24.5 89t27 113.5t25.5 122.5t20.5 117t11.5 96q2 8 6 8h45q3 0 4.5 -1.5t1.5 -4.5q-3 -35 -11 -88t-20.5 -116t-27 -130t-29.5 -129t-29 -114t-25 -84q-1 -4 -4 -5t-6 -1h-32q-5 0 -6 7l-229 544q-1 4 -4.5 4t-4.5 -5
q-12 -42 -26.5 -97.5t-28.5 -117.5t-26 -123t-20.5 -114t-10.5 -90q-1 -8 -7 -8h-43q-3 0 -5.5 1t-1.5 5q3 34 11.5 86.5t20.5 115t26 129.5t29 130t29.5 115t26.5 85q1 3 3.5 4.5t4.5 1.5h33q4 0 6 -6zM290 -65q-3 -11 -13 -30t-23 -38.5t-26 -33.5q-3 -4 -5 -4h-11h-14
q-1 1 -0.5 2t3.5 6q10 13 23 34.5t20 37.5q-14 0 -18 7.5t-2 18.5q3 13 11.5 21t26.5 8q16 0 23.5 -6.5t4.5 -22.5z" />
    <glyph glyph-name="uni0146" unicode="&#x146;" horiz-adv-x="490" 
d="M29 0q-3 0 -5 1.5t-1 4.5q23 107 46 213.5t45 212.5q2 6 6 10t17 8q14 4 40.5 10t57 11t55.5 5q57 0 90 -17t47 -48t14 -71.5t-10 -87.5t-22 -95t-22.5 -87t-17.5 -60q-2 -7 -4.5 -8.5t-9.5 -1.5h-37q-7 0 -5 8q2 6 7 24.5t12 45.5t15 58.5t15.5 62.5t13.5 56
q12 54 6.5 92.5t-30 59t-72.5 20.5q-26 1 -51.5 -4t-46.5 -13q-6 -1 -13 -6t-9 -16q-20 -94 -40.5 -189.5t-40.5 -191.5q-1 -3 -2.5 -5t-4.5 -2h-43zM211 -65q-3 -11 -13 -30t-23 -38.5t-26 -33.5q-3 -4 -5 -4h-11h-14q-1 1 -0.5 2t3.5 6q10 13 23 34.5t20 37.5
q-14 0 -18 7.5t-2 18.5q3 13 11.5 21t26.5 8q16 0 23.5 -6.5t4.5 -22.5z" />
    <glyph glyph-name="Ncaron" unicode="&#x147;" horiz-adv-x="640" 
d="M462 124q2 -4 6 -3.5t6 6.5q11 36 24.5 89t27 113.5t25.5 122.5t20.5 117t11.5 96q2 8 6 8h45q3 0 4.5 -1.5t1.5 -4.5q-3 -35 -11 -88t-20.5 -116t-27 -130t-29.5 -129t-29 -114t-25 -84q-1 -4 -4 -5t-6 -1h-32q-5 0 -6 7l-229 544q-1 4 -4.5 4t-4.5 -5
q-12 -42 -26.5 -97.5t-28.5 -117.5t-26 -123t-20.5 -114t-10.5 -90q-1 -8 -7 -8h-43q-3 0 -5.5 1t-1.5 5q3 34 11.5 86.5t20.5 115t26 129.5t29 130t29.5 115t26.5 85q1 3 3.5 4.5t4.5 1.5h33q4 0 6 -6zM400 719q-4 0 -6 4l-49 75q-1 2 0.5 4.5t4.5 2.5h28q4 0 6 -4l39 -45
q2 -5 7 0l60 45q3 4 8 4h28q3 0 3 -2.5t-2 -4.5l-81 -75q-1 -4 -7 -4h-39z" />
    <glyph glyph-name="ncaron" unicode="&#x148;" horiz-adv-x="490" 
d="M29 0q-3 0 -5 1.5t-1 4.5q23 107 46 213.5t45 212.5q2 6 6 10t17 8q14 4 40.5 10t57 11t55.5 5q57 0 90 -17t47 -48t14 -71.5t-10 -87.5t-22 -95t-22.5 -87t-17.5 -60q-2 -7 -4.5 -8.5t-9.5 -1.5h-37q-7 0 -5 8q2 6 7 24.5t12 45.5t15 58.5t15.5 62.5t13.5 56
q12 54 6.5 92.5t-30 59t-72.5 20.5q-26 1 -51.5 -4t-46.5 -13q-6 -1 -13 -6t-9 -16q-20 -94 -40.5 -189.5t-40.5 -191.5q-1 -3 -2.5 -5t-4.5 -2h-43zM299 530q-5 0 -5 3l-31 88q-1 2 1 4t5 2h28q5 0 5 -3l25 -54q2 -5 7 0l69 54q4 3 8 3h30q3 0 2.5 -2t-2.5 -4l-96 -88
q-3 -3 -8 -3h-38z" />
    <glyph glyph-name="Eng" unicode="&#x14a;" horiz-adv-x="591" 
d="M615 667q-4 -49 -15.5 -118t-27.5 -149.5t-36 -162t-40 -156.5t-38 -132q-21 -67 -45 -109t-58 -61.5t-86 -19.5q-20 0 -39.5 3t-33.5 8q-5 3 -11.5 8t-0.5 12l16 20q3 4 6 5t6 -2q10 -8 26.5 -10t31.5 -2q48 1 76.5 33t43.5 84l30 99l-224 534q-1 4 -4.5 4t-4.5 -5
q-12 -42 -26.5 -97.5t-28 -117.5t-26 -123t-20.5 -114t-11 -90q-1 -8 -7 -8h-43q-3 0 -5.5 1t-1.5 5q3 34 11.5 86.5t20.5 115t26 129.5t29 130t29.5 115t26.5 85q1 3 3.5 4.5t4.5 1.5h33q4 0 6 -6l230 -543q1 -4 5.5 -3.5t5.5 6.5q11 36 24.5 89t27 113.5t25.5 122.5
t20.5 117t11.5 96q2 8 6 8h45q7 0 6 -6z" />
    <glyph glyph-name="eng" unicode="&#x14b;" horiz-adv-x="499" 
d="M30 0q-3 0 -5 1.5t-1 4.5q22 107 45 213.5t45 212.5q2 6 6 10t17 8q15 4 41.5 10t57 11t55.5 5q57 0 90 -17t47 -48t13.5 -71.5t-10.5 -87.5q-15 -72 -30 -129t-32 -112q-2 -6 -4 -8.5t-9 -2.5h-16.5h-16.5q-7 0 -8.5 1.5t-0.5 8.5q2 5 7 23.5t12 45.5t15 58t15 62t13 56
q9 39 8.5 70t-11 53t-31.5 34q-20 14 -49 15.5t-59 -4t-53 -14.5q-5 -1 -12 -7.5t-10 -20.5q-19 -89 -39 -183.5t-41 -190.5q0 -3 -1.5 -5t-4.5 -2h-21.5h-21.5zM390 85l-26 -92q-20 -76 -59.5 -118t-117.5 -42q-19 0 -38.5 3t-33.5 9q-5 3 -11.5 7.5t-0.5 12.5l16 20
q3 4 5.5 4.5t6.5 -1.5q12 -7 27.5 -9.5t29.5 -2.5q53 0 79.5 30t41.5 87l27 92h54z" />
    <glyph glyph-name="Omacron" unicode="&#x14c;" horiz-adv-x="625" 
d="M75 335q24 111 62.5 187.5t102.5 115t165 38.5q79 0 125 -22t65 -65t17 -107t-20 -147q-23 -112 -60.5 -187.5t-102 -114.5t-169.5 -39q-101 0 -149 39t-53.5 114.5t17.5 187.5zM133 335q-23 -114 -16 -177t45.5 -88t107.5 -25q68 0 118 25t86 87.5t60 177.5
q24 114 15.5 178t-48 89.5t-108.5 25.5q-68 0 -117.5 -26t-83.5 -89.5t-59 -177.5zM525 748q0 -1 -1 -2t-4 -1h-198q-3 0 -4 1t-1 3l8 32q0 3 1.5 4t4.5 1h198q3 0 3.5 -0.5t0.5 -3.5z" />
    <glyph glyph-name="omacron" unicode="&#x14d;" horiz-adv-x="490" 
d="M194 -6q-61 0 -96.5 18t-51.5 50.5t-15.5 76.5t11.5 98q15 70 45.5 124.5t81.5 85.5t127 31q77 0 114.5 -31t45 -85.5t-7.5 -124.5q-15 -71 -44 -126t-79 -86t-131 -31zM203 40q82 0 125.5 51.5t63.5 144.5t-5 143.5t-101 50.5t-122 -50.5t-66 -143.5q-20 -94 2 -145
t103 -51zM415 548q0 -1 -1 -2t-4 -1h-198q-3 0 -4 1t-1 3l8 32q0 3 1.5 4t4.5 1h198q3 0 3.5 -0.5t0.5 -3.5z" />
    <glyph glyph-name="Ohungarumlaut" unicode="&#x150;" horiz-adv-x="625" 
d="M75 335q24 111 62.5 187.5t102.5 115t165 38.5q79 0 125 -22t65 -65t17 -107t-20 -147q-23 -112 -60.5 -187.5t-102 -114.5t-169.5 -39q-101 0 -149 39t-53.5 114.5t17.5 187.5zM133 335q-23 -114 -16 -177t45.5 -88t107.5 -25q68 0 118 25t86 87.5t60 177.5
q24 114 15.5 178t-48 89.5t-108.5 25.5q-68 0 -117.5 -26t-83.5 -89.5t-59 -177.5zM396 719l-4 -2t-6 -1h-26q-7 0 -3 6l58 87q3 5 11 5h42q3 0 3.5 -2t-1.5 -4zM476 719l-4 -2t-6 -1h-26q-4 0 -4.5 2t1.5 4l66 87q3 3 5.5 4t5.5 1h42q3 0 3.5 -2t-2.5 -4z" />
    <glyph glyph-name="ohungarumlaut" unicode="&#x151;" horiz-adv-x="490" 
d="M194 -6q-61 0 -96.5 18t-51.5 50.5t-15.5 76.5t11.5 98q15 70 45.5 124.5t81.5 85.5t127 31q77 0 114.5 -31t45 -85.5t-7.5 -124.5q-15 -71 -44 -126t-79 -86t-131 -31zM203 40q82 0 125.5 51.5t63.5 144.5t-5 143.5t-101 50.5t-122 -50.5t-66 -143.5q-20 -94 2 -145
t103 -51zM287 534q-1 -1 -3.5 -2.5t-6.5 -1.5h-23q-4 0 -3.5 2t1.5 5l54 100q3 3 6 3.5t7 0.5h37q3 0 3.5 -1.5t-2.5 -4.5zM366 534q-1 -1 -3.5 -2.5t-6.5 -1.5h-23q-4 0 -3.5 2t1.5 5l62 100q4 4 12 4h38q3 0 3.5 -1.5t-2.5 -4.5z" />
    <glyph glyph-name="OE" unicode="&#x152;" horiz-adv-x="849" 
d="M260 -7q-101 0 -149 39t-53.5 115t17.5 187q24 111 62.5 187.5t102.5 115.5t165 39q62 0 102.5 -14.5t63.5 -42.5q2 12 4.5 24t5.5 24q2 6 6 6h156h155q5 0 5.5 -1t-0.5 -6q-2 -8 -3.5 -16.5t-3.5 -16.5q-1 -4 -2 -5.5t-5 -1.5h-127h-127q-4 0 -5.5 -2t-2.5 -5
q-13 -63 -26 -125t-27 -124q-1 -3 1 -5.5t5 -2.5h105h103q5 0 5 -1v-6l-4 -16t-3 -16q-1 -4 -2.5 -5.5t-5.5 -1.5h-104h-105q-4 0 -5 -1.5t-3 -5.5q-13 -64 -26.5 -127t-27.5 -127q-1 -4 -0.5 -6.5t5.5 -2.5h127h126q5 0 5.5 -1t-0.5 -6q-1 -7 -2.5 -15.5t-4.5 -15.5
q-1 -5 -2 -6.5t-6 -1.5h-155.5h-155.5q-5 0 -4 5q3 11 5 22t5 22q-36 -28 -82.5 -42t-107.5 -14zM270 44q45 0 81 10.5t66 36.5t54 71l72 340q-4 48 -23 75t-50.5 38.5t-76.5 11.5q-68 0 -117.5 -26t-83.5 -89t-59 -178q-23 -114 -16 -177t45.5 -88t107.5 -25z" />
    <glyph glyph-name="oe" unicode="&#x153;" horiz-adv-x="807" 
d="M194 -6q-61 0 -96.5 18t-51.5 50.5t-15.5 76.5t11.5 98q15 70 45.5 124.5t81.5 85.5t127 31q73 0 109 -31t42.5 -85.5t-8.5 -124.5t-43 -125t-76.5 -86.5t-125.5 -31.5zM203 40q58 0 95 23.5t59 67.5t35 105q19 93 -3 143.5t-103 50.5q-75 0 -121.5 -50.5t-66.5 -143.5
q-20 -94 2 -145t103 -51zM401 237q14 63 41 117.5t75 89t121 34.5q61 0 93 -18t44 -47.5t11 -65.5t-9 -72q-7 -36 -16 -44t-21 -8h-285q-2 0 -6.5 -2t-6.5 -11q-10 -49 -3 -86.5t34.5 -59t80.5 -21.5q36 0 78 8t72 25q5 3 11 4.5t7 -6.5l6 -20q2 -4 0.5 -6.5t-7.5 -5.5
q-36 -24 -84.5 -34t-98.5 -10q-58 0 -90.5 18.5t-46 51t-12 76t11.5 93.5zM723 284q5 28 5.5 54.5t-8.5 47.5t-31 33.5t-61 12.5t-68 -14.5t-49.5 -37.5t-33.5 -49.5t-20 -50.5q-2 -9 -1.5 -12.5t8.5 -3.5h117.5h117.5q10 0 15.5 3.5t8.5 16.5z" />
    <glyph glyph-name="Racute" unicode="&#x154;" horiz-adv-x="523" 
d="M40 0q-3 0 -4.5 1.5t-0.5 4.5l141 661q0 6 7 6h138q74 0 116 -17.5t54.5 -58.5t-3.5 -113q-14 -68 -51 -118t-98 -70q-12 -5 -16 -11.5t-2 -14.5q0 -34 7.5 -69t21.5 -65.5t33 -50.5q17 -16 38 -25.5t47 -9.5q3 0 5.5 -1.5t2.5 -5.5l-8 -36q0 -3 -1 -4.5t-4 -2t-10 -0.5
q-38 0 -67 12.5t-50 33.5q-23 23 -39 58.5t-25 77t-10 81.5q1 5 -1.5 9.5t-12.5 4.5h-90q-3 0 -6 -2t-5 -8l-55 -261q-1 -6 -8 -6h-44zM161 332q-1 -8 7 -8h89q69 0 113.5 37.5t61.5 122.5q14 60 4.5 91t-41 42t-85.5 11h-78q-5 0 -6.5 -1.5t-3.5 -7.5zM315 721h-33
q-4 0 -4 2t2 5l61 71q3 3 5.5 4.5t6.5 1.5h47q3 0 4 -2t-2 -4l-77 -73q-3 -2 -5 -3.5t-5 -1.5z" />
    <glyph glyph-name="racute" unicode="&#x155;" horiz-adv-x="352" 
d="M280 477q57 0 94 -15q4 -1 6 -3t0 -6l-14 -31q-2 -4 -5 -5t-6 1q-16 5 -36.5 8t-40.5 3q-16 0 -36 -3.5t-36.5 -7t-24.5 -7.5q-5 -3 -11.5 -7.5t-9.5 -18.5l-81 -377q-1 -5 -3 -6.5t-6 -1.5h-42q-3 0 -4.5 1.5t0.5 5.5l87 412q3 14 8 19t14 9q32 14 73 22t74 8zM207 530
q-4 0 -3.5 2t2.5 5l66 87q3 5 12 5h44q3 0 3.5 -1.5t-3.5 -4.5l-80 -89q-2 -2 -4 -3t-6 -1h-31z" />
    <glyph glyph-name="uni0156" unicode="&#x156;" horiz-adv-x="523" 
d="M40 0q-3 0 -4.5 1.5t-0.5 4.5l141 661q0 6 7 6h138q74 0 116 -17.5t54.5 -58.5t-3.5 -113q-14 -68 -51 -118t-98 -70q-12 -5 -16 -11.5t-2 -14.5q0 -34 7.5 -69t21.5 -65.5t33 -50.5q17 -16 38 -25.5t47 -9.5q3 0 5.5 -1.5t2.5 -5.5l-8 -36q0 -3 -1 -4.5t-4 -2t-10 -0.5
q-38 0 -67 12.5t-50 33.5q-23 23 -39 58.5t-25 77t-10 81.5q1 5 -1.5 9.5t-12.5 4.5h-90q-3 0 -6 -2t-5 -8l-55 -261q-1 -6 -8 -6h-44zM161 332q-1 -8 7 -8h89q69 0 113.5 37.5t61.5 122.5q14 60 4.5 91t-41 42t-85.5 11h-78q-5 0 -6.5 -1.5t-3.5 -7.5zM228 -65
q-3 -11 -13 -30t-23 -38.5t-26 -33.5q-3 -4 -5 -4h-11h-14q-1 1 -0.5 2t3.5 6q10 13 23 34.5t20 37.5q-14 0 -18 7.5t-2 18.5q3 13 11.5 21t26.5 8q16 0 23.5 -6.5t4.5 -22.5z" />
    <glyph glyph-name="uni0157" unicode="&#x157;" horiz-adv-x="352" 
d="M280 477q57 0 94 -15q4 -1 6 -3t0 -6l-14 -31q-2 -4 -5 -5t-6 1q-16 5 -36.5 8t-40.5 3q-16 0 -36 -3.5t-36.5 -7t-24.5 -7.5q-5 -3 -11.5 -7.5t-9.5 -18.5l-81 -377q-1 -5 -3 -6.5t-6 -1.5h-42q-3 0 -4.5 1.5t0.5 5.5l87 412q3 14 8 19t14 9q32 14 73 22t74 8zM66 -65
q-3 -11 -13 -30t-23 -38.5t-26 -33.5q-3 -4 -5 -4h-11h-14q-1 1 -0.5 2t3.5 6q10 13 23 34.5t20 37.5q-14 0 -18 7.5t-2 18.5q3 13 11.5 21t26.5 8q16 0 23.5 -6.5t4.5 -22.5z" />
    <glyph glyph-name="Rcaron" unicode="&#x158;" horiz-adv-x="523" 
d="M40 0q-3 0 -4.5 1.5t-0.5 4.5l141 661q0 6 7 6h138q74 0 116 -17.5t54.5 -58.5t-3.5 -113q-14 -68 -51 -118t-98 -70q-12 -5 -16 -11.5t-2 -14.5q0 -34 7.5 -69t21.5 -65.5t33 -50.5q17 -16 38 -25.5t47 -9.5q3 0 5.5 -1.5t2.5 -5.5l-8 -36q0 -3 -1 -4.5t-4 -2t-10 -0.5
q-38 0 -67 12.5t-50 33.5q-23 23 -39 58.5t-25 77t-10 81.5q1 5 -1.5 9.5t-12.5 4.5h-90q-3 0 -6 -2t-5 -8l-55 -261q-1 -6 -8 -6h-44zM161 332q-1 -8 7 -8h89q69 0 113.5 37.5t61.5 122.5q14 60 4.5 91t-41 42t-85.5 11h-78q-5 0 -6.5 -1.5t-3.5 -7.5zM305 720q-4 0 -6 4
l-49 75q-1 2 0.5 4.5t4.5 2.5h28q4 0 6 -4l39 -45q2 -5 7 0l60 45q3 4 8 4h28q3 0 3 -2.5t-2 -4.5l-81 -75q-1 -4 -7 -4h-39z" />
    <glyph glyph-name="rcaron" unicode="&#x159;" horiz-adv-x="352" 
d="M280 477q57 0 94 -15q4 -1 6 -3t0 -6l-14 -31q-2 -4 -5 -5t-6 1q-16 5 -36.5 8t-40.5 3q-16 0 -36 -3.5t-36.5 -7t-24.5 -7.5q-5 -3 -11.5 -7.5t-9.5 -18.5l-81 -377q-1 -5 -3 -6.5t-6 -1.5h-42q-3 0 -4.5 1.5t0.5 5.5l87 412q3 14 8 19t14 9q32 14 73 22t74 8zM230 530
q-5 0 -5 3l-31 88q-1 2 1 4t5 2h28q5 0 5 -3l25 -54q2 -5 7 0l69 54q4 3 8 3h30q3 0 2.5 -2t-2.5 -4l-96 -88q-3 -3 -8 -3h-38z" />
    <glyph glyph-name="Sacute" unicode="&#x15a;" horiz-adv-x="452" 
d="M15 24l9 39q1 5 4 4l6 -2q19 -7 41 -13t44.5 -9.5t40.5 -3.5q74 0 120 40.5t60 108.5q11 49 -2 76.5t-40 42t-60 22.5q-28 8 -56.5 17.5t-51 27.5t-31.5 49.5t2 82.5q13 61 48 98t83.5 55t102.5 18q13 0 36 -3t48.5 -8.5t42.5 -14.5q4 -1 5.5 -3.5t0.5 -5.5l-7 -33
q-2 -11 -15 -5q-15 8 -37.5 14t-44.5 9.5t-37 3.5q-63 0 -109.5 -31t-59.5 -91q-7 -37 1 -60t27.5 -36.5t44 -21.5t49.5 -16q29 -8 55 -19.5t44 -31t24.5 -51.5t-5.5 -82q-12 -63 -46 -107.5t-85 -68.5t-117 -24q-28 0 -64 7t-65 17q-4 1 -5.5 3t-0.5 6zM322 720h-33
q-4 0 -4 2t2 5l61 71q3 3 5.5 4.5t6.5 1.5h47q3 0 4 -2t-2 -4l-77 -73q-3 -2 -5 -3.5t-5 -1.5z" />
    <glyph glyph-name="sacute" unicode="&#x15b;" horiz-adv-x="390" 
d="M7 73q1 4 4 4t5 -3q13 -10 36.5 -17.5t47.5 -11.5t41 -4q31 0 60 10t51 32.5t30 58.5q7 33 -6 48.5t-39.5 21.5t-60.5 10q-25 2 -49 7t-41.5 18t-25.5 37t1 65q9 40 39 68.5t74 44t95 15.5q17 0 40 -4t44.5 -11.5t33.5 -20.5q3 -2 2.5 -3.5t-1.5 -5.5l-17 -32
q-2 -5 -10 -1q-10 9 -28.5 16t-38.5 12t-35 5q-61 0 -98.5 -25t-44.5 -57q-7 -34 5.5 -50.5t37.5 -22t54 -8.5q24 -2 49.5 -6.5t45 -17t28 -36.5t-0.5 -64q-11 -57 -45 -90t-76.5 -46.5t-81.5 -13.5q-17 0 -43 3.5t-51.5 12t-43.5 20.5q-2 4 -1 8zM231 530q-4 0 -3.5 2
t2.5 5l66 87q3 5 12 5h44q3 0 3.5 -1.5t-3.5 -4.5l-80 -89q-2 -2 -4 -3t-6 -1h-31z" />
    <glyph glyph-name="Scedilla" unicode="&#x15e;" horiz-adv-x="452" 
d="M15 24l9 39q1 5 4 4l6 -2q19 -7 41 -13t44.5 -9.5t40.5 -3.5q74 0 120 40.5t60 108.5q11 49 -2 76.5t-40 42t-60 22.5q-28 8 -56.5 17.5t-51 27.5t-31.5 49.5t2 82.5q13 61 48 98t83.5 55t102.5 18q13 0 36 -3t48.5 -8.5t42.5 -14.5q4 -1 5.5 -3.5t0.5 -5.5l-7 -33
q-2 -11 -15 -5q-15 8 -37.5 14t-44.5 9.5t-37 3.5q-63 0 -109.5 -31t-59.5 -91q-7 -37 1 -60t27.5 -36.5t44 -21.5t49.5 -16q29 -8 55 -19.5t44 -31t24.5 -51.5t-5.5 -82q-12 -63 -46 -107.5t-85 -68.5t-117 -24q-28 0 -64 7t-65 17q-4 1 -5.5 3t-0.5 6zM214 -116
q-5 -27 -32 -48.5t-68 -21.5q-24 0 -42 9.5t-26 23.5q-2 3 -1 7t5 6l18 8q9 3 13 -3q5 -8 16 -14t22 -6q24 0 38 12.5t17 26.5q4 17 -6.5 25t-27 11.5t-31.5 3.5q-6 1 -8 4t2 11l30 60q3 5 7 5.5t6 0.5h19q4 0 2 -7l-25 -62l-4 13q37 -1 60.5 -16.5t15.5 -48.5z" />
    <glyph glyph-name="scedilla" unicode="&#x15f;" horiz-adv-x="390" 
d="M7 73q1 4 4 4t5 -3q13 -10 36.5 -17.5t47.5 -11.5t41 -4q31 0 60 10t51 32.5t30 58.5q7 33 -6 48.5t-39.5 21.5t-60.5 10q-25 2 -49 7t-41.5 18t-25.5 37t1 65q9 40 39 68.5t74 44t95 15.5q17 0 40 -4t44.5 -11.5t33.5 -20.5q3 -2 2.5 -3.5t-1.5 -5.5l-17 -32
q-2 -5 -10 -1q-10 9 -28.5 16t-38.5 12t-35 5q-61 0 -98.5 -25t-44.5 -57q-7 -34 5.5 -50.5t37.5 -22t54 -8.5q24 -2 49.5 -6.5t45 -17t28 -36.5t-0.5 -64q-11 -57 -45 -90t-76.5 -46.5t-81.5 -13.5q-17 0 -43 3.5t-51.5 12t-43.5 20.5q-2 4 -1 8zM205 -116
q-5 -27 -32 -48.5t-68 -21.5q-24 0 -42 9.5t-26 23.5q-2 3 -1 7t5 6l18 8q9 3 13 -3q5 -8 16 -14t22 -6q24 0 38 12.5t17 26.5q4 17 -6.5 25t-27 11.5t-31.5 3.5q-6 1 -8 4t2 11l30 60q3 5 7 5.5t6 0.5h19q4 0 2 -7l-25 -62l-4 13q37 -1 60.5 -16.5t15.5 -48.5z" />
    <glyph glyph-name="Scaron" unicode="&#x160;" horiz-adv-x="452" 
d="M15 24l9 39q1 5 4 4l6 -2q19 -7 41 -13t44.5 -9.5t40.5 -3.5q74 0 120 40.5t60 108.5q11 49 -2 76.5t-40 42t-60 22.5q-28 8 -56.5 17.5t-51 27.5t-31.5 49.5t2 82.5q13 61 48 98t83.5 55t102.5 18q13 0 36 -3t48.5 -8.5t42.5 -14.5q4 -1 5.5 -3.5t0.5 -5.5l-7 -33
q-2 -11 -15 -5q-15 8 -37.5 14t-44.5 9.5t-37 3.5q-63 0 -109.5 -31t-59.5 -91q-7 -37 1 -60t27.5 -36.5t44 -21.5t49.5 -16q29 -8 55 -19.5t44 -31t24.5 -51.5t-5.5 -82q-12 -63 -46 -107.5t-85 -68.5t-117 -24q-28 0 -64 7t-65 17q-4 1 -5.5 3t-0.5 6zM312 719q-4 0 -6 4
l-49 75q-1 2 0.5 4.5t4.5 2.5h28q4 0 6 -4l39 -45q2 -5 7 0l60 45q3 4 8 4h28q3 0 3 -2.5t-2 -4.5l-81 -75q-1 -4 -7 -4h-39z" />
    <glyph glyph-name="scaron" unicode="&#x161;" horiz-adv-x="390" 
d="M7 73q1 4 4 4t5 -3q13 -10 36.5 -17.5t47.5 -11.5t41 -4q31 0 60 10t51 32.5t30 58.5q7 33 -6 48.5t-39.5 21.5t-60.5 10q-25 2 -49 7t-41.5 18t-25.5 37t1 65q9 40 39 68.5t74 44t95 15.5q17 0 40 -4t44.5 -11.5t33.5 -20.5q3 -2 2.5 -3.5t-1.5 -5.5l-17 -32
q-2 -5 -10 -1q-10 9 -28.5 16t-38.5 12t-35 5q-61 0 -98.5 -25t-44.5 -57q-7 -34 5.5 -50.5t37.5 -22t54 -8.5q24 -2 49.5 -6.5t45 -17t28 -36.5t-0.5 -64q-11 -57 -45 -90t-76.5 -46.5t-81.5 -13.5q-17 0 -43 3.5t-51.5 12t-43.5 20.5q-2 4 -1 8zM253 530q-5 0 -5 3l-31 88
q-1 2 1 4t5 2h28q5 0 5 -3l25 -54q2 -5 7 0l69 54q4 3 8 3h30q3 0 2.5 -2t-2.5 -4l-96 -88q-3 -3 -8 -3h-38z" />
    <glyph glyph-name="uni0162" unicode="&#x162;" horiz-adv-x="430" 
d="M142 0q-3 0 -4.5 2t-0.5 6l130 610q1 4 -0.5 6t-5.5 2h-148q-5 0 -6 1.5t0 5.5l7 33q1 4 2.5 5.5t6.5 1.5h369q5 0 6.5 -1.5t0.5 -5.5l-7 -34q-1 -3 -3 -4.5t-7 -1.5h-150q-4 0 -6 -1.5t-3 -6.5l-130 -611q-1 -7 -7 -7h-44zM228 -116q-5 -27 -32 -48.5t-68 -21.5
q-24 0 -42 9.5t-26 23.5q-2 3 -1 7t5 6l18 8q9 3 13 -3q5 -8 16 -14t22 -6q24 0 38 12.5t17 26.5q4 17 -6.5 25t-27 11.5t-31.5 3.5q-6 1 -8 4t2 11l30 60q3 5 7 5.5t6 0.5h19q4 0 2 -7l-25 -62l-4 13q37 -1 60.5 -16.5t15.5 -48.5z" />
    <glyph glyph-name="uni0163" unicode="&#x163;" horiz-adv-x="318" 
d="M170 0q-61 0 -84.5 26t-22.5 73q1 43 10.5 90t20.5 97q7 35 15 68t17 67q2 9 -6 9h-53q-3 0 -4 2t-1 5l6 28q0 3 2.5 5t5.5 2h53q5 0 7.5 2t3.5 8l24 88q2 6 6 6h43q3 0 5 -1.5t1 -4.5l-23 -87q-2 -6 -1 -8.5t6 -2.5h126q4 0 4.5 -1.5t-0.5 -5.5l-5 -28q0 -2 -2.5 -4.5
t-5.5 -2.5h-126q-3 0 -6.5 -2t-4.5 -8q-9 -34 -17.5 -69t-16.5 -71q-8 -41 -17 -85.5t-9 -86.5q-1 -31 14 -47t54 -16q15 0 30.5 3.5t32.5 8.5q6 4 7.5 3t3.5 -6l2 -26q2 -7 -14 -14q-12 -4 -28 -7.5t-31 -5t-22 -1.5zM224 -115q-5 -27 -32 -48.5t-68 -21.5q-24 0 -42 9.5
t-26 23.5q-2 3 -1 7t5 6l18 8q9 3 13 -3q5 -8 16 -14t22 -6q24 0 38 12.5t17 26.5q4 17 -6.5 25t-27 11.5t-31.5 3.5q-6 1 -8 4t2 11l30 60q3 5 7 5.5t6 0.5h19q4 0 2 -7l-25 -62l-4 13q37 -1 60.5 -16.5t15.5 -48.5z" />
    <glyph glyph-name="Tcaron" unicode="&#x164;" horiz-adv-x="430" 
d="M142 0q-3 0 -4.5 2t-0.5 6l130 610q1 4 -0.5 6t-5.5 2h-148q-5 0 -6 1.5t0 5.5l7 33q1 4 2.5 5.5t6.5 1.5h369q5 0 6.5 -1.5t0.5 -5.5l-7 -34q-1 -3 -3 -4.5t-7 -1.5h-150q-4 0 -6 -1.5t-3 -6.5l-130 -611q-1 -7 -7 -7h-44zM299 719q-4 0 -6 4l-49 75q-1 2 0.5 4.5
t4.5 2.5h28q4 0 6 -4l39 -45q2 -5 7 0l60 45q3 4 8 4h28q3 0 3 -2.5t-2 -4.5l-81 -75q-1 -4 -7 -4h-39z" />
    <glyph glyph-name="tcaron" unicode="&#x165;" horiz-adv-x="318" 
d="M170 0q-61 0 -84.5 26t-22.5 73q1 43 10.5 90t20.5 97q7 35 15 68t17 67q2 9 -6 9h-53q-3 0 -4 2t-1 5l6 28q0 3 2.5 5t5.5 2h53q5 0 7.5 2t3.5 8l24 88q2 6 6 6h43q3 0 5 -1.5t1 -4.5l-23 -87q-2 -6 -1 -8.5t6 -2.5h126q4 0 4.5 -1.5t-0.5 -5.5l-5 -28q0 -2 -2.5 -4.5
t-5.5 -2.5h-126q-3 0 -6.5 -2t-4.5 -8q-9 -34 -17.5 -69t-16.5 -71q-8 -41 -17 -85.5t-9 -86.5q-1 -31 14 -47t54 -16q15 0 30.5 3.5t32.5 8.5q6 4 7.5 3t3.5 -6l2 -26q2 -7 -14 -14q-12 -4 -28 -7.5t-31 -5t-22 -1.5zM346 337q-2 0 -2.5 1.5t-0.5 5.5l27 140q1 5 3 7t6 2
h34q5 0 5.5 -2t-0.5 -5l-34 -143q-1 -3 -3 -4.5t-6 -1.5h-29z" />
    <glyph glyph-name="Tbar" unicode="&#x166;" horiz-adv-x="457" 
d="M142 0q-3 0 -4.5 2t-0.5 6l130 610q1 4 -0.5 6t-5.5 2h-148q-5 0 -6 1.5t0 5.5l7 33q1 4 2.5 5.5t6.5 1.5h369q5 0 6.5 -1.5t0.5 -5.5l-7 -34q-1 -3 -3 -4.5t-7 -1.5h-150q-4 0 -6 -1.5t-3 -6.5l-130 -611q-1 -7 -7 -7h-44zM128 427q-4 0 -4.5 2t0.5 4l7 33q0 4 1.5 5
t4.5 1h261q4 0 4.5 -1t0.5 -5l-8 -33q0 -3 -1 -4.5t-5 -1.5h-261z" />
    <glyph glyph-name="tbar" unicode="&#x167;" horiz-adv-x="318" 
d="M41 323q-3 0 -3.5 1.5t0.5 3.5l4 28q1 3 2 4t4 1h199q3 0 3.5 -1t0.5 -4l-6 -29q0 -1 -1 -2.5t-4 -1.5h-199zM170 0q-61 0 -84.5 26t-22.5 73q1 43 10.5 90t20.5 97q7 35 15 68t17 67q2 9 -6 9h-53q-3 0 -4 2t-1 5l6 28q0 3 2.5 5t5.5 2h53q5 0 7.5 2t3.5 8l24 88
q2 6 6 6h43q3 0 5 -1.5t1 -4.5l-23 -87q-2 -6 -1 -8.5t6 -2.5h126q4 0 4.5 -1.5t-0.5 -5.5l-5 -28q0 -2 -2.5 -4.5t-5.5 -2.5h-126q-3 0 -6.5 -2t-4.5 -8q-9 -34 -17.5 -69t-16.5 -71q-8 -41 -17 -85.5t-9 -86.5q-1 -31 14 -47t54 -16q15 0 30.5 3.5t32.5 8.5q6 4 7.5 3
t3.5 -6l2 -26q2 -7 -14 -14q-12 -4 -28 -7.5t-31 -5t-22 -1.5z" />
    <glyph glyph-name="Utilde" unicode="&#x168;" horiz-adv-x="633" 
d="M264 -11q-64 0 -103.5 13t-60.5 33t-28.5 44.5t-7 47.5t2.5 42q5 42 14 93.5t20 102.5q12 50 25 102.5t28.5 103t29.5 93.5q1 3 3.5 6t4.5 3h21.5h21.5q4 0 4.5 -1.5t-0.5 -7.5q-13 -40 -26 -85.5t-26 -94.5q-21 -80 -38.5 -161t-25.5 -150q-1 -14 -1.5 -32t5 -36.5
t21 -34t46 -25t78.5 -9.5q61 0 100 14.5t61.5 36.5t33.5 45t16 41q20 68 37 146t30 158q8 51 15 98.5t11 88.5q0 6 1.5 7.5t5.5 1.5h21.5h21.5q4 0 5 -3t0 -6q-3 -43 -10 -93t-15 -101.5t-18 -100.5q-11 -53 -23 -105t-26 -95q-7 -23 -21 -53t-43 -59t-79.5 -48.5
t-131.5 -19.5zM333 721q-6 0 -4 5q6 27 25 45t42 18q14 0 26 -9.5t23.5 -19t20.5 -9.5q6 0 12.5 8t9.5 19q1 6 5 6h26q5 0 4 -6q-5 -23 -23.5 -42.5t-42.5 -19.5q-16 0 -28.5 9.5t-22 19t-18.5 9.5t-16 -8.5t-9 -19.5q0 -5 -5 -5h-25z" />
    <glyph glyph-name="utilde" unicode="&#x169;" horiz-adv-x="489" 
d="M200 -4q-56 0 -89 17t-47.5 48t-14.5 71.5t10 87.5q11 48 22.5 95.5t22.5 86.5t16 60q3 7 6 8.5t10 1.5h32q7 0 9 -1t-1 -9q-2 -7 -8.5 -32t-16 -60.5t-19 -76t-16.5 -77.5q-17 -79 3.5 -125.5t90.5 -46.5q9 0 28 1.5t39 6t35.5 12t17.5 18.5l81 383q2 3 3 5t3 2h45
q2 0 4 -1t1 -5l-89 -418q-2 -12 -9 -17t-27 -12q-8 -3 -32.5 -8.5t-54.5 -10t-55 -4.5zM209 535q-6 0 -4 5q6 27 25 44t44 17q15 0 27.5 -8.5t24.5 -17.5t21 -9q7 0 14 7t9 17q1 3 2.5 4.5t2.5 1.5h28q6 0 4 -6q-5 -23 -24.5 -41.5t-43.5 -18.5q-16 0 -29.5 9t-24 18
t-19.5 9q-8 0 -15.5 -7.5t-9.5 -18.5q-1 -5 -5 -5h-27z" />
    <glyph glyph-name="Umacron" unicode="&#x16a;" horiz-adv-x="633" 
d="M264 -11q-64 0 -103.5 13t-60.5 33t-28.5 44.5t-7 47.5t2.5 42q5 42 14 93.5t20 102.5q12 50 25 102.5t28.5 103t29.5 93.5q1 3 3.5 6t4.5 3h21.5h21.5q4 0 4.5 -1.5t-0.5 -7.5q-13 -40 -26 -85.5t-26 -94.5q-21 -80 -38.5 -161t-25.5 -150q-1 -14 -1.5 -32t5 -36.5
t21 -34t46 -25t78.5 -9.5q61 0 100 14.5t61.5 36.5t33.5 45t16 41q20 68 37 146t30 158q8 51 15 98.5t11 88.5q0 6 1.5 7.5t5.5 1.5h21.5h21.5q4 0 5 -3t0 -6q-3 -43 -10 -93t-15 -101.5t-18 -100.5q-11 -53 -23 -105t-26 -95q-7 -23 -21 -53t-43 -59t-79.5 -48.5
t-131.5 -19.5zM529 748q0 -1 -1 -2t-4 -1h-198q-3 0 -4 1t-1 3l8 32q0 3 1.5 4t4.5 1h198q3 0 3.5 -0.5t0.5 -3.5z" />
    <glyph glyph-name="umacron" unicode="&#x16b;" horiz-adv-x="489" 
d="M200 -4q-56 0 -89 17t-47.5 48t-14.5 71.5t10 87.5q11 48 22.5 95.5t22.5 86.5t16 60q3 7 6 8.5t10 1.5h32q7 0 9 -1t-1 -9q-2 -7 -8.5 -32t-16 -60.5t-19 -76t-16.5 -77.5q-17 -79 3.5 -125.5t90.5 -46.5q9 0 28 1.5t39 6t35.5 12t17.5 18.5l81 383q2 3 3 5t3 2h45
q2 0 4 -1t1 -5l-89 -418q-2 -12 -9 -17t-27 -12q-8 -3 -32.5 -8.5t-54.5 -10t-55 -4.5zM406 548q0 -1 -1 -2t-4 -1h-198q-3 0 -4 1t-1 3l8 32q0 3 1.5 4t4.5 1h198q3 0 3.5 -0.5t0.5 -3.5z" />
    <glyph glyph-name="Uring" unicode="&#x16e;" horiz-adv-x="633" 
d="M264 -11q-64 0 -103.5 13t-60.5 33t-28.5 44.5t-7 47.5t2.5 42q5 42 14 93.5t20 102.5q12 50 25 102.5t28.5 103t29.5 93.5q1 3 3.5 6t4.5 3h21.5h21.5q4 0 4.5 -1.5t-0.5 -7.5q-13 -40 -26 -85.5t-26 -94.5q-21 -80 -38.5 -161t-25.5 -150q-1 -14 -1.5 -32t5 -36.5
t21 -34t46 -25t78.5 -9.5q61 0 100 14.5t61.5 36.5t33.5 45t16 41q20 68 37 146t30 158q8 51 15 98.5t11 88.5q0 6 1.5 7.5t5.5 1.5h21.5h21.5q4 0 5 -3t0 -6q-3 -43 -10 -93t-15 -101.5t-18 -100.5q-11 -53 -23 -105t-26 -95q-7 -23 -21 -53t-43 -59t-79.5 -48.5
t-131.5 -19.5zM513 787q-7 -33 -30.5 -53.5t-66.5 -20.5t-57.5 20.5t-6.5 53.5q7 34 30 53.5t66 19.5q44 0 58.5 -19.5t6.5 -53.5zM482 790q3 16 -3.5 27t-36.5 11q-32 0 -42 -11t-14 -27q-3 -15 2 -29.5t38 -14.5t42.5 14.5t13.5 29.5z" />
    <glyph glyph-name="uring" unicode="&#x16f;" horiz-adv-x="489" 
d="M200 -4q-56 0 -89 17t-47.5 48t-14.5 71.5t10 87.5q11 48 22.5 95.5t22.5 86.5t16 60q3 7 6 8.5t10 1.5h32q7 0 9 -1t-1 -9q-2 -7 -8.5 -32t-16 -60.5t-19 -76t-16.5 -77.5q-17 -79 3.5 -125.5t90.5 -46.5q9 0 28 1.5t39 6t35.5 12t17.5 18.5l81 383q2 3 3 5t3 2h45
q2 0 4 -1t1 -5l-89 -418q-2 -12 -9 -17t-27 -12q-8 -3 -32.5 -8.5t-54.5 -10t-55 -4.5zM391 587q-7 -33 -30.5 -53.5t-66.5 -20.5t-57.5 20.5t-6.5 53.5q7 34 30 53.5t66 19.5q44 0 58.5 -19.5t6.5 -53.5zM360 590q3 16 -3.5 27t-36.5 11q-32 0 -42 -11t-14 -27
q-3 -15 2 -29.5t38 -14.5t42.5 14.5t13.5 29.5z" />
    <glyph glyph-name="Uhungarumlaut" unicode="&#x170;" horiz-adv-x="633" 
d="M264 -11q-64 0 -103.5 13t-60.5 33t-28.5 44.5t-7 47.5t2.5 42q5 42 14 93.5t20 102.5q12 50 25 102.5t28.5 103t29.5 93.5q1 3 3.5 6t4.5 3h21.5h21.5q4 0 4.5 -1.5t-0.5 -7.5q-13 -40 -26 -85.5t-26 -94.5q-21 -80 -38.5 -161t-25.5 -150q-1 -14 -1.5 -32t5 -36.5
t21 -34t46 -25t78.5 -9.5q61 0 100 14.5t61.5 36.5t33.5 45t16 41q20 68 37 146t30 158q8 51 15 98.5t11 88.5q0 6 1.5 7.5t5.5 1.5h21.5h21.5q4 0 5 -3t0 -6q-3 -43 -10 -93t-15 -101.5t-18 -100.5q-11 -53 -23 -105t-26 -95q-7 -23 -21 -53t-43 -59t-79.5 -48.5
t-131.5 -19.5zM400 719l-4 -2t-6 -1h-26q-7 0 -3 6l58 87q3 5 11 5h42q3 0 3.5 -2t-1.5 -4zM480 719l-4 -2t-6 -1h-26q-4 0 -4.5 2t1.5 4l66 87q3 3 5.5 4t5.5 1h42q3 0 3.5 -2t-2.5 -4z" />
    <glyph glyph-name="uhungarumlaut" unicode="&#x171;" horiz-adv-x="489" 
d="M200 -4q-56 0 -89 17t-47.5 48t-14.5 71.5t10 87.5q11 48 22.5 95.5t22.5 86.5t16 60q3 7 6 8.5t10 1.5h32q7 0 9 -1t-1 -9q-2 -7 -8.5 -32t-16 -60.5t-19 -76t-16.5 -77.5q-17 -79 3.5 -125.5t90.5 -46.5q9 0 28 1.5t39 6t35.5 12t17.5 18.5l81 383q2 3 3 5t3 2h45
q2 0 4 -1t1 -5l-89 -418q-2 -12 -9 -17t-27 -12q-8 -3 -32.5 -8.5t-54.5 -10t-55 -4.5zM278 534q-1 -1 -3.5 -2.5t-6.5 -1.5h-23q-4 0 -3.5 2t1.5 5l54 100q3 3 6 3.5t7 0.5h37q3 0 3.5 -1.5t-2.5 -4.5zM357 534q-1 -1 -3.5 -2.5t-6.5 -1.5h-23q-4 0 -3.5 2t1.5 5l62 100
q4 4 12 4h38q3 0 3.5 -1.5t-2.5 -4.5z" />
    <glyph glyph-name="Uogonek" unicode="&#x172;" horiz-adv-x="633" 
d="M264 -11q-64 0 -103.5 13t-60.5 33t-28.5 44.5t-7 47.5t2.5 42q5 42 14 93.5t20 102.5q12 50 25 102.5t28.5 103t29.5 93.5q1 3 3.5 6t4.5 3h21.5h21.5q4 0 4.5 -1.5t-0.5 -7.5q-13 -40 -26 -85.5t-26 -94.5q-21 -80 -38.5 -161t-25.5 -150q-1 -14 -1.5 -32t5 -36.5
t21 -34t46 -25t78.5 -9.5q61 0 100 14.5t61.5 36.5t33.5 45t16 41q20 68 37 146t30 158q8 51 15 98.5t11 88.5q0 6 1.5 7.5t5.5 1.5h21.5h21.5q4 0 5 -3t0 -6q-3 -43 -10 -93t-15 -101.5t-18 -100.5q-11 -53 -23 -105t-26 -95q-7 -23 -21 -53t-43 -59t-79.5 -48.5
t-131.5 -19.5zM188 -201q-32 0 -51.5 20t-12.5 51q6 29 26.5 54.5t47 46.5t51.5 35q6 3 11.5 5t10.5 2h31q4 0 4.5 -3t-5.5 -7q-28 -16 -56 -37t-48.5 -44.5t-25.5 -48.5q-4 -19 5 -28t27 -9q19 0 39.5 10t33.5 20q4 4 6.5 3.5t1.5 -4.5l-5 -26q-1 -3 -3.5 -7t-8.5 -8
q-14 -10 -33.5 -17.5t-45.5 -7.5z" />
    <glyph glyph-name="uogonek" unicode="&#x173;" horiz-adv-x="489" 
d="M200 -4q-56 0 -89 17t-47.5 48t-14.5 71.5t10 87.5q11 48 22.5 95.5t22.5 86.5t16 60q3 7 6 8.5t10 1.5h32q7 0 9 -1t-1 -9q-2 -7 -8.5 -32t-16 -60.5t-19 -76t-16.5 -77.5q-17 -79 3.5 -125.5t90.5 -46.5q9 0 28 1.5t39 6t35.5 12t17.5 18.5l81 383q2 3 3 5t3 2h45
q2 0 4 -1t1 -5l-89 -418q-2 -12 -9 -17t-27 -12q-8 -3 -32.5 -8.5t-54.5 -10t-55 -4.5zM254 -172q-32 0 -51.5 20t-12.5 51q6 29 26.5 54.5t47 46.5t51.5 35q6 3 11.5 5t10.5 2h31q4 0 4.5 -3t-5.5 -7q-28 -16 -56 -37t-48.5 -44.5t-25.5 -48.5q-4 -19 5 -28t27 -9
q19 0 39.5 10t33.5 20q4 4 6.5 3.5t1.5 -4.5l-5 -26q-1 -3 -3.5 -7t-8.5 -8q-14 -10 -33.5 -17.5t-45.5 -7.5z" />
    <glyph glyph-name="Wcircumflex" unicode="&#x174;" horiz-adv-x="829" 
d="M182 0q-6 0 -8 2t-2 5q-13 42 -22 106.5t-15.5 139.5t-9 151t-2.5 144t4 117q1 3 2 5.5t6 2.5h42q5 0 5.5 -1.5t0.5 -5.5q-1 -36 -2 -81.5t0 -97.5t3 -111q2 -42 5 -84.5t7 -82.5t8.5 -74t10.5 -59q1 -2 1.5 -5.5t4.5 -3.5h7q2 0 4.5 2.5t4.5 6.5q15 23 35 58.5t42.5 77
t43.5 82.5t38 75.5t27 56.5q6 32 11.5 69t11 72t10 61.5t6.5 37.5q1 4 2 6.5t5 2.5h44q5 0 6 -2t-1 -6q-20 -103 -25 -198t3.5 -191t26.5 -201q1 -4 1.5 -7t3.5 -3h3.5h4.5q3 0 8 8q24 37 51.5 88.5t56 108t54.5 110.5q37 78 70 154t52 129q2 4 3.5 6t4.5 2h45q7 0 3 -10
q-13 -35 -35.5 -88t-50.5 -115t-59 -127.5t-63 -126.5t-61 -112.5t-53 -85.5q-2 -4 -5.5 -6t-7.5 -2h-19h-21.5h-19.5q-3 0 -6 2t-3 5q-9 37 -17.5 88t-14.5 111t-10 123q0 6 -2.5 6.5t-4.5 -5.5q-30 -62 -62 -123.5t-62 -113.5t-53 -85q-3 -5 -6.5 -6.5t-7.5 -1.5h-58z
M429 719q-3 0 -3 2.5t2 4.5l80 75q3 4 8 4h40q4 0 6 -4l48 -75q1 -2 -0.5 -4.5t-4.5 -2.5h-28q-2 0 -3.5 1.5t-4.5 2.5l-37 44q-1 3 -8 0l-57 -44q-1 -1 -3.5 -2.5t-5.5 -1.5h-29z" />
    <glyph glyph-name="wcircumflex" unicode="&#x175;" horiz-adv-x="619" 
d="M131 0q-5 0 -7 1.5t-4 6.5q-18 56 -28.5 118.5t-16 124t-6.5 115.5t1 92q0 7 2.5 10.5t7.5 3.5h39q9 0 8 -9q-2 -32 -1 -75t3.5 -89.5t7 -89.5t10 -75.5t10.5 -47.5q6 -22 20 -5q15 18 34 50t36 67t29.5 65.5t15.5 47.5q4 15 8 37t8.5 44.5t9 41.5t6.5 29q1 9 8 9h43
q3 0 6 -1.5t2 -7.5q-4 -21 -11 -56.5t-19 -89.5q-3 -17 -2 -43.5t4.5 -56.5t8.5 -58.5t9.5 -50t7.5 -31.5q3 -14 14 -1q15 18 35.5 53t43.5 79t45 91t40.5 90t28.5 74q3 9 13 9h40q4 0 5 -3t-1 -10q-12 -32 -30 -74.5t-41.5 -90.5t-50.5 -98.5t-57 -98t-60 -89.5
q-3 -5 -6.5 -6.5t-6.5 -1.5h-38q-5 0 -7 1.5t-4 5.5q-7 26 -15 58.5t-14 64.5t-9 56q-1 8 -5.5 8t-7.5 -7q-10 -18 -22 -39.5t-24.5 -42.5t-24.5 -41q-10 -14 -21 -29.5t-20 -27.5q-2 -4 -5 -5.5t-7 -1.5h-38zM283 530q-3 0 -3 2t1 4l82 88q3 3 7 3h39q5 0 6 -3l44 -88
q2 -2 0.5 -4t-4.5 -2h-29q-4 0 -6 3l-36 54q-3 4 -7 0l-58 -54q-3 -3 -7 -3h-29z" />
    <glyph glyph-name="Ycircumflex" unicode="&#x176;" horiz-adv-x="474" 
d="M293 307q-7 -8 -13 -22.5t-8 -25.5l-54 -253q-1 -3 -3 -4.5t-4 -1.5h-45q-2 0 -3.5 1.5t-0.5 4.5l53 251q3 16 2 33t-7 27q-7 13 -15.5 31t-16.5 37t-14.5 35.5t-9.5 27.5q-16 53 -26.5 99.5t-15 78t-4.5 37.5q0 5 3 7.5t7 2.5h42q3 0 4 -2t2 -8q1 -7 6.5 -36.5t15.5 -70
t21 -81.5q7 -27 18.5 -55.5t25.5 -57.5q5 -8 8.5 -9.5t11.5 7.5q16 16 34 36.5t35 42t29 37.5q29 40 54 80.5t42.5 70t20.5 36.5q2 6 5 8t6 2h43q4 0 5.5 -2.5t-1.5 -7.5q-2 -6 -18.5 -36.5t-44.5 -75.5t-67 -97q-9 -13 -23.5 -31.5t-32 -39.5t-35 -41t-32.5 -35zM252 719
q-3 0 -3 2.5t2 4.5l80 75q3 4 8 4h40q4 0 6 -4l48 -75q1 -2 -0.5 -4.5t-4.5 -2.5h-28q-2 0 -3.5 1.5t-4.5 2.5l-37 44q-1 3 -8 0l-57 -44q-1 -1 -3.5 -2.5t-5.5 -1.5h-29z" />
    <glyph glyph-name="ycircumflex" unicode="&#x177;" horiz-adv-x="404" 
d="M-45 -127q-14 0 -26 1.5t-21 3.5q-10 4 -4 13l15 23q5 7 13 5q4 -1 8 -1.5t10 -0.5q27 0 56.5 11.5t53.5 30.5q17 13 33 28.5t26.5 30t10.5 23.5q0 12 -5.5 23.5t-15.5 38.5q-7 20 -14.5 57t-14 85.5t-8.5 104t2 112.5q0 10 9 10h39q4 0 7 -2t2 -10q-4 -35 -2.5 -83.5
t7 -98.5t13 -92t16.5 -67q4 -11 12.5 -13.5t15.5 8.5q29 46 62 104.5t63 121.5t49 122q2 6 4.5 8t8.5 2h39q10 0 6 -10q-12 -35 -26.5 -70t-33.5 -73.5t-45 -86.5q-15 -28 -41 -72.5t-60 -94t-76 -93t-89.5 -71.5t-98.5 -28zM175 530q-3 0 -3 2t1 4l82 88q3 3 7 3h39
q5 0 6 -3l44 -88q2 -2 0.5 -4t-4.5 -2h-29q-4 0 -6 3l-36 54q-3 4 -7 0l-58 -54q-3 -3 -7 -3h-29z" />
    <glyph glyph-name="Ydieresis" unicode="&#x178;" horiz-adv-x="474" 
d="M293 307q-7 -8 -13 -22.5t-8 -25.5l-54 -253q-1 -3 -3 -4.5t-4 -1.5h-45q-2 0 -3.5 1.5t-0.5 4.5l53 251q3 16 2 33t-7 27q-7 13 -15.5 31t-16.5 37t-14.5 35.5t-9.5 27.5q-16 53 -26.5 99.5t-15 78t-4.5 37.5q0 5 3 7.5t7 2.5h42q3 0 4 -2t2 -8q1 -7 6.5 -36.5t15.5 -70
t21 -81.5q7 -27 18.5 -55.5t25.5 -57.5q5 -8 8.5 -9.5t11.5 7.5q16 16 34 36.5t35 42t29 37.5q29 40 54 80.5t42.5 70t20.5 36.5q2 6 5 8t6 2h43q4 0 5.5 -2.5t-1.5 -7.5q-2 -6 -18.5 -36.5t-44.5 -75.5t-67 -97q-9 -13 -23.5 -31.5t-32 -39.5t-35 -41t-32.5 -35zM316 773
q-3 -14 -11.5 -21.5t-28.5 -7.5q-19 0 -24.5 7.5t-2.5 21.5q3 16 11.5 23t27.5 7q21 0 26 -7t2 -23zM449 773q-2 -14 -10 -21.5t-30 -7.5q-19 0 -24 7.5t-3 21.5q4 16 12.5 23t27.5 7q21 0 26 -7t1 -23z" />
    <glyph glyph-name="Zacute" unicode="&#x179;" horiz-adv-x="442" 
d="M493 673q4 0 5 -2t-1 -8l-6 -28q-1 -10 -12.5 -23.5t-23.5 -24.5q-38 -34 -85 -85t-96 -110.5t-95 -121.5t-82.5 -120t-57.5 -104h344q4 0 5 -1.5t0 -4.5l-6 -33q-2 -5 -3.5 -6t-5.5 -1h-388q-8 0 -9.5 5t1.5 13q9 41 38.5 94.5t72 114t91 121t95.5 115.5t86.5 97
t63.5 66h-303q-4 0 -5.5 2t-0.5 5l7 33q1 4 2.5 5.5t6.5 1.5h362zM315 720h-33q-4 0 -4 2t2 5l61 71q3 3 5.5 4.5t6.5 1.5h47q3 0 4 -2t-2 -4l-77 -73q-3 -2 -5 -3.5t-5 -1.5z" />
    <glyph glyph-name="zacute" unicode="&#x17a;" horiz-adv-x="352" 
d="M-22 13q21 63 65 125.5t97 127.5q38 45 73 83.5t65 65.5q5 5 6 7.5t-5 3.5h-186q-3 0 -4 1.5t-1 4.5l7 33q1 5 3 6t5 1h263q6 0 6.5 -1.5t-0.5 -7.5l-6 -26q-1 -4 -6.5 -11.5t-12.5 -11.5q-28 -22 -60 -53.5t-62.5 -66t-55.5 -65.5q-39 -51 -71.5 -94.5t-47.5 -74.5
q-1 -4 -2 -9.5t7 -5.5h220q4 0 5 -1t0 -5l-7 -33q-1 -4 -3 -5t-6 -1h-280q-4 0 -6.5 2.5t0.5 10.5zM216 530q-4 0 -3.5 2t2.5 5l66 87q3 5 12 5h44q3 0 3.5 -1.5t-3.5 -4.5l-80 -89q-2 -2 -4 -3t-6 -1h-31z" />
    <glyph glyph-name="Zdotaccent" unicode="&#x17b;" horiz-adv-x="442" 
d="M493 673q4 0 5 -2t-1 -8l-6 -28q-1 -10 -12.5 -23.5t-23.5 -24.5q-38 -34 -85 -85t-96 -110.5t-95 -121.5t-82.5 -120t-57.5 -104h344q4 0 5 -1.5t0 -4.5l-6 -33q-2 -5 -3.5 -6t-5.5 -1h-388q-8 0 -9.5 5t1.5 13q9 41 38.5 94.5t72 114t91 121t95.5 115.5t86.5 97
t63.5 66h-303q-4 0 -5.5 2t-0.5 5l7 33q1 4 2.5 5.5t6.5 1.5h362zM369 777q-3 -17 -11 -25t-28 -8t-25 8t-1 25q3 15 11.5 23.5t28.5 8.5t24.5 -8.5t0.5 -23.5z" />
    <glyph glyph-name="zdotaccent" unicode="&#x17c;" horiz-adv-x="352" 
d="M-22 13q21 63 65 125.5t97 127.5q38 45 73 83.5t65 65.5q5 5 6 7.5t-5 3.5h-186q-3 0 -4 1.5t-1 4.5l7 33q1 5 3 6t5 1h263q6 0 6.5 -1.5t-0.5 -7.5l-6 -26q-1 -4 -6.5 -11.5t-12.5 -11.5q-28 -22 -60 -53.5t-62.5 -66t-55.5 -65.5q-39 -51 -71.5 -94.5t-47.5 -74.5
q-1 -4 -2 -9.5t7 -5.5h220q4 0 5 -1t0 -5l-7 -33q-1 -4 -3 -5t-6 -1h-280q-4 0 -6.5 2.5t0.5 10.5zM289 577q-3 -17 -11 -25t-28 -8t-25 8t-1 25q3 15 11.5 23.5t28.5 8.5t24.5 -8.5t0.5 -23.5z" />
    <glyph glyph-name="Zcaron" unicode="&#x17d;" horiz-adv-x="442" 
d="M493 673q4 0 5 -2t-1 -8l-6 -28q-1 -10 -12.5 -23.5t-23.5 -24.5q-38 -34 -85 -85t-96 -110.5t-95 -121.5t-82.5 -120t-57.5 -104h344q4 0 5 -1.5t0 -4.5l-6 -33q-2 -5 -3.5 -6t-5.5 -1h-388q-8 0 -9.5 5t1.5 13q9 41 38.5 94.5t72 114t91 121t95.5 115.5t86.5 97
t63.5 66h-303q-4 0 -5.5 2t-0.5 5l7 33q1 4 2.5 5.5t6.5 1.5h362zM305 719q-4 0 -6 4l-49 75q-1 2 0.5 4.5t4.5 2.5h28q4 0 6 -4l39 -45q2 -5 7 0l60 45q3 4 8 4h28q3 0 3 -2.5t-2 -4.5l-81 -75q-1 -4 -7 -4h-39z" />
    <glyph glyph-name="zcaron" unicode="&#x17e;" horiz-adv-x="352" 
d="M-22 13q21 63 65 125.5t97 127.5q38 45 73 83.5t65 65.5q5 5 6 7.5t-5 3.5h-186q-3 0 -4 1.5t-1 4.5l7 33q1 5 3 6t5 1h263q6 0 6.5 -1.5t-0.5 -7.5l-6 -26q-1 -4 -6.5 -11.5t-12.5 -11.5q-28 -22 -60 -53.5t-62.5 -66t-55.5 -65.5q-39 -51 -71.5 -94.5t-47.5 -74.5
q-1 -4 -2 -9.5t7 -5.5h220q4 0 5 -1t0 -5l-7 -33q-1 -4 -3 -5t-6 -1h-280q-4 0 -6.5 2.5t0.5 10.5zM238 530q-5 0 -5 3l-31 88q-1 2 1 4t5 2h28q5 0 5 -3l25 -54q2 -5 7 0l69 54q4 3 8 3h30q3 0 2.5 -2t-2.5 -4l-96 -88q-3 -3 -8 -3h-38z" />
    <glyph glyph-name="florin" unicode="&#x192;" horiz-adv-x="383" 
d="M10 -108q-12 0 -25 1t-23.5 3t-17.5 5q-5 2 -4 6q0 2 0.5 6t1.5 9t2 9t1 6q1 2 2.5 4.5t7.5 0.5q40 -9 67 2t45 36t29 57t18 64q18 85 34.5 165t32.5 157q0 1 0.5 2t0.5 2h-41h-41q-2 0 -2.5 2l-0.5 2q1 3 2 7.5t2 10.5t2 11t2 8l1 2t3 2h41h41q1 2 1 4t1 4q4 19 8 37.5
t8 37.5q11 50 33.5 85t57.5 53.5t85 18.5q17 0 36 -3t30 -8q7 -3 8 -5t0 -6l-5 -29q-1 -4 -2 -5t-5 0q-16 6 -32 9t-32 3q-57 0 -81.5 -29.5t-38.5 -89.5q-3 -14 -6 -26t-5.5 -24.5t-5.5 -26.5h4.5h4.5h52.5h50h51.5q5 0 4 -4q-1 -3 -2 -8t-2 -11t-2 -10.5t-2 -7.5l-1.5 -2
t-3.5 -2h-54h-52h-55q-3 0 -3 -3q-9 -46 -18 -89t-18 -84.5t-18 -84.5t-18 -89q-10 -48 -30 -89.5t-50.5 -68t-73.5 -27.5z" />
    <glyph glyph-name="Ohorn" unicode="&#x1a0;" horiz-adv-x="625" 
d="M75 335q24 111 62.5 187.5t102.5 115t165 38.5q79 0 125 -22t65 -65t17 -107t-20 -147q-23 -112 -60.5 -187.5t-102 -114.5t-169.5 -39q-101 0 -149 39t-53.5 114.5t17.5 187.5zM133 335q-23 -114 -16 -177t45.5 -88t107.5 -25q68 0 118 25t86 87.5t60 177.5
q24 114 15.5 178t-48 89.5t-108.5 25.5q-68 0 -117.5 -26t-83.5 -89.5t-59 -177.5zM578 751q4 2 4 -3q0 -7 -1 -13.5t-3 -12.5q-5 -26 -20.5 -45.5t-40 -30t-59.5 -12.5q-4 0 -2 4l6 30q1 4 5 4q32 2 48 15t21 35q1 4 2 8.5t1 8.5q0 3 4 5z" />
    <glyph glyph-name="ohorn" unicode="&#x1a1;" horiz-adv-x="490" 
d="M194 -6q-61 0 -96.5 18t-51.5 50.5t-15.5 76.5t11.5 98q15 70 45.5 124.5t81.5 85.5t127 31q77 0 114.5 -31t45 -85.5t-7.5 -124.5q-15 -71 -44 -126t-79 -86t-131 -31zM203 40q82 0 125.5 51.5t63.5 144.5t-5 143.5t-101 50.5t-122 -50.5t-66 -143.5q-20 -94 2 -145
t103 -51zM464 551q4 2 4 -3q0 -7 -1 -13.5t-3 -12.5q-5 -26 -20.5 -45.5t-40 -30t-59.5 -12.5q-4 0 -2 4l6 30q1 4 5 4q32 2 48 15t21 35q1 4 2 8.5t1 8.5q0 3 4 5z" />
    <glyph glyph-name="Uhorn" unicode="&#x1af;" horiz-adv-x="633" 
d="M264 -11q-64 0 -103.5 13t-60.5 33t-28.5 44.5t-7 47.5t2.5 42q5 42 14 93.5t20 102.5q12 50 25 102.5t28.5 103t29.5 93.5q1 3 3.5 6t4.5 3h21.5h21.5q4 0 4.5 -1.5t-0.5 -7.5q-13 -40 -26 -85.5t-26 -94.5q-21 -80 -38.5 -161t-25.5 -150q-1 -14 -1.5 -32t5 -36.5
t21 -34t46 -25t78.5 -9.5q61 0 100 14.5t61.5 36.5t33.5 45t16 41q20 68 37 146t30 158q8 51 15 98.5t11 88.5q0 6 1.5 7.5t5.5 1.5h21.5h21.5q4 0 5 -3t0 -6q-3 -43 -10 -93t-15 -101.5t-18 -100.5q-11 -53 -23 -105t-26 -95q-7 -23 -21 -53t-43 -59t-79.5 -48.5
t-131.5 -19.5zM709 751q4 2 4 -3q0 -7 -1 -13.5t-3 -12.5q-5 -26 -20.5 -45.5t-40 -30t-59.5 -12.5q-4 0 -2 4l6 30q1 4 5 4q32 2 48 15t21 35q1 4 2 8.5t1 8.5q0 3 4 5z" />
    <glyph glyph-name="uhorn" unicode="&#x1b0;" horiz-adv-x="489" 
d="M200 -4q-56 0 -89 17t-47.5 48t-14.5 71.5t10 87.5q11 48 22.5 95.5t22.5 86.5t16 60q3 7 6 8.5t10 1.5h32q7 0 9 -1t-1 -9q-2 -7 -8.5 -32t-16 -60.5t-19 -76t-16.5 -77.5q-17 -79 3.5 -125.5t90.5 -46.5q9 0 28 1.5t39 6t35.5 12t17.5 18.5l81 383q2 3 3 5t3 2h45
q2 0 4 -1t1 -5l-89 -418q-2 -12 -9 -17t-27 -12q-8 -3 -32.5 -8.5t-54.5 -10t-55 -4.5zM540 551q4 2 4 -3q0 -7 -1 -13.5t-3 -12.5q-5 -26 -20.5 -45.5t-40 -30t-59.5 -12.5q-4 0 -2 4l6 30q1 4 5 4q32 2 48 15t21 35q1 4 2 8.5t1 8.5q0 3 4 5z" />
    <glyph glyph-name="uni0218" unicode="&#x218;" horiz-adv-x="452" 
d="M15 24l9 39q1 5 4 4l6 -2q19 -7 41 -13t44.5 -9.5t40.5 -3.5q74 0 120 40.5t60 108.5q11 49 -2 76.5t-40 42t-60 22.5q-28 8 -56.5 17.5t-51 27.5t-31.5 49.5t2 82.5q13 61 48 98t83.5 55t102.5 18q13 0 36 -3t48.5 -8.5t42.5 -14.5q4 -1 5.5 -3.5t0.5 -5.5l-7 -33
q-2 -11 -15 -5q-15 8 -37.5 14t-44.5 9.5t-37 3.5q-63 0 -109.5 -31t-59.5 -91q-7 -37 1 -60t27.5 -36.5t44 -21.5t49.5 -16q29 -8 55 -19.5t44 -31t24.5 -51.5t-5.5 -82q-12 -63 -46 -107.5t-85 -68.5t-117 -24q-28 0 -64 7t-65 17q-4 1 -5.5 3t-0.5 6zM168 -65
q-3 -11 -13 -30t-23 -38.5t-26 -33.5q-3 -4 -5 -4h-11h-14q-1 1 -0.5 2t3.5 6q10 13 23 34.5t20 37.5q-14 0 -18 7.5t-2 18.5q3 13 11.5 21t26.5 8q16 0 23.5 -6.5t4.5 -22.5z" />
    <glyph glyph-name="uni0219" unicode="&#x219;" horiz-adv-x="390" 
d="M7 73q1 4 4 4t5 -3q13 -10 36.5 -17.5t47.5 -11.5t41 -4q31 0 60 10t51 32.5t30 58.5q7 33 -6 48.5t-39.5 21.5t-60.5 10q-25 2 -49 7t-41.5 18t-25.5 37t1 65q9 40 39 68.5t74 44t95 15.5q17 0 40 -4t44.5 -11.5t33.5 -20.5q3 -2 2.5 -3.5t-1.5 -5.5l-17 -32
q-2 -5 -10 -1q-10 9 -28.5 16t-38.5 12t-35 5q-61 0 -98.5 -25t-44.5 -57q-7 -34 5.5 -50.5t37.5 -22t54 -8.5q24 -2 49.5 -6.5t45 -17t28 -36.5t-0.5 -64q-11 -57 -45 -90t-76.5 -46.5t-81.5 -13.5q-17 0 -43 3.5t-51.5 12t-43.5 20.5q-2 4 -1 8zM159 -65q-3 -11 -13 -30
t-23 -38.5t-26 -33.5q-3 -4 -5 -4h-11h-14q-1 1 -0.5 2t3.5 6q10 13 23 34.5t20 37.5q-14 0 -18 7.5t-2 18.5q3 13 11.5 21t26.5 8q16 0 23.5 -6.5t4.5 -22.5z" />
    <glyph glyph-name="uni021A" unicode="&#x21a;" horiz-adv-x="430" 
d="M142 0q-3 0 -4.5 2t-0.5 6l130 610q1 4 -0.5 6t-5.5 2h-148q-5 0 -6 1.5t0 5.5l7 33q1 4 2.5 5.5t6.5 1.5h369q5 0 6.5 -1.5t0.5 -5.5l-7 -34q-1 -3 -3 -4.5t-7 -1.5h-150q-4 0 -6 -1.5t-3 -6.5l-130 -611q-1 -7 -7 -7h-44zM181 -65q-3 -11 -13 -30t-23 -38.5t-26 -33.5
q-3 -4 -5 -4h-11h-14q-1 1 -0.5 2t3.5 6q10 13 23 34.5t20 37.5q-14 0 -18 7.5t-2 18.5q3 13 11.5 21t26.5 8q16 0 23.5 -6.5t4.5 -22.5z" />
    <glyph glyph-name="uni021B" unicode="&#x21b;" horiz-adv-x="318" 
d="M170 0q-61 0 -84.5 26t-22.5 73q1 43 10.5 90t20.5 97q7 35 15 68t17 67q2 9 -6 9h-53q-3 0 -4 2t-1 5l6 28q0 3 2.5 5t5.5 2h53q5 0 7.5 2t3.5 8l24 88q2 6 6 6h43q3 0 5 -1.5t1 -4.5l-23 -87q-2 -6 -1 -8.5t6 -2.5h126q4 0 4.5 -1.5t-0.5 -5.5l-5 -28q0 -2 -2.5 -4.5
t-5.5 -2.5h-126q-3 0 -6.5 -2t-4.5 -8q-9 -34 -17.5 -69t-16.5 -71q-8 -41 -17 -85.5t-9 -86.5q-1 -31 14 -47t54 -16q15 0 30.5 3.5t32.5 8.5q6 4 7.5 3t3.5 -6l2 -26q2 -7 -14 -14q-12 -4 -28 -7.5t-31 -5t-22 -1.5zM177 -64q-3 -11 -13 -30t-23 -38.5t-26 -33.5
q-3 -4 -5 -4h-11h-14q-1 1 -0.5 2t3.5 6q10 13 23 34.5t20 37.5q-14 0 -18 7.5t-2 18.5q3 13 11.5 21t26.5 8q16 0 23.5 -6.5t4.5 -22.5z" />
    <glyph glyph-name="circumflex" unicode="&#x2c6;" horiz-adv-x="182" 
d="M68 530q-3 0 -3 2t1 4l82 88q3 3 7 3h39q5 0 6 -3l44 -88q2 -2 0.5 -4t-4.5 -2h-29q-4 0 -6 3l-36 54q-3 4 -7 0l-58 -54q-3 -3 -7 -3h-29z" />
    <glyph glyph-name="caron" unicode="&#x2c7;" horiz-adv-x="183" 
d="M120 530q-5 0 -5 3l-31 88q-1 2 1 4t5 2h28q5 0 5 -3l25 -54q2 -5 7 0l69 54q4 3 8 3h30q3 0 2.5 -2t-2.5 -4l-96 -88q-3 -3 -8 -3h-38z" />
    <glyph glyph-name="breve" unicode="&#x2d8;" horiz-adv-x="184" 
d="M156 528q-45 0 -64.5 19t-12.5 60q1 4 2 5.5t5 1.5h28q4 0 5 -1t0 -5q-3 -24 8 -34t36 -10t40.5 10t21.5 35q0 3 1.5 4t4.5 1h29q3 0 3.5 -1.5t-0.5 -5.5q-9 -38 -34.5 -58.5t-72.5 -20.5z" />
    <glyph glyph-name="dotaccent" unicode="&#x2d9;" horiz-adv-x="66" 
d="M158 669q-2 -16 -9.5 -24t-27.5 -8q-19 0 -25 8t-3 24q2 16 10 24t28 8t25 -8t2 -24z" />
    <glyph glyph-name="ring" unicode="&#x2da;" horiz-adv-x="161" 
d="M236 587q-7 -33 -30.5 -53.5t-66.5 -20.5t-57.5 20.5t-6.5 53.5q7 34 30 53.5t66 19.5q44 0 58.5 -19.5t6.5 -53.5zM205 590q3 16 -3.5 27t-36.5 11q-32 0 -42 -11t-14 -27q-3 -15 2 -29.5t38 -14.5t42.5 14.5t13.5 29.5z" />
    <glyph glyph-name="ogonek" unicode="&#x2db;" horiz-adv-x="164" 
d="M-13 -197q-32 0 -51.5 20t-12.5 51q6 29 26.5 54.5t47 46.5t51.5 35q6 3 11.5 5t10.5 2h31q4 0 4.5 -3t-5.5 -7q-28 -16 -56 -37t-48.5 -44.5t-25.5 -48.5q-4 -19 5 -28t27 -9q19 0 39.5 10t33.5 20q4 4 6.5 3.5t1.5 -4.5l-5 -26q-1 -3 -3.5 -7t-8.5 -8
q-14 -10 -33.5 -17.5t-45.5 -7.5z" />
    <glyph glyph-name="tilde" unicode="&#x2dc;" horiz-adv-x="189" 
d="M68 537q-6 0 -4 5q6 27 25 44t44 17q15 0 27.5 -8.5t24.5 -17.5t21 -9q7 0 14 7t9 17q1 3 2.5 4.5t2.5 1.5h28q6 0 4 -6q-5 -23 -24.5 -41.5t-43.5 -18.5q-16 0 -29.5 9t-24 18t-19.5 9q-8 0 -15.5 -7.5t-9.5 -18.5q-1 -5 -5 -5h-27z" />
    <glyph glyph-name="hungarumlaut" unicode="&#x2dd;" horiz-adv-x="167" 
d="M100 534q-1 -1 -3.5 -2.5t-6.5 -1.5h-23q-4 0 -3.5 2t1.5 5l54 100q3 3 6 3.5t7 0.5h37q3 0 3.5 -1.5t-2.5 -4.5zM179 534q-1 -1 -3.5 -2.5t-6.5 -1.5h-23q-4 0 -3.5 2t1.5 5l62 100q4 4 12 4h38q3 0 3.5 -1.5t-2.5 -4.5z" />
    <glyph glyph-name="gravecomb" unicode="&#x300;" 
d="M145 531q-5 0 -10 5l-51 87q-2 2 -0.5 4t3.5 2h47q4 0 6.5 -1t4.5 -5l34 -86q4 -6 -3 -6h-31z" />
    <glyph glyph-name="acutecomb" unicode="&#x301;" 
d="M67 530q-4 0 -3.5 2t2.5 5l66 87q3 5 12 5h44q3 0 3.5 -1.5t-3.5 -4.5l-80 -89q-2 -2 -4 -3t-6 -1h-31z" />
    <glyph glyph-name="uni0302" unicode="&#x302;" 
d="M68 530q-3 0 -3 2t1 4l82 88q3 3 7 3h39q5 0 6 -3l44 -88q2 -2 0.5 -4t-4.5 -2h-29q-4 0 -6 3l-36 54q-3 4 -7 0l-58 -54q-3 -3 -7 -3h-29z" />
    <glyph glyph-name="tildecomb" unicode="&#x303;" 
d="M68 537q-6 0 -4 5q6 27 25 44t44 17q15 0 27.5 -8.5t24.5 -17.5t21 -9q7 0 14 7t9 17q1 3 2.5 4.5t2.5 1.5h28q6 0 4 -6q-5 -23 -24.5 -41.5t-43.5 -18.5q-16 0 -29.5 9t-24 18t-19.5 9q-8 0 -15.5 -7.5t-9.5 -18.5q-1 -5 -5 -5h-27z" />
    <glyph glyph-name="uni0304" unicode="&#x304;" 
d="M274 548q0 -1 -1 -2t-4 -1h-198q-3 0 -4 1t-1 3l8 32q0 3 1.5 4t4.5 1h198q3 0 3.5 -0.5t0.5 -3.5z" />
    <glyph glyph-name="uni0306" unicode="&#x306;" 
d="M156 528q-45 0 -64.5 19t-12.5 60q1 4 2 5.5t5 1.5h28q4 0 5 -1t0 -5q-3 -24 8 -34t36 -10t40.5 10t21.5 35q0 3 1.5 4t4.5 1h29q3 0 3.5 -1.5t-0.5 -5.5q-9 -38 -34.5 -58.5t-72.5 -20.5z" />
    <glyph glyph-name="uni0307" unicode="&#x307;" 
d="M138 577q-3 -17 -11 -25t-28 -8t-25 8t-1 25q3 15 11.5 23.5t28.5 8.5t24.5 -8.5t0.5 -23.5z" />
    <glyph glyph-name="uni0308" unicode="&#x308;" 
d="M143 573q-3 -14 -11.5 -21.5t-28.5 -7.5q-19 0 -24.5 7.5t-2.5 21.5q3 16 11.5 23t27.5 7q21 0 26 -7t2 -23zM276 573q-2 -14 -10 -21.5t-30 -7.5q-19 0 -24 7.5t-3 21.5q4 16 12.5 23t27.5 7q21 0 26 -7t1 -23z" />
    <glyph glyph-name="hookabovecomb" unicode="&#x309;" 
d="M110 526q-2 0 -3.5 1.5t-0.5 3.5q4 18 14 27t20 14l16.5 11t9.5 15q4 20 -23 20q-12 0 -21.5 -3.5t-19.5 -10.5q-6 -5 -9 0l-8 20q-1 3 4 7q11 10 30 17t40 7q28 0 40.5 -15.5t7.5 -41.5q-5 -20 -17 -30t-23 -15q-9 -4 -15.5 -8t-8.5 -14q-1 -5 -7 -5h-26z" />
    <glyph glyph-name="uni030A" unicode="&#x30a;" 
d="M236 587q-7 -33 -30.5 -53.5t-66.5 -20.5t-57.5 20.5t-6.5 53.5q7 34 30 53.5t66 19.5q44 0 58.5 -19.5t6.5 -53.5zM205 590q3 16 -3.5 27t-36.5 11q-32 0 -42 -11t-14 -27q-3 -15 2 -29.5t38 -14.5t42.5 14.5t13.5 29.5z" />
    <glyph glyph-name="uni030B" unicode="&#x30b;" 
d="M100 534q-1 -1 -3.5 -2.5t-6.5 -1.5h-23q-4 0 -3.5 2t1.5 5l54 100q3 3 6 3.5t7 0.5h37q3 0 3.5 -1.5t-2.5 -4.5zM179 534q-1 -1 -3.5 -2.5t-6.5 -1.5h-23q-4 0 -3.5 2t1.5 5l62 100q4 4 12 4h38q3 0 3.5 -1.5t-2.5 -4.5z" />
    <glyph glyph-name="uni030C" unicode="&#x30c;" 
d="M120 530q-5 0 -5 3l-31 88q-1 2 1 4t5 2h28q5 0 5 -3l25 -54q2 -5 7 0l69 54q4 3 8 3h30q3 0 2.5 -2t-2.5 -4l-96 -88q-3 -3 -8 -3h-38z" />
    <glyph glyph-name="uni0312" unicode="&#x312;" 
d="M74 581q2 15 11.5 37.5t22.5 45.5t25 38q1 3 4 5q4 0 12 0.5t14 0.5q1 -1 0 -3t-4 -6q-5 -8 -13 -24.5t-15.5 -33t-12.5 -29.5q16 2 20 -6t2 -21q-2 -14 -10 -22t-26 -9q-17 -1 -25 5t-5 22z" />
    <glyph glyph-name="uni031B" unicode="&#x31b;" 
d="M166 551q4 2 4 -3q0 -7 -1 -13.5t-3 -12.5q-5 -26 -20.5 -45.5t-40 -30t-59.5 -12.5q-4 0 -2 4l6 30q1 4 5 4q32 2 48 15t21 35q1 4 2 8.5t1 8.5q0 3 4 5z" />
    <glyph glyph-name="dotbelowcomb" unicode="&#x323;" 
d="M-17 -76q-3 -16 -11 -24.5t-28 -8.5t-25 8.5t-1 24.5q3 16 11.5 24t28.5 8t24.5 -8t0.5 -24z" />
    <glyph glyph-name="uni0326" unicode="&#x326;" 
d="M9 -65q-3 -11 -13 -30t-23 -38.5t-26 -33.5q-3 -4 -5 -4h-11h-14q-1 1 -0.5 2t3.5 6q10 13 23 34.5t20 37.5q-14 0 -18 7.5t-2 18.5q3 13 11.5 21t26.5 8q16 0 23.5 -6.5t4.5 -22.5z" />
    <glyph glyph-name="uni0327" unicode="&#x327;" 
d="M89 -118q-5 -27 -32 -48.5t-68 -21.5q-24 0 -42 9.5t-26 23.5q-2 3 -1 7t5 6l18 8q9 3 13 -3q5 -8 16 -14t22 -6q24 0 38 12.5t17 26.5q4 17 -6.5 25t-27 11.5t-31.5 3.5q-6 1 -8 4t2 11l30 60q3 5 7 5.5t6 0.5h19q4 0 2 -7l-25 -62l-4 13q37 -1 60.5 -16.5t15.5 -48.5z
" />
    <glyph glyph-name="uni0328" unicode="&#x328;" 
d="M-13 -197q-32 0 -51.5 20t-12.5 51q6 29 26.5 54.5t47 46.5t51.5 35q6 3 11.5 5t10.5 2h31q4 0 4.5 -3t-5.5 -7q-28 -16 -56 -37t-48.5 -44.5t-25.5 -48.5q-4 -19 5 -28t27 -9q19 0 39.5 10t33.5 20q4 4 6.5 3.5t1.5 -4.5l-5 -26q-1 -3 -3.5 -7t-8.5 -8
q-14 -10 -33.5 -17.5t-45.5 -7.5z" />
    <glyph glyph-name="uni03BC" unicode="&#x3bc;" horiz-adv-x="467" 
d="M198 -4q-23 0 -47 5t-43.5 13.5t-28.5 16.5q-8 -45 -12 -89t-2.5 -81.5t10.5 -60.5h-37h-30q-5 15 -4.5 50t5 81.5t11.5 98t15.5 101t16.5 89.5q10 48 22 95.5t23 86.5t16 60q3 7 6 8.5t10 1.5h32q7 0 8.5 -1t-1.5 -9q-2 -7 -8.5 -32t-15.5 -60.5t-18.5 -76t-17.5 -77.5
q-10 -45 -12 -73t2 -52q12 -21 42 -34t61 -13q9 0 28 1.5t40 6t36.5 12t17.5 18.5l81 383q1 3 2.5 5t3.5 2h45q2 0 4 -1t1 -5l-88 -413q-3 -14 -10.5 -20t-26.5 -14q-9 -4 -32.5 -9.5t-51.5 -9.5t-53 -4z" />
    <glyph glyph-name="pi" unicode="&#x3c0;" horiz-adv-x="651" 
d="M100 0q-4 0 -5.5 2.5t-0.5 7.5l96 449h-60q-6 0 -8 2t-1 7l6 28q1 5 3 6.5t8 1.5h488q6 0 7.5 -1.5t0.5 -6.5l-6 -28q-1 -5 -2.5 -7t-8.5 -2h-60l-96 -449q-2 -5 -3.5 -7.5t-5.5 -2.5h-41q-4 0 -5 2.5t0 7.5l96 449h-257l-96 -449q-1 -5 -3 -7.5t-7 -2.5h-39z" />
    <glyph glyph-name="Wgrave" unicode="&#x1e80;" horiz-adv-x="829" 
d="M182 0q-6 0 -8 2t-2 5q-13 42 -22 106.5t-15.5 139.5t-9 151t-2.5 144t4 117q1 3 2 5.5t6 2.5h42q5 0 5.5 -1.5t0.5 -5.5q-1 -36 -2 -81.5t0 -97.5t3 -111q2 -42 5 -84.5t7 -82.5t8.5 -74t10.5 -59q1 -2 1.5 -5.5t4.5 -3.5h7q2 0 4.5 2.5t4.5 6.5q15 23 35 58.5t42.5 77
t43.5 82.5t38 75.5t27 56.5q6 32 11.5 69t11 72t10 61.5t6.5 37.5q1 4 2 6.5t5 2.5h44q5 0 6 -2t-1 -6q-20 -103 -25 -198t3.5 -191t26.5 -201q1 -4 1.5 -7t3.5 -3h3.5h4.5q3 0 8 8q24 37 51.5 88.5t56 108t54.5 110.5q37 78 70 154t52 129q2 4 3.5 6t4.5 2h45q7 0 3 -10
q-13 -35 -35.5 -88t-50.5 -115t-59 -127.5t-63 -126.5t-61 -112.5t-53 -85.5q-2 -4 -5.5 -6t-7.5 -2h-19h-21.5h-19.5q-3 0 -6 2t-3 5q-9 37 -17.5 88t-14.5 111t-10 123q0 6 -2.5 6.5t-4.5 -5.5q-30 -62 -62 -123.5t-62 -113.5t-53 -85q-3 -5 -6.5 -6.5t-7.5 -1.5h-58z
M524 720q-4 0 -5.5 1.5t-4.5 3.5l-65 73q-1 2 0 4t3 2h47q4 0 6.5 -1.5t5.5 -4.5l48 -71q2 -3 1.5 -5t-4.5 -2h-32z" />
    <glyph glyph-name="wgrave" unicode="&#x1e81;" horiz-adv-x="619" 
d="M131 0q-5 0 -7 1.5t-4 6.5q-18 56 -28.5 118.5t-16 124t-6.5 115.5t1 92q0 7 2.5 10.5t7.5 3.5h39q9 0 8 -9q-2 -32 -1 -75t3.5 -89.5t7 -89.5t10 -75.5t10.5 -47.5q6 -22 20 -5q15 18 34 50t36 67t29.5 65.5t15.5 47.5q4 15 8 37t8.5 44.5t9 41.5t6.5 29q1 9 8 9h43
q3 0 6 -1.5t2 -7.5q-4 -21 -11 -56.5t-19 -89.5q-3 -17 -2 -43.5t4.5 -56.5t8.5 -58.5t9.5 -50t7.5 -31.5q3 -14 14 -1q15 18 35.5 53t43.5 79t45 91t40.5 90t28.5 74q3 9 13 9h40q4 0 5 -3t-1 -10q-12 -32 -30 -74.5t-41.5 -90.5t-50.5 -98.5t-57 -98t-60 -89.5
q-3 -5 -6.5 -6.5t-6.5 -1.5h-38q-5 0 -7 1.5t-4 5.5q-7 26 -15 58.5t-14 64.5t-9 56q-1 8 -5.5 8t-7.5 -7q-10 -18 -22 -39.5t-24.5 -42.5t-24.5 -41q-10 -14 -21 -29.5t-20 -27.5q-2 -4 -5 -5.5t-7 -1.5h-38zM371 531q-5 0 -10 5l-51 87q-2 2 -0.5 4t3.5 2h47q4 0 6.5 -1
t4.5 -5l34 -86q4 -6 -3 -6h-31z" />
    <glyph glyph-name="Wacute" unicode="&#x1e82;" horiz-adv-x="829" 
d="M182 0q-6 0 -8 2t-2 5q-13 42 -22 106.5t-15.5 139.5t-9 151t-2.5 144t4 117q1 3 2 5.5t6 2.5h42q5 0 5.5 -1.5t0.5 -5.5q-1 -36 -2 -81.5t0 -97.5t3 -111q2 -42 5 -84.5t7 -82.5t8.5 -74t10.5 -59q1 -2 1.5 -5.5t4.5 -3.5h7q2 0 4.5 2.5t4.5 6.5q15 23 35 58.5t42.5 77
t43.5 82.5t38 75.5t27 56.5q6 32 11.5 69t11 72t10 61.5t6.5 37.5q1 4 2 6.5t5 2.5h44q5 0 6 -2t-1 -6q-20 -103 -25 -198t3.5 -191t26.5 -201q1 -4 1.5 -7t3.5 -3h3.5h4.5q3 0 8 8q24 37 51.5 88.5t56 108t54.5 110.5q37 78 70 154t52 129q2 4 3.5 6t4.5 2h45q7 0 3 -10
q-13 -35 -35.5 -88t-50.5 -115t-59 -127.5t-63 -126.5t-61 -112.5t-53 -85.5q-2 -4 -5.5 -6t-7.5 -2h-19h-21.5h-19.5q-3 0 -6 2t-3 5q-9 37 -17.5 88t-14.5 111t-10 123q0 6 -2.5 6.5t-4.5 -5.5q-30 -62 -62 -123.5t-62 -113.5t-53 -85q-3 -5 -6.5 -6.5t-7.5 -1.5h-58z
M508 720h-33q-4 0 -4 2t2 5l61 71q3 3 5.5 4.5t6.5 1.5h47q3 0 4 -2t-2 -4l-77 -73q-3 -2 -5 -3.5t-5 -1.5z" />
    <glyph glyph-name="wacute" unicode="&#x1e83;" horiz-adv-x="619" 
d="M131 0q-5 0 -7 1.5t-4 6.5q-18 56 -28.5 118.5t-16 124t-6.5 115.5t1 92q0 7 2.5 10.5t7.5 3.5h39q9 0 8 -9q-2 -32 -1 -75t3.5 -89.5t7 -89.5t10 -75.5t10.5 -47.5q6 -22 20 -5q15 18 34 50t36 67t29.5 65.5t15.5 47.5q4 15 8 37t8.5 44.5t9 41.5t6.5 29q1 9 8 9h43
q3 0 6 -1.5t2 -7.5q-4 -21 -11 -56.5t-19 -89.5q-3 -17 -2 -43.5t4.5 -56.5t8.5 -58.5t9.5 -50t7.5 -31.5q3 -14 14 -1q15 18 35.5 53t43.5 79t45 91t40.5 90t28.5 74q3 9 13 9h40q4 0 5 -3t-1 -10q-12 -32 -30 -74.5t-41.5 -90.5t-50.5 -98.5t-57 -98t-60 -89.5
q-3 -5 -6.5 -6.5t-6.5 -1.5h-38q-5 0 -7 1.5t-4 5.5q-7 26 -15 58.5t-14 64.5t-9 56q-1 8 -5.5 8t-7.5 -7q-10 -18 -22 -39.5t-24.5 -42.5t-24.5 -41q-10 -14 -21 -29.5t-20 -27.5q-2 -4 -5 -5.5t-7 -1.5h-38zM341 530q-4 0 -3.5 2t2.5 5l66 87q3 5 12 5h44q3 0 3.5 -1.5
t-3.5 -4.5l-80 -89q-2 -2 -4 -3t-6 -1h-31z" />
    <glyph glyph-name="Wdieresis" unicode="&#x1e84;" horiz-adv-x="829" 
d="M182 0q-6 0 -8 2t-2 5q-13 42 -22 106.5t-15.5 139.5t-9 151t-2.5 144t4 117q1 3 2 5.5t6 2.5h42q5 0 5.5 -1.5t0.5 -5.5q-1 -36 -2 -81.5t0 -97.5t3 -111q2 -42 5 -84.5t7 -82.5t8.5 -74t10.5 -59q1 -2 1.5 -5.5t4.5 -3.5h7q2 0 4.5 2.5t4.5 6.5q15 23 35 58.5t42.5 77
t43.5 82.5t38 75.5t27 56.5q6 32 11.5 69t11 72t10 61.5t6.5 37.5q1 4 2 6.5t5 2.5h44q5 0 6 -2t-1 -6q-20 -103 -25 -198t3.5 -191t26.5 -201q1 -4 1.5 -7t3.5 -3h3.5h4.5q3 0 8 8q24 37 51.5 88.5t56 108t54.5 110.5q37 78 70 154t52 129q2 4 3.5 6t4.5 2h45q7 0 3 -10
q-13 -35 -35.5 -88t-50.5 -115t-59 -127.5t-63 -126.5t-61 -112.5t-53 -85.5q-2 -4 -5.5 -6t-7.5 -2h-19h-21.5h-19.5q-3 0 -6 2t-3 5q-9 37 -17.5 88t-14.5 111t-10 123q0 6 -2.5 6.5t-4.5 -5.5q-30 -62 -62 -123.5t-62 -113.5t-53 -85q-3 -5 -6.5 -6.5t-7.5 -1.5h-58z
M494 773q-3 -14 -11.5 -21.5t-28.5 -7.5q-19 0 -24.5 7.5t-2.5 21.5q3 16 11.5 23t27.5 7q21 0 26 -7t2 -23zM627 773q-2 -14 -10 -21.5t-30 -7.5q-19 0 -24 7.5t-3 21.5q4 16 12.5 23t27.5 7q21 0 26 -7t1 -23z" />
    <glyph glyph-name="wdieresis" unicode="&#x1e85;" horiz-adv-x="619" 
d="M131 0q-5 0 -7 1.5t-4 6.5q-18 56 -28.5 118.5t-16 124t-6.5 115.5t1 92q0 7 2.5 10.5t7.5 3.5h39q9 0 8 -9q-2 -32 -1 -75t3.5 -89.5t7 -89.5t10 -75.5t10.5 -47.5q6 -22 20 -5q15 18 34 50t36 67t29.5 65.5t15.5 47.5q4 15 8 37t8.5 44.5t9 41.5t6.5 29q1 9 8 9h43
q3 0 6 -1.5t2 -7.5q-4 -21 -11 -56.5t-19 -89.5q-3 -17 -2 -43.5t4.5 -56.5t8.5 -58.5t9.5 -50t7.5 -31.5q3 -14 14 -1q15 18 35.5 53t43.5 79t45 91t40.5 90t28.5 74q3 9 13 9h40q4 0 5 -3t-1 -10q-12 -32 -30 -74.5t-41.5 -90.5t-50.5 -98.5t-57 -98t-60 -89.5
q-3 -5 -6.5 -6.5t-6.5 -1.5h-38q-5 0 -7 1.5t-4 5.5q-7 26 -15 58.5t-14 64.5t-9 56q-1 8 -5.5 8t-7.5 -7q-10 -18 -22 -39.5t-24.5 -42.5t-24.5 -41q-10 -14 -21 -29.5t-20 -27.5q-2 -4 -5 -5.5t-7 -1.5h-38zM346 573q-3 -14 -11.5 -21.5t-28.5 -7.5q-19 0 -24.5 7.5
t-2.5 21.5q3 16 11.5 23t27.5 7q21 0 26 -7t2 -23zM479 573q-2 -14 -10 -21.5t-30 -7.5q-19 0 -24 7.5t-3 21.5q4 16 12.5 23t27.5 7q21 0 26 -7t1 -23z" />
    <glyph glyph-name="uni1E9E" unicode="&#x1e9e;" horiz-adv-x="874" 
d="M15 24l9 39q1 5 4 4l6 -2q19 -7 41 -13t44.5 -9.5t40.5 -3.5q74 0 120 40.5t60 108.5q11 49 -2 76.5t-40 42t-60 22.5q-28 8 -56.5 17.5t-51 27.5t-31.5 49.5t2 82.5q13 61 48 98t83.5 55t102.5 18q13 0 36 -3t48.5 -8.5t42.5 -14.5q4 -1 5.5 -3.5t0.5 -5.5l-7 -33
q-2 -11 -15 -5q-15 8 -37.5 14t-44.5 9.5t-37 3.5q-63 0 -109.5 -31t-59.5 -91q-7 -37 1 -60t27.5 -36.5t44 -21.5t49.5 -16q29 -8 55 -19.5t44 -31t24.5 -51.5t-5.5 -82q-12 -63 -46 -107.5t-85 -68.5t-117 -24q-28 0 -64 7t-65 17q-4 1 -5.5 3t-0.5 6zM416 24l9 39
q1 5 4 4l6 -2q19 -7 41 -13t44.5 -9.5t40.5 -3.5q74 0 120 40.5t60 108.5q11 49 -2 76.5t-40 42t-60 22.5q-28 8 -56.5 17.5t-51 27.5t-31.5 49.5t2 82.5q13 61 48 98t83.5 55t102.5 18q13 0 36 -3t48.5 -8.5t42.5 -14.5q4 -1 5.5 -3.5t0.5 -5.5l-7 -33q-2 -11 -15 -5
q-15 8 -37.5 14t-44.5 9.5t-37 3.5q-63 0 -109.5 -31t-59.5 -91q-7 -37 1 -60t27.5 -36.5t44 -21.5t49.5 -16q29 -8 55 -19.5t44 -31t24.5 -51.5t-5.5 -82q-12 -63 -46 -107.5t-85 -68.5t-117 -24q-28 0 -64 7t-65 17q-4 1 -5.5 3t-0.5 6z" />
    <glyph glyph-name="uni1EA0" unicode="&#x1ea0;" horiz-adv-x="570" 
d="M6 0q-4 0 -4.5 2.5t2.5 9.5q16 48 44.5 115t63.5 142.5t73 150.5t74 139t66 106q4 4 7 6t6 2h79q4 -1 6.5 -2t3.5 -6q12 -41 20.5 -105.5t14 -140.5t9 -153t3.5 -143t-4 -110q0 -8 -1 -10.5t-6 -2.5h-44q-4 0 -4.5 2t-1.5 8q2 28 2.5 66t0.5 80q1 6 -1.5 7.5t-8.5 1.5
h-274q-5 0 -8 -2t-6 -8q-16 -41 -32 -79t-27 -66q-2 -6 -3.5 -8t-5.5 -2h-44zM155 212h248q4 0 7 3.5t4 12.5q-4 94 -9 188.5t-23 181.5q-1 6 -8 6h-21q-7 0 -12 -7q-26 -43 -60 -105.5t-68 -132.5t-64 -136q-1 -3 -1 -7t7 -4zM252 -76q-3 -16 -11 -24.5t-28 -8.5t-25 8.5
t-1 24.5q3 16 11.5 24t28.5 8t24.5 -8t0.5 -24z" />
    <glyph glyph-name="uni1EA1" unicode="&#x1ea1;" horiz-adv-x="483" 
d="M180 -6q-95 0 -130 57.5t-9 178.5q16 76 44.5 123.5t63 73.5t70.5 36t69 10q35 0 68.5 -12t47.5 -24l6 28q1 3 3 4t4 1h43q6 0 6 -6q-3 -18 -9 -49.5t-15 -72.5t-20 -89.5t-25 -102.5t-30 -110q-2 -6 -5.5 -11t-16.5 -9q-31 -11 -77 -18.5t-88 -7.5zM198 39q18 0 40 4
t40 8.5t24 5.5q6 2 12.5 6.5t9.5 15.5q7 25 15 58.5t16.5 70t16 71t13.5 60.5t7 37q2 6 -0.5 10.5t-10.5 8.5q-19 10 -44 19t-58 9q-21 0 -47 -7t-52 -26t-47.5 -58t-35.5 -102q-22 -106 3.5 -148.5t97.5 -42.5zM197 -76q-3 -16 -11 -24.5t-28 -8.5t-25 8.5t-1 24.5
q3 16 11.5 24t28.5 8t24.5 -8t0.5 -24z" />
    <glyph glyph-name="uni1EA2" unicode="&#x1ea2;" horiz-adv-x="570" 
d="M6 0q-4 0 -4.5 2.5t2.5 9.5q16 48 44.5 115t63.5 142.5t73 150.5t74 139t66 106q4 4 7 6t6 2h79q4 -1 6.5 -2t3.5 -6q12 -41 20.5 -105.5t14 -140.5t9 -153t3.5 -143t-4 -110q0 -8 -1 -10.5t-6 -2.5h-44q-4 0 -4.5 2t-1.5 8q2 28 2.5 66t0.5 80q1 6 -1.5 7.5t-8.5 1.5
h-274q-5 0 -8 -2t-6 -8q-16 -41 -32 -79t-27 -66q-2 -6 -3.5 -8t-5.5 -2h-44zM155 212h248q4 0 7 3.5t4 12.5q-4 94 -9 188.5t-23 181.5q-1 6 -8 6h-21q-7 0 -12 -7q-26 -43 -60 -105.5t-68 -132.5t-64 -136q-1 -3 -1 -7t7 -4zM369 715q-1 0 -2.5 1.5t-1.5 2.5
q5 20 15.5 28.5t19.5 13.5t16.5 10t9.5 15q5 22 -24 22q-11 0 -22 -4t-21 -11q-6 -4 -8 1l-6 18q-1 2 0.5 3.5l2.5 2.5q12 11 30.5 17t37.5 6q27 0 39 -14.5t7 -39.5q-4 -20 -15.5 -29.5t-24.5 -15.5q-8 -4 -15 -8t-9 -15q0 -4 -6 -4h-23z" />
    <glyph glyph-name="uni1EA3" unicode="&#x1ea3;" horiz-adv-x="483" 
d="M180 -6q-95 0 -130 57.5t-9 178.5q16 76 44.5 123.5t63 73.5t70.5 36t69 10q35 0 68.5 -12t47.5 -24l6 28q1 3 3 4t4 1h43q6 0 6 -6q-3 -18 -9 -49.5t-15 -72.5t-20 -89.5t-25 -102.5t-30 -110q-2 -6 -5.5 -11t-16.5 -9q-31 -11 -77 -18.5t-88 -7.5zM198 39q18 0 40 4
t40 8.5t24 5.5q6 2 12.5 6.5t9.5 15.5q7 25 15 58.5t16.5 70t16 71t13.5 60.5t7 37q2 6 -0.5 10.5t-10.5 8.5q-19 10 -44 19t-58 9q-21 0 -47 -7t-52 -26t-47.5 -58t-35.5 -102q-22 -106 3.5 -148.5t97.5 -42.5zM319 525q-2 0 -3.5 1.5t-0.5 3.5q4 18 14 27t20 14l16.5 11
t9.5 15q4 20 -23 20q-12 0 -21.5 -3.5t-19.5 -10.5q-6 -5 -9 0l-8 20q-1 3 4 7q11 10 30 17t40 7q28 0 40.5 -15.5t7.5 -41.5q-5 -20 -17 -30t-23 -15q-9 -4 -15.5 -8t-8.5 -14q-1 -5 -7 -5h-26z" />
    <glyph glyph-name="uni1EA4" unicode="&#x1ea4;" horiz-adv-x="570" 
d="M6 0q-4 0 -4.5 2.5t2.5 9.5q16 48 44.5 115t63.5 142.5t73 150.5t74 139t66 106q4 4 7 6t6 2h79q4 -1 6.5 -2t3.5 -6q12 -41 20.5 -105.5t14 -140.5t9 -153t3.5 -143t-4 -110q0 -8 -1 -10.5t-6 -2.5h-44q-4 0 -4.5 2t-1.5 8q2 28 2.5 66t0.5 80q1 6 -1.5 7.5t-8.5 1.5
h-274q-5 0 -8 -2t-6 -8q-16 -41 -32 -79t-27 -66q-2 -6 -3.5 -8t-5.5 -2h-44zM155 212h248q4 0 7 3.5t4 12.5q-4 94 -9 188.5t-23 181.5q-1 6 -8 6h-21q-7 0 -12 -7q-26 -43 -60 -105.5t-68 -132.5t-64 -136q-1 -3 -1 -7t7 -4zM299 719q-3 0 -3 2.5t2 4.5l80 75q3 4 8 4h40
q4 0 6 -4l48 -75q1 -2 -0.5 -4.5t-4.5 -2.5h-28q-2 0 -3.5 1.5t-4.5 2.5l-37 44q-1 3 -8 0l-57 -44q-1 -1 -3.5 -2.5t-5.5 -1.5h-29zM526 770h-33q-4 0 -4 2t2 5l61 71q3 3 5.5 4.5t6.5 1.5h47q3 0 4 -2t-2 -4l-77 -73q-3 -2 -5 -3.5t-5 -1.5z" />
    <glyph glyph-name="uni1EA5" unicode="&#x1ea5;" horiz-adv-x="483" 
d="M180 -6q-95 0 -130 57.5t-9 178.5q16 76 44.5 123.5t63 73.5t70.5 36t69 10q35 0 68.5 -12t47.5 -24l6 28q1 3 3 4t4 1h43q6 0 6 -6q-3 -18 -9 -49.5t-15 -72.5t-20 -89.5t-25 -102.5t-30 -110q-2 -6 -5.5 -11t-16.5 -9q-31 -11 -77 -18.5t-88 -7.5zM198 39q18 0 40 4
t40 8.5t24 5.5q6 2 12.5 6.5t9.5 15.5q7 25 15 58.5t16.5 70t16 71t13.5 60.5t7 37q2 6 -0.5 10.5t-10.5 8.5q-19 10 -44 19t-58 9q-21 0 -47 -7t-52 -26t-47.5 -58t-35.5 -102q-22 -106 3.5 -148.5t97.5 -42.5zM244 530q-3 0 -3 2t1 4l82 88q3 3 7 3h39q5 0 6 -3l44 -88
q2 -2 0.5 -4t-4.5 -2h-29q-4 0 -6 3l-36 54q-3 4 -7 0l-58 -54q-3 -3 -7 -3h-29zM447 588q-4 0 -3.5 2t2.5 5l66 87q3 5 12 5h44q3 0 3.5 -1.5t-3.5 -4.5l-80 -89q-2 -2 -4 -3t-6 -1h-31z" />
    <glyph glyph-name="uni1EA6" unicode="&#x1ea6;" horiz-adv-x="570" 
d="M6 0q-4 0 -4.5 2.5t2.5 9.5q16 48 44.5 115t63.5 142.5t73 150.5t74 139t66 106q4 4 7 6t6 2h79q4 -1 6.5 -2t3.5 -6q12 -41 20.5 -105.5t14 -140.5t9 -153t3.5 -143t-4 -110q0 -8 -1 -10.5t-6 -2.5h-44q-4 0 -4.5 2t-1.5 8q2 28 2.5 66t0.5 80q1 6 -1.5 7.5t-8.5 1.5
h-274q-5 0 -8 -2t-6 -8q-16 -41 -32 -79t-27 -66q-2 -6 -3.5 -8t-5.5 -2h-44zM155 212h248q4 0 7 3.5t4 12.5q-4 94 -9 188.5t-23 181.5q-1 6 -8 6h-21q-7 0 -12 -7q-26 -43 -60 -105.5t-68 -132.5t-64 -136q-1 -3 -1 -7t7 -4zM299 719q-3 0 -3 2.5t2 4.5l80 75q3 4 8 4h40
q4 0 6 -4l48 -75q1 -2 -0.5 -4.5t-4.5 -2.5h-28q-2 0 -3.5 1.5t-4.5 2.5l-37 44q-1 3 -8 0l-57 -44q-1 -1 -3.5 -2.5t-5.5 -1.5h-29zM516 781q-4 0 -5.5 1.5t-4.5 3.5l-65 73q-1 2 0 4t3 2h47q4 0 6.5 -1.5t5.5 -4.5l48 -71q2 -3 1.5 -5t-4.5 -2h-32z" />
    <glyph glyph-name="uni1EA7" unicode="&#x1ea7;" horiz-adv-x="483" 
d="M180 -6q-95 0 -130 57.5t-9 178.5q16 76 44.5 123.5t63 73.5t70.5 36t69 10q35 0 68.5 -12t47.5 -24l6 28q1 3 3 4t4 1h43q6 0 6 -6q-3 -18 -9 -49.5t-15 -72.5t-20 -89.5t-25 -102.5t-30 -110q-2 -6 -5.5 -11t-16.5 -9q-31 -11 -77 -18.5t-88 -7.5zM198 39q18 0 40 4
t40 8.5t24 5.5q6 2 12.5 6.5t9.5 15.5q7 25 15 58.5t16.5 70t16 71t13.5 60.5t7 37q2 6 -0.5 10.5t-10.5 8.5q-19 10 -44 19t-58 9q-21 0 -47 -7t-52 -26t-47.5 -58t-35.5 -102q-22 -106 3.5 -148.5t97.5 -42.5zM244 530q-3 0 -3 2t1 4l82 88q3 3 7 3h39q5 0 6 -3l44 -88
q2 -2 0.5 -4t-4.5 -2h-29q-4 0 -6 3l-36 54q-3 4 -7 0l-58 -54q-3 -3 -7 -3h-29zM477 589q-5 0 -10 5l-51 87q-2 2 -0.5 4t3.5 2h47q4 0 6.5 -1t4.5 -5l34 -86q4 -6 -3 -6h-31z" />
    <glyph glyph-name="uni1EA8" unicode="&#x1ea8;" horiz-adv-x="570" 
d="M6 0q-4 0 -4.5 2.5t2.5 9.5q16 48 44.5 115t63.5 142.5t73 150.5t74 139t66 106q4 4 7 6t6 2h79q4 -1 6.5 -2t3.5 -6q12 -41 20.5 -105.5t14 -140.5t9 -153t3.5 -143t-4 -110q0 -8 -1 -10.5t-6 -2.5h-44q-4 0 -4.5 2t-1.5 8q2 28 2.5 66t0.5 80q1 6 -1.5 7.5t-8.5 1.5
h-274q-5 0 -8 -2t-6 -8q-16 -41 -32 -79t-27 -66q-2 -6 -3.5 -8t-5.5 -2h-44zM155 212h248q4 0 7 3.5t4 12.5q-4 94 -9 188.5t-23 181.5q-1 6 -8 6h-21q-7 0 -12 -7q-26 -43 -60 -105.5t-68 -132.5t-64 -136q-1 -3 -1 -7t7 -4zM299 719q-3 0 -3 2.5t2 4.5l80 75q3 4 8 4h40
q4 0 6 -4l48 -75q1 -2 -0.5 -4.5t-4.5 -2.5h-28q-2 0 -3.5 1.5t-4.5 2.5l-37 44q-1 3 -8 0l-57 -44q-1 -1 -3.5 -2.5t-5.5 -1.5h-29zM498 769q-1 0 -2.5 1.5t-1.5 2.5q5 20 15.5 28.5t19.5 13.5t16.5 10t9.5 15q5 22 -24 22q-11 0 -22 -4t-21 -11q-6 -4 -8 1l-6 18
q-1 2 0.5 3.5l2.5 2.5q12 11 30.5 17t37.5 6q27 0 39 -14.5t7 -39.5q-4 -20 -15.5 -29.5t-24.5 -15.5q-8 -4 -15 -8t-9 -15q0 -4 -6 -4h-23z" />
    <glyph glyph-name="uni1EA9" unicode="&#x1ea9;" horiz-adv-x="483" 
d="M180 -6q-95 0 -130 57.5t-9 178.5q16 76 44.5 123.5t63 73.5t70.5 36t69 10q35 0 68.5 -12t47.5 -24l6 28q1 3 3 4t4 1h43q6 0 6 -6q-3 -18 -9 -49.5t-15 -72.5t-20 -89.5t-25 -102.5t-30 -110q-2 -6 -5.5 -11t-16.5 -9q-31 -11 -77 -18.5t-88 -7.5zM198 39q18 0 40 4
t40 8.5t24 5.5q6 2 12.5 6.5t9.5 15.5q7 25 15 58.5t16.5 70t16 71t13.5 60.5t7 37q2 6 -0.5 10.5t-10.5 8.5q-19 10 -44 19t-58 9q-21 0 -47 -7t-52 -26t-47.5 -58t-35.5 -102q-22 -106 3.5 -148.5t97.5 -42.5zM244 530q-3 0 -3 2t1 4l82 88q3 3 7 3h39q5 0 6 -3l44 -88
q2 -2 0.5 -4t-4.5 -2h-29q-4 0 -6 3l-36 54q-3 4 -7 0l-58 -54q-3 -3 -7 -3h-29zM443 586q-2 0 -3.5 1.5t-0.5 3.5q4 18 14 27t20 14l16.5 11t9.5 15q4 20 -23 20q-12 0 -21.5 -3.5t-19.5 -10.5q-6 -5 -9 0l-8 20q-1 3 4 7q11 10 30 17t40 7q28 0 40.5 -15.5t7.5 -41.5
q-5 -20 -17 -30t-23 -15q-9 -4 -15.5 -8t-8.5 -14q-1 -5 -7 -5h-26z" />
    <glyph glyph-name="uni1EAA" unicode="&#x1eaa;" horiz-adv-x="570" 
d="M6 0q-4 0 -4.5 2.5t2.5 9.5q16 48 44.5 115t63.5 142.5t73 150.5t74 139t66 106q4 4 7 6t6 2h79q4 -1 6.5 -2t3.5 -6q12 -41 20.5 -105.5t14 -140.5t9 -153t3.5 -143t-4 -110q0 -8 -1 -10.5t-6 -2.5h-44q-4 0 -4.5 2t-1.5 8q2 28 2.5 66t0.5 80q1 6 -1.5 7.5t-8.5 1.5
h-274q-5 0 -8 -2t-6 -8q-16 -41 -32 -79t-27 -66q-2 -6 -3.5 -8t-5.5 -2h-44zM155 212h248q4 0 7 3.5t4 12.5q-4 94 -9 188.5t-23 181.5q-1 6 -8 6h-21q-7 0 -12 -7q-26 -43 -60 -105.5t-68 -132.5t-64 -136q-1 -3 -1 -7t7 -4zM299 719q-3 0 -3 2.5t2 4.5l80 75q3 4 8 4h40
q4 0 6 -4l48 -75q1 -2 -0.5 -4.5t-4.5 -2.5h-28q-2 0 -3.5 1.5t-4.5 2.5l-37 44q-1 3 -8 0l-57 -44q-1 -1 -3.5 -2.5t-5.5 -1.5h-29zM326 824q-6 0 -4 5q6 27 25 45t42 18q14 0 26 -9.5t23.5 -19t20.5 -9.5q6 0 12.5 8t9.5 19q1 6 5 6h26q5 0 4 -6q-5 -23 -23.5 -42.5
t-42.5 -19.5q-16 0 -28.5 9.5t-22 19t-18.5 9.5t-16 -8.5t-9 -19.5q0 -5 -5 -5h-25z" />
    <glyph glyph-name="uni1EAB" unicode="&#x1eab;" horiz-adv-x="483" 
d="M180 -6q-95 0 -130 57.5t-9 178.5q16 76 44.5 123.5t63 73.5t70.5 36t69 10q35 0 68.5 -12t47.5 -24l6 28q1 3 3 4t4 1h43q6 0 6 -6q-3 -18 -9 -49.5t-15 -72.5t-20 -89.5t-25 -102.5t-30 -110q-2 -6 -5.5 -11t-16.5 -9q-31 -11 -77 -18.5t-88 -7.5zM198 39q18 0 40 4
t40 8.5t24 5.5q6 2 12.5 6.5t9.5 15.5q7 25 15 58.5t16.5 70t16 71t13.5 60.5t7 37q2 6 -0.5 10.5t-10.5 8.5q-19 10 -44 19t-58 9q-21 0 -47 -7t-52 -26t-47.5 -58t-35.5 -102q-22 -106 3.5 -148.5t97.5 -42.5zM244 530q-3 0 -3 2t1 4l82 88q3 3 7 3h39q5 0 6 -3l44 -88
q2 -2 0.5 -4t-4.5 -2h-29q-4 0 -6 3l-36 54q-3 4 -7 0l-58 -54q-3 -3 -7 -3h-29zM267 654q-6 0 -4 5q6 27 25 44t44 17q15 0 27.5 -8.5t24.5 -17.5t21 -9q7 0 14 7t9 17q1 3 2.5 4.5t2.5 1.5h28q6 0 4 -6q-5 -23 -24.5 -41.5t-43.5 -18.5q-16 0 -29.5 9t-24 18t-19.5 9
q-8 0 -15.5 -7.5t-9.5 -18.5q-1 -5 -5 -5h-27z" />
    <glyph glyph-name="uni1EAC" unicode="&#x1eac;" horiz-adv-x="570" 
d="M6 0q-4 0 -4.5 2.5t2.5 9.5q16 48 44.5 115t63.5 142.5t73 150.5t74 139t66 106q4 4 7 6t6 2h79q4 -1 6.5 -2t3.5 -6q12 -41 20.5 -105.5t14 -140.5t9 -153t3.5 -143t-4 -110q0 -8 -1 -10.5t-6 -2.5h-44q-4 0 -4.5 2t-1.5 8q2 28 2.5 66t0.5 80q1 6 -1.5 7.5t-8.5 1.5
h-274q-5 0 -8 -2t-6 -8q-16 -41 -32 -79t-27 -66q-2 -6 -3.5 -8t-5.5 -2h-44zM155 212h248q4 0 7 3.5t4 12.5q-4 94 -9 188.5t-23 181.5q-1 6 -8 6h-21q-7 0 -12 -7q-26 -43 -60 -105.5t-68 -132.5t-64 -136q-1 -3 -1 -7t7 -4zM252 -76q-3 -16 -11 -24.5t-28 -8.5t-25 8.5
t-1 24.5q3 16 11.5 24t28.5 8t24.5 -8t0.5 -24zM299 719q-3 0 -3 2.5t2 4.5l80 75q3 4 8 4h40q4 0 6 -4l48 -75q1 -2 -0.5 -4.5t-4.5 -2.5h-28q-2 0 -3.5 1.5t-4.5 2.5l-37 44q-1 3 -8 0l-57 -44q-1 -1 -3.5 -2.5t-5.5 -1.5h-29z" />
    <glyph glyph-name="uni1EAD" unicode="&#x1ead;" horiz-adv-x="483" 
d="M180 -6q-95 0 -130 57.5t-9 178.5q16 76 44.5 123.5t63 73.5t70.5 36t69 10q35 0 68.5 -12t47.5 -24l6 28q1 3 3 4t4 1h43q6 0 6 -6q-3 -18 -9 -49.5t-15 -72.5t-20 -89.5t-25 -102.5t-30 -110q-2 -6 -5.5 -11t-16.5 -9q-31 -11 -77 -18.5t-88 -7.5zM198 39q18 0 40 4
t40 8.5t24 5.5q6 2 12.5 6.5t9.5 15.5q7 25 15 58.5t16.5 70t16 71t13.5 60.5t7 37q2 6 -0.5 10.5t-10.5 8.5q-19 10 -44 19t-58 9q-21 0 -47 -7t-52 -26t-47.5 -58t-35.5 -102q-22 -106 3.5 -148.5t97.5 -42.5zM197 -76q-3 -16 -11 -24.5t-28 -8.5t-25 8.5t-1 24.5
q3 16 11.5 24t28.5 8t24.5 -8t0.5 -24zM244 530q-3 0 -3 2t1 4l82 88q3 3 7 3h39q5 0 6 -3l44 -88q2 -2 0.5 -4t-4.5 -2h-29q-4 0 -6 3l-36 54q-3 4 -7 0l-58 -54q-3 -3 -7 -3h-29z" />
    <glyph glyph-name="uni1EAE" unicode="&#x1eae;" horiz-adv-x="570" 
d="M6 0q-4 0 -4.5 2.5t2.5 9.5q16 48 44.5 115t63.5 142.5t73 150.5t74 139t66 106q4 4 7 6t6 2h79q4 -1 6.5 -2t3.5 -6q12 -41 20.5 -105.5t14 -140.5t9 -153t3.5 -143t-4 -110q0 -8 -1 -10.5t-6 -2.5h-44q-4 0 -4.5 2t-1.5 8q2 28 2.5 66t0.5 80q1 6 -1.5 7.5t-8.5 1.5
h-274q-5 0 -8 -2t-6 -8q-16 -41 -32 -79t-27 -66q-2 -6 -3.5 -8t-5.5 -2h-44zM155 212h248q4 0 7 3.5t4 12.5q-4 94 -9 188.5t-23 181.5q-1 6 -8 6h-21q-7 0 -12 -7q-26 -43 -60 -105.5t-68 -132.5t-64 -136q-1 -3 -1 -7t7 -4zM387 716q-41 0 -58.5 19.5t-10.5 59.5
q0 2 1.5 4t4.5 2h26q3 0 4 -1t1 -4q-4 -25 6.5 -35t32.5 -10t37.5 10.5t20.5 35.5q1 2 2.5 3t3.5 1h26q2 0 3 -1t0 -5q-8 -38 -32.5 -58.5t-67.5 -20.5zM401 832h-33q-4 0 -4 2t2 5l61 71q3 3 5.5 4.5t6.5 1.5h47q3 0 4 -2t-2 -4l-77 -73q-3 -2 -5 -3.5t-5 -1.5z" />
    <glyph glyph-name="uni1EAF" unicode="&#x1eaf;" horiz-adv-x="483" 
d="M180 -6q-95 0 -130 57.5t-9 178.5q16 76 44.5 123.5t63 73.5t70.5 36t69 10q35 0 68.5 -12t47.5 -24l6 28q1 3 3 4t4 1h43q6 0 6 -6q-3 -18 -9 -49.5t-15 -72.5t-20 -89.5t-25 -102.5t-30 -110q-2 -6 -5.5 -11t-16.5 -9q-31 -11 -77 -18.5t-88 -7.5zM198 39q18 0 40 4
t40 8.5t24 5.5q6 2 12.5 6.5t9.5 15.5q7 25 15 58.5t16.5 70t16 71t13.5 60.5t7 37q2 6 -0.5 10.5t-10.5 8.5q-19 10 -44 19t-58 9q-21 0 -47 -7t-52 -26t-47.5 -58t-35.5 -102q-22 -106 3.5 -148.5t97.5 -42.5zM333 528q-45 0 -64.5 19t-12.5 60q1 4 2 5.5t5 1.5h28
q4 0 5 -1t0 -5q-3 -24 8 -34t36 -10t40.5 10t21.5 35q0 3 1.5 4t4.5 1h29q3 0 3.5 -1.5t-0.5 -5.5q-9 -38 -34.5 -58.5t-72.5 -20.5zM325 640q-4 0 -3.5 2t2.5 5l66 87q3 5 12 5h44q3 0 3.5 -1.5t-3.5 -4.5l-80 -89q-2 -2 -4 -3t-6 -1h-31z" />
    <glyph glyph-name="uni1EB0" unicode="&#x1eb0;" horiz-adv-x="570" 
d="M6 0q-4 0 -4.5 2.5t2.5 9.5q16 48 44.5 115t63.5 142.5t73 150.5t74 139t66 106q4 4 7 6t6 2h79q4 -1 6.5 -2t3.5 -6q12 -41 20.5 -105.5t14 -140.5t9 -153t3.5 -143t-4 -110q0 -8 -1 -10.5t-6 -2.5h-44q-4 0 -4.5 2t-1.5 8q2 28 2.5 66t0.5 80q1 6 -1.5 7.5t-8.5 1.5
h-274q-5 0 -8 -2t-6 -8q-16 -41 -32 -79t-27 -66q-2 -6 -3.5 -8t-5.5 -2h-44zM155 212h248q4 0 7 3.5t4 12.5q-4 94 -9 188.5t-23 181.5q-1 6 -8 6h-21q-7 0 -12 -7q-26 -43 -60 -105.5t-68 -132.5t-64 -136q-1 -3 -1 -7t7 -4zM387 716q-41 0 -58.5 19.5t-10.5 59.5
q0 2 1.5 4t4.5 2h26q3 0 4 -1t1 -4q-4 -25 6.5 -35t32.5 -10t37.5 10.5t20.5 35.5q1 2 2.5 3t3.5 1h26q2 0 3 -1t0 -5q-8 -38 -32.5 -58.5t-67.5 -20.5zM418 832q-4 0 -5.5 1.5t-4.5 3.5l-65 73q-1 2 0 4t3 2h47q4 0 6.5 -1.5t5.5 -4.5l48 -71q2 -3 1.5 -5t-4.5 -2h-32z" />
    <glyph glyph-name="uni1EB1" unicode="&#x1eb1;" horiz-adv-x="483" 
d="M180 -6q-95 0 -130 57.5t-9 178.5q16 76 44.5 123.5t63 73.5t70.5 36t69 10q35 0 68.5 -12t47.5 -24l6 28q1 3 3 4t4 1h43q6 0 6 -6q-3 -18 -9 -49.5t-15 -72.5t-20 -89.5t-25 -102.5t-30 -110q-2 -6 -5.5 -11t-16.5 -9q-31 -11 -77 -18.5t-88 -7.5zM198 39q18 0 40 4
t40 8.5t24 5.5q6 2 12.5 6.5t9.5 15.5q7 25 15 58.5t16.5 70t16 71t13.5 60.5t7 37q2 6 -0.5 10.5t-10.5 8.5q-19 10 -44 19t-58 9q-21 0 -47 -7t-52 -26t-47.5 -58t-35.5 -102q-22 -106 3.5 -148.5t97.5 -42.5zM333 528q-45 0 -64.5 19t-12.5 60q1 4 2 5.5t5 1.5h28
q4 0 5 -1t0 -5q-3 -24 8 -34t36 -10t40.5 10t21.5 35q0 3 1.5 4t4.5 1h29q3 0 3.5 -1.5t-0.5 -5.5q-9 -38 -34.5 -58.5t-72.5 -20.5zM356 641q-5 0 -10 5l-51 87q-2 2 -0.5 4t3.5 2h47q4 0 6.5 -1t4.5 -5l34 -86q4 -6 -3 -6h-31z" />
    <glyph glyph-name="uni1EB2" unicode="&#x1eb2;" horiz-adv-x="570" 
d="M6 0q-4 0 -4.5 2.5t2.5 9.5q16 48 44.5 115t63.5 142.5t73 150.5t74 139t66 106q4 4 7 6t6 2h79q4 -1 6.5 -2t3.5 -6q12 -41 20.5 -105.5t14 -140.5t9 -153t3.5 -143t-4 -110q0 -8 -1 -10.5t-6 -2.5h-44q-4 0 -4.5 2t-1.5 8q2 28 2.5 66t0.5 80q1 6 -1.5 7.5t-8.5 1.5
h-274q-5 0 -8 -2t-6 -8q-16 -41 -32 -79t-27 -66q-2 -6 -3.5 -8t-5.5 -2h-44zM155 212h248q4 0 7 3.5t4 12.5q-4 94 -9 188.5t-23 181.5q-1 6 -8 6h-21q-7 0 -12 -7q-26 -43 -60 -105.5t-68 -132.5t-64 -136q-1 -3 -1 -7t7 -4zM387 716q-41 0 -58.5 19.5t-10.5 59.5
q0 2 1.5 4t4.5 2h26q3 0 4 -1t1 -4q-4 -25 6.5 -35t32.5 -10t37.5 10.5t20.5 35.5q1 2 2.5 3t3.5 1h26q2 0 3 -1t0 -5q-8 -38 -32.5 -58.5t-67.5 -20.5zM393 827q-1 0 -2.5 1.5t-1.5 2.5q5 20 15.5 28.5t19.5 13.5t16.5 10t9.5 15q5 22 -24 22q-11 0 -22 -4t-21 -11
q-6 -4 -8 1l-6 18q-1 2 0.5 3.5l2.5 2.5q12 11 30.5 17t37.5 6q27 0 39 -14.5t7 -39.5q-4 -20 -15.5 -29.5t-24.5 -15.5q-8 -4 -15 -8t-9 -15q0 -4 -6 -4h-23z" />
    <glyph glyph-name="uni1EB3" unicode="&#x1eb3;" horiz-adv-x="483" 
d="M180 -6q-95 0 -130 57.5t-9 178.5q16 76 44.5 123.5t63 73.5t70.5 36t69 10q35 0 68.5 -12t47.5 -24l6 28q1 3 3 4t4 1h43q6 0 6 -6q-3 -18 -9 -49.5t-15 -72.5t-20 -89.5t-25 -102.5t-30 -110q-2 -6 -5.5 -11t-16.5 -9q-31 -11 -77 -18.5t-88 -7.5zM198 39q18 0 40 4
t40 8.5t24 5.5q6 2 12.5 6.5t9.5 15.5q7 25 15 58.5t16.5 70t16 71t13.5 60.5t7 37q2 6 -0.5 10.5t-10.5 8.5q-19 10 -44 19t-58 9q-21 0 -47 -7t-52 -26t-47.5 -58t-35.5 -102q-22 -106 3.5 -148.5t97.5 -42.5zM333 528q-45 0 -64.5 19t-12.5 60q1 4 2 5.5t5 1.5h28
q4 0 5 -1t0 -5q-3 -24 8 -34t36 -10t40.5 10t21.5 35q0 3 1.5 4t4.5 1h29q3 0 3.5 -1.5t-0.5 -5.5q-9 -38 -34.5 -58.5t-72.5 -20.5zM343 635q-2 0 -3.5 1.5t-0.5 3.5q4 18 14 27t20 14l16.5 11t9.5 15q4 20 -23 20q-12 0 -21.5 -3.5t-19.5 -10.5q-6 -5 -9 0l-8 20q-1 3 4 7
q11 10 30 17t40 7q28 0 40.5 -15.5t7.5 -41.5q-5 -20 -17 -30t-23 -15q-9 -4 -15.5 -8t-8.5 -14q-1 -5 -7 -5h-26z" />
    <glyph glyph-name="uni1EB4" unicode="&#x1eb4;" horiz-adv-x="570" 
d="M6 0q-4 0 -4.5 2.5t2.5 9.5q16 48 44.5 115t63.5 142.5t73 150.5t74 139t66 106q4 4 7 6t6 2h79q4 -1 6.5 -2t3.5 -6q12 -41 20.5 -105.5t14 -140.5t9 -153t3.5 -143t-4 -110q0 -8 -1 -10.5t-6 -2.5h-44q-4 0 -4.5 2t-1.5 8q2 28 2.5 66t0.5 80q1 6 -1.5 7.5t-8.5 1.5
h-274q-5 0 -8 -2t-6 -8q-16 -41 -32 -79t-27 -66q-2 -6 -3.5 -8t-5.5 -2h-44zM155 212h248q4 0 7 3.5t4 12.5q-4 94 -9 188.5t-23 181.5q-1 6 -8 6h-21q-7 0 -12 -7q-26 -43 -60 -105.5t-68 -132.5t-64 -136q-1 -3 -1 -7t7 -4zM387 716q-41 0 -58.5 19.5t-10.5 59.5
q0 2 1.5 4t4.5 2h26q3 0 4 -1t1 -4q-4 -25 6.5 -35t32.5 -10t37.5 10.5t20.5 35.5q1 2 2.5 3t3.5 1h26q2 0 3 -1t0 -5q-8 -38 -32.5 -58.5t-67.5 -20.5zM325 833q-6 0 -4 5q6 27 25 45t42 18q14 0 26 -9.5t23.5 -19t20.5 -9.5q6 0 12.5 8t9.5 19q1 6 5 6h26q5 0 4 -6
q-5 -23 -23.5 -42.5t-42.5 -19.5q-16 0 -28.5 9.5t-22 19t-18.5 9.5t-16 -8.5t-9 -19.5q0 -5 -5 -5h-25z" />
    <glyph glyph-name="uni1EB5" unicode="&#x1eb5;" horiz-adv-x="483" 
d="M180 -6q-95 0 -130 57.5t-9 178.5q16 76 44.5 123.5t63 73.5t70.5 36t69 10q35 0 68.5 -12t47.5 -24l6 28q1 3 3 4t4 1h43q6 0 6 -6q-3 -18 -9 -49.5t-15 -72.5t-20 -89.5t-25 -102.5t-30 -110q-2 -6 -5.5 -11t-16.5 -9q-31 -11 -77 -18.5t-88 -7.5zM198 39q18 0 40 4
t40 8.5t24 5.5q6 2 12.5 6.5t9.5 15.5q7 25 15 58.5t16.5 70t16 71t13.5 60.5t7 37q2 6 -0.5 10.5t-10.5 8.5q-19 10 -44 19t-58 9q-21 0 -47 -7t-52 -26t-47.5 -58t-35.5 -102q-22 -106 3.5 -148.5t97.5 -42.5zM333 528q-45 0 -64.5 19t-12.5 60q1 4 2 5.5t5 1.5h28
q4 0 5 -1t0 -5q-3 -24 8 -34t36 -10t40.5 10t21.5 35q0 3 1.5 4t4.5 1h29q3 0 3.5 -1.5t-0.5 -5.5q-9 -38 -34.5 -58.5t-72.5 -20.5zM267 645q-6 0 -4 5q6 27 25 44t44 17q15 0 27.5 -8.5t24.5 -17.5t21 -9q7 0 14 7t9 17q1 3 2.5 4.5t2.5 1.5h28q6 0 4 -6
q-5 -23 -24.5 -41.5t-43.5 -18.5q-16 0 -29.5 9t-24 18t-19.5 9q-8 0 -15.5 -7.5t-9.5 -18.5q-1 -5 -5 -5h-27z" />
    <glyph glyph-name="uni1EB6" unicode="&#x1eb6;" horiz-adv-x="570" 
d="M6 0q-4 0 -4.5 2.5t2.5 9.5q16 48 44.5 115t63.5 142.5t73 150.5t74 139t66 106q4 4 7 6t6 2h79q4 -1 6.5 -2t3.5 -6q12 -41 20.5 -105.5t14 -140.5t9 -153t3.5 -143t-4 -110q0 -8 -1 -10.5t-6 -2.5h-44q-4 0 -4.5 2t-1.5 8q2 28 2.5 66t0.5 80q1 6 -1.5 7.5t-8.5 1.5
h-274q-5 0 -8 -2t-6 -8q-16 -41 -32 -79t-27 -66q-2 -6 -3.5 -8t-5.5 -2h-44zM155 212h248q4 0 7 3.5t4 12.5q-4 94 -9 188.5t-23 181.5q-1 6 -8 6h-21q-7 0 -12 -7q-26 -43 -60 -105.5t-68 -132.5t-64 -136q-1 -3 -1 -7t7 -4zM252 -76q-3 -16 -11 -24.5t-28 -8.5t-25 8.5
t-1 24.5q3 16 11.5 24t28.5 8t24.5 -8t0.5 -24zM387 716q-41 0 -58.5 19.5t-10.5 59.5q0 2 1.5 4t4.5 2h26q3 0 4 -1t1 -4q-4 -25 6.5 -35t32.5 -10t37.5 10.5t20.5 35.5q1 2 2.5 3t3.5 1h26q2 0 3 -1t0 -5q-8 -38 -32.5 -58.5t-67.5 -20.5z" />
    <glyph glyph-name="uni1EB7" unicode="&#x1eb7;" horiz-adv-x="483" 
d="M180 -6q-95 0 -130 57.5t-9 178.5q16 76 44.5 123.5t63 73.5t70.5 36t69 10q35 0 68.5 -12t47.5 -24l6 28q1 3 3 4t4 1h43q6 0 6 -6q-3 -18 -9 -49.5t-15 -72.5t-20 -89.5t-25 -102.5t-30 -110q-2 -6 -5.5 -11t-16.5 -9q-31 -11 -77 -18.5t-88 -7.5zM198 39q18 0 40 4
t40 8.5t24 5.5q6 2 12.5 6.5t9.5 15.5q7 25 15 58.5t16.5 70t16 71t13.5 60.5t7 37q2 6 -0.5 10.5t-10.5 8.5q-19 10 -44 19t-58 9q-21 0 -47 -7t-52 -26t-47.5 -58t-35.5 -102q-22 -106 3.5 -148.5t97.5 -42.5zM197 -76q-3 -16 -11 -24.5t-28 -8.5t-25 8.5t-1 24.5
q3 16 11.5 24t28.5 8t24.5 -8t0.5 -24zM333 528q-45 0 -64.5 19t-12.5 60q1 4 2 5.5t5 1.5h28q4 0 5 -1t0 -5q-3 -24 8 -34t36 -10t40.5 10t21.5 35q0 3 1.5 4t4.5 1h29q3 0 3.5 -1.5t-0.5 -5.5q-9 -38 -34.5 -58.5t-72.5 -20.5z" />
    <glyph glyph-name="uni1EB8" unicode="&#x1eb8;" horiz-adv-x="444" 
d="M40 0q-3 0 -4.5 1.5t-0.5 4.5l141 661q0 6 7 6h311q4 0 4.5 -1t-0.5 -6l-6 -33q-2 -4 -3 -5.5t-5 -1.5h-254q-4 0 -5.5 -2t-2.5 -5l-53 -249q-1 -3 1 -5.5t5 -2.5h207q5 0 5.5 -1t-0.5 -6l-6 -32q-1 -4 -2.5 -5.5t-5.5 -1.5h-209q-4 0 -5.5 -1.5t-2.5 -5.5l-54 -254
q-1 -4 -0.5 -6.5t6.5 -2.5h252q5 0 5.5 -1t0.5 -6l-7 -31q-2 -5 -3.5 -6.5t-5.5 -1.5h-310zM218 -76q-3 -16 -11 -24.5t-28 -8.5t-25 8.5t-1 24.5q3 16 11.5 24t28.5 8t24.5 -8t0.5 -24z" />
    <glyph glyph-name="uni1EB9" unicode="&#x1eb9;" horiz-adv-x="458" 
d="M42 237q11 48 29 91.5t47.5 78.5t71.5 55t101 20q61 0 93 -18t44 -48.5t10.5 -67t-9.5 -73.5q-8 -36 -16.5 -44t-21.5 -8h-284q-2 0 -7 -2t-7 -11q-9 -50 -2 -88.5t34.5 -60.5t78.5 -22q36 0 78.5 8.5t72.5 24.5q5 3 11 4.5t8 -5.5l6 -21q2 -4 0 -6t-8 -5
q-37 -25 -85.5 -34.5t-98.5 -9.5q-60 0 -94.5 18.5t-49 51.5t-14 77t11.5 95zM374 284q6 29 7 56t-8.5 48.5t-31.5 34t-61 12.5t-68 -14.5t-50 -38.5t-34 -50.5t-19 -51.5q-3 -9 -2 -12.5t9 -3.5h117.5h118.5q10 0 14.5 3.5t7.5 16.5zM210 -76q-3 -16 -11 -24.5t-28 -8.5
t-25 8.5t-1 24.5q3 16 11.5 24t28.5 8t24.5 -8t0.5 -24z" />
    <glyph glyph-name="uni1EBA" unicode="&#x1eba;" horiz-adv-x="444" 
d="M40 0q-3 0 -4.5 1.5t-0.5 4.5l141 661q0 6 7 6h311q4 0 4.5 -1t-0.5 -6l-6 -33q-2 -4 -3 -5.5t-5 -1.5h-254q-4 0 -5.5 -2t-2.5 -5l-53 -249q-1 -3 1 -5.5t5 -2.5h207q5 0 5.5 -1t-0.5 -6l-6 -32q-1 -4 -2.5 -5.5t-5.5 -1.5h-209q-4 0 -5.5 -1.5t-2.5 -5.5l-54 -254
q-1 -4 -0.5 -6.5t6.5 -2.5h252q5 0 5.5 -1t0.5 -6l-7 -31q-2 -5 -3.5 -6.5t-5.5 -1.5h-310zM332 715q-1 0 -2.5 1.5t-1.5 2.5q5 20 15.5 28.5t19.5 13.5t16.5 10t9.5 15q5 22 -24 22q-11 0 -22 -4t-21 -11q-6 -4 -8 1l-6 18q-1 2 0.5 3.5l2.5 2.5q12 11 30.5 17t37.5 6
q27 0 39 -14.5t7 -39.5q-4 -20 -15.5 -29.5t-24.5 -15.5q-8 -4 -15 -8t-9 -15q0 -4 -6 -4h-23z" />
    <glyph glyph-name="uni1EBB" unicode="&#x1ebb;" horiz-adv-x="458" 
d="M42 237q11 48 29 91.5t47.5 78.5t71.5 55t101 20q61 0 93 -18t44 -48.5t10.5 -67t-9.5 -73.5q-8 -36 -16.5 -44t-21.5 -8h-284q-2 0 -7 -2t-7 -11q-9 -50 -2 -88.5t34.5 -60.5t78.5 -22q36 0 78.5 8.5t72.5 24.5q5 3 11 4.5t8 -5.5l6 -21q2 -4 0 -6t-8 -5
q-37 -25 -85.5 -34.5t-98.5 -9.5q-60 0 -94.5 18.5t-49 51.5t-14 77t11.5 95zM374 284q6 29 7 56t-8.5 48.5t-31.5 34t-61 12.5t-68 -14.5t-50 -38.5t-34 -50.5t-19 -51.5q-3 -9 -2 -12.5t9 -3.5h117.5h118.5q10 0 14.5 3.5t7.5 16.5zM288 525q-2 0 -3.5 1.5t-0.5 3.5
q4 18 14 27t20 14l16.5 11t9.5 15q4 20 -23 20q-12 0 -21.5 -3.5t-19.5 -10.5q-6 -5 -9 0l-8 20q-1 3 4 7q11 10 30 17t40 7q28 0 40.5 -15.5t7.5 -41.5q-5 -20 -17 -30t-23 -15q-9 -4 -15.5 -8t-8.5 -14q-1 -5 -7 -5h-26z" />
    <glyph glyph-name="uni1EBC" unicode="&#x1ebc;" horiz-adv-x="444" 
d="M40 0q-3 0 -4.5 1.5t-0.5 4.5l141 661q0 6 7 6h311q4 0 4.5 -1t-0.5 -6l-6 -33q-2 -4 -3 -5.5t-5 -1.5h-254q-4 0 -5.5 -2t-2.5 -5l-53 -249q-1 -3 1 -5.5t5 -2.5h207q5 0 5.5 -1t-0.5 -6l-6 -32q-1 -4 -2.5 -5.5t-5.5 -1.5h-209q-4 0 -5.5 -1.5t-2.5 -5.5l-54 -254
q-1 -4 -0.5 -6.5t6.5 -2.5h252q5 0 5.5 -1t0.5 -6l-7 -31q-2 -5 -3.5 -6.5t-5.5 -1.5h-310zM264 721q-6 0 -4 5q6 27 25 45t42 18q14 0 26 -9.5t23.5 -19t20.5 -9.5q6 0 12.5 8t9.5 19q1 6 5 6h26q5 0 4 -6q-5 -23 -23.5 -42.5t-42.5 -19.5q-16 0 -28.5 9.5t-22 19
t-18.5 9.5t-16 -8.5t-9 -19.5q0 -5 -5 -5h-25z" />
    <glyph glyph-name="uni1EBD" unicode="&#x1ebd;" horiz-adv-x="458" 
d="M42 237q11 48 29 91.5t47.5 78.5t71.5 55t101 20q61 0 93 -18t44 -48.5t10.5 -67t-9.5 -73.5q-8 -36 -16.5 -44t-21.5 -8h-284q-2 0 -7 -2t-7 -11q-9 -50 -2 -88.5t34.5 -60.5t78.5 -22q36 0 78.5 8.5t72.5 24.5q5 3 11 4.5t8 -5.5l6 -21q2 -4 0 -6t-8 -5
q-37 -25 -85.5 -34.5t-98.5 -9.5q-60 0 -94.5 18.5t-49 51.5t-14 77t11.5 95zM374 284q6 29 7 56t-8.5 48.5t-31.5 34t-61 12.5t-68 -14.5t-50 -38.5t-34 -50.5t-19 -51.5q-3 -9 -2 -12.5t9 -3.5h117.5h118.5q10 0 14.5 3.5t7.5 16.5zM212 535q-6 0 -4 5q6 27 25 44t44 17
q15 0 27.5 -8.5t24.5 -17.5t21 -9q7 0 14 7t9 17q1 3 2.5 4.5t2.5 1.5h28q6 0 4 -6q-5 -23 -24.5 -41.5t-43.5 -18.5q-16 0 -29.5 9t-24 18t-19.5 9q-8 0 -15.5 -7.5t-9.5 -18.5q-1 -5 -5 -5h-27z" />
    </font>
</defs>
</svg>
