<?xml version="1.0" standalone="no"?>
<!DOCTYPE svg PUBLIC "-//W3C//DTD SVG 1.1//EN" "http://www.w3.org/Graphics/SVG/1.1/DTD/svg11.dtd" >
<svg xmlns="http://www.w3.org/2000/svg" xmlns:xlink="http://www.w3.org/1999/xlink" version="1.1">
<metadata>
Created by FontForge 20201107 at Fri Jun 18 05:32:25 2021
 By 
Copyright 2016-2020 The Glory Project Authors (https://github.com/googlefonts/glory)
</metadata>
<defs>
<font id="Glory-Medium" horiz-adv-x="0" >
  <font-face 
    font-family="Glory Medium"
    font-weight="500"
    font-stretch="normal"
    units-per-em="1000"
    panose-1="0 0 0 0 0 0 0 0 0 0"
    ascent="800"
    descent="-200"
    x-height="472"
    cap-height="673"
    bbox="-90.2727 -242 1069 980"
    underline-thickness="50"
    underline-position="-125"
    unicode-range="U+000D-FB02"
  />
<missing-glyph horiz-adv-x="600" 
d="M98 0q-4 0 -4 4q-4 33 -7 85.5t-5 115.5t-2 129q0 67 2 131.5t5.5 118t7.5 85.5q0 4 4 4h402q4 0 4 -4q4 -32 7.5 -85.5t5.5 -118t2 -131.5q0 -66 -2 -129t-5 -115.5t-7 -85.5q0 -4 -4 -4h-404zM124 30h352q5 42 7 96.5t3 110t1 100.5q0 79 -4 158t-9 148h-348
q-6 -85 -9.5 -162.5t-3.5 -145.5q0 -47 0.5 -101t3 -107t7.5 -97zM170 80q-6 0 -5.5 2.5t1.5 3.5l231 502q3 6 9 6h19q8 0 2 -7l-229 -499q-4 -8 -11 -8h-17zM424 80h-17q-8 0 -11 8l-229 499q-6 7 2 7h19q6 0 9 -6l231 -502q1 -1 1.5 -3.5t-5.5 -2.5z" />
    <glyph glyph-name="fi" unicode="fi" horiz-adv-x="551" 
d="M99 10q-3 34 -6 81t-4.5 100t-2.5 106t-1 98q0 10 -8 10h-54q-5 0 -7 2t-2 7v48q0 6 2 8t8 2h54q5 0 6 1.5t1 8.5q0 51 5 90.5t27 71.5q24 34 66 51t103 17q30 0 55 -8.5t35 -13.5q9 -6 11 -9t1 -9l-13 -39q-2 -7 -4.5 -8t-7.5 2q-12 7 -32 13t-47 5q-40 0 -67 -17
t-34 -61q-7 -20 -8.5 -41.5t-0.5 -44.5q0 -5 1.5 -7t6.5 -2h141q6 0 8 -1.5t2 -9.5v-46q0 -6 -2.5 -8t-8.5 -2h-139q-5 0 -7.5 -2.5t-2.5 -7.5q0 -50 1.5 -107t3.5 -111.5t4 -98t3 -68.5q1 -7 0 -9t-6 -2h-71q-3 0 -5.5 2.5t-3.5 8.5zM499 602q0 -22 -9 -33.5t-39 -11.5
q-29 0 -39.5 11.5t-10.5 33.5q0 20 10.5 31.5t39.5 11.5q32 0 40 -11.5t8 -31.5zM495 9q0 -9 -8 -9h-71q-9 0 -9 9v454q0 9 9 9h71q8 0 8 -9v-454z" />
    <glyph glyph-name="fl" unicode="fl" horiz-adv-x="556" 
d="M99 10q-3 34 -6 81t-4.5 100t-2.5 106t-1 98q0 10 -8 10h-54q-5 0 -7 2t-2 7v48q0 6 2 8t8 2h54q5 0 6 1.5t1 8.5q0 51 5 90.5t27 71.5q24 34 66 51t103 17q30 0 55 -8.5t35 -13.5q9 -6 11 -9t1 -9l-13 -39q-2 -7 -4.5 -8t-7.5 2q-12 7 -32 13t-47 5q-40 0 -67 -17
t-34 -61q-7 -20 -8.5 -41.5t-0.5 -44.5q0 -5 1.5 -7t6.5 -2h141q6 0 8 -1.5t2 -9.5v-46q0 -6 -2.5 -8t-8.5 -2h-139q-5 0 -7.5 -2.5t-2.5 -7.5q0 -50 1.5 -107t3.5 -111.5t4 -98t3 -68.5q1 -7 0 -9t-6 -2h-71q-3 0 -5.5 2.5t-3.5 8.5zM406 9v690q0 9 10 9h69q10 0 10 -9
v-690q0 -9 -10 -9h-69q-10 0 -10 9z" />
    <glyph glyph-name=".notdef" horiz-adv-x="600" 
d="M98 0q-4 0 -4 4q-4 33 -7 85.5t-5 115.5t-2 129q0 67 2 131.5t5.5 118t7.5 85.5q0 4 4 4h402q4 0 4 -4q4 -32 7.5 -85.5t5.5 -118t2 -131.5q0 -66 -2 -129t-5 -115.5t-7 -85.5q0 -4 -4 -4h-404zM124 30h352q5 42 7 96.5t3 110t1 100.5q0 79 -4 158t-9 148h-348
q-6 -85 -9.5 -162.5t-3.5 -145.5q0 -47 0.5 -101t3 -107t7.5 -97zM170 80q-6 0 -5.5 2.5t1.5 3.5l231 502q3 6 9 6h19q8 0 2 -7l-229 -499q-4 -8 -11 -8h-17zM424 80h-17q-8 0 -11 8l-229 499q-6 7 2 7h19q6 0 9 -6l231 -502q1 -1 1.5 -3.5t-5.5 -2.5z" />
    <glyph glyph-name=".null" 
 />
    <glyph glyph-name="nonmarkingreturn" horiz-adv-x="333" 
 />
    <glyph glyph-name="CR" unicode="&#xd;" horiz-adv-x="600" 
 />
    <glyph glyph-name="space" unicode=" " horiz-adv-x="238" 
 />
    <glyph glyph-name="exclam" unicode="!" horiz-adv-x="238" 
d="M90 222q-5 0 -6.5 2t-1.5 9l-11 431q0 5 1.5 7t6.5 2h81q8 0 8 -8l-11 -432q-1 -7 -2.5 -9t-8.5 -2h-56zM164 29q0 -20 -9 -30t-39 -10q-25 0 -36.5 10t-11.5 30t11.5 30.5t36.5 10.5q30 0 39 -10.5t9 -30.5z" />
    <glyph glyph-name="quotedbl" unicode="&#x22;" horiz-adv-x="356" 
d="M73 457q-3 0 -5.5 2.5t-2.5 10.5l-5 222q0 10 2.5 12.5t9.5 2.5h52q9 0 10.5 -2.5t1.5 -8.5l-5 -228q-1 -7 -3 -9t-8 -2h-47zM232 457q-4 0 -6 2.5t-2 10.5l-5 222q0 10 2.5 12.5t9.5 2.5h52q8 0 10 -2.5t2 -8.5l-5 -228q0 -7 -2.5 -9t-7.5 -2h-48z" />
    <glyph glyph-name="numbersign" unicode="#" horiz-adv-x="731" 
d="M203 215h-146q-7 0 -10 2t-2 9l5 41q1 6 4 8.5t9 2.5h144l10 147h-141q-6 0 -9 1.5t-3 9.5l6 41q1 7 3.5 9t8.5 2h138l15 208q1 6 3.5 8.5t8.5 2.5h47q7 0 8 -3t0 -10l-15 -206l156 -1l15 209q1 6 3 8.5t9 2.5h46q7 0 8.5 -3t-0.5 -10l-15 -207h161q11 1 14 -2t2 -8
l-5 -42q0 -6 -3.5 -8t-7.5 -2h-164l-10 -148h154q11 1 14.5 -1.5t2.5 -8.5l-5 -43q-1 -5 -4.5 -7t-7.5 -2h-158l-13 -206q-1 -3 -2.5 -6t-8.5 -3h-45q-6 0 -8.5 3t-1.5 13l12 199h-155l-13 -206q-1 -3 -3 -6t-8 -3h-46q-5 0 -7.5 3t-2.5 13zM274 278l156 -1l9 148h-155z" />
    <glyph glyph-name="dollar" unicode="$" horiz-adv-x="478" 
d="M159 36q-16 4 -42 12t-44 17q-10 6 -15 10.5t-5 12.5v35v35q0 6 4 6.5t10.5 -2.5t11.5 -7q34 -23 66 -33t61 -10q43 0 75 22.5t32 66.5q0 27 -14 45.5t-38.5 34t-58.5 29.5q-35 17 -69 37t-56 52.5t-22 84.5q0 50 22 84t59 51.5t82 17.5h15h15l19 99q1 5 2.5 7t9.5 2h46
q8 0 9 -2.5t0 -8.5l-20 -108q26 -7 51.5 -20t49.5 -30q7 -4 8.5 -7t-2.5 -9q-5 -12 -12.5 -27t-15.5 -25q-3 -5 -7.5 -3t-12.5 8q-13 8 -36.5 19t-51 19t-51.5 8q-39 0 -66 -19.5t-27 -58.5q0 -24 14.5 -41t39.5 -31t56 -29q36 -17 70 -38.5t56.5 -54t22.5 -84.5
q0 -50 -24.5 -88.5t-64 -60t-86.5 -23.5l-24 -157q-1 -6 -3.5 -7t-9.5 -1h-48q-3 0 -5 2.5t0 13.5z" />
    <glyph glyph-name="percent" unicode="%" horiz-adv-x="799" 
d="M162 0q-5 0 -6 3t2 7l393 690q3 5 5 6t7 1h62q6 0 7 -3t-7 -15l-384 -680q-3 -4 -6 -6.5t-9 -2.5h-64zM208 414q-81 0 -114.5 41.5t-33.5 105.5q0 65 33.5 106.5t114.5 41.5q80 0 114 -41.5t34 -106.5q0 -64 -34 -105.5t-114 -41.5zM208 470q45 0 65 24t20 67
q0 44 -20 68t-65 24t-65.5 -23.5t-20.5 -68.5q0 -43 20.5 -67t65.5 -24zM590 0q-80 0 -113.5 41.5t-33.5 105.5q0 65 33.5 106.5t113.5 41.5t114.5 -41.5t34.5 -106.5q0 -64 -34.5 -105.5t-114.5 -41.5zM590 56q46 0 66 24t20 67q0 44 -20 68t-66 24q-44 0 -64.5 -23.5
t-20.5 -68.5q0 -43 20.5 -67t64.5 -24z" />
    <glyph glyph-name="ampersand" unicode="&#x26;" horiz-adv-x="696" 
d="M273 -8q-65 0 -111 18t-75.5 47.5t-43 65t-13.5 70.5q0 42 15.5 78.5t43.5 62.5t65 36q-22 9 -38 25.5t-26.5 37t-15.5 41t-5 34.5q0 28 11 57t36 54.5t65 41t98 15.5q54 0 105 -24.5t89 -83.5q6 -9 4.5 -14.5t-5.5 -8.5l-44 -33q-9 -6 -17 5q-22 33 -56.5 57.5
t-78.5 24.5q-34 0 -61 -12t-43 -34t-16 -54q0 -21 10.5 -40.5t29 -32.5t43.5 -17q4 0 13.5 -0.5t19.5 -1t13 -0.5q12 0 16 -1t4 -6v-62q0 -6 -2.5 -7t-7.5 -1h-54q-33 0 -58 -18t-39 -46.5t-14 -61.5q0 -32 15 -62.5t48.5 -50t89.5 -19.5q47 0 87 25.5t70 66t47 85.5l-81 43
q-3 2 -4.5 4.5t3.5 9.5l31 51q3 7 7 8.5t8 -1.5l193 -103q6 -2 6 -6t-3 -8l-29 -52q-3 -6 -6 -8t-10 2l-47 25q-17 -43 -43 -82.5t-60.5 -71t-79 -50t-99.5 -18.5z" />
    <glyph glyph-name="quotesingle" unicode="'" horiz-adv-x="195" 
d="M73 457q-4 0 -6.5 2.5t-2.5 10.5l-4 222q-1 10 1.5 12.5t10.5 2.5h51q9 0 10.5 -2.5t1.5 -8.5l-5 -228q-1 -7 -3 -9t-7 -2h-47z" />
    <glyph glyph-name="parenleft" unicode="(" horiz-adv-x="370" 
d="M310 -73q0 -6 -3 -7.5t-18 -1.5q-74 0 -129 51.5t-85 142t-30 208.5q0 48 9.5 100.5t29 102.5t48.5 90t68 64t89 24q15 0 18 -2t3 -7v-45q0 -5 -3.5 -5.5t-14.5 -0.5q-37 0 -64.5 -21t-46.5 -56t-31 -77.5t-18 -86t-6 -79.5q0 -53 7 -103t20 -93t32.5 -76t46.5 -51.5
t61 -19.5q13 0 15 -2t2 -7v-42z" />
    <glyph glyph-name="parenright" unicode=")" horiz-adv-x="370" 
d="M60 -73v42q0 5 3 7t14 2q34 1 61 19.5t47 51.5t33 76t19.5 93t6.5 103q0 36 -5.5 79.5t-17.5 86t-31.5 77.5t-46.5 56t-64 21q-10 0 -14.5 0.5t-4.5 5.5v45q0 5 3.5 7t18.5 2q49 0 88.5 -24t68.5 -64t48 -90t28.5 -102.5t9.5 -100.5q0 -118 -30 -208.5t-84.5 -142
t-128.5 -51.5q-15 0 -18.5 1.5t-3.5 7.5z" />
    <glyph glyph-name="asterisk" unicode="*" horiz-adv-x="541" 
d="M270 421l-106 -142q-4 -6 -7.5 -7.5t-8.5 2.5l-38 31q-5 4 -5.5 7.5t4.5 9.5l109 137l-166 52q-14 4 -11 13l16 47q2 6 5.5 7.5t10.5 -1.5l164 -57l-3 174q0 7 2 10t8 3h49q7 0 9 -2.5t2 -10.5l-2 -175l165 58q8 3 10.5 1.5t5.5 -8.5l15 -46q3 -10 -10 -14l-166 -52
l108 -137q5 -5 5 -8.5t-6 -8.5l-37 -31q-5 -3 -8.5 -2t-8.5 7z" />
    <glyph glyph-name="plus" unicode="+" horiz-adv-x="482" 
d="M214 109q-6 0 -7.5 1.5t-1.5 6.5v157h-147q-6 0 -7 2t-1 6v48q0 5 1.5 6.5t6.5 1.5h147v157q0 5 1.5 6.5t7.5 1.5h51q4 0 5.5 -1.5t1.5 -7.5v-156l152 -1q5 0 6.5 -1.5t1.5 -6.5v-49q0 -4 -1.5 -5.5t-6.5 -1.5l-152 1v-158q0 -5 -2 -6t-7 -1h-49z" />
    <glyph glyph-name="comma" unicode="," horiz-adv-x="208" 
d="M153 28q0 -18 -8 -42.5t-19 -48.5t-20 -39q-3 -5 -8 -6h-16.5h-18.5q-3 1 -3.5 3.5t2.5 8.5q4 9 10 24.5t11.5 32.5t8.5 29q-17 1 -24.5 12t-7.5 25q0 19 10.5 30t35.5 11q21 0 34 -8t13 -32z" />
    <glyph glyph-name="hyphen" unicode="-" horiz-adv-x="410" 
d="M69 244q-6 0 -7.5 2t-1.5 7v48q0 6 1.5 7.5t7.5 1.5h272q6 0 7.5 -1.5t1.5 -7.5v-50q0 -4 -1.5 -5.5t-7.5 -1.5h-272z" />
    <glyph glyph-name="period" unicode="." horiz-adv-x="187" 
d="M142 28q0 -20 -9 -30t-39 -10q-27 0 -38 10t-11 30t11 30t38 10q30 0 39 -10t9 -30z" />
    <glyph glyph-name="slash" unicode="/" horiz-adv-x="556" 
d="M121 9q-2 -4 -5.5 -6.5t-8.5 -2.5h-64q-4 0 -4.5 3t1.5 7l421 690q3 5 5.5 6t6.5 1h61q7 0 7.5 -3t-7.5 -15z" />
    <glyph glyph-name="zero" unicode="0" horiz-adv-x="542" 
d="M497 336q0 -72 -11.5 -134.5t-38.5 -109.5t-70 -73t-106 -26t-106.5 26t-69.5 72.5t-38 109t-12 135.5q0 74 12 136t38 109t69.5 73t106.5 26t106 -26.5t70 -73.5t38.5 -109t11.5 -135zM401 336q0 130 -32 200t-99 70t-98.5 -69t-31.5 -201q0 -131 31.5 -200.5
t98.5 -69.5t99 70t32 200z" />
    <glyph glyph-name="one" unicode="1" horiz-adv-x="338" 
d="M181 0q-9 0 -9 9v555q0 9 -9 4l-106 -60q-10 -6 -15 2l-27 47q-5 9 4 15l167 95q7 4 10.5 5t8.5 1h48q10 0 10 -10v-654q0 -9 -9 -9h-73z" />
    <glyph glyph-name="two" unicode="2" horiz-adv-x="496" 
d="M45 0q-7 0 -9 1.5t-2 7.5v52q0 11 8 15q50 34 104.5 76.5t101.5 93t76.5 106.5t29.5 115q0 43 -17.5 72t-48.5 44t-72 15q-39 0 -70 -10.5t-52 -22t-31 -14.5q-14 -5 -14 4v61q0 6 2.5 9t9.5 7q14 8 39 19t57.5 19t67.5 8q54 0 104 -21t82 -67t32 -120q0 -60 -22.5 -114
t-61 -103.5t-86.5 -92.5t-100 -82q-2 -2 -1 -4t4 -2h262q8 0 8 -7v-56q0 -6 -1.5 -7.5t-9.5 -1.5h-390z" />
    <glyph glyph-name="three" unicode="3" horiz-adv-x="487" 
d="M219 -5q-35 0 -69.5 9t-63.5 26t-49 40q-4 5 -3.5 9.5t3.5 8.5l32 40q9 10 18 1q27 -27 60.5 -41.5t69.5 -14.5q42 0 71 18.5t44 46.5t15 57q0 28 -15.5 56.5t-47.5 47t-81 18.5h-12h-14q-4 0 -7.5 3t-3.5 10v49q0 13 11 13h17h23q38 1 64.5 17.5t40 41.5t13.5 51
t-13 48.5t-39 36.5t-65 14q-33 0 -69.5 -15t-60.5 -36q-12 -12 -20 1l-28 50q-3 4 -1 9.5t4 6.5q29 23 61 36t63 19t57 6q64 0 107 -24t65 -62t22 -81q0 -50 -25.5 -90.5t-69.5 -59.5q-12 -4 -12 -6q0 -1 14 -6q50 -17 80 -56.5t30 -96.5q0 -50 -25.5 -96.5t-73.5 -75.5
t-117 -29z" />
    <glyph glyph-name="four" unicode="4" horiz-adv-x="505" 
d="M314 0q-9 0 -9 9v161q0 10 -10 10h-264q-9 0 -9 9v45q0 6 3.5 12t5.5 9l278 408q4 6 7.5 8t7.5 2h58q9 0 9 -9v-405q0 -10 10 -10h64q7 0 7 -7v-55q0 -7 -7 -7h-64q-10 0 -10 -10v-161q0 -9 -9 -9h-68zM128 249h167q10 0 10 10v267q0 5 -2 5.5t-4 -3.5l-176 -268
q-4 -5 -2 -8t7 -3z" />
    <glyph glyph-name="five" unicode="5" horiz-adv-x="485" 
d="M200 -5q-21 0 -47.5 4.5t-53 15t-49.5 26.5q-4 3 -6.5 7t0.5 7l33 54q3 6 7.5 5t8.5 -3q29 -17 53 -24.5t53 -7.5q25 0 52 8.5t50 26.5t37 45.5t14 64.5q0 42 -18.5 73.5t-52.5 49t-83 17.5q-14 0 -32.5 -1t-36.5 -4t-34 -9q-10 -3 -14 -1.5t-4 9.5v303q0 6 2 9t10 3h287
q5 0 7 -1.5t2 -6.5v-57q0 -9 -9 -9h-214q-8 0 -8 -8v-153q0 -5 2 -7t8 -2q12 2 23.5 2h19.5q79 0 130.5 -26.5t77 -72t25.5 -103.5q0 -71 -34 -124t-88.5 -82t-117.5 -28z" />
    <glyph glyph-name="six" unicode="6" horiz-adv-x="551" 
d="M279 -12q-61 1 -115.5 32.5t-89 100t-34.5 179.5q0 66 21 133t62 123t103.5 89.5t145.5 33.5q8 0 24 -1t31 -5q6 -1 11 -4.5t5 -14.5v-23.5v-23.5q0 -8 -2 -10t-10 1l-18 3t-28 2t-32.5 -3t-30.5 -11q-41 -4 -75.5 -26t-60 -55.5t-40.5 -73t-18 -78.5q-1 -8 1 -10t8 6
q24 32 69.5 53t95.5 21q58 0 98.5 -18t66 -48t37.5 -67t12 -76q0 -57 -28.5 -110t-81 -86t-127.5 -33zM279 67q48 0 81 21.5t50 56t17 70.5q1 34 -14.5 64t-46 49t-77.5 19q-33 0 -64 -15.5t-56 -38t-39 -46.5q0 -34 11 -66t31.5 -58t47.5 -41t59 -15z" />
    <glyph glyph-name="seven" unicode="7" horiz-adv-x="465" 
d="M125 0q-9 0 -11.5 1t-2.5 8q4 36 18 87.5t34.5 110t41.5 114.5t44 108t43 94.5t33 69.5q1 4 -1 5.5t-10 2.5h-283q-5 0 -7 1t-2 5v58q0 6 2.5 7t7.5 1h400q4 0 5.5 -1t1.5 -7v-35q0 -7 -5 -17q-15 -24 -38.5 -70t-51 -108t-56.5 -135q-19 -52 -37.5 -105.5t-31.5 -101.5
t-15 -85q-1 -5 -5.5 -6.5t-7.5 -1.5h-66z" />
    <glyph glyph-name="eight" unicode="8" horiz-adv-x="505" 
d="M252 -6q-59 0 -109 26t-80 70.5t-30 99.5q0 59 28 101.5t72 62.5q7 3 9 7t-1 6q-37 15 -57 48.5t-20 82.5q0 51 25.5 91.5t69 64.5t93.5 24q53 0 95.5 -24t68.5 -64.5t26 -91.5q0 -52 -20 -84.5t-54 -49.5q-1 -2 0 -5t7 -5q44 -22 71 -62.5t27 -101.5q0 -55 -30.5 -99.5
t-80 -70.5t-110.5 -26zM253 403q27 0 50.5 11t38 32.5t14.5 51.5q0 27 -13.5 49t-37.5 35t-53 13q-28 0 -51.5 -13t-37.5 -35t-14 -49q0 -29 15 -50.5t39 -33t50 -11.5zM252 75q39 0 69.5 16t48 42.5t17.5 58.5q0 39 -18.5 66.5t-49 42.5t-65.5 15q-34 1 -65.5 -13.5
t-50.5 -42.5t-19 -68q0 -32 17.5 -58.5t48 -42.5t67.5 -16z" />
    <glyph glyph-name="nine" unicode="9" horiz-adv-x="547" 
d="M246 242q-76 0 -123 30.5t-68 78t-20 101.5q1 56 29 108t81 86t129 33q53 0 95.5 -20.5t73.5 -57.5t47.5 -89t16.5 -118q1 -72 -19 -143t-62 -129.5t-107.5 -94t-155.5 -35.5q-7 0 -22.5 1.5t-32.5 4.5q-7 1 -12 5t-5 14l1 48q0 8 2.5 9.5t10.5 -0.5q14 -4 30 -5t26 -1
q55 0 98 21t73 51q20 21 35 49t26 56t17.5 50t8.5 31q-29 -39 -76 -61.5t-97 -22.5zM273 600q-48 1 -81.5 -21.5t-51 -56.5t-16.5 -71q0 -35 13.5 -64.5t43 -48t76.5 -18.5q50 0 91.5 29.5t67.5 72.5q-1 66 -21 105t-52.5 56t-69.5 17z" />
    <glyph glyph-name="colon" unicode=":" horiz-adv-x="218" 
d="M157 28q0 -20 -9 -30t-40 -10q-26 0 -37 10t-11 30t11 30t37 10q31 0 40 -10t9 -30zM157 443q0 -20 -9 -30.5t-40 -10.5q-26 0 -37 10.5t-11 30.5t11 30t37 10q31 0 40 -10t9 -30z" />
    <glyph glyph-name="semicolon" unicode=";" horiz-adv-x="223" 
d="M163 443q0 -20 -9.5 -30t-40.5 -10q-26 0 -37 10t-11 30t11 30.5t37 10.5q31 0 40.5 -10.5t9.5 -30.5zM160 28q0 -18 -7.5 -43t-18.5 -48.5t-21 -38.5q-2 -5 -8 -6h-16.5h-18.5q-3 1 -3 3.5t3 8.5q4 9 9.5 24.5t11.5 32.5t9 29q-18 1 -25 12t-7 25q0 19 10 30t35 11
q22 0 34.5 -8t12.5 -32z" />
    <glyph glyph-name="less" unicode="&#x3c;" horiz-adv-x="456" 
d="M59 274q-4 2 -6.5 5t-2.5 9v45q0 5 3 7t8 5l326 152q11 6 15 3.5t4 -7.5v-51q0 -4 -3.5 -6.5t-10.5 -5.5l-255 -122l254 -119q8 -4 11.5 -6.5t3.5 -7.5v-49q0 -13 -16 -7z" />
    <glyph glyph-name="equal" unicode="=" horiz-adv-x="484" 
d="M58 361q-6 0 -7 2.5t-1 6.5v46q0 6 1.5 8t7.5 2h366q5 0 7 -1.5t2 -7.5v-48q0 -4 -1.5 -6t-7.5 -2h-367zM58 174q-6 0 -7 2t-1 7v46q0 6 1.5 7.5t7.5 1.5h366q5 0 7 -1.5t2 -7.5v-48q0 -4 -1.5 -5.5t-7.5 -1.5h-367z" />
    <glyph glyph-name="greater" unicode="&#x3e;" horiz-adv-x="436" 
d="M55 119q-7 -4 -11 -1.5t-4 8.5v49q0 5 3.5 7.5t10.5 5.5l255 120l-256 121q-13 6 -13 12v51q0 6 3.5 8t14.5 -3l326 -153q6 -2 9 -4t3 -7v-45q0 -7 -3 -10t-7 -4z" />
    <glyph glyph-name="question" unicode="?" horiz-adv-x="451" 
d="M125 171q-7 0 -8.5 3.5t-1.5 11.5q0 50 7.5 84.5t21.5 59.5t34 44.5t47 38.5q14 10 30 22t30 25.5t22.5 29.5t6.5 36q-1 36 -28.5 55.5t-71.5 19.5q-41 0 -75 -10.5t-54 -19.5q-8 -3 -10 -4.5t-5 7.5l-17 50q-2 6 3 10t11 8q28 15 68.5 23.5t74.5 8.5q86 0 137.5 -40.5
t51.5 -110.5q0 -48 -18.5 -76.5t-44.5 -47t-51 -34.5q-34 -24 -54.5 -49t-29.5 -57t-9 -76q0 -7 -1 -9.5t-5 -2.5h-61zM106 29q0 20 11 30.5t37 10.5q29 0 38 -10.5t9 -30.5t-9 -30t-38 -10q-26 0 -37 10t-11 30z" />
    <glyph glyph-name="at" unicode="@" horiz-adv-x="842" 
d="M45 328q0 72 28 136t79.5 114t122 78.5t155.5 28.5q101 0 171 -25.5t113.5 -69t63 -97t19.5 -109.5q0 -49 -13.5 -94.5t-38 -80.5t-59 -55.5t-78.5 -20.5q-36 0 -57.5 17t-32 42t-12.5 50q0 3 -0.5 5.5t-1.5 2t-5 -9.5q-13 -27 -32.5 -51t-45.5 -39t-59 -15
q-54 0 -88.5 26t-49 68.5t-9.5 92.5q7 61 36 112.5t76 83t107 31.5q56 0 95 -13t71 -34q10 -6 12 -14t-2 -19q-4 -15 -9 -31t-9 -31q-7 -23 -14 -51.5t-11.5 -57.5t-3 -53t10.5 -39t29 -15q34 0 60 29.5t41 75.5t15 97q0 43 -15 85t-49 76t-89.5 54.5t-136.5 20.5
q-68 0 -124.5 -24t-97.5 -66t-63.5 -95.5t-22.5 -114.5q0 -63 21.5 -115.5t62 -90.5t97 -58.5t125.5 -21.5q86 0 162.5 12.5t134.5 40.5q8 5 13.5 7.5t10.5 5.5q7 4 10.5 2.5t6.5 -5.5l20 -30q5 -6 2 -10.5t-10 -9.5q-6 -3 -11.5 -6t-13.5 -6q-55 -29 -133.5 -43.5
t-189.5 -14.5q-86 1 -156.5 25t-121.5 69t-78.5 107.5t-27.5 140.5zM518 435q3 10 6.5 18t-1.5 13q-18 9 -37.5 13.5t-44.5 4.5q-43 0 -74.5 -28t-49.5 -69.5t-21 -81.5q-2 -29 3 -53t19.5 -39.5t39.5 -15.5q27 0 47.5 20t36.5 51q16 27 36.5 72.5t39.5 94.5z" />
    <glyph glyph-name="A" unicode="A" horiz-adv-x="552" 
d="M41 0q-7 0 -8 4.5t1 17.5q6 47 20 112t33 138.5t41 147t45 136t44 104.5q3 6 7 9.5t9 3.5h86q5 -1 9.5 -3.5t7.5 -9.5q20 -41 43 -104t45 -137t41 -148.5t33 -139t20 -108.5q3 -14 1.5 -18.5t-8.5 -4.5h-71q-5 0 -7 3t-5 15q-4 26 -11 61t-14 69q-1 6 -3.5 7.5t-8.5 1.5
h-230q-6 0 -8 -1.5t-4 -8.5q-7 -33 -14 -68t-11 -61q-2 -12 -4 -15t-8 -3h-71zM180 229h191q5 0 7 3t0 12q-19 74 -39.5 150.5t-46.5 143.5q-2 7 -8 7h-16q-5 0 -8 -7q-13 -35 -29 -85t-31 -105.5t-27 -107.5q-1 -4 0 -7.5t7 -3.5z" />
    <glyph glyph-name="B" unicode="B" horiz-adv-x="527" 
d="M482 187q0 -68 -26.5 -109.5t-71 -59.5t-98.5 -18h-201q-10 0 -10 9v655q0 9 10 9h151q48 0 89.5 -4.5t73 -20t48.5 -49t17 -91.5q0 -31 -8 -61.5t-24.5 -54t-40.5 -35.5q-5 -2 -4.5 -6.5t5.5 -6.5q38 -16 64 -59t26 -98zM386 189q0 51 -16 77t-46 35t-72 9h-79
q-6 0 -6 -6v-232q0 -3 1 -4.5t5 -1.5h100q17 0 36.5 4t37 16.5t28.5 37t11 65.5zM369 505q0 46 -18 68t-49.5 28t-75.5 6h-53q-6 0 -6 -7v-212q0 -6 6 -6h89q37 0 60.5 14.5t35 42t11.5 66.5z" />
    <glyph glyph-name="C" unicode="C" horiz-adv-x="456" 
d="M422 25q0 -16 -20 -22q-13 -5 -33 -7.5t-38.5 -3.5t-28.5 -1q-114 0 -184 87t-70 257q0 172 67.5 258.5t186.5 86.5q10 0 28.5 -1.5t38.5 -4t33 -6.5q10 -3 15 -7t5 -11v-60q0 -19 -19 -6q-16 10 -40.5 16.5t-51.5 6.5q-49 0 -82 -20.5t-52 -57t-27 -83t-8 -97.5
q0 -35 3.5 -74t13.5 -76.5t29 -68.5t49 -49t74 -18q29 0 53.5 6.5t36.5 14.5q13 8 17 6.5t4 -12.5v-53z" />
    <glyph glyph-name="D" unicode="D" horiz-adv-x="580" 
d="M532 347q0 -88 -17 -149t-45.5 -100t-62 -60.5t-66.5 -29.5t-60 -8h-196q-10 0 -10 9v655q0 9 10 9h196q32 0 67.5 -6t68 -24.5t58.5 -54.5t41.5 -94.5t15.5 -146.5zM442 347q0 90 -16 141.5t-41 75.5t-53 30.5t-52 6.5h-105q-6 0 -7 -1.5t-1 -5.5v-515q0 -4 1 -5.5
t6 -1.5h89q26 0 56.5 9t58.5 37.5t46 83t18 145.5z" />
    <glyph glyph-name="E" unicode="E" horiz-adv-x="449" 
d="M85 0q-10 0 -10 9v655q0 9 10 9h321q8 0 9.5 -1.5t1.5 -8.5v-51q0 -8 -2 -9.5t-9 -1.5h-232q-5 0 -6 -1.5t-1 -6.5v-210q0 -5 1.5 -6.5t5.5 -1.5h187q8 0 9.5 -2t1.5 -11v-46q0 -8 -1.5 -10.5t-9.5 -2.5h-187q-5 0 -6 -1t-1 -6v-215q0 -5 1 -7t6 -2h230q10 0 11.5 -2
t1.5 -11v-46q0 -9 -2.5 -11t-10.5 -2h-319z" />
    <glyph glyph-name="F" unicode="F" horiz-adv-x="435" 
d="M85 0q-10 0 -10 9v655q0 9 10 9h321q8 0 9.5 -1.5t1.5 -8.5v-51q0 -8 -2 -9.5t-9 -1.5h-232q-5 0 -6 -1.5t-1 -6.5v-210q0 -5 1.5 -6.5t5.5 -1.5h181q8 0 10 -2t2 -11v-46q0 -8 -2 -10.5t-10 -2.5h-181q-5 0 -6 -1t-1 -6v-283q0 -9 -2 -11t-12 -2h-68z" />
    <glyph glyph-name="G" unicode="G" horiz-adv-x="564" 
d="M504 26q0 -13 -15.5 -20t-40 -9.5t-51.5 -2.5q-176 0 -267.5 84t-91.5 247q0 110 41.5 189t113.5 121.5t162 42.5q33 0 68.5 -2.5t57.5 -9.5q11 -4 15 -6.5t4 -11.5v-51q0 -13 -5.5 -16t-12.5 1q-25 14 -52 19t-59 5t-73 -12.5t-78 -43t-61 -83.5t-24 -135
q0 -85 23.5 -137.5t60.5 -80.5t77.5 -38.5t75.5 -10.5t41 12v219q0 6 -2 7.5t-7 1.5h-136q-6 0 -8 2t-2 8v51q0 6 2 8.5t8 2.5h221q11 0 13 -2.5t2 -13.5v-335z" />
    <glyph glyph-name="H" unicode="H" horiz-adv-x="610" 
d="M99 0q-4 0 -8.5 1.5t-5.5 7.5q-4 34 -7 87.5t-5 116.5t-3 129q0 64 2 125t6 112t9 85q1 4 5 6.5t8 2.5h35.5h36.5q6 0 6 -9q-5 -52 -8 -105t-4.5 -98t-2.5 -74q0 -8 1.5 -10t8.5 -2h132h132q5 0 8 2t3 10q-1 27 -3 72t-5 99t-8 106q1 9 7 9h36h36q3 0 7.5 -2.5t4.5 -6.5
q6 -34 10 -85.5t6 -113t1 -124.5q0 -66 -2 -129t-5.5 -116t-7.5 -87q0 -6 -4 -7.5t-9 -1.5h-36h-37q-5 0 -5 9q5 36 8 76t4.5 79t2 73t0.5 56q0 7 -2.5 8.5t-8.5 1.5h-132.5h-133.5q-6 0 -8 -1.5t-2 -8.5q0 -24 0.5 -58t2 -72.5t4 -78t7.5 -75.5q1 -9 -5 -9h-36h-36z" />
    <glyph glyph-name="I" unicode="I" horiz-adv-x="242" 
d="M166 9q0 -9 -9 -9h-72q-10 0 -10 9v655q0 9 10 9h72q9 0 9 -9v-655z" />
    <glyph glyph-name="J" unicode="J" horiz-adv-x="308" 
d="M237 176q0 -69 -13.5 -107.5t-44 -54t-81.5 -15.5l-75 1q-7 0 -15 2.5t-8 8.5v51q0 10 9 9q14 0 34.5 -1t34.5 -1q36 0 52 18.5t16 70.5v506q0 9 9 9h73q4 0 6.5 -2.5t2.5 -6.5v-488z" />
    <glyph glyph-name="K" unicode="K" horiz-adv-x="538" 
d="M79 0q-4 0 -4 4v333v332q0 4 4 4h15h27h27h15q4 0 4 -4v-71.5v-65v-65.5v-72q0 -3 0.5 -5.5t4.5 -2.5h57q5 0 8 3t6 7q20 38 36.5 71t33 63t33.5 62.5t37 70.5q3 5 5.5 7t6.5 2h15h26h25.5h14.5q7 0 7 -4.5t-6 -16.5q-28 -50 -53.5 -97t-50 -95t-49.5 -101q-4 -9 -5 -15
t-1 -12q1 -25 10 -53.5t23.5 -57.5t32 -54.5t36.5 -42.5q21 -19 46 -30.5t56 -11.5q2 0 5 -1t3 -3v-73q0 -5 -3 -5q-53 0 -91.5 11.5t-72.5 38.5q-21 17 -40 42.5t-35.5 55.5t-29 61t-18.5 60q-2 8 -6 10.5t-6 2.5h-28h-28l-2.5 -1t-2.5 -6v-71.5v-64v-64v-71.5q0 -4 -4 -4
h-15h-27h-27h-15z" />
    <glyph glyph-name="L" unicode="L" horiz-adv-x="428" 
d="M85 0q-10 0 -10 9v655q0 9 10 9h70q7 0 9 -2.5t2 -8.5v-581q0 -5 1 -7t7 -2h230q9 0 10.5 -2t1.5 -11v-46q0 -9 -2 -11t-11 -2h-318z" />
    <glyph glyph-name="M" unicode="M" horiz-adv-x="713" 
d="M82 0q-12 0 -12 11q0 82 3 172.5t8.5 179t12.5 166.5t15 135q1 5 2.5 7t6.5 2h46q8 0 11 -2t5 -6l169 -291q3 -6 7.5 -6t7.5 5l168 290q3 6 6.5 8t10.5 2h43q10 0 11 -12q7 -55 14.5 -131.5t13 -165t8.5 -178.5t3 -172q0 -8 -2.5 -11t-10.5 -3h-67q-10 0 -10 12
q0 39 -1 86.5t-3 99.5t-5 102.5t-6 96t-6 81.5q-1 7 -5 7t-7 -5l-139 -231q-4 -6 -12 -6h-26q-8 0 -13 8l-135 226q-3 6 -7.5 5t-4.5 -7q-4 -45 -8 -98.5t-7 -113.5t-4.5 -125t-1.5 -132q0 -6 -6 -6h-73z" />
    <glyph glyph-name="N" unicode="N" horiz-adv-x="641" 
d="M463 194q2 -4 6.5 -4t5.5 6q2 34 3 79t1 95.5t-1.5 102.5t-4.5 100.5t-9 89.5q0 10 6 10h73q4 0 8 -2.5t4 -6.5q7 -36 10.5 -88.5t4.5 -115t0.5 -128t-2.5 -127t-5.5 -112.5t-7.5 -84q0 -6 -4.5 -7.5t-9.5 -1.5h-48q-6 0 -12 11l-305 472q-1 4 -4.5 4t-4.5 -5
q-2 -48 -3 -100t-1 -104.5t1.5 -102t4 -92t6.5 -73.5q1 -10 -6 -10h-71q-5 0 -9 1.5t-5 7.5q-4 34 -7 85.5t-4.5 113.5t-2 127t1.5 127.5t5.5 114.5t9.5 87q1 4 5 6.5t7 2.5h48q6 0 10 -7z" />
    <glyph glyph-name="O" unicode="O" horiz-adv-x="631" 
d="M48 334q0 111 23 187.5t80.5 115.5t162.5 39q82 0 134.5 -22.5t82 -65.5t41 -107t11.5 -147t-11.5 -146.5t-41 -107t-82 -65.5t-134.5 -22q-105 0 -162.5 39t-80.5 115t-23 187zM143 334q0 -104 18 -161.5t55.5 -80t96.5 -22.5t98 22t58 79.5t19 162.5t-19 163t-58 81
t-98 23t-96.5 -23t-55.5 -81t-18 -163z" />
    <glyph glyph-name="P" unicode="P" horiz-adv-x="488" 
d="M451 460q0 -64 -22.5 -117t-67 -85t-109.5 -32h-77q-5 0 -6.5 -2.5t-1.5 -6.5v-208q0 -9 -10 -9h-72q-10 0 -10 9v655q0 9 10 9h156q111 0 160.5 -52t49.5 -161zM167 303q0 -8 7 -8h68q57 0 88.5 43.5t31.5 120.5q-1 81 -31.5 114.5t-91.5 33.5h-65q-4 0 -5.5 -1.5
t-1.5 -7.5v-295z" />
    <glyph glyph-name="Q" unicode="Q" horiz-adv-x="631" 
d="M48 333q0 111 23 187.5t81 116t162 39.5q82 0 134.5 -22.5t82 -65.5t41 -107.5t11.5 -147.5q0 -94 -15.5 -163t-55 -111.5t-111.5 -57.5q-7 -2 -14 -3.5t-14 -2.5q-10 -1 -10 -9q0 -38 9.5 -60.5t32 -32.5t62.5 -10h35q10 0 10 -11v-42q0 -6 -2 -8.5t-9 -4.5
q-3 -1 -17.5 -1.5t-26.5 -0.5q-70 0 -110 19.5t-58 57.5t-19 93q0 4 -2.5 6.5t-8.5 3.5t-14.5 2.5t-18.5 5.5q-69 15 -108 57t-54.5 110.5t-15.5 162.5zM143 334q0 -104 18 -161.5t55.5 -80t96.5 -22.5t98 22t58 79.5t19 162.5t-19 163t-58 81t-98 23t-96.5 -23t-55.5 -81
t-18 -163z" />
    <glyph glyph-name="R" unicode="R" horiz-adv-x="537" 
d="M85 0q-10 0 -10 9v655q0 9 10 9h152q76 0 123 -18.5t69 -61.5t22 -118q0 -61 -23.5 -110t-72.5 -73q-12 -9 -16.5 -17.5t2.5 -21.5q8 -26 20.5 -53.5t29 -50.5t36.5 -38q18 -13 39.5 -21t47.5 -8q7 0 9.5 -2t2.5 -9v-62q0 -4 -1.5 -6t-7.5 -2.5t-20 -0.5q-40 0 -73 12.5
t-60 33.5q-26 21 -48.5 52t-39.5 68t-27 74q-1 4 -4.5 10.5t-11.5 6.5h-59q-7 0 -7 -12v-236q0 -9 -10 -9h-72zM167 339q0 -5 2 -6.5t6 -1.5h66q58 0 89 35.5t31 108.5q0 55 -14 83t-42 38.5t-72 10.5h-59q-4 0 -5.5 -1.5t-1.5 -7.5v-259z" />
    <glyph glyph-name="S" unicode="S" horiz-adv-x="468" 
d="M55 30v59q0 6 4 5.5t11 -3.5q20 -6 44.5 -12t49 -9.5t41.5 -3.5q65 0 97.5 35.5t32.5 89.5q0 50 -29 78t-89 44q-28 7 -59 17.5t-58 29.5t-44.5 52t-17.5 86q0 64 29 103.5t76.5 57.5t102.5 18q23 0 48.5 -3.5t49 -10t41.5 -14.5q7 -1 8.5 -4t1.5 -8v-53q0 -18 -22 -6
q-23 12 -53.5 20.5t-67.5 8.5q-55 0 -88.5 -27.5t-33.5 -74.5q0 -34 15 -55.5t39 -33.5t51.5 -20t53.5 -16q46 -14 77 -34.5t47.5 -55.5t16.5 -92q0 -68 -27.5 -113.5t-78 -69.5t-118.5 -24q-29 0 -67 7t-70 17q-8 2 -11 5.5t-3 9.5z" />
    <glyph glyph-name="T" unicode="T" horiz-adv-x="442" 
d="M184 0q-4 0 -7 2.5t-3 6.5v584q0 5 -1.5 6.5t-5.5 1.5h-136q-7 0 -9 1.5t-2 7.5v55q0 5 2 6.5t8 1.5h380q8 0 10 -2t2 -7v-54q0 -6 -2 -7.5t-10 -1.5h-136q-5 0 -7 -1.5t-2 -6.5v-584q0 -9 -9 -9h-72z" />
    <glyph glyph-name="U" unicode="U" horiz-adv-x="634" 
d="M317 -7q-83 0 -131 19.5t-71.5 48.5t-31.5 59.5t-10 53.5q-4 41 -6 89t-2 92q1 49 3 103t6.5 107t11.5 98q0 4 3.5 7t7.5 3h34h34q6 0 7 -2t0 -14q-4 -40 -7 -83t-5 -89q-4 -79 -4.5 -154.5t6.5 -144.5q2 -23 9 -44.5t23 -38.5t45.5 -27.5t75.5 -10.5t75.5 10.5
t46.5 27.5t24 39t9 44q6 68 6 142t-4 152q-2 47 -5.5 91.5t-7.5 85.5q0 12 1 14t7 2h35.5h34.5q6 0 8.5 -3t3.5 -7q7 -45 11.5 -97.5t6.5 -106t2 -101.5q1 -45 -0.5 -93.5t-6.5 -90.5q-2 -18 -7 -41.5t-18.5 -48t-39.5 -45t-70 -33.5t-110 -13z" />
    <glyph glyph-name="V" unicode="V" horiz-adv-x="546" 
d="M236 0q-5 1 -9 3.5t-7 8.5q-21 42 -44 105t-45 136t-41 147t-33 139t-20 111q-2 13 -1 18t8 5h70q6 0 8.5 -3t4.5 -15q5 -35 14 -79t21 -92t25 -96.5t27 -92.5t27 -81q6 -17 12.5 -41t13.5 -42q3 -5 5 -5t5 5q8 17 15 41t12 42q13 36 26.5 80t27 93t25.5 97t21 92.5
t14 78.5q3 12 5 15t8 3h71q7 0 8 -5t-1 -18q-6 -44 -20 -108.5t-33.5 -139t-41.5 -149t-44.5 -137.5t-42.5 -103q-4 -7 -8 -9.5t-9 -3.5h-74z" />
    <glyph glyph-name="W" unicode="W" horiz-adv-x="834" 
d="M231 0q-14 0 -19 12q-22 42 -45 105t-45 136.5t-41.5 148.5t-33 142t-20.5 116q-1 6 0.5 9.5t7.5 3.5h11.5h22h23h13.5q7 0 9 -2t3 -8q6 -40 19 -103t35 -151q16 -63 30.5 -115t27.5 -92.5t24 -68.5q2 -4 3.5 -6.5t3.5 -2.5h3h2q3 0 4.5 2.5t2.5 6.5q8 19 18 48t21.5 63
t22 68.5t19 64.5t13.5 52q1 32 0.5 70t-2 73t-2 60t-0.5 29q0 6 1 9.5t7 3.5h13.5h22.5h22.5h13.5q6 0 8 -2t2 -9q0 -45 3.5 -90.5t9 -84.5t11.5 -69q13 -72 35 -143t48 -140q3 -7 4.5 -9.5t3.5 -2.5h3h3t5 7q9 20 22 59t29 93t32 118q12 44 20.5 79t15 65.5t12 58
t10.5 56.5q1 8 3.5 10.5t7.5 2.5h13h22.5h22.5h13q12 0 8 -15q-8 -43 -23 -108t-34 -141.5t-40.5 -151.5t-43.5 -139.5t-43 -104.5q-1 -4 -5.5 -8.5t-10.5 -4.5h-22.5h-29h-23.5q-5 0 -9 5t-6 7q-15 32 -32 74t-32.5 91t-30.5 100q-3 10 -6 12.5t-8 -11.5
q-15 -52 -27.5 -91.5t-23 -71t-20.5 -56.5t-21 -46q-2 -7 -7.5 -10t-9.5 -3h-22h-27.5h-20.5z" />
    <glyph glyph-name="X" unicode="X" horiz-adv-x="534" 
d="M360 355q-6 -9 -5.5 -16.5t6.5 -17.5q7 -11 13.5 -20t12.5 -19q27 -43 48.5 -84.5t38 -78t26.5 -63t13 -40.5q3 -10 -1.5 -13t-10.5 -3h-73q-4 0 -7 2.5t-6 11.5t-13 32.5t-24 55t-31 65.5t-34 64.5t-31 50.5q-7 4 -14 4.5t-15 -4.5q-17 -24 -34.5 -56t-34 -65
t-30.5 -63.5t-23 -52.5t-12 -31q-3 -8 -5 -11t-8 -3h-72q-8 0 -11.5 3t-1.5 13q2 8 15 43t37.5 88t59.5 112q8 14 18.5 31t20.5 31q4 5 4.5 16.5t-4.5 17.5q-32 50 -57 97t-43.5 87.5t-29 70.5t-13.5 46q-2 10 2.5 13.5t9.5 3.5h71q6 0 8.5 -2t4.5 -9l6 -17.5t17.5 -46.5
t26.5 -64t33.5 -70t38.5 -64q2 -2 4 -4.5t6 -4.5q5 -3 9.5 -2t8.5 2q4 3 5 3.5t4 4.5q20 28 38.5 63t34 70t27 64.5t18 47.5l6.5 18q2 7 4.5 9t8.5 2h71q6 0 10.5 -3.5t2.5 -13.5q-3 -16 -16 -48.5t-33 -75t-44.5 -88t-51.5 -89.5z" />
    <glyph glyph-name="Y" unicode="Y" horiz-adv-x="502" 
d="M309 295q-6 -8 -8.5 -22.5t-2.5 -25.5v-238q0 -4 -3 -6.5t-6 -2.5h-73q-9 0 -9 9v237q0 20 -9 40.5t-17 33.5q-8 10 -20 28.5t-24.5 39t-23 38t-15.5 26.5q-27 53 -45.5 97t-27.5 72.5t-11 34.5q-3 10 1.5 13.5t11.5 3.5h70q9 0 12 -11q5 -17 16 -45.5t26 -61.5t30 -63
q13 -27 27.5 -52.5t32.5 -49.5q6 -9 10 -10.5t11 9.5q9 12 19 27.5t20 32.5t18 32q15 31 30.5 66.5t27.5 66.5t16 49q2 6 4.5 8t8.5 2h72q5 0 9 -3.5t2 -13.5q-1 -6 -10 -34.5t-26.5 -72.5t-45.5 -96q-6 -13 -18 -33t-25.5 -43t-28 -44.5t-26.5 -37.5z" />
    <glyph glyph-name="Z" unicode="Z" horiz-adv-x="458" 
d="M414 673q5 0 6.5 -2t1.5 -10v-39q0 -14 -12 -33t-29 -39q-27 -31 -58 -75t-62.5 -95t-59.5 -105t-50.5 -106t-35.5 -97h320q8 0 10 -2t2 -8v-53q0 -6 -2 -7.5t-9 -1.5h-395q-14 0 -18 8.5t-2 23.5q2 39 17.5 88.5t41 104t56.5 109.5t63 105.5t61.5 92t50.5 69.5h-271
q-7 0 -9 2t-2 7v54q0 5 2 7t9 2h374z" />
    <glyph glyph-name="bracketleft" unicode="[" horiz-adv-x="353" 
d="M277 -103q0 -10 -7 -10h-214q-6 0 -8.5 3t-2.5 9v839q0 10 11 10h211q7 0 8.5 -1t1.5 -6v-44q0 -4 -2.5 -5.5t-6.5 -1.5h-136v-744h136q5 0 7 -1.5t2 -6.5v-41z" />
    <glyph glyph-name="backslash" unicode="\" horiz-adv-x="562" 
d="M464 0q-6 0 -9.5 3t-7.5 8l-409 675q-9 13 -8 17t8 4h57q7 0 9 -1.5t7 -7.5l418 -686q4 -4 3.5 -8t-7.5 -4h-61z" />
    <glyph glyph-name="bracketright" unicode="]" horiz-adv-x="353" 
d="M83 -113q-8 0 -8 10v41q0 5 2.5 6.5t7.5 1.5h135v744h-135q-4 0 -7 1.5t-3 5.5v44q0 5 2 6t9 1h212q10 0 10 -10v-839q0 -6 -2.5 -9t-8.5 -3h-214z" />
    <glyph glyph-name="asciicircum" unicode="^" horiz-adv-x="593" 
d="M58 410q-9 0 -12 3t2 8l199 277q3 4 7 6.5t15 2.5h60q7 0 10.5 -2.5t6.5 -8.5l197 -273q8 -8 4.5 -10.5t-11.5 -2.5h-68q-4 0 -7 2.5t-8 7.5l-156 221l-156 -220q-5 -6 -8.5 -8.5t-11.5 -2.5h-63z" />
    <glyph glyph-name="underscore" unicode="_" horiz-adv-x="560" 
d="M23 -92q-5 0 -6.5 2.5t-1.5 6.5v34q0 6 2 8t7 2h513q5 0 6.5 -1.5t1.5 -7.5v-37q0 -4 -1.5 -5.5t-8.5 -1.5h-512z" />
    <glyph glyph-name="grave" unicode="`" horiz-adv-x="145" 
d="M95 529q-9 0 -17 8l-77 89q-2 3 -0.5 6t4.5 3h69q7 0 10.5 -1.5t6.5 -7.5l50 -87q7 -10 -2 -10h-44z" />
    <glyph glyph-name="a" unicode="a" horiz-adv-x="478" 
d="M232 -8q-50 0 -92.5 11.5t-68.5 43.5t-26 93q0 51 18 84t47 50.5t61 24.5t60 7q27 0 53.5 -2.5t43.5 -5.5q13 -3 13 17q0 53 -27.5 75t-83.5 22q-38 0 -72.5 -12.5t-56.5 -25.5q-8 -4 -11 -3t-4 8l-7 43q-1 9 0.5 12t7.5 7q24 16 62 26t83 10q65 0 103.5 -15t58 -40.5
t26 -58t7.5 -68.5q0 -48 -0.5 -89.5t-2 -81.5t-5.5 -82q-2 -9 -6.5 -14.5t-17.5 -11.5q-14 -6 -35.5 -10.5t-44.5 -7.5t-45 -4.5t-38 -1.5zM237 50q9 0 23.5 1.5t30 5t26.5 9.5t13 15q3 28 5 65t1 69q0 17 -12 22q-13 5 -38.5 7.5t-52.5 2.5q-14 0 -31 -4t-33 -15t-26 -32.5
t-10 -55.5q0 -30 13 -50t36.5 -30t54.5 -10z" />
    <glyph glyph-name="b" unicode="b" horiz-adv-x="478" 
d="M233 -6q-51 0 -91.5 9t-51.5 13q-14 5 -21 9t-9.5 12t-5.5 22q-3 18 -5.5 55.5t-4 81t-1.5 79.5q-1 113 3.5 223t14.5 201q0 5 3 7t9 2h65q11 0 11.5 -4t-0.5 -13q-2 -17 -4.5 -40.5t-4.5 -50t-3.5 -51.5t-2 -44.5t-0.5 -30.5q0 -9 4.5 -11.5t11.5 -0.5q13 4 39 9t50 5
q34 0 68.5 -11t62.5 -38.5t45.5 -76t17.5 -124.5q0 -121 -53.5 -176.5t-146.5 -55.5zM231 63q32 0 57.5 15.5t40 51.5t14.5 98q0 56 -10 90t-27.5 52t-36.5 24.5t-38 6.5q-11 0 -28.5 -3t-33 -7t-22.5 -6q-5 -1 -8.5 -4t-3.5 -11q-1 -19 -1 -50t0.5 -69.5t2 -78.5t3.5 -77
q1 -8 3.5 -12t6.5 -6q13 -5 34.5 -9.5t46.5 -4.5z" />
    <glyph glyph-name="c" unicode="c" horiz-adv-x="401" 
d="M240 -6q-62 0 -102 18.5t-62.5 51.5t-31.5 77t-9 94q0 47 9.5 90.5t32 78t62 54.5t100.5 20q42 0 73 -8.5t54 -26.5q6 -6 7.5 -9t1.5 -9v-54q0 -7 -4.5 -7t-8.5 3q-22 21 -52 29.5t-61 8.5q-35 0 -59 -14.5t-38.5 -39.5t-21 -55t-6.5 -62q0 -52 12 -90.5t39 -59.5t70 -21
q28 0 52.5 6.5t48.5 17.5q12 6 18 -5l18 -39q3 -6 1.5 -9.5t-6.5 -6.5q-25 -17 -61.5 -25t-75.5 -8z" />
    <glyph glyph-name="d" unicode="d" horiz-adv-x="492" 
d="M43 230q1 76 19 123.5t47 74t64 36.5t69 10q24 0 47 -3.5t37 -7.5q10 -2 14.5 -1.5t4.5 9.5q0 17 -0.5 41t-2 49.5t-3 50t-2.5 43.5t-2 27q-2 11 1 13.5t9 2.5h67q4 0 7.5 -1.5t3.5 -6.5q4 -46 6.5 -101.5t4 -115t2 -120t-1 -117t-4 -105.5t-7.5 -87q-2 -8 -6.5 -14
t-21.5 -12q-23 -10 -63.5 -18t-86.5 -8q-41 0 -76 10t-60 32q-33 28 -50 77t-16 119zM133 229q0 -67 15.5 -101.5t41.5 -46.5q17 -13 42 -16.5t50.5 0t44.5 11.5q4 3 7 6t3 8q2 24 3.5 54.5t2 63t1.5 63t1 56v40.5q0 9 -3.5 12.5t-8.5 4.5q-20 6 -44 10t-42 4q-17 0 -37 -6
t-37.5 -23t-28 -50.5t-11.5 -89.5z" />
    <glyph glyph-name="e" unicode="e" horiz-adv-x="463" 
d="M38 237q0 47 9.5 90t32 77.5t61.5 54t100 19.5q63 0 100.5 -18t57 -48t25.5 -66t6 -72q0 -39 -8 -49.5t-24 -10.5h-261q-4 0 -7 -2t-3 -11q1 -41 15.5 -73t44 -50.5t73.5 -18.5q34 0 68 9.5t54 20.5q10 5 15.5 6t10.5 -10l16 -30q4 -7 2 -10.5t-10 -8.5
q-33 -21 -79.5 -31.5t-94.5 -10.5q-63 0 -102.5 18.5t-62 52t-31 77.5t-8.5 95zM340 288q0 34 -8.5 61t-30 43.5t-62.5 16.5q-30 0 -51 -11.5t-33.5 -29.5t-18.5 -39.5t-8 -41.5q-1 -12 0.5 -15.5t9.5 -3.5h187q9 0 12.5 3t2.5 17z" />
    <glyph glyph-name="f" unicode="f" horiz-adv-x="346" 
d="M99 10q-3 34 -6 81t-4.5 100t-2.5 106t-1 98q0 10 -8 10h-54q-5 0 -7 2t-2 7v48q0 6 2 8t8 2h54q5 0 6 1.5t1 8.5q0 51 5 90.5t27 71.5q24 34 66 51t103 17q30 0 55 -8.5t35 -13.5q9 -6 11 -9t1 -9l-13 -39q-2 -7 -4.5 -8t-7.5 2q-12 7 -32 13t-47 5q-40 0 -67 -17
t-34 -61q-7 -20 -8.5 -41.5t-0.5 -44.5q0 -5 1.5 -7t6.5 -2h141q6 0 8 -1.5t2 -9.5v-46q0 -6 -2.5 -8t-8.5 -2h-139q-5 0 -7.5 -2.5t-2.5 -7.5q0 -50 1.5 -107t3.5 -111.5t4 -98t3 -68.5q1 -7 0 -9t-6 -2h-71q-3 0 -5.5 2.5t-3.5 8.5z" />
    <glyph glyph-name="g" unicode="g" horiz-adv-x="484" 
d="M38 242q0 67 18 120.5t64 84.5t128 31q39 0 77 -6t67 -18q19 -6 24 -16.5t7 -32.5q9 -76 10 -173.5t-11 -199.5q-11 -86 -62.5 -126t-141.5 -40q-36 0 -78 10t-77 36q-5 4 -7 9t1 10q3 6 9.5 17t10.5 17q4 8 8 8.5t10 -3.5q14 -9 34.5 -17.5t43 -14t41.5 -5.5q25 0 49 8
t42.5 27.5t23.5 53.5q0 2 0.5 3.5t0.5 2.5q1 7 -3 9.5t-13 0.5q-16 -4 -37.5 -7.5t-43.5 -3.5q-59 0 -103.5 25t-68.5 73t-23 117zM130 254q0 -46 10 -82t35 -56.5t68 -20.5q20 0 39 2.5t35 8.5q20 8 22 25q2 25 2 59.5t-0.5 70t-2 66t-3.5 49.5q0 6 -3 15t-12 13
q-11 6 -31 9t-44 3q-43 0 -68 -20.5t-36 -57t-11 -84.5z" />
    <glyph glyph-name="h" unicode="h" horiz-adv-x="464" 
d="M50 9v345v345q0 9 10 9h35h35q9 0 9 -9v-113.5v-114.5q0 -7 3.5 -9t8.5 0q18 5 43.5 10t50.5 5q40 0 72 -11.5t54 -39t34.5 -73.5t13.5 -114q1 -40 -1 -82t-5.5 -80.5t-7.5 -68.5q0 -5 -3.5 -6.5t-10.5 -1.5h-30.5h-30.5q-11 0 -12.5 2.5t0.5 14.5q5 44 7.5 94.5
t3.5 98.5q0 55 -6.5 92.5t-20 61t-32.5 34.5t-44 11q-16 0 -35 -3.5t-36 -8.5q-7 -1 -11.5 -6t-4.5 -17v-365q0 -9 -9 -9h-70q-10 0 -10 9z" />
    <glyph glyph-name="i" unicode="i" horiz-adv-x="205" 
d="M153 602q0 -22 -9 -33.5t-39 -11.5q-29 0 -39.5 11.5t-10.5 33.5q0 20 10.5 31.5t39.5 11.5q32 0 40 -11.5t8 -31.5zM149 9q0 -9 -8 -9h-71q-9 0 -9 9v454q0 9 9 9h71q8 0 8 -9v-454z" />
    <glyph glyph-name="j" unicode="j" horiz-adv-x="205" 
d="M-88 -69l16 30q4 6 7.5 6t8.5 -3q26 -11 50 -11q39 1 56 26.5t17 74.5v409q0 9 9 9h70q10 0 10 -9v-409q0 -77 -30 -120.5t-111 -43.5q-22 0 -45 4.5t-40 11.5q-11 6 -17 11t-1 14zM160 602q0 -22 -9.5 -33.5t-39.5 -11.5q-29 0 -39 11.5t-10 33.5q0 20 10 31.5t39 11.5
q32 0 40.5 -11.5t8.5 -31.5z" />
    <glyph glyph-name="k" unicode="k" horiz-adv-x="438" 
d="M60 4v685q0 4 4 4h81q4 0 4 -4v-387q0 -2 1 -5.5t3 -3.5q12 0 22.5 1t20.5 2q9 3 13.5 6t10.5 12q18 23 32.5 47t26.5 50t22 51q4 8 7.5 9t11.5 1h71q7 0 7.5 -3.5t-1.5 -7.5q-1 -3 -9.5 -21.5t-23 -46.5t-33 -58.5t-39.5 -57.5q-4 -4 -7 -7.5t-6 -7.5q2 -1 5 -3t4 -4
q17 -18 35.5 -47.5t35.5 -63.5t31 -64t22.5 -50t9.5 -22q4 -8 -3 -8h-14.5h-25.5h-26h-15q-4 0 -5 0.5t-4 6.5l-7 15.5t-19 39.5t-25.5 50.5t-27 50t-24.5 37.5q-4 8 -12.5 14.5t-22 10t-38.5 -0.5q-4 -1 -4 -11v-209q0 -4 -4 -4h-81q-4 0 -4 4z" />
    <glyph glyph-name="l" unicode="l" horiz-adv-x="210" 
d="M60 9v690q0 9 10 9h69q10 0 10 -9v-690q0 -9 -10 -9h-69q-10 0 -10 9z" />
    <glyph glyph-name="m" unicode="m" horiz-adv-x="737" 
d="M71 0q-11 0 -11 9v412q0 13 5 18.5t15 9.5q15 6 39.5 12t51 10.5t49.5 4.5q56 0 90.5 -15.5t58.5 -42.5q15 18 36 31t44.5 20t47.5 7q76 0 117 -30t57 -80.5t16 -113.5q0 -51 -2 -95.5t-5 -81t-6 -67.5q-1 -5 -3 -6.5t-6 -1.5h-70q-6 0 -7.5 2.5t-0.5 10.5q2 22 3.5 61.5
t3 87t1.5 94.5q0 23 -4.5 49.5t-16 49t-31.5 36.5t-50 14q-36 0 -56 -17.5t-20 -48.5v-92v-80.5v-76v-79.5q0 -11 -11 -11h-70q-8 0 -8 8v245q0 45 -10 79t-33 53.5t-64 19.5q-16 0 -30.5 -3t-26.5 -8q-15 -5 -15 -21v-362q0 -11 -10 -11h-68z" />
    <glyph glyph-name="n" unicode="n" horiz-adv-x="481" 
d="M71 0q-11 0 -11 9v211.5v210.5q0 8 5.5 12.5t21.5 9.5q13 4 38.5 10t55 10.5t54.5 4.5q79 0 121 -30t58 -81.5t16 -113.5q0 -44 -1.5 -88.5t-4 -83t-5.5 -65.5q-1 -12 -4 -14t-13 -2h-56q-10 0 -13.5 2.5t-2.5 11.5q0 6 2 32.5t4 63.5t3 75.5t1 68.5q0 53 -11.5 86.5
t-35 49t-60.5 15.5q-19 0 -36 -3t-31 -8q-7 -1 -12 -6.5t-5 -19.5v-112.5v-122v-124.5q0 -9 -8 -9h-70z" />
    <glyph glyph-name="o" unicode="o" horiz-adv-x="496" 
d="M248 -6q-83 0 -129 31t-63.5 86.5t-17.5 125.5t19.5 124.5t65.5 85.5t125 31t125 -31t65.5 -85.5t19.5 -124.5t-17.5 -125t-63 -86.5t-129.5 -31.5zM247 63q67 0 93.5 45.5t26.5 127.5q0 81 -29 125t-91 44q-61 0 -90.5 -44t-29.5 -125q0 -83 27 -128t93 -45z" />
    <glyph glyph-name="p" unicode="p" horiz-adv-x="490" 
d="M66 -103q-3 53 -4.5 129t-1.5 177q1 36 1.5 77.5t3 81.5t6.5 70q1 8 5.5 14t20.5 10q28 10 68.5 17t89.5 7q97 0 147 -56.5t50 -177.5q0 -48 -9.5 -90t-28.5 -74t-48 -52.5t-68 -26.5q-18 -4 -42.5 -5.5t-47.5 -0.5t-39 4q-7 2 -11 2t-5 -6v-24t0.5 -34.5t0.5 -32.5
q1 -9 0.5 -13.5t-11.5 -4.5h-64q-6 0 -9 2.5t-4 6.5zM152 100q0 -8 4 -11t9 -4q19 -6 42.5 -9.5t41.5 -3.5t37.5 7t36.5 25t28 52.5t11 89.5q0 94 -30 129.5t-79 35.5q-24 0 -46 -3.5t-39 -10.5q-5 -2 -8 -5t-3 -8q-2 -24 -3 -55t-1.5 -64.5t-1 -65.5t-0.5 -58t1 -41z" />
    <glyph glyph-name="q" unicode="q" horiz-adv-x="482" 
d="M177 3q-27 6 -53.5 21t-47 43t-32 72t-8.5 107q5 121 58 177.5t150 56.5q50 0 89.5 -7t68.5 -17q15 -4 19 -10t5 -14q3 -26 3 -67t-1 -91t-3.5 -103.5t-5 -105t-6 -95t-6.5 -73.5q-1 -4 -4.5 -6.5t-8.5 -2.5h-65q-11 0 -10.5 4.5t0.5 13.5q2 14 3 32.5t2 34.5t0 24
q0 6 -4.5 6t-12.5 -2q-28 -4 -63 -4.5t-67 6.5zM126 246q-2 -55 7 -89.5t25 -52.5t36 -24.5t37 -6.5t42 3t46 9q5 1 8 4t3 11q1 15 2.5 41t2.5 58t1.5 65.5t0.5 64.5v55q1 5 -1.5 8t-8.5 5q-17 7 -39 10.5t-45 3.5q-50 0 -81 -35.5t-36 -129.5z" />
    <glyph glyph-name="r" unicode="r" horiz-adv-x="330" 
d="M210 477q65 0 110 -18q6 -3 8.5 -6t0.5 -8l-12 -46q-2 -6 -4.5 -7t-8.5 1q-18 6 -39 8.5t-37 2.5t-31 -2.5t-26.5 -5.5t-16.5 -6t-10 -7t-5 -18v-351q0 -9 -3 -11.5t-9 -2.5h-68q-3 0 -6 2t-3 10v406q0 15 4 20t13 9q29 14 69.5 22t73.5 8z" />
    <glyph glyph-name="s" unicode="s" horiz-adv-x="399" 
d="M41 93q1 7 5.5 6t9.5 -4q16 -9 40 -16t48.5 -11t42.5 -4q26 0 48 7.5t36 24.5t14 43q0 32 -25 46.5t-83 22.5q-37 6 -69.5 19t-52.5 39t-20 69q0 47 24.5 78.5t64 47.5t84.5 16q36 0 78.5 -10t67.5 -27q6 -4 6.5 -6.5t-1.5 -7.5l-16 -47q-3 -10 -14 -4q-20 13 -54 23.5
t-67 10.5q-38 0 -62.5 -19t-24.5 -47q0 -31 25.5 -44t72.5 -20q31 -5 57.5 -12.5t47.5 -21.5t32.5 -37t11.5 -60q0 -44 -16.5 -73t-43.5 -47t-59.5 -25.5t-64.5 -7.5q-16 0 -43.5 4t-55.5 12.5t-47 20.5q-4 3 -6 5.5t-1 6.5z" />
    <glyph glyph-name="t" unicode="t" horiz-adv-x="336" 
d="M225 0q-64 0 -95 27t-40 76q-9 42 -9.5 88t-0.5 94q0 32 1 60t2 59q0 9 -8 9h-48q-5 0 -7 2t-2 8v39q0 6 2 8t8 2h49q6 0 7.5 3t1.5 10l5 82q0 9 8 9h69q4 0 7.5 -2.5t2.5 -6.5l-4 -82q-1 -8 0.5 -10.5t6.5 -2.5h107q7 0 8.5 -1.5t1.5 -9.5v-38q0 -5 -2.5 -7.5t-8.5 -2.5
h-106q-5 0 -7.5 -2.5t-2.5 -9.5q-1 -30 -2 -61t-2 -63q0 -39 1 -79.5t10 -77.5q6 -26 20.5 -38.5t44.5 -12.5q13 0 26.5 3.5t24.5 7.5q9 5 11.5 3.5t4.5 -8.5l13 -42q3 -6 -1.5 -10t-16.5 -9q-11 -4 -26 -7.5t-29.5 -5t-24.5 -1.5z" />
    <glyph glyph-name="u" unicode="u" horiz-adv-x="483" 
d="M249 -4q-78 0 -120.5 30t-59 81.5t-16.5 112.5q0 44 1.5 88t4.5 83l5 65q1 12 4.5 14t13.5 2h55q10 0 14 -1t2 -13q0 -6 -1.5 -31t-3.5 -61t-3 -75.5t-1 -74.5q0 -71 24.5 -109.5t81.5 -38.5q7 0 21 1t29 4t25 9t10 16v362q0 4 1 8t5 4h72q3 0 6.5 -1.5t3.5 -7.5v-414
q0 -12 -6.5 -17.5t-26.5 -12.5q-10 -3 -34 -8.5t-53 -10t-54 -4.5z" />
    <glyph glyph-name="v" unicode="v" horiz-adv-x="408" 
d="M178 0q-7 0 -10 6q-25 42 -44 89.5t-36 94.5q-28 80 -44.5 146t-24.5 116q-4 20 7 20h73q5 0 8.5 -3t4.5 -8q3 -33 12.5 -75t21.5 -92q15 -56 29.5 -99.5t26.5 -70.5q3 -7 7 -6.5t6 6.5q10 20 22.5 57t25.5 87q13 55 24 109t15 88q1 7 7 7h77q6 0 5 -7
q-8 -57 -24.5 -126.5t-42.5 -143.5q-15 -46 -35 -94t-46 -95q-3 -6 -8 -6h-57z" />
    <glyph glyph-name="w" unicode="w" horiz-adv-x="633" 
d="M162 12q-28 55 -51.5 115.5t-41.5 119.5t-30.5 111t-19.5 91q-2 11 -0.5 17t7.5 6h73q11 0 13 -11q5 -30 13 -69t19 -80t22 -79t21.5 -68t18.5 -45q2 -6 4.5 -5t3.5 3q11 18 20.5 45.5t17 58.5t12 58.5t4.5 42.5v33.5t-0.5 39t-0.5 37v27.5q0 12 10 12h74q4 0 7.5 -2.5
t3.5 -8.5q0 -24 0.5 -60.5t2.5 -84.5q1 -14 6 -36t12 -46t15.5 -47t15.5 -41.5t12 -27.5q5 -10 10 0q8 17 18.5 47.5t21.5 67.5t20.5 77.5t17.5 79t13 69.5q2 13 16 13h64q6 0 7.5 -5.5t-0.5 -15.5q-5 -42 -19 -99.5t-33.5 -120t-42 -120t-47.5 -99.5q-3 -7 -6.5 -9.5
t-7.5 -2.5h-55q-5 0 -7.5 1.5t-5.5 7.5q-11 19 -23.5 46.5t-23.5 55t-18 48.5q-7 20 -15 0q-4 -13 -10.5 -30t-13.5 -34t-14 -32l-14.5 -29l-12.5 -25q-2 -4 -6 -6.5t-9 -2.5h-52q-7 0 -9 1.5t-7 10.5z" />
    <glyph glyph-name="x" unicode="x" horiz-adv-x="401" 
d="M22 0q-5 0 -6.5 4.5t-0.5 10t1 8.5q1 7 8.5 28t21 51t31.5 65t40 70q3 5 2.5 9.5t-4.5 9.5q-23 32 -40.5 68.5t-30 68.5t-19 52.5l-6.5 20.5q-1 6 4 6h81q5 0 7.5 -1.5t4.5 -9.5q2 -7 9.5 -30.5t18.5 -52.5t24.5 -55t27.5 -39h9h9q15 13 28.5 38.5t24.5 54t18 52t8 30.5
q2 8 5 10.5t12 2.5h62q3 0 6.5 -1.5t2.5 -8.5t-7 -28t-17 -50t-28 -62.5t-40 -65.5q-7 -7 1 -18q25 -35 43 -71.5t30 -68t18.5 -52.5t7.5 -26q2 -9 0.5 -14.5t-7.5 -5.5h-64q-8 0 -11.5 2.5t-5.5 10.5q-3 10 -11 35t-19.5 55t-26 57t-30.5 42h-7.5h-3.5h-8
q-18 -24 -33.5 -56.5t-27.5 -63t-18.5 -51l-6.5 -20.5q-2 -8 -5 -9.5t-9 -1.5h-73z" />
    <glyph glyph-name="y" unicode="y" horiz-adv-x="416" 
d="M148 81q-22 35 -42 82t-36.5 99t-28 102.5t-18.5 93.5q-2 14 9 14h69q7 0 11 -3.5t5 -14.5q3 -22 9 -53.5t15.5 -67.5t20.5 -71.5t22 -65t21 -48.5q4 -7 8 -6.5t5 4.5q12 26 25.5 64.5t26.5 82.5t22.5 87t14.5 79q1 8 4.5 10.5t10.5 2.5h61q7 0 10.5 -2.5t1.5 -12.5
q-5 -37 -13 -72t-18.5 -71t-23.5 -76q-11 -33 -27.5 -79t-40 -94.5t-55.5 -91t-74 -69t-97 -26.5q-19 0 -33.5 2.5t-25.5 6.5q-15 7 -9 19l17 36q3 6 6.5 6.5t9.5 -1.5q22 -4 47.5 3t45.5 23q19 12 29.5 24t18.5 28q6 12 5 27t-9 29z" />
    <glyph glyph-name="z" unicode="z" horiz-adv-x="367" 
d="M25 23q8 58 34.5 115.5t62.5 115.5q24 40 49.5 75t48.5 62q3 4 3.5 6.5t-6.5 4.5h-161q-5 0 -7.5 1.5t-2.5 7.5v51q0 8 2.5 9t8.5 1h272q9 0 10 -2.5t1 -10.5v-42q0 -5 -4 -13t-13 -14q-20 -17 -42 -43t-42.5 -55.5t-38.5 -57.5q-25 -42 -46.5 -81t-32.5 -69q-1 -4 0 -9
t10 -5h199q6 0 7.5 -2t1.5 -9v-50q0 -6 -3 -7.5t-10 -1.5h-289q-7 0 -9.5 3.5t-2.5 19.5z" />
    <glyph glyph-name="braceleft" unicode="{" horiz-adv-x="425" 
d="M350 -96q0 -10 -3 -14t-14 -4h-71q-49 0 -73 18.5t-30.5 45.5t-6.5 53v187q0 26 -10.5 47.5t-27.5 33.5q-8 6 -22.5 11.5t-36.5 5.5q-7 0 -8.5 4.5t-1.5 9.5v50q0 5 3.5 7t11.5 2q41 0 66.5 26.5t25.5 70.5v172q0 26 6.5 52.5t30.5 45t73 18.5h79q6 0 7.5 -2t1.5 -5v-44
q0 -3 -1.5 -5t-7.5 -2h-52q-31 0 -39 -16t-8 -42v-172q0 -27 -11.5 -54t-32 -47t-48.5 -30q-3 -1 -5 -2.5t-2 -2.5q4 -1 10.5 -4.5t12.5 -7.5q34 -17 55 -51.5t21 -68.5v-187q0 -26 8 -42t39 -16h44q9 0 13 -3t4 -13v-25z" />
    <glyph glyph-name="bar" unicode="|" horiz-adv-x="273" 
d="M173 707q7 0 8.5 -3t1.5 -10v-798q0 -3 -2 -6.5t-8 -3.5h-71q-6 0 -8.5 3.5t-2.5 13.5v793q0 6 2 8.5t8 2.5h72z" />
    <glyph glyph-name="braceright" unicode="}" horiz-adv-x="425" 
d="M75 -96v25q0 10 4 13t14 3h44q30 0 37.5 16t7.5 42v187q0 34 21.5 68.5t56.5 51.5q5 4 12 7.5t11 4.5q-1 1 -3 2.5t-5 2.5q-28 10 -49 30t-32.5 47t-11.5 54v172q0 26 -7.5 42t-37.5 16h-53q-6 0 -7.5 2t-1.5 5v44q0 3 1.5 5t7.5 2h80q50 0 72.5 -18.5t29.5 -45t7 -52.5
v-172q0 -44 25.5 -70.5t66.5 -26.5q8 0 11.5 -2t3.5 -7v-50q0 -5 -1.5 -9.5t-7.5 -4.5q-23 0 -37 -5.5t-22 -11.5q-18 -12 -28.5 -33.5t-10.5 -47.5v-187q0 -26 -7 -53t-29.5 -45.5t-72.5 -18.5h-71q-11 0 -14.5 4t-3.5 14z" />
    <glyph glyph-name="asciitilde" unicode="~" horiz-adv-x="495" 
d="M443 590q-23 -23 -52 -38.5t-63 -15.5q-25 0 -46 8t-40 18t-37.5 18t-37.5 8q-14 0 -29.5 -8.5t-28.5 -20.5t-20 -22q-2 -4 -4.5 -3.5t-7.5 3.5l-28 29q-4 3 -3 7.5t2 6.5q10 15 27.5 31.5t39.5 29t47 12.5q19 0 38 -6t36 -14t34.5 -15t34.5 -10q12 -3 29.5 -0.5t36 10.5
t31.5 20q3 3 6 4.5t7 -2.5l31 -31q5 -5 3.5 -10t-6.5 -9z" />
    <glyph glyph-name="uni00A0" unicode="&#xa0;" horiz-adv-x="238" 
 />
    <glyph glyph-name="exclamdown" unicode="&#xa1;" horiz-adv-x="238" 
d="M148 256q5 0 6.5 -1.5t1.5 -9.5l11 -431q0 -4 -1.5 -6.5t-6.5 -2.5h-82q-8 0 -8 8l12 432q0 7 2 9t9 2h56zM74 449q0 20 9 30t38 10q27 0 37.5 -10t10.5 -30t-10.5 -30.5t-37.5 -10.5q-29 0 -38 10.5t-9 30.5z" />
    <glyph glyph-name="cent" unicode="&#xa2;" horiz-adv-x="469" 
d="M265 73q-62 0 -102 18.5t-62.5 52t-31.5 77.5t-9 94q0 47 9.5 90.5t32 78.5t62 55t100.5 20q42 0 73.5 -9t53.5 -27q6 -6 7.5 -9t1.5 -9v-53q0 -7 -4.5 -7t-8.5 3q-22 21 -52 29t-61 8q-35 0 -59 -15t-38.5 -40t-21 -55t-6.5 -61q0 -52 12.5 -90.5t39 -59.5t69.5 -21
q29 0 53 6t49 18q12 6 17 -5l18 -40q2 -6 1 -9t-6 -6q-25 -18 -61.5 -26t-75.5 -8zM303 114v-188q0 -3 -2 -6.5t-9 -3.5h-70q-6 0 -9 3.5t-3 13.5v181h93zM210 511v185q0 6 2.5 8.5t8.5 2.5h72q7 0 8.5 -3t1.5 -10v-183h-93z" />
    <glyph glyph-name="sterling" unicode="&#xa3;" horiz-adv-x="529" 
d="M360 -13q-35 0 -66.5 9t-70.5 18q-23 6 -46 8.5t-45 -1.5l-37.5 -5t-39.5 -8q-8 -3 -12.5 -2t-4.5 9v22v22q0 6 2 10t10 7q44 18 69.5 43.5t35.5 60.5t6 78h-46.5h-46.5q-7 0 -10.5 2t-3.5 7v21v20q0 9 2 11.5t7 2.5h41.5h40.5q-20 58 -33.5 108t-13.5 84q0 41 22 78
t64.5 60t103.5 23q16 0 37.5 -3t43.5 -8.5t37 -11.5q5 -2 6 -7.5t1 -9.5v-24v-24q0 -7 -1.5 -8.5t-11.5 2.5q-25 10 -55 18t-48 8q-38 0 -61.5 -13t-34.5 -34t-11 -46q0 -37 13.5 -83.5t29.5 -108.5h58h58q4 0 5.5 -3t1.5 -11v-20v-20q0 -6 -1.5 -8t-7.5 -2h-52h-51
q0 -5 0.5 -10t0.5 -10q2 -45 -9 -82t-40 -71q36 -4 63 -11t52 -13t51 -6q27 0 53 7.5t42 15.5q11 5 11 -8v-38q0 -11 -2 -15.5t-5 -5.5q-20 -13 -45 -18.5t-56 -5.5z" />
    <glyph glyph-name="currency" unicode="&#xa4;" horiz-adv-x="529" 
d="M95 148l-30 28q-4 5 -5 8t3 6l83 79q-8 15 -13 31.5t-5 35.5t5 36t14 32l-72 69q-4 3 -2.5 6.5t5.5 6.5l31 31q4 3 6 3t5 -3l71 -68q16 10 34.5 15.5t38.5 5.5q41 0 74 -21l71 68q4 3 6 3t5 -3l32 -31q4 -3 5 -6.5t-2 -6.5l-73 -69q10 -14 15 -31.5t5 -36.5
q0 -37 -19 -67l83 -79q4 -3 3 -6t-5 -8l-30 -28q-4 -4 -7 -4t-7 4l-82 76q-32 -21 -74 -21q-41 0 -74 21l-80 -76q-4 -4 -7.5 -4t-7.5 4zM184 336q0 -34 23 -56.5t57 -22.5q35 0 58 22.5t23 56.5t-23 56.5t-58 22.5q-34 0 -57 -22.5t-23 -56.5z" />
    <glyph glyph-name="yen" unicode="&#xa5;" horiz-adv-x="546" 
d="M331 295q-6 -8 -8.5 -22.5t-2.5 -25.5v-238q0 -4 -3 -6.5t-6 -2.5h-73q-9 0 -9 9v237q0 20 -9 40.5t-17 33.5q-8 10 -20 28.5t-24.5 39t-23 38t-15.5 26.5q-27 53 -45.5 97t-27.5 72.5t-11 34.5q-3 10 1.5 13.5t11.5 3.5h70q9 0 12 -11q5 -17 16 -45.5t26 -61.5t30 -63
q13 -27 28 -52.5t32 -49.5q6 -9 10 -10.5t11 9.5q9 12 19 27.5t20 32.5t18 32q15 31 30.5 66.5t27.5 66.5t16 49q2 6 4.5 8t8.5 2h72q5 0 9 -3.5t2 -13.5q-1 -6 -10 -34.5t-26.5 -72.5t-45.5 -96q-6 -13 -18 -33t-25.5 -43t-28 -44.5t-26.5 -37.5zM102 233q-6 0 -7.5 2
t-1.5 6v34q0 6 2 8t8 2h337q5 0 7 -2t2 -7v-36q0 -4 -1.5 -5.5t-8.5 -1.5h-337zM102 131q-6 0 -7.5 2t-1.5 7v33q0 6 2 7.5t8 1.5h337q5 0 7 -1.5t2 -7.5v-35q0 -4 -1.5 -5.5t-8.5 -1.5h-337z" />
    <glyph glyph-name="brokenbar" unicode="&#xa6;" horiz-adv-x="273" 
d="M183 286v-390q0 -3 -2 -6.5t-8 -3.5h-71q-6 0 -8.5 3.5t-2.5 13.5v383h92zM91 360v336q0 6 2 8.5t8 2.5h72q7 0 8.5 -3t1.5 -10v-334h-92z" />
    <glyph glyph-name="section" unicode="&#xa7;" horiz-adv-x="532" 
d="M63 -194v53q0 5 3.5 5t9.5 -2q18 -7 40.5 -12t44.5 -8t38 -3q58 0 87.5 32t29.5 81q0 36 -15 57t-39 33.5t-53 20.5q-24 6 -52 15.5t-53.5 26.5t-41 47t-15.5 78q0 57 25.5 100.5t70 67.5t98.5 24q16 0 41 -3.5t51.5 -10t44.5 -14.5q7 -2 9 -5.5t2 -8.5v-55q0 -20 -24 -7
q-13 7 -34 13.5t-43.5 10.5t-40.5 4q-34 0 -62.5 -13t-45 -36t-16.5 -54q2 -34 17 -54.5t36.5 -32t46 -18.5t48.5 -14q26 -8 50 -20t42 -30t28.5 -46t10.5 -70q0 -62 -25 -103t-70.5 -62.5t-107.5 -21.5q-26 0 -60.5 6t-62.5 16q-7 2 -10 4.5t-3 8.5zM168 98l-1 53
q0 3 4.5 5t10.5 2t10 -2q31 -18 59.5 -23t53.5 -4q51 1 80 29t29 82q0 32 -14.5 50.5t-38.5 29.5t-52 19q-25 6 -52.5 15t-52.5 26t-40 47t-15 77q0 56 26 91.5t68 51.5t91 16q14 0 36.5 -2.5t46.5 -8.5t41 -13q5 -2 7.5 -4.5t2.5 -6.5v-47q0 -17 -21 -6q-13 6 -32.5 12.5
t-39.5 9.5t-36 3q-48 0 -78.5 -24.5t-30.5 -65.5q0 -31 14 -50t35 -30t46 -18t48 -14q34 -10 62.5 -27t46 -46.5t17.5 -80.5q0 -64 -25.5 -104t-68.5 -58t-97 -18q-31 0 -62.5 4.5t-64.5 15.5q-7 3 -10 5.5t-3 8.5z" />
    <glyph glyph-name="dieresis" unicode="&#xa8;" horiz-adv-x="240" 
d="M89 573q0 -18 -8.5 -27.5t-34.5 -9.5q-24 0 -33.5 9.5t-9.5 27.5q0 19 9.5 28.5t33.5 9.5q26 0 34.5 -9.5t8.5 -28.5zM236 573q0 -18 -8.5 -27.5t-35.5 -9.5q-23 0 -33 9.5t-10 27.5q0 19 10 28.5t33 9.5q27 0 35.5 -9.5t8.5 -28.5z" />
    <glyph glyph-name="copyright" unicode="&#xa9;" horiz-adv-x="866" 
d="M60 333q0 73 29 137.5t80.5 113.5t119 77t144.5 28t144.5 -28t119 -77t80.5 -113.5t29 -137.5q0 -74 -29 -139t-80.5 -114.5t-119 -77.5t-144.5 -28t-145 28t-119 77.5t-80 114.5t-29 139zM131 333q0 -61 23.5 -114.5t65 -93.5t96 -63.5t117.5 -23.5t117.5 23.5t96 63.5
t64.5 93.5t23 114.5q0 60 -23 113t-64.5 93t-96 62.5t-117.5 22.5q-62 0 -117 -22.5t-96.5 -62.5t-65 -93t-23.5 -113zM258 336q0 65 25.5 107.5t71 64t103.5 21.5q17 0 40.5 -2.5t44.5 -7.5q6 -1 10.5 -3t4.5 -6v-38q0 -9 -17 -2q-18 6 -38 9.5t-37 3.5q-42 0 -71.5 -16
t-45.5 -48t-16 -80q0 -49 17 -88t52 -59t89 -12q14 1 28.5 5t22.5 8q10 5 13.5 4t3.5 -7v-32q0 -6 -3.5 -9t-10.5 -5q-11 -3 -28 -5.5t-29 -3.5q-68 -9 -120 12.5t-81 69.5t-29 119z" />
    <glyph glyph-name="ordfeminine" unicode="&#xaa;" horiz-adv-x="478" 
d="M232 -8q-50 0 -92.5 11.5t-68.5 43.5t-26 93q0 51 18 84t47 50.5t61 24.5t60 7q27 0 53.5 -2.5t43.5 -5.5q13 -3 13 17q0 53 -27.5 75t-83.5 22q-38 0 -72.5 -12.5t-56.5 -25.5q-8 -4 -11 -3t-4 8l-7 43q-1 9 0.5 12t7.5 7q24 16 62 26t83 10q65 0 103.5 -15t58 -40.5
t26 -58t7.5 -68.5q0 -48 -0.5 -89.5t-2 -81.5t-5.5 -82q-2 -9 -6.5 -14.5t-17.5 -11.5q-14 -6 -35.5 -10.5t-44.5 -7.5t-45 -4.5t-38 -1.5zM237 50q9 0 23.5 1.5t30 5t26.5 9.5t13 15q3 28 5 65t1 69q0 17 -12 22q-13 5 -38.5 7.5t-52.5 2.5q-14 0 -31 -4t-33 -15t-26 -32.5
t-10 -55.5q0 -30 13 -50t36.5 -30t54.5 -10z" />
    <glyph glyph-name="guillemotleft" unicode="&#xab;" horiz-adv-x="559" 
d="M402 158q-5 0 -8 3q-34 42 -67.5 83.5t-66.5 82.5q-10 10 0 19q33 41 66.5 82.5t67.5 82.5q2 3 4.5 3.5t3.5 0.5h39h38q5 0 4 -2.5t-3 -4.5q-1 -1 -15 -18.5t-34.5 -43.5t-40 -51t-33.5 -42l-14 -17l14 -17t33.5 -42t40 -50.5t34.5 -43t15 -18.5q2 -1 3 -4t-4 -3h-38h-39
zM193 158q-5 0 -8 3q-34 42 -67.5 83.5t-66.5 82.5q-10 10 0 19q33 41 66.5 82.5t67.5 82.5q2 3 4.5 3.5t3.5 0.5h39h38q5 0 4 -2.5t-3 -4.5q-1 -1 -15 -18.5t-34.5 -43.5t-40 -51t-33.5 -42l-14 -17l14 -17t33.5 -42t40 -50.5t34.5 -43t15 -18.5q2 -1 3 -4t-4 -3h-38h-39z
" />
    <glyph glyph-name="logicalnot" unicode="&#xac;" horiz-adv-x="680" 
d="M582 104q-6 0 -7.5 1.5t-1.5 6.5v179h-515q-6 0 -7 2t-1 6v43q0 5 1.5 7t7.5 2h562q5 0 7 -1.5t2 -6.5v-231q0 -5 -2 -6.5t-7 -1.5h-39z" />
    <glyph glyph-name="uni00AD" unicode="&#xad;" horiz-adv-x="410" 
d="M69 244q-6 0 -7.5 2t-1.5 7v48q0 6 1.5 7.5t7.5 1.5h272q6 0 7.5 -1.5t1.5 -7.5v-50q0 -4 -1.5 -5.5t-7.5 -1.5h-272z" />
    <glyph glyph-name="registered" unicode="&#xae;" horiz-adv-x="696" 
d="M348 190q-56 0 -105.5 20t-87 55t-59 81.5t-21.5 98.5q0 54 21.5 100t59 80.5t87 54.5t105.5 20q76 0 137.5 -34.5t98 -92t36.5 -128.5q0 -52 -21 -98.5t-58.5 -81.5t-87 -55t-105.5 -20zM348 239q61 0 111 28t79.5 75t29.5 103q0 58 -29.5 104.5t-79.5 74t-111 27.5
q-60 0 -110 -27.5t-80 -74t-30 -104.5q0 -56 30 -103t80 -75t110 -28zM267 313q-5 0 -5 3v265q0 3 5 3h71q54 0 79 -19.5t25 -65.5q0 -25 -12.5 -44t-35.5 -29q-5 -4 -7 -7t1 -8q6 -15 13.5 -27t19.5 -20q9 -6 20.5 -9.5t22.5 -3.5q4 0 5 -0.5t1 -3.5v-29q0 -2 -1.5 -3
t-11.5 -1q-21 0 -35 4.5t-28 12.5q-18 13 -34 32t-19 41q-1 2 -2.5 4.5t-5.5 2.5h-21q-3 0 -3 -5v-90q0 -3 -5 -3h-37zM309 448q0 -4 4 -4h28q28 0 42 13.5t14 40.5q0 33 -14 44.5t-46 11.5h-25q-3 0 -3 -4v-102z" />
    <glyph glyph-name="macron" unicode="&#xaf;" horiz-adv-x="220" 
d="M220 543q0 -2 -1.5 -3t-6.5 -1h-205q-5 0 -6 1.5t-1 4.5v44q0 5 1.5 6t5.5 1h205q5 0 6.5 -1t1.5 -5v-47z" />
    <glyph glyph-name="degree" unicode="&#xb0;" horiz-adv-x="395" 
d="M60 692q0 37 18.5 67.5t50 48.5t68.5 18q39 0 70 -18t49.5 -48.5t18.5 -67.5t-18.5 -67.5t-49.5 -48.5t-70 -18q-37 0 -68.5 18t-50 48.5t-18.5 67.5zM116 692q0 -34 23.5 -57t57.5 -23q35 0 57.5 23t22.5 57q0 33 -22.5 55.5t-57.5 22.5q-34 0 -57.5 -22.5t-23.5 -55.5z
" />
    <glyph glyph-name="plusminus" unicode="&#xb1;" horiz-adv-x="461" 
d="M204 154q-5 0 -7 1.5t-2 6.5v130h-137q-5 0 -6.5 2t-1.5 6v42q0 5 2 7t7 2h136v130q0 4 1.5 6t7.5 2h50q4 0 5.5 -1.5t1.5 -7.5v-129l142 -1q4 0 6 -2t2 -7v-43q0 -3 -1 -5t-7 -2l-142 1v-131q0 -5 -2 -6t-6 -1h-49zM60 43q-7 0 -8.5 2t-1.5 7v40q0 6 1.5 7.5t9.5 1.5
h339q6 0 8.5 -1.5t2.5 -6.5v-43q0 -4 -2 -5.5t-10 -1.5h-339z" />
    <glyph glyph-name="uni00B2" unicode="&#xb2;" horiz-adv-x="346" 
d="M40 250q-5 0 -6.5 1t-1.5 6v39q0 9 6 13q33 20 68 47t65.5 58t49.5 66t19 70q0 36 -22.5 57t-64.5 21q-26 0 -48 -7.5t-36.5 -15t-22.5 -9.5q-7 -3 -7 4v48q0 4 1 6.5t8 6.5q15 8 46.5 19t66.5 11q38 0 72 -14t56.5 -45t22.5 -80q0 -36 -14 -69t-38 -63t-54 -57.5
t-63 -51.5q-3 -2 -2 -4t3 -2h164q5 0 5 -4v-44q0 -5 -1 -6t-7 -1h-265z" />
    <glyph glyph-name="uni00B3" unicode="&#xb3;" horiz-adv-x="341" 
d="M155 247q-38 0 -71.5 14t-56.5 39q-3 4 -2.5 7.5t2.5 6.5l26 30q7 9 15 1q18 -17 40 -26.5t46 -9.5q26 0 43.5 10.5t27 27t9.5 33.5q0 24 -22 48t-69 24h-9.5h-10.5q-9 0 -9 10v38q0 10 9 10h15h16q33 1 52.5 20.5t19.5 42.5q0 22 -18 39.5t-55 17.5q-21 0 -44.5 -9.5
t-41.5 -25.5q-9 -8 -14 2l-24 39q-2 4 0 8t4 5q32 24 65.5 33t59.5 9q44 0 74 -15.5t45 -41t15 -53.5q0 -34 -18 -60t-46 -37q-5 -2 -6.5 -2t-1.5 -1t2 -1.5t7 -1.5q33 -10 54 -34.5t21 -63.5q0 -33 -17.5 -63.5t-50.5 -50t-81 -19.5z" />
    <glyph glyph-name="acute" unicode="&#xb4;" horiz-adv-x="144" 
d="M7 528q-7 0 -7 2.5t4 8.5l58 90q4 6 16 6h60q5 0 6.5 -2.5t-3.5 -7.5l-76 -92q-3 -3 -6 -4t-8 -1h-44z" />
    <glyph glyph-name="uni00B5" unicode="&#xb5;" horiz-adv-x="530" 
d="M80 -112q-7 0 -10.5 3t-4.5 12q0 32 -0.5 73.5t-1 85t-0.5 80.5q-1 22 -2 42.5t-1 35.5q0 44 2 88t4.5 82.5t4.5 64.5q1 12 4.5 14.5t14.5 2.5h57q9 0 11.5 -2.5t1.5 -11.5q0 -8 -1.5 -33t-3.5 -61.5t-3 -78t-1 -79.5q0 -73 26 -105.5t84 -32.5q39 0 60 12t21 30v350
q0 7 2 9.5t8 2.5h69q4 0 6.5 -2.5t2.5 -8.5v-344q0 -29 10.5 -40.5t28.5 -11.5q10 0 19 3.5t14 6.5q12 7 16 -4l13 -42q4 -10 -11 -17q-16 -8 -30.5 -12t-36.5 -4q-16 0 -35 6t-33 20t-19 36l28 -7q-24 -26 -60 -40.5t-77 -14.5q-47 0 -83 18.5t-52 53.5l22 7q2 -21 3 -43.5
t3 -45.5q1 -15 2 -32.5t2 -31t1 -19.5q1 -8 -1.5 -11.5t-11.5 -3.5h-62z" />
    <glyph glyph-name="paragraph" unicode="&#xb6;" horiz-adv-x="527" 
d="M237 309q-8 0 -16 0.5t-17 0.5q-39 3 -68.5 19.5t-50 43t-30.5 58t-10 62.5q0 50 19.5 90.5t60 65t104.5 24.5h125.5h125.5q6 0 9 -1.5t3 -7.5v-41q0 -8 -1.5 -10t-6.5 -2h-18h-18v-163.5v-178.5v-178v-163q0 -6 -1 -7t-6 -1h-56q-7 0 -8.5 1t-1.5 7v162v177v177v162
q0 4 -5 5h-26.5h-26.5q-5 -1 -5 -5v-678q0 -6 -1 -7t-6 -1h-62q-3 0 -4.5 1t-1.5 7v381z" />
    <glyph glyph-name="periodcentered" unicode="&#xb7;" horiz-adv-x="298" 
d="M182 280q0 -20 -9 -30t-39 -10q-27 0 -38 10t-11 30t11 30t38 10q30 0 39 -10t9 -30z" />
    <glyph glyph-name="cedilla" unicode="&#xb8;" horiz-adv-x="198" 
d="M178 -123q0 -29 -24 -51.5t-66 -22.5q-29 0 -50 11.5t-34 26.5q-4 6 -3.5 12t5.5 8l19 10q8 3 11 2t5 -5q7 -10 18.5 -17t23.5 -7q21 0 30.5 11t9.5 23q0 15 -10 23t-26 11t-32 3q-7 1 -10 6t1 12l37 61q3 5 6.5 6.5t8.5 1.5h23q11 0 6 -9l-29 -64l-13 19q42 -3 67.5 -20
t25.5 -51z" />
    <glyph glyph-name="uni00B9" unicode="&#xb9;" horiz-adv-x="189" 
d="M79 250q-7 0 -7 7v346q0 5 -5 2l-66 -34q-2 -1 -5.5 -1t-5.5 2l-21 37q-4 8 3 12l114 63q4 2 6.5 2.5t7.5 0.5h37q8 0 8 -7v-423q0 -7 -7 -7h-59z" />
    <glyph glyph-name="ordmasculine" unicode="&#xba;" horiz-adv-x="496" 
d="M248 -6q-83 0 -129 31t-63.5 86.5t-17.5 125.5t19.5 124.5t65.5 85.5t125 31t125 -31t65.5 -85.5t19.5 -124.5t-17.5 -125t-63 -86.5t-129.5 -31.5zM247 63q67 0 93.5 45.5t26.5 127.5q0 81 -29 125t-91 44q-61 0 -90.5 -44t-29.5 -125q0 -83 27 -128t93 -45z" />
    <glyph glyph-name="guillemotright" unicode="&#xbb;" horiz-adv-x="571" 
d="M301 158q-5 0 -3.5 3t2.5 4t15 18.5t34.5 43t40 50.5t33 42l13.5 17l-13.5 17t-33 42t-40 51t-34.5 43.5t-15 18.5q-1 2 -2.5 4.5t3.5 2.5h37.5h39.5q2 0 3.5 -0.5t4.5 -3.5q34 -41 67.5 -82.5t66.5 -82.5q11 -9 0 -19q-33 -41 -66.5 -82.5t-67.5 -83.5q-4 -3 -8 -3
h-39.5h-37.5zM80 158q-6 0 -4.5 3t2.5 4t15.5 18.5t35 43t40 50.5t33 42l13.5 17l-13.5 17t-33 42t-40 51t-35 43.5t-15.5 18.5q-1 2 -2.5 4.5t4.5 2.5h37h40q2 0 3.5 -0.5t4.5 -3.5q33 -41 66.5 -82.5t67.5 -82.5q10 -9 0 -19q-34 -41 -67.5 -82.5t-66.5 -83.5q-4 -3 -8 -3
h-40h-37z" />
    <glyph glyph-name="onequarter" unicode="&#xbc;" horiz-adv-x="776" 
d="M174 245q-6 0 -6 6v374q0 6 -5 3l-72 -41q-7 -3 -10 2l-18 32q-4 6 3 10l112 64q5 2 7 3t6 1h32q7 0 7 -7v-441q0 -6 -6 -6h-50zM602 -2q-6 0 -6 6v111q0 7 -7 7h-181q-7 0 -7 6v30q0 5 2.5 9t4.5 6l190 280q3 4 5 5.5t6 1.5h39q6 0 6 -7v-278q0 -7 7 -7h45q4 0 4 -4v-37
q0 -5 -4 -5h-45q-7 0 -7 -7v-111q0 -6 -5 -6h-47zM474 168h115q7 0 7 7v184q0 3 -1.5 3.5t-2.5 -2.5l-122 -184q-2 -4 -1 -6t5 -2zM170 0q-7 0 -7.5 3.5t2.5 7.5l396 681q3 6 5 7t8 1h40q7 0 9 -3t-5 -17l-390 -669q-3 -5 -6.5 -8t-9.5 -3h-42z" />
    <glyph glyph-name="onehalf" unicode="&#xbd;" horiz-adv-x="834" 
d="M160 0q-7 0 -7.5 3.5t2.5 7.5l396 681q3 6 5 7t8 1h40q7 0 9 -3t-5 -17l-389 -669q-4 -5 -7.5 -8t-9.5 -3h-42zM174 245q-6 0 -6 6v374q0 6 -5 3l-72 -41q-7 -3 -10 2l-18 32q-4 6 3 10l112 64q5 2 7 3t6 1h32q7 0 7 -7v-441q0 -6 -6 -6h-50zM497 0q-5 0 -6 1t-1 5v34
q0 8 5 10q33 22 69 50.5t67 61.5t50.5 70.5t19.5 76.5q0 28 -11.5 47.5t-32 29t-47.5 9.5q-26 0 -46.5 -7t-34.5 -14.5t-20 -9.5q-10 -3 -10 3v40q0 4 1.5 6t6.5 5q9 5 26 12.5t38.5 12.5t44.5 5q36 0 68.5 -14t54 -44.5t21.5 -78.5q0 -40 -15 -76t-40.5 -68.5t-57 -61
t-66.5 -53.5q-1 -2 -0.5 -3t3.5 -1h173q4 0 4 -5v-37q0 -5 -0.5 -5.5t-5.5 -0.5h-258z" />
    <glyph glyph-name="threequarters" unicode="&#xbe;" horiz-adv-x="809" 
d="M635 -2q-6 0 -6 6v111q0 7 -7 7h-181q-7 0 -7 6v30q0 5 2.5 9t4.5 6l190 280q3 4 5 5.5t6 1.5h39q6 0 6 -7v-278q0 -7 7 -7h45q4 0 4 -4v-37q0 -5 -4 -5h-45q-7 0 -7 -7v-111q0 -6 -5 -6h-47zM507 168h115q7 0 7 7v184q0 3 -1.5 3.5t-2.5 -2.5l-122 -184q-2 -4 -1 -6
t5 -2zM168 253q-22 0 -44.5 6t-41.5 17t-32 26q-3 3 -3 6t3 5l20 26q6 7 12 1q18 -18 39.5 -27t45.5 -9q28 0 47 12t28.5 30t9.5 37q0 18 -10 37t-31 31t-53 12h-8h-9q-3 0 -5 2t-2 6v32q0 8 7 8h11h15q25 1 42 12t26 27.5t9 33.5q0 16 -8.5 30.5t-25 24.5t-42.5 10
q-22 0 -45.5 -10t-40.5 -24q-7 -7 -12 1l-19 32q-1 3 0 6t2 4q20 15 40.5 23.5t40.5 12.5t37 4q42 0 70.5 -15.5t42.5 -40.5t14 -53q0 -32 -16.5 -58.5t-45.5 -39.5q-8 -2 -8 -3t9 -4q33 -12 52.5 -37.5t19.5 -63.5q0 -32 -16.5 -62t-48 -49t-76.5 -19zM197 0q-8 0 -8 3.5
t3 7.5l396 681q3 6 5 7t8 1h39q8 0 9.5 -3t-4.5 -17l-390 -669q-3 -5 -6.5 -8t-9.5 -3h-42z" />
    <glyph glyph-name="questiondown" unicode="&#xbf;" horiz-adv-x="451" 
d="M327 307q7 0 8 -3.5t1 -11.5q0 -50 -7 -84.5t-21.5 -59.5t-34.5 -44t-46 -39q-14 -10 -30.5 -22t-30.5 -25.5t-22.5 -29.5t-6.5 -36q1 -35 29 -55t71 -20q41 0 75.5 10.5t53.5 19.5q9 4 11 5t5 -8l16 -50q3 -6 -2 -10t-11 -8q-29 -15 -69.5 -23.5t-74.5 -8.5
q-85 0 -136.5 40.5t-51.5 110.5q0 48 18.5 77t44.5 47t50 34q35 24 55 49t29 57t9 76q0 7 1.5 9.5t4.5 2.5h62zM345 449q0 -20 -10.5 -30.5t-37.5 -10.5q-29 0 -38 10.5t-9 30.5t9 30t38 10q27 0 37.5 -10t10.5 -30z" />
    <glyph glyph-name="Agrave" unicode="&#xc0;" horiz-adv-x="552" 
d="M41 0q-7 0 -8 4.5t1 17.5q6 47 20 112t33 138.5t41 147t45 136t44 104.5q3 6 7 9.5t9 3.5h86q5 -1 9.5 -3.5t7.5 -9.5q20 -41 43 -104t45 -137t41 -148.5t33 -139t20 -108.5q3 -14 1.5 -18.5t-8.5 -4.5h-71q-5 0 -7 3t-5 15q-4 26 -11 61t-14 69q-1 6 -3.5 7.5t-8.5 1.5
h-230q-6 0 -8 -1.5t-4 -8.5q-7 -33 -14 -68t-11 -61q-2 -12 -4 -15t-8 -3h-71zM180 229h191q5 0 7 3t0 12q-19 74 -39.5 150.5t-46.5 143.5q-2 7 -8 7h-16q-5 0 -8 -7q-13 -35 -29 -85t-31 -105.5t-27 -107.5q-1 -4 0 -7.5t7 -3.5zM278 718q-5 0 -8 2.5t-9 5.5l-90 74
q-2 2 -0.5 5.5t4.5 3.5h69q7 0 10 -2t7 -7l64 -71q4 -4 4 -7.5t-6 -3.5h-45z" />
    <glyph glyph-name="Aacute" unicode="&#xc1;" horiz-adv-x="552" 
d="M41 0q-7 0 -8 4.5t1 17.5q6 47 20 112t33 138.5t41 147t45 136t44 104.5q3 6 7 9.5t9 3.5h86q5 -1 9.5 -3.5t7.5 -9.5q20 -41 43 -104t45 -137t41 -148.5t33 -139t20 -108.5q3 -14 1.5 -18.5t-8.5 -4.5h-71q-5 0 -7 3t-5 15q-4 26 -11 61t-14 69q-1 6 -3.5 7.5t-8.5 1.5
h-230q-6 0 -8 -1.5t-4 -8.5q-7 -33 -14 -68t-11 -61q-2 -12 -4 -15t-8 -3h-71zM180 229h191q5 0 7 3t0 12q-19 74 -39.5 150.5t-46.5 143.5q-2 7 -8 7h-16q-5 0 -8 -7q-13 -35 -29 -85t-31 -105.5t-27 -107.5q-1 -4 0 -7.5t7 -3.5zM273 718h-45q-6 0 -6 3.5t4 7.5l64 71
q4 5 7 7t10 2h69q3 0 5 -3.5t-1 -5.5l-90 -74q-5 -3 -8.5 -5.5t-8.5 -2.5z" />
    <glyph glyph-name="Acircumflex" unicode="&#xc2;" horiz-adv-x="552" 
d="M41 0q-7 0 -8 4.5t1 17.5q6 47 20 112t33 138.5t41 147t45 136t44 104.5q3 6 7 9.5t9 3.5h86q5 -1 9.5 -3.5t7.5 -9.5q20 -41 43 -104t45 -137t41 -148.5t33 -139t20 -108.5q3 -14 1.5 -18.5t-8.5 -4.5h-71q-5 0 -7 3t-5 15q-4 26 -11 61t-14 69q-1 6 -3.5 7.5t-8.5 1.5
h-230q-6 0 -8 -1.5t-4 -8.5q-7 -33 -14 -68t-11 -61q-2 -12 -4 -15t-8 -3h-71zM180 229h191q5 0 7 3t0 12q-19 74 -39.5 150.5t-46.5 143.5q-2 7 -8 7h-16q-5 0 -8 -7q-13 -35 -29 -85t-31 -105.5t-27 -107.5q-1 -4 0 -7.5t7 -3.5zM175 717q-4 0 -4.5 2.5t0.5 5.5l72 80
q4 5 8 5h49q5 0 9 -5l72 -80q2 -3 1 -5.5t-5 -2.5h-39q-4 0 -7 1.5t-7 4.5l-42 37q-5 4 -10 0l-44 -38q-3 -2 -5.5 -3.5t-6.5 -1.5h-41z" />
    <glyph glyph-name="Atilde" unicode="&#xc3;" horiz-adv-x="552" 
d="M41 0q-7 0 -8 4.5t1 17.5q6 47 20 112t33 138.5t41 147t45 136t44 104.5q3 6 7 9.5t9 3.5h86q5 -1 9.5 -3.5t7.5 -9.5q20 -41 43 -104t45 -137t41 -148.5t33 -139t20 -108.5q3 -14 1.5 -18.5t-8.5 -4.5h-71q-5 0 -7 3t-5 15q-4 26 -11 61t-14 69q-1 6 -3.5 7.5t-8.5 1.5
h-230q-6 0 -8 -1.5t-4 -8.5q-7 -33 -14 -68t-11 -61q-2 -12 -4 -15t-8 -3h-71zM180 229h191q5 0 7 3t0 12q-19 74 -39.5 150.5t-46.5 143.5q-2 7 -8 7h-16q-5 0 -8 -7q-13 -35 -29 -85t-31 -105.5t-27 -107.5q-1 -4 0 -7.5t7 -3.5zM181 719q-5 0 -5 6q0 33 16.5 54t44.5 21
q15 0 30 -9.5t27.5 -19t20.5 -9.5q6 0 10.5 6.5t4.5 17.5q0 7 4 7h37q6 0 6 -7q0 -29 -17 -51t-44 -22q-18 0 -32.5 9.5t-25.5 18.5t-20 9q-7 0 -11.5 -7t-4.5 -18q0 -6 -5 -6h-36z" />
    <glyph glyph-name="Adieresis" unicode="&#xc4;" horiz-adv-x="552" 
d="M41 0q-7 0 -8 4.5t1 17.5q6 47 20 112t33 138.5t41 147t45 136t44 104.5q3 6 7 9.5t9 3.5h86q5 -1 9.5 -3.5t7.5 -9.5q20 -41 43 -104t45 -137t41 -148.5t33 -139t20 -108.5q3 -14 1.5 -18.5t-8.5 -4.5h-71q-5 0 -7 3t-5 15q-4 26 -11 61t-14 69q-1 6 -3.5 7.5t-8.5 1.5
h-230q-6 0 -8 -1.5t-4 -8.5q-7 -33 -14 -68t-11 -61q-2 -12 -4 -15t-8 -3h-71zM180 229h191q5 0 7 3t0 12q-19 74 -39.5 150.5t-46.5 143.5q-2 7 -8 7h-16q-5 0 -8 -7q-13 -35 -29 -85t-31 -105.5t-27 -107.5q-1 -4 0 -7.5t7 -3.5zM246 773q0 -18 -8.5 -27.5t-34.5 -9.5
q-24 0 -33.5 9.5t-9.5 27.5q0 19 9.5 28.5t33.5 9.5q26 0 34.5 -9.5t8.5 -28.5zM393 773q0 -18 -8.5 -27.5t-35.5 -9.5q-23 0 -33 9.5t-10 27.5q0 19 10 28.5t33 9.5q27 0 35.5 -9.5t8.5 -28.5z" />
    <glyph glyph-name="Aring" unicode="&#xc5;" horiz-adv-x="552" 
d="M41 0q-7 0 -8 4.5t1 17.5q6 47 20 112t33 138.5t41 147t45 136t44 104.5q3 6 7 9.5t9 3.5h86q5 -1 9.5 -3.5t7.5 -9.5q20 -41 43 -104t45 -137t41 -148.5t33 -139t20 -108.5q3 -14 1.5 -18.5t-8.5 -4.5h-71q-5 0 -7 3t-5 15q-4 26 -11 61t-14 69q-1 6 -3.5 7.5t-8.5 1.5
h-230q-6 0 -8 -1.5t-4 -8.5q-7 -33 -14 -68t-11 -61q-2 -12 -4 -15t-8 -3h-71zM180 229h191q5 0 7 3t0 12q-19 74 -39.5 150.5t-46.5 143.5q-2 7 -8 7h-16q-5 0 -8 -7q-13 -35 -29 -85t-31 -105.5t-27 -107.5q-1 -4 0 -7.5t7 -3.5zM363 792q0 -37 -20.5 -59t-66.5 -22
q-48 0 -67.5 22t-19.5 59t19.5 59t67.5 22q47 0 67 -22t20 -59zM320 795q0 14 -8 24t-35 10q-29 0 -36.5 -10t-7.5 -24t7.5 -27t37.5 -13q29 0 35.5 13.5t6.5 26.5z" />
    <glyph glyph-name="AE" unicode="&#xc6;" horiz-adv-x="773" 
d="M396 0q-9 0 -9 9v148h-220q-6 0 -8 -1.5t-4 -8.5q-10 -33 -19.5 -68t-13.5 -61q-2 -12 -4 -15t-8 -3h-71q-7 0 -8 4.5t1 17.5q6 47 26.5 111t49.5 136.5t64 144.5t70.5 136t67.5 110q5 6 9.5 9.5t9.5 3.5h388q8 0 9.5 -1.5t1.5 -8.5v-51q0 -8 -2 -9.5t-9 -1.5h-231
q-6 0 -7 -1.5t-1 -6.5v-210q0 -5 1.5 -6.5t6.5 -1.5h186q9 0 10.5 -2t1.5 -11v-46q0 -8 -2 -10.5t-10 -2.5h-186q-5 0 -6.5 -1t-1.5 -6v-215q0 -5 1 -7t7 -2h230q8 0 10 -2t2 -11v-46q0 -9 -2 -11t-11 -2h-319zM387 229v343q-2 6 -5 6h-19q-3 0 -5.5 -1.5t-5.5 -6.5
q-23 -35 -52.5 -90.5t-59.5 -119t-56 -120.5q-1 -2 0.5 -6.5t5.5 -4.5h197z" />
    <glyph glyph-name="Ccedilla" unicode="&#xc7;" horiz-adv-x="456" 
d="M422 25q0 -16 -20 -22q-13 -5 -33 -7.5t-38.5 -3.5t-28.5 -1q-114 0 -184 87t-70 257q0 172 67.5 258.5t186.5 86.5q10 0 28.5 -1.5t38.5 -4t33 -6.5q10 -3 15 -7t5 -11v-60q0 -19 -19 -6q-16 10 -40.5 16.5t-51.5 6.5q-49 0 -82 -20.5t-52 -57t-27 -83t-8 -97.5
q0 -35 3.5 -74t13.5 -76.5t29 -68.5t49 -49t74 -18q29 0 53.5 6.5t36.5 14.5q13 8 17 6.5t4 -12.5v-53zM372 -124q0 -29 -24 -51.5t-66 -22.5q-29 0 -50 11.5t-34 26.5q-4 6 -3.5 12t5.5 8l19 10q8 3 11 2t5 -5q7 -10 18.5 -17t23.5 -7q21 0 30.5 11t9.5 23q0 15 -10 23
t-26 11t-32 3q-7 1 -10 6t1 12l37 61q3 5 6.5 6.5t8.5 1.5h23q11 0 6 -9l-29 -64l-13 19q42 -3 67.5 -20t25.5 -51z" />
    <glyph glyph-name="Egrave" unicode="&#xc8;" horiz-adv-x="449" 
d="M85 0q-10 0 -10 9v655q0 9 10 9h321q8 0 9.5 -1.5t1.5 -8.5v-51q0 -8 -2 -9.5t-9 -1.5h-232q-5 0 -6 -1.5t-1 -6.5v-210q0 -5 1.5 -6.5t5.5 -1.5h187q8 0 9.5 -2t1.5 -11v-46q0 -8 -1.5 -10.5t-9.5 -2.5h-187q-5 0 -6 -1t-1 -6v-215q0 -5 1 -7t6 -2h230q10 0 11.5 -2
t1.5 -11v-46q0 -9 -2.5 -11t-10.5 -2h-319zM242 718q-5 0 -8 2.5t-9 5.5l-90 74q-2 2 -0.5 5.5t4.5 3.5h69q7 0 10 -2t7 -7l64 -71q4 -4 4 -7.5t-6 -3.5h-45z" />
    <glyph glyph-name="Eacute" unicode="&#xc9;" horiz-adv-x="449" 
d="M85 0q-10 0 -10 9v655q0 9 10 9h321q8 0 9.5 -1.5t1.5 -8.5v-51q0 -8 -2 -9.5t-9 -1.5h-232q-5 0 -6 -1.5t-1 -6.5v-210q0 -5 1.5 -6.5t5.5 -1.5h187q8 0 9.5 -2t1.5 -11v-46q0 -8 -1.5 -10.5t-9.5 -2.5h-187q-5 0 -6 -1t-1 -6v-215q0 -5 1 -7t6 -2h230q10 0 11.5 -2
t1.5 -11v-46q0 -9 -2.5 -11t-10.5 -2h-319zM237 718h-45q-6 0 -6 3.5t4 7.5l64 71q4 5 7 7t10 2h69q3 0 5 -3.5t-1 -5.5l-90 -74q-5 -3 -8.5 -5.5t-8.5 -2.5z" />
    <glyph glyph-name="Ecircumflex" unicode="&#xca;" horiz-adv-x="449" 
d="M85 0q-10 0 -10 9v655q0 9 10 9h321q8 0 9.5 -1.5t1.5 -8.5v-51q0 -8 -2 -9.5t-9 -1.5h-232q-5 0 -6 -1.5t-1 -6.5v-210q0 -5 1.5 -6.5t5.5 -1.5h187q8 0 9.5 -2t1.5 -11v-46q0 -8 -1.5 -10.5t-9.5 -2.5h-187q-5 0 -6 -1t-1 -6v-215q0 -5 1 -7t6 -2h230q10 0 11.5 -2
t1.5 -11v-46q0 -9 -2.5 -11t-10.5 -2h-319zM140 717q-4 0 -4.5 2.5t0.5 5.5l72 80q4 5 8 5h49q5 0 9 -5l72 -80q2 -3 1 -5.5t-5 -2.5h-39q-4 0 -7 1.5t-7 4.5l-42 37q-5 4 -10 0l-44 -38q-3 -2 -5.5 -3.5t-6.5 -1.5h-41z" />
    <glyph glyph-name="Edieresis" unicode="&#xcb;" horiz-adv-x="449" 
d="M85 0q-10 0 -10 9v655q0 9 10 9h321q8 0 9.5 -1.5t1.5 -8.5v-51q0 -8 -2 -9.5t-9 -1.5h-232q-5 0 -6 -1.5t-1 -6.5v-210q0 -5 1.5 -6.5t5.5 -1.5h187q8 0 9.5 -2t1.5 -11v-46q0 -8 -1.5 -10.5t-9.5 -2.5h-187q-5 0 -6 -1t-1 -6v-215q0 -5 1 -7t6 -2h230q10 0 11.5 -2
t1.5 -11v-46q0 -9 -2.5 -11t-10.5 -2h-319zM210 773q0 -18 -8.5 -27.5t-34.5 -9.5q-24 0 -33.5 9.5t-9.5 27.5q0 19 9.5 28.5t33.5 9.5q26 0 34.5 -9.5t8.5 -28.5zM357 773q0 -18 -8.5 -27.5t-35.5 -9.5q-23 0 -33 9.5t-10 27.5q0 19 10 28.5t33 9.5q27 0 35.5 -9.5
t8.5 -28.5z" />
    <glyph glyph-name="Igrave" unicode="&#xcc;" horiz-adv-x="242" 
d="M166 9q0 -9 -9 -9h-72q-10 0 -10 9v655q0 9 10 9h72q9 0 9 -9v-655zM122 718q-5 0 -8 2.5t-9 5.5l-90 74q-2 2 -0.5 5.5t4.5 3.5h69q7 0 10 -2t7 -7l64 -71q4 -4 4 -7.5t-6 -3.5h-45z" />
    <glyph glyph-name="Iacute" unicode="&#xcd;" horiz-adv-x="242" 
d="M166 9q0 -9 -9 -9h-72q-10 0 -10 9v655q0 9 10 9h72q9 0 9 -9v-655zM118 718h-45q-6 0 -6 3.5t4 7.5l64 71q4 5 7 7t10 2h69q3 0 5 -3.5t-1 -5.5l-90 -74q-5 -3 -8.5 -5.5t-8.5 -2.5z" />
    <glyph glyph-name="Icircumflex" unicode="&#xce;" horiz-adv-x="242" 
d="M166 9q0 -9 -9 -9h-72q-10 0 -10 9v655q0 9 10 9h72q9 0 9 -9v-655zM20 717q-4 0 -4.5 2.5t0.5 5.5l72 80q4 5 8 5h49q5 0 9 -5l72 -80q2 -3 1 -5.5t-5 -2.5h-39q-4 0 -7 1.5t-7 4.5l-42 37q-5 4 -10 0l-44 -38q-3 -2 -5.5 -3.5t-6.5 -1.5h-41z" />
    <glyph glyph-name="Idieresis" unicode="&#xcf;" horiz-adv-x="242" 
d="M166 9q0 -9 -9 -9h-72q-10 0 -10 9v655q0 9 10 9h72q9 0 9 -9v-655zM91 773q0 -18 -8.5 -27.5t-34.5 -9.5q-24 0 -33.5 9.5t-9.5 27.5q0 19 9.5 28.5t33.5 9.5q26 0 34.5 -9.5t8.5 -28.5zM238 773q0 -18 -8.5 -27.5t-35.5 -9.5q-23 0 -33 9.5t-10 27.5q0 19 10 28.5
t33 9.5q27 0 35.5 -9.5t8.5 -28.5z" />
    <glyph glyph-name="Eth" unicode="&#xd0;" horiz-adv-x="577" 
d="M560 347q0 -88 -17 -149t-45.5 -100t-62 -60.5t-66.5 -29.5t-60 -8h-196q-10 0 -10 9v655q0 9 10 9h196q32 0 67.5 -6t68 -24.5t58.5 -54.5t41.5 -94.5t15.5 -146.5zM470 347q0 90 -16 141.5t-41 75.5t-53 30.5t-52 6.5h-105q-6 0 -7 -1.5t-1 -5.5v-515q0 -4 1 -5.5
t6 -1.5h89q26 0 56.5 9t58.5 37.5t46 83t18 145.5zM26 294q-6 0 -7.5 2t-1.5 7v48q0 6 1.5 7.5t7.5 1.5h272q6 0 7.5 -1.5t1.5 -7.5v-50q0 -4 -1.5 -5.5t-7.5 -1.5h-272z" />
    <glyph glyph-name="Ntilde" unicode="&#xd1;" horiz-adv-x="641" 
d="M463 194q2 -4 6.5 -4t5.5 6q2 34 3 79t1 95.5t-1.5 102.5t-4.5 100.5t-9 89.5q0 10 6 10h73q4 0 8 -2.5t4 -6.5q7 -36 10.5 -88.5t4.5 -115t0.5 -128t-2.5 -127t-5.5 -112.5t-7.5 -84q0 -6 -4.5 -7.5t-9.5 -1.5h-48q-6 0 -12 11l-305 472q-1 4 -4.5 4t-4.5 -5
q-2 -48 -3 -100t-1 -104.5t1.5 -102t4 -92t6.5 -73.5q1 -10 -6 -10h-71q-5 0 -9 1.5t-5 7.5q-4 34 -7 85.5t-4.5 113.5t-2 127t1.5 127.5t5.5 114.5t9.5 87q1 4 5 6.5t7 2.5h48q6 0 10 -7zM220 719q-5 0 -5 6q0 33 16.5 54t44.5 21q15 0 30 -9.5t27.5 -19t20.5 -9.5
q6 0 10.5 6.5t4.5 17.5q0 7 4 7h37q6 0 6 -7q0 -29 -17 -51t-44 -22q-18 0 -32.5 9.5t-25.5 18.5t-20 9q-7 0 -11.5 -7t-4.5 -18q0 -6 -5 -6h-36z" />
    <glyph glyph-name="Ograve" unicode="&#xd2;" horiz-adv-x="631" 
d="M48 334q0 111 23 187.5t80.5 115.5t162.5 39q82 0 134.5 -22.5t82 -65.5t41 -107t11.5 -147t-11.5 -146.5t-41 -107t-82 -65.5t-134.5 -22q-105 0 -162.5 39t-80.5 115t-23 187zM143 334q0 -104 18 -161.5t55.5 -80t96.5 -22.5t98 22t58 79.5t19 162.5t-19 163t-58 81
t-98 23t-96.5 -23t-55.5 -81t-18 -163zM317 718q-5 0 -8 2.5t-9 5.5l-90 74q-2 2 -0.5 5.5t4.5 3.5h69q7 0 10 -2t7 -7l64 -71q4 -4 4 -7.5t-6 -3.5h-45z" />
    <glyph glyph-name="Oacute" unicode="&#xd3;" horiz-adv-x="631" 
d="M48 334q0 111 23 187.5t80.5 115.5t162.5 39q82 0 134.5 -22.5t82 -65.5t41 -107t11.5 -147t-11.5 -146.5t-41 -107t-82 -65.5t-134.5 -22q-105 0 -162.5 39t-80.5 115t-23 187zM143 334q0 -104 18 -161.5t55.5 -80t96.5 -22.5t98 22t58 79.5t19 162.5t-19 163t-58 81
t-98 23t-96.5 -23t-55.5 -81t-18 -163zM312 718h-45q-6 0 -6 3.5t4 7.5l64 71q4 5 7 7t10 2h69q3 0 5 -3.5t-1 -5.5l-90 -74q-5 -3 -8.5 -5.5t-8.5 -2.5z" />
    <glyph glyph-name="Ocircumflex" unicode="&#xd4;" horiz-adv-x="631" 
d="M48 334q0 111 23 187.5t80.5 115.5t162.5 39q82 0 134.5 -22.5t82 -65.5t41 -107t11.5 -147t-11.5 -146.5t-41 -107t-82 -65.5t-134.5 -22q-105 0 -162.5 39t-80.5 115t-23 187zM143 334q0 -104 18 -161.5t55.5 -80t96.5 -22.5t98 22t58 79.5t19 162.5t-19 163t-58 81
t-98 23t-96.5 -23t-55.5 -81t-18 -163zM215 717q-4 0 -4.5 2.5t0.5 5.5l72 80q4 5 8 5h49q5 0 9 -5l72 -80q2 -3 1 -5.5t-5 -2.5h-39q-4 0 -7 1.5t-7 4.5l-42 37q-5 4 -10 0l-44 -38q-3 -2 -5.5 -3.5t-6.5 -1.5h-41z" />
    <glyph glyph-name="Otilde" unicode="&#xd5;" horiz-adv-x="631" 
d="M48 334q0 111 23 187.5t80.5 115.5t162.5 39q82 0 134.5 -22.5t82 -65.5t41 -107t11.5 -147t-11.5 -146.5t-41 -107t-82 -65.5t-134.5 -22q-105 0 -162.5 39t-80.5 115t-23 187zM143 334q0 -104 18 -161.5t55.5 -80t96.5 -22.5t98 22t58 79.5t19 162.5t-19 163t-58 81
t-98 23t-96.5 -23t-55.5 -81t-18 -163zM220 719q-5 0 -5 6q0 33 16.5 54t44.5 21q15 0 30 -9.5t27.5 -19t20.5 -9.5q6 0 10.5 6.5t4.5 17.5q0 7 4 7h37q6 0 6 -7q0 -29 -17 -51t-44 -22q-18 0 -32.5 9.5t-25.5 18.5t-20 9q-7 0 -11.5 -7t-4.5 -18q0 -6 -5 -6h-36z" />
    <glyph glyph-name="Odieresis" unicode="&#xd6;" horiz-adv-x="631" 
d="M48 334q0 111 23 187.5t80.5 115.5t162.5 39q82 0 134.5 -22.5t82 -65.5t41 -107t11.5 -147t-11.5 -146.5t-41 -107t-82 -65.5t-134.5 -22q-105 0 -162.5 39t-80.5 115t-23 187zM143 334q0 -104 18 -161.5t55.5 -80t96.5 -22.5t98 22t58 79.5t19 162.5t-19 163t-58 81
t-98 23t-96.5 -23t-55.5 -81t-18 -163zM285 773q0 -18 -8.5 -27.5t-34.5 -9.5q-24 0 -33.5 9.5t-9.5 27.5q0 19 9.5 28.5t33.5 9.5q26 0 34.5 -9.5t8.5 -28.5zM432 773q0 -18 -8.5 -27.5t-35.5 -9.5q-23 0 -33 9.5t-10 27.5q0 19 10 28.5t33 9.5q27 0 35.5 -9.5t8.5 -28.5z
" />
    <glyph glyph-name="multiply" unicode="&#xd7;" horiz-adv-x="489" 
d="M44 150q-3 5 -4 8t2 6l156 147l-144 136q-3 3 -1.5 6.5t4.5 5.5l32 32q4 3 6 3t5 -3l144 -138l145 138q3 3 5 3t6 -3l31 -32q4 -2 5.5 -5.5t-2.5 -6.5l-143 -136l155 -147q4 -3 3 -6t-5 -8l-30 -29q-4 -4 -7 -4t-8 4l-155 147l-154 -147q-4 -4 -7.5 -4t-8.5 4z" />
    <glyph glyph-name="Oslash" unicode="&#xd8;" horiz-adv-x="630" 
d="M147 -41q-3 -4 -6 -6.5t-9 -2.5h-63q-4 0 -5 3t2 7l409 749q3 6 6 7t7 1h61q7 0 7.5 -3t-7.5 -15zM48 334q0 111 23 187.5t81 115.5t162 39q82 0 134.5 -22.5t82 -65.5t41 -107t11.5 -147t-11.5 -146.5t-41 -107t-82 -65.5t-134.5 -22q-104 0 -162 39t-81 115t-23 187z
M143 334q0 -104 18 -161.5t55.5 -80t96.5 -22.5t98 22t58 79.5t19 162.5t-19 163t-58 81t-98 23t-96.5 -23t-55.5 -81t-18 -163z" />
    <glyph glyph-name="Ugrave" unicode="&#xd9;" horiz-adv-x="634" 
d="M317 -7q-83 0 -131 19.5t-71.5 48.5t-31.5 59.5t-10 53.5q-4 41 -6 89t-2 92q1 49 3 103t6.5 107t11.5 98q0 4 3.5 7t7.5 3h34h34q6 0 7 -2t0 -14q-4 -40 -7 -83t-5 -89q-4 -79 -4.5 -154.5t6.5 -144.5q2 -23 9 -44.5t23 -38.5t45.5 -27.5t75.5 -10.5t75.5 10.5
t46.5 27.5t24 39t9 44q6 68 6 142t-4 152q-2 47 -5.5 91.5t-7.5 85.5q0 12 1 14t7 2h35.5h34.5q6 0 8.5 -3t3.5 -7q7 -45 11.5 -97.5t6.5 -106t2 -101.5q1 -45 -0.5 -93.5t-6.5 -90.5q-2 -18 -7 -41.5t-18.5 -48t-39.5 -45t-70 -33.5t-110 -13zM319 718q-5 0 -8 2.5t-9 5.5
l-90 74q-2 2 -0.5 5.5t4.5 3.5h69q7 0 10 -2t7 -7l64 -71q4 -4 4 -7.5t-6 -3.5h-45z" />
    <glyph glyph-name="Uacute" unicode="&#xda;" horiz-adv-x="634" 
d="M317 -7q-83 0 -131 19.5t-71.5 48.5t-31.5 59.5t-10 53.5q-4 41 -6 89t-2 92q1 49 3 103t6.5 107t11.5 98q0 4 3.5 7t7.5 3h34h34q6 0 7 -2t0 -14q-4 -40 -7 -83t-5 -89q-4 -79 -4.5 -154.5t6.5 -144.5q2 -23 9 -44.5t23 -38.5t45.5 -27.5t75.5 -10.5t75.5 10.5
t46.5 27.5t24 39t9 44q6 68 6 142t-4 152q-2 47 -5.5 91.5t-7.5 85.5q0 12 1 14t7 2h35.5h34.5q6 0 8.5 -3t3.5 -7q7 -45 11.5 -97.5t6.5 -106t2 -101.5q1 -45 -0.5 -93.5t-6.5 -90.5q-2 -18 -7 -41.5t-18.5 -48t-39.5 -45t-70 -33.5t-110 -13zM314 718h-45q-6 0 -6 3.5
t4 7.5l64 71q4 5 7 7t10 2h69q3 0 5 -3.5t-1 -5.5l-90 -74q-5 -3 -8.5 -5.5t-8.5 -2.5z" />
    <glyph glyph-name="Ucircumflex" unicode="&#xdb;" horiz-adv-x="634" 
d="M317 -7q-83 0 -131 19.5t-71.5 48.5t-31.5 59.5t-10 53.5q-4 41 -6 89t-2 92q1 49 3 103t6.5 107t11.5 98q0 4 3.5 7t7.5 3h34h34q6 0 7 -2t0 -14q-4 -40 -7 -83t-5 -89q-4 -79 -4.5 -154.5t6.5 -144.5q2 -23 9 -44.5t23 -38.5t45.5 -27.5t75.5 -10.5t75.5 10.5
t46.5 27.5t24 39t9 44q6 68 6 142t-4 152q-2 47 -5.5 91.5t-7.5 85.5q0 12 1 14t7 2h35.5h34.5q6 0 8.5 -3t3.5 -7q7 -45 11.5 -97.5t6.5 -106t2 -101.5q1 -45 -0.5 -93.5t-6.5 -90.5q-2 -18 -7 -41.5t-18.5 -48t-39.5 -45t-70 -33.5t-110 -13zM216 717q-4 0 -4.5 2.5
t0.5 5.5l72 80q4 5 8 5h49q5 0 9 -5l72 -80q2 -3 1 -5.5t-5 -2.5h-39q-4 0 -7 1.5t-7 4.5l-42 37q-5 4 -10 0l-44 -38q-3 -2 -5.5 -3.5t-6.5 -1.5h-41z" />
    <glyph glyph-name="Udieresis" unicode="&#xdc;" horiz-adv-x="634" 
d="M317 -7q-83 0 -131 19.5t-71.5 48.5t-31.5 59.5t-10 53.5q-4 41 -6 89t-2 92q1 49 3 103t6.5 107t11.5 98q0 4 3.5 7t7.5 3h34h34q6 0 7 -2t0 -14q-4 -40 -7 -83t-5 -89q-4 -79 -4.5 -154.5t6.5 -144.5q2 -23 9 -44.5t23 -38.5t45.5 -27.5t75.5 -10.5t75.5 10.5
t46.5 27.5t24 39t9 44q6 68 6 142t-4 152q-2 47 -5.5 91.5t-7.5 85.5q0 12 1 14t7 2h35.5h34.5q6 0 8.5 -3t3.5 -7q7 -45 11.5 -97.5t6.5 -106t2 -101.5q1 -45 -0.5 -93.5t-6.5 -90.5q-2 -18 -7 -41.5t-18.5 -48t-39.5 -45t-70 -33.5t-110 -13zM287 773q0 -18 -8.5 -27.5
t-34.5 -9.5q-24 0 -33.5 9.5t-9.5 27.5q0 19 9.5 28.5t33.5 9.5q26 0 34.5 -9.5t8.5 -28.5zM434 773q0 -18 -8.5 -27.5t-35.5 -9.5q-23 0 -33 9.5t-10 27.5q0 19 10 28.5t33 9.5q27 0 35.5 -9.5t8.5 -28.5z" />
    <glyph glyph-name="Yacute" unicode="&#xdd;" horiz-adv-x="502" 
d="M309 295q-6 -8 -8.5 -22.5t-2.5 -25.5v-238q0 -4 -3 -6.5t-6 -2.5h-73q-9 0 -9 9v237q0 20 -9 40.5t-17 33.5q-8 10 -20 28.5t-24.5 39t-23 38t-15.5 26.5q-27 53 -45.5 97t-27.5 72.5t-11 34.5q-3 10 1.5 13.5t11.5 3.5h70q9 0 12 -11q5 -17 16 -45.5t26 -61.5t30 -63
q13 -27 27.5 -52.5t32.5 -49.5q6 -9 10 -10.5t11 9.5q9 12 19 27.5t20 32.5t18 32q15 31 30.5 66.5t27.5 66.5t16 49q2 6 4.5 8t8.5 2h72q5 0 9 -3.5t2 -13.5q-1 -6 -10 -34.5t-26.5 -72.5t-45.5 -96q-6 -13 -18 -33t-25.5 -43t-28 -44.5t-26.5 -37.5zM248 718h-45
q-6 0 -6 3.5t4 7.5l64 71q4 5 7 7t10 2h69q3 0 5 -3.5t-1 -5.5l-90 -74q-5 -3 -8.5 -5.5t-8.5 -2.5z" />
    <glyph glyph-name="Thorn" unicode="&#xde;" horiz-adv-x="468" 
d="M431 378q0 -63 -22.5 -116.5t-67 -85.5t-109.5 -32h-78q-7 0 -7 -6v-129q0 -9 -10 -9h-72q-10 0 -10 9v690q0 9 10 9h71q6 0 8.5 -1.5t2.5 -7.5v-98q0 -3 1 -6t3 -4h70q111 0 160.5 -51.5t49.5 -161.5zM342 378q0 80 -31 113.5t-92 33.5h-66q-4 0 -5 -1t-1 -5v-300
q0 -6 6 -6h69q57 0 88.5 44t31.5 121z" />
    <glyph glyph-name="germandbls" unicode="&#xdf;" horiz-adv-x="617" 
d="M41 -105q-18 0 -29.5 1t-16.5 6q-2 4 -3 8.5t-1 9.5q0 9 0.5 18t1.5 16q8 6 16.5 7.5t16.5 2.5q19 4 34.5 16t26 36.5t16 66.5t5.5 108v93.5v120.5v133q0 33 10.5 63.5t32.5 54.5t57 38t83 14q20 0 45 -4.5t50 -15.5t46 -29t34 -45.5t13 -65.5q0 -24 -7 -44.5t-21 -39.5
q-12 -14 -30.5 -25t-37.5 -20q-17 -8 -21 -19t2 -21t20 -16q30 -12 62.5 -29t59.5 -39q28 -23 43.5 -56.5t15.5 -70.5q0 -54 -24 -93.5t-66.5 -60.5t-97.5 -21q-29 0 -67 8t-67 28q-3 3 -5.5 6t-2.5 8l6 26t6 25q1 9 5.5 8.5t9.5 -3.5q11 -8 29 -15t37.5 -11t34.5 -4
q36 0 56 16.5t29 38.5q10 16 10 38.5t-12 45.5q-5 30 -25 48.5t-52 34t-74 34.5q-19 8 -30 21.5t-12 29.5t10.5 31.5t37.5 27.5q14 5 28.5 12t29.5 23q12 13 21.5 32.5t8.5 48.5q0 43 -27 63.5t-64 20.5q-46 0 -73.5 -28t-27.5 -84v-60.5v-78t-0.5 -86.5t-0.5 -84.5v-73.5
v-54q0 -96 -38 -143.5t-117 -47.5z" />
    <glyph glyph-name="agrave" unicode="&#xe0;" horiz-adv-x="478" 
d="M232 -8q-50 0 -92.5 11.5t-68.5 43.5t-26 93q0 51 18 84t47 50.5t61 24.5t60 7q27 0 53.5 -2.5t43.5 -5.5q13 -3 13 17q0 53 -27.5 75t-83.5 22q-38 0 -72.5 -12.5t-56.5 -25.5q-8 -4 -11 -3t-4 8l-7 43q-1 9 0.5 12t7.5 7q24 16 62 26t83 10q65 0 103.5 -15t58 -40.5
t26 -58t7.5 -68.5q0 -48 -0.5 -89.5t-2 -81.5t-5.5 -82q-2 -9 -6.5 -14.5t-17.5 -11.5q-14 -6 -35.5 -10.5t-44.5 -7.5t-45 -4.5t-38 -1.5zM237 50q9 0 23.5 1.5t30 5t26.5 9.5t13 15q3 28 5 65t1 69q0 17 -12 22q-13 5 -38.5 7.5t-52.5 2.5q-14 0 -31 -4t-33 -15t-26 -32.5
t-10 -55.5q0 -30 13 -50t36.5 -30t54.5 -10zM244 529q-9 0 -17 8l-77 89q-2 3 -0.5 6t4.5 3h69q7 0 10.5 -1.5t6.5 -7.5l50 -87q7 -10 -2 -10h-44z" />
    <glyph glyph-name="aacute" unicode="&#xe1;" horiz-adv-x="478" 
d="M232 -8q-50 0 -92.5 11.5t-68.5 43.5t-26 93q0 51 18 84t47 50.5t61 24.5t60 7q27 0 53.5 -2.5t43.5 -5.5q13 -3 13 17q0 53 -27.5 75t-83.5 22q-38 0 -72.5 -12.5t-56.5 -25.5q-8 -4 -11 -3t-4 8l-7 43q-1 9 0.5 12t7.5 7q24 16 62 26t83 10q65 0 103.5 -15t58 -40.5
t26 -58t7.5 -68.5q0 -48 -0.5 -89.5t-2 -81.5t-5.5 -82q-2 -9 -6.5 -14.5t-17.5 -11.5q-14 -6 -35.5 -10.5t-44.5 -7.5t-45 -4.5t-38 -1.5zM237 50q9 0 23.5 1.5t30 5t26.5 9.5t13 15q3 28 5 65t1 69q0 17 -12 22q-13 5 -38.5 7.5t-52.5 2.5q-14 0 -31 -4t-33 -15t-26 -32.5
t-10 -55.5q0 -30 13 -50t36.5 -30t54.5 -10zM207 528q-7 0 -7 2.5t4 8.5l58 90q4 6 16 6h60q5 0 6.5 -2.5t-3.5 -7.5l-76 -92q-3 -3 -6 -4t-8 -1h-44z" />
    <glyph glyph-name="acircumflex" unicode="&#xe2;" horiz-adv-x="478" 
d="M232 -8q-50 0 -92.5 11.5t-68.5 43.5t-26 93q0 51 18 84t47 50.5t61 24.5t60 7q27 0 53.5 -2.5t43.5 -5.5q13 -3 13 17q0 53 -27.5 75t-83.5 22q-38 0 -72.5 -12.5t-56.5 -25.5q-8 -4 -11 -3t-4 8l-7 43q-1 9 0.5 12t7.5 7q24 16 62 26t83 10q65 0 103.5 -15t58 -40.5
t26 -58t7.5 -68.5q0 -48 -0.5 -89.5t-2 -81.5t-5.5 -82q-2 -9 -6.5 -14.5t-17.5 -11.5q-14 -6 -35.5 -10.5t-44.5 -7.5t-45 -4.5t-38 -1.5zM237 50q9 0 23.5 1.5t30 5t26.5 9.5t13 15q3 28 5 65t1 69q0 17 -12 22q-13 5 -38.5 7.5t-52.5 2.5q-14 0 -31 -4t-33 -15t-26 -32.5
t-10 -55.5q0 -30 13 -50t36.5 -30t54.5 -10zM149 528q-3 0 -4 2.5t1 4.5l70 93q2 4 7 4h46q5 0 7 -4l69 -93q2 -2 1.5 -4.5t-4.5 -2.5h-42q-4 0 -7 3l-44 46q-4 5 -8 0l-43 -46q-2 -3 -7 -3h-42z" />
    <glyph glyph-name="atilde" unicode="&#xe3;" horiz-adv-x="478" 
d="M232 -8q-50 0 -92.5 11.5t-68.5 43.5t-26 93q0 51 18 84t47 50.5t61 24.5t60 7q27 0 53.5 -2.5t43.5 -5.5q13 -3 13 17q0 53 -27.5 75t-83.5 22q-38 0 -72.5 -12.5t-56.5 -25.5q-8 -4 -11 -3t-4 8l-7 43q-1 9 0.5 12t7.5 7q24 16 62 26t83 10q65 0 103.5 -15t58 -40.5
t26 -58t7.5 -68.5q0 -48 -0.5 -89.5t-2 -81.5t-5.5 -82q-2 -9 -6.5 -14.5t-17.5 -11.5q-14 -6 -35.5 -10.5t-44.5 -7.5t-45 -4.5t-38 -1.5zM237 50q9 0 23.5 1.5t30 5t26.5 9.5t13 15q3 28 5 65t1 69q0 17 -12 22q-13 5 -38.5 7.5t-52.5 2.5q-14 0 -31 -4t-33 -15t-26 -32.5
t-10 -55.5q0 -30 13 -50t36.5 -30t54.5 -10zM149 532q-5 0 -5 6q0 32 16.5 51t46.5 19q15 0 30 -8.5t28.5 -17t21.5 -8.5q6 0 10.5 6t4.5 15q0 7 5 7h38q6 0 6 -6q0 -29 -17.5 -49.5t-45.5 -20.5q-19 0 -34 9t-26.5 17t-19.5 8t-12.5 -6t-4.5 -16q0 -6 -5 -6h-37z" />
    <glyph glyph-name="adieresis" unicode="&#xe4;" horiz-adv-x="478" 
d="M232 -8q-50 0 -92.5 11.5t-68.5 43.5t-26 93q0 51 18 84t47 50.5t61 24.5t60 7q27 0 53.5 -2.5t43.5 -5.5q13 -3 13 17q0 53 -27.5 75t-83.5 22q-38 0 -72.5 -12.5t-56.5 -25.5q-8 -4 -11 -3t-4 8l-7 43q-1 9 0.5 12t7.5 7q24 16 62 26t83 10q65 0 103.5 -15t58 -40.5
t26 -58t7.5 -68.5q0 -48 -0.5 -89.5t-2 -81.5t-5.5 -82q-2 -9 -6.5 -14.5t-17.5 -11.5q-14 -6 -35.5 -10.5t-44.5 -7.5t-45 -4.5t-38 -1.5zM237 50q9 0 23.5 1.5t30 5t26.5 9.5t13 15q3 28 5 65t1 69q0 17 -12 22q-13 5 -38.5 7.5t-52.5 2.5q-14 0 -31 -4t-33 -15t-26 -32.5
t-10 -55.5q0 -30 13 -50t36.5 -30t54.5 -10zM216 573q0 -18 -8.5 -27.5t-34.5 -9.5q-24 0 -33.5 9.5t-9.5 27.5q0 19 9.5 28.5t33.5 9.5q26 0 34.5 -9.5t8.5 -28.5zM363 573q0 -18 -8.5 -27.5t-35.5 -9.5q-23 0 -33 9.5t-10 27.5q0 19 10 28.5t33 9.5q27 0 35.5 -9.5
t8.5 -28.5z" />
    <glyph glyph-name="aring" unicode="&#xe5;" horiz-adv-x="478" 
d="M232 -8q-50 0 -92.5 11.5t-68.5 43.5t-26 93q0 51 18 84t47 50.5t61 24.5t60 7q27 0 53.5 -2.5t43.5 -5.5q13 -3 13 17q0 53 -27.5 75t-83.5 22q-38 0 -72.5 -12.5t-56.5 -25.5q-8 -4 -11 -3t-4 8l-7 43q-1 9 0.5 12t7.5 7q24 16 62 26t83 10q65 0 103.5 -15t58 -40.5
t26 -58t7.5 -68.5q0 -48 -0.5 -89.5t-2 -81.5t-5.5 -82q-2 -9 -6.5 -14.5t-17.5 -11.5q-14 -6 -35.5 -10.5t-44.5 -7.5t-45 -4.5t-38 -1.5zM237 50q9 0 23.5 1.5t30 5t26.5 9.5t13 15q3 28 5 65t1 69q0 17 -12 22q-13 5 -38.5 7.5t-52.5 2.5q-14 0 -31 -4t-33 -15t-26 -32.5
t-10 -55.5q0 -30 13 -50t36.5 -30t54.5 -10zM334 592q0 -37 -20.5 -59t-66.5 -22q-48 0 -67.5 22t-19.5 59t19.5 59t67.5 22q47 0 67 -22t20 -59zM291 595q0 14 -8 24t-35 10q-29 0 -36.5 -10t-7.5 -24t7.5 -27t37.5 -13q29 0 35.5 13.5t6.5 26.5z" />
    <glyph glyph-name="ae" unicode="&#xe6;" horiz-adv-x="771" 
d="M232 -8q-50 0 -92.5 11.5t-68.5 43.5t-26 93q0 51 18 84t47 50.5t61 24.5t60 7q27 0 53.5 -2.5t43.5 -5.5q13 -3 13 17q0 53 -27.5 75t-83.5 22q-38 0 -72.5 -12.5t-56.5 -25.5q-8 -4 -11 -3t-4 8q-2 11 -4 21.5t-3 21.5q-2 9 0 12t8 7q24 16 62 26t83 10q46 0 77 -8.5
t51 -23.5t32 -35q23 32 59 51.5t91 19.5q63 0 100.5 -18.5t56.5 -49t25.5 -67t6.5 -72.5q0 -39 -8.5 -49.5t-24.5 -10.5h-129h-129q-4 0 -7 -2t-3 -8q4 -70 35.5 -106.5t95.5 -36.5q35 0 71.5 9t56.5 22q8 5 14.5 6.5t11.5 -10.5l16 -30q4 -7 1.5 -10.5t-9.5 -8.5
q-32 -24 -80.5 -34t-98.5 -10t-83 13.5t-53 38.5q-1 -6 -2.5 -11.5t-2.5 -10.5q-1 -3 -4 -6t-12 -6q-21 -7 -49.5 -11.5t-57 -7t-48.5 -2.5zM335 223q0 12 -15.5 17t-39.5 6t-47 1q-14 0 -31 -4t-33 -15t-26 -32.5t-10 -55.5q0 -30 13 -50t36.5 -30t54.5 -10q9 0 24 1.5
t31 5t27 9.5t12 16q2 26 3 66t1 75zM626 266q9 0 12 3.5t3 16.5q0 34 -9 62t-30.5 45.5t-61.5 17.5q-30 0 -50.5 -11.5t-34 -30.5t-19.5 -40.5t-7 -41.5q-1 -11 0 -15t7 -4q48 -1 95 -1t95 -1z" />
    <glyph glyph-name="ccedilla" unicode="&#xe7;" horiz-adv-x="401" 
d="M240 -6q-62 0 -102 18.5t-62.5 51.5t-31.5 77t-9 94q0 47 9.5 90.5t32 78t62 54.5t100.5 20q42 0 73 -8.5t54 -26.5q6 -6 7.5 -9t1.5 -9v-54q0 -7 -4.5 -7t-8.5 3q-22 21 -52 29.5t-61 8.5q-35 0 -59 -14.5t-38.5 -39.5t-21 -55t-6.5 -62q0 -52 12 -90.5t39 -59.5t70 -21
q28 0 52.5 6.5t48.5 17.5q12 6 18 -5l18 -39q3 -6 1.5 -9.5t-6.5 -6.5q-25 -17 -61.5 -25t-75.5 -8zM315 -124q0 -29 -24 -51.5t-66 -22.5q-29 0 -50 11.5t-34 26.5q-4 6 -3.5 12t5.5 8l19 10q8 3 11 2t5 -5q7 -10 18.5 -17t23.5 -7q21 0 30.5 11t9.5 23q0 15 -10 23t-26 11
t-32 3q-7 1 -10 6t1 12l37 61q3 5 6.5 6.5t8.5 1.5h23q11 0 6 -9l-29 -64l-13 19q42 -3 67.5 -20t25.5 -51z" />
    <glyph glyph-name="egrave" unicode="&#xe8;" horiz-adv-x="463" 
d="M38 237q0 47 9.5 90t32 77.5t61.5 54t100 19.5q63 0 100.5 -18t57 -48t25.5 -66t6 -72q0 -39 -8 -49.5t-24 -10.5h-261q-4 0 -7 -2t-3 -11q1 -41 15.5 -73t44 -50.5t73.5 -18.5q34 0 68 9.5t54 20.5q10 5 15.5 6t10.5 -10l16 -30q4 -7 2 -10.5t-10 -8.5
q-33 -21 -79.5 -31.5t-94.5 -10.5q-63 0 -102.5 18.5t-62 52t-31 77.5t-8.5 95zM340 288q0 34 -8.5 61t-30 43.5t-62.5 16.5q-30 0 -51 -11.5t-33.5 -29.5t-18.5 -39.5t-8 -41.5q-1 -12 0.5 -15.5t9.5 -3.5h187q9 0 12.5 3t2.5 17zM238 529q-9 0 -17 8l-77 89q-2 3 -0.5 6
t4.5 3h69q7 0 10.5 -1.5t6.5 -7.5l50 -87q7 -10 -2 -10h-44z" />
    <glyph glyph-name="eacute" unicode="&#xe9;" horiz-adv-x="463" 
d="M38 237q0 47 9.5 90t32 77.5t61.5 54t100 19.5q63 0 100.5 -18t57 -48t25.5 -66t6 -72q0 -39 -8 -49.5t-24 -10.5h-261q-4 0 -7 -2t-3 -11q1 -41 15.5 -73t44 -50.5t73.5 -18.5q34 0 68 9.5t54 20.5q10 5 15.5 6t10.5 -10l16 -30q4 -7 2 -10.5t-10 -8.5
q-33 -21 -79.5 -31.5t-94.5 -10.5q-63 0 -102.5 18.5t-62 52t-31 77.5t-8.5 95zM340 288q0 34 -8.5 61t-30 43.5t-62.5 16.5q-30 0 -51 -11.5t-33.5 -29.5t-18.5 -39.5t-8 -41.5q-1 -12 0.5 -15.5t9.5 -3.5h187q9 0 12.5 3t2.5 17zM201 528q-7 0 -7 2.5t4 8.5l58 90
q4 6 16 6h60q5 0 6.5 -2.5t-3.5 -7.5l-76 -92q-3 -3 -6 -4t-8 -1h-44z" />
    <glyph glyph-name="ecircumflex" unicode="&#xea;" horiz-adv-x="463" 
d="M38 237q0 47 9.5 90t32 77.5t61.5 54t100 19.5q63 0 100.5 -18t57 -48t25.5 -66t6 -72q0 -39 -8 -49.5t-24 -10.5h-261q-4 0 -7 -2t-3 -11q1 -41 15.5 -73t44 -50.5t73.5 -18.5q34 0 68 9.5t54 20.5q10 5 15.5 6t10.5 -10l16 -30q4 -7 2 -10.5t-10 -8.5
q-33 -21 -79.5 -31.5t-94.5 -10.5q-63 0 -102.5 18.5t-62 52t-31 77.5t-8.5 95zM340 288q0 34 -8.5 61t-30 43.5t-62.5 16.5q-30 0 -51 -11.5t-33.5 -29.5t-18.5 -39.5t-8 -41.5q-1 -12 0.5 -15.5t9.5 -3.5h187q9 0 12.5 3t2.5 17zM143 528q-3 0 -4 2.5t1 4.5l70 93q2 4 7 4
h46q5 0 7 -4l69 -93q2 -2 1.5 -4.5t-4.5 -2.5h-42q-4 0 -7 3l-44 46q-4 5 -8 0l-43 -46q-2 -3 -7 -3h-42z" />
    <glyph glyph-name="edieresis" unicode="&#xeb;" horiz-adv-x="463" 
d="M38 237q0 47 9.5 90t32 77.5t61.5 54t100 19.5q63 0 100.5 -18t57 -48t25.5 -66t6 -72q0 -39 -8 -49.5t-24 -10.5h-261q-4 0 -7 -2t-3 -11q1 -41 15.5 -73t44 -50.5t73.5 -18.5q34 0 68 9.5t54 20.5q10 5 15.5 6t10.5 -10l16 -30q4 -7 2 -10.5t-10 -8.5
q-33 -21 -79.5 -31.5t-94.5 -10.5q-63 0 -102.5 18.5t-62 52t-31 77.5t-8.5 95zM340 288q0 34 -8.5 61t-30 43.5t-62.5 16.5q-30 0 -51 -11.5t-33.5 -29.5t-18.5 -39.5t-8 -41.5q-1 -12 0.5 -15.5t9.5 -3.5h187q9 0 12.5 3t2.5 17zM210 573q0 -18 -8.5 -27.5t-34.5 -9.5
q-24 0 -33.5 9.5t-9.5 27.5q0 19 9.5 28.5t33.5 9.5q26 0 34.5 -9.5t8.5 -28.5zM357 573q0 -18 -8.5 -27.5t-35.5 -9.5q-23 0 -33 9.5t-10 27.5q0 19 10 28.5t33 9.5q27 0 35.5 -9.5t8.5 -28.5z" />
    <glyph glyph-name="igrave" unicode="&#xec;" horiz-adv-x="209" 
d="M149 9q0 -9 -9 -9h-71q-9 0 -9 9v454q0 9 9 9h71q9 0 9 -9v-454zM101 529q-9 0 -17 8l-77 89q-2 3 -0.5 6t4.5 3h69q7 0 10.5 -1.5t6.5 -7.5l50 -87q7 -10 -2 -10h-44z" />
    <glyph glyph-name="iacute" unicode="&#xed;" horiz-adv-x="209" 
d="M149 9q0 -9 -9 -9h-71q-9 0 -9 9v454q0 9 9 9h71q9 0 9 -9v-454zM64 528q-7 0 -7 2.5t4 8.5l58 90q4 6 16 6h60q5 0 6.5 -2.5t-3.5 -7.5l-76 -92q-3 -3 -6 -4t-8 -1h-44z" />
    <glyph glyph-name="icircumflex" unicode="&#xee;" horiz-adv-x="209" 
d="M149 9q0 -9 -9 -9h-71q-9 0 -9 9v454q0 9 9 9h71q9 0 9 -9v-454zM6 528q-3 0 -4 2.5t1 4.5l70 93q2 4 7 4h46q5 0 7 -4l69 -93q2 -2 1.5 -4.5t-4.5 -2.5h-42q-4 0 -7 3l-44 46q-4 5 -8 0l-43 -46q-2 -3 -7 -3h-42z" />
    <glyph glyph-name="idieresis" unicode="&#xef;" horiz-adv-x="209" 
d="M149 9q0 -9 -9 -9h-71q-9 0 -9 9v454q0 9 9 9h71q9 0 9 -9v-454zM74 573q0 -18 -8.5 -27.5t-34.5 -9.5q-24 0 -33.5 9.5t-9.5 27.5q0 19 9.5 28.5t33.5 9.5q26 0 34.5 -9.5t8.5 -28.5zM221 573q0 -18 -8.5 -27.5t-35.5 -9.5q-23 0 -33 9.5t-10 27.5q0 19 10 28.5t33 9.5
q27 0 35.5 -9.5t8.5 -28.5z" />
    <glyph glyph-name="eth" unicode="&#xf0;" horiz-adv-x="511" 
d="M466 239q0 -66 -18.5 -122t-64 -90t-127.5 -34q-81 0 -127 32t-65 87.5t-19 125.5t20.5 125t66.5 86t124 31q17 0 32.5 -3t28.5 -9q-18 22 -40 43.5t-49 41.5q-22 16 -46.5 31t-50.5 29q-6 3 -8 5.5t1 7.5q4 8 12.5 21.5t14.5 21.5q2 3 5.5 4t11.5 -2q11 -6 22 -11.5
t21 -11.5q84 -44 140.5 -107.5t85.5 -140t29 -161.5zM375 236q0 82 -28.5 126t-91.5 44t-91.5 -44t-28.5 -126q0 -83 27.5 -128t92.5 -45q64 0 92 46t28 127zM141 502q-4 -3 -5.5 -2.5t-3.5 3.5l-18 28q-2 4 -1 5.5t5 4.5l209 128q4 2 5.5 2t3.5 -3l19 -30q1 -2 0.5 -3.5
t-5.5 -3.5z" />
    <glyph glyph-name="ntilde" unicode="&#xf1;" horiz-adv-x="481" 
d="M71 0q-11 0 -11 9v211.5v210.5q0 8 5.5 12.5t21.5 9.5q13 4 38.5 10t55 10.5t54.5 4.5q79 0 121 -30t58 -81.5t16 -113.5q0 -44 -1.5 -88.5t-4 -83t-5.5 -65.5q-1 -12 -4 -14t-13 -2h-56q-10 0 -13.5 2.5t-2.5 11.5q0 6 2 32.5t4 63.5t3 75.5t1 68.5q0 53 -11.5 86.5
t-35 49t-60.5 15.5q-19 0 -36 -3t-31 -8q-7 -1 -12 -6.5t-5 -19.5v-112.5v-122v-124.5q0 -9 -8 -9h-70zM147 532q-5 0 -5 6q0 32 16.5 51t46.5 19q15 0 30 -8.5t28.5 -17t21.5 -8.5q6 0 10.5 6t4.5 15q0 7 5 7h38q6 0 6 -6q0 -29 -17.5 -49.5t-45.5 -20.5q-19 0 -34 9
t-26.5 17t-19.5 8t-12.5 -6t-4.5 -16q0 -6 -5 -6h-37z" />
    <glyph glyph-name="ograve" unicode="&#xf2;" horiz-adv-x="496" 
d="M248 -6q-83 0 -129 31t-63.5 86.5t-17.5 125.5t19.5 124.5t65.5 85.5t125 31t125 -31t65.5 -85.5t19.5 -124.5t-17.5 -125t-63 -86.5t-129.5 -31.5zM247 63q67 0 93.5 45.5t26.5 127.5q0 81 -29 125t-91 44q-61 0 -90.5 -44t-29.5 -125q0 -83 27 -128t93 -45zM246 529
q-9 0 -17 8l-77 89q-2 3 -0.5 6t4.5 3h69q7 0 10.5 -1.5t6.5 -7.5l50 -87q7 -10 -2 -10h-44z" />
    <glyph glyph-name="oacute" unicode="&#xf3;" horiz-adv-x="496" 
d="M248 -6q-83 0 -129 31t-63.5 86.5t-17.5 125.5t19.5 124.5t65.5 85.5t125 31t125 -31t65.5 -85.5t19.5 -124.5t-17.5 -125t-63 -86.5t-129.5 -31.5zM247 63q67 0 93.5 45.5t26.5 127.5q0 81 -29 125t-91 44q-61 0 -90.5 -44t-29.5 -125q0 -83 27 -128t93 -45zM208 528
q-7 0 -7 2.5t4 8.5l58 90q4 6 16 6h60q5 0 6.5 -2.5t-3.5 -7.5l-76 -92q-3 -3 -6 -4t-8 -1h-44z" />
    <glyph glyph-name="ocircumflex" unicode="&#xf4;" horiz-adv-x="496" 
d="M248 -6q-83 0 -129 31t-63.5 86.5t-17.5 125.5t19.5 124.5t65.5 85.5t125 31t125 -31t65.5 -85.5t19.5 -124.5t-17.5 -125t-63 -86.5t-129.5 -31.5zM247 63q67 0 93.5 45.5t26.5 127.5q0 81 -29 125t-91 44q-61 0 -90.5 -44t-29.5 -125q0 -83 27 -128t93 -45zM150 528
q-3 0 -4 2.5t1 4.5l70 93q2 4 7 4h46q5 0 7 -4l69 -93q2 -2 1.5 -4.5t-4.5 -2.5h-42q-4 0 -7 3l-44 46q-4 5 -8 0l-43 -46q-2 -3 -7 -3h-42z" />
    <glyph glyph-name="otilde" unicode="&#xf5;" horiz-adv-x="496" 
d="M248 -6q-83 0 -129 31t-63.5 86.5t-17.5 125.5t19.5 124.5t65.5 85.5t125 31t125 -31t65.5 -85.5t19.5 -124.5t-17.5 -125t-63 -86.5t-129.5 -31.5zM247 63q67 0 93.5 45.5t26.5 127.5q0 81 -29 125t-91 44q-61 0 -90.5 -44t-29.5 -125q0 -83 27 -128t93 -45zM150 532
q-5 0 -5 6q0 32 16.5 51t46.5 19q15 0 30 -8.5t28.5 -17t21.5 -8.5q6 0 10.5 6t4.5 15q0 7 5 7h38q6 0 6 -6q0 -29 -17.5 -49.5t-45.5 -20.5q-19 0 -34 9t-26.5 17t-19.5 8t-12.5 -6t-4.5 -16q0 -6 -5 -6h-37z" />
    <glyph glyph-name="odieresis" unicode="&#xf6;" horiz-adv-x="496" 
d="M248 -6q-83 0 -129 31t-63.5 86.5t-17.5 125.5t19.5 124.5t65.5 85.5t125 31t125 -31t65.5 -85.5t19.5 -124.5t-17.5 -125t-63 -86.5t-129.5 -31.5zM247 63q67 0 93.5 45.5t26.5 127.5q0 81 -29 125t-91 44q-61 0 -90.5 -44t-29.5 -125q0 -83 27 -128t93 -45zM218 573
q0 -18 -8.5 -27.5t-34.5 -9.5q-24 0 -33.5 9.5t-9.5 27.5q0 19 9.5 28.5t33.5 9.5q26 0 34.5 -9.5t8.5 -28.5zM365 573q0 -18 -8.5 -27.5t-35.5 -9.5q-23 0 -33 9.5t-10 27.5q0 19 10 28.5t33 9.5q27 0 35.5 -9.5t8.5 -28.5z" />
    <glyph glyph-name="divide" unicode="&#xf7;" horiz-adv-x="477" 
d="M287 169q0 -20 -9 -29.5t-39 -9.5q-26 0 -36.5 9.5t-10.5 29.5q0 19 10.5 29.5t36.5 10.5q30 0 39 -10.5t9 -29.5zM287 440q0 -20 -9 -30t-39 -10q-26 0 -36.5 10t-10.5 30q0 19 10.5 29t36.5 10q30 0 39 -10t9 -29zM60 274q-7 0 -8.5 2t-1.5 7v46q0 6 1.5 7.5t9.5 1.5
h356q6 0 8 -1.5t2 -7.5v-48q0 -4 -1.5 -5.5t-9.5 -1.5h-356z" />
    <glyph glyph-name="oslash" unicode="&#xf8;" horiz-adv-x="486" 
d="M248 -6q-83 0 -129 31t-63.5 86.5t-17.5 125.5t19.5 124.5t65.5 85.5t125 31t125 -31t65.5 -85.5t19.5 -124.5t-17.5 -125t-63 -86.5t-129.5 -31.5zM247 63q67 0 93.5 45.5t26.5 127.5q0 81 -29 125t-91 44q-61 0 -90.5 -44t-29.5 -125q0 -83 27 -128t93 -45zM122 -67
q-3 -9 -10 -9h-44q-3 0 -3 3t2 7l307 599q3 5 5.5 6t4.5 1h42q4 0 4 -3t-6 -15z" />
    <glyph glyph-name="ugrave" unicode="&#xf9;" horiz-adv-x="483" 
d="M249 -4q-78 0 -120.5 30t-59 81.5t-16.5 112.5q0 44 1.5 88t4.5 83l5 65q1 12 4.5 14t13.5 2h55q10 0 14 -1t2 -13q0 -6 -1.5 -31t-3.5 -61t-3 -75.5t-1 -74.5q0 -71 24.5 -109.5t81.5 -38.5q7 0 21 1t29 4t25 9t10 16v362q0 4 1 8t5 4h72q3 0 6.5 -1.5t3.5 -7.5v-414
q0 -12 -6.5 -17.5t-26.5 -12.5q-10 -3 -34 -8.5t-53 -10t-54 -4.5zM241 529q-9 0 -17 8l-77 89q-2 3 -0.5 6t4.5 3h69q7 0 10.5 -1.5t6.5 -7.5l50 -87q7 -10 -2 -10h-44z" />
    <glyph glyph-name="uacute" unicode="&#xfa;" horiz-adv-x="483" 
d="M249 -4q-78 0 -120.5 30t-59 81.5t-16.5 112.5q0 44 1.5 88t4.5 83l5 65q1 12 4.5 14t13.5 2h55q10 0 14 -1t2 -13q0 -6 -1.5 -31t-3.5 -61t-3 -75.5t-1 -74.5q0 -71 24.5 -109.5t81.5 -38.5q7 0 21 1t29 4t25 9t10 16v362q0 4 1 8t5 4h72q3 0 6.5 -1.5t3.5 -7.5v-414
q0 -12 -6.5 -17.5t-26.5 -12.5q-10 -3 -34 -8.5t-53 -10t-54 -4.5zM204 528q-7 0 -7 2.5t4 8.5l58 90q4 6 16 6h60q5 0 6.5 -2.5t-3.5 -7.5l-76 -92q-3 -3 -6 -4t-8 -1h-44z" />
    <glyph glyph-name="ucircumflex" unicode="&#xfb;" horiz-adv-x="483" 
d="M249 -4q-78 0 -120.5 30t-59 81.5t-16.5 112.5q0 44 1.5 88t4.5 83l5 65q1 12 4.5 14t13.5 2h55q10 0 14 -1t2 -13q0 -6 -1.5 -31t-3.5 -61t-3 -75.5t-1 -74.5q0 -71 24.5 -109.5t81.5 -38.5q7 0 21 1t29 4t25 9t10 16v362q0 4 1 8t5 4h72q3 0 6.5 -1.5t3.5 -7.5v-414
q0 -12 -6.5 -17.5t-26.5 -12.5q-10 -3 -34 -8.5t-53 -10t-54 -4.5zM146 528q-3 0 -4 2.5t1 4.5l70 93q2 4 7 4h46q5 0 7 -4l69 -93q2 -2 1.5 -4.5t-4.5 -2.5h-42q-4 0 -7 3l-44 46q-4 5 -8 0l-43 -46q-2 -3 -7 -3h-42z" />
    <glyph glyph-name="udieresis" unicode="&#xfc;" horiz-adv-x="483" 
d="M249 -4q-78 0 -120.5 30t-59 81.5t-16.5 112.5q0 44 1.5 88t4.5 83l5 65q1 12 4.5 14t13.5 2h55q10 0 14 -1t2 -13q0 -6 -1.5 -31t-3.5 -61t-3 -75.5t-1 -74.5q0 -71 24.5 -109.5t81.5 -38.5q7 0 21 1t29 4t25 9t10 16v362q0 4 1 8t5 4h72q3 0 6.5 -1.5t3.5 -7.5v-414
q0 -12 -6.5 -17.5t-26.5 -12.5q-10 -3 -34 -8.5t-53 -10t-54 -4.5zM213 573q0 -18 -8.5 -27.5t-34.5 -9.5q-24 0 -33.5 9.5t-9.5 27.5q0 19 9.5 28.5t33.5 9.5q26 0 34.5 -9.5t8.5 -28.5zM360 573q0 -18 -8.5 -27.5t-35.5 -9.5q-23 0 -33 9.5t-10 27.5q0 19 10 28.5t33 9.5
q27 0 35.5 -9.5t8.5 -28.5z" />
    <glyph glyph-name="yacute" unicode="&#xfd;" horiz-adv-x="416" 
d="M148 81q-22 35 -42 82t-36.5 99t-28 102.5t-18.5 93.5q-2 14 9 14h69q7 0 11 -3.5t5 -14.5q3 -22 9 -53.5t15.5 -67.5t20.5 -71.5t22 -65t21 -48.5q4 -7 8 -6.5t5 4.5q12 26 25.5 64.5t26.5 82.5t22.5 87t14.5 79q1 8 4.5 10.5t10.5 2.5h61q7 0 10.5 -2.5t1.5 -12.5
q-5 -37 -13 -72t-18.5 -71t-23.5 -76q-11 -33 -27.5 -79t-40 -94.5t-55.5 -91t-74 -69t-97 -26.5q-19 0 -33.5 2.5t-25.5 6.5q-15 7 -9 19l17 36q3 6 6.5 6.5t9.5 -1.5q22 -4 47.5 3t45.5 23q19 12 29.5 24t18.5 28q6 12 5 27t-9 29zM173 528q-7 0 -7 2.5t4 8.5l58 90
q4 6 16 6h60q5 0 6.5 -2.5t-3.5 -7.5l-76 -92q-3 -3 -6 -4t-8 -1h-44z" />
    <glyph glyph-name="thorn" unicode="&#xfe;" horiz-adv-x="493" 
d="M450 245q0 -59 -13 -102.5t-35.5 -72t-49.5 -45t-54 -22.5q-30 -6 -64 -2.5t-56 12.5q-6 1 -10 1.5t-6 -1.5q-3 -18 -8 -36.5t-7 -35.5q0 -12 -0.5 -23.5t-1.5 -22.5q-3 -4 -7 -5.5t-12 -1.5q-15 0 -30 0.5t-29 1.5q-3 91 -5 183t-2 186q0 83 0.5 165.5t1.5 164.5
q3 4 9 6t13 2q16 0 30.5 -0.5t28.5 -1.5q3 -22 5.5 -45t2.5 -50q0 -12 0.5 -24.5t2.5 -23.5q16 11 40 19.5t59 8.5q96 0 146.5 -60.5t50.5 -174.5zM360 245q0 87 -28.5 126.5t-79.5 39.5q-18 0 -39 -5t-37.5 -15.5t-23.5 -26.5q-4 -7 -4 -18q0 -54 -0.5 -108t-0.5 -107
q0 -7 0.5 -10.5t2.5 -7.5q10 -21 39.5 -30.5t57.5 -9.5q17 0 37 8t37 27t28 52t11 85z" />
    <glyph glyph-name="ydieresis" unicode="&#xff;" horiz-adv-x="416" 
d="M148 81q-22 35 -42 82t-36.5 99t-28 102.5t-18.5 93.5q-2 14 9 14h69q7 0 11 -3.5t5 -14.5q3 -22 9 -53.5t15.5 -67.5t20.5 -71.5t22 -65t21 -48.5q4 -7 8 -6.5t5 4.5q12 26 25.5 64.5t26.5 82.5t22.5 87t14.5 79q1 8 4.5 10.5t10.5 2.5h61q7 0 10.5 -2.5t1.5 -12.5
q-5 -37 -13 -72t-18.5 -71t-23.5 -76q-11 -33 -27.5 -79t-40 -94.5t-55.5 -91t-74 -69t-97 -26.5q-19 0 -33.5 2.5t-25.5 6.5q-15 7 -9 19l17 36q3 6 6.5 6.5t9.5 -1.5q22 -4 47.5 3t45.5 23q19 12 29.5 24t18.5 28q6 12 5 27t-9 29zM183 573q0 -18 -8.5 -27.5t-34.5 -9.5
q-24 0 -33.5 9.5t-9.5 27.5q0 19 9.5 28.5t33.5 9.5q26 0 34.5 -9.5t8.5 -28.5zM330 573q0 -18 -8.5 -27.5t-35.5 -9.5q-23 0 -33 9.5t-10 27.5q0 19 10 28.5t33 9.5q27 0 35.5 -9.5t8.5 -28.5z" />
    <glyph glyph-name="Amacron" unicode="&#x100;" horiz-adv-x="552" 
d="M41 0q-7 0 -8 4.5t1 17.5q6 47 20 112t33 138.5t41 147t45 136t44 104.5q3 6 7 9.5t9 3.5h86q5 -1 9.5 -3.5t7.5 -9.5q20 -41 43 -104t45 -137t41 -148.5t33 -139t20 -108.5q3 -14 1.5 -18.5t-8.5 -4.5h-71q-5 0 -7 3t-5 15q-4 26 -11 61t-14 69q-1 6 -3.5 7.5t-8.5 1.5
h-230q-6 0 -8 -1.5t-4 -8.5q-7 -33 -14 -68t-11 -61q-2 -12 -4 -15t-8 -3h-71zM180 229h191q5 0 7 3t0 12q-19 74 -39.5 150.5t-46.5 143.5q-2 7 -8 7h-16q-5 0 -8 -7q-13 -35 -29 -85t-31 -105.5t-27 -107.5q-1 -4 0 -7.5t7 -3.5zM387 743q0 -2 -1.5 -3t-6.5 -1h-205
q-5 0 -6 1.5t-1 4.5v44q0 5 1.5 6t5.5 1h205q5 0 6.5 -1t1.5 -5v-47z" />
    <glyph glyph-name="amacron" unicode="&#x101;" horiz-adv-x="478" 
d="M232 -8q-50 0 -92.5 11.5t-68.5 43.5t-26 93q0 51 18 84t47 50.5t61 24.5t60 7q27 0 53.5 -2.5t43.5 -5.5q13 -3 13 17q0 53 -27.5 75t-83.5 22q-38 0 -72.5 -12.5t-56.5 -25.5q-8 -4 -11 -3t-4 8l-7 43q-1 9 0.5 12t7.5 7q24 16 62 26t83 10q65 0 103.5 -15t58 -40.5
t26 -58t7.5 -68.5q0 -48 -0.5 -89.5t-2 -81.5t-5.5 -82q-2 -9 -6.5 -14.5t-17.5 -11.5q-14 -6 -35.5 -10.5t-44.5 -7.5t-45 -4.5t-38 -1.5zM237 50q9 0 23.5 1.5t30 5t26.5 9.5t13 15q3 28 5 65t1 69q0 17 -12 22q-13 5 -38.5 7.5t-52.5 2.5q-14 0 -31 -4t-33 -15t-26 -32.5
t-10 -55.5q0 -30 13 -50t36.5 -30t54.5 -10zM357 543q0 -2 -1.5 -3t-6.5 -1h-205q-5 0 -6 1.5t-1 4.5v44q0 5 1.5 6t5.5 1h205q5 0 6.5 -1t1.5 -5v-47z" />
    <glyph glyph-name="Abreve" unicode="&#x102;" horiz-adv-x="552" 
d="M41 0q-7 0 -8 4.5t1 17.5q6 47 20 112t33 138.5t41 147t45 136t44 104.5q3 6 7 9.5t9 3.5h86q5 -1 9.5 -3.5t7.5 -9.5q20 -41 43 -104t45 -137t41 -148.5t33 -139t20 -108.5q3 -14 1.5 -18.5t-8.5 -4.5h-71q-5 0 -7 3t-5 15q-4 26 -11 61t-14 69q-1 6 -3.5 7.5t-8.5 1.5
h-230q-6 0 -8 -1.5t-4 -8.5q-7 -33 -14 -68t-11 -61q-2 -12 -4 -15t-8 -3h-71zM180 229h191q5 0 7 3t0 12q-19 74 -39.5 150.5t-46.5 143.5q-2 7 -8 7h-16q-5 0 -8 -7q-13 -35 -29 -85t-31 -105.5t-27 -107.5q-1 -4 0 -7.5t7 -3.5zM277 713q-46 0 -70 21t-25 61q0 7 1.5 9
t7.5 2h33q6 0 7.5 -1t1.5 -7q1 -20 12.5 -29.5t31.5 -9.5q19 0 31 9.5t12 30.5q0 5 2.5 6t4.5 1h36q4 0 5.5 -1.5t1.5 -9.5q0 -39 -23 -60.5t-70 -21.5z" />
    <glyph glyph-name="abreve" unicode="&#x103;" horiz-adv-x="478" 
d="M232 -8q-50 0 -92.5 11.5t-68.5 43.5t-26 93q0 51 18 84t47 50.5t61 24.5t60 7q27 0 53.5 -2.5t43.5 -5.5q13 -3 13 17q0 53 -27.5 75t-83.5 22q-38 0 -72.5 -12.5t-56.5 -25.5q-8 -4 -11 -3t-4 8l-7 43q-1 9 0.5 12t7.5 7q24 16 62 26t83 10q65 0 103.5 -15t58 -40.5
t26 -58t7.5 -68.5q0 -48 -0.5 -89.5t-2 -81.5t-5.5 -82q-2 -9 -6.5 -14.5t-17.5 -11.5q-14 -6 -35.5 -10.5t-44.5 -7.5t-45 -4.5t-38 -1.5zM237 50q9 0 23.5 1.5t30 5t26.5 9.5t13 15q3 28 5 65t1 69q0 17 -12 22q-13 5 -38.5 7.5t-52.5 2.5q-14 0 -31 -4t-33 -15t-26 -32.5
t-10 -55.5q0 -30 13 -50t36.5 -30t54.5 -10zM247 524q-50 0 -76.5 21.5t-27.5 62.5q0 9 1 11.5t9 2.5h37q7 0 8.5 -1.5t1.5 -7.5q2 -20 14 -29t33 -9t33.5 9t12.5 29q0 6 2 7.5t7 1.5h39q6 0 7.5 -2.5t1.5 -11.5q-1 -39 -26 -61.5t-77 -22.5z" />
    <glyph glyph-name="Aogonek" unicode="&#x104;" horiz-adv-x="552" 
d="M41 0q-7 0 -8 4.5t1 17.5q6 47 20 112t33 138.5t41 147t45 136t44 104.5q3 6 7 9.5t9 3.5h86q5 -1 9.5 -3.5t7.5 -9.5q20 -41 43 -104t45 -137t41 -148.5t33 -139t20 -108.5q3 -14 1.5 -18.5t-8.5 -4.5h-71q-5 0 -7 3t-5 15q-4 26 -11 61t-14 69q-1 6 -3.5 7.5t-8.5 1.5
h-230q-6 0 -8 -1.5t-4 -8.5q-7 -33 -14 -68t-11 -61q-2 -12 -4 -15t-8 -3h-71zM180 229h191q5 0 7 3t0 12q-19 74 -39.5 150.5t-46.5 143.5q-2 7 -8 7h-16q-5 0 -8 -7q-13 -35 -29 -85t-31 -105.5t-27 -107.5q-1 -4 0 -7.5t7 -3.5zM425 -228q-39 0 -67 23t-28 58
q0 32 15 58.5t38.5 48t49.5 36.5q7 4 15.5 7t17.5 3h46q4 0 5 -3.5t-5 -7.5q-37 -24 -63 -47t-39.5 -44.5t-13.5 -42.5q0 -20 11.5 -28.5t27.5 -7.5q18 0 37.5 10t33.5 21q4 4 8 3.5t4 -5.5v-32q0 -12 -13 -22q-16 -12 -35 -20t-45 -8z" />
    <glyph glyph-name="aogonek" unicode="&#x105;" horiz-adv-x="478" 
d="M232 -8q-50 0 -92.5 11.5t-68.5 43.5t-26 93q0 51 18 84t47 50.5t61 24.5t60 7q27 0 53.5 -2.5t43.5 -5.5q13 -3 13 17q0 53 -27.5 75t-83.5 22q-38 0 -72.5 -12.5t-56.5 -25.5q-8 -4 -11 -3t-4 8l-7 43q-1 9 0.5 12t7.5 7q24 16 62 26t83 10q65 0 103.5 -15t58 -40.5
t26 -58t7.5 -68.5q0 -48 -0.5 -89.5t-2 -81.5t-5.5 -82q-2 -9 -6.5 -14.5t-17.5 -11.5q-14 -6 -35.5 -10.5t-44.5 -7.5t-45 -4.5t-38 -1.5zM237 50q9 0 23.5 1.5t30 5t26.5 9.5t13 15q3 28 5 65t1 69q0 17 -12 22q-13 5 -38.5 7.5t-52.5 2.5q-14 0 -31 -4t-33 -15t-26 -32.5
t-10 -55.5q0 -30 13 -50t36.5 -30t54.5 -10zM241 -217q-39 0 -67 23t-28 58q0 32 15 58.5t38.5 48t49.5 36.5q7 4 15.5 7t17.5 3h46q4 0 5 -3.5t-5 -7.5q-37 -24 -63 -47t-39.5 -44.5t-13.5 -42.5q0 -20 11.5 -28.5t27.5 -7.5q18 0 37.5 10t33.5 21q4 4 8 3.5t4 -5.5v-32
q0 -12 -13 -22q-16 -12 -35 -20t-45 -8z" />
    <glyph glyph-name="Cacute" unicode="&#x106;" horiz-adv-x="456" 
d="M422 25q0 -16 -20 -22q-13 -5 -33 -7.5t-38.5 -3.5t-28.5 -1q-114 0 -184 87t-70 257q0 172 67.5 258.5t186.5 86.5q10 0 28.5 -1.5t38.5 -4t33 -6.5q10 -3 15 -7t5 -11v-60q0 -19 -19 -6q-16 10 -40.5 16.5t-51.5 6.5q-49 0 -82 -20.5t-52 -57t-27 -83t-8 -97.5
q0 -35 3.5 -74t13.5 -76.5t29 -68.5t49 -49t74 -18q29 0 53.5 6.5t36.5 14.5q13 8 17 6.5t4 -12.5v-53zM287 718h-45q-6 0 -6 3.5t4 7.5l64 71q4 5 7 7t10 2h69q3 0 5 -3.5t-1 -5.5l-90 -74q-5 -3 -8.5 -5.5t-8.5 -2.5z" />
    <glyph glyph-name="cacute" unicode="&#x107;" horiz-adv-x="401" 
d="M240 -6q-62 0 -102 18.5t-62.5 51.5t-31.5 77t-9 94q0 47 9.5 90.5t32 78t62 54.5t100.5 20q42 0 73 -8.5t54 -26.5q6 -6 7.5 -9t1.5 -9v-54q0 -7 -4.5 -7t-8.5 3q-22 21 -52 29.5t-61 8.5q-35 0 -59 -14.5t-38.5 -39.5t-21 -55t-6.5 -62q0 -52 12 -90.5t39 -59.5t70 -21
q28 0 52.5 6.5t48.5 17.5q12 6 18 -5l18 -39q3 -6 1.5 -9.5t-6.5 -6.5q-25 -17 -61.5 -25t-75.5 -8zM199 528q-7 0 -7 2.5t4 8.5l58 90q4 6 16 6h60q5 0 6.5 -2.5t-3.5 -7.5l-76 -92q-3 -3 -6 -4t-8 -1h-44z" />
    <glyph glyph-name="Cdotaccent" unicode="&#x10a;" horiz-adv-x="456" 
d="M422 25q0 -16 -20 -22q-13 -5 -33 -7.5t-38.5 -3.5t-28.5 -1q-114 0 -184 87t-70 257q0 172 67.5 258.5t186.5 86.5q10 0 28.5 -1.5t38.5 -4t33 -6.5q10 -3 15 -7t5 -11v-60q0 -19 -19 -6q-16 10 -40.5 16.5t-51.5 6.5q-49 0 -82 -20.5t-52 -57t-27 -83t-8 -97.5
q0 -35 3.5 -74t13.5 -76.5t29 -68.5t49 -49t74 -18q29 0 53.5 6.5t36.5 14.5q13 8 17 6.5t4 -12.5v-53zM332 775q0 -20 -8 -30t-33 -10q-24 0 -33 10t-9 30q0 18 9 28.5t33 10.5q26 0 33.5 -10.5t7.5 -28.5z" />
    <glyph glyph-name="cdotaccent" unicode="&#x10b;" horiz-adv-x="401" 
d="M240 -6q-62 0 -102 18.5t-62.5 51.5t-31.5 77t-9 94q0 47 9.5 90.5t32 78t62 54.5t100.5 20q42 0 73 -8.5t54 -26.5q6 -6 7.5 -9t1.5 -9v-54q0 -7 -4.5 -7t-8.5 3q-22 21 -52 29.5t-61 8.5q-35 0 -59 -14.5t-38.5 -39.5t-21 -55t-6.5 -62q0 -52 12 -90.5t39 -59.5t70 -21
q28 0 52.5 6.5t48.5 17.5q12 6 18 -5l18 -39q3 -6 1.5 -9.5t-6.5 -6.5q-25 -17 -61.5 -25t-75.5 -8zM281 575q0 -20 -8 -30t-33 -10q-24 0 -33 10t-9 30q0 18 9 28.5t33 10.5q26 0 33.5 -10.5t7.5 -28.5z" />
    <glyph glyph-name="Ccaron" unicode="&#x10c;" horiz-adv-x="456" 
d="M422 25q0 -16 -20 -22q-13 -5 -33 -7.5t-38.5 -3.5t-28.5 -1q-114 0 -184 87t-70 257q0 172 67.5 258.5t186.5 86.5q10 0 28.5 -1.5t38.5 -4t33 -6.5q10 -3 15 -7t5 -11v-60q0 -19 -19 -6q-16 10 -40.5 16.5t-51.5 6.5q-49 0 -82 -20.5t-52 -57t-27 -83t-8 -97.5
q0 -35 3.5 -74t13.5 -76.5t29 -68.5t49 -49t74 -18q29 0 53.5 6.5t36.5 14.5q13 8 17 6.5t4 -12.5v-53zM266 717q-4 0 -7 4l-74 81q-1 3 -0.5 5.5t4.5 2.5h39q5 0 8 -4l49 -43q5 -4 9 0l50 43q3 4 8 4h39q4 0 5 -2.5t-1 -5.5l-74 -81q-2 -4 -7 -4h-48z" />
    <glyph glyph-name="ccaron" unicode="&#x10d;" horiz-adv-x="401" 
d="M240 -6q-62 0 -102 18.5t-62.5 51.5t-31.5 77t-9 94q0 47 9.5 90.5t32 78t62 54.5t100.5 20q42 0 73 -8.5t54 -26.5q6 -6 7.5 -9t1.5 -9v-54q0 -7 -4.5 -7t-8.5 3q-22 21 -52 29.5t-61 8.5q-35 0 -59 -14.5t-38.5 -39.5t-21 -55t-6.5 -62q0 -52 12 -90.5t39 -59.5t70 -21
q28 0 52.5 6.5t48.5 17.5q12 6 18 -5l18 -39q3 -6 1.5 -9.5t-6.5 -6.5q-25 -17 -61.5 -25t-75.5 -8zM217 528q-5 0 -7 3l-70 93q-2 3 -1 5.5t4 2.5h42q5 0 7 -4l43 -46q4 -4 8 0l44 46q3 4 7 4h42q4 0 4.5 -2.5t-1.5 -5.5l-69 -93q-2 -3 -7 -3h-46z" />
    <glyph glyph-name="Dcaron" unicode="&#x10e;" horiz-adv-x="580" 
d="M532 347q0 -88 -17 -149t-45.5 -100t-62 -60.5t-66.5 -29.5t-60 -8h-196q-10 0 -10 9v655q0 9 10 9h196q32 0 67.5 -6t68 -24.5t58.5 -54.5t41.5 -94.5t15.5 -146.5zM442 347q0 90 -16 141.5t-41 75.5t-53 30.5t-52 6.5h-105q-6 0 -7 -1.5t-1 -5.5v-515q0 -4 1 -5.5
t6 -1.5h89q26 0 56.5 9t58.5 37.5t46 83t18 145.5zM242 717q-4 0 -7 4l-74 81q-1 3 -0.5 5.5t4.5 2.5h39q5 0 8 -4l49 -43q5 -4 9 0l50 43q3 4 8 4h39q4 0 5 -2.5t-1 -5.5l-74 -81q-2 -4 -7 -4h-48z" />
    <glyph glyph-name="dcaron" unicode="&#x10f;" horiz-adv-x="492" 
d="M43 230q1 76 19 123.5t47 74t64 36.5t69 10q24 0 47 -3.5t37 -7.5q10 -2 14.5 -1.5t4.5 9.5q0 17 -0.5 41t-2 49.5t-3 50t-2.5 43.5t-2 27q-2 11 1 13.5t9 2.5h67q4 0 7.5 -1.5t3.5 -6.5q4 -46 6.5 -101.5t4 -115t2 -120t-1 -117t-4 -105.5t-7.5 -87q-2 -8 -6.5 -14
t-21.5 -12q-23 -10 -63.5 -18t-86.5 -8q-41 0 -76 10t-60 32q-33 28 -50 77t-16 119zM133 229q0 -67 15.5 -101.5t41.5 -46.5q17 -13 42 -16.5t50.5 0t44.5 11.5q4 3 7 6t3 8q2 24 3.5 54.5t2 63t1.5 63t1 56v40.5q0 9 -3.5 12.5t-8.5 4.5q-20 6 -44 10t-42 4q-17 0 -37 -6
t-37.5 -23t-28 -50.5t-11.5 -89.5zM499 528q-4 0 -6 2.5t-3 10.5l-4 143q0 9 2 11.5t10 2.5h42q9 0 10.5 -2.5t1.5 -8.5l-5 -148q-1 -7 -3 -9t-8 -2h-37z" />
    <glyph glyph-name="Dcroat" unicode="&#x110;" horiz-adv-x="577" 
d="M560 347q0 -88 -17 -149t-45.5 -100t-62 -60.5t-66.5 -29.5t-60 -8h-196q-10 0 -10 9v655q0 9 10 9h196q32 0 67.5 -6t68 -24.5t58.5 -54.5t41.5 -94.5t15.5 -146.5zM470 347q0 90 -16 141.5t-41 75.5t-53 30.5t-52 6.5h-105q-6 0 -7 -1.5t-1 -5.5v-515q0 -4 1 -5.5
t6 -1.5h89q26 0 56.5 9t58.5 37.5t46 83t18 145.5zM26 294q-6 0 -7.5 2t-1.5 7v48q0 6 1.5 7.5t7.5 1.5h272q6 0 7.5 -1.5t1.5 -7.5v-50q0 -4 -1.5 -5.5t-7.5 -1.5h-272z" />
    <glyph glyph-name="dcroat" unicode="&#x111;" horiz-adv-x="477" 
d="M43 230q1 76 19 123.5t47 74t64 36.5t69 10q24 0 47 -3.5t37 -7.5q10 -2 14.5 -1.5t4.5 9.5q0 17 -0.5 41t-2 49.5t-3 50t-2.5 43.5t-2 27q-2 11 1 13.5t9 2.5h67q4 0 7.5 -1.5t3.5 -6.5q4 -46 6.5 -101.5t4 -115t2 -120t-1 -117t-4 -105.5t-7.5 -87q-2 -8 -6.5 -14
t-21.5 -12q-23 -10 -63.5 -18t-86.5 -8q-41 0 -76 10t-60 32q-33 28 -50 77t-16 119zM133 229q0 -67 15.5 -101.5t41.5 -46.5q17 -13 42 -16.5t50.5 0t44.5 11.5q4 3 7 6t3 8q2 24 3.5 54.5t2 63t1.5 63t1 56v40.5q0 9 -3.5 12.5t-8.5 4.5q-20 6 -44 10t-42 4q-17 0 -37 -6
t-37.5 -23t-28 -50.5t-11.5 -89.5zM200 567q-6 0 -7.5 2t-1.5 7v48q0 6 1.5 7.5t7.5 1.5h272q6 0 7.5 -1.5t1.5 -7.5v-50q0 -4 -1.5 -5.5t-7.5 -1.5h-272z" />
    <glyph glyph-name="Emacron" unicode="&#x112;" horiz-adv-x="449" 
d="M85 0q-10 0 -10 9v655q0 9 10 9h321q8 0 9.5 -1.5t1.5 -8.5v-51q0 -8 -2 -9.5t-9 -1.5h-232q-5 0 -6 -1.5t-1 -6.5v-210q0 -5 1.5 -6.5t5.5 -1.5h187q8 0 9.5 -2t1.5 -11v-46q0 -8 -1.5 -10.5t-9.5 -2.5h-187q-5 0 -6 -1t-1 -6v-215q0 -5 1 -7t6 -2h230q10 0 11.5 -2
t1.5 -11v-46q0 -9 -2.5 -11t-10.5 -2h-319zM351 743q0 -2 -1.5 -3t-6.5 -1h-205q-5 0 -6 1.5t-1 4.5v44q0 5 1.5 6t5.5 1h205q5 0 6.5 -1t1.5 -5v-47z" />
    <glyph glyph-name="emacron" unicode="&#x113;" horiz-adv-x="463" 
d="M38 237q0 47 9.5 90t32 77.5t61.5 54t100 19.5q63 0 100.5 -18t57 -48t25.5 -66t6 -72q0 -39 -8 -49.5t-24 -10.5h-261q-4 0 -7 -2t-3 -11q1 -41 15.5 -73t44 -50.5t73.5 -18.5q34 0 68 9.5t54 20.5q10 5 15.5 6t10.5 -10l16 -30q4 -7 2 -10.5t-10 -8.5
q-33 -21 -79.5 -31.5t-94.5 -10.5q-63 0 -102.5 18.5t-62 52t-31 77.5t-8.5 95zM340 288q0 34 -8.5 61t-30 43.5t-62.5 16.5q-30 0 -51 -11.5t-33.5 -29.5t-18.5 -39.5t-8 -41.5q-1 -12 0.5 -15.5t9.5 -3.5h187q9 0 12.5 3t2.5 17zM351 543q0 -2 -1.5 -3t-6.5 -1h-205
q-5 0 -6 1.5t-1 4.5v44q0 5 1.5 6t5.5 1h205q5 0 6.5 -1t1.5 -5v-47z" />
    <glyph glyph-name="Edotaccent" unicode="&#x116;" horiz-adv-x="449" 
d="M85 0q-10 0 -10 9v655q0 9 10 9h321q8 0 9.5 -1.5t1.5 -8.5v-51q0 -8 -2 -9.5t-9 -1.5h-232q-5 0 -6 -1.5t-1 -6.5v-210q0 -5 1.5 -6.5t5.5 -1.5h187q8 0 9.5 -2t1.5 -11v-46q0 -8 -1.5 -10.5t-9.5 -2.5h-187q-5 0 -6 -1t-1 -6v-215q0 -5 1 -7t6 -2h230q10 0 11.5 -2
t1.5 -11v-46q0 -9 -2.5 -11t-10.5 -2h-319zM282 775q0 -20 -8 -30t-33 -10q-24 0 -33 10t-9 30q0 18 9 28.5t33 10.5q26 0 33.5 -10.5t7.5 -28.5z" />
    <glyph glyph-name="edotaccent" unicode="&#x117;" horiz-adv-x="463" 
d="M38 237q0 47 9.5 90t32 77.5t61.5 54t100 19.5q63 0 100.5 -18t57 -48t25.5 -66t6 -72q0 -39 -8 -49.5t-24 -10.5h-261q-4 0 -7 -2t-3 -11q1 -41 15.5 -73t44 -50.5t73.5 -18.5q34 0 68 9.5t54 20.5q10 5 15.5 6t10.5 -10l16 -30q4 -7 2 -10.5t-10 -8.5
q-33 -21 -79.5 -31.5t-94.5 -10.5q-63 0 -102.5 18.5t-62 52t-31 77.5t-8.5 95zM340 288q0 34 -8.5 61t-30 43.5t-62.5 16.5q-30 0 -51 -11.5t-33.5 -29.5t-18.5 -39.5t-8 -41.5q-1 -12 0.5 -15.5t9.5 -3.5h187q9 0 12.5 3t2.5 17zM282 575q0 -20 -8 -30t-33 -10
q-24 0 -33 10t-9 30q0 18 9 28.5t33 10.5q26 0 33.5 -10.5t7.5 -28.5z" />
    <glyph glyph-name="Eogonek" unicode="&#x118;" horiz-adv-x="449" 
d="M85 0q-10 0 -10 9v655q0 9 10 9h321q8 0 9.5 -1.5t1.5 -8.5v-51q0 -8 -2 -9.5t-9 -1.5h-232q-5 0 -6 -1.5t-1 -6.5v-210q0 -5 1.5 -6.5t5.5 -1.5h187q8 0 9.5 -2t1.5 -11v-46q0 -8 -1.5 -10.5t-9.5 -2.5h-187q-5 0 -6 -1t-1 -6v-215q0 -5 1 -7t6 -2h230q10 0 11.5 -2
t1.5 -11v-46q0 -9 -2.5 -11t-10.5 -2h-319zM233 -223q-39 0 -67 23t-28 58q0 32 15 58.5t38.5 48t49.5 36.5q7 4 15.5 7t17.5 3h46q4 0 5 -3.5t-5 -7.5q-37 -24 -63 -47t-39.5 -44.5t-13.5 -42.5q0 -20 11.5 -28.5t27.5 -7.5q18 0 37.5 10t33.5 21q4 4 8 3.5t4 -5.5v-32
q0 -12 -13 -22q-16 -12 -35 -20t-45 -8z" />
    <glyph glyph-name="eogonek" unicode="&#x119;" horiz-adv-x="463" 
d="M38 237q0 47 9.5 90t32 77.5t61.5 54t100 19.5q63 0 100.5 -18t57 -48t25.5 -66t6 -72q0 -39 -8 -49.5t-24 -10.5h-261q-4 0 -7 -2t-3 -11q1 -41 15.5 -73t44 -50.5t73.5 -18.5q34 0 68 9.5t54 20.5q10 5 15.5 6t10.5 -10l16 -30q4 -7 2 -10.5t-10 -8.5
q-33 -21 -79.5 -31.5t-94.5 -10.5q-63 0 -102.5 18.5t-62 52t-31 77.5t-8.5 95zM340 288q0 34 -8.5 61t-30 43.5t-62.5 16.5q-30 0 -51 -11.5t-33.5 -29.5t-18.5 -39.5t-8 -41.5q-1 -12 0.5 -15.5t9.5 -3.5h187q9 0 12.5 3t2.5 17zM204 -222q-39 0 -67 23t-28 58
q0 32 15 58.5t38.5 48t49.5 36.5q7 4 15.5 7t17.5 3h46q4 0 5 -3.5t-5 -7.5q-37 -24 -63 -47t-39.5 -44.5t-13.5 -42.5q0 -20 11.5 -28.5t27.5 -7.5q18 0 37.5 10t33.5 21q4 4 8 3.5t4 -5.5v-32q0 -12 -13 -22q-16 -12 -35 -20t-45 -8z" />
    <glyph glyph-name="Ecaron" unicode="&#x11a;" horiz-adv-x="449" 
d="M85 0q-10 0 -10 9v655q0 9 10 9h321q8 0 9.5 -1.5t1.5 -8.5v-51q0 -8 -2 -9.5t-9 -1.5h-232q-5 0 -6 -1.5t-1 -6.5v-210q0 -5 1.5 -6.5t5.5 -1.5h187q8 0 9.5 -2t1.5 -11v-46q0 -8 -1.5 -10.5t-9.5 -2.5h-187q-5 0 -6 -1t-1 -6v-215q0 -5 1 -7t6 -2h230q10 0 11.5 -2
t1.5 -11v-46q0 -9 -2.5 -11t-10.5 -2h-319zM217 717q-4 0 -7 4l-74 81q-1 3 -0.5 5.5t4.5 2.5h39q5 0 8 -4l49 -43q5 -4 9 0l50 43q3 4 8 4h39q4 0 5 -2.5t-1 -5.5l-74 -81q-2 -4 -7 -4h-48z" />
    <glyph glyph-name="ecaron" unicode="&#x11b;" horiz-adv-x="463" 
d="M38 237q0 47 9.5 90t32 77.5t61.5 54t100 19.5q63 0 100.5 -18t57 -48t25.5 -66t6 -72q0 -39 -8 -49.5t-24 -10.5h-261q-4 0 -7 -2t-3 -11q1 -41 15.5 -73t44 -50.5t73.5 -18.5q34 0 68 9.5t54 20.5q10 5 15.5 6t10.5 -10l16 -30q4 -7 2 -10.5t-10 -8.5
q-33 -21 -79.5 -31.5t-94.5 -10.5q-63 0 -102.5 18.5t-62 52t-31 77.5t-8.5 95zM340 288q0 34 -8.5 61t-30 43.5t-62.5 16.5q-30 0 -51 -11.5t-33.5 -29.5t-18.5 -39.5t-8 -41.5q-1 -12 0.5 -15.5t9.5 -3.5h187q9 0 12.5 3t2.5 17zM218 528q-5 0 -7 3l-70 93q-2 3 -1 5.5
t4 2.5h42q5 0 7 -4l43 -46q4 -4 8 0l44 46q3 4 7 4h42q4 0 4.5 -2.5t-1.5 -5.5l-69 -93q-2 -3 -7 -3h-46z" />
    <glyph glyph-name="Gbreve" unicode="&#x11e;" horiz-adv-x="564" 
d="M504 26q0 -13 -15.5 -20t-40 -9.5t-51.5 -2.5q-176 0 -267.5 84t-91.5 247q0 110 41.5 189t113.5 121.5t162 42.5q33 0 68.5 -2.5t57.5 -9.5q11 -4 15 -6.5t4 -11.5v-51q0 -13 -5.5 -16t-12.5 1q-25 14 -52 19t-59 5t-73 -12.5t-78 -43t-61 -83.5t-24 -135
q0 -85 23.5 -137.5t60.5 -80.5t77.5 -38.5t75.5 -10.5t41 12v219q0 6 -2 7.5t-7 1.5h-136q-6 0 -8 2t-2 8v51q0 6 2 8.5t8 2.5h221q11 0 13 -2.5t2 -13.5v-335zM346 713q-46 0 -70 21t-25 61q0 7 1.5 9t7.5 2h33q6 0 7.5 -1t1.5 -7q1 -20 12.5 -29.5t31.5 -9.5q19 0 31 9.5
t12 30.5q0 5 2.5 6t4.5 1h36q4 0 5.5 -1.5t1.5 -9.5q0 -39 -23 -60.5t-70 -21.5z" />
    <glyph glyph-name="gbreve" unicode="&#x11f;" horiz-adv-x="484" 
d="M38 242q0 67 18 120.5t64 84.5t128 31q39 0 77 -6t67 -18q19 -6 24 -16.5t7 -32.5q9 -76 10 -173.5t-11 -199.5q-11 -86 -62.5 -126t-141.5 -40q-36 0 -78 10t-77 36q-5 4 -7 9t1 10q3 6 9.5 17t10.5 17q4 8 8 8.5t10 -3.5q14 -9 34.5 -17.5t43 -14t41.5 -5.5q25 0 49 8
t42.5 27.5t23.5 53.5q0 2 0.5 3.5t0.5 2.5q1 7 -3 9.5t-13 0.5q-16 -4 -37.5 -7.5t-43.5 -3.5q-59 0 -103.5 25t-68.5 73t-23 117zM130 254q0 -46 10 -82t35 -56.5t68 -20.5q20 0 39 2.5t35 8.5q20 8 22 25q2 25 2 59.5t-0.5 70t-2 66t-3.5 49.5q0 6 -3 15t-12 13
q-11 6 -31 9t-44 3q-43 0 -68 -20.5t-36 -57t-11 -84.5zM251 527q-50 0 -76.5 21.5t-27.5 62.5q0 9 1 11.5t9 2.5h37q7 0 8.5 -1.5t1.5 -7.5q2 -20 14 -29t33 -9t33.5 9t12.5 29q0 6 2 7.5t7 1.5h39q6 0 7.5 -2.5t1.5 -11.5q-1 -39 -26 -61.5t-77 -22.5z" />
    <glyph glyph-name="Gdotaccent" unicode="&#x120;" horiz-adv-x="564" 
d="M504 26q0 -13 -15.5 -20t-40 -9.5t-51.5 -2.5q-176 0 -267.5 84t-91.5 247q0 110 41.5 189t113.5 121.5t162 42.5q33 0 68.5 -2.5t57.5 -9.5q11 -4 15 -6.5t4 -11.5v-51q0 -13 -5.5 -16t-12.5 1q-25 14 -52 19t-59 5t-73 -12.5t-78 -43t-61 -83.5t-24 -135
q0 -85 23.5 -137.5t60.5 -80.5t77.5 -38.5t75.5 -10.5t41 12v219q0 6 -2 7.5t-7 1.5h-136q-6 0 -8 2t-2 8v51q0 6 2 8.5t8 2.5h221q11 0 13 -2.5t2 -13.5v-335zM386 775q0 -20 -8 -30t-33 -10q-24 0 -33 10t-9 30q0 18 9 28.5t33 10.5q26 0 33.5 -10.5t7.5 -28.5z" />
    <glyph glyph-name="gdotaccent" unicode="&#x121;" horiz-adv-x="484" 
d="M38 242q0 67 18 120.5t64 84.5t128 31q39 0 77 -6t67 -18q19 -6 24 -16.5t7 -32.5q9 -76 10 -173.5t-11 -199.5q-11 -86 -62.5 -126t-141.5 -40q-36 0 -78 10t-77 36q-5 4 -7 9t1 10q3 6 9.5 17t10.5 17q4 8 8 8.5t10 -3.5q14 -9 34.5 -17.5t43 -14t41.5 -5.5q25 0 49 8
t42.5 27.5t23.5 53.5q0 2 0.5 3.5t0.5 2.5q1 7 -3 9.5t-13 0.5q-16 -4 -37.5 -7.5t-43.5 -3.5q-59 0 -103.5 25t-68.5 73t-23 117zM130 254q0 -46 10 -82t35 -56.5t68 -20.5q20 0 39 2.5t35 8.5q20 8 22 25q2 25 2 59.5t-0.5 70t-2 66t-3.5 49.5q0 6 -3 15t-12 13
q-11 6 -31 9t-44 3q-43 0 -68 -20.5t-36 -57t-11 -84.5zM292 578q0 -20 -8 -30t-33 -10q-24 0 -33 10t-9 30q0 18 9 28.5t33 10.5q26 0 33.5 -10.5t7.5 -28.5z" />
    <glyph glyph-name="uni0122" unicode="&#x122;" horiz-adv-x="564" 
d="M504 26q0 -13 -15.5 -20t-40 -9.5t-51.5 -2.5q-176 0 -267.5 84t-91.5 247q0 110 41.5 189t113.5 121.5t162 42.5q33 0 68.5 -2.5t57.5 -9.5q11 -4 15 -6.5t4 -11.5v-51q0 -13 -5.5 -16t-12.5 1q-25 14 -52 19t-59 5t-73 -12.5t-78 -43t-61 -83.5t-24 -135
q0 -85 23.5 -137.5t60.5 -80.5t77.5 -38.5t75.5 -10.5t41 12v219q0 6 -2 7.5t-7 1.5h-136q-6 0 -8 2t-2 8v51q0 6 2 8.5t8 2.5h221q11 0 13 -2.5t2 -13.5v-335zM339 -73q0 -16 -7.5 -37t-17 -41t-19.5 -34q-3 -5 -7 -5h-16.5h-17.5q-4 1 -4 2.5t3 8.5q6 12 14 34t14 37
q-17 1 -23.5 12t-6.5 22q0 17 9.5 27.5t33.5 10.5q20 0 32.5 -7.5t12.5 -29.5z" />
    <glyph glyph-name="uni0123" unicode="&#x123;" horiz-adv-x="484" 
d="M38 242q0 67 18 120.5t64 84.5t128 31q39 0 77 -6t67 -18q19 -6 24 -16.5t7 -32.5q9 -76 10 -173.5t-11 -199.5q-11 -86 -62.5 -126t-141.5 -40q-36 0 -78 10t-77 36q-5 4 -7 9t1 10q3 6 9.5 17t10.5 17q4 8 8 8.5t10 -3.5q14 -9 34.5 -17.5t43 -14t41.5 -5.5q25 0 49 8
t42.5 27.5t23.5 53.5q0 2 0.5 3.5t0.5 2.5q1 7 -3 9.5t-13 0.5q-16 -4 -37.5 -7.5t-43.5 -3.5q-59 0 -103.5 25t-68.5 73t-23 117zM130 254q0 -46 10 -82t35 -56.5t68 -20.5q20 0 39 2.5t35 8.5q20 8 22 25q2 25 2 59.5t-0.5 70t-2 66t-3.5 49.5q0 6 -3 15t-12 13
q-11 6 -31 9t-44 3q-43 0 -68 -20.5t-36 -57t-11 -84.5zM205 592q-1 19 5.5 44t16.5 48.5t18 39.5q3 5 8 6q8 0 17.5 0.5t17.5 0.5q4 -1 4 -3.5t-3 -8.5q-3 -8 -8 -24.5t-9.5 -33.5t-7.5 -29q18 0 25.5 -11t7.5 -25q1 -19 -8.5 -30t-35.5 -13q-21 -1 -34 7t-14 32z" />
    <glyph glyph-name="Hbar" unicode="&#x126;" horiz-adv-x="660" 
d="M41 537q-8 0 -9.5 1.5t-1.5 4.5v34q0 3 2 4.5t10 1.5h577q7 0 9 -1t2 -5v-35q0 -3 -2 -4t-9 -1h-578zM135 0q-4 0 -8 1.5t-5 7.5q-4 34 -7 87.5t-5 116.5t-3 129q0 64 2 125t6 112t9 85q1 4 5 6.5t7 2.5h36.5h36.5q6 0 6 -9q-5 -52 -8 -105t-4.5 -98t-2.5 -74
q0 -8 1.5 -10t8.5 -2h132h132q5 0 8 2t3 10q-1 27 -3 72t-5 99t-8 106q1 9 7 9h35.5h36.5q3 0 7.5 -2.5t4.5 -6.5q6 -34 10 -85.5t6 -113t1 -124.5q0 -66 -2 -129t-5.5 -116t-7.5 -87q0 -6 -4 -7.5t-9 -1.5h-37h-36q-5 0 -5 9q5 36 8 76t4.5 79t2 73t0.5 56q0 7 -2.5 8.5
t-8.5 1.5h-133h-133q-6 0 -8 -1.5t-2 -8.5q0 -24 0.5 -58t2 -72.5t4 -78t7.5 -75.5q1 -9 -5 -9h-36h-37z" />
    <glyph glyph-name="hbar" unicode="&#x127;" horiz-adv-x="507" 
d="M96 9v345v345q0 9 10 9h35h35q9 0 9 -9v-113.5v-114.5q0 -7 3.5 -9t8.5 0q18 5 43.5 10t50.5 5q40 0 72 -11.5t54 -39t34.5 -73.5t13.5 -114q1 -40 -1 -82t-5.5 -80.5t-7.5 -68.5q0 -5 -3.5 -6.5t-10.5 -1.5h-30.5h-30.5q-11 0 -12.5 2.5t0.5 14.5q5 44 7.5 94.5
t3.5 98.5q0 55 -6.5 92.5t-20 61t-32.5 34.5t-44 11q-16 0 -35 -3.5t-36 -8.5q-7 -1 -11.5 -6t-4.5 -17v-365q0 -9 -9 -9h-70q-10 0 -10 9zM31 590q-6 0 -7.5 2t-1.5 7v48q0 6 1.5 7.5t7.5 1.5h272q6 0 7.5 -1.5t1.5 -7.5v-50q0 -4 -1.5 -5.5t-7.5 -1.5h-272z" />
    <glyph glyph-name="Itilde" unicode="&#x128;" horiz-adv-x="242" 
d="M166 9q0 -9 -9 -9h-72q-10 0 -10 9v655q0 9 10 9h72q9 0 9 -9v-655zM26 719q-5 0 -5 6q0 33 16.5 54t44.5 21q15 0 30 -9.5t27.5 -19t20.5 -9.5q6 0 10.5 6.5t4.5 17.5q0 7 4 7h37q6 0 6 -7q0 -29 -17 -51t-44 -22q-18 0 -32.5 9.5t-25.5 18.5t-20 9q-7 0 -11.5 -7
t-4.5 -18q0 -6 -5 -6h-36z" />
    <glyph glyph-name="itilde" unicode="&#x129;" horiz-adv-x="209" 
d="M149 9q0 -9 -9 -9h-71q-9 0 -9 9v454q0 9 9 9h71q9 0 9 -9v-454zM6 532q-5 0 -5 6q0 32 16.5 51t46.5 19q15 0 30 -8.5t28.5 -17t21.5 -8.5q6 0 10.5 6t4.5 15q0 7 5 7h38q6 0 6 -6q0 -29 -17.5 -49.5t-45.5 -20.5q-19 0 -34 9t-26.5 17t-19.5 8t-12.5 -6t-4.5 -16
q0 -6 -5 -6h-37z" />
    <glyph glyph-name="Imacron" unicode="&#x12a;" horiz-adv-x="242" 
d="M166 9q0 -9 -9 -9h-72q-10 0 -10 9v655q0 9 10 9h72q9 0 9 -9v-655zM231 743q0 -2 -1.5 -3t-6.5 -1h-205q-5 0 -6 1.5t-1 4.5v44q0 5 1.5 6t5.5 1h205q5 0 6.5 -1t1.5 -5v-47z" />
    <glyph glyph-name="imacron" unicode="&#x12b;" horiz-adv-x="209" 
d="M149 9q0 -9 -9 -9h-71q-9 0 -9 9v454q0 9 9 9h71q9 0 9 -9v-454zM215 543q0 -2 -1.5 -3t-6.5 -1h-205q-5 0 -6 1.5t-1 4.5v44q0 5 1.5 6t5.5 1h205q5 0 6.5 -1t1.5 -5v-47z" />
    <glyph glyph-name="Iogonek" unicode="&#x12e;" horiz-adv-x="242" 
d="M166 9q0 -9 -9 -9h-72q-10 0 -10 9v655q0 9 10 9h72q9 0 9 -9v-655zM74 -226q-39 0 -67 23t-28 58q0 32 15 58.5t38.5 48t49.5 36.5q7 4 15.5 7t17.5 3h46q4 0 5 -3.5t-5 -7.5q-37 -24 -63 -47t-39.5 -44.5t-13.5 -42.5q0 -20 11.5 -28.5t27.5 -7.5q18 0 37.5 10t33.5 21
q4 4 8 3.5t4 -5.5v-32q0 -12 -13 -22q-16 -12 -35 -20t-45 -8z" />
    <glyph glyph-name="iogonek" unicode="&#x12f;" horiz-adv-x="209" 
d="M149 9q0 -9 -9 -9h-71q-9 0 -9 9v454q0 9 9 9h71q9 0 9 -9v-454zM146 575q0 -20 -8 -30t-33 -10q-24 0 -33 10t-9 30q0 18 9 28.5t33 10.5q26 0 33.5 -10.5t7.5 -28.5zM54 -226q-39 0 -67 23t-28 58q0 32 15 58.5t38.5 48t49.5 36.5q7 4 15.5 7t17.5 3h46q4 0 5 -3.5
t-5 -7.5q-37 -24 -63 -47t-39.5 -44.5t-13.5 -42.5q0 -20 11.5 -28.5t27.5 -7.5q18 0 37.5 10t33.5 21q4 4 8 3.5t4 -5.5v-32q0 -12 -13 -22q-16 -12 -35 -20t-45 -8z" />
    <glyph glyph-name="Idotaccent" unicode="&#x130;" horiz-adv-x="242" 
d="M166 9q0 -9 -9 -9h-72q-10 0 -10 9v655q0 9 10 9h72q9 0 9 -9v-655zM163 775q0 -20 -8 -30t-33 -10q-24 0 -33 10t-9 30q0 18 9 28.5t33 10.5q26 0 33.5 -10.5t7.5 -28.5z" />
    <glyph glyph-name="dotlessi" unicode="&#x131;" horiz-adv-x="209" 
d="M149 9q0 -9 -9 -9h-71q-9 0 -9 9v454q0 9 9 9h71q9 0 9 -9v-454z" />
    <glyph glyph-name="uni0136" unicode="&#x136;" horiz-adv-x="538" 
d="M79 0q-4 0 -4 4v333v332q0 4 4 4h15h27h27h15q4 0 4 -4v-71.5v-65v-65.5v-72q0 -3 0.5 -5.5t4.5 -2.5h57q5 0 8 3t6 7q20 38 36.5 71t33 63t33.5 62.5t37 70.5q3 5 5.5 7t6.5 2h15h26h25.5h14.5q7 0 7 -4.5t-6 -16.5q-28 -50 -53.5 -97t-50 -95t-49.5 -101q-4 -9 -5 -15
t-1 -12q1 -25 10 -53.5t23.5 -57.5t32 -54.5t36.5 -42.5q21 -19 46 -30.5t56 -11.5q2 0 5 -1t3 -3v-73q0 -5 -3 -5q-53 0 -91.5 11.5t-72.5 38.5q-21 17 -40 42.5t-35.5 55.5t-29 61t-18.5 60q-2 8 -6 10.5t-6 2.5h-28h-28l-2.5 -1t-2.5 -6v-71.5v-64v-64v-71.5q0 -4 -4 -4
h-15h-27h-27h-15zM327 -73q0 -16 -7.5 -37t-17 -41t-19.5 -34q-3 -5 -7 -5h-16.5h-17.5q-4 1 -4 2.5t3 8.5q6 12 14 34t14 37q-17 1 -23.5 12t-6.5 22q0 17 9.5 27.5t33.5 10.5q20 0 32.5 -7.5t12.5 -29.5z" />
    <glyph glyph-name="uni0137" unicode="&#x137;" horiz-adv-x="438" 
d="M60 4v685q0 4 4 4h81q4 0 4 -4v-387q0 -2 1 -5.5t3 -3.5q12 0 22.5 1t20.5 2q9 3 13.5 6t10.5 12q18 23 32.5 47t26.5 50t22 51q4 8 7.5 9t11.5 1h71q7 0 7.5 -3.5t-1.5 -7.5q-1 -3 -9.5 -21.5t-23 -46.5t-33 -58.5t-39.5 -57.5q-4 -4 -7 -7.5t-6 -7.5q2 -1 5 -3t4 -4
q17 -18 35.5 -47.5t35.5 -63.5t31 -64t22.5 -50t9.5 -22q4 -8 -3 -8h-14.5h-25.5h-26h-15q-4 0 -5 0.5t-4 6.5l-7 15.5t-19 39.5t-25.5 50.5t-27 50t-24.5 37.5q-4 8 -12.5 14.5t-22 10t-38.5 -0.5q-4 -1 -4 -11v-209q0 -4 -4 -4h-81q-4 0 -4 4zM273 -73q0 -16 -7.5 -37
t-17 -41t-19.5 -34q-3 -5 -7 -5h-16.5h-17.5q-4 1 -4 2.5t3 8.5q6 12 14 34t14 37q-17 1 -23.5 12t-6.5 22q0 17 9.5 27.5t33.5 10.5q20 0 32.5 -7.5t12.5 -29.5z" />
    <glyph glyph-name="Lacute" unicode="&#x139;" horiz-adv-x="428" 
d="M85 0q-10 0 -10 9v655q0 9 10 9h70q7 0 9 -2.5t2 -8.5v-581q0 -5 1 -7t7 -2h230q9 0 10.5 -2t1.5 -11v-46q0 -9 -2 -11t-11 -2h-318zM118 718h-45q-6 0 -6 3.5t4 7.5l64 71q4 5 7 7t10 2h69q3 0 5 -3.5t-1 -5.5l-90 -74q-5 -3 -8.5 -5.5t-8.5 -2.5z" />
    <glyph glyph-name="lacute" unicode="&#x13a;" horiz-adv-x="210" 
d="M60 9v690q0 9 10 9h69q10 0 10 -9v-690q0 -9 -10 -9h-69q-10 0 -10 9zM65 754q-7 0 -7 2.5t4 8.5l58 90q4 6 16 6h60q5 0 6.5 -2.5t-3.5 -7.5l-76 -92q-3 -3 -6 -4t-8 -1h-44z" />
    <glyph glyph-name="uni013B" unicode="&#x13b;" horiz-adv-x="428" 
d="M85 0q-10 0 -10 9v655q0 9 10 9h70q7 0 9 -2.5t2 -8.5v-581q0 -5 1 -7t7 -2h230q9 0 10.5 -2t1.5 -11v-46q0 -9 -2 -11t-11 -2h-318zM271 -73q0 -16 -7.5 -37t-17 -41t-19.5 -34q-3 -5 -7 -5h-16.5h-17.5q-4 1 -4 2.5t3 8.5q6 12 14 34t14 37q-17 1 -23.5 12t-6.5 22
q0 17 9.5 27.5t33.5 10.5q20 0 32.5 -7.5t12.5 -29.5z" />
    <glyph glyph-name="uni013C" unicode="&#x13c;" horiz-adv-x="210" 
d="M60 9v690q0 9 10 9h69q10 0 10 -9v-690q0 -9 -10 -9h-69q-10 0 -10 9zM146 -73q0 -16 -7.5 -37t-17 -41t-19.5 -34q-3 -5 -7 -5h-16.5h-17.5q-4 1 -4 2.5t3 8.5q6 12 14 34t14 37q-17 1 -23.5 12t-6.5 22q0 17 9.5 27.5t33.5 10.5q20 0 32.5 -7.5t12.5 -29.5z" />
    <glyph glyph-name="Lcaron" unicode="&#x13d;" horiz-adv-x="428" 
d="M85 0q-10 0 -10 9v655q0 9 10 9h70q7 0 9 -2.5t2 -8.5v-581q0 -5 1 -7t7 -2h230q9 0 10.5 -2t1.5 -11v-46q0 -9 -2 -11t-11 -2h-318zM309 504q-4 0 -6 2.5t-3 10.5l-4 143q0 9 2 11.5t10 2.5h42q9 0 10.5 -2.5t1.5 -8.5l-5 -148q-1 -7 -3 -9t-8 -2h-37z" />
    <glyph glyph-name="lcaron" unicode="&#x13e;" horiz-adv-x="210" 
d="M60 9v690q0 9 10 9h69q10 0 10 -9v-690q0 -9 -10 -9h-69q-10 0 -10 9zM235 530q-4 0 -6 2.5t-3 10.5l-4 143q0 9 2 11.5t10 2.5h42q9 0 10.5 -2.5t1.5 -8.5l-5 -148q-1 -7 -3 -9t-8 -2h-37z" />
    <glyph glyph-name="Lslash" unicode="&#x141;" horiz-adv-x="457" 
d="M98 0q-9 0 -9 9v655q0 9 9 9h70q7 0 9.5 -2.5t2.5 -8.5v-581q0 -5 1 -7t7 -2h229q9 0 11 -2t2 -11v-46q0 -9 -2 -11t-11 -2h-319zM23 115q-2 -1 -3.5 -0.5l-1.5 0.5l-19 32q-2 2 2 4l255 157q2 1 4 -1l20 -30q2 -2 -1 -4z" />
    <glyph glyph-name="lslash" unicode="&#x142;" horiz-adv-x="297" 
d="M107 9v690q0 9 10 9h69q10 0 10 -9v-690q0 -9 -10 -9h-69q-10 0 -10 9zM40 108q-2 -1 -3.5 -0.5l-1.5 0.5l-19 32q-2 2 2 4l240 148q2 1 4 -1l19 -32q2 -2 -1 -4z" />
    <glyph glyph-name="Nacute" unicode="&#x143;" horiz-adv-x="641" 
d="M463 194q2 -4 6.5 -4t5.5 6q2 34 3 79t1 95.5t-1.5 102.5t-4.5 100.5t-9 89.5q0 10 6 10h73q4 0 8 -2.5t4 -6.5q7 -36 10.5 -88.5t4.5 -115t0.5 -128t-2.5 -127t-5.5 -112.5t-7.5 -84q0 -6 -4.5 -7.5t-9.5 -1.5h-48q-6 0 -12 11l-305 472q-1 4 -4.5 4t-4.5 -5
q-2 -48 -3 -100t-1 -104.5t1.5 -102t4 -92t6.5 -73.5q1 -10 -6 -10h-71q-5 0 -9 1.5t-5 7.5q-4 34 -7 85.5t-4.5 113.5t-2 127t1.5 127.5t5.5 114.5t9.5 87q1 4 5 6.5t7 2.5h48q6 0 10 -7zM312 718h-45q-6 0 -6 3.5t4 7.5l64 71q4 5 7 7t10 2h69q3 0 5 -3.5t-1 -5.5l-90 -74
q-5 -3 -8.5 -5.5t-8.5 -2.5z" />
    <glyph glyph-name="nacute" unicode="&#x144;" horiz-adv-x="481" 
d="M71 0q-11 0 -11 9v211.5v210.5q0 8 5.5 12.5t21.5 9.5q13 4 38.5 10t55 10.5t54.5 4.5q79 0 121 -30t58 -81.5t16 -113.5q0 -44 -1.5 -88.5t-4 -83t-5.5 -65.5q-1 -12 -4 -14t-13 -2h-56q-10 0 -13.5 2.5t-2.5 11.5q0 6 2 32.5t4 63.5t3 75.5t1 68.5q0 53 -11.5 86.5
t-35 49t-60.5 15.5q-19 0 -36 -3t-31 -8q-7 -1 -12 -6.5t-5 -19.5v-112.5v-122v-124.5q0 -9 -8 -9h-70zM205 528q-7 0 -7 2.5t4 8.5l58 90q4 6 16 6h60q5 0 6.5 -2.5t-3.5 -7.5l-76 -92q-3 -3 -6 -4t-8 -1h-44z" />
    <glyph glyph-name="uni0145" unicode="&#x145;" horiz-adv-x="641" 
d="M463 194q2 -4 6.5 -4t5.5 6q2 34 3 79t1 95.5t-1.5 102.5t-4.5 100.5t-9 89.5q0 10 6 10h73q4 0 8 -2.5t4 -6.5q7 -36 10.5 -88.5t4.5 -115t0.5 -128t-2.5 -127t-5.5 -112.5t-7.5 -84q0 -6 -4.5 -7.5t-9.5 -1.5h-48q-6 0 -12 11l-305 472q-1 4 -4.5 4t-4.5 -5
q-2 -48 -3 -100t-1 -104.5t1.5 -102t4 -92t6.5 -73.5q1 -10 -6 -10h-71q-5 0 -9 1.5t-5 7.5q-4 34 -7 85.5t-4.5 113.5t-2 127t1.5 127.5t5.5 114.5t9.5 87q1 4 5 6.5t7 2.5h48q6 0 10 -7zM361 -73q0 -16 -7.5 -37t-17 -41t-19.5 -34q-3 -5 -7 -5h-16.5h-17.5q-4 1 -4 2.5
t3 8.5q6 12 14 34t14 37q-17 1 -23.5 12t-6.5 22q0 17 9.5 27.5t33.5 10.5q20 0 32.5 -7.5t12.5 -29.5z" />
    <glyph glyph-name="uni0146" unicode="&#x146;" horiz-adv-x="481" 
d="M71 0q-11 0 -11 9v211.5v210.5q0 8 5.5 12.5t21.5 9.5q13 4 38.5 10t55 10.5t54.5 4.5q79 0 121 -30t58 -81.5t16 -113.5q0 -44 -1.5 -88.5t-4 -83t-5.5 -65.5q-1 -12 -4 -14t-13 -2h-56q-10 0 -13.5 2.5t-2.5 11.5q0 6 2 32.5t4 63.5t3 75.5t1 68.5q0 53 -11.5 86.5
t-35 49t-60.5 15.5q-19 0 -36 -3t-31 -8q-7 -1 -12 -6.5t-5 -19.5v-112.5v-122v-124.5q0 -9 -8 -9h-70zM286 -73q0 -16 -7.5 -37t-17 -41t-19.5 -34q-3 -5 -7 -5h-16.5h-17.5q-4 1 -4 2.5t3 8.5q6 12 14 34t14 37q-17 1 -23.5 12t-6.5 22q0 17 9.5 27.5t33.5 10.5
q20 0 32.5 -7.5t12.5 -29.5z" />
    <glyph glyph-name="Ncaron" unicode="&#x147;" horiz-adv-x="641" 
d="M463 194q2 -4 6.5 -4t5.5 6q2 34 3 79t1 95.5t-1.5 102.5t-4.5 100.5t-9 89.5q0 10 6 10h73q4 0 8 -2.5t4 -6.5q7 -36 10.5 -88.5t4.5 -115t0.5 -128t-2.5 -127t-5.5 -112.5t-7.5 -84q0 -6 -4.5 -7.5t-9.5 -1.5h-48q-6 0 -12 11l-305 472q-1 4 -4.5 4t-4.5 -5
q-2 -48 -3 -100t-1 -104.5t1.5 -102t4 -92t6.5 -73.5q1 -10 -6 -10h-71q-5 0 -9 1.5t-5 7.5q-4 34 -7 85.5t-4.5 113.5t-2 127t1.5 127.5t5.5 114.5t9.5 87q1 4 5 6.5t7 2.5h48q6 0 10 -7zM292 717q-4 0 -7 4l-74 81q-1 3 -0.5 5.5t4.5 2.5h39q5 0 8 -4l49 -43q5 -4 9 0
l50 43q3 4 8 4h39q4 0 5 -2.5t-1 -5.5l-74 -81q-2 -4 -7 -4h-48z" />
    <glyph glyph-name="ncaron" unicode="&#x148;" horiz-adv-x="481" 
d="M71 0q-11 0 -11 9v211.5v210.5q0 8 5.5 12.5t21.5 9.5q13 4 38.5 10t55 10.5t54.5 4.5q79 0 121 -30t58 -81.5t16 -113.5q0 -44 -1.5 -88.5t-4 -83t-5.5 -65.5q-1 -12 -4 -14t-13 -2h-56q-10 0 -13.5 2.5t-2.5 11.5q0 6 2 32.5t4 63.5t3 75.5t1 68.5q0 53 -11.5 86.5
t-35 49t-60.5 15.5q-19 0 -36 -3t-31 -8q-7 -1 -12 -6.5t-5 -19.5v-112.5v-122v-124.5q0 -9 -8 -9h-70zM223 528q-5 0 -7 3l-70 93q-2 3 -1 5.5t4 2.5h42q5 0 7 -4l43 -46q4 -4 8 0l44 46q3 4 7 4h42q4 0 4.5 -2.5t-1.5 -5.5l-69 -93q-2 -3 -7 -3h-46z" />
    <glyph glyph-name="Eng" unicode="&#x14a;" horiz-adv-x="591" 
d="M530 664q7 -44 11 -107.5t4.5 -140.5t-1 -159t-5.5 -163t-10 -153q-5 -62 -21 -102.5t-48 -60.5t-86 -20q-23 0 -45.5 4t-38.5 12q-10 6 -16 11t-1 13l18 31q4 5 7.5 5t8.5 -3q11 -7 25 -9t25 -1q36 1 56.5 28t23.5 72l9 106l-295 456q-1 4 -4.5 4t-4.5 -5
q-2 -48 -3 -100t-1 -104.5t1.5 -102t4 -92t6.5 -73.5q1 -10 -6 -10h-71q-5 0 -9 1.5t-5 7.5q-4 34 -7 85.5t-4.5 113.5t-2 127t1.5 127.5t5.5 114.5t9.5 87q1 4 5 6.5t7 2.5h48q6 0 10 -7l306 -472q2 -4 6.5 -4t5.5 6q2 34 3 79t1 95.5t-1.5 102.5t-4.5 100.5t-9 89.5
q0 10 6 10h73q4 0 8 -2.5t4 -6.5z" />
    <glyph glyph-name="eng" unicode="&#x14b;" horiz-adv-x="491" 
d="M71 0q-3 0 -7 1.5t-4 7.5v210v210q0 8 5.5 12.5t21.5 9.5q13 4 38.5 9.5t55 10.5t54.5 5q79 0 121 -30t58 -81t16 -113q0 -65 -3 -123t-9 -112q-1 -12 -3.5 -14.5t-12.5 -2.5h-28h-28q-10 0 -13 2t-3 12q0 4 1 24.5t3 49.5t3 60t2 59t1 46q1 43 -6.5 71.5t-22.5 45
t-37 24.5q-17 9 -37.5 10t-40.5 -3t-35 -10q-5 -3 -8.5 -12t-3.5 -27v-161.5v-178.5q0 -4 -1 -8t-6 -4h-35.5h-35.5zM423 79l-6 -88q-5 -77 -37.5 -120t-113.5 -43q-23 0 -45.5 3.5t-39.5 12.5q-9 5 -15 10t-1 14l19 31q3 5 6.5 5t8.5 -3q12 -6 25 -8.5t25 -1.5
q39 1 58 26.5t22 73.5l6 88h88z" />
    <glyph glyph-name="Omacron" unicode="&#x14c;" horiz-adv-x="631" 
d="M48 334q0 111 23 187.5t80.5 115.5t162.5 39q82 0 134.5 -22.5t82 -65.5t41 -107t11.5 -147t-11.5 -146.5t-41 -107t-82 -65.5t-134.5 -22q-105 0 -162.5 39t-80.5 115t-23 187zM143 334q0 -104 18 -161.5t55.5 -80t96.5 -22.5t98 22t58 79.5t19 162.5t-19 163t-58 81
t-98 23t-96.5 -23t-55.5 -81t-18 -163zM426 743q0 -2 -1.5 -3t-6.5 -1h-205q-5 0 -6 1.5t-1 4.5v44q0 5 1.5 6t5.5 1h205q5 0 6.5 -1t1.5 -5v-47z" />
    <glyph glyph-name="omacron" unicode="&#x14d;" horiz-adv-x="496" 
d="M248 -6q-83 0 -129 31t-63.5 86.5t-17.5 125.5t19.5 124.5t65.5 85.5t125 31t125 -31t65.5 -85.5t19.5 -124.5t-17.5 -125t-63 -86.5t-129.5 -31.5zM247 63q67 0 93.5 45.5t26.5 127.5q0 81 -29 125t-91 44q-61 0 -90.5 -44t-29.5 -125q0 -83 27 -128t93 -45zM359 543
q0 -2 -1.5 -3t-6.5 -1h-205q-5 0 -6 1.5t-1 4.5v44q0 5 1.5 6t5.5 1h205q5 0 6.5 -1t1.5 -5v-47z" />
    <glyph glyph-name="Ohungarumlaut" unicode="&#x150;" horiz-adv-x="631" 
d="M48 334q0 111 23 187.5t80.5 115.5t162.5 39q82 0 134.5 -22.5t82 -65.5t41 -107t11.5 -147t-11.5 -146.5t-41 -107t-82 -65.5t-134.5 -22q-105 0 -162.5 39t-80.5 115t-23 187zM143 334q0 -104 18 -161.5t55.5 -80t96.5 -22.5t98 22t58 79.5t19 162.5t-19 163t-58 81
t-98 23t-96.5 -23t-55.5 -81t-18 -163zM289 720q-2 -2 -4.5 -3.5t-10.5 -1.5h-31q-11 0 -6 10l57 93q4 6 16 6h52q5 0 6.5 -3t-1.5 -7zM385 720q-2 -2 -4.5 -3.5t-9.5 -1.5h-32q-5 0 -6 3t1 7l65 93q2 4 5.5 5t9.5 1h52q4 0 6 -3t-2 -7z" />
    <glyph glyph-name="ohungarumlaut" unicode="&#x151;" horiz-adv-x="496" 
d="M248 -6q-83 0 -129 31t-63.5 86.5t-17.5 125.5t19.5 124.5t65.5 85.5t125 31t125 -31t65.5 -85.5t19.5 -124.5t-17.5 -125t-63 -86.5t-129.5 -31.5zM247 63q67 0 93.5 45.5t26.5 127.5q0 81 -29 125t-91 44q-61 0 -90.5 -44t-29.5 -125q0 -83 27 -128t93 -45zM227 533
q-1 -2 -4 -3.5t-10 -1.5h-30q-9 0 -5 10l36 107q1 6 15 6h51q4 0 5.5 -3t-1.5 -7zM324 533q-1 -2 -4 -3.5t-10 -1.5h-30q-9 0 -5 10l43 107q2 6 15 6h51q4 0 5.5 -3t-1.5 -7z" />
    <glyph glyph-name="OE" unicode="&#x152;" horiz-adv-x="852" 
d="M314 -7q-104 0 -162 39t-81 115t-23 187t23 187.5t81 115.5t162 39q55 0 95.5 -11t69.5 -33v15.5v16.5t8 9h161h161q8 0 9.5 -1.5t1.5 -8.5v-26v-25q0 -8 -1.5 -9.5t-9.5 -1.5h-116h-115q-6 0 -7 -1.5t-1 -6.5v-105.5v-104.5q0 -5 1.5 -6.5t5.5 -1.5h94h93q8 0 9.5 -2
t1.5 -11v-23.5v-22.5q0 -8 -1.5 -10.5t-9.5 -2.5h-93h-94q-5 0 -6 -1t-1 -6v-107v-108q0 -5 1 -7t6 -2h115.5h115.5q9 0 10.5 -2t1.5 -11v-23v-23q0 -9 -2 -11t-11 -2h-160h-160q-8 0 -8 6v15.5v14.5q-29 -21 -69.5 -32t-95.5 -11zM313 70q44 0 76 13.5t52.5 48t29.5 95.5
v222q-9 59 -30 92t-53 46.5t-75 13.5q-59 0 -96.5 -23t-55.5 -81t-18 -163q0 -104 18 -161.5t55.5 -80t96.5 -22.5z" />
    <glyph glyph-name="oe" unicode="&#x153;" horiz-adv-x="793" 
d="M248 -6q-83 0 -129 31t-63.5 86.5t-17.5 125.5t19.5 124.5t65.5 85.5t125 31q72 0 114.5 -31.5t60.5 -86t18 -123.5q0 -50 -9 -94.5t-30.5 -78t-59 -52t-94.5 -18.5zM247 63q47 0 73 20.5t36.5 59t10.5 93.5q0 81 -27.5 125t-92.5 44q-61 0 -90.5 -44t-29.5 -125
q0 -83 27 -128t93 -45zM381 237q0 47 8.5 90t29.5 77.5t57.5 54t92.5 19.5q63 0 100.5 -18t56.5 -48t25.5 -66t6.5 -72q0 -39 -8.5 -49.5t-24.5 -10.5h-259q-4 0 -7 -2t-3 -11q3 -60 34 -99.5t98 -39.5q35 0 71.5 9t57.5 22q8 5 13.5 6.5t11.5 -9.5l16 -31q4 -7 2 -10.5
t-10 -7.5q-33 -25 -81.5 -35t-98.5 -10q-77 0 -118 32.5t-56 87t-15 121.5zM668 288q0 34 -8.5 61t-30.5 43.5t-62 16.5q-30 0 -51 -11.5t-33.5 -29.5t-19 -39.5t-8.5 -41.5q0 -11 1 -15t8 -4h94.5h94.5q9 0 12 3.5t3 16.5z" />
    <glyph glyph-name="Racute" unicode="&#x154;" horiz-adv-x="537" 
d="M85 0q-10 0 -10 9v655q0 9 10 9h152q76 0 123 -18.5t69 -61.5t22 -118q0 -61 -23.5 -110t-72.5 -73q-12 -9 -16.5 -17.5t2.5 -21.5q8 -26 20.5 -53.5t29 -50.5t36.5 -38q18 -13 39.5 -21t47.5 -8q7 0 9.5 -2t2.5 -9v-62q0 -4 -1.5 -6t-7.5 -2.5t-20 -0.5q-40 0 -73 12.5
t-60 33.5q-26 21 -48.5 52t-39.5 68t-27 74q-1 4 -4.5 10.5t-11.5 6.5h-59q-7 0 -7 -12v-236q0 -9 -10 -9h-72zM167 339q0 -5 2 -6.5t6 -1.5h66q58 0 89 35.5t31 108.5q0 55 -14 83t-42 38.5t-72 10.5h-59q-4 0 -5.5 -1.5t-1.5 -7.5v-259zM233 719h-45q-6 0 -6 3.5t4 7.5
l64 71q4 5 7 7t10 2h69q3 0 5 -3.5t-1 -5.5l-90 -74q-5 -3 -8.5 -5.5t-8.5 -2.5z" />
    <glyph glyph-name="racute" unicode="&#x155;" horiz-adv-x="330" 
d="M210 477q65 0 110 -18q6 -3 8.5 -6t0.5 -8l-12 -46q-2 -6 -4.5 -7t-8.5 1q-18 6 -39 8.5t-37 2.5t-31 -2.5t-26.5 -5.5t-16.5 -6t-10 -7t-5 -18v-351q0 -9 -3 -11.5t-9 -2.5h-68q-3 0 -6 2t-3 10v406q0 15 4 20t13 9q29 14 69.5 22t73.5 8zM137 528q-7 0 -7 2.5t4 8.5
l58 90q4 6 16 6h60q5 0 6.5 -2.5t-3.5 -7.5l-76 -92q-3 -3 -6 -4t-8 -1h-44z" />
    <glyph glyph-name="uni0156" unicode="&#x156;" horiz-adv-x="537" 
d="M85 0q-10 0 -10 9v655q0 9 10 9h152q76 0 123 -18.5t69 -61.5t22 -118q0 -61 -23.5 -110t-72.5 -73q-12 -9 -16.5 -17.5t2.5 -21.5q8 -26 20.5 -53.5t29 -50.5t36.5 -38q18 -13 39.5 -21t47.5 -8q7 0 9.5 -2t2.5 -9v-62q0 -4 -1.5 -6t-7.5 -2.5t-20 -0.5q-40 0 -73 12.5
t-60 33.5q-26 21 -48.5 52t-39.5 68t-27 74q-1 4 -4.5 10.5t-11.5 6.5h-59q-7 0 -7 -12v-236q0 -9 -10 -9h-72zM167 339q0 -5 2 -6.5t6 -1.5h66q58 0 89 35.5t31 108.5q0 55 -14 83t-42 38.5t-72 10.5h-59q-4 0 -5.5 -1.5t-1.5 -7.5v-259zM311 -73q0 -16 -7.5 -37t-17 -41
t-19.5 -34q-3 -5 -7 -5h-16.5h-17.5q-4 1 -4 2.5t3 8.5q6 12 14 34t14 37q-17 1 -23.5 12t-6.5 22q0 17 9.5 27.5t33.5 10.5q20 0 32.5 -7.5t12.5 -29.5z" />
    <glyph glyph-name="uni0157" unicode="&#x157;" horiz-adv-x="330" 
d="M210 477q65 0 110 -18q6 -3 8.5 -6t0.5 -8l-12 -46q-2 -6 -4.5 -7t-8.5 1q-18 6 -39 8.5t-37 2.5t-31 -2.5t-26.5 -5.5t-16.5 -6t-10 -7t-5 -18v-351q0 -9 -3 -11.5t-9 -2.5h-68q-3 0 -6 2t-3 10v406q0 15 4 20t13 9q29 14 69.5 22t73.5 8zM134 -73q0 -16 -7.5 -37
t-17 -41t-19.5 -34q-3 -5 -7 -5h-16.5h-17.5q-4 1 -4 2.5t3 8.5q6 12 14 34t14 37q-17 1 -23.5 12t-6.5 22q0 17 9.5 27.5t33.5 10.5q20 0 32.5 -7.5t12.5 -29.5z" />
    <glyph glyph-name="Rcaron" unicode="&#x158;" horiz-adv-x="537" 
d="M85 0q-10 0 -10 9v655q0 9 10 9h152q76 0 123 -18.5t69 -61.5t22 -118q0 -61 -23.5 -110t-72.5 -73q-12 -9 -16.5 -17.5t2.5 -21.5q8 -26 20.5 -53.5t29 -50.5t36.5 -38q18 -13 39.5 -21t47.5 -8q7 0 9.5 -2t2.5 -9v-62q0 -4 -1.5 -6t-7.5 -2.5t-20 -0.5q-40 0 -73 12.5
t-60 33.5q-26 21 -48.5 52t-39.5 68t-27 74q-1 4 -4.5 10.5t-11.5 6.5h-59q-7 0 -7 -12v-236q0 -9 -10 -9h-72zM167 339q0 -5 2 -6.5t6 -1.5h66q58 0 89 35.5t31 108.5q0 55 -14 83t-42 38.5t-72 10.5h-59q-4 0 -5.5 -1.5t-1.5 -7.5v-259zM213 718q-4 0 -7 4l-74 81
q-1 3 -0.5 5.5t4.5 2.5h39q5 0 8 -4l49 -43q5 -4 9 0l50 43q3 4 8 4h39q4 0 5 -2.5t-1 -5.5l-74 -81q-2 -4 -7 -4h-48z" />
    <glyph glyph-name="rcaron" unicode="&#x159;" horiz-adv-x="330" 
d="M210 477q65 0 110 -18q6 -3 8.5 -6t0.5 -8l-12 -46q-2 -6 -4.5 -7t-8.5 1q-18 6 -39 8.5t-37 2.5t-31 -2.5t-26.5 -5.5t-16.5 -6t-10 -7t-5 -18v-351q0 -9 -3 -11.5t-9 -2.5h-68q-3 0 -6 2t-3 10v406q0 15 4 20t13 9q29 14 69.5 22t73.5 8zM155 528q-5 0 -7 3l-70 93
q-2 3 -1 5.5t4 2.5h42q5 0 7 -4l43 -46q4 -4 8 0l44 46q3 4 7 4h42q4 0 4.5 -2.5t-1.5 -5.5l-69 -93q-2 -3 -7 -3h-46z" />
    <glyph glyph-name="Sacute" unicode="&#x15a;" horiz-adv-x="468" 
d="M55 30v59q0 6 4 5.5t11 -3.5q20 -6 44.5 -12t49 -9.5t41.5 -3.5q65 0 97.5 35.5t32.5 89.5q0 50 -29 78t-89 44q-28 7 -59 17.5t-58 29.5t-44.5 52t-17.5 86q0 64 29 103.5t76.5 57.5t102.5 18q23 0 48.5 -3.5t49 -10t41.5 -14.5q7 -1 8.5 -4t1.5 -8v-53q0 -18 -22 -6
q-23 12 -53.5 20.5t-67.5 8.5q-55 0 -88.5 -27.5t-33.5 -74.5q0 -34 15 -55.5t39 -33.5t51.5 -20t53.5 -16q46 -14 77 -34.5t47.5 -55.5t16.5 -92q0 -68 -27.5 -113.5t-78 -69.5t-118.5 -24q-29 0 -67 7t-70 17q-8 2 -11 5.5t-3 9.5zM226 718h-45q-6 0 -6 3.5t4 7.5l64 71
q4 5 7 7t10 2h69q3 0 5 -3.5t-1 -5.5l-90 -74q-5 -3 -8.5 -5.5t-8.5 -2.5z" />
    <glyph glyph-name="sacute" unicode="&#x15b;" horiz-adv-x="399" 
d="M41 93q1 7 5.5 6t9.5 -4q16 -9 40 -16t48.5 -11t42.5 -4q26 0 48 7.5t36 24.5t14 43q0 32 -25 46.5t-83 22.5q-37 6 -69.5 19t-52.5 39t-20 69q0 47 24.5 78.5t64 47.5t84.5 16q36 0 78.5 -10t67.5 -27q6 -4 6.5 -6.5t-1.5 -7.5l-16 -47q-3 -10 -14 -4q-20 13 -54 23.5
t-67 10.5q-38 0 -62.5 -19t-24.5 -47q0 -31 25.5 -44t72.5 -20q31 -5 57.5 -12.5t47.5 -21.5t32.5 -37t11.5 -60q0 -44 -16.5 -73t-43.5 -47t-59.5 -25.5t-64.5 -7.5q-16 0 -43.5 4t-55.5 12.5t-47 20.5q-4 3 -6 5.5t-1 6.5zM166 528q-7 0 -7 2.5t4 8.5l58 90q4 6 16 6h60
q5 0 6.5 -2.5t-3.5 -7.5l-76 -92q-3 -3 -6 -4t-8 -1h-44z" />
    <glyph glyph-name="Scedilla" unicode="&#x15e;" horiz-adv-x="468" 
d="M55 30v59q0 6 4 5.5t11 -3.5q20 -6 44.5 -12t49 -9.5t41.5 -3.5q65 0 97.5 35.5t32.5 89.5q0 50 -29 78t-89 44q-28 7 -59 17.5t-58 29.5t-44.5 52t-17.5 86q0 64 29 103.5t76.5 57.5t102.5 18q23 0 48.5 -3.5t49 -10t41.5 -14.5q7 -1 8.5 -4t1.5 -8v-53q0 -18 -22 -6
q-23 12 -53.5 20.5t-67.5 8.5q-55 0 -88.5 -27.5t-33.5 -74.5q0 -34 15 -55.5t39 -33.5t51.5 -20t53.5 -16q46 -14 77 -34.5t47.5 -55.5t16.5 -92q0 -68 -27.5 -113.5t-78 -69.5t-118.5 -24q-29 0 -67 7t-70 17q-8 2 -11 5.5t-3 9.5zM276 -73q0 -16 -7.5 -37t-17 -41
t-19.5 -34q-3 -5 -7 -5h-16.5h-17.5q-4 1 -4 2.5t3 8.5q6 12 14 34t14 37q-17 1 -23.5 12t-6.5 22q0 17 9.5 27.5t33.5 10.5q20 0 32.5 -7.5t12.5 -29.5z" />
    <glyph glyph-name="scedilla" unicode="&#x15f;" horiz-adv-x="399" 
d="M41 93q1 7 5.5 6t9.5 -4q16 -9 40 -16t48.5 -11t42.5 -4q26 0 48 7.5t36 24.5t14 43q0 32 -25 46.5t-83 22.5q-37 6 -69.5 19t-52.5 39t-20 69q0 47 24.5 78.5t64 47.5t84.5 16q36 0 78.5 -10t67.5 -27q6 -4 6.5 -6.5t-1.5 -7.5l-16 -47q-3 -10 -14 -4q-20 13 -54 23.5
t-67 10.5q-38 0 -62.5 -19t-24.5 -47q0 -31 25.5 -44t72.5 -20q31 -5 57.5 -12.5t47.5 -21.5t32.5 -37t11.5 -60q0 -44 -16.5 -73t-43.5 -47t-59.5 -25.5t-64.5 -7.5q-16 0 -43.5 4t-55.5 12.5t-47 20.5q-4 3 -6 5.5t-1 6.5zM241 -76q0 -16 -7.5 -37t-17 -41t-19.5 -34
q-3 -5 -7 -5h-16.5h-17.5q-4 1 -4 2.5t3 8.5q6 12 14 34t14 37q-17 1 -23.5 12t-6.5 22q0 17 9.5 27.5t33.5 10.5q20 0 32.5 -7.5t12.5 -29.5z" />
    <glyph glyph-name="Scaron" unicode="&#x160;" horiz-adv-x="468" 
d="M55 30v59q0 6 4 5.5t11 -3.5q20 -6 44.5 -12t49 -9.5t41.5 -3.5q65 0 97.5 35.5t32.5 89.5q0 50 -29 78t-89 44q-28 7 -59 17.5t-58 29.5t-44.5 52t-17.5 86q0 64 29 103.5t76.5 57.5t102.5 18q23 0 48.5 -3.5t49 -10t41.5 -14.5q7 -1 8.5 -4t1.5 -8v-53q0 -18 -22 -6
q-23 12 -53.5 20.5t-67.5 8.5q-55 0 -88.5 -27.5t-33.5 -74.5q0 -34 15 -55.5t39 -33.5t51.5 -20t53.5 -16q46 -14 77 -34.5t47.5 -55.5t16.5 -92q0 -68 -27.5 -113.5t-78 -69.5t-118.5 -24q-29 0 -67 7t-70 17q-8 2 -11 5.5t-3 9.5zM205 717q-4 0 -7 4l-74 81
q-1 3 -0.5 5.5t4.5 2.5h39q5 0 8 -4l49 -43q5 -4 9 0l50 43q3 4 8 4h39q4 0 5 -2.5t-1 -5.5l-74 -81q-2 -4 -7 -4h-48z" />
    <glyph glyph-name="scaron" unicode="&#x161;" horiz-adv-x="399" 
d="M41 93q1 7 5.5 6t9.5 -4q16 -9 40 -16t48.5 -11t42.5 -4q26 0 48 7.5t36 24.5t14 43q0 32 -25 46.5t-83 22.5q-37 6 -69.5 19t-52.5 39t-20 69q0 47 24.5 78.5t64 47.5t84.5 16q36 0 78.5 -10t67.5 -27q6 -4 6.5 -6.5t-1.5 -7.5l-16 -47q-3 -10 -14 -4q-20 13 -54 23.5
t-67 10.5q-38 0 -62.5 -19t-24.5 -47q0 -31 25.5 -44t72.5 -20q31 -5 57.5 -12.5t47.5 -21.5t32.5 -37t11.5 -60q0 -44 -16.5 -73t-43.5 -47t-59.5 -25.5t-64.5 -7.5q-16 0 -43.5 4t-55.5 12.5t-47 20.5q-4 3 -6 5.5t-1 6.5zM183 528q-5 0 -7 3l-70 93q-2 3 -1 5.5t4 2.5h42
q5 0 7 -4l43 -46q4 -4 8 0l44 46q3 4 7 4h42q4 0 4.5 -2.5t-1.5 -5.5l-69 -93q-2 -3 -7 -3h-46z" />
    <glyph glyph-name="uni0162" unicode="&#x162;" horiz-adv-x="442" 
d="M184 0q-4 0 -7 2.5t-3 6.5v584q0 5 -1.5 6.5t-5.5 1.5h-136q-7 0 -9 1.5t-2 7.5v55q0 5 2 6.5t8 1.5h380q8 0 10 -2t2 -7v-54q0 -6 -2 -7.5t-10 -1.5h-136q-5 0 -7 -1.5t-2 -6.5v-584q0 -9 -9 -9h-72zM262 -73q0 -16 -7.5 -37t-17 -41t-19.5 -34q-3 -5 -7 -5h-16.5h-17.5
q-4 1 -4 2.5t3 8.5q6 12 14 34t14 37q-17 1 -23.5 12t-6.5 22q0 17 9.5 27.5t33.5 10.5q20 0 32.5 -7.5t12.5 -29.5z" />
    <glyph glyph-name="uni0163" unicode="&#x163;" horiz-adv-x="336" 
d="M225 0q-64 0 -95 27t-40 76q-9 42 -9.5 88t-0.5 94q0 32 1 60t2 59q0 9 -8 9h-48q-5 0 -7 2t-2 8v39q0 6 2 8t8 2h49q6 0 7.5 3t1.5 10l5 82q0 9 8 9h69q4 0 7.5 -2.5t2.5 -6.5l-4 -82q-1 -8 0.5 -10.5t6.5 -2.5h107q7 0 8.5 -1.5t1.5 -9.5v-38q0 -5 -2.5 -7.5t-8.5 -2.5
h-106q-5 0 -7.5 -2.5t-2.5 -9.5q-1 -30 -2 -61t-2 -63q0 -39 1 -79.5t10 -77.5q6 -26 20.5 -38.5t44.5 -12.5q13 0 26.5 3.5t24.5 7.5q9 5 11.5 3.5t4.5 -8.5l13 -42q3 -6 -1.5 -10t-16.5 -9q-11 -4 -26 -7.5t-29.5 -5t-24.5 -1.5zM243 -68q0 -16 -7.5 -37t-17 -41
t-19.5 -34q-3 -5 -7 -5h-16.5h-17.5q-4 1 -4 2.5t3 8.5q6 12 14 34t14 37q-17 1 -23.5 12t-6.5 22q0 17 9.5 27.5t33.5 10.5q20 0 32.5 -7.5t12.5 -29.5z" />
    <glyph glyph-name="Tcaron" unicode="&#x164;" horiz-adv-x="442" 
d="M184 0q-4 0 -7 2.5t-3 6.5v584q0 5 -1.5 6.5t-5.5 1.5h-136q-7 0 -9 1.5t-2 7.5v55q0 5 2 6.5t8 1.5h380q8 0 10 -2t2 -7v-54q0 -6 -2 -7.5t-10 -1.5h-136q-5 0 -7 -1.5t-2 -6.5v-584q0 -9 -9 -9h-72zM197 717q-4 0 -7 4l-74 81q-1 3 -0.5 5.5t4.5 2.5h39q5 0 8 -4
l49 -43q5 -4 9 0l50 43q3 4 8 4h39q4 0 5 -2.5t-1 -5.5l-74 -81q-2 -4 -7 -4h-48z" />
    <glyph glyph-name="tcaron" unicode="&#x165;" horiz-adv-x="336" 
d="M225 0q-64 0 -95 27t-40 76q-9 42 -9.5 88t-0.5 94q0 32 1 60t2 59q0 9 -8 9h-48q-5 0 -7 2t-2 8v39q0 6 2 8t8 2h49q6 0 7.5 3t1.5 10l5 82q0 9 8 9h69q4 0 7.5 -2.5t2.5 -6.5l-4 -82q-1 -8 0.5 -10.5t6.5 -2.5h107q7 0 8.5 -1.5t1.5 -9.5v-38q0 -5 -2.5 -7.5t-8.5 -2.5
h-106q-5 0 -7.5 -2.5t-2.5 -9.5q-1 -30 -2 -61t-2 -63q0 -39 1 -79.5t10 -77.5q6 -26 20.5 -38.5t44.5 -12.5q13 0 26.5 3.5t24.5 7.5q9 5 11.5 3.5t4.5 -8.5l13 -42q3 -6 -1.5 -10t-16.5 -9q-11 -4 -26 -7.5t-29.5 -5t-24.5 -1.5zM357 404q-4 0 -6 2.5t-3 10.5l-4 143
q0 9 2 11.5t10 2.5h42q9 0 10.5 -2.5t1.5 -8.5l-5 -148q-1 -7 -3 -9t-8 -2h-37z" />
    <glyph glyph-name="Tbar" unicode="&#x166;" horiz-adv-x="462" 
d="M184 0q-4 0 -7 2.5t-3 6.5v584q0 5 -1.5 6.5t-5.5 1.5h-136q-7 0 -9 1.5t-2 7.5v55q0 5 2 6.5t8 1.5h380q8 0 10 -2t2 -7v-54q0 -6 -2 -7.5t-10 -1.5h-136q-5 0 -7 -1.5t-2 -6.5v-584q0 -9 -9 -9h-72zM92 392q-6 0 -7.5 2t-1.5 7v48q0 6 1.5 7.5t7.5 1.5h272
q6 0 7.5 -1.5t1.5 -7.5v-50q0 -4 -1.5 -5.5t-7.5 -1.5h-272z" />
    <glyph glyph-name="tbar" unicode="&#x167;" horiz-adv-x="336" 
d="M25 296q-4 0 -5.5 2t-1.5 5v37q0 5 1.5 6.5t5.5 1.5h208q4 0 5.5 -1.5t1.5 -5.5v-39q0 -3 -1.5 -4.5t-5.5 -1.5h-208zM225 0q-64 0 -95 27t-40 76q-9 42 -9.5 88t-0.5 94q0 32 1 60t2 59q0 9 -8 9h-48q-5 0 -7 2t-2 8v39q0 6 2 8t8 2h49q6 0 7.5 3t1.5 10l5 82q0 9 8 9
h69q4 0 7.5 -2.5t2.5 -6.5l-4 -82q-1 -8 0.5 -10.5t6.5 -2.5h107q7 0 8.5 -1.5t1.5 -9.5v-38q0 -5 -2.5 -7.5t-8.5 -2.5h-106q-5 0 -7.5 -2.5t-2.5 -9.5q-1 -30 -2 -61t-2 -63q0 -39 1 -79.5t10 -77.5q6 -26 20.5 -38.5t44.5 -12.5q13 0 26.5 3.5t24.5 7.5q9 5 11.5 3.5
t4.5 -8.5l13 -42q3 -6 -1.5 -10t-16.5 -9q-11 -4 -26 -7.5t-29.5 -5t-24.5 -1.5z" />
    <glyph glyph-name="Utilde" unicode="&#x168;" horiz-adv-x="634" 
d="M317 -7q-83 0 -131 19.5t-71.5 48.5t-31.5 59.5t-10 53.5q-4 41 -6 89t-2 92q1 49 3 103t6.5 107t11.5 98q0 4 3.5 7t7.5 3h34h34q6 0 7 -2t0 -14q-4 -40 -7 -83t-5 -89q-4 -79 -4.5 -154.5t6.5 -144.5q2 -23 9 -44.5t23 -38.5t45.5 -27.5t75.5 -10.5t75.5 10.5
t46.5 27.5t24 39t9 44q6 68 6 142t-4 152q-2 47 -5.5 91.5t-7.5 85.5q0 12 1 14t7 2h35.5h34.5q6 0 8.5 -3t3.5 -7q7 -45 11.5 -97.5t6.5 -106t2 -101.5q1 -45 -0.5 -93.5t-6.5 -90.5q-2 -18 -7 -41.5t-18.5 -48t-39.5 -45t-70 -33.5t-110 -13zM222 719q-5 0 -5 6
q0 33 16.5 54t44.5 21q15 0 30 -9.5t27.5 -19t20.5 -9.5q6 0 10.5 6.5t4.5 17.5q0 7 4 7h37q6 0 6 -7q0 -29 -17 -51t-44 -22q-18 0 -32.5 9.5t-25.5 18.5t-20 9q-7 0 -11.5 -7t-4.5 -18q0 -6 -5 -6h-36z" />
    <glyph glyph-name="utilde" unicode="&#x169;" horiz-adv-x="483" 
d="M249 -4q-78 0 -120.5 30t-59 81.5t-16.5 112.5q0 44 1.5 88t4.5 83l5 65q1 12 4.5 14t13.5 2h55q10 0 14 -1t2 -13q0 -6 -1.5 -31t-3.5 -61t-3 -75.5t-1 -74.5q0 -71 24.5 -109.5t81.5 -38.5q7 0 21 1t29 4t25 9t10 16v362q0 4 1 8t5 4h72q3 0 6.5 -1.5t3.5 -7.5v-414
q0 -12 -6.5 -17.5t-26.5 -12.5q-10 -3 -34 -8.5t-53 -10t-54 -4.5zM146 532q-5 0 -5 6q0 32 16.5 51t46.5 19q15 0 30 -8.5t28.5 -17t21.5 -8.5q6 0 10.5 6t4.5 15q0 7 5 7h38q6 0 6 -6q0 -29 -17.5 -49.5t-45.5 -20.5q-19 0 -34 9t-26.5 17t-19.5 8t-12.5 -6t-4.5 -16
q0 -6 -5 -6h-37z" />
    <glyph glyph-name="Umacron" unicode="&#x16a;" horiz-adv-x="634" 
d="M317 -7q-83 0 -131 19.5t-71.5 48.5t-31.5 59.5t-10 53.5q-4 41 -6 89t-2 92q1 49 3 103t6.5 107t11.5 98q0 4 3.5 7t7.5 3h34h34q6 0 7 -2t0 -14q-4 -40 -7 -83t-5 -89q-4 -79 -4.5 -154.5t6.5 -144.5q2 -23 9 -44.5t23 -38.5t45.5 -27.5t75.5 -10.5t75.5 10.5
t46.5 27.5t24 39t9 44q6 68 6 142t-4 152q-2 47 -5.5 91.5t-7.5 85.5q0 12 1 14t7 2h35.5h34.5q6 0 8.5 -3t3.5 -7q7 -45 11.5 -97.5t6.5 -106t2 -101.5q1 -45 -0.5 -93.5t-6.5 -90.5q-2 -18 -7 -41.5t-18.5 -48t-39.5 -45t-70 -33.5t-110 -13zM428 743q0 -2 -1.5 -3
t-6.5 -1h-205q-5 0 -6 1.5t-1 4.5v44q0 5 1.5 6t5.5 1h205q5 0 6.5 -1t1.5 -5v-47z" />
    <glyph glyph-name="umacron" unicode="&#x16b;" horiz-adv-x="483" 
d="M249 -4q-78 0 -120.5 30t-59 81.5t-16.5 112.5q0 44 1.5 88t4.5 83l5 65q1 12 4.5 14t13.5 2h55q10 0 14 -1t2 -13q0 -6 -1.5 -31t-3.5 -61t-3 -75.5t-1 -74.5q0 -71 24.5 -109.5t81.5 -38.5q7 0 21 1t29 4t25 9t10 16v362q0 4 1 8t5 4h72q3 0 6.5 -1.5t3.5 -7.5v-414
q0 -12 -6.5 -17.5t-26.5 -12.5q-10 -3 -34 -8.5t-53 -10t-54 -4.5zM354 543q0 -2 -1.5 -3t-6.5 -1h-205q-5 0 -6 1.5t-1 4.5v44q0 5 1.5 6t5.5 1h205q5 0 6.5 -1t1.5 -5v-47z" />
    <glyph glyph-name="Uring" unicode="&#x16e;" horiz-adv-x="634" 
d="M317 -7q-83 0 -131 19.5t-71.5 48.5t-31.5 59.5t-10 53.5q-4 41 -6 89t-2 92q1 49 3 103t6.5 107t11.5 98q0 4 3.5 7t7.5 3h34h34q6 0 7 -2t0 -14q-4 -40 -7 -83t-5 -89q-4 -79 -4.5 -154.5t6.5 -144.5q2 -23 9 -44.5t23 -38.5t45.5 -27.5t75.5 -10.5t75.5 10.5
t46.5 27.5t24 39t9 44q6 68 6 142t-4 152q-2 47 -5.5 91.5t-7.5 85.5q0 12 1 14t7 2h35.5h34.5q6 0 8.5 -3t3.5 -7q7 -45 11.5 -97.5t6.5 -106t2 -101.5q1 -45 -0.5 -93.5t-6.5 -90.5q-2 -18 -7 -41.5t-18.5 -48t-39.5 -45t-70 -33.5t-110 -13zM404 792q0 -37 -20.5 -59
t-66.5 -22q-48 0 -67.5 22t-19.5 59t19.5 59t67.5 22q47 0 67 -22t20 -59zM361 795q0 14 -8 24t-35 10q-29 0 -36.5 -10t-7.5 -24t7.5 -27t37.5 -13q29 0 35.5 13.5t6.5 26.5z" />
    <glyph glyph-name="uring" unicode="&#x16f;" horiz-adv-x="483" 
d="M249 -4q-78 0 -120.5 30t-59 81.5t-16.5 112.5q0 44 1.5 88t4.5 83l5 65q1 12 4.5 14t13.5 2h55q10 0 14 -1t2 -13q0 -6 -1.5 -31t-3.5 -61t-3 -75.5t-1 -74.5q0 -71 24.5 -109.5t81.5 -38.5q7 0 21 1t29 4t25 9t10 16v362q0 4 1 8t5 4h72q3 0 6.5 -1.5t3.5 -7.5v-414
q0 -12 -6.5 -17.5t-26.5 -12.5q-10 -3 -34 -8.5t-53 -10t-54 -4.5zM331 592q0 -37 -20.5 -59t-66.5 -22q-48 0 -67.5 22t-19.5 59t19.5 59t67.5 22q47 0 67 -22t20 -59zM288 595q0 14 -8 24t-35 10q-29 0 -36.5 -10t-7.5 -24t7.5 -27t37.5 -13q29 0 35.5 13.5t6.5 26.5z" />
    <glyph glyph-name="Uhungarumlaut" unicode="&#x170;" horiz-adv-x="634" 
d="M317 -7q-83 0 -131 19.5t-71.5 48.5t-31.5 59.5t-10 53.5q-4 41 -6 89t-2 92q1 49 3 103t6.5 107t11.5 98q0 4 3.5 7t7.5 3h34h34q6 0 7 -2t0 -14q-4 -40 -7 -83t-5 -89q-4 -79 -4.5 -154.5t6.5 -144.5q2 -23 9 -44.5t23 -38.5t45.5 -27.5t75.5 -10.5t75.5 10.5
t46.5 27.5t24 39t9 44q6 68 6 142t-4 152q-2 47 -5.5 91.5t-7.5 85.5q0 12 1 14t7 2h35.5h34.5q6 0 8.5 -3t3.5 -7q7 -45 11.5 -97.5t6.5 -106t2 -101.5q1 -45 -0.5 -93.5t-6.5 -90.5q-2 -18 -7 -41.5t-18.5 -48t-39.5 -45t-70 -33.5t-110 -13zM291 720q-2 -2 -4.5 -3.5
t-10.5 -1.5h-31q-11 0 -6 10l57 93q4 6 16 6h52q5 0 6.5 -3t-1.5 -7zM387 720q-2 -2 -4.5 -3.5t-9.5 -1.5h-32q-5 0 -6 3t1 7l65 93q2 4 5.5 5t9.5 1h52q4 0 6 -3t-2 -7z" />
    <glyph glyph-name="uhungarumlaut" unicode="&#x171;" horiz-adv-x="483" 
d="M249 -4q-78 0 -120.5 30t-59 81.5t-16.5 112.5q0 44 1.5 88t4.5 83l5 65q1 12 4.5 14t13.5 2h55q10 0 14 -1t2 -13q0 -6 -1.5 -31t-3.5 -61t-3 -75.5t-1 -74.5q0 -71 24.5 -109.5t81.5 -38.5q7 0 21 1t29 4t25 9t10 16v362q0 4 1 8t5 4h72q3 0 6.5 -1.5t3.5 -7.5v-414
q0 -12 -6.5 -17.5t-26.5 -12.5q-10 -3 -34 -8.5t-53 -10t-54 -4.5zM223 533q-1 -2 -4 -3.5t-10 -1.5h-30q-9 0 -5 10l36 107q1 6 15 6h51q4 0 5.5 -3t-1.5 -7zM320 533q-1 -2 -4 -3.5t-10 -1.5h-30q-9 0 -5 10l43 107q2 6 15 6h51q4 0 5.5 -3t-1.5 -7z" />
    <glyph glyph-name="Uogonek" unicode="&#x172;" horiz-adv-x="634" 
d="M317 -7q-83 0 -131 19.5t-71.5 48.5t-31.5 59.5t-10 53.5q-4 41 -6 89t-2 92q1 49 3 103t6.5 107t11.5 98q0 4 3.5 7t7.5 3h34h34q6 0 7 -2t0 -14q-4 -40 -7 -83t-5 -89q-4 -79 -4.5 -154.5t6.5 -144.5q2 -23 9 -44.5t23 -38.5t45.5 -27.5t75.5 -10.5t75.5 10.5
t46.5 27.5t24 39t9 44q6 68 6 142t-4 152q-2 47 -5.5 91.5t-7.5 85.5q0 12 1 14t7 2h35.5h34.5q6 0 8.5 -3t3.5 -7q7 -45 11.5 -97.5t6.5 -106t2 -101.5q1 -45 -0.5 -93.5t-6.5 -90.5q-2 -18 -7 -41.5t-18.5 -48t-39.5 -45t-70 -33.5t-110 -13zM297 -224q-39 0 -67 23
t-28 58q0 32 15 58.5t38.5 48t49.5 36.5q7 4 15.5 7t17.5 3h46q4 0 5 -3.5t-5 -7.5q-37 -24 -63 -47t-39.5 -44.5t-13.5 -42.5q0 -20 11.5 -28.5t27.5 -7.5q18 0 37.5 10t33.5 21q4 4 8 3.5t4 -5.5v-32q0 -12 -13 -22q-16 -12 -35 -20t-45 -8z" />
    <glyph glyph-name="uogonek" unicode="&#x173;" horiz-adv-x="483" 
d="M249 -4q-78 0 -120.5 30t-59 81.5t-16.5 112.5q0 44 1.5 88t4.5 83l5 65q1 12 4.5 14t13.5 2h55q10 0 14 -1t2 -13q0 -6 -1.5 -31t-3.5 -61t-3 -75.5t-1 -74.5q0 -71 24.5 -109.5t81.5 -38.5q7 0 21 1t29 4t25 9t10 16v362q0 4 1 8t5 4h72q3 0 6.5 -1.5t3.5 -7.5v-414
q0 -12 -6.5 -17.5t-26.5 -12.5q-10 -3 -34 -8.5t-53 -10t-54 -4.5zM240 -216q-39 0 -67 23t-28 58q0 32 15 58.5t38.5 48t49.5 36.5q7 4 15.5 7t17.5 3h46q4 0 5 -3.5t-5 -7.5q-37 -24 -63 -47t-39.5 -44.5t-13.5 -42.5q0 -20 11.5 -28.5t27.5 -7.5q18 0 37.5 10t33.5 21
q4 4 8 3.5t4 -5.5v-32q0 -12 -13 -22q-16 -12 -35 -20t-45 -8z" />
    <glyph glyph-name="Wcircumflex" unicode="&#x174;" horiz-adv-x="834" 
d="M231 0q-14 0 -19 12q-22 42 -45 105t-45 136.5t-41.5 148.5t-33 142t-20.5 116q-1 6 0.5 9.5t7.5 3.5h11.5h22h23h13.5q7 0 9 -2t3 -8q6 -40 19 -103t35 -151q16 -63 30.5 -115t27.5 -92.5t24 -68.5q2 -4 3.5 -6.5t3.5 -2.5h3h2q3 0 4.5 2.5t2.5 6.5q8 19 18 48t21.5 63
t22 68.5t19 64.5t13.5 52q1 32 0.5 70t-2 73t-2 60t-0.5 29q0 6 1 9.5t7 3.5h13.5h22.5h22.5h13.5q6 0 8 -2t2 -9q0 -45 3.5 -90.5t9 -84.5t11.5 -69q13 -72 35 -143t48 -140q3 -7 4.5 -9.5t3.5 -2.5h3h3t5 7q9 20 22 59t29 93t32 118q12 44 20.5 79t15 65.5t12 58
t10.5 56.5q1 8 3.5 10.5t7.5 2.5h13h22.5h22.5h13q12 0 8 -15q-8 -43 -23 -108t-34 -141.5t-40.5 -151.5t-43.5 -139.5t-43 -104.5q-1 -4 -5.5 -8.5t-10.5 -4.5h-22.5h-29h-23.5q-5 0 -9 5t-6 7q-15 32 -32 74t-32.5 91t-30.5 100q-3 10 -6 12.5t-8 -11.5
q-15 -52 -27.5 -91.5t-23 -71t-20.5 -56.5t-21 -46q-2 -7 -7.5 -10t-9.5 -3h-22h-27.5h-20.5zM317 717q-4 0 -4.5 2.5t0.5 5.5l72 80q4 5 8 5h49q5 0 9 -5l72 -80q2 -3 1 -5.5t-5 -2.5h-39q-4 0 -7 1.5t-7 4.5l-42 37q-5 4 -10 0l-44 -38q-3 -2 -5.5 -3.5t-6.5 -1.5h-41z
" />
    <glyph glyph-name="wcircumflex" unicode="&#x175;" horiz-adv-x="633" 
d="M162 12q-28 55 -51.5 115.5t-41.5 119.5t-30.5 111t-19.5 91q-2 11 -0.5 17t7.5 6h73q11 0 13 -11q5 -30 13 -69t19 -80t22 -79t21.5 -68t18.5 -45q2 -6 4.5 -5t3.5 3q11 18 20.5 45.5t17 58.5t12 58.5t4.5 42.5v33.5t-0.5 39t-0.5 37v27.5q0 12 10 12h74q4 0 7.5 -2.5
t3.5 -8.5q0 -24 0.5 -60.5t2.5 -84.5q1 -14 6 -36t12 -46t15.5 -47t15.5 -41.5t12 -27.5q5 -10 10 0q8 17 18.5 47.5t21.5 67.5t20.5 77.5t17.5 79t13 69.5q2 13 16 13h64q6 0 7.5 -5.5t-0.5 -15.5q-5 -42 -19 -99.5t-33.5 -120t-42 -120t-47.5 -99.5q-3 -7 -6.5 -9.5
t-7.5 -2.5h-55q-5 0 -7.5 1.5t-5.5 7.5q-11 19 -23.5 46.5t-23.5 55t-18 48.5q-7 20 -15 0q-4 -13 -10.5 -30t-13.5 -34t-14 -32l-14.5 -29l-12.5 -25q-2 -4 -6 -6.5t-9 -2.5h-52q-7 0 -9 1.5t-7 10.5zM219 528q-3 0 -4 2.5t1 4.5l70 93q2 4 7 4h46q5 0 7 -4l69 -93
q2 -2 1.5 -4.5t-4.5 -2.5h-42q-4 0 -7 3l-44 46q-4 5 -8 0l-43 -46q-2 -3 -7 -3h-42z" />
    <glyph glyph-name="Ycircumflex" unicode="&#x176;" horiz-adv-x="502" 
d="M309 295q-6 -8 -8.5 -22.5t-2.5 -25.5v-238q0 -4 -3 -6.5t-6 -2.5h-73q-9 0 -9 9v237q0 20 -9 40.5t-17 33.5q-8 10 -20 28.5t-24.5 39t-23 38t-15.5 26.5q-27 53 -45.5 97t-27.5 72.5t-11 34.5q-3 10 1.5 13.5t11.5 3.5h70q9 0 12 -11q5 -17 16 -45.5t26 -61.5t30 -63
q13 -27 27.5 -52.5t32.5 -49.5q6 -9 10 -10.5t11 9.5q9 12 19 27.5t20 32.5t18 32q15 31 30.5 66.5t27.5 66.5t16 49q2 6 4.5 8t8.5 2h72q5 0 9 -3.5t2 -13.5q-1 -6 -10 -34.5t-26.5 -72.5t-45.5 -96q-6 -13 -18 -33t-25.5 -43t-28 -44.5t-26.5 -37.5zM150 717
q-4 0 -4.5 2.5t0.5 5.5l72 80q4 5 8 5h49q5 0 9 -5l72 -80q2 -3 1 -5.5t-5 -2.5h-39q-4 0 -7 1.5t-7 4.5l-42 37q-5 4 -10 0l-44 -38q-3 -2 -5.5 -3.5t-6.5 -1.5h-41z" />
    <glyph glyph-name="ycircumflex" unicode="&#x177;" horiz-adv-x="416" 
d="M148 81q-22 35 -42 82t-36.5 99t-28 102.5t-18.5 93.5q-2 14 9 14h69q7 0 11 -3.5t5 -14.5q3 -22 9 -53.5t15.5 -67.5t20.5 -71.5t22 -65t21 -48.5q4 -7 8 -6.5t5 4.5q12 26 25.5 64.5t26.5 82.5t22.5 87t14.5 79q1 8 4.5 10.5t10.5 2.5h61q7 0 10.5 -2.5t1.5 -12.5
q-5 -37 -13 -72t-18.5 -71t-23.5 -76q-11 -33 -27.5 -79t-40 -94.5t-55.5 -91t-74 -69t-97 -26.5q-19 0 -33.5 2.5t-25.5 6.5q-15 7 -9 19l17 36q3 6 6.5 6.5t9.5 -1.5q22 -4 47.5 3t45.5 23q19 12 29.5 24t18.5 28q6 12 5 27t-9 29zM115 528q-3 0 -4 2.5t1 4.5l70 93
q2 4 7 4h46q5 0 7 -4l69 -93q2 -2 1.5 -4.5t-4.5 -2.5h-42q-4 0 -7 3l-44 46q-4 5 -8 0l-43 -46q-2 -3 -7 -3h-42z" />
    <glyph glyph-name="Ydieresis" unicode="&#x178;" horiz-adv-x="502" 
d="M309 295q-6 -8 -8.5 -22.5t-2.5 -25.5v-238q0 -4 -3 -6.5t-6 -2.5h-73q-9 0 -9 9v237q0 20 -9 40.5t-17 33.5q-8 10 -20 28.5t-24.5 39t-23 38t-15.5 26.5q-27 53 -45.5 97t-27.5 72.5t-11 34.5q-3 10 1.5 13.5t11.5 3.5h70q9 0 12 -11q5 -17 16 -45.5t26 -61.5t30 -63
q13 -27 27.5 -52.5t32.5 -49.5q6 -9 10 -10.5t11 9.5q9 12 19 27.5t20 32.5t18 32q15 31 30.5 66.5t27.5 66.5t16 49q2 6 4.5 8t8.5 2h72q5 0 9 -3.5t2 -13.5q-1 -6 -10 -34.5t-26.5 -72.5t-45.5 -96q-6 -13 -18 -33t-25.5 -43t-28 -44.5t-26.5 -37.5zM221 773
q0 -18 -8.5 -27.5t-34.5 -9.5q-24 0 -33.5 9.5t-9.5 27.5q0 19 9.5 28.5t33.5 9.5q26 0 34.5 -9.5t8.5 -28.5zM368 773q0 -18 -8.5 -27.5t-35.5 -9.5q-23 0 -33 9.5t-10 27.5q0 19 10 28.5t33 9.5q27 0 35.5 -9.5t8.5 -28.5z" />
    <glyph glyph-name="Zacute" unicode="&#x179;" horiz-adv-x="458" 
d="M414 673q5 0 6.5 -2t1.5 -10v-39q0 -14 -12 -33t-29 -39q-27 -31 -58 -75t-62.5 -95t-59.5 -105t-50.5 -106t-35.5 -97h320q8 0 10 -2t2 -8v-53q0 -6 -2 -7.5t-9 -1.5h-395q-14 0 -18 8.5t-2 23.5q2 39 17.5 88.5t41 104t56.5 109.5t63 105.5t61.5 92t50.5 69.5h-271
q-7 0 -9 2t-2 7v54q0 5 2 7t9 2h374zM230 718h-45q-6 0 -6 3.5t4 7.5l64 71q4 5 7 7t10 2h69q3 0 5 -3.5t-1 -5.5l-90 -74q-5 -3 -8.5 -5.5t-8.5 -2.5z" />
    <glyph glyph-name="zacute" unicode="&#x17a;" horiz-adv-x="367" 
d="M25 23q8 58 34.5 115.5t62.5 115.5q24 40 49.5 75t48.5 62q3 4 3.5 6.5t-6.5 4.5h-161q-5 0 -7.5 1.5t-2.5 7.5v51q0 8 2.5 9t8.5 1h272q9 0 10 -2.5t1 -10.5v-42q0 -5 -4 -13t-13 -14q-20 -17 -42 -43t-42.5 -55.5t-38.5 -57.5q-25 -42 -46.5 -81t-32.5 -69q-1 -4 0 -9
t10 -5h199q6 0 7.5 -2t1.5 -9v-50q0 -6 -3 -7.5t-10 -1.5h-289q-7 0 -9.5 3.5t-2.5 19.5zM143 528q-7 0 -7 2.5t4 8.5l58 90q4 6 16 6h60q5 0 6.5 -2.5t-3.5 -7.5l-76 -92q-3 -3 -6 -4t-8 -1h-44z" />
    <glyph glyph-name="Zdotaccent" unicode="&#x17b;" horiz-adv-x="458" 
d="M414 673q5 0 6.5 -2t1.5 -10v-39q0 -14 -12 -33t-29 -39q-27 -31 -58 -75t-62.5 -95t-59.5 -105t-50.5 -106t-35.5 -97h320q8 0 10 -2t2 -8v-53q0 -6 -2 -7.5t-9 -1.5h-395q-14 0 -18 8.5t-2 23.5q2 39 17.5 88.5t41 104t56.5 109.5t63 105.5t61.5 92t50.5 69.5h-271
q-7 0 -9 2t-2 7v54q0 5 2 7t9 2h374zM275 775q0 -20 -8 -30t-33 -10q-24 0 -33 10t-9 30q0 18 9 28.5t33 10.5q26 0 33.5 -10.5t7.5 -28.5z" />
    <glyph glyph-name="zdotaccent" unicode="&#x17c;" horiz-adv-x="367" 
d="M25 23q8 58 34.5 115.5t62.5 115.5q24 40 49.5 75t48.5 62q3 4 3.5 6.5t-6.5 4.5h-161q-5 0 -7.5 1.5t-2.5 7.5v51q0 8 2.5 9t8.5 1h272q9 0 10 -2.5t1 -10.5v-42q0 -5 -4 -13t-13 -14q-20 -17 -42 -43t-42.5 -55.5t-38.5 -57.5q-25 -42 -46.5 -81t-32.5 -69q-1 -4 0 -9
t10 -5h199q6 0 7.5 -2t1.5 -9v-50q0 -6 -3 -7.5t-10 -1.5h-289q-7 0 -9.5 3.5t-2.5 19.5zM224 575q0 -20 -8 -30t-33 -10q-24 0 -33 10t-9 30q0 18 9 28.5t33 10.5q26 0 33.5 -10.5t7.5 -28.5z" />
    <glyph glyph-name="Zcaron" unicode="&#x17d;" horiz-adv-x="458" 
d="M414 673q5 0 6.5 -2t1.5 -10v-39q0 -14 -12 -33t-29 -39q-27 -31 -58 -75t-62.5 -95t-59.5 -105t-50.5 -106t-35.5 -97h320q8 0 10 -2t2 -8v-53q0 -6 -2 -7.5t-9 -1.5h-395q-14 0 -18 8.5t-2 23.5q2 39 17.5 88.5t41 104t56.5 109.5t63 105.5t61.5 92t50.5 69.5h-271
q-7 0 -9 2t-2 7v54q0 5 2 7t9 2h374zM210 717q-4 0 -7 4l-74 81q-1 3 -0.5 5.5t4.5 2.5h39q5 0 8 -4l49 -43q5 -4 9 0l50 43q3 4 8 4h39q4 0 5 -2.5t-1 -5.5l-74 -81q-2 -4 -7 -4h-48z" />
    <glyph glyph-name="zcaron" unicode="&#x17e;" horiz-adv-x="367" 
d="M25 23q8 58 34.5 115.5t62.5 115.5q24 40 49.5 75t48.5 62q3 4 3.5 6.5t-6.5 4.5h-161q-5 0 -7.5 1.5t-2.5 7.5v51q0 8 2.5 9t8.5 1h272q9 0 10 -2.5t1 -10.5v-42q0 -5 -4 -13t-13 -14q-20 -17 -42 -43t-42.5 -55.5t-38.5 -57.5q-25 -42 -46.5 -81t-32.5 -69q-1 -4 0 -9
t10 -5h199q6 0 7.5 -2t1.5 -9v-50q0 -6 -3 -7.5t-10 -1.5h-289q-7 0 -9.5 3.5t-2.5 19.5zM160 528q-5 0 -7 3l-70 93q-2 3 -1 5.5t4 2.5h42q5 0 7 -4l43 -46q4 -4 8 0l44 46q3 4 7 4h42q4 0 4.5 -2.5t-1.5 -5.5l-69 -93q-2 -3 -7 -3h-46z" />
    <glyph glyph-name="florin" unicode="&#x192;" horiz-adv-x="567" 
d="M95 -108q-11 0 -27 0.5t-31 3t-25 7.5q-5 2 -4 6q0 2 1.5 9t2.5 15.5t2.5 15.5t2.5 9t2.5 4.5t7.5 0.5q38 -8 64.5 0t45 28.5t29 49t17.5 60.5q18 85 34 160.5t29 139.5q0 1 0.5 2t0.5 2h-41h-41q-2 0 -2.5 2l-0.5 2q1 3 2.5 11t4 18.5t3.5 18.5t2 11l1 2t3 2h41h41
q1 2 1 4t1 4q4 19 8 37.5t8 37.5q11 50 39.5 85t69.5 53.5t91 18.5q17 0 36 -3t30 -8q7 -3 8 -5t0 -6l-9 -48q-1 -4 -2 -5.5t-5 -0.5q-16 6 -30.5 8.5t-30.5 2.5q-48 0 -72.5 -25.5t-38.5 -82.5q-3 -14 -5.5 -23.5t-4.5 -19.5t-5 -24h4.5h4.5h49.5h45h49.5q5 0 4 -4
q-1 -3 -2.5 -11t-3.5 -18.5t-3.5 -18.5t-2.5 -11l-1.5 -2t-3.5 -2h-52h-47h-52q-3 0 -3 -3q-9 -46 -17.5 -85t-16.5 -75.5t-16.5 -75t-17.5 -84.5q-10 -48 -31 -91t-56 -70.5t-85 -28.5z" />
    <glyph glyph-name="Ohorn" unicode="&#x1a0;" horiz-adv-x="631" 
d="M48 334q0 111 23 187.5t80.5 115.5t162.5 39q82 0 134.5 -22.5t82 -65.5t41 -107t11.5 -147t-11.5 -146.5t-41 -107t-82 -65.5t-134.5 -22q-105 0 -162.5 39t-80.5 115t-23 187zM143 334q0 -104 18 -161.5t55.5 -80t96.5 -22.5t98 22t58 79.5t19 162.5t-19 163t-58 81
t-98 23t-96.5 -23t-55.5 -81t-18 -163zM487 755q4 1 6 -4q2 -8 2.5 -15.5t0.5 -14.5q0 -33 -15 -55.5t-41.5 -34t-61.5 -13.5q-5 0 -5 5v44q0 5 5 5q28 2 42.5 14t15.5 37v8.5t-1 8.5q0 5 4 6z" />
    <glyph glyph-name="ohorn" unicode="&#x1a1;" horiz-adv-x="496" 
d="M248 -6q-83 0 -129 31t-63.5 86.5t-17.5 125.5t19.5 124.5t65.5 85.5t125 31t125 -31t65.5 -85.5t19.5 -124.5t-17.5 -125t-63 -86.5t-129.5 -31.5zM247 63q67 0 93.5 45.5t26.5 127.5q0 81 -29 125t-91 44q-61 0 -90.5 -44t-29.5 -125q0 -83 27 -128t93 -45zM420 555
q4 1 6 -4q2 -8 2.5 -15.5t0.5 -14.5q0 -33 -15 -55.5t-41.5 -34t-61.5 -13.5q-5 0 -5 5v44q0 5 5 5q28 2 42.5 14t15.5 37v8.5t-1 8.5q0 5 4 6z" />
    <glyph glyph-name="Uhorn" unicode="&#x1af;" horiz-adv-x="634" 
d="M317 -7q-83 0 -131 19.5t-71.5 48.5t-31.5 59.5t-10 53.5q-4 41 -6 89t-2 92q1 49 3 103t6.5 107t11.5 98q0 4 3.5 7t7.5 3h34h34q6 0 7 -2t0 -14q-4 -40 -7 -83t-5 -89q-4 -79 -4.5 -154.5t6.5 -144.5q2 -23 9 -44.5t23 -38.5t45.5 -27.5t75.5 -10.5t75.5 10.5
t46.5 27.5t24 39t9 44q6 68 6 142t-4 152q-2 47 -5.5 91.5t-7.5 85.5q0 12 1 14t7 2h35.5h34.5q6 0 8.5 -3t3.5 -7q7 -45 11.5 -97.5t6.5 -106t2 -101.5q1 -45 -0.5 -93.5t-6.5 -90.5q-2 -18 -7 -41.5t-18.5 -48t-39.5 -45t-70 -33.5t-110 -13zM609 755q4 1 6 -4
q2 -8 2.5 -15.5t0.5 -14.5q0 -33 -15 -55.5t-41.5 -34t-61.5 -13.5q-5 0 -5 5v44q0 5 5 5q28 2 42.5 14t15.5 37v8.5t-1 8.5q0 5 4 6z" />
    <glyph glyph-name="uhorn" unicode="&#x1b0;" horiz-adv-x="483" 
d="M249 -4q-78 0 -120.5 30t-59 81.5t-16.5 112.5q0 44 1.5 88t4.5 83l5 65q1 12 4.5 14t13.5 2h55q10 0 14 -1t2 -13q0 -6 -1.5 -31t-3.5 -61t-3 -75.5t-1 -74.5q0 -71 24.5 -109.5t81.5 -38.5q7 0 21 1t29 4t25 9t10 16v362q0 4 1 8t5 4h72q3 0 6.5 -1.5t3.5 -7.5v-414
q0 -12 -6.5 -17.5t-26.5 -12.5q-10 -3 -34 -8.5t-53 -10t-54 -4.5zM468 555q4 1 6 -4q2 -8 2.5 -15.5t0.5 -14.5q0 -33 -15 -55.5t-41.5 -34t-61.5 -13.5q-5 0 -5 5v44q0 5 5 5q28 2 42.5 14t15.5 37v8.5t-1 8.5q0 5 4 6z" />
    <glyph glyph-name="uni0218" unicode="&#x218;" horiz-adv-x="468" 
d="M55 30v59q0 6 4 5.5t11 -3.5q20 -6 44.5 -12t49 -9.5t41.5 -3.5q65 0 97.5 35.5t32.5 89.5q0 50 -29 78t-89 44q-28 7 -59 17.5t-58 29.5t-44.5 52t-17.5 86q0 64 29 103.5t76.5 57.5t102.5 18q23 0 48.5 -3.5t49 -10t41.5 -14.5q7 -1 8.5 -4t1.5 -8v-53q0 -18 -22 -6
q-23 12 -53.5 20.5t-67.5 8.5q-55 0 -88.5 -27.5t-33.5 -74.5q0 -34 15 -55.5t39 -33.5t51.5 -20t53.5 -16q46 -14 77 -34.5t47.5 -55.5t16.5 -92q0 -68 -27.5 -113.5t-78 -69.5t-118.5 -24q-29 0 -67 7t-70 17q-8 2 -11 5.5t-3 9.5zM276 -73q0 -16 -7.5 -37t-17 -41
t-19.5 -34q-3 -5 -7 -5h-16.5h-17.5q-4 1 -4 2.5t3 8.5q6 12 14 34t14 37q-17 1 -23.5 12t-6.5 22q0 17 9.5 27.5t33.5 10.5q20 0 32.5 -7.5t12.5 -29.5z" />
    <glyph glyph-name="uni0219" unicode="&#x219;" horiz-adv-x="399" 
d="M41 93q1 7 5.5 6t9.5 -4q16 -9 40 -16t48.5 -11t42.5 -4q26 0 48 7.5t36 24.5t14 43q0 32 -25 46.5t-83 22.5q-37 6 -69.5 19t-52.5 39t-20 69q0 47 24.5 78.5t64 47.5t84.5 16q36 0 78.5 -10t67.5 -27q6 -4 6.5 -6.5t-1.5 -7.5l-16 -47q-3 -10 -14 -4q-20 13 -54 23.5
t-67 10.5q-38 0 -62.5 -19t-24.5 -47q0 -31 25.5 -44t72.5 -20q31 -5 57.5 -12.5t47.5 -21.5t32.5 -37t11.5 -60q0 -44 -16.5 -73t-43.5 -47t-59.5 -25.5t-64.5 -7.5q-16 0 -43.5 4t-55.5 12.5t-47 20.5q-4 3 -6 5.5t-1 6.5zM241 -76q0 -16 -7.5 -37t-17 -41t-19.5 -34
q-3 -5 -7 -5h-16.5h-17.5q-4 1 -4 2.5t3 8.5q6 12 14 34t14 37q-17 1 -23.5 12t-6.5 22q0 17 9.5 27.5t33.5 10.5q20 0 32.5 -7.5t12.5 -29.5z" />
    <glyph glyph-name="uni021A" unicode="&#x21a;" horiz-adv-x="442" 
d="M184 0q-4 0 -7 2.5t-3 6.5v584q0 5 -1.5 6.5t-5.5 1.5h-136q-7 0 -9 1.5t-2 7.5v55q0 5 2 6.5t8 1.5h380q8 0 10 -2t2 -7v-54q0 -6 -2 -7.5t-10 -1.5h-136q-5 0 -7 -1.5t-2 -6.5v-584q0 -9 -9 -9h-72zM262 -73q0 -16 -7.5 -37t-17 -41t-19.5 -34q-3 -5 -7 -5h-16.5h-17.5
q-4 1 -4 2.5t3 8.5q6 12 14 34t14 37q-17 1 -23.5 12t-6.5 22q0 17 9.5 27.5t33.5 10.5q20 0 32.5 -7.5t12.5 -29.5z" />
    <glyph glyph-name="uni021B" unicode="&#x21b;" horiz-adv-x="336" 
d="M225 0q-64 0 -95 27t-40 76q-9 42 -9.5 88t-0.5 94q0 32 1 60t2 59q0 9 -8 9h-48q-5 0 -7 2t-2 8v39q0 6 2 8t8 2h49q6 0 7.5 3t1.5 10l5 82q0 9 8 9h69q4 0 7.5 -2.5t2.5 -6.5l-4 -82q-1 -8 0.5 -10.5t6.5 -2.5h107q7 0 8.5 -1.5t1.5 -9.5v-38q0 -5 -2.5 -7.5t-8.5 -2.5
h-106q-5 0 -7.5 -2.5t-2.5 -9.5q-1 -30 -2 -61t-2 -63q0 -39 1 -79.5t10 -77.5q6 -26 20.5 -38.5t44.5 -12.5q13 0 26.5 3.5t24.5 7.5q9 5 11.5 3.5t4.5 -8.5l13 -42q3 -6 -1.5 -10t-16.5 -9q-11 -4 -26 -7.5t-29.5 -5t-24.5 -1.5zM243 -68q0 -16 -7.5 -37t-17 -41
t-19.5 -34q-3 -5 -7 -5h-16.5h-17.5q-4 1 -4 2.5t3 8.5q6 12 14 34t14 37q-17 1 -23.5 12t-6.5 22q0 17 9.5 27.5t33.5 10.5q20 0 32.5 -7.5t12.5 -29.5z" />
    <glyph glyph-name="circumflex" unicode="&#x2c6;" horiz-adv-x="207" 
d="M7 528q-3 0 -4 2.5t1 4.5l70 93q2 4 7 4h46q5 0 7 -4l69 -93q2 -2 1.5 -4.5t-4.5 -2.5h-42q-4 0 -7 3l-44 46q-4 5 -8 0l-43 -46q-2 -3 -7 -3h-42z" />
    <glyph glyph-name="caron" unicode="&#x2c7;" horiz-adv-x="202" 
d="M79 528q-5 0 -7 3l-70 93q-2 3 -1 5.5t4 2.5h42q5 0 7 -4l43 -46q4 -4 8 0l44 46q3 4 7 4h42q4 0 4.5 -2.5t-1.5 -5.5l-69 -93q-2 -3 -7 -3h-46z" />
    <glyph glyph-name="breve" unicode="&#x2d8;" horiz-adv-x="207" 
d="M104 524q-50 0 -76.5 21.5t-27.5 62.5q0 9 1 11.5t9 2.5h37q7 0 8.5 -1.5t1.5 -7.5q2 -20 14 -29t33 -9t33.5 9t12.5 29q0 6 2 7.5t7 1.5h39q6 0 7.5 -2.5t1.5 -11.5q-1 -39 -26 -61.5t-77 -22.5z" />
    <glyph glyph-name="dotaccent" unicode="&#x2d9;" horiz-adv-x="83" 
d="M83 664q0 -19 -8 -29.5t-33 -10.5q-24 0 -33 10.5t-9 29.5t9 29t33 10q26 0 33.5 -10t7.5 -29z" />
    <glyph glyph-name="ring" unicode="&#x2da;" horiz-adv-x="200" 
d="M200 571q0 -42 -23.5 -67.5t-76.5 -25.5q-55 0 -77.5 25t-22.5 68q0 42 22.5 66.5t77.5 24.5q53 0 76.5 -24.5t23.5 -66.5zM156 574q0 18 -10 31t-45 13q-36 0 -45.5 -13t-9.5 -31q0 -12 3 -23.5t15 -19.5t37 -8q26 0 37.5 8t14.5 19.5t3 23.5z" />
    <glyph glyph-name="ogonek" unicode="&#x2db;" horiz-adv-x="193" 
d="M95 -202q-39 0 -67 23t-28 58q0 32 15 58.5t38.5 48t49.5 36.5q7 4 15.5 7t17.5 3h46q4 0 5 -3.5t-5 -7.5q-37 -24 -63 -47t-39.5 -44.5t-13.5 -42.5q0 -20 11.5 -28.5t27.5 -7.5q18 0 37.5 10t33.5 21q4 4 8 3.5t4 -5.5v-32q0 -12 -13 -22q-16 -12 -35 -20t-45 -8z" />
    <glyph glyph-name="tilde" unicode="&#x2dc;" horiz-adv-x="207" 
d="M5 536q-5 0 -5 6q0 32 16.5 51t46.5 19q15 0 30 -8.5t28.5 -17t21.5 -8.5q6 0 10.5 6t4.5 15q0 7 5 7h38q6 0 6 -6q0 -29 -17.5 -49.5t-45.5 -20.5q-19 0 -34 9t-26.5 17t-19.5 8t-12.5 -6t-4.5 -16q0 -6 -5 -6h-37z" />
    <glyph glyph-name="hungarumlaut" unicode="&#x2dd;" horiz-adv-x="214" 
d="M51 533q-2 -2 -4.5 -3.5t-9.5 -1.5h-30q-9 0 -5 10l36 107q2 6 15 6h51q4 0 5.5 -3t-1.5 -7zM148 533q-1 -2 -4 -3.5t-10 -1.5h-30q-9 0 -5 10l43 107q2 6 15 6h51q4 0 5.5 -3t-1.5 -7z" />
    <glyph glyph-name="gravecomb" unicode="&#x300;" 
d="M95 529q-9 0 -17 8l-77 89q-2 3 -0.5 6t4.5 3h69q7 0 10.5 -1.5t6.5 -7.5l50 -87q7 -10 -2 -10h-44z" />
    <glyph glyph-name="acutecomb" unicode="&#x301;" 
d="M7 528q-7 0 -7 2.5t4 8.5l58 90q4 6 16 6h60q5 0 6.5 -2.5t-3.5 -7.5l-76 -92q-3 -3 -6 -4t-8 -1h-44z" />
    <glyph glyph-name="uni0302" unicode="&#x302;" 
d="M7 528q-3 0 -4 2.5t1 4.5l70 93q2 4 7 4h46q5 0 7 -4l69 -93q2 -2 1.5 -4.5t-4.5 -2.5h-42q-4 0 -7 3l-44 46q-4 5 -8 0l-43 -46q-2 -3 -7 -3h-42z" />
    <glyph glyph-name="tildecomb" unicode="&#x303;" 
d="M5 536q-5 0 -5 6q0 32 16.5 51t46.5 19q15 0 30 -8.5t28.5 -17t21.5 -8.5q6 0 10.5 6t4.5 15q0 7 5 7h38q6 0 6 -6q0 -29 -17.5 -49.5t-45.5 -20.5q-19 0 -34 9t-26.5 17t-19.5 8t-12.5 -6t-4.5 -16q0 -6 -5 -6h-37z" />
    <glyph glyph-name="uni0304" unicode="&#x304;" 
d="M220 543q0 -2 -1.5 -3t-6.5 -1h-205q-5 0 -6 1.5t-1 4.5v44q0 5 1.5 6t5.5 1h205q5 0 6.5 -1t1.5 -5v-47z" />
    <glyph glyph-name="uni0306" unicode="&#x306;" 
d="M104 524q-50 0 -76.5 21.5t-27.5 62.5q0 9 1 11.5t9 2.5h37q7 0 8.5 -1.5t1.5 -7.5q2 -20 14 -29t33 -9t33.5 9t12.5 29q0 6 2 7.5t7 1.5h39q6 0 7.5 -2.5t1.5 -11.5q-1 -39 -26 -61.5t-77 -22.5z" />
    <glyph glyph-name="uni0307" unicode="&#x307;" 
d="M83 575q0 -20 -8 -30t-33 -10q-24 0 -33 10t-9 30q0 18 9 28.5t33 10.5q26 0 33.5 -10.5t7.5 -28.5z" />
    <glyph glyph-name="uni0308" unicode="&#x308;" 
d="M89 573q0 -18 -8.5 -27.5t-34.5 -9.5q-24 0 -33.5 9.5t-9.5 27.5q0 19 9.5 28.5t33.5 9.5q26 0 34.5 -9.5t8.5 -28.5zM236 573q0 -18 -8.5 -27.5t-35.5 -9.5q-23 0 -33 9.5t-10 27.5q0 19 10 28.5t33 9.5q27 0 35.5 -9.5t8.5 -28.5z" />
    <glyph glyph-name="hookabovecomb" unicode="&#x309;" 
d="M49 524q-3 0 -5 2.5t-2 4.5q0 16 7 25t14 13q8 7 15.5 12.5t7.5 15.5q0 17 -23 17q-10 0 -17.5 -3t-16.5 -10q-7 -5 -11 1l-17 25q-3 5 2 9q9 9 29 17t44 8q31 0 48 -17t17 -45q0 -23 -11 -33.5t-21 -15.5q-6 -4 -10.5 -7.5t-4.5 -11.5q0 -7 -8 -7h-37z" />
    <glyph glyph-name="uni030A" unicode="&#x30a;" 
d="M174 592q0 -37 -20.5 -59t-66.5 -22q-48 0 -67.5 22t-19.5 59t19.5 59t67.5 22q47 0 67 -22t20 -59zM131 595q0 14 -8 24t-35 10q-29 0 -36.5 -10t-7.5 -24t7.5 -27t37.5 -13q29 0 35.5 13.5t6.5 26.5z" />
    <glyph glyph-name="uni030B" unicode="&#x30b;" 
d="M51 533q-1 -2 -4 -3.5t-10 -1.5h-30q-9 0 -5 10l36 107q1 6 15 6h51q4 0 5.5 -3t-1.5 -7zM148 533q-1 -2 -4 -3.5t-10 -1.5h-30q-9 0 -5 10l43 107q2 6 15 6h51q4 0 5.5 -3t-1.5 -7z" />
    <glyph glyph-name="uni030C" unicode="&#x30c;" 
d="M81 528q-5 0 -7 3l-70 93q-2 3 -1 5.5t4 2.5h42q5 0 7 -4l43 -46q4 -4 8 0l44 46q3 4 7 4h42q4 0 4.5 -2.5t-1.5 -5.5l-69 -93q-2 -3 -7 -3h-46z" />
    <glyph glyph-name="uni0312" unicode="&#x312;" 
d="M0 589q-1 19 5.5 44t16.5 48.5t18 39.5q3 5 8 6q8 0 17.5 0.5t17.5 0.5q4 -1 4 -3.5t-3 -8.5q-3 -8 -8 -24.5t-9.5 -33.5t-7.5 -29q18 0 25.5 -11t7.5 -25q1 -19 -8.5 -30t-35.5 -13q-21 -1 -34 7t-14 32z" />
    <glyph glyph-name="uni031B" unicode="&#x31b;" 
d="M114 555q4 1 6 -4q2 -8 2.5 -15.5t0.5 -14.5q0 -33 -15 -55.5t-41.5 -34t-61.5 -13.5q-5 0 -5 5v44q0 5 5 5q28 2 42.5 14t15.5 37v8.5t-1 8.5q0 5 4 6z" />
    <glyph glyph-name="dotbelowcomb" unicode="&#x323;" 
d="M83 -89q0 -19 -8 -29.5t-33 -10.5q-24 0 -33 10.5t-9 29.5t9 29t33 10q26 0 33.5 -10t7.5 -29z" />
    <glyph glyph-name="uni0326" unicode="&#x326;" 
d="M93 -73q0 -16 -7.5 -37t-17 -41t-19.5 -34q-3 -5 -7 -5h-16.5h-17.5q-4 1 -4 2.5t3 8.5q6 12 14 34t14 37q-17 1 -23.5 12t-6.5 22q0 17 9.5 27.5t33.5 10.5q20 0 32.5 -7.5t12.5 -29.5z" />
    <glyph glyph-name="uni0327" unicode="&#x327;" 
d="M178 -123q0 -29 -24 -51.5t-66 -22.5q-29 0 -50 11.5t-34 26.5q-4 6 -3.5 12t5.5 8l19 10q8 3 11 2t5 -5q7 -10 18.5 -17t23.5 -7q21 0 30.5 11t9.5 23q0 15 -10 23t-26 11t-32 3q-7 1 -10 6t1 12l37 61q3 5 6.5 6.5t8.5 1.5h23q11 0 6 -9l-29 -64l-13 19q42 -3 67.5 -20
t25.5 -51z" />
    <glyph glyph-name="uni0328" unicode="&#x328;" 
d="M95 -202q-39 0 -67 23t-28 58q0 32 15 58.5t38.5 48t49.5 36.5q7 4 15.5 7t17.5 3h46q4 0 5 -3.5t-5 -7.5q-37 -24 -63 -47t-39.5 -44.5t-13.5 -42.5q0 -20 11.5 -28.5t27.5 -7.5q18 0 37.5 10t33.5 21q4 4 8 3.5t4 -5.5v-32q0 -12 -13 -22q-16 -12 -35 -20t-45 -8z" />
    <glyph glyph-name="uni03BC" unicode="&#x3bc;" horiz-adv-x="470" 
d="M258 -4q-19 0 -41.5 4t-41.5 9.5t-28 10.5q2 -35 9 -74.5t19 -77t29 -68.5h-49.5h-45.5q-13 21 -22.5 61t-16.5 89.5t-11.5 100t-6.5 95.5t-2 74q0 44 2 88t4.5 83t4.5 65q2 12 5.5 14t12.5 2h55q10 0 14 -1t2 -13q0 -6 -1.5 -31t-3 -61t-2.5 -75.5t-1 -74.5q0 -40 3 -63
t12 -45q14 -18 38 -29t48 -11q9 0 24 1t29.5 4t25 9t10.5 16v362q0 4 1 8t5 4h72q3 0 6.5 -1.5t3.5 -7.5v-404q0 -15 -6.5 -22.5t-26.5 -17.5q-9 -4 -30.5 -9.5t-47.5 -9.5t-51 -4z" />
    <glyph glyph-name="pi" unicode="&#x3c0;" horiz-adv-x="653" 
d="M145 0q-9 0 -12.5 4.5t-3.5 13.5v421h-51q-12 0 -15 3.5t-3 13.5v36q0 10 3 13.5t15 3.5h497q13 0 15.5 -3.5t2.5 -13.5v-36q0 -10 -2.5 -13.5t-15.5 -3.5h-51v-421q0 -9 -1.5 -13.5t-9.5 -4.5h-64q-8 0 -10 4.5t-2 13.5v421h-219v-421q0 -9 -2.5 -13.5t-11.5 -4.5h-59z
" />
    <glyph glyph-name="Wgrave" unicode="&#x1e80;" horiz-adv-x="834" 
d="M231 0q-14 0 -19 12q-22 42 -45 105t-45 136.5t-41.5 148.5t-33 142t-20.5 116q-1 6 0.5 9.5t7.5 3.5h11.5h22h23h13.5q7 0 9 -2t3 -8q6 -40 19 -103t35 -151q16 -63 30.5 -115t27.5 -92.5t24 -68.5q2 -4 3.5 -6.5t3.5 -2.5h3h2q3 0 4.5 2.5t2.5 6.5q8 19 18 48t21.5 63
t22 68.5t19 64.5t13.5 52q1 32 0.5 70t-2 73t-2 60t-0.5 29q0 6 1 9.5t7 3.5h13.5h22.5h22.5h13.5q6 0 8 -2t2 -9q0 -45 3.5 -90.5t9 -84.5t11.5 -69q13 -72 35 -143t48 -140q3 -7 4.5 -9.5t3.5 -2.5h3h3t5 7q9 20 22 59t29 93t32 118q12 44 20.5 79t15 65.5t12 58
t10.5 56.5q1 8 3.5 10.5t7.5 2.5h13h22.5h22.5h13q12 0 8 -15q-8 -43 -23 -108t-34 -141.5t-40.5 -151.5t-43.5 -139.5t-43 -104.5q-1 -4 -5.5 -8.5t-10.5 -4.5h-22.5h-29h-23.5q-5 0 -9 5t-6 7q-15 32 -32 74t-32.5 91t-30.5 100q-3 10 -6 12.5t-8 -11.5
q-15 -52 -27.5 -91.5t-23 -71t-20.5 -56.5t-21 -46q-2 -7 -7.5 -10t-9.5 -3h-22h-27.5h-20.5zM419 718q-5 0 -8 2.5t-9 5.5l-90 74q-2 2 -0.5 5.5t4.5 3.5h69q7 0 10 -2t7 -7l64 -71q4 -4 4 -7.5t-6 -3.5h-45z" />
    <glyph glyph-name="wgrave" unicode="&#x1e81;" horiz-adv-x="633" 
d="M162 12q-28 55 -51.5 115.5t-41.5 119.5t-30.5 111t-19.5 91q-2 11 -0.5 17t7.5 6h73q11 0 13 -11q5 -30 13 -69t19 -80t22 -79t21.5 -68t18.5 -45q2 -6 4.5 -5t3.5 3q11 18 20.5 45.5t17 58.5t12 58.5t4.5 42.5v33.5t-0.5 39t-0.5 37v27.5q0 12 10 12h74q4 0 7.5 -2.5
t3.5 -8.5q0 -24 0.5 -60.5t2.5 -84.5q1 -14 6 -36t12 -46t15.5 -47t15.5 -41.5t12 -27.5q5 -10 10 0q8 17 18.5 47.5t21.5 67.5t20.5 77.5t17.5 79t13 69.5q2 13 16 13h64q6 0 7.5 -5.5t-0.5 -15.5q-5 -42 -19 -99.5t-33.5 -120t-42 -120t-47.5 -99.5q-3 -7 -6.5 -9.5
t-7.5 -2.5h-55q-5 0 -7.5 1.5t-5.5 7.5q-11 19 -23.5 46.5t-23.5 55t-18 48.5q-7 20 -15 0q-4 -13 -10.5 -30t-13.5 -34t-14 -32l-14.5 -29l-12.5 -25q-2 -4 -6 -6.5t-9 -2.5h-52q-7 0 -9 1.5t-7 10.5zM314 529q-9 0 -17 8l-77 89q-2 3 -0.5 6t4.5 3h69q7 0 10.5 -1.5
t6.5 -7.5l50 -87q7 -10 -2 -10h-44z" />
    <glyph glyph-name="Wacute" unicode="&#x1e82;" horiz-adv-x="834" 
d="M231 0q-14 0 -19 12q-22 42 -45 105t-45 136.5t-41.5 148.5t-33 142t-20.5 116q-1 6 0.5 9.5t7.5 3.5h11.5h22h23h13.5q7 0 9 -2t3 -8q6 -40 19 -103t35 -151q16 -63 30.5 -115t27.5 -92.5t24 -68.5q2 -4 3.5 -6.5t3.5 -2.5h3h2q3 0 4.5 2.5t2.5 6.5q8 19 18 48t21.5 63
t22 68.5t19 64.5t13.5 52q1 32 0.5 70t-2 73t-2 60t-0.5 29q0 6 1 9.5t7 3.5h13.5h22.5h22.5h13.5q6 0 8 -2t2 -9q0 -45 3.5 -90.5t9 -84.5t11.5 -69q13 -72 35 -143t48 -140q3 -7 4.5 -9.5t3.5 -2.5h3h3t5 7q9 20 22 59t29 93t32 118q12 44 20.5 79t15 65.5t12 58
t10.5 56.5q1 8 3.5 10.5t7.5 2.5h13h22.5h22.5h13q12 0 8 -15q-8 -43 -23 -108t-34 -141.5t-40.5 -151.5t-43.5 -139.5t-43 -104.5q-1 -4 -5.5 -8.5t-10.5 -4.5h-22.5h-29h-23.5q-5 0 -9 5t-6 7q-15 32 -32 74t-32.5 91t-30.5 100q-3 10 -6 12.5t-8 -11.5
q-15 -52 -27.5 -91.5t-23 -71t-20.5 -56.5t-21 -46q-2 -7 -7.5 -10t-9.5 -3h-22h-27.5h-20.5zM414 718h-45q-6 0 -6 3.5t4 7.5l64 71q4 5 7 7t10 2h69q3 0 5 -3.5t-1 -5.5l-90 -74q-5 -3 -8.5 -5.5t-8.5 -2.5z" />
    <glyph glyph-name="wacute" unicode="&#x1e83;" horiz-adv-x="633" 
d="M162 12q-28 55 -51.5 115.5t-41.5 119.5t-30.5 111t-19.5 91q-2 11 -0.5 17t7.5 6h73q11 0 13 -11q5 -30 13 -69t19 -80t22 -79t21.5 -68t18.5 -45q2 -6 4.5 -5t3.5 3q11 18 20.5 45.5t17 58.5t12 58.5t4.5 42.5v33.5t-0.5 39t-0.5 37v27.5q0 12 10 12h74q4 0 7.5 -2.5
t3.5 -8.5q0 -24 0.5 -60.5t2.5 -84.5q1 -14 6 -36t12 -46t15.5 -47t15.5 -41.5t12 -27.5q5 -10 10 0q8 17 18.5 47.5t21.5 67.5t20.5 77.5t17.5 79t13 69.5q2 13 16 13h64q6 0 7.5 -5.5t-0.5 -15.5q-5 -42 -19 -99.5t-33.5 -120t-42 -120t-47.5 -99.5q-3 -7 -6.5 -9.5
t-7.5 -2.5h-55q-5 0 -7.5 1.5t-5.5 7.5q-11 19 -23.5 46.5t-23.5 55t-18 48.5q-7 20 -15 0q-4 -13 -10.5 -30t-13.5 -34t-14 -32l-14.5 -29l-12.5 -25q-2 -4 -6 -6.5t-9 -2.5h-52q-7 0 -9 1.5t-7 10.5zM277 528q-7 0 -7 2.5t4 8.5l58 90q4 6 16 6h60q5 0 6.5 -2.5t-3.5 -7.5
l-76 -92q-3 -3 -6 -4t-8 -1h-44z" />
    <glyph glyph-name="Wdieresis" unicode="&#x1e84;" horiz-adv-x="834" 
d="M231 0q-14 0 -19 12q-22 42 -45 105t-45 136.5t-41.5 148.5t-33 142t-20.5 116q-1 6 0.5 9.5t7.5 3.5h11.5h22h23h13.5q7 0 9 -2t3 -8q6 -40 19 -103t35 -151q16 -63 30.5 -115t27.5 -92.5t24 -68.5q2 -4 3.5 -6.5t3.5 -2.5h3h2q3 0 4.5 2.5t2.5 6.5q8 19 18 48t21.5 63
t22 68.5t19 64.5t13.5 52q1 32 0.5 70t-2 73t-2 60t-0.5 29q0 6 1 9.5t7 3.5h13.5h22.5h22.5h13.5q6 0 8 -2t2 -9q0 -45 3.5 -90.5t9 -84.5t11.5 -69q13 -72 35 -143t48 -140q3 -7 4.5 -9.5t3.5 -2.5h3h3t5 7q9 20 22 59t29 93t32 118q12 44 20.5 79t15 65.5t12 58
t10.5 56.5q1 8 3.5 10.5t7.5 2.5h13h22.5h22.5h13q12 0 8 -15q-8 -43 -23 -108t-34 -141.5t-40.5 -151.5t-43.5 -139.5t-43 -104.5q-1 -4 -5.5 -8.5t-10.5 -4.5h-22.5h-29h-23.5q-5 0 -9 5t-6 7q-15 32 -32 74t-32.5 91t-30.5 100q-3 10 -6 12.5t-8 -11.5
q-15 -52 -27.5 -91.5t-23 -71t-20.5 -56.5t-21 -46q-2 -7 -7.5 -10t-9.5 -3h-22h-27.5h-20.5zM388 773q0 -18 -8.5 -27.5t-34.5 -9.5q-24 0 -33.5 9.5t-9.5 27.5q0 19 9.5 28.5t33.5 9.5q26 0 34.5 -9.5t8.5 -28.5zM535 773q0 -18 -8.5 -27.5t-35.5 -9.5q-23 0 -33 9.5
t-10 27.5q0 19 10 28.5t33 9.5q27 0 35.5 -9.5t8.5 -28.5z" />
    <glyph glyph-name="wdieresis" unicode="&#x1e85;" horiz-adv-x="633" 
d="M162 12q-28 55 -51.5 115.5t-41.5 119.5t-30.5 111t-19.5 91q-2 11 -0.5 17t7.5 6h73q11 0 13 -11q5 -30 13 -69t19 -80t22 -79t21.5 -68t18.5 -45q2 -6 4.5 -5t3.5 3q11 18 20.5 45.5t17 58.5t12 58.5t4.5 42.5v33.5t-0.5 39t-0.5 37v27.5q0 12 10 12h74q4 0 7.5 -2.5
t3.5 -8.5q0 -24 0.5 -60.5t2.5 -84.5q1 -14 6 -36t12 -46t15.5 -47t15.5 -41.5t12 -27.5q5 -10 10 0q8 17 18.5 47.5t21.5 67.5t20.5 77.5t17.5 79t13 69.5q2 13 16 13h64q6 0 7.5 -5.5t-0.5 -15.5q-5 -42 -19 -99.5t-33.5 -120t-42 -120t-47.5 -99.5q-3 -7 -6.5 -9.5
t-7.5 -2.5h-55q-5 0 -7.5 1.5t-5.5 7.5q-11 19 -23.5 46.5t-23.5 55t-18 48.5q-7 20 -15 0q-4 -13 -10.5 -30t-13.5 -34t-14 -32l-14.5 -29l-12.5 -25q-2 -4 -6 -6.5t-9 -2.5h-52q-7 0 -9 1.5t-7 10.5zM286 573q0 -18 -8.5 -27.5t-34.5 -9.5q-24 0 -33.5 9.5t-9.5 27.5
q0 19 9.5 28.5t33.5 9.5q26 0 34.5 -9.5t8.5 -28.5zM433 573q0 -18 -8.5 -27.5t-35.5 -9.5q-23 0 -33 9.5t-10 27.5q0 19 10 28.5t33 9.5q27 0 35.5 -9.5t8.5 -28.5z" />
    <glyph glyph-name="uni1E9E" unicode="&#x1e9e;" horiz-adv-x="910" 
d="M55 30v59q0 6 4 5.5t11 -3.5q20 -6 44.5 -12t49 -9.5t41.5 -3.5q65 0 97.5 35.5t32.5 89.5q0 50 -29 78t-89 44q-28 7 -59 17.5t-58 29.5t-44.5 52t-17.5 86q0 64 29 103.5t76.5 57.5t102.5 18q23 0 48.5 -3.5t49 -10t41.5 -14.5q7 -1 8.5 -4t1.5 -8v-53q0 -18 -22 -6
q-23 12 -53.5 20.5t-67.5 8.5q-55 0 -88.5 -27.5t-33.5 -74.5q0 -34 15 -55.5t39 -33.5t51.5 -20t53.5 -16q46 -14 77 -34.5t47.5 -55.5t16.5 -92q0 -68 -27.5 -113.5t-78 -69.5t-118.5 -24q-29 0 -67 7t-70 17q-8 2 -11 5.5t-3 9.5zM483 30v59q0 6 4 5.5t11 -3.5
q20 -6 44.5 -12t49 -9.5t41.5 -3.5q65 0 97.5 35.5t32.5 89.5q0 50 -29 78t-89 44q-28 7 -59 17.5t-58 29.5t-44.5 52t-17.5 86q0 64 29 103.5t76.5 57.5t102.5 18q23 0 48.5 -3.5t49 -10t41.5 -14.5q7 -1 8.5 -4t1.5 -8v-53q0 -18 -22 -6q-23 12 -53.5 20.5t-67.5 8.5
q-55 0 -88.5 -27.5t-33.5 -74.5q0 -34 15 -55.5t39 -33.5t51.5 -20t53.5 -16q46 -14 77 -34.5t47.5 -55.5t16.5 -92q0 -68 -27.5 -113.5t-78 -69.5t-118.5 -24q-29 0 -67 7t-70 17q-8 2 -11 5.5t-3 9.5z" />
    <glyph glyph-name="uni1EA0" unicode="&#x1ea0;" horiz-adv-x="552" 
d="M41 0q-7 0 -8 4.5t1 17.5q6 47 20 112t33 138.5t41 147t45 136t44 104.5q3 6 7 9.5t9 3.5h86q5 -1 9.5 -3.5t7.5 -9.5q20 -41 43 -104t45 -137t41 -148.5t33 -139t20 -108.5q3 -14 1.5 -18.5t-8.5 -4.5h-71q-5 0 -7 3t-5 15q-4 26 -11 61t-14 69q-1 6 -3.5 7.5t-8.5 1.5
h-230q-6 0 -8 -1.5t-4 -8.5q-7 -33 -14 -68t-11 -61q-2 -12 -4 -15t-8 -3h-71zM180 229h191q5 0 7 3t0 12q-19 74 -39.5 150.5t-46.5 143.5q-2 7 -8 7h-16q-5 0 -8 -7q-13 -35 -29 -85t-31 -105.5t-27 -107.5q-1 -4 0 -7.5t7 -3.5zM318 -89q0 -19 -8 -29.5t-33 -10.5
q-24 0 -33 10.5t-9 29.5t9 29t33 10q26 0 33.5 -10t7.5 -29z" />
    <glyph glyph-name="uni1EA1" unicode="&#x1ea1;" horiz-adv-x="478" 
d="M232 -8q-50 0 -92.5 11.5t-68.5 43.5t-26 93q0 51 18 84t47 50.5t61 24.5t60 7q27 0 53.5 -2.5t43.5 -5.5q13 -3 13 17q0 53 -27.5 75t-83.5 22q-38 0 -72.5 -12.5t-56.5 -25.5q-8 -4 -11 -3t-4 8l-7 43q-1 9 0.5 12t7.5 7q24 16 62 26t83 10q65 0 103.5 -15t58 -40.5
t26 -58t7.5 -68.5q0 -48 -0.5 -89.5t-2 -81.5t-5.5 -82q-2 -9 -6.5 -14.5t-17.5 -11.5q-14 -6 -35.5 -10.5t-44.5 -7.5t-45 -4.5t-38 -1.5zM237 50q9 0 23.5 1.5t30 5t26.5 9.5t13 15q3 28 5 65t1 69q0 17 -12 22q-13 5 -38.5 7.5t-52.5 2.5q-14 0 -31 -4t-33 -15t-26 -32.5
t-10 -55.5q0 -30 13 -50t36.5 -30t54.5 -10zM278 -89q0 -19 -8 -29.5t-33 -10.5q-24 0 -33 10.5t-9 29.5t9 29t33 10q26 0 33.5 -10t7.5 -29z" />
    <glyph glyph-name="uni1EA2" unicode="&#x1ea2;" horiz-adv-x="552" 
d="M41 0q-7 0 -8 4.5t1 17.5q6 47 20 112t33 138.5t41 147t45 136t44 104.5q3 6 7 9.5t9 3.5h86q5 -1 9.5 -3.5t7.5 -9.5q20 -41 43 -104t45 -137t41 -148.5t33 -139t20 -108.5q3 -14 1.5 -18.5t-8.5 -4.5h-71q-5 0 -7 3t-5 15q-4 26 -11 61t-14 69q-1 6 -3.5 7.5t-8.5 1.5
h-230q-6 0 -8 -1.5t-4 -8.5q-7 -33 -14 -68t-11 -61q-2 -12 -4 -15t-8 -3h-71zM180 229h191q5 0 7 3t0 12q-19 74 -39.5 150.5t-46.5 143.5q-2 7 -8 7h-16q-5 0 -8 -7q-13 -35 -29 -85t-31 -105.5t-27 -107.5q-1 -4 0 -7.5t7 -3.5zM255 712q-2 0 -4 2t-2 4q0 18 7.5 26.5
t14.5 12.5q7 7 14.5 12.5t7.5 15.5q0 18 -23 18q-10 0 -18.5 -3.5t-17.5 -10.5q-7 -5 -10 1l-16 24q-2 3 -1 5t3 3q10 10 29.5 17.5t41.5 7.5q31 0 48 -16.5t17 -43.5q0 -23 -11 -33.5t-21 -15.5q-7 -4 -12 -7.5t-5 -12.5q0 -6 -6 -6h-36z" />
    <glyph glyph-name="uni1EA3" unicode="&#x1ea3;" horiz-adv-x="478" 
d="M232 -8q-50 0 -92.5 11.5t-68.5 43.5t-26 93q0 51 18 84t47 50.5t61 24.5t60 7q27 0 53.5 -2.5t43.5 -5.5q13 -3 13 17q0 53 -27.5 75t-83.5 22q-38 0 -72.5 -12.5t-56.5 -25.5q-8 -4 -11 -3t-4 8l-7 43q-1 9 0.5 12t7.5 7q24 16 62 26t83 10q65 0 103.5 -15t58 -40.5
t26 -58t7.5 -68.5q0 -48 -0.5 -89.5t-2 -81.5t-5.5 -82q-2 -9 -6.5 -14.5t-17.5 -11.5q-14 -6 -35.5 -10.5t-44.5 -7.5t-45 -4.5t-38 -1.5zM237 50q9 0 23.5 1.5t30 5t26.5 9.5t13 15q3 28 5 65t1 69q0 17 -12 22q-13 5 -38.5 7.5t-52.5 2.5q-14 0 -31 -4t-33 -15t-26 -32.5
t-10 -55.5q0 -30 13 -50t36.5 -30t54.5 -10zM229 522q-3 0 -5 2.5t-2 4.5q0 16 7 25t14 13q8 7 15.5 12.5t7.5 15.5q0 17 -23 17q-10 0 -17.5 -3t-16.5 -10q-7 -5 -11 1l-17 25q-3 5 2 9q9 9 29 17t44 8q31 0 48 -17t17 -45q0 -23 -11 -33.5t-21 -15.5q-6 -4 -10.5 -7.5
t-4.5 -11.5q0 -7 -8 -7h-37z" />
    <glyph glyph-name="uni1EA4" unicode="&#x1ea4;" horiz-adv-x="552" 
d="M41 0q-7 0 -8 4.5t1 17.5q6 47 20 112t33 138.5t41 147t45 136t44 104.5q3 6 7 9.5t9 3.5h86q5 -1 9.5 -3.5t7.5 -9.5q20 -41 43 -104t45 -137t41 -148.5t33 -139t20 -108.5q3 -14 1.5 -18.5t-8.5 -4.5h-71q-5 0 -7 3t-5 15q-4 26 -11 61t-14 69q-1 6 -3.5 7.5t-8.5 1.5
h-230q-6 0 -8 -1.5t-4 -8.5q-7 -33 -14 -68t-11 -61q-2 -12 -4 -15t-8 -3h-71zM180 229h191q5 0 7 3t0 12q-19 74 -39.5 150.5t-46.5 143.5q-2 7 -8 7h-16q-5 0 -8 -7q-13 -35 -29 -85t-31 -105.5t-27 -107.5q-1 -4 0 -7.5t7 -3.5zM175 717q-4 0 -4.5 2.5t0.5 5.5l72 80
q4 5 8 5h49q5 0 9 -5l72 -80q2 -3 1 -5.5t-5 -2.5h-39q-4 0 -7 1.5t-7 4.5l-42 37q-5 4 -10 0l-44 -38q-3 -2 -5.5 -3.5t-6.5 -1.5h-41zM427 773h-45q-6 0 -6 3.5t4 7.5l64 71q4 5 7 7t10 2h69q3 0 5 -3.5t-1 -5.5l-90 -74q-5 -3 -8.5 -5.5t-8.5 -2.5z" />
    <glyph glyph-name="uni1EA5" unicode="&#x1ea5;" horiz-adv-x="478" 
d="M232 -8q-50 0 -92.5 11.5t-68.5 43.5t-26 93q0 51 18 84t47 50.5t61 24.5t60 7q27 0 53.5 -2.5t43.5 -5.5q13 -3 13 17q0 53 -27.5 75t-83.5 22q-38 0 -72.5 -12.5t-56.5 -25.5q-8 -4 -11 -3t-4 8l-7 43q-1 9 0.5 12t7.5 7q24 16 62 26t83 10q65 0 103.5 -15t58 -40.5
t26 -58t7.5 -68.5q0 -48 -0.5 -89.5t-2 -81.5t-5.5 -82q-2 -9 -6.5 -14.5t-17.5 -11.5q-14 -6 -35.5 -10.5t-44.5 -7.5t-45 -4.5t-38 -1.5zM237 50q9 0 23.5 1.5t30 5t26.5 9.5t13 15q3 28 5 65t1 69q0 17 -12 22q-13 5 -38.5 7.5t-52.5 2.5q-14 0 -31 -4t-33 -15t-26 -32.5
t-10 -55.5q0 -30 13 -50t36.5 -30t54.5 -10zM149 528q-3 0 -4 2.5t1 4.5l70 93q2 4 7 4h46q5 0 7 -4l69 -93q2 -2 1.5 -4.5t-4.5 -2.5h-42q-4 0 -7 3l-44 46q-4 5 -8 0l-43 -46q-2 -3 -7 -3h-42zM343 577q-7 0 -7 2.5t4 8.5l58 90q4 6 16 6h60q5 0 6.5 -2.5t-3.5 -7.5
l-76 -92q-3 -3 -6 -4t-8 -1h-44z" />
    <glyph glyph-name="uni1EA6" unicode="&#x1ea6;" horiz-adv-x="552" 
d="M41 0q-7 0 -8 4.5t1 17.5q6 47 20 112t33 138.5t41 147t45 136t44 104.5q3 6 7 9.5t9 3.5h86q5 -1 9.5 -3.5t7.5 -9.5q20 -41 43 -104t45 -137t41 -148.5t33 -139t20 -108.5q3 -14 1.5 -18.5t-8.5 -4.5h-71q-5 0 -7 3t-5 15q-4 26 -11 61t-14 69q-1 6 -3.5 7.5t-8.5 1.5
h-230q-6 0 -8 -1.5t-4 -8.5q-7 -33 -14 -68t-11 -61q-2 -12 -4 -15t-8 -3h-71zM180 229h191q5 0 7 3t0 12q-19 74 -39.5 150.5t-46.5 143.5q-2 7 -8 7h-16q-5 0 -8 -7q-13 -35 -29 -85t-31 -105.5t-27 -107.5q-1 -4 0 -7.5t7 -3.5zM175 717q-4 0 -4.5 2.5t0.5 5.5l72 80
q4 5 8 5h49q5 0 9 -5l72 -80q2 -3 1 -5.5t-5 -2.5h-39q-4 0 -7 1.5t-7 4.5l-42 37q-5 4 -10 0l-44 -38q-3 -2 -5.5 -3.5t-6.5 -1.5h-41zM420 780q-5 0 -8 2.5t-9 5.5l-90 74q-2 2 -0.5 5.5t4.5 3.5h69q7 0 10 -2t7 -7l64 -71q4 -4 4 -7.5t-6 -3.5h-45z" />
    <glyph glyph-name="uni1EA7" unicode="&#x1ea7;" horiz-adv-x="478" 
d="M232 -8q-50 0 -92.5 11.5t-68.5 43.5t-26 93q0 51 18 84t47 50.5t61 24.5t60 7q27 0 53.5 -2.5t43.5 -5.5q13 -3 13 17q0 53 -27.5 75t-83.5 22q-38 0 -72.5 -12.5t-56.5 -25.5q-8 -4 -11 -3t-4 8l-7 43q-1 9 0.5 12t7.5 7q24 16 62 26t83 10q65 0 103.5 -15t58 -40.5
t26 -58t7.5 -68.5q0 -48 -0.5 -89.5t-2 -81.5t-5.5 -82q-2 -9 -6.5 -14.5t-17.5 -11.5q-14 -6 -35.5 -10.5t-44.5 -7.5t-45 -4.5t-38 -1.5zM237 50q9 0 23.5 1.5t30 5t26.5 9.5t13 15q3 28 5 65t1 69q0 17 -12 22q-13 5 -38.5 7.5t-52.5 2.5q-14 0 -31 -4t-33 -15t-26 -32.5
t-10 -55.5q0 -30 13 -50t36.5 -30t54.5 -10zM149 528q-3 0 -4 2.5t1 4.5l70 93q2 4 7 4h46q5 0 7 -4l69 -93q2 -2 1.5 -4.5t-4.5 -2.5h-42q-4 0 -7 3l-44 46q-4 5 -8 0l-43 -46q-2 -3 -7 -3h-42zM381 578q-9 0 -17 8l-77 89q-2 3 -0.5 6t4.5 3h69q7 0 10.5 -1.5t6.5 -7.5
l50 -87q7 -10 -2 -10h-44z" />
    <glyph glyph-name="uni1EA8" unicode="&#x1ea8;" horiz-adv-x="552" 
d="M41 0q-7 0 -8 4.5t1 17.5q6 47 20 112t33 138.5t41 147t45 136t44 104.5q3 6 7 9.5t9 3.5h86q5 -1 9.5 -3.5t7.5 -9.5q20 -41 43 -104t45 -137t41 -148.5t33 -139t20 -108.5q3 -14 1.5 -18.5t-8.5 -4.5h-71q-5 0 -7 3t-5 15q-4 26 -11 61t-14 69q-1 6 -3.5 7.5t-8.5 1.5
h-230q-6 0 -8 -1.5t-4 -8.5q-7 -33 -14 -68t-11 -61q-2 -12 -4 -15t-8 -3h-71zM180 229h191q5 0 7 3t0 12q-19 74 -39.5 150.5t-46.5 143.5q-2 7 -8 7h-16q-5 0 -8 -7q-13 -35 -29 -85t-31 -105.5t-27 -107.5q-1 -4 0 -7.5t7 -3.5zM175 717q-4 0 -4.5 2.5t0.5 5.5l72 80
q4 5 8 5h49q5 0 9 -5l72 -80q2 -3 1 -5.5t-5 -2.5h-39q-4 0 -7 1.5t-7 4.5l-42 37q-5 4 -10 0l-44 -38q-3 -2 -5.5 -3.5t-6.5 -1.5h-41zM410 767q-2 0 -4 2t-2 4q0 18 7.5 26.5t14.5 12.5q7 7 14.5 12.5t7.5 15.5q0 18 -23 18q-10 0 -18.5 -3.5t-17.5 -10.5q-7 -5 -10 1
l-16 24q-2 3 -1 5t3 3q10 10 29.5 17.5t41.5 7.5q31 0 48 -16.5t17 -43.5q0 -23 -11 -33.5t-21 -15.5q-7 -4 -12 -7.5t-5 -12.5q0 -6 -6 -6h-36z" />
    <glyph glyph-name="uni1EA9" unicode="&#x1ea9;" horiz-adv-x="478" 
d="M232 -8q-50 0 -92.5 11.5t-68.5 43.5t-26 93q0 51 18 84t47 50.5t61 24.5t60 7q27 0 53.5 -2.5t43.5 -5.5q13 -3 13 17q0 53 -27.5 75t-83.5 22q-38 0 -72.5 -12.5t-56.5 -25.5q-8 -4 -11 -3t-4 8l-7 43q-1 9 0.5 12t7.5 7q24 16 62 26t83 10q65 0 103.5 -15t58 -40.5
t26 -58t7.5 -68.5q0 -48 -0.5 -89.5t-2 -81.5t-5.5 -82q-2 -9 -6.5 -14.5t-17.5 -11.5q-14 -6 -35.5 -10.5t-44.5 -7.5t-45 -4.5t-38 -1.5zM237 50q9 0 23.5 1.5t30 5t26.5 9.5t13 15q3 28 5 65t1 69q0 17 -12 22q-13 5 -38.5 7.5t-52.5 2.5q-14 0 -31 -4t-33 -15t-26 -32.5
t-10 -55.5q0 -30 13 -50t36.5 -30t54.5 -10zM149 528q-3 0 -4 2.5t1 4.5l70 93q2 4 7 4h46q5 0 7 -4l69 -93q2 -2 1.5 -4.5t-4.5 -2.5h-42q-4 0 -7 3l-44 46q-4 5 -8 0l-43 -46q-2 -3 -7 -3h-42zM365 571q-3 0 -5 2.5t-2 4.5q0 16 7 25t14 13q8 7 15.5 12.5t7.5 15.5
q0 17 -23 17q-10 0 -17.5 -3t-16.5 -10q-7 -5 -11 1l-17 25q-3 5 2 9q9 9 29 17t44 8q31 0 48 -17t17 -45q0 -23 -11 -33.5t-21 -15.5q-6 -4 -10.5 -7.5t-4.5 -11.5q0 -7 -8 -7h-37z" />
    <glyph glyph-name="uni1EAA" unicode="&#x1eaa;" horiz-adv-x="552" 
d="M41 0q-7 0 -8 4.5t1 17.5q6 47 20 112t33 138.5t41 147t45 136t44 104.5q3 6 7 9.5t9 3.5h86q5 -1 9.5 -3.5t7.5 -9.5q20 -41 43 -104t45 -137t41 -148.5t33 -139t20 -108.5q3 -14 1.5 -18.5t-8.5 -4.5h-71q-5 0 -7 3t-5 15q-4 26 -11 61t-14 69q-1 6 -3.5 7.5t-8.5 1.5
h-230q-6 0 -8 -1.5t-4 -8.5q-7 -33 -14 -68t-11 -61q-2 -12 -4 -15t-8 -3h-71zM180 229h191q5 0 7 3t0 12q-19 74 -39.5 150.5t-46.5 143.5q-2 7 -8 7h-16q-5 0 -8 -7q-13 -35 -29 -85t-31 -105.5t-27 -107.5q-1 -4 0 -7.5t7 -3.5zM175 717q-4 0 -4.5 2.5t0.5 5.5l72 80
q4 5 8 5h49q5 0 9 -5l72 -80q2 -3 1 -5.5t-5 -2.5h-39q-4 0 -7 1.5t-7 4.5l-42 37q-5 4 -10 0l-44 -38q-3 -2 -5.5 -3.5t-6.5 -1.5h-41zM185 832q-5 0 -5 6q0 33 16.5 54t44.5 21q15 0 30 -9.5t27.5 -19t20.5 -9.5q6 0 10.5 6.5t4.5 17.5q0 7 4 7h37q6 0 6 -7q0 -29 -17 -51
t-44 -22q-18 0 -32.5 9.5t-25.5 18.5t-20 9q-7 0 -11.5 -7t-4.5 -18q0 -6 -5 -6h-36z" />
    <glyph glyph-name="uni1EAB" unicode="&#x1eab;" horiz-adv-x="478" 
d="M232 -8q-50 0 -92.5 11.5t-68.5 43.5t-26 93q0 51 18 84t47 50.5t61 24.5t60 7q27 0 53.5 -2.5t43.5 -5.5q13 -3 13 17q0 53 -27.5 75t-83.5 22q-38 0 -72.5 -12.5t-56.5 -25.5q-8 -4 -11 -3t-4 8l-7 43q-1 9 0.5 12t7.5 7q24 16 62 26t83 10q65 0 103.5 -15t58 -40.5
t26 -58t7.5 -68.5q0 -48 -0.5 -89.5t-2 -81.5t-5.5 -82q-2 -9 -6.5 -14.5t-17.5 -11.5q-14 -6 -35.5 -10.5t-44.5 -7.5t-45 -4.5t-38 -1.5zM237 50q9 0 23.5 1.5t30 5t26.5 9.5t13 15q3 28 5 65t1 69q0 17 -12 22q-13 5 -38.5 7.5t-52.5 2.5q-14 0 -31 -4t-33 -15t-26 -32.5
t-10 -55.5q0 -30 13 -50t36.5 -30t54.5 -10zM149 528q-3 0 -4 2.5t1 4.5l70 93q2 4 7 4h46q5 0 7 -4l69 -93q2 -2 1.5 -4.5t-4.5 -2.5h-42q-4 0 -7 3l-44 46q-4 5 -8 0l-43 -46q-2 -3 -7 -3h-42zM150 659q-5 0 -5 6q0 32 16.5 51t46.5 19q15 0 30 -8.5t28.5 -17t21.5 -8.5
q6 0 10.5 6t4.5 15q0 7 5 7h38q6 0 6 -6q0 -29 -17.5 -49.5t-45.5 -20.5q-19 0 -34 9t-26.5 17t-19.5 8t-12.5 -6t-4.5 -16q0 -6 -5 -6h-37z" />
    <glyph glyph-name="uni1EAC" unicode="&#x1eac;" horiz-adv-x="552" 
d="M41 0q-7 0 -8 4.5t1 17.5q6 47 20 112t33 138.5t41 147t45 136t44 104.5q3 6 7 9.5t9 3.5h86q5 -1 9.5 -3.5t7.5 -9.5q20 -41 43 -104t45 -137t41 -148.5t33 -139t20 -108.5q3 -14 1.5 -18.5t-8.5 -4.5h-71q-5 0 -7 3t-5 15q-4 26 -11 61t-14 69q-1 6 -3.5 7.5t-8.5 1.5
h-230q-6 0 -8 -1.5t-4 -8.5q-7 -33 -14 -68t-11 -61q-2 -12 -4 -15t-8 -3h-71zM180 229h191q5 0 7 3t0 12q-19 74 -39.5 150.5t-46.5 143.5q-2 7 -8 7h-16q-5 0 -8 -7q-13 -35 -29 -85t-31 -105.5t-27 -107.5q-1 -4 0 -7.5t7 -3.5zM318 -89q0 -19 -8 -29.5t-33 -10.5
q-24 0 -33 10.5t-9 29.5t9 29t33 10q26 0 33.5 -10t7.5 -29zM175 717q-4 0 -4.5 2.5t0.5 5.5l72 80q4 5 8 5h49q5 0 9 -5l72 -80q2 -3 1 -5.5t-5 -2.5h-39q-4 0 -7 1.5t-7 4.5l-42 37q-5 4 -10 0l-44 -38q-3 -2 -5.5 -3.5t-6.5 -1.5h-41z" />
    <glyph glyph-name="uni1EAD" unicode="&#x1ead;" horiz-adv-x="478" 
d="M232 -8q-50 0 -92.5 11.5t-68.5 43.5t-26 93q0 51 18 84t47 50.5t61 24.5t60 7q27 0 53.5 -2.5t43.5 -5.5q13 -3 13 17q0 53 -27.5 75t-83.5 22q-38 0 -72.5 -12.5t-56.5 -25.5q-8 -4 -11 -3t-4 8l-7 43q-1 9 0.5 12t7.5 7q24 16 62 26t83 10q65 0 103.5 -15t58 -40.5
t26 -58t7.5 -68.5q0 -48 -0.5 -89.5t-2 -81.5t-5.5 -82q-2 -9 -6.5 -14.5t-17.5 -11.5q-14 -6 -35.5 -10.5t-44.5 -7.5t-45 -4.5t-38 -1.5zM237 50q9 0 23.5 1.5t30 5t26.5 9.5t13 15q3 28 5 65t1 69q0 17 -12 22q-13 5 -38.5 7.5t-52.5 2.5q-14 0 -31 -4t-33 -15t-26 -32.5
t-10 -55.5q0 -30 13 -50t36.5 -30t54.5 -10zM278 -89q0 -19 -8 -29.5t-33 -10.5q-24 0 -33 10.5t-9 29.5t9 29t33 10q26 0 33.5 -10t7.5 -29zM149 528q-3 0 -4 2.5t1 4.5l70 93q2 4 7 4h46q5 0 7 -4l69 -93q2 -2 1.5 -4.5t-4.5 -2.5h-42q-4 0 -7 3l-44 46q-4 5 -8 0l-43 -46
q-2 -3 -7 -3h-42z" />
    <glyph glyph-name="uni1EAE" unicode="&#x1eae;" horiz-adv-x="552" 
d="M41 0q-7 0 -8 4.5t1 17.5q6 47 20 112t33 138.5t41 147t45 136t44 104.5q3 6 7 9.5t9 3.5h86q5 -1 9.5 -3.5t7.5 -9.5q20 -41 43 -104t45 -137t41 -148.5t33 -139t20 -108.5q3 -14 1.5 -18.5t-8.5 -4.5h-71q-5 0 -7 3t-5 15q-4 26 -11 61t-14 69q-1 6 -3.5 7.5t-8.5 1.5
h-230q-6 0 -8 -1.5t-4 -8.5q-7 -33 -14 -68t-11 -61q-2 -12 -4 -15t-8 -3h-71zM180 229h191q5 0 7 3t0 12q-19 74 -39.5 150.5t-46.5 143.5q-2 7 -8 7h-16q-5 0 -8 -7q-13 -35 -29 -85t-31 -105.5t-27 -107.5q-1 -4 0 -7.5t7 -3.5zM277 713q-46 0 -70 21t-25 61q0 7 1.5 9
t7.5 2h33q6 0 7.5 -1t1.5 -7q1 -20 12.5 -29.5t31.5 -9.5q19 0 31 9.5t12 30.5q0 5 2.5 6t4.5 1h36q4 0 5.5 -1.5t1.5 -9.5q0 -39 -23 -60.5t-70 -21.5zM273 851h-45q-6 0 -6 3.5t4 7.5l64 71q4 5 7 7t10 2h69q3 0 5 -3.5t-1 -5.5l-90 -74q-5 -3 -8.5 -5.5t-8.5 -2.5z" />
    <glyph glyph-name="uni1EAF" unicode="&#x1eaf;" horiz-adv-x="478" 
d="M232 -8q-50 0 -92.5 11.5t-68.5 43.5t-26 93q0 51 18 84t47 50.5t61 24.5t60 7q27 0 53.5 -2.5t43.5 -5.5q13 -3 13 17q0 53 -27.5 75t-83.5 22q-38 0 -72.5 -12.5t-56.5 -25.5q-8 -4 -11 -3t-4 8l-7 43q-1 9 0.5 12t7.5 7q24 16 62 26t83 10q65 0 103.5 -15t58 -40.5
t26 -58t7.5 -68.5q0 -48 -0.5 -89.5t-2 -81.5t-5.5 -82q-2 -9 -6.5 -14.5t-17.5 -11.5q-14 -6 -35.5 -10.5t-44.5 -7.5t-45 -4.5t-38 -1.5zM237 50q9 0 23.5 1.5t30 5t26.5 9.5t13 15q3 28 5 65t1 69q0 17 -12 22q-13 5 -38.5 7.5t-52.5 2.5q-14 0 -31 -4t-33 -15t-26 -32.5
t-10 -55.5q0 -30 13 -50t36.5 -30t54.5 -10zM247 524q-50 0 -76.5 21.5t-27.5 62.5q0 9 1 11.5t9 2.5h37q7 0 8.5 -1.5t1.5 -7.5q2 -20 14 -29t33 -9t33.5 9t12.5 29q0 6 2 7.5t7 1.5h39q6 0 7.5 -2.5t1.5 -11.5q-1 -39 -26 -61.5t-77 -22.5zM207 647q-7 0 -7 2.5t4 8.5
l58 90q4 6 16 6h60q5 0 6.5 -2.5t-3.5 -7.5l-76 -92q-3 -3 -6 -4t-8 -1h-44z" />
    <glyph glyph-name="uni1EB0" unicode="&#x1eb0;" horiz-adv-x="552" 
d="M41 0q-7 0 -8 4.5t1 17.5q6 47 20 112t33 138.5t41 147t45 136t44 104.5q3 6 7 9.5t9 3.5h86q5 -1 9.5 -3.5t7.5 -9.5q20 -41 43 -104t45 -137t41 -148.5t33 -139t20 -108.5q3 -14 1.5 -18.5t-8.5 -4.5h-71q-5 0 -7 3t-5 15q-4 26 -11 61t-14 69q-1 6 -3.5 7.5t-8.5 1.5
h-230q-6 0 -8 -1.5t-4 -8.5q-7 -33 -14 -68t-11 -61q-2 -12 -4 -15t-8 -3h-71zM180 229h191q5 0 7 3t0 12q-19 74 -39.5 150.5t-46.5 143.5q-2 7 -8 7h-16q-5 0 -8 -7q-13 -35 -29 -85t-31 -105.5t-27 -107.5q-1 -4 0 -7.5t7 -3.5zM277 713q-46 0 -70 21t-25 61q0 7 1.5 9
t7.5 2h33q6 0 7.5 -1t1.5 -7q1 -20 12.5 -29.5t31.5 -9.5q19 0 31 9.5t12 30.5q0 5 2.5 6t4.5 1h36q4 0 5.5 -1.5t1.5 -9.5q0 -39 -23 -60.5t-70 -21.5zM278 851q-5 0 -8 2.5t-9 5.5l-90 74q-2 2 -0.5 5.5t4.5 3.5h69q7 0 10 -2t7 -7l64 -71q4 -4 4 -7.5t-6 -3.5h-45z" />
    <glyph glyph-name="uni1EB1" unicode="&#x1eb1;" horiz-adv-x="478" 
d="M232 -8q-50 0 -92.5 11.5t-68.5 43.5t-26 93q0 51 18 84t47 50.5t61 24.5t60 7q27 0 53.5 -2.5t43.5 -5.5q13 -3 13 17q0 53 -27.5 75t-83.5 22q-38 0 -72.5 -12.5t-56.5 -25.5q-8 -4 -11 -3t-4 8l-7 43q-1 9 0.5 12t7.5 7q24 16 62 26t83 10q65 0 103.5 -15t58 -40.5
t26 -58t7.5 -68.5q0 -48 -0.5 -89.5t-2 -81.5t-5.5 -82q-2 -9 -6.5 -14.5t-17.5 -11.5q-14 -6 -35.5 -10.5t-44.5 -7.5t-45 -4.5t-38 -1.5zM237 50q9 0 23.5 1.5t30 5t26.5 9.5t13 15q3 28 5 65t1 69q0 17 -12 22q-13 5 -38.5 7.5t-52.5 2.5q-14 0 -31 -4t-33 -15t-26 -32.5
t-10 -55.5q0 -30 13 -50t36.5 -30t54.5 -10zM247 524q-50 0 -76.5 21.5t-27.5 62.5q0 9 1 11.5t9 2.5h37q7 0 8.5 -1.5t1.5 -7.5q2 -20 14 -29t33 -9t33.5 9t12.5 29q0 6 2 7.5t7 1.5h39q6 0 7.5 -2.5t1.5 -11.5q-1 -39 -26 -61.5t-77 -22.5zM245 648q-9 0 -17 8l-77 89
q-2 3 -0.5 6t4.5 3h69q7 0 10.5 -1.5t6.5 -7.5l50 -87q7 -10 -2 -10h-44z" />
    <glyph glyph-name="uni1EB2" unicode="&#x1eb2;" horiz-adv-x="552" 
d="M41 0q-7 0 -8 4.5t1 17.5q6 47 20 112t33 138.5t41 147t45 136t44 104.5q3 6 7 9.5t9 3.5h86q5 -1 9.5 -3.5t7.5 -9.5q20 -41 43 -104t45 -137t41 -148.5t33 -139t20 -108.5q3 -14 1.5 -18.5t-8.5 -4.5h-71q-5 0 -7 3t-5 15q-4 26 -11 61t-14 69q-1 6 -3.5 7.5t-8.5 1.5
h-230q-6 0 -8 -1.5t-4 -8.5q-7 -33 -14 -68t-11 -61q-2 -12 -4 -15t-8 -3h-71zM180 229h191q5 0 7 3t0 12q-19 74 -39.5 150.5t-46.5 143.5q-2 7 -8 7h-16q-5 0 -8 -7q-13 -35 -29 -85t-31 -105.5t-27 -107.5q-1 -4 0 -7.5t7 -3.5zM277 713q-46 0 -70 21t-25 61q0 7 1.5 9
t7.5 2h33q6 0 7.5 -1t1.5 -7q1 -20 12.5 -29.5t31.5 -9.5q19 0 31 9.5t12 30.5q0 5 2.5 6t4.5 1h36q4 0 5.5 -1.5t1.5 -9.5q0 -39 -23 -60.5t-70 -21.5zM255 845q-2 0 -4 2t-2 4q0 18 7.5 26.5t14.5 12.5q7 7 14.5 12.5t7.5 15.5q0 18 -23 18q-10 0 -18.5 -3.5t-17.5 -10.5
q-7 -5 -10 1l-16 24q-2 3 -1 5t3 3q10 10 29.5 17.5t41.5 7.5q31 0 48 -16.5t17 -43.5q0 -23 -11 -33.5t-21 -15.5q-7 -4 -12 -7.5t-5 -12.5q0 -6 -6 -6h-36z" />
    <glyph glyph-name="uni1EB3" unicode="&#x1eb3;" horiz-adv-x="478" 
d="M232 -8q-50 0 -92.5 11.5t-68.5 43.5t-26 93q0 51 18 84t47 50.5t61 24.5t60 7q27 0 53.5 -2.5t43.5 -5.5q13 -3 13 17q0 53 -27.5 75t-83.5 22q-38 0 -72.5 -12.5t-56.5 -25.5q-8 -4 -11 -3t-4 8l-7 43q-1 9 0.5 12t7.5 7q24 16 62 26t83 10q65 0 103.5 -15t58 -40.5
t26 -58t7.5 -68.5q0 -48 -0.5 -89.5t-2 -81.5t-5.5 -82q-2 -9 -6.5 -14.5t-17.5 -11.5q-14 -6 -35.5 -10.5t-44.5 -7.5t-45 -4.5t-38 -1.5zM237 50q9 0 23.5 1.5t30 5t26.5 9.5t13 15q3 28 5 65t1 69q0 17 -12 22q-13 5 -38.5 7.5t-52.5 2.5q-14 0 -31 -4t-33 -15t-26 -32.5
t-10 -55.5q0 -30 13 -50t36.5 -30t54.5 -10zM247 524q-50 0 -76.5 21.5t-27.5 62.5q0 9 1 11.5t9 2.5h37q7 0 8.5 -1.5t1.5 -7.5q2 -20 14 -29t33 -9t33.5 9t12.5 29q0 6 2 7.5t7 1.5h39q6 0 7.5 -2.5t1.5 -11.5q-1 -39 -26 -61.5t-77 -22.5zM229 641q-3 0 -5 2.5t-2 4.5
q0 16 7 25t14 13q8 7 15.5 12.5t7.5 15.5q0 17 -23 17q-10 0 -17.5 -3t-16.5 -10q-7 -5 -11 1l-17 25q-3 5 2 9q9 9 29 17t44 8q31 0 48 -17t17 -45q0 -23 -11 -33.5t-21 -15.5q-6 -4 -10.5 -7.5t-4.5 -11.5q0 -7 -8 -7h-37z" />
    <glyph glyph-name="uni1EB4" unicode="&#x1eb4;" horiz-adv-x="552" 
d="M41 0q-7 0 -8 4.5t1 17.5q6 47 20 112t33 138.5t41 147t45 136t44 104.5q3 6 7 9.5t9 3.5h86q5 -1 9.5 -3.5t7.5 -9.5q20 -41 43 -104t45 -137t41 -148.5t33 -139t20 -108.5q3 -14 1.5 -18.5t-8.5 -4.5h-71q-5 0 -7 3t-5 15q-4 26 -11 61t-14 69q-1 6 -3.5 7.5t-8.5 1.5
h-230q-6 0 -8 -1.5t-4 -8.5q-7 -33 -14 -68t-11 -61q-2 -12 -4 -15t-8 -3h-71zM180 229h191q5 0 7 3t0 12q-19 74 -39.5 150.5t-46.5 143.5q-2 7 -8 7h-16q-5 0 -8 -7q-13 -35 -29 -85t-31 -105.5t-27 -107.5q-1 -4 0 -7.5t7 -3.5zM277 713q-46 0 -70 21t-25 61q0 7 1.5 9
t7.5 2h33q6 0 7.5 -1t1.5 -7q1 -20 12.5 -29.5t31.5 -9.5q19 0 31 9.5t12 30.5q0 5 2.5 6t4.5 1h36q4 0 5.5 -1.5t1.5 -9.5q0 -39 -23 -60.5t-70 -21.5zM181 852q-5 0 -5 6q0 33 16.5 54t44.5 21q15 0 30 -9.5t27.5 -19t20.5 -9.5q6 0 10.5 6.5t4.5 17.5q0 7 4 7h37
q6 0 6 -7q0 -29 -17 -51t-44 -22q-18 0 -32.5 9.5t-25.5 18.5t-20 9q-7 0 -11.5 -7t-4.5 -18q0 -6 -5 -6h-36z" />
    <glyph glyph-name="uni1EB5" unicode="&#x1eb5;" horiz-adv-x="478" 
d="M232 -8q-50 0 -92.5 11.5t-68.5 43.5t-26 93q0 51 18 84t47 50.5t61 24.5t60 7q27 0 53.5 -2.5t43.5 -5.5q13 -3 13 17q0 53 -27.5 75t-83.5 22q-38 0 -72.5 -12.5t-56.5 -25.5q-8 -4 -11 -3t-4 8l-7 43q-1 9 0.5 12t7.5 7q24 16 62 26t83 10q65 0 103.5 -15t58 -40.5
t26 -58t7.5 -68.5q0 -48 -0.5 -89.5t-2 -81.5t-5.5 -82q-2 -9 -6.5 -14.5t-17.5 -11.5q-14 -6 -35.5 -10.5t-44.5 -7.5t-45 -4.5t-38 -1.5zM237 50q9 0 23.5 1.5t30 5t26.5 9.5t13 15q3 28 5 65t1 69q0 17 -12 22q-13 5 -38.5 7.5t-52.5 2.5q-14 0 -31 -4t-33 -15t-26 -32.5
t-10 -55.5q0 -30 13 -50t36.5 -30t54.5 -10zM247 524q-50 0 -76.5 21.5t-27.5 62.5q0 9 1 11.5t9 2.5h37q7 0 8.5 -1.5t1.5 -7.5q2 -20 14 -29t33 -9t33.5 9t12.5 29q0 6 2 7.5t7 1.5h39q6 0 7.5 -2.5t1.5 -11.5q-1 -39 -26 -61.5t-77 -22.5zM149 650q-5 0 -5 6
q0 32 16.5 51t46.5 19q15 0 30 -8.5t28.5 -17t21.5 -8.5q6 0 10.5 6t4.5 15q0 7 5 7h38q6 0 6 -6q0 -29 -17.5 -49.5t-45.5 -20.5q-19 0 -34 9t-26.5 17t-19.5 8t-12.5 -6t-4.5 -16q0 -6 -5 -6h-37z" />
    <glyph glyph-name="uni1EB6" unicode="&#x1eb6;" horiz-adv-x="552" 
d="M41 0q-7 0 -8 4.5t1 17.5q6 47 20 112t33 138.5t41 147t45 136t44 104.5q3 6 7 9.5t9 3.5h86q5 -1 9.5 -3.5t7.5 -9.5q20 -41 43 -104t45 -137t41 -148.5t33 -139t20 -108.5q3 -14 1.5 -18.5t-8.5 -4.5h-71q-5 0 -7 3t-5 15q-4 26 -11 61t-14 69q-1 6 -3.5 7.5t-8.5 1.5
h-230q-6 0 -8 -1.5t-4 -8.5q-7 -33 -14 -68t-11 -61q-2 -12 -4 -15t-8 -3h-71zM180 229h191q5 0 7 3t0 12q-19 74 -39.5 150.5t-46.5 143.5q-2 7 -8 7h-16q-5 0 -8 -7q-13 -35 -29 -85t-31 -105.5t-27 -107.5q-1 -4 0 -7.5t7 -3.5zM318 -89q0 -19 -8 -29.5t-33 -10.5
q-24 0 -33 10.5t-9 29.5t9 29t33 10q26 0 33.5 -10t7.5 -29zM277 713q-46 0 -70 21t-25 61q0 7 1.5 9t7.5 2h33q6 0 7.5 -1t1.5 -7q1 -20 12.5 -29.5t31.5 -9.5q19 0 31 9.5t12 30.5q0 5 2.5 6t4.5 1h36q4 0 5.5 -1.5t1.5 -9.5q0 -39 -23 -60.5t-70 -21.5z" />
    <glyph glyph-name="uni1EB7" unicode="&#x1eb7;" horiz-adv-x="478" 
d="M232 -8q-50 0 -92.5 11.5t-68.5 43.5t-26 93q0 51 18 84t47 50.5t61 24.5t60 7q27 0 53.5 -2.5t43.5 -5.5q13 -3 13 17q0 53 -27.5 75t-83.5 22q-38 0 -72.5 -12.5t-56.5 -25.5q-8 -4 -11 -3t-4 8l-7 43q-1 9 0.5 12t7.5 7q24 16 62 26t83 10q65 0 103.5 -15t58 -40.5
t26 -58t7.5 -68.5q0 -48 -0.5 -89.5t-2 -81.5t-5.5 -82q-2 -9 -6.5 -14.5t-17.5 -11.5q-14 -6 -35.5 -10.5t-44.5 -7.5t-45 -4.5t-38 -1.5zM237 50q9 0 23.5 1.5t30 5t26.5 9.5t13 15q3 28 5 65t1 69q0 17 -12 22q-13 5 -38.5 7.5t-52.5 2.5q-14 0 -31 -4t-33 -15t-26 -32.5
t-10 -55.5q0 -30 13 -50t36.5 -30t54.5 -10zM278 -89q0 -19 -8 -29.5t-33 -10.5q-24 0 -33 10.5t-9 29.5t9 29t33 10q26 0 33.5 -10t7.5 -29zM247 524q-50 0 -76.5 21.5t-27.5 62.5q0 9 1 11.5t9 2.5h37q7 0 8.5 -1.5t1.5 -7.5q2 -20 14 -29t33 -9t33.5 9t12.5 29q0 6 2 7.5
t7 1.5h39q6 0 7.5 -2.5t1.5 -11.5q-1 -39 -26 -61.5t-77 -22.5z" />
    <glyph glyph-name="uni1EB8" unicode="&#x1eb8;" horiz-adv-x="449" 
d="M85 0q-10 0 -10 9v655q0 9 10 9h321q8 0 9.5 -1.5t1.5 -8.5v-51q0 -8 -2 -9.5t-9 -1.5h-232q-5 0 -6 -1.5t-1 -6.5v-210q0 -5 1.5 -6.5t5.5 -1.5h187q8 0 9.5 -2t1.5 -11v-46q0 -8 -1.5 -10.5t-9.5 -2.5h-187q-5 0 -6 -1t-1 -6v-215q0 -5 1 -7t6 -2h230q10 0 11.5 -2
t1.5 -11v-46q0 -9 -2.5 -11t-10.5 -2h-319zM282 -89q0 -19 -8 -29.5t-33 -10.5q-24 0 -33 10.5t-9 29.5t9 29t33 10q26 0 33.5 -10t7.5 -29z" />
    <glyph glyph-name="uni1EB9" unicode="&#x1eb9;" horiz-adv-x="463" 
d="M38 237q0 47 9.5 90t32 77.5t61.5 54t100 19.5q63 0 100.5 -18t57 -48t25.5 -66t6 -72q0 -39 -8 -49.5t-24 -10.5h-261q-4 0 -7 -2t-3 -11q1 -41 15.5 -73t44 -50.5t73.5 -18.5q34 0 68 9.5t54 20.5q10 5 15.5 6t10.5 -10l16 -30q4 -7 2 -10.5t-10 -8.5
q-33 -21 -79.5 -31.5t-94.5 -10.5q-63 0 -102.5 18.5t-62 52t-31 77.5t-8.5 95zM340 288q0 34 -8.5 61t-30 43.5t-62.5 16.5q-30 0 -51 -11.5t-33.5 -29.5t-18.5 -39.5t-8 -41.5q-1 -12 0.5 -15.5t9.5 -3.5h187q9 0 12.5 3t2.5 17zM275 -89q0 -19 -8 -29.5t-33 -10.5
q-24 0 -33 10.5t-9 29.5t9 29t33 10q26 0 33.5 -10t7.5 -29z" />
    <glyph glyph-name="uni1EBA" unicode="&#x1eba;" horiz-adv-x="449" 
d="M85 0q-10 0 -10 9v655q0 9 10 9h321q8 0 9.5 -1.5t1.5 -8.5v-51q0 -8 -2 -9.5t-9 -1.5h-232q-5 0 -6 -1.5t-1 -6.5v-210q0 -5 1.5 -6.5t5.5 -1.5h187q8 0 9.5 -2t1.5 -11v-46q0 -8 -1.5 -10.5t-9.5 -2.5h-187q-5 0 -6 -1t-1 -6v-215q0 -5 1 -7t6 -2h230q10 0 11.5 -2
t1.5 -11v-46q0 -9 -2.5 -11t-10.5 -2h-319zM220 712q-2 0 -4 2t-2 4q0 18 7.5 26.5t14.5 12.5q7 7 14.5 12.5t7.5 15.5q0 18 -23 18q-10 0 -18.5 -3.5t-17.5 -10.5q-7 -5 -10 1l-16 24q-2 3 -1 5t3 3q10 10 29.5 17.5t41.5 7.5q31 0 48 -16.5t17 -43.5q0 -23 -11 -33.5
t-21 -15.5q-7 -4 -12 -7.5t-5 -12.5q0 -6 -6 -6h-36z" />
    <glyph glyph-name="uni1EBB" unicode="&#x1ebb;" horiz-adv-x="463" 
d="M38 237q0 47 9.5 90t32 77.5t61.5 54t100 19.5q63 0 100.5 -18t57 -48t25.5 -66t6 -72q0 -39 -8 -49.5t-24 -10.5h-261q-4 0 -7 -2t-3 -11q1 -41 15.5 -73t44 -50.5t73.5 -18.5q34 0 68 9.5t54 20.5q10 5 15.5 6t10.5 -10l16 -30q4 -7 2 -10.5t-10 -8.5
q-33 -21 -79.5 -31.5t-94.5 -10.5q-63 0 -102.5 18.5t-62 52t-31 77.5t-8.5 95zM340 288q0 34 -8.5 61t-30 43.5t-62.5 16.5q-30 0 -51 -11.5t-33.5 -29.5t-18.5 -39.5t-8 -41.5q-1 -12 0.5 -15.5t9.5 -3.5h187q9 0 12.5 3t2.5 17zM223 522q-3 0 -5 2.5t-2 4.5q0 16 7 25
t14 13q8 7 15.5 12.5t7.5 15.5q0 17 -23 17q-10 0 -17.5 -3t-16.5 -10q-7 -5 -11 1l-17 25q-3 5 2 9q9 9 29 17t44 8q31 0 48 -17t17 -45q0 -23 -11 -33.5t-21 -15.5q-6 -4 -10.5 -7.5t-4.5 -11.5q0 -7 -8 -7h-37z" />
    <glyph glyph-name="uni1EBC" unicode="&#x1ebc;" horiz-adv-x="449" 
d="M85 0q-10 0 -10 9v655q0 9 10 9h321q8 0 9.5 -1.5t1.5 -8.5v-51q0 -8 -2 -9.5t-9 -1.5h-232q-5 0 -6 -1.5t-1 -6.5v-210q0 -5 1.5 -6.5t5.5 -1.5h187q8 0 9.5 -2t1.5 -11v-46q0 -8 -1.5 -10.5t-9.5 -2.5h-187q-5 0 -6 -1t-1 -6v-215q0 -5 1 -7t6 -2h230q10 0 11.5 -2
t1.5 -11v-46q0 -9 -2.5 -11t-10.5 -2h-319zM145 719q-5 0 -5 6q0 33 16.5 54t44.5 21q15 0 30 -9.5t27.5 -19t20.5 -9.5q6 0 10.5 6.5t4.5 17.5q0 7 4 7h37q6 0 6 -7q0 -29 -17 -51t-44 -22q-18 0 -32.5 9.5t-25.5 18.5t-20 9q-7 0 -11.5 -7t-4.5 -18q0 -6 -5 -6h-36z" />
    <glyph glyph-name="uni1EBD" unicode="&#x1ebd;" horiz-adv-x="463" 
d="M38 237q0 47 9.5 90t32 77.5t61.5 54t100 19.5q63 0 100.5 -18t57 -48t25.5 -66t6 -72q0 -39 -8 -49.5t-24 -10.5h-261q-4 0 -7 -2t-3 -11q1 -41 15.5 -73t44 -50.5t73.5 -18.5q34 0 68 9.5t54 20.5q10 5 15.5 6t10.5 -10l16 -30q4 -7 2 -10.5t-10 -8.5
q-33 -21 -79.5 -31.5t-94.5 -10.5q-63 0 -102.5 18.5t-62 52t-31 77.5t-8.5 95zM340 288q0 34 -8.5 61t-30 43.5t-62.5 16.5q-30 0 -51 -11.5t-33.5 -29.5t-18.5 -39.5t-8 -41.5q-1 -12 0.5 -15.5t9.5 -3.5h187q9 0 12.5 3t2.5 17zM143 532q-5 0 -5 6q0 32 16.5 51t46.5 19
q15 0 30 -8.5t28.5 -17t21.5 -8.5q6 0 10.5 6t4.5 15q0 7 5 7h38q6 0 6 -6q0 -29 -17.5 -49.5t-45.5 -20.5q-19 0 -34 9t-26.5 17t-19.5 8t-12.5 -6t-4.5 -16q0 -6 -5 -6h-37z" />
    <glyph glyph-name="uni1EBE" unicode="&#x1ebe;" horiz-adv-x="449" 
d="M85 0q-10 0 -10 9v655q0 9 10 9h321q8 0 9.5 -1.5t1.5 -8.5v-51q0 -8 -2 -9.5t-9 -1.5h-232q-5 0 -6 -1.5t-1 -6.5v-210q0 -5 1.5 -6.5t5.5 -1.5h187q8 0 9.5 -2t1.5 -11v-46q0 -8 -1.5 -10.5t-9.5 -2.5h-187q-5 0 -6 -1t-1 -6v-215q0 -5 1 -7t6 -2h230q10 0 11.5 -2
t1.5 -11v-46q0 -9 -2.5 -11t-10.5 -2h-319zM140 717q-4 0 -4.5 2.5t0.5 5.5l72 80q4 5 8 5h49q5 0 9 -5l72 -80q2 -3 1 -5.5t-5 -2.5h-39q-4 0 -7 1.5t-7 4.5l-42 37q-5 4 -10 0l-44 -38q-3 -2 -5.5 -3.5t-6.5 -1.5h-41zM392 773h-45q-6 0 -6 3.5t4 7.5l64 71q4 5 7 7t10 2
h69q3 0 5 -3.5t-1 -5.5l-90 -74q-5 -3 -8.5 -5.5t-8.5 -2.5z" />
    <glyph glyph-name="uni1EBF" unicode="&#x1ebf;" horiz-adv-x="463" 
d="M38 237q0 47 9.5 90t32 77.5t61.5 54t100 19.5q63 0 100.5 -18t57 -48t25.5 -66t6 -72q0 -39 -8 -49.5t-24 -10.5h-261q-4 0 -7 -2t-3 -11q1 -41 15.5 -73t44 -50.5t73.5 -18.5q34 0 68 9.5t54 20.5q10 5 15.5 6t10.5 -10l16 -30q4 -7 2 -10.5t-10 -8.5
q-33 -21 -79.5 -31.5t-94.5 -10.5q-63 0 -102.5 18.5t-62 52t-31 77.5t-8.5 95zM340 288q0 34 -8.5 61t-30 43.5t-62.5 16.5q-30 0 -51 -11.5t-33.5 -29.5t-18.5 -39.5t-8 -41.5q-1 -12 0.5 -15.5t9.5 -3.5h187q9 0 12.5 3t2.5 17zM143 528q-3 0 -4 2.5t1 4.5l70 93q2 4 7 4
h46q5 0 7 -4l69 -93q2 -2 1.5 -4.5t-4.5 -2.5h-42q-4 0 -7 3l-44 46q-4 5 -8 0l-43 -46q-2 -3 -7 -3h-42zM337 577q-7 0 -7 2.5t4 8.5l58 90q4 6 16 6h60q5 0 6.5 -2.5t-3.5 -7.5l-76 -92q-3 -3 -6 -4t-8 -1h-44z" />
    <glyph glyph-name="uni1EC0" unicode="&#x1ec0;" horiz-adv-x="449" 
d="M85 0q-10 0 -10 9v655q0 9 10 9h321q8 0 9.5 -1.5t1.5 -8.5v-51q0 -8 -2 -9.5t-9 -1.5h-232q-5 0 -6 -1.5t-1 -6.5v-210q0 -5 1.5 -6.5t5.5 -1.5h187q8 0 9.5 -2t1.5 -11v-46q0 -8 -1.5 -10.5t-9.5 -2.5h-187q-5 0 -6 -1t-1 -6v-215q0 -5 1 -7t6 -2h230q10 0 11.5 -2
t1.5 -11v-46q0 -9 -2.5 -11t-10.5 -2h-319zM140 717q-4 0 -4.5 2.5t0.5 5.5l72 80q4 5 8 5h49q5 0 9 -5l72 -80q2 -3 1 -5.5t-5 -2.5h-39q-4 0 -7 1.5t-7 4.5l-42 37q-5 4 -10 0l-44 -38q-3 -2 -5.5 -3.5t-6.5 -1.5h-41zM385 780q-5 0 -8 2.5t-9 5.5l-90 74q-2 2 -0.5 5.5
t4.5 3.5h69q7 0 10 -2t7 -7l64 -71q4 -4 4 -7.5t-6 -3.5h-45z" />
    </font>
</defs>
</svg>
