<?xml version="1.0" standalone="no"?>
<!DOCTYPE svg PUBLIC "-//W3C//DTD SVG 1.1//EN" "http://www.w3.org/Graphics/SVG/1.1/DTD/svg11.dtd" >
<svg xmlns="http://www.w3.org/2000/svg" xmlns:xlink="http://www.w3.org/1999/xlink" version="1.1">
<metadata>
Created by FontForge 20201107 at Fri Jun 18 05:32:25 2021
 By 
Copyright 2016-2020 The Glory Project Authors (https://github.com/googlefonts/glory)
</metadata>
<defs>
<font id="Glory-ExtraBold" horiz-adv-x="0" >
  <font-face 
    font-family="Glory ExtraBold"
    font-weight="800"
    font-stretch="normal"
    units-per-em="1000"
    panose-1="0 0 0 0 0 0 0 0 0 0"
    ascent="800"
    descent="-200"
    x-height="472"
    cap-height="673"
    bbox="-81 -260 1152 1001"
    underline-thickness="50"
    underline-position="-125"
    unicode-range="U+000D-FB02"
  />
<missing-glyph horiz-adv-x="600" 
d="M98 0q-4 0 -4 4q-4 33 -7 85.5t-5 115.5t-2 129q0 67 2 131.5t5.5 118t7.5 85.5q0 4 4 4h402q4 0 4 -4q4 -32 7.5 -85.5t5.5 -118t2 -131.5q0 -66 -2 -129t-5 -115.5t-7 -85.5q0 -4 -4 -4h-404zM124 30h352q5 42 7 96.5t3 110t1 100.5q0 79 -4 158t-9 148h-348
q-6 -85 -9.5 -162.5t-3.5 -145.5q0 -47 0.5 -101t3 -107t7.5 -97zM170 80q-6 0 -5.5 2.5t1.5 3.5l231 502q3 6 9 6h19q8 0 2 -7l-228 -499q-4 -8 -11 -8h-18zM424 80h-18q-8 0 -11 8l-228 499q-6 7 2 7h19q6 0 9 -6l231 -502q1 -1 1.5 -3.5t-5.5 -2.5z" />
    <glyph glyph-name="fi" unicode="fi" horiz-adv-x="585" 
d="M86 19q-4 29 -7 72.5t-5.5 92.5t-3 94.5t-0.5 76.5q0 11 -9 11h-39q-8 0 -11.5 2t-3.5 13v74q0 14 3.5 15.5t14.5 1.5h38q5 0 6 2t1 10q0 59 7 92.5t27 61.5q26 36 72 55t115 19q31 0 58 -9.5t38 -14.5q17 -10 20.5 -15t1.5 -15l-21 -63q-4 -13 -8 -15t-12 3
q-15 10 -36.5 18t-44.5 7q-28 0 -50 -20.5t-22 -76.5v-14.5v-15.5q0 -6 1 -7.5t7 -1.5h115q11 0 13 -2.5t2 -16.5v-71q0 -11 -3 -13.5t-14 -2.5h-112q-7 0 -8.5 -2.5t-1.5 -7.5q0 -58 2 -115t4.5 -104.5t4.5 -79t2 -39.5q1 -12 -0.5 -15t-9.5 -3h-118q-5 0 -8 4t-5 15z
M558 601q0 -34 -15 -51.5t-61 -17.5q-44 0 -60.5 17.5t-16.5 51.5q0 29 16.5 47.5t60.5 18.5q49 0 62.5 -18.5t13.5 -47.5zM555 14q0 -14 -15 -14h-117q-14 0 -14 14v444q0 14 14 14h117q15 0 15 -14v-444z" />
    <glyph glyph-name="fl" unicode="fl" horiz-adv-x="597" 
d="M86 19q-4 29 -7 72.5t-5.5 92.5t-3 94.5t-0.5 76.5q0 11 -9 11h-39q-8 0 -11.5 2t-3.5 13v74q0 14 3.5 15.5t14.5 1.5h38q5 0 6 2t1 10q0 59 7 92.5t27 61.5q26 36 72 55t115 19q31 0 58 -9.5t38 -14.5q17 -10 20.5 -15t1.5 -15l-21 -63q-4 -13 -8 -15t-12 3
q-15 10 -36.5 18t-44.5 7q-28 0 -50 -20.5t-22 -76.5v-14.5v-15.5q0 -6 1 -7.5t7 -1.5h115q11 0 13 -2.5t2 -16.5v-71q0 -11 -3 -13.5t-14 -2.5h-112q-7 0 -8.5 -2.5t-1.5 -7.5q0 -58 2 -115t4.5 -104.5t4.5 -79t2 -39.5q1 -12 -0.5 -15t-9.5 -3h-118q-5 0 -8 4t-5 15z
M410 14v680q0 14 16 14h115q16 0 16 -14v-680q0 -14 -16 -14h-115q-16 0 -16 14z" />
    <glyph glyph-name=".notdef" horiz-adv-x="600" 
d="M98 0q-4 0 -4 4q-4 33 -7 85.5t-5 115.5t-2 129q0 67 2 131.5t5.5 118t7.5 85.5q0 4 4 4h402q4 0 4 -4q4 -32 7.5 -85.5t5.5 -118t2 -131.5q0 -66 -2 -129t-5 -115.5t-7 -85.5q0 -4 -4 -4h-404zM124 30h352q5 42 7 96.5t3 110t1 100.5q0 79 -4 158t-9 148h-348
q-6 -85 -9.5 -162.5t-3.5 -145.5q0 -47 0.5 -101t3 -107t7.5 -97zM170 80q-6 0 -5.5 2.5t1.5 3.5l231 502q3 6 9 6h19q8 0 2 -7l-228 -499q-4 -8 -11 -8h-18zM424 80h-18q-8 0 -11 8l-228 499q-6 7 2 7h19q6 0 9 -6l231 -502q1 -1 1.5 -3.5t-5.5 -2.5z" />
    <glyph glyph-name=".null" 
 />
    <glyph glyph-name="nonmarkingreturn" horiz-adv-x="333" 
 />
    <glyph glyph-name="CR" unicode="&#xd;" horiz-adv-x="600" 
 />
    <glyph glyph-name="space" unicode=" " horiz-adv-x="225" 
 />
    <glyph glyph-name="exclam" unicode="!" horiz-adv-x="251" 
d="M78 210q-9 0 -12 2.5t-3 15.5l-18 430q0 8 2 11.5t10 3.5h137q12 0 12 -13l-19 -432q0 -12 -2.5 -15t-14.5 -3h-92zM194 40q0 -29 -14.5 -44t-59.5 -15q-39 0 -56.5 15t-17.5 44t17.5 44t56.5 15q45 0 59.5 -15t14.5 -44z" />
    <glyph glyph-name="quotedbl" unicode="&#x22;" horiz-adv-x="369" 
d="M61 441q-6 0 -10 4.5t-4 17.5l-7 217q-1 17 3 21.5t17 4.5h76q16 0 19 -4.5t3 -14.5l-9 -228q0 -11 -3.5 -14.5t-12.5 -3.5h-72zM232 441q-7 0 -10.5 4.5t-3.5 17.5l-7 217q-1 17 3 21.5t17 4.5h77q15 0 18 -4.5t3 -14.5l-8 -228q0 -11 -4 -14.5t-13 -3.5h-72z" />
    <glyph glyph-name="numbersign" unicode="#" horiz-adv-x="800" 
d="M219 184h-138q-13 0 -17.5 2t-2.5 17l8 60q2 11 6.5 14.5t15.5 3.5h136l8 136h-131q-12 0 -16.5 1.5t-3.5 16.5l9 61q2 11 6.5 14t15.5 3h126l13 174q1 11 4.5 15t15.5 4h69q11 0 12.5 -5t0.5 -17l-13 -171l119 -1l13 175q1 11 4 15t16 4h68q12 0 13.5 -5t-0.5 -17
l-13 -172h148q20 1 25.5 -3.5t2.5 -12.5l-8 -64q-1 -10 -7 -12.5t-12 -2.5h-154l-9 -137h138q20 1 25.5 -3.5t3.5 -13.5l-9 -64q-1 -10 -6.5 -12.5t-12.5 -2.5h-147l-11 -169q-1 -5 -3.5 -10t-13.5 -5h-66q-10 0 -14 5.5t-3 23.5l10 155h-118l-12 -169q-1 -5 -4 -10t-14 -5
h-66q-10 0 -14 5.5t-3 23.5zM329 281l119 -1l8 137h-119z" />
    <glyph glyph-name="dollar" unicode="$" horiz-adv-x="495" 
d="M149 37q-15 5 -45 15.5t-50 21.5q-11 8 -15 11t-4 13v59.5v59.5q0 13 8 12.5t18 -7t16 -11.5q47 -30 78.5 -40.5t56.5 -10.5q30 0 52 13.5t22 40.5q0 13 -9 24.5t-29 24t-55 26.5q-37 17 -72.5 38t-59 56t-23.5 91q0 53 23 90.5t61 58t84 21.5h17.5h17.5l16 87
q2 8 4.5 11.5t16.5 3.5h68q14 0 15 -4.5t-1 -14.5l-19 -99q26 -8 51.5 -23t53.5 -32q13 -7 14 -12.5t-7 -16.5q-12 -19 -23.5 -38.5t-23.5 -39.5q-5 -10 -12 -7t-21 13q-16 11 -39.5 20.5t-48.5 15.5t-46 6q-25 0 -42.5 -10t-17.5 -32q0 -13 11 -23.5t32 -21l51 -25.5
q37 -17 72.5 -39.5t59 -57t23.5 -89.5q0 -51 -26 -92.5t-67 -66.5t-87 -28l-22 -150q-2 -10 -6 -11.5t-15 -1.5h-71q-6 0 -8.5 4.5t0.5 23.5z" />
    <glyph glyph-name="percent" unicode="%" horiz-adv-x="831" 
d="M152 0q-8 0 -9.5 5t3.5 12l399 678q5 8 8 9.5t12 1.5h96q10 0 11.5 -5t-13.5 -28l-382 -658q-4 -7 -9 -11t-15 -4h-101zM204 393q-91 0 -127.5 44.5t-36.5 112.5q0 69 36.5 113.5t127.5 44.5q89 0 126.5 -44.5t37.5 -113.5q0 -68 -37.5 -112.5t-126.5 -44.5zM204 479
q36 0 52 18.5t16 52.5q0 35 -16 53t-52 18q-37 0 -54 -17.5t-17 -53.5q0 -34 17 -52.5t54 -18.5zM627 0q-90 0 -126.5 44.5t-36.5 112.5q0 69 36.5 113.5t126.5 44.5q89 0 126.5 -44.5t37.5 -113.5q0 -68 -37.5 -112.5t-126.5 -44.5zM627 86q37 0 53 18.5t16 52.5
q0 35 -16 53t-53 18q-36 0 -53.5 -17.5t-17.5 -53.5q0 -34 17.5 -52.5t53.5 -18.5z" />
    <glyph glyph-name="ampersand" unicode="&#x26;" horiz-adv-x="718" 
d="M281 -11q-71 0 -121 19t-81 49t-45 65t-14 67q0 44 17 80t47 59.5t67 29.5q-26 6 -44.5 23.5t-30.5 40t-17.5 44t-5.5 34.5q0 32 14 63.5t42.5 57t73 40.5t104.5 15q65 0 118.5 -26t95.5 -87q12 -16 8 -25t-10 -14l-68 -52q-16 -9 -25 4q-19 26 -48.5 50t-68.5 24
q-28 0 -49 -8.5t-32 -23.5t-11 -37q0 -17 10 -29t25.5 -18.5t33.5 -9.5q6 -1 12 -1.5l12 -1t11 -0.5q21 0 28 -1t7 -9v-101q0 -11 -4.5 -12t-11.5 -1h-45q-22 0 -42 -11t-32 -30.5t-12 -43.5q0 -23 11 -44t35.5 -34.5t65.5 -13.5q34 0 64.5 16.5t55.5 44t39 59.5l-67 35
q-4 2 -6.5 6t4.5 14l53 84q6 11 11.5 12.5t12.5 -2.5l212 -108q8 -4 8 -9.5t-4 -11.5l-49 -85q-6 -10 -10.5 -13t-15.5 3l-39 20q-19 -40 -45.5 -75.5t-61.5 -62.5t-80.5 -42.5t-101.5 -15.5z" />
    <glyph glyph-name="quotesingle" unicode="'" horiz-adv-x="278" 
d="M101 441q-6 0 -10 4.5t-4 17.5l-7 217q-1 17 3 21.5t17 4.5h76q16 0 19 -4.5t3 -14.5l-9 -228q0 -11 -3.5 -14.5t-12.5 -3.5h-72z" />
    <glyph glyph-name="parenleft" unicode="(" horiz-adv-x="374" 
d="M334 -65q0 -9 -5 -11.5t-34 -2.5q-80 0 -140 51.5t-92.5 141t-32.5 201.5q0 52 10.5 106t31.5 104t52.5 89.5t74 62.5t96.5 23q29 0 34 -4t5 -12v-67q0 -10 -6.5 -9.5t-26.5 0.5q-37 0 -62.5 -21t-41 -55t-23.5 -73.5t-10.5 -77t-2.5 -64.5q0 -30 3 -69.5t11.5 -80.5
t24.5 -76t41.5 -56.5t62.5 -21.5q23 0 26.5 -3.5t3.5 -11.5v-63z" />
    <glyph glyph-name="parenright" unicode=")" horiz-adv-x="374" 
d="M40 -65v63q0 8 4 11.5t26 3.5q37 0 62.5 21.5t41.5 56.5t24.5 76t11.5 80.5t3 69.5q0 27 -2.5 64.5t-10.5 77t-23.5 73.5t-40.5 55t-63 21q-19 0 -26 -0.5t-7 9.5v67q0 8 5 12t34 4q54 0 96.5 -23t74 -62.5t52.5 -89.5t31.5 -104t10.5 -106q0 -112 -32.5 -201.5t-92 -141
t-140.5 -51.5q-29 0 -34 2.5t-5 11.5z" />
    <glyph glyph-name="asterisk" unicode="*" horiz-adv-x="526" 
d="M262 382l-99 -118q-8 -10 -13.5 -12t-13.5 4l-54 46q-9 8 -9 13.5t10 15.5l97 111l-140 41q-23 7 -18 22l22 68q4 11 9 13t18 -3l140 -46l-3 146q0 13 3 18t13 5h71q12 0 15 -4.5t3 -18.5l-2 -147l140 46q14 5 18.5 3t8.5 -13l22 -68q5 -15 -18 -22l-140 -41l97 -111
q10 -10 10 -15.5t-9 -13.5l-54 -46q-7 -6 -13 -4t-14 12z" />
    <glyph glyph-name="plus" unicode="+" horiz-adv-x="505" 
d="M209 95q-10 0 -12.5 2t-2.5 10v155h-132q-9 0 -10.5 3t-1.5 10v74q0 8 2.5 10.5t10.5 2.5h131v155q0 7 2 9.5t12 2.5h82q6 0 7.5 -2t1.5 -12v-153l144 -2q7 0 9.5 -2t2.5 -11v-77q0 -7 -2 -8.5t-11 -1.5l-143 2v-156q0 -8 -2.5 -9.5t-10.5 -1.5h-77z" />
    <glyph glyph-name="comma" unicode="," horiz-adv-x="218" 
d="M178 39q0 -25 -10 -53.5t-23 -54.5t-23 -42q-5 -8 -14 -8h-26h-27q-7 0 -8 3.5t4 14.5q4 8 9.5 24t11.5 33.5t10 28.5q-22 3 -32 20t-10 33q0 26 16 43.5t54 17.5q29 0 48.5 -11.5t19.5 -48.5z" />
    <glyph glyph-name="hyphen" unicode="-" horiz-adv-x="400" 
d="M53 222q-10 0 -11.5 3t-1.5 11v75q0 10 2 12.5t12 2.5h292q9 0 11.5 -2t2.5 -12v-80q0 -7 -2 -8.5t-13 -1.5h-292z" />
    <glyph glyph-name="period" unicode="." horiz-adv-x="228" 
d="M188 40q0 -29 -14.5 -44t-59.5 -15q-39 0 -56.5 15t-17.5 44t17.5 44t56.5 15q45 0 59.5 -15t14.5 -44z" />
    <glyph glyph-name="slash" unicode="/" horiz-adv-x="597" 
d="M160 15q-4 -7 -9 -11t-15 -4h-102q-7 0 -8 5t3 12l429 678q6 8 9.5 9.5t10.5 1.5h97q11 0 12.5 -5t-13.5 -28z" />
    <glyph glyph-name="zero" unicode="0" horiz-adv-x="544" 
d="M514 336q0 -71 -12.5 -133t-41 -109.5t-74.5 -74t-114 -26.5t-114.5 26.5t-74.5 73.5t-40.5 109t-12.5 134t12.5 134t40.5 109.5t74.5 74t114.5 26.5t114 -27t74.5 -74.5t41 -109.5t12.5 -133zM353 336q0 111 -20.5 167.5t-61.5 56.5q-42 0 -62.5 -55.5t-20.5 -168.5
q0 -112 20.5 -168t62.5 -56q41 0 61.5 56.5t20.5 167.5z" />
    <glyph glyph-name="one" unicode="1" horiz-adv-x="371" 
d="M174 0q-14 0 -14 14v489q0 7 -6 4l-75 -40q-15 -8 -22 4l-43 74q-8 15 8 24l174 97q8 4 12 5.5t11 1.5h78q14 0 14 -14v-645q0 -14 -14 -14h-123z" />
    <glyph glyph-name="two" unicode="2" horiz-adv-x="510" 
d="M51 0q-13 0 -15.5 2t-2.5 12v77q0 17 11 23q46 29 95 67.5t91.5 84t68.5 92.5t26 92q0 27 -10.5 49.5t-35 36t-66.5 13.5q-48 0 -83 -14t-56.5 -28t-31.5 -14q-9 0 -9 10v101q0 8 3 12t13 10q20 11 48.5 23t63.5 20.5t71 8.5q60 0 115 -23t90 -72.5t35 -127.5
q0 -46 -15.5 -89.5t-44.5 -85.5t-68.5 -82t-87.5 -79q-2 -2 -1 -4.5t5 -2.5h204q10 0 10 -10v-87q0 -11 -2 -13t-15 -2h-406z" />
    <glyph glyph-name="three" unicode="3" horiz-adv-x="511" 
d="M239 -5q-43 0 -80.5 11.5t-69 32.5t-57.5 49q-7 8 -5.5 15t5.5 12l52 62q16 17 30 3q26 -26 57 -42t68 -16q31 0 52 12.5t32 32.5t11 42q0 18 -11.5 38.5t-37 35t-67.5 14.5h-18h-22q-8 0 -13 4t-5 16v76q0 20 18 20h28h35q26 0 44 11.5t28 29t10 35.5q0 17 -9.5 31.5
t-29 23.5t-50.5 9q-34 0 -67 -16t-56 -40q-16 -16 -27 2l-48 82q-4 7 -1 15.5t5 9.5q40 31 76.5 46.5t69 20.5t59.5 5q71 0 118.5 -25t71.5 -64.5t24 -83.5q0 -56 -30 -95.5t-68 -50.5q-13 -3 -13 -4l14 -3q48 -9 82 -45t34 -98q0 -53 -28 -102.5t-81 -80.5t-130 -31z" />
    <glyph glyph-name="four" unicode="4" horiz-adv-x="537" 
d="M305 0q-14 0 -14 14v141q0 10 -10 10h-248q-14 0 -14 14v69q0 8 5.5 17.5t9.5 13.5l270 381q6 8 10.5 10.5t11.5 2.5h91q15 0 15 -15v-378q0 -10 10 -10h56q10 0 10 -10v-85q0 -10 -10 -10h-56q-10 0 -10 -10v-141q0 -14 -14 -14h-113zM180 270h101q10 0 10 10v166
q0 5 -2 5.5t-4 -3.5l-111 -168q-4 -5 -1 -7.5t7 -2.5z" />
    <glyph glyph-name="five" unicode="5" horiz-adv-x="516" 
d="M223 -5q-22 0 -54 6t-65 18.5t-59 33.5q-7 5 -11 11t0 12l54 87q5 9 12 7.5t14 -5.5q32 -19 53.5 -26.5t53.5 -7.5q12 0 31.5 4.5t39 15t32.5 30t13 49.5q0 42 -18 67.5t-46.5 37.5t-60.5 12q-12 0 -32.5 -1t-42.5 -4t-39 -9q-14 -5 -20 -5.5t-6 13.5v317q0 8 2 11.5
t11 3.5h326q6 0 9.5 -1t3.5 -9v-94q0 -12 -13 -12h-207q-9 0 -9 -11v-86q0 -6 2 -8t9 -2h11.5h11.5q84 0 140 -26t84 -73.5t28 -113.5q0 -72 -36.5 -126.5t-95.5 -85t-126 -30.5z" />
    <glyph glyph-name="six" unicode="6" horiz-adv-x="566" 
d="M285 -11q-67 1 -125 32.5t-94 100t-36 179.5q0 66 21 132.5t63.5 122t107 89t152.5 33.5q8 0 26.5 -1.5t43.5 -7.5q11 -2 19.5 -8.5t8.5 -25.5v-38v-38q0 -13 -2.5 -15.5t-16.5 2.5q-6 3 -25 6t-45.5 3t-55.5 -6t-54 -23q-13 -9 -28.5 -22.5t-30 -30t-25 -34t-15.5 -33.5
q-1 -5 -0.5 -6.5t6.5 4.5q17 18 58 30t83 12q62 0 104.5 -19t68 -50.5t37 -70t11.5 -78.5q0 -61 -31 -116t-88.5 -89t-137.5 -34zM285 117q35 0 59.5 14.5t38 38t15.5 48.5t-9 47.5t-34.5 36.5t-60.5 14q-24 0 -46 -9t-40.5 -23.5t-32.5 -31.5q-1 -27 7.5 -51.5t24 -43.5
t35.5 -29.5t43 -10.5z" />
    <glyph glyph-name="seven" unicode="7" horiz-adv-x="506" 
d="M113 0q-16 0 -20.5 1t-3.5 14q7 55 23.5 111t36 108t36.5 94q19 47 39 88t39 76.5t34 64.5h-6.5h-6.5h-242q-8 0 -10.5 1t-2.5 8v94q0 10 3.5 11.5t11.5 1.5h423q6 0 8 -1.5t2 -11.5v-58q0 -10 -7 -25q-15 -22 -38 -61.5t-51 -96.5t-59 -133q-15 -39 -31.5 -83.5
t-29.5 -92.5t-18 -98q-1 -8 -9 -10t-14 -2h-107z" />
    <glyph glyph-name="eight" unicode="8" horiz-adv-x="543" 
d="M271 -6q-65 0 -120 28t-88 75.5t-33 106.5q0 48 25 91t65 61q4 2 7.5 3.5t7.5 2.5q-40 12 -57.5 48.5t-17.5 76.5q0 55 29 99t77.5 70t104.5 26q59 0 107 -26t76.5 -70t28.5 -99q0 -40 -15 -74.5t-47 -51.5q2 -1 4.5 -2t4.5 -3q33 -20 58 -60t25 -92q0 -59 -33 -106.5
t-88 -75.5t-121 -28zM271 427q20 0 36.5 8t26 22t9.5 30q0 17 -9.5 30.5t-26 22t-36.5 8.5q-19 0 -35.5 -8.5t-26.5 -22t-10 -30.5q0 -16 10 -30t26.5 -22t35.5 -8zM271 123q29 0 52 11.5t36.5 30.5t13.5 43t-13.5 43t-36.5 30.5t-52 11.5q-27 0 -50 -11.5t-36.5 -30.5
t-13.5 -43t13.5 -43t36.5 -30.5t50 -11.5z" />
    <glyph glyph-name="nine" unicode="9" horiz-adv-x="566" 
d="M244 222q-83 0 -132.5 33t-70 85t-17.5 110q2 57 33 109t88 85.5t136 33.5q50 0 95.5 -17.5t81.5 -54.5t57 -96t21 -143q0 -66 -21 -132.5t-63.5 -122t-107.5 -89.5t-153 -34q-7 0 -26.5 2t-42.5 8q-12 2 -20.5 8.5t-8.5 25.5v76q0 13 3 15.5t16 -2.5q17 -7 39 -8.5
t34 -1.5q28 0 55.5 7t52.5 23q13 8 28.5 22.5t30 32.5t26 37.5t16.5 38.5q-24 -25 -66 -38t-84 -13zM281 551q-34 1 -59.5 -14.5t-39.5 -39t-14 -48.5q0 -27 10.5 -49t33.5 -35t60 -13q36 0 66.5 19t46.5 48q3 45 -10.5 74t-38 43.5t-55.5 14.5z" />
    <glyph glyph-name="colon" unicode=":" horiz-adv-x="228" 
d="M188 40q0 -29 -14.5 -44t-59.5 -15q-39 0 -56.5 15t-17.5 44t17.5 44t56.5 15q45 0 59.5 -15t14.5 -44zM188 432q0 -29 -14.5 -44t-59.5 -15q-39 0 -56.5 15t-17.5 44t17.5 44t56.5 15q45 0 59.5 -15t14.5 -44z" />
    <glyph glyph-name="semicolon" unicode=";" horiz-adv-x="228" 
d="M188 433q0 -29 -14.5 -44t-59.5 -15q-39 0 -56.5 15t-17.5 44t17.5 44t56.5 15q45 0 59.5 -15t14.5 -44zM183 39q0 -25 -9.5 -54t-22.5 -54.5t-24 -41.5q-5 -8 -14 -8h-26h-27q-7 0 -8 3.5t4 14.5q4 8 9.5 24t11.5 33.5t10 28.5q-22 3 -32 20t-10 33q0 26 16 43.5
t54 17.5q29 0 48.5 -11.5t19.5 -48.5z" />
    <glyph glyph-name="less" unicode="&#x3c;" horiz-adv-x="485" 
d="M65 266q-7 2 -11 6.5t-4 17.5v61q0 8 4.5 12t14.5 8l333 148q21 10 27 6.5t6 -12.5v-76q0 -5 -5.5 -10t-17.5 -10l-221 -100l219 -97q14 -7 19.5 -11.5t5.5 -12.5v-72q0 -22 -27 -11z" />
    <glyph glyph-name="equal" unicode="=" horiz-adv-x="509" 
d="M63 348q-10 0 -11.5 3.5t-1.5 10.5v71q0 10 2.5 13t12.5 3h380q8 0 11 -2.5t3 -11.5v-76q0 -7 -2 -9t-13 -2h-381zM63 148q-10 0 -11.5 3t-1.5 11v71q0 10 2.5 12.5t12.5 2.5h380q8 0 11 -2t3 -12v-76q0 -7 -2 -8.5t-13 -1.5h-381z" />
    <glyph glyph-name="greater" unicode="&#x3e;" horiz-adv-x="465" 
d="M67 112q-14 -6 -20.5 -3t-6.5 14v72q0 8 5.5 12.5t19.5 11.5l219 97l-221 100q-23 10 -23 20v76q0 9 6 12.5t27 -6.5l333 -148q10 -4 14.5 -8t4.5 -12v-61q0 -13 -4 -17.5t-11 -6.5z" />
    <glyph glyph-name="question" unicode="?" horiz-adv-x="462" 
d="M115 158q-10 0 -12 5.5t-2 17.5q0 46 6 80t17.5 60.5t28 47t37.5 39.5q13 12 31 23t35 23t27 27t7 35q-2 23 -20.5 32.5t-42.5 9.5q-48 0 -87 -15t-56 -23q-9 -4 -12 -6.5t-8 10.5l-28 83q-4 11 5.5 17t16.5 10q38 18 82 28.5t79 10.5q95 0 151.5 -42t56.5 -120
q0 -49 -19.5 -79t-48.5 -50.5t-56 -39.5q-30 -22 -47.5 -47.5t-24.5 -55t-7 -63.5q0 -12 -2.5 -15t-7.5 -3h-99zM86 40q0 29 17.5 44t56.5 15q45 0 59.5 -15t14.5 -44t-14.5 -44t-59.5 -15q-39 0 -56.5 15t-17.5 44z" />
    <glyph glyph-name="at" unicode="@" horiz-adv-x="850" 
d="M30 327q0 67 27.5 131.5t80 116.5t128 83t172.5 31q105 0 178 -26t118 -70t65.5 -99t20.5 -112q0 -50 -13 -95t-38.5 -79.5t-62.5 -54.5t-86 -20q-28 0 -50.5 9.5t-38 25t-21.5 32.5q0 2 -1 2t-2 -1t-3 -4q-13 -23 -32 -36.5t-42 -19.5t-47 -6q-58 0 -98.5 25t-59.5 67
t-14 93q7 70 39 124t83 85t114 31q59 0 100.5 -13t84.5 -40q11 -7 15 -15.5t-1 -19.5q-6 -20 -12 -40.5t-12 -40.5q-7 -20 -13.5 -43.5t-11 -46.5t-5.5 -42t3 -30.5t14 -11.5q27 0 46.5 27t30.5 68.5t11 86.5q0 37 -13.5 73.5t-44 66.5t-80.5 48t-123 18q-67 0 -120.5 -23.5
t-90 -63.5t-56 -88.5t-19.5 -99.5q0 -47 16 -91.5t49.5 -80t85 -56.5t121.5 -21q85 0 169 10.5t147 44.5q8 5 12 7t7 4q10 7 15 4.5t10 -8.5l32 -43q9 -12 3 -18.5t-17 -13.5q-4 -2 -7.5 -4.5t-8.5 -4.5q-60 -34 -144 -49.5t-215 -15.5q-100 0 -174.5 28t-123.5 75.5
t-73 107t-24 122.5zM498 416q4 11 9 21.5t6 14.5q-11 2 -24 4t-28 2q-37 0 -63.5 -26.5t-41 -64.5t-14.5 -73q0 -17 2.5 -31t10 -22.5t21.5 -8.5q21 0 36.5 14t30.5 41q11 19 25 53t30 76z" />
    <glyph glyph-name="A" unicode="A" horiz-adv-x="549" 
d="M27 0q-10 0 -12 8t2 32q6 44 20 106.5t33 132.5t41 140t45 130.5t44 101.5q6 10 11.5 16t13.5 6h99q8 -3 14 -7.5t11 -14.5q22 -41 45 -101.5t45 -130.5t41 -140t33 -132.5t20 -106.5q4 -24 2 -32t-13 -8h-118q-9 0 -12.5 5t-7.5 27t-10.5 52t-10.5 49q-1 8 -2.5 9
t-8.5 1h-154q-7 0 -8 -1t-3 -9q-4 -19 -10.5 -49t-10.5 -52t-7.5 -27t-12.5 -5h-119zM230 258h90q7 0 8 2.5t-1 9.5q-10 40 -22.5 85.5t-22.5 79.5q-2 9 -6 9h-4q-3 0 -6 -9q-6 -22 -14 -50t-15.5 -57.5t-14.5 -57.5q-1 -7 0 -9.5t8 -2.5z" />
    <glyph glyph-name="B" unicode="B" horiz-adv-x="544" 
d="M504 195q0 -71 -29 -114t-77 -62t-106 -19h-217q-15 0 -15 14v644q0 15 15 15h177q50 0 94 -4.5t78 -21t53 -52t19 -96.5q0 -19 -7 -48t-23 -56t-42 -40q-6 -2 -4.5 -6.5t4.5 -6.5q33 -16 56.5 -58t23.5 -89zM342 196q0 41 -11 60.5t-32 25t-52 5.5h-28q-7 0 -7 -6v-170
q0 -4 1 -5.5t7 -1.5h40q12 0 26.5 2.5t27 11t20.5 27t8 51.5zM336 492q0 34 -13 50.5t-38.5 21.5t-63.5 5h-2q-7 0 -7 -9v-149q0 -7 8 -7h38q27 0 44 7.5t25.5 26.5t8.5 54z" />
    <glyph glyph-name="C" unicode="C" horiz-adv-x="476" 
d="M446 39q0 -27 -32 -35q-14 -5 -35 -7.5t-40 -3.5t-29 -1q-123 0 -197.5 87.5t-74.5 255.5q0 170 72 257.5t200 87.5q10 0 29 -1.5t40 -4t35 -7.5q15 -4 23.5 -9t8.5 -16v-99q0 -31 -34 -7q-22 14 -46 20.5t-44 6.5q-37 0 -62 -16t-40 -45t-21 -68t-6 -86q0 -32 3 -65.5
t11 -65t22 -56.5t37 -39.5t56 -14.5q24 0 48 6.5t38 15.5q23 14 30.5 13t7.5 -18v-85z" />
    <glyph glyph-name="D" unicode="D" horiz-adv-x="586" 
d="M548 346q0 -87 -19.5 -147.5t-51.5 -99.5t-70.5 -60.5t-76.5 -30t-69 -8.5h-186q-15 0 -15 14v644q0 15 15 15h186q37 0 77.5 -6.5t77.5 -25t67 -54.5t47.5 -94.5t17.5 -146.5zM398 346q0 80 -14 123.5t-36.5 62t-47.5 22t-46 3.5h-30q-9 0 -10.5 -1t-1.5 -8v-422
q0 -7 1.5 -8.5t7.5 -1.5h17q23 0 50 6t52.5 28t41.5 68.5t16 127.5z" />
    <glyph glyph-name="E" unicode="E" horiz-adv-x="458" 
d="M75 0q-15 0 -15 14v644q0 15 15 15h340q14 0 16.5 -2t2.5 -15v-80q0 -14 -3.5 -16.5t-15.5 -2.5h-194q-7 0 -8 -1t-1 -7v-144q0 -7 1 -8t7 -1h150q15 0 17.5 -3t2.5 -19v-71q0 -15 -3 -18t-17 -3h-150q-5 0 -6.5 -1t-1.5 -6v-150q0 -6 1 -7.5t7 -1.5h192q17 0 19.5 -3.5
t2.5 -18.5v-72q0 -16 -4 -19t-19 -3h-336z" />
    <glyph glyph-name="F" unicode="F" horiz-adv-x="450" 
d="M75 0q-15 0 -15 14v644q0 15 15 15h340q14 0 16.5 -2t2.5 -15v-80q0 -14 -3.5 -16.5t-15.5 -2.5h-194q-7 0 -8 -1t-1 -7v-144q0 -7 1 -8t7 -1h150q15 0 17.5 -3t2.5 -19v-71q0 -15 -3 -18t-17 -3h-150q-5 0 -6.5 -1t-1.5 -6v-253q0 -16 -3 -19t-20 -3h-114z" />
    <glyph glyph-name="G" unicode="G" horiz-adv-x="580" 
d="M530 34q0 -14 -18.5 -23t-49.5 -13t-70 -4q-183 0 -273.5 84.5t-90.5 247.5q0 109 41.5 188t115 121.5t167.5 42.5q43 0 83 -3t62 -11q16 -5 22.5 -8t6.5 -18v-80q0 -22 -9.5 -27t-21.5 2q-25 14 -50.5 21.5t-59.5 7.5q-27 0 -61 -9t-64.5 -33.5t-50.5 -69.5t-20 -118
q0 -75 18.5 -119.5t46 -66.5t56 -29t48.5 -7q21 0 21 14v152q0 5 -1 6t-6 1h-103q-11 0 -14.5 2t-3.5 14v81q0 12 3 15.5t15 3.5h239q17 0 19.5 -3.5t2.5 -20.5v-341z" />
    <glyph glyph-name="H" unicode="H" horiz-adv-x="611" 
d="M94 0q-7 0 -14.5 2t-8.5 12q-4 36 -7.5 90t-5.5 117.5t-3 129.5q0 60 1.5 117t6 106t11.5 84q1 7 8 11t13 4h60.5h60.5q11 0 9 -15q-3 -23 -6 -62t-6 -86.5t-5 -97.5q0 -10 1.5 -13t13.5 -3h83h83q8 0 11.5 3t3.5 13q-2 50 -5.5 97.5t-6.5 86.5t-6 62q-1 15 9 15h60.5
h60.5q6 0 13 -4t8 -11q8 -35 12 -85t6 -107.5t1 -117.5q0 -65 -2.5 -128.5t-6 -116.5t-7.5 -89q-1 -10 -8 -12t-15 -2h-60.5h-60.5q-8 0 -7 14q3 24 5.5 53t5 62t4 69t1.5 72q0 8 -2.5 10t-11.5 2h-85.5h-85.5q-9 0 -11 -2t-2 -10q0 -36 1.5 -72t3.5 -69t4.5 -62t5.5 -53
q1 -14 -7 -14h-60.5h-60.5z" />
    <glyph glyph-name="I" unicode="I" horiz-adv-x="271" 
d="M211 14q0 -14 -15 -14h-120q-16 0 -16 14v644q0 15 16 15h120q15 0 15 -15v-644z" />
    <glyph glyph-name="J" unicode="J" horiz-adv-x="336" 
d="M281 184q0 -70 -15 -110t-49.5 -57t-92.5 -17h-74q-10 0 -25 4t-15 15v85q0 14 10 13q11 -1 33 -2.5t32 -1.5q28 0 36 13t9 52v480q0 15 14 15h122q5 0 10 -4t5 -11v-474z" />
    <glyph glyph-name="K" unicode="K" horiz-adv-x="566" 
d="M64 0q-4 0 -4 4v333v332q0 4 4 4h24h48h48h24q4 0 4 -4v-66.5v-53v-53v-66.5q0 -3 0.5 -5.5t2.5 -2.5h2q2 0 5 3.5t5 7.5q20 38 34 64.5t27 48.5t27 48.5t34 64.5q5 9 10 11.5t11 2.5h23.5h46h46h23.5q12 0 10 -8t-13 -31q-29 -46 -53 -87t-46 -84t-45 -96q-4 -9 -5 -16
t-1 -14q0 -19 6 -40t16.5 -41.5t24.5 -39.5t30 -34q20 -20 46 -32.5t63 -12.5q2 0 5 -1t3 -3v-128q0 -5 -3 -5q-69 0 -115.5 10.5t-90.5 44.5q-18 14 -33.5 31.5t-30 38.5t-26.5 45.5t-22 52.5q-3 8 -7 11.5t-5 3.5h-1h-1l-1.5 -1t-1.5 -6v-65v-48.5v-48.5v-65q0 -4 -4 -4
h-24h-48h-48h-24z" />
    <glyph glyph-name="L" unicode="L" horiz-adv-x="443" 
d="M76 0q-16 0 -16 14v644q0 15 16 15h116q12 0 15.5 -4t3.5 -15v-529q0 -6 1 -7.5t8 -1.5h192q16 0 18.5 -3.5t2.5 -18.5v-72q0 -16 -3 -19t-19 -3h-335z" />
    <glyph glyph-name="M" unicode="M" horiz-adv-x="711" 
d="M74 0q-19 0 -19 19q0 68 2.5 152.5t7.5 173t12.5 170t17.5 143.5q2 8 4.5 11.5t10.5 3.5h71q11 0 15.5 -2t8.5 -9l142 -236q3 -5 8 -5t8 5l144 236q5 8 9 9.5t14 1.5h70q12 0 14 -15q9 -62 17 -144t13.5 -170.5t8.5 -172.5t3 -150q0 -12 -4 -16.5t-17 -4.5h-114
q-15 0 -15 17q0 32 -0.5 66t-1.5 69.5t-3 71.5l-4 72t-4 71q-1 5 -4 5t-6 -5l-98 -150q-5 -6 -12 -6h-38q-9 0 -14 8l-92 143q-4 8 -7 6t-3 -6q-4 -43 -6.5 -79t-4 -74t-2 -86t-0.5 -114q0 -9 -8 -9h-124z" />
    <glyph glyph-name="N" unicode="N" horiz-adv-x="642" 
d="M422 315q3 -4 8.5 -4t5.5 6q0 29 -1 59.5t-2 63.5t-3 68.5t-5 72.5t-8 77q-1 15 7 15h123q7 0 13.5 -4t7.5 -11q8 -37 12.5 -89.5t6 -113.5t0.5 -124t-3.5 -123t-6 -110t-7.5 -84q-1 -10 -7.5 -12t-14.5 -2h-77q-8 0 -19 18l-236 346q-1 4 -5 4t-4 -5q0 -57 1 -102.5
t2 -82t3 -65.5t4 -53.5t5 -45.5q1 -14 -8 -14h-120q-7 0 -14.5 2t-8.5 12q-4 34 -7 84t-5.5 110t-3 123t1 124t5.5 113.5t12 89.5q2 7 8.5 11t12.5 4h73q10 0 15 -10z" />
    <glyph glyph-name="O" unicode="O" horiz-adv-x="641" 
d="M38 334q0 109 24 186t85.5 117.5t172.5 40.5q86 0 141.5 -23t86.5 -67t43 -108t12 -146t-12 -145.5t-43 -107.5t-86.5 -67t-141.5 -23q-111 0 -172.5 40.5t-85.5 117t-24 185.5zM195 334q0 -88 13 -135.5t40 -66t70 -18.5t71 18t42.5 66t14.5 136q0 89 -14.5 137
t-42.5 67t-71 19t-70 -19t-40 -67t-13 -137z" />
    <glyph glyph-name="P" unicode="P" horiz-adv-x="502" 
d="M477 453q0 -64 -24 -118.5t-71.5 -87.5t-118.5 -33h-43q-5 0 -6.5 -2t-1.5 -7v-191q0 -14 -16 -14h-121q-15 0 -15 14v644q0 15 15 15h177q119 0 172 -54t53 -166zM212 332q0 -9 8 -9h28q38 0 60 34t22 95q-1 65 -23.5 91t-60.5 26h-27q-4 0 -5.5 -1t-1.5 -8v-228z" />
    <glyph glyph-name="Q" unicode="Q" horiz-adv-x="641" 
d="M38 332q0 110 24 187t85.5 118t172.5 41q86 0 141.5 -23t86.5 -67.5t43 -109t12 -146.5q0 -86 -13.5 -152t-48 -109.5t-98.5 -64.5q-7 -2 -15 -5t-16 -5q-12 -3 -12 -11q0 -21 10 -32.5t26 -16t35 -4.5h53q16 0 16 -17v-71q0 -11 -3 -14t-13 -6q-5 -1 -27 -1.5t-36 -0.5
q-72 0 -119 19t-71 55t-27 87q0 8 -3.5 10t-10.5 3q-8 2 -18.5 5t-26.5 10q-57 22 -89 65t-45 107.5t-13 148.5zM195 334q0 -88 13 -135.5t40 -66t70 -18.5t71 18t42.5 66t14.5 136q0 89 -14.5 137t-42.5 67t-71 19t-70 -19t-40 -67t-13 -137z" />
    <glyph glyph-name="R" unicode="R" horiz-adv-x="560" 
d="M75 0q-15 0 -15 14v644q0 15 15 15h177q79 0 128.5 -21t73 -67.5t23.5 -124.5q0 -50 -17.5 -96.5t-54.5 -79.5q-15 -15 -22.5 -27.5t5.5 -32.5q9 -14 17.5 -27t18.5 -23t23 -18q14 -9 33.5 -14t46.5 -5q11 0 13 -2.5t2 -14.5v-107q0 -6 -2.5 -8.5t-14 -3.5t-39.5 -1
q-42 0 -77.5 12t-64.5 33q-24 18 -44.5 42t-36.5 52.5t-28 60.5q-1 2 -4.5 12t-7.5 10h-6q-5 0 -5 -16v-192q0 -14 -16 -14h-121zM212 350q0 -5 1.5 -6.5t6.5 -1.5h27q38 0 60 32.5t22 84.5q0 46 -10.5 69.5t-29 32t-43.5 8.5h-27q-4 0 -5.5 -1t-1.5 -8v-210z" />
    <glyph glyph-name="S" unicode="S" horiz-adv-x="495" 
d="M45 40v93q0 8 5 8.5t18 -4.5q20 -6 47.5 -11.5t54 -8.5t42.5 -3q47 0 71.5 26t24.5 57q0 33 -26.5 55.5t-66.5 33.5q-24 6 -55.5 17t-61.5 32t-50 57t-20 92q0 70 32.5 112.5t84.5 62t110 19.5q21 0 48 -4.5t54.5 -12t47.5 -16.5q9 -2 11 -6t2 -11v-86q0 -31 -37 -10
q-20 13 -49.5 22.5t-64.5 9.5q-39 0 -62.5 -20.5t-23.5 -45.5q0 -30 18 -48t46 -28t57.5 -17t52.5 -16q37 -13 61.5 -35t37.5 -57t13 -87q0 -76 -33 -124t-90.5 -71t-129.5 -23q-31 0 -70.5 6t-71.5 17q-16 5 -21.5 10t-5.5 15z" />
    <glyph glyph-name="T" unicode="T" horiz-adv-x="463" 
d="M170 0q-5 0 -10 4t-5 10v536q0 5 -1 6t-6 1h-114q-13 0 -15.5 2.5t-2.5 11.5v89q0 8 2.5 10.5t13.5 2.5h397q12 0 15 -2.5t3 -10.5v-89q0 -9 -3 -11.5t-16 -2.5h-114q-6 0 -7 -1t-1 -6v-536q0 -14 -14 -14h-122z" />
    <glyph glyph-name="U" unicode="U" horiz-adv-x="635" 
d="M317 -9q-87 0 -137.5 20t-76 50.5t-34 62t-11.5 55.5q-4 38 -6 80.5t-2 74.5q0 46 2 103.5t6.5 116t13.5 108.5q1 7 6.5 9t13.5 2h55.5h55.5q11 0 12 -3.5t-1 -24.5q-4 -40 -6.5 -81t-4.5 -83q-4 -74 -4 -142t6 -136q2 -32 11.5 -51t24.5 -29t34 -13.5t39 -3.5
q21 0 39.5 3.5t34 13.5t25 29.5t12.5 50.5q5 68 4.5 136t-3.5 142q-1 42 -4.5 83t-6.5 81q-1 21 -0.5 24.5t12.5 3.5h58h58q9 0 14 -2t6 -9q9 -50 14 -108.5t6.5 -116t1.5 -103.5q0 -32 -1 -74.5t-6 -80.5q-2 -19 -8 -43.5t-20.5 -50t-42.5 -47t-74 -34.5t-116 -13z" />
    <glyph glyph-name="V" unicode="V" horiz-adv-x="571" 
d="M237 0q-8 3 -14 7t-11 14q-22 41 -45 101.5t-45 130.5t-41 140.5t-33 132.5t-20 106q-4 24 -2 32.5t12 8.5h118q9 0 13 -5t8 -27q5 -27 10 -51.5t10.5 -47t11.5 -45.5t12.5 -47.5t12.5 -51.5q10 -34 23 -79t23 -82q4 -10 5.5 -10.5t5.5 9.5q13 35 25 81.5t22 80.5
q6 27 12.5 51.5t12 47.5t11.5 45.5t11 47t10 51.5q4 22 7.5 27t12.5 5h119q10 0 11.5 -8.5t-1.5 -32.5q-6 -44 -20 -106t-33 -132.5t-41 -140.5t-44.5 -130.5t-44.5 -101.5q-7 -10 -12.5 -14t-12.5 -7h-99z" />
    <glyph glyph-name="W" unicode="W" horiz-adv-x="866" 
d="M240 0q-21 0 -32 21q-22 41 -45.5 101.5t-45.5 131.5t-41.5 143.5t-33.5 138.5t-21 116q-1 9 1 15t12 6h17h39h40.5h21.5q9 0 13 -3t5 -14q4 -27 13.5 -72t31.5 -133q16 -63 26.5 -105.5t17.5 -69.5t13 -44q2 -6 3.5 -8t2.5 -2q2 0 1.5 0t0.5 0q2 0 3.5 3.5t2.5 7.5
q4 12 10.5 29.5t14 38.5t14.5 44t13 45.5t9 43.5q5 32 7 70t2.5 72.5t1 56t0.5 19.5q-1 9 0.5 15t12.5 6h20.5h39h39h20.5q8 0 11.5 -3t3.5 -14q1 -41 4 -83.5t7 -74.5t5 -45q6 -50 19.5 -103t34.5 -112q4 -10 5.5 -13t2.5 -3q2 0 1.5 0t0.5 0q2 0 4 6l9 27t21 69t29 109
q12 44 19 71.5t12 48.5t9.5 43.5t10.5 55.5q2 14 6 17.5t12 3.5h20.5h39h39h20.5q18 0 12 -24q-10 -43 -25.5 -106t-34.5 -136.5t-39.5 -146t-42.5 -135.5t-44 -104q-1 -4 -7.5 -12.5t-17.5 -8.5h-28.5h-41h-29.5q-8 0 -15 9.5t-9 11.5q-11 22 -23.5 48.5t-24 57.5t-23.5 64
q-4 14 -9 19.5t-13 -18.5q-17 -51 -26.5 -78.5t-15 -42t-10 -24.5t-12.5 -26q-4 -10 -12 -15.5t-13 -5.5h-28.5h-39.5h-24z" />
    <glyph glyph-name="X" unicode="X" horiz-adv-x="581" 
d="M425 361q-8 -14 -7 -23.5t9 -23.5q7 -11 11 -16.5t10 -15.5q24 -39 43.5 -76t35 -70t26 -60.5t15.5 -48.5q4 -16 -3.5 -21.5t-18.5 -5.5h-122q-7 0 -11 3t-9 18q-6 18 -16 41.5t-22 49.5t-25 51t-24 46t-19 35q-4 8 -6.5 8.5t-7.5 -8.5q-13 -22 -25.5 -46t-25 -47.5
t-23 -46.5t-19.5 -44t-15 -39q-3 -13 -6.5 -17t-13.5 -4h-120q-13 0 -19.5 5.5t-2.5 21.5q2 8 12 38t31.5 77.5t56.5 106.5q8 14 19 32.5t21 32.5q4 5 5 23t-4 24q-32 50 -55.5 91t-39.5 75t-25.5 63t-13.5 55q-3 17 4.5 22.5t17.5 5.5h119q10 0 14 -2.5t5 -10.5l4 -13.5
t11.5 -36.5t19 -52t27.5 -59.5t36 -59.5q2 -2 3 -3.5t4 -6.5t5.5 -3t3.5 4l3 5l3 4q20 28 36 58.5t27.5 59.5t19 52t11.5 37l4 14q2 8 6 10.5t14 2.5h121q9 0 16.5 -5.5t4.5 -22.5q-5 -26 -18.5 -60t-32.5 -72t-41 -77t-44 -75z" />
    <glyph glyph-name="Y" unicode="Y" horiz-adv-x="553" 
d="M363 275q-6 -8 -8.5 -22.5t-2.5 -25.5v-213q0 -6 -4.5 -10t-9.5 -4h-123q-15 0 -15 14v213q0 27 -15 54.5t-25 43.5q-3 6 -14.5 25t-25.5 42t-25.5 42.5t-14.5 25.5q-27 52 -42.5 91t-22 63.5t-8.5 30.5q-4 17 4 22.5t19 5.5h118q15 0 19 -14q10 -34 19.5 -60t18.5 -45.5
l15 -32.5q14 -27 24.5 -46.5t20.5 -35.5q7 -11 11 -12t11 12q3 6 7.5 12t10 15.5t12.5 23.5q8 15 20.5 41.5t26 60.5t21.5 69q2 8 6 10t14 2h123q8 0 14.5 -5.5t3.5 -22.5q-1 -6 -7.5 -32.5t-22 -68t-43.5 -93.5q-6 -13 -19.5 -35.5t-30 -49.5t-32.5 -51t-28 -40z" />
    <glyph glyph-name="Z" unicode="Z" horiz-adv-x="485" 
d="M438 673q7 0 9.5 -2t2.5 -13v-57q0 -21 -19.5 -50.5t-48.5 -64.5q-21 -26 -43 -58t-44 -68.5t-43 -76.5t-39.5 -82t-34.5 -85h278q13 0 16 -3t3 -12v-88q0 -9 -3 -11t-15 -2h-406q-25 0 -31 15t-3 42q4 36 16 77.5t30.5 86t41.5 90t48.5 89t53 83.5t53.5 74h-215
q-14 0 -17 3t-3 10v90q0 8 3 10.5t16 2.5h394z" />
    <glyph glyph-name="bracketleft" unicode="[" horiz-adv-x="367" 
d="M317 -94q0 -15 -12 -15h-257q-10 0 -14 4t-4 15v818q0 18 17 18h252q12 0 15 -1.5t3 -9.5v-67q0 -7 -4 -8.5t-12 -1.5h-128v-679h129q9 0 12 -2t3 -11v-60z" />
    <glyph glyph-name="backslash" unicode="\" horiz-adv-x="602" 
d="M470 0q-8 0 -13 4t-10 11l-414 658q-14 23 -13 28t11 5h97q9 0 12 -1.5t8 -9.5l430 -678q5 -7 4 -12t-10 -5h-102z" />
    <glyph glyph-name="bracketright" unicode="]" horiz-adv-x="367" 
d="M62 -109q-12 0 -12 15v60q0 9 3 11t12 2h129v679h-128q-8 0 -12 1.5t-4 8.5v67q0 8 3 9.5t15 1.5h252q17 0 17 -18v-818q0 -11 -4 -15t-14 -4h-257z" />
    <glyph glyph-name="asciicircum" unicode="^" horiz-adv-x="667" 
d="M52 395q-17 0 -21 5t5 15l216 276q5 7 11.5 11t27.5 4h94q14 0 19 -4.5t10 -13.5l214 -269q14 -15 8 -19.5t-20 -4.5h-111q-7 0 -13 4t-14 13l-144 185l-144 -183q-9 -11 -15 -15t-19 -4h-104z" />
    <glyph glyph-name="underscore" unicode="_" horiz-adv-x="576" 
d="M22 -114q-9 0 -10.5 3t-1.5 11v42q0 10 2 13t11 3h529q8 0 11 -2.5t3 -12.5v-47q0 -7 -2.5 -8.5t-14.5 -1.5h-527z" />
    <glyph glyph-name="grave" unicode="`" horiz-adv-x="200" 
d="M125 525q-15 0 -29 14l-94 92q-4 4 -1 9.5t8 5.5h105q12 0 17 -3t10 -11l53 -89q11 -18 -2 -18h-67z" />
    <glyph glyph-name="a" unicode="a" horiz-adv-x="466" 
d="M230 -7q-52 0 -97.5 11.5t-74 45t-28.5 97.5q0 53 20.5 86.5t52 51.5t64.5 24.5t58 6.5q18 0 34.5 -1t32.5 -3q8 -3 8 10q0 30 -20 42t-53 12q-37 0 -72 -15.5t-59 -26.5q-13 -6 -17 -4t-6 15l-10 62q-2 15 0 20t13 12q26 16 67.5 27t86.5 11q69 0 110.5 -15.5t62.5 -42
t28 -60t7 -69.5q0 -40 -0.5 -80t-2 -80t-5.5 -80q-3 -13 -6.5 -18.5t-15.5 -11.5q-13 -7 -37.5 -12t-52 -8.5t-51.5 -5t-37 -1.5zM238 80q8 0 16 1t15 4t11.5 7.5t5.5 11.5q2 23 4 48t0 50q0 10 -8 16q-9 8 -24 8.5t-20 0.5q-8 0 -19 -3t-21.5 -11t-17 -24t-6.5 -42
q0 -18 7 -33.5t21 -24.5t36 -9z" />
    <glyph glyph-name="b" unicode="b" horiz-adv-x="490" 
d="M238 -6q-52 0 -94 8.5t-59 15.5q-16 5 -24 9.5t-11 10.5t-5 14q-5 19 -8 57.5t-4 80.5t-1 73q0 128 7 241t19 193q1 8 6.5 9.5t13.5 1.5h109q17 0 17.5 -5t-1.5 -22q-3 -18 -6 -38.5t-5.5 -42t-4.5 -43t-3 -42t-1 -38.5q0 -8 4.5 -9t9.5 0q9 2 24 5t25 3q37 0 73 -10.5
t65.5 -37.5t47.5 -75t18 -124q0 -121 -56.5 -178t-155.5 -57zM237 106q18 0 32.5 11t23 38t8.5 73q0 42 -6 67t-16 37.5t-21 17t-21 4.5q-7 0 -15.5 -1.5t-17 -4t-15.5 -5.5q-4 -1 -5 -3t-1 -8v-51.5t0.5 -51.5t1 -51.5t1.5 -51.5q0 -5 1 -7.5t3 -4.5q8 -3 20.5 -5.5
t26.5 -2.5z" />
    <glyph glyph-name="c" unicode="c" horiz-adv-x="418" 
d="M248 -8q-66 0 -109 19t-66.5 53t-33 78.5t-9.5 94.5q0 47 10 90t34 78t66 55t107 20q44 0 77.5 -9t59.5 -30q8 -8 10.5 -12t2.5 -12v-85q0 -9 -6 -9.5t-11 3.5q-28 23 -55.5 29.5t-57.5 6.5q-22 0 -39.5 -10t-28.5 -27.5t-17 -40.5t-6 -48q0 -42 10 -72t28.5 -45.5
t43.5 -15.5q21 0 42.5 6t49.5 19q20 9 28 -9l27 -64q4 -9 2.5 -14t-9.5 -10q-27 -20 -68.5 -29.5t-81.5 -9.5z" />
    <glyph glyph-name="d" unicode="d" horiz-adv-x="487" 
d="M35 229q2 76 20.5 124t48.5 75t66.5 37.5t73.5 10.5q11 0 26 -3t24 -5q5 -1 9.5 0t4.5 9q0 18 -0.5 36.5t-2 36.5t-3.5 36.5l-4 37t-4 36.5q-3 20 1 23.5t15 3.5h110q8 0 13 -1.5t6 -9.5q4 -37 7.5 -91.5t5.5 -118.5t2.5 -128.5t-1 -122.5t-5 -101t-10.5 -62
q-4 -13 -10 -19.5t-30 -14.5q-18 -7 -60 -15.5t-94 -8.5q-39 0 -71.5 8.5t-57.5 25.5q-40 27 -60.5 77t-19.5 124zM185 228q-1 -70 17 -96t46 -26q9 0 17.5 1t16 3t13.5 4q2 2 3 4.5t1 7.5q1 21 2 41.5t1.5 41t1.5 41t1.5 41t0.5 41.5q0 6 -1 8t-5 3q-10 4 -23.5 7.5
t-23.5 3.5t-22 -4.5t-22 -17t-16.5 -37.5t-7.5 -67z" />
    <glyph glyph-name="e" unicode="e" horiz-adv-x="474" 
d="M30 237q0 47 10 90t34 78t66 55t107 20q67 0 107 -18.5t60.5 -49.5t27 -68t6.5 -73q0 -43 -10.5 -58t-31.5 -15h-219q-7 0 -8 -2.5t-1 -9.5q0 -25 13.5 -45.5t37.5 -33t55 -12.5q33 0 61 11.5t38 17.5q14 8 21.5 9.5t16.5 -16.5l24 -47q7 -13 3.5 -18t-15.5 -13
q-35 -25 -85.5 -36t-99.5 -11q-67 0 -109.5 19t-66 53t-33 78.5t-9.5 94.5zM300 295q0 26 -6.5 42.5t-19 24.5t-31.5 8q-16 0 -27.5 -6t-19 -16.5t-12 -23t-6.5 -24.5q-1 -18 0 -21.5t8 -3.5h104q8 0 9.5 3t0.5 17z" />
    <glyph glyph-name="f" unicode="f" horiz-adv-x="370" 
d="M86 19q-4 29 -7 72.5t-5.5 92.5t-3 94.5t-0.5 76.5q0 11 -9 11h-39q-8 0 -11.5 2t-3.5 13v74q0 14 3.5 15.5t14.5 1.5h38q5 0 6 2t1 10q0 59 7 92.5t27 61.5q26 36 72 55t115 19q31 0 58 -9.5t38 -14.5q17 -10 20.5 -15t1.5 -15l-21 -63q-4 -13 -8 -15t-12 3
q-15 10 -36.5 18t-44.5 7q-28 0 -50 -20.5t-22 -76.5v-14.5v-15.5q0 -6 1 -7.5t7 -1.5h115q11 0 13 -2.5t2 -16.5v-71q0 -11 -3 -13.5t-14 -2.5h-112q-7 0 -8.5 -2.5t-1.5 -7.5q0 -58 2 -115t4.5 -104.5t4.5 -79t2 -39.5q1 -12 -0.5 -15t-9.5 -3h-118q-5 0 -8 4t-5 15z" />
    <glyph glyph-name="g" unicode="g" horiz-adv-x="479" 
d="M30 242q0 68 19 121.5t67.5 84t136.5 30.5q40 0 78.5 -6.5t68.5 -17.5q28 -10 33 -21.5t8 -38.5q10 -85 10 -177t-11 -175q-11 -87 -66.5 -128t-150.5 -41q-38 0 -83.5 11t-86.5 41q-4 3 -7.5 11t1.5 16t16 27t16 27q8 14 12.5 15t16.5 -7q9 -7 28.5 -15t40.5 -14t32 -6
q12 0 29 3t31.5 13t17.5 32q0 1 0.5 2t0.5 2q1 7 -1.5 12.5t-12.5 3.5q-5 -1 -16.5 -1.5t-22.5 -0.5q-51 0 -98 20.5t-77 64.5t-30 112zM183 267q0 -33 5.5 -59.5t19 -41.5t38.5 -15q11 0 21.5 1t18.5 5q10 4 11 19q1 17 1 43t-0.5 53.5t-1 49.5t-1.5 32q0 5 -2 12.5t-6 8.5
q-8 4 -16.5 6t-24.5 2q-24 0 -37.5 -15t-19 -41t-6.5 -60z" />
    <glyph glyph-name="h" unicode="h" horiz-adv-x="471" 
d="M40 14v340v340q0 14 16 14h58.5h58.5q14 0 14 -14v-107v-107q0 -9 4.5 -10t8.5 1q5 2 24.5 5t35.5 3q48 0 81 -14t52.5 -42t29.5 -71.5t12 -102.5q2 -43 -0.5 -87.5t-7 -84t-9.5 -66.5q-1 -7 -6 -9t-13 -2h-54h-54q-18 0 -19.5 3.5t2.5 23.5q5 38 8 80t4 83q1 39 0 72
t-7 58t-19.5 38.5t-39.5 13.5q-5 0 -10 -1t-10 -3q-6 -2 -9.5 -7.5t-3.5 -13.5v-333q0 -14 -14 -14h-117q-16 0 -16 14z" />
    <glyph glyph-name="i" unicode="i" horiz-adv-x="215" 
d="M188 601q0 -34 -15 -51.5t-61 -17.5q-44 0 -60.5 17.5t-16.5 51.5q0 29 16.5 47.5t60.5 18.5q49 0 62.5 -18.5t13.5 -47.5zM185 14q0 -14 -15 -14h-117q-14 0 -14 14v444q0 14 14 14h117q15 0 15 -14v-444z" />
    <glyph glyph-name="j" unicode="j" horiz-adv-x="229" 
d="M-77 -71l26 49q5 8 10.5 7t12.5 -5q19 -9 32 -8q16 2 31.5 20.5t15.5 51.5v414q0 14 14 14h117q15 0 15 -14v-414q0 -79 -33.5 -124.5t-120.5 -45.5q-28 0 -55 6t-47 17q-18 11 -21 16.5t3 15.5zM199 601q0 -34 -15 -51.5t-61 -17.5q-44 0 -60.5 17.5t-16.5 51.5
q0 29 16.5 47.5t60.5 18.5q49 0 62.5 -18.5t13.5 -47.5z" />
    <glyph glyph-name="k" unicode="k" horiz-adv-x="455" 
d="M40 4v670q0 4 4 4h139q4 0 4 -4v-351q0 -2 0.5 -6.5t1.5 -4.5q2 0 4.5 2t3.5 3q7 7 10.5 11.5t9.5 14.5q13 20 22 36.5t17 35t18 43.5q5 11 10.5 12.5t19.5 1.5h118q10 0 10 -6.5t-2 -10.5q-2 -5 -10.5 -24t-22.5 -45.5t-31.5 -55t-38.5 -53.5q-4 -5 -7 -8t-6 -7
q2 -1 6.5 -3t5.5 -4q17 -17 35.5 -46.5t35.5 -63.5t31 -64.5t22.5 -50.5t9.5 -22q4 -8 -3 -8h-23.5h-45.5h-45.5h-23.5q-4 0 -5 0.5t-4 6.5l-7.5 14t-19.5 35.5t-24.5 44.5t-22 41.5t-13.5 25.5q-3 8 -9.5 18t-13 16t-11.5 -1q-2 -3 -2 -16v-181q0 -4 -4 -4h-139q-4 0 -4 4z
" />
    <glyph glyph-name="l" unicode="l" horiz-adv-x="227" 
d="M40 14v680q0 14 16 14h115q16 0 16 -14v-680q0 -14 -16 -14h-115q-16 0 -16 14z" />
    <glyph glyph-name="m" unicode="m" horiz-adv-x="715" 
d="M57 0q-17 0 -17 15v407q0 10 5.5 15.5t17.5 9.5q20 7 49 13.5t58 11t49 4.5q51 0 84 -9.5t62 -28.5q21 12 40 20.5t38.5 13t43.5 4.5q80 0 123 -30.5t60 -81.5t17 -114q0 -51 -2 -89t-6 -72.5t-10 -78.5q-1 -7 -3 -8.5t-7 -1.5h-124q-7 0 -8.5 4t-0.5 17q3 33 5 71.5
t3 80t1 81.5q0 11 -1.5 29t-7.5 36.5t-18.5 31t-34.5 12.5q-26 0 -32.5 -5.5t-6.5 -19.5v-80.5v-81v-80.5v-81q0 -15 -14 -15h-124q-9 0 -9 10v243q0 32 -6 56.5t-20.5 39t-41.5 14.5q-6 0 -12 -1t-11 -3q-10 -4 -10 -15v-326q0 -18 -15 -18h-114z" />
    <glyph glyph-name="n" unicode="n" horiz-adv-x="464" 
d="M57 0q-17 0 -17 15v205.5v205.5q0 12 8 17t31 13q12 4 38 9.5t56 10t54 4.5q85 0 130 -31.5t62 -83t17 -113.5q0 -35 -1.5 -73.5t-4.5 -77t-7 -73.5q-2 -21 -6.5 -24.5t-20.5 -3.5h-94q-16 0 -21.5 4t-4.5 17q0 4 2 32t4 66.5t3.5 74.5t1.5 56q0 51 -8 75.5t-22 32
t-34 7.5h-11.5t-8.5 -1q-10 -1 -13.5 -8t-3.5 -24v-90.5v-110.5v-116q0 -15 -12 -15h-117z" />
    <glyph glyph-name="o" unicode="o" horiz-adv-x="506" 
d="M253 -8q-89 0 -137.5 32.5t-67 88.5t-18.5 126q0 69 21 123.5t69.5 86t132.5 31.5t132.5 -31.5t69.5 -86t21 -123.5t-18.5 -125t-67 -89t-137.5 -33zM251 103q41 0 57.5 34.5t16.5 97.5q0 62 -18 94t-56 32q-37 0 -55 -32t-18 -94q0 -64 16.5 -98t56.5 -34z" />
    <glyph glyph-name="p" unicode="p" horiz-adv-x="483" 
d="M49 -96q-4 29 -6.5 105t-2.5 203q0 32 1 74t4 80.5t8 57.5q3 12 9.5 19t30.5 15q17 6 59 14.5t94 8.5q99 0 155.5 -56.5t56.5 -177.5q0 -50 -8.5 -88.5t-24 -66.5t-35 -47t-42.5 -31q-18 -9 -42 -14.5t-48 -7t-45 0.5q-10 1 -15 2t-6 -7v-21.5t1 -28t1 -17.5
q2 -16 1.5 -21.5t-17.5 -5.5h-109q-9 0 -14 1.5t-6 8.5zM191 144q0 -6 1 -8.5t5 -3.5q11 -4 24.5 -7t23.5 -3t21 4.5t21 17t16 37.5t6 67q0 70 -18.5 95.5t-45.5 25.5q-14 0 -26.5 -2t-20.5 -6q-2 -1 -3 -4t-1 -8q-1 -20 -1.5 -40.5t-0.5 -41t-0.5 -41.5t-0.5 -41.5v-40.5z
" />
    <glyph glyph-name="q" unicode="q" horiz-adv-x="496" 
d="M131 14q-22 12 -41.5 31t-33.5 47t-21 66.5t-4 88.5q5 121 64.5 177.5t159.5 56.5q52 0 94 -8.5t60 -14.5q22 -8 28 -15t9 -19q4 -14 4.5 -53t-0.5 -92t-4 -111.5t-6.5 -112.5t-7 -94t-7.5 -57q-2 -7 -7.5 -8.5t-13.5 -1.5h-110q-16 0 -15 5.5t2 21.5q1 4 2 17.5t2.5 28
t0.5 21.5q0 8 -5.5 7t-17.5 -2q-31 -3 -68 2t-64 19zM181 248q-2 -42 2.5 -67t13.5 -37.5t20.5 -17t21.5 -4.5t24 3t25 7q4 1 5 3.5t1 8.5q1 20 2 40.5t1.5 41.5t1 41.5l1 41t0.5 40.5q1 5 0.5 8t-2.5 4q-9 4 -21.5 6t-26.5 2q-27 0 -46 -25.5t-23 -95.5z" />
    <glyph glyph-name="r" unicode="r" horiz-adv-x="341" 
d="M204 476q81 0 133 -24q11 -5 12.5 -9.5t-0.5 -11.5l-20 -71q-2 -9 -5.5 -10.5t-13.5 1.5q-17 5 -38 7.5t-30 2.5q-16 0 -24.5 -1t-12.5 -2.5t-7 -3.5q-4 -3 -8 -6.5t-4 -17.5v-306q0 -16 -4.5 -20t-15.5 -4h-112q-5 0 -9.5 3.5t-4.5 16.5v397q0 16 3.5 20.5t14.5 9.5
q30 14 72 21.5t74 7.5z" />
    <glyph glyph-name="s" unicode="s" horiz-adv-x="415" 
d="M41 127q3 13 10.5 11t14.5 -6q17 -8 39.5 -14t46 -9.5t42.5 -3.5q18 0 31.5 3t22 10t8.5 18q1 17 -17.5 27.5t-65.5 21.5q-31 8 -64.5 22t-56 42t-22.5 75q0 52 26.5 85.5t68.5 50.5t90 17q37 0 82.5 -11.5t75.5 -28.5q11 -6 11.5 -10.5t-2.5 -12.5l-27 -73
q-3 -14 -21 -7q-23 12 -54.5 23.5t-64.5 11.5q-16 0 -30 -7.5t-14 -21.5q0 -18 17.5 -26t51.5 -17q26 -7 52 -14.5t48.5 -22t36 -39.5t13.5 -66q0 -46 -17.5 -76.5t-46.5 -49t-63 -26.5t-67 -8q-19 0 -49 4t-60.5 13.5t-52.5 24.5q-4 3 -7 7t-2 10z" />
    <glyph glyph-name="t" unicode="t" horiz-adv-x="368" 
d="M235 0q-70 0 -104.5 29t-45.5 81q-8 42 -9 85.5t-1 86.5q0 28 0.5 47t1.5 44q0 10 -9 10h-38q-9 0 -12 2t-3 14v56q0 14 3 15.5t15 1.5h39q8 0 9 4.5t2 14.5l4 71q0 14 14 14h114q6 0 11.5 -4t4.5 -10l-5 -72q-1 -13 0.5 -15.5t7.5 -2.5h73q12 0 14 -2.5t2 -16.5v-53
q0 -11 -3.5 -14t-14.5 -3h-72q-7 0 -9.5 -3.5t-2.5 -11.5q-1 -23 -1.5 -47.5t-1.5 -50.5q0 -33 2 -66.5t9 -63.5q5 -16 14.5 -22.5t21.5 -6.5q11 0 21.5 3.5l16.5 5.5q13 8 16.5 5t7.5 -14l20 -69q4 -8 -3 -14t-27 -14q-12 -4 -25.5 -7.5t-27.5 -5t-29 -1.5z" />
    <glyph glyph-name="u" unicode="u" horiz-adv-x="471" 
d="M245 -4q-84 0 -129.5 31t-63 82.5t-17.5 112.5q0 35 1.5 73t5 76.5t7.5 72.5q2 21 6.5 24.5t20.5 3.5h94q15 0 22 -0.5t4 -20.5q0 -4 -1.5 -29t-3.5 -61.5t-3 -74.5t-1 -68q0 -59 14 -84t48 -25q4 0 10.5 0.5t12.5 1.5t10 4.5t4 9.5v327q0 6 1 13t8 7h120q4 0 10 -2
t6 -13v-407q0 -12 -7.5 -17t-30.5 -13q-12 -4 -38 -9.5t-55.5 -10t-54.5 -4.5z" />
    <glyph glyph-name="v" unicode="v" horiz-adv-x="429" 
d="M179 0q-8 0 -12 6q-28 41 -47.5 89t-37.5 95q-30 80 -45.5 138.5t-24.5 110.5q-6 33 10 33h123q8 0 12.5 -5t5.5 -10q2 -28 7.5 -56.5t13.5 -68.5q9 -45 16 -72l14 -54q3 -10 8 -9t8 9q5 17 10 39.5t13 62.5q8 44 15 87t9 71q1 5 5 5h132q6 0 5 -7q-10 -68 -27 -137.5
t-43 -140.5q-15 -43 -34.5 -87.5t-47.5 -93.5q-4 -6 -9 -6z" />
    <glyph glyph-name="w" unicode="w" horiz-adv-x="657" 
d="M156 18q-27 53 -50 109.5t-41.5 112t-31.5 105t-20 87.5q-3 17 -2.5 28.5t11.5 11.5h123q15 0 18 -15q6 -30 12.5 -61.5t13.5 -62t13 -57t11 -47t8 -31.5q2 -8 4.5 -6.5t3.5 3.5q5 11 9.5 28t8 36.5t5.5 38t2 31.5q0 19 -0.5 37.5t-0.5 34.5t-0.5 30t-0.5 24q0 16 15 16
h128q6 0 10 -3.5t4 -11.5q0 -29 1 -67t5 -74q2 -15 4 -29.5t4.5 -28t5.5 -25t6 -21t6 -17.5q6 -13 9 0q4 15 9 36t11 46.5t12 55t12 60t11 61.5q3 19 24 19h105q11 0 12 -10t-1 -25q-7 -46 -22.5 -106.5t-36 -122t-42 -112.5t-41.5 -78q-6 -9 -10 -13.5t-10 -4.5h-75
q-7 0 -10.5 2.5t-8.5 9.5t-14.5 25t-19 38.5t-15.5 36.5q-10 26 -19 0q0 -2 -5 -12t-10.5 -21.5t-8.5 -17.5q-7 -13 -15.5 -28.5t-11.5 -20.5q-3 -4 -8 -8t-13 -4h-70q-11 0 -13.5 2.5t-9.5 15.5z" />
    <glyph glyph-name="x" unicode="x" horiz-adv-x="429" 
d="M26 0q-10 0 -12 9t0.5 19t2.5 12q3 14 9.5 34t17 45t25 55t32.5 64q3 5 2 8.5t-5 8.5q-23 32 -40.5 68.5t-29 69t-17.5 53l-6 20.5q-1 6 4 6h140q8 0 11.5 -2t6.5 -13q3 -14 10 -38.5t15.5 -49.5t17 -43t14.5 -20q1 0 0.5 0t0.5 0q8 2 16 19t16 41t14 48t9 39
q2 10 6.5 14.5t20.5 4.5h102q3 0 9.5 -2t5.5 -13q-3 -13 -8 -34.5t-14 -48t-24.5 -57t-38.5 -62.5q-7 -7 1 -18q25 -35 40.5 -69t23.5 -62.5t11.5 -47t4.5 -23.5q3 -15 1.5 -25t-12.5 -10h-102q-16 0 -20.5 4.5t-6.5 14.5q-4 16 -10 39.5t-13.5 47.5t-15.5 41.5t-16 20.5
q-6 0 -4 0h4.5t-3.5 0q-13 -22 -23 -48t-17 -50t-11 -39.5l-4 -15.5q-3 -10 -6.5 -12.5t-13.5 -2.5h-121z" />
    <glyph glyph-name="y" unicode="y" horiz-adv-x="430" 
d="M113 118q-18 39 -33 79.5t-27.5 82.5t-22 84.5t-17.5 85.5q-4 22 13 22h115q12 0 17 -6.5t7 -23.5q2 -11 5 -30.5t7.5 -43.5t10 -50.5t12 -52.5t12.5 -49q4 -7 8 -7t5 8q8 29 15 58t14 58.5t13 59t12 59.5q2 11 6 15.5t16 4.5h98q11 0 17 -4t3 -20q-7 -41 -16 -78
t-21 -76t-29 -88q-10 -28 -25 -69t-37.5 -85t-54 -82t-73.5 -62t-97 -24q-30 0 -50.5 4t-34.5 11q-23 12 -12 33l28 53q5 10 9.5 10t12.5 -2q14 -4 30.5 -2.5t30.5 8.5q18 8 28.5 18.5t14.5 21.5q8 19 3.5 39.5t-13.5 39.5z" />
    <glyph glyph-name="z" unicode="z" horiz-adv-x="393" 
d="M26 41q5 50 26 98t50 94q19 30 40 59t43 56q2 3 3 6t-7 6h-119q-9 0 -12 2t-3 13v80q0 14 3 15.5t15 1.5h287q13 0 14.5 -4.5t1.5 -15.5v-70q0 -7 -3.5 -15.5t-17.5 -18.5q-13 -8 -29 -24t-32.5 -36.5t-33.5 -43.5q-21 -29 -39.5 -60t-31.5 -59q-1 -4 0.5 -8.5t11.5 -4.5
h162q10 0 11.5 -3.5t1.5 -15.5v-79q0 -10 -4.5 -12t-17.5 -2h-302q-12 0 -16 6t-2 35z" />
    <glyph glyph-name="braceleft" unicode="{" horiz-adv-x="442" 
d="M392 -80q0 -19 -5 -24.5t-25 -5.5h-101q-56 0 -83 20.5t-34.5 50t-7.5 57.5v178q0 23 -10 40.5t-25 26.5q-5 4 -20 7t-39 3q-7 0 -9.5 5t-2.5 11v76q0 8 5.5 9.5t18.5 1.5q35 0 58.5 19t23.5 57v164q0 28 7.5 57t34.5 49.5t83 20.5h119q8 0 10 -2.5t2 -6.5v-67
q0 -4 -2 -7.5t-10 -3.5h-64q-19 0 -24.5 -10t-5.5 -30v-164q0 -23 -12.5 -49t-34.5 -46.5t-51 -29.5l-8 -2l-8 -2q4 -1 7.5 -2t7.5 -3q44 -16 71.5 -52.5t27.5 -69.5v-178q0 -19 5.5 -29.5t24.5 -10.5h46q17 0 23.5 -5t6.5 -24v-29z" />
    <glyph glyph-name="bar" unicode="|" horiz-adv-x="274" 
d="M198 706q12 0 14 -5t2 -17v-778q0 -5 -3 -10.5t-14 -5.5h-118q-9 0 -14 5.5t-5 24.5v767q0 11 3.5 15t14.5 4h120z" />
    <glyph glyph-name="braceright" unicode="}" horiz-adv-x="442" 
d="M50 -80v29q0 19 7 24t23 5h46q20 0 25 10.5t5 29.5v178q0 33 27.5 69.5t71.5 52.5q4 2 7.5 3t7.5 2l-8 2l-8 2q-28 9 -50.5 29.5t-35 46.5t-12.5 49v164q0 20 -5 30t-25 10h-64q-8 0 -10 3.5t-2 7.5v67q0 4 2 6.5t10 2.5h119q57 0 83.5 -20.5t34 -49.5t7.5 -57v-164
q0 -38 23.5 -57t58.5 -19q14 0 19 -1.5t5 -9.5v-76q0 -6 -2 -11t-10 -5q-24 0 -39 -3t-20 -7q-15 -9 -25 -26.5t-10 -40.5v-178q0 -28 -7.5 -57.5t-34 -50t-83.5 -20.5h-101q-19 0 -24.5 5.5t-5.5 24.5z" />
    <glyph glyph-name="asciitilde" unicode="~" horiz-adv-x="503" 
d="M462 570q-29 -28 -64 -43t-69 -15q-23 0 -42.5 6t-37.5 13.5t-35.5 13.5t-36.5 6q-16 0 -32 -7t-28 -16.5t-18 -16.5q-4 -6 -7.5 -6t-11.5 5l-44 45q-7 5 -5 13t3 10q12 15 31.5 33.5t45.5 32t56 13.5q15 0 30 -2t29 -5.5t28.5 -8.5t27.5 -11q13 -5 33.5 -7t43.5 3.5
t40 22.5q5 5 10 7t11 -5l47 -49q8 -7 5.5 -15.5t-10.5 -16.5z" />
    <glyph glyph-name="uni00A0" unicode="&#xa0;" horiz-adv-x="225" 
 />
    <glyph glyph-name="exclamdown" unicode="&#xa1;" horiz-adv-x="251" 
d="M173 268q9 0 12 -2.5t3 -15.5l18 -430q0 -7 -2 -11t-10 -4h-137q-12 0 -12 13l19 432q0 12 2.5 15t14.5 3h92zM57 438q0 29 14.5 44t59.5 15q39 0 56.5 -15t17.5 -44q0 -28 -17.5 -43.5t-56.5 -15.5q-45 0 -59.5 15.5t-14.5 43.5z" />
    <glyph glyph-name="cent" unicode="&#xa2;" horiz-adv-x="458" 
d="M258 73q-66 0 -109 19t-66.5 52.5t-33 77.5t-9.5 93q0 46 10 89t34 77.5t66 54.5t107 20q44 0 77.5 -9t59.5 -30q8 -8 10.5 -12t2.5 -12v-83q0 -9 -6 -9.5t-11 3.5q-28 22 -55.5 28t-57.5 6q-22 0 -39.5 -10t-28.5 -27.5t-17 -39.5t-6 -47q0 -41 10 -70.5t28.5 -44.5
t43.5 -15q21 0 42.5 6t49.5 19q20 9 28 -9l27 -64q4 -9 2.5 -14t-9.5 -10q-27 -20 -68.5 -29.5t-81.5 -9.5zM315 139v-172q0 -5 -3 -10.5t-14 -5.5h-118q-9 0 -14 5.5t-5 24.5v158h154zM161 480v207q0 11 3.5 15t14.5 4h120q12 0 14 -5t2 -17v-204h-154z" />
    <glyph glyph-name="sterling" unicode="&#xa3;" horiz-adv-x="539" 
d="M374 -12q-33 0 -60 5.5t-67 15.5q-21 6 -40 9.5t-36 3.5q-21 0 -56 -4t-59 -12q-16 -5 -23.5 -3.5t-7.5 14.5v30.5v30.5q0 10 3 15.5t15 9.5q40 14 64.5 29.5t36.5 39.5t11 63h-44h-44q-13 0 -19 3t-6 13v29.5v29.5q0 17 2.5 21t11.5 4h37h37q-15 40 -28.5 87.5
t-13.5 82.5q0 43 26 82t74 63.5t114 24.5q17 0 41.5 -3.5t49 -9t40.5 -13.5q7 -3 9 -11t2 -13v-38v-38q0 -9 -2.5 -12.5t-17.5 2.5q-31 14 -60.5 23t-43.5 9q-28 0 -45.5 -8.5t-25.5 -23.5t-8 -34q0 -43 14 -84t19 -86h52h52q8 0 10 -5.5t2 -19.5v-28.5v-28.5
q0 -12 -2.5 -15t-13.5 -3h-42h-42v-6.5v-6.5q0 -37 -7 -59t-23 -52q34 -9 53.5 -13t33.5 -5t30 -1q29 0 57 7.5t50 18.5q15 7 15 -14v-57q0 -17 -4 -23.5t-7 -8.5q-26 -17 -54 -22t-60 -5z" />
    <glyph glyph-name="currency" unicode="&#xa4;" horiz-adv-x="530" 
d="M90 143l-42 40q-6 7 -8 12t4 11l83 73q-5 14 -8 28t-3 29q0 16 3.5 31t9.5 29l-72 65q-6 5 -3 10.5t9 10.5l45 44q6 6 9.5 5.5t7.5 -5.5l69 -62q17 8 35 12.5t38 4.5q36 0 70 -16l68 61q5 5 8 5.5t9 -5.5l45 -44q7 -5 9.5 -10.5t-3.5 -10.5l-69 -62q7 -14 11 -30t4 -33
q0 -31 -14 -59l81 -71q6 -6 4 -11t-8 -12l-42 -40q-8 -7 -13 -7t-13 7l-75 66q-32 -17 -72 -17q-42 0 -75 18l-76 -67q-7 -7 -12.5 -7t-13.5 7zM197 336q0 -28 20.5 -47t49.5 -19t48.5 19t19.5 47t-19.5 47t-48.5 19t-49.5 -19t-20.5 -47z" />
    <glyph glyph-name="yen" unicode="&#xa5;" horiz-adv-x="591" 
d="M382 275q-6 -8 -8.5 -22.5t-2.5 -25.5v-213q0 -6 -4.5 -10t-9.5 -4h-123q-15 0 -15 14v213q0 27 -15 54.5t-25 43.5q-3 6 -14.5 25t-25.5 42t-25.5 42.5t-14.5 25.5q-27 52 -42.5 91t-22 63.5t-8.5 30.5q-4 17 4 22.5t19 5.5h118q15 0 19 -14q10 -34 19.5 -60t18.5 -45.5
l15 -32.5q14 -27 24.5 -46.5t20.5 -35.5q7 -11 11 -12t11 12q3 6 7.5 12t10 15.5t12.5 23.5q8 15 20.5 41.5t26 60.5t21.5 69q2 8 6 10t14 2h123q8 0 14.5 -5.5t3.5 -22.5q-1 -6 -7.5 -32.5t-22 -68t-43.5 -93.5q-6 -13 -19.5 -35.5t-30 -49.5t-32.5 -51t-28 -40zM123 202
q-10 0 -11.5 3.5t-1.5 10.5v45q0 10 2.5 13t12.5 3h331q8 0 11 -2.5t3 -11.5v-50q0 -7 -2 -9t-13 -2h-332zM123 91q-10 0 -11.5 3t-1.5 11v45q0 10 2.5 12.5t12.5 2.5h331q8 0 11 -2t3 -12v-50q0 -7 -2 -8.5t-13 -1.5h-332z" />
    <glyph glyph-name="brokenbar" unicode="&#xa6;" horiz-adv-x="274" 
d="M214 304v-398q0 -5 -3 -10.5t-14 -5.5h-118q-9 0 -14 5.5t-5 24.5v384h154zM60 341v346q0 11 3.5 15t14.5 4h120q12 0 14 -5t2 -17v-343h-154z" />
    <glyph glyph-name="section" unicode="&#xa7;" horiz-adv-x="600" 
d="M49 -185v84q0 7 4.5 8t15.5 -4q18 -6 43 -10.5t49 -7.5t39 -3q42 0 64.5 23.5t22.5 51.5q0 20 -11.5 35.5t-30.5 27t-43 18.5q-21 5 -49.5 15t-56 29t-45.5 51.5t-18 83.5q0 63 24.5 114.5t71 82t110.5 30.5q23 0 53 -5t60 -13t51 -18q11 -3 13 -7.5t2 -12.5v-95
q0 -34 -40 -11q-15 10 -35 18t-43 12.5t-49 4.5q-28 0 -49.5 -10.5t-33 -26.5t-11.5 -35q5 -33 24.5 -52.5t46 -30t53.5 -17t48 -14.5q25 -9 44 -22.5t31.5 -32.5t19 -45.5t6.5 -61.5q0 -69 -30 -112.5t-81.5 -64t-117.5 -20.5q-28 0 -64 5t-64 16q-14 4 -19 8.5t-5 13.5z
M150 95l-2 87q0 5 2.5 10t7 7t11.5 -3q49 -33 78.5 -36.5t51.5 -1.5q43 4 65 29.5t22 50.5q0 23 -11 37t-30.5 23.5t-42.5 15.5q-21 6 -49.5 15.5t-55.5 28.5t-44.5 51t-17.5 82q0 62 29 100t75.5 55.5t97.5 17.5q19 0 43.5 -4t48.5 -10.5t42 -14.5q8 -2 10 -5.5t2 -9.5v-77
q0 -28 -33 -9q-12 7 -28 14t-34.5 10.5t-39.5 3.5q-35 0 -56 -18t-21 -40q0 -28 16.5 -43.5t41 -25t51 -15.5t47.5 -14q32 -11 54.5 -31t34 -51.5t11.5 -77.5q0 -67 -30 -110t-81 -63.5t-115 -20.5q-28 0 -63.5 5t-63.5 15q-14 5 -19 9.5t-5 13.5z" />
    <glyph glyph-name="dieresis" unicode="&#xa8;" horiz-adv-x="295" 
d="M122 574q0 -25 -13 -38.5t-48 -13.5q-31 0 -45 13.5t-14 38.5t14 38.5t45 13.5q35 0 48 -13.5t13 -38.5zM290 574q0 -25 -12.5 -38.5t-47.5 -13.5q-32 0 -46 13.5t-14 38.5t14 38.5t46 13.5q35 0 47.5 -13.5t12.5 -38.5z" />
    <glyph glyph-name="copyright" unicode="&#xa9;" horiz-adv-x="862" 
d="M40 333q0 74 30.5 138.5t84.5 113.5t124.5 77t151.5 28t152 -28t125 -77t84 -113.5t30 -138.5t-30 -139.5t-84 -115.5t-125 -78t-152 -28t-152 28t-124.5 78t-84 115.5t-30.5 139.5zM150 333q0 -54 21.5 -101.5t60.5 -83t90 -56t109 -20.5t109 20.5t89.5 56t60 83
t21.5 101.5t-21.5 100.5t-60 81.5t-89.5 54.5t-109 19.5t-109 -19.5t-89.5 -54.5t-60.5 -81.5t-22 -100.5zM254 332q0 64 24.5 107t71.5 65t112 22q11 0 36 -1t42 -6q11 -2 18.5 -5t7.5 -9v-55q0 -16 -29 -4q-16 8 -33.5 11.5t-32.5 3.5q-38 0 -59.5 -15.5t-30 -42.5
t-8.5 -63q0 -29 7 -61t28 -53.5t63 -21.5q17 0 36 3.5t29 8.5q17 8 23.5 7t6.5 -11v-47q0 -7 -7.5 -12t-18.5 -8q-17 -4 -42 -5t-36 -1q-62 0 -109 22t-73 65t-26 106z" />
    <glyph glyph-name="ordfeminine" unicode="&#xaa;" horiz-adv-x="466" 
d="M230 -7q-52 0 -97.5 11.5t-74 45t-28.5 97.5q0 53 20.5 86.5t52 51.5t64.5 24.5t58 6.5q18 0 34.5 -1t32.5 -3q8 -3 8 10q0 30 -20 42t-53 12q-37 0 -72 -15.5t-59 -26.5q-13 -6 -17 -4t-6 15l-10 62q-2 15 0 20t13 12q26 16 67.5 27t86.5 11q69 0 110.5 -15.5t62.5 -42
t28 -60t7 -69.5q0 -40 -0.5 -80t-2 -80t-5.5 -80q-3 -13 -6.5 -18.5t-15.5 -11.5q-13 -7 -37.5 -12t-52 -8.5t-51.5 -5t-37 -1.5zM238 80q8 0 16 1t15 4t11.5 7.5t5.5 11.5q2 23 4 48t0 50q0 10 -8 16q-9 8 -24 8.5t-20 0.5q-8 0 -19 -3t-21.5 -11t-17 -24t-6.5 -42
q0 -18 7 -33.5t21 -24.5t36 -9z" />
    <glyph glyph-name="guillemotleft" unicode="&#xab;" horiz-adv-x="550" 
d="M374 144q-5 0 -8 3q-30 45 -60.5 90t-60.5 90q-11 10 0 19q30 45 60.5 89.5t60.5 89.5q2 3 4.5 3.5t3.5 0.5h61h61q5 0 4 -2.5t-3 -4.5q-1 -1 -14 -20t-31 -47t-36 -55t-30 -45.5l-12 -18.5l12 -18.5t30 -45.5t36 -54.5t31 -46.5t14 -20q2 -1 3 -4t-4 -3h-61h-61z
M165 144q-5 0 -8 3q-30 45 -60.5 90t-60.5 90q-11 10 0 19q30 45 60.5 89.5t60.5 89.5q2 3 4.5 3.5t3.5 0.5h61h61q5 0 4 -2.5t-3 -4.5q-1 -1 -14 -20t-31 -47t-36 -55t-30 -45.5l-12 -18.5l12 -18.5t30 -45.5t36 -54.5t31 -46.5t14 -20q2 -1 3 -4t-4 -3h-61h-61z" />
    <glyph glyph-name="logicalnot" unicode="&#xac;" horiz-adv-x="721" 
d="M601 107q-10 0 -12.5 2t-2.5 10v180h-524q-9 0 -10.5 2.5t-1.5 9.5v65q0 8 2.5 10.5t11.5 2.5h594q8 0 10.5 -2t2.5 -10v-259q0 -8 -2.5 -9.5t-10.5 -1.5h-57z" />
    <glyph glyph-name="uni00AD" unicode="&#xad;" horiz-adv-x="400" 
d="M53 222q-10 0 -11.5 3t-1.5 11v75q0 10 2 12.5t12 2.5h292q9 0 11.5 -2t2.5 -12v-80q0 -7 -2 -8.5t-13 -1.5h-292z" />
    <glyph glyph-name="registered" unicode="&#xae;" horiz-adv-x="652" 
d="M326 194q-57 0 -107 20t-88 54.5t-59.5 81t-21.5 98.5q0 53 22 98.5t60 80t88 54t106 19.5q77 0 139.5 -34t99.5 -91t37 -127q0 -52 -21.5 -98.5t-59.5 -81t-88 -54.5t-107 -20zM326 265q55 0 100 24.5t71.5 66.5t26.5 92q0 51 -26.5 92t-71.5 65t-100 24q-54 0 -99 -24
t-72 -65t-27 -92q0 -50 27 -92t72 -66.5t99 -24.5zM237 319q-7 0 -7 6v255q0 6 7 6h81q55 0 79 -19t24 -65q0 -20 -9 -37.5t-24 -32.5q-6 -6 -9 -10.5t2 -13.5t11 -15.5t16 -11.5q7 -3 15.5 -5.5t21.5 -2.5q5 0 5.5 -1t0.5 -6v-41q0 -4 -3 -5t-22 -1t-35 5t-30 13
q-17 11 -34 26t-17 36l-1.5 4t-3.5 4h-3q-2 0 -2 -6v-76q0 -6 -7 -6h-56zM300 458q0 -3 4 -3h12q17 0 27.5 12.5t10.5 33.5q0 28 -10.5 36t-27.5 8h-13q-3 0 -3 -4v-83z" />
    <glyph glyph-name="macron" unicode="&#xaf;" horiz-adv-x="240" 
d="M240 534q0 -4 -2 -5t-11 -1h-216q-8 0 -9.5 2t-1.5 7v66q0 7 2 9t9 2h217q8 0 10 -1.5t2 -8.5v-70z" />
    <glyph glyph-name="degree" unicode="&#xb0;" horiz-adv-x="383" 
d="M40 682q0 40 20 73t54.5 52.5t76.5 19.5t76.5 -19.5t55 -52.5t20.5 -73t-20.5 -72.5t-55 -52t-76.5 -19.5t-76.5 19.5t-54.5 52t-20 72.5zM121 682q0 -28 20.5 -47t49.5 -19t48.5 19t19.5 47t-19.5 47t-48.5 19t-49.5 -19t-20.5 -47z" />
    <glyph glyph-name="plusminus" unicode="&#xb1;" horiz-adv-x="498" 
d="M207 162q-10 0 -12.5 2t-2.5 10v128h-129q-9 0 -10.5 2.5t-1.5 9.5v63q0 8 2.5 10.5t10.5 2.5h128v127q0 7 2 9.5t12 2.5h80q6 0 7.5 -2t1.5 -12v-125l141 -2q7 0 9.5 -2.5t2.5 -10.5v-66q0 -5 -1.5 -7t-11.5 -2l-140 2v-129q0 -8 -2.5 -9.5t-10.5 -1.5h-75zM66 19
q-12 0 -14 3t-2 11v60q0 9 2.5 11.5t14.5 2.5h363q11 0 14 -2t3 -11v-65q0 -7 -2.5 -8.5t-16.5 -1.5h-362z" />
    <glyph glyph-name="uni00B2" unicode="&#xb2;" horiz-adv-x="362" 
d="M42 250q-10 0 -12 1.5t-2 9.5v58q0 13 9 18q29 17 60.5 41t58.5 51.5t43.5 55.5t16.5 52q0 17 -12.5 35t-55.5 18q-34 0 -59 -10.5t-40 -20t-21 -8.5q-4 0 -4 8v79q0 6 1.5 9t11.5 8q21 11 56 23t71 12q42 0 80 -15.5t62.5 -48.5t24.5 -85q0 -26 -8.5 -51t-25 -49.5
t-40.5 -49t-55 -50.5q-1 -1 0 -3t3 -2h120q7 0 7 -7v-67q0 -9 -1.5 -10.5t-11.5 -1.5h-277z" />
    <glyph glyph-name="uni00B3" unicode="&#xb3;" horiz-adv-x="372" 
d="M175 247q-45 0 -81 17.5t-65 48.5q-6 7 -4.5 12t4.5 9l41 48q12 13 23 2q17 -16 37.5 -27t44.5 -11q18 0 30 6t18 16.5t6 22.5q0 11 -15.5 28t-54.5 17h-13.5h-17.5q-14 0 -14 16v58q0 16 14 16h22.5h26.5q20 0 32.5 12t12.5 25q0 12 -12 21t-40 9q-21 0 -41.5 -9.5
t-38.5 -28.5q-12 -12 -20 2l-38 64q-3 5 -0.5 11.5t4.5 8.5q44 34 79.5 42t63.5 8q50 0 83 -16.5t49.5 -43t16.5 -55.5q0 -38 -21.5 -63.5t-44.5 -29.5q-4 -1 -6.5 -1.5l-2.5 -0.5h2t8 -1q31 -3 55 -25.5t24 -64.5q0 -35 -19.5 -68t-56.5 -54t-91 -21z" />
    <glyph glyph-name="acute" unicode="&#xb4;" horiz-adv-x="199" 
d="M11 524q-10 0 -10.5 3.5t7.5 14.5l69 95q5 8 23 8h89q7 0 9.5 -3.5t-5.5 -11.5l-93 -99q-5 -6 -9.5 -6.5t-13.5 -0.5h-66z" />
    <glyph glyph-name="uni00B5" unicode="&#xb5;" horiz-adv-x="546" 
d="M69 -106q-10 0 -15 3.5t-7 15.5q-1 15 -2.5 49.5t-2 83t0.5 103.5q-1 21 -2 38.5t-1 34.5q0 35 2 73t5 76.5t7 72.5q2 20 6.5 24t20.5 4h100q13 0 17.5 -4t2.5 -17q0 -4 -2 -29t-4 -61.5t-3.5 -74.5t-1.5 -68q0 -66 16.5 -87.5t47.5 -21.5q18 0 27.5 5.5t9.5 18.5v319
q0 12 3 16t13 4h113q8 0 12 -4t4 -15v-314q0 -18 9.5 -25t21.5 -7q11 0 21 3.5t15 6.5q17 11 22 -6l20 -70q4 -15 -18 -25t-39.5 -15.5t-45.5 -5.5q-19 0 -42 7t-41.5 21.5t-26.5 34.5l43 -9q-22 -22 -55.5 -37.5t-69.5 -15.5q-35 0 -63 13.5t-41 30.5l32 6q2 -13 4 -31.5
t4 -36.5q2 -14 4 -27.5t3.5 -22.5t1.5 -13q2 -11 -1 -16t-16 -5h-109z" />
    <glyph glyph-name="paragraph" unicode="&#xb6;" horiz-adv-x="576" 
d="M220 294q-8 0 -15.5 0.5t-15.5 1.5q-39 5 -69 21.5t-50 42t-30 56t-10 63.5q0 55 21 98.5t65 69.5t113 26h149.5h147.5q11 0 15.5 -2t4.5 -13v-56q0 -16 -2 -19.5t-10 -3.5h-16h-16v-154v-169.5v-169.5v-154q0 -9 -1.5 -10.5t-9.5 -1.5h-87q-11 0 -13.5 1.5t-2.5 10.5
v152.5v168.5v168.5v152.5q0 3 -4 5h-20h-19q-5 -1 -5 -4v-643q0 -9 -1.5 -10.5t-9.5 -1.5h-100q-5 0 -7 1t-2 11v362z" />
    <glyph glyph-name="periodcentered" unicode="&#xb7;" horiz-adv-x="308" 
d="M228 292q0 -29 -14.5 -44t-59.5 -15q-39 0 -56.5 15t-17.5 44t17.5 44t56.5 15q45 0 59.5 -15t14.5 -44z" />
    <glyph glyph-name="cedilla" unicode="&#xb8;" horiz-adv-x="212" 
d="M202 -128q0 -31 -26.5 -56t-71.5 -25q-36 0 -59 14.5t-38 33.5q-7 9 -7 19t10 14l22 10q11 5 17 3.5t9 -7.5q6 -13 15.5 -20t21.5 -7q15 0 22 8t7 17q0 11 -7.5 18t-19.5 10.5t-26 2.5q-10 0 -14.5 7t0.5 15l37 63q4 6 8.5 9t12.5 3h32q13 0 8 -13l-26 -67l-23 29
q49 -6 72.5 -26t23.5 -55z" />
    <glyph glyph-name="uni00B9" unicode="&#xb9;" horiz-adv-x="224" 
d="M73 250q-11 0 -11 11v296q0 4 -4 2l-41 -19q-4 -2 -9.5 -1.5t-7.5 4.5l-33 57q-7 12 6 19l119 64q5 3 8.5 3.5t8.5 0.5h61q10 0 10 -10v-416q0 -11 -10 -11h-97z" />
    <glyph glyph-name="ordmasculine" unicode="&#xba;" horiz-adv-x="506" 
d="M253 -8q-89 0 -137.5 32.5t-67 88.5t-18.5 126q0 69 21 123.5t69.5 86t132.5 31.5t132.5 -31.5t69.5 -86t21 -123.5t-18.5 -125t-67 -89t-137.5 -33zM251 103q41 0 57.5 34.5t16.5 97.5q0 62 -18 94t-56 32q-37 0 -55 -32t-18 -94q0 -64 16.5 -98t56.5 -34z" />
    <glyph glyph-name="guillemotright" unicode="&#xbb;" horiz-adv-x="576" 
d="M289 144q-5 0 -3.5 3t2.5 4t14 20t31 46.5t36 54.5t30 45.5l12 18.5l-12 18.5t-30 45.5t-36 55t-31 47t-14 20q-1 2 -2.5 4.5t3.5 2.5h61h61q2 0 4 -0.5t4 -3.5q30 -45 60.5 -89.5t60.5 -89.5q11 -9 0 -19q-30 -45 -60.5 -90t-60.5 -90q-3 -3 -8 -3h-61h-61zM54 144
q-5 0 -3.5 3t2.5 4t14 20t31 46.5t36 54.5t30 45.5l12 18.5l-12 18.5t-30 45.5t-36 55t-31 47t-14 20q-1 2 -2.5 4.5t3.5 2.5h61h61q2 0 4 -0.5t4 -3.5q30 -45 60.5 -89.5t60.5 -89.5q11 -9 0 -19q-30 -45 -60.5 -90t-60.5 -90q-3 -3 -8 -3h-61h-61z" />
    <glyph glyph-name="onequarter" unicode="&#xbc;" horiz-adv-x="794" 
d="M152 245q-9 0 -9 9v330q0 5 -4 3l-51 -27q-10 -5 -15 3l-29 50q-5 9 6 16l117 65q5 3 8 4t8 1h52q10 0 10 -10v-435q0 -9 -10 -9h-83zM614 -2q-9 0 -9 10v96q0 7 -7 7h-170q-10 0 -10 10v47q0 6 4 12l6 9l186 262q4 5 6.5 7t8.5 2h62q10 0 10 -11v-259q0 -7 7 -7h39
q6 0 6 -7v-58q0 -7 -6 -7h-39q-7 0 -7 -7v-96q0 -10 -9 -10h-78zM528 183h70q7 0 7 7v114q0 4 -1.5 4t-2.5 -3l-77 -115q-2 -4 -0.5 -5.5t4.5 -1.5zM170 0q-9 0 -10 5t4 12l394 672q3 8 5.5 9.5t11.5 1.5h61q11 0 14 -5t-7 -28l-384 -652q-4 -7 -8.5 -11t-13.5 -4h-67z" />
    <glyph glyph-name="onehalf" unicode="&#xbd;" horiz-adv-x="842" 
d="M150 0q-9 0 -10 5t4 12l394 672q3 8 5.5 9.5t11.5 1.5h61q11 0 14 -5t-7 -28l-384 -652q-4 -7 -8.5 -11t-13.5 -4h-67zM152 245q-9 0 -9 9v330q0 5 -4 3l-51 -27q-10 -5 -15 3l-29 50q-5 9 6 16l117 65q5 3 8 4t8 1h52q10 0 10 -10v-435q0 -9 -10 -9h-83zM521 0
q-9 0 -10.5 1.5t-1.5 7.5v51q0 11 7 15q30 19 62.5 45t60.5 55.5t45.5 61t17.5 60.5q0 18 -7 33t-23 24t-44 9q-32 0 -55 -9.5t-37.5 -18.5t-20.5 -9t-6 7v66q0 6 1.5 8.5t8.5 6.5q13 7 32.5 15t42 13.5t46.5 5.5q40 0 76.5 -15.5t59.5 -48t23 -83.5q0 -31 -10.5 -59.5
t-29.5 -56.5t-45 -54.5t-58 -51.5q-1 -2 -0.5 -3.5t3.5 -1.5h135q6 0 6 -7v-57q0 -8 -1 -9t-10 -1h-268z" />
    <glyph glyph-name="threequarters" unicode="&#xbe;" horiz-adv-x="847" 
d="M667 -2q-9 0 -9 10v96q0 7 -7 7h-170q-10 0 -10 10v47q0 6 4 12l6 9l186 262q4 5 6.5 7t8.5 2h62q10 0 10 -11v-259q0 -7 7 -7h39q6 0 6 -7v-58q0 -7 -6 -7h-39q-7 0 -7 -7v-96q0 -10 -9 -10h-78zM581 183h70q7 0 7 7v114q0 4 -1.5 4t-2.5 -3l-77 -115q-2 -4 -0.5 -5.5
t4.5 -1.5zM173 253q-28 0 -52.5 7.5t-45 21t-37.5 31.5q-5 6 -4 10.5t4 7.5l34 40q10 12 19 2q17 -17 37.5 -27t44.5 -10q20 0 34 8t21 21t7 27q0 12 -7.5 25.5t-24 23t-44.5 9.5h-12h-14q-5 0 -8.5 2.5t-3.5 10.5v49q0 13 12 13h18h23q17 0 29 7.5t18.5 19t6.5 23.5
q0 11 -6.5 20.5t-19 15.5t-32.5 6q-22 0 -43.5 -10.5t-37.5 -26.5q-10 -10 -17 1l-32 54q-2 4 0 9.5t3 6.5q26 20 50 30.5t45 13.5t39 3q46 0 77 -16t46.5 -42t15.5 -55q0 -36 -19.5 -62t-44.5 -33l-8 -2q0 -1 9 -2q31 -6 53.5 -29.5t22.5 -64.5q0 -35 -18.5 -67t-53 -52
t-84.5 -20zM210 0q-9 0 -10 5t4 12l394 672q3 8 5.5 9.5t11.5 1.5h61q11 0 14 -5t-7 -28l-384 -652q-4 -7 -8.5 -11t-13.5 -4h-67z" />
    <glyph glyph-name="questiondown" unicode="&#xbf;" horiz-adv-x="462" 
d="M347 320q11 0 12.5 -5.5t1.5 -17.5q0 -46 -6 -80t-17.5 -60.5t-28 -47t-37.5 -39.5q-13 -12 -31 -23t-35 -23t-27 -27t-7 -35q2 -22 20.5 -32t42.5 -10q48 0 87.5 15t55.5 23q9 5 12.5 7.5t7.5 -11.5l28 -83q4 -10 -5.5 -16.5t-16.5 -10.5q-37 -18 -81.5 -28.5
t-79.5 -10.5q-94 0 -151 42t-57 120q0 49 20 79.5t48.5 50.5t55.5 39q31 23 48 48t24 54.5t7 63.5q0 12 2.5 15t7.5 3h99zM376 438q0 -28 -17.5 -43.5t-56.5 -15.5q-45 0 -59.5 15.5t-14.5 43.5q0 29 14.5 44t59.5 15q39 0 56.5 -15t17.5 -44z" />
    <glyph glyph-name="Agrave" unicode="&#xc0;" horiz-adv-x="549" 
d="M27 0q-10 0 -12 8t2 32q6 44 20 106.5t33 132.5t41 140t45 130.5t44 101.5q6 10 11.5 16t13.5 6h99q8 -3 14 -7.5t11 -14.5q22 -41 45 -101.5t45 -130.5t41 -140t33 -132.5t20 -106.5q4 -24 2 -32t-13 -8h-118q-9 0 -12.5 5t-7.5 27t-10.5 52t-10.5 49q-1 8 -2.5 9
t-8.5 1h-154q-7 0 -8 -1t-3 -9q-4 -19 -10.5 -49t-10.5 -52t-7.5 -27t-12.5 -5h-119zM230 258h90q7 0 8 2.5t-1 9.5q-10 40 -22.5 85.5t-22.5 79.5q-2 9 -6 9h-4q-3 0 -6 -9q-6 -22 -14 -50t-15.5 -57.5t-14.5 -57.5q-1 -7 0 -9.5t8 -2.5zM268 715q-8 0 -13.5 3.5
t-15.5 10.5l-105 75q-4 3 -1 9t8 6h105q12 0 16 -3t11 -11l64 -72q7 -7 6.5 -12.5t-8.5 -5.5h-67z" />
    <glyph glyph-name="Aacute" unicode="&#xc1;" horiz-adv-x="549" 
d="M27 0q-10 0 -12 8t2 32q6 44 20 106.5t33 132.5t41 140t45 130.5t44 101.5q6 10 11.5 16t13.5 6h99q8 -3 14 -7.5t11 -14.5q22 -41 45 -101.5t45 -130.5t41 -140t33 -132.5t20 -106.5q4 -24 2 -32t-13 -8h-118q-9 0 -12.5 5t-7.5 27t-10.5 52t-10.5 49q-1 8 -2.5 9
t-8.5 1h-154q-7 0 -8 -1t-3 -9q-4 -19 -10.5 -49t-10.5 -52t-7.5 -27t-12.5 -5h-119zM230 258h90q7 0 8 2.5t-1 9.5q-10 40 -22.5 85.5t-22.5 79.5q-2 9 -6 9h-4q-3 0 -6 -9q-6 -22 -14 -50t-15.5 -57.5t-14.5 -57.5q-1 -7 0 -9.5t8 -2.5zM280 715h-67q-8 0 -8.5 5.5
t6.5 12.5l64 72q7 8 11 11t16 3h105q5 0 8.5 -6t-1.5 -9l-105 -75q-10 -7 -15.5 -10.5t-13.5 -3.5z" />
    <glyph glyph-name="Acircumflex" unicode="&#xc2;" horiz-adv-x="549" 
d="M27 0q-10 0 -12 8t2 32q6 44 20 106.5t33 132.5t41 140t45 130.5t44 101.5q6 10 11.5 16t13.5 6h99q8 -3 14 -7.5t11 -14.5q22 -41 45 -101.5t45 -130.5t41 -140t33 -132.5t20 -106.5q4 -24 2 -32t-13 -8h-118q-9 0 -12.5 5t-7.5 27t-10.5 52t-10.5 49q-1 8 -2.5 9
t-8.5 1h-154q-7 0 -8 -1t-3 -9q-4 -19 -10.5 -49t-10.5 -52t-7.5 -27t-12.5 -5h-119zM230 258h90q7 0 8 2.5t-1 9.5q-10 40 -22.5 85.5t-22.5 79.5q-2 9 -6 9h-4q-3 0 -6 -9q-6 -22 -14 -50t-15.5 -57.5t-14.5 -57.5q-1 -7 0 -9.5t8 -2.5zM151 713q-4 0 -5 3t1 6l84 90
q6 7 11 7h64q6 0 12 -6l85 -91q2 -3 1.5 -6t-5.5 -3h-59q-8 0 -12 2t-10 6l-37 28q-6 5 -12 0l-39 -30q-4 -3 -7.5 -4.5t-9.5 -1.5h-62z" />
    <glyph glyph-name="Atilde" unicode="&#xc3;" horiz-adv-x="549" 
d="M27 0q-10 0 -12 8t2 32q6 44 20 106.5t33 132.5t41 140t45 130.5t44 101.5q6 10 11.5 16t13.5 6h99q8 -3 14 -7.5t11 -14.5q22 -41 45 -101.5t45 -130.5t41 -140t33 -132.5t20 -106.5q4 -24 2 -32t-13 -8h-118q-9 0 -12.5 5t-7.5 27t-10.5 52t-10.5 49q-1 8 -2.5 9
t-8.5 1h-154q-7 0 -8 -1t-3 -9q-4 -19 -10.5 -49t-10.5 -52t-7.5 -27t-12.5 -5h-119zM230 258h90q7 0 8 2.5t-1 9.5q-10 40 -22.5 85.5t-22.5 79.5q-2 9 -6 9h-4q-3 0 -6 -9q-6 -22 -14 -50t-15.5 -57.5t-14.5 -57.5q-1 -7 0 -9.5t8 -2.5zM164 716q-6 0 -6 6q0 45 19 70.5
t56 25.5q17 0 32.5 -9.5t27.5 -19t17 -9.5t8.5 5t3.5 15q0 8 6 8h57q6 0 6 -7q0 -40 -21.5 -67t-55.5 -27q-22 0 -36.5 9t-24 18t-17.5 9q-6 0 -8.5 -4.5t-2.5 -15.5q0 -7 -6 -7h-55z" />
    <glyph glyph-name="Adieresis" unicode="&#xc4;" horiz-adv-x="549" 
d="M27 0q-10 0 -12 8t2 32q6 44 20 106.5t33 132.5t41 140t45 130.5t44 101.5q6 10 11.5 16t13.5 6h99q8 -3 14 -7.5t11 -14.5q22 -41 45 -101.5t45 -130.5t41 -140t33 -132.5t20 -106.5q4 -24 2 -32t-13 -8h-118q-9 0 -12.5 5t-7.5 27t-10.5 52t-10.5 49q-1 8 -2.5 9
t-8.5 1h-154q-7 0 -8 -1t-3 -9q-4 -19 -10.5 -49t-10.5 -52t-7.5 -27t-12.5 -5h-119zM230 258h90q7 0 8 2.5t-1 9.5q-10 40 -22.5 85.5t-22.5 79.5q-2 9 -6 9h-4q-3 0 -6 -9q-6 -22 -14 -50t-15.5 -57.5t-14.5 -57.5q-1 -7 0 -9.5t8 -2.5zM251 775q0 -25 -13 -38.5
t-48 -13.5q-31 0 -45 13.5t-14 38.5t14 38.5t45 13.5q35 0 48 -13.5t13 -38.5zM419 775q0 -25 -12.5 -38.5t-47.5 -13.5q-32 0 -46 13.5t-14 38.5t14 38.5t46 13.5q35 0 47.5 -13.5t12.5 -38.5z" />
    <glyph glyph-name="Aring" unicode="&#xc5;" horiz-adv-x="549" 
d="M27 0q-10 0 -12 8t2 32q6 44 20 106.5t33 132.5t41 140t45 130.5t44 101.5q6 10 11.5 16t13.5 6h99q8 -3 14 -7.5t11 -14.5q22 -41 45 -101.5t45 -130.5t41 -140t33 -132.5t20 -106.5q4 -24 2 -32t-13 -8h-118q-9 0 -12.5 5t-7.5 27t-10.5 52t-10.5 49q-1 8 -2.5 9
t-8.5 1h-154q-7 0 -8 -1t-3 -9q-4 -19 -10.5 -49t-10.5 -52t-7.5 -27t-12.5 -5h-119zM230 258h90q7 0 8 2.5t-1 9.5q-10 40 -22.5 85.5t-22.5 79.5q-2 9 -6 9h-4q-3 0 -6 -9q-6 -22 -14 -50t-15.5 -57.5t-14.5 -57.5q-1 -7 0 -9.5t8 -2.5zM372 802q0 -43 -22.5 -69
t-73.5 -26q-55 0 -77 26t-22 69q0 42 22 67.5t77 25.5q52 0 74 -25.5t22 -67.5zM313 804q0 12 -7.5 19.5t-29.5 7.5q-24 0 -30 -7.5t-6 -19.5q0 -10 6 -20.5t30 -10.5q25 0 31 10.5t6 20.5z" />
    <glyph glyph-name="AE" unicode="&#xc6;" horiz-adv-x="780" 
d="M392 0q-15 0 -15 14v129h-173q-7 0 -8 -1t-3 -9q-4 -19 -10.5 -49t-10.5 -52t-7.5 -27t-12.5 -5h-119q-10 0 -12 8t2 32q6 44 24 104t44.5 127.5t59.5 136t69 131.5t72 112q8 10 15 16t15 6h410q14 0 16 -2t2 -15v-80q0 -14 -2.5 -16.5t-15.5 -2.5h-193q-8 0 -9.5 -1
t-1.5 -7v-144q0 -7 1.5 -8t8.5 -1h149q16 0 18.5 -3t2.5 -19v-71q0 -15 -3.5 -18t-17.5 -3h-149q-5 0 -7.5 -1t-2.5 -6v-150q0 -6 1.5 -7.5t8.5 -1.5h192q15 0 17.5 -3.5t2.5 -18.5v-72q0 -16 -3 -19t-18 -3h-337zM377 258v243q0 9 -5 9h-1q-2 0 -4.5 -1.5t-7.5 -8.5
q-17 -20 -39 -60t-45 -86t-43 -85q-1 -1 1 -6t5 -5h139z" />
    <glyph glyph-name="Ccedilla" unicode="&#xc7;" horiz-adv-x="476" 
d="M446 39q0 -27 -32 -35q-14 -5 -35 -7.5t-40 -3.5t-29 -1q-123 0 -197.5 87.5t-74.5 255.5q0 170 72 257.5t200 87.5q10 0 29 -1.5t40 -4t35 -7.5q15 -4 23.5 -9t8.5 -16v-99q0 -31 -34 -7q-22 14 -46 20.5t-44 6.5q-37 0 -62 -16t-40 -45t-21 -68t-6 -86q0 -32 3 -65.5
t11 -65t22 -56.5t37 -39.5t56 -14.5q24 0 48 6.5t38 15.5q23 14 30.5 13t7.5 -18v-85zM388 -133q0 -31 -26.5 -56t-71.5 -25q-36 0 -59 14.5t-38 33.5q-7 9 -7 19t10 14l22 10q11 5 17 3.5t9 -7.5q6 -13 15.5 -20t21.5 -7q15 0 22 8t7 17q0 11 -7.5 18t-19.5 10.5t-26 2.5
q-10 0 -14.5 7t0.5 15l37 63q4 6 8.5 9t12.5 3h32q13 0 8 -13l-26 -67l-23 29q49 -6 72.5 -26t23.5 -55z" />
    <glyph glyph-name="Egrave" unicode="&#xc8;" horiz-adv-x="458" 
d="M75 0q-15 0 -15 14v644q0 15 15 15h340q14 0 16.5 -2t2.5 -15v-80q0 -14 -3.5 -16.5t-15.5 -2.5h-194q-7 0 -8 -1t-1 -7v-144q0 -7 1 -8t7 -1h150q15 0 17.5 -3t2.5 -19v-71q0 -15 -3 -18t-17 -3h-150q-5 0 -6.5 -1t-1.5 -6v-150q0 -6 1 -7.5t7 -1.5h192q17 0 19.5 -3.5
t2.5 -18.5v-72q0 -16 -4 -19t-19 -3h-336zM235 715q-8 0 -13.5 3.5t-15.5 10.5l-105 75q-4 3 -1 9t8 6h105q12 0 16 -3t11 -11l64 -72q7 -7 6.5 -12.5t-8.5 -5.5h-67z" />
    <glyph glyph-name="Eacute" unicode="&#xc9;" horiz-adv-x="458" 
d="M75 0q-15 0 -15 14v644q0 15 15 15h340q14 0 16.5 -2t2.5 -15v-80q0 -14 -3.5 -16.5t-15.5 -2.5h-194q-7 0 -8 -1t-1 -7v-144q0 -7 1 -8t7 -1h150q15 0 17.5 -3t2.5 -19v-71q0 -15 -3 -18t-17 -3h-150q-5 0 -6.5 -1t-1.5 -6v-150q0 -6 1 -7.5t7 -1.5h192q17 0 19.5 -3.5
t2.5 -18.5v-72q0 -16 -4 -19t-19 -3h-336zM247 715h-67q-8 0 -8.5 5.5t6.5 12.5l64 72q7 8 11 11t16 3h105q5 0 8.5 -6t-1.5 -9l-105 -75q-10 -7 -15.5 -10.5t-13.5 -3.5z" />
    <glyph glyph-name="Ecircumflex" unicode="&#xca;" horiz-adv-x="458" 
d="M75 0q-15 0 -15 14v644q0 15 15 15h340q14 0 16.5 -2t2.5 -15v-80q0 -14 -3.5 -16.5t-15.5 -2.5h-194q-7 0 -8 -1t-1 -7v-144q0 -7 1 -8t7 -1h150q15 0 17.5 -3t2.5 -19v-71q0 -15 -3 -18t-17 -3h-150q-5 0 -6.5 -1t-1.5 -6v-150q0 -6 1 -7.5t7 -1.5h192q17 0 19.5 -3.5
t2.5 -18.5v-72q0 -16 -4 -19t-19 -3h-336zM118 713q-4 0 -5 3t1 6l84 90q6 7 11 7h64q6 0 12 -6l85 -91q2 -3 1.5 -6t-5.5 -3h-59q-8 0 -12 2t-10 6l-37 28q-6 5 -12 0l-39 -30q-4 -3 -7.5 -4.5t-9.5 -1.5h-62z" />
    <glyph glyph-name="Edieresis" unicode="&#xcb;" horiz-adv-x="458" 
d="M75 0q-15 0 -15 14v644q0 15 15 15h340q14 0 16.5 -2t2.5 -15v-80q0 -14 -3.5 -16.5t-15.5 -2.5h-194q-7 0 -8 -1t-1 -7v-144q0 -7 1 -8t7 -1h150q15 0 17.5 -3t2.5 -19v-71q0 -15 -3 -18t-17 -3h-150q-5 0 -6.5 -1t-1.5 -6v-150q0 -6 1 -7.5t7 -1.5h192q17 0 19.5 -3.5
t2.5 -18.5v-72q0 -16 -4 -19t-19 -3h-336zM218 775q0 -25 -13 -38.5t-48 -13.5q-31 0 -45 13.5t-14 38.5t14 38.5t45 13.5q35 0 48 -13.5t13 -38.5zM386 775q0 -25 -12.5 -38.5t-47.5 -13.5q-32 0 -46 13.5t-14 38.5t14 38.5t46 13.5q35 0 47.5 -13.5t12.5 -38.5z" />
    <glyph glyph-name="Igrave" unicode="&#xcc;" horiz-adv-x="271" 
d="M211 14q0 -14 -15 -14h-120q-16 0 -16 14v644q0 15 16 15h120q15 0 15 -15v-644zM129 715q-8 0 -13.5 3.5t-15.5 10.5l-105 75q-4 3 -1 9t8 6h105q12 0 16 -3t11 -11l64 -72q7 -7 6.5 -12.5t-8.5 -5.5h-67z" />
    <glyph glyph-name="Iacute" unicode="&#xcd;" horiz-adv-x="271" 
d="M211 14q0 -14 -15 -14h-120q-16 0 -16 14v644q0 15 16 15h120q15 0 15 -15v-644zM141 715h-67q-8 0 -8.5 5.5t6.5 12.5l64 72q7 8 11 11t16 3h105q5 0 8.5 -6t-1.5 -9l-105 -75q-10 -7 -15.5 -10.5t-13.5 -3.5z" />
    <glyph glyph-name="Icircumflex" unicode="&#xce;" horiz-adv-x="271" 
d="M211 14q0 -14 -15 -14h-120q-16 0 -16 14v644q0 15 16 15h120q15 0 15 -15v-644zM12 713q-4 0 -5 3t1 6l84 90q6 7 11 7h64q6 0 12 -6l85 -91q2 -3 1.5 -6t-5.5 -3h-59q-8 0 -12 2t-10 6l-37 28q-6 5 -12 0l-39 -30q-4 -3 -7.5 -4.5t-9.5 -1.5h-62z" />
    <glyph glyph-name="Idieresis" unicode="&#xcf;" horiz-adv-x="271" 
d="M211 14q0 -14 -15 -14h-120q-16 0 -16 14v644q0 15 16 15h120q15 0 15 -15v-644zM112 775q0 -25 -13 -38.5t-48 -13.5q-31 0 -45 13.5t-14 38.5t14 38.5t45 13.5q35 0 48 -13.5t13 -38.5zM280 775q0 -25 -12.5 -38.5t-47.5 -13.5q-32 0 -46 13.5t-14 38.5t14 38.5
t46 13.5q35 0 47.5 -13.5t12.5 -38.5z" />
    <glyph glyph-name="Eth" unicode="&#xd0;" horiz-adv-x="614" 
d="M604 346q0 -87 -19.5 -147.5t-51.5 -99.5t-70.5 -60.5t-76.5 -30t-69 -8.5h-186q-15 0 -15 14v644q0 15 15 15h186q37 0 77.5 -6.5t77.5 -25t67 -54.5t47.5 -94.5t17.5 -146.5zM454 346q0 80 -14 123.5t-36.5 62t-47.5 22t-46 3.5h-30q-9 0 -10.5 -1t-1.5 -8v-422
q0 -7 1.5 -8.5t7.5 -1.5h17q23 0 50 6t52.5 28t41.5 68.5t16 127.5zM48 284q-10 0 -11.5 3t-1.5 11v75q0 10 2 12.5t12 2.5h292q9 0 11.5 -2t2.5 -12v-80q0 -7 -2 -8.5t-13 -1.5h-292z" />
    <glyph glyph-name="Ntilde" unicode="&#xd1;" horiz-adv-x="642" 
d="M422 315q3 -4 8.5 -4t5.5 6q0 29 -1 59.5t-2 63.5t-3 68.5t-5 72.5t-8 77q-1 15 7 15h123q7 0 13.5 -4t7.5 -11q8 -37 12.5 -89.5t6 -113.5t0.5 -124t-3.5 -123t-6 -110t-7.5 -84q-1 -10 -7.5 -12t-14.5 -2h-77q-8 0 -19 18l-236 346q-1 4 -5 4t-4 -5q0 -57 1 -102.5
t2 -82t3 -65.5t4 -53.5t5 -45.5q1 -14 -8 -14h-120q-7 0 -14.5 2t-8.5 12q-4 34 -7 84t-5.5 110t-3 123t1 124t5.5 113.5t12 89.5q2 7 8.5 11t12.5 4h73q10 0 15 -10zM201 716q-6 0 -6 6q0 45 19 70.5t56 25.5q17 0 32.5 -9.5t27.5 -19t17 -9.5t8.5 5t3.5 15q0 8 6 8h57
q6 0 6 -7q0 -40 -21.5 -67t-55.5 -27q-22 0 -36.5 9t-24 18t-17.5 9q-6 0 -8.5 -4.5t-2.5 -15.5q0 -7 -6 -7h-55z" />
    <glyph glyph-name="Ograve" unicode="&#xd2;" horiz-adv-x="641" 
d="M38 334q0 109 24 186t85.5 117.5t172.5 40.5q86 0 141.5 -23t86.5 -67t43 -108t12 -146t-12 -145.5t-43 -107.5t-86.5 -67t-141.5 -23q-111 0 -172.5 40.5t-85.5 117t-24 185.5zM195 334q0 -88 13 -135.5t40 -66t70 -18.5t71 18t42.5 66t14.5 136q0 89 -14.5 137
t-42.5 67t-71 19t-70 -19t-40 -67t-13 -137zM314 715q-8 0 -13.5 3.5t-15.5 10.5l-105 75q-4 3 -1 9t8 6h105q12 0 16 -3t11 -11l64 -72q7 -7 6.5 -12.5t-8.5 -5.5h-67z" />
    <glyph glyph-name="Oacute" unicode="&#xd3;" horiz-adv-x="641" 
d="M38 334q0 109 24 186t85.5 117.5t172.5 40.5q86 0 141.5 -23t86.5 -67t43 -108t12 -146t-12 -145.5t-43 -107.5t-86.5 -67t-141.5 -23q-111 0 -172.5 40.5t-85.5 117t-24 185.5zM195 334q0 -88 13 -135.5t40 -66t70 -18.5t71 18t42.5 66t14.5 136q0 89 -14.5 137
t-42.5 67t-71 19t-70 -19t-40 -67t-13 -137zM326 715h-67q-8 0 -8.5 5.5t6.5 12.5l64 72q7 8 11 11t16 3h105q5 0 8.5 -6t-1.5 -9l-105 -75q-10 -7 -15.5 -10.5t-13.5 -3.5z" />
    <glyph glyph-name="Ocircumflex" unicode="&#xd4;" horiz-adv-x="641" 
d="M38 334q0 109 24 186t85.5 117.5t172.5 40.5q86 0 141.5 -23t86.5 -67t43 -108t12 -146t-12 -145.5t-43 -107.5t-86.5 -67t-141.5 -23q-111 0 -172.5 40.5t-85.5 117t-24 185.5zM195 334q0 -88 13 -135.5t40 -66t70 -18.5t71 18t42.5 66t14.5 136q0 89 -14.5 137
t-42.5 67t-71 19t-70 -19t-40 -67t-13 -137zM197 713q-4 0 -5 3t1 6l84 90q6 7 11 7h64q6 0 12 -6l85 -91q2 -3 1.5 -6t-5.5 -3h-59q-8 0 -12 2t-10 6l-37 28q-6 5 -12 0l-39 -30q-4 -3 -7.5 -4.5t-9.5 -1.5h-62z" />
    <glyph glyph-name="Otilde" unicode="&#xd5;" horiz-adv-x="641" 
d="M38 334q0 109 24 186t85.5 117.5t172.5 40.5q86 0 141.5 -23t86.5 -67t43 -108t12 -146t-12 -145.5t-43 -107.5t-86.5 -67t-141.5 -23q-111 0 -172.5 40.5t-85.5 117t-24 185.5zM195 334q0 -88 13 -135.5t40 -66t70 -18.5t71 18t42.5 66t14.5 136q0 89 -14.5 137
t-42.5 67t-71 19t-70 -19t-40 -67t-13 -137zM210 716q-6 0 -6 6q0 45 19 70.5t56 25.5q17 0 32.5 -9.5t27.5 -19t17 -9.5t8.5 5t3.5 15q0 8 6 8h57q6 0 6 -7q0 -40 -21.5 -67t-55.5 -27q-22 0 -36.5 9t-24 18t-17.5 9q-6 0 -8.5 -4.5t-2.5 -15.5q0 -7 -6 -7h-55z" />
    <glyph glyph-name="Odieresis" unicode="&#xd6;" horiz-adv-x="641" 
d="M38 334q0 109 24 186t85.5 117.5t172.5 40.5q86 0 141.5 -23t86.5 -67t43 -108t12 -146t-12 -145.5t-43 -107.5t-86.5 -67t-141.5 -23q-111 0 -172.5 40.5t-85.5 117t-24 185.5zM195 334q0 -88 13 -135.5t40 -66t70 -18.5t71 18t42.5 66t14.5 136q0 89 -14.5 137
t-42.5 67t-71 19t-70 -19t-40 -67t-13 -137zM297 775q0 -25 -13 -38.5t-48 -13.5q-31 0 -45 13.5t-14 38.5t14 38.5t45 13.5q35 0 48 -13.5t13 -38.5zM465 775q0 -25 -12.5 -38.5t-47.5 -13.5q-32 0 -46 13.5t-14 38.5t14 38.5t46 13.5q35 0 47.5 -13.5t12.5 -38.5z" />
    <glyph glyph-name="multiply" unicode="&#xd7;" horiz-adv-x="530" 
d="M48 167q-6 7 -8 12t4 11l150 132l-137 123q-6 5 -3 10.5t9 10.5l45 44q6 6 9.5 5.5t7.5 -5.5l140 -125l140 125q5 5 8 5.5t9 -5.5l45 -44q7 -5 9.5 -10.5t-3.5 -10.5l-137 -123l150 -132q6 -6 4 -11t-8 -12l-42 -40q-8 -7 -13 -7t-13 7l-149 133l-149 -133
q-7 -7 -12.5 -7t-13.5 7z" />
    <glyph glyph-name="Oslash" unicode="&#xd8;" horiz-adv-x="635" 
d="M159 -35q-4 -7 -9 -11t-15 -4h-102q-7 0 -8 5t3 12l450 748q5 9 9 10t11 1h97q11 0 12 -5t-13 -28zM38 334q0 109 24 186t85.5 117.5t172.5 40.5q86 0 141.5 -23t86.5 -67t43 -108t12 -146t-12 -145.5t-43 -107.5t-86.5 -67t-141.5 -23q-111 0 -172.5 40.5t-85.5 117
t-24 185.5zM195 334q0 -88 13 -135.5t40 -66t70 -18.5t71 18t42.5 66t14.5 136q0 89 -14.5 137t-42.5 67t-71 19t-70 -19t-40 -67t-13 -137z" />
    <glyph glyph-name="Ugrave" unicode="&#xd9;" horiz-adv-x="635" 
d="M317 -9q-87 0 -137.5 20t-76 50.5t-34 62t-11.5 55.5q-4 38 -6 80.5t-2 74.5q0 46 2 103.5t6.5 116t13.5 108.5q1 7 6.5 9t13.5 2h55.5h55.5q11 0 12 -3.5t-1 -24.5q-4 -40 -6.5 -81t-4.5 -83q-4 -74 -4 -142t6 -136q2 -32 11.5 -51t24.5 -29t34 -13.5t39 -3.5
q21 0 39.5 3.5t34 13.5t25 29.5t12.5 50.5q5 68 4.5 136t-3.5 142q-1 42 -4.5 83t-6.5 81q-1 21 -0.5 24.5t12.5 3.5h58h58q9 0 14 -2t6 -9q9 -50 14 -108.5t6.5 -116t1.5 -103.5q0 -32 -1 -74.5t-6 -80.5q-2 -19 -8 -43.5t-20.5 -50t-42.5 -47t-74 -34.5t-116 -13zM311 715
q-8 0 -13.5 3.5t-15.5 10.5l-105 75q-4 3 -1 9t8 6h105q12 0 16 -3t11 -11l64 -72q7 -7 6.5 -12.5t-8.5 -5.5h-67z" />
    <glyph glyph-name="Uacute" unicode="&#xda;" horiz-adv-x="635" 
d="M317 -9q-87 0 -137.5 20t-76 50.5t-34 62t-11.5 55.5q-4 38 -6 80.5t-2 74.5q0 46 2 103.5t6.5 116t13.5 108.5q1 7 6.5 9t13.5 2h55.5h55.5q11 0 12 -3.5t-1 -24.5q-4 -40 -6.5 -81t-4.5 -83q-4 -74 -4 -142t6 -136q2 -32 11.5 -51t24.5 -29t34 -13.5t39 -3.5
q21 0 39.5 3.5t34 13.5t25 29.5t12.5 50.5q5 68 4.5 136t-3.5 142q-1 42 -4.5 83t-6.5 81q-1 21 -0.5 24.5t12.5 3.5h58h58q9 0 14 -2t6 -9q9 -50 14 -108.5t6.5 -116t1.5 -103.5q0 -32 -1 -74.5t-6 -80.5q-2 -19 -8 -43.5t-20.5 -50t-42.5 -47t-74 -34.5t-116 -13zM323 715
h-67q-8 0 -8.5 5.5t6.5 12.5l64 72q7 8 11 11t16 3h105q5 0 8.5 -6t-1.5 -9l-105 -75q-10 -7 -15.5 -10.5t-13.5 -3.5z" />
    <glyph glyph-name="Ucircumflex" unicode="&#xdb;" horiz-adv-x="635" 
d="M317 -9q-87 0 -137.5 20t-76 50.5t-34 62t-11.5 55.5q-4 38 -6 80.5t-2 74.5q0 46 2 103.5t6.5 116t13.5 108.5q1 7 6.5 9t13.5 2h55.5h55.5q11 0 12 -3.5t-1 -24.5q-4 -40 -6.5 -81t-4.5 -83q-4 -74 -4 -142t6 -136q2 -32 11.5 -51t24.5 -29t34 -13.5t39 -3.5
q21 0 39.5 3.5t34 13.5t25 29.5t12.5 50.5q5 68 4.5 136t-3.5 142q-1 42 -4.5 83t-6.5 81q-1 21 -0.5 24.5t12.5 3.5h58h58q9 0 14 -2t6 -9q9 -50 14 -108.5t6.5 -116t1.5 -103.5q0 -32 -1 -74.5t-6 -80.5q-2 -19 -8 -43.5t-20.5 -50t-42.5 -47t-74 -34.5t-116 -13zM194 713
q-4 0 -5 3t1 6l84 90q6 7 11 7h64q6 0 12 -6l85 -91q2 -3 1.5 -6t-5.5 -3h-59q-8 0 -12 2t-10 6l-37 28q-6 5 -12 0l-39 -30q-4 -3 -7.5 -4.5t-9.5 -1.5h-62z" />
    <glyph glyph-name="Udieresis" unicode="&#xdc;" horiz-adv-x="635" 
d="M317 -9q-87 0 -137.5 20t-76 50.5t-34 62t-11.5 55.5q-4 38 -6 80.5t-2 74.5q0 46 2 103.5t6.5 116t13.5 108.5q1 7 6.5 9t13.5 2h55.5h55.5q11 0 12 -3.5t-1 -24.5q-4 -40 -6.5 -81t-4.5 -83q-4 -74 -4 -142t6 -136q2 -32 11.5 -51t24.5 -29t34 -13.5t39 -3.5
q21 0 39.5 3.5t34 13.5t25 29.5t12.5 50.5q5 68 4.5 136t-3.5 142q-1 42 -4.5 83t-6.5 81q-1 21 -0.5 24.5t12.5 3.5h58h58q9 0 14 -2t6 -9q9 -50 14 -108.5t6.5 -116t1.5 -103.5q0 -32 -1 -74.5t-6 -80.5q-2 -19 -8 -43.5t-20.5 -50t-42.5 -47t-74 -34.5t-116 -13zM294 775
q0 -25 -13 -38.5t-48 -13.5q-31 0 -45 13.5t-14 38.5t14 38.5t45 13.5q35 0 48 -13.5t13 -38.5zM462 775q0 -25 -12.5 -38.5t-47.5 -13.5q-32 0 -46 13.5t-14 38.5t14 38.5t46 13.5q35 0 47.5 -13.5t12.5 -38.5z" />
    <glyph glyph-name="Yacute" unicode="&#xdd;" horiz-adv-x="553" 
d="M363 275q-6 -8 -8.5 -22.5t-2.5 -25.5v-213q0 -6 -4.5 -10t-9.5 -4h-123q-15 0 -15 14v213q0 27 -15 54.5t-25 43.5q-3 6 -14.5 25t-25.5 42t-25.5 42.5t-14.5 25.5q-27 52 -42.5 91t-22 63.5t-8.5 30.5q-4 17 4 22.5t19 5.5h118q15 0 19 -14q10 -34 19.5 -60t18.5 -45.5
l15 -32.5q14 -27 24.5 -46.5t20.5 -35.5q7 -11 11 -12t11 12q3 6 7.5 12t10 15.5t12.5 23.5q8 15 20.5 41.5t26 60.5t21.5 69q2 8 6 10t14 2h123q8 0 14.5 -5.5t3.5 -22.5q-1 -6 -7.5 -32.5t-22 -68t-43.5 -93.5q-6 -13 -19.5 -35.5t-30 -49.5t-32.5 -51t-28 -40zM282 715
h-67q-8 0 -8.5 5.5t6.5 12.5l64 72q7 8 11 11t16 3h105q5 0 8.5 -6t-1.5 -9l-105 -75q-10 -7 -15.5 -10.5t-13.5 -3.5z" />
    <glyph glyph-name="Thorn" unicode="&#xde;" horiz-adv-x="482" 
d="M457 373q0 -64 -24 -119t-71.5 -88t-118.5 -33h-43q-8 0 -8 -8v-111q0 -14 -16 -14h-121q-15 0 -15 14v680q0 14 15 14h120q8 0 12.5 -2.5t4.5 -10.5v-92q0 -4 2 -7.5t7 -3.5h31q119 0 172 -53.5t53 -165.5zM310 372q0 65 -23 91t-61 26h-27q-4 0 -5.5 -1t-1.5 -8v-229
q0 -8 8 -8h28q38 0 60 34t22 95z" />
    <glyph glyph-name="germandbls" unicode="&#xdf;" horiz-adv-x="652" 
d="M77 -100q-21 0 -39 2t-28 9q-4 3 -6 7t-2 9v32v32q0 11 4 13t9 0q6 -2 21 -5.5t31.5 1.5t28.5 28t12 72q0 31 0.5 96t0.5 149.5v175.5q0 29 10.5 61t34.5 59.5t64 45t99 17.5q15 0 40.5 -3t54.5 -13t55 -29t42.5 -50t16.5 -78q0 -18 -4.5 -36t-16.5 -43q-7 -15 -18 -28.5
t-21 -21.5q-9 -7 -8.5 -13t6.5 -9.5t15 -6.5q27 -7 51.5 -23t43.5 -39q20 -24 31.5 -55t11.5 -66q0 -62 -25 -106.5t-70 -67.5t-105 -23q-27 0 -66 8.5t-68 30.5q-3 2 -7.5 6t-3.5 10q6 21 11.5 42.5t11.5 42.5q2 13 9 11.5t13 -6.5q7 -6 19 -11.5t26 -9t26 -3.5q40 0 54 24
t14 53q0 13 -9.5 35.5t-35.5 45.5q-10 10 -23 18.5t-28.5 16.5t-34.5 14q-18 6 -29 14.5t-14.5 19t2.5 22t22 24.5q5 4 13.5 12t28.5 30q14 16 22.5 41t7.5 53q-1 23 -16 36t-36 13q-28 0 -50 -23.5t-22 -72.5v-40.5v-76t-0.5 -92t-0.5 -89v-67.5v-26q0 -97 -40.5 -148
t-135.5 -51z" />
    <glyph glyph-name="agrave" unicode="&#xe0;" horiz-adv-x="466" 
d="M230 -7q-52 0 -97.5 11.5t-74 45t-28.5 97.5q0 53 20.5 86.5t52 51.5t64.5 24.5t58 6.5q18 0 34.5 -1t32.5 -3q8 -3 8 10q0 30 -20 42t-53 12q-37 0 -72 -15.5t-59 -26.5q-13 -6 -17 -4t-6 15l-10 62q-2 15 0 20t13 12q26 16 67.5 27t86.5 11q69 0 110.5 -15.5t62.5 -42
t28 -60t7 -69.5q0 -40 -0.5 -80t-2 -80t-5.5 -80q-3 -13 -6.5 -18.5t-15.5 -11.5q-13 -7 -37.5 -12t-52 -8.5t-51.5 -5t-37 -1.5zM238 80q8 0 16 1t15 4t11.5 7.5t5.5 11.5q2 23 4 48t0 50q0 10 -8 16q-9 8 -24 8.5t-20 0.5q-8 0 -19 -3t-21.5 -11t-17 -24t-6.5 -42
q0 -18 7 -33.5t21 -24.5t36 -9zM234 525q-15 0 -29 14l-94 92q-4 4 -1 9.5t8 5.5h105q12 0 17 -3t10 -11l53 -89q11 -18 -2 -18h-67z" />
    <glyph glyph-name="aacute" unicode="&#xe1;" horiz-adv-x="466" 
d="M230 -7q-52 0 -97.5 11.5t-74 45t-28.5 97.5q0 53 20.5 86.5t52 51.5t64.5 24.5t58 6.5q18 0 34.5 -1t32.5 -3q8 -3 8 10q0 30 -20 42t-53 12q-37 0 -72 -15.5t-59 -26.5q-13 -6 -17 -4t-6 15l-10 62q-2 15 0 20t13 12q26 16 67.5 27t86.5 11q69 0 110.5 -15.5t62.5 -42
t28 -60t7 -69.5q0 -40 -0.5 -80t-2 -80t-5.5 -80q-3 -13 -6.5 -18.5t-15.5 -11.5q-13 -7 -37.5 -12t-52 -8.5t-51.5 -5t-37 -1.5zM238 80q8 0 16 1t15 4t11.5 7.5t5.5 11.5q2 23 4 48t0 50q0 10 -8 16q-9 8 -24 8.5t-20 0.5q-8 0 -19 -3t-21.5 -11t-17 -24t-6.5 -42
q0 -18 7 -33.5t21 -24.5t36 -9zM190 524q-10 0 -10.5 3.5t7.5 14.5l69 95q5 8 23 8h89q7 0 9.5 -3.5t-5.5 -11.5l-93 -99q-5 -6 -9.5 -6.5t-13.5 -0.5h-66z" />
    <glyph glyph-name="acircumflex" unicode="&#xe2;" horiz-adv-x="466" 
d="M230 -7q-52 0 -97.5 11.5t-74 45t-28.5 97.5q0 53 20.5 86.5t52 51.5t64.5 24.5t58 6.5q18 0 34.5 -1t32.5 -3q8 -3 8 10q0 30 -20 42t-53 12q-37 0 -72 -15.5t-59 -26.5q-13 -6 -17 -4t-6 15l-10 62q-2 15 0 20t13 12q26 16 67.5 27t86.5 11q69 0 110.5 -15.5t62.5 -42
t28 -60t7 -69.5q0 -40 -0.5 -80t-2 -80t-5.5 -80q-3 -13 -6.5 -18.5t-15.5 -11.5q-13 -7 -37.5 -12t-52 -8.5t-51.5 -5t-37 -1.5zM238 80q8 0 16 1t15 4t11.5 7.5t5.5 11.5q2 23 4 48t0 50q0 10 -8 16q-9 8 -24 8.5t-20 0.5q-8 0 -19 -3t-21.5 -11t-17 -24t-6.5 -42
q0 -18 7 -33.5t21 -24.5t36 -9zM130 524q-4 0 -5 3t1 6l81 103q3 4 8 4h58q5 0 8 -4l81 -103q2 -3 1.5 -6t-5.5 -3h-63q-5 0 -9 4l-37 32q-5 5 -10 0l-37 -32q-4 -4 -9 -4h-63z" />
    <glyph glyph-name="atilde" unicode="&#xe3;" horiz-adv-x="466" 
d="M230 -7q-52 0 -97.5 11.5t-74 45t-28.5 97.5q0 53 20.5 86.5t52 51.5t64.5 24.5t58 6.5q18 0 34.5 -1t32.5 -3q8 -3 8 10q0 30 -20 42t-53 12q-37 0 -72 -15.5t-59 -26.5q-13 -6 -17 -4t-6 15l-10 62q-2 15 0 20t13 12q26 16 67.5 27t86.5 11q69 0 110.5 -15.5t62.5 -42
t28 -60t7 -69.5q0 -40 -0.5 -80t-2 -80t-5.5 -80q-3 -13 -6.5 -18.5t-15.5 -11.5q-13 -7 -37.5 -12t-52 -8.5t-51.5 -5t-37 -1.5zM238 80q8 0 16 1t15 4t11.5 7.5t5.5 11.5q2 23 4 48t0 50q0 10 -8 16q-9 8 -24 8.5t-20 0.5q-8 0 -19 -3t-21.5 -11t-17 -24t-6.5 -42
q0 -18 7 -33.5t21 -24.5t36 -9zM133 526q-6 0 -6 6q0 41 19 64t56 23q17 0 32.5 -8t28 -16t18.5 -8q5 0 8.5 3.5t3.5 12.5q0 7 6 7h56q6 0 6 -6q0 -37 -21.5 -61.5t-55.5 -24.5q-22 0 -37 8t-24.5 15.5t-17.5 7.5q-7 0 -9.5 -3.5t-2.5 -12.5q0 -7 -6 -7h-54z" />
    <glyph glyph-name="adieresis" unicode="&#xe4;" horiz-adv-x="466" 
d="M230 -7q-52 0 -97.5 11.5t-74 45t-28.5 97.5q0 53 20.5 86.5t52 51.5t64.5 24.5t58 6.5q18 0 34.5 -1t32.5 -3q8 -3 8 10q0 30 -20 42t-53 12q-37 0 -72 -15.5t-59 -26.5q-13 -6 -17 -4t-6 15l-10 62q-2 15 0 20t13 12q26 16 67.5 27t86.5 11q69 0 110.5 -15.5t62.5 -42
t28 -60t7 -69.5q0 -40 -0.5 -80t-2 -80t-5.5 -80q-3 -13 -6.5 -18.5t-15.5 -11.5q-13 -7 -37.5 -12t-52 -8.5t-51.5 -5t-37 -1.5zM238 80q8 0 16 1t15 4t11.5 7.5t5.5 11.5q2 23 4 48t0 50q0 10 -8 16q-9 8 -24 8.5t-20 0.5q-8 0 -19 -3t-21.5 -11t-17 -24t-6.5 -42
q0 -18 7 -33.5t21 -24.5t36 -9zM220 574q0 -25 -13 -38.5t-48 -13.5q-31 0 -45 13.5t-14 38.5t14 38.5t45 13.5q35 0 48 -13.5t13 -38.5zM388 574q0 -25 -12.5 -38.5t-47.5 -13.5q-32 0 -46 13.5t-14 38.5t14 38.5t46 13.5q35 0 47.5 -13.5t12.5 -38.5z" />
    <glyph glyph-name="aring" unicode="&#xe5;" horiz-adv-x="466" 
d="M230 -7q-52 0 -97.5 11.5t-74 45t-28.5 97.5q0 53 20.5 86.5t52 51.5t64.5 24.5t58 6.5q18 0 34.5 -1t32.5 -3q8 -3 8 10q0 30 -20 42t-53 12q-37 0 -72 -15.5t-59 -26.5q-13 -6 -17 -4t-6 15l-10 62q-2 15 0 20t13 12q26 16 67.5 27t86.5 11q69 0 110.5 -15.5t62.5 -42
t28 -60t7 -69.5q0 -40 -0.5 -80t-2 -80t-5.5 -80q-3 -13 -6.5 -18.5t-15.5 -11.5q-13 -7 -37.5 -12t-52 -8.5t-51.5 -5t-37 -1.5zM238 80q8 0 16 1t15 4t11.5 7.5t5.5 11.5q2 23 4 48t0 50q0 10 -8 16q-9 8 -24 8.5t-20 0.5q-8 0 -19 -3t-21.5 -11t-17 -24t-6.5 -42
q0 -18 7 -33.5t21 -24.5t36 -9zM341 601q0 -43 -22.5 -69t-73.5 -26q-55 0 -77 26t-22 69q0 42 22 67.5t77 25.5q52 0 74 -25.5t22 -67.5zM282 603q0 12 -7.5 19.5t-29.5 7.5q-24 0 -30 -7.5t-6 -19.5q0 -10 6 -20.5t30 -10.5q25 0 31 10.5t6 20.5z" />
    <glyph glyph-name="ae" unicode="&#xe6;" horiz-adv-x="746" 
d="M230 -7q-52 0 -97.5 11.5t-74 45t-28.5 97.5q0 53 20.5 86.5t52 51.5t64.5 24.5t58 6.5q18 0 34.5 -1t32.5 -3q8 -3 8 10q0 30 -20 42t-53 12q-37 0 -72 -15.5t-59 -26.5q-13 -6 -17 -4t-6 15q-2 16 -5 31t-5 31q-3 15 -0.5 20t13.5 12q26 16 67.5 27t86.5 11q35 0 62 -4
t48 -12t36 -19q26 17 58 26.5t75 9.5q67 0 107 -18.5t60.5 -49t27 -67t6.5 -72.5q0 -43 -11 -58t-32 -15h-107h-107q-7 0 -8.5 -2.5t-1.5 -9.5q3 -36 30 -62t72 -26q35 0 64.5 11t39.5 17q14 8 22 9.5t17 -16.5l24 -47q7 -13 3 -18t-16 -13q-34 -25 -86.5 -35.5
t-102.5 -10.5q-33 0 -60 4.5t-47 13.5q-1 1 -2.5 1t-2.5 1q-1 -1 -2 -1t-3 -1q-22 -7 -54.5 -11.5t-63 -6.5t-45.5 -2zM290 202q0 14 -11 19t-23.5 5.5t-17.5 0.5q-8 0 -19 -3t-21.5 -11t-17 -24t-6.5 -42q0 -18 7 -33.5t21 -24.5t36 -9q8 0 16 1t15 4t11.5 7.5t5.5 11.5
q2 23 3 51t1 47zM553 275q8 0 9 3.5t0 16.5q0 25 -7 41t-19.5 24t-30.5 8q-16 0 -27.5 -6t-19.5 -16t-12 -22t-6 -24q-1 -16 -0.5 -20.5t4.5 -4.5h54.5h54.5z" />
    <glyph glyph-name="ccedilla" unicode="&#xe7;" horiz-adv-x="418" 
d="M248 -8q-66 0 -109 19t-66.5 53t-33 78.5t-9.5 94.5q0 47 10 90t34 78t66 55t107 20q44 0 77.5 -9t59.5 -30q8 -8 10.5 -12t2.5 -12v-85q0 -9 -6 -9.5t-11 3.5q-28 23 -55.5 29.5t-57.5 6.5q-22 0 -39.5 -10t-28.5 -27.5t-17 -40.5t-6 -48q0 -42 10 -72t28.5 -45.5
t43.5 -15.5q21 0 42.5 6t49.5 19q20 9 28 -9l27 -64q4 -9 2.5 -14t-9.5 -10q-27 -20 -68.5 -29.5t-81.5 -9.5zM329 -133q0 -31 -26.5 -56t-71.5 -25q-36 0 -59 14.5t-38 33.5q-7 9 -7 19t10 14l22 10q11 5 17 3.5t9 -7.5q6 -13 15.5 -20t21.5 -7q15 0 22 8t7 17
q0 11 -7.5 18t-19.5 10.5t-26 2.5q-10 0 -14.5 7t0.5 15l37 63q4 6 8.5 9t12.5 3h32q13 0 8 -13l-26 -67l-23 29q49 -6 72.5 -26t23.5 -55z" />
    <glyph glyph-name="egrave" unicode="&#xe8;" horiz-adv-x="474" 
d="M30 237q0 47 10 90t34 78t66 55t107 20q67 0 107 -18.5t60.5 -49.5t27 -68t6.5 -73q0 -43 -10.5 -58t-31.5 -15h-219q-7 0 -8 -2.5t-1 -9.5q0 -25 13.5 -45.5t37.5 -33t55 -12.5q33 0 61 11.5t38 17.5q14 8 21.5 9.5t16.5 -16.5l24 -47q7 -13 3.5 -18t-15.5 -13
q-35 -25 -85.5 -36t-99.5 -11q-67 0 -109.5 19t-66 53t-33 78.5t-9.5 94.5zM300 295q0 26 -6.5 42.5t-19 24.5t-31.5 8q-16 0 -27.5 -6t-19 -16.5t-12 -23t-6.5 -24.5q-1 -18 0 -21.5t8 -3.5h104q8 0 9.5 3t0.5 17zM240 525q-15 0 -29 14l-94 92q-4 4 -1 9.5t8 5.5h105
q12 0 17 -3t10 -11l53 -89q11 -18 -2 -18h-67z" />
    <glyph glyph-name="eacute" unicode="&#xe9;" horiz-adv-x="474" 
d="M30 237q0 47 10 90t34 78t66 55t107 20q67 0 107 -18.5t60.5 -49.5t27 -68t6.5 -73q0 -43 -10.5 -58t-31.5 -15h-219q-7 0 -8 -2.5t-1 -9.5q0 -25 13.5 -45.5t37.5 -33t55 -12.5q33 0 61 11.5t38 17.5q14 8 21.5 9.5t16.5 -16.5l24 -47q7 -13 3.5 -18t-15.5 -13
q-35 -25 -85.5 -36t-99.5 -11q-67 0 -109.5 19t-66 53t-33 78.5t-9.5 94.5zM300 295q0 26 -6.5 42.5t-19 24.5t-31.5 8q-16 0 -27.5 -6t-19 -16.5t-12 -23t-6.5 -24.5q-1 -18 0 -21.5t8 -3.5h104q8 0 9.5 3t0.5 17zM196 524q-10 0 -10.5 3.5t7.5 14.5l69 95q5 8 23 8h89
q7 0 9.5 -3.5t-5.5 -11.5l-93 -99q-5 -6 -9.5 -6.5t-13.5 -0.5h-66z" />
    <glyph glyph-name="ecircumflex" unicode="&#xea;" horiz-adv-x="474" 
d="M30 237q0 47 10 90t34 78t66 55t107 20q67 0 107 -18.5t60.5 -49.5t27 -68t6.5 -73q0 -43 -10.5 -58t-31.5 -15h-219q-7 0 -8 -2.5t-1 -9.5q0 -25 13.5 -45.5t37.5 -33t55 -12.5q33 0 61 11.5t38 17.5q14 8 21.5 9.5t16.5 -16.5l24 -47q7 -13 3.5 -18t-15.5 -13
q-35 -25 -85.5 -36t-99.5 -11q-67 0 -109.5 19t-66 53t-33 78.5t-9.5 94.5zM300 295q0 26 -6.5 42.5t-19 24.5t-31.5 8q-16 0 -27.5 -6t-19 -16.5t-12 -23t-6.5 -24.5q-1 -18 0 -21.5t8 -3.5h104q8 0 9.5 3t0.5 17zM136 524q-4 0 -5 3t1 6l81 103q3 4 8 4h58q5 0 8 -4
l81 -103q2 -3 1.5 -6t-5.5 -3h-63q-5 0 -9 4l-37 32q-5 5 -10 0l-37 -32q-4 -4 -9 -4h-63z" />
    <glyph glyph-name="edieresis" unicode="&#xeb;" horiz-adv-x="474" 
d="M30 237q0 47 10 90t34 78t66 55t107 20q67 0 107 -18.5t60.5 -49.5t27 -68t6.5 -73q0 -43 -10.5 -58t-31.5 -15h-219q-7 0 -8 -2.5t-1 -9.5q0 -25 13.5 -45.5t37.5 -33t55 -12.5q33 0 61 11.5t38 17.5q14 8 21.5 9.5t16.5 -16.5l24 -47q7 -13 3.5 -18t-15.5 -13
q-35 -25 -85.5 -36t-99.5 -11q-67 0 -109.5 19t-66 53t-33 78.5t-9.5 94.5zM300 295q0 26 -6.5 42.5t-19 24.5t-31.5 8q-16 0 -27.5 -6t-19 -16.5t-12 -23t-6.5 -24.5q-1 -18 0 -21.5t8 -3.5h104q8 0 9.5 3t0.5 17zM226 574q0 -25 -13 -38.5t-48 -13.5q-31 0 -45 13.5
t-14 38.5t14 38.5t45 13.5q35 0 48 -13.5t13 -38.5zM394 574q0 -25 -12.5 -38.5t-47.5 -13.5q-32 0 -46 13.5t-14 38.5t14 38.5t46 13.5q35 0 47.5 -13.5t12.5 -38.5z" />
    <glyph glyph-name="igrave" unicode="&#xec;" horiz-adv-x="226" 
d="M186 14q0 -14 -15 -14h-117q-14 0 -14 14v444q0 14 14 14h117q15 0 15 -14v-444zM103 525q-15 0 -29 14l-94 92q-4 4 -1 9.5t8 5.5h105q12 0 17 -3t10 -11l53 -89q11 -18 -2 -18h-67z" />
    <glyph glyph-name="iacute" unicode="&#xed;" horiz-adv-x="226" 
d="M186 14q0 -14 -15 -14h-117q-14 0 -14 14v444q0 14 14 14h117q15 0 15 -14v-444zM59 524q-10 0 -10.5 3.5t7.5 14.5l69 95q5 8 23 8h89q7 0 9.5 -3.5t-5.5 -11.5l-93 -99q-5 -6 -9.5 -6.5t-13.5 -0.5h-66z" />
    <glyph glyph-name="icircumflex" unicode="&#xee;" horiz-adv-x="226" 
d="M186 14q0 -14 -15 -14h-117q-14 0 -14 14v444q0 14 14 14h117q15 0 15 -14v-444zM-1 524q-4 0 -5 3t1 6l81 103q3 4 8 4h58q5 0 8 -4l81 -103q2 -3 1.5 -6t-5.5 -3h-63q-5 0 -9 4l-37 32q-5 5 -10 0l-37 -32q-4 -4 -9 -4h-63z" />
    <glyph glyph-name="idieresis" unicode="&#xef;" horiz-adv-x="226" 
d="M186 14q0 -14 -15 -14h-117q-14 0 -14 14v444q0 14 14 14h117q15 0 15 -14v-444zM89 574q0 -25 -13 -38.5t-48 -13.5q-31 0 -45 13.5t-14 38.5t14 38.5t45 13.5q35 0 48 -13.5t13 -38.5zM257 574q0 -25 -12.5 -38.5t-47.5 -13.5q-32 0 -46 13.5t-14 38.5t14 38.5t46 13.5
q35 0 47.5 -13.5t12.5 -38.5z" />
    <glyph glyph-name="eth" unicode="&#xf0;" horiz-adv-x="506" 
d="M476 238q0 -67 -18.5 -122.5t-67 -88.5t-137.5 -33t-137.5 32.5t-67 88t-18.5 123.5t21 122t69.5 85.5t132.5 31.5h10.5t9.5 -1q-14 15 -32 30t-42 31q-16 11 -35 22.5t-42 23.5q-10 5 -14 7.5t1 11.5q5 11 18.5 33t21.5 35q2 5 7.5 7t20.5 -4q8 -3 15 -6t14 -7
q94 -43 153.5 -110.5t88 -148t28.5 -163.5zM325 234q0 61 -18 92.5t-56 31.5q-37 0 -55 -31.5t-18 -92.5q0 -62 16.5 -95.5t56.5 -33.5q41 0 57.5 34t16.5 95zM143 481q-7 -5 -9.5 -4t-4.5 5l-25 39q-3 6 -2 8t8 7l225 138q6 4 9 4t6 -5l26 -42q2 -4 0.5 -6t-9.5 -6z" />
    <glyph glyph-name="ntilde" unicode="&#xf1;" horiz-adv-x="464" 
d="M57 0q-17 0 -17 15v205.5v205.5q0 12 8 17t31 13q12 4 38 9.5t56 10t54 4.5q85 0 130 -31.5t62 -83t17 -113.5q0 -35 -1.5 -73.5t-4.5 -77t-7 -73.5q-2 -21 -6.5 -24.5t-20.5 -3.5h-94q-16 0 -21.5 4t-4.5 17q0 4 2 32t4 66.5t3.5 74.5t1.5 56q0 51 -8 75.5t-22 32
t-34 7.5h-11.5t-8.5 -1q-10 -1 -13.5 -8t-3.5 -24v-90.5v-110.5v-116q0 -15 -12 -15h-117zM127 526q-6 0 -6 6q0 41 19 64t56 23q17 0 32.5 -8t28 -16t18.5 -8q5 0 8.5 3.5t3.5 12.5q0 7 6 7h56q6 0 6 -6q0 -37 -21.5 -61.5t-55.5 -24.5q-22 0 -37 8t-24.5 15.5t-17.5 7.5
q-7 0 -9.5 -3.5t-2.5 -12.5q0 -7 -6 -7h-54z" />
    <glyph glyph-name="ograve" unicode="&#xf2;" horiz-adv-x="506" 
d="M253 -8q-89 0 -137.5 32.5t-67 88.5t-18.5 126q0 69 21 123.5t69.5 86t132.5 31.5t132.5 -31.5t69.5 -86t21 -123.5t-18.5 -125t-67 -89t-137.5 -33zM251 103q41 0 57.5 34.5t16.5 97.5q0 62 -18 94t-56 32q-37 0 -55 -32t-18 -94q0 -64 16.5 -98t56.5 -34zM244 525
q-15 0 -29 14l-94 92q-4 4 -1 9.5t8 5.5h105q12 0 17 -3t10 -11l53 -89q11 -18 -2 -18h-67z" />
    <glyph glyph-name="oacute" unicode="&#xf3;" horiz-adv-x="506" 
d="M253 -8q-89 0 -137.5 32.5t-67 88.5t-18.5 126q0 69 21 123.5t69.5 86t132.5 31.5t132.5 -31.5t69.5 -86t21 -123.5t-18.5 -125t-67 -89t-137.5 -33zM251 103q41 0 57.5 34.5t16.5 97.5q0 62 -18 94t-56 32q-37 0 -55 -32t-18 -94q0 -64 16.5 -98t56.5 -34zM200 524
q-10 0 -10.5 3.5t7.5 14.5l69 95q5 8 23 8h89q7 0 9.5 -3.5t-5.5 -11.5l-93 -99q-5 -6 -9.5 -6.5t-13.5 -0.5h-66z" />
    <glyph glyph-name="ocircumflex" unicode="&#xf4;" horiz-adv-x="506" 
d="M253 -8q-89 0 -137.5 32.5t-67 88.5t-18.5 126q0 69 21 123.5t69.5 86t132.5 31.5t132.5 -31.5t69.5 -86t21 -123.5t-18.5 -125t-67 -89t-137.5 -33zM251 103q41 0 57.5 34.5t16.5 97.5q0 62 -18 94t-56 32q-37 0 -55 -32t-18 -94q0 -64 16.5 -98t56.5 -34zM140 524
q-4 0 -5 3t1 6l81 103q3 4 8 4h58q5 0 8 -4l81 -103q2 -3 1.5 -6t-5.5 -3h-63q-5 0 -9 4l-37 32q-5 5 -10 0l-37 -32q-4 -4 -9 -4h-63z" />
    <glyph glyph-name="otilde" unicode="&#xf5;" horiz-adv-x="506" 
d="M253 -8q-89 0 -137.5 32.5t-67 88.5t-18.5 126q0 69 21 123.5t69.5 86t132.5 31.5t132.5 -31.5t69.5 -86t21 -123.5t-18.5 -125t-67 -89t-137.5 -33zM251 103q41 0 57.5 34.5t16.5 97.5q0 62 -18 94t-56 32q-37 0 -55 -32t-18 -94q0 -64 16.5 -98t56.5 -34zM143 526
q-6 0 -6 6q0 41 19 64t56 23q17 0 32.5 -8t28 -16t18.5 -8q5 0 8.5 3.5t3.5 12.5q0 7 6 7h56q6 0 6 -6q0 -37 -21.5 -61.5t-55.5 -24.5q-22 0 -37 8t-24.5 15.5t-17.5 7.5q-7 0 -9.5 -3.5t-2.5 -12.5q0 -7 -6 -7h-54z" />
    <glyph glyph-name="odieresis" unicode="&#xf6;" horiz-adv-x="506" 
d="M253 -8q-89 0 -137.5 32.5t-67 88.5t-18.5 126q0 69 21 123.5t69.5 86t132.5 31.5t132.5 -31.5t69.5 -86t21 -123.5t-18.5 -125t-67 -89t-137.5 -33zM251 103q41 0 57.5 34.5t16.5 97.5q0 62 -18 94t-56 32q-37 0 -55 -32t-18 -94q0 -64 16.5 -98t56.5 -34zM230 574
q0 -25 -13 -38.5t-48 -13.5q-31 0 -45 13.5t-14 38.5t14 38.5t45 13.5q35 0 48 -13.5t13 -38.5zM398 574q0 -25 -12.5 -38.5t-47.5 -13.5q-32 0 -46 13.5t-14 38.5t14 38.5t46 13.5q35 0 47.5 -13.5t12.5 -38.5z" />
    <glyph glyph-name="divide" unicode="&#xf7;" horiz-adv-x="505" 
d="M323 153q0 -28 -14 -41.5t-56 -13.5q-37 0 -53.5 13.5t-16.5 41.5q0 26 16.5 40.5t53.5 14.5q42 0 56 -14.5t14 -40.5zM323 469q0 -27 -14 -41t-56 -14q-37 0 -53.5 14t-16.5 41t16.5 41t53.5 14q42 0 56 -14t14 -41zM66 263q-12 0 -14 3t-2 11v71q0 10 2.5 12.5
t14.5 2.5h371q11 0 14 -2t3 -12v-76q0 -7 -2.5 -8.5t-16.5 -1.5h-370z" />
    <glyph glyph-name="oslash" unicode="&#xf8;" horiz-adv-x="486" 
d="M253 -8q-89 0 -137.5 32.5t-67 88.5t-18.5 126q0 69 21 123.5t69.5 86t132.5 31.5t132.5 -31.5t69.5 -86t21 -123.5t-18.5 -125t-67 -89t-137.5 -33zM251 103q41 0 57.5 34.5t16.5 97.5q0 62 -18 94t-56 32q-37 0 -55 -32t-18 -94q0 -64 16.5 -98t56.5 -34zM146 -61
q-7 -15 -16 -15h-62q-4 0 -3.5 5t3.5 12l291 597q4 8 7 9.5t7 1.5h58q7 0 6.5 -5t-11.5 -28z" />
    <glyph glyph-name="ugrave" unicode="&#xf9;" horiz-adv-x="471" 
d="M245 -4q-84 0 -129.5 31t-63 82.5t-17.5 112.5q0 35 1.5 73t5 76.5t7.5 72.5q2 21 6.5 24.5t20.5 3.5h94q15 0 22 -0.5t4 -20.5q0 -4 -1.5 -29t-3.5 -61.5t-3 -74.5t-1 -68q0 -59 14 -84t48 -25q4 0 10.5 0.5t12.5 1.5t10 4.5t4 9.5v327q0 6 1 13t8 7h120q4 0 10 -2
t6 -13v-407q0 -12 -7.5 -17t-30.5 -13q-12 -4 -38 -9.5t-55.5 -10t-54.5 -4.5zM233 525q-15 0 -29 14l-94 92q-4 4 -1 9.5t8 5.5h105q12 0 17 -3t10 -11l53 -89q11 -18 -2 -18h-67z" />
    <glyph glyph-name="uacute" unicode="&#xfa;" horiz-adv-x="471" 
d="M245 -4q-84 0 -129.5 31t-63 82.5t-17.5 112.5q0 35 1.5 73t5 76.5t7.5 72.5q2 21 6.5 24.5t20.5 3.5h94q15 0 22 -0.5t4 -20.5q0 -4 -1.5 -29t-3.5 -61.5t-3 -74.5t-1 -68q0 -59 14 -84t48 -25q4 0 10.5 0.5t12.5 1.5t10 4.5t4 9.5v327q0 6 1 13t8 7h120q4 0 10 -2
t6 -13v-407q0 -12 -7.5 -17t-30.5 -13q-12 -4 -38 -9.5t-55.5 -10t-54.5 -4.5zM189 524q-10 0 -10.5 3.5t7.5 14.5l69 95q5 8 23 8h89q7 0 9.5 -3.5t-5.5 -11.5l-93 -99q-5 -6 -9.5 -6.5t-13.5 -0.5h-66z" />
    <glyph glyph-name="ucircumflex" unicode="&#xfb;" horiz-adv-x="471" 
d="M245 -4q-84 0 -129.5 31t-63 82.5t-17.5 112.5q0 35 1.5 73t5 76.5t7.5 72.5q2 21 6.5 24.5t20.5 3.5h94q15 0 22 -0.5t4 -20.5q0 -4 -1.5 -29t-3.5 -61.5t-3 -74.5t-1 -68q0 -59 14 -84t48 -25q4 0 10.5 0.5t12.5 1.5t10 4.5t4 9.5v327q0 6 1 13t8 7h120q4 0 10 -2
t6 -13v-407q0 -12 -7.5 -17t-30.5 -13q-12 -4 -38 -9.5t-55.5 -10t-54.5 -4.5zM129 524q-4 0 -5 3t1 6l81 103q3 4 8 4h58q5 0 8 -4l81 -103q2 -3 1.5 -6t-5.5 -3h-63q-5 0 -9 4l-37 32q-5 5 -10 0l-37 -32q-4 -4 -9 -4h-63z" />
    <glyph glyph-name="udieresis" unicode="&#xfc;" horiz-adv-x="471" 
d="M245 -4q-84 0 -129.5 31t-63 82.5t-17.5 112.5q0 35 1.5 73t5 76.5t7.5 72.5q2 21 6.5 24.5t20.5 3.5h94q15 0 22 -0.5t4 -20.5q0 -4 -1.5 -29t-3.5 -61.5t-3 -74.5t-1 -68q0 -59 14 -84t48 -25q4 0 10.5 0.5t12.5 1.5t10 4.5t4 9.5v327q0 6 1 13t8 7h120q4 0 10 -2
t6 -13v-407q0 -12 -7.5 -17t-30.5 -13q-12 -4 -38 -9.5t-55.5 -10t-54.5 -4.5zM219 574q0 -25 -13 -38.5t-48 -13.5q-31 0 -45 13.5t-14 38.5t14 38.5t45 13.5q35 0 48 -13.5t13 -38.5zM387 574q0 -25 -12.5 -38.5t-47.5 -13.5q-32 0 -46 13.5t-14 38.5t14 38.5t46 13.5
q35 0 47.5 -13.5t12.5 -38.5z" />
    <glyph glyph-name="yacute" unicode="&#xfd;" horiz-adv-x="430" 
d="M113 118q-18 39 -33 79.5t-27.5 82.5t-22 84.5t-17.5 85.5q-4 22 13 22h115q12 0 17 -6.5t7 -23.5q2 -11 5 -30.5t7.5 -43.5t10 -50.5t12 -52.5t12.5 -49q4 -7 8 -7t5 8q8 29 15 58t14 58.5t13 59t12 59.5q2 11 6 15.5t16 4.5h98q11 0 17 -4t3 -20q-7 -41 -16 -78
t-21 -76t-29 -88q-10 -28 -25 -69t-37.5 -85t-54 -82t-73.5 -62t-97 -24q-30 0 -50.5 4t-34.5 11q-23 12 -12 33l28 53q5 10 9.5 10t12.5 -2q14 -4 30.5 -2.5t30.5 8.5q18 8 28.5 18.5t14.5 21.5q8 19 3.5 39.5t-13.5 39.5zM168 524q-10 0 -10.5 3.5t7.5 14.5l69 95
q5 8 23 8h89q7 0 9.5 -3.5t-5.5 -11.5l-93 -99q-5 -6 -9.5 -6.5t-13.5 -0.5h-66z" />
    <glyph glyph-name="thorn" unicode="&#xfe;" horiz-adv-x="474" 
d="M449 247q0 -50 -8.5 -88.5t-24 -66.5t-35 -47t-42.5 -31q-22 -12 -52 -16.5t-47 -4.5h-17.5h-9.5q-7 0 -16.5 1t-13.5 2v-44v-44q0 -8 -2 -11t-12 -3h-58h-58q-6 0 -9.5 1.5t-3.5 8.5v334.5v334.5q0 8 5 11.5t14 3.5h58h58q5 0 10.5 -2.5t5.5 -10.5v-48v-48
q11 1 22.5 1.5t23.5 0.5q99 0 155.5 -56.5t56.5 -177.5zM300 248q0 70 -18.5 95.5t-45.5 25.5q-9 0 -18 -1t-16 -2.5t-13 -4.5q-4 -3 -4 -12q-1 -51 -2 -102.5t-1 -102.5q0 -6 0.5 -7.5t3.5 -3.5q8 -5 24 -8t26 -3t21 4.5t21 17t16 37.5t6 67z" />
    <glyph glyph-name="ydieresis" unicode="&#xff;" horiz-adv-x="430" 
d="M113 118q-18 39 -33 79.5t-27.5 82.5t-22 84.5t-17.5 85.5q-4 22 13 22h115q12 0 17 -6.5t7 -23.5q2 -11 5 -30.5t7.5 -43.5t10 -50.5t12 -52.5t12.5 -49q4 -7 8 -7t5 8q8 29 15 58t14 58.5t13 59t12 59.5q2 11 6 15.5t16 4.5h98q11 0 17 -4t3 -20q-7 -41 -16 -78
t-21 -76t-29 -88q-10 -28 -25 -69t-37.5 -85t-54 -82t-73.5 -62t-97 -24q-30 0 -50.5 4t-34.5 11q-23 12 -12 33l28 53q5 10 9.5 10t12.5 -2q14 -4 30.5 -2.5t30.5 8.5q18 8 28.5 18.5t14.5 21.5q8 19 3.5 39.5t-13.5 39.5zM198 574q0 -25 -13 -38.5t-48 -13.5
q-31 0 -45 13.5t-14 38.5t14 38.5t45 13.5q35 0 48 -13.5t13 -38.5zM366 574q0 -25 -12.5 -38.5t-47.5 -13.5q-32 0 -46 13.5t-14 38.5t14 38.5t46 13.5q35 0 47.5 -13.5t12.5 -38.5z" />
    <glyph glyph-name="Amacron" unicode="&#x100;" horiz-adv-x="549" 
d="M27 0q-10 0 -12 8t2 32q6 44 20 106.5t33 132.5t41 140t45 130.5t44 101.5q6 10 11.5 16t13.5 6h99q8 -3 14 -7.5t11 -14.5q22 -41 45 -101.5t45 -130.5t41 -140t33 -132.5t20 -106.5q4 -24 2 -32t-13 -8h-118q-9 0 -12.5 5t-7.5 27t-10.5 52t-10.5 49q-1 8 -2.5 9
t-8.5 1h-154q-7 0 -8 -1t-3 -9q-4 -19 -10.5 -49t-10.5 -52t-7.5 -27t-12.5 -5h-119zM230 258h90q7 0 8 2.5t-1 9.5q-10 40 -22.5 85.5t-22.5 79.5q-2 9 -6 9h-4q-3 0 -6 -9q-6 -22 -14 -50t-15.5 -57.5t-14.5 -57.5q-1 -7 0 -9.5t8 -2.5zM395 735q0 -4 -2 -5t-11 -1h-216
q-8 0 -9.5 2t-1.5 7v66q0 7 2 9t9 2h217q8 0 10 -1.5t2 -8.5v-70z" />
    <glyph glyph-name="amacron" unicode="&#x101;" horiz-adv-x="466" 
d="M230 -7q-52 0 -97.5 11.5t-74 45t-28.5 97.5q0 53 20.5 86.5t52 51.5t64.5 24.5t58 6.5q18 0 34.5 -1t32.5 -3q8 -3 8 10q0 30 -20 42t-53 12q-37 0 -72 -15.5t-59 -26.5q-13 -6 -17 -4t-6 15l-10 62q-2 15 0 20t13 12q26 16 67.5 27t86.5 11q69 0 110.5 -15.5t62.5 -42
t28 -60t7 -69.5q0 -40 -0.5 -80t-2 -80t-5.5 -80q-3 -13 -6.5 -18.5t-15.5 -11.5q-13 -7 -37.5 -12t-52 -8.5t-51.5 -5t-37 -1.5zM238 80q8 0 16 1t15 4t11.5 7.5t5.5 11.5q2 23 4 48t0 50q0 10 -8 16q-9 8 -24 8.5t-20 0.5q-8 0 -19 -3t-21.5 -11t-17 -24t-6.5 -42
q0 -18 7 -33.5t21 -24.5t36 -9zM364 534q0 -4 -2 -5t-11 -1h-216q-8 0 -9.5 2t-1.5 7v66q0 7 2 9t9 2h217q8 0 10 -1.5t2 -8.5v-70z" />
    <glyph glyph-name="Abreve" unicode="&#x102;" horiz-adv-x="549" 
d="M27 0q-10 0 -12 8t2 32q6 44 20 106.5t33 132.5t41 140t45 130.5t44 101.5q6 10 11.5 16t13.5 6h99q8 -3 14 -7.5t11 -14.5q22 -41 45 -101.5t45 -130.5t41 -140t33 -132.5t20 -106.5q4 -24 2 -32t-13 -8h-118q-9 0 -12.5 5t-7.5 27t-10.5 52t-10.5 49q-1 8 -2.5 9
t-8.5 1h-154q-7 0 -8 -1t-3 -9q-4 -19 -10.5 -49t-10.5 -52t-7.5 -27t-12.5 -5h-119zM230 258h90q7 0 8 2.5t-1 9.5q-10 40 -22.5 85.5t-22.5 79.5q-2 9 -6 9h-4q-3 0 -6 -9q-6 -22 -14 -50t-15.5 -57.5t-14.5 -57.5q-1 -7 0 -9.5t8 -2.5zM275 706q-53 0 -82 24t-29 64
q0 16 2.5 19t12.5 3h46q10 0 13 -1.5t3 -11.5q0 -13 9.5 -21.5t24.5 -8.5q14 0 24 8.5t10 21.5q0 10 4 11.5t8 1.5h51q8 0 10.5 -2.5t2.5 -19.5q0 -40 -28 -64t-82 -24z" />
    <glyph glyph-name="abreve" unicode="&#x103;" horiz-adv-x="466" 
d="M230 -7q-52 0 -97.5 11.5t-74 45t-28.5 97.5q0 53 20.5 86.5t52 51.5t64.5 24.5t58 6.5q18 0 34.5 -1t32.5 -3q8 -3 8 10q0 30 -20 42t-53 12q-37 0 -72 -15.5t-59 -26.5q-13 -6 -17 -4t-6 15l-10 62q-2 15 0 20t13 12q26 16 67.5 27t86.5 11q69 0 110.5 -15.5t62.5 -42
t28 -60t7 -69.5q0 -40 -0.5 -80t-2 -80t-5.5 -80q-3 -13 -6.5 -18.5t-15.5 -11.5q-13 -7 -37.5 -12t-52 -8.5t-51.5 -5t-37 -1.5zM238 80q8 0 16 1t15 4t11.5 7.5t5.5 11.5q2 23 4 48t0 50q0 10 -8 16q-9 8 -24 8.5t-20 0.5q-8 0 -19 -3t-21.5 -11t-17 -24t-6.5 -42
q0 -18 7 -33.5t21 -24.5t36 -9zM244 518q-59 0 -91 25t-32 67q0 18 2 22t15 4h53q12 0 15 -2t3 -13q0 -12 10 -20t25 -8t25.5 8t10.5 20q0 10 3.5 12.5t10.5 2.5h58q11 0 13 -4.5t2 -21.5q0 -42 -31.5 -67t-91.5 -25z" />
    <glyph glyph-name="Aogonek" unicode="&#x104;" horiz-adv-x="549" 
d="M27 0q-10 0 -12 8t2 32q6 44 20 106.5t33 132.5t41 140t45 130.5t44 101.5q6 10 11.5 16t13.5 6h99q8 -3 14 -7.5t11 -14.5q22 -41 45 -101.5t45 -130.5t41 -140t33 -132.5t20 -106.5q4 -24 2 -32t-13 -8h-118q-9 0 -12.5 5t-7.5 27t-10.5 52t-10.5 49q-1 8 -2.5 9
t-8.5 1h-154q-7 0 -8 -1t-3 -9q-4 -19 -10.5 -49t-10.5 -52t-7.5 -27t-12.5 -5h-119zM230 258h90q7 0 8 2.5t-1 9.5q-10 40 -22.5 85.5t-22.5 79.5q-2 9 -6 9h-4q-3 0 -6 -9q-6 -22 -14 -50t-15.5 -57.5t-14.5 -57.5q-1 -7 0 -9.5t8 -2.5zM406 -260q-52 0 -88 28t-36 71
q0 35 14.5 63t40.5 50.5t60 40.5q11 6 24.5 11t29.5 5h71q8 0 8.5 -4.5t-6.5 -9.5q-61 -38 -91 -63.5t-39 -44t-9 -34.5q0 -20 11.5 -27.5t24.5 -6.5q15 1 37.5 11t39.5 23q6 5 12.5 4.5t6.5 -8.5v-43q0 -18 -20 -33q-22 -16 -43.5 -24.5t-47.5 -8.5z" />
    <glyph glyph-name="aogonek" unicode="&#x105;" horiz-adv-x="466" 
d="M230 -7q-52 0 -97.5 11.5t-74 45t-28.5 97.5q0 53 20.5 86.5t52 51.5t64.5 24.5t58 6.5q18 0 34.5 -1t32.5 -3q8 -3 8 10q0 30 -20 42t-53 12q-37 0 -72 -15.5t-59 -26.5q-13 -6 -17 -4t-6 15l-10 62q-2 15 0 20t13 12q26 16 67.5 27t86.5 11q69 0 110.5 -15.5t62.5 -42
t28 -60t7 -69.5q0 -40 -0.5 -80t-2 -80t-5.5 -80q-3 -13 -6.5 -18.5t-15.5 -11.5q-13 -7 -37.5 -12t-52 -8.5t-51.5 -5t-37 -1.5zM238 80q8 0 16 1t15 4t11.5 7.5t5.5 11.5q2 23 4 48t0 50q0 10 -8 16q-9 8 -24 8.5t-20 0.5q-8 0 -19 -3t-21.5 -11t-17 -24t-6.5 -42
q0 -18 7 -33.5t21 -24.5t36 -9zM253 -250q-52 0 -88 28t-36 71q0 35 14.5 63t40.5 50.5t60 40.5q11 6 24.5 11t29.5 5h71q8 0 8.5 -4.5t-6.5 -9.5q-61 -38 -91 -63.5t-39 -44t-9 -34.5q0 -20 11.5 -27.5t24.5 -6.5q15 1 37.5 11t39.5 23q6 5 12.5 4.5t6.5 -8.5v-43
q0 -18 -20 -33q-22 -16 -43.5 -24.5t-47.5 -8.5z" />
    <glyph glyph-name="Cacute" unicode="&#x106;" horiz-adv-x="476" 
d="M446 39q0 -27 -32 -35q-14 -5 -35 -7.5t-40 -3.5t-29 -1q-123 0 -197.5 87.5t-74.5 255.5q0 170 72 257.5t200 87.5q10 0 29 -1.5t40 -4t35 -7.5q15 -4 23.5 -9t8.5 -16v-99q0 -31 -34 -7q-22 14 -46 20.5t-44 6.5q-37 0 -62 -16t-40 -45t-21 -68t-6 -86q0 -32 3 -65.5
t11 -65t22 -56.5t37 -39.5t56 -14.5q24 0 48 6.5t38 15.5q23 14 30.5 13t7.5 -18v-85zM302 715h-67q-8 0 -8.5 5.5t6.5 12.5l64 72q7 8 11 11t16 3h105q5 0 8.5 -6t-1.5 -9l-105 -75q-10 -7 -15.5 -10.5t-13.5 -3.5z" />
    <glyph glyph-name="cacute" unicode="&#x107;" horiz-adv-x="418" 
d="M248 -8q-66 0 -109 19t-66.5 53t-33 78.5t-9.5 94.5q0 47 10 90t34 78t66 55t107 20q44 0 77.5 -9t59.5 -30q8 -8 10.5 -12t2.5 -12v-85q0 -9 -6 -9.5t-11 3.5q-28 23 -55.5 29.5t-57.5 6.5q-22 0 -39.5 -10t-28.5 -27.5t-17 -40.5t-6 -48q0 -42 10 -72t28.5 -45.5
t43.5 -15.5q21 0 42.5 6t49.5 19q20 9 28 -9l27 -64q4 -9 2.5 -14t-9.5 -10q-27 -20 -68.5 -29.5t-81.5 -9.5zM193 524q-10 0 -10.5 3.5t7.5 14.5l69 95q5 8 23 8h89q7 0 9.5 -3.5t-5.5 -11.5l-93 -99q-5 -6 -9.5 -6.5t-13.5 -0.5h-66z" />
    <glyph glyph-name="Cdotaccent" unicode="&#x10a;" horiz-adv-x="476" 
d="M446 39q0 -27 -32 -35q-14 -5 -35 -7.5t-40 -3.5t-29 -1q-123 0 -197.5 87.5t-74.5 255.5q0 170 72 257.5t200 87.5q10 0 29 -1.5t40 -4t35 -7.5q15 -4 23.5 -9t8.5 -16v-99q0 -31 -34 -7q-22 14 -46 20.5t-44 6.5q-37 0 -62 -16t-40 -45t-21 -68t-6 -86q0 -32 3 -65.5
t11 -65t22 -56.5t37 -39.5t56 -14.5q24 0 48 6.5t38 15.5q23 14 30.5 13t7.5 -18v-85zM353 772q0 -25 -11 -38.5t-44 -13.5t-45.5 13.5t-12.5 38.5q0 23 12.5 37.5t45.5 14.5q35 0 45 -14.5t10 -37.5z" />
    <glyph glyph-name="cdotaccent" unicode="&#x10b;" horiz-adv-x="418" 
d="M248 -8q-66 0 -109 19t-66.5 53t-33 78.5t-9.5 94.5q0 47 10 90t34 78t66 55t107 20q44 0 77.5 -9t59.5 -30q8 -8 10.5 -12t2.5 -12v-85q0 -9 -6 -9.5t-11 3.5q-28 23 -55.5 29.5t-57.5 6.5q-22 0 -39.5 -10t-28.5 -27.5t-17 -40.5t-6 -48q0 -42 10 -72t28.5 -45.5
t43.5 -15.5q21 0 42.5 6t49.5 19q20 9 28 -9l27 -64q4 -9 2.5 -14t-9.5 -10q-27 -20 -68.5 -29.5t-81.5 -9.5zM303 571q0 -25 -11 -38.5t-44 -13.5t-45.5 13.5t-12.5 38.5q0 23 12.5 37.5t45.5 14.5q35 0 45 -14.5t10 -37.5z" />
    <glyph glyph-name="Ccaron" unicode="&#x10c;" horiz-adv-x="476" 
d="M446 39q0 -27 -32 -35q-14 -5 -35 -7.5t-40 -3.5t-29 -1q-123 0 -197.5 87.5t-74.5 255.5q0 170 72 257.5t200 87.5q10 0 29 -1.5t40 -4t35 -7.5q15 -4 23.5 -9t8.5 -16v-99q0 -31 -34 -7q-22 14 -46 20.5t-44 6.5q-37 0 -62 -16t-40 -45t-21 -68t-6 -86q0 -32 3 -65.5
t11 -65t22 -56.5t37 -39.5t56 -14.5q24 0 48 6.5t38 15.5q23 14 30.5 13t7.5 -18v-85zM266 713q-5 0 -8 4l-89 93q-2 3 -1 6t5 3h59q5 0 9 -4l51 -39q5 -5 10 0l51 39q4 4 9 4h59q5 0 5.5 -3t-1.5 -6l-89 -93q-3 -4 -8 -4h-62z" />
    <glyph glyph-name="ccaron" unicode="&#x10d;" horiz-adv-x="418" 
d="M248 -8q-66 0 -109 19t-66.5 53t-33 78.5t-9.5 94.5q0 47 10 90t34 78t66 55t107 20q44 0 77.5 -9t59.5 -30q8 -8 10.5 -12t2.5 -12v-85q0 -9 -6 -9.5t-11 3.5q-28 23 -55.5 29.5t-57.5 6.5q-22 0 -39.5 -10t-28.5 -27.5t-17 -40.5t-6 -48q0 -42 10 -72t28.5 -45.5
t43.5 -15.5q21 0 42.5 6t49.5 19q20 9 28 -9l27 -64q4 -9 2.5 -14t-9.5 -10q-27 -20 -68.5 -29.5t-81.5 -9.5zM218 524q-5 0 -8 4l-81 103q-2 3 -1 6t5 3h63q5 0 9 -4l37 -32q5 -5 10 0l37 32q4 4 9 4h63q5 0 5.5 -3t-1.5 -6l-81 -103q-3 -4 -8 -4h-58z" />
    <glyph glyph-name="Dcaron" unicode="&#x10e;" horiz-adv-x="586" 
d="M548 346q0 -87 -19.5 -147.5t-51.5 -99.5t-70.5 -60.5t-76.5 -30t-69 -8.5h-186q-15 0 -15 14v644q0 15 15 15h186q37 0 77.5 -6.5t77.5 -25t67 -54.5t47.5 -94.5t17.5 -146.5zM398 346q0 80 -14 123.5t-36.5 62t-47.5 22t-46 3.5h-30q-9 0 -10.5 -1t-1.5 -8v-422
q0 -7 1.5 -8.5t7.5 -1.5h17q23 0 50 6t52.5 28t41.5 68.5t16 127.5zM240 713q-5 0 -8 4l-89 93q-2 3 -1 6t5 3h59q5 0 9 -4l51 -39q5 -5 10 0l51 39q4 4 9 4h59q5 0 5.5 -3t-1.5 -6l-89 -93q-3 -4 -8 -4h-62z" />
    <glyph glyph-name="dcaron" unicode="&#x10f;" horiz-adv-x="487" 
d="M35 229q2 76 20.5 124t48.5 75t66.5 37.5t73.5 10.5q11 0 26 -3t24 -5q5 -1 9.5 0t4.5 9q0 18 -0.5 36.5t-2 36.5t-3.5 36.5l-4 37t-4 36.5q-3 20 1 23.5t15 3.5h110q8 0 13 -1.5t6 -9.5q4 -37 7.5 -91.5t5.5 -118.5t2.5 -128.5t-1 -122.5t-5 -101t-10.5 -62
q-4 -13 -10 -19.5t-30 -14.5q-18 -7 -60 -15.5t-94 -8.5q-39 0 -71.5 8.5t-57.5 25.5q-40 27 -60.5 77t-19.5 124zM185 228q-1 -70 17 -96t46 -26q9 0 17.5 1t16 3t13.5 4q2 2 3 4.5t1 7.5q1 21 2 41.5t1.5 41t1.5 41t1.5 41t0.5 41.5q0 6 -1 8t-5 3q-10 4 -23.5 7.5
t-23.5 3.5t-22 -4.5t-22 -17t-16.5 -37.5t-7.5 -67zM516 492q-6 0 -9.5 4.5t-4.5 17.5l-7 148q-1 17 3 21.5t17 4.5h56q16 0 19.5 -4.5t2.5 -14.5l-9 -159q-1 -11 -4 -14.5t-12 -3.5h-52z" />
    <glyph glyph-name="Dcroat" unicode="&#x110;" horiz-adv-x="614" 
d="M604 346q0 -87 -19.5 -147.5t-51.5 -99.5t-70.5 -60.5t-76.5 -30t-69 -8.5h-186q-15 0 -15 14v644q0 15 15 15h186q37 0 77.5 -6.5t77.5 -25t67 -54.5t47.5 -94.5t17.5 -146.5zM454 346q0 80 -14 123.5t-36.5 62t-47.5 22t-46 3.5h-30q-9 0 -10.5 -1t-1.5 -8v-422
q0 -7 1.5 -8.5t7.5 -1.5h17q23 0 50 6t52.5 28t41.5 68.5t16 127.5zM48 284q-10 0 -11.5 3t-1.5 11v75q0 10 2 12.5t12 2.5h292q9 0 11.5 -2t2.5 -12v-80q0 -7 -2 -8.5t-13 -1.5h-292z" />
    <glyph glyph-name="dcroat" unicode="&#x111;" horiz-adv-x="477" 
d="M35 229q2 76 20.5 124t48.5 75t66.5 37.5t73.5 10.5q11 0 26 -3t24 -5q5 -1 9.5 0t4.5 9q0 18 -0.5 36.5t-2 36.5t-3.5 36.5l-4 37t-4 36.5q-3 20 1 23.5t15 3.5h110q8 0 13 -1.5t6 -9.5q4 -37 7.5 -91.5t5.5 -118.5t2.5 -128.5t-1 -122.5t-5 -101t-10.5 -62
q-4 -13 -10 -19.5t-30 -14.5q-18 -7 -60 -15.5t-94 -8.5q-39 0 -71.5 8.5t-57.5 25.5q-40 27 -60.5 77t-19.5 124zM185 228q-1 -70 17 -96t46 -26q9 0 17.5 1t16 3t13.5 4q2 2 3 4.5t1 7.5q1 21 2 41.5t1.5 41t1.5 41t1.5 41t0.5 41.5q0 6 -1 8t-5 3q-10 4 -23.5 7.5
t-23.5 3.5t-22 -4.5t-22 -17t-16.5 -37.5t-7.5 -67zM184 545q-10 0 -11.5 3t-1.5 11v75q0 10 2 12.5t12 2.5h292q9 0 11.5 -2t2.5 -12v-80q0 -7 -2 -8.5t-13 -1.5h-292z" />
    <glyph glyph-name="Emacron" unicode="&#x112;" horiz-adv-x="458" 
d="M75 0q-15 0 -15 14v644q0 15 15 15h340q14 0 16.5 -2t2.5 -15v-80q0 -14 -3.5 -16.5t-15.5 -2.5h-194q-7 0 -8 -1t-1 -7v-144q0 -7 1 -8t7 -1h150q15 0 17.5 -3t2.5 -19v-71q0 -15 -3 -18t-17 -3h-150q-5 0 -6.5 -1t-1.5 -6v-150q0 -6 1 -7.5t7 -1.5h192q17 0 19.5 -3.5
t2.5 -18.5v-72q0 -16 -4 -19t-19 -3h-336zM362 735q0 -4 -2 -5t-11 -1h-216q-8 0 -9.5 2t-1.5 7v66q0 7 2 9t9 2h217q8 0 10 -1.5t2 -8.5v-70z" />
    <glyph glyph-name="emacron" unicode="&#x113;" horiz-adv-x="474" 
d="M30 237q0 47 10 90t34 78t66 55t107 20q67 0 107 -18.5t60.5 -49.5t27 -68t6.5 -73q0 -43 -10.5 -58t-31.5 -15h-219q-7 0 -8 -2.5t-1 -9.5q0 -25 13.5 -45.5t37.5 -33t55 -12.5q33 0 61 11.5t38 17.5q14 8 21.5 9.5t16.5 -16.5l24 -47q7 -13 3.5 -18t-15.5 -13
q-35 -25 -85.5 -36t-99.5 -11q-67 0 -109.5 19t-66 53t-33 78.5t-9.5 94.5zM300 295q0 26 -6.5 42.5t-19 24.5t-31.5 8q-16 0 -27.5 -6t-19 -16.5t-12 -23t-6.5 -24.5q-1 -18 0 -21.5t8 -3.5h104q8 0 9.5 3t0.5 17zM370 534q0 -4 -2 -5t-11 -1h-216q-8 0 -9.5 2t-1.5 7v66
q0 7 2 9t9 2h217q8 0 10 -1.5t2 -8.5v-70z" />
    <glyph glyph-name="Edotaccent" unicode="&#x116;" horiz-adv-x="458" 
d="M75 0q-15 0 -15 14v644q0 15 15 15h340q14 0 16.5 -2t2.5 -15v-80q0 -14 -3.5 -16.5t-15.5 -2.5h-194q-7 0 -8 -1t-1 -7v-144q0 -7 1 -8t7 -1h150q15 0 17.5 -3t2.5 -19v-71q0 -15 -3 -18t-17 -3h-150q-5 0 -6.5 -1t-1.5 -6v-150q0 -6 1 -7.5t7 -1.5h192q17 0 19.5 -3.5
t2.5 -18.5v-72q0 -16 -4 -19t-19 -3h-336zM298 772q0 -25 -11 -38.5t-44 -13.5t-45.5 13.5t-12.5 38.5q0 23 12.5 37.5t45.5 14.5q35 0 45 -14.5t10 -37.5z" />
    <glyph glyph-name="edotaccent" unicode="&#x117;" horiz-adv-x="474" 
d="M30 237q0 47 10 90t34 78t66 55t107 20q67 0 107 -18.5t60.5 -49.5t27 -68t6.5 -73q0 -43 -10.5 -58t-31.5 -15h-219q-7 0 -8 -2.5t-1 -9.5q0 -25 13.5 -45.5t37.5 -33t55 -12.5q33 0 61 11.5t38 17.5q14 8 21.5 9.5t16.5 -16.5l24 -47q7 -13 3.5 -18t-15.5 -13
q-35 -25 -85.5 -36t-99.5 -11q-67 0 -109.5 19t-66 53t-33 78.5t-9.5 94.5zM300 295q0 26 -6.5 42.5t-19 24.5t-31.5 8q-16 0 -27.5 -6t-19 -16.5t-12 -23t-6.5 -24.5q-1 -18 0 -21.5t8 -3.5h104q8 0 9.5 3t0.5 17zM306 571q0 -25 -11 -38.5t-44 -13.5t-45.5 13.5
t-12.5 38.5q0 23 12.5 37.5t45.5 14.5q35 0 45 -14.5t10 -37.5z" />
    <glyph glyph-name="Eogonek" unicode="&#x118;" horiz-adv-x="458" 
d="M75 0q-15 0 -15 14v644q0 15 15 15h340q14 0 16.5 -2t2.5 -15v-80q0 -14 -3.5 -16.5t-15.5 -2.5h-194q-7 0 -8 -1t-1 -7v-144q0 -7 1 -8t7 -1h150q15 0 17.5 -3t2.5 -19v-71q0 -15 -3 -18t-17 -3h-150q-5 0 -6.5 -1t-1.5 -6v-150q0 -6 1 -7.5t7 -1.5h192q17 0 19.5 -3.5
t2.5 -18.5v-72q0 -16 -4 -19t-19 -3h-336zM228 -260q-52 0 -88 28t-36 71q0 35 14.5 63t40.5 50.5t60 40.5q11 6 24.5 11t29.5 5h71q8 0 8.5 -4.5t-6.5 -9.5q-61 -38 -91 -63.5t-39 -44t-9 -34.5q0 -20 11.5 -27.5t24.5 -6.5q15 1 37.5 11t39.5 23q6 5 12.5 4.5t6.5 -8.5
v-43q0 -18 -20 -33q-22 -16 -43.5 -24.5t-47.5 -8.5z" />
    <glyph glyph-name="eogonek" unicode="&#x119;" horiz-adv-x="474" 
d="M30 237q0 47 10 90t34 78t66 55t107 20q67 0 107 -18.5t60.5 -49.5t27 -68t6.5 -73q0 -43 -10.5 -58t-31.5 -15h-219q-7 0 -8 -2.5t-1 -9.5q0 -25 13.5 -45.5t37.5 -33t55 -12.5q33 0 61 11.5t38 17.5q14 8 21.5 9.5t16.5 -16.5l24 -47q7 -13 3.5 -18t-15.5 -13
q-35 -25 -85.5 -36t-99.5 -11q-67 0 -109.5 19t-66 53t-33 78.5t-9.5 94.5zM300 295q0 26 -6.5 42.5t-19 24.5t-31.5 8q-16 0 -27.5 -6t-19 -16.5t-12 -23t-6.5 -24.5q-1 -18 0 -21.5t8 -3.5h104q8 0 9.5 3t0.5 17zM204 -260q-52 0 -88 28t-36 71q0 35 14.5 63t40.5 50.5
t60 40.5q11 6 24.5 11t29.5 5h71q8 0 8.5 -4.5t-6.5 -9.5q-61 -38 -91 -63.5t-39 -44t-9 -34.5q0 -20 11.5 -27.5t24.5 -6.5q15 1 37.5 11t39.5 23q6 5 12.5 4.5t6.5 -8.5v-43q0 -18 -20 -33q-22 -16 -43.5 -24.5t-47.5 -8.5z" />
    <glyph glyph-name="Ecaron" unicode="&#x11a;" horiz-adv-x="458" 
d="M75 0q-15 0 -15 14v644q0 15 15 15h340q14 0 16.5 -2t2.5 -15v-80q0 -14 -3.5 -16.5t-15.5 -2.5h-194q-7 0 -8 -1t-1 -7v-144q0 -7 1 -8t7 -1h150q15 0 17.5 -3t2.5 -19v-71q0 -15 -3 -18t-17 -3h-150q-5 0 -6.5 -1t-1.5 -6v-150q0 -6 1 -7.5t7 -1.5h192q17 0 19.5 -3.5
t2.5 -18.5v-72q0 -16 -4 -19t-19 -3h-336zM211 713q-5 0 -8 4l-89 93q-2 3 -1 6t5 3h59q5 0 9 -4l51 -39q5 -5 10 0l51 39q4 4 9 4h59q5 0 5.5 -3t-1.5 -6l-89 -93q-3 -4 -8 -4h-62z" />
    <glyph glyph-name="ecaron" unicode="&#x11b;" horiz-adv-x="474" 
d="M30 237q0 47 10 90t34 78t66 55t107 20q67 0 107 -18.5t60.5 -49.5t27 -68t6.5 -73q0 -43 -10.5 -58t-31.5 -15h-219q-7 0 -8 -2.5t-1 -9.5q0 -25 13.5 -45.5t37.5 -33t55 -12.5q33 0 61 11.5t38 17.5q14 8 21.5 9.5t16.5 -16.5l24 -47q7 -13 3.5 -18t-15.5 -13
q-35 -25 -85.5 -36t-99.5 -11q-67 0 -109.5 19t-66 53t-33 78.5t-9.5 94.5zM300 295q0 26 -6.5 42.5t-19 24.5t-31.5 8q-16 0 -27.5 -6t-19 -16.5t-12 -23t-6.5 -24.5q-1 -18 0 -21.5t8 -3.5h104q8 0 9.5 3t0.5 17zM221 524q-5 0 -8 4l-81 103q-2 3 -1 6t5 3h63q5 0 9 -4
l37 -32q5 -5 10 0l37 32q4 4 9 4h63q5 0 5.5 -3t-1.5 -6l-81 -103q-3 -4 -8 -4h-58z" />
    <glyph glyph-name="Gbreve" unicode="&#x11e;" horiz-adv-x="580" 
d="M530 34q0 -14 -18.5 -23t-49.5 -13t-70 -4q-183 0 -273.5 84.5t-90.5 247.5q0 109 41.5 188t115 121.5t167.5 42.5q43 0 83 -3t62 -11q16 -5 22.5 -8t6.5 -18v-80q0 -22 -9.5 -27t-21.5 2q-25 14 -50.5 21.5t-59.5 7.5q-27 0 -61 -9t-64.5 -33.5t-50.5 -69.5t-20 -118
q0 -75 18.5 -119.5t46 -66.5t56 -29t48.5 -7q21 0 21 14v152q0 5 -1 6t-6 1h-103q-11 0 -14.5 2t-3.5 14v81q0 12 3 15.5t15 3.5h239q17 0 19.5 -3.5t2.5 -20.5v-341zM347 706q-53 0 -82 24t-29 64q0 16 2.5 19t12.5 3h46q10 0 13 -1.5t3 -11.5q0 -13 9.5 -21.5t24.5 -8.5
q14 0 24 8.5t10 21.5q0 10 4 11.5t8 1.5h51q8 0 10.5 -2.5t2.5 -19.5q0 -40 -28 -64t-82 -24z" />
    <glyph glyph-name="gbreve" unicode="&#x11f;" horiz-adv-x="479" 
d="M30 242q0 68 19 121.5t67.5 84t136.5 30.5q40 0 78.5 -6.5t68.5 -17.5q28 -10 33 -21.5t8 -38.5q10 -85 10 -177t-11 -175q-11 -87 -66.5 -128t-150.5 -41q-38 0 -83.5 11t-86.5 41q-4 3 -7.5 11t1.5 16t16 27t16 27q8 14 12.5 15t16.5 -7q9 -7 28.5 -15t40.5 -14t32 -6
q12 0 29 3t31.5 13t17.5 32q0 1 0.5 2t0.5 2q1 7 -1.5 12.5t-12.5 3.5q-5 -1 -16.5 -1.5t-22.5 -0.5q-51 0 -98 20.5t-77 64.5t-30 112zM183 267q0 -33 5.5 -59.5t19 -41.5t38.5 -15q11 0 21.5 1t18.5 5q10 4 11 19q1 17 1 43t-0.5 53.5t-1 49.5t-1.5 32q0 5 -2 12.5t-6 8.5
q-8 4 -16.5 6t-24.5 2q-24 0 -37.5 -15t-19 -41t-6.5 -60zM252 518q-59 0 -91 25t-32 67q0 18 2 22t15 4h53q12 0 15 -2t3 -13q0 -12 10 -20t25 -8t25.5 8t10.5 20q0 10 3.5 12.5t10.5 2.5h58q11 0 13 -4.5t2 -21.5q0 -42 -31.5 -67t-91.5 -25z" />
    <glyph glyph-name="Gdotaccent" unicode="&#x120;" horiz-adv-x="580" 
d="M530 34q0 -14 -18.5 -23t-49.5 -13t-70 -4q-183 0 -273.5 84.5t-90.5 247.5q0 109 41.5 188t115 121.5t167.5 42.5q43 0 83 -3t62 -11q16 -5 22.5 -8t6.5 -18v-80q0 -22 -9.5 -27t-21.5 2q-25 14 -50.5 21.5t-59.5 7.5q-27 0 -61 -9t-64.5 -33.5t-50.5 -69.5t-20 -118
q0 -75 18.5 -119.5t46 -66.5t56 -29t48.5 -7q21 0 21 14v152q0 5 -1 6t-6 1h-103q-11 0 -14.5 2t-3.5 14v81q0 12 3 15.5t15 3.5h239q17 0 19.5 -3.5t2.5 -20.5v-341zM403 772q0 -25 -11 -38.5t-44 -13.5t-45.5 13.5t-12.5 38.5q0 23 12.5 37.5t45.5 14.5q35 0 45 -14.5
t10 -37.5z" />
    <glyph glyph-name="gdotaccent" unicode="&#x121;" horiz-adv-x="479" 
d="M30 242q0 68 19 121.5t67.5 84t136.5 30.5q40 0 78.5 -6.5t68.5 -17.5q28 -10 33 -21.5t8 -38.5q10 -85 10 -177t-11 -175q-11 -87 -66.5 -128t-150.5 -41q-38 0 -83.5 11t-86.5 41q-4 3 -7.5 11t1.5 16t16 27t16 27q8 14 12.5 15t16.5 -7q9 -7 28.5 -15t40.5 -14t32 -6
q12 0 29 3t31.5 13t17.5 32q0 1 0.5 2t0.5 2q1 7 -1.5 12.5t-12.5 3.5q-5 -1 -16.5 -1.5t-22.5 -0.5q-51 0 -98 20.5t-77 64.5t-30 112zM183 267q0 -33 5.5 -59.5t19 -41.5t38.5 -15q11 0 21.5 1t18.5 5q10 4 11 19q1 17 1 43t-0.5 53.5t-1 49.5t-1.5 32q0 5 -2 12.5t-6 8.5
q-8 4 -16.5 6t-24.5 2q-24 0 -37.5 -15t-19 -41t-6.5 -60zM308 571q0 -25 -11 -38.5t-44 -13.5t-45.5 13.5t-12.5 38.5q0 23 12.5 37.5t45.5 14.5q35 0 45 -14.5t10 -37.5z" />
    <glyph glyph-name="uni0122" unicode="&#x122;" horiz-adv-x="580" 
d="M530 34q0 -14 -18.5 -23t-49.5 -13t-70 -4q-183 0 -273.5 84.5t-90.5 247.5q0 109 41.5 188t115 121.5t167.5 42.5q43 0 83 -3t62 -11q16 -5 22.5 -8t6.5 -18v-80q0 -22 -9.5 -27t-21.5 2q-25 14 -50.5 21.5t-59.5 7.5q-27 0 -61 -9t-64.5 -33.5t-50.5 -69.5t-20 -118
q0 -75 18.5 -119.5t46 -66.5t56 -29t48.5 -7q21 0 21 14v152q0 5 -1 6t-6 1h-103q-11 0 -14.5 2t-3.5 14v81q0 12 3 15.5t15 3.5h239q17 0 19.5 -3.5t2.5 -20.5v-341zM347 -88q0 -22 -9 -46.5t-21 -46.5t-21 -35q-5 -7 -13 -7h-25h-24q-8 0 -8 3t4 13q5 11 13 34t15 36
q-20 3 -29.5 19t-9.5 29q0 23 15 39t50 16q26 0 44.5 -10t18.5 -44z" />
    <glyph glyph-name="uni0123" unicode="&#x123;" horiz-adv-x="479" 
d="M30 242q0 68 19 121.5t67.5 84t136.5 30.5q40 0 78.5 -6.5t68.5 -17.5q28 -10 33 -21.5t8 -38.5q10 -85 10 -177t-11 -175q-11 -87 -66.5 -128t-150.5 -41q-38 0 -83.5 11t-86.5 41q-4 3 -7.5 11t1.5 16t16 27t16 27q8 14 12.5 15t16.5 -7q9 -7 28.5 -15t40.5 -14t32 -6
q12 0 29 3t31.5 13t17.5 32q0 1 0.5 2t0.5 2q1 7 -1.5 12.5t-12.5 3.5q-5 -1 -16.5 -1.5t-22.5 -0.5q-51 0 -98 20.5t-77 64.5t-30 112zM183 267q0 -33 5.5 -59.5t19 -41.5t38.5 -15q11 0 21.5 1t18.5 5q10 4 11 19q1 17 1 43t-0.5 53.5t-1 49.5t-1.5 32q0 5 -2 12.5t-6 8.5
q-8 4 -16.5 6t-24.5 2q-24 0 -37.5 -15t-19 -41t-6.5 -60zM183 603q0 25 8.5 54t21.5 55t23 42q5 8 14 8q14 0 27 0.5t26 0.5q8 0 8.5 -3.5t-4.5 -14.5q-3 -7 -8 -24t-10.5 -34.5t-10.5 -28.5q22 -2 32.5 -19t10.5 -33q0 -26 -15.5 -43.5t-53.5 -18.5q-28 -1 -48 10.5
t-21 48.5z" />
    <glyph glyph-name="Hbar" unicode="&#x126;" horiz-adv-x="662" 
d="M37 521q-13 0 -15 1.5t-2 6.5v46q0 6 3 8t15 2h587q11 0 14 -1.5t3 -7.5v-49q0 -4 -2.5 -5t-15.5 -1h-587zM139 0q-7 0 -14.5 2t-8.5 12q-4 36 -7.5 90t-5.5 117.5t-3 129.5q0 60 1.5 117t6 106t11.5 84q1 7 8 11t13 4h60.5h60.5q11 0 9 -15q-3 -23 -6 -62t-6 -86.5
t-5 -97.5q0 -10 1.5 -13t13.5 -3h83h83q8 0 11.5 3t3.5 13q-2 50 -5.5 97.5t-6.5 86.5t-6 62q-1 15 9 15h60.5h60.5q6 0 13 -4t8 -11q8 -35 12 -85t6 -107.5t1 -117.5q0 -65 -2.5 -128.5t-6 -116.5t-7.5 -89q-1 -10 -8 -12t-15 -2h-60.5h-60.5q-8 0 -7 14q3 24 5.5 53t5 62
t4 69t1.5 72q0 8 -2.5 10t-11.5 2h-85.5h-85.5q-9 0 -11 -2t-2 -10q0 -36 1.5 -72t3.5 -69t4.5 -62t5.5 -53q1 -14 -7 -14h-60.5h-60.5z" />
    <glyph glyph-name="hbar" unicode="&#x127;" horiz-adv-x="504" 
d="M80 14v340v340q0 14 16 14h58.5h58.5q14 0 14 -14v-107v-107q0 -9 4.5 -10t8.5 1q5 2 24.5 5t35.5 3q48 0 81 -14t52.5 -42t29.5 -71.5t12 -102.5q2 -43 -0.5 -87.5t-7 -84t-9.5 -66.5q-1 -7 -6 -9t-13 -2h-54h-54q-18 0 -19.5 3.5t2.5 23.5q5 38 8 80t4 83q1 39 0 72
t-7 58t-19.5 38.5t-39.5 13.5q-5 0 -10 -1t-10 -3q-6 -2 -9.5 -7.5t-3.5 -13.5v-333q0 -14 -14 -14h-117q-16 0 -16 14zM28 568q-10 0 -11.5 3t-1.5 11v75q0 10 2 12.5t12 2.5h292q9 0 11.5 -2t2.5 -12v-80q0 -7 -2 -8.5t-13 -1.5h-292z" />
    <glyph glyph-name="Itilde" unicode="&#x128;" horiz-adv-x="271" 
d="M211 14q0 -14 -15 -14h-120q-16 0 -16 14v644q0 15 16 15h120q15 0 15 -15v-644zM25 716q-6 0 -6 6q0 45 19 70.5t56 25.5q17 0 32.5 -9.5t27.5 -19t17 -9.5t8.5 5t3.5 15q0 8 6 8h57q6 0 6 -7q0 -40 -21.5 -67t-55.5 -27q-22 0 -36.5 9t-24 18t-17.5 9q-6 0 -8.5 -4.5
t-2.5 -15.5q0 -7 -6 -7h-55z" />
    <glyph glyph-name="itilde" unicode="&#x129;" horiz-adv-x="226" 
d="M186 14q0 -14 -15 -14h-117q-14 0 -14 14v444q0 14 14 14h117q15 0 15 -14v-444zM2 526q-6 0 -6 6q0 41 19 64t56 23q17 0 32.5 -8t28 -16t18.5 -8q5 0 8.5 3.5t3.5 12.5q0 7 6 7h56q6 0 6 -6q0 -37 -21.5 -61.5t-55.5 -24.5q-22 0 -37 8t-24.5 15.5t-17.5 7.5
q-7 0 -9.5 -3.5t-2.5 -12.5q0 -7 -6 -7h-54z" />
    <glyph glyph-name="Imacron" unicode="&#x12a;" horiz-adv-x="271" 
d="M211 14q0 -14 -15 -14h-120q-16 0 -16 14v644q0 15 16 15h120q15 0 15 -15v-644zM256 735q0 -4 -2 -5t-11 -1h-216q-8 0 -9.5 2t-1.5 7v66q0 7 2 9t9 2h217q8 0 10 -1.5t2 -8.5v-70z" />
    <glyph glyph-name="imacron" unicode="&#x12b;" horiz-adv-x="226" 
d="M186 14q0 -14 -15 -14h-117q-14 0 -14 14v444q0 14 14 14h117q15 0 15 -14v-444zM233 534q0 -4 -2 -5t-11 -1h-216q-8 0 -9.5 2t-1.5 7v66q0 7 2 9t9 2h217q8 0 10 -1.5t2 -8.5v-70z" />
    <glyph glyph-name="Iogonek" unicode="&#x12e;" horiz-adv-x="271" 
d="M211 14q0 -14 -15 -14h-120q-16 0 -16 14v644q0 15 16 15h120q15 0 15 -15v-644zM87 -259q-52 0 -88 28t-36 71q0 35 14.5 63t40.5 50.5t60 40.5q11 6 24.5 11t29.5 5h71q8 0 8.5 -4.5t-6.5 -9.5q-61 -38 -91 -63.5t-39 -44t-9 -34.5q0 -20 11.5 -27.5t24.5 -6.5
q15 1 37.5 11t39.5 23q6 5 12.5 4.5t6.5 -8.5v-43q0 -18 -20 -33q-22 -16 -43.5 -24.5t-47.5 -8.5z" />
    <glyph glyph-name="iogonek" unicode="&#x12f;" horiz-adv-x="226" 
d="M186 14q0 -14 -15 -14h-117q-14 0 -14 14v444q0 14 14 14h117q15 0 15 -14v-444zM169 571q0 -25 -11 -38.5t-44 -13.5t-45.5 13.5t-12.5 38.5q0 23 12.5 37.5t45.5 14.5q35 0 45 -14.5t10 -37.5zM57 -257q-52 0 -88 28t-36 71q0 35 14.5 63t40.5 50.5t60 40.5
q11 6 24.5 11t29.5 5h71q8 0 8.5 -4.5t-6.5 -9.5q-61 -38 -91 -63.5t-39 -44t-9 -34.5q0 -20 11.5 -27.5t24.5 -6.5q15 1 37.5 11t39.5 23q6 5 12.5 4.5t6.5 -8.5v-43q0 -18 -20 -33q-22 -16 -43.5 -24.5t-47.5 -8.5z" />
    <glyph glyph-name="Idotaccent" unicode="&#x130;" horiz-adv-x="271" 
d="M211 14q0 -14 -15 -14h-120q-16 0 -16 14v644q0 15 16 15h120q15 0 15 -15v-644zM192 772q0 -25 -11 -38.5t-44 -13.5t-45.5 13.5t-12.5 38.5q0 23 12.5 37.5t45.5 14.5q35 0 45 -14.5t10 -37.5z" />
    <glyph glyph-name="dotlessi" unicode="&#x131;" horiz-adv-x="226" 
d="M186 14q0 -14 -15 -14h-117q-14 0 -14 14v444q0 14 14 14h117q15 0 15 -14v-444z" />
    <glyph glyph-name="uni0136" unicode="&#x136;" horiz-adv-x="566" 
d="M64 0q-4 0 -4 4v333v332q0 4 4 4h24h48h48h24q4 0 4 -4v-66.5v-53v-53v-66.5q0 -3 0.5 -5.5t2.5 -2.5h2q2 0 5 3.5t5 7.5q20 38 34 64.5t27 48.5t27 48.5t34 64.5q5 9 10 11.5t11 2.5h23.5h46h46h23.5q12 0 10 -8t-13 -31q-29 -46 -53 -87t-46 -84t-45 -96q-4 -9 -5 -16
t-1 -14q0 -19 6 -40t16.5 -41.5t24.5 -39.5t30 -34q20 -20 46 -32.5t63 -12.5q2 0 5 -1t3 -3v-128q0 -5 -3 -5q-69 0 -115.5 10.5t-90.5 44.5q-18 14 -33.5 31.5t-30 38.5t-26.5 45.5t-22 52.5q-3 8 -7 11.5t-5 3.5h-1h-1l-1.5 -1t-1.5 -6v-65v-48.5v-48.5v-65q0 -4 -4 -4
h-24h-48h-48h-24zM358 -88q0 -22 -9 -46.5t-21 -46.5t-21 -35q-5 -7 -13 -7h-25h-24q-8 0 -8 3t4 13q5 11 13 34t15 36q-20 3 -29.5 19t-9.5 29q0 23 15 39t50 16q26 0 44.5 -10t18.5 -44z" />
    <glyph glyph-name="uni0137" unicode="&#x137;" horiz-adv-x="455" 
d="M40 4v670q0 4 4 4h139q4 0 4 -4v-351q0 -2 0.5 -6.5t1.5 -4.5q2 0 4.5 2t3.5 3q7 7 10.5 11.5t9.5 14.5q13 20 22 36.5t17 35t18 43.5q5 11 10.5 12.5t19.5 1.5h118q10 0 10 -6.5t-2 -10.5q-2 -5 -10.5 -24t-22.5 -45.5t-31.5 -55t-38.5 -53.5q-4 -5 -7 -8t-6 -7
q2 -1 6.5 -3t5.5 -4q17 -17 35.5 -46.5t35.5 -63.5t31 -64.5t22.5 -50.5t9.5 -22q4 -8 -3 -8h-23.5h-45.5h-45.5h-23.5q-4 0 -5 0.5t-4 6.5l-7.5 14t-19.5 35.5t-24.5 44.5t-22 41.5t-13.5 25.5q-3 8 -9.5 18t-13 16t-11.5 -1q-2 -3 -2 -16v-181q0 -4 -4 -4h-139q-4 0 -4 4z
M303 -88q0 -22 -9 -46.5t-21 -46.5t-21 -35q-5 -7 -13 -7h-25h-24q-8 0 -8 3t4 13q5 11 13 34t15 36q-20 3 -29.5 19t-9.5 29q0 23 15 39t50 16q26 0 44.5 -10t18.5 -44z" />
    <glyph glyph-name="Lacute" unicode="&#x139;" horiz-adv-x="443" 
d="M76 0q-16 0 -16 14v644q0 15 16 15h116q12 0 15.5 -4t3.5 -15v-529q0 -6 1 -7.5t8 -1.5h192q16 0 18.5 -3.5t2.5 -18.5v-72q0 -16 -3 -19t-19 -3h-335zM137 715h-67q-8 0 -8.5 5.5t6.5 12.5l64 72q7 8 11 11t16 3h105q5 0 8.5 -6t-1.5 -9l-105 -75q-10 -7 -15.5 -10.5
t-13.5 -3.5z" />
    <glyph glyph-name="lacute" unicode="&#x13a;" horiz-adv-x="227" 
d="M40 14v680q0 14 16 14h115q16 0 16 -14v-680q0 -14 -16 -14h-115q-16 0 -16 14zM60 739q-10 0 -10.5 3.5t7.5 14.5l69 95q5 8 23 8h89q7 0 9.5 -3.5t-5.5 -11.5l-93 -99q-5 -6 -9.5 -6.5t-13.5 -0.5h-66z" />
    <glyph glyph-name="uni013B" unicode="&#x13b;" horiz-adv-x="443" 
d="M76 0q-16 0 -16 14v644q0 15 16 15h116q12 0 15.5 -4t3.5 -15v-529q0 -6 1 -7.5t8 -1.5h192q16 0 18.5 -3.5t2.5 -18.5v-72q0 -16 -3 -19t-19 -3h-335zM297 -88q0 -22 -9 -46.5t-21 -46.5t-21 -35q-5 -7 -13 -7h-25h-24q-8 0 -8 3t4 13q5 11 13 34t15 36q-20 3 -29.5 19
t-9.5 29q0 23 15 39t50 16q26 0 44.5 -10t18.5 -44z" />
    <glyph glyph-name="uni013C" unicode="&#x13c;" horiz-adv-x="227" 
d="M40 14v680q0 14 16 14h115q16 0 16 -14v-680q0 -14 -16 -14h-115q-16 0 -16 14zM174 -88q0 -22 -9 -46.5t-21 -46.5t-21 -35q-5 -7 -13 -7h-25h-24q-8 0 -8 3t4 13q5 11 13 34t15 36q-20 3 -29.5 19t-9.5 29q0 23 15 39t50 16q26 0 44.5 -10t18.5 -44z" />
    <glyph glyph-name="Lcaron" unicode="&#x13d;" horiz-adv-x="443" 
d="M76 0q-16 0 -16 14v644q0 15 16 15h116q12 0 15.5 -4t3.5 -15v-529q0 -6 1 -7.5t8 -1.5h192q16 0 18.5 -3.5t2.5 -18.5v-72q0 -16 -3 -19t-19 -3h-335zM352 481q-6 0 -9.5 4.5t-4.5 17.5l-7 148q-1 17 3 21.5t17 4.5h56q16 0 19.5 -4.5t2.5 -14.5l-9 -159
q-1 -11 -4 -14.5t-12 -3.5h-52z" />
    <glyph glyph-name="lcaron" unicode="&#x13e;" horiz-adv-x="227" 
d="M40 14v680q0 14 16 14h115q16 0 16 -14v-680q0 -14 -16 -14h-115q-16 0 -16 14zM273 495q-6 0 -9.5 4.5t-4.5 17.5l-7 148q-1 17 3 21.5t17 4.5h56q16 0 19.5 -4.5t2.5 -14.5l-9 -159q-1 -11 -4 -14.5t-12 -3.5h-52z" />
    <glyph glyph-name="Lslash" unicode="&#x141;" horiz-adv-x="467" 
d="M90 0q-16 0 -16 14v644q0 15 16 15h116q12 0 15.5 -4t3.5 -15v-529q0 -6 1 -7.5t8 -1.5h192q16 0 18.5 -3.5t2.5 -18.5v-72q0 -16 -3 -19t-19 -3h-335zM25 98q-2 -1 -3.5 -0.5l-1.5 0.5l-29 44q-2 2 2 4l296 183q2 1 4 -1l29 -43q2 -2 -1 -4z" />
    <glyph glyph-name="lslash" unicode="&#x142;" horiz-adv-x="320" 
d="M93 14v680q0 14 16 14h115q16 0 16 -14v-680q0 -14 -16 -14h-115q-16 0 -16 14zM43 104q-2 -1 -3.5 -0.5l-1.5 0.5l-27 47q-2 2 2 4l265 162q2 1 4 -1l27 -46q2 -2 -1 -4z" />
    <glyph glyph-name="Nacute" unicode="&#x143;" horiz-adv-x="642" 
d="M422 315q3 -4 8.5 -4t5.5 6q0 29 -1 59.5t-2 63.5t-3 68.5t-5 72.5t-8 77q-1 15 7 15h123q7 0 13.5 -4t7.5 -11q8 -37 12.5 -89.5t6 -113.5t0.5 -124t-3.5 -123t-6 -110t-7.5 -84q-1 -10 -7.5 -12t-14.5 -2h-77q-8 0 -19 18l-236 346q-1 4 -5 4t-4 -5q0 -57 1 -102.5
t2 -82t3 -65.5t4 -53.5t5 -45.5q1 -14 -8 -14h-120q-7 0 -14.5 2t-8.5 12q-4 34 -7 84t-5.5 110t-3 123t1 124t5.5 113.5t12 89.5q2 7 8.5 11t12.5 4h73q10 0 15 -10zM317 715h-67q-8 0 -8.5 5.5t6.5 12.5l64 72q7 8 11 11t16 3h105q5 0 8.5 -6t-1.5 -9l-105 -75
q-10 -7 -15.5 -10.5t-13.5 -3.5z" />
    <glyph glyph-name="nacute" unicode="&#x144;" horiz-adv-x="464" 
d="M57 0q-17 0 -17 15v205.5v205.5q0 12 8 17t31 13q12 4 38 9.5t56 10t54 4.5q85 0 130 -31.5t62 -83t17 -113.5q0 -35 -1.5 -73.5t-4.5 -77t-7 -73.5q-2 -21 -6.5 -24.5t-20.5 -3.5h-94q-16 0 -21.5 4t-4.5 17q0 4 2 32t4 66.5t3.5 74.5t1.5 56q0 51 -8 75.5t-22 32
t-34 7.5h-11.5t-8.5 -1q-10 -1 -13.5 -8t-3.5 -24v-90.5v-110.5v-116q0 -15 -12 -15h-117zM184 524q-10 0 -10.5 3.5t7.5 14.5l69 95q5 8 23 8h89q7 0 9.5 -3.5t-5.5 -11.5l-93 -99q-5 -6 -9.5 -6.5t-13.5 -0.5h-66z" />
    <glyph glyph-name="uni0145" unicode="&#x145;" horiz-adv-x="642" 
d="M422 315q3 -4 8.5 -4t5.5 6q0 29 -1 59.5t-2 63.5t-3 68.5t-5 72.5t-8 77q-1 15 7 15h123q7 0 13.5 -4t7.5 -11q8 -37 12.5 -89.5t6 -113.5t0.5 -124t-3.5 -123t-6 -110t-7.5 -84q-1 -10 -7.5 -12t-14.5 -2h-77q-8 0 -19 18l-236 346q-1 4 -5 4t-4 -5q0 -57 1 -102.5
t2 -82t3 -65.5t4 -53.5t5 -45.5q1 -14 -8 -14h-120q-7 0 -14.5 2t-8.5 12q-4 34 -7 84t-5.5 110t-3 123t1 124t5.5 113.5t12 89.5q2 7 8.5 11t12.5 4h73q10 0 15 -10zM381 -88q0 -22 -9 -46.5t-21 -46.5t-21 -35q-5 -7 -13 -7h-25h-24q-8 0 -8 3t4 13q5 11 13 34t15 36
q-20 3 -29.5 19t-9.5 29q0 23 15 39t50 16q26 0 44.5 -10t18.5 -44z" />
    <glyph glyph-name="uni0146" unicode="&#x146;" horiz-adv-x="464" 
d="M57 0q-17 0 -17 15v205.5v205.5q0 12 8 17t31 13q12 4 38 9.5t56 10t54 4.5q85 0 130 -31.5t62 -83t17 -113.5q0 -35 -1.5 -73.5t-4.5 -77t-7 -73.5q-2 -21 -6.5 -24.5t-20.5 -3.5h-94q-16 0 -21.5 4t-4.5 17q0 4 2 32t4 66.5t3.5 74.5t1.5 56q0 51 -8 75.5t-22 32
t-34 7.5h-11.5t-8.5 -1q-10 -1 -13.5 -8t-3.5 -24v-90.5v-110.5v-116q0 -15 -12 -15h-117zM298 -88q0 -22 -9 -46.5t-21 -46.5t-21 -35q-5 -7 -13 -7h-25h-24q-8 0 -8 3t4 13q5 11 13 34t15 36q-20 3 -29.5 19t-9.5 29q0 23 15 39t50 16q26 0 44.5 -10t18.5 -44z" />
    <glyph glyph-name="Ncaron" unicode="&#x147;" horiz-adv-x="642" 
d="M422 315q3 -4 8.5 -4t5.5 6q0 29 -1 59.5t-2 63.5t-3 68.5t-5 72.5t-8 77q-1 15 7 15h123q7 0 13.5 -4t7.5 -11q8 -37 12.5 -89.5t6 -113.5t0.5 -124t-3.5 -123t-6 -110t-7.5 -84q-1 -10 -7.5 -12t-14.5 -2h-77q-8 0 -19 18l-236 346q-1 4 -5 4t-4 -5q0 -57 1 -102.5
t2 -82t3 -65.5t4 -53.5t5 -45.5q1 -14 -8 -14h-120q-7 0 -14.5 2t-8.5 12q-4 34 -7 84t-5.5 110t-3 123t1 124t5.5 113.5t12 89.5q2 7 8.5 11t12.5 4h73q10 0 15 -10zM281 713q-5 0 -8 4l-89 93q-2 3 -1 6t5 3h59q5 0 9 -4l51 -39q5 -5 10 0l51 39q4 4 9 4h59q5 0 5.5 -3
t-1.5 -6l-89 -93q-3 -4 -8 -4h-62z" />
    <glyph glyph-name="ncaron" unicode="&#x148;" horiz-adv-x="464" 
d="M57 0q-17 0 -17 15v205.5v205.5q0 12 8 17t31 13q12 4 38 9.5t56 10t54 4.5q85 0 130 -31.5t62 -83t17 -113.5q0 -35 -1.5 -73.5t-4.5 -77t-7 -73.5q-2 -21 -6.5 -24.5t-20.5 -3.5h-94q-16 0 -21.5 4t-4.5 17q0 4 2 32t4 66.5t3.5 74.5t1.5 56q0 51 -8 75.5t-22 32
t-34 7.5h-11.5t-8.5 -1q-10 -1 -13.5 -8t-3.5 -24v-90.5v-110.5v-116q0 -15 -12 -15h-117zM209 524q-5 0 -8 4l-81 103q-2 3 -1 6t5 3h63q5 0 9 -4l37 -32q5 -5 10 0l37 32q4 4 9 4h63q5 0 5.5 -3t-1.5 -6l-81 -103q-3 -4 -8 -4h-58z" />
    <glyph glyph-name="Eng" unicode="&#x14a;" horiz-adv-x="591" 
d="M543 658q7 -34 11.5 -88t6 -125t0.5 -154t-4.5 -175t-9.5 -189q-3 -53 -20 -91t-52.5 -58.5t-93.5 -20.5q-28 0 -55 5.5t-45 17.5q-17 11 -19.5 16.5t3.5 15.5l29 49q5 8 10.5 7t12.5 -5q9 -5 17 -7t15 -1q16 2 33 20.5t19 51.5l9 117l-219 320q-1 4 -5 4t-4 -5
q0 -57 1 -102.5t2 -82t3 -65.5t4 -53.5t5 -45.5q1 -14 -8 -14h-120q-7 0 -14.5 2t-8.5 12q-4 34 -7 84t-5.5 110t-3 123t1 124t5.5 113.5t12 89.5q2 7 8.5 11t12.5 4h73q10 0 15 -10l239 -348q3 -4 8.5 -4t5.5 6q0 29 -1 59.5t-2 63.5t-3 68.5t-5 72.5t-8 77q-1 15 7 15h123
q7 0 13.5 -4t7.5 -11z" />
    <glyph glyph-name="eng" unicode="&#x14b;" horiz-adv-x="476" 
d="M57 0q-4 0 -10.5 2.5t-6.5 12.5v203.5v203.5q0 12 8 17t31 13q12 4 38 9.5t56 10t54 4.5q85 0 130 -31t62 -82.5t17 -112.5q0 -52 -3.5 -111.5t-9.5 -110.5q-2 -21 -6.5 -24.5t-20.5 -3.5h-47h-47q-16 0 -21 2.5t-5 18.5q0 3 1 26t3 55.5t3.5 64.5t2.5 55t1 26
q1 51 -7 75.5t-22.5 32t-34.5 7.5h-12.5t-11 -1t-7.5 -4q-4 -4 -5 -17.5t-1 -39.5v-123v-158q0 -6 -1 -13t-9 -7h-59.5h-59.5zM427 67l-6 -79q-6 -79 -42.5 -124.5t-123.5 -45.5q-28 0 -55 5t-46 18q-16 11 -18.5 16.5t3.5 15.5l29 49q5 8 10.5 7t12.5 -5q9 -5 17 -7t15 -1
q16 2 32.5 20.5t18.5 51.5l5 79h148z" />
    <glyph glyph-name="Omacron" unicode="&#x14c;" horiz-adv-x="641" 
d="M38 334q0 109 24 186t85.5 117.5t172.5 40.5q86 0 141.5 -23t86.5 -67t43 -108t12 -146t-12 -145.5t-43 -107.5t-86.5 -67t-141.5 -23q-111 0 -172.5 40.5t-85.5 117t-24 185.5zM195 334q0 -88 13 -135.5t40 -66t70 -18.5t71 18t42.5 66t14.5 136q0 89 -14.5 137
t-42.5 67t-71 19t-70 -19t-40 -67t-13 -137zM441 735q0 -4 -2 -5t-11 -1h-216q-8 0 -9.5 2t-1.5 7v66q0 7 2 9t9 2h217q8 0 10 -1.5t2 -8.5v-70z" />
    <glyph glyph-name="omacron" unicode="&#x14d;" horiz-adv-x="506" 
d="M253 -8q-89 0 -137.5 32.5t-67 88.5t-18.5 126q0 69 21 123.5t69.5 86t132.5 31.5t132.5 -31.5t69.5 -86t21 -123.5t-18.5 -125t-67 -89t-137.5 -33zM251 103q41 0 57.5 34.5t16.5 97.5q0 62 -18 94t-56 32q-37 0 -55 -32t-18 -94q0 -64 16.5 -98t56.5 -34zM374 534
q0 -4 -2 -5t-11 -1h-216q-8 0 -9.5 2t-1.5 7v66q0 7 2 9t9 2h217q8 0 10 -1.5t2 -8.5v-70z" />
    <glyph glyph-name="Ohungarumlaut" unicode="&#x150;" horiz-adv-x="641" 
d="M38 334q0 109 24 186t85.5 117.5t172.5 40.5q86 0 141.5 -23t86.5 -67t43 -108t12 -146t-12 -145.5t-43 -107.5t-86.5 -67t-141.5 -23q-111 0 -172.5 40.5t-85.5 117t-24 185.5zM195 334q0 -88 13 -135.5t40 -66t70 -18.5t71 18t42.5 66t14.5 136q0 89 -14.5 137
t-42.5 67t-71 19t-70 -19t-40 -67t-13 -137zM293 721q-3 -4 -6.5 -5.5t-16.5 -1.5h-40q-19 0 -9 16l63 103q5 8 23 8h71q7 0 10 -5t-2 -10zM418 721q-3 -3 -6.5 -5t-16.5 -2h-40q-8 0 -10.5 4.5t1.5 11.5l70 103q3 5 7.5 6.5t14.5 1.5h72q6 0 9 -5t-2 -10z" />
    <glyph glyph-name="ohungarumlaut" unicode="&#x151;" horiz-adv-x="506" 
d="M253 -8q-89 0 -137.5 32.5t-67 88.5t-18.5 126q0 69 21 123.5t69.5 86t132.5 31.5t132.5 -31.5t69.5 -86t21 -123.5t-18.5 -125t-67 -89t-137.5 -33zM251 103q41 0 57.5 34.5t16.5 97.5q0 62 -18 94t-56 32q-37 0 -55 -32t-18 -94q0 -64 16.5 -98t56.5 -34zM234 531
q-2 -4 -6 -5.5t-17 -1.5h-41q-15 0 -9 16l41 119q2 8 23 8h73q7 0 9.5 -4.5t-1.5 -10.5zM362 531q-2 -4 -6 -5.5t-17 -1.5h-41q-15 0 -9 16l47 119q3 8 23 8h73q7 0 9.5 -4.5t-1.5 -10.5z" />
    <glyph glyph-name="OE" unicode="&#x152;" horiz-adv-x="858" 
d="M320 -9q-111 0 -172.5 40.5t-85.5 117t-24 185.5t24 186t85.5 117.5t172.5 40.5q42 0 77.5 -6t63.5 -17v1.5v1.5q0 15 14 15h170h170q14 0 16.5 -2t2.5 -15v-40v-40q0 -14 -2.5 -16.5t-16.5 -2.5h-96.5h-96.5q-7 0 -8.5 -1t-1.5 -7v-72v-72q0 -7 1 -8t7 -1h75.5h74.5
q15 0 17.5 -3t2.5 -19v-35.5v-35.5q0 -15 -3 -18t-17 -3h-74.5h-75.5q-5 0 -6.5 -1t-1.5 -6v-74.5v-75.5q0 -6 1 -7.5t7 -1.5h96.5h96.5q16 0 18.5 -3.5t2.5 -18.5v-36v-36q0 -16 -3 -19t-19 -3h-168.5h-168.5q-14 0 -14 8v2.5v2.5q-28 -10 -63.5 -16t-77.5 -6zM318 114
q43 0 71 18t42.5 66t14.5 136v16q-1 82 -16 127t-43 62.5t-69 17.5q-43 0 -70 -19t-40 -67t-13 -137q0 -88 13 -135.5t40 -66t70 -18.5z" />
    <glyph glyph-name="oe" unicode="&#x153;" horiz-adv-x="770" 
d="M253 -8q-89 0 -137.5 32.5t-67 88.5t-18.5 126q0 69 21 123.5t69.5 86t132.5 31.5q72 0 114 -33t60.5 -87.5t18.5 -120.5q0 -48 -9 -92.5t-30.5 -79t-59 -55t-94.5 -20.5zM251 103q28 0 44 15.5t23 45t7 71.5q0 62 -18 94t-56 32q-37 0 -55 -32t-18 -94q0 -64 16.5 -98
t56.5 -34zM346 237q0 47 8.5 90t30 78t59 55t94.5 20q67 0 107 -18.5t60.5 -49.5t27 -68t6.5 -73q0 -43 -10.5 -58t-31.5 -15h-217q-7 0 -8 -2.5t-1 -9.5q4 -37 31 -64t73 -27q35 0 64.5 11t39.5 17q14 8 21.5 9.5t16.5 -16.5l24 -47q7 -13 3.5 -18t-15.5 -13
q-35 -25 -87.5 -35.5t-102.5 -10.5q-79 0 -120.5 33.5t-57 89t-15.5 122.5zM591 295q0 26 -6.5 42.5t-19 24.5t-31.5 8q-16 0 -27.5 -6t-19 -16.5t-12 -23t-6.5 -24.5q-1 -16 0 -20.5t5 -4.5h54.5h54.5q7 0 8 3.5t0 16.5z" />
    <glyph glyph-name="Racute" unicode="&#x154;" horiz-adv-x="560" 
d="M75 0q-15 0 -15 14v644q0 15 15 15h177q79 0 128.5 -21t73 -67.5t23.5 -124.5q0 -50 -17.5 -96.5t-54.5 -79.5q-15 -15 -22.5 -27.5t5.5 -32.5q9 -14 17.5 -27t18.5 -23t23 -18q14 -9 33.5 -14t46.5 -5q11 0 13 -2.5t2 -14.5v-107q0 -6 -2.5 -8.5t-14 -3.5t-39.5 -1
q-42 0 -77.5 12t-64.5 33q-24 18 -44.5 42t-36.5 52.5t-28 60.5q-1 2 -4.5 12t-7.5 10h-6q-5 0 -5 -16v-192q0 -14 -16 -14h-121zM212 350q0 -5 1.5 -6.5t6.5 -1.5h27q38 0 60 32.5t22 84.5q0 46 -10.5 69.5t-29 32t-43.5 8.5h-27q-4 0 -5.5 -1t-1.5 -8v-210zM257 715h-67
q-8 0 -8.5 5.5t6.5 12.5l64 72q7 8 11 11t16 3h105q5 0 8.5 -6t-1.5 -9l-105 -75q-10 -7 -15.5 -10.5t-13.5 -3.5z" />
    <glyph glyph-name="racute" unicode="&#x155;" horiz-adv-x="341" 
d="M204 476q81 0 133 -24q11 -5 12.5 -9.5t-0.5 -11.5l-20 -71q-2 -9 -5.5 -10.5t-13.5 1.5q-17 5 -38 7.5t-30 2.5q-16 0 -24.5 -1t-12.5 -2.5t-7 -3.5q-4 -3 -8 -6.5t-4 -17.5v-306q0 -16 -4.5 -20t-15.5 -4h-112q-5 0 -9.5 3.5t-4.5 16.5v397q0 16 3.5 20.5t14.5 9.5
q30 14 72 21.5t74 7.5zM131 524q-10 0 -10.5 3.5t7.5 14.5l69 95q5 8 23 8h89q7 0 9.5 -3.5t-5.5 -11.5l-93 -99q-5 -6 -9.5 -6.5t-13.5 -0.5h-66z" />
    <glyph glyph-name="uni0156" unicode="&#x156;" horiz-adv-x="560" 
d="M75 0q-15 0 -15 14v644q0 15 15 15h177q79 0 128.5 -21t73 -67.5t23.5 -124.5q0 -50 -17.5 -96.5t-54.5 -79.5q-15 -15 -22.5 -27.5t5.5 -32.5q9 -14 17.5 -27t18.5 -23t23 -18q14 -9 33.5 -14t46.5 -5q11 0 13 -2.5t2 -14.5v-107q0 -6 -2.5 -8.5t-14 -3.5t-39.5 -1
q-42 0 -77.5 12t-64.5 33q-24 18 -44.5 42t-36.5 52.5t-28 60.5q-1 2 -4.5 12t-7.5 10h-6q-5 0 -5 -16v-192q0 -14 -16 -14h-121zM212 350q0 -5 1.5 -6.5t6.5 -1.5h27q38 0 60 32.5t22 84.5q0 46 -10.5 69.5t-29 32t-43.5 8.5h-27q-4 0 -5.5 -1t-1.5 -8v-210zM338 -88
q0 -22 -9 -46.5t-21 -46.5t-21 -35q-5 -7 -13 -7h-25h-24q-8 0 -8 3t4 13q5 11 13 34t15 36q-20 3 -29.5 19t-9.5 29q0 23 15 39t50 16q26 0 44.5 -10t18.5 -44z" />
    <glyph glyph-name="uni0157" unicode="&#x157;" horiz-adv-x="341" 
d="M204 476q81 0 133 -24q11 -5 12.5 -9.5t-0.5 -11.5l-20 -71q-2 -9 -5.5 -10.5t-13.5 1.5q-17 5 -38 7.5t-30 2.5q-16 0 -24.5 -1t-12.5 -2.5t-7 -3.5q-4 -3 -8 -6.5t-4 -17.5v-306q0 -16 -4.5 -20t-15.5 -4h-112q-5 0 -9.5 3.5t-4.5 16.5v397q0 16 3.5 20.5t14.5 9.5
q30 14 72 21.5t74 7.5zM171 -88q0 -22 -9 -46.5t-21 -46.5t-21 -35q-5 -7 -13 -7h-25h-24q-8 0 -8 3t4 13q5 11 13 34t15 36q-20 3 -29.5 19t-9.5 29q0 23 15 39t50 16q26 0 44.5 -10t18.5 -44z" />
    <glyph glyph-name="Rcaron" unicode="&#x158;" horiz-adv-x="560" 
d="M75 0q-15 0 -15 14v644q0 15 15 15h177q79 0 128.5 -21t73 -67.5t23.5 -124.5q0 -50 -17.5 -96.5t-54.5 -79.5q-15 -15 -22.5 -27.5t5.5 -32.5q9 -14 17.5 -27t18.5 -23t23 -18q14 -9 33.5 -14t46.5 -5q11 0 13 -2.5t2 -14.5v-107q0 -6 -2.5 -8.5t-14 -3.5t-39.5 -1
q-42 0 -77.5 12t-64.5 33q-24 18 -44.5 42t-36.5 52.5t-28 60.5q-1 2 -4.5 12t-7.5 10h-6q-5 0 -5 -16v-192q0 -14 -16 -14h-121zM212 350q0 -5 1.5 -6.5t6.5 -1.5h27q38 0 60 32.5t22 84.5q0 46 -10.5 69.5t-29 32t-43.5 8.5h-27q-4 0 -5.5 -1t-1.5 -8v-210zM221 713
q-5 0 -8 4l-89 93q-2 3 -1 6t5 3h59q5 0 9 -4l51 -39q5 -5 10 0l51 39q4 4 9 4h59q5 0 5.5 -3t-1.5 -6l-89 -93q-3 -4 -8 -4h-62z" />
    <glyph glyph-name="rcaron" unicode="&#x159;" horiz-adv-x="341" 
d="M204 476q81 0 133 -24q11 -5 12.5 -9.5t-0.5 -11.5l-20 -71q-2 -9 -5.5 -10.5t-13.5 1.5q-17 5 -38 7.5t-30 2.5q-16 0 -24.5 -1t-12.5 -2.5t-7 -3.5q-4 -3 -8 -6.5t-4 -17.5v-306q0 -16 -4.5 -20t-15.5 -4h-112q-5 0 -9.5 3.5t-4.5 16.5v397q0 16 3.5 20.5t14.5 9.5
q30 14 72 21.5t74 7.5zM156 524q-5 0 -8 4l-81 103q-2 3 -1 6t5 3h63q5 0 9 -4l37 -32q5 -5 10 0l37 32q4 4 9 4h63q5 0 5.5 -3t-1.5 -6l-81 -103q-3 -4 -8 -4h-58z" />
    <glyph glyph-name="Sacute" unicode="&#x15a;" horiz-adv-x="495" 
d="M45 40v93q0 8 5 8.5t18 -4.5q20 -6 47.5 -11.5t54 -8.5t42.5 -3q47 0 71.5 26t24.5 57q0 33 -26.5 55.5t-66.5 33.5q-24 6 -55.5 17t-61.5 32t-50 57t-20 92q0 70 32.5 112.5t84.5 62t110 19.5q21 0 48 -4.5t54.5 -12t47.5 -16.5q9 -2 11 -6t2 -11v-86q0 -31 -37 -10
q-20 13 -49.5 22.5t-64.5 9.5q-39 0 -62.5 -20.5t-23.5 -45.5q0 -30 18 -48t46 -28t57.5 -17t52.5 -16q37 -13 61.5 -35t37.5 -57t13 -87q0 -76 -33 -124t-90.5 -71t-129.5 -23q-31 0 -70.5 6t-71.5 17q-16 5 -21.5 10t-5.5 15zM243 715h-67q-8 0 -8.5 5.5t6.5 12.5l64 72
q7 8 11 11t16 3h105q5 0 8.5 -6t-1.5 -9l-105 -75q-10 -7 -15.5 -10.5t-13.5 -3.5z" />
    <glyph glyph-name="sacute" unicode="&#x15b;" horiz-adv-x="415" 
d="M41 127q3 13 10.5 11t14.5 -6q17 -8 39.5 -14t46 -9.5t42.5 -3.5q18 0 31.5 3t22 10t8.5 18q1 17 -17.5 27.5t-65.5 21.5q-31 8 -64.5 22t-56 42t-22.5 75q0 52 26.5 85.5t68.5 50.5t90 17q37 0 82.5 -11.5t75.5 -28.5q11 -6 11.5 -10.5t-2.5 -12.5l-27 -73
q-3 -14 -21 -7q-23 12 -54.5 23.5t-64.5 11.5q-16 0 -30 -7.5t-14 -21.5q0 -18 17.5 -26t51.5 -17q26 -7 52 -14.5t48.5 -22t36 -39.5t13.5 -66q0 -46 -17.5 -76.5t-46.5 -49t-63 -26.5t-67 -8q-19 0 -49 4t-60.5 13.5t-52.5 24.5q-4 3 -7 7t-2 10zM154 524q-10 0 -10.5 3.5
t7.5 14.5l69 95q5 8 23 8h89q7 0 9.5 -3.5t-5.5 -11.5l-93 -99q-5 -6 -9.5 -6.5t-13.5 -0.5h-66z" />
    <glyph glyph-name="Scedilla" unicode="&#x15e;" horiz-adv-x="495" 
d="M45 40v93q0 8 5 8.5t18 -4.5q20 -6 47.5 -11.5t54 -8.5t42.5 -3q47 0 71.5 26t24.5 57q0 33 -26.5 55.5t-66.5 33.5q-24 6 -55.5 17t-61.5 32t-50 57t-20 92q0 70 32.5 112.5t84.5 62t110 19.5q21 0 48 -4.5t54.5 -12t47.5 -16.5q9 -2 11 -6t2 -11v-86q0 -31 -37 -10
q-20 13 -49.5 22.5t-64.5 9.5q-39 0 -62.5 -20.5t-23.5 -45.5q0 -30 18 -48t46 -28t57.5 -17t52.5 -16q37 -13 61.5 -35t37.5 -57t13 -87q0 -76 -33 -124t-90.5 -71t-129.5 -23q-31 0 -70.5 6t-71.5 17q-16 5 -21.5 10t-5.5 15zM310 -88q0 -22 -9 -46.5t-21 -46.5t-21 -35
q-5 -7 -13 -7h-25h-24q-8 0 -8 3t4 13q5 11 13 34t15 36q-20 3 -29.5 19t-9.5 29q0 23 15 39t50 16q26 0 44.5 -10t18.5 -44z" />
    <glyph glyph-name="scedilla" unicode="&#x15f;" horiz-adv-x="415" 
d="M41 127q3 13 10.5 11t14.5 -6q17 -8 39.5 -14t46 -9.5t42.5 -3.5q18 0 31.5 3t22 10t8.5 18q1 17 -17.5 27.5t-65.5 21.5q-31 8 -64.5 22t-56 42t-22.5 75q0 52 26.5 85.5t68.5 50.5t90 17q37 0 82.5 -11.5t75.5 -28.5q11 -6 11.5 -10.5t-2.5 -12.5l-27 -73
q-3 -14 -21 -7q-23 12 -54.5 23.5t-64.5 11.5q-16 0 -30 -7.5t-14 -21.5q0 -18 17.5 -26t51.5 -17q26 -7 52 -14.5t48.5 -22t36 -39.5t13.5 -66q0 -46 -17.5 -76.5t-46.5 -49t-63 -26.5t-67 -8q-19 0 -49 4t-60.5 13.5t-52.5 24.5q-4 3 -7 7t-2 10zM268 -88q0 -22 -9 -46.5
t-21 -46.5t-21 -35q-5 -7 -13 -7h-25h-24q-8 0 -8 3t4 13q5 11 13 34t15 36q-20 3 -29.5 19t-9.5 29q0 23 15 39t50 16q26 0 44.5 -10t18.5 -44z" />
    <glyph glyph-name="Scaron" unicode="&#x160;" horiz-adv-x="495" 
d="M45 40v93q0 8 5 8.5t18 -4.5q20 -6 47.5 -11.5t54 -8.5t42.5 -3q47 0 71.5 26t24.5 57q0 33 -26.5 55.5t-66.5 33.5q-24 6 -55.5 17t-61.5 32t-50 57t-20 92q0 70 32.5 112.5t84.5 62t110 19.5q21 0 48 -4.5t54.5 -12t47.5 -16.5q9 -2 11 -6t2 -11v-86q0 -31 -37 -10
q-20 13 -49.5 22.5t-64.5 9.5q-39 0 -62.5 -20.5t-23.5 -45.5q0 -30 18 -48t46 -28t57.5 -17t52.5 -16q37 -13 61.5 -35t37.5 -57t13 -87q0 -76 -33 -124t-90.5 -71t-129.5 -23q-31 0 -70.5 6t-71.5 17q-16 5 -21.5 10t-5.5 15zM207 713q-5 0 -8 4l-89 93q-2 3 -1 6t5 3h59
q5 0 9 -4l51 -39q5 -5 10 0l51 39q4 4 9 4h59q5 0 5.5 -3t-1.5 -6l-89 -93q-3 -4 -8 -4h-62z" />
    <glyph glyph-name="scaron" unicode="&#x161;" horiz-adv-x="415" 
d="M41 127q3 13 10.5 11t14.5 -6q17 -8 39.5 -14t46 -9.5t42.5 -3.5q18 0 31.5 3t22 10t8.5 18q1 17 -17.5 27.5t-65.5 21.5q-31 8 -64.5 22t-56 42t-22.5 75q0 52 26.5 85.5t68.5 50.5t90 17q37 0 82.5 -11.5t75.5 -28.5q11 -6 11.5 -10.5t-2.5 -12.5l-27 -73
q-3 -14 -21 -7q-23 12 -54.5 23.5t-64.5 11.5q-16 0 -30 -7.5t-14 -21.5q0 -18 17.5 -26t51.5 -17q26 -7 52 -14.5t48.5 -22t36 -39.5t13.5 -66q0 -46 -17.5 -76.5t-46.5 -49t-63 -26.5t-67 -8q-19 0 -49 4t-60.5 13.5t-52.5 24.5q-4 3 -7 7t-2 10zM179 524q-5 0 -8 4
l-81 103q-2 3 -1 6t5 3h63q5 0 9 -4l37 -32q5 -5 10 0l37 32q4 4 9 4h63q5 0 5.5 -3t-1.5 -6l-81 -103q-3 -4 -8 -4h-58z" />
    <glyph glyph-name="uni0162" unicode="&#x162;" horiz-adv-x="463" 
d="M170 0q-5 0 -10 4t-5 10v536q0 5 -1 6t-6 1h-114q-13 0 -15.5 2.5t-2.5 11.5v89q0 8 2.5 10.5t13.5 2.5h397q12 0 15 -2.5t3 -10.5v-89q0 -9 -3 -11.5t-16 -2.5h-114q-6 0 -7 -1t-1 -6v-536q0 -14 -14 -14h-122zM292 -88q0 -22 -9 -46.5t-21 -46.5t-21 -35q-5 -7 -13 -7
h-25h-24q-8 0 -8 3t4 13q5 11 13 34t15 36q-20 3 -29.5 19t-9.5 29q0 23 15 39t50 16q26 0 44.5 -10t18.5 -44z" />
    <glyph glyph-name="uni0163" unicode="&#x163;" horiz-adv-x="368" 
d="M235 0q-70 0 -104.5 29t-45.5 81q-8 42 -9 85.5t-1 86.5q0 28 0.5 47t1.5 44q0 10 -9 10h-38q-9 0 -12 2t-3 14v56q0 14 3 15.5t15 1.5h39q8 0 9 4.5t2 14.5l4 71q0 14 14 14h114q6 0 11.5 -4t4.5 -10l-5 -72q-1 -13 0.5 -15.5t7.5 -2.5h73q12 0 14 -2.5t2 -16.5v-53
q0 -11 -3.5 -14t-14.5 -3h-72q-7 0 -9.5 -3.5t-2.5 -11.5q-1 -23 -1.5 -47.5t-1.5 -50.5q0 -33 2 -66.5t9 -63.5q5 -16 14.5 -22.5t21.5 -6.5q11 0 21.5 3.5l16.5 5.5q13 8 16.5 5t7.5 -14l20 -69q4 -8 -3 -14t-27 -14q-12 -4 -25.5 -7.5t-27.5 -5t-29 -1.5zM265 -78
q0 -22 -9 -46.5t-21 -46.5t-21 -35q-5 -7 -13 -7h-25h-24q-8 0 -8 3t4 13q5 11 13 34t15 36q-20 3 -29.5 19t-9.5 29q0 23 15 39t50 16q26 0 44.5 -10t18.5 -44z" />
    <glyph glyph-name="Tcaron" unicode="&#x164;" horiz-adv-x="463" 
d="M170 0q-5 0 -10 4t-5 10v536q0 5 -1 6t-6 1h-114q-13 0 -15.5 2.5t-2.5 11.5v89q0 8 2.5 10.5t13.5 2.5h397q12 0 15 -2.5t3 -10.5v-89q0 -9 -3 -11.5t-16 -2.5h-114q-6 0 -7 -1t-1 -6v-536q0 -14 -14 -14h-122zM201 713q-5 0 -8 4l-89 93q-2 3 -1 6t5 3h59q5 0 9 -4
l51 -39q5 -5 10 0l51 39q4 4 9 4h59q5 0 5.5 -3t-1.5 -6l-89 -93q-3 -4 -8 -4h-62z" />
    <glyph glyph-name="tcaron" unicode="&#x165;" horiz-adv-x="368" 
d="M235 0q-70 0 -104.5 29t-45.5 81q-8 42 -9 85.5t-1 86.5q0 28 0.5 47t1.5 44q0 10 -9 10h-38q-9 0 -12 2t-3 14v56q0 14 3 15.5t15 1.5h39q8 0 9 4.5t2 14.5l4 71q0 14 14 14h114q6 0 11.5 -4t4.5 -10l-5 -72q-1 -13 0.5 -15.5t7.5 -2.5h73q12 0 14 -2.5t2 -16.5v-53
q0 -11 -3.5 -14t-14.5 -3h-72q-7 0 -9.5 -3.5t-2.5 -11.5q-1 -23 -1.5 -47.5t-1.5 -50.5q0 -33 2 -66.5t9 -63.5q5 -16 14.5 -22.5t21.5 -6.5q11 0 21.5 3.5l16.5 5.5q13 8 16.5 5t7.5 -14l20 -69q4 -8 -3 -14t-27 -14q-12 -4 -25.5 -7.5t-27.5 -5t-29 -1.5zM394 381
q-6 0 -9.5 4.5t-4.5 17.5l-7 148q-1 17 3 21.5t17 4.5h56q16 0 19.5 -4.5t2.5 -14.5l-9 -159q-1 -11 -4 -14.5t-12 -3.5h-52z" />
    <glyph glyph-name="Tbar" unicode="&#x166;" horiz-adv-x="471" 
d="M170 0q-5 0 -10 4t-5 10v536q0 5 -1 6t-6 1h-114q-13 0 -15.5 2.5t-2.5 11.5v89q0 8 2.5 10.5t13.5 2.5h397q12 0 15 -2.5t3 -10.5v-89q0 -9 -3 -11.5t-16 -2.5h-114q-6 0 -7 -1t-1 -6v-536q0 -14 -14 -14h-122zM82 329q-10 0 -11.5 3t-1.5 11v75q0 10 2 12.5t12 2.5h292
q9 0 11.5 -2t2.5 -12v-80q0 -7 -2 -8.5t-13 -1.5h-292z" />
    <glyph glyph-name="tbar" unicode="&#x167;" horiz-adv-x="368" 
d="M34 257q-7 0 -8.5 2t-1.5 8v53q0 7 2 9t9 2h221q7 0 9 -1.5t2 -8.5v-57q0 -5 -2 -6t-9 -1h-222zM235 0q-70 0 -104.5 29t-45.5 81q-8 42 -9 85.5t-1 86.5q0 28 0.5 47t1.5 44q0 10 -9 10h-38q-9 0 -12 2t-3 14v56q0 14 3 15.5t15 1.5h39q8 0 9 4.5t2 14.5l4 71
q0 14 14 14h114q6 0 11.5 -4t4.5 -10l-5 -72q-1 -13 0.5 -15.5t7.5 -2.5h73q12 0 14 -2.5t2 -16.5v-53q0 -11 -3.5 -14t-14.5 -3h-72q-7 0 -9.5 -3.5t-2.5 -11.5q-1 -23 -1.5 -47.5t-1.5 -50.5q0 -33 2 -66.5t9 -63.5q5 -16 14.5 -22.5t21.5 -6.5q11 0 21.5 3.5l16.5 5.5
q13 8 16.5 5t7.5 -14l20 -69q4 -8 -3 -14t-27 -14q-12 -4 -25.5 -7.5t-27.5 -5t-29 -1.5z" />
    <glyph glyph-name="Utilde" unicode="&#x168;" horiz-adv-x="635" 
d="M317 -9q-87 0 -137.5 20t-76 50.5t-34 62t-11.5 55.5q-4 38 -6 80.5t-2 74.5q0 46 2 103.5t6.5 116t13.5 108.5q1 7 6.5 9t13.5 2h55.5h55.5q11 0 12 -3.5t-1 -24.5q-4 -40 -6.5 -81t-4.5 -83q-4 -74 -4 -142t6 -136q2 -32 11.5 -51t24.5 -29t34 -13.5t39 -3.5
q21 0 39.5 3.5t34 13.5t25 29.5t12.5 50.5q5 68 4.5 136t-3.5 142q-1 42 -4.5 83t-6.5 81q-1 21 -0.5 24.5t12.5 3.5h58h58q9 0 14 -2t6 -9q9 -50 14 -108.5t6.5 -116t1.5 -103.5q0 -32 -1 -74.5t-6 -80.5q-2 -19 -8 -43.5t-20.5 -50t-42.5 -47t-74 -34.5t-116 -13zM207 716
q-6 0 -6 6q0 45 19 70.5t56 25.5q17 0 32.5 -9.5t27.5 -19t17 -9.5t8.5 5t3.5 15q0 8 6 8h57q6 0 6 -7q0 -40 -21.5 -67t-55.5 -27q-22 0 -36.5 9t-24 18t-17.5 9q-6 0 -8.5 -4.5t-2.5 -15.5q0 -7 -6 -7h-55z" />
    <glyph glyph-name="utilde" unicode="&#x169;" horiz-adv-x="471" 
d="M245 -4q-84 0 -129.5 31t-63 82.5t-17.5 112.5q0 35 1.5 73t5 76.5t7.5 72.5q2 21 6.5 24.5t20.5 3.5h94q15 0 22 -0.5t4 -20.5q0 -4 -1.5 -29t-3.5 -61.5t-3 -74.5t-1 -68q0 -59 14 -84t48 -25q4 0 10.5 0.5t12.5 1.5t10 4.5t4 9.5v327q0 6 1 13t8 7h120q4 0 10 -2
t6 -13v-407q0 -12 -7.5 -17t-30.5 -13q-12 -4 -38 -9.5t-55.5 -10t-54.5 -4.5zM132 526q-6 0 -6 6q0 41 19 64t56 23q17 0 32.5 -8t28 -16t18.5 -8q5 0 8.5 3.5t3.5 12.5q0 7 6 7h56q6 0 6 -6q0 -37 -21.5 -61.5t-55.5 -24.5q-22 0 -37 8t-24.5 15.5t-17.5 7.5
q-7 0 -9.5 -3.5t-2.5 -12.5q0 -7 -6 -7h-54z" />
    <glyph glyph-name="Umacron" unicode="&#x16a;" horiz-adv-x="635" 
d="M317 -9q-87 0 -137.5 20t-76 50.5t-34 62t-11.5 55.5q-4 38 -6 80.5t-2 74.5q0 46 2 103.5t6.5 116t13.5 108.5q1 7 6.5 9t13.5 2h55.5h55.5q11 0 12 -3.5t-1 -24.5q-4 -40 -6.5 -81t-4.5 -83q-4 -74 -4 -142t6 -136q2 -32 11.5 -51t24.5 -29t34 -13.5t39 -3.5
q21 0 39.5 3.5t34 13.5t25 29.5t12.5 50.5q5 68 4.5 136t-3.5 142q-1 42 -4.5 83t-6.5 81q-1 21 -0.5 24.5t12.5 3.5h58h58q9 0 14 -2t6 -9q9 -50 14 -108.5t6.5 -116t1.5 -103.5q0 -32 -1 -74.5t-6 -80.5q-2 -19 -8 -43.5t-20.5 -50t-42.5 -47t-74 -34.5t-116 -13zM438 735
q0 -4 -2 -5t-11 -1h-216q-8 0 -9.5 2t-1.5 7v66q0 7 2 9t9 2h217q8 0 10 -1.5t2 -8.5v-70z" />
    <glyph glyph-name="umacron" unicode="&#x16b;" horiz-adv-x="471" 
d="M245 -4q-84 0 -129.5 31t-63 82.5t-17.5 112.5q0 35 1.5 73t5 76.5t7.5 72.5q2 21 6.5 24.5t20.5 3.5h94q15 0 22 -0.5t4 -20.5q0 -4 -1.5 -29t-3.5 -61.5t-3 -74.5t-1 -68q0 -59 14 -84t48 -25q4 0 10.5 0.5t12.5 1.5t10 4.5t4 9.5v327q0 6 1 13t8 7h120q4 0 10 -2
t6 -13v-407q0 -12 -7.5 -17t-30.5 -13q-12 -4 -38 -9.5t-55.5 -10t-54.5 -4.5zM363 534q0 -4 -2 -5t-11 -1h-216q-8 0 -9.5 2t-1.5 7v66q0 7 2 9t9 2h217q8 0 10 -1.5t2 -8.5v-70z" />
    <glyph glyph-name="Uring" unicode="&#x16e;" horiz-adv-x="635" 
d="M317 -9q-87 0 -137.5 20t-76 50.5t-34 62t-11.5 55.5q-4 38 -6 80.5t-2 74.5q0 46 2 103.5t6.5 116t13.5 108.5q1 7 6.5 9t13.5 2h55.5h55.5q11 0 12 -3.5t-1 -24.5q-4 -40 -6.5 -81t-4.5 -83q-4 -74 -4 -142t6 -136q2 -32 11.5 -51t24.5 -29t34 -13.5t39 -3.5
q21 0 39.5 3.5t34 13.5t25 29.5t12.5 50.5q5 68 4.5 136t-3.5 142q-1 42 -4.5 83t-6.5 81q-1 21 -0.5 24.5t12.5 3.5h58h58q9 0 14 -2t6 -9q9 -50 14 -108.5t6.5 -116t1.5 -103.5q0 -32 -1 -74.5t-6 -80.5q-2 -19 -8 -43.5t-20.5 -50t-42.5 -47t-74 -34.5t-116 -13zM415 802
q0 -43 -22.5 -69t-73.5 -26q-55 0 -77 26t-22 69q0 42 22 67.5t77 25.5q52 0 74 -25.5t22 -67.5zM356 804q0 12 -7.5 19.5t-29.5 7.5q-24 0 -30 -7.5t-6 -19.5q0 -10 6 -20.5t30 -10.5q25 0 31 10.5t6 20.5z" />
    <glyph glyph-name="uring" unicode="&#x16f;" horiz-adv-x="471" 
d="M245 -4q-84 0 -129.5 31t-63 82.5t-17.5 112.5q0 35 1.5 73t5 76.5t7.5 72.5q2 21 6.5 24.5t20.5 3.5h94q15 0 22 -0.5t4 -20.5q0 -4 -1.5 -29t-3.5 -61.5t-3 -74.5t-1 -68q0 -59 14 -84t48 -25q4 0 10.5 0.5t12.5 1.5t10 4.5t4 9.5v327q0 6 1 13t8 7h120q4 0 10 -2
t6 -13v-407q0 -12 -7.5 -17t-30.5 -13q-12 -4 -38 -9.5t-55.5 -10t-54.5 -4.5zM340 601q0 -43 -22.5 -69t-73.5 -26q-55 0 -77 26t-22 69q0 42 22 67.5t77 25.5q52 0 74 -25.5t22 -67.5zM281 603q0 12 -7.5 19.5t-29.5 7.5q-24 0 -30 -7.5t-6 -19.5q0 -10 6 -20.5t30 -10.5
q25 0 31 10.5t6 20.5z" />
    <glyph glyph-name="Uhungarumlaut" unicode="&#x170;" horiz-adv-x="635" 
d="M317 -9q-87 0 -137.5 20t-76 50.5t-34 62t-11.5 55.5q-4 38 -6 80.5t-2 74.5q0 46 2 103.5t6.5 116t13.5 108.5q1 7 6.5 9t13.5 2h55.5h55.5q11 0 12 -3.5t-1 -24.5q-4 -40 -6.5 -81t-4.5 -83q-4 -74 -4 -142t6 -136q2 -32 11.5 -51t24.5 -29t34 -13.5t39 -3.5
q21 0 39.5 3.5t34 13.5t25 29.5t12.5 50.5q5 68 4.5 136t-3.5 142q-1 42 -4.5 83t-6.5 81q-1 21 -0.5 24.5t12.5 3.5h58h58q9 0 14 -2t6 -9q9 -50 14 -108.5t6.5 -116t1.5 -103.5q0 -32 -1 -74.5t-6 -80.5q-2 -19 -8 -43.5t-20.5 -50t-42.5 -47t-74 -34.5t-116 -13zM290 721
q-3 -4 -6.5 -5.5t-16.5 -1.5h-40q-19 0 -9 16l63 103q5 8 23 8h71q7 0 10 -5t-2 -10zM415 721q-3 -3 -6.5 -5t-16.5 -2h-40q-8 0 -10.5 4.5t1.5 11.5l70 103q3 5 7.5 6.5t14.5 1.5h72q6 0 9 -5t-2 -10z" />
    <glyph glyph-name="uhungarumlaut" unicode="&#x171;" horiz-adv-x="471" 
d="M245 -4q-84 0 -129.5 31t-63 82.5t-17.5 112.5q0 35 1.5 73t5 76.5t7.5 72.5q2 21 6.5 24.5t20.5 3.5h94q15 0 22 -0.5t4 -20.5q0 -4 -1.5 -29t-3.5 -61.5t-3 -74.5t-1 -68q0 -59 14 -84t48 -25q4 0 10.5 0.5t12.5 1.5t10 4.5t4 9.5v327q0 6 1 13t8 7h120q4 0 10 -2
t6 -13v-407q0 -12 -7.5 -17t-30.5 -13q-12 -4 -38 -9.5t-55.5 -10t-54.5 -4.5zM223 531q-2 -4 -6 -5.5t-17 -1.5h-41q-15 0 -9 16l41 119q2 8 23 8h73q7 0 9.5 -4.5t-1.5 -10.5zM351 531q-2 -4 -6 -5.5t-17 -1.5h-41q-15 0 -9 16l47 119q3 8 23 8h73q7 0 9.5 -4.5
t-1.5 -10.5z" />
    <glyph glyph-name="Uogonek" unicode="&#x172;" horiz-adv-x="635" 
d="M317 -9q-87 0 -137.5 20t-76 50.5t-34 62t-11.5 55.5q-4 38 -6 80.5t-2 74.5q0 46 2 103.5t6.5 116t13.5 108.5q1 7 6.5 9t13.5 2h55.5h55.5q11 0 12 -3.5t-1 -24.5q-4 -40 -6.5 -81t-4.5 -83q-4 -74 -4 -142t6 -136q2 -32 11.5 -51t24.5 -29t34 -13.5t39 -3.5
q21 0 39.5 3.5t34 13.5t25 29.5t12.5 50.5q5 68 4.5 136t-3.5 142q-1 42 -4.5 83t-6.5 81q-1 21 -0.5 24.5t12.5 3.5h58h58q9 0 14 -2t6 -9q9 -50 14 -108.5t6.5 -116t1.5 -103.5q0 -32 -1 -74.5t-6 -80.5q-2 -19 -8 -43.5t-20.5 -50t-42.5 -47t-74 -34.5t-116 -13z
M277 -260q-52 0 -88 28t-36 71q0 35 14.5 63t40.5 50.5t60 40.5q11 6 24.5 11t29.5 5h71q8 0 8.5 -4.5t-6.5 -9.5q-61 -38 -91 -63.5t-39 -44t-9 -34.5q0 -20 11.5 -27.5t24.5 -6.5q15 1 37.5 11t39.5 23q6 5 12.5 4.5t6.5 -8.5v-43q0 -18 -20 -33q-22 -16 -43.5 -24.5
t-47.5 -8.5z" />
    <glyph glyph-name="uogonek" unicode="&#x173;" horiz-adv-x="471" 
d="M245 -4q-84 0 -129.5 31t-63 82.5t-17.5 112.5q0 35 1.5 73t5 76.5t7.5 72.5q2 21 6.5 24.5t20.5 3.5h94q15 0 22 -0.5t4 -20.5q0 -4 -1.5 -29t-3.5 -61.5t-3 -74.5t-1 -68q0 -59 14 -84t48 -25q4 0 10.5 0.5t12.5 1.5t10 4.5t4 9.5v327q0 6 1 13t8 7h120q4 0 10 -2
t6 -13v-407q0 -12 -7.5 -17t-30.5 -13q-12 -4 -38 -9.5t-55.5 -10t-54.5 -4.5zM233 -246q-52 0 -88 28t-36 71q0 35 14.5 63t40.5 50.5t60 40.5q11 6 24.5 11t29.5 5h71q8 0 8.5 -4.5t-6.5 -9.5q-61 -38 -91 -63.5t-39 -44t-9 -34.5q0 -20 11.5 -27.5t24.5 -6.5
q15 1 37.5 11t39.5 23q6 5 12.5 4.5t6.5 -8.5v-43q0 -18 -20 -33q-22 -16 -43.5 -24.5t-47.5 -8.5z" />
    <glyph glyph-name="Wcircumflex" unicode="&#x174;" horiz-adv-x="866" 
d="M240 0q-21 0 -32 21q-22 41 -45.5 101.5t-45.5 131.5t-41.5 143.5t-33.5 138.5t-21 116q-1 9 1 15t12 6h17h39h40.5h21.5q9 0 13 -3t5 -14q4 -27 13.5 -72t31.5 -133q16 -63 26.5 -105.5t17.5 -69.5t13 -44q2 -6 3.5 -8t2.5 -2q2 0 1.5 0t0.5 0q2 0 3.5 3.5t2.5 7.5
q4 12 10.5 29.5t14 38.5t14.5 44t13 45.5t9 43.5q5 32 7 70t2.5 72.5t1 56t0.5 19.5q-1 9 0.5 15t12.5 6h20.5h39h39h20.5q8 0 11.5 -3t3.5 -14q1 -41 4 -83.5t7 -74.5t5 -45q6 -50 19.5 -103t34.5 -112q4 -10 5.5 -13t2.5 -3q2 0 1.5 0t0.5 0q2 0 4 6l9 27t21 69t29 109
q12 44 19 71.5t12 48.5t9.5 43.5t10.5 55.5q2 14 6 17.5t12 3.5h20.5h39h39h20.5q18 0 12 -24q-10 -43 -25.5 -106t-34.5 -136.5t-39.5 -146t-42.5 -135.5t-44 -104q-1 -4 -7.5 -12.5t-17.5 -8.5h-28.5h-41h-29.5q-8 0 -15 9.5t-9 11.5q-11 22 -23.5 48.5t-24 57.5t-23.5 64
q-4 14 -9 19.5t-13 -18.5q-17 -51 -26.5 -78.5t-15 -42t-10 -24.5t-12.5 -26q-4 -10 -12 -15.5t-13 -5.5h-28.5h-39.5h-24zM311 713q-4 0 -5 3t1 6l84 90q6 7 11 7h64q6 0 12 -6l85 -91q2 -3 1.5 -6t-5.5 -3h-59q-8 0 -12 2t-10 6l-37 28q-6 5 -12 0l-39 -30
q-4 -3 -7.5 -4.5t-9.5 -1.5h-62z" />
    <glyph glyph-name="wcircumflex" unicode="&#x175;" horiz-adv-x="657" 
d="M156 18q-27 53 -50 109.5t-41.5 112t-31.5 105t-20 87.5q-3 17 -2.5 28.5t11.5 11.5h123q15 0 18 -15q6 -30 12.5 -61.5t13.5 -62t13 -57t11 -47t8 -31.5q2 -8 4.5 -6.5t3.5 3.5q5 11 9.5 28t8 36.5t5.5 38t2 31.5q0 19 -0.5 37.5t-0.5 34.5t-0.5 30t-0.5 24q0 16 15 16
h128q6 0 10 -3.5t4 -11.5q0 -29 1 -67t5 -74q2 -15 4 -29.5t4.5 -28t5.5 -25t6 -21t6 -17.5q6 -13 9 0q4 15 9 36t11 46.5t12 55t12 60t11 61.5q3 19 24 19h105q11 0 12 -10t-1 -25q-7 -46 -22.5 -106.5t-36 -122t-42 -112.5t-41.5 -78q-6 -9 -10 -13.5t-10 -4.5h-75
q-7 0 -10.5 2.5t-8.5 9.5t-14.5 25t-19 38.5t-15.5 36.5q-10 26 -19 0q0 -2 -5 -12t-10.5 -21.5t-8.5 -17.5q-7 -13 -15.5 -28.5t-11.5 -20.5q-3 -4 -8 -8t-13 -4h-70q-11 0 -13.5 2.5t-9.5 15.5zM215 524q-4 0 -5 3t1 6l81 103q3 4 8 4h58q5 0 8 -4l81 -103q2 -3 1.5 -6
t-5.5 -3h-63q-5 0 -9 4l-37 32q-5 5 -10 0l-37 -32q-4 -4 -9 -4h-63z" />
    <glyph glyph-name="Ycircumflex" unicode="&#x176;" horiz-adv-x="553" 
d="M363 275q-6 -8 -8.5 -22.5t-2.5 -25.5v-213q0 -6 -4.5 -10t-9.5 -4h-123q-15 0 -15 14v213q0 27 -15 54.5t-25 43.5q-3 6 -14.5 25t-25.5 42t-25.5 42.5t-14.5 25.5q-27 52 -42.5 91t-22 63.5t-8.5 30.5q-4 17 4 22.5t19 5.5h118q15 0 19 -14q10 -34 19.5 -60t18.5 -45.5
l15 -32.5q14 -27 24.5 -46.5t20.5 -35.5q7 -11 11 -12t11 12q3 6 7.5 12t10 15.5t12.5 23.5q8 15 20.5 41.5t26 60.5t21.5 69q2 8 6 10t14 2h123q8 0 14.5 -5.5t3.5 -22.5q-1 -6 -7.5 -32.5t-22 -68t-43.5 -93.5q-6 -13 -19.5 -35.5t-30 -49.5t-32.5 -51t-28 -40zM153 713
q-4 0 -5 3t1 6l84 90q6 7 11 7h64q6 0 12 -6l85 -91q2 -3 1.5 -6t-5.5 -3h-59q-8 0 -12 2t-10 6l-37 28q-6 5 -12 0l-39 -30q-4 -3 -7.5 -4.5t-9.5 -1.5h-62z" />
    <glyph glyph-name="ycircumflex" unicode="&#x177;" horiz-adv-x="430" 
d="M113 118q-18 39 -33 79.5t-27.5 82.5t-22 84.5t-17.5 85.5q-4 22 13 22h115q12 0 17 -6.5t7 -23.5q2 -11 5 -30.5t7.5 -43.5t10 -50.5t12 -52.5t12.5 -49q4 -7 8 -7t5 8q8 29 15 58t14 58.5t13 59t12 59.5q2 11 6 15.5t16 4.5h98q11 0 17 -4t3 -20q-7 -41 -16 -78
t-21 -76t-29 -88q-10 -28 -25 -69t-37.5 -85t-54 -82t-73.5 -62t-97 -24q-30 0 -50.5 4t-34.5 11q-23 12 -12 33l28 53q5 10 9.5 10t12.5 -2q14 -4 30.5 -2.5t30.5 8.5q18 8 28.5 18.5t14.5 21.5q8 19 3.5 39.5t-13.5 39.5zM108 524q-4 0 -5 3t1 6l81 103q3 4 8 4h58
q5 0 8 -4l81 -103q2 -3 1.5 -6t-5.5 -3h-63q-5 0 -9 4l-37 32q-5 5 -10 0l-37 -32q-4 -4 -9 -4h-63z" />
    <glyph glyph-name="Ydieresis" unicode="&#x178;" horiz-adv-x="553" 
d="M363 275q-6 -8 -8.5 -22.5t-2.5 -25.5v-213q0 -6 -4.5 -10t-9.5 -4h-123q-15 0 -15 14v213q0 27 -15 54.5t-25 43.5q-3 6 -14.5 25t-25.5 42t-25.5 42.5t-14.5 25.5q-27 52 -42.5 91t-22 63.5t-8.5 30.5q-4 17 4 22.5t19 5.5h118q15 0 19 -14q10 -34 19.5 -60t18.5 -45.5
l15 -32.5q14 -27 24.5 -46.5t20.5 -35.5q7 -11 11 -12t11 12q3 6 7.5 12t10 15.5t12.5 23.5q8 15 20.5 41.5t26 60.5t21.5 69q2 8 6 10t14 2h123q8 0 14.5 -5.5t3.5 -22.5q-1 -6 -7.5 -32.5t-22 -68t-43.5 -93.5q-6 -13 -19.5 -35.5t-30 -49.5t-32.5 -51t-28 -40zM253 775
q0 -25 -13 -38.5t-48 -13.5q-31 0 -45 13.5t-14 38.5t14 38.5t45 13.5q35 0 48 -13.5t13 -38.5zM421 775q0 -25 -12.5 -38.5t-47.5 -13.5q-32 0 -46 13.5t-14 38.5t14 38.5t46 13.5q35 0 47.5 -13.5t12.5 -38.5z" />
    <glyph glyph-name="Zacute" unicode="&#x179;" horiz-adv-x="485" 
d="M438 673q7 0 9.5 -2t2.5 -13v-57q0 -21 -19.5 -50.5t-48.5 -64.5q-21 -26 -43 -58t-44 -68.5t-43 -76.5t-39.5 -82t-34.5 -85h278q13 0 16 -3t3 -12v-88q0 -9 -3 -11t-15 -2h-406q-25 0 -31 15t-3 42q4 36 16 77.5t30.5 86t41.5 90t48.5 89t53 83.5t53.5 74h-215
q-14 0 -17 3t-3 10v90q0 8 3 10.5t16 2.5h394zM251 715h-67q-8 0 -8.5 5.5t6.5 12.5l64 72q7 8 11 11t16 3h105q5 0 8.5 -6t-1.5 -9l-105 -75q-10 -7 -15.5 -10.5t-13.5 -3.5z" />
    <glyph glyph-name="zacute" unicode="&#x17a;" horiz-adv-x="393" 
d="M26 41q5 50 26 98t50 94q19 30 40 59t43 56q2 3 3 6t-7 6h-119q-9 0 -12 2t-3 13v80q0 14 3 15.5t15 1.5h287q13 0 14.5 -4.5t1.5 -15.5v-70q0 -7 -3.5 -15.5t-17.5 -18.5q-13 -8 -29 -24t-32.5 -36.5t-33.5 -43.5q-21 -29 -39.5 -60t-31.5 -59q-1 -4 0.5 -8.5t11.5 -4.5
h162q10 0 11.5 -3.5t1.5 -15.5v-79q0 -10 -4.5 -12t-17.5 -2h-302q-12 0 -16 6t-2 35zM143 524q-10 0 -10.5 3.5t7.5 14.5l69 95q5 8 23 8h89q7 0 9.5 -3.5t-5.5 -11.5l-93 -99q-5 -6 -9.5 -6.5t-13.5 -0.5h-66z" />
    <glyph glyph-name="Zdotaccent" unicode="&#x17b;" horiz-adv-x="485" 
d="M438 673q7 0 9.5 -2t2.5 -13v-57q0 -21 -19.5 -50.5t-48.5 -64.5q-21 -26 -43 -58t-44 -68.5t-43 -76.5t-39.5 -82t-34.5 -85h278q13 0 16 -3t3 -12v-88q0 -9 -3 -11t-15 -2h-406q-25 0 -31 15t-3 42q4 36 16 77.5t30.5 86t41.5 90t48.5 89t53 83.5t53.5 74h-215
q-14 0 -17 3t-3 10v90q0 8 3 10.5t16 2.5h394zM302 772q0 -25 -11 -38.5t-44 -13.5t-45.5 13.5t-12.5 38.5q0 23 12.5 37.5t45.5 14.5q35 0 45 -14.5t10 -37.5z" />
    <glyph glyph-name="zdotaccent" unicode="&#x17c;" horiz-adv-x="393" 
d="M26 41q5 50 26 98t50 94q19 30 40 59t43 56q2 3 3 6t-7 6h-119q-9 0 -12 2t-3 13v80q0 14 3 15.5t15 1.5h287q13 0 14.5 -4.5t1.5 -15.5v-70q0 -7 -3.5 -15.5t-17.5 -18.5q-13 -8 -29 -24t-32.5 -36.5t-33.5 -43.5q-21 -29 -39.5 -60t-31.5 -59q-1 -4 0.5 -8.5t11.5 -4.5
h162q10 0 11.5 -3.5t1.5 -15.5v-79q0 -10 -4.5 -12t-17.5 -2h-302q-12 0 -16 6t-2 35zM253 571q0 -25 -11 -38.5t-44 -13.5t-45.5 13.5t-12.5 38.5q0 23 12.5 37.5t45.5 14.5q35 0 45 -14.5t10 -37.5z" />
    <glyph glyph-name="Zcaron" unicode="&#x17d;" horiz-adv-x="485" 
d="M438 673q7 0 9.5 -2t2.5 -13v-57q0 -21 -19.5 -50.5t-48.5 -64.5q-21 -26 -43 -58t-44 -68.5t-43 -76.5t-39.5 -82t-34.5 -85h278q13 0 16 -3t3 -12v-88q0 -9 -3 -11t-15 -2h-406q-25 0 -31 15t-3 42q4 36 16 77.5t30.5 86t41.5 90t48.5 89t53 83.5t53.5 74h-215
q-14 0 -17 3t-3 10v90q0 8 3 10.5t16 2.5h394zM215 713q-5 0 -8 4l-89 93q-2 3 -1 6t5 3h59q5 0 9 -4l51 -39q5 -5 10 0l51 39q4 4 9 4h59q5 0 5.5 -3t-1.5 -6l-89 -93q-3 -4 -8 -4h-62z" />
    <glyph glyph-name="zcaron" unicode="&#x17e;" horiz-adv-x="393" 
d="M26 41q5 50 26 98t50 94q19 30 40 59t43 56q2 3 3 6t-7 6h-119q-9 0 -12 2t-3 13v80q0 14 3 15.5t15 1.5h287q13 0 14.5 -4.5t1.5 -15.5v-70q0 -7 -3.5 -15.5t-17.5 -18.5q-13 -8 -29 -24t-32.5 -36.5t-33.5 -43.5q-21 -29 -39.5 -60t-31.5 -59q-1 -4 0.5 -8.5t11.5 -4.5
h162q10 0 11.5 -3.5t1.5 -15.5v-79q0 -10 -4.5 -12t-17.5 -2h-302q-12 0 -16 6t-2 35zM168 524q-5 0 -8 4l-81 103q-2 3 -1 6t5 3h63q5 0 9 -4l37 -32q5 -5 10 0l37 32q4 4 9 4h63q5 0 5.5 -3t-1.5 -6l-81 -103q-3 -4 -8 -4h-58z" />
    <glyph glyph-name="florin" unicode="&#x192;" horiz-adv-x="603" 
d="M123 -109q-11 0 -32 0.5t-43.5 4t-38.5 10.5q-5 2 -4 6q0 2 2.5 14t5 27.5t5 27.5t3.5 14t2.5 4.5t7.5 0.5q35 -7 60.5 -4.5t44 15.5t30 35.5t18.5 54.5q18 85 32.5 152t22.5 110l0.5 1t0.5 2h-41h-41q-2 0 -2.5 2l-0.5 2q1 3 3.5 17t6.5 32t6.5 32t3.5 17l1 2t3 2h41h41
q1 2 1 4t1 4q4 19 8 37.5t8 37.5q11 50 49 85t89.5 53.5t101.5 18.5q17 0 36 -3t30 -8q7 -3 8 -5t0 -6l-16 -80q-1 -4 -1.5 -7t-4.5 -2q-16 6 -28.5 8t-28.5 2q-34 0 -58 -18t-38 -70q-3 -14 -4.5 -19.5t-2.5 -11.5t-4 -20h4.5h4.5h45h36.5h45.5q6 0 4 -4q-1 -3 -4 -17
t-6.5 -32t-6 -32t-3.5 -17l-1.5 -2t-3.5 -2h-47.5h-38.5h-48q-3 0 -3 -3q-9 -46 -16 -77.5t-13.5 -59t-13.5 -59t-16 -77.5q-10 -48 -34 -93.5t-65.5 -75.5t-103.5 -30z" />
    <glyph glyph-name="Ohorn" unicode="&#x1a0;" horiz-adv-x="641" 
d="M38 334q0 109 24 186t85.5 117.5t172.5 40.5q86 0 141.5 -23t86.5 -67t43 -108t12 -146t-12 -145.5t-43 -107.5t-86.5 -67t-141.5 -23q-111 0 -172.5 40.5t-85.5 117t-24 185.5zM195 334q0 -88 13 -135.5t40 -66t70 -18.5t71 18t42.5 66t14.5 136q0 89 -14.5 137
t-42.5 67t-71 19t-70 -19t-40 -67t-13 -137zM529 763q6 2 8 -6q2 -10 2.5 -19t0.5 -17q0 -46 -20 -74t-53 -40.5t-72 -14.5q-7 0 -7 7v67q0 7 7 7q20 1 38 11t18 41q0 4 -0.5 8.5t-1.5 8.5q0 7 6 8z" />
    <glyph glyph-name="ohorn" unicode="&#x1a1;" horiz-adv-x="506" 
d="M253 -8q-89 0 -137.5 32.5t-67 88.5t-18.5 126q0 69 21 123.5t69.5 86t132.5 31.5t132.5 -31.5t69.5 -86t21 -123.5t-18.5 -125t-67 -89t-137.5 -33zM251 103q41 0 57.5 34.5t16.5 97.5q0 62 -18 94t-56 32q-37 0 -55 -32t-18 -94q0 -64 16.5 -98t56.5 -34zM459 562
q6 2 8 -6q2 -10 2.5 -19t0.5 -17q0 -46 -20 -74t-53 -40.5t-72 -14.5q-7 0 -7 7v67q0 7 7 7q20 1 38 11t18 41q0 4 -0.5 8.5t-1.5 8.5q0 7 6 8z" />
    <glyph glyph-name="Uhorn" unicode="&#x1af;" horiz-adv-x="635" 
d="M317 -9q-87 0 -137.5 20t-76 50.5t-34 62t-11.5 55.5q-4 38 -6 80.5t-2 74.5q0 46 2 103.5t6.5 116t13.5 108.5q1 7 6.5 9t13.5 2h55.5h55.5q11 0 12 -3.5t-1 -24.5q-4 -40 -6.5 -81t-4.5 -83q-4 -74 -4 -142t6 -136q2 -32 11.5 -51t24.5 -29t34 -13.5t39 -3.5
q21 0 39.5 3.5t34 13.5t25 29.5t12.5 50.5q5 68 4.5 136t-3.5 142q-1 42 -4.5 83t-6.5 81q-1 21 -0.5 24.5t12.5 3.5h58h58q9 0 14 -2t6 -9q9 -50 14 -108.5t6.5 -116t1.5 -103.5q0 -32 -1 -74.5t-6 -80.5q-2 -19 -8 -43.5t-20.5 -50t-42.5 -47t-74 -34.5t-116 -13zM625 763
q6 2 8 -6q2 -10 2.5 -19t0.5 -17q0 -46 -20 -74t-53 -40.5t-72 -14.5q-7 0 -7 7v67q0 7 7 7q20 1 38 11t18 41q0 4 -0.5 8.5t-1.5 8.5q0 7 6 8z" />
    <glyph glyph-name="uhorn" unicode="&#x1b0;" horiz-adv-x="471" 
d="M245 -4q-84 0 -129.5 31t-63 82.5t-17.5 112.5q0 35 1.5 73t5 76.5t7.5 72.5q2 21 6.5 24.5t20.5 3.5h94q15 0 22 -0.5t4 -20.5q0 -4 -1.5 -29t-3.5 -61.5t-3 -74.5t-1 -68q0 -59 14 -84t48 -25q4 0 10.5 0.5t12.5 1.5t10 4.5t4 9.5v327q0 6 1 13t8 7h120q4 0 10 -2
t6 -13v-407q0 -12 -7.5 -17t-30.5 -13q-12 -4 -38 -9.5t-55.5 -10t-54.5 -4.5zM462 562q6 2 8 -6q2 -10 2.5 -19t0.5 -17q0 -46 -20 -74t-53 -40.5t-72 -14.5q-7 0 -7 7v67q0 7 7 7q20 1 38 11t18 41q0 4 -0.5 8.5t-1.5 8.5q0 7 6 8z" />
    <glyph glyph-name="uni0218" unicode="&#x218;" horiz-adv-x="495" 
d="M45 40v93q0 8 5 8.5t18 -4.5q20 -6 47.5 -11.5t54 -8.5t42.5 -3q47 0 71.5 26t24.5 57q0 33 -26.5 55.5t-66.5 33.5q-24 6 -55.5 17t-61.5 32t-50 57t-20 92q0 70 32.5 112.5t84.5 62t110 19.5q21 0 48 -4.5t54.5 -12t47.5 -16.5q9 -2 11 -6t2 -11v-86q0 -31 -37 -10
q-20 13 -49.5 22.5t-64.5 9.5q-39 0 -62.5 -20.5t-23.5 -45.5q0 -30 18 -48t46 -28t57.5 -17t52.5 -16q37 -13 61.5 -35t37.5 -57t13 -87q0 -76 -33 -124t-90.5 -71t-129.5 -23q-31 0 -70.5 6t-71.5 17q-16 5 -21.5 10t-5.5 15zM310 -88q0 -22 -9 -46.5t-21 -46.5t-21 -35
q-5 -7 -13 -7h-25h-24q-8 0 -8 3t4 13q5 11 13 34t15 36q-20 3 -29.5 19t-9.5 29q0 23 15 39t50 16q26 0 44.5 -10t18.5 -44z" />
    <glyph glyph-name="uni0219" unicode="&#x219;" horiz-adv-x="415" 
d="M41 127q3 13 10.5 11t14.5 -6q17 -8 39.5 -14t46 -9.5t42.5 -3.5q18 0 31.5 3t22 10t8.5 18q1 17 -17.5 27.5t-65.5 21.5q-31 8 -64.5 22t-56 42t-22.5 75q0 52 26.5 85.5t68.5 50.5t90 17q37 0 82.5 -11.5t75.5 -28.5q11 -6 11.5 -10.5t-2.5 -12.5l-27 -73
q-3 -14 -21 -7q-23 12 -54.5 23.5t-64.5 11.5q-16 0 -30 -7.5t-14 -21.5q0 -18 17.5 -26t51.5 -17q26 -7 52 -14.5t48.5 -22t36 -39.5t13.5 -66q0 -46 -17.5 -76.5t-46.5 -49t-63 -26.5t-67 -8q-19 0 -49 4t-60.5 13.5t-52.5 24.5q-4 3 -7 7t-2 10zM268 -88q0 -22 -9 -46.5
t-21 -46.5t-21 -35q-5 -7 -13 -7h-25h-24q-8 0 -8 3t4 13q5 11 13 34t15 36q-20 3 -29.5 19t-9.5 29q0 23 15 39t50 16q26 0 44.5 -10t18.5 -44z" />
    <glyph glyph-name="uni021A" unicode="&#x21a;" horiz-adv-x="463" 
d="M170 0q-5 0 -10 4t-5 10v536q0 5 -1 6t-6 1h-114q-13 0 -15.5 2.5t-2.5 11.5v89q0 8 2.5 10.5t13.5 2.5h397q12 0 15 -2.5t3 -10.5v-89q0 -9 -3 -11.5t-16 -2.5h-114q-6 0 -7 -1t-1 -6v-536q0 -14 -14 -14h-122zM292 -88q0 -22 -9 -46.5t-21 -46.5t-21 -35q-5 -7 -13 -7
h-25h-24q-8 0 -8 3t4 13q5 11 13 34t15 36q-20 3 -29.5 19t-9.5 29q0 23 15 39t50 16q26 0 44.5 -10t18.5 -44z" />
    <glyph glyph-name="uni021B" unicode="&#x21b;" horiz-adv-x="368" 
d="M235 0q-70 0 -104.5 29t-45.5 81q-8 42 -9 85.5t-1 86.5q0 28 0.5 47t1.5 44q0 10 -9 10h-38q-9 0 -12 2t-3 14v56q0 14 3 15.5t15 1.5h39q8 0 9 4.5t2 14.5l4 71q0 14 14 14h114q6 0 11.5 -4t4.5 -10l-5 -72q-1 -13 0.5 -15.5t7.5 -2.5h73q12 0 14 -2.5t2 -16.5v-53
q0 -11 -3.5 -14t-14.5 -3h-72q-7 0 -9.5 -3.5t-2.5 -11.5q-1 -23 -1.5 -47.5t-1.5 -50.5q0 -33 2 -66.5t9 -63.5q5 -16 14.5 -22.5t21.5 -6.5q11 0 21.5 3.5l16.5 5.5q13 8 16.5 5t7.5 -14l20 -69q4 -8 -3 -14t-27 -14q-12 -4 -25.5 -7.5t-27.5 -5t-29 -1.5zM265 -78
q0 -22 -9 -46.5t-21 -46.5t-21 -35q-5 -7 -13 -7h-25h-24q-8 0 -8 3t4 13q5 11 13 34t15 36q-20 3 -29.5 19t-9.5 29q0 23 15 39t50 16q26 0 44.5 -10t18.5 -44z" />
    <glyph glyph-name="circumflex" unicode="&#x2c6;" horiz-adv-x="250" 
d="M11 524q-4 0 -5 3t1 6l81 103q3 4 8 4h58q5 0 8 -4l81 -103q2 -3 1.5 -6t-5.5 -3h-63q-5 0 -9 4l-37 32q-5 5 -10 0l-37 -32q-4 -4 -9 -4h-63z" />
    <glyph glyph-name="caron" unicode="&#x2c7;" horiz-adv-x="240" 
d="M91 524q-5 0 -8 4l-81 103q-2 3 -1 6t5 3h63q5 0 9 -4l37 -32q5 -5 10 0l37 32q4 4 9 4h63q5 0 5.5 -3t-1.5 -6l-81 -103q-3 -4 -8 -4h-58z" />
    <glyph glyph-name="breve" unicode="&#x2d8;" horiz-adv-x="246" 
d="M123 518q-59 0 -91 25t-32 67q0 18 2 22t15 4h53q12 0 15 -2t3 -13q0 -12 10 -20t25 -8t25.5 8t10.5 20q0 10 3.5 12.5t10.5 2.5h58q11 0 13 -4.5t2 -21.5q0 -42 -31.5 -67t-91.5 -25z" />
    <glyph glyph-name="dotaccent" unicode="&#x2d9;" horiz-adv-x="113" 
d="M113 655q0 -25 -11 -38.5t-44 -13.5t-45.5 13.5t-12.5 38.5q0 23 12.5 37.5t45.5 14.5q35 0 45 -14.5t10 -37.5z" />
    <glyph glyph-name="ring" unicode="&#x2da;" horiz-adv-x="231" 
d="M231 563q0 -49 -26.5 -79.5t-88.5 -30.5q-64 0 -90 30t-26 80t26 79t90 29q62 0 88.5 -29t26.5 -79zM169 566q0 17 -10 28.5t-42 11.5q-34 0 -43 -11.5t-9 -28.5q0 -10 3 -21t14.5 -18t35.5 -7q23 0 34 7t14 18t3 21z" />
    <glyph glyph-name="ogonek" unicode="&#x2db;" horiz-adv-x="244" 
d="M124 -209q-52 0 -88 28t-36 71q0 35 14.5 63t40.5 50.5t60 40.5q11 6 24.5 11t29.5 5h71q8 0 8.5 -4.5t-6.5 -9.5q-61 -38 -91 -63.5t-39 -44t-9 -34.5q0 -20 11.5 -27.5t24.5 -6.5q15 1 37.5 11t39.5 23q6 5 12.5 4.5t6.5 -8.5v-43q0 -18 -20 -33q-22 -16 -43.5 -24.5
t-47.5 -8.5z" />
    <glyph glyph-name="tilde" unicode="&#x2dc;" horiz-adv-x="234" 
d="M6 535q-6 0 -6 6q0 41 19 64t56 23q17 0 32.5 -8t28 -16t18.5 -8q5 0 8.5 3.5t3.5 12.5q0 7 6 7h56q6 0 6 -6q0 -37 -21.5 -61.5t-55.5 -24.5q-22 0 -37 8t-24.5 15.5t-17.5 7.5q-7 0 -9.5 -3.5t-2.5 -12.5q0 -7 -6 -7h-54z" />
    <glyph glyph-name="hungarumlaut" unicode="&#x2dd;" horiz-adv-x="284" 
d="M76 531q-3 -4 -6.5 -5.5t-16.5 -1.5h-41q-16 0 -9 16l41 119q3 8 23 8h73q7 0 9.5 -4.5t-1.5 -10.5zM204 531q-1 -4 -5.5 -5.5t-17.5 -1.5h-41q-16 0 -9 16l47 119q3 8 23 8h73q7 0 9.5 -4.5t-1.5 -10.5z" />
    <glyph glyph-name="gravecomb" unicode="&#x300;" 
d="M125 525q-15 0 -29 14l-94 92q-4 4 -1 9.5t8 5.5h105q12 0 17 -3t10 -11l53 -89q11 -18 -2 -18h-67z" />
    <glyph glyph-name="acutecomb" unicode="&#x301;" 
d="M11 524q-10 0 -10.5 3.5t7.5 14.5l69 95q5 8 23 8h89q7 0 9.5 -3.5t-5.5 -11.5l-93 -99q-5 -6 -9.5 -6.5t-13.5 -0.5h-66z" />
    <glyph glyph-name="uni0302" unicode="&#x302;" 
d="M11 524q-4 0 -5 3t1 6l81 103q3 4 8 4h58q5 0 8 -4l81 -103q2 -3 1.5 -6t-5.5 -3h-63q-5 0 -9 4l-37 32q-5 5 -10 0l-37 -32q-4 -4 -9 -4h-63z" />
    <glyph glyph-name="tildecomb" unicode="&#x303;" 
d="M6 535q-6 0 -6 6q0 41 19 64t56 23q17 0 32.5 -8t28 -16t18.5 -8q5 0 8.5 3.5t3.5 12.5q0 7 6 7h56q6 0 6 -6q0 -37 -21.5 -61.5t-55.5 -24.5q-22 0 -37 8t-24.5 15.5t-17.5 7.5q-7 0 -9.5 -3.5t-2.5 -12.5q0 -7 -6 -7h-54z" />
    <glyph glyph-name="uni0304" unicode="&#x304;" 
d="M240 534q0 -4 -2 -5t-11 -1h-216q-8 0 -9.5 2t-1.5 7v66q0 7 2 9t9 2h217q8 0 10 -1.5t2 -8.5v-70z" />
    <glyph glyph-name="uni0306" unicode="&#x306;" 
d="M123 518q-59 0 -91 25t-32 67q0 18 2 22t15 4h53q12 0 15 -2t3 -13q0 -12 10 -20t25 -8t25.5 8t10.5 20q0 10 3.5 12.5t10.5 2.5h58q11 0 13 -4.5t2 -21.5q0 -42 -31.5 -67t-91.5 -25z" />
    <glyph glyph-name="uni0307" unicode="&#x307;" 
d="M113 571q0 -25 -11 -38.5t-44 -13.5t-45.5 13.5t-12.5 38.5q0 23 12.5 37.5t45.5 14.5q35 0 45 -14.5t10 -37.5z" />
    <glyph glyph-name="uni0308" unicode="&#x308;" 
d="M122 574q0 -25 -13 -38.5t-48 -13.5q-31 0 -45 13.5t-14 38.5t14 38.5t45 13.5q35 0 48 -13.5t13 -38.5zM290 574q0 -25 -12.5 -38.5t-47.5 -13.5q-32 0 -46 13.5t-14 38.5t14 38.5t46 13.5q35 0 47.5 -13.5t12.5 -38.5z" />
    <glyph glyph-name="hookabovecomb" unicode="&#x309;" 
d="M54 521q-3 0 -6 3t-3 6q0 13 4.5 21.5t8.5 12.5q8 9 17 15.5t9 16.5q0 11 -13 11q-7 0 -13 -2t-16 -9q-8 -6 -13 2l-27 34q-6 7 2 12q11 9 35 19t52 10q35 0 55 -20t20 -53q0 -28 -13 -39.5t-22 -16.5q-5 -3 -7.5 -6t-2.5 -8q0 -9 -10 -9h-57z" />
    <glyph glyph-name="uni030A" unicode="&#x30a;" 
d="M195 601q0 -43 -22.5 -69t-73.5 -26q-55 0 -77 26t-22 69q0 42 22 67.5t77 25.5q52 0 74 -25.5t22 -67.5zM136 603q0 12 -7.5 19.5t-29.5 7.5q-24 0 -30 -7.5t-6 -19.5q0 -10 6 -20.5t30 -10.5q25 0 31 10.5t6 20.5z" />
    <glyph glyph-name="uni030B" unicode="&#x30b;" 
d="M76 531q-2 -4 -6 -5.5t-17 -1.5h-41q-15 0 -9 16l41 119q2 8 23 8h73q7 0 9.5 -4.5t-1.5 -10.5zM204 531q-2 -4 -6 -5.5t-17 -1.5h-41q-15 0 -9 16l47 119q3 8 23 8h73q7 0 9.5 -4.5t-1.5 -10.5z" />
    <glyph glyph-name="uni030C" unicode="&#x30c;" 
d="M96 524q-5 0 -8 4l-81 103q-2 3 -1 6t5 3h63q5 0 9 -4l37 -32q5 -5 10 0l37 32q4 4 9 4h63q5 0 5.5 -3t-1.5 -6l-81 -103q-3 -4 -8 -4h-58z" />
    <glyph glyph-name="uni0312" unicode="&#x312;" 
d="M0 603q0 25 8.5 54t21.5 55t23 42q5 8 14 8q14 0 27 0.5t26 0.5q8 0 8.5 -3.5t-4.5 -14.5q-3 -7 -8 -24t-10.5 -34.5t-10.5 -28.5q22 -2 32.5 -19t10.5 -33q0 -26 -15.5 -43.5t-53.5 -18.5q-28 -1 -48 10.5t-21 48.5z" />
    <glyph glyph-name="uni031B" unicode="&#x31b;" 
d="M141 562q6 2 8 -6q2 -10 2.5 -19t0.5 -17q0 -46 -20 -74t-53 -40.5t-72 -14.5q-7 0 -7 7v67q0 7 7 7q20 1 38 11t18 41q0 4 -0.5 8.5t-1.5 8.5q0 7 6 8z" />
    <glyph glyph-name="dotbelowcomb" unicode="&#x323;" 
d="M113 -96q0 -25 -11 -38.5t-44 -13.5t-45.5 13.5t-12.5 38.5q0 23 12.5 37.5t45.5 14.5q35 0 45 -14.5t10 -37.5z" />
    <glyph glyph-name="uni0326" unicode="&#x326;" 
d="M128 -88q0 -22 -9 -46.5t-21 -46.5t-21 -35q-5 -7 -13 -7h-25h-24q-8 0 -8 3t4 13q5 11 13 34t15 36q-20 3 -29.5 19t-9.5 29q0 23 15 39t50 16q26 0 44.5 -10t18.5 -44z" />
    <glyph glyph-name="uni0327" unicode="&#x327;" 
d="M202 -128q0 -31 -26.5 -56t-71.5 -25q-36 0 -59 14.5t-38 33.5q-7 9 -7 19t10 14l22 10q11 5 17 3.5t9 -7.5q6 -13 15.5 -20t21.5 -7q15 0 22 8t7 17q0 11 -7.5 18t-19.5 10.5t-26 2.5q-10 0 -14.5 7t0.5 15l37 63q4 6 8.5 9t12.5 3h32q13 0 8 -13l-26 -67l-23 29
q49 -6 72.5 -26t23.5 -55z" />
    <glyph glyph-name="uni0328" unicode="&#x328;" 
d="M124 -209q-52 0 -88 28t-36 71q0 35 14.5 63t40.5 50.5t60 40.5q11 6 24.5 11t29.5 5h71q8 0 8.5 -4.5t-6.5 -9.5q-61 -38 -91 -63.5t-39 -44t-9 -34.5q0 -20 11.5 -27.5t24.5 -6.5q15 1 37.5 11t39.5 23q6 5 12.5 4.5t6.5 -8.5v-43q0 -18 -20 -33q-22 -16 -43.5 -24.5
t-47.5 -8.5z" />
    <glyph glyph-name="uni03BC" unicode="&#x3bc;" horiz-adv-x="476" 
d="M273 -4q-13 0 -31.5 1.5t-33.5 3t-18 1.5q2 -20 11 -50.5t25.5 -68.5t40.5 -83h-71h-72q-21 32 -35.5 80.5t-24 103t-15 104t-7.5 86t-2 48.5q0 35 1.5 73t5 76.5t7.5 72.5q2 21 6.5 24.5t20.5 3.5h94q15 0 22 -0.5t4 -20.5q0 -4 -1.5 -29t-3.5 -61.5t-3 -74.5t-1 -68
q0 -34 2.5 -48t10.5 -34q11 -11 18.5 -19t22.5 -8q7 0 15 0.5t14.5 1.5t11 4.5t4.5 9.5v327q0 6 1 13t8 7h120q4 0 10 -2t6 -13v-386q0 -19 -8 -28.5t-30 -22.5q-12 -7 -32 -12.5t-44 -8.5t-49 -3z" />
    <glyph glyph-name="pi" unicode="&#x3c0;" horiz-adv-x="658" 
d="M136 0q-17 0 -23 8.5t-6 24.5v371h-35q-22 0 -27 5.5t-5 24.5v52q0 19 5 25t27 6h514q24 0 28 -6t4 -25v-52q0 -19 -4 -24.5t-28 -5.5h-35v-371q0 -16 -2.5 -24.5t-16.5 -8.5h-103q-15 0 -18.5 8.5t-3.5 24.5v371h-153v-371q0 -16 -4 -24.5t-21 -8.5h-93z" />
    <glyph glyph-name="Wgrave" unicode="&#x1e80;" horiz-adv-x="866" 
d="M240 0q-21 0 -32 21q-22 41 -45.5 101.5t-45.5 131.5t-41.5 143.5t-33.5 138.5t-21 116q-1 9 1 15t12 6h17h39h40.5h21.5q9 0 13 -3t5 -14q4 -27 13.5 -72t31.5 -133q16 -63 26.5 -105.5t17.5 -69.5t13 -44q2 -6 3.5 -8t2.5 -2q2 0 1.5 0t0.5 0q2 0 3.5 3.5t2.5 7.5
q4 12 10.5 29.5t14 38.5t14.5 44t13 45.5t9 43.5q5 32 7 70t2.5 72.5t1 56t0.5 19.5q-1 9 0.5 15t12.5 6h20.5h39h39h20.5q8 0 11.5 -3t3.5 -14q1 -41 4 -83.5t7 -74.5t5 -45q6 -50 19.5 -103t34.5 -112q4 -10 5.5 -13t2.5 -3q2 0 1.5 0t0.5 0q2 0 4 6l9 27t21 69t29 109
q12 44 19 71.5t12 48.5t9.5 43.5t10.5 55.5q2 14 6 17.5t12 3.5h20.5h39h39h20.5q18 0 12 -24q-10 -43 -25.5 -106t-34.5 -136.5t-39.5 -146t-42.5 -135.5t-44 -104q-1 -4 -7.5 -12.5t-17.5 -8.5h-28.5h-41h-29.5q-8 0 -15 9.5t-9 11.5q-11 22 -23.5 48.5t-24 57.5t-23.5 64
q-4 14 -9 19.5t-13 -18.5q-17 -51 -26.5 -78.5t-15 -42t-10 -24.5t-12.5 -26q-4 -10 -12 -15.5t-13 -5.5h-28.5h-39.5h-24zM428 715q-8 0 -13.5 3.5t-15.5 10.5l-105 75q-4 3 -1 9t8 6h105q12 0 16 -3t11 -11l64 -72q7 -7 6.5 -12.5t-8.5 -5.5h-67z" />
    <glyph glyph-name="wgrave" unicode="&#x1e81;" horiz-adv-x="657" 
d="M156 18q-27 53 -50 109.5t-41.5 112t-31.5 105t-20 87.5q-3 17 -2.5 28.5t11.5 11.5h123q15 0 18 -15q6 -30 12.5 -61.5t13.5 -62t13 -57t11 -47t8 -31.5q2 -8 4.5 -6.5t3.5 3.5q5 11 9.5 28t8 36.5t5.5 38t2 31.5q0 19 -0.5 37.5t-0.5 34.5t-0.5 30t-0.5 24q0 16 15 16
h128q6 0 10 -3.5t4 -11.5q0 -29 1 -67t5 -74q2 -15 4 -29.5t4.5 -28t5.5 -25t6 -21t6 -17.5q6 -13 9 0q4 15 9 36t11 46.5t12 55t12 60t11 61.5q3 19 24 19h105q11 0 12 -10t-1 -25q-7 -46 -22.5 -106.5t-36 -122t-42 -112.5t-41.5 -78q-6 -9 -10 -13.5t-10 -4.5h-75
q-7 0 -10.5 2.5t-8.5 9.5t-14.5 25t-19 38.5t-15.5 36.5q-10 26 -19 0q0 -2 -5 -12t-10.5 -21.5t-8.5 -17.5q-7 -13 -15.5 -28.5t-11.5 -20.5q-3 -4 -8 -8t-13 -4h-70q-11 0 -13.5 2.5t-9.5 15.5zM319 525q-15 0 -29 14l-94 92q-4 4 -1 9.5t8 5.5h105q12 0 17 -3t10 -11
l53 -89q11 -18 -2 -18h-67z" />
    <glyph glyph-name="Wacute" unicode="&#x1e82;" horiz-adv-x="866" 
d="M240 0q-21 0 -32 21q-22 41 -45.5 101.5t-45.5 131.5t-41.5 143.5t-33.5 138.5t-21 116q-1 9 1 15t12 6h17h39h40.5h21.5q9 0 13 -3t5 -14q4 -27 13.5 -72t31.5 -133q16 -63 26.5 -105.5t17.5 -69.5t13 -44q2 -6 3.5 -8t2.5 -2q2 0 1.5 0t0.5 0q2 0 3.5 3.5t2.5 7.5
q4 12 10.5 29.5t14 38.5t14.5 44t13 45.5t9 43.5q5 32 7 70t2.5 72.5t1 56t0.5 19.5q-1 9 0.5 15t12.5 6h20.5h39h39h20.5q8 0 11.5 -3t3.5 -14q1 -41 4 -83.5t7 -74.5t5 -45q6 -50 19.5 -103t34.5 -112q4 -10 5.5 -13t2.5 -3q2 0 1.5 0t0.5 0q2 0 4 6l9 27t21 69t29 109
q12 44 19 71.5t12 48.5t9.5 43.5t10.5 55.5q2 14 6 17.5t12 3.5h20.5h39h39h20.5q18 0 12 -24q-10 -43 -25.5 -106t-34.5 -136.5t-39.5 -146t-42.5 -135.5t-44 -104q-1 -4 -7.5 -12.5t-17.5 -8.5h-28.5h-41h-29.5q-8 0 -15 9.5t-9 11.5q-11 22 -23.5 48.5t-24 57.5t-23.5 64
q-4 14 -9 19.5t-13 -18.5q-17 -51 -26.5 -78.5t-15 -42t-10 -24.5t-12.5 -26q-4 -10 -12 -15.5t-13 -5.5h-28.5h-39.5h-24zM440 715h-67q-8 0 -8.5 5.5t6.5 12.5l64 72q7 8 11 11t16 3h105q5 0 8.5 -6t-1.5 -9l-105 -75q-10 -7 -15.5 -10.5t-13.5 -3.5z" />
    <glyph glyph-name="wacute" unicode="&#x1e83;" horiz-adv-x="657" 
d="M156 18q-27 53 -50 109.5t-41.5 112t-31.5 105t-20 87.5q-3 17 -2.5 28.5t11.5 11.5h123q15 0 18 -15q6 -30 12.5 -61.5t13.5 -62t13 -57t11 -47t8 -31.5q2 -8 4.5 -6.5t3.5 3.5q5 11 9.5 28t8 36.5t5.5 38t2 31.5q0 19 -0.5 37.5t-0.5 34.5t-0.5 30t-0.5 24q0 16 15 16
h128q6 0 10 -3.5t4 -11.5q0 -29 1 -67t5 -74q2 -15 4 -29.5t4.5 -28t5.5 -25t6 -21t6 -17.5q6 -13 9 0q4 15 9 36t11 46.5t12 55t12 60t11 61.5q3 19 24 19h105q11 0 12 -10t-1 -25q-7 -46 -22.5 -106.5t-36 -122t-42 -112.5t-41.5 -78q-6 -9 -10 -13.5t-10 -4.5h-75
q-7 0 -10.5 2.5t-8.5 9.5t-14.5 25t-19 38.5t-15.5 36.5q-10 26 -19 0q0 -2 -5 -12t-10.5 -21.5t-8.5 -17.5q-7 -13 -15.5 -28.5t-11.5 -20.5q-3 -4 -8 -8t-13 -4h-70q-11 0 -13.5 2.5t-9.5 15.5zM275 524q-10 0 -10.5 3.5t7.5 14.5l69 95q5 8 23 8h89q7 0 9.5 -3.5
t-5.5 -11.5l-93 -99q-5 -6 -9.5 -6.5t-13.5 -0.5h-66z" />
    <glyph glyph-name="Wdieresis" unicode="&#x1e84;" horiz-adv-x="866" 
d="M240 0q-21 0 -32 21q-22 41 -45.5 101.5t-45.5 131.5t-41.5 143.5t-33.5 138.5t-21 116q-1 9 1 15t12 6h17h39h40.5h21.5q9 0 13 -3t5 -14q4 -27 13.5 -72t31.5 -133q16 -63 26.5 -105.5t17.5 -69.5t13 -44q2 -6 3.5 -8t2.5 -2q2 0 1.5 0t0.5 0q2 0 3.5 3.5t2.5 7.5
q4 12 10.5 29.5t14 38.5t14.5 44t13 45.5t9 43.5q5 32 7 70t2.5 72.5t1 56t0.5 19.5q-1 9 0.5 15t12.5 6h20.5h39h39h20.5q8 0 11.5 -3t3.5 -14q1 -41 4 -83.5t7 -74.5t5 -45q6 -50 19.5 -103t34.5 -112q4 -10 5.5 -13t2.5 -3q2 0 1.5 0t0.5 0q2 0 4 6l9 27t21 69t29 109
q12 44 19 71.5t12 48.5t9.5 43.5t10.5 55.5q2 14 6 17.5t12 3.5h20.5h39h39h20.5q18 0 12 -24q-10 -43 -25.5 -106t-34.5 -136.5t-39.5 -146t-42.5 -135.5t-44 -104q-1 -4 -7.5 -12.5t-17.5 -8.5h-28.5h-41h-29.5q-8 0 -15 9.5t-9 11.5q-11 22 -23.5 48.5t-24 57.5t-23.5 64
q-4 14 -9 19.5t-13 -18.5q-17 -51 -26.5 -78.5t-15 -42t-10 -24.5t-12.5 -26q-4 -10 -12 -15.5t-13 -5.5h-28.5h-39.5h-24zM411 775q0 -25 -13 -38.5t-48 -13.5q-31 0 -45 13.5t-14 38.5t14 38.5t45 13.5q35 0 48 -13.5t13 -38.5zM579 775q0 -25 -12.5 -38.5t-47.5 -13.5
q-32 0 -46 13.5t-14 38.5t14 38.5t46 13.5q35 0 47.5 -13.5t12.5 -38.5z" />
    <glyph glyph-name="wdieresis" unicode="&#x1e85;" horiz-adv-x="657" 
d="M156 18q-27 53 -50 109.5t-41.5 112t-31.5 105t-20 87.5q-3 17 -2.5 28.5t11.5 11.5h123q15 0 18 -15q6 -30 12.5 -61.5t13.5 -62t13 -57t11 -47t8 -31.5q2 -8 4.5 -6.5t3.5 3.5q5 11 9.5 28t8 36.5t5.5 38t2 31.5q0 19 -0.5 37.5t-0.5 34.5t-0.5 30t-0.5 24q0 16 15 16
h128q6 0 10 -3.5t4 -11.5q0 -29 1 -67t5 -74q2 -15 4 -29.5t4.5 -28t5.5 -25t6 -21t6 -17.5q6 -13 9 0q4 15 9 36t11 46.5t12 55t12 60t11 61.5q3 19 24 19h105q11 0 12 -10t-1 -25q-7 -46 -22.5 -106.5t-36 -122t-42 -112.5t-41.5 -78q-6 -9 -10 -13.5t-10 -4.5h-75
q-7 0 -10.5 2.5t-8.5 9.5t-14.5 25t-19 38.5t-15.5 36.5q-10 26 -19 0q0 -2 -5 -12t-10.5 -21.5t-8.5 -17.5q-7 -13 -15.5 -28.5t-11.5 -20.5q-3 -4 -8 -8t-13 -4h-70q-11 0 -13.5 2.5t-9.5 15.5zM305 574q0 -25 -13 -38.5t-48 -13.5q-31 0 -45 13.5t-14 38.5t14 38.5
t45 13.5q35 0 48 -13.5t13 -38.5zM473 574q0 -25 -12.5 -38.5t-47.5 -13.5q-32 0 -46 13.5t-14 38.5t14 38.5t46 13.5q35 0 47.5 -13.5t12.5 -38.5z" />
    <glyph glyph-name="uni1E9E" unicode="&#x1e9e;" horiz-adv-x="942" 
d="M45 40v93q0 8 5 8.5t18 -4.5q20 -6 47.5 -11.5t54 -8.5t42.5 -3q47 0 71.5 26t24.5 57q0 33 -26.5 55.5t-66.5 33.5q-24 6 -55.5 17t-61.5 32t-50 57t-20 92q0 70 32.5 112.5t84.5 62t110 19.5q21 0 48 -4.5t54.5 -12t47.5 -16.5q9 -2 11 -6t2 -11v-86q0 -31 -37 -10
q-20 13 -49.5 22.5t-64.5 9.5q-39 0 -62.5 -20.5t-23.5 -45.5q0 -30 18 -48t46 -28t57.5 -17t52.5 -16q37 -13 61.5 -35t37.5 -57t13 -87q0 -76 -33 -124t-90.5 -71t-129.5 -23q-31 0 -70.5 6t-71.5 17q-16 5 -21.5 10t-5.5 15zM488 40v93q0 8 5 8.5t18 -4.5
q20 -6 47.5 -11.5t54 -8.5t42.5 -3q47 0 71.5 26t24.5 57q0 33 -26.5 55.5t-66.5 33.5q-24 6 -55.5 17t-61.5 32t-50 57t-20 92q0 70 32.5 112.5t84.5 62t110 19.5q21 0 48 -4.5t54.5 -12t47.5 -16.5q9 -2 11 -6t2 -11v-86q0 -31 -37 -10q-20 13 -49.5 22.5t-64.5 9.5
q-39 0 -62.5 -20.5t-23.5 -45.5q0 -30 18 -48t46 -28t57.5 -17t52.5 -16q37 -13 61.5 -35t37.5 -57t13 -87q0 -76 -33 -124t-90.5 -71t-129.5 -23q-31 0 -70.5 6t-71.5 17q-16 5 -21.5 10t-5.5 15z" />
    <glyph glyph-name="uni1EA0" unicode="&#x1ea0;" horiz-adv-x="549" 
d="M27 0q-10 0 -12 8t2 32q6 44 20 106.5t33 132.5t41 140t45 130.5t44 101.5q6 10 11.5 16t13.5 6h99q8 -3 14 -7.5t11 -14.5q22 -41 45 -101.5t45 -130.5t41 -140t33 -132.5t20 -106.5q4 -24 2 -32t-13 -8h-118q-9 0 -12.5 5t-7.5 27t-10.5 52t-10.5 49q-1 8 -2.5 9
t-8.5 1h-154q-7 0 -8 -1t-3 -9q-4 -19 -10.5 -49t-10.5 -52t-7.5 -27t-12.5 -5h-119zM230 258h90q7 0 8 2.5t-1 9.5q-10 40 -22.5 85.5t-22.5 79.5q-2 9 -6 9h-4q-3 0 -6 -9q-6 -22 -14 -50t-15.5 -57.5t-14.5 -57.5q-1 -7 0 -9.5t8 -2.5zM331 -96q0 -25 -11 -38.5
t-44 -13.5t-45.5 13.5t-12.5 38.5q0 23 12.5 37.5t45.5 14.5q35 0 45 -14.5t10 -37.5z" />
    <glyph glyph-name="uni1EA1" unicode="&#x1ea1;" horiz-adv-x="466" 
d="M230 -7q-52 0 -97.5 11.5t-74 45t-28.5 97.5q0 53 20.5 86.5t52 51.5t64.5 24.5t58 6.5q18 0 34.5 -1t32.5 -3q8 -3 8 10q0 30 -20 42t-53 12q-37 0 -72 -15.5t-59 -26.5q-13 -6 -17 -4t-6 15l-10 62q-2 15 0 20t13 12q26 16 67.5 27t86.5 11q69 0 110.5 -15.5t62.5 -42
t28 -60t7 -69.5q0 -40 -0.5 -80t-2 -80t-5.5 -80q-3 -13 -6.5 -18.5t-15.5 -11.5q-13 -7 -37.5 -12t-52 -8.5t-51.5 -5t-37 -1.5zM238 80q8 0 16 1t15 4t11.5 7.5t5.5 11.5q2 23 4 48t0 50q0 10 -8 16q-9 8 -24 8.5t-20 0.5q-8 0 -19 -3t-21.5 -11t-17 -24t-6.5 -42
q0 -18 7 -33.5t21 -24.5t36 -9zM290 -96q0 -25 -11 -38.5t-44 -13.5t-45.5 13.5t-12.5 38.5q0 23 12.5 37.5t45.5 14.5q35 0 45 -14.5t10 -37.5z" />
    <glyph glyph-name="uni1EA2" unicode="&#x1ea2;" horiz-adv-x="549" 
d="M27 0q-10 0 -12 8t2 32q6 44 20 106.5t33 132.5t41 140t45 130.5t44 101.5q6 10 11.5 16t13.5 6h99q8 -3 14 -7.5t11 -14.5q22 -41 45 -101.5t45 -130.5t41 -140t33 -132.5t20 -106.5q4 -24 2 -32t-13 -8h-118q-9 0 -12.5 5t-7.5 27t-10.5 52t-10.5 49q-1 8 -2.5 9
t-8.5 1h-154q-7 0 -8 -1t-3 -9q-4 -19 -10.5 -49t-10.5 -52t-7.5 -27t-12.5 -5h-119zM230 258h90q7 0 8 2.5t-1 9.5q-10 40 -22.5 85.5t-22.5 79.5q-2 9 -6 9h-4q-3 0 -6 -9q-6 -22 -14 -50t-15.5 -57.5t-14.5 -57.5q-1 -7 0 -9.5t8 -2.5zM246 707q-3 0 -6 3t-3 6
q0 13 4.5 21.5t8.5 12.5q8 9 17 15.5t9 16.5q0 11 -13 11q-7 0 -13 -2t-16 -9q-8 -6 -13 2l-27 34q-3 4 -2.5 7t4.5 5q11 9 35 19t52 10q35 0 55 -20t20 -53q0 -28 -13 -39.5t-22 -16.5q-5 -3 -7.5 -6t-2.5 -8q0 -9 -10 -9h-57z" />
    <glyph glyph-name="uni1EA3" unicode="&#x1ea3;" horiz-adv-x="466" 
d="M230 -7q-52 0 -97.5 11.5t-74 45t-28.5 97.5q0 53 20.5 86.5t52 51.5t64.5 24.5t58 6.5q18 0 34.5 -1t32.5 -3q8 -3 8 10q0 30 -20 42t-53 12q-37 0 -72 -15.5t-59 -26.5q-13 -6 -17 -4t-6 15l-10 62q-2 15 0 20t13 12q26 16 67.5 27t86.5 11q69 0 110.5 -15.5t62.5 -42
t28 -60t7 -69.5q0 -40 -0.5 -80t-2 -80t-5.5 -80q-3 -13 -6.5 -18.5t-15.5 -11.5q-13 -7 -37.5 -12t-52 -8.5t-51.5 -5t-37 -1.5zM238 80q8 0 16 1t15 4t11.5 7.5t5.5 11.5q2 23 4 48t0 50q0 10 -8 16q-9 8 -24 8.5t-20 0.5q-8 0 -19 -3t-21.5 -11t-17 -24t-6.5 -42
q0 -18 7 -33.5t21 -24.5t36 -9zM215 518q-3 0 -6 3t-3 6q0 13 4.5 21.5t8.5 12.5q8 9 17 15.5t9 16.5q0 11 -13 11q-7 0 -13 -2t-16 -9q-8 -6 -13 2l-27 34q-6 7 2 12q11 9 35 19t52 10q35 0 55 -20t20 -53q0 -28 -13 -39.5t-22 -16.5q-5 -3 -7.5 -6t-2.5 -8q0 -9 -10 -9
h-57z" />
    <glyph glyph-name="uni1EA4" unicode="&#x1ea4;" horiz-adv-x="549" 
d="M27 0q-10 0 -12 8t2 32q6 44 20 106.5t33 132.5t41 140t45 130.5t44 101.5q6 10 11.5 16t13.5 6h99q8 -3 14 -7.5t11 -14.5q22 -41 45 -101.5t45 -130.5t41 -140t33 -132.5t20 -106.5q4 -24 2 -32t-13 -8h-118q-9 0 -12.5 5t-7.5 27t-10.5 52t-10.5 49q-1 8 -2.5 9
t-8.5 1h-154q-7 0 -8 -1t-3 -9q-4 -19 -10.5 -49t-10.5 -52t-7.5 -27t-12.5 -5h-119zM230 258h90q7 0 8 2.5t-1 9.5q-10 40 -22.5 85.5t-22.5 79.5q-2 9 -6 9h-4q-3 0 -6 -9q-6 -22 -14 -50t-15.5 -57.5t-14.5 -57.5q-1 -7 0 -9.5t8 -2.5zM151 713q-4 0 -5 3t1 6l84 90
q6 7 11 7h64q6 0 12 -6l85 -91q2 -3 1.5 -6t-5.5 -3h-59q-8 0 -12 2t-10 6l-37 28q-6 5 -12 0l-39 -30q-4 -3 -7.5 -4.5t-9.5 -1.5h-62zM467 778h-67q-8 0 -8.5 5.5t6.5 12.5l64 72q7 8 11 11t16 3h105q5 0 8.5 -6t-1.5 -9l-105 -75q-10 -7 -15.5 -10.5t-13.5 -3.5z" />
    <glyph glyph-name="uni1EA5" unicode="&#x1ea5;" horiz-adv-x="466" 
d="M230 -7q-52 0 -97.5 11.5t-74 45t-28.5 97.5q0 53 20.5 86.5t52 51.5t64.5 24.5t58 6.5q18 0 34.5 -1t32.5 -3q8 -3 8 10q0 30 -20 42t-53 12q-37 0 -72 -15.5t-59 -26.5q-13 -6 -17 -4t-6 15l-10 62q-2 15 0 20t13 12q26 16 67.5 27t86.5 11q69 0 110.5 -15.5t62.5 -42
t28 -60t7 -69.5q0 -40 -0.5 -80t-2 -80t-5.5 -80q-3 -13 -6.5 -18.5t-15.5 -11.5q-13 -7 -37.5 -12t-52 -8.5t-51.5 -5t-37 -1.5zM238 80q8 0 16 1t15 4t11.5 7.5t5.5 11.5q2 23 4 48t0 50q0 10 -8 16q-9 8 -24 8.5t-20 0.5q-8 0 -19 -3t-21.5 -11t-17 -24t-6.5 -42
q0 -18 7 -33.5t21 -24.5t36 -9zM130 524q-4 0 -5 3t1 6l81 103q3 4 8 4h58q5 0 8 -4l81 -103q2 -3 1.5 -6t-5.5 -3h-63q-5 0 -9 4l-37 32q-5 5 -10 0l-37 -32q-4 -4 -9 -4h-63zM366 576q-10 0 -10.5 3.5t7.5 14.5l69 95q5 8 23 8h89q7 0 9.5 -3.5t-5.5 -11.5l-93 -99
q-5 -6 -9.5 -6.5t-13.5 -0.5h-66z" />
    <glyph glyph-name="uni1EA6" unicode="&#x1ea6;" horiz-adv-x="549" 
d="M27 0q-10 0 -12 8t2 32q6 44 20 106.5t33 132.5t41 140t45 130.5t44 101.5q6 10 11.5 16t13.5 6h99q8 -3 14 -7.5t11 -14.5q22 -41 45 -101.5t45 -130.5t41 -140t33 -132.5t20 -106.5q4 -24 2 -32t-13 -8h-118q-9 0 -12.5 5t-7.5 27t-10.5 52t-10.5 49q-1 8 -2.5 9
t-8.5 1h-154q-7 0 -8 -1t-3 -9q-4 -19 -10.5 -49t-10.5 -52t-7.5 -27t-12.5 -5h-119zM230 258h90q7 0 8 2.5t-1 9.5q-10 40 -22.5 85.5t-22.5 79.5q-2 9 -6 9h-4q-3 0 -6 -9q-6 -22 -14 -50t-15.5 -57.5t-14.5 -57.5q-1 -7 0 -9.5t8 -2.5zM151 713q-4 0 -5 3t1 6l84 90
q6 7 11 7h64q6 0 12 -6l85 -91q2 -3 1.5 -6t-5.5 -3h-59q-8 0 -12 2t-10 6l-37 28q-6 5 -12 0l-39 -30q-4 -3 -7.5 -4.5t-9.5 -1.5h-62zM455 778q-8 0 -13.5 3.5t-15.5 10.5l-105 75q-4 3 -1 9t8 6h105q12 0 16 -3t11 -11l64 -72q7 -7 6.5 -12.5t-8.5 -5.5h-67z" />
    <glyph glyph-name="uni1EA7" unicode="&#x1ea7;" horiz-adv-x="466" 
d="M230 -7q-52 0 -97.5 11.5t-74 45t-28.5 97.5q0 53 20.5 86.5t52 51.5t64.5 24.5t58 6.5q18 0 34.5 -1t32.5 -3q8 -3 8 10q0 30 -20 42t-53 12q-37 0 -72 -15.5t-59 -26.5q-13 -6 -17 -4t-6 15l-10 62q-2 15 0 20t13 12q26 16 67.5 27t86.5 11q69 0 110.5 -15.5t62.5 -42
t28 -60t7 -69.5q0 -40 -0.5 -80t-2 -80t-5.5 -80q-3 -13 -6.5 -18.5t-15.5 -11.5q-13 -7 -37.5 -12t-52 -8.5t-51.5 -5t-37 -1.5zM238 80q8 0 16 1t15 4t11.5 7.5t5.5 11.5q2 23 4 48t0 50q0 10 -8 16q-9 8 -24 8.5t-20 0.5q-8 0 -19 -3t-21.5 -11t-17 -24t-6.5 -42
q0 -18 7 -33.5t21 -24.5t36 -9zM130 524q-4 0 -5 3t1 6l81 103q3 4 8 4h58q5 0 8 -4l81 -103q2 -3 1.5 -6t-5.5 -3h-63q-5 0 -9 4l-37 32q-5 5 -10 0l-37 -32q-4 -4 -9 -4h-63zM410 577q-15 0 -29 14l-94 92q-4 4 -1 9.5t8 5.5h105q12 0 17 -3t10 -11l53 -89q11 -18 -2 -18
h-67z" />
    <glyph glyph-name="uni1EA8" unicode="&#x1ea8;" horiz-adv-x="549" 
d="M27 0q-10 0 -12 8t2 32q6 44 20 106.5t33 132.5t41 140t45 130.5t44 101.5q6 10 11.5 16t13.5 6h99q8 -3 14 -7.5t11 -14.5q22 -41 45 -101.5t45 -130.5t41 -140t33 -132.5t20 -106.5q4 -24 2 -32t-13 -8h-118q-9 0 -12.5 5t-7.5 27t-10.5 52t-10.5 49q-1 8 -2.5 9
t-8.5 1h-154q-7 0 -8 -1t-3 -9q-4 -19 -10.5 -49t-10.5 -52t-7.5 -27t-12.5 -5h-119zM230 258h90q7 0 8 2.5t-1 9.5q-10 40 -22.5 85.5t-22.5 79.5q-2 9 -6 9h-4q-3 0 -6 -9q-6 -22 -14 -50t-15.5 -57.5t-14.5 -57.5q-1 -7 0 -9.5t8 -2.5zM151 713q-4 0 -5 3t1 6l84 90
q6 7 11 7h64q6 0 12 -6l85 -91q2 -3 1.5 -6t-5.5 -3h-59q-8 0 -12 2t-10 6l-37 28q-6 5 -12 0l-39 -30q-4 -3 -7.5 -4.5t-9.5 -1.5h-62zM433 770q-3 0 -6 3t-3 6q0 13 4.5 21.5t8.5 12.5q8 9 17 15.5t9 16.5q0 11 -13 11q-7 0 -13 -2t-16 -9q-8 -6 -13 2l-27 34q-3 4 -2.5 7
t4.5 5q11 9 35 19t52 10q35 0 55 -20t20 -53q0 -28 -13 -39.5t-22 -16.5q-5 -3 -7.5 -6t-2.5 -8q0 -9 -10 -9h-57z" />
    <glyph glyph-name="uni1EA9" unicode="&#x1ea9;" horiz-adv-x="466" 
d="M230 -7q-52 0 -97.5 11.5t-74 45t-28.5 97.5q0 53 20.5 86.5t52 51.5t64.5 24.5t58 6.5q18 0 34.5 -1t32.5 -3q8 -3 8 10q0 30 -20 42t-53 12q-37 0 -72 -15.5t-59 -26.5q-13 -6 -17 -4t-6 15l-10 62q-2 15 0 20t13 12q26 16 67.5 27t86.5 11q69 0 110.5 -15.5t62.5 -42
t28 -60t7 -69.5q0 -40 -0.5 -80t-2 -80t-5.5 -80q-3 -13 -6.5 -18.5t-15.5 -11.5q-13 -7 -37.5 -12t-52 -8.5t-51.5 -5t-37 -1.5zM238 80q8 0 16 1t15 4t11.5 7.5t5.5 11.5q2 23 4 48t0 50q0 10 -8 16q-9 8 -24 8.5t-20 0.5q-8 0 -19 -3t-21.5 -11t-17 -24t-6.5 -42
q0 -18 7 -33.5t21 -24.5t36 -9zM130 524q-4 0 -5 3t1 6l81 103q3 4 8 4h58q5 0 8 -4l81 -103q2 -3 1.5 -6t-5.5 -3h-63q-5 0 -9 4l-37 32q-5 5 -10 0l-37 -32q-4 -4 -9 -4h-63zM391 570q-3 0 -6 3t-3 6q0 13 4.5 21.5t8.5 12.5q8 9 17 15.5t9 16.5q0 11 -13 11q-7 0 -13 -2
t-16 -9q-8 -6 -13 2l-27 34q-6 7 2 12q11 9 35 19t52 10q35 0 55 -20t20 -53q0 -28 -13 -39.5t-22 -16.5q-5 -3 -7.5 -6t-2.5 -8q0 -9 -10 -9h-57z" />
    <glyph glyph-name="uni1EAA" unicode="&#x1eaa;" horiz-adv-x="549" 
d="M27 0q-10 0 -12 8t2 32q6 44 20 106.5t33 132.5t41 140t45 130.5t44 101.5q6 10 11.5 16t13.5 6h99q8 -3 14 -7.5t11 -14.5q22 -41 45 -101.5t45 -130.5t41 -140t33 -132.5t20 -106.5q4 -24 2 -32t-13 -8h-118q-9 0 -12.5 5t-7.5 27t-10.5 52t-10.5 49q-1 8 -2.5 9
t-8.5 1h-154q-7 0 -8 -1t-3 -9q-4 -19 -10.5 -49t-10.5 -52t-7.5 -27t-12.5 -5h-119zM230 258h90q7 0 8 2.5t-1 9.5q-10 40 -22.5 85.5t-22.5 79.5q-2 9 -6 9h-4q-3 0 -6 -9q-6 -22 -14 -50t-15.5 -57.5t-14.5 -57.5q-1 -7 0 -9.5t8 -2.5zM151 713q-4 0 -5 3t1 6l84 90
q6 7 11 7h64q6 0 12 -6l85 -91q2 -3 1.5 -6t-5.5 -3h-59q-8 0 -12 2t-10 6l-37 28q-6 5 -12 0l-39 -30q-4 -3 -7.5 -4.5t-9.5 -1.5h-62zM170 847q-6 0 -6 6q0 45 19 70.5t56 25.5q17 0 32.5 -9.5t27.5 -19t17 -9.5t8.5 5t3.5 15q0 8 6 8h57q6 0 6 -7q0 -40 -21.5 -67
t-55.5 -27q-22 0 -36.5 9t-24 18t-17.5 9q-6 0 -8.5 -4.5t-2.5 -15.5q0 -7 -6 -7h-55z" />
    <glyph glyph-name="uni1EAB" unicode="&#x1eab;" horiz-adv-x="466" 
d="M230 -7q-52 0 -97.5 11.5t-74 45t-28.5 97.5q0 53 20.5 86.5t52 51.5t64.5 24.5t58 6.5q18 0 34.5 -1t32.5 -3q8 -3 8 10q0 30 -20 42t-53 12q-37 0 -72 -15.5t-59 -26.5q-13 -6 -17 -4t-6 15l-10 62q-2 15 0 20t13 12q26 16 67.5 27t86.5 11q69 0 110.5 -15.5t62.5 -42
t28 -60t7 -69.5q0 -40 -0.5 -80t-2 -80t-5.5 -80q-3 -13 -6.5 -18.5t-15.5 -11.5q-13 -7 -37.5 -12t-52 -8.5t-51.5 -5t-37 -1.5zM238 80q8 0 16 1t15 4t11.5 7.5t5.5 11.5q2 23 4 48t0 50q0 10 -8 16q-9 8 -24 8.5t-20 0.5q-8 0 -19 -3t-21.5 -11t-17 -24t-6.5 -42
q0 -18 7 -33.5t21 -24.5t36 -9zM130 524q-4 0 -5 3t1 6l81 103q3 4 8 4h58q5 0 8 -4l81 -103q2 -3 1.5 -6t-5.5 -3h-63q-5 0 -9 4l-37 32q-5 5 -10 0l-37 -32q-4 -4 -9 -4h-63zM138 669q-6 0 -6 6q0 41 19 64t56 23q17 0 32.5 -8t28 -16t18.5 -8q5 0 8.5 3.5t3.5 12.5
q0 7 6 7h56q6 0 6 -6q0 -37 -21.5 -61.5t-55.5 -24.5q-22 0 -37 8t-24.5 15.5t-17.5 7.5q-7 0 -9.5 -3.5t-2.5 -12.5q0 -7 -6 -7h-54z" />
    <glyph glyph-name="uni1EAC" unicode="&#x1eac;" horiz-adv-x="549" 
d="M27 0q-10 0 -12 8t2 32q6 44 20 106.5t33 132.5t41 140t45 130.5t44 101.5q6 10 11.5 16t13.5 6h99q8 -3 14 -7.5t11 -14.5q22 -41 45 -101.5t45 -130.5t41 -140t33 -132.5t20 -106.5q4 -24 2 -32t-13 -8h-118q-9 0 -12.5 5t-7.5 27t-10.5 52t-10.5 49q-1 8 -2.5 9
t-8.5 1h-154q-7 0 -8 -1t-3 -9q-4 -19 -10.5 -49t-10.5 -52t-7.5 -27t-12.5 -5h-119zM230 258h90q7 0 8 2.5t-1 9.5q-10 40 -22.5 85.5t-22.5 79.5q-2 9 -6 9h-4q-3 0 -6 -9q-6 -22 -14 -50t-15.5 -57.5t-14.5 -57.5q-1 -7 0 -9.5t8 -2.5zM331 -96q0 -25 -11 -38.5
t-44 -13.5t-45.5 13.5t-12.5 38.5q0 23 12.5 37.5t45.5 14.5q35 0 45 -14.5t10 -37.5zM151 713q-4 0 -5 3t1 6l84 90q6 7 11 7h64q6 0 12 -6l85 -91q2 -3 1.5 -6t-5.5 -3h-59q-8 0 -12 2t-10 6l-37 28q-6 5 -12 0l-39 -30q-4 -3 -7.5 -4.5t-9.5 -1.5h-62z" />
    <glyph glyph-name="uni1EAD" unicode="&#x1ead;" horiz-adv-x="466" 
d="M230 -7q-52 0 -97.5 11.5t-74 45t-28.5 97.5q0 53 20.5 86.5t52 51.5t64.5 24.5t58 6.5q18 0 34.5 -1t32.5 -3q8 -3 8 10q0 30 -20 42t-53 12q-37 0 -72 -15.5t-59 -26.5q-13 -6 -17 -4t-6 15l-10 62q-2 15 0 20t13 12q26 16 67.5 27t86.5 11q69 0 110.5 -15.5t62.5 -42
t28 -60t7 -69.5q0 -40 -0.5 -80t-2 -80t-5.5 -80q-3 -13 -6.5 -18.5t-15.5 -11.5q-13 -7 -37.5 -12t-52 -8.5t-51.5 -5t-37 -1.5zM238 80q8 0 16 1t15 4t11.5 7.5t5.5 11.5q2 23 4 48t0 50q0 10 -8 16q-9 8 -24 8.5t-20 0.5q-8 0 -19 -3t-21.5 -11t-17 -24t-6.5 -42
q0 -18 7 -33.5t21 -24.5t36 -9zM290 -96q0 -25 -11 -38.5t-44 -13.5t-45.5 13.5t-12.5 38.5q0 23 12.5 37.5t45.5 14.5q35 0 45 -14.5t10 -37.5zM130 524q-4 0 -5 3t1 6l81 103q3 4 8 4h58q5 0 8 -4l81 -103q2 -3 1.5 -6t-5.5 -3h-63q-5 0 -9 4l-37 32q-5 5 -10 0l-37 -32
q-4 -4 -9 -4h-63z" />
    <glyph glyph-name="uni1EAE" unicode="&#x1eae;" horiz-adv-x="549" 
d="M27 0q-10 0 -12 8t2 32q6 44 20 106.5t33 132.5t41 140t45 130.5t44 101.5q6 10 11.5 16t13.5 6h99q8 -3 14 -7.5t11 -14.5q22 -41 45 -101.5t45 -130.5t41 -140t33 -132.5t20 -106.5q4 -24 2 -32t-13 -8h-118q-9 0 -12.5 5t-7.5 27t-10.5 52t-10.5 49q-1 8 -2.5 9
t-8.5 1h-154q-7 0 -8 -1t-3 -9q-4 -19 -10.5 -49t-10.5 -52t-7.5 -27t-12.5 -5h-119zM230 258h90q7 0 8 2.5t-1 9.5q-10 40 -22.5 85.5t-22.5 79.5q-2 9 -6 9h-4q-3 0 -6 -9q-6 -22 -14 -50t-15.5 -57.5t-14.5 -57.5q-1 -7 0 -9.5t8 -2.5zM275 706q-53 0 -82 24t-29 64
q0 16 2.5 19t12.5 3h46q10 0 13 -1.5t3 -11.5q0 -13 9.5 -21.5t24.5 -8.5q14 0 24 8.5t10 21.5q0 10 4 11.5t8 1.5h51q8 0 10.5 -2.5t2.5 -19.5q0 -40 -28 -64t-82 -24zM280 857h-67q-8 0 -8.5 5.5t6.5 12.5l64 72q7 8 11 11t16 3h105q5 0 8.5 -6t-1.5 -9l-105 -75
q-10 -7 -15.5 -10.5t-13.5 -3.5z" />
    <glyph glyph-name="uni1EAF" unicode="&#x1eaf;" horiz-adv-x="466" 
d="M230 -7q-52 0 -97.5 11.5t-74 45t-28.5 97.5q0 53 20.5 86.5t52 51.5t64.5 24.5t58 6.5q18 0 34.5 -1t32.5 -3q8 -3 8 10q0 30 -20 42t-53 12q-37 0 -72 -15.5t-59 -26.5q-13 -6 -17 -4t-6 15l-10 62q-2 15 0 20t13 12q26 16 67.5 27t86.5 11q69 0 110.5 -15.5t62.5 -42
t28 -60t7 -69.5q0 -40 -0.5 -80t-2 -80t-5.5 -80q-3 -13 -6.5 -18.5t-15.5 -11.5q-13 -7 -37.5 -12t-52 -8.5t-51.5 -5t-37 -1.5zM238 80q8 0 16 1t15 4t11.5 7.5t5.5 11.5q2 23 4 48t0 50q0 10 -8 16q-9 8 -24 8.5t-20 0.5q-8 0 -19 -3t-21.5 -11t-17 -24t-6.5 -42
q0 -18 7 -33.5t21 -24.5t36 -9zM244 518q-59 0 -91 25t-32 67q0 18 2 22t15 4h53q12 0 15 -2t3 -13q0 -12 10 -20t25 -8t25.5 8t10.5 20q0 10 3.5 12.5t10.5 2.5h58q11 0 13 -4.5t2 -21.5q0 -42 -31.5 -67t-91.5 -25zM190 658q-10 0 -10.5 3.5t7.5 14.5l69 95q5 8 23 8h89
q7 0 9.5 -3.5t-5.5 -11.5l-93 -99q-5 -6 -9.5 -6.5t-13.5 -0.5h-66z" />
    <glyph glyph-name="uni1EB0" unicode="&#x1eb0;" horiz-adv-x="549" 
d="M27 0q-10 0 -12 8t2 32q6 44 20 106.5t33 132.5t41 140t45 130.5t44 101.5q6 10 11.5 16t13.5 6h99q8 -3 14 -7.5t11 -14.5q22 -41 45 -101.5t45 -130.5t41 -140t33 -132.5t20 -106.5q4 -24 2 -32t-13 -8h-118q-9 0 -12.5 5t-7.5 27t-10.5 52t-10.5 49q-1 8 -2.5 9
t-8.5 1h-154q-7 0 -8 -1t-3 -9q-4 -19 -10.5 -49t-10.5 -52t-7.5 -27t-12.5 -5h-119zM230 258h90q7 0 8 2.5t-1 9.5q-10 40 -22.5 85.5t-22.5 79.5q-2 9 -6 9h-4q-3 0 -6 -9q-6 -22 -14 -50t-15.5 -57.5t-14.5 -57.5q-1 -7 0 -9.5t8 -2.5zM275 706q-53 0 -82 24t-29 64
q0 16 2.5 19t12.5 3h46q10 0 13 -1.5t3 -11.5q0 -13 9.5 -21.5t24.5 -8.5q14 0 24 8.5t10 21.5q0 10 4 11.5t8 1.5h51q8 0 10.5 -2.5t2.5 -19.5q0 -40 -28 -64t-82 -24zM268 857q-8 0 -13.5 3.5t-15.5 10.5l-105 75q-4 3 -1 9t8 6h105q12 0 16 -3t11 -11l64 -72
q7 -7 6.5 -12.5t-8.5 -5.5h-67z" />
    <glyph glyph-name="uni1EB1" unicode="&#x1eb1;" horiz-adv-x="466" 
d="M230 -7q-52 0 -97.5 11.5t-74 45t-28.5 97.5q0 53 20.5 86.5t52 51.5t64.5 24.5t58 6.5q18 0 34.5 -1t32.5 -3q8 -3 8 10q0 30 -20 42t-53 12q-37 0 -72 -15.5t-59 -26.5q-13 -6 -17 -4t-6 15l-10 62q-2 15 0 20t13 12q26 16 67.5 27t86.5 11q69 0 110.5 -15.5t62.5 -42
t28 -60t7 -69.5q0 -40 -0.5 -80t-2 -80t-5.5 -80q-3 -13 -6.5 -18.5t-15.5 -11.5q-13 -7 -37.5 -12t-52 -8.5t-51.5 -5t-37 -1.5zM238 80q8 0 16 1t15 4t11.5 7.5t5.5 11.5q2 23 4 48t0 50q0 10 -8 16q-9 8 -24 8.5t-20 0.5q-8 0 -19 -3t-21.5 -11t-17 -24t-6.5 -42
q0 -18 7 -33.5t21 -24.5t36 -9zM244 518q-59 0 -91 25t-32 67q0 18 2 22t15 4h53q12 0 15 -2t3 -13q0 -12 10 -20t25 -8t25.5 8t10.5 20q0 10 3.5 12.5t10.5 2.5h58q11 0 13 -4.5t2 -21.5q0 -42 -31.5 -67t-91.5 -25zM234 659q-15 0 -29 14l-94 92q-4 4 -1 9.5t8 5.5h105
q12 0 17 -3t10 -11l53 -89q11 -18 -2 -18h-67z" />
    <glyph glyph-name="uni1EB2" unicode="&#x1eb2;" horiz-adv-x="549" 
d="M27 0q-10 0 -12 8t2 32q6 44 20 106.5t33 132.5t41 140t45 130.5t44 101.5q6 10 11.5 16t13.5 6h99q8 -3 14 -7.5t11 -14.5q22 -41 45 -101.5t45 -130.5t41 -140t33 -132.5t20 -106.5q4 -24 2 -32t-13 -8h-118q-9 0 -12.5 5t-7.5 27t-10.5 52t-10.5 49q-1 8 -2.5 9
t-8.5 1h-154q-7 0 -8 -1t-3 -9q-4 -19 -10.5 -49t-10.5 -52t-7.5 -27t-12.5 -5h-119zM230 258h90q7 0 8 2.5t-1 9.5q-10 40 -22.5 85.5t-22.5 79.5q-2 9 -6 9h-4q-3 0 -6 -9q-6 -22 -14 -50t-15.5 -57.5t-14.5 -57.5q-1 -7 0 -9.5t8 -2.5zM275 706q-53 0 -82 24t-29 64
q0 16 2.5 19t12.5 3h46q10 0 13 -1.5t3 -11.5q0 -13 9.5 -21.5t24.5 -8.5q14 0 24 8.5t10 21.5q0 10 4 11.5t8 1.5h51q8 0 10.5 -2.5t2.5 -19.5q0 -40 -28 -64t-82 -24zM246 849q-3 0 -6 3t-3 6q0 13 4.5 21.5t8.5 12.5q8 9 17 15.5t9 16.5q0 11 -13 11q-7 0 -13 -2t-16 -9
q-8 -6 -13 2l-27 34q-3 4 -2.5 7t4.5 5q11 9 35 19t52 10q35 0 55 -20t20 -53q0 -28 -13 -39.5t-22 -16.5q-5 -3 -7.5 -6t-2.5 -8q0 -9 -10 -9h-57z" />
    <glyph glyph-name="uni1EB3" unicode="&#x1eb3;" horiz-adv-x="466" 
d="M230 -7q-52 0 -97.5 11.5t-74 45t-28.5 97.5q0 53 20.5 86.5t52 51.5t64.5 24.5t58 6.5q18 0 34.5 -1t32.5 -3q8 -3 8 10q0 30 -20 42t-53 12q-37 0 -72 -15.5t-59 -26.5q-13 -6 -17 -4t-6 15l-10 62q-2 15 0 20t13 12q26 16 67.5 27t86.5 11q69 0 110.5 -15.5t62.5 -42
t28 -60t7 -69.5q0 -40 -0.5 -80t-2 -80t-5.5 -80q-3 -13 -6.5 -18.5t-15.5 -11.5q-13 -7 -37.5 -12t-52 -8.5t-51.5 -5t-37 -1.5zM238 80q8 0 16 1t15 4t11.5 7.5t5.5 11.5q2 23 4 48t0 50q0 10 -8 16q-9 8 -24 8.5t-20 0.5q-8 0 -19 -3t-21.5 -11t-17 -24t-6.5 -42
q0 -18 7 -33.5t21 -24.5t36 -9zM244 518q-59 0 -91 25t-32 67q0 18 2 22t15 4h53q12 0 15 -2t3 -13q0 -12 10 -20t25 -8t25.5 8t10.5 20q0 10 3.5 12.5t10.5 2.5h58q11 0 13 -4.5t2 -21.5q0 -42 -31.5 -67t-91.5 -25zM215 652q-3 0 -6 3t-3 6q0 13 4.5 21.5t8.5 12.5
q8 9 17 15.5t9 16.5q0 11 -13 11q-7 0 -13 -2t-16 -9q-8 -6 -13 2l-27 34q-6 7 2 12q11 9 35 19t52 10q35 0 55 -20t20 -53q0 -28 -13 -39.5t-22 -16.5q-5 -3 -7.5 -6t-2.5 -8q0 -9 -10 -9h-57z" />
    <glyph glyph-name="uni1EB4" unicode="&#x1eb4;" horiz-adv-x="549" 
d="M27 0q-10 0 -12 8t2 32q6 44 20 106.5t33 132.5t41 140t45 130.5t44 101.5q6 10 11.5 16t13.5 6h99q8 -3 14 -7.5t11 -14.5q22 -41 45 -101.5t45 -130.5t41 -140t33 -132.5t20 -106.5q4 -24 2 -32t-13 -8h-118q-9 0 -12.5 5t-7.5 27t-10.5 52t-10.5 49q-1 8 -2.5 9
t-8.5 1h-154q-7 0 -8 -1t-3 -9q-4 -19 -10.5 -49t-10.5 -52t-7.5 -27t-12.5 -5h-119zM230 258h90q7 0 8 2.5t-1 9.5q-10 40 -22.5 85.5t-22.5 79.5q-2 9 -6 9h-4q-3 0 -6 -9q-6 -22 -14 -50t-15.5 -57.5t-14.5 -57.5q-1 -7 0 -9.5t8 -2.5zM275 706q-53 0 -82 24t-29 64
q0 16 2.5 19t12.5 3h46q10 0 13 -1.5t3 -11.5q0 -13 9.5 -21.5t24.5 -8.5q14 0 24 8.5t10 21.5q0 10 4 11.5t8 1.5h51q8 0 10.5 -2.5t2.5 -19.5q0 -40 -28 -64t-82 -24zM164 858q-6 0 -6 6q0 45 19 70.5t56 25.5q17 0 32.5 -9.5t27.5 -19t17 -9.5t8.5 5t3.5 15q0 8 6 8h57
q6 0 6 -7q0 -40 -21.5 -67t-55.5 -27q-22 0 -36.5 9t-24 18t-17.5 9q-6 0 -8.5 -4.5t-2.5 -15.5q0 -7 -6 -7h-55z" />
    <glyph glyph-name="uni1EB5" unicode="&#x1eb5;" horiz-adv-x="466" 
d="M230 -7q-52 0 -97.5 11.5t-74 45t-28.5 97.5q0 53 20.5 86.5t52 51.5t64.5 24.5t58 6.5q18 0 34.5 -1t32.5 -3q8 -3 8 10q0 30 -20 42t-53 12q-37 0 -72 -15.5t-59 -26.5q-13 -6 -17 -4t-6 15l-10 62q-2 15 0 20t13 12q26 16 67.5 27t86.5 11q69 0 110.5 -15.5t62.5 -42
t28 -60t7 -69.5q0 -40 -0.5 -80t-2 -80t-5.5 -80q-3 -13 -6.5 -18.5t-15.5 -11.5q-13 -7 -37.5 -12t-52 -8.5t-51.5 -5t-37 -1.5zM238 80q8 0 16 1t15 4t11.5 7.5t5.5 11.5q2 23 4 48t0 50q0 10 -8 16q-9 8 -24 8.5t-20 0.5q-8 0 -19 -3t-21.5 -11t-17 -24t-6.5 -42
q0 -18 7 -33.5t21 -24.5t36 -9zM244 518q-59 0 -91 25t-32 67q0 18 2 22t15 4h53q12 0 15 -2t3 -13q0 -12 10 -20t25 -8t25.5 8t10.5 20q0 10 3.5 12.5t10.5 2.5h58q11 0 13 -4.5t2 -21.5q0 -42 -31.5 -67t-91.5 -25zM133 660q-6 0 -6 6q0 41 19 64t56 23q17 0 32.5 -8
t28 -16t18.5 -8q5 0 8.5 3.5t3.5 12.5q0 7 6 7h56q6 0 6 -6q0 -37 -21.5 -61.5t-55.5 -24.5q-22 0 -37 8t-24.5 15.5t-17.5 7.5q-7 0 -9.5 -3.5t-2.5 -12.5q0 -7 -6 -7h-54z" />
    <glyph glyph-name="uni1EB6" unicode="&#x1eb6;" horiz-adv-x="549" 
d="M27 0q-10 0 -12 8t2 32q6 44 20 106.5t33 132.5t41 140t45 130.5t44 101.5q6 10 11.5 16t13.5 6h99q8 -3 14 -7.5t11 -14.5q22 -41 45 -101.5t45 -130.5t41 -140t33 -132.5t20 -106.5q4 -24 2 -32t-13 -8h-118q-9 0 -12.5 5t-7.5 27t-10.5 52t-10.5 49q-1 8 -2.5 9
t-8.5 1h-154q-7 0 -8 -1t-3 -9q-4 -19 -10.5 -49t-10.5 -52t-7.5 -27t-12.5 -5h-119zM230 258h90q7 0 8 2.5t-1 9.5q-10 40 -22.5 85.5t-22.5 79.5q-2 9 -6 9h-4q-3 0 -6 -9q-6 -22 -14 -50t-15.5 -57.5t-14.5 -57.5q-1 -7 0 -9.5t8 -2.5zM331 -96q0 -25 -11 -38.5
t-44 -13.5t-45.5 13.5t-12.5 38.5q0 23 12.5 37.5t45.5 14.5q35 0 45 -14.5t10 -37.5zM275 706q-53 0 -82 24t-29 64q0 16 2.5 19t12.5 3h46q10 0 13 -1.5t3 -11.5q0 -13 9.5 -21.5t24.5 -8.5q14 0 24 8.5t10 21.5q0 10 4 11.5t8 1.5h51q8 0 10.5 -2.5t2.5 -19.5
q0 -40 -28 -64t-82 -24z" />
    <glyph glyph-name="uni1EB7" unicode="&#x1eb7;" horiz-adv-x="466" 
d="M230 -7q-52 0 -97.5 11.5t-74 45t-28.5 97.5q0 53 20.5 86.5t52 51.5t64.5 24.5t58 6.5q18 0 34.5 -1t32.5 -3q8 -3 8 10q0 30 -20 42t-53 12q-37 0 -72 -15.5t-59 -26.5q-13 -6 -17 -4t-6 15l-10 62q-2 15 0 20t13 12q26 16 67.5 27t86.5 11q69 0 110.5 -15.5t62.5 -42
t28 -60t7 -69.5q0 -40 -0.5 -80t-2 -80t-5.5 -80q-3 -13 -6.5 -18.5t-15.5 -11.5q-13 -7 -37.5 -12t-52 -8.5t-51.5 -5t-37 -1.5zM238 80q8 0 16 1t15 4t11.5 7.5t5.5 11.5q2 23 4 48t0 50q0 10 -8 16q-9 8 -24 8.5t-20 0.5q-8 0 -19 -3t-21.5 -11t-17 -24t-6.5 -42
q0 -18 7 -33.5t21 -24.5t36 -9zM290 -96q0 -25 -11 -38.5t-44 -13.5t-45.5 13.5t-12.5 38.5q0 23 12.5 37.5t45.5 14.5q35 0 45 -14.5t10 -37.5zM244 518q-59 0 -91 25t-32 67q0 18 2 22t15 4h53q12 0 15 -2t3 -13q0 -12 10 -20t25 -8t25.5 8t10.5 20q0 10 3.5 12.5
t10.5 2.5h58q11 0 13 -4.5t2 -21.5q0 -42 -31.5 -67t-91.5 -25z" />
    <glyph glyph-name="uni1EB8" unicode="&#x1eb8;" horiz-adv-x="458" 
d="M75 0q-15 0 -15 14v644q0 15 15 15h340q14 0 16.5 -2t2.5 -15v-80q0 -14 -3.5 -16.5t-15.5 -2.5h-194q-7 0 -8 -1t-1 -7v-144q0 -7 1 -8t7 -1h150q15 0 17.5 -3t2.5 -19v-71q0 -15 -3 -18t-17 -3h-150q-5 0 -6.5 -1t-1.5 -6v-150q0 -6 1 -7.5t7 -1.5h192q17 0 19.5 -3.5
t2.5 -18.5v-72q0 -16 -4 -19t-19 -3h-336zM298 -96q0 -25 -11 -38.5t-44 -13.5t-45.5 13.5t-12.5 38.5q0 23 12.5 37.5t45.5 14.5q35 0 45 -14.5t10 -37.5z" />
    <glyph glyph-name="uni1EB9" unicode="&#x1eb9;" horiz-adv-x="474" 
d="M30 237q0 47 10 90t34 78t66 55t107 20q67 0 107 -18.5t60.5 -49.5t27 -68t6.5 -73q0 -43 -10.5 -58t-31.5 -15h-219q-7 0 -8 -2.5t-1 -9.5q0 -25 13.5 -45.5t37.5 -33t55 -12.5q33 0 61 11.5t38 17.5q14 8 21.5 9.5t16.5 -16.5l24 -47q7 -13 3.5 -18t-15.5 -13
q-35 -25 -85.5 -36t-99.5 -11q-67 0 -109.5 19t-66 53t-33 78.5t-9.5 94.5zM300 295q0 26 -6.5 42.5t-19 24.5t-31.5 8q-16 0 -27.5 -6t-19 -16.5t-12 -23t-6.5 -24.5q-1 -18 0 -21.5t8 -3.5h104q8 0 9.5 3t0.5 17zM296 -96q0 -25 -11 -38.5t-44 -13.5t-45.5 13.5
t-12.5 38.5q0 23 12.5 37.5t45.5 14.5q35 0 45 -14.5t10 -37.5z" />
    <glyph glyph-name="uni1EBA" unicode="&#x1eba;" horiz-adv-x="458" 
d="M75 0q-15 0 -15 14v644q0 15 15 15h340q14 0 16.5 -2t2.5 -15v-80q0 -14 -3.5 -16.5t-15.5 -2.5h-194q-7 0 -8 -1t-1 -7v-144q0 -7 1 -8t7 -1h150q15 0 17.5 -3t2.5 -19v-71q0 -15 -3 -18t-17 -3h-150q-5 0 -6.5 -1t-1.5 -6v-150q0 -6 1 -7.5t7 -1.5h192q17 0 19.5 -3.5
t2.5 -18.5v-72q0 -16 -4 -19t-19 -3h-336zM213 707q-3 0 -6 3t-3 6q0 13 4.5 21.5t8.5 12.5q8 9 17 15.5t9 16.5q0 11 -13 11q-7 0 -13 -2t-16 -9q-8 -6 -13 2l-27 34q-3 4 -2.5 7t4.5 5q11 9 35 19t52 10q35 0 55 -20t20 -53q0 -28 -13 -39.5t-22 -16.5q-5 -3 -7.5 -6
t-2.5 -8q0 -9 -10 -9h-57z" />
    <glyph glyph-name="uni1EBB" unicode="&#x1ebb;" horiz-adv-x="474" 
d="M30 237q0 47 10 90t34 78t66 55t107 20q67 0 107 -18.5t60.5 -49.5t27 -68t6.5 -73q0 -43 -10.5 -58t-31.5 -15h-219q-7 0 -8 -2.5t-1 -9.5q0 -25 13.5 -45.5t37.5 -33t55 -12.5q33 0 61 11.5t38 17.5q14 8 21.5 9.5t16.5 -16.5l24 -47q7 -13 3.5 -18t-15.5 -13
q-35 -25 -85.5 -36t-99.5 -11q-67 0 -109.5 19t-66 53t-33 78.5t-9.5 94.5zM300 295q0 26 -6.5 42.5t-19 24.5t-31.5 8q-16 0 -27.5 -6t-19 -16.5t-12 -23t-6.5 -24.5q-1 -18 0 -21.5t8 -3.5h104q8 0 9.5 3t0.5 17zM221 518q-3 0 -6 3t-3 6q0 13 4.5 21.5t8.5 12.5
q8 9 17 15.5t9 16.5q0 11 -13 11q-7 0 -13 -2t-16 -9q-8 -6 -13 2l-27 34q-6 7 2 12q11 9 35 19t52 10q35 0 55 -20t20 -53q0 -28 -13 -39.5t-22 -16.5q-5 -3 -7.5 -6t-2.5 -8q0 -9 -10 -9h-57z" />
    <glyph glyph-name="uni1EBC" unicode="&#x1ebc;" horiz-adv-x="458" 
d="M75 0q-15 0 -15 14v644q0 15 15 15h340q14 0 16.5 -2t2.5 -15v-80q0 -14 -3.5 -16.5t-15.5 -2.5h-194q-7 0 -8 -1t-1 -7v-144q0 -7 1 -8t7 -1h150q15 0 17.5 -3t2.5 -19v-71q0 -15 -3 -18t-17 -3h-150q-5 0 -6.5 -1t-1.5 -6v-150q0 -6 1 -7.5t7 -1.5h192q17 0 19.5 -3.5
t2.5 -18.5v-72q0 -16 -4 -19t-19 -3h-336zM131 716q-6 0 -6 6q0 45 19 70.5t56 25.5q17 0 32.5 -9.5t27.5 -19t17 -9.5t8.5 5t3.5 15q0 8 6 8h57q6 0 6 -7q0 -40 -21.5 -67t-55.5 -27q-22 0 -36.5 9t-24 18t-17.5 9q-6 0 -8.5 -4.5t-2.5 -15.5q0 -7 -6 -7h-55z" />
    <glyph glyph-name="uni1EBD" unicode="&#x1ebd;" horiz-adv-x="474" 
d="M30 237q0 47 10 90t34 78t66 55t107 20q67 0 107 -18.5t60.5 -49.5t27 -68t6.5 -73q0 -43 -10.5 -58t-31.5 -15h-219q-7 0 -8 -2.5t-1 -9.5q0 -25 13.5 -45.5t37.5 -33t55 -12.5q33 0 61 11.5t38 17.5q14 8 21.5 9.5t16.5 -16.5l24 -47q7 -13 3.5 -18t-15.5 -13
q-35 -25 -85.5 -36t-99.5 -11q-67 0 -109.5 19t-66 53t-33 78.5t-9.5 94.5zM300 295q0 26 -6.5 42.5t-19 24.5t-31.5 8q-16 0 -27.5 -6t-19 -16.5t-12 -23t-6.5 -24.5q-1 -18 0 -21.5t8 -3.5h104q8 0 9.5 3t0.5 17zM139 526q-6 0 -6 6q0 41 19 64t56 23q17 0 32.5 -8t28 -16
t18.5 -8q5 0 8.5 3.5t3.5 12.5q0 7 6 7h56q6 0 6 -6q0 -37 -21.5 -61.5t-55.5 -24.5q-22 0 -37 8t-24.5 15.5t-17.5 7.5q-7 0 -9.5 -3.5t-2.5 -12.5q0 -7 -6 -7h-54z" />
    <glyph glyph-name="uni1EBE" unicode="&#x1ebe;" horiz-adv-x="458" 
d="M75 0q-15 0 -15 14v644q0 15 15 15h340q14 0 16.5 -2t2.5 -15v-80q0 -14 -3.5 -16.5t-15.5 -2.5h-194q-7 0 -8 -1t-1 -7v-144q0 -7 1 -8t7 -1h150q15 0 17.5 -3t2.5 -19v-71q0 -15 -3 -18t-17 -3h-150q-5 0 -6.5 -1t-1.5 -6v-150q0 -6 1 -7.5t7 -1.5h192q17 0 19.5 -3.5
t2.5 -18.5v-72q0 -16 -4 -19t-19 -3h-336zM118 713q-4 0 -5 3t1 6l84 90q6 7 11 7h64q6 0 12 -6l85 -91q2 -3 1.5 -6t-5.5 -3h-59q-8 0 -12 2t-10 6l-37 28q-6 5 -12 0l-39 -30q-4 -3 -7.5 -4.5t-9.5 -1.5h-62zM434 778h-67q-8 0 -8.5 5.5t6.5 12.5l64 72q7 8 11 11t16 3
h105q5 0 8.5 -6t-1.5 -9l-105 -75q-10 -7 -15.5 -10.5t-13.5 -3.5z" />
    </font>
</defs>
</svg>
