<?xml version="1.0" standalone="no"?>
<!DOCTYPE svg PUBLIC "-//W3C//DTD SVG 1.1//EN" "http://www.w3.org/Graphics/SVG/1.1/DTD/svg11.dtd" >
<svg xmlns="http://www.w3.org/2000/svg" xmlns:xlink="http://www.w3.org/1999/xlink" version="1.1">
<metadata>
Created by FontForge 20201107 at Fri Jun 18 05:32:25 2021
 By 
Copyright 2016-2020 The Glory Project Authors (https://github.com/googlefonts/glory)
</metadata>
<defs>
<font id="Glory-ExtraBoldItalic" horiz-adv-x="0" >
  <font-face 
    font-family="Glory ExtraBold"
    font-weight="800"
    font-style="italic"
    font-stretch="normal"
    units-per-em="1000"
    panose-1="0 0 0 0 0 0 0 0 0 0"
    ascent="800"
    descent="-200"
    x-height="472"
    cap-height="673"
    bbox="-162.077 -257 1140.23 1001"
    underline-thickness="50"
    underline-position="-125"
    slope="-12"
    unicode-range="U+000D-FB02"
  />
<missing-glyph horiz-adv-x="560" 
d="M28 0q-3 0 -3 4q3 33 11 85.5t19.5 115.5t25.5 129q15 67 30.5 131.5t30.5 118t26 85.5q0 2 2 3t3 1h402q3 0 3 -4q-3 -32 -11 -85.5t-19.5 -118t-26.5 -131.5q-14 -66 -29.5 -129t-29.5 -115.5t-25 -85.5q0 -4 -5 -4h-404zM61 30h352q13 42 27 96.5t27 110t22 100.5
q17 79 30 158t22 148h-348q-24 -85 -44 -162.5t-34 -145.5q-10 -47 -21 -101t-19.5 -107t-13.5 -97zM117 80q-8 0 -2 6l337 502q4 5 6 5.5t5 0.5h19q7 0 0 -7l-334 -499q-5 -8 -13 -8h-18zM371 80h-18q-7 0 -9 8l-122 499q-4 7 4 7h19q6 0 7 -6l125 -502v-3.5t-6 -2.5z" />
    <glyph glyph-name="fi" unicode="fi" horiz-adv-x="568" 
d="M492 14q-3 -14 -18 -14h-117q-14 0 -11 14l94 444q4 14 17 14h117q6 0 10 -4t2 -10zM-63 -230q-34 0 -51 5.5t-16 5.5q-11 5 -7 21q1 4 4.5 19.5t6.5 31t4 18.5q2 9 4.5 9t8.5 -2q15 -6 25.5 -6.5t26.5 -0.5q35 0 60.5 22t36.5 77q13 69 20 116.5t12.5 86.5t12.5 81.5
t19 100.5q3 11 -7 11h-20h-19q-7 0 -10.5 2t-1.5 13q5 19 9 37t8 37q2 14 6.5 15.5t14.5 1.5h30h9q8 0 9 8q6 43 21 83t48 77q28 31 80.5 51.5t149.5 20.5q75 0 114 -12t55.5 -24.5t21.5 -16.5q10 -6 6.5 -13t-8.5 -15q-7 -11 -19.5 -31.5t-18.5 -29.5q-1 -2 -5 -3.5t-9 1.5
q-14 8 -29 15t-32 11.5t-38 7t-47 2.5q-51 0 -74.5 -9.5t-38.5 -24.5q-13 -14 -20 -33t-9.5 -35t-3.5 -21q-2 -9 6 -9h26.5h55h67h64.5h47q8 0 10.5 -2.5t-0.5 -16.5q-1 -5 -6 -29t-9 -42q-1 -11 -5.5 -13.5t-15.5 -2.5h-55.5h-72.5h-72.5h-55.5q-2 0 -6 -2.5t-5 -7.5
q0 -4 -3 -16.5t-5.5 -25.5t-3.5 -18q-9 -44 -14.5 -76.5t-10.5 -65t-11.5 -75t-18.5 -107.5q-17 -97 -73 -149.5t-172 -52.5z" />
    <glyph glyph-name="fl" unicode="fl" horiz-adv-x="646" 
d="M412 14l134 630q4 14 18 14h115q2 0 9 -4t5 -10l-134 -630q-3 -14 -19 -14h-115q-16 0 -13 14zM-63 -230q-34 0 -51 5.5t-16 5.5q-11 5 -7 21q1 4 4.5 19.5t6.5 31t4 18.5q2 9 4.5 9t8.5 -2q15 -6 25.5 -6.5t26.5 -0.5q35 0 60.5 22t36.5 77q13 69 20 116.5t12.5 86.5
t12.5 81.5t19 100.5q3 11 -7 11h-20h-19q-7 0 -10.5 2t-1.5 13q5 19 9 37t8 37q2 14 6.5 15.5t14.5 1.5h30h9q8 0 9 8q6 43 21 83t48 77q28 31 77 51.5t123 20.5q100 0 159.5 -12t88 -25.5t33.5 -16.5q11 -6 6.5 -13.5t-9.5 -16.5q-5 -10 -17.5 -24.5t-25 -28t-19.5 -21.5
q-10 -11 -17.5 -8t-13 11.5t-9.5 11.5q-24 12 -46 19.5t-42 12t-36 6t-27 1.5q-68 0 -97 -18t-40 -53q-3 -10 -7 -29t-6 -27q-2 -9 6 -9h42.5h73.5q8 0 10.5 -2.5t-0.5 -16.5q-1 -5 -6 -29t-9 -42q-1 -11 -5.5 -13.5t-15.5 -2.5h-42h-28h-42q-2 0 -6 -2.5t-5 -7.5
q0 -4 -3 -16.5t-5.5 -25.5t-3.5 -18q-9 -44 -14.5 -76.5t-10.5 -65t-11.5 -75t-18.5 -107.5q-17 -97 -73 -149.5t-172 -52.5z" />
    <glyph glyph-name=".notdef" horiz-adv-x="560" 
d="M28 0q-3 0 -3 4q3 33 11 85.5t19.5 115.5t25.5 129q15 67 30.5 131.5t30.5 118t26 85.5q0 2 2 3t3 1h402q3 0 3 -4q-3 -32 -11 -85.5t-19.5 -118t-26.5 -131.5q-14 -66 -29.5 -129t-29.5 -115.5t-25 -85.5q0 -4 -5 -4h-404zM61 30h352q13 42 27 96.5t27 110t22 100.5
q17 79 30 158t22 148h-348q-24 -85 -44 -162.5t-34 -145.5q-10 -47 -21 -101t-19.5 -107t-13.5 -97zM117 80q-8 0 -2 6l337 502q4 5 6 5.5t5 0.5h19q7 0 0 -7l-334 -499q-5 -8 -13 -8h-18zM371 80h-18q-7 0 -9 8l-122 499q-4 7 4 7h19q6 0 7 -6l125 -502v-3.5t-6 -2.5z" />
    <glyph glyph-name=".null" 
 />
    <glyph glyph-name="nonmarkingreturn" horiz-adv-x="333" 
 />
    <glyph glyph-name="CR" unicode="&#xd;" horiz-adv-x="600" 
 />
    <glyph glyph-name="space" unicode=" " horiz-adv-x="225" 
 />
    <glyph glyph-name="exclam" unicode="!" horiz-adv-x="266" 
d="M73 210q-9 0 -11 2.5t0 15.5l73 430q2 8 4.5 11.5t10.5 3.5h137q14 0 10 -13l-111 -432q-3 -12 -6 -15t-15 -3h-92zM179 40q-7 -29 -24.5 -44t-62.5 -15q-39 0 -53.5 15t-7.5 44q6 29 26.5 44t59.5 15q45 0 56.5 -15t5.5 -44z" />
    <glyph glyph-name="quotedbl" unicode="&#x22;" horiz-adv-x="369" 
d="M105 441q-6 0 -9 4.5t0 17.5l39 217q2 17 7 21.5t18 4.5h76q16 0 18 -4.5t0 -14.5l-57 -228q-2 -11 -6.5 -14.5t-13.5 -3.5h-72zM276 441q-7 0 -9.5 4.5t0.5 17.5l39 217q2 17 7 21.5t18 4.5h77q15 0 17 -4.5t0 -14.5l-56 -228q-2 -11 -7 -14.5t-14 -3.5h-72z" />
    <glyph glyph-name="numbersign" unicode="#" horiz-adv-x="800" 
d="M208 184h-138q-13 0 -17 2t1 17l21 60q4 11 9.5 14.5t16.5 3.5h136l37 136h-131q-12 0 -16.5 1.5t-0.5 16.5l22 61q5 11 10 14t16 3h126l50 174q3 11 7.5 15t16.5 4h69q11 0 11.5 -5t-3.5 -17l-49 -171l119 -1l50 175q3 11 7 15t17 4h68q12 0 12.5 -5t-4.5 -17l-49 -172
h148q20 1 24.5 -3.5t-0.5 -12.5l-21 -64q-3 -10 -9.5 -12.5t-12.5 -2.5h-154l-38 -137h138q20 1 24.5 -3.5t0.5 -13.5l-23 -64q-2 -10 -8.5 -12.5t-13.5 -2.5h-147l-47 -169q-1 -5 -5 -10t-15 -5h-66q-10 0 -13 5.5t2 23.5l43 155h-118l-48 -169q-1 -5 -5.5 -10t-15.5 -5
h-66q-10 0 -13 5.5t2 23.5zM339 281l119 -1l37 137h-119z" />
    <glyph glyph-name="dollar" unicode="$" horiz-adv-x="490" 
d="M151 37q-14 5 -42.5 15.5t-48.5 21.5q-10 8 -13.5 11t-2.5 13q3 30 6 59.5t7 59.5q1 13 8.5 12.5t17 -7t15.5 -11.5q44 -30 74.5 -40.5t55.5 -10.5q20 0 37.5 6t29 18t12.5 30q2 13 -6 24.5t-27 24t-52 26.5q-35 17 -68.5 38t-53 56t-13.5 91q6 53 33 90.5t67.5 58
t86.5 21.5h17.5h17.5l25 87q2 8 5.5 11.5t17.5 3.5h68q14 0 14.5 -4.5t-2.5 -14.5l-30 -99q25 -8 49 -23t50 -32q12 -7 12 -12.5t-8 -16.5q-14 -19 -28 -38.5t-28 -39.5q-6 -10 -12 -7t-20 13q-15 11 -37 20.5t-46.5 15.5t-45.5 6q-25 0 -44 -10t-21 -32q-1 -13 8.5 -23.5
t29.5 -21t49 -25.5q35 -17 68 -39.5t53 -57t14 -89.5q-5 -51 -36 -92.5t-74.5 -66.5t-89.5 -28l-39 -150q-3 -10 -7 -11.5t-15 -1.5h-71q-6 0 -8 4.5t3 23.5z" />
    <glyph glyph-name="percent" unicode="%" horiz-adv-x="831" 
d="M102 0q-8 0 -8.5 5t6.5 12l543 678q7 8 10 9.5t12 1.5h96q10 0 10.5 -5t-19.5 -28l-522 -658q-6 -7 -11.5 -11t-15.5 -4h-101zM238 393q-60 0 -92 20.5t-40 55.5t1 81q14 69 60 113.5t137 44.5q89 0 117 -44.5t14 -113.5q-14 -68 -61 -112.5t-136 -44.5zM256 479
q36 0 56 18.5t27 52.5q8 35 -4.5 53t-48.5 18q-37 0 -57.5 -17.5t-28.5 -53.5q-7 -34 6 -52.5t50 -18.5zM577 0q-60 0 -91.5 20.5t-39.5 56t1 80.5q15 69 61 113.5t136 44.5q89 0 117 -44.5t13 -113.5q-14 -68 -61 -112.5t-136 -44.5zM595 86q37 0 57 18.5t27 52.5
q8 35 -4.5 53t-49.5 18q-36 0 -57 -17.5t-29 -53.5q-7 -34 6.5 -52.5t49.5 -18.5z" />
    <glyph glyph-name="ampersand" unicode="&#x26;" horiz-adv-x="718" 
d="M228 -11q-71 0 -117 19t-70.5 49t-31 65t0.5 67q9 44 33.5 80t59.5 59.5t73 29.5q-24 6 -39 23.5t-22 40t-8 44t2 34.5q7 32 27.5 63.5t54.5 57t81.5 40.5t107.5 15q65 0 113 -26t77 -87q9 -16 3 -25t-13 -14l-79 -52q-18 -9 -24 4q-13 26 -38 50t-64 24
q-28 0 -50.5 -8.5t-36.5 -23.5t-19 -37q-4 -17 3.5 -29t21.5 -18.5t31 -9.5q6 -1 12 -1.5l12 -1t11 -0.5q21 0 28 -1t5 -9l-22 -101q-2 -11 -7 -12t-12 -1h-45q-22 0 -44 -11t-38 -30.5t-22 -43.5q-4 -23 2.5 -44t28 -34.5t62.5 -13.5q34 0 68 16.5t64.5 44t51.5 59.5
l-59 35q-4 2 -6 6t8 14l71 84q8 11 13.5 12.5t12.5 -2.5l189 -108q8 -4 6.5 -9.5t-6.5 -11.5l-67 -85q-8 -10 -13.5 -13t-15.5 3l-34 20q-27 -40 -61.5 -75.5t-75.5 -62.5t-89.5 -42.5t-104.5 -15.5z" />
    <glyph glyph-name="quotesingle" unicode="'" horiz-adv-x="278" 
d="M145 441q-6 0 -9 4.5t0 17.5l39 217q2 17 7 21.5t18 4.5h76q16 0 18 -4.5t0 -14.5l-57 -228q-2 -11 -6.5 -14.5t-13.5 -3.5h-72z" />
    <glyph glyph-name="parenleft" unicode="(" horiz-adv-x="374" 
d="M270 -65q-2 -9 -7.5 -11.5t-34.5 -2.5q-80 0 -129 51.5t-62.5 141t10.5 201.5q11 52 33 106t53.5 104t71.5 89.5t87.5 62.5t101.5 23q29 0 33 -4t2 -12l-14 -67q-2 -10 -8.5 -9.5t-26.5 0.5q-37 0 -67 -21t-52.5 -55t-39 -73.5t-27 -77t-16.5 -64.5q-6 -30 -11.5 -69.5
t-5.5 -80.5t8.5 -76t29.5 -56.5t58 -21.5q23 0 25.5 -3.5t0.5 -11.5z" />
    <glyph glyph-name="parenright" unicode=")" horiz-adv-x="374" 
d="M-24 -65l13 63q2 8 7 11.5t27 3.5q37 0 67 21.5t53.5 56.5t40.5 76t28.5 80.5t17.5 69.5q6 27 11.5 64.5t6 77t-8 73.5t-29 55t-58.5 21q-19 0 -26 -0.5t-5 9.5l14 67q2 8 8 12t35 4q54 0 91.5 -23t60.5 -62.5t33.5 -89.5t9.5 -104t-12 -106q-18 -84 -52 -156t-80 -125.5
t-101.5 -83t-115.5 -29.5q-29 0 -33.5 2.5t-2.5 11.5z" />
    <glyph glyph-name="asterisk" unicode="*" horiz-adv-x="526" 
d="M293 382l-124 -118q-10 -10 -16 -12t-13 4l-44 46q-7 8 -6 13.5t13 15.5l121 111l-132 41q-11 4 -14 8.5t1 13.5l37 68q6 11 11 13t18 -3l130 -46l28 146q3 13 7 18t14 5h71q12 0 14 -4.5t-1 -18.5l-33 -147l150 46q14 5 18.5 3t5.5 -13l8 -68q1 -15 -23 -22l-148 -41
l73 -111q8 -10 7 -15.5t-12 -13.5l-64 -46q-9 -6 -14 -4t-11 12z" />
    <glyph glyph-name="plus" unicode="+" horiz-adv-x="505" 
d="M179 95q-10 0 -12 2t-1 10l33 155h-132q-9 0 -9.5 3t0.5 10l16 74q2 8 5 10.5t11 2.5h131l33 155q1 7 3.5 9.5t12.5 2.5h82q6 0 7 -2t-1 -12l-32 -153l143 -2q7 0 9 -2t0 -11l-16 -77q-1 -7 -3.5 -8.5t-11.5 -1.5l-143 2l-33 -156q-1 -8 -4 -9.5t-11 -1.5h-77z" />
    <glyph glyph-name="comma" unicode="," horiz-adv-x="219" 
d="M137 39q-5 -25 -21 -53.5t-34.5 -54.5t-32.5 -42q-8 -8 -16 -8h-26h-27q-7 0 -7 3.5t7 14.5q5 8 14 24t18.5 33.5t16.5 28.5q-21 3 -27.5 20t-3.5 33q6 26 25.5 43.5t57.5 17.5q29 0 46.5 -11.5t9.5 -48.5z" />
    <glyph glyph-name="hyphen" unicode="-" horiz-adv-x="400" 
d="M50 222q-10 0 -10.5 3t0.5 11l16 75q2 10 4.5 12.5t12.5 2.5h292q9 0 11 -2t0 -12l-17 -80q-1 -7 -3.5 -8.5t-13.5 -1.5h-292z" />
    <glyph glyph-name="period" unicode="." horiz-adv-x="228" 
d="M146 40q-7 -29 -24.5 -44t-62.5 -15q-39 0 -53.5 15t-7.5 44q6 29 26.5 44t59.5 15q45 0 56.5 -15t5.5 -44z" />
    <glyph glyph-name="slash" unicode="/" horiz-adv-x="596" 
d="M112 15q-6 -7 -11.5 -11t-15.5 -4h-102q-7 0 -7 5t6 12l573 678q8 8 11.5 9.5t10.5 1.5h97q11 0 11.5 -5t-19.5 -28z" />
    <glyph glyph-name="zero" unicode="0" horiz-adv-x="544" 
d="M535 336q-20 -94 -59.5 -172t-102.5 -124.5t-153 -46.5q-68 0 -109 26.5t-59 73.5t-17 109t16 134q21 96 60 174t101.5 124t153.5 46q68 0 108.5 -27t58.5 -74.5t17.5 -109.5t-15.5 -133zM374 336q23 111 15 167.5t-49 56.5q-42 0 -74.5 -55.5t-56.5 -168.5
q-24 -112 -15.5 -168t50.5 -56q41 0 73.5 56.5t56.5 167.5z" />
    <glyph glyph-name="one" unicode="1" horiz-adv-x="371" 
d="M122 0q-13 0 -9 14l104 490q2 6 -5 3l-89 -42q-11 -6 -15 3l-28 75q-6 17 8 24l200 99q8 4 12.5 5.5t11.5 1.5h75q17 0 14 -13l-138 -648q-2 -8 -5.5 -10t-11.5 -2h-124z" />
    <glyph glyph-name="two" unicode="2" horiz-adv-x="510" 
d="M1 0q-13 0 -15 2t0 12l16 77q2 9 5.5 14t10.5 9q52 29 109.5 67.5t109 84t88 92.5t46.5 92q6 27 0 49.5t-27.5 36t-63.5 13.5q-48 0 -86 -14t-62.5 -28t-34.5 -14q-9 0 -7 10l21 101q2 8 5.5 12t15.5 10q22 11 53.5 23t68 20.5t72.5 8.5q60 0 110 -23t75 -72.5t8 -127.5
q-10 -46 -35 -89.5t-62.5 -85.5t-86 -82t-104.5 -79q-2 -2 -1.5 -4.5t4.5 -2.5h204q9 0 8 -10l-19 -87q-2 -11 -4.5 -13t-15.5 -2h-406z" />
    <glyph glyph-name="three" unicode="3" horiz-adv-x="511" 
d="M187 -5q-43 0 -78 11.5t-62 32.5t-47 49q-5 8 -2.5 15t8.5 12l65 62q8 8 17 9t14 -6q20 -26 47.5 -42t64.5 -16q31 0 55 12.5t39 32.5t20 42q4 18 -3.5 38.5t-29.5 35t-64 14.5h-18h-22q-8 0 -12.5 4t-1.5 16l16 76q4 20 22 20h28h35q26 0 46.5 11.5t34.5 29t17 35.5
q4 17 -2.5 31.5t-24 23.5t-48.5 9q-34 0 -70 -16t-65 -40q-19 -16 -26 2l-31 82q-2 7 2.5 15.5t6.5 9.5q46 31 86 46.5t74 20.5t61 5q71 0 113.5 -25t58 -64.5t5.5 -83.5q-8 -37 -28.5 -67.5t-47 -51t-53.5 -27.5q-7 -1 -10.5 -2t-3.5 -2l13 -3q47 -9 73.5 -45t12.5 -98
q-11 -53 -49.5 -102.5t-98.5 -80.5t-137 -31z" />
    <glyph glyph-name="four" unicode="4" horiz-adv-x="538" 
d="M255 0q-14 0 -11 14l30 141q3 10 -7 10h-248q-15 0 -12 14l16 69q2 8 9.5 17.5t11.5 13.5l351 381q8 8 13 10.5t12 2.5h91q9 0 11.5 -3.5t0.5 -11.5l-81 -378q-1 -10 8 -10h56q9 0 8 -10l-18 -85q-3 -10 -12 -10h-56q-10 0 -13 -10l-30 -141q-3 -14 -17 -14h-113z
M188 270h101q11 0 12 10l35 166q2 5 0 5.5t-5 -3.5l-147 -168q-9 -10 4 -10z" />
    <glyph glyph-name="five" unicode="5" horiz-adv-x="516" 
d="M172 -5q-22 0 -52.5 6t-61 18.5t-52.5 33.5q-5 5 -8 11t2 12l73 87q7 9 13.5 7.5t12.5 -5.5q29 -19 48.5 -26.5t51.5 -7.5q12 0 32.5 4.5t42 15t39 30t23.5 49.5q9 42 -3.5 67.5t-38.5 37.5t-58 12q-12 0 -32.5 -1t-43.5 -4t-41 -9q-16 -5 -21.5 -5.5t-2.5 13.5l67 317
q2 8 4.5 11.5t11.5 3.5h326q6 0 9.5 -1t1.5 -9l-20 -94q-2 -12 -16 -12h-207q-9 0 -11 -11l-18 -86q-1 -6 0.5 -8t8.5 -2h11.5h11.5q84 0 134 -26t68 -73.5t4 -113.5q-11 -54 -41.5 -98.5t-74 -76.5t-93.5 -49.5t-100 -17.5z" />
    <glyph glyph-name="six" unicode="6" horiz-adv-x="567" 
d="M233 -11q-50 1 -92 18.5t-70 54.5t-36.5 96t9.5 143q14 66 49 132.5t89.5 122t126 89t159.5 33.5q8 0 26.5 -1.5t42.5 -7.5q11 -2 18 -8.5t2 -25.5l-8 -38l-8 -38q-2 -13 -5.5 -15.5t-16.5 2.5q-7 4 -36.5 7.5t-69.5 -1t-78 -26.5q-15 -9 -33 -22.5t-36 -30t-32.5 -34
t-22.5 -33.5q-3 -5 -2.5 -6.5t7.5 4.5q21 18 64.5 30t85.5 12q62 0 100.5 -19t57.5 -50.5t22 -70t-5 -78.5q-13 -61 -56 -116t-107.5 -89t-144.5 -34zM260 117q35 0 62.5 14.5t46.5 38t26 48.5t1 47.5t-26.5 36.5t-57.5 14q-24 0 -48 -9t-45.5 -23.5t-39.5 -31.5
q-9 -36 -0.5 -67t30 -49.5t51.5 -18.5z" />
    <glyph glyph-name="seven" unicode="7" horiz-adv-x="506" 
d="M63 0q-16 0 -20.5 1t-0.5 14q19 55 47.5 111t59 108t56.5 94q29 47 58 88t55 76.5t47 64.5h-6.5h-6.5h-242q-8 0 -10 1t-1 8l20 94q2 10 6 11.5t12 1.5h423q6 0 7.5 -1.5t-0.5 -11.5l-12 -58q-1 -5 -4 -11t-8 -14q-20 -22 -51 -61.5t-71.5 -96.5t-87.5 -133
q-24 -39 -50 -83.5t-48.5 -92.5t-38.5 -98q-4 -8 -12 -10t-14 -2h-107z" />
    <glyph glyph-name="eight" unicode="8" horiz-adv-x="543" 
d="M219 -6q-65 0 -114 28t-71.5 75.5t-10.5 106.5q10 48 44.5 91t77.5 61q5 2 8.5 3.5t7.5 2.5q-37 12 -46.5 48.5t-1.5 76.5q12 55 50.5 99t92 70t109.5 26q59 0 101.5 -26t62 -70t7.5 -99q-8 -40 -31 -74.5t-58 -51.5l4 -2t4 -3q29 -20 45.5 -60t5.5 -92
q-12 -59 -55.5 -106.5t-104.5 -75.5t-127 -28zM311 427q20 0 38 8t31 22t16 30q4 17 -3 30.5t-21.5 22t-34.5 8.5q-19 0 -37.5 -8.5t-31 -22t-16.5 -30.5q-3 -16 3.5 -30t21.5 -22t34 -8zM246 123q29 0 54.5 11.5t43 30.5t22.5 43t-4.5 43t-29.5 30.5t-49 11.5
q-27 0 -52.5 -11.5t-43.5 -30.5t-23 -43t4.5 -43t30 -30.5t47.5 -11.5z" />
    <glyph glyph-name="nine" unicode="9" horiz-adv-x="566" 
d="M242 222q-83 0 -125.5 33t-52 85t5.5 110q11 42 37 83t66 73.5t91 52t111 19.5q50 0 92 -17.5t70 -54.5t36.5 -96t-9.5 -143q-14 -66 -49 -132.5t-89.5 -122t-126.5 -89.5t-160 -34q-7 0 -26 2t-41 8q-11 2 -18.5 8.5t-3.5 25.5l17 76q2 13 5.5 15.5t15.5 -2.5
q16 -7 37.5 -8.5t33.5 -1.5q19 0 38 3t38.5 9.5t38.5 17.5q14 8 32.5 22.5t37 32.5t34 37.5t24.5 38.5q-29 -25 -73.5 -38t-86.5 -13zM348 551q-34 1 -62.5 -14.5t-47.5 -39t-24 -48.5q-6 -27 0 -49t26 -35t57 -13q36 0 70.5 19t56.5 48q12 45 4.5 74t-28.5 43.5t-52 14.5z
" />
    <glyph glyph-name="colon" unicode=":" horiz-adv-x="237" 
d="M155 40q-7 -29 -24.5 -44t-62.5 -15q-39 0 -53.5 15t-7.5 44q6 29 26.5 44t59.5 15q45 0 56.5 -15t5.5 -44zM230 432q-7 -29 -24.5 -44t-62.5 -15q-39 0 -53.5 15t-7.5 44q6 29 26.5 44t59.5 15q45 0 56.5 -15t5.5 -44z" />
    <glyph glyph-name="semicolon" unicode=";" horiz-adv-x="236" 
d="M238 433q-7 -29 -24.5 -44t-62.5 -15q-39 0 -53.5 15t-7.5 44q6 29 26.5 44t59.5 15q45 0 56.5 -15t5.5 -44zM137 39q-5 -25 -21 -54t-34.5 -54.5t-32.5 -41.5q-8 -8 -16 -8h-26h-27q-7 0 -7 3.5t7 14.5q5 8 14 24t18.5 33.5t16.5 28.5q-21 3 -27.5 20t-3.5 33
q6 26 25.5 43.5t57.5 17.5q29 0 46.5 -11.5t9.5 -48.5z" />
    <glyph glyph-name="less" unicode="&#x3c;" horiz-adv-x="487" 
d="M376 116l-301 148q-9 5 -12.5 8.5t-2.5 11.5l13 61q2 13 7.5 17.5t12.5 6.5l375 153q29 11 25 -11l-15 -74q-2 -8 -8 -12.5t-22 -11.5l-254 -103l214 -102q20 -10 19 -20l-17 -66q-1 -9 -8 -12.5t-26 6.5z" />
    <glyph glyph-name="equal" unicode="=" horiz-adv-x="510" 
d="M88 348q-10 0 -11 3.5t0 10.5l16 71q2 10 5 13t13 3h380q8 0 10.5 -2.5t0.5 -11.5l-16 -76q-1 -7 -3.5 -9t-13.5 -2h-381zM45 148q-10 0 -10.5 3t0.5 11l15 71q2 10 5 12.5t13 2.5h380q8 0 10.5 -2t0.5 -12l-16 -76q-1 -7 -3.5 -8.5t-13.5 -1.5h-381z" />
    <glyph glyph-name="greater" unicode="&#x3e;" horiz-adv-x="468" 
d="M44 113q-29 -11 -25 11l15 74q2 8 8 12.5t22 11.5l254 103l-214 102q-20 10 -19 20l17 66q2 9 8.5 12.5t25.5 -6.5l301 -148q9 -4 13 -8t2 -12l-13 -61q-2 -13 -7 -17.5t-13 -6.5z" />
    <glyph glyph-name="question" unicode="?" horiz-adv-x="463" 
d="M99 158q-10 0 -10.5 5.5t1.5 17.5q9 46 22 80.5t30.5 60t39 46.5t45.5 40q21 16 49 30.5t50 33t24 44.5q2 23 -14 32.5t-40 9.5q-32 0 -62 -7t-53.5 -16t-35.5 -15q-10 -4 -13.5 -6.5t-5.5 10.5l-11 83q-1 11 10 17.5t18 9.5q42 17 88 28t81 11q95 0 143 -42t31 -120
q-10 -49 -36.5 -79t-59.5 -50t-64 -40q-35 -22 -57 -48t-35 -55t-22 -63q-3 -12 -6 -15t-8 -3h-99zM53 40q6 29 26.5 44t59.5 15q45 0 57 -15t5 -44t-24.5 -44t-62.5 -15q-39 0 -53 15t-8 44z" />
    <glyph glyph-name="at" unicode="@" horiz-adv-x="849" 
d="M49 327q14 67 55 131.5t105 116.5t146 83t179 31q105 0 172.5 -26t103 -70t44 -99t-3.5 -112q-10 -50 -32.5 -95t-55 -79.5t-74 -54.5t-90.5 -20q-21 0 -38 5.5t-29.5 15t-19.5 21.5t-9 25q0 2 -1 2t-2.5 -1t-3.5 -4q-18 -23 -40 -36.5t-46 -19.5t-48 -6q-58 0 -93.5 25
t-45.5 67t6 93q22 70 65.5 124t101 85t120.5 31q59 0 98 -13t76 -40q9 -7 11.5 -15.5t-4.5 -19.5q-10 -20 -20.5 -40.5t-21.5 -40.5t-22.5 -43.5t-21 -46.5t-14.5 -42t-3.5 -30.5t11.5 -11.5q27 0 52.5 27t45.5 68.5t29 86.5q8 37 2 73.5t-30 66.5t-70 48t-119 18
q-67 0 -125.5 -23.5t-104 -63.5t-75 -88.5t-40.5 -99.5q-10 -47 -3 -91.5t32.5 -80t72.5 -56.5t117 -21q85 0 171.5 10.5t156.5 44.5q9 5 13.5 7t8.5 4q11 7 15.5 4.5t8.5 -8.5l23 -43q6 -12 -1.5 -18.5t-19.5 -13.5q-4 -2 -8.5 -4.5t-9.5 -4.5q-67 -34 -154.5 -49.5
t-218.5 -15.5q-100 0 -168.5 28t-107.5 75.5t-50 107t2 122.5zM536 416q6 11 13 21.5t9 14.5q-10 2 -22.5 4t-27.5 2q-28 0 -53.5 -15.5t-46 -40.5t-35 -53.5t-19.5 -54.5q-3 -17 -3.5 -31t5 -22.5t19.5 -8.5q21 0 39.5 14t38.5 41q16 19 37 53t46 76z" />
    <glyph glyph-name="A" unicode="A" horiz-adv-x="549" 
d="M-24 0q-10 0 -10 8t9 32q15 44 42 106.5t61 132.5t71 140t72.5 130.5t65.5 101.5q8 10 15 16t15 6h99q8 -3 12.5 -7.5t7.5 -14.5q13 -41 23.5 -101.5t18 -130.5t11.5 -140t4.5 -132.5t-2.5 -106.5q-1 -24 -5 -32t-15 -8h-118q-9 0 -11.5 5t-1.5 27t0.5 52t-0.5 49
q0 8 -1 9t-8 1h-154q-7 0 -8.5 -1t-4.5 -9q-7 -19 -20.5 -49t-21.5 -52q-9 -22 -13.5 -27t-13.5 -5h-119zM234 258h90q7 0 8 2.5t1 9.5q-1 40 -4 85.5t-6 79.5q2 9 -4 9h-4q-2 0 -8 -9q-10 -22 -24 -50t-28 -57.5t-27 -57.5q-3 -7 -2 -9.5t8 -2.5z" />
    <glyph glyph-name="B" unicode="B" horiz-adv-x="544" 
d="M495 195q-15 -71 -53 -114t-90 -62t-110 -19h-217q-6 0 -9.5 4t-2.5 10l137 644q3 15 18 15h177q50 0 93 -4.5t73.5 -21t42 -52t-1.5 -96.5q-4 -19 -17.5 -48t-35 -56t-50.5 -40q-6 -2 -5.5 -6.5t3.5 -6.5q29 -16 44 -58t4 -89zM334 196q9 41 2 60.5t-27 25t-51 5.5h-28
q-7 0 -8 -6l-36 -170q-1 -4 -0.5 -5.5t6.5 -1.5h40q17 0 37 5t38 24.5t27 62.5zM391 492q7 34 -2.5 50.5t-34 21.5t-62.5 5h-2q-7 0 -9 -9l-32 -149q-1 -7 7 -7h38q27 0 45.5 7.5t31.5 26.5t20 54z" />
    <glyph glyph-name="C" unicode="C" horiz-adv-x="476" 
d="M404 39q-6 -27 -39 -35q-16 -5 -37.5 -7.5t-40.5 -3.5t-29 -1q-123 0 -179 87.5t-20 255.5q36 170 126.5 257.5t218.5 87.5q10 0 28.5 -1.5t39 -4t33.5 -7.5q14 -4 21.5 -9t5.5 -16l-21 -99q-6 -31 -35 -7q-19 14 -42 20.5t-43 6.5q-37 0 -65.5 -16t-49 -45t-35 -68
t-24.5 -86q-7 -32 -11.5 -65.5t-3 -65t10.5 -56.5t28.5 -39.5t52.5 -14.5q24 0 49.5 6.5t41.5 15.5q26 14 33.5 13t3.5 -18z" />
    <glyph glyph-name="D" unicode="D" horiz-adv-x="587" 
d="M572 346q-19 -87 -51.5 -147.5t-73 -99.5t-83 -60.5t-82.5 -30t-71 -8.5h-186q-6 0 -9.5 4t-2.5 10l137 644q3 15 18 15h186q37 0 76 -6.5t72.5 -25t55.5 -54.5t27.5 -94.5t-13.5 -146.5zM422 346q13 64 12.5 104.5t-11.5 62.5t-28 31.5t-36.5 11t-36.5 1.5h-30
q-9 0 -10.5 -1t-3.5 -8l-89 -422q-1 -7 0 -8.5t7 -1.5h17q23 0 51.5 6t58.5 28t56 68.5t43 127.5z" />
    <glyph glyph-name="E" unicode="E" horiz-adv-x="458" 
d="M25 0q-6 0 -9.5 4t-2.5 10l137 644q3 15 18 15h340q14 0 16 -2t-1 -15l-17 -80q-3 -14 -7 -16.5t-16 -2.5h-194q-7 0 -7.5 -1t-2.5 -7l-31 -144q-1 -7 -0.5 -8t6.5 -1h150q15 0 16.5 -3t-1.5 -19l-15 -71q-3 -15 -6.5 -18t-17.5 -3h-150q-5 0 -7 -1t-3 -6l-31 -150
q-1 -6 -0.5 -7.5t6.5 -1.5h192q17 0 18.5 -3.5t-1.5 -18.5l-15 -72q-4 -16 -8.5 -19t-19.5 -3h-336z" />
    <glyph glyph-name="F" unicode="F" horiz-adv-x="450" 
d="M25 0q-6 0 -9.5 4t-2.5 10l137 644q3 15 18 15h340q14 0 16 -2t-1 -15l-17 -80q-3 -14 -7 -16.5t-16 -2.5h-194q-7 0 -8 -1t-2 -7l-31 -144q-1 -7 -0.5 -8t6.5 -1h150q15 0 17 -3t-2 -19l-15 -71q-3 -15 -6.5 -18t-17.5 -3h-150q-5 0 -6.5 -1t-3.5 -6l-53 -253
q-4 -16 -7.5 -19t-20.5 -3h-114z" />
    <glyph glyph-name="G" unicode="G" horiz-adv-x="580" 
d="M487 34q-3 -14 -23.5 -23t-52.5 -13t-71 -4q-183 0 -255.5 84.5t-37.5 247.5q23 109 81 188t140.5 121.5t176.5 42.5q43 0 82.5 -3t59.5 -11q15 -5 21 -8t3 -18l-17 -80q-4 -22 -15 -27t-21 2q-22 14 -46 21.5t-58 7.5q-27 0 -62.5 -9t-72 -33.5t-66 -69.5t-44.5 -118
q-13 -60 -9.5 -100t18 -64.5t35 -37t41.5 -16.5t37 -4q21 0 24 14l32 152q1 5 0 6t-6 1h-103q-11 0 -13.5 2t-0.5 14l17 81q2 12 6 15.5t16 3.5h239q17 0 19 -3.5t-2 -20.5z" />
    <glyph glyph-name="H" unicode="H" horiz-adv-x="610" 
d="M43 0q-7 0 -14 2t-6 12q4 36 12 90t19.5 117.5t24.5 129.5q13 60 26.5 117t28 106t29.5 84q2 7 10 11t14 4h60.5h60.5q11 0 6 -15q-8 -23 -19.5 -62t-24 -86.5t-25.5 -97.5q-2 -10 -1.5 -13t12.5 -3h83h83q8 0 12.5 3t6.5 13q8 50 15 97.5t12 86.5t7 62q1 8 4 11.5t8 3.5
h60.5h60.5q6 0 12.5 -4t5.5 -11q0 -35 -6.5 -85t-17 -107.5t-23.5 -117.5q-14 -65 -30 -128.5t-30.5 -116.5t-26.5 -89q-3 -10 -10.5 -12t-15.5 -2h-60.5h-60.5q-8 0 -4 14q8 24 17 53t18 62t18 69t17 72q2 8 0 10t-11 2h-85.5h-85.5q-9 0 -11.5 -2t-4.5 -10
q-7 -36 -13.5 -72t-11.5 -69t-8.5 -62t-5.5 -53q-1 -14 -10 -14h-60.5h-60.5z" />
    <glyph glyph-name="I" unicode="I" horiz-adv-x="271" 
d="M164 14q-3 -14 -18 -14h-120q-16 0 -13 14l137 644q3 15 19 15h120q6 0 10 -4t2 -11z" />
    <glyph glyph-name="J" unicode="J" horiz-adv-x="336" 
d="M270 184q-15 -70 -38.5 -110t-61.5 -57t-96 -17h-74q-10 0 -24 4t-12 15l18 85q3 14 13 13q11 -1 32.5 -2.5t31.5 -1.5q28 0 39 13t20 52l102 480q3 15 17 15h122q5 0 9.5 -4t2.5 -11z" />
    <glyph glyph-name="K" unicode="K" horiz-adv-x="566" 
d="M14 0q-4 0 -3 4q35 167 70.5 333t70.5 332q2 4 5 4h24h48h48h24q5 0 3 -4l-14 -66.5t-11.5 -53t-11.5 -53l-14 -66.5v-5.5t2 -2.5h2q2 0 5.5 3.5t6.5 7.5q28 38 48 64.5t37 48.5t37 48.5t48 64.5q8 9 13 11.5t11 2.5h23.5h46h46h23.5q12 0 8 -8t-19 -31q-39 -46 -72 -87
t-64 -84t-65 -96q-6 -9 -8 -16l-4 -14q-4 -19 -2.5 -40t7.5 -41.5t16 -39.5t23 -34q16 -20 39 -32.5t60 -12.5q2 0 5 -1t2 -3l-27 -128q-1 -5 -4 -5q-69 0 -113 10.5t-81 44.5q-15 14 -27 31.5t-21.5 38.5t-16.5 45.5t-12 52.5q-1 8 -4 11.5t-4 3.5h-1h-1l-1.5 -1t-3.5 -6
q-8 -39 -13.5 -65t-10.5 -48.5t-10.5 -48.5t-13.5 -65q-1 -4 -5 -4h-24h-48h-48h-24z" />
    <glyph glyph-name="L" unicode="L" horiz-adv-x="443" 
d="M26 0q-16 0 -13 14l137 644q3 15 19 15h116q12 0 14.5 -4t0.5 -15l-112 -529q-1 -6 -0.5 -7.5t7.5 -1.5h192q16 0 17.5 -3.5t-1.5 -18.5l-15 -72q-4 -16 -7.5 -19t-19.5 -3h-335z" />
    <glyph glyph-name="M" unicode="M" horiz-adv-x="711" 
d="M21 0q-16 0 -12 18q15 68 35.5 153t44.5 173.5t48.5 170t47.5 143.5q3 8 6.5 11.5t11.5 3.5h71q18 0 22 -11l46 -116t45 -117q3 -7 8 -7t9 4l194 236q5 8 10 9.5t15 1.5h70q13 0 11 -15q-4 -62 -13.5 -144t-23 -171t-28.5 -173.5t-29 -151.5q-2 -10 -7 -14t-18 -4h-115
q-14 0 -11 16q7 32 13.5 66.5t13 70t13 71.5t12 72t10.5 71q0 7 -3 6t-7 -6l-131 -151q-5 -5 -12 -5h-41q-7 0 -9 6l-62 146q-2 5 -5 5t-5 -6q-13 -43 -23 -79t-19.5 -74t-20.5 -85.5t-25 -113.5q-1 -7 -3.5 -8.5t-8.5 -1.5h-125z" />
    <glyph glyph-name="N" unicode="N" horiz-adv-x="642" 
d="M439 315q2 -4 7.5 -4t6.5 6q6 29 12 59.5t12 63.5t11.5 68.5t10 72.5t8.5 77q2 15 10 15h123q7 0 12.5 -4t5.5 -11q0 -37 -7 -89.5t-18.5 -113.5t-25.5 -124t-29 -123t-29 -110t-26 -84q-4 -10 -10.5 -12t-14.5 -2h-77q-8 0 -15 18l-163 346q-1 4 -4.5 4t-4.5 -5
q-12 -57 -20.5 -102.5t-15 -82t-11 -65.5t-7.5 -53.5t-5 -45.5q-1 -14 -11 -14h-120q-7 0 -14 2t-6 12q4 34 11 84t17.5 110t23 123t27 124t30 113.5t31.5 89.5q3 7 10.5 11t13.5 4h73q10 0 13 -10z" />
    <glyph glyph-name="O" unicode="O" horiz-adv-x="641" 
d="M59 334q23 109 63.5 186t110.5 117.5t181 40.5q86 0 136.5 -23t72 -67t20 -108t-18.5 -146q-23 -109 -62 -185.5t-109 -117t-185 -40.5q-111 0 -164 40.5t-60.5 117t15.5 185.5zM216 334q-19 -88 -16.5 -135.5t26 -66t66.5 -18.5t75 18t56.5 66t43.5 136q19 89 15 137
t-28.5 67t-67.5 19t-74 -19t-54 -67t-42 -137z" />
    <glyph glyph-name="P" unicode="P" horiz-adv-x="502" 
d="M523 453q-13 -64 -49 -118.5t-90.5 -87.5t-125.5 -33h-43q-5 0 -6.5 -2t-2.5 -7l-41 -191q-3 -14 -19 -14h-121q-6 0 -9.5 4t-2.5 10l137 644q3 15 18 15h177q119 0 160.5 -54t17.5 -166zM233 332q-1 -6 0 -7.5t6 -1.5h28q38 0 67 34t42 95q14 65 -3.5 91t-55.5 26h-27
q-4 0 -5.5 -1t-3.5 -8z" />
    <glyph glyph-name="Q" unicode="Q" horiz-adv-x="641" 
d="M58 332q24 110 64.5 187t110.5 118t181 41q86 0 136.5 -23t72 -67.5t20 -109t-19.5 -146.5q-18 -86 -45.5 -152t-71.5 -109.5t-112 -64.5q-8 -2 -16.5 -5t-16.5 -5q-5 -1 -9 -3.5t-5 -7.5q-4 -21 3 -32.5t22 -16t34 -4.5h53q17 0 13 -17l-15 -71q-3 -11 -6.5 -14
t-14.5 -6q-5 -1 -27 -1.5t-36 -0.5q-72 0 -115 19t-59 55t-9 87q2 8 -1 10t-10 3l-17.5 5t-24.5 10q-52 22 -75 65t-22 107.5t18 148.5zM216 334q-19 -88 -16.5 -135.5t26 -66t66.5 -18.5t75 18t56.5 66t43.5 136q19 89 14.5 137t-28.5 67t-67 19t-74 -19t-54 -67t-42 -137z
" />
    <glyph glyph-name="R" unicode="R" horiz-adv-x="561" 
d="M25 0q-6 0 -9.5 4t-2.5 10l137 644q3 15 18 15h177q79 0 124.5 -21t59 -67.5t-3.5 -124.5q-10 -50 -38 -96.5t-72 -79.5q-18 -15 -28.5 -27.5t-0.5 -32.5q5 -14 11 -27t14 -23t19 -18q13 -9 31 -14t45 -5q11 0 12.5 -2.5t-0.5 -14.5l-23 -107q-1 -6 -4 -8.5t-15 -3.5
t-40 -1q-42 0 -74.5 12t-57.5 33q-21 18 -36 42t-25 52.5t-15 60.5q-1 2 -2.5 12t-5.5 10h-6q-3 0 -4.5 -3.5t-3.5 -12.5l-41 -192q-3 -14 -19 -14h-121zM236 350q-1 -8 7 -8h27q38 0 67 32.5t40 84.5q10 46 4.5 69.5t-22.5 32t-42 8.5h-27q-4 0 -5.5 -1t-3.5 -8z" />
    <glyph glyph-name="S" unicode="S" horiz-adv-x="495" 
d="M3 40l20 93q2 8 7 8.5t17 -4.5q18 -6 44.5 -11.5t52.5 -8.5t42 -3q47 0 77 26t37 57q5 22 -4 39.5t-27.5 30t-43.5 19.5q-22 6 -51.5 17t-55 32t-37.5 57t0 92q15 70 56.5 112.5t97.5 62t114 19.5q21 0 47.5 -4.5t52 -12t43.5 -16.5q8 -2 9.5 -6t-0.5 -11l-18 -86
q-7 -31 -39 -10q-12 9 -28 16t-36 11.5t-43 4.5q-39 0 -67 -20.5t-33 -45.5q-7 -30 7.5 -48t40 -28t53.5 -17t49 -16q26 -10 43.5 -24.5t27 -36t10.5 -50.5t-7 -68q-16 -76 -59.5 -124t-105.5 -71t-134 -23q-31 0 -69.5 6t-67.5 17q-15 5 -19.5 10t-2.5 15z" />
    <glyph glyph-name="T" unicode="T" horiz-adv-x="463" 
d="M120 0q-5 0 -9 4t-3 10l114 536q1 5 0 6t-6 1h-114q-13 0 -14.5 2.5t-0.5 11.5l19 89q2 8 5 10.5t14 2.5h397q12 0 14.5 -2.5t0.5 -10.5l-19 -89q-1 -9 -5 -11.5t-17 -2.5h-114q-6 0 -7 -1t-2 -6l-114 -536q-3 -14 -17 -14h-122z" />
    <glyph glyph-name="U" unicode="U" horiz-adv-x="635" 
d="M265 -9q-69 0 -112.5 13t-66.5 34.5t-32 47t-9.5 50t1.5 43.5q4 38 11 80.5t14 74.5q10 46 24 103.5t31.5 116t36.5 108.5q2 7 8 9t14 2h55.5h55.5q11 0 11 -3.5t-6 -24.5q-12 -40 -23.5 -81t-22.5 -83q-19 -74 -34 -142t-23 -136q-4 -25 -1 -42.5t11 -28.5t20 -16.5
t27 -7.5t31 -2q21 0 40.5 3.5t37 13.5t31.5 29.5t23 50.5q19 68 33 136t27 142q8 42 13.5 83t10.5 81q3 21 4.5 24.5t13.5 3.5h58h58q9 0 14 -2t4 -9q-2 -50 -10 -108.5t-18 -116t-20 -103.5q-7 -32 -17 -74.5t-23 -80.5q-8 -24 -23.5 -55.5t-47.5 -62t-87.5 -50.5
t-142.5 -20z" />
    <glyph glyph-name="V" unicode="V" horiz-adv-x="571" 
d="M187 0q-7 3 -12 7t-9 14q-13 41 -23 101.5t-17.5 130.5t-11.5 140.5t-4.5 132.5t2.5 106q2 24 5.5 32.5t13.5 8.5h118q9 0 12 -5t2 -27q-1 -27 -1 -51.5t1 -47t2 -45.5t2 -47.5t2 -51.5q2 -34 5.5 -79t5.5 -82q2 -10 3.5 -10.5t7.5 9.5q20 35 42 81.5t40 80.5
q12 27 23 51.5t22 47.5t21.5 45.5t21 47t20.5 51.5q8 22 13 27t14 5h119q10 0 9.5 -8.5t-8.5 -32.5q-13 -37 -34 -86.5t-47.5 -106.5t-56 -116t-60.5 -115t-60 -104t-55 -83q-8 -10 -14.5 -14t-14.5 -7h-99z" />
    <glyph glyph-name="W" unicode="W" horiz-adv-x="865" 
d="M189 0q-16 0 -20.5 5.5t-6.5 12.5q-13 41 -23.5 102t-18 132t-11.5 144t-4 139.5t4 116.5q1 10 4 15.5t13 5.5h118q9 0 11.5 -3t2.5 -14q0 -44 -0.5 -79.5t0.5 -75.5t3 -99q1 -17 2 -42t2.5 -51t3.5 -47t4 -30q1 -2 2 -6t2 -4h2q2 0 3.5 3.5t5.5 7.5q8 10 18.5 27.5
t22 38.5t22 44.5t20.5 46.5t17 44q11 32 20.5 65.5t17 64.5t12.5 54t8 34q2 9 4 15t13 6h119q8 0 10.5 -3t0.5 -14q-15 -78 -22.5 -148.5t-6.5 -137t11 -132.5q2 -9 2.5 -12.5t1.5 -3.5h1h1q3 0 5 6q22 39 42.5 80.5t37 75.5t23.5 49q17 36 44.5 94.5t53.5 124.5
q5 14 9 17.5t10 3.5h122q18 0 7 -24q-16 -34 -38.5 -84t-50 -109t-57.5 -121t-60 -121t-59 -108.5t-55 -84.5q-2 -4 -10 -12.5t-17 -8.5h-29.5h-42h-29.5q-7 0 -12.5 7t-7.5 14q-6 22 -12.5 48.5t-12 59.5t-10.5 73q-1 8 -5 9.5t-9 -7.5q-15 -29 -34.5 -64t-39 -66.5
t-34.5 -52.5q-6 -9 -14.5 -15t-13.5 -6h-93z" />
    <glyph glyph-name="X" unicode="X" horiz-adv-x="580" 
d="M451 361q-11 -14 -12 -23.5t4 -23.5l7.5 -16.5t6.5 -15.5q15 -39 27 -76t20.5 -70t13 -60.5t5.5 -48.5q0 -16 -8.5 -21.5t-19.5 -5.5h-122q-7 0 -10.5 3t-5.5 18q-2 18 -7 41.5t-11.5 49.5t-14 51t-14 46t-11.5 35q-2 8 -5 8.5t-9 -8.5q-17 -22 -35 -46t-35.5 -47.5
t-33 -46.5t-29 -44t-23.5 -39q-5 -13 -9.5 -17t-14.5 -4h-120q-13 0 -18.5 5.5t2.5 21.5q3 6 12.5 24.5t27.5 47.5t44.5 67t62.5 83q11 14 26 32.5t28 32.5q5 5 9.5 23t1.5 24q-21 50 -36 91t-24 75t-12 63t-2 55q1 17 9.5 22.5t18.5 5.5h119q10 0 13.5 -2.5t2.5 -10.5
l1 -13.5t4 -36.5t8.5 -52t14.5 -59.5t23 -59.5q2 -2 3 -3.5t2 -6.5q2 -5 5 -3t4 4q5 5 4.5 5t3.5 4q26 28 48.5 58.5t40 59.5t30.5 52t19.5 37l6.5 14q5 8 9 10.5t14 2.5h121q9 0 15.5 -5.5t-0.5 -22.5q-10 -26 -31 -60t-48 -72t-57 -77t-60 -75z" />
    <glyph glyph-name="Y" unicode="Y" horiz-adv-x="553" 
d="M371 275q-7 -8 -13 -22.5t-8 -25.5l-45 -213q-1 -6 -6.5 -10t-10.5 -4h-123q-6 0 -9.5 4t-2.5 10l45 213q6 27 -3 54.5t-16 43.5q-2 6 -9.5 25t-16.5 42t-16 42.5t-9 25.5q-16 52 -23.5 91t-9 63.5t-1.5 30.5q0 17 9 22.5t20 5.5h118q9 0 12 -3t4 -11q3 -34 7 -60
t8.5 -45.5t8.5 -32.5q8 -27 14.5 -46.5t12.5 -35.5q5 -11 8.5 -12t13.5 12q5 6 10.5 12t13 15.5t17.5 23.5q11 15 29.5 41.5t39 60.5t35.5 69q4 8 8.5 10t14.5 2h123q8 0 13.5 -5.5t-1.5 -22.5q-2 -6 -14.5 -32.5t-36.5 -68t-63 -93.5q-9 -13 -27.5 -35.5t-40.5 -49.5
t-43.5 -51t-36.5 -40z" />
    <glyph glyph-name="Z" unicode="Z" horiz-adv-x="485" 
d="M531 673q7 0 9 -2t0 -13l-12 -57q-4 -21 -30.5 -50.5t-62.5 -64.5q-27 -26 -55.5 -58t-58 -68.5t-59 -76.5t-57 -82t-52.5 -85h278q13 0 15 -3t0 -12l-18 -88q-2 -9 -5.5 -11t-15.5 -2h-406q-25 0 -28 15t6 42q12 36 33 77.5t48.5 86t60 90t68 89t71 83.5t68.5 74h-215
q-14 0 -16 3t-1 10l19 90q2 8 5.5 10.5t16.5 2.5h394z" />
    <glyph glyph-name="bracketleft" unicode="[" horiz-adv-x="367" 
d="M247 -94q-3 -15 -15 -15h-257q-10 0 -13 4t-1 15l174 818q4 18 21 18h252q12 0 14.5 -1.5t0.5 -9.5l-14 -67q-1 -7 -5.5 -8.5t-12.5 -1.5h-128l-144 -679h129q9 0 11.5 -2t0.5 -11z" />
    <glyph glyph-name="backslash" unicode="\" horiz-adv-x="603" 
d="M420 0q-8 0 -12.5 4t-7.5 11l-274 658q-10 23 -7.5 28t12.5 5h97q9 0 11.5 -1.5t6.5 -9.5l286 -678q4 -7 1.5 -12t-11.5 -5h-102z" />
    <glyph glyph-name="bracketright" unicode="]" horiz-adv-x="367" 
d="M-11 -109q-12 0 -9 15l13 60q2 9 5.5 11t12.5 2h129l144 679h-128q-8 0 -11.5 1.5t-2.5 8.5l14 67q2 8 5.5 9.5t15.5 1.5h252q17 0 13 -18l-174 -818q-2 -11 -7 -15t-15 -4h-257z" />
    <glyph glyph-name="asciicircum" unicode="^" horiz-adv-x="667" 
d="M86 395q-17 0 -20 5t8 15l275 276q7 7 14 11t28 4h94q14 0 18 -4.5t7 -13.5l157 -269q11 -15 4 -19.5t-21 -4.5h-111q-13 0 -23 17l-105 185l-183 -183q-11 -11 -18 -15t-20 -4h-104z" />
    <glyph glyph-name="underscore" unicode="_" horiz-adv-x="576" 
d="M-52 -114q-9 0 -9.5 3t0.5 11l9 42q2 10 4.5 13t11.5 3h529q8 0 10.5 -2.5t0.5 -12.5l-10 -47q-1 -7 -4 -8.5t-15 -1.5h-527z" />
    <glyph glyph-name="grave" unicode="`" horiz-adv-x="222" 
d="M210 525q-15 0 -29 14l-94 92q-4 4 -1 9.5t8 5.5h105q12 0 17 -3t10 -11l53 -89q11 -18 -2 -18h-67z" />
    <glyph glyph-name="a" unicode="a" horiz-adv-x="479" 
d="M189 -6q-100 0 -144 57t-16 178q17 76 46 124t65.5 75t75 37.5t75.5 10.5q21 0 37 -7t21 -14l2 6q3 8 7 9.5t12 1.5h112q16 0 15 -14q-4 -25 -13 -68t-21 -93.5t-24.5 -100t-24.5 -88.5t-20 -56q-6 -13 -13.5 -19.5t-33.5 -14.5q-19 -7 -63 -15.5t-95 -8.5zM216 106
q9 0 17 1t15 2.5t11 2.5q5 1 7.5 4t4.5 10q5 21 10.5 42t10.5 41.5l10 41t9.5 40t9.5 38.5q2 7 0 11t-7 5q-7 2 -18.5 5.5t-21.5 3.5t-23 -4.5t-26 -17t-25 -37.5t-21 -67q-16 -70 -3.5 -96t40.5 -26z" />
    <glyph glyph-name="b" unicode="b" horiz-adv-x="480" 
d="M187 -6q-52 0 -92 8.5t-56 15.5q-15 5 -22 9.5t-8.5 10.5t-2.5 14q-1 19 4 57.5t13 80.5t15 73q27 128 58.5 241t59.5 193q3 8 9 9.5t14 1.5h109q17 0 16.5 -5t-6.5 -22q-7 -18 -14 -38.5t-14 -42t-13.5 -43t-12 -42t-9.5 -38.5q-2 -8 2.5 -9t9.5 0q9 2 24.5 5t25.5 3
q37 0 71 -10.5t58 -37.5t31.5 -75t-8.5 -124q-25 -121 -94 -178t-168 -57zM210 106q18 0 35 11t31 38t24 73q9 42 8 67t-8 37.5t-17 17t-20 4.5q-7 0 -16 -1.5t-18 -4t-17 -5.5q-4 -1 -5 -3t-3 -8q-6 -26 -11 -51.5t-10 -51.5t-10 -51.5t-10 -51.5q-1 -5 -0.5 -7.5t2.5 -4.5
q8 -3 19.5 -5.5t25.5 -2.5z" />
    <glyph glyph-name="c" unicode="c" horiz-adv-x="418" 
d="M197 -5q-66 0 -105 19t-55.5 52.5t-16.5 77.5t10 93q10 46 29 89t50.5 77.5t78 54.5t111.5 20q44 0 75 -9t53 -30q7 -8 8.5 -12t-0.5 -12l-17 -83q-1 -9 -7.5 -9.5t-11.5 3.5q-22 22 -48.5 28t-56.5 6q-22 0 -41.5 -10t-35 -27.5t-26 -39.5t-15.5 -47q-8 -41 -4 -70.5
t19 -44.5t40 -15q21 0 43.5 6t53.5 19q22 9 26 -9l13 -64q2 -9 -0.5 -14t-11.5 -10q-31 -20 -74.5 -29.5t-83.5 -9.5z" />
    <glyph glyph-name="d" unicode="d" horiz-adv-x="482" 
d="M29 229q18 76 47 124t64.5 75t74 37.5t75.5 10.5q11 0 25.5 -3t23.5 -5q5 -1 9.5 0t6.5 9q4 18 7 36.5t5.5 36.5t4.5 36.5l4 37t4 36.5q1 20 5.5 23.5t15.5 3.5h110q8 0 13 -1.5t4 -9.5q-3 -37 -11.5 -91.5t-20 -118.5t-24.5 -128.5t-27 -122.5t-27 -101t-24 -62
q-6 -13 -13.5 -19.5t-33.5 -14.5q-19 -7 -63 -15.5t-96 -8.5q-39 0 -70 8.5t-52 25.5q-34 27 -44 77t7 124zM179 228q-16 -70 -3.5 -96t40.5 -26q9 0 17.5 1t16.5 3t15 4q2 2 3.5 4.5t2.5 7.5q5 21 10.5 41.5t10.5 41l10 41l10 41t10 41.5q2 6 1 8t-5 3q-10 4 -22 7.5
t-22 3.5t-23 -4.5t-26 -17t-25 -37.5t-21 -67z" />
    <glyph glyph-name="e" unicode="e" horiz-adv-x="480" 
d="M30 237q10 46 29 89t50.5 77.5t78 54.5t111.5 20q67 0 103 -18.5t50 -49t13 -67t-9 -72.5q-9 -43 -23 -58t-35 -15h-215q-7 0 -8 -2.5t-3 -9.5q-3 -24 5.5 -44t28 -32t49.5 -12q35 0 66.5 11t43.5 17q16 8 23.5 9.5t12.5 -16.5l14 -47q5 -14 0.5 -18.5t-18.5 -12.5
q-40 -25 -95 -35.5t-105 -10.5q-67 0 -105.5 19t-55 52.5t-16.5 77.5t10 93zM313 295q4 19 3 32.5t-6.5 22.5t-15 13.5t-23.5 4.5q-16 0 -28.5 -6t-22 -16t-16.5 -22t-12 -24q-5 -16 -4.5 -20.5t4.5 -4.5h54.5h54.5q7 0 8.5 3.5t3.5 16.5z" />
    <glyph glyph-name="f" unicode="f" horiz-adv-x="379" 
d="M-63 -230q-34 0 -51 5.5t-16 5.5q-11 5 -7 21q1 4 4.5 19.5t6.5 31t4 18.5q2 9 4.5 9t8.5 -2q15 -6 25.5 -6.5t26.5 -0.5q35 0 60.5 22t36.5 77q13 69 20 116.5t12.5 86.5t12.5 81.5t19 100.5q3 11 -7 11h-20h-19q-7 0 -10.5 2t-1.5 13q5 19 9 37t8 37q2 14 6.5 15.5
t14.5 1.5h30h9q8 0 9 8q6 43 21 83t48 77q28 31 77 51.5t123 20.5q32 0 57 -9.5t38 -17.5q12 -7 14 -12.5t-3 -14.5q-8 -16 -17 -31.5t-17 -31.5q-7 -13 -11.5 -15t-10.5 3q-13 10 -34.5 17.5t-44.5 7.5q-28 0 -50 -18t-33 -53q-3 -10 -7 -29t-6 -27q-2 -9 6 -9h42.5h73.5
q8 0 10.5 -2.5t-0.5 -16.5q-1 -5 -6 -29t-9 -42q-1 -11 -5.5 -13.5t-15.5 -2.5h-42h-28h-42q-2 0 -6 -2.5t-5 -7.5q0 -4 -3 -16.5t-5.5 -25.5t-3.5 -18q-9 -44 -14.5 -76.5t-10.5 -65t-11.5 -75t-18.5 -107.5q-17 -97 -73 -149.5t-172 -52.5z" />
    <glyph glyph-name="g" unicode="g" horiz-adv-x="483" 
d="M31 242q15 68 45.5 121.5t85.5 84t143 30.5q40 0 77 -6.5t64 -17.5q26 -10 28.5 -21.5t0.5 -38.5q-8 -85 -27.5 -177t-48.5 -175q-30 -87 -94 -128t-159 -41q-38 0 -81 11t-78 41q-3 3 -5 11t5 16q4 5 12.5 16t17.5 22t13 16q11 14 16 15t15 -7q8 -7 26 -15t37.5 -14
t30.5 -6q12 0 29.5 3t34 13t24.5 32q0 1 0.5 2t1.5 2q2 7 0.5 12.5t-11.5 3.5q-5 -1 -16.5 -1.5t-22.5 -0.5q-51 0 -94 20.5t-63.5 64.5t-6.5 112zM190 267q-7 -33 -7.5 -59.5t10 -41.5t35.5 -15q11 0 21.5 1t19.5 5q6 2 9.5 6.5t5.5 12.5q5 17 10.5 43t11 53.5t9.5 49.5
t5 32q2 5 1 12.5t-4 8.5q-7 4 -15.5 6t-24.5 2q-36 0 -56 -32.5t-31 -83.5z" />
    <glyph glyph-name="h" unicode="h" horiz-adv-x="464" 
d="M-7 14l72 340t73 340q2 14 18 14h58.5h58.5q14 0 12 -14q-12 -53 -23.5 -107t-22.5 -107q-2 -9 2 -10t9 1t25.5 5t36.5 3q48 0 78 -14t44 -42t14.5 -71.5t-10.5 -102.5q-7 -43 -19 -87.5t-25 -84t-24 -66.5q-2 -7 -7.5 -9t-13.5 -2h-54h-54q-18 0 -18.5 3.5t7.5 23.5
q13 38 24.5 80t21.5 83q9 39 15.5 72t5.5 58t-11.5 38.5t-36.5 13.5q-5 0 -10.5 -1t-10.5 -3q-6 -2 -10.5 -7.5t-6.5 -13.5l-71 -333q-3 -14 -17 -14h-117q-16 0 -13 14z" />
    <glyph glyph-name="i" unicode="i" horiz-adv-x="215" 
d="M266 601q-7 -34 -26 -51.5t-65 -17.5q-44 0 -56.5 17.5t-5.5 51.5q6 29 26.5 47.5t64.5 18.5q49 0 58.5 -18.5t3.5 -47.5zM138 14q-3 -14 -18 -14h-117q-14 0 -11 14l94 444q4 14 17 14h117q6 0 10 -4t2 -10z" />
    <glyph glyph-name="j" unicode="j" horiz-adv-x="226" 
d="M-37 -126q-28 0 -54 6t-43 17q-16 11 -17.5 16.5t6.5 15.5l36 49q6 8 11.5 7t12.5 -5q16 -10 30 -8q16 2 35.5 20.5t26.5 51.5l88 414q4 14 17 14h117q6 0 10 -4t2 -10l-88 -414q-16 -79 -59.5 -124.5t-130.5 -45.5zM183 532q-44 0 -56.5 17.5t-5.5 51.5q6 29 26.5 47.5
t64.5 18.5q49 0 58.5 -18.5t3.5 -47.5q-7 -34 -26 -51.5t-65 -17.5z" />
    <glyph glyph-name="k" unicode="k" horiz-adv-x="456" 
d="M-9 4l142 670q1 4 5 4h139q4 0 3 -4l-74 -351q-1 -2 -1.5 -6.5t0.5 -4.5q2 0 5 2t4 3q8 7 13 11.5t13 14.5q17 20 29.5 36.5t24.5 35t27 43.5q7 11 13 12.5t20 1.5h118q10 0 8.5 -6.5t-3.5 -10.5q-3 -5 -15.5 -24t-32 -45.5t-43.5 -55t-50 -53.5q-6 -5 -9 -8l-7 -7
q1 -1 5 -3t5 -4q14 -17 26 -46.5t22 -63.5t17.5 -64.5t11.5 -50.5t5 -22q2 -8 -5 -8h-23.5h-45.5h-45.5h-23.5q-4 0 -5 0.5t-3 6.5l-7 21t-16.5 50.5t-17.5 55t-11 34.5q-2 8 -6.5 18t-9.5 16t-11 -1q-3 -3 -6 -16l-38 -181q-1 -4 -5 -4h-139q-4 0 -3 4z" />
    <glyph glyph-name="l" unicode="l" horiz-adv-x="220" 
d="M-7 14l145 680q4 14 18 14h115q18 0 14 -14l-145 -680q-3 -14 -19 -14h-115q-16 0 -13 14z" />
    <glyph glyph-name="m" unicode="m" horiz-adv-x="715" 
d="M500 363q-7 0 -23.5 -2t-18.5 -14l-2 -9q-15 -73 -29.5 -139.5t-24.5 -114t-14 -64.5q-1 -6 -4 -13t-11 -7h-130q-7 0 -5 7l53 246q6 30 6 56.5t-16 42.5q-7 7 -16.5 9t-18.5 2q-7 0 -20.5 -2t-15.5 -15l-70 -326q-1 -6 -4.5 -13t-8.5 -7h-120q-4 0 -10 2.5t-4 12.5
l87 407q2 10 8.5 15.5t19.5 9.5q22 7 51 13.5t55 11t37 4.5q65 0 98.5 -9.5t58.5 -28.5q24 12 44.5 20.5t41 13t44.5 4.5q80 0 116.5 -30.5t43 -81.5t-7.5 -114q-11 -51 -21 -89t-22 -74t-28 -82q-2 -5 -10 -5h-124q-7 0 -8 4t3 17q10 33 20.5 71.5t20.5 80t18 81.5
q2 11 4.5 29t0 36.5t-12 31t-31.5 12.5z" />
    <glyph glyph-name="n" unicode="n" horiz-adv-x="464" 
d="M7 0q-4 0 -10 2.5t-4 12.5q22 102 43.5 203.5t43.5 203.5q2 12 11 17t34 13q13 4 40 9.5t58 10t55 4.5q63 0 100 -18t53.5 -49.5t17 -72t-9.5 -86.5q-7 -34 -16.5 -72.5t-20.5 -77t-23 -72.5q-7 -21 -12 -24.5t-21 -3.5h-111q-10 0 -7 11q1 5 7.5 29t15 57.5t17.5 67
t15 57t7 26.5q12 51 9 75.5t-16 32t-33 7.5h-14t-9 -1q-8 -1 -12.5 -8t-7.5 -20q-15 -73 -32 -152.5t-35 -161.5q-1 -6 -3.5 -13t-10.5 -7h-119z" />
    <glyph glyph-name="o" unicode="o" horiz-adv-x="506" 
d="M201 -8q-67 0 -106.5 18.5t-57 52.5t-17.5 79t11 97q15 69 47 123.5t87.5 86t139.5 31.5t126 -31.5t51.5 -86t-5.5 -123.5t-45.5 -125t-86 -89t-144.5 -33zM223 103q41 0 65 34.5t37 97.5q13 62 1.5 94t-49.5 32q-37 0 -61.5 -32t-37.5 -94q-13 -64 -4 -98t49 -34z" />
    <glyph glyph-name="p" unicode="p" horiz-adv-x="488" 
d="M-22 -96q2 29 15.5 105t41.5 203q7 32 16.5 74t21 80.5t20.5 57.5q5 12 13.5 19t33.5 15q19 6 62.5 14.5t95.5 8.5q99 0 143.5 -56.5t18.5 -177.5q-14 -66 -39 -112.5t-56 -75.5t-64 -45q-21 -9 -46 -14.5t-49.5 -7t-44.5 0.5q-10 1 -15 2t-7 -7q-2 -7 -5 -21.5t-5 -28
t-2 -17.5q-1 -16 -3 -21.5t-19 -5.5h-109q-9 0 -14 1.5t-4 8.5zM171 144q-1 -6 -0.5 -8.5t4.5 -3.5q10 -4 22.5 -7t22.5 -3t22 4.5t25 17t24 37.5t20 67q10 47 7 73t-15 37t-30 11q-14 0 -27 -2t-22 -6q-2 -1 -3.5 -4t-2.5 -8q-5 -20 -10 -40.5t-9.5 -41t-9 -41.5t-9 -41.5
t-9.5 -40.5z" />
    <glyph glyph-name="q" unicode="q" horiz-adv-x="483" 
d="M84 14q-20 12 -35 31t-23.5 47t-7 66.5t14.5 88.5q31 121 102.5 177.5t171.5 56.5q52 0 92.5 -8.5t56.5 -14.5q20 -8 24.5 -15t5.5 -19q1 -14 -6.5 -53t-20.5 -92t-28 -111.5t-30 -112.5t-27.5 -94t-19.5 -57q-4 -7 -9.5 -8.5t-13.5 -1.5h-110q-16 0 -14 5.5t7 21.5
q1 4 5.5 17.5t8.5 28t5 21.5q2 8 -4 7t-18 -2q-31 -3 -67.5 2t-59.5 19zM183 248q-11 -42 -11.5 -67t5.5 -37.5t16.5 -17t20.5 -4.5t25 3t27 7q4 1 5.5 3.5t2.5 8.5q6 20 11 40.5t10 41.5t10 41.5t9.5 41t9.5 40.5q2 5 2 8t-2 4q-8 4 -20 6t-26 2q-27 0 -51.5 -25.5
t-43.5 -95.5z" />
    <glyph glyph-name="r" unicode="r" horiz-adv-x="361" 
d="M255 476q80 0 128 -24q11 -5 11 -9.5t-3 -11.5l-35 -71q-4 -9 -8 -10.5t-13 1.5q-16 5 -36.5 7.5t-29.5 2.5q-16 0 -24.5 -1t-13 -2.5t-8.5 -3.5q-5 -3 -9.5 -6.5t-7.5 -17.5l-65 -306q-4 -16 -9 -20t-16 -4h-112q-5 0 -9 3.5t-1 16.5l85 397q3 16 7.5 20.5t16.5 9.5
q33 14 76.5 21.5t75.5 7.5z" />
    <glyph glyph-name="s" unicode="s" horiz-adv-x="415" 
d="M18 127q5 13 12.5 11.5t13.5 -6.5q15 -9 36.5 -15t44 -9t41.5 -3q18 0 32 3.5t24 11t14 20.5q2 8 -0.5 15.5t-19 15t-56.5 14.5q-19 3 -41.5 10.5t-41 23.5t-27 44t0.5 73q10 46 43.5 77t82.5 47.5t104 16.5q17 0 42.5 -4t51 -12.5t41.5 -23.5q9 -7 9 -11t-5 -12l-42 -73
q-7 -14 -23 -7q-14 8 -31 16t-34.5 13.5t-32.5 5.5q-27 0 -44 -7.5t-20 -21.5q-2 -11 3.5 -19.5t18.5 -13t32 -5.5q18 -1 43 -9t47 -24t33.5 -44t2.5 -70q-13 -61 -51 -96t-85.5 -49.5t-91.5 -14.5q-19 0 -48.5 4t-58 13.5t-46.5 24.5q-9 7 -5 17z" />
    <glyph glyph-name="t" unicode="t" horiz-adv-x="369" 
d="M185 0q-70 0 -98 29t-29 81q1 42 9.5 85.5t17.5 86.5q6 28 10 47t11 44q3 10 -7 10h-38q-9 0 -11 2t0 14l12 56q3 14 6 15.5t15 1.5h39q8 0 10.5 4.5t4.5 14.5l19 71q4 14 17 14h114q6 0 10.5 -4t2.5 -10l-20 -72q-4 -13 -3 -15.5t7 -2.5h73q12 0 13.5 -2.5t-1.5 -16.5
l-11 -53q-2 -11 -6.5 -14t-15.5 -3h-72q-7 0 -10 -3.5t-5 -11.5q-5 -23 -11 -47.5t-13 -50.5q-7 -33 -12 -66.5t-4 -63.5q1 -16 9.5 -22.5t20.5 -6.5q11 0 22 3.5t18 5.5q14 8 17 5t5 -14l5 -69q4 -14 -36 -28q-13 -4 -27 -7.5t-28.5 -5t-29.5 -1.5z" />
    <glyph glyph-name="u" unicode="u" horiz-adv-x="463" 
d="M194 -4q-63 0 -100.5 18t-54 49.5t-17 72t9.5 86.5q8 35 17.5 73t21 76.5t22.5 72.5q7 21 12 24.5t21 3.5h94q15 0 22 -0.5t0 -20.5q-1 -4 -8 -29t-16.5 -61.5t-19 -74.5t-15.5 -68q-13 -59 -4 -84t43 -25q4 0 10.5 0.5t12.5 1.5t11 4.5t6 9.5l70 327q2 6 4 13t9 7h120
q4 0 9.5 -2t3.5 -13l-87 -407q-2 -12 -10.5 -17t-33.5 -13q-13 -4 -40 -9.5t-57.5 -10t-55.5 -4.5z" />
    <glyph glyph-name="v" unicode="v" horiz-adv-x="429" 
d="M128 0q-8 0 -11 6q-19 41 -28 89t-17 95q-13 80 -16 138t-2 104q1 17 4 28.5t14 11.5h123q8 0 11.5 -5t2.5 -10q-4 -28 -4.5 -56.5t-0.5 -68.5v-51.5t1 -39t2 -35.5q1 -10 6.5 -9.5t9.5 9.5q9 17 18.5 39.5t26.5 62.5q17 44 33 87t24 71q3 5 6 5h132q6 0 4 -7
q-25 -68 -56.5 -137.5t-72.5 -140.5q-24 -43 -53.5 -87.5t-67.5 -93.5q-5 -6 -10 -6z" />
    <glyph glyph-name="w" unicode="w" horiz-adv-x="657" 
d="M131 0q-9 0 -13 4.5t-7 12.5q-16 51 -27.5 108t-18 113t-9 106t-1.5 88q1 17 3.5 28.5t13.5 11.5h123q15 0 15 -15v-61.5v-61.5t0.5 -56t1 -45.5t1.5 -28.5q1 -17 11 -3q6 9 13.5 25t14.5 34.5t13 37t9 31.5q4 19 7.5 37.5t6.5 34.5t6 30t5 24q3 16 18 16h128
q6 0 9.5 -3.5t1.5 -11.5q-6 -29 -13.5 -67t-10.5 -74q-1 -15 -2 -29.5t-1.5 -28t0 -25t1.5 -21t2 -17.5q3 -15 10 0t16.5 36t21 46.5t23.5 55t24.5 60t23.5 61.5q7 19 28 19h105q11 0 10 -10t-6 -25q-13 -37 -34 -83.5t-47 -96t-52.5 -96t-52 -84t-45.5 -59.5
q-8 -9 -13.5 -13.5t-15.5 -4.5h-66q-10 0 -13.5 2.5t-6.5 9.5t-8.5 24t-11 38t-8.5 38q-2 11 -7.5 11t-10.5 -9l-9 -13.5t-14.5 -22t-12.5 -17.5q-10 -13 -21.5 -28.5t-15.5 -20.5q-4 -4 -10 -8t-14 -4h-68z" />
    <glyph glyph-name="x" unicode="x" horiz-adv-x="429" 
d="M-24 0q-10 0 -10 9t4.5 19t5.5 12q6 14 16.5 34t26.5 45t36.5 55t46.5 64q4 5 3.5 8.5t-3.5 8.5q-16 32 -25.5 68.5t-14.5 69t-6.5 53l-1.5 20.5q0 6 5 6h140q8 0 11 -2t4 -13q0 -14 2 -38.5t5 -49.5t7.5 -43t10.5 -20q1 0 0.5 0t0.5 0q8 2 20 19t25 41t24 48t17 39
q4 10 9.5 14.5t21.5 4.5h102q3 0 9 -2t3 -13q-6 -13 -15.5 -34.5t-24.5 -48t-36.5 -57t-51.5 -62.5q-5 -4 -5 -8.5t2 -9.5q18 -35 26 -69t10 -62.5t1.5 -47t-0.5 -23.5q0 -15 -3.5 -25t-14.5 -10h-102q-16 0 -20 4.5t-3 14.5q0 16 -1 39.5t-3.5 47.5t-7 41.5t-11.5 20.5
q-6 0 -4 0h4.5t-3.5 0q-18 -22 -33.5 -48t-28 -50t-19.5 -39.5l-7 -15.5q-5 -10 -9 -12.5t-14 -2.5h-121z" />
    <glyph glyph-name="y" unicode="y" horiz-adv-x="435" 
d="M-11 -126q-30 0 -50 4t-32 11q-20 13 -5 33l39 53q9 14 19 10q7 -2 14.5 -3.5t19.5 -1.5q18 0 37 7.5t33 20.5q9 8 16 18t11.5 21.5t5.5 23.5q2 18 -0.5 31t-8.5 40q-7 29 -12.5 65t-8.5 76.5t-4 83t0 83.5q0 22 18 22h115q12 0 15.5 -6.5t2.5 -23.5q-1 -19 -2 -49
t-1 -62.5v-61.5t1 -47q0 -11 4.5 -12.5t11.5 11.5q18 36 35 74.5t34 78t33 78.5q5 11 9.5 15.5t16.5 4.5h98q25 0 15 -24q-16 -41 -33 -78t-37.5 -76t-47.5 -88q-16 -29 -41 -71t-57.5 -87.5t-73 -85t-88 -64t-102.5 -24.5z" />
    <glyph glyph-name="z" unicode="z" horiz-adv-x="393" 
d="M-15 41q16 50 47 98t70 94q25 30 52 59t55 56q3 3 5 6t-6 6h-119q-9 0 -11.5 2t-0.5 13l17 80q3 14 6 15.5t15 1.5h287q13 0 13.5 -4.5t-1.5 -15.5l-15 -70q-1 -7 -6 -15.5t-22 -18.5q-15 -8 -34 -24t-40 -36.5t-43 -43.5q-27 -29 -52.5 -60t-43.5 -59q-2 -4 -1.5 -8.5
t10.5 -4.5h162q10 0 10.5 -3.5t-1.5 -15.5l-17 -79q-2 -10 -7 -12t-18 -2h-302q-12 0 -15 6t6 35z" />
    <glyph glyph-name="braceleft" unicode="{" horiz-adv-x="442" 
d="M324 -80q-4 -19 -10 -24.5t-26 -5.5h-101q-42 0 -65 12t-31 31t-7 41.5t5 43.5l38 178q5 23 -1 40.5t-20 26.5q-4 4 -18.5 7t-38.5 3q-7 0 -8 5t0 11l16 76q2 8 7.5 9.5t18.5 1.5q35 0 63 19t35 57l35 164q6 28 20 57t45 49.5t87 20.5h119q8 0 9.5 -2.5t0.5 -6.5l-14 -67
q-1 -4 -3.5 -7.5t-10.5 -3.5h-64q-19 0 -26.5 -10t-12.5 -30l-35 -164q-5 -23 -23 -49t-44 -46.5t-57 -29.5q-4 -1 -8.5 -2t-8.5 -2q4 -1 7 -2t7 -3q41 -16 60.5 -52.5t12.5 -69.5l-38 -178q-4 -19 -0.5 -29.5t22.5 -10.5h46q17 0 22.5 -5t1.5 -24z" />
    <glyph glyph-name="bar" unicode="|" horiz-adv-x="275" 
d="M298 706q12 0 13 -5t-1 -17l-166 -778q-1 -5 -5 -10.5t-15 -5.5h-118q-9 0 -13 5.5t0 24.5l163 767q3 11 7 15t15 4h120z" />
    <glyph glyph-name="braceright" unicode="}" horiz-adv-x="443" 
d="M-17 -80l7 29q4 19 12 24t24 5h46q20 0 27 10.5t11 29.5l38 178q5 22 22.5 46.5t44.5 45t58 30.5q4 2 8 3l8 2l-8 2t-7 2q-27 9 -44.5 29.5t-25 46.5t-2.5 49l35 164q5 20 2 30t-23 10h-64q-8 0 -9.5 3.5t-0.5 7.5l14 67q1 4 3.5 6.5t10.5 2.5h119q42 0 65 -12t31 -31
t7.5 -41t-5.5 -43l-35 -164q-7 -38 12 -57t54 -19q14 0 19 -1.5t3 -9.5l-16 -76q-1 -6 -4.5 -11t-11.5 -5q-24 0 -39.5 -3t-21.5 -7q-16 -9 -30 -26.5t-19 -40.5l-38 -178q-6 -28 -20 -57.5t-44.5 -50t-87.5 -20.5h-101q-19 0 -23.5 5.5t-0.5 24.5z" />
    <glyph glyph-name="asciitilde" unicode="~" horiz-adv-x="502" 
d="M533 570q-23 -18 -45.5 -31t-44 -20t-44.5 -7t-42.5 7t-38 15.5t-38 15.5t-43.5 7q-25 0 -47 -17.5t-33 -28.5q-6 -6 -9 -6t-10 5l-35 45q-6 5 -2 13l5 10q15 15 38 33.5t51.5 32t58.5 13.5q26 0 46.5 -6.5t39 -15t36.5 -15t39 -6.5q20 0 36 9.5t35 25.5q7 5 12.5 7
t9.5 -5l36 -49q6 -8 2 -16t-13 -16z" />
    <glyph glyph-name="uni00A0" unicode="&#xa0;" horiz-adv-x="225" 
 />
    <glyph glyph-name="exclamdown" unicode="&#xa1;" horiz-adv-x="265" 
d="M222 268q9 0 11 -2.5t0 -15.5l-73 -430q-1 -7 -4 -11t-11 -4h-137q-14 0 -10 13l111 432q3 12 6 15t15 3h92zM116 438q7 29 24.5 44t62.5 15q39 0 53.5 -15t7.5 -44q-6 -28 -26.5 -43.5t-59.5 -15.5q-45 0 -56.5 15.5t-5.5 43.5z" />
    <glyph glyph-name="cent" unicode="&#xa2;" horiz-adv-x="458" 
d="M224 73q-66 0 -105 19t-55.5 52.5t-16.5 77.5t10 93q10 46 29 89t50.5 77.5t78 54.5t111.5 20q44 0 75 -9t53 -30q7 -8 8.5 -12t-0.5 -12l-17 -83q-2 -9 -8 -9.5t-11 3.5q-23 22 -49 28t-56 6q-22 0 -41.5 -10t-35 -27.5t-26 -39.5t-15.5 -47q-8 -41 -4 -70.5t19 -44.5
t40 -15q21 0 43.5 6t53.5 19q22 9 26 -9l13 -64q4 -15 -12 -24q-31 -20 -74.5 -29.5t-83.5 -9.5zM295 139l-37 -172q-1 -5 -5 -10.5t-15 -5.5h-118q-9 0 -13 5.5t0 24.5l34 158h154zM213 480l44 207q3 11 7 15t15 4h120q12 0 13 -5t-1 -17l-44 -204h-154z" />
    <glyph glyph-name="sterling" unicode="&#xa3;" horiz-adv-x="540" 
d="M322 -12q-33 0 -59 5.5t-64 15.5q-19 6 -37.5 9.5t-35.5 3.5q-21 0 -56.5 -4t-61.5 -12q-18 -5 -25 -3.5t-4 14.5q3 15 6.5 30.5t6.5 30.5q2 10 6 15.5t17 9.5q43 14 71 29.5t45 39.5t25 63h-44h-44q-13 0 -18.5 3t-3.5 13q3 15 6 29.5t6 29.5q4 17 7.5 21t12.5 4h37h37
q-7 40 -10 87.5t4 82.5q9 43 43.5 82t88 63.5t118.5 24.5q17 0 41 -3.5t47 -9t37 -13.5q7 -3 7.5 -11t-1.5 -13q-4 -19 -7.5 -38t-8.5 -38q-1 -9 -4.5 -12.5t-17.5 2.5q-28 14 -55.5 23t-41.5 9q-28 0 -47.5 -8.5t-30.5 -23.5t-15 -34q-9 -43 -3.5 -84t0.5 -86h52h52
q8 0 8.5 -5.5t-2.5 -19.5t-6 -28.5t-6 -28.5q-2 -12 -5 -15t-14 -3h-42h-42q-1 -3 -1.5 -6.5t-1.5 -6.5q-8 -37 -19.5 -59t-34.5 -52q32 -9 50.5 -13t32.5 -5t30 -1q29 0 58.5 7.5t54.5 18.5q7 3 10.5 0t1.5 -14l-12 -57q-4 -17 -9.5 -23.5t-8.5 -8.5q-30 -17 -59 -22
t-61 -5z" />
    <glyph glyph-name="currency" unicode="&#xa4;" horiz-adv-x="531" 
d="M71 143l-34 40q-4 7 -5 12t6 11l99 73q-3 14 -3 28t4 29q3 16 9.5 31t15.5 29l-58 65q-4 5 0 10.5t11 10.5l54 44q8 6 10.5 5.5t6.5 -5.5l56 -62q18 8 37 12.5t39 4.5q37 0 67 -16l81 61q10 10 17 0l36 -44q5 -5 7 -10.5t-6 -10.5l-82 -62q8 -30 2 -63q-8 -32 -27 -59
l66 -71q5 -6 2 -11t-11 -12l-50 -40q-10 -7 -15.5 -7t-10.5 7l-61 66q-37 -17 -76 -17q-42 0 -71 18l-90 -67q-10 -7 -15 -7t-11 7zM219 336q-6 -28 10.5 -47t45.5 -19t52.5 19t29.5 47q5 28 -10 47t-44 19t-54 -19t-30 -47z" />
    <glyph glyph-name="yen" unicode="&#xa5;" horiz-adv-x="591" 
d="M390 275q-7 -8 -13 -22.5t-8 -25.5l-45 -213q-1 -6 -6.5 -10t-10.5 -4h-123q-6 0 -9.5 4t-2.5 10l45 213q6 27 -3 54.5t-16 43.5q-2 6 -9.5 25t-16.5 42t-16 42.5t-9 25.5q-16 52 -23.5 91t-9 63.5t-1.5 30.5q0 17 9 22.5t20 5.5h118q9 0 12 -3t4 -11q3 -34 7 -60
t8.5 -45.5t8.5 -32.5q8 -27 14.5 -46.5t12.5 -35.5q5 -11 8.5 -12t13.5 12q5 6 10.5 12t13 15.5t17.5 23.5q11 15 29.5 41.5t39 60.5t35.5 69q4 8 8.5 10t14.5 2h123q8 0 13.5 -5.5t-1.5 -22.5q-2 -6 -14.5 -32.5t-36.5 -68t-63 -93.5q-9 -13 -27.5 -35.5t-40.5 -49.5
t-43.5 -51t-36.5 -40zM116 202q-10 0 -10.5 3.5t0.5 10.5l9 45q2 10 5.5 13t13.5 3h331q8 0 10.5 -2.5t0.5 -11.5l-11 -50q-1 -7 -3.5 -9t-13.5 -2h-332zM92 91q-10 0 -10.5 3t0.5 11l10 45q2 10 5 12.5t13 2.5h331q8 0 10.5 -2t0.5 -12l-11 -50q-1 -7 -3.5 -8.5t-13.5 -1.5
h-332z" />
    <glyph glyph-name="brokenbar" unicode="&#xa6;" horiz-adv-x="275" 
d="M229 304l-85 -398q-1 -5 -5 -10.5t-15 -5.5h-118q-9 0 -13 5.5t0 24.5l82 384h154zM83 341l73 346q3 11 7 15t15 4h120q12 0 13 -5t-1 -17l-73 -343h-154z" />
    <glyph glyph-name="section" unicode="&#xa7;" horiz-adv-x="600" 
d="M-41 -185l18 84q2 7 6.5 8t14.5 -4q17 -6 40.5 -10.5t47 -7.5t38.5 -3q43 0 70 23.5t33 51.5q4 20 -3.5 35.5t-24 27t-39.5 18.5q-20 5 -46.5 15t-50 29t-34.5 51.5t0 83.5q13 63 48.5 114.5t88.5 82t117 30.5q23 0 52 -5t57 -13t47 -18q10 -3 11.5 -7.5t-0.5 -12.5
l-20 -95q-8 -33 -43 -11q-13 10 -31 18t-40 12.5t-48 4.5q-28 0 -51.5 -10.5t-38.5 -26.5t-19 -35q-2 -33 13.5 -52.5t39.5 -30t49.5 -17t44.5 -14.5q23 -9 39 -22t25 -32.5t10 -46t-7 -61.5q-14 -69 -53.5 -112.5t-95.5 -64t-122 -20.5q-28 0 -63 5.5t-61 15.5q-13 5 -17 9
t-2 13zM120 95l16 87q1 5 4.5 10t8.5 7t11 -3q42 -33 71 -36.5t51 -1.5q44 4 71.5 29.5t32.5 50.5q5 23 -3.5 37t-25.5 23.5t-39 15.5q-20 6 -46 15.5t-49 28.5t-34 51t0 82q13 62 50 100t87.5 55.5t101.5 17.5q19 0 42.5 -4t46.5 -10.5t39 -14.5q8 -2 9 -5.5t-1 -9.5
l-16 -77q-3 -13 -11.5 -16t-23.5 7q-10 8 -25 14t-32.5 10t-38.5 4q-34 0 -59 -18t-30 -40q-6 -27 6.5 -43t35.5 -25.5t48 -15.5t44 -14q23 -9 39 -22t24.5 -32t9.5 -45t-6 -61q-14 -67 -53 -110t-94.5 -63.5t-120.5 -20.5q-28 0 -62 5t-60 15q-13 5 -17 9.5t-2 13.5z" />
    <glyph glyph-name="dieresis" unicode="&#xa8;" horiz-adv-x="295" 
d="M194 574q-5 -25 -21 -38.5t-51 -13.5q-31 0 -42 13.5t-6 38.5t22 38.5t48 13.5q35 0 45 -13.5t5 -38.5zM362 574q-5 -25 -20.5 -38.5t-50.5 -13.5q-32 0 -43 13.5t-6 38.5t22 38.5t49 13.5q35 0 44.5 -13.5t4.5 -38.5z" />
    <glyph glyph-name="copyright" unicode="&#xa9;" horiz-adv-x="862" 
d="M61 333q16 74 60 138.5t108.5 113.5t141 77t157.5 28t146 -28t108.5 -77t60 -113.5t0.5 -138.5t-60 -139.5t-108.5 -115.5t-141.5 -78t-158 -28t-146 28t-108 78t-59.5 115.5t-0.5 139.5zM171 333q-12 -54 0 -101.5t42.5 -83t77.5 -56t105 -20.5t113 20.5t101.5 56t78 83
t43.5 101.5q11 54 -1 100.5t-43 81.5t-77.5 54.5t-104.5 19.5t-113 -19.5t-101 -54.5t-78 -81.5t-43 -100.5zM275 332q14 64 47.5 107t85 65t116.5 22q11 0 35.5 -1t40.5 -6q11 -2 18 -5t5 -9l-11 -55q-4 -16 -30 -4q-14 8 -31 11.5t-32 3.5q-38 0 -63 -15.5t-39 -42.5
t-22 -63q-6 -29 -6 -61t16.5 -53.5t58.5 -21.5q17 0 36.5 3.5t31.5 8.5q19 8 25 7t4 -11l-10 -47q-1 -7 -9.5 -12t-20.5 -8q-18 -4 -43.5 -5t-36.5 -1q-62 0 -104 22t-58.5 65t-3.5 106z" />
    <glyph glyph-name="ordfeminine" unicode="&#xaa;" horiz-adv-x="479" 
d="M189 -6q-100 0 -144 57t-16 178q17 76 46 124t65.5 75t75 37.5t75.5 10.5q21 0 37 -7t21 -14l2 6q3 8 7 9.5t12 1.5h112q16 0 15 -14q-4 -25 -13 -68t-21 -93.5t-24.5 -100t-24.5 -88.5t-20 -56q-6 -13 -13.5 -19.5t-33.5 -14.5q-19 -7 -63 -15.5t-95 -8.5zM216 106
q9 0 17 1t15 2.5t11 2.5q5 1 7.5 4t4.5 10q5 21 10.5 42t10.5 41.5l10 41t9.5 40t9.5 38.5q2 7 0 11t-7 5q-7 2 -18.5 5.5t-21.5 3.5t-23 -4.5t-26 -17t-25 -37.5t-21 -67q-16 -70 -3.5 -96t40.5 -26z" />
    <glyph glyph-name="guillemotleft" unicode="&#xab;" horiz-adv-x="551" 
d="M355 144q-5 0 -7 3l-42 90t-41 90q-10 10 4 19q40 45 79.5 89.5t79.5 89.5q3 3 5.5 3.5t3.5 0.5h61h61q5 0 3 -2.5t-4 -4.5q-1 -1 -18 -20t-41 -47t-47.5 -55t-39.5 -45.5l-16 -18.5l8 -18.5t20 -45.5t24.5 -54.5t21 -46.5t9.5 -20q2 -1 2.5 -4t-4.5 -3h-61h-61zM146 144
q-5 0 -7 3l-42 90t-41 90q-10 10 4 19q40 45 79.5 89.5t79.5 89.5q3 3 5.5 3.5t3.5 0.5h61h61q5 0 3 -2.5t-4 -4.5q-2 -1 -18.5 -20t-40.5 -47t-47.5 -55t-39.5 -45.5l-16 -18.5l8 -18.5t20 -45.5t24.5 -54.5t21 -46.5t9.5 -20q2 -1 2.5 -4t-4.5 -3h-61h-61z" />
    <glyph glyph-name="logicalnot" unicode="&#xac;" horiz-adv-x="721" 
d="M574 107q-10 0 -12 2t0 10l38 180h-524q-9 0 -10 2.5t0 9.5l14 65q2 8 5 10.5t12 2.5h594q8 0 10 -2t0 -10l-55 -259q-1 -8 -4 -9.5t-11 -1.5h-57z" />
    <glyph glyph-name="uni00AD" unicode="&#xad;" horiz-adv-x="418" 
d="M48 222q-10 0 -10 3t3 11l32 75q4 10 7.5 12.5t12.5 2.5h292q9 0 11 -2t-3 -12l-34 -80q-3 -7 -5.5 -8.5t-13.5 -1.5h-292z" />
    <glyph glyph-name="registered" unicode="&#xae;" horiz-adv-x="652" 
d="M317 194q-75 0 -130.5 34.5t-81 92t-10.5 127.5q11 53 42.5 98.5t77.5 80t100 54t110 19.5q77 0 132 -34t80 -91t10 -127q-11 -52 -42.5 -98.5t-76.5 -81t-99.5 -54.5t-111.5 -20zM332 265q55 0 105.5 24.5t86 66.5t45.5 92q11 51 -7 92t-58 65t-95 24q-54 0 -104.5 -24
t-85.5 -65t-46 -92q-10 -50 7.5 -92t57.5 -66.5t94 -24.5zM255 319q-8 0 -6 6l54 255q2 6 8 6h81q55 0 75 -19t10 -65q-4 -20 -16.5 -37.5t-30.5 -32.5q-7 -6 -11.5 -10.5t-1.5 -13.5q4 -9 8.5 -15.5t13.5 -11.5q6 -3 14 -5.5t21 -2.5q5 0 5.5 -1t-0.5 -6l-9 -41
q-1 -4 -4 -5t-22 -1t-34.5 5t-27.5 13q-15 11 -28 26t-9 36l-1 4t-3 4h-3q-2 0 -3 -6l-16 -76q-2 -6 -8 -6h-56zM347 458q-1 -3 3 -3h12q17 0 30.5 12.5t17.5 33.5q6 28 -2.5 36t-25.5 8h-13q-3 0 -4 -4z" />
    <glyph glyph-name="macron" unicode="&#xaf;" horiz-adv-x="240" 
d="M303 534q-1 -4 -3 -5t-11 -1h-216q-8 0 -9 2t0 7l14 66q2 7 4 9t9 2h217q8 0 10 -1.5t0 -8.5z" />
    <glyph glyph-name="degree" unicode="&#xb0;" horiz-adv-x="383" 
d="M135 682q9 40 35.5 73t65 52.5t80.5 19.5t72.5 -19.5t44.5 -52.5t5 -73q-8 -40 -36 -72.5t-66.5 -52t-80.5 -19.5t-72 19.5t-43 52t-5 72.5zM216 682q-6 -28 10.5 -47t45.5 -19t52.5 19t29.5 47q5 28 -10 47t-44 19t-54 -19t-30 -47z" />
    <glyph glyph-name="plusminus" unicode="&#xb1;" horiz-adv-x="498" 
d="M191 162q-10 0 -12 2t0 10l27 128h-129q-9 0 -9.5 2.5t0.5 9.5l13 63q2 8 5 10.5t11 2.5h128l27 127q2 7 4 9.5t12 2.5h80q6 0 7 -2t-1 -12l-26 -125l140 -2q7 0 9 -2.5t0 -10.5l-14 -66q-1 -5 -2.5 -7t-11.5 -2l-140 2l-27 -129q-2 -8 -5 -9.5t-11 -1.5h-75zM20 19
q-12 0 -13.5 3t0.5 11l13 60q2 9 5 11.5t15 2.5h363q11 0 13.5 -2t0.5 -11l-14 -65q-1 -7 -4 -8.5t-17 -1.5h-362z" />
    <glyph glyph-name="uni00B2" unicode="&#xb2;" horiz-adv-x="364" 
d="M48 260q-10 0 -11.5 1.5t-0.5 9.5l12 61q2 7 3.5 10t8.5 7q33 16 69 39.5t68 50t54.5 53t27.5 48.5q3 10 1 21.5t-14 20t-41 8.5q-35 0 -63 -10.5t-45 -20.5t-21 -9q-5 2 -3 9l17 82q2 7 4 10t11 7q25 12 62.5 24t74.5 12q43 0 78.5 -16t53 -48.5t6.5 -84.5
q-6 -29 -25.5 -59t-54 -62.5t-85.5 -68.5q-4 -2 -3 -4t4 -2h115q7 0 6 -7l-15 -70q-2 -9 -3.5 -10.5t-12.5 -1.5h-278z" />
    <glyph glyph-name="uni00B3" unicode="&#xb3;" horiz-adv-x="376" 
d="M182 257q-48 0 -79.5 18t-53.5 48q-6 8 -3.5 13t6.5 9l53 50q7 7 14.5 7.5t10.5 -4.5q14 -18 31.5 -28.5t41.5 -10.5q18 0 31 6.5t20.5 16t9.5 18.5t-9 25t-49 16h-14h-18q-7 0 -10.5 3t-1.5 13l13 61q2 7 4.5 11.5t12.5 4.5h23.5h27.5q18 0 32.5 10t16.5 22
q2 11 -6.5 19t-36.5 8q-22 0 -45 -10.5t-42 -27.5q-14 -13 -20 1l-26 67q-1 5 2 12t4 8q53 35 91 43t67 8q73 0 104.5 -33.5t21.5 -80.5q-8 -38 -35 -63t-51 -28q-10 -1 -10 -2t2 -0.5t8 -0.5q32 -2 51 -23t10 -63q-7 -36 -34 -68.5t-69 -53.5t-96 -21z" />
    <glyph glyph-name="acute" unicode="&#xb4;" horiz-adv-x="175" 
d="M73 524q-10 0 -10.5 3.5t7.5 14.5l69 95q5 8 23 8h89q7 0 9.5 -3.5t-5.5 -11.5l-93 -99q-5 -6 -9.5 -6.5t-13.5 -0.5h-66z" />
    <glyph glyph-name="uni00B5" unicode="&#xb5;" horiz-adv-x="546" 
d="M-3 -106q-10 0 -14.5 3.5t-3.5 15.5q2 15 7.5 49.5t15.5 83t23 103.5l5.5 38.5t6.5 34.5q8 35 18 73t21 76.5t22 72.5q7 20 12 24t21 4h100q13 0 17 -4t-1 -17q-1 -4 -8 -29t-17 -61.5t-20 -74.5t-16 -68q-13 -66 -1.5 -87.5t42.5 -21.5q18 0 29 5.5t13 18.5l68 319
q3 12 6.5 16t13.5 4h113q8 0 11.5 -4t0.5 -15l-66 -314q-4 -18 4 -25t20 -7q11 0 21.5 3.5t16.5 6.5q19 11 21 -6l5 -70q0 -16 -23 -25q-24 -10 -43 -15.5t-47 -5.5q-19 0 -40 7t-37 21.5t-20 34.5l42 -9q-27 -22 -64 -37.5t-73 -15.5q-35 0 -60 13.5t-34 30.5l33 6
q-1 -13 -3 -31.5t-4 -36.5q-1 -14 -1.5 -27.5t-1 -22.5t-1.5 -13q-1 -11 -4.5 -16t-16.5 -5h-109z" />
    <glyph glyph-name="paragraph" unicode="&#xb6;" horiz-adv-x="576" 
d="M232 294q-8 0 -15 0.5t-15 1.5q-38 5 -64.5 21.5t-41 42t-18 56t3.5 63.5q12 55 42 98.5t79.5 69.5t118.5 26h149.5h147.5q11 0 15 -2t2 -13l-12 -56q-3 -16 -6 -19.5t-11 -3.5h-16h-16q-15 -71 -32.5 -154t-36 -169.5t-36 -169.5t-32.5 -154q-2 -9 -4 -10.5t-10 -1.5
h-87q-11 0 -13 1.5t0 10.5q15 70 32 152.5t35.5 168.5t36 168.5t32.5 152.5v3t-3 2h-20h-19q-6 -1 -6 -4l-136 -643q-2 -9 -4 -10.5t-10 -1.5h-100q-5 0 -6.5 1t0.5 11z" />
    <glyph glyph-name="periodcentered" unicode="&#xb7;" horiz-adv-x="308" 
d="M240 292q-7 -29 -24.5 -44t-62.5 -15q-39 0 -53.5 15t-7.5 44q6 29 26.5 44t59.5 15q45 0 56.5 -15t5.5 -44z" />
    <glyph glyph-name="cedilla" unicode="&#xb8;" horiz-adv-x="202" 
d="M134 -128q-7 -31 -39 -56t-77 -25q-36 0 -55.5 14.5t-30.5 33.5q-5 9 -3 19t13 14l24 10q22 9 25 -4t11 -20t20 -7q15 0 24 8t10 17q3 11 -3.5 18t-17.5 10.5t-25 2.5q-10 0 -11.5 6t2.5 16l29 63q3 7 9.5 9.5t14.5 2.5h32q9 0 5 -13l-19 -67l-17 29q47 -6 66.5 -26
t12.5 -55z" />
    <glyph glyph-name="uni00B9" unicode="&#xb9;" horiz-adv-x="227" 
d="M75 260q-10 0 -8 11l62 285q0 3 -2 2l-47 -19q-4 -1 -7 -0.5t-5 3.5l-23 60q-5 14 6 19l139 66q6 3 8 3.5t8 0.5h60q5 0 9.5 -1.5t2.5 -8.5l-88 -412q-1 -5 -3 -7t-10 -2h-102z" />
    <glyph glyph-name="ordmasculine" unicode="&#xba;" horiz-adv-x="506" 
d="M201 -8q-67 0 -106.5 18.5t-57 52.5t-17.5 79t11 97q15 69 47 123.5t87.5 86t139.5 31.5t126 -31.5t51.5 -86t-5.5 -123.5t-45.5 -125t-86 -89t-144.5 -33zM223 103q41 0 65 34.5t37 97.5q13 62 1.5 94t-49.5 32q-37 0 -61.5 -32t-37.5 -94q-13 -64 -4 -98t49 -34z" />
    <glyph glyph-name="guillemotright" unicode="&#xbb;" horiz-adv-x="575" 
d="M269 144q-5 0 -3 3t3 4t18 20t41 46.5t48 54.5t40 45.5l16 18.5l-8 18.5t-20.5 45.5t-25 55t-21 47t-9.5 20q-1 2 -1.5 4.5t4.5 2.5h61h61q5 0 7 -4q20 -45 41.5 -89.5t41.5 -89.5q8 -10 -4 -19l-80 -90t-79 -90q-3 -2 -5 -2.5t-4 -0.5h-61h-61zM34 144q-5 0 -3 3t3 4
t18 20t41 46.5t48 54.5t40 45.5l16 18.5l-8 18.5t-20.5 45.5t-25 55t-21 47t-9.5 20q-1 2 -1.5 4.5t4.5 2.5h61h61q5 0 7 -4q20 -45 41.5 -89.5t41.5 -89.5q8 -10 -4 -19l-80 -90t-79 -90q-3 -2 -5 -2.5t-4 -0.5h-61h-61z" />
    <glyph glyph-name="onequarter" unicode="&#xbc;" horiz-adv-x="846" 
d="M152 245q-8 0 -6 9l70 331q1 4 -3 2l-60 -28q-8 -4 -10 2l-19 50q-4 12 5 16l135 67q6 3 8.5 4t7.5 1h51q11 0 9 -9l-93 -437q-1 -5 -3.5 -6.5t-7.5 -1.5h-84zM615 -2q-10 0 -8 10l21 96q2 7 -5 7h-170q-10 0 -8 10l11 47q1 6 6 12t8 9l241 262q5 5 8.5 7t8.5 2h63
q6 0 7.5 -2.5t0.5 -8.5l-56 -259q-1 -7 6 -7h38q7 0 6 -7l-13 -58q-2 -7 -8 -7h-38q-7 0 -9 -7l-21 -96q-2 -10 -12 -10h-77zM569 183h69q7 0 8 7l24 114q2 4 0.5 4t-3.5 -3l-101 -115q-6 -7 3 -7zM185 0q-9 0 -10 5t4 12l394 672q3 8 5.5 9.5t11.5 1.5h61q11 0 14 -5
t-7 -28l-384 -652q-4 -7 -8.5 -11t-13.5 -4h-67z" />
    <glyph glyph-name="onehalf" unicode="&#xbd;" horiz-adv-x="895" 
d="M235 0q-9 0 -10 5t4 12l394 672q3 8 5.5 9.5t11.5 1.5h61q11 0 14 -5t-7 -28l-384 -652q-4 -7 -8.5 -11t-13.5 -4h-67zM152 245q-8 0 -6 9l70 331q1 4 -3 2l-60 -28q-8 -4 -10 2l-19 50q-4 12 5 16l135 67q6 3 8.5 4t7.5 1h51q11 0 9 -9l-93 -437q-1 -5 -3.5 -6.5
t-7.5 -1.5h-84zM523 0q-9 0 -10.5 1.5t0.5 7.5l10 51q2 6 4 9.5t7 5.5q34 19 72 45t72.5 55.5t58.5 61t30 60.5q4 18 0 33t-18 24t-42 9q-32 0 -57 -9.5t-41.5 -18.5t-22.5 -9t-5 7l14 66q2 6 4 8.5t10 6.5q14 7 35 15t45 13.5t49 5.5q39 0 72 -15.5t49.5 -48t5.5 -83.5
q-6 -31 -22.5 -59.5t-41.5 -56.5t-57 -54.5t-69 -51.5q-2 -2 -1.5 -3.5t3.5 -1.5h135q6 0 5 -7l-13 -57q-1 -8 -3 -9t-10 -1h-268z" />
    <glyph glyph-name="threequarters" unicode="&#xbe;" horiz-adv-x="901" 
d="M670 -2q-10 0 -8 10l21 96q2 7 -5 7h-170q-10 0 -8 10l11 47q1 6 6 12t8 9l241 262q5 5 8.5 7t8.5 2h63q6 0 7.5 -2.5t0.5 -8.5l-56 -259q-1 -7 6 -7h38q7 0 6 -7l-13 -58q-2 -7 -8 -7h-38q-7 0 -9 -7l-21 -96q-2 -10 -12 -10h-77zM624 183h69q8 0 8 7l24 114q2 4 0.5 4
t-3.5 -3l-101 -115q-6 -7 3 -7zM176 253q-28 0 -51 7.5t-40.5 21t-30.5 31.5q-3 6 -1.5 10.5t5.5 7.5l42 40q6 5 11.5 6t9.5 -4q13 -17 31 -27t42 -10q20 0 35.5 8t25.5 21t13 27q2 12 -2.5 25.5t-19 23t-41.5 9.5h-12h-14q-6 0 -9 2.5t-1 10.5l11 49q2 13 14 13h19h22
q17 0 30.5 7.5t22.5 19t11 23.5q3 11 -1 20.5t-15.5 15.5t-32.5 6q-22 0 -45.5 -10.5t-42.5 -26.5q-12 -10 -17 1l-20 54q-1 4 1.5 9.5t4.5 6.5q30 20 56 30.5t48 13.5t40 3q46 0 74 -16t38 -42t4 -55q-6 -24 -19 -44t-30.5 -33t-35.5 -18q-4 -1 -6.5 -1.5l-2.5 -0.5
q0 -1 9 -2q30 -6 47.5 -29.5t8.5 -64.5q-8 -35 -33 -67t-64 -52t-89 -20zM225 0q-9 0 -10 5t4 12l394 672q3 8 5.5 9.5t11.5 1.5h61q11 0 14 -5t-7 -28l-384 -652q-4 -7 -8.5 -11t-13.5 -4h-67z" />
    <glyph glyph-name="questiondown" unicode="&#xbf;" horiz-adv-x="462" 
d="M365 320q11 0 11 -5.5t-2 -17.5q-9 -46 -22 -80.5t-30.5 -60t-39 -46.5t-45.5 -40q-20 -16 -48 -30.5t-50 -32.5t-25 -45q-2 -22 14 -32t40 -10q32 0 62 7t53.5 16.5t35.5 14.5q10 5 14 7.5t5 -11.5l11 -83q2 -10 -9 -17t-19 -10q-42 -16 -88 -27.5t-81 -11.5
q-94 0 -142 42t-32 120q11 49 37 79t59.5 50.5t63.5 39.5q35 23 57 48.5t35.5 55t21.5 62.5q3 12 6 15t8 3h99zM411 438q-6 -28 -26.5 -43.5t-59.5 -15.5q-45 0 -57 15.5t-5 43.5q7 29 24.5 44t62.5 15q39 0 53 -15t8 -44z" />
    <glyph glyph-name="Agrave" unicode="&#xc0;" horiz-adv-x="549" 
d="M-24 0q-10 0 -10 8t9 32q15 44 42 106.5t61 132.5t71 140t72.5 130.5t65.5 101.5q8 10 15 16t15 6h99q8 -3 12.5 -7.5t7.5 -14.5q13 -41 23.5 -101.5t18 -130.5t11.5 -140t4.5 -132.5t-2.5 -106.5q-1 -24 -5 -32t-15 -8h-118q-9 0 -11.5 5t-1.5 27t0.5 52t-0.5 49
q0 8 -1 9t-8 1h-154q-7 0 -8.5 -1t-4.5 -9q-7 -19 -20.5 -49t-21.5 -52q-9 -22 -13.5 -27t-13.5 -5h-119zM234 258h90q7 0 8 2.5t1 9.5q-1 40 -4 85.5t-6 79.5q2 9 -4 9h-4q-2 0 -8 -9q-10 -22 -24 -50t-28 -57.5t-27 -57.5q-3 -7 -2 -9.5t8 -2.5zM351 726q-15 0 -29 14
l-94 92q-4 4 -1 9.5t8 5.5h105q12 0 17 -3t10 -11l53 -89q11 -18 -2 -18h-67z" />
    <glyph glyph-name="Aacute" unicode="&#xc1;" horiz-adv-x="549" 
d="M-24 0q-10 0 -10 8t9 32q15 44 42 106.5t61 132.5t71 140t72.5 130.5t65.5 101.5q8 10 15 16t15 6h99q8 -3 12.5 -7.5t7.5 -14.5q13 -41 23.5 -101.5t18 -130.5t11.5 -140t4.5 -132.5t-2.5 -106.5q-1 -24 -5 -32t-15 -8h-118q-9 0 -11.5 5t-1.5 27t0.5 52t-0.5 49
q0 8 -1 9t-8 1h-154q-7 0 -8.5 -1t-4.5 -9q-7 -19 -20.5 -49t-21.5 -52q-9 -22 -13.5 -27t-13.5 -5h-119zM234 258h90q7 0 8 2.5t1 9.5q-1 40 -4 85.5t-6 79.5q2 9 -4 9h-4q-2 0 -8 -9q-10 -22 -24 -50t-28 -57.5t-27 -57.5q-3 -7 -2 -9.5t8 -2.5zM323 725q-10 0 -10.5 3.5
t7.5 14.5l69 95q5 8 23 8h89q7 0 9.5 -3.5t-5.5 -11.5l-93 -99q-5 -6 -9.5 -6.5t-13.5 -0.5h-66z" />
    <glyph glyph-name="Acircumflex" unicode="&#xc2;" horiz-adv-x="549" 
d="M-24 0q-10 0 -10 8t9 32q15 44 42 106.5t61 132.5t71 140t72.5 130.5t65.5 101.5q8 10 15 16t15 6h99q8 -3 12.5 -7.5t7.5 -14.5q13 -41 23.5 -101.5t18 -130.5t11.5 -140t4.5 -132.5t-2.5 -106.5q-1 -24 -5 -32t-15 -8h-118q-9 0 -11.5 5t-1.5 27t0.5 52t-0.5 49
q0 8 -1 9t-8 1h-154q-7 0 -8.5 -1t-4.5 -9q-7 -19 -20.5 -49t-21.5 -52q-9 -22 -13.5 -27t-13.5 -5h-119zM234 258h90q7 0 8 2.5t1 9.5q-1 40 -4 85.5t-6 79.5q2 9 -4 9h-4q-2 0 -8 -9q-10 -22 -24 -50t-28 -57.5t-27 -57.5q-3 -7 -2 -9.5t8 -2.5zM258 725q-4 0 -4.5 3
t2.5 6l102 103q4 4 9 4h58q6 0 7 -4l60 -103q2 -3 0.5 -6t-6.5 -3h-63q-6 0 -8 4l-31 32q-4 5 -10 0l-43 -32q-6 -4 -10 -4h-63z" />
    <glyph glyph-name="Atilde" unicode="&#xc3;" horiz-adv-x="549" 
d="M-24 0q-10 0 -10 8t9 32q15 44 42 106.5t61 132.5t71 140t72.5 130.5t65.5 101.5q8 10 15 16t15 6h99q8 -3 12.5 -7.5t7.5 -14.5q13 -41 23.5 -101.5t18 -130.5t11.5 -140t4.5 -132.5t-2.5 -106.5q-1 -24 -5 -32t-15 -8h-118q-9 0 -11.5 5t-1.5 27t0.5 52t-0.5 49
q0 8 -1 9t-8 1h-154q-7 0 -8.5 -1t-4.5 -9q-7 -19 -20.5 -49t-21.5 -52q-9 -22 -13.5 -27t-13.5 -5h-119zM234 258h90q7 0 8 2.5t1 9.5q-1 40 -4 85.5t-6 79.5q2 9 -4 9h-4q-2 0 -8 -9q-10 -22 -24 -50t-28 -57.5t-27 -57.5q-3 -7 -2 -9.5t8 -2.5zM259 716q-6 0 -5 6
q10 45 34.5 70.5t61.5 25.5q17 0 30.5 -9.5t23.5 -19t15 -9.5t9.5 5t6.5 15q2 8 8 8h57q5 0 4 -7q-8 -40 -35.5 -67t-61.5 -27q-22 0 -34.5 9t-20 18t-15.5 9q-6 0 -9.5 -4.5t-5.5 -15.5q-1 -7 -8 -7h-55z" />
    <glyph glyph-name="Adieresis" unicode="&#xc4;" horiz-adv-x="549" 
d="M-24 0q-10 0 -10 8t9 32q15 44 42 106.5t61 132.5t71 140t72.5 130.5t65.5 101.5q8 10 15 16t15 6h99q8 -3 12.5 -7.5t7.5 -14.5q13 -41 23.5 -101.5t18 -130.5t11.5 -140t4.5 -132.5t-2.5 -106.5q-1 -24 -5 -32t-15 -8h-118q-9 0 -11.5 5t-1.5 27t0.5 52t-0.5 49
q0 8 -1 9t-8 1h-154q-7 0 -8.5 -1t-4.5 -9q-7 -19 -20.5 -49t-21.5 -52q-9 -22 -13.5 -27t-13.5 -5h-119zM234 258h90q7 0 8 2.5t1 9.5q-1 40 -4 85.5t-6 79.5q2 9 -4 9h-4q-2 0 -8 -9q-10 -22 -24 -50t-28 -57.5t-27 -57.5q-3 -7 -2 -9.5t8 -2.5zM359 775q-5 -25 -21 -38.5
t-51 -13.5q-31 0 -42 13.5t-6 38.5t22 38.5t48 13.5q35 0 45 -13.5t5 -38.5zM527 775q-5 -25 -20.5 -38.5t-50.5 -13.5q-32 0 -43 13.5t-6 38.5t22 38.5t49 13.5q35 0 44.5 -13.5t4.5 -38.5z" />
    <glyph glyph-name="Aring" unicode="&#xc5;" horiz-adv-x="549" 
d="M-24 0q-10 0 -10 8t9 32q15 44 42 106.5t61 132.5t71 140t72.5 130.5t65.5 101.5q8 10 15 16t15 6h99q8 -3 12.5 -7.5t7.5 -14.5q13 -41 23.5 -101.5t18 -130.5t11.5 -140t4.5 -132.5t-2.5 -106.5q-1 -24 -5 -32t-15 -8h-118q-9 0 -11.5 5t-1.5 27t0.5 52t-0.5 49
q0 8 -1 9t-8 1h-154q-7 0 -8.5 -1t-4.5 -9q-7 -19 -20.5 -49t-21.5 -52q-9 -22 -13.5 -27t-13.5 -5h-119zM234 258h90q7 0 8 2.5t1 9.5q-1 40 -4 85.5t-6 79.5q2 9 -4 9h-4q-2 0 -8 -9q-10 -22 -24 -50t-28 -57.5t-27 -57.5q-3 -7 -2 -9.5t8 -2.5zM485 802q-9 -43 -37 -69
t-79 -26q-55 0 -71.5 26t-7.5 69q9 42 36.5 67.5t82.5 25.5q52 0 68.5 -25.5t7.5 -67.5zM427 804q2 12 -4 19.5t-28 7.5q-24 0 -31.5 -7.5t-9.5 -19.5q-2 -10 1.5 -20.5t27.5 -10.5q25 0 33.5 10.5t10.5 20.5z" />
    <glyph glyph-name="AE" unicode="&#xc6;" horiz-adv-x="779" 
d="M341 0q-6 0 -9.5 4t-2.5 10l27 129h-173q-7 0 -8.5 -1t-4.5 -9q-7 -19 -20.5 -49t-21.5 -52q-9 -22 -13.5 -27t-13.5 -5h-119q-10 0 -10 8t9 32q13 37 36.5 85t55 102.5t68.5 111.5t77.5 113t81 107t79.5 92q10 10 18.5 16t16.5 6h410q14 0 15.5 -2t-1.5 -15l-17 -80
q-3 -14 -6 -16.5t-16 -2.5h-193q-8 0 -9.5 -1t-2.5 -7l-31 -144q-1 -7 0 -8t8 -1h149q16 0 18 -3t-2 -19l-15 -71q-3 -15 -7 -18t-18 -3h-149q-5 0 -7.5 -1t-4.5 -6l-31 -150q-1 -6 0 -7.5t8 -1.5h192q15 0 16.5 -3.5t-1.5 -18.5l-15 -72q-4 -16 -7.5 -19t-18.5 -3h-337z
M381 258l51 243q2 9 -3 9h-1q-2 0 -4.5 -1.5t-9.5 -8.5q-16 -15 -37.5 -42t-45.5 -60t-48 -66.5t-45 -62.5q-1 -1 0 -6t4 -5h139z" />
    <glyph glyph-name="Ccedilla" unicode="&#xc7;" horiz-adv-x="476" 
d="M404 39q-6 -27 -39 -35q-16 -5 -37.5 -7.5t-40.5 -3.5t-29 -1q-123 0 -179 87.5t-20 255.5q36 170 126.5 257.5t218.5 87.5q10 0 28.5 -1.5t39 -4t33.5 -7.5q14 -4 21.5 -9t5.5 -16l-21 -99q-6 -31 -35 -7q-19 14 -42 20.5t-43 6.5q-37 0 -65.5 -16t-49 -45t-35 -68
t-24.5 -86q-7 -32 -11.5 -65.5t-3 -65t10.5 -56.5t28.5 -39.5t52.5 -14.5q24 0 49.5 6.5t41.5 15.5q26 14 33.5 13t3.5 -18zM326 -128q-7 -31 -39 -56t-77 -25q-36 0 -55.5 14.5t-30.5 33.5q-5 9 -3 19t13 14l24 10q22 9 25 -4t11 -20t20 -7q15 0 24 8t10 17q3 11 -3.5 18
t-17.5 10.5t-25 2.5q-10 0 -11.5 6t2.5 16l29 63q3 7 9.5 9.5t14.5 2.5h32q9 0 5 -13l-19 -67l-17 29q47 -6 66.5 -26t12.5 -55z" />
    <glyph glyph-name="Egrave" unicode="&#xc8;" horiz-adv-x="458" 
d="M25 0q-6 0 -9.5 4t-2.5 10l137 644q3 15 18 15h340q14 0 16 -2t-1 -15l-17 -80q-3 -14 -7 -16.5t-16 -2.5h-194q-7 0 -7.5 -1t-2.5 -7l-31 -144q-1 -7 -0.5 -8t6.5 -1h150q15 0 16.5 -3t-1.5 -19l-15 -71q-3 -15 -6.5 -18t-17.5 -3h-150q-5 0 -7 -1t-3 -6l-31 -150
q-1 -6 -0.5 -7.5t6.5 -1.5h192q17 0 18.5 -3.5t-1.5 -18.5l-15 -72q-4 -16 -8.5 -19t-19.5 -3h-336zM345 715q-8 0 -13 3.5t-13 10.5l-89 75q-4 3 0.5 9t9.5 6h105q12 0 15.5 -3t8.5 -11l49 -72q5 -7 3.5 -12.5t-9.5 -5.5h-67z" />
    <glyph glyph-name="Eacute" unicode="&#xc9;" horiz-adv-x="458" 
d="M25 0q-6 0 -9.5 4t-2.5 10l137 644q3 15 18 15h340q14 0 16 -2t-1 -15l-17 -80q-3 -14 -7 -16.5t-16 -2.5h-194q-7 0 -7.5 -1t-2.5 -7l-31 -144q-1 -7 -0.5 -8t6.5 -1h150q15 0 16.5 -3t-1.5 -19l-15 -71q-3 -15 -6.5 -18t-17.5 -3h-150q-5 0 -7 -1t-3 -6l-31 -150
q-1 -6 -0.5 -7.5t6.5 -1.5h192q17 0 18.5 -3.5t-1.5 -18.5l-15 -72q-4 -16 -8.5 -19t-19.5 -3h-336zM348 715h-67q-8 0 -8.5 5.5t6.5 12.5l64 72q7 8 11 11t16 3h105q5 0 8.5 -6t-1.5 -9l-105 -75q-10 -7 -15.5 -10.5t-13.5 -3.5z" />
    <glyph glyph-name="Ecircumflex" unicode="&#xca;" horiz-adv-x="458" 
d="M25 0q-6 0 -9.5 4t-2.5 10l137 644q3 15 18 15h340q14 0 16 -2t-1 -15l-17 -80q-3 -14 -7 -16.5t-16 -2.5h-194q-7 0 -7.5 -1t-2.5 -7l-31 -144q-1 -7 -0.5 -8t6.5 -1h150q15 0 16.5 -3t-1.5 -19l-15 -71q-3 -15 -6.5 -18t-17.5 -3h-150q-5 0 -7 -1t-3 -6l-31 -150
q-1 -6 -0.5 -7.5t6.5 -1.5h192q17 0 18.5 -3.5t-1.5 -18.5l-15 -72q-4 -16 -8.5 -19t-19.5 -3h-336zM228 713q-4 0 -4.5 3t2.5 6l103 90q7 7 12 7h64q7 0 11 -6l66 -91q2 -3 0.5 -6t-6.5 -3h-59q-8 0 -12 2t-9 6l-31 28q-5 5 -12 0l-45 -30q-5 -3 -8.5 -4.5t-9.5 -1.5h-62z
" />
    <glyph glyph-name="Edieresis" unicode="&#xcb;" horiz-adv-x="458" 
d="M25 0q-6 0 -9.5 4t-2.5 10l137 644q3 15 18 15h340q14 0 16 -2t-1 -15l-17 -80q-3 -14 -7 -16.5t-16 -2.5h-194q-7 0 -7.5 -1t-2.5 -7l-31 -144q-1 -7 -0.5 -8t6.5 -1h150q15 0 16.5 -3t-1.5 -19l-15 -71q-3 -15 -6.5 -18t-17.5 -3h-150q-5 0 -7 -1t-3 -6l-31 -150
q-1 -6 -0.5 -7.5t6.5 -1.5h192q17 0 18.5 -3.5t-1.5 -18.5l-15 -72q-4 -16 -8.5 -19t-19.5 -3h-336zM341 775q-5 -25 -21 -38.5t-51 -13.5q-31 0 -42 13.5t-6 38.5t22 38.5t48 13.5q35 0 45 -13.5t5 -38.5zM509 775q-5 -25 -20.5 -38.5t-50.5 -13.5q-32 0 -43 13.5t-6 38.5
t22 38.5t49 13.5q35 0 44.5 -13.5t4.5 -38.5z" />
    <glyph glyph-name="Igrave" unicode="&#xcc;" horiz-adv-x="271" 
d="M164 14q-3 -14 -18 -14h-120q-16 0 -13 14l137 644q3 15 19 15h120q6 0 10 -4t2 -11zM231 715q-8 0 -13 3.5t-13 10.5l-89 75q-4 3 0.5 9t9.5 6h105q12 0 15.5 -3t8.5 -11l49 -72q5 -7 3.5 -12.5t-9.5 -5.5h-67z" />
    <glyph glyph-name="Iacute" unicode="&#xcd;" horiz-adv-x="271" 
d="M164 14q-3 -14 -18 -14h-120q-16 0 -13 14l137 644q3 15 19 15h120q6 0 10 -4t2 -11zM234 715h-67q-8 0 -8.5 5.5t6.5 12.5l64 72q7 8 11 11t16 3h105q5 0 8.5 -6t-1.5 -9l-105 -75q-10 -7 -15.5 -10.5t-13.5 -3.5z" />
    <glyph glyph-name="Icircumflex" unicode="&#xce;" horiz-adv-x="271" 
d="M164 14q-3 -14 -18 -14h-120q-16 0 -13 14l137 644q3 15 19 15h120q6 0 10 -4t2 -11zM114 713q-4 0 -4.5 3t2.5 6l103 90q7 7 12 7h64q7 0 11 -6l66 -91q2 -3 0.5 -6t-6.5 -3h-59q-8 0 -12 2t-9 6l-31 28q-5 5 -12 0l-45 -30q-5 -3 -8.5 -4.5t-9.5 -1.5h-62z" />
    <glyph glyph-name="Idieresis" unicode="&#xcf;" horiz-adv-x="271" 
d="M164 14q-3 -14 -18 -14h-120q-16 0 -13 14l137 644q3 15 19 15h120q6 0 10 -4t2 -11zM227 775q-5 -25 -21 -38.5t-51 -13.5q-31 0 -42 13.5t-6 38.5t22 38.5t48 13.5q35 0 45 -13.5t5 -38.5zM395 775q-5 -25 -20.5 -38.5t-50.5 -13.5q-32 0 -43 13.5t-6 38.5t22 38.5
t49 13.5q35 0 44.5 -13.5t4.5 -38.5z" />
    <glyph glyph-name="Eth" unicode="&#xd0;" horiz-adv-x="605" 
d="M618 346q-19 -87 -51.5 -147.5t-73 -99.5t-83 -60.5t-82.5 -30t-71 -8.5h-186q-6 0 -9.5 4t-2.5 10l137 644q3 15 18 15h186q37 0 76 -6.5t72.5 -25t55.5 -54.5t27.5 -94.5t-13.5 -146.5zM468 346q13 64 12.5 104.5t-11.5 62.5t-28 31.5t-36.5 11t-36.5 1.5h-30
q-9 0 -10.5 -1t-3.5 -8l-89 -422q-1 -7 0 -8.5t7 -1.5h17q23 0 51.5 6t58.5 28t56 68.5t43 127.5zM57 277q-10 0 -10.5 3t0.5 11l16 75q2 10 4.5 12.5t12.5 2.5h292q9 0 11 -2t0 -12l-17 -80q-1 -7 -3.5 -8.5t-13.5 -1.5h-292z" />
    <glyph glyph-name="Ntilde" unicode="&#xd1;" horiz-adv-x="642" 
d="M439 315q2 -4 7.5 -4t6.5 6q6 29 12 59.5t12 63.5t11.5 68.5t10 72.5t8.5 77q2 15 10 15h123q7 0 12.5 -4t5.5 -11q0 -37 -7 -89.5t-18.5 -113.5t-25.5 -124t-29 -123t-29 -110t-26 -84q-4 -10 -10.5 -12t-14.5 -2h-77q-8 0 -15 18l-163 346q-1 4 -4.5 4t-4.5 -5
q-12 -57 -20.5 -102.5t-15 -82t-11 -65.5t-7.5 -53.5t-5 -45.5q-1 -14 -11 -14h-120q-7 0 -14 2t-6 12q4 34 11 84t17.5 110t23 123t27 124t30 113.5t31.5 89.5q3 7 10.5 11t13.5 4h73q10 0 13 -10zM291 716q-6 0 -5 6q10 45 34.5 70.5t61.5 25.5q17 0 30.5 -9.5t23.5 -19
t15 -9.5t9.5 5t6.5 15q2 8 8 8h57q5 0 4 -7q-8 -40 -35.5 -67t-61.5 -27q-22 0 -34.5 9t-20 18t-15.5 9q-6 0 -9.5 -4.5t-5.5 -15.5q-1 -7 -8 -7h-55z" />
    <glyph glyph-name="Ograve" unicode="&#xd2;" horiz-adv-x="641" 
d="M59 334q23 109 63.5 186t110.5 117.5t181 40.5q86 0 136.5 -23t72 -67t20 -108t-18.5 -146q-23 -109 -62 -185.5t-109 -117t-185 -40.5q-111 0 -164 40.5t-60.5 117t15.5 185.5zM216 334q-19 -88 -16.5 -135.5t26 -66t66.5 -18.5t75 18t56.5 66t43.5 136q19 89 15 137
t-28.5 67t-67.5 19t-74 -19t-54 -67t-42 -137zM410 715q-8 0 -13 3.5t-13 10.5l-89 75q-4 3 0.5 9t9.5 6h105q12 0 15.5 -3t8.5 -11l49 -72q5 -7 3.5 -12.5t-9.5 -5.5h-67z" />
    <glyph glyph-name="Oacute" unicode="&#xd3;" horiz-adv-x="641" 
d="M59 334q23 109 63.5 186t110.5 117.5t181 40.5q86 0 136.5 -23t72 -67t20 -108t-18.5 -146q-23 -109 -62 -185.5t-109 -117t-185 -40.5q-111 0 -164 40.5t-60.5 117t15.5 185.5zM216 334q-19 -88 -16.5 -135.5t26 -66t66.5 -18.5t75 18t56.5 66t43.5 136q19 89 15 137
t-28.5 67t-67.5 19t-74 -19t-54 -67t-42 -137zM413 715h-67q-8 0 -8.5 5.5t6.5 12.5l64 72q7 8 11 11t16 3h105q5 0 8.5 -6t-1.5 -9l-105 -75q-10 -7 -15.5 -10.5t-13.5 -3.5z" />
    <glyph glyph-name="Ocircumflex" unicode="&#xd4;" horiz-adv-x="641" 
d="M59 334q23 109 63.5 186t110.5 117.5t181 40.5q86 0 136.5 -23t72 -67t20 -108t-18.5 -146q-23 -109 -62 -185.5t-109 -117t-185 -40.5q-111 0 -164 40.5t-60.5 117t15.5 185.5zM216 334q-19 -88 -16.5 -135.5t26 -66t66.5 -18.5t75 18t56.5 66t43.5 136q19 89 15 137
t-28.5 67t-67.5 19t-74 -19t-54 -67t-42 -137zM293 713q-4 0 -4.5 3t2.5 6l103 90q7 7 12 7h64q7 0 11 -6l66 -91q2 -3 0.5 -6t-6.5 -3h-59q-8 0 -12 2t-9 6l-31 28q-5 5 -12 0l-45 -30q-5 -3 -8.5 -4.5t-9.5 -1.5h-62z" />
    <glyph glyph-name="Otilde" unicode="&#xd5;" horiz-adv-x="641" 
d="M59 334q23 109 63.5 186t110.5 117.5t181 40.5q86 0 136.5 -23t72 -67t20 -108t-18.5 -146q-23 -109 -62 -185.5t-109 -117t-185 -40.5q-111 0 -164 40.5t-60.5 117t15.5 185.5zM216 334q-19 -88 -16.5 -135.5t26 -66t66.5 -18.5t75 18t56.5 66t43.5 136q19 89 15 137
t-28.5 67t-67.5 19t-74 -19t-54 -67t-42 -137zM306 716q-6 0 -5 6q10 45 34.5 70.5t61.5 25.5q17 0 30.5 -9.5t23.5 -19t15 -9.5t9.5 5t6.5 15q2 8 8 8h57q5 0 4 -7q-8 -40 -35.5 -67t-61.5 -27q-22 0 -34.5 9t-20 18t-15.5 9q-6 0 -9.5 -4.5t-5.5 -15.5q-1 -7 -8 -7h-55z
" />
    <glyph glyph-name="Odieresis" unicode="&#xd6;" horiz-adv-x="641" 
d="M59 334q23 109 63.5 186t110.5 117.5t181 40.5q86 0 136.5 -23t72 -67t20 -108t-18.5 -146q-23 -109 -62 -185.5t-109 -117t-185 -40.5q-111 0 -164 40.5t-60.5 117t15.5 185.5zM216 334q-19 -88 -16.5 -135.5t26 -66t66.5 -18.5t75 18t56.5 66t43.5 136q19 89 15 137
t-28.5 67t-67.5 19t-74 -19t-54 -67t-42 -137zM406 775q-5 -25 -21 -38.5t-51 -13.5q-31 0 -42 13.5t-6 38.5t22 38.5t48 13.5q35 0 45 -13.5t5 -38.5zM574 775q-5 -25 -20.5 -38.5t-50.5 -13.5q-32 0 -43 13.5t-6 38.5t22 38.5t49 13.5q35 0 44.5 -13.5t4.5 -38.5z" />
    <glyph glyph-name="multiply" unicode="&#xd7;" horiz-adv-x="531" 
d="M34 167q-4 7 -5 12t6 11l178 132l-111 123q-4 5 0 10.5t11 10.5l54 44q8 6 10.5 5.5t6.5 -5.5l113 -125l167 125q10 10 17 0l36 -44q5 -5 7 -10.5t-6 -10.5l-163 -123l122 -132q5 -6 2 -11t-11 -12l-51 -40q-10 -7 -15 -7t-11 7l-120 133l-178 -133q-9 -7 -14 -7t-12 7z
" />
    <glyph glyph-name="Oslash" unicode="&#xd8;" horiz-adv-x="631" 
d="M59 334q23 109 63.5 186t110.5 117.5t181 40.5q86 0 136.5 -23t72 -67t20 -108t-18.5 -146q-23 -109 -62 -185.5t-109 -117t-185 -40.5q-111 0 -164 40.5t-60.5 117t15.5 185.5zM216 334q-19 -88 -16.5 -135.5t26 -66t66.5 -18.5t75 18t56.5 66t43.5 136q19 89 15 137
t-28.5 67t-67.5 19t-74 -19t-54 -67t-42 -137zM112 15q-6 -7 -11.5 -11t-15.5 -4h-102q-7 0 -7 5t6 12l573 678q8 8 11.5 9.5t10.5 1.5h97q11 0 11.5 -5t-19.5 -28z" />
    <glyph glyph-name="Ugrave" unicode="&#xd9;" horiz-adv-x="635" 
d="M265 -9q-69 0 -112.5 13t-66.5 34.5t-32 47t-9.5 50t1.5 43.5q4 38 11 80.5t14 74.5q10 46 24 103.5t31.5 116t36.5 108.5q2 7 8 9t14 2h55.5h55.5q11 0 11 -3.5t-6 -24.5q-12 -40 -23.5 -81t-22.5 -83q-19 -74 -34 -142t-23 -136q-4 -25 -1 -42.5t11 -28.5t20 -16.5
t27 -7.5t31 -2q21 0 40.5 3.5t37 13.5t31.5 29.5t23 50.5q19 68 33 136t27 142q8 42 13.5 83t10.5 81q3 21 4.5 24.5t13.5 3.5h58h58q9 0 14 -2t4 -9q-2 -50 -10 -108.5t-18 -116t-20 -103.5q-7 -32 -17 -74.5t-23 -80.5q-8 -24 -23.5 -55.5t-47.5 -62t-87.5 -50.5
t-142.5 -20zM405 715q-8 0 -13 3.5t-13 10.5l-89 75q-4 3 0.5 9t9.5 6h105q12 0 15.5 -3t8.5 -11l49 -72q5 -7 3.5 -12.5t-9.5 -5.5h-67z" />
    <glyph glyph-name="Uacute" unicode="&#xda;" horiz-adv-x="635" 
d="M265 -9q-69 0 -112.5 13t-66.5 34.5t-32 47t-9.5 50t1.5 43.5q4 38 11 80.5t14 74.5q10 46 24 103.5t31.5 116t36.5 108.5q2 7 8 9t14 2h55.5h55.5q11 0 11 -3.5t-6 -24.5q-12 -40 -23.5 -81t-22.5 -83q-19 -74 -34 -142t-23 -136q-4 -25 -1 -42.5t11 -28.5t20 -16.5
t27 -7.5t31 -2q21 0 40.5 3.5t37 13.5t31.5 29.5t23 50.5q19 68 33 136t27 142q8 42 13.5 83t10.5 81q3 21 4.5 24.5t13.5 3.5h58h58q9 0 14 -2t4 -9q-2 -50 -10 -108.5t-18 -116t-20 -103.5q-7 -32 -17 -74.5t-23 -80.5q-8 -24 -23.5 -55.5t-47.5 -62t-87.5 -50.5
t-142.5 -20zM408 715h-67q-8 0 -8.5 5.5t6.5 12.5l64 72q7 8 11 11t16 3h105q5 0 8.5 -6t-1.5 -9l-105 -75q-10 -7 -15.5 -10.5t-13.5 -3.5z" />
    <glyph glyph-name="Ucircumflex" unicode="&#xdb;" horiz-adv-x="635" 
d="M265 -9q-69 0 -112.5 13t-66.5 34.5t-32 47t-9.5 50t1.5 43.5q4 38 11 80.5t14 74.5q10 46 24 103.5t31.5 116t36.5 108.5q2 7 8 9t14 2h55.5h55.5q11 0 11 -3.5t-6 -24.5q-12 -40 -23.5 -81t-22.5 -83q-19 -74 -34 -142t-23 -136q-4 -25 -1 -42.5t11 -28.5t20 -16.5
t27 -7.5t31 -2q21 0 40.5 3.5t37 13.5t31.5 29.5t23 50.5q19 68 33 136t27 142q8 42 13.5 83t10.5 81q3 21 4.5 24.5t13.5 3.5h58h58q9 0 14 -2t4 -9q-2 -50 -10 -108.5t-18 -116t-20 -103.5q-7 -32 -17 -74.5t-23 -80.5q-8 -24 -23.5 -55.5t-47.5 -62t-87.5 -50.5
t-142.5 -20zM288 713q-4 0 -4.5 3t2.5 6l103 90q7 7 12 7h64q7 0 11 -6l66 -91q2 -3 0.5 -6t-6.5 -3h-59q-8 0 -12 2t-9 6l-31 28q-5 5 -12 0l-45 -30q-5 -3 -8.5 -4.5t-9.5 -1.5h-62z" />
    <glyph glyph-name="Udieresis" unicode="&#xdc;" horiz-adv-x="635" 
d="M265 -9q-69 0 -112.5 13t-66.5 34.5t-32 47t-9.5 50t1.5 43.5q4 38 11 80.5t14 74.5q10 46 24 103.5t31.5 116t36.5 108.5q2 7 8 9t14 2h55.5h55.5q11 0 11 -3.5t-6 -24.5q-12 -40 -23.5 -81t-22.5 -83q-19 -74 -34 -142t-23 -136q-4 -25 -1 -42.5t11 -28.5t20 -16.5
t27 -7.5t31 -2q21 0 40.5 3.5t37 13.5t31.5 29.5t23 50.5q19 68 33 136t27 142q8 42 13.5 83t10.5 81q3 21 4.5 24.5t13.5 3.5h58h58q9 0 14 -2t4 -9q-2 -50 -10 -108.5t-18 -116t-20 -103.5q-7 -32 -17 -74.5t-23 -80.5q-8 -24 -23.5 -55.5t-47.5 -62t-87.5 -50.5
t-142.5 -20zM401 775q-5 -25 -21 -38.5t-51 -13.5q-31 0 -42 13.5t-6 38.5t22 38.5t48 13.5q35 0 45 -13.5t5 -38.5zM569 775q-5 -25 -20.5 -38.5t-50.5 -13.5q-32 0 -43 13.5t-6 38.5t22 38.5t49 13.5q35 0 44.5 -13.5t4.5 -38.5z" />
    <glyph glyph-name="Yacute" unicode="&#xdd;" horiz-adv-x="553" 
d="M371 275q-7 -8 -13 -22.5t-8 -25.5l-45 -213q-1 -6 -6.5 -10t-10.5 -4h-123q-6 0 -9.5 4t-2.5 10l45 213q6 27 -3 54.5t-16 43.5q-2 6 -9.5 25t-16.5 42t-16 42.5t-9 25.5q-16 52 -23.5 91t-9 63.5t-1.5 30.5q0 17 9 22.5t20 5.5h118q9 0 12 -3t4 -11q3 -34 7 -60
t8.5 -45.5t8.5 -32.5q8 -27 14.5 -46.5t12.5 -35.5q5 -11 8.5 -12t13.5 12q5 6 10.5 12t13 15.5t17.5 23.5q11 15 29.5 41.5t39 60.5t35.5 69q4 8 8.5 10t14.5 2h123q8 0 13.5 -5.5t-1.5 -22.5q-2 -6 -14.5 -32.5t-36.5 -68t-63 -93.5q-9 -13 -27.5 -35.5t-40.5 -49.5
t-43.5 -51t-36.5 -40zM375 715h-67q-8 0 -8.5 5.5t6.5 12.5l64 72q7 8 11 11t16 3h105q5 0 8.5 -6t-1.5 -9l-105 -75q-10 -7 -15.5 -10.5t-13.5 -3.5z" />
    <glyph glyph-name="Thorn" unicode="&#xde;" horiz-adv-x="482" 
d="M486 373q-13 -64 -49 -119t-90.5 -88t-125.5 -33h-43q-8 0 -9 -8l-24 -111q-3 -14 -19 -14h-121q-6 0 -9.5 4t-2.5 10l145 680q2 14 17 14h120q8 0 12.5 -2.5t2.5 -10.5l-20 -92q-1 -4 0.5 -7.5t6.5 -3.5h31q119 0 160.5 -53.5t17.5 -165.5zM339 372q14 65 -3.5 91
t-55.5 26h-27q-4 0 -5.5 -1t-3.5 -8l-49 -229q-1 -8 7 -8h28q38 0 67 34t42 95z" />
    <glyph glyph-name="germandbls" unicode="&#xdf;" horiz-adv-x="653" 
d="M6 -100q-21 0 -39 2t-26 9q-3 3 -4 7t0 9q3 16 6.5 32t6.5 32q3 11 7.5 13t8.5 0q6 -2 20 -5.5t32 1.5t34.5 28t27.5 72q7 31 20.5 96t32 149.5t37.5 175.5q6 29 23.5 61t47 59.5t73.5 45t103 17.5q15 0 40 -3t51.5 -13t48.5 -29t32 -50t0 -78q-4 -18 -12.5 -36
t-25.5 -43q-10 -15 -24 -28.5t-25 -21.5q-10 -7 -11 -13t4.5 -9.5t13.5 -6.5q26 -7 47 -23t34 -39q15 -24 20.5 -55t-2.5 -66q-13 -62 -48 -106.5t-84.5 -67.5t-109.5 -23q-27 0 -64 8.5t-62 30.5q-3 2 -6.5 6t-1.5 10q11 21 21.5 42.5t20.5 42.5q5 13 11.5 11.5t11.5 -6.5
q5 -6 16 -11.5t24 -9t25 -3.5q40 0 59.5 24t25.5 53q2 13 -3 35.5t-25 45.5q-6 7 -13.5 14t-17 13t-20.5 11.5t-25 10.5q-22 8 -31 20.5t-2.5 27.5t31.5 32q7 4 16.5 12t34.5 30q18 16 32 41t18 53q3 16 -1.5 26.5t-15 16.5t-24.5 6q-28 0 -55 -23.5t-38 -72.5
q-2 -9 -8.5 -40.5t-16 -76t-20 -92t-19.5 -89t-14.5 -67.5l-5.5 -26q-20 -97 -71.5 -148t-146.5 -51z" />
    <glyph glyph-name="agrave" unicode="&#xe0;" horiz-adv-x="479" 
d="M189 -6q-100 0 -144 57t-16 178q17 76 46 124t65.5 75t75 37.5t75.5 10.5q21 0 37 -7t21 -14l2 6q3 8 7 9.5t12 1.5h112q16 0 15 -14q-4 -25 -13 -68t-21 -93.5t-24.5 -100t-24.5 -88.5t-20 -56q-6 -13 -13.5 -19.5t-33.5 -14.5q-19 -7 -63 -15.5t-95 -8.5zM216 106
q9 0 17 1t15 2.5t11 2.5q5 1 7.5 4t4.5 10q5 21 10.5 42t10.5 41.5l10 41t9.5 40t9.5 38.5q2 7 0 11t-7 5q-7 2 -18.5 5.5t-21.5 3.5t-23 -4.5t-26 -17t-25 -37.5t-21 -67q-16 -70 -3.5 -96t40.5 -26zM307 525q-15 0 -29 14l-94 92q-4 4 -1 9.5t8 5.5h105q12 0 17 -3t10 -11
l53 -89q11 -18 -2 -18h-67z" />
    <glyph glyph-name="aacute" unicode="&#xe1;" horiz-adv-x="479" 
d="M189 -6q-100 0 -144 57t-16 178q17 76 46 124t65.5 75t75 37.5t75.5 10.5q21 0 37 -7t21 -14l2 6q3 8 7 9.5t12 1.5h112q16 0 15 -14q-4 -25 -13 -68t-21 -93.5t-24.5 -100t-24.5 -88.5t-20 -56q-6 -13 -13.5 -19.5t-33.5 -14.5q-19 -7 -63 -15.5t-95 -8.5zM216 106
q9 0 17 1t15 2.5t11 2.5q5 1 7.5 4t4.5 10q5 21 10.5 42t10.5 41.5l10 41t9.5 40t9.5 38.5q2 7 0 11t-7 5q-7 2 -18.5 5.5t-21.5 3.5t-23 -4.5t-26 -17t-25 -37.5t-21 -67q-16 -70 -3.5 -96t40.5 -26zM279 524q-10 0 -10.5 3.5t7.5 14.5l69 95q5 8 23 8h89q7 0 9.5 -3.5
t-5.5 -11.5l-93 -99q-5 -6 -9.5 -6.5t-13.5 -0.5h-66z" />
    <glyph glyph-name="acircumflex" unicode="&#xe2;" horiz-adv-x="479" 
d="M189 -6q-100 0 -144 57t-16 178q17 76 46 124t65.5 75t75 37.5t75.5 10.5q21 0 37 -7t21 -14l2 6q3 8 7 9.5t12 1.5h112q16 0 15 -14q-4 -25 -13 -68t-21 -93.5t-24.5 -100t-24.5 -88.5t-20 -56q-6 -13 -13.5 -19.5t-33.5 -14.5q-19 -7 -63 -15.5t-95 -8.5zM216 106
q9 0 17 1t15 2.5t11 2.5q5 1 7.5 4t4.5 10q5 21 10.5 42t10.5 41.5l10 41t9.5 40t9.5 38.5q2 7 0 11t-7 5q-7 2 -18.5 5.5t-21.5 3.5t-23 -4.5t-26 -17t-25 -37.5t-21 -67q-16 -70 -3.5 -96t40.5 -26zM214 524q-4 0 -4.5 3t2.5 6l102 103q4 4 9 4h58q6 0 7 -4l60 -103
q2 -3 0.5 -6t-6.5 -3h-63q-6 0 -8 4l-31 32q-4 5 -10 0l-43 -32q-6 -4 -10 -4h-63z" />
    <glyph glyph-name="atilde" unicode="&#xe3;" horiz-adv-x="479" 
d="M189 -6q-100 0 -144 57t-16 178q17 76 46 124t65.5 75t75 37.5t75.5 10.5q21 0 37 -7t21 -14l2 6q3 8 7 9.5t12 1.5h112q16 0 15 -14q-4 -25 -13 -68t-21 -93.5t-24.5 -100t-24.5 -88.5t-20 -56q-6 -13 -13.5 -19.5t-33.5 -14.5q-19 -7 -63 -15.5t-95 -8.5zM216 106
q9 0 17 1t15 2.5t11 2.5q5 1 7.5 4t4.5 10q5 21 10.5 42t10.5 41.5l10 41t9.5 40t9.5 38.5q2 7 0 11t-7 5q-7 2 -18.5 5.5t-21.5 3.5t-23 -4.5t-26 -17t-25 -37.5t-21 -67q-16 -70 -3.5 -96t40.5 -26zM217 526q-6 0 -5 6q9 41 33 64t61 23q17 0 31 -8t24.5 -16t16.5 -8
q5 0 9.5 3.5t5.5 12.5q1 4 4 5.5t4 1.5h56q6 0 5 -6q-8 -37 -35 -61.5t-61 -24.5q-22 0 -35 8t-21 15.5t-16 7.5q-7 0 -10.5 -3.5t-5.5 -12.5q-1 -7 -7 -7h-54z" />
    <glyph glyph-name="adieresis" unicode="&#xe4;" horiz-adv-x="479" 
d="M189 -6q-100 0 -144 57t-16 178q17 76 46 124t65.5 75t75 37.5t75.5 10.5q21 0 37 -7t21 -14l2 6q3 8 7 9.5t12 1.5h112q16 0 15 -14q-4 -25 -13 -68t-21 -93.5t-24.5 -100t-24.5 -88.5t-20 -56q-6 -13 -13.5 -19.5t-33.5 -14.5q-19 -7 -63 -15.5t-95 -8.5zM216 106
q9 0 17 1t15 2.5t11 2.5q5 1 7.5 4t4.5 10q5 21 10.5 42t10.5 41.5l10 41t9.5 40t9.5 38.5q2 7 0 11t-7 5q-7 2 -18.5 5.5t-21.5 3.5t-23 -4.5t-26 -17t-25 -37.5t-21 -67q-16 -70 -3.5 -96t40.5 -26zM315 574q-5 -25 -21 -38.5t-51 -13.5q-31 0 -42 13.5t-6 38.5t22 38.5
t48 13.5q35 0 45 -13.5t5 -38.5zM483 574q-5 -25 -20.5 -38.5t-50.5 -13.5q-32 0 -43 13.5t-6 38.5t22 38.5t49 13.5q35 0 44.5 -13.5t4.5 -38.5z" />
    <glyph glyph-name="aring" unicode="&#xe5;" horiz-adv-x="479" 
d="M189 -6q-100 0 -144 57t-16 178q17 76 46 124t65.5 75t75 37.5t75.5 10.5q21 0 37 -7t21 -14l2 6q3 8 7 9.5t12 1.5h112q16 0 15 -14q-4 -25 -13 -68t-21 -93.5t-24.5 -100t-24.5 -88.5t-20 -56q-6 -13 -13.5 -19.5t-33.5 -14.5q-19 -7 -63 -15.5t-95 -8.5zM216 106
q9 0 17 1t15 2.5t11 2.5q5 1 7.5 4t4.5 10q5 21 10.5 42t10.5 41.5l10 41t9.5 40t9.5 38.5q2 7 0 11t-7 5q-7 2 -18.5 5.5t-21.5 3.5t-23 -4.5t-26 -17t-25 -37.5t-21 -67q-16 -70 -3.5 -96t40.5 -26zM441 601q-9 -43 -37 -69t-79 -26q-55 0 -71.5 26t-7.5 69
q9 42 36.5 67.5t82.5 25.5q52 0 68.5 -25.5t7.5 -67.5zM383 603q2 12 -4 19.5t-28 7.5q-24 0 -31.5 -7.5t-9.5 -19.5q-2 -10 1.5 -20.5t27.5 -10.5q25 0 33.5 10.5t10.5 20.5z" />
    <glyph glyph-name="ae" unicode="&#xe6;" horiz-adv-x="746" 
d="M178 -7q-39 0 -73.5 6t-59.5 22.5t-34.5 47t0.5 78.5q11 53 39 86.5t63 51.5t69.5 24.5t59.5 6.5q18 0 34 -1t32 -3q7 -3 10 10q6 30 -11.5 42t-50.5 12q-37 0 -75 -15.5t-65 -26.5q-14 -6 -17.5 -4t-2.5 15q1 16 1.5 31t1.5 31q0 15 3.5 20t16.5 12q29 16 73 27t89 11
q35 0 61 -4t45.5 -12t31.5 -19q29 17 63.5 26.5t77.5 9.5q67 0 103 -18.5t50 -49t13 -67t-9 -72.5q-9 -43 -23 -58t-35 -15h-107h-107q-7 0 -9 -2.5t-4 -9.5q-4 -36 17 -62t66 -26q35 0 67.5 11t42.5 17q17 8 25 9.5t13 -16.5l14 -47q4 -13 -1 -18t-19 -13
q-40 -25 -94.5 -35.5t-104.5 -10.5q-33 0 -58.5 4.5t-44.5 13.5q-1 1 -2.5 1t-1.5 1q-2 -1 -3 -1t-3 -1q-23 -7 -57 -11.5t-64.5 -6.5t-45.5 -2zM282 202q3 14 -6.5 19t-22 5.5t-17.5 0.5q-11 0 -27.5 -5.5t-31.5 -22.5t-22 -52q-4 -18 -0.5 -33.5t15.5 -24.5t34 -9
q8 0 16 1t16 4t14 7.5t8 11.5q6 23 13 51t11 47zM561 275q8 0 9.5 3.5t3.5 16.5q4 19 3.5 32.5t-6 22.5t-15 13.5t-23.5 4.5q-16 0 -29 -6t-23 -16t-17 -22t-11 -24q-4 -16 -4.5 -20.5t3.5 -4.5h54.5h54.5z" />
    <glyph glyph-name="ccedilla" unicode="&#xe7;" horiz-adv-x="418" 
d="M197 -5q-66 0 -105 19t-55.5 52.5t-16.5 77.5t10 93q10 46 29 89t50.5 77.5t78 54.5t111.5 20q44 0 75 -9t53 -30q7 -8 8.5 -12t-0.5 -12l-17 -83q-1 -9 -7.5 -9.5t-11.5 3.5q-22 22 -48.5 28t-56.5 6q-22 0 -41.5 -10t-35 -27.5t-26 -39.5t-15.5 -47q-8 -41 -4 -70.5
t19 -44.5t40 -15q21 0 43.5 6t53.5 19q22 9 26 -9l13 -64q2 -9 -0.5 -14t-11.5 -10q-31 -20 -74.5 -29.5t-83.5 -9.5zM260 -128q-7 -31 -39 -56t-77 -25q-36 0 -55.5 14.5t-30.5 33.5q-5 9 -3 19t13 14l24 10q22 9 25 -4t11 -20t20 -7q15 0 24 8t10 17q3 11 -3.5 18
t-17.5 10.5t-25 2.5q-10 0 -11.5 6t2.5 16l29 63q3 7 9.5 9.5t14.5 2.5h32q9 0 5 -13l-19 -67l-17 29q47 -6 66.5 -26t12.5 -55z" />
    <glyph glyph-name="egrave" unicode="&#xe8;" horiz-adv-x="480" 
d="M30 237q10 46 29 89t50.5 77.5t78 54.5t111.5 20q67 0 103 -18.5t50 -49t13 -67t-9 -72.5q-9 -43 -23 -58t-35 -15h-215q-7 0 -8 -2.5t-3 -9.5q-3 -24 5.5 -44t28 -32t49.5 -12q35 0 66.5 11t43.5 17q16 8 23.5 9.5t12.5 -16.5l14 -47q5 -14 0.5 -18.5t-18.5 -12.5
q-40 -25 -95 -35.5t-105 -10.5q-67 0 -105.5 19t-55 52.5t-16.5 77.5t10 93zM313 295q4 19 3 32.5t-6.5 22.5t-15 13.5t-23.5 4.5q-16 0 -28.5 -6t-22 -16t-16.5 -22t-12 -24q-5 -16 -4.5 -20.5t4.5 -4.5h54.5h54.5q7 0 8.5 3.5t3.5 16.5zM289 525q-15 0 -29 14l-94 92
q-4 4 -1 9.5t8 5.5h105q12 0 17 -3t10 -11l53 -89q11 -18 -2 -18h-67z" />
    <glyph glyph-name="eacute" unicode="&#xe9;" horiz-adv-x="480" 
d="M30 237q10 46 29 89t50.5 77.5t78 54.5t111.5 20q67 0 103 -18.5t50 -49t13 -67t-9 -72.5q-9 -43 -23 -58t-35 -15h-215q-7 0 -8 -2.5t-3 -9.5q-3 -24 5.5 -44t28 -32t49.5 -12q35 0 66.5 11t43.5 17q16 8 23.5 9.5t12.5 -16.5l14 -47q5 -14 0.5 -18.5t-18.5 -12.5
q-40 -25 -95 -35.5t-105 -10.5q-67 0 -105.5 19t-55 52.5t-16.5 77.5t10 93zM313 295q4 19 3 32.5t-6.5 22.5t-15 13.5t-23.5 4.5q-16 0 -28.5 -6t-22 -16t-16.5 -22t-12 -24q-5 -16 -4.5 -20.5t4.5 -4.5h54.5h54.5q7 0 8.5 3.5t3.5 16.5zM261 524q-10 0 -10.5 3.5t7.5 14.5
l69 95q5 8 23 8h89q7 0 9.5 -3.5t-5.5 -11.5l-93 -99q-5 -6 -9.5 -6.5t-13.5 -0.5h-66z" />
    <glyph glyph-name="ecircumflex" unicode="&#xea;" horiz-adv-x="480" 
d="M30 237q10 46 29 89t50.5 77.5t78 54.5t111.5 20q67 0 103 -18.5t50 -49t13 -67t-9 -72.5q-9 -43 -23 -58t-35 -15h-215q-7 0 -8 -2.5t-3 -9.5q-3 -24 5.5 -44t28 -32t49.5 -12q35 0 66.5 11t43.5 17q16 8 23.5 9.5t12.5 -16.5l14 -47q5 -14 0.5 -18.5t-18.5 -12.5
q-40 -25 -95 -35.5t-105 -10.5q-67 0 -105.5 19t-55 52.5t-16.5 77.5t10 93zM313 295q4 19 3 32.5t-6.5 22.5t-15 13.5t-23.5 4.5q-16 0 -28.5 -6t-22 -16t-16.5 -22t-12 -24q-5 -16 -4.5 -20.5t4.5 -4.5h54.5h54.5q7 0 8.5 3.5t3.5 16.5zM196 524q-4 0 -4.5 3t2.5 6
l102 103q4 4 9 4h58q6 0 7 -4l60 -103q2 -3 0.5 -6t-6.5 -3h-63q-6 0 -8 4l-31 32q-4 5 -10 0l-43 -32q-6 -4 -10 -4h-63z" />
    <glyph glyph-name="edieresis" unicode="&#xeb;" horiz-adv-x="480" 
d="M30 237q10 46 29 89t50.5 77.5t78 54.5t111.5 20q67 0 103 -18.5t50 -49t13 -67t-9 -72.5q-9 -43 -23 -58t-35 -15h-215q-7 0 -8 -2.5t-3 -9.5q-3 -24 5.5 -44t28 -32t49.5 -12q35 0 66.5 11t43.5 17q16 8 23.5 9.5t12.5 -16.5l14 -47q5 -14 0.5 -18.5t-18.5 -12.5
q-40 -25 -95 -35.5t-105 -10.5q-67 0 -105.5 19t-55 52.5t-16.5 77.5t10 93zM313 295q4 19 3 32.5t-6.5 22.5t-15 13.5t-23.5 4.5q-16 0 -28.5 -6t-22 -16t-16.5 -22t-12 -24q-5 -16 -4.5 -20.5t4.5 -4.5h54.5h54.5q7 0 8.5 3.5t3.5 16.5zM297 574q-5 -25 -21 -38.5
t-51 -13.5q-31 0 -42 13.5t-6 38.5t22 38.5t48 13.5q35 0 45 -13.5t5 -38.5zM465 574q-5 -25 -20.5 -38.5t-50.5 -13.5q-32 0 -43 13.5t-6 38.5t22 38.5t49 13.5q35 0 44.5 -13.5t4.5 -38.5z" />
    <glyph glyph-name="igrave" unicode="&#xec;" horiz-adv-x="218" 
d="M139 14q-3 -14 -18 -14h-117q-14 0 -11 14l94 444q4 14 17 14h117q6 0 10 -4t2 -10zM149 525q-15 0 -29 14l-94 92q-4 4 -1 9.5t8 5.5h105q12 0 17 -3t10 -11l53 -89q11 -18 -2 -18h-67z" />
    <glyph glyph-name="iacute" unicode="&#xed;" horiz-adv-x="218" 
d="M139 14q-3 -14 -18 -14h-117q-14 0 -11 14l94 444q4 14 17 14h117q6 0 10 -4t2 -10zM121 524q-10 0 -10.5 3.5t7.5 14.5l69 95q5 8 23 8h89q7 0 9.5 -3.5t-5.5 -11.5l-93 -99q-5 -6 -9.5 -6.5t-13.5 -0.5h-66z" />
    <glyph glyph-name="icircumflex" unicode="&#xee;" horiz-adv-x="218" 
d="M139 14q-3 -14 -18 -14h-117q-14 0 -11 14l94 444q4 14 17 14h117q6 0 10 -4t2 -10zM56 524q-4 0 -4.5 3t2.5 6l102 103q4 4 9 4h58q6 0 7 -4l60 -103q2 -3 0.5 -6t-6.5 -3h-63q-6 0 -8 4l-31 32q-4 5 -10 0l-43 -32q-6 -4 -10 -4h-63z" />
    <glyph glyph-name="idieresis" unicode="&#xef;" horiz-adv-x="218" 
d="M139 14q-3 -14 -18 -14h-117q-14 0 -11 14l94 444q4 14 17 14h117q6 0 10 -4t2 -10zM157 574q-5 -25 -21 -38.5t-51 -13.5q-31 0 -42 13.5t-6 38.5t22 38.5t48 13.5q35 0 45 -13.5t5 -38.5zM325 574q-5 -25 -20.5 -38.5t-50.5 -13.5q-32 0 -43 13.5t-6 38.5t22 38.5
t49 13.5q35 0 44.5 -13.5t4.5 -38.5z" />
    <glyph glyph-name="eth" unicode="&#xf0;" horiz-adv-x="506" 
d="M476 238q-14 -67 -44.5 -122.5t-86 -88.5t-144.5 -33q-67 0 -106.5 18.5t-57 52t-18 78t10.5 95.5q15 68 47 122t87.5 85.5t139.5 31.5h10t9 -1q-10 15 -25 30t-36 31q-13 11 -30 23t-43 27q-10 7 -3 15l55 68q3 5 9 7t19 -4l14 -6t13 -7q84 -43 129.5 -110.5t57 -148
t-6.5 -163.5zM324 234q13 61 1.5 92.5t-49.5 31.5q-37 0 -61.5 -31.5t-37.5 -92.5q-13 -62 -3.5 -95.5t49.5 -33.5q41 0 64.5 34t36.5 95zM194 481q-8 -4 -10 -3.5t-4 4.5l-16 39q-1 5 0 8t9 7l254 138q8 4 10.5 4t4.5 -5l17 -42q2 -4 0 -5.5t-11 -6.5z" />
    <glyph glyph-name="ntilde" unicode="&#xf1;" horiz-adv-x="464" 
d="M7 0q-4 0 -10 2.5t-4 12.5q22 102 43.5 203.5t43.5 203.5q2 12 11 17t34 13q13 4 40 9.5t58 10t55 4.5q63 0 100 -18t53.5 -49.5t17 -72t-9.5 -86.5q-7 -34 -16.5 -72.5t-20.5 -77t-23 -72.5q-7 -21 -12 -24.5t-21 -3.5h-111q-10 0 -7 11q1 5 7.5 29t15 57.5t17.5 67
t15 57t7 26.5q12 51 9 75.5t-16 32t-33 7.5h-14t-9 -1q-8 -1 -12.5 -8t-7.5 -20q-15 -73 -32 -152.5t-35 -161.5q-1 -6 -3.5 -13t-10.5 -7h-119zM182 526q-6 0 -5 6q9 41 33 64t61 23q17 0 31 -8t24.5 -16t16.5 -8q5 0 9.5 3.5t5.5 12.5q1 4 4 5.5t4 1.5h56q6 0 5 -6
q-8 -37 -35 -61.5t-61 -24.5q-22 0 -35 8t-21 15.5t-16 7.5q-7 0 -10.5 -3.5t-5.5 -12.5q-1 -7 -7 -7h-54z" />
    <glyph glyph-name="ograve" unicode="&#xf2;" horiz-adv-x="506" 
d="M201 -8q-67 0 -106.5 18.5t-57 52.5t-17.5 79t11 97q15 69 47 123.5t87.5 86t139.5 31.5t126 -31.5t51.5 -86t-5.5 -123.5t-45.5 -125t-86 -89t-144.5 -33zM223 103q41 0 65 34.5t37 97.5q13 62 1.5 94t-49.5 32q-37 0 -61.5 -32t-37.5 -94q-13 -64 -4 -98t49 -34z
M293 525q-15 0 -29 14l-94 92q-4 4 -1 9.5t8 5.5h105q12 0 17 -3t10 -11l53 -89q11 -18 -2 -18h-67z" />
    <glyph glyph-name="oacute" unicode="&#xf3;" horiz-adv-x="506" 
d="M201 -8q-67 0 -106.5 18.5t-57 52.5t-17.5 79t11 97q15 69 47 123.5t87.5 86t139.5 31.5t126 -31.5t51.5 -86t-5.5 -123.5t-45.5 -125t-86 -89t-144.5 -33zM223 103q41 0 65 34.5t37 97.5q13 62 1.5 94t-49.5 32q-37 0 -61.5 -32t-37.5 -94q-13 -64 -4 -98t49 -34z
M265 524q-10 0 -10.5 3.5t7.5 14.5l69 95q5 8 23 8h89q7 0 9.5 -3.5t-5.5 -11.5l-93 -99q-5 -6 -9.5 -6.5t-13.5 -0.5h-66z" />
    <glyph glyph-name="ocircumflex" unicode="&#xf4;" horiz-adv-x="506" 
d="M201 -8q-67 0 -106.5 18.5t-57 52.5t-17.5 79t11 97q15 69 47 123.5t87.5 86t139.5 31.5t126 -31.5t51.5 -86t-5.5 -123.5t-45.5 -125t-86 -89t-144.5 -33zM223 103q41 0 65 34.5t37 97.5q13 62 1.5 94t-49.5 32q-37 0 -61.5 -32t-37.5 -94q-13 -64 -4 -98t49 -34z
M200 524q-4 0 -4.5 3t2.5 6l102 103q4 4 9 4h58q6 0 7 -4l60 -103q2 -3 0.5 -6t-6.5 -3h-63q-6 0 -8 4l-31 32q-4 5 -10 0l-43 -32q-6 -4 -10 -4h-63z" />
    <glyph glyph-name="otilde" unicode="&#xf5;" horiz-adv-x="506" 
d="M201 -8q-67 0 -106.5 18.5t-57 52.5t-17.5 79t11 97q15 69 47 123.5t87.5 86t139.5 31.5t126 -31.5t51.5 -86t-5.5 -123.5t-45.5 -125t-86 -89t-144.5 -33zM223 103q41 0 65 34.5t37 97.5q13 62 1.5 94t-49.5 32q-37 0 -61.5 -32t-37.5 -94q-13 -64 -4 -98t49 -34z
M203 526q-6 0 -5 6q9 41 33 64t61 23q17 0 31 -8t24.5 -16t16.5 -8q5 0 9.5 3.5t5.5 12.5q1 4 4 5.5t4 1.5h56q6 0 5 -6q-8 -37 -35 -61.5t-61 -24.5q-22 0 -35 8t-21 15.5t-16 7.5q-7 0 -10.5 -3.5t-5.5 -12.5q-1 -7 -7 -7h-54z" />
    <glyph glyph-name="odieresis" unicode="&#xf6;" horiz-adv-x="506" 
d="M201 -8q-67 0 -106.5 18.5t-57 52.5t-17.5 79t11 97q15 69 47 123.5t87.5 86t139.5 31.5t126 -31.5t51.5 -86t-5.5 -123.5t-45.5 -125t-86 -89t-144.5 -33zM223 103q41 0 65 34.5t37 97.5q13 62 1.5 94t-49.5 32q-37 0 -61.5 -32t-37.5 -94q-13 -64 -4 -98t49 -34z
M301 574q-5 -25 -21 -38.5t-51 -13.5q-31 0 -42 13.5t-6 38.5t22 38.5t48 13.5q35 0 45 -13.5t5 -38.5zM469 574q-5 -25 -20.5 -38.5t-50.5 -13.5q-32 0 -43 13.5t-6 38.5t22 38.5t49 13.5q35 0 44.5 -13.5t4.5 -38.5z" />
    <glyph glyph-name="divide" unicode="&#xf7;" horiz-adv-x="505" 
d="M305 153q-5 -28 -22 -41.5t-59 -13.5q-37 0 -50.5 13.5t-8.5 41.5q6 26 25.5 40.5t56.5 14.5q42 0 53 -14.5t5 -40.5zM373 469q-6 -27 -23 -41t-59 -14q-37 0 -50.5 14t-7.5 41q5 27 24.5 41t56.5 14q42 0 53 -14t6 -41zM72 263q-12 0 -13.5 3t0.5 11l15 71q2 10 5 12.5
t15 2.5h371q11 0 13.5 -2t0.5 -12l-16 -76q-1 -7 -4 -8.5t-17 -1.5h-370z" />
    <glyph glyph-name="oslash" unicode="&#xf8;" horiz-adv-x="883" 
d="M201 -8q-67 0 -106.5 18.5t-57 52.5t-17.5 79t11 97q15 69 47 123.5t87.5 86t139.5 31.5t126 -31.5t51.5 -86t-5.5 -123.5t-45.5 -125t-86 -89t-144.5 -33zM223 103q41 0 65 34.5t37 97.5q13 62 1.5 94t-49.5 32q-37 0 -61.5 -32t-37.5 -94q-13 -64 -4 -98t49 -34z
M88 -61q-4 -7 -8.5 -11t-10.5 -4h-62q-4 0 -2.5 5t5.5 12l418 597q5 8 8.5 9.5t7.5 1.5h58q7 0 6 -5t-18 -28z" />
    <glyph glyph-name="ugrave" unicode="&#xf9;" horiz-adv-x="463" 
d="M194 -4q-63 0 -100.5 18t-54 49.5t-17 72t9.5 86.5q8 35 17.5 73t21 76.5t22.5 72.5q7 21 12 24.5t21 3.5h94q15 0 22 -0.5t0 -20.5q-1 -4 -8 -29t-16.5 -61.5t-19 -74.5t-15.5 -68q-13 -59 -4 -84t43 -25q4 0 10.5 0.5t12.5 1.5t11 4.5t6 9.5l70 327q2 6 4 13t9 7h120
q4 0 9.5 -2t3.5 -13l-87 -407q-2 -12 -10.5 -17t-33.5 -13q-13 -4 -40 -9.5t-57.5 -10t-55.5 -4.5zM280 525q-15 0 -29 14l-94 92q-4 4 -1 9.5t8 5.5h105q12 0 17 -3t10 -11l53 -89q11 -18 -2 -18h-67z" />
    <glyph glyph-name="uacute" unicode="&#xfa;" horiz-adv-x="463" 
d="M194 -4q-63 0 -100.5 18t-54 49.5t-17 72t9.5 86.5q8 35 17.5 73t21 76.5t22.5 72.5q7 21 12 24.5t21 3.5h94q15 0 22 -0.5t0 -20.5q-1 -4 -8 -29t-16.5 -61.5t-19 -74.5t-15.5 -68q-13 -59 -4 -84t43 -25q4 0 10.5 0.5t12.5 1.5t11 4.5t6 9.5l70 327q2 6 4 13t9 7h120
q4 0 9.5 -2t3.5 -13l-87 -407q-2 -12 -10.5 -17t-33.5 -13q-13 -4 -40 -9.5t-57.5 -10t-55.5 -4.5zM252 524q-10 0 -10.5 3.5t7.5 14.5l69 95q5 8 23 8h89q7 0 9.5 -3.5t-5.5 -11.5l-93 -99q-5 -6 -9.5 -6.5t-13.5 -0.5h-66z" />
    <glyph glyph-name="ucircumflex" unicode="&#xfb;" horiz-adv-x="463" 
d="M194 -4q-63 0 -100.5 18t-54 49.5t-17 72t9.5 86.5q8 35 17.5 73t21 76.5t22.5 72.5q7 21 12 24.5t21 3.5h94q15 0 22 -0.5t0 -20.5q-1 -4 -8 -29t-16.5 -61.5t-19 -74.5t-15.5 -68q-13 -59 -4 -84t43 -25q4 0 10.5 0.5t12.5 1.5t11 4.5t6 9.5l70 327q2 6 4 13t9 7h120
q4 0 9.5 -2t3.5 -13l-87 -407q-2 -12 -10.5 -17t-33.5 -13q-13 -4 -40 -9.5t-57.5 -10t-55.5 -4.5zM187 524q-4 0 -4.5 3t2.5 6l102 103q4 4 9 4h58q6 0 7 -4l60 -103q2 -3 0.5 -6t-6.5 -3h-63q-6 0 -8 4l-31 32q-4 5 -10 0l-43 -32q-6 -4 -10 -4h-63z" />
    <glyph glyph-name="udieresis" unicode="&#xfc;" horiz-adv-x="463" 
d="M194 -4q-63 0 -100.5 18t-54 49.5t-17 72t9.5 86.5q8 35 17.5 73t21 76.5t22.5 72.5q7 21 12 24.5t21 3.5h94q15 0 22 -0.5t0 -20.5q-1 -4 -8 -29t-16.5 -61.5t-19 -74.5t-15.5 -68q-13 -59 -4 -84t43 -25q4 0 10.5 0.5t12.5 1.5t11 4.5t6 9.5l70 327q2 6 4 13t9 7h120
q4 0 9.5 -2t3.5 -13l-87 -407q-2 -12 -10.5 -17t-33.5 -13q-13 -4 -40 -9.5t-57.5 -10t-55.5 -4.5zM288 574q-5 -25 -21 -38.5t-51 -13.5q-31 0 -42 13.5t-6 38.5t22 38.5t48 13.5q35 0 45 -13.5t5 -38.5zM456 574q-5 -25 -20.5 -38.5t-50.5 -13.5q-32 0 -43 13.5t-6 38.5
t22 38.5t49 13.5q35 0 44.5 -13.5t4.5 -38.5z" />
    <glyph glyph-name="yacute" unicode="&#xfd;" horiz-adv-x="435" 
d="M-11 -126q-30 0 -50 4t-32 11q-20 13 -5 33l39 53q9 14 19 10q7 -2 14.5 -3.5t19.5 -1.5q18 0 37 7.5t33 20.5q9 8 16 18t11.5 21.5t5.5 23.5q2 18 -0.5 31t-8.5 40q-7 29 -12.5 65t-8.5 76.5t-4 83t0 83.5q0 22 18 22h115q12 0 15.5 -6.5t2.5 -23.5q-1 -19 -2 -49
t-1 -62.5v-61.5t1 -47q0 -11 4.5 -12.5t11.5 11.5q18 36 35 74.5t34 78t33 78.5q5 11 9.5 15.5t16.5 4.5h98q25 0 15 -24q-16 -41 -33 -78t-37.5 -76t-47.5 -88q-16 -29 -41 -71t-57.5 -87.5t-73 -85t-88 -64t-102.5 -24.5zM230 524q-10 0 -10.5 3.5t7.5 14.5l69 95
q5 8 23 8h89q7 0 9.5 -3.5t-5.5 -11.5l-93 -99q-5 -6 -9.5 -6.5t-13.5 -0.5h-66z" />
    <glyph glyph-name="thorn" unicode="&#xfe;" horiz-adv-x="475" 
d="M452 247q-14 -66 -39 -112.5t-56 -75.5t-64 -45q-25 -12 -56 -16.5t-48 -4.5h-17.5h-9.5q-7 0 -16.5 1t-12.5 2q-4 -22 -9 -44l-10 -44q-1 -8 -4 -11t-13 -3h-58h-58q-6 0 -9 1.5t-2 8.5q36 167 71.5 334.5t70.5 334.5q2 8 8 11.5t15 3.5h58h58q5 0 10 -2.5t3 -10.5
q-5 -24 -10.5 -48t-10.5 -48q12 1 23.5 1.5t23.5 0.5q99 0 143.5 -56.5t18.5 -177.5zM303 248q15 70 2 95.5t-40 25.5q-9 0 -18 -1t-17 -2.5t-14 -4.5q-5 -3 -6 -12q-13 -51 -24.5 -102.5t-22.5 -102.5q-1 -6 -1 -7.5t3 -3.5q4 -3 12.5 -5.5t18 -4t16.5 -1.5q14 0 30.5 8.5
t33 35.5t27.5 82z" />
    <glyph glyph-name="ydieresis" unicode="&#xff;" horiz-adv-x="435" 
d="M-11 -126q-30 0 -50 4t-32 11q-20 13 -5 33l39 53q9 14 19 10q7 -2 14.5 -3.5t19.5 -1.5q18 0 37 7.5t33 20.5q9 8 16 18t11.5 21.5t5.5 23.5q2 18 -0.5 31t-8.5 40q-7 29 -12.5 65t-8.5 76.5t-4 83t0 83.5q0 22 18 22h115q12 0 15.5 -6.5t2.5 -23.5q-1 -19 -2 -49
t-1 -62.5v-61.5t1 -47q0 -11 4.5 -12.5t11.5 11.5q18 36 35 74.5t34 78t33 78.5q5 11 9.5 15.5t16.5 4.5h98q25 0 15 -24q-16 -41 -33 -78t-37.5 -76t-47.5 -88q-16 -29 -41 -71t-57.5 -87.5t-73 -85t-88 -64t-102.5 -24.5zM266 574q-5 -25 -21 -38.5t-51 -13.5
q-31 0 -42 13.5t-6 38.5t22 38.5t48 13.5q35 0 45 -13.5t5 -38.5zM434 574q-5 -25 -20.5 -38.5t-50.5 -13.5q-32 0 -43 13.5t-6 38.5t22 38.5t49 13.5q35 0 44.5 -13.5t4.5 -38.5z" />
    <glyph glyph-name="Amacron" unicode="&#x100;" horiz-adv-x="549" 
d="M-24 0q-10 0 -10 8t9 32q15 44 42 106.5t61 132.5t71 140t72.5 130.5t65.5 101.5q8 10 15 16t15 6h99q8 -3 12.5 -7.5t7.5 -14.5q13 -41 23.5 -101.5t18 -130.5t11.5 -140t4.5 -132.5t-2.5 -106.5q-1 -24 -5 -32t-15 -8h-118q-9 0 -11.5 5t-1.5 27t0.5 52t-0.5 49
q0 8 -1 9t-8 1h-154q-7 0 -8.5 -1t-4.5 -9q-7 -19 -20.5 -49t-21.5 -52q-9 -22 -13.5 -27t-13.5 -5h-119zM234 258h90q7 0 8 2.5t1 9.5q-1 40 -4 85.5t-6 79.5q2 9 -4 9h-4q-2 0 -8 -9q-10 -22 -24 -50t-28 -57.5t-27 -57.5q-3 -7 -2 -9.5t8 -2.5zM494 735q-1 -4 -3 -5
t-11 -1h-216q-8 0 -9 2t0 7l14 66q2 7 4 9t9 2h217q8 0 10 -1.5t0 -8.5z" />
    <glyph glyph-name="amacron" unicode="&#x101;" horiz-adv-x="479" 
d="M189 -6q-100 0 -144 57t-16 178q17 76 46 124t65.5 75t75 37.5t75.5 10.5q21 0 37 -7t21 -14l2 6q3 8 7 9.5t12 1.5h112q16 0 15 -14q-4 -25 -13 -68t-21 -93.5t-24.5 -100t-24.5 -88.5t-20 -56q-6 -13 -13.5 -19.5t-33.5 -14.5q-19 -7 -63 -15.5t-95 -8.5zM216 106
q9 0 17 1t15 2.5t11 2.5q5 1 7.5 4t4.5 10q5 21 10.5 42t10.5 41.5l10 41t9.5 40t9.5 38.5q2 7 0 11t-7 5q-7 2 -18.5 5.5t-21.5 3.5t-23 -4.5t-26 -17t-25 -37.5t-21 -67q-16 -70 -3.5 -96t40.5 -26zM450 534q-1 -4 -3 -5t-11 -1h-216q-8 0 -9 2t0 7l14 66q2 7 4 9t9 2h217
q8 0 10 -1.5t0 -8.5z" />
    <glyph glyph-name="Abreve" unicode="&#x102;" horiz-adv-x="549" 
d="M-24 0q-10 0 -10 8t9 32q15 44 42 106.5t61 132.5t71 140t72.5 130.5t65.5 101.5q8 10 15 16t15 6h99q8 -3 12.5 -7.5t7.5 -14.5q13 -41 23.5 -101.5t18 -130.5t11.5 -140t4.5 -132.5t-2.5 -106.5q-1 -24 -5 -32t-15 -8h-118q-9 0 -11.5 5t-1.5 27t0.5 52t-0.5 49
q0 8 -1 9t-8 1h-154q-7 0 -8.5 -1t-4.5 -9q-7 -19 -20.5 -49t-21.5 -52q-9 -22 -13.5 -27t-13.5 -5h-119zM234 258h90q7 0 8 2.5t1 9.5q-1 40 -4 85.5t-6 79.5q2 9 -4 9h-4q-2 0 -8 -9q-10 -22 -24 -50t-28 -57.5t-27 -57.5q-3 -7 -2 -9.5t8 -2.5zM370 719q-59 0 -85.5 25
t-17.5 67q4 18 7 22t16 4h53q12 0 14 -2t0 -13q-2 -12 6 -20t23 -8t27.5 8t14.5 20q2 10 6.5 12.5t11.5 2.5h58q11 0 12 -4.5t-3 -21.5q-9 -42 -46 -67t-97 -25z" />
    <glyph glyph-name="abreve" unicode="&#x103;" horiz-adv-x="479" 
d="M189 -6q-100 0 -144 57t-16 178q17 76 46 124t65.5 75t75 37.5t75.5 10.5q21 0 37 -7t21 -14l2 6q3 8 7 9.5t12 1.5h112q16 0 15 -14q-4 -25 -13 -68t-21 -93.5t-24.5 -100t-24.5 -88.5t-20 -56q-6 -13 -13.5 -19.5t-33.5 -14.5q-19 -7 -63 -15.5t-95 -8.5zM216 106
q9 0 17 1t15 2.5t11 2.5q5 1 7.5 4t4.5 10q5 21 10.5 42t10.5 41.5l10 41t9.5 40t9.5 38.5q2 7 0 11t-7 5q-7 2 -18.5 5.5t-21.5 3.5t-23 -4.5t-26 -17t-25 -37.5t-21 -67q-16 -70 -3.5 -96t40.5 -26zM326 518q-59 0 -85.5 25t-17.5 67q4 18 7 22t16 4h53q12 0 14 -2t0 -13
q-2 -12 6 -20t23 -8t27.5 8t14.5 20q2 10 6.5 12.5t11.5 2.5h58q11 0 12 -4.5t-3 -21.5q-9 -42 -46 -67t-97 -25z" />
    <glyph glyph-name="Aogonek" unicode="&#x104;" horiz-adv-x="549" 
d="M-24 0q-10 0 -10 8t9 32q15 44 42 106.5t61 132.5t71 140t72.5 130.5t65.5 101.5q8 10 15 16t15 6h99q8 -3 12.5 -7.5t7.5 -14.5q13 -41 23.5 -101.5t18 -130.5t11.5 -140t4.5 -132.5t-2.5 -106.5q-1 -24 -5 -32t-15 -8h-118q-9 0 -11.5 5t-1.5 27t0.5 52t-0.5 49
q0 8 -1 9t-8 1h-154q-7 0 -8.5 -1t-4.5 -9q-7 -19 -20.5 -49t-21.5 -52q-9 -22 -13.5 -27t-13.5 -5h-119zM234 258h90q7 0 8 2.5t1 9.5q-1 40 -4 85.5t-6 79.5q2 9 -4 9h-4q-2 0 -8 -9q-10 -22 -24 -50t-28 -57.5t-27 -57.5q-3 -7 -2 -9.5t8 -2.5zM294 -257q-52 0 -82 28
t-21 71q8 35 28.5 63t51 50t68.5 41q13 6 27.5 11t30.5 5h71q8 0 7.5 -4.5t-8.5 -9.5q-70 -38 -105 -63.5t-48 -44t-17 -34.5q-4 -20 6 -27.5t23 -6.5q15 1 40 11t44 23q8 5 14.5 4.5t4.5 -8.5l-10 -43q-1 -10 -8.5 -18t-18.5 -15q-25 -16 -48.5 -24.5t-49.5 -8.5z" />
    <glyph glyph-name="aogonek" unicode="&#x105;" horiz-adv-x="479" 
d="M189 -6q-100 0 -144 57t-16 178q17 76 46 124t65.5 75t75 37.5t75.5 10.5q21 0 37 -7t21 -14l2 6q3 8 7 9.5t12 1.5h112q16 0 15 -14q-4 -25 -13 -68t-21 -93.5t-24.5 -100t-24.5 -88.5t-20 -56q-6 -13 -13.5 -19.5t-33.5 -14.5q-19 -7 -63 -15.5t-95 -8.5zM216 106
q9 0 17 1t15 2.5t11 2.5q5 1 7.5 4t4.5 10q5 21 10.5 42t10.5 41.5l10 41t9.5 40t9.5 38.5q2 7 0 11t-7 5q-7 2 -18.5 5.5t-21.5 3.5t-23 -4.5t-26 -17t-25 -37.5t-21 -67q-16 -70 -3.5 -96t40.5 -26zM202 -224q-52 0 -82 28t-21 71q8 35 28.5 63t51 50t68.5 41
q13 6 27.5 11t30.5 5h71q8 0 7.5 -4.5t-8.5 -9.5q-70 -38 -105 -63.5t-48 -44t-17 -34.5q-4 -20 6 -27.5t23 -6.5q15 1 40 11t44 23q8 5 14.5 4.5t4.5 -8.5l-10 -43q-1 -10 -8.5 -18t-18.5 -15q-25 -16 -48.5 -24.5t-49.5 -8.5z" />
    <glyph glyph-name="Cacute" unicode="&#x106;" horiz-adv-x="476" 
d="M404 39q-6 -27 -39 -35q-16 -5 -37.5 -7.5t-40.5 -3.5t-29 -1q-123 0 -179 87.5t-20 255.5q36 170 126.5 257.5t218.5 87.5q10 0 28.5 -1.5t39 -4t33.5 -7.5q14 -4 21.5 -9t5.5 -16l-21 -99q-6 -31 -35 -7q-19 14 -42 20.5t-43 6.5q-37 0 -65.5 -16t-49 -45t-35 -68
t-24.5 -86q-7 -32 -11.5 -65.5t-3 -65t10.5 -56.5t28.5 -39.5t52.5 -14.5q24 0 49.5 6.5t41.5 15.5q26 14 33.5 13t3.5 -18zM416 715h-67q-8 0 -8.5 5.5t6.5 12.5l64 72q7 8 11 11t16 3h105q5 0 8.5 -6t-1.5 -9l-105 -75q-10 -7 -15.5 -10.5t-13.5 -3.5z" />
    <glyph glyph-name="cacute" unicode="&#x107;" horiz-adv-x="418" 
d="M197 -5q-66 0 -105 19t-55.5 52.5t-16.5 77.5t10 93q10 46 29 89t50.5 77.5t78 54.5t111.5 20q44 0 75 -9t53 -30q7 -8 8.5 -12t-0.5 -12l-17 -83q-1 -9 -7.5 -9.5t-11.5 3.5q-22 22 -48.5 28t-56.5 6q-22 0 -41.5 -10t-35 -27.5t-26 -39.5t-15.5 -47q-8 -41 -4 -70.5
t19 -44.5t40 -15q21 0 43.5 6t53.5 19q22 9 26 -9l13 -64q2 -9 -0.5 -14t-11.5 -10q-31 -20 -74.5 -29.5t-83.5 -9.5zM261 524q-10 0 -10.5 3.5t7.5 14.5l69 95q5 8 23 8h89q7 0 9.5 -3.5t-5.5 -11.5l-93 -99q-5 -6 -9.5 -6.5t-13.5 -0.5h-66z" />
    <glyph glyph-name="Cdotaccent" unicode="&#x10a;" horiz-adv-x="476" 
d="M404 39q-6 -27 -39 -35q-16 -5 -37.5 -7.5t-40.5 -3.5t-29 -1q-123 0 -179 87.5t-20 255.5q36 170 126.5 257.5t218.5 87.5q10 0 28.5 -1.5t39 -4t33.5 -7.5q14 -4 21.5 -9t5.5 -16l-21 -99q-6 -31 -35 -7q-19 14 -42 20.5t-43 6.5q-37 0 -65.5 -16t-49 -45t-35 -68
t-24.5 -86q-7 -32 -11.5 -65.5t-3 -65t10.5 -56.5t28.5 -39.5t52.5 -14.5q24 0 49.5 6.5t41.5 15.5q26 14 33.5 13t3.5 -18zM488 772q-5 -25 -19 -38.5t-47 -13.5t-42.5 13.5t-4.5 38.5q5 23 20.5 37.5t48.5 14.5q35 0 42 -14.5t2 -37.5z" />
    <glyph glyph-name="cdotaccent" unicode="&#x10b;" horiz-adv-x="418" 
d="M197 -5q-66 0 -105 19t-55.5 52.5t-16.5 77.5t10 93q10 46 29 89t50.5 77.5t78 54.5t111.5 20q44 0 75 -9t53 -30q7 -8 8.5 -12t-0.5 -12l-17 -83q-1 -9 -7.5 -9.5t-11.5 3.5q-22 22 -48.5 28t-56.5 6q-22 0 -41.5 -10t-35 -27.5t-26 -39.5t-15.5 -47q-8 -41 -4 -70.5
t19 -44.5t40 -15q21 0 43.5 6t53.5 19q22 9 26 -9l13 -64q2 -9 -0.5 -14t-11.5 -10q-31 -20 -74.5 -29.5t-83.5 -9.5zM376 571q-5 -25 -19 -38.5t-47 -13.5t-42.5 13.5t-4.5 38.5q5 23 20.5 37.5t48.5 14.5q35 0 42 -14.5t2 -37.5z" />
    <glyph glyph-name="Ccaron" unicode="&#x10c;" horiz-adv-x="476" 
d="M404 39q-6 -27 -39 -35q-16 -5 -37.5 -7.5t-40.5 -3.5t-29 -1q-123 0 -179 87.5t-20 255.5q36 170 126.5 257.5t218.5 87.5q10 0 28.5 -1.5t39 -4t33.5 -7.5q14 -4 21.5 -9t5.5 -16l-21 -99q-6 -31 -35 -7q-19 14 -42 20.5t-43 6.5q-37 0 -65.5 -16t-49 -45t-35 -68
t-24.5 -86q-7 -32 -11.5 -65.5t-3 -65t10.5 -56.5t28.5 -39.5t52.5 -14.5q24 0 49.5 6.5t41.5 15.5q26 14 33.5 13t3.5 -18zM389 713q-6 0 -7 4l-70 93q-1 3 0.5 6t5.5 3h59q6 0 8 -4l43 -39q3 -5 10 0l59 39q6 4 10 4h59q5 0 5 -3t-3 -6l-108 -93q-4 -4 -9 -4h-62z" />
    <glyph glyph-name="ccaron" unicode="&#x10d;" horiz-adv-x="418" 
d="M197 -5q-66 0 -105 19t-55.5 52.5t-16.5 77.5t10 93q10 46 29 89t50.5 77.5t78 54.5t111.5 20q44 0 75 -9t53 -30q7 -8 8.5 -12t-0.5 -12l-17 -83q-1 -9 -7.5 -9.5t-11.5 3.5q-22 22 -48.5 28t-56.5 6q-22 0 -41.5 -10t-35 -27.5t-26 -39.5t-15.5 -47q-8 -41 -4 -70.5
t19 -44.5t40 -15q21 0 43.5 6t53.5 19q22 9 26 -9l13 -64q2 -9 -0.5 -14t-11.5 -10q-31 -20 -74.5 -29.5t-83.5 -9.5zM281 524q-6 0 -7 4l-60 103q-1 3 0.5 6t5.5 3h63q6 0 8 -4l31 -32q3 -5 10 0l43 32q6 4 10 4h63q5 0 5 -3t-3 -6l-102 -103q-4 -4 -9 -4h-58z" />
    <glyph glyph-name="Dcaron" unicode="&#x10e;" horiz-adv-x="587" 
d="M572 346q-19 -87 -51.5 -147.5t-73 -99.5t-83 -60.5t-82.5 -30t-71 -8.5h-186q-6 0 -9.5 4t-2.5 10l137 644q3 15 18 15h186q37 0 76 -6.5t72.5 -25t55.5 -54.5t27.5 -94.5t-13.5 -146.5zM422 346q13 64 12.5 104.5t-11.5 62.5t-28 31.5t-36.5 11t-36.5 1.5h-30
q-9 0 -10.5 -1t-3.5 -8l-89 -422q-1 -7 0 -8.5t7 -1.5h17q23 0 51.5 6t58.5 28t56 68.5t43 127.5zM323 713q-6 0 -7 4l-70 93q-1 3 0.5 6t5.5 3h59q6 0 8 -4l43 -39q3 -5 10 0l59 39q6 4 10 4h59q5 0 5 -3t-3 -6l-108 -93q-4 -4 -9 -4h-62z" />
    <glyph glyph-name="dcaron" unicode="&#x10f;" horiz-adv-x="482" 
d="M29 229q18 76 47 124t64.5 75t74 37.5t75.5 10.5q11 0 25.5 -3t23.5 -5q5 -1 9.5 0t6.5 9q4 18 7 36.5t5.5 36.5t4.5 36.5l4 37t4 36.5q1 20 5.5 23.5t15.5 3.5h110q8 0 13 -1.5t4 -9.5q-3 -37 -11.5 -91.5t-20 -118.5t-24.5 -128.5t-27 -122.5t-27 -101t-24 -62
q-6 -13 -13.5 -19.5t-33.5 -14.5q-19 -7 -63 -15.5t-96 -8.5q-39 0 -70 8.5t-52 25.5q-34 27 -44 77t7 124zM179 228q-16 -70 -3.5 -96t40.5 -26q9 0 17.5 1t16.5 3t15 4q2 2 3.5 4.5t2.5 7.5q5 21 10.5 41.5t10.5 41l10 41l10 41t10 41.5q2 6 1 8t-5 3q-10 4 -22 7.5
t-22 3.5t-23 -4.5t-26 -17t-25 -37.5t-21 -67zM587 495q-6 0 -8.5 4.5t-0.5 17.5l24 148q3 17 8 21.5t18 4.5h56q16 0 18.5 -4.5t-0.5 -14.5l-43 -159q-3 -11 -7 -14.5t-13 -3.5h-52z" />
    <glyph glyph-name="Dcroat" unicode="&#x110;" horiz-adv-x="605" 
d="M618 346q-19 -87 -51.5 -147.5t-73 -99.5t-83 -60.5t-82.5 -30t-71 -8.5h-186q-6 0 -9.5 4t-2.5 10l137 644q3 15 18 15h186q37 0 76 -6.5t72.5 -25t55.5 -54.5t27.5 -94.5t-13.5 -146.5zM468 346q13 64 12.5 104.5t-11.5 62.5t-28 31.5t-36.5 11t-36.5 1.5h-30
q-9 0 -10.5 -1t-3.5 -8l-89 -422q-1 -7 0 -8.5t7 -1.5h17q23 0 51.5 6t58.5 28t56 68.5t43 127.5zM57 277q-10 0 -10.5 3t0.5 11l16 75q2 10 4.5 12.5t12.5 2.5h292q9 0 11 -2t0 -12l-17 -80q-1 -7 -3.5 -8.5t-13.5 -1.5h-292z" />
    <glyph glyph-name="dcroat" unicode="&#x111;" horiz-adv-x="458" 
d="M29 229q18 76 47 124t64.5 75t74 37.5t75.5 10.5q11 0 25.5 -3t23.5 -5q5 -1 9.5 0t6.5 9q4 18 7 36.5t5.5 36.5t4.5 36.5l4 37t4 36.5q1 20 5.5 23.5t15.5 3.5h110q8 0 13 -1.5t4 -9.5q-3 -37 -11.5 -91.5t-20 -118.5t-24.5 -128.5t-27 -122.5t-27 -101t-24 -62
q-6 -13 -13.5 -19.5t-33.5 -14.5q-19 -7 -63 -15.5t-96 -8.5q-39 0 -70 8.5t-52 25.5q-34 27 -44 77t7 124zM179 228q-16 -70 -3.5 -96t40.5 -26q9 0 17.5 1t16.5 3t15 4q2 2 3.5 4.5t2.5 7.5q5 21 10.5 41.5t10.5 41l10 41l10 41t10 41.5q2 6 1 8t-5 3q-10 4 -22 7.5
t-22 3.5t-23 -4.5t-26 -17t-25 -37.5t-21 -67zM230 545q-10 0 -10.5 3t0.5 11l16 75q2 10 4.5 12.5t12.5 2.5h292q9 0 11 -2t0 -12l-17 -80q-1 -7 -3.5 -8.5t-13.5 -1.5h-292z" />
    <glyph glyph-name="Emacron" unicode="&#x112;" horiz-adv-x="458" 
d="M25 0q-6 0 -9.5 4t-2.5 10l137 644q3 15 18 15h340q14 0 16 -2t-1 -15l-17 -80q-3 -14 -7 -16.5t-16 -2.5h-194q-7 0 -7.5 -1t-2.5 -7l-31 -144q-1 -7 -0.5 -8t6.5 -1h150q15 0 16.5 -3t-1.5 -19l-15 -71q-3 -15 -6.5 -18t-17.5 -3h-150q-5 0 -7 -1t-3 -6l-31 -150
q-1 -6 -0.5 -7.5t6.5 -1.5h192q17 0 18.5 -3.5t-1.5 -18.5l-15 -72q-4 -16 -8.5 -19t-19.5 -3h-336zM476 735q-1 -4 -3 -5t-11 -1h-216q-8 0 -9 2t0 7l14 66q2 7 4 9t9 2h217q8 0 10 -1.5t0 -8.5z" />
    <glyph glyph-name="emacron" unicode="&#x113;" horiz-adv-x="480" 
d="M30 237q10 46 29 89t50.5 77.5t78 54.5t111.5 20q67 0 103 -18.5t50 -49t13 -67t-9 -72.5q-9 -43 -23 -58t-35 -15h-215q-7 0 -8 -2.5t-3 -9.5q-3 -24 5.5 -44t28 -32t49.5 -12q35 0 66.5 11t43.5 17q16 8 23.5 9.5t12.5 -16.5l14 -47q5 -14 0.5 -18.5t-18.5 -12.5
q-40 -25 -95 -35.5t-105 -10.5q-67 0 -105.5 19t-55 52.5t-16.5 77.5t10 93zM313 295q4 19 3 32.5t-6.5 22.5t-15 13.5t-23.5 4.5q-16 0 -28.5 -6t-22 -16t-16.5 -22t-12 -24q-5 -16 -4.5 -20.5t4.5 -4.5h54.5h54.5q7 0 8.5 3.5t3.5 16.5zM432 534q-1 -4 -3 -5t-11 -1h-216
q-8 0 -9 2t0 7l14 66q2 7 4 9t9 2h217q8 0 10 -1.5t0 -8.5z" />
    <glyph glyph-name="Edotaccent" unicode="&#x116;" horiz-adv-x="458" 
d="M25 0q-6 0 -9.5 4t-2.5 10l137 644q3 15 18 15h340q14 0 16 -2t-1 -15l-17 -80q-3 -14 -7 -16.5t-16 -2.5h-194q-7 0 -7.5 -1t-2.5 -7l-31 -144q-1 -7 -0.5 -8t6.5 -1h150q15 0 16.5 -3t-1.5 -19l-15 -71q-3 -15 -6.5 -18t-17.5 -3h-150q-5 0 -7 -1t-3 -6l-31 -150
q-1 -6 -0.5 -7.5t6.5 -1.5h192q17 0 18.5 -3.5t-1.5 -18.5l-15 -72q-4 -16 -8.5 -19t-19.5 -3h-336zM420 772q-5 -25 -19 -38.5t-47 -13.5t-42.5 13.5t-4.5 38.5q5 23 20.5 37.5t48.5 14.5q35 0 42 -14.5t2 -37.5z" />
    <glyph glyph-name="edotaccent" unicode="&#x117;" horiz-adv-x="480" 
d="M30 237q10 46 29 89t50.5 77.5t78 54.5t111.5 20q67 0 103 -18.5t50 -49t13 -67t-9 -72.5q-9 -43 -23 -58t-35 -15h-215q-7 0 -8 -2.5t-3 -9.5q-3 -24 5.5 -44t28 -32t49.5 -12q35 0 66.5 11t43.5 17q16 8 23.5 9.5t12.5 -16.5l14 -47q5 -14 0.5 -18.5t-18.5 -12.5
q-40 -25 -95 -35.5t-105 -10.5q-67 0 -105.5 19t-55 52.5t-16.5 77.5t10 93zM313 295q4 19 3 32.5t-6.5 22.5t-15 13.5t-23.5 4.5q-16 0 -28.5 -6t-22 -16t-16.5 -22t-12 -24q-5 -16 -4.5 -20.5t4.5 -4.5h54.5h54.5q7 0 8.5 3.5t3.5 16.5zM376 571q-5 -25 -19 -38.5
t-47 -13.5t-42.5 13.5t-4.5 38.5q5 23 20.5 37.5t48.5 14.5q35 0 42 -14.5t2 -37.5z" />
    <glyph glyph-name="Eogonek" unicode="&#x118;" horiz-adv-x="458" 
d="M25 0q-6 0 -9.5 4t-2.5 10l137 644q3 15 18 15h340q14 0 16 -2t-1 -15l-17 -80q-3 -14 -7 -16.5t-16 -2.5h-194q-7 0 -7.5 -1t-2.5 -7l-31 -144q-1 -7 -0.5 -8t6.5 -1h150q15 0 16.5 -3t-1.5 -19l-15 -71q-3 -15 -6.5 -18t-17.5 -3h-150q-5 0 -7 -1t-3 -6l-31 -150
q-1 -6 -0.5 -7.5t6.5 -1.5h192q17 0 18.5 -3.5t-1.5 -18.5l-15 -72q-4 -16 -8.5 -19t-19.5 -3h-336zM70 -257q-52 0 -82 28t-21 71q8 35 28.5 63t51 50t68.5 41q13 6 27.5 11t30.5 5h71q8 0 7.5 -4.5t-8.5 -9.5q-70 -38 -105 -63.5t-48 -44t-17 -34.5q-4 -20 6 -27.5
t23 -6.5q15 1 40 11t44 23q8 5 14.5 4.5t4.5 -8.5l-10 -43q-1 -10 -8.5 -18t-18.5 -15q-25 -16 -48.5 -24.5t-49.5 -8.5z" />
    <glyph glyph-name="eogonek" unicode="&#x119;" horiz-adv-x="480" 
d="M30 237q10 46 29 89t50.5 77.5t78 54.5t111.5 20q67 0 103 -18.5t50 -49t13 -67t-9 -72.5q-9 -43 -23 -58t-35 -15h-215q-7 0 -8 -2.5t-3 -9.5q-3 -24 5.5 -44t28 -32t49.5 -12q35 0 66.5 11t43.5 17q16 8 23.5 9.5t12.5 -16.5l14 -47q5 -14 0.5 -18.5t-18.5 -12.5
q-40 -25 -95 -35.5t-105 -10.5q-67 0 -105.5 19t-55 52.5t-16.5 77.5t10 93zM313 295q4 19 3 32.5t-6.5 22.5t-15 13.5t-23.5 4.5q-16 0 -28.5 -6t-22 -16t-16.5 -22t-12 -24q-5 -16 -4.5 -20.5t4.5 -4.5h54.5h54.5q7 0 8.5 3.5t3.5 16.5zM78 -257q-52 0 -82 28t-21 71
q8 35 28.5 63t51 50t68.5 41q13 6 27.5 11t30.5 5h71q8 0 7.5 -4.5t-8.5 -9.5q-70 -38 -105 -63.5t-48 -44t-17 -34.5q-4 -20 6 -27.5t23 -6.5q15 1 40 11t44 23q8 5 14.5 4.5t4.5 -8.5l-10 -43q-1 -10 -8.5 -18t-18.5 -15q-25 -16 -48.5 -24.5t-49.5 -8.5z" />
    <glyph glyph-name="Ecaron" unicode="&#x11a;" horiz-adv-x="458" 
d="M25 0q-6 0 -9.5 4t-2.5 10l137 644q3 15 18 15h340q14 0 16 -2t-1 -15l-17 -80q-3 -14 -7 -16.5t-16 -2.5h-194q-7 0 -7.5 -1t-2.5 -7l-31 -144q-1 -7 -0.5 -8t6.5 -1h150q15 0 16.5 -3t-1.5 -19l-15 -71q-3 -15 -6.5 -18t-17.5 -3h-150q-5 0 -7 -1t-3 -6l-31 -150
q-1 -6 -0.5 -7.5t6.5 -1.5h192q17 0 18.5 -3.5t-1.5 -18.5l-15 -72q-4 -16 -8.5 -19t-19.5 -3h-336zM321 713q-6 0 -7 4l-70 93q-1 3 0.5 6t5.5 3h59q6 0 8 -4l43 -39q3 -5 10 0l59 39q6 4 10 4h59q5 0 5 -3t-3 -6l-108 -93q-4 -4 -9 -4h-62z" />
    <glyph glyph-name="ecaron" unicode="&#x11b;" horiz-adv-x="480" 
d="M30 237q10 46 29 89t50.5 77.5t78 54.5t111.5 20q67 0 103 -18.5t50 -49t13 -67t-9 -72.5q-9 -43 -23 -58t-35 -15h-215q-7 0 -8 -2.5t-3 -9.5q-3 -24 5.5 -44t28 -32t49.5 -12q35 0 66.5 11t43.5 17q16 8 23.5 9.5t12.5 -16.5l14 -47q5 -14 0.5 -18.5t-18.5 -12.5
q-40 -25 -95 -35.5t-105 -10.5q-67 0 -105.5 19t-55 52.5t-16.5 77.5t10 93zM313 295q4 19 3 32.5t-6.5 22.5t-15 13.5t-23.5 4.5q-16 0 -28.5 -6t-22 -16t-16.5 -22t-12 -24q-5 -16 -4.5 -20.5t4.5 -4.5h54.5h54.5q7 0 8.5 3.5t3.5 16.5zM281 524q-6 0 -7 4l-60 103
q-1 3 0.5 6t5.5 3h63q6 0 8 -4l31 -32q3 -5 10 0l43 32q6 4 10 4h63q5 0 5 -3t-3 -6l-102 -103q-4 -4 -9 -4h-58z" />
    <glyph glyph-name="Gbreve" unicode="&#x11e;" horiz-adv-x="580" 
d="M487 34q-3 -14 -23.5 -23t-52.5 -13t-71 -4q-183 0 -255.5 84.5t-37.5 247.5q23 109 81 188t140.5 121.5t176.5 42.5q43 0 82.5 -3t59.5 -11q15 -5 21 -8t3 -18l-17 -80q-4 -22 -15 -27t-21 2q-22 14 -46 21.5t-58 7.5q-27 0 -62.5 -9t-72 -33.5t-66 -69.5t-44.5 -118
q-13 -60 -9.5 -100t18 -64.5t35 -37t41.5 -16.5t37 -4q21 0 24 14l32 152q1 5 0 6t-6 1h-103q-11 0 -13.5 2t-0.5 14l17 81q2 12 6 15.5t16 3.5h239q17 0 19 -3.5t-2 -20.5zM449 706q-53 0 -76.5 24t-15.5 64q3 16 6.5 19t13.5 3h46q10 0 12.5 -1.5t0.5 -11.5
q-3 -13 5 -21.5t23 -8.5q14 0 25.5 8.5t14.5 21.5q2 10 6.5 11.5t8.5 1.5h51q8 0 10 -2.5t-2 -19.5q-8 -40 -41.5 -64t-87.5 -24z" />
    <glyph glyph-name="gbreve" unicode="&#x11f;" horiz-adv-x="483" 
d="M31 242q15 68 45.5 121.5t85.5 84t143 30.5q40 0 77 -6.5t64 -17.5q26 -10 28.5 -21.5t0.5 -38.5q-8 -85 -27.5 -177t-48.5 -175q-30 -87 -94 -128t-159 -41q-38 0 -81 11t-78 41q-3 3 -5 11t5 16q4 5 12.5 16t17.5 22t13 16q11 14 16 15t15 -7q8 -7 26 -15t37.5 -14
t30.5 -6q12 0 29.5 3t34 13t24.5 32q0 1 0.5 2t1.5 2q2 7 0.5 12.5t-11.5 3.5q-5 -1 -16.5 -1.5t-22.5 -0.5q-51 0 -94 20.5t-63.5 64.5t-6.5 112zM190 267q-7 -33 -7.5 -59.5t10 -41.5t35.5 -15q11 0 21.5 1t19.5 5q6 2 9.5 6.5t5.5 12.5q5 17 10.5 43t11 53.5t9.5 49.5
t5 32q2 5 1 12.5t-4 8.5q-7 4 -15.5 6t-24.5 2q-36 0 -56 -32.5t-31 -83.5zM320 518q-59 0 -85.5 25t-17.5 67q4 18 7 22t16 4h53q12 0 14 -2t0 -13q-2 -12 6 -20t23 -8t27.5 8t14.5 20q2 10 6.5 12.5t11.5 2.5h58q11 0 12 -4.5t-3 -21.5q-9 -42 -46 -67t-97 -25z" />
    <glyph glyph-name="Gdotaccent" unicode="&#x120;" horiz-adv-x="580" 
d="M487 34q-3 -14 -23.5 -23t-52.5 -13t-71 -4q-183 0 -255.5 84.5t-37.5 247.5q23 109 81 188t140.5 121.5t176.5 42.5q43 0 82.5 -3t59.5 -11q15 -5 21 -8t3 -18l-17 -80q-4 -22 -15 -27t-21 2q-22 14 -46 21.5t-58 7.5q-27 0 -62.5 -9t-72 -33.5t-66 -69.5t-44.5 -118
q-13 -60 -9.5 -100t18 -64.5t35 -37t41.5 -16.5t37 -4q21 0 24 14l32 152q1 5 0 6t-6 1h-103q-11 0 -13.5 2t-0.5 14l17 81q2 12 6 15.5t16 3.5h239q17 0 19 -3.5t-2 -20.5zM519 772q-5 -25 -19 -38.5t-47 -13.5t-42.5 13.5t-4.5 38.5q5 23 20.5 37.5t48.5 14.5
q35 0 42 -14.5t2 -37.5z" />
    <glyph glyph-name="gdotaccent" unicode="&#x121;" horiz-adv-x="483" 
d="M31 242q15 68 45.5 121.5t85.5 84t143 30.5q40 0 77 -6.5t64 -17.5q26 -10 28.5 -21.5t0.5 -38.5q-8 -85 -27.5 -177t-48.5 -175q-30 -87 -94 -128t-159 -41q-38 0 -81 11t-78 41q-3 3 -5 11t5 16q4 5 12.5 16t17.5 22t13 16q11 14 16 15t15 -7q8 -7 26 -15t37.5 -14
t30.5 -6q12 0 29.5 3t34 13t24.5 32q0 1 0.5 2t1.5 2q2 7 0.5 12.5t-11.5 3.5q-5 -1 -16.5 -1.5t-22.5 -0.5q-51 0 -94 20.5t-63.5 64.5t-6.5 112zM190 267q-7 -33 -7.5 -59.5t10 -41.5t35.5 -15q11 0 21.5 1t19.5 5q6 2 9.5 6.5t5.5 12.5q5 17 10.5 43t11 53.5t9.5 49.5
t5 32q2 5 1 12.5t-4 8.5q-7 4 -15.5 6t-24.5 2q-36 0 -56 -32.5t-31 -83.5zM388 571q-5 -25 -19 -38.5t-47 -13.5t-42.5 13.5t-4.5 38.5q5 23 20.5 37.5t48.5 14.5q35 0 42 -14.5t2 -37.5z" />
    <glyph glyph-name="uni0122" unicode="&#x122;" horiz-adv-x="580" 
d="M487 34q-3 -14 -23.5 -23t-52.5 -13t-71 -4q-183 0 -255.5 84.5t-37.5 247.5q23 109 81 188t140.5 121.5t176.5 42.5q43 0 82.5 -3t59.5 -11q15 -5 21 -8t3 -18l-17 -80q-4 -22 -15 -27t-21 2q-22 14 -46 21.5t-58 7.5q-27 0 -62.5 -9t-72 -33.5t-66 -69.5t-44.5 -118
q-13 -60 -9.5 -100t18 -64.5t35 -37t41.5 -16.5t37 -4q21 0 24 14l32 152q1 5 0 6t-6 1h-103q-11 0 -13.5 2t-0.5 14l17 81q2 12 6 15.5t16 3.5h239q17 0 19 -3.5t-2 -20.5zM358 -88q-5 -22 -19.5 -46.5t-31 -46.5t-28.5 -35q-6 -7 -14 -7h-25h-24q-8 0 -7.5 3t6.5 13
q8 11 21 34t22 36q-19 3 -25 19t-4 29q5 23 23.5 39t53.5 16q26 0 42.5 -10t9.5 -44z" />
    <glyph glyph-name="uni0123" unicode="&#x123;" horiz-adv-x="483" 
d="M31 242q15 68 45.5 121.5t85.5 84t143 30.5q40 0 77 -6.5t64 -17.5q26 -10 28.5 -21.5t0.5 -38.5q-8 -85 -27.5 -177t-48.5 -175q-30 -87 -94 -128t-159 -41q-38 0 -81 11t-78 41q-3 3 -5 11t5 16q4 5 12.5 16t17.5 22t13 16q11 14 16 15t15 -7q8 -7 26 -15t37.5 -14
t30.5 -6q12 0 29.5 3t34 13t24.5 32q0 1 0.5 2t1.5 2q2 7 0.5 12.5t-11.5 3.5q-5 -1 -16.5 -1.5t-22.5 -0.5q-51 0 -94 20.5t-63.5 64.5t-6.5 112zM190 267q-7 -33 -7.5 -59.5t10 -41.5t35.5 -15q11 0 21.5 1t19.5 5q6 2 9.5 6.5t5.5 12.5q5 17 10.5 43t11 53.5t9.5 49.5
t5 32q2 5 1 12.5t-4 8.5q-7 4 -15.5 6t-24.5 2q-36 0 -56 -32.5t-31 -83.5zM270 603q5 25 20 54t33.5 55t31.5 42q8 8 16 8q14 0 27 0.5t26 0.5q8 0 8 -3.5t-8 -14.5q-4 -7 -12.5 -24t-18 -34.5t-16.5 -28.5q21 -2 28 -19t4 -33q-6 -26 -25 -43.5t-57 -18.5q-28 -1 -46 10.5
t-11 48.5z" />
    <glyph glyph-name="Hbar" unicode="&#x126;" horiz-adv-x="672" 
d="M61 521q-12 0 -13 1.5t0 6.5l20 46q3 6 6 8t15 2h587q11 0 14 -1.5t0 -7.5l-21 -49q-2 -4 -5 -5t-16 -1h-587zM40 0q-7 0 -14 2t-6 12q4 36 12 90t19.5 117.5t24.5 129.5q13 60 26.5 117t28 106t29.5 84q2 7 10 11t14 4h60.5h60.5q11 0 6 -15q-8 -23 -19.5 -62t-24 -86.5
t-25.5 -97.5q-2 -10 -1.5 -13t12.5 -3h83h83q8 0 12.5 3t6.5 13q8 50 15 97.5t12 86.5t7 62q1 8 4 11.5t8 3.5h60.5h60.5q6 0 12.5 -4t5.5 -11q0 -35 -6.5 -85t-17 -107.5t-23.5 -117.5q-14 -65 -30 -128.5t-30.5 -116.5t-26.5 -89q-3 -10 -10.5 -12t-15.5 -2h-60.5h-60.5
q-8 0 -4 14q8 24 17 53t18 62t18 69t17 72q2 8 0 10t-11 2h-85.5h-85.5q-9 0 -11.5 -2t-4.5 -10q-7 -36 -13.5 -72t-11.5 -69t-8.5 -62t-5.5 -53q-1 -14 -10 -14h-60.5h-60.5z" />
    <glyph glyph-name="hbar" unicode="&#x127;" horiz-adv-x="479" 
d="M8 14l72 340t73 340q2 14 18 14h58.5h58.5q14 0 12 -14q-12 -53 -23.5 -107t-22.5 -107q-2 -9 2 -10t9 1t25.5 5t36.5 3q48 0 78 -14t44 -42t14.5 -71.5t-10.5 -102.5q-7 -43 -19 -87.5t-25 -84t-24 -66.5q-2 -7 -7.5 -9t-13.5 -2h-54h-54q-18 0 -18.5 3.5t7.5 23.5
q13 38 24.5 80t21.5 83q9 39 15.5 72t5.5 58t-11.5 38.5t-36.5 13.5q-5 0 -10.5 -1t-10.5 -3q-6 -2 -10.5 -7.5t-6.5 -13.5l-71 -333q-3 -14 -17 -14h-117q-16 0 -13 14zM81 529q-10 0 -10.5 3t0.5 11l16 75q2 10 4.5 12.5t12.5 2.5h292q9 0 11 -2t0 -12l-17 -80
q-1 -7 -3.5 -8.5t-13.5 -1.5h-292z" />
    <glyph glyph-name="Itilde" unicode="&#x128;" horiz-adv-x="271" 
d="M164 14q-3 -14 -18 -14h-120q-16 0 -13 14l137 644q3 15 19 15h120q6 0 10 -4t2 -11zM127 716q-6 0 -5 6q10 45 34.5 70.5t61.5 25.5q17 0 30.5 -9.5t23.5 -19t15 -9.5t9.5 5t6.5 15q2 8 8 8h57q5 0 4 -7q-8 -40 -35.5 -67t-61.5 -27q-22 0 -34.5 9t-20 18t-15.5 9
q-6 0 -9.5 -4.5t-5.5 -15.5q-1 -7 -8 -7h-55z" />
    <glyph glyph-name="itilde" unicode="&#x129;" horiz-adv-x="218" 
d="M139 14q-3 -14 -18 -14h-117q-14 0 -11 14l94 444q4 14 17 14h117q6 0 10 -4t2 -10zM59 526q-6 0 -5 6q9 41 33 64t61 23q17 0 31 -8t24.5 -16t16.5 -8q5 0 9.5 3.5t5.5 12.5q1 4 4 5.5t4 1.5h56q6 0 5 -6q-8 -37 -35 -61.5t-61 -24.5q-22 0 -35 8t-21 15.5t-16 7.5
q-7 0 -10.5 -3.5t-5.5 -12.5q-1 -7 -7 -7h-54z" />
    <glyph glyph-name="Imacron" unicode="&#x12a;" horiz-adv-x="271" 
d="M164 14q-3 -14 -18 -14h-120q-16 0 -13 14l137 644q3 15 19 15h120q6 0 10 -4t2 -11zM362 735q-1 -4 -3 -5t-11 -1h-216q-8 0 -9 2t0 7l14 66q2 7 4 9t9 2h217q8 0 10 -1.5t0 -8.5z" />
    <glyph glyph-name="imacron" unicode="&#x12b;" horiz-adv-x="218" 
d="M139 14q-3 -14 -18 -14h-117q-14 0 -11 14l94 444q4 14 17 14h117q6 0 10 -4t2 -10zM292 534q-1 -4 -3 -5t-11 -1h-216q-8 0 -9 2t0 7l14 66q2 7 4 9t9 2h217q8 0 10 -1.5t0 -8.5z" />
    <glyph glyph-name="Iogonek" unicode="&#x12e;" horiz-adv-x="271" 
d="M164 14q-3 -14 -18 -14h-120q-16 0 -13 14l137 644q3 15 19 15h120q6 0 10 -4t2 -11zM24 -257q-52 0 -82 28t-21 71q8 35 28.5 63t51 50t68.5 41q13 6 27.5 11t30.5 5h71q8 0 7.5 -4.5t-8.5 -9.5q-70 -38 -105 -63.5t-48 -44t-17 -34.5q-4 -20 6 -27.5t23 -6.5
q15 1 40 11t44 23q8 5 14.5 4.5t4.5 -8.5l-10 -43q-1 -10 -8.5 -18t-18.5 -15q-25 -16 -48.5 -24.5t-49.5 -8.5z" />
    <glyph glyph-name="iogonek" unicode="&#x12f;" horiz-adv-x="218" 
d="M139 14q-3 -14 -18 -14h-117q-14 0 -11 14l94 444q4 14 17 14h117q6 0 10 -4t2 -10zM236 571q-5 -25 -19 -38.5t-47 -13.5t-42.5 13.5t-4.5 38.5q5 23 20.5 37.5t48.5 14.5q35 0 42 -14.5t2 -37.5zM-57 -257q-52 0 -82 28t-21 71q8 35 28.5 63t51 50t68.5 41
q13 6 27.5 11t30.5 5h71q8 0 7.5 -4.5t-8.5 -9.5q-70 -38 -105 -63.5t-48 -44t-17 -34.5q-4 -20 6 -27.5t23 -6.5q15 1 40 11t44 23q8 5 14.5 4.5t4.5 -8.5l-10 -43q-1 -10 -8.5 -18t-18.5 -15q-25 -16 -48.5 -24.5t-49.5 -8.5z" />
    <glyph glyph-name="Idotaccent" unicode="&#x130;" horiz-adv-x="271" 
d="M164 14q-3 -14 -18 -14h-120q-16 0 -13 14l137 644q3 15 19 15h120q6 0 10 -4t2 -11zM306 772q-5 -25 -19 -38.5t-47 -13.5t-42.5 13.5t-4.5 38.5q5 23 20.5 37.5t48.5 14.5q35 0 42 -14.5t2 -37.5z" />
    <glyph glyph-name="dotlessi" unicode="&#x131;" horiz-adv-x="218" 
d="M139 14q-3 -14 -18 -14h-117q-14 0 -11 14l94 444q4 14 17 14h117q6 0 10 -4t2 -10z" />
    <glyph glyph-name="uni0136" unicode="&#x136;" horiz-adv-x="566" 
d="M14 0q-4 0 -3 4q35 167 70.5 333t70.5 332q2 4 5 4h24h48h48h24q5 0 3 -4l-14 -66.5t-11.5 -53t-11.5 -53l-14 -66.5v-5.5t2 -2.5h2q2 0 5.5 3.5t6.5 7.5q28 38 48 64.5t37 48.5t37 48.5t48 64.5q8 9 13 11.5t11 2.5h23.5h46h46h23.5q12 0 8 -8t-19 -31q-39 -46 -72 -87
t-64 -84t-65 -96q-6 -9 -8 -16l-4 -14q-4 -19 -2.5 -40t7.5 -41.5t16 -39.5t23 -34q16 -20 39 -32.5t60 -12.5q2 0 5 -1t2 -3l-27 -128q-1 -5 -4 -5q-69 0 -113 10.5t-81 44.5q-15 14 -27 31.5t-21.5 38.5t-16.5 45.5t-12 52.5q-1 8 -4 11.5t-4 3.5h-1h-1l-1.5 -1t-3.5 -6
q-8 -39 -13.5 -65t-10.5 -48.5t-10.5 -48.5t-13.5 -65q-1 -4 -5 -4h-24h-48h-48h-24zM275 -88q-5 -22 -19.5 -46.5t-31 -46.5t-28.5 -35q-6 -7 -14 -7h-25h-24q-8 0 -7.5 3t6.5 13q8 11 21 34t22 36q-19 3 -25 19t-4 29q5 23 23.5 39t53.5 16q26 0 42.5 -10t9.5 -44z" />
    <glyph glyph-name="uni0137" unicode="&#x137;" horiz-adv-x="456" 
d="M-9 4l142 670q1 4 5 4h139q4 0 3 -4l-74 -351q-1 -2 -1.5 -6.5t0.5 -4.5q2 0 5 2t4 3q8 7 13 11.5t13 14.5q17 20 29.5 36.5t24.5 35t27 43.5q7 11 13 12.5t20 1.5h118q10 0 8.5 -6.5t-3.5 -10.5q-3 -5 -15.5 -24t-32 -45.5t-43.5 -55t-50 -53.5q-6 -5 -9 -8l-7 -7
q1 -1 5 -3t5 -4q14 -17 26 -46.5t22 -63.5t17.5 -64.5t11.5 -50.5t5 -22q2 -8 -5 -8h-23.5h-45.5h-45.5h-23.5q-4 0 -5 0.5t-3 6.5l-7 21t-16.5 50.5t-17.5 55t-11 34.5q-2 8 -6.5 18t-9.5 16t-11 -1q-3 -3 -6 -16l-38 -181q-1 -4 -5 -4h-139q-4 0 -3 4zM235 -88
q-5 -22 -19.5 -46.5t-31 -46.5t-28.5 -35q-6 -7 -14 -7h-25h-24q-8 0 -7.5 3t6.5 13q8 11 21 34t22 36q-19 3 -25 19t-4 29q5 23 23.5 39t53.5 16q26 0 42.5 -10t9.5 -44z" />
    <glyph glyph-name="Lacute" unicode="&#x139;" horiz-adv-x="443" 
d="M26 0q-16 0 -13 14l137 644q3 15 19 15h116q12 0 14.5 -4t0.5 -15l-112 -529q-1 -6 -0.5 -7.5t7.5 -1.5h192q16 0 17.5 -3.5t-1.5 -18.5l-15 -72q-4 -16 -7.5 -19t-19.5 -3h-335zM233 715h-67q-8 0 -8.5 5.5t6.5 12.5l64 72q7 8 11 11t16 3h105q5 0 8.5 -6t-1.5 -9
l-105 -75q-10 -7 -15.5 -10.5t-13.5 -3.5z" />
    <glyph glyph-name="lacute" unicode="&#x13a;" horiz-adv-x="220" 
d="M-7 14l145 680q4 14 18 14h115q18 0 14 -14l-145 -680q-3 -14 -19 -14h-115q-16 0 -13 14zM211 733h-67q-8 0 -8.5 5.5t6.5 12.5l64 72q7 8 11 11t16 3h105q5 0 8.5 -6t-1.5 -9l-105 -75q-10 -7 -15.5 -10.5t-13.5 -3.5z" />
    <glyph glyph-name="uni013B" unicode="&#x13b;" horiz-adv-x="443" 
d="M26 0q-16 0 -13 14l137 644q3 15 19 15h116q12 0 14.5 -4t0.5 -15l-112 -529q-1 -6 -0.5 -7.5t7.5 -1.5h192q16 0 17.5 -3.5t-1.5 -18.5l-15 -72q-4 -16 -7.5 -19t-19.5 -3h-335zM237 -88q-5 -22 -19.5 -46.5t-31 -46.5t-28.5 -35q-6 -7 -14 -7h-25h-24q-8 0 -7.5 3
t6.5 13q8 11 21 34t22 36q-19 3 -25 19t-4 29q5 23 23.5 39t53.5 16q26 0 42.5 -10t9.5 -44z" />
    <glyph glyph-name="uni013C" unicode="&#x13c;" horiz-adv-x="220" 
d="M-7 14l145 680q4 14 18 14h115q18 0 14 -14l-145 -680q-3 -14 -19 -14h-115q-16 0 -13 14zM102 -88q-5 -22 -19.5 -46.5t-31 -46.5t-28.5 -35q-6 -7 -14 -7h-25h-24q-8 0 -7.5 3t6.5 13q8 11 21 34t22 36q-19 3 -25 19t-4 29q5 23 23.5 39t53.5 16q26 0 42.5 -10t9.5 -44
z" />
    <glyph glyph-name="Lcaron" unicode="&#x13d;" horiz-adv-x="443" 
d="M26 0q-16 0 -13 14l137 644q3 15 19 15h116q12 0 14.5 -4t0.5 -15l-112 -529q-1 -6 -0.5 -7.5t7.5 -1.5h192q16 0 17.5 -3.5t-1.5 -18.5l-15 -72q-4 -16 -7.5 -19t-19.5 -3h-335zM400 481q-6 0 -8.5 4.5t-0.5 17.5l24 148q3 17 8 21.5t18 4.5h56q16 0 18.5 -4.5
t-0.5 -14.5l-43 -159q-3 -11 -7 -14.5t-13 -3.5h-52z" />
    <glyph glyph-name="lcaron" unicode="&#x13e;" horiz-adv-x="280" 
d="M-7 14l145 680q4 14 18 14h115q18 0 14 -14l-145 -680q-3 -14 -19 -14h-115q-16 0 -13 14zM305 514q-6 0 -8.5 4.5t-0.5 17.5l24 148q3 17 8 21.5t18 4.5h56q16 0 18.5 -4.5t-0.5 -14.5l-43 -159q-3 -11 -7 -14.5t-13 -3.5h-52z" />
    <glyph glyph-name="Lslash" unicode="&#x141;" horiz-adv-x="467" 
d="M40 0q-16 0 -13 14l137 644q3 15 19 15h116q12 0 14.5 -4t0.5 -15l-112 -529q-1 -6 -0.5 -7.5t7.5 -1.5h192q16 0 17.5 -3.5t-1.5 -18.5l-15 -72q-4 -16 -7.5 -19t-19.5 -3h-335zM-4 98q-3 -1 -4 -0.5l-1 0.5l-20 44q-1 1 3 4l335 183q2 1 4 -1l20 -43q0 -3 -2 -4z" />
    <glyph glyph-name="lslash" unicode="&#x142;" horiz-adv-x="319" 
d="M45 14l145 680q2 14 18 14h115q16 0 14 -14l-145 -680q-3 -14 -19 -14h-115q-16 0 -13 14zM14 104q-2 -1 -3.5 -0.5l-1.5 0.5l-17 47q-1 1 3 4l299 162q2 1 4 -1l17 -46q2 -2 -1 -4z" />
    <glyph glyph-name="Nacute" unicode="&#x143;" horiz-adv-x="642" 
d="M439 315q2 -4 7.5 -4t6.5 6q6 29 12 59.5t12 63.5t11.5 68.5t10 72.5t8.5 77q2 15 10 15h123q7 0 12.5 -4t5.5 -11q0 -37 -7 -89.5t-18.5 -113.5t-25.5 -124t-29 -123t-29 -110t-26 -84q-4 -10 -10.5 -12t-14.5 -2h-77q-8 0 -15 18l-163 346q-1 4 -4.5 4t-4.5 -5
q-12 -57 -20.5 -102.5t-15 -82t-11 -65.5t-7.5 -53.5t-5 -45.5q-1 -14 -11 -14h-120q-7 0 -14 2t-6 12q4 34 11 84t17.5 110t23 123t27 124t30 113.5t31.5 89.5q3 7 10.5 11t13.5 4h73q10 0 13 -10zM398 715h-67q-8 0 -8.5 5.5t6.5 12.5l64 72q7 8 11 11t16 3h105
q5 0 8.5 -6t-1.5 -9l-105 -75q-10 -7 -15.5 -10.5t-13.5 -3.5z" />
    <glyph glyph-name="nacute" unicode="&#x144;" horiz-adv-x="464" 
d="M7 0q-4 0 -10 2.5t-4 12.5q22 102 43.5 203.5t43.5 203.5q2 12 11 17t34 13q13 4 40 9.5t58 10t55 4.5q63 0 100 -18t53.5 -49.5t17 -72t-9.5 -86.5q-7 -34 -16.5 -72.5t-20.5 -77t-23 -72.5q-7 -21 -12 -24.5t-21 -3.5h-111q-10 0 -7 11q1 5 7.5 29t15 57.5t17.5 67
t15 57t7 26.5q12 51 9 75.5t-16 32t-33 7.5h-14t-9 -1q-8 -1 -12.5 -8t-7.5 -20q-15 -73 -32 -152.5t-35 -161.5q-1 -6 -3.5 -13t-10.5 -7h-119zM244 524q-10 0 -10.5 3.5t7.5 14.5l69 95q5 8 23 8h89q7 0 9.5 -3.5t-5.5 -11.5l-93 -99q-5 -6 -9.5 -6.5t-13.5 -0.5h-66z" />
    <glyph glyph-name="uni0145" unicode="&#x145;" horiz-adv-x="642" 
d="M439 315q2 -4 7.5 -4t6.5 6q6 29 12 59.5t12 63.5t11.5 68.5t10 72.5t8.5 77q2 15 10 15h123q7 0 12.5 -4t5.5 -11q0 -37 -7 -89.5t-18.5 -113.5t-25.5 -124t-29 -123t-29 -110t-26 -84q-4 -10 -10.5 -12t-14.5 -2h-77q-8 0 -15 18l-163 346q-1 4 -4.5 4t-4.5 -5
q-12 -57 -20.5 -102.5t-15 -82t-11 -65.5t-7.5 -53.5t-5 -45.5q-1 -14 -11 -14h-120q-7 0 -14 2t-6 12q4 34 11 84t17.5 110t23 123t27 124t30 113.5t31.5 89.5q3 7 10.5 11t13.5 4h73q10 0 13 -10zM332 -88q-5 -22 -19.5 -46.5t-31 -46.5t-28.5 -35q-6 -7 -14 -7h-25h-24
q-8 0 -7.5 3t6.5 13q8 11 21 34t22 36q-19 3 -25 19t-4 29q5 23 23.5 39t53.5 16q26 0 42.5 -10t9.5 -44z" />
    <glyph glyph-name="uni0146" unicode="&#x146;" horiz-adv-x="464" 
d="M7 0q-4 0 -10 2.5t-4 12.5q22 102 43.5 203.5t43.5 203.5q2 12 11 17t34 13q13 4 40 9.5t58 10t55 4.5q63 0 100 -18t53.5 -49.5t17 -72t-9.5 -86.5q-7 -34 -16.5 -72.5t-20.5 -77t-23 -72.5q-7 -21 -12 -24.5t-21 -3.5h-111q-10 0 -7 11q1 5 7.5 29t15 57.5t17.5 67
t15 57t7 26.5q12 51 9 75.5t-16 32t-33 7.5h-14t-9 -1q-8 -1 -12.5 -8t-7.5 -20q-15 -73 -32 -152.5t-35 -161.5q-1 -6 -3.5 -13t-10.5 -7h-119zM224 -88q-5 -22 -19.5 -46.5t-31 -46.5t-28.5 -35q-6 -7 -14 -7h-25h-24q-8 0 -7.5 3t6.5 13q8 11 21 34t22 36q-19 3 -25 19
t-4 29q5 23 23.5 39t53.5 16q26 0 42.5 -10t9.5 -44z" />
    <glyph glyph-name="Ncaron" unicode="&#x147;" horiz-adv-x="642" 
d="M439 315q2 -4 7.5 -4t6.5 6q6 29 12 59.5t12 63.5t11.5 68.5t10 72.5t8.5 77q2 15 10 15h123q7 0 12.5 -4t5.5 -11q0 -37 -7 -89.5t-18.5 -113.5t-25.5 -124t-29 -123t-29 -110t-26 -84q-4 -10 -10.5 -12t-14.5 -2h-77q-8 0 -15 18l-163 346q-1 4 -4.5 4t-4.5 -5
q-12 -57 -20.5 -102.5t-15 -82t-11 -65.5t-7.5 -53.5t-5 -45.5q-1 -14 -11 -14h-120q-7 0 -14 2t-6 12q4 34 11 84t17.5 110t23 123t27 124t30 113.5t31.5 89.5q3 7 10.5 11t13.5 4h73q10 0 13 -10zM371 713q-6 0 -7 4l-70 93q-1 3 0.5 6t5.5 3h59q6 0 8 -4l43 -39
q3 -5 10 0l59 39q6 4 10 4h59q5 0 5 -3t-3 -6l-108 -93q-4 -4 -9 -4h-62z" />
    <glyph glyph-name="ncaron" unicode="&#x148;" horiz-adv-x="464" 
d="M7 0q-4 0 -10 2.5t-4 12.5q22 102 43.5 203.5t43.5 203.5q2 12 11 17t34 13q13 4 40 9.5t58 10t55 4.5q63 0 100 -18t53.5 -49.5t17 -72t-9.5 -86.5q-7 -34 -16.5 -72.5t-20.5 -77t-23 -72.5q-7 -21 -12 -24.5t-21 -3.5h-111q-10 0 -7 11q1 5 7.5 29t15 57.5t17.5 67
t15 57t7 26.5q12 51 9 75.5t-16 32t-33 7.5h-14t-9 -1q-8 -1 -12.5 -8t-7.5 -20q-15 -73 -32 -152.5t-35 -161.5q-1 -6 -3.5 -13t-10.5 -7h-119zM264 524q-6 0 -7 4l-60 103q-1 3 0.5 6t5.5 3h63q6 0 8 -4l31 -32q3 -5 10 0l43 32q6 4 10 4h63q5 0 5 -3t-3 -6l-102 -103
q-4 -4 -9 -4h-58z" />
    <glyph glyph-name="Eng" unicode="&#x14a;" horiz-adv-x="591" 
d="M633 658q0 -34 -7.5 -88t-21 -125t-32 -154t-42 -175t-49.5 -189q-14 -53 -39 -91t-65 -58.5t-98 -20.5q-28 0 -54 5.5t-41 17.5q-15 11 -16 16.5t7 15.5l39 49q7 8 12.5 7t11.5 -5q8 -5 15.5 -7t14.5 -1q16 2 37 20.5t30 51.5l34 117l-151 320q-1 4 -4.5 4t-4.5 -5
q-12 -57 -21 -102.5t-15.5 -82t-11 -65.5t-7 -53.5t-4.5 -45.5q-1 -14 -11 -14h-120q-7 0 -14 2t-6 12q3 34 10.5 84t18 110t23 123t27 124t30 113.5t31.5 89.5q2 7 10 11t14 4h73q10 0 13 -10l165 -348q2 -4 7.5 -4t6.5 6q6 29 11.5 59.5t11.5 63.5t11.5 68.5t10.5 72.5
t9 77q2 15 10 15h123q16 0 18 -15z" />
    <glyph glyph-name="eng" unicode="&#x14b;" horiz-adv-x="477" 
d="M8 0q-4 0 -10 2.5t-4 12.5q22 102 43 203.5t43 203.5q3 12 12 17t34 13q13 4 40 9.5t58 10t55 4.5q63 0 100 -18t53.5 -49.5t17 -72t-9.5 -86.5q-11 -52 -27 -111.5t-33 -110.5q-7 -21 -12 -24.5t-21 -3.5h-47h-47q-16 0 -20.5 2.5t-1.5 18.5q1 3 7 26t14.5 55.5
t16.5 64.5t14 55t7 26q12 51 9.5 75.5t-15.5 32t-33 7.5h-12.5t-11.5 -1t-8 -4q-5 -4 -9 -17.5t-9 -39.5q-10 -47 -26.5 -123t-33.5 -158q-1 -6 -3.5 -13t-10.5 -7h-59.5h-59.5zM392 67l-23 -79q-22 -79 -68.5 -124.5t-133.5 -45.5q-28 0 -54 5t-42 18q-14 11 -15 16.5
t7 15.5l39 49q7 8 12.5 7t11.5 -5q8 -5 15.5 -7t14.5 -1q16 2 36.5 20.5t29.5 51.5l22 79h148z" />
    <glyph glyph-name="Omacron" unicode="&#x14c;" horiz-adv-x="641" 
d="M59 334q23 109 63.5 186t110.5 117.5t181 40.5q86 0 136.5 -23t72 -67t20 -108t-18.5 -146q-23 -109 -62 -185.5t-109 -117t-185 -40.5q-111 0 -164 40.5t-60.5 117t15.5 185.5zM216 334q-19 -88 -16.5 -135.5t26 -66t66.5 -18.5t75 18t56.5 66t43.5 136q19 89 15 137
t-28.5 67t-67.5 19t-74 -19t-54 -67t-42 -137zM541 735q-1 -4 -3 -5t-11 -1h-216q-8 0 -9 2t0 7l14 66q2 7 4 9t9 2h217q8 0 10 -1.5t0 -8.5z" />
    <glyph glyph-name="omacron" unicode="&#x14d;" horiz-adv-x="506" 
d="M201 -8q-67 0 -106.5 18.5t-57 52.5t-17.5 79t11 97q15 69 47 123.5t87.5 86t139.5 31.5t126 -31.5t51.5 -86t-5.5 -123.5t-45.5 -125t-86 -89t-144.5 -33zM223 103q41 0 65 34.5t37 97.5q13 62 1.5 94t-49.5 32q-37 0 -61.5 -32t-37.5 -94q-13 -64 -4 -98t49 -34z
M436 534q-1 -4 -3 -5t-11 -1h-216q-8 0 -9 2t0 7l14 66q2 7 4 9t9 2h217q8 0 10 -1.5t0 -8.5z" />
    <glyph glyph-name="Ohungarumlaut" unicode="&#x150;" horiz-adv-x="641" 
d="M59 334q23 109 63.5 186t110.5 117.5t181 40.5q86 0 136.5 -23t72 -67t20 -108t-18.5 -146q-23 -109 -62 -185.5t-109 -117t-185 -40.5q-111 0 -164 40.5t-60.5 117t15.5 185.5zM216 334q-19 -88 -16.5 -135.5t26 -66t66.5 -18.5t75 18t56.5 66t43.5 136q19 89 15 137
t-28.5 67t-67.5 19t-74 -19t-54 -67t-42 -137zM390 721q-4 -4 -7.5 -5.5t-16.5 -1.5h-40q-19 0 -6 16l85 103q7 8 24 8h71q7 0 9 -5t-4 -10zM515 721q-4 -3 -7.5 -5t-16.5 -2h-40q-8 0 -10 4.5t4 11.5l92 103q4 5 8.5 6.5t14.5 1.5h72q6 0 8 -5t-4 -10z" />
    <glyph glyph-name="ohungarumlaut" unicode="&#x151;" horiz-adv-x="506" 
d="M201 -8q-67 0 -106.5 18.5t-57 52.5t-17.5 79t11 97q15 69 47 123.5t87.5 86t139.5 31.5t126 -31.5t51.5 -86t-5.5 -123.5t-45.5 -125t-86 -89t-144.5 -33zM223 103q41 0 65 34.5t37 97.5q13 62 1.5 94t-49.5 32q-37 0 -61.5 -32t-37.5 -94q-13 -64 -4 -98t49 -34z
M295 531q-3 -4 -7 -5.5t-17 -1.5h-41q-9 0 -9.5 4t3.5 12l66 119q3 5 9 6.5t16 1.5h73q7 0 8.5 -4.5t-3.5 -10.5zM423 531q-3 -4 -7 -5.5t-17 -1.5h-41q-9 0 -9.5 4t3.5 12l72 119q6 8 25 8h73q7 0 8.5 -4.5t-3.5 -10.5z" />
    <glyph glyph-name="OE" unicode="&#x152;" horiz-adv-x="858" 
d="M268 -9q-111 0 -164 40.5t-60.5 117t15.5 185.5t63.5 186t110.5 117.5t181 40.5q42 0 76 -6t60 -17q0 1 0.5 1.5t0.5 1.5q3 15 17 15h170h170q14 0 16 -2t-1 -15l-8 -40t-9 -40q-3 -14 -6 -16.5t-17 -2.5h-96.5h-96.5q-7 0 -8.5 -1t-2.5 -7q-8 -36 -15.5 -72t-15.5 -72
q-1 -7 -0.5 -8t6.5 -1h75.5h74.5q15 0 17 -3t-2 -19q-4 -18 -7.5 -35.5t-7.5 -35.5q-3 -15 -6.5 -18t-17.5 -3h-74.5h-75.5q-5 0 -6.5 -1t-3.5 -6q-7 -37 -15.5 -74.5t-16.5 -75.5q-1 -6 0 -7.5t7 -1.5h96.5h96.5q16 0 17.5 -3.5t-1.5 -18.5q-4 -18 -7.5 -36t-7.5 -36
q-4 -16 -7.5 -19t-19.5 -3h-168.5h-168.5q-14 0 -12 8v2.5t1 2.5q-31 -10 -67.5 -16t-78.5 -6zM292 114q41 0 72.5 17t56 61t42.5 126l4 16q18 90 13 138.5t-29 66.5t-65 18q-43 0 -74 -19t-54 -67t-42 -137q-19 -88 -16.5 -135.5t26 -66t66.5 -18.5z" />
    <glyph glyph-name="oe" unicode="&#x153;" horiz-adv-x="771" 
d="M201 -8q-67 0 -106.5 18.5t-57 52.5t-17.5 79t11 97q15 69 47 123.5t87.5 86t139.5 31.5q72 0 107 -33t42 -87.5t-7 -120.5q-14 -64 -42.5 -120.5t-78 -91.5t-125.5 -35zM223 103q28 0 47 15.5t32.5 45t22.5 71.5q13 62 2 94t-49 32q-37 0 -62 -32t-38 -94
q-13 -64 -4 -98t49 -34zM346 237q14 62 42 117.5t77 90.5t125 35q67 0 103 -18.5t49.5 -49.5t12.5 -68t-9 -73q-9 -43 -22.5 -58t-34.5 -15h-217q-7 0 -8.5 -2.5t-3.5 -9.5q-2 -25 6.5 -45.5t28 -33t50.5 -12.5q35 0 66.5 11t43.5 17q16 8 24 9.5t12 -16.5l15 -47
q4 -13 -0.5 -18t-18.5 -13q-40 -25 -95 -35.5t-105 -10.5q-59 0 -93 19t-47.5 53t-12 78.5t11.5 94.5zM604 295q4 19 3 33t-6.5 23.5t-15 14t-23.5 4.5q-16 0 -28.5 -6t-22 -16.5t-16.5 -23t-12 -24.5q-5 -16 -5 -20.5t4 -4.5h54.5h54.5q7 0 9 3.5t4 16.5z" />
    <glyph glyph-name="Racute" unicode="&#x154;" horiz-adv-x="561" 
d="M25 0q-6 0 -9.5 4t-2.5 10l137 644q3 15 18 15h177q79 0 124.5 -21t59 -67.5t-3.5 -124.5q-10 -50 -38 -96.5t-72 -79.5q-18 -15 -28.5 -27.5t-0.5 -32.5q5 -14 11 -27t14 -23t19 -18q13 -9 31 -14t45 -5q11 0 12.5 -2.5t-0.5 -14.5l-23 -107q-1 -6 -4 -8.5t-15 -3.5
t-40 -1q-42 0 -74.5 12t-57.5 33q-21 18 -36 42t-25 52.5t-15 60.5q-1 2 -2.5 12t-5.5 10h-6q-3 0 -4.5 -3.5t-3.5 -12.5l-41 -192q-3 -14 -19 -14h-121zM236 350q-1 -8 7 -8h27q38 0 67 32.5t40 84.5q10 46 4.5 69.5t-22.5 32t-42 8.5h-27q-4 0 -5.5 -1t-3.5 -8zM320 715
h-67q-8 0 -8.5 5.5t6.5 12.5l64 72q7 8 11 11t16 3h105q5 0 8.5 -6t-1.5 -9l-105 -75q-10 -7 -15.5 -10.5t-13.5 -3.5z" />
    <glyph glyph-name="racute" unicode="&#x155;" horiz-adv-x="361" 
d="M255 476q80 0 128 -24q11 -5 11 -9.5t-3 -11.5l-35 -71q-4 -9 -8 -10.5t-13 1.5q-16 5 -36.5 7.5t-29.5 2.5q-16 0 -24.5 -1t-13 -2.5t-8.5 -3.5q-5 -3 -9.5 -6.5t-7.5 -17.5l-65 -306q-4 -16 -9 -20t-16 -4h-112q-5 0 -9 3.5t-1 16.5l85 397q3 16 7.5 20.5t16.5 9.5
q33 14 76.5 21.5t75.5 7.5zM193 524q-10 0 -10.5 3.5t7.5 14.5l69 95q5 8 23 8h89q7 0 9.5 -3.5t-5.5 -11.5l-93 -99q-5 -6 -9.5 -6.5t-13.5 -0.5h-66z" />
    <glyph glyph-name="uni0156" unicode="&#x156;" horiz-adv-x="561" 
d="M25 0q-6 0 -9.5 4t-2.5 10l137 644q3 15 18 15h177q79 0 124.5 -21t59 -67.5t-3.5 -124.5q-10 -50 -38 -96.5t-72 -79.5q-18 -15 -28.5 -27.5t-0.5 -32.5q5 -14 11 -27t14 -23t19 -18q13 -9 31 -14t45 -5q11 0 12.5 -2.5t-0.5 -14.5l-23 -107q-1 -6 -4 -8.5t-15 -3.5
t-40 -1q-42 0 -74.5 12t-57.5 33q-21 18 -36 42t-25 52.5t-15 60.5q-1 2 -2.5 12t-5.5 10h-6q-3 0 -4.5 -3.5t-3.5 -12.5l-41 -192q-3 -14 -19 -14h-121zM236 350q-1 -8 7 -8h27q38 0 67 32.5t40 84.5q10 46 4.5 69.5t-22.5 32t-42 8.5h-27q-4 0 -5.5 -1t-3.5 -8zM273 -88
q-5 -22 -19.5 -46.5t-31 -46.5t-28.5 -35q-6 -7 -14 -7h-25h-24q-8 0 -7.5 3t6.5 13q8 11 21 34t22 36q-19 3 -25 19t-4 29q5 23 23.5 39t53.5 16q26 0 42.5 -10t9.5 -44z" />
    <glyph glyph-name="uni0157" unicode="&#x157;" horiz-adv-x="361" 
d="M255 476q80 0 128 -24q11 -5 11 -9.5t-3 -11.5l-35 -71q-4 -9 -8 -10.5t-13 1.5q-16 5 -36.5 7.5t-29.5 2.5q-16 0 -24.5 -1t-13 -2.5t-8.5 -3.5q-5 -3 -9.5 -6.5t-7.5 -17.5l-65 -306q-4 -16 -9 -20t-16 -4h-112q-5 0 -9 3.5t-1 16.5l85 397q3 16 7.5 20.5t16.5 9.5
q33 14 76.5 21.5t75.5 7.5zM104 -88q-5 -22 -19.5 -46.5t-31 -46.5t-28.5 -35q-6 -7 -14 -7h-25h-24q-8 0 -7.5 3t6.5 13q8 11 21 34t22 36q-19 3 -25 19t-4 29q5 23 23.5 39t53.5 16q26 0 42.5 -10t9.5 -44z" />
    <glyph glyph-name="Rcaron" unicode="&#x158;" horiz-adv-x="561" 
d="M25 0q-6 0 -9.5 4t-2.5 10l137 644q3 15 18 15h177q79 0 124.5 -21t59 -67.5t-3.5 -124.5q-10 -50 -38 -96.5t-72 -79.5q-18 -15 -28.5 -27.5t-0.5 -32.5q5 -14 11 -27t14 -23t19 -18q13 -9 31 -14t45 -5q11 0 12.5 -2.5t-0.5 -14.5l-23 -107q-1 -6 -4 -8.5t-15 -3.5
t-40 -1q-42 0 -74.5 12t-57.5 33q-21 18 -36 42t-25 52.5t-15 60.5q-1 2 -2.5 12t-5.5 10h-6q-3 0 -4.5 -3.5t-3.5 -12.5l-41 -192q-3 -14 -19 -14h-121zM236 350q-1 -8 7 -8h27q38 0 67 32.5t40 84.5q10 46 4.5 69.5t-22.5 32t-42 8.5h-27q-4 0 -5.5 -1t-3.5 -8zM293 713
q-6 0 -7 4l-70 93q-1 3 0.5 6t5.5 3h59q6 0 8 -4l43 -39q3 -5 10 0l59 39q6 4 10 4h59q5 0 5 -3t-3 -6l-108 -93q-4 -4 -9 -4h-62z" />
    <glyph glyph-name="rcaron" unicode="&#x159;" horiz-adv-x="361" 
d="M255 476q80 0 128 -24q11 -5 11 -9.5t-3 -11.5l-35 -71q-4 -9 -8 -10.5t-13 1.5q-16 5 -36.5 7.5t-29.5 2.5q-16 0 -24.5 -1t-13 -2.5t-8.5 -3.5q-5 -3 -9.5 -6.5t-7.5 -17.5l-65 -306q-4 -16 -9 -20t-16 -4h-112q-5 0 -9 3.5t-1 16.5l85 397q3 16 7.5 20.5t16.5 9.5
q33 14 76.5 21.5t75.5 7.5zM213 524q-6 0 -7 4l-60 103q-1 3 0.5 6t5.5 3h63q6 0 8 -4l31 -32q3 -5 10 0l43 32q6 4 10 4h63q5 0 5 -3t-3 -6l-102 -103q-4 -4 -9 -4h-58z" />
    <glyph glyph-name="Sacute" unicode="&#x15a;" horiz-adv-x="495" 
d="M3 40l20 93q2 8 7 8.5t17 -4.5q18 -6 44.5 -11.5t52.5 -8.5t42 -3q47 0 77 26t37 57q5 22 -4 39.5t-27.5 30t-43.5 19.5q-22 6 -51.5 17t-55 32t-37.5 57t0 92q15 70 56.5 112.5t97.5 62t114 19.5q21 0 47.5 -4.5t52 -12t43.5 -16.5q8 -2 9.5 -6t-0.5 -11l-18 -86
q-7 -31 -39 -10q-12 9 -28 16t-36 11.5t-43 4.5q-39 0 -67 -20.5t-33 -45.5q-7 -30 7.5 -48t40 -28t53.5 -17t49 -16q26 -10 43.5 -24.5t27 -36t10.5 -50.5t-7 -68q-16 -76 -59.5 -124t-105.5 -71t-134 -23q-31 0 -69.5 6t-67.5 17q-15 5 -19.5 10t-2.5 15zM359 715h-67
q-8 0 -8.5 5.5t6.5 12.5l64 72q7 8 11 11t16 3h105q5 0 8.5 -6t-1.5 -9l-105 -75q-10 -7 -15.5 -10.5t-13.5 -3.5z" />
    <glyph glyph-name="sacute" unicode="&#x15b;" horiz-adv-x="415" 
d="M18 127q5 13 12.5 11.5t13.5 -6.5q15 -9 36.5 -15t44 -9t41.5 -3q18 0 32 3.5t24 11t14 20.5q2 8 -0.5 15.5t-19 15t-56.5 14.5q-19 3 -41.5 10.5t-41 23.5t-27 44t0.5 73q10 46 43.5 77t82.5 47.5t104 16.5q17 0 42.5 -4t51 -12.5t41.5 -23.5q9 -7 9 -11t-5 -12l-42 -73
q-7 -14 -23 -7q-14 8 -31 16t-34.5 13.5t-32.5 5.5q-27 0 -44 -7.5t-20 -21.5q-2 -11 3.5 -19.5t18.5 -13t32 -5.5q18 -1 43 -9t47 -24t33.5 -44t2.5 -70q-13 -61 -51 -96t-85.5 -49.5t-91.5 -14.5q-19 0 -48.5 4t-58 13.5t-46.5 24.5q-9 7 -5 17zM243 524q-10 0 -10.5 3.5
t7.5 14.5l69 95q5 8 23 8h89q7 0 9.5 -3.5t-5.5 -11.5l-93 -99q-5 -6 -9.5 -6.5t-13.5 -0.5h-66z" />
    <glyph glyph-name="Scedilla" unicode="&#x15e;" horiz-adv-x="495" 
d="M3 40l20 93q2 8 7 8.5t17 -4.5q18 -6 44.5 -11.5t52.5 -8.5t42 -3q47 0 77 26t37 57q5 22 -4 39.5t-27.5 30t-43.5 19.5q-22 6 -51.5 17t-55 32t-37.5 57t0 92q15 70 56.5 112.5t97.5 62t114 19.5q21 0 47.5 -4.5t52 -12t43.5 -16.5q8 -2 9.5 -6t-0.5 -11l-18 -86
q-7 -31 -39 -10q-12 9 -28 16t-36 11.5t-43 4.5q-39 0 -67 -20.5t-33 -45.5q-7 -30 7.5 -48t40 -28t53.5 -17t49 -16q26 -10 43.5 -24.5t27 -36t10.5 -50.5t-7 -68q-16 -76 -59.5 -124t-105.5 -71t-134 -23q-31 0 -69.5 6t-67.5 17q-15 5 -19.5 10t-2.5 15zM245 -128
q-7 -31 -39 -56t-77 -25q-36 0 -55.5 14.5t-30.5 33.5q-5 9 -3 19t13 14l24 10q22 9 25 -4t11 -20t20 -7q15 0 24 8t10 17q3 11 -3.5 18t-17.5 10.5t-25 2.5q-10 0 -11.5 6t2.5 16l29 63q3 7 9.5 9.5t14.5 2.5h32q9 0 5 -13l-19 -67l-17 29q47 -6 66.5 -26t12.5 -55z" />
    <glyph glyph-name="scedilla" unicode="&#x15f;" horiz-adv-x="415" 
d="M18 127q5 13 12.5 11.5t13.5 -6.5q15 -9 36.5 -15t44 -9t41.5 -3q18 0 32 3.5t24 11t14 20.5q2 8 -0.5 15.5t-19 15t-56.5 14.5q-19 3 -41.5 10.5t-41 23.5t-27 44t0.5 73q10 46 43.5 77t82.5 47.5t104 16.5q17 0 42.5 -4t51 -12.5t41.5 -23.5q9 -7 9 -11t-5 -12l-42 -73
q-7 -14 -23 -7q-14 8 -31 16t-34.5 13.5t-32.5 5.5q-27 0 -44 -7.5t-20 -21.5q-2 -11 3.5 -19.5t18.5 -13t32 -5.5q18 -1 43 -9t47 -24t33.5 -44t2.5 -70q-13 -61 -51 -96t-85.5 -49.5t-91.5 -14.5q-19 0 -48.5 4t-58 13.5t-46.5 24.5q-9 7 -5 17zM207 -128q-7 -31 -39 -56
t-77 -25q-36 0 -55.5 14.5t-30.5 33.5q-5 9 -3 19t13 14l24 10q22 9 25 -4t11 -20t20 -7q15 0 24 8t10 17q3 11 -3.5 18t-17.5 10.5t-25 2.5q-10 0 -11.5 6t2.5 16l29 63q3 7 9.5 9.5t14.5 2.5h32q9 0 5 -13l-19 -67l-17 29q47 -6 66.5 -26t12.5 -55z" />
    <glyph glyph-name="Scaron" unicode="&#x160;" horiz-adv-x="495" 
d="M3 40l20 93q2 8 7 8.5t17 -4.5q18 -6 44.5 -11.5t52.5 -8.5t42 -3q47 0 77 26t37 57q5 22 -4 39.5t-27.5 30t-43.5 19.5q-22 6 -51.5 17t-55 32t-37.5 57t0 92q15 70 56.5 112.5t97.5 62t114 19.5q21 0 47.5 -4.5t52 -12t43.5 -16.5q8 -2 9.5 -6t-0.5 -11l-18 -86
q-7 -31 -39 -10q-12 9 -28 16t-36 11.5t-43 4.5q-39 0 -67 -20.5t-33 -45.5q-7 -30 7.5 -48t40 -28t53.5 -17t49 -16q26 -10 43.5 -24.5t27 -36t10.5 -50.5t-7 -68q-16 -76 -59.5 -124t-105.5 -71t-134 -23q-31 0 -69.5 6t-67.5 17q-15 5 -19.5 10t-2.5 15zM332 713
q-6 0 -7 4l-70 93q-1 3 0.5 6t5.5 3h59q6 0 8 -4l43 -39q3 -5 10 0l59 39q6 4 10 4h59q5 0 5 -3t-3 -6l-108 -93q-4 -4 -9 -4h-62z" />
    <glyph glyph-name="scaron" unicode="&#x161;" horiz-adv-x="415" 
d="M18 127q5 13 12.5 11.5t13.5 -6.5q15 -9 36.5 -15t44 -9t41.5 -3q18 0 32 3.5t24 11t14 20.5q2 8 -0.5 15.5t-19 15t-56.5 14.5q-19 3 -41.5 10.5t-41 23.5t-27 44t0.5 73q10 46 43.5 77t82.5 47.5t104 16.5q17 0 42.5 -4t51 -12.5t41.5 -23.5q9 -7 9 -11t-5 -12l-42 -73
q-7 -14 -23 -7q-14 8 -31 16t-34.5 13.5t-32.5 5.5q-27 0 -44 -7.5t-20 -21.5q-2 -11 3.5 -19.5t18.5 -13t32 -5.5q18 -1 43 -9t47 -24t33.5 -44t2.5 -70q-13 -61 -51 -96t-85.5 -49.5t-91.5 -14.5q-19 0 -48.5 4t-58 13.5t-46.5 24.5q-9 7 -5 17zM263 524q-6 0 -7 4
l-60 103q-1 3 0.5 6t5.5 3h63q6 0 8 -4l31 -32q3 -5 10 0l43 32q6 4 10 4h63q5 0 5 -3t-3 -6l-102 -103q-4 -4 -9 -4h-58z" />
    <glyph glyph-name="uni0162" unicode="&#x162;" horiz-adv-x="463" 
d="M120 0q-5 0 -9 4t-3 10l114 536q1 5 0 6t-6 1h-114q-13 0 -14.5 2.5t-0.5 11.5l19 89q2 8 5 10.5t14 2.5h397q12 0 14.5 -2.5t0.5 -10.5l-19 -89q-1 -9 -5 -11.5t-17 -2.5h-114q-6 0 -7 -1t-2 -6l-114 -536q-3 -14 -17 -14h-122zM243 -128q-7 -31 -39 -56t-77 -25
q-36 0 -55.5 14.5t-30.5 33.5q-5 9 -3 19t13 14l24 10q22 9 25 -4t11 -20t20 -7q15 0 24 8t10 17q3 11 -3.5 18t-17.5 10.5t-25 2.5q-10 0 -11.5 6t2.5 16l29 63q3 7 9.5 9.5t14.5 2.5h32q9 0 5 -13l-19 -67l-17 29q47 -6 66.5 -26t12.5 -55z" />
    <glyph glyph-name="uni0163" unicode="&#x163;" horiz-adv-x="369" 
d="M185 0q-70 0 -98 29t-29 81q1 42 9.5 85.5t17.5 86.5q6 28 10 47t11 44q3 10 -7 10h-38q-9 0 -11 2t0 14l12 56q3 14 6 15.5t15 1.5h39q8 0 10.5 4.5t4.5 14.5l19 71q4 14 17 14h114q6 0 10.5 -4t2.5 -10l-20 -72q-4 -13 -3 -15.5t7 -2.5h73q12 0 13.5 -2.5t-1.5 -16.5
l-11 -53q-2 -11 -6.5 -14t-15.5 -3h-72q-7 0 -10 -3.5t-5 -11.5q-5 -23 -11 -47.5t-13 -50.5q-7 -33 -12 -66.5t-4 -63.5q1 -16 9.5 -22.5t20.5 -6.5q11 0 22 3.5t18 5.5q14 8 17 5t5 -14l5 -69q4 -14 -36 -28q-13 -4 -27 -7.5t-28.5 -5t-29.5 -1.5zM239 -122
q-7 -31 -39 -56t-77 -25q-36 0 -55.5 14.5t-30.5 33.5q-5 9 -3 19t13 14l24 10q22 9 25 -4t11 -20t20 -7q15 0 24 8t10 17q3 11 -3.5 18t-17.5 10.5t-25 2.5q-10 0 -11.5 6t2.5 16l29 63q3 7 9.5 9.5t14.5 2.5h32q9 0 5 -13l-19 -67l-17 29q47 -6 66.5 -26t12.5 -55z" />
    <glyph glyph-name="Tcaron" unicode="&#x164;" horiz-adv-x="463" 
d="M120 0q-5 0 -9 4t-3 10l114 536q1 5 0 6t-6 1h-114q-13 0 -14.5 2.5t-0.5 11.5l19 89q2 8 5 10.5t14 2.5h397q12 0 14.5 -2.5t0.5 -10.5l-19 -89q-1 -9 -5 -11.5t-17 -2.5h-114q-6 0 -7 -1t-2 -6l-114 -536q-3 -14 -17 -14h-122zM303 713q-6 0 -7 4l-70 93q-1 3 0.5 6
t5.5 3h59q6 0 8 -4l43 -39q3 -5 10 0l59 39q6 4 10 4h59q5 0 5 -3t-3 -6l-108 -93q-4 -4 -9 -4h-62z" />
    <glyph glyph-name="tcaron" unicode="&#x165;" horiz-adv-x="369" 
d="M185 0q-70 0 -98 29t-29 81q1 42 9.5 85.5t17.5 86.5q6 28 10 47t11 44q3 10 -7 10h-38q-9 0 -11 2t0 14l12 56q3 14 6 15.5t15 1.5h39q8 0 10.5 4.5t4.5 14.5l19 71q4 14 17 14h114q6 0 10.5 -4t2.5 -10l-20 -72q-4 -13 -3 -15.5t7 -2.5h73q12 0 13.5 -2.5t-1.5 -16.5
l-11 -53q-2 -11 -6.5 -14t-15.5 -3h-72q-7 0 -10 -3.5t-5 -11.5q-5 -23 -11 -47.5t-13 -50.5q-7 -33 -12 -66.5t-4 -63.5q1 -16 9.5 -22.5t20.5 -6.5q11 0 22 3.5t18 5.5q14 8 17 5t5 -14l5 -69q4 -14 -36 -28q-13 -4 -27 -7.5t-28.5 -5t-29.5 -1.5zM412 378q-6 0 -8.5 4.5
t-0.5 17.5l24 148q3 17 8 21.5t18 4.5h56q16 0 18.5 -4.5t-0.5 -14.5l-43 -159q-3 -11 -7 -14.5t-13 -3.5h-52z" />
    <glyph glyph-name="Tbar" unicode="&#x166;" horiz-adv-x="471" 
d="M120 0q-5 0 -9 4t-3 10l114 536q1 5 0 6t-6 1h-114q-13 0 -14.5 2.5t-0.5 11.5l19 89q2 8 5 10.5t14 2.5h397q12 0 14.5 -2.5t0.5 -10.5l-19 -89q-1 -9 -5 -11.5t-17 -2.5h-114q-6 0 -7 -1t-2 -6l-114 -536q-3 -14 -17 -14h-122zM102 329q-10 0 -10.5 3t0.5 11l16 75
q2 10 4.5 12.5t12.5 2.5h292q9 0 11 -2t0 -12l-17 -80q-1 -7 -3.5 -8.5t-13.5 -1.5h-292z" />
    <glyph glyph-name="tbar" unicode="&#x167;" horiz-adv-x="369" 
d="M52 257q-7 0 -8 2t0 8l12 53q2 7 4 9t9 2h222q7 0 8.5 -1.5t-0.5 -8.5l-13 -57q-1 -5 -3 -6t-10 -1h-221zM185 0q-70 0 -98 29t-29 81q1 42 9.5 85.5t17.5 86.5q6 28 10 47t11 44q3 10 -7 10h-38q-9 0 -11 2t0 14l12 56q3 14 6 15.5t15 1.5h39q8 0 10.5 4.5t4.5 14.5
l19 71q4 14 17 14h114q6 0 10.5 -4t2.5 -10l-20 -72q-4 -13 -3 -15.5t7 -2.5h73q12 0 13.5 -2.5t-1.5 -16.5l-11 -53q-2 -11 -6.5 -14t-15.5 -3h-72q-7 0 -10 -3.5t-5 -11.5q-5 -23 -11 -47.5t-13 -50.5q-7 -33 -12 -66.5t-4 -63.5q1 -16 9.5 -22.5t20.5 -6.5q11 0 22 3.5
t18 5.5q14 8 17 5t5 -14l5 -69q4 -14 -36 -28q-13 -4 -27 -7.5t-28.5 -5t-29.5 -1.5z" />
    <glyph glyph-name="Utilde" unicode="&#x168;" horiz-adv-x="635" 
d="M265 -9q-69 0 -112.5 13t-66.5 34.5t-32 47t-9.5 50t1.5 43.5q4 38 11 80.5t14 74.5q10 46 24 103.5t31.5 116t36.5 108.5q2 7 8 9t14 2h55.5h55.5q11 0 11 -3.5t-6 -24.5q-12 -40 -23.5 -81t-22.5 -83q-19 -74 -34 -142t-23 -136q-4 -25 -1 -42.5t11 -28.5t20 -16.5
t27 -7.5t31 -2q21 0 40.5 3.5t37 13.5t31.5 29.5t23 50.5q19 68 33 136t27 142q8 42 13.5 83t10.5 81q3 21 4.5 24.5t13.5 3.5h58h58q9 0 14 -2t4 -9q-2 -50 -10 -108.5t-18 -116t-20 -103.5q-7 -32 -17 -74.5t-23 -80.5q-8 -24 -23.5 -55.5t-47.5 -62t-87.5 -50.5
t-142.5 -20zM301 716q-6 0 -5 6q10 45 34.5 70.5t61.5 25.5q17 0 30.5 -9.5t23.5 -19t15 -9.5t9.5 5t6.5 15q2 8 8 8h57q5 0 4 -7q-8 -40 -35.5 -67t-61.5 -27q-22 0 -34.5 9t-20 18t-15.5 9q-6 0 -9.5 -4.5t-5.5 -15.5q-1 -7 -8 -7h-55z" />
    <glyph glyph-name="utilde" unicode="&#x169;" horiz-adv-x="463" 
d="M194 -4q-63 0 -100.5 18t-54 49.5t-17 72t9.5 86.5q8 35 17.5 73t21 76.5t22.5 72.5q7 21 12 24.5t21 3.5h94q15 0 22 -0.5t0 -20.5q-1 -4 -8 -29t-16.5 -61.5t-19 -74.5t-15.5 -68q-13 -59 -4 -84t43 -25q4 0 10.5 0.5t12.5 1.5t11 4.5t6 9.5l70 327q2 6 4 13t9 7h120
q4 0 9.5 -2t3.5 -13l-87 -407q-2 -12 -10.5 -17t-33.5 -13q-13 -4 -40 -9.5t-57.5 -10t-55.5 -4.5zM190 526q-6 0 -5 6q9 41 33 64t61 23q17 0 31 -8t24.5 -16t16.5 -8q5 0 9.5 3.5t5.5 12.5q1 4 4 5.5t4 1.5h56q6 0 5 -6q-8 -37 -35 -61.5t-61 -24.5q-22 0 -35 8t-21 15.5
t-16 7.5q-7 0 -10.5 -3.5t-5.5 -12.5q-1 -7 -7 -7h-54z" />
    <glyph glyph-name="Umacron" unicode="&#x16a;" horiz-adv-x="635" 
d="M265 -9q-69 0 -112.5 13t-66.5 34.5t-32 47t-9.5 50t1.5 43.5q4 38 11 80.5t14 74.5q10 46 24 103.5t31.5 116t36.5 108.5q2 7 8 9t14 2h55.5h55.5q11 0 11 -3.5t-6 -24.5q-12 -40 -23.5 -81t-22.5 -83q-19 -74 -34 -142t-23 -136q-4 -25 -1 -42.5t11 -28.5t20 -16.5
t27 -7.5t31 -2q21 0 40.5 3.5t37 13.5t31.5 29.5t23 50.5q19 68 33 136t27 142q8 42 13.5 83t10.5 81q3 21 4.5 24.5t13.5 3.5h58h58q9 0 14 -2t4 -9q-2 -50 -10 -108.5t-18 -116t-20 -103.5q-7 -32 -17 -74.5t-23 -80.5q-8 -24 -23.5 -55.5t-47.5 -62t-87.5 -50.5
t-142.5 -20zM536 735q-1 -4 -3 -5t-11 -1h-216q-8 0 -9 2t0 7l14 66q2 7 4 9t9 2h217q8 0 10 -1.5t0 -8.5z" />
    <glyph glyph-name="umacron" unicode="&#x16b;" horiz-adv-x="463" 
d="M194 -4q-63 0 -100.5 18t-54 49.5t-17 72t9.5 86.5q8 35 17.5 73t21 76.5t22.5 72.5q7 21 12 24.5t21 3.5h94q15 0 22 -0.5t0 -20.5q-1 -4 -8 -29t-16.5 -61.5t-19 -74.5t-15.5 -68q-13 -59 -4 -84t43 -25q4 0 10.5 0.5t12.5 1.5t11 4.5t6 9.5l70 327q2 6 4 13t9 7h120
q4 0 9.5 -2t3.5 -13l-87 -407q-2 -12 -10.5 -17t-33.5 -13q-13 -4 -40 -9.5t-57.5 -10t-55.5 -4.5zM423 534q-1 -4 -3 -5t-11 -1h-216q-8 0 -9 2t0 7l14 66q2 7 4 9t9 2h217q8 0 10 -1.5t0 -8.5z" />
    <glyph glyph-name="Uring" unicode="&#x16e;" horiz-adv-x="635" 
d="M265 -9q-69 0 -112.5 13t-66.5 34.5t-32 47t-9.5 50t1.5 43.5q4 38 11 80.5t14 74.5q10 46 24 103.5t31.5 116t36.5 108.5q2 7 8 9t14 2h55.5h55.5q11 0 11 -3.5t-6 -24.5q-12 -40 -23.5 -81t-22.5 -83q-19 -74 -34 -142t-23 -136q-4 -25 -1 -42.5t11 -28.5t20 -16.5
t27 -7.5t31 -2q21 0 40.5 3.5t37 13.5t31.5 29.5t23 50.5q19 68 33 136t27 142q8 42 13.5 83t10.5 81q3 21 4.5 24.5t13.5 3.5h58h58q9 0 14 -2t4 -9q-2 -50 -10 -108.5t-18 -116t-20 -103.5q-7 -32 -17 -74.5t-23 -80.5q-8 -24 -23.5 -55.5t-47.5 -62t-87.5 -50.5
t-142.5 -20zM527 802q-9 -43 -37 -69t-79 -26q-55 0 -71.5 26t-7.5 69q9 42 36.5 67.5t82.5 25.5q52 0 68.5 -25.5t7.5 -67.5zM469 804q2 12 -4 19.5t-28 7.5q-24 0 -31.5 -7.5t-9.5 -19.5q-2 -10 1.5 -20.5t27.5 -10.5q25 0 33.5 10.5t10.5 20.5z" />
    <glyph glyph-name="uring" unicode="&#x16f;" horiz-adv-x="463" 
d="M194 -4q-63 0 -100.5 18t-54 49.5t-17 72t9.5 86.5q8 35 17.5 73t21 76.5t22.5 72.5q7 21 12 24.5t21 3.5h94q15 0 22 -0.5t0 -20.5q-1 -4 -8 -29t-16.5 -61.5t-19 -74.5t-15.5 -68q-13 -59 -4 -84t43 -25q4 0 10.5 0.5t12.5 1.5t11 4.5t6 9.5l70 327q2 6 4 13t9 7h120
q4 0 9.5 -2t3.5 -13l-87 -407q-2 -12 -10.5 -17t-33.5 -13q-13 -4 -40 -9.5t-57.5 -10t-55.5 -4.5zM414 601q-9 -43 -37 -69t-79 -26q-55 0 -71.5 26t-7.5 69q9 42 36.5 67.5t82.5 25.5q52 0 68.5 -25.5t7.5 -67.5zM356 603q2 12 -4 19.5t-28 7.5q-24 0 -31.5 -7.5
t-9.5 -19.5q-2 -10 1.5 -20.5t27.5 -10.5q25 0 33.5 10.5t10.5 20.5z" />
    <glyph glyph-name="Uhungarumlaut" unicode="&#x170;" horiz-adv-x="635" 
d="M265 -9q-69 0 -112.5 13t-66.5 34.5t-32 47t-9.5 50t1.5 43.5q4 38 11 80.5t14 74.5q10 46 24 103.5t31.5 116t36.5 108.5q2 7 8 9t14 2h55.5h55.5q11 0 11 -3.5t-6 -24.5q-12 -40 -23.5 -81t-22.5 -83q-19 -74 -34 -142t-23 -136q-4 -25 -1 -42.5t11 -28.5t20 -16.5
t27 -7.5t31 -2q21 0 40.5 3.5t37 13.5t31.5 29.5t23 50.5q19 68 33 136t27 142q8 42 13.5 83t10.5 81q3 21 4.5 24.5t13.5 3.5h58h58q9 0 14 -2t4 -9q-2 -50 -10 -108.5t-18 -116t-20 -103.5q-7 -32 -17 -74.5t-23 -80.5q-8 -24 -23.5 -55.5t-47.5 -62t-87.5 -50.5
t-142.5 -20zM385 721q-4 -4 -7.5 -5.5t-16.5 -1.5h-40q-19 0 -6 16l85 103q7 8 24 8h71q7 0 9 -5t-4 -10zM510 721q-4 -3 -7.5 -5t-16.5 -2h-40q-8 0 -10 4.5t4 11.5l92 103q4 5 8.5 6.5t14.5 1.5h72q6 0 8 -5t-4 -10z" />
    <glyph glyph-name="uhungarumlaut" unicode="&#x171;" horiz-adv-x="463" 
d="M194 -4q-63 0 -100.5 18t-54 49.5t-17 72t9.5 86.5q8 35 17.5 73t21 76.5t22.5 72.5q7 21 12 24.5t21 3.5h94q15 0 22 -0.5t0 -20.5q-1 -4 -8 -29t-16.5 -61.5t-19 -74.5t-15.5 -68q-13 -59 -4 -84t43 -25q4 0 10.5 0.5t12.5 1.5t11 4.5t6 9.5l70 327q2 6 4 13t9 7h120
q4 0 9.5 -2t3.5 -13l-87 -407q-2 -12 -10.5 -17t-33.5 -13q-13 -4 -40 -9.5t-57.5 -10t-55.5 -4.5zM282 531q-3 -4 -7 -5.5t-17 -1.5h-41q-9 0 -9.5 4t3.5 12l66 119q3 5 9 6.5t16 1.5h73q7 0 8.5 -4.5t-3.5 -10.5zM410 531q-3 -4 -7 -5.5t-17 -1.5h-41q-9 0 -9.5 4t3.5 12
l72 119q6 8 25 8h73q7 0 8.5 -4.5t-3.5 -10.5z" />
    <glyph glyph-name="Uogonek" unicode="&#x172;" horiz-adv-x="635" 
d="M265 -9q-69 0 -112.5 13t-66.5 34.5t-32 47t-9.5 50t1.5 43.5q4 38 11 80.5t14 74.5q10 46 24 103.5t31.5 116t36.5 108.5q2 7 8 9t14 2h55.5h55.5q11 0 11 -3.5t-6 -24.5q-12 -40 -23.5 -81t-22.5 -83q-19 -74 -34 -142t-23 -136q-4 -25 -1 -42.5t11 -28.5t20 -16.5
t27 -7.5t31 -2q21 0 40.5 3.5t37 13.5t31.5 29.5t23 50.5q19 68 33 136t27 142q8 42 13.5 83t10.5 81q3 21 4.5 24.5t13.5 3.5h58h58q9 0 14 -2t4 -9q-2 -50 -10 -108.5t-18 -116t-20 -103.5q-7 -32 -17 -74.5t-23 -80.5q-8 -24 -23.5 -55.5t-47.5 -62t-87.5 -50.5
t-142.5 -20zM144 -257q-52 0 -82 28t-21 71q8 35 28.5 63t51 50t68.5 41q13 6 27.5 11t30.5 5h71q8 0 7.5 -4.5t-8.5 -9.5q-70 -38 -105 -63.5t-48 -44t-17 -34.5q-4 -20 6 -27.5t23 -6.5q15 1 40 11t44 23q8 5 14.5 4.5t4.5 -8.5l-10 -43q-1 -10 -8.5 -18t-18.5 -15
q-25 -16 -48.5 -24.5t-49.5 -8.5z" />
    <glyph glyph-name="uogonek" unicode="&#x173;" horiz-adv-x="463" 
d="M194 -4q-63 0 -100.5 18t-54 49.5t-17 72t9.5 86.5q8 35 17.5 73t21 76.5t22.5 72.5q7 21 12 24.5t21 3.5h94q15 0 22 -0.5t0 -20.5q-1 -4 -8 -29t-16.5 -61.5t-19 -74.5t-15.5 -68q-13 -59 -4 -84t43 -25q4 0 10.5 0.5t12.5 1.5t11 4.5t6 9.5l70 327q2 6 4 13t9 7h120
q4 0 9.5 -2t3.5 -13l-87 -407q-2 -12 -10.5 -17t-33.5 -13q-13 -4 -40 -9.5t-57.5 -10t-55.5 -4.5zM204 -219q-52 0 -82 28t-21 71q8 35 28.5 63t51 50t68.5 41q13 6 27.5 11t30.5 5h71q8 0 7.5 -4.5t-8.5 -9.5q-70 -38 -105 -63.5t-48 -44t-17 -34.5q-4 -20 6 -27.5
t23 -6.5q15 1 40 11t44 23q8 5 14.5 4.5t4.5 -8.5l-10 -43q-1 -10 -8.5 -18t-18.5 -15q-25 -16 -48.5 -24.5t-49.5 -8.5z" />
    <glyph glyph-name="Wcircumflex" unicode="&#x174;" horiz-adv-x="865" 
d="M189 0q-16 0 -20.5 5.5t-6.5 12.5q-13 41 -23.5 102t-18 132t-11.5 144t-4 139.5t4 116.5q1 10 4 15.5t13 5.5h118q9 0 11.5 -3t2.5 -14q0 -44 -0.5 -79.5t0.5 -75.5t3 -99q1 -17 2 -42t2.5 -51t3.5 -47t4 -30q1 -2 2 -6t2 -4h2q2 0 3.5 3.5t5.5 7.5q8 10 18.5 27.5
t22 38.5t22 44.5t20.5 46.5t17 44q11 32 20.5 65.5t17 64.5t12.5 54t8 34q2 9 4 15t13 6h119q8 0 10.5 -3t0.5 -14q-15 -78 -22.5 -148.5t-6.5 -137t11 -132.5q2 -9 2.5 -12.5t1.5 -3.5h1h1q3 0 5 6q22 39 42.5 80.5t37 75.5t23.5 49q17 36 44.5 94.5t53.5 124.5
q5 14 9 17.5t10 3.5h122q18 0 7 -24q-16 -34 -38.5 -84t-50 -109t-57.5 -121t-60 -121t-59 -108.5t-55 -84.5q-2 -4 -10 -12.5t-17 -8.5h-29.5h-42h-29.5q-7 0 -12.5 7t-7.5 14q-6 22 -12.5 48.5t-12 59.5t-10.5 73q-1 8 -5 9.5t-9 -7.5q-15 -29 -34.5 -64t-39 -66.5
t-34.5 -52.5q-6 -9 -14.5 -15t-13.5 -6h-93zM411 713q-4 0 -4.5 3t2.5 6l103 90q7 7 12 7h64q7 0 11 -6l66 -91q2 -3 0.5 -6t-6.5 -3h-59q-8 0 -12 2t-9 6l-31 28q-5 5 -12 0l-45 -30q-5 -3 -8.5 -4.5t-9.5 -1.5h-62z" />
    <glyph glyph-name="wcircumflex" unicode="&#x175;" horiz-adv-x="657" 
d="M131 0q-9 0 -13 4.5t-7 12.5q-16 51 -27.5 108t-18 113t-9 106t-1.5 88q1 17 3.5 28.5t13.5 11.5h123q15 0 15 -15v-61.5v-61.5t0.5 -56t1 -45.5t1.5 -28.5q1 -17 11 -3q6 9 13.5 25t14.5 34.5t13 37t9 31.5q4 19 7.5 37.5t6.5 34.5t6 30t5 24q3 16 18 16h128
q6 0 9.5 -3.5t1.5 -11.5q-6 -29 -13.5 -67t-10.5 -74q-1 -15 -2 -29.5t-1.5 -28t0 -25t1.5 -21t2 -17.5q3 -15 10 0t16.5 36t21 46.5t23.5 55t24.5 60t23.5 61.5q7 19 28 19h105q11 0 10 -10t-6 -25q-13 -37 -34 -83.5t-47 -96t-52.5 -96t-52 -84t-45.5 -59.5
q-8 -9 -13.5 -13.5t-15.5 -4.5h-66q-10 0 -13.5 2.5t-6.5 9.5t-8.5 24t-11 38t-8.5 38q-2 11 -7.5 11t-10.5 -9l-9 -13.5t-14.5 -22t-12.5 -17.5q-10 -13 -21.5 -28.5t-15.5 -20.5q-4 -4 -10 -8t-14 -4h-68zM276 524q-4 0 -4.5 3t2.5 6l102 103q4 4 9 4h58q6 0 7 -4l60 -103
q2 -3 0.5 -6t-6.5 -3h-63q-6 0 -8 4l-31 32q-4 5 -10 0l-43 -32q-6 -4 -10 -4h-63z" />
    <glyph glyph-name="Ycircumflex" unicode="&#x176;" horiz-adv-x="553" 
d="M371 275q-7 -8 -13 -22.5t-8 -25.5l-45 -213q-1 -6 -6.5 -10t-10.5 -4h-123q-6 0 -9.5 4t-2.5 10l45 213q6 27 -3 54.5t-16 43.5q-2 6 -9.5 25t-16.5 42t-16 42.5t-9 25.5q-16 52 -23.5 91t-9 63.5t-1.5 30.5q0 17 9 22.5t20 5.5h118q9 0 12 -3t4 -11q3 -34 7 -60
t8.5 -45.5t8.5 -32.5q8 -27 14.5 -46.5t12.5 -35.5q5 -11 8.5 -12t13.5 12q5 6 10.5 12t13 15.5t17.5 23.5q11 15 29.5 41.5t39 60.5t35.5 69q4 8 8.5 10t14.5 2h123q8 0 13.5 -5.5t-1.5 -22.5q-2 -6 -14.5 -32.5t-36.5 -68t-63 -93.5q-9 -13 -27.5 -35.5t-40.5 -49.5
t-43.5 -51t-36.5 -40zM255 713q-4 0 -4.5 3t2.5 6l103 90q7 7 12 7h64q7 0 11 -6l66 -91q2 -3 0.5 -6t-6.5 -3h-59q-8 0 -12 2t-9 6l-31 28q-5 5 -12 0l-45 -30q-5 -3 -8.5 -4.5t-9.5 -1.5h-62z" />
    <glyph glyph-name="ycircumflex" unicode="&#x177;" horiz-adv-x="435" 
d="M-11 -126q-30 0 -50 4t-32 11q-20 13 -5 33l39 53q9 14 19 10q7 -2 14.5 -3.5t19.5 -1.5q18 0 37 7.5t33 20.5q9 8 16 18t11.5 21.5t5.5 23.5q2 18 -0.5 31t-8.5 40q-7 29 -12.5 65t-8.5 76.5t-4 83t0 83.5q0 22 18 22h115q12 0 15.5 -6.5t2.5 -23.5q-1 -19 -2 -49
t-1 -62.5v-61.5t1 -47q0 -11 4.5 -12.5t11.5 11.5q18 36 35 74.5t34 78t33 78.5q5 11 9.5 15.5t16.5 4.5h98q25 0 15 -24q-16 -41 -33 -78t-37.5 -76t-47.5 -88q-16 -29 -41 -71t-57.5 -87.5t-73 -85t-88 -64t-102.5 -24.5zM165 524q-4 0 -4.5 3t2.5 6l102 103q4 4 9 4h58
q6 0 7 -4l60 -103q2 -3 0.5 -6t-6.5 -3h-63q-6 0 -8 4l-31 32q-4 5 -10 0l-43 -32q-6 -4 -10 -4h-63z" />
    <glyph glyph-name="Ydieresis" unicode="&#x178;" horiz-adv-x="553" 
d="M371 275q-7 -8 -13 -22.5t-8 -25.5l-45 -213q-1 -6 -6.5 -10t-10.5 -4h-123q-6 0 -9.5 4t-2.5 10l45 213q6 27 -3 54.5t-16 43.5q-2 6 -9.5 25t-16.5 42t-16 42.5t-9 25.5q-16 52 -23.5 91t-9 63.5t-1.5 30.5q0 17 9 22.5t20 5.5h118q9 0 12 -3t4 -11q3 -34 7 -60
t8.5 -45.5t8.5 -32.5q8 -27 14.5 -46.5t12.5 -35.5q5 -11 8.5 -12t13.5 12q5 6 10.5 12t13 15.5t17.5 23.5q11 15 29.5 41.5t39 60.5t35.5 69q4 8 8.5 10t14.5 2h123q8 0 13.5 -5.5t-1.5 -22.5q-2 -6 -14.5 -32.5t-36.5 -68t-63 -93.5q-9 -13 -27.5 -35.5t-40.5 -49.5
t-43.5 -51t-36.5 -40zM368 775q-5 -25 -21 -38.5t-51 -13.5q-31 0 -42 13.5t-6 38.5t22 38.5t48 13.5q35 0 45 -13.5t5 -38.5zM536 775q-5 -25 -20.5 -38.5t-50.5 -13.5q-32 0 -43 13.5t-6 38.5t22 38.5t49 13.5q35 0 44.5 -13.5t4.5 -38.5z" />
    <glyph glyph-name="Zacute" unicode="&#x179;" horiz-adv-x="485" 
d="M531 673q7 0 9 -2t0 -13l-12 -57q-4 -21 -30.5 -50.5t-62.5 -64.5q-27 -26 -55.5 -58t-58 -68.5t-59 -76.5t-57 -82t-52.5 -85h278q13 0 15 -3t0 -12l-18 -88q-2 -9 -5.5 -11t-15.5 -2h-406q-25 0 -28 15t6 42q12 36 33 77.5t48.5 86t60 90t68 89t71 83.5t68.5 74h-215
q-14 0 -16 3t-1 10l19 90q2 8 5.5 10.5t16.5 2.5h394zM341 715h-67q-8 0 -8.5 5.5t6.5 12.5l64 72q7 8 11 11t16 3h105q5 0 8.5 -6t-1.5 -9l-105 -75q-10 -7 -15.5 -10.5t-13.5 -3.5z" />
    <glyph glyph-name="zacute" unicode="&#x17a;" horiz-adv-x="393" 
d="M-15 41q16 50 47 98t70 94q25 30 52 59t55 56q3 3 5 6t-6 6h-119q-9 0 -11.5 2t-0.5 13l17 80q3 14 6 15.5t15 1.5h287q13 0 13.5 -4.5t-1.5 -15.5l-15 -70q-1 -7 -6 -15.5t-22 -18.5q-15 -8 -34 -24t-40 -36.5t-43 -43.5q-27 -29 -52.5 -60t-43.5 -59q-2 -4 -1.5 -8.5
t10.5 -4.5h162q10 0 10.5 -3.5t-1.5 -15.5l-17 -79q-2 -10 -7 -12t-18 -2h-302q-12 0 -15 6t6 35zM209 524q-10 0 -10.5 3.5t7.5 14.5l69 95q5 8 23 8h89q7 0 9.5 -3.5t-5.5 -11.5l-93 -99q-5 -6 -9.5 -6.5t-13.5 -0.5h-66z" />
    <glyph glyph-name="Zdotaccent" unicode="&#x17b;" horiz-adv-x="485" 
d="M531 673q7 0 9 -2t0 -13l-12 -57q-4 -21 -30.5 -50.5t-62.5 -64.5q-27 -26 -55.5 -58t-58 -68.5t-59 -76.5t-57 -82t-52.5 -85h278q13 0 15 -3t0 -12l-18 -88q-2 -9 -5.5 -11t-15.5 -2h-406q-25 0 -28 15t6 42q12 36 33 77.5t48.5 86t60 90t68 89t71 83.5t68.5 74h-215
q-14 0 -16 3t-1 10l19 90q2 8 5.5 10.5t16.5 2.5h394zM413 772q-5 -25 -19 -38.5t-47 -13.5t-42.5 13.5t-4.5 38.5q5 23 20.5 37.5t48.5 14.5q35 0 42 -14.5t2 -37.5z" />
    <glyph glyph-name="zdotaccent" unicode="&#x17c;" horiz-adv-x="393" 
d="M-15 41q16 50 47 98t70 94q25 30 52 59t55 56q3 3 5 6t-6 6h-119q-9 0 -11.5 2t-0.5 13l17 80q3 14 6 15.5t15 1.5h287q13 0 13.5 -4.5t-1.5 -15.5l-15 -70q-1 -7 -6 -15.5t-22 -18.5q-15 -8 -34 -24t-40 -36.5t-43 -43.5q-27 -29 -52.5 -60t-43.5 -59q-2 -4 -1.5 -8.5
t10.5 -4.5h162q10 0 10.5 -3.5t-1.5 -15.5l-17 -79q-2 -10 -7 -12t-18 -2h-302q-12 0 -15 6t6 35zM324 571q-5 -25 -19 -38.5t-47 -13.5t-42.5 13.5t-4.5 38.5q5 23 20.5 37.5t48.5 14.5q35 0 42 -14.5t2 -37.5z" />
    <glyph glyph-name="Zcaron" unicode="&#x17d;" horiz-adv-x="485" 
d="M531 673q7 0 9 -2t0 -13l-12 -57q-4 -21 -30.5 -50.5t-62.5 -64.5q-27 -26 -55.5 -58t-58 -68.5t-59 -76.5t-57 -82t-52.5 -85h278q13 0 15 -3t0 -12l-18 -88q-2 -9 -5.5 -11t-15.5 -2h-406q-25 0 -28 15t6 42q12 36 33 77.5t48.5 86t60 90t68 89t71 83.5t68.5 74h-215
q-14 0 -16 3t-1 10l19 90q2 8 5.5 10.5t16.5 2.5h394zM314 713q-6 0 -7 4l-70 93q-1 3 0.5 6t5.5 3h59q6 0 8 -4l43 -39q3 -5 10 0l59 39q6 4 10 4h59q5 0 5 -3t-3 -6l-108 -93q-4 -4 -9 -4h-62z" />
    <glyph glyph-name="zcaron" unicode="&#x17e;" horiz-adv-x="393" 
d="M-15 41q16 50 47 98t70 94q25 30 52 59t55 56q3 3 5 6t-6 6h-119q-9 0 -11.5 2t-0.5 13l17 80q3 14 6 15.5t15 1.5h287q13 0 13.5 -4.5t-1.5 -15.5l-15 -70q-1 -7 -6 -15.5t-22 -18.5q-15 -8 -34 -24t-40 -36.5t-43 -43.5q-27 -29 -52.5 -60t-43.5 -59q-2 -4 -1.5 -8.5
t10.5 -4.5h162q10 0 10.5 -3.5t-1.5 -15.5l-17 -79q-2 -10 -7 -12t-18 -2h-302q-12 0 -15 6t6 35zM229 524q-6 0 -7 4l-60 103q-1 3 0.5 6t5.5 3h63q6 0 8 -4l31 -32q3 -5 10 0l43 32q6 4 10 4h63q5 0 5 -3t-3 -6l-102 -103q-4 -4 -9 -4h-58z" />
    <glyph glyph-name="florin" unicode="&#x192;" horiz-adv-x="442" 
d="M56 -109q-11 0 -32 0.5t-43.5 4t-38.5 10.5q-5 2 -4 6q0 2 2.5 14t5 27.5t5 27.5t3.5 14t2.5 4.5t7.5 0.5q35 -7 60.5 -4.5t44 15.5t30 35.5t18.5 54.5q18 85 32.5 152t22.5 110l0.5 1t0.5 2h-41h-41q-2 0 -2.5 2l-0.5 2q1 3 3.5 17t6.5 32t6.5 32t3.5 17l1 2t3 2h41h41
q1 2 1 4t1 4q4 19 8 37.5t8 37.5q11 50 49 85t89.5 53.5t101.5 18.5q17 0 36 -3t30 -8q7 -3 8 -5t0 -6l-16 -80q-1 -4 -1.5 -7t-4.5 -2q-16 6 -28.5 8t-28.5 2q-34 0 -58 -18t-38 -70q-3 -14 -4.5 -19.5t-2.5 -11.5t-4 -20h4.5h4.5h45.5h36.5h45q6 0 4 -4q-1 -3 -4 -17
t-6.5 -32t-6 -32t-3.5 -17l-1.5 -2t-3.5 -2h-47.5h-38.5h-48q-3 0 -3 -3q-9 -46 -16 -77.5t-13.5 -59t-13.5 -59t-16 -77.5q-10 -48 -34 -93.5t-65.5 -75.5t-103.5 -30z" />
    <glyph glyph-name="Ohorn" unicode="&#x1a0;" horiz-adv-x="641" 
d="M59 334q23 109 63.5 186t110.5 117.5t181 40.5q86 0 136.5 -23t72 -67t20 -108t-18.5 -146q-23 -109 -62 -185.5t-109 -117t-185 -40.5q-111 0 -164 40.5t-60.5 117t15.5 185.5zM216 334q-19 -88 -16.5 -135.5t26 -66t66.5 -18.5t75 18t56.5 66t43.5 136q19 89 15 137
t-28.5 67t-67.5 19t-74 -19t-54 -67t-42 -137zM639 763q7 2 7 -6q-1 -10 -2 -19t-3 -17q-10 -46 -36 -74t-61.5 -40.5t-74.5 -14.5q-8 0 -6 7l15 67q0 7 8 7q20 1 40 11t27 41q1 4 1 8.5t1 8.5q1 7 7 8z" />
    <glyph glyph-name="ohorn" unicode="&#x1a1;" horiz-adv-x="506" 
d="M201 -8q-67 0 -106.5 18.5t-57 52.5t-17.5 79t11 97q15 69 47 123.5t87.5 86t139.5 31.5t126 -31.5t51.5 -86t-5.5 -123.5t-45.5 -125t-86 -89t-144.5 -33zM223 103q41 0 65 34.5t37 97.5q13 62 1.5 94t-49.5 32q-37 0 -61.5 -32t-37.5 -94q-13 -64 -4 -98t49 -34z
M531 562q7 2 7 -6q-1 -10 -2 -19t-3 -17q-10 -46 -36 -74t-61.5 -40.5t-74.5 -14.5q-8 0 -6 7l15 67q0 7 8 7q20 1 40 11t27 41q1 4 1 8.5t1 8.5q1 7 7 8z" />
    <glyph glyph-name="Uhorn" unicode="&#x1af;" horiz-adv-x="635" 
d="M265 -9q-69 0 -112.5 13t-66.5 34.5t-32 47t-9.5 50t1.5 43.5q4 38 11 80.5t14 74.5q10 46 24 103.5t31.5 116t36.5 108.5q2 7 8 9t14 2h55.5h55.5q11 0 11 -3.5t-6 -24.5q-12 -40 -23.5 -81t-22.5 -83q-19 -74 -34 -142t-23 -136q-4 -25 -1 -42.5t11 -28.5t20 -16.5
t27 -7.5t31 -2q21 0 40.5 3.5t37 13.5t31.5 29.5t23 50.5q19 68 33 136t27 142q8 42 13.5 83t10.5 81q3 21 4.5 24.5t13.5 3.5h58h58q9 0 14 -2t4 -9q-2 -50 -10 -108.5t-18 -116t-20 -103.5q-7 -32 -17 -74.5t-23 -80.5q-8 -24 -23.5 -55.5t-47.5 -62t-87.5 -50.5
t-142.5 -20zM733 763q7 2 7 -6q-1 -10 -2 -19t-3 -17q-10 -46 -36 -74t-61.5 -40.5t-74.5 -14.5q-8 0 -6 7l15 67q0 7 8 7q20 1 40 11t27 41q1 4 1 8.5t1 8.5q1 7 7 8z" />
    <glyph glyph-name="uhorn" unicode="&#x1b0;" horiz-adv-x="463" 
d="M194 -4q-63 0 -100.5 18t-54 49.5t-17 72t9.5 86.5q8 35 17.5 73t21 76.5t22.5 72.5q7 21 12 24.5t21 3.5h94q15 0 22 -0.5t0 -20.5q-1 -4 -8 -29t-16.5 -61.5t-19 -74.5t-15.5 -68q-13 -59 -4 -84t43 -25q4 0 10.5 0.5t12.5 1.5t11 4.5t6 9.5l70 327q2 6 4 13t9 7h120
q4 0 9.5 -2t3.5 -13l-87 -407q-2 -12 -10.5 -17t-33.5 -13q-13 -4 -40 -9.5t-57.5 -10t-55.5 -4.5zM540 562q7 2 7 -6q-1 -10 -2 -19t-3 -17q-10 -46 -36 -74t-61.5 -40.5t-74.5 -14.5q-8 0 -6 7l15 67q0 7 8 7q20 1 40 11t27 41q1 4 1 8.5t1 8.5q1 7 7 8z" />
    <glyph glyph-name="uni0218" unicode="&#x218;" horiz-adv-x="495" 
d="M3 40l20 93q2 8 7 8.5t17 -4.5q18 -6 44.5 -11.5t52.5 -8.5t42 -3q47 0 77 26t37 57q5 22 -4 39.5t-27.5 30t-43.5 19.5q-22 6 -51.5 17t-55 32t-37.5 57t0 92q15 70 56.5 112.5t97.5 62t114 19.5q21 0 47.5 -4.5t52 -12t43.5 -16.5q8 -2 9.5 -6t-0.5 -11l-18 -86
q-7 -31 -39 -10q-12 9 -28 16t-36 11.5t-43 4.5q-39 0 -67 -20.5t-33 -45.5q-7 -30 7.5 -48t40 -28t53.5 -17t49 -16q26 -10 43.5 -24.5t27 -36t10.5 -50.5t-7 -68q-16 -76 -59.5 -124t-105.5 -71t-134 -23q-31 0 -69.5 6t-67.5 17q-15 5 -19.5 10t-2.5 15zM226 -88
q-5 -22 -19.5 -46.5t-31 -46.5t-28.5 -35q-6 -7 -14 -7h-25h-24q-8 0 -7.5 3t6.5 13q8 11 21 34t22 36q-19 3 -25 19t-4 29q5 23 23.5 39t53.5 16q26 0 42.5 -10t9.5 -44z" />
    <glyph glyph-name="uni0219" unicode="&#x219;" horiz-adv-x="415" 
d="M18 127q5 13 12.5 11.5t13.5 -6.5q15 -9 36.5 -15t44 -9t41.5 -3q18 0 32 3.5t24 11t14 20.5q2 8 -0.5 15.5t-19 15t-56.5 14.5q-19 3 -41.5 10.5t-41 23.5t-27 44t0.5 73q10 46 43.5 77t82.5 47.5t104 16.5q17 0 42.5 -4t51 -12.5t41.5 -23.5q9 -7 9 -11t-5 -12l-42 -73
q-7 -14 -23 -7q-14 8 -31 16t-34.5 13.5t-32.5 5.5q-27 0 -44 -7.5t-20 -21.5q-2 -11 3.5 -19.5t18.5 -13t32 -5.5q18 -1 43 -9t47 -24t33.5 -44t2.5 -70q-13 -61 -51 -96t-85.5 -49.5t-91.5 -14.5q-19 0 -48.5 4t-58 13.5t-46.5 24.5q-9 7 -5 17zM188 -88
q-5 -22 -19.5 -46.5t-31 -46.5t-28.5 -35q-6 -7 -14 -7h-25h-24q-8 0 -7.5 3t6.5 13q8 11 21 34t22 36q-19 3 -25 19t-4 29q5 23 23.5 39t53.5 16q26 0 42.5 -10t9.5 -44z" />
    <glyph glyph-name="uni021A" unicode="&#x21a;" horiz-adv-x="463" 
d="M120 0q-5 0 -9 4t-3 10l114 536q1 5 0 6t-6 1h-114q-13 0 -14.5 2.5t-0.5 11.5l19 89q2 8 5 10.5t14 2.5h397q12 0 14.5 -2.5t0.5 -10.5l-19 -89q-1 -9 -5 -11.5t-17 -2.5h-114q-6 0 -7 -1t-2 -6l-114 -536q-3 -14 -17 -14h-122zM224 -88q-5 -22 -19.5 -46.5t-31 -46.5
t-28.5 -35q-6 -7 -14 -7h-25h-24q-8 0 -7.5 3t6.5 13q8 11 21 34t22 36q-19 3 -25 19t-4 29q5 23 23.5 39t53.5 16q26 0 42.5 -10t9.5 -44z" />
    <glyph glyph-name="uni021B" unicode="&#x21b;" horiz-adv-x="369" 
d="M185 0q-70 0 -98 29t-29 81q1 42 9.5 85.5t17.5 86.5q6 28 10 47t11 44q3 10 -7 10h-38q-9 0 -11 2t0 14l12 56q3 14 6 15.5t15 1.5h39q8 0 10.5 4.5t4.5 14.5l19 71q4 14 17 14h114q6 0 10.5 -4t2.5 -10l-20 -72q-4 -13 -3 -15.5t7 -2.5h73q12 0 13.5 -2.5t-1.5 -16.5
l-11 -53q-2 -11 -6.5 -14t-15.5 -3h-72q-7 0 -10 -3.5t-5 -11.5q-5 -23 -11 -47.5t-13 -50.5q-7 -33 -12 -66.5t-4 -63.5q1 -16 9.5 -22.5t20.5 -6.5q11 0 22 3.5t18 5.5q14 8 17 5t5 -14l5 -69q4 -14 -36 -28q-13 -4 -27 -7.5t-28.5 -5t-29.5 -1.5zM220 -82
q-5 -22 -19.5 -46.5t-31 -46.5t-28.5 -35q-6 -7 -14 -7h-25h-24q-8 0 -7.5 3t6.5 13q8 11 21 34t22 36q-19 3 -25 19t-4 29q5 23 23.5 39t53.5 16q26 0 42.5 -10t9.5 -44z" />
    <glyph glyph-name="circumflex" unicode="&#x2c6;" horiz-adv-x="249" 
d="M72 524q-4 0 -4.5 3t2.5 6l102 103q4 4 9 4h58q6 0 7 -4l60 -103q2 -3 0.5 -6t-6.5 -3h-63q-6 0 -8 4l-31 32q-4 5 -10 0l-43 -32q-6 -4 -10 -4h-63z" />
    <glyph glyph-name="caron" unicode="&#x2c7;" horiz-adv-x="250" 
d="M158 524q-6 0 -7 4l-60 103q-1 3 0.5 6t5.5 3h63q6 0 8 -4l31 -32q3 -5 10 0l43 32q6 4 10 4h63q5 0 5 -3t-3 -6l-102 -103q-4 -4 -9 -4h-58z" />
    <glyph glyph-name="breve" unicode="&#x2d8;" horiz-adv-x="247" 
d="M183 518q-59 0 -85.5 25t-17.5 67q4 18 7 22t16 4h53q12 0 14 -2t0 -13q-2 -12 6 -20t23 -8t27.5 8t14.5 20q2 10 6.5 12.5t11.5 2.5h58q11 0 12 -4.5t-3 -21.5q-9 -42 -46 -67t-97 -25z" />
    <glyph glyph-name="dotaccent" unicode="&#x2d9;" horiz-adv-x="117" 
d="M204 655q0 -25 -11 -38.5t-44 -13.5t-45.5 13.5t-12.5 38.5q0 23 12.5 37.5t45.5 14.5q35 0 45 -14.5t10 -37.5z" />
    <glyph glyph-name="ring" unicode="&#x2da;" horiz-adv-x="195" 
d="M273 601q-9 -43 -37 -69t-79 -26q-55 0 -71.5 26t-7.5 69q9 42 36.5 67.5t82.5 25.5q52 0 68.5 -25.5t7.5 -67.5zM215 603q2 12 -4 19.5t-28 7.5q-24 0 -31.5 -7.5t-9.5 -19.5q-2 -10 1.5 -20.5t27.5 -10.5q25 0 33.5 10.5t10.5 20.5z" />
    <glyph glyph-name="ogonek" unicode="&#x2db;" horiz-adv-x="244" 
d="M30 -206q-52 0 -82 28t-21 71q8 35 28.5 63t51 50t68.5 41q13 6 27.5 11t30.5 5h71q8 0 7.5 -4.5t-8.5 -9.5q-70 -38 -105 -63.5t-48 -44t-17 -34.5q-4 -20 6 -27.5t23 -6.5q15 1 40 11t44 23q8 5 14.5 4.5t4.5 -8.5l-10 -43q-1 -10 -8.5 -18t-18.5 -15
q-25 -16 -48.5 -24.5t-49.5 -8.5z" />
    <glyph glyph-name="tilde" unicode="&#x2dc;" horiz-adv-x="224" 
d="M65 535q-6 0 -5 6q9 41 33 64t61 23q17 0 31 -8t24.5 -16t16.5 -8q5 0 9.5 3.5t5.5 12.5q1 4 4 5.5t4 1.5h56q6 0 5 -6q-8 -37 -35 -61.5t-61 -24.5q-22 0 -35 8t-21 15.5t-16 7.5q-7 0 -10.5 -3.5t-5.5 -12.5q-1 -7 -7 -7h-54z" />
    <glyph glyph-name="hungarumlaut" unicode="&#x2dd;" horiz-adv-x="251" 
d="M138 531q-3 -4 -7 -5.5t-17 -1.5h-41q-9 0 -9.5 4t3.5 12l66 119q3 5 9 6.5t16 1.5h73q7 0 8.5 -4.5t-3.5 -10.5zM266 531q-3 -4 -7 -5.5t-17 -1.5h-41q-9 0 -9.5 4t3.5 12l72 119q6 8 25 8h73q7 0 8.5 -4.5t-3.5 -10.5z" />
    <glyph glyph-name="gravecomb" unicode="&#x300;" 
d="M210 525q-15 0 -29 14l-94 92q-4 4 -1 9.5t8 5.5h105q12 0 17 -3t10 -11l53 -89q11 -18 -2 -18h-67z" />
    <glyph glyph-name="acutecomb" unicode="&#x301;" 
d="M73 524q-10 0 -10.5 3.5t7.5 14.5l69 95q5 8 23 8h89q7 0 9.5 -3.5t-5.5 -11.5l-93 -99q-5 -6 -9.5 -6.5t-13.5 -0.5h-66z" />
    <glyph glyph-name="uni0302" unicode="&#x302;" 
d="M72 524q-4 0 -4.5 3t2.5 6l102 103q4 4 9 4h58q6 0 7 -4l60 -103q2 -3 0.5 -6t-6.5 -3h-63q-6 0 -8 4l-31 32q-4 5 -10 0l-43 -32q-6 -4 -10 -4h-63z" />
    <glyph glyph-name="tildecomb" unicode="&#x303;" 
d="M65 535q-6 0 -5 6q9 41 33 64t61 23q17 0 31 -8t24.5 -16t16.5 -8q5 0 9.5 3.5t5.5 12.5q1 4 4 5.5t4 1.5h56q6 0 5 -6q-8 -37 -35 -61.5t-61 -24.5q-22 0 -35 8t-21 15.5t-16 7.5q-7 0 -10.5 -3.5t-5.5 -12.5q-1 -7 -7 -7h-54z" />
    <glyph glyph-name="uni0304" unicode="&#x304;" 
d="M303 534q-1 -4 -3 -5t-11 -1h-216q-8 0 -9 2t0 7l14 66q2 7 4 9t9 2h217q8 0 10 -1.5t0 -8.5z" />
    <glyph glyph-name="uni0306" unicode="&#x306;" 
d="M183 518q-59 0 -85.5 25t-17.5 67q4 18 7 22t16 4h53q12 0 14 -2t0 -13q-2 -12 6 -20t23 -8t27.5 8t14.5 20q2 10 6.5 12.5t11.5 2.5h58q11 0 12 -4.5t-3 -21.5q-9 -42 -46 -67t-97 -25z" />
    <glyph glyph-name="uni0307" unicode="&#x307;" 
d="M184 571q-5 -25 -19 -38.5t-47 -13.5t-42.5 13.5t-4.5 38.5q5 23 20.5 37.5t48.5 14.5q35 0 42 -14.5t2 -37.5z" />
    <glyph glyph-name="uni0308" unicode="&#x308;" 
d="M194 574q-5 -25 -21 -38.5t-51 -13.5q-31 0 -42 13.5t-6 38.5t22 38.5t48 13.5q35 0 45 -13.5t5 -38.5zM362 574q-5 -25 -20.5 -38.5t-50.5 -13.5q-32 0 -43 13.5t-6 38.5t22 38.5t49 13.5q35 0 44.5 -13.5t4.5 -38.5z" />
    <glyph glyph-name="hookabovecomb" unicode="&#x309;" 
d="M124 521q-3 0 -5.5 3t-1.5 6q2 13 8.5 21.5t11.5 12.5q11 9 21 15.5t12 16.5q2 11 -11 11q-7 0 -13.5 -2t-17.5 -9q-10 -6 -13 2l-20 34q-3 8 5 12q14 9 39.5 19t53.5 10q35 0 51 -20t9 -53q-6 -28 -21.5 -39.5t-25.5 -16.5q-6 -3 -9 -6t-4 -8q-2 -9 -12 -9h-57z" />
    <glyph glyph-name="uni030A" unicode="&#x30a;" 
d="M273 601q-9 -43 -37 -69t-79 -26q-55 0 -71.5 26t-7.5 69q9 42 36.5 67.5t82.5 25.5q52 0 68.5 -25.5t7.5 -67.5zM215 603q2 12 -4 19.5t-28 7.5q-24 0 -31.5 -7.5t-9.5 -19.5q-2 -10 1.5 -20.5t27.5 -10.5q25 0 33.5 10.5t10.5 20.5z" />
    <glyph glyph-name="uni030B" unicode="&#x30b;" 
d="M138 531q-3 -4 -7 -5.5t-17 -1.5h-41q-9 0 -9.5 4t3.5 12l66 119q3 5 9 6.5t16 1.5h73q7 0 8.5 -4.5t-3.5 -10.5zM266 531q-3 -4 -7 -5.5t-17 -1.5h-41q-9 0 -9.5 4t3.5 12l72 119q6 8 25 8h73q7 0 8.5 -4.5t-3.5 -10.5z" />
    <glyph glyph-name="uni030C" unicode="&#x30c;" 
d="M158 524q-6 0 -7 4l-60 103q-1 3 0.5 6t5.5 3h63q6 0 8 -4l31 -32q3 -5 10 0l43 32q6 4 10 4h63q5 0 5 -3t-3 -6l-102 -103q-4 -4 -9 -4h-58z" />
    <glyph glyph-name="uni0312" unicode="&#x312;" 
d="M78 603q5 25 20 54t33.5 55t31.5 42q8 8 16 8q14 0 27 0.5t26 0.5q8 0 8 -3.5t-8 -14.5q-4 -7 -12.5 -24t-18 -34.5t-16.5 -28.5q21 -2 28 -19t4 -33q-6 -26 -25 -43.5t-57 -18.5q-28 -1 -46 10.5t-11 48.5z" />
    <glyph glyph-name="uni031B" unicode="&#x31b;" 
d="M210 562q7 2 7 -6q-1 -10 -2 -19t-3 -17q-10 -46 -36 -74t-61.5 -40.5t-74.5 -14.5q-8 0 -6 7l15 67q0 7 8 7q20 1 40 11t27 41q1 4 1 8.5t1 8.5q1 7 7 8z" />
    <glyph glyph-name="dotbelowcomb" unicode="&#x323;" 
d="M29 -96q-5 -25 -19 -38.5t-47 -13.5t-42.5 13.5t-4.5 38.5q5 23 20.5 37.5t48.5 14.5q35 0 42 -14.5t2 -37.5z" />
    <glyph glyph-name="uni0326" unicode="&#x326;" 
d="M60 -88q-5 -22 -19.5 -46.5t-31 -46.5t-28.5 -35q-6 -7 -14 -7h-25h-24q-8 0 -7.5 3t6.5 13q8 11 21 34t22 36q-19 3 -25 19t-4 29q5 23 23.5 39t53.5 16q26 0 42.5 -10t9.5 -44z" />
    <glyph glyph-name="uni0327" unicode="&#x327;" 
d="M134 -128q-7 -31 -39 -56t-77 -25q-36 0 -55.5 14.5t-30.5 33.5q-5 9 -3 19t13 14l24 10q22 9 25 -4t11 -20t20 -7q15 0 24 8t10 17q3 11 -3.5 18t-17.5 10.5t-25 2.5q-10 0 -11.5 6t2.5 16l29 63q3 7 9.5 9.5t14.5 2.5h32q9 0 5 -13l-19 -67l-17 29q47 -6 66.5 -26
t12.5 -55z" />
    <glyph glyph-name="uni0328" unicode="&#x328;" 
d="M30 -206q-52 0 -82 28t-21 71q8 35 28.5 63t51 50t68.5 41q13 6 27.5 11t30.5 5h71q8 0 7.5 -4.5t-8.5 -9.5q-70 -38 -105 -63.5t-48 -44t-17 -34.5q-4 -20 6 -27.5t23 -6.5q15 1 40 11t44 23q8 5 14.5 4.5t4.5 -8.5l-10 -43q-1 -10 -8.5 -18t-18.5 -15
q-25 -16 -48.5 -24.5t-49.5 -8.5z" />
    <glyph glyph-name="uni03BC" unicode="&#x3bc;" horiz-adv-x="476" 
d="M222 -4q-13 0 -31 1.5t-33 3t-18 1.5q-2 -20 0.5 -50.5t11 -68.5t22.5 -83h-71h-72q-14 32 -18.5 80.5t-2.5 103t7.5 104t11 86t8.5 48.5q7 35 16.5 73t21 76.5t23.5 72.5q7 21 12 24.5t21 3.5h94q15 0 22 -0.5t-1 -20.5q-1 -4 -7.5 -29t-16 -61.5t-19 -74.5t-15.5 -68
q-7 -34 -8 -48t3 -34q8 -11 14.5 -19t21.5 -8q7 0 15 0.5t15 1.5t12 4.5t6 9.5l70 327q1 6 3.5 13t9.5 7h120q4 0 9.5 -2t3.5 -13l-82 -386q-4 -19 -14.5 -28.5t-34.5 -22.5q-13 -7 -34.5 -12.5t-46 -8.5t-49.5 -3z" />
    <glyph glyph-name="pi" unicode="&#x3c0;" horiz-adv-x="658" 
d="M86 0q-17 0 -21 8.5t-1 24.5l79 371h-35q-22 0 -26 5.5t0 24.5l11 52q5 19 11 25t28 6h514q24 0 27 -6t-2 -25l-11 -52q-4 -19 -9 -24.5t-29 -5.5h-35l-79 -371q-3 -16 -7.5 -24.5t-18.5 -8.5h-103q-15 0 -16.5 8.5t1.5 24.5l79 371h-153l-79 -371q-3 -16 -9 -24.5
t-23 -8.5h-93z" />
    <glyph glyph-name="Wgrave" unicode="&#x1e80;" horiz-adv-x="865" 
d="M189 0q-16 0 -20.5 5.5t-6.5 12.5q-13 41 -23.5 102t-18 132t-11.5 144t-4 139.5t4 116.5q1 10 4 15.5t13 5.5h118q9 0 11.5 -3t2.5 -14q0 -44 -0.5 -79.5t0.5 -75.5t3 -99q1 -17 2 -42t2.5 -51t3.5 -47t4 -30q1 -2 2 -6t2 -4h2q2 0 3.5 3.5t5.5 7.5q8 10 18.5 27.5
t22 38.5t22 44.5t20.5 46.5t17 44q11 32 20.5 65.5t17 64.5t12.5 54t8 34q2 9 4 15t13 6h119q8 0 10.5 -3t0.5 -14q-15 -78 -22.5 -148.5t-6.5 -137t11 -132.5q2 -9 2.5 -12.5t1.5 -3.5h1h1q3 0 5 6q22 39 42.5 80.5t37 75.5t23.5 49q17 36 44.5 94.5t53.5 124.5
q5 14 9 17.5t10 3.5h122q18 0 7 -24q-16 -34 -38.5 -84t-50 -109t-57.5 -121t-60 -121t-59 -108.5t-55 -84.5q-2 -4 -10 -12.5t-17 -8.5h-29.5h-42h-29.5q-7 0 -12.5 7t-7.5 14q-6 22 -12.5 48.5t-12 59.5t-10.5 73q-1 8 -5 9.5t-9 -7.5q-15 -29 -34.5 -64t-39 -66.5
t-34.5 -52.5q-6 -9 -14.5 -15t-13.5 -6h-93zM528 715q-8 0 -13 3.5t-13 10.5l-89 75q-4 3 0.5 9t9.5 6h105q12 0 15.5 -3t8.5 -11l49 -72q5 -7 3.5 -12.5t-9.5 -5.5h-67z" />
    <glyph glyph-name="wgrave" unicode="&#x1e81;" horiz-adv-x="657" 
d="M131 0q-9 0 -13 4.5t-7 12.5q-16 51 -27.5 108t-18 113t-9 106t-1.5 88q1 17 3.5 28.5t13.5 11.5h123q15 0 15 -15v-61.5v-61.5t0.5 -56t1 -45.5t1.5 -28.5q1 -17 11 -3q6 9 13.5 25t14.5 34.5t13 37t9 31.5q4 19 7.5 37.5t6.5 34.5t6 30t5 24q3 16 18 16h128
q6 0 9.5 -3.5t1.5 -11.5q-6 -29 -13.5 -67t-10.5 -74q-1 -15 -2 -29.5t-1.5 -28t0 -25t1.5 -21t2 -17.5q3 -15 10 0t16.5 36t21 46.5t23.5 55t24.5 60t23.5 61.5q7 19 28 19h105q11 0 10 -10t-6 -25q-13 -37 -34 -83.5t-47 -96t-52.5 -96t-52 -84t-45.5 -59.5
q-8 -9 -13.5 -13.5t-15.5 -4.5h-66q-10 0 -13.5 2.5t-6.5 9.5t-8.5 24t-11 38t-8.5 38q-2 11 -7.5 11t-10.5 -9l-9 -13.5t-14.5 -22t-12.5 -17.5q-10 -13 -21.5 -28.5t-15.5 -20.5q-4 -4 -10 -8t-14 -4h-68zM369 525q-15 0 -29 14l-94 92q-4 4 -1 9.5t8 5.5h105q12 0 17 -3
t10 -11l53 -89q11 -18 -2 -18h-67z" />
    <glyph glyph-name="Wacute" unicode="&#x1e82;" horiz-adv-x="865" 
d="M189 0q-16 0 -20.5 5.5t-6.5 12.5q-13 41 -23.5 102t-18 132t-11.5 144t-4 139.5t4 116.5q1 10 4 15.5t13 5.5h118q9 0 11.5 -3t2.5 -14q0 -44 -0.5 -79.5t0.5 -75.5t3 -99q1 -17 2 -42t2.5 -51t3.5 -47t4 -30q1 -2 2 -6t2 -4h2q2 0 3.5 3.5t5.5 7.5q8 10 18.5 27.5
t22 38.5t22 44.5t20.5 46.5t17 44q11 32 20.5 65.5t17 64.5t12.5 54t8 34q2 9 4 15t13 6h119q8 0 10.5 -3t0.5 -14q-15 -78 -22.5 -148.5t-6.5 -137t11 -132.5q2 -9 2.5 -12.5t1.5 -3.5h1h1q3 0 5 6q22 39 42.5 80.5t37 75.5t23.5 49q17 36 44.5 94.5t53.5 124.5
q5 14 9 17.5t10 3.5h122q18 0 7 -24q-16 -34 -38.5 -84t-50 -109t-57.5 -121t-60 -121t-59 -108.5t-55 -84.5q-2 -4 -10 -12.5t-17 -8.5h-29.5h-42h-29.5q-7 0 -12.5 7t-7.5 14q-6 22 -12.5 48.5t-12 59.5t-10.5 73q-1 8 -5 9.5t-9 -7.5q-15 -29 -34.5 -64t-39 -66.5
t-34.5 -52.5q-6 -9 -14.5 -15t-13.5 -6h-93zM531 715h-67q-8 0 -8.5 5.5t6.5 12.5l64 72q7 8 11 11t16 3h105q5 0 8.5 -6t-1.5 -9l-105 -75q-10 -7 -15.5 -10.5t-13.5 -3.5z" />
    <glyph glyph-name="wacute" unicode="&#x1e83;" horiz-adv-x="657" 
d="M131 0q-9 0 -13 4.5t-7 12.5q-16 51 -27.5 108t-18 113t-9 106t-1.5 88q1 17 3.5 28.5t13.5 11.5h123q15 0 15 -15v-61.5v-61.5t0.5 -56t1 -45.5t1.5 -28.5q1 -17 11 -3q6 9 13.5 25t14.5 34.5t13 37t9 31.5q4 19 7.5 37.5t6.5 34.5t6 30t5 24q3 16 18 16h128
q6 0 9.5 -3.5t1.5 -11.5q-6 -29 -13.5 -67t-10.5 -74q-1 -15 -2 -29.5t-1.5 -28t0 -25t1.5 -21t2 -17.5q3 -15 10 0t16.5 36t21 46.5t23.5 55t24.5 60t23.5 61.5q7 19 28 19h105q11 0 10 -10t-6 -25q-13 -37 -34 -83.5t-47 -96t-52.5 -96t-52 -84t-45.5 -59.5
q-8 -9 -13.5 -13.5t-15.5 -4.5h-66q-10 0 -13.5 2.5t-6.5 9.5t-8.5 24t-11 38t-8.5 38q-2 11 -7.5 11t-10.5 -9l-9 -13.5t-14.5 -22t-12.5 -17.5q-10 -13 -21.5 -28.5t-15.5 -20.5q-4 -4 -10 -8t-14 -4h-68zM341 524q-10 0 -10.5 3.5t7.5 14.5l69 95q5 8 23 8h89
q7 0 9.5 -3.5t-5.5 -11.5l-93 -99q-5 -6 -9.5 -6.5t-13.5 -0.5h-66z" />
    <glyph glyph-name="Wdieresis" unicode="&#x1e84;" horiz-adv-x="865" 
d="M189 0q-16 0 -20.5 5.5t-6.5 12.5q-13 41 -23.5 102t-18 132t-11.5 144t-4 139.5t4 116.5q1 10 4 15.5t13 5.5h118q9 0 11.5 -3t2.5 -14q0 -44 -0.5 -79.5t0.5 -75.5t3 -99q1 -17 2 -42t2.5 -51t3.5 -47t4 -30q1 -2 2 -6t2 -4h2q2 0 3.5 3.5t5.5 7.5q8 10 18.5 27.5
t22 38.5t22 44.5t20.5 46.5t17 44q11 32 20.5 65.5t17 64.5t12.5 54t8 34q2 9 4 15t13 6h119q8 0 10.5 -3t0.5 -14q-15 -78 -22.5 -148.5t-6.5 -137t11 -132.5q2 -9 2.5 -12.5t1.5 -3.5h1h1q3 0 5 6q22 39 42.5 80.5t37 75.5t23.5 49q17 36 44.5 94.5t53.5 124.5
q5 14 9 17.5t10 3.5h122q18 0 7 -24q-16 -34 -38.5 -84t-50 -109t-57.5 -121t-60 -121t-59 -108.5t-55 -84.5q-2 -4 -10 -12.5t-17 -8.5h-29.5h-42h-29.5q-7 0 -12.5 7t-7.5 14q-6 22 -12.5 48.5t-12 59.5t-10.5 73q-1 8 -5 9.5t-9 -7.5q-15 -29 -34.5 -64t-39 -66.5
t-34.5 -52.5q-6 -9 -14.5 -15t-13.5 -6h-93zM524 775q-5 -25 -21 -38.5t-51 -13.5q-31 0 -42 13.5t-6 38.5t22 38.5t48 13.5q35 0 45 -13.5t5 -38.5zM692 775q-5 -25 -20.5 -38.5t-50.5 -13.5q-32 0 -43 13.5t-6 38.5t22 38.5t49 13.5q35 0 44.5 -13.5t4.5 -38.5z" />
    <glyph glyph-name="wdieresis" unicode="&#x1e85;" horiz-adv-x="657" 
d="M131 0q-9 0 -13 4.5t-7 12.5q-16 51 -27.5 108t-18 113t-9 106t-1.5 88q1 17 3.5 28.5t13.5 11.5h123q15 0 15 -15v-61.5v-61.5t0.5 -56t1 -45.5t1.5 -28.5q1 -17 11 -3q6 9 13.5 25t14.5 34.5t13 37t9 31.5q4 19 7.5 37.5t6.5 34.5t6 30t5 24q3 16 18 16h128
q6 0 9.5 -3.5t1.5 -11.5q-6 -29 -13.5 -67t-10.5 -74q-1 -15 -2 -29.5t-1.5 -28t0 -25t1.5 -21t2 -17.5q3 -15 10 0t16.5 36t21 46.5t23.5 55t24.5 60t23.5 61.5q7 19 28 19h105q11 0 10 -10t-6 -25q-13 -37 -34 -83.5t-47 -96t-52.5 -96t-52 -84t-45.5 -59.5
q-8 -9 -13.5 -13.5t-15.5 -4.5h-66q-10 0 -13.5 2.5t-6.5 9.5t-8.5 24t-11 38t-8.5 38q-2 11 -7.5 11t-10.5 -9l-9 -13.5t-14.5 -22t-12.5 -17.5q-10 -13 -21.5 -28.5t-15.5 -20.5q-4 -4 -10 -8t-14 -4h-68zM377 574q-5 -25 -21 -38.5t-51 -13.5q-31 0 -42 13.5t-6 38.5
t22 38.5t48 13.5q35 0 45 -13.5t5 -38.5zM545 574q-5 -25 -20.5 -38.5t-50.5 -13.5q-32 0 -43 13.5t-6 38.5t22 38.5t49 13.5q35 0 44.5 -13.5t4.5 -38.5z" />
    <glyph glyph-name="uni1E9E" unicode="&#x1e9e;" horiz-adv-x="942" 
d="M3 40l20 93q2 8 7 8.5t17 -4.5q18 -6 44.5 -11.5t52.5 -8.5t42 -3q47 0 77 26t37 57q5 22 -4 39.5t-27.5 30t-43.5 19.5q-22 6 -51.5 17t-55 32t-37.5 57t0 92q15 70 56.5 112.5t97.5 62t114 19.5q21 0 47.5 -4.5t52 -12t43.5 -16.5q8 -2 9.5 -6t-0.5 -11l-18 -86
q-7 -31 -39 -10q-12 9 -28 16t-36 11.5t-43 4.5q-39 0 -67 -20.5t-33 -45.5q-7 -30 7.5 -48t40 -28t53.5 -17t49 -16q26 -10 43.5 -24.5t27 -36t10.5 -50.5t-7 -68q-16 -76 -59.5 -124t-105.5 -71t-134 -23q-31 0 -69.5 6t-67.5 17q-15 5 -19.5 10t-2.5 15zM446 40l20 93
q2 8 7 8.5t17 -4.5q18 -6 44.5 -11.5t52.5 -8.5t42 -3q47 0 77 26t37 57q5 22 -4 39.5t-27.5 30t-43.5 19.5q-22 6 -51.5 17t-55 32t-37.5 57t0 92q15 70 56.5 112.5t97.5 62t114 19.5q21 0 47.5 -4.5t52 -12t43.5 -16.5q8 -2 9.5 -6t-0.5 -11l-18 -86q-7 -31 -39 -10
q-12 9 -28 16t-36 11.5t-43 4.5q-39 0 -67 -20.5t-33 -45.5q-7 -30 7.5 -48t40 -28t53.5 -17t49 -16q26 -10 43.5 -24.5t27 -36t10.5 -50.5t-7 -68q-16 -76 -59.5 -124t-105.5 -71t-134 -23q-31 0 -69.5 6t-67.5 17q-15 5 -19.5 10t-2.5 15z" />
    <glyph glyph-name="uni1EA0" unicode="&#x1ea0;" horiz-adv-x="549" 
d="M-24 0q-10 0 -10 8t9 32q15 44 42 106.5t61 132.5t71 140t72.5 130.5t65.5 101.5q8 10 15 16t15 6h99q8 -3 12.5 -7.5t7.5 -14.5q13 -41 23.5 -101.5t18 -130.5t11.5 -140t4.5 -132.5t-2.5 -106.5q-1 -24 -5 -32t-15 -8h-118q-9 0 -11.5 5t-1.5 27t0.5 52t-0.5 49
q0 8 -1 9t-8 1h-154q-7 0 -8.5 -1t-4.5 -9q-7 -19 -20.5 -49t-21.5 -52q-9 -22 -13.5 -27t-13.5 -5h-119zM234 258h90q7 0 8 2.5t1 9.5q-1 40 -4 85.5t-6 79.5q2 9 -4 9h-4q-2 0 -8 -9q-10 -22 -24 -50t-28 -57.5t-27 -57.5q-3 -7 -2 -9.5t8 -2.5zM258 -96q-5 -25 -19 -38.5
t-47 -13.5t-42.5 13.5t-4.5 38.5q5 23 20.5 37.5t48.5 14.5q35 0 42 -14.5t2 -37.5z" />
    <glyph glyph-name="uni1EA1" unicode="&#x1ea1;" horiz-adv-x="479" 
d="M189 -6q-100 0 -144 57t-16 178q17 76 46 124t65.5 75t75 37.5t75.5 10.5q21 0 37 -7t21 -14l2 6q3 8 7 9.5t12 1.5h112q16 0 15 -14q-4 -25 -13 -68t-21 -93.5t-24.5 -100t-24.5 -88.5t-20 -56q-6 -13 -13.5 -19.5t-33.5 -14.5q-19 -7 -63 -15.5t-95 -8.5zM216 106
q9 0 17 1t15 2.5t11 2.5q5 1 7.5 4t4.5 10q5 21 10.5 42t10.5 41.5l10 41t9.5 40t9.5 38.5q2 7 0 11t-7 5q-7 2 -18.5 5.5t-21.5 3.5t-23 -4.5t-26 -17t-25 -37.5t-21 -67q-16 -70 -3.5 -96t40.5 -26zM224 -96q-5 -25 -19 -38.5t-47 -13.5t-42.5 13.5t-4.5 38.5
q5 23 20.5 37.5t48.5 14.5q35 0 42 -14.5t2 -37.5z" />
    <glyph glyph-name="uni1EA2" unicode="&#x1ea2;" horiz-adv-x="549" 
d="M-24 0q-10 0 -10 8t9 32q15 44 42 106.5t61 132.5t71 140t72.5 130.5t65.5 101.5q8 10 15 16t15 6h99q8 -3 12.5 -7.5t7.5 -14.5q13 -41 23.5 -101.5t18 -130.5t11.5 -140t4.5 -132.5t-2.5 -106.5q-1 -24 -5 -32t-15 -8h-118q-9 0 -11.5 5t-1.5 27t0.5 52t-0.5 49
q0 8 -1 9t-8 1h-154q-7 0 -8.5 -1t-4.5 -9q-7 -19 -20.5 -49t-21.5 -52q-9 -22 -13.5 -27t-13.5 -5h-119zM234 258h90q7 0 8 2.5t1 9.5q-1 40 -4 85.5t-6 79.5q2 9 -4 9h-4q-2 0 -8 -9q-10 -22 -24 -50t-28 -57.5t-27 -57.5q-3 -7 -2 -9.5t8 -2.5zM339 707q-3 0 -5.5 3
t-1.5 6q2 13 8.5 21.5t11.5 12.5q11 9 21 15.5t12 16.5q2 11 -11 11q-7 0 -13.5 -2t-17.5 -9q-10 -6 -13 2l-20 34q-2 4 -0.5 7t5.5 5q14 9 39.5 19t53.5 10q35 0 51 -20t9 -53q-6 -28 -21.5 -39.5t-25.5 -16.5q-6 -3 -9 -6t-4 -8q-2 -9 -12 -9h-57z" />
    <glyph glyph-name="uni1EA3" unicode="&#x1ea3;" horiz-adv-x="479" 
d="M189 -6q-100 0 -144 57t-16 178q17 76 46 124t65.5 75t75 37.5t75.5 10.5q21 0 37 -7t21 -14l2 6q3 8 7 9.5t12 1.5h112q16 0 15 -14q-4 -25 -13 -68t-21 -93.5t-24.5 -100t-24.5 -88.5t-20 -56q-6 -13 -13.5 -19.5t-33.5 -14.5q-19 -7 -63 -15.5t-95 -8.5zM216 106
q9 0 17 1t15 2.5t11 2.5q5 1 7.5 4t4.5 10q5 21 10.5 42t10.5 41.5l10 41t9.5 40t9.5 38.5q2 7 0 11t-7 5q-7 2 -18.5 5.5t-21.5 3.5t-23 -4.5t-26 -17t-25 -37.5t-21 -67q-16 -70 -3.5 -96t40.5 -26zM298 518q-3 0 -5.5 3t-1.5 6q2 13 8.5 21.5t11.5 12.5q11 9 21 15.5
t12 16.5q2 11 -11 11q-7 0 -13.5 -2t-17.5 -9q-10 -6 -13 2l-20 34q-3 8 5 12q14 9 39.5 19t53.5 10q35 0 51 -20t9 -53q-6 -28 -21.5 -39.5t-25.5 -16.5q-6 -3 -9 -6t-4 -8q-2 -9 -12 -9h-57z" />
    <glyph glyph-name="uni1EA4" unicode="&#x1ea4;" horiz-adv-x="549" 
d="M-24 0q-10 0 -10 8t9 32q15 44 42 106.5t61 132.5t71 140t72.5 130.5t65.5 101.5q8 10 15 16t15 6h99q8 -3 12.5 -7.5t7.5 -14.5q13 -41 23.5 -101.5t18 -130.5t11.5 -140t4.5 -132.5t-2.5 -106.5q-1 -24 -5 -32t-15 -8h-118q-9 0 -11.5 5t-1.5 27t0.5 52t-0.5 49
q0 8 -1 9t-8 1h-154q-7 0 -8.5 -1t-4.5 -9q-7 -19 -20.5 -49t-21.5 -52q-9 -22 -13.5 -27t-13.5 -5h-119zM234 258h90q7 0 8 2.5t1 9.5q-1 40 -4 85.5t-6 79.5q2 9 -4 9h-4q-2 0 -8 -9q-10 -22 -24 -50t-28 -57.5t-27 -57.5q-3 -7 -2 -9.5t8 -2.5zM246 713q-4 0 -4.5 3
t2.5 6l103 90q7 7 12 7h64q7 0 11 -6l66 -91q2 -3 0.5 -6t-6.5 -3h-59q-8 0 -12 2t-9 6l-31 28q-5 5 -12 0l-45 -30q-5 -3 -8.5 -4.5t-9.5 -1.5h-62zM576 775h-67q-8 0 -8.5 5.5t6.5 12.5l64 72q7 8 11 11t16 3h105q5 0 8.5 -6t-1.5 -9l-105 -75q-10 -7 -15.5 -10.5
t-13.5 -3.5z" />
    <glyph glyph-name="uni1EA5" unicode="&#x1ea5;" horiz-adv-x="479" 
d="M189 -6q-100 0 -144 57t-16 178q17 76 46 124t65.5 75t75 37.5t75.5 10.5q21 0 37 -7t21 -14l2 6q3 8 7 9.5t12 1.5h112q16 0 15 -14q-4 -25 -13 -68t-21 -93.5t-24.5 -100t-24.5 -88.5t-20 -56q-6 -13 -13.5 -19.5t-33.5 -14.5q-19 -7 -63 -15.5t-95 -8.5zM216 106
q9 0 17 1t15 2.5t11 2.5q5 1 7.5 4t4.5 10q5 21 10.5 42t10.5 41.5l10 41t9.5 40t9.5 38.5q2 7 0 11t-7 5q-7 2 -18.5 5.5t-21.5 3.5t-23 -4.5t-26 -17t-25 -37.5t-21 -67q-16 -70 -3.5 -96t40.5 -26zM214 524q-4 0 -4.5 3t2.5 6l102 103q4 4 9 4h58q6 0 7 -4l60 -103
q2 -3 0.5 -6t-6.5 -3h-63q-6 0 -8 4l-31 32q-4 5 -10 0l-43 -32q-6 -4 -10 -4h-63zM492 578q-10 0 -10.5 3.5t7.5 14.5l69 95q5 8 23 8h89q7 0 9.5 -3.5t-5.5 -11.5l-93 -99q-5 -6 -9.5 -6.5t-13.5 -0.5h-66z" />
    <glyph glyph-name="uni1EA6" unicode="&#x1ea6;" horiz-adv-x="549" 
d="M-24 0q-10 0 -10 8t9 32q15 44 42 106.5t61 132.5t71 140t72.5 130.5t65.5 101.5q8 10 15 16t15 6h99q8 -3 12.5 -7.5t7.5 -14.5q13 -41 23.5 -101.5t18 -130.5t11.5 -140t4.5 -132.5t-2.5 -106.5q-1 -24 -5 -32t-15 -8h-118q-9 0 -11.5 5t-1.5 27t0.5 52t-0.5 49
q0 8 -1 9t-8 1h-154q-7 0 -8.5 -1t-4.5 -9q-7 -19 -20.5 -49t-21.5 -52q-9 -22 -13.5 -27t-13.5 -5h-119zM234 258h90q7 0 8 2.5t1 9.5q-1 40 -4 85.5t-6 79.5q2 9 -4 9h-4q-2 0 -8 -9q-10 -22 -24 -50t-28 -57.5t-27 -57.5q-3 -7 -2 -9.5t8 -2.5zM246 713q-4 0 -4.5 3
t2.5 6l103 90q7 7 12 7h64q7 0 11 -6l66 -91q2 -3 0.5 -6t-6.5 -3h-59q-8 0 -12 2t-9 6l-31 28q-5 5 -12 0l-45 -30q-5 -3 -8.5 -4.5t-9.5 -1.5h-62zM573 775q-8 0 -13 3.5t-13 10.5l-89 75q-4 3 0.5 9t9.5 6h105q12 0 15.5 -3t8.5 -11l49 -72q5 -7 3.5 -12.5t-9.5 -5.5h-67
z" />
    <glyph glyph-name="uni1EA7" unicode="&#x1ea7;" horiz-adv-x="479" 
d="M189 -6q-100 0 -144 57t-16 178q17 76 46 124t65.5 75t75 37.5t75.5 10.5q21 0 37 -7t21 -14l2 6q3 8 7 9.5t12 1.5h112q16 0 15 -14q-4 -25 -13 -68t-21 -93.5t-24.5 -100t-24.5 -88.5t-20 -56q-6 -13 -13.5 -19.5t-33.5 -14.5q-19 -7 -63 -15.5t-95 -8.5zM216 106
q9 0 17 1t15 2.5t11 2.5q5 1 7.5 4t4.5 10q5 21 10.5 42t10.5 41.5l10 41t9.5 40t9.5 38.5q2 7 0 11t-7 5q-7 2 -18.5 5.5t-21.5 3.5t-23 -4.5t-26 -17t-25 -37.5t-21 -67q-16 -70 -3.5 -96t40.5 -26zM214 524q-4 0 -4.5 3t2.5 6l102 103q4 4 9 4h58q6 0 7 -4l60 -103
q2 -3 0.5 -6t-6.5 -3h-63q-6 0 -8 4l-31 32q-4 5 -10 0l-43 -32q-6 -4 -10 -4h-63zM520 579q-15 0 -29 14l-94 92q-4 4 -1 9.5t8 5.5h105q12 0 17 -3t10 -11l53 -89q11 -18 -2 -18h-67z" />
    <glyph glyph-name="uni1EA8" unicode="&#x1ea8;" horiz-adv-x="549" 
d="M-24 0q-10 0 -10 8t9 32q15 44 42 106.5t61 132.5t71 140t72.5 130.5t65.5 101.5q8 10 15 16t15 6h99q8 -3 12.5 -7.5t7.5 -14.5q13 -41 23.5 -101.5t18 -130.5t11.5 -140t4.5 -132.5t-2.5 -106.5q-1 -24 -5 -32t-15 -8h-118q-9 0 -11.5 5t-1.5 27t0.5 52t-0.5 49
q0 8 -1 9t-8 1h-154q-7 0 -8.5 -1t-4.5 -9q-7 -19 -20.5 -49t-21.5 -52q-9 -22 -13.5 -27t-13.5 -5h-119zM234 258h90q7 0 8 2.5t1 9.5q-1 40 -4 85.5t-6 79.5q2 9 -4 9h-4q-2 0 -8 -9q-10 -22 -24 -50t-28 -57.5t-27 -57.5q-3 -7 -2 -9.5t8 -2.5zM246 713q-4 0 -4.5 3
t2.5 6l103 90q7 7 12 7h64q7 0 11 -6l66 -91q2 -3 0.5 -6t-6.5 -3h-59q-8 0 -12 2t-9 6l-31 28q-5 5 -12 0l-45 -30q-5 -3 -8.5 -4.5t-9.5 -1.5h-62zM519 771q-3 0 -5.5 3t-1.5 6q2 13 8.5 21.5t11.5 12.5q11 9 21 15.5t12 16.5q2 11 -11 11q-7 0 -13.5 -2t-17.5 -9
q-10 -6 -13 2l-20 34q-2 4 -0.5 7t5.5 5q14 9 39.5 19t53.5 10q35 0 51 -20t9 -53q-6 -28 -21.5 -39.5t-25.5 -16.5q-6 -3 -9 -6t-4 -8q-2 -9 -12 -9h-57z" />
    <glyph glyph-name="uni1EA9" unicode="&#x1ea9;" horiz-adv-x="479" 
d="M189 -6q-100 0 -144 57t-16 178q17 76 46 124t65.5 75t75 37.5t75.5 10.5q21 0 37 -7t21 -14l2 6q3 8 7 9.5t12 1.5h112q16 0 15 -14q-4 -25 -13 -68t-21 -93.5t-24.5 -100t-24.5 -88.5t-20 -56q-6 -13 -13.5 -19.5t-33.5 -14.5q-19 -7 -63 -15.5t-95 -8.5zM216 106
q9 0 17 1t15 2.5t11 2.5q5 1 7.5 4t4.5 10q5 21 10.5 42t10.5 41.5l10 41t9.5 40t9.5 38.5q2 7 0 11t-7 5q-7 2 -18.5 5.5t-21.5 3.5t-23 -4.5t-26 -17t-25 -37.5t-21 -67q-16 -70 -3.5 -96t40.5 -26zM214 524q-4 0 -4.5 3t2.5 6l102 103q4 4 9 4h58q6 0 7 -4l60 -103
q2 -3 0.5 -6t-6.5 -3h-63q-6 0 -8 4l-31 32q-4 5 -10 0l-43 -32q-6 -4 -10 -4h-63zM483 587q-3 0 -5.5 3t-1.5 6q2 13 8.5 21.5t11.5 12.5q11 9 21 15.5t12 16.5q2 11 -11 11q-7 0 -13.5 -2t-17.5 -9q-10 -6 -13 2l-20 34q-3 8 5 12q14 9 39.5 19t53.5 10q35 0 51 -20t9 -53
q-6 -28 -21.5 -39.5t-25.5 -16.5q-6 -3 -9 -6t-4 -8q-2 -9 -12 -9h-57z" />
    <glyph glyph-name="uni1EAA" unicode="&#x1eaa;" horiz-adv-x="549" 
d="M-24 0q-10 0 -10 8t9 32q15 44 42 106.5t61 132.5t71 140t72.5 130.5t65.5 101.5q8 10 15 16t15 6h99q8 -3 12.5 -7.5t7.5 -14.5q13 -41 23.5 -101.5t18 -130.5t11.5 -140t4.5 -132.5t-2.5 -106.5q-1 -24 -5 -32t-15 -8h-118q-9 0 -11.5 5t-1.5 27t0.5 52t-0.5 49
q0 8 -1 9t-8 1h-154q-7 0 -8.5 -1t-4.5 -9q-7 -19 -20.5 -49t-21.5 -52q-9 -22 -13.5 -27t-13.5 -5h-119zM234 258h90q7 0 8 2.5t1 9.5q-1 40 -4 85.5t-6 79.5q2 9 -4 9h-4q-2 0 -8 -9q-10 -22 -24 -50t-28 -57.5t-27 -57.5q-3 -7 -2 -9.5t8 -2.5zM246 713q-4 0 -4.5 3
t2.5 6l103 90q7 7 12 7h64q7 0 11 -6l66 -91q2 -3 0.5 -6t-6.5 -3h-59q-8 0 -12 2t-9 6l-31 28q-5 5 -12 0l-45 -30q-5 -3 -8.5 -4.5t-9.5 -1.5h-62zM293 847q-6 0 -5 6q10 45 34.5 70.5t61.5 25.5q17 0 30.5 -9.5t23.5 -19t15 -9.5t9.5 5t6.5 15q2 8 8 8h57q5 0 4 -7
q-8 -40 -35.5 -67t-61.5 -27q-22 0 -34.5 9t-20 18t-15.5 9q-6 0 -9.5 -4.5t-5.5 -15.5q-1 -7 -8 -7h-55z" />
    <glyph glyph-name="uni1EAB" unicode="&#x1eab;" horiz-adv-x="479" 
d="M189 -6q-100 0 -144 57t-16 178q17 76 46 124t65.5 75t75 37.5t75.5 10.5q21 0 37 -7t21 -14l2 6q3 8 7 9.5t12 1.5h112q16 0 15 -14q-4 -25 -13 -68t-21 -93.5t-24.5 -100t-24.5 -88.5t-20 -56q-6 -13 -13.5 -19.5t-33.5 -14.5q-19 -7 -63 -15.5t-95 -8.5zM216 106
q9 0 17 1t15 2.5t11 2.5q5 1 7.5 4t4.5 10q5 21 10.5 42t10.5 41.5l10 41t9.5 40t9.5 38.5q2 7 0 11t-7 5q-7 2 -18.5 5.5t-21.5 3.5t-23 -4.5t-26 -17t-25 -37.5t-21 -67q-16 -70 -3.5 -96t40.5 -26zM214 524q-4 0 -4.5 3t2.5 6l102 103q4 4 9 4h58q6 0 7 -4l60 -103
q2 -3 0.5 -6t-6.5 -3h-63q-6 0 -8 4l-31 32q-4 5 -10 0l-43 -32q-6 -4 -10 -4h-63zM252 669q-6 0 -5 6q9 41 33 64t61 23q17 0 31 -8t24.5 -16t16.5 -8q5 0 9.5 3.5t5.5 12.5q1 4 4 5.5t4 1.5h56q6 0 5 -6q-8 -37 -35 -61.5t-61 -24.5q-22 0 -35 8t-21 15.5t-16 7.5
q-7 0 -10.5 -3.5t-5.5 -12.5q-1 -7 -7 -7h-54z" />
    <glyph glyph-name="uni1EAC" unicode="&#x1eac;" horiz-adv-x="549" 
d="M-24 0q-10 0 -10 8t9 32q15 44 42 106.5t61 132.5t71 140t72.5 130.5t65.5 101.5q8 10 15 16t15 6h99q8 -3 12.5 -7.5t7.5 -14.5q13 -41 23.5 -101.5t18 -130.5t11.5 -140t4.5 -132.5t-2.5 -106.5q-1 -24 -5 -32t-15 -8h-118q-9 0 -11.5 5t-1.5 27t0.5 52t-0.5 49
q0 8 -1 9t-8 1h-154q-7 0 -8.5 -1t-4.5 -9q-7 -19 -20.5 -49t-21.5 -52q-9 -22 -13.5 -27t-13.5 -5h-119zM234 258h90q7 0 8 2.5t1 9.5q-1 40 -4 85.5t-6 79.5q2 9 -4 9h-4q-2 0 -8 -9q-10 -22 -24 -50t-28 -57.5t-27 -57.5q-3 -7 -2 -9.5t8 -2.5zM258 -96q-5 -25 -19 -38.5
t-47 -13.5t-42.5 13.5t-4.5 38.5q5 23 20.5 37.5t48.5 14.5q35 0 42 -14.5t2 -37.5zM246 713q-4 0 -4.5 3t2.5 6l103 90q7 7 12 7h64q7 0 11 -6l66 -91q2 -3 0.5 -6t-6.5 -3h-59q-8 0 -12 2t-9 6l-31 28q-5 5 -12 0l-45 -30q-5 -3 -8.5 -4.5t-9.5 -1.5h-62z" />
    <glyph glyph-name="uni1EAD" unicode="&#x1ead;" horiz-adv-x="479" 
d="M189 -6q-100 0 -144 57t-16 178q17 76 46 124t65.5 75t75 37.5t75.5 10.5q21 0 37 -7t21 -14l2 6q3 8 7 9.5t12 1.5h112q16 0 15 -14q-4 -25 -13 -68t-21 -93.5t-24.5 -100t-24.5 -88.5t-20 -56q-6 -13 -13.5 -19.5t-33.5 -14.5q-19 -7 -63 -15.5t-95 -8.5zM216 106
q9 0 17 1t15 2.5t11 2.5q5 1 7.5 4t4.5 10q5 21 10.5 42t10.5 41.5l10 41t9.5 40t9.5 38.5q2 7 0 11t-7 5q-7 2 -18.5 5.5t-21.5 3.5t-23 -4.5t-26 -17t-25 -37.5t-21 -67q-16 -70 -3.5 -96t40.5 -26zM224 -96q-5 -25 -19 -38.5t-47 -13.5t-42.5 13.5t-4.5 38.5
q5 23 20.5 37.5t48.5 14.5q35 0 42 -14.5t2 -37.5zM214 524q-4 0 -4.5 3t2.5 6l102 103q4 4 9 4h58q6 0 7 -4l60 -103q2 -3 0.5 -6t-6.5 -3h-63q-6 0 -8 4l-31 32q-4 5 -10 0l-43 -32q-6 -4 -10 -4h-63z" />
    <glyph glyph-name="uni1EAE" unicode="&#x1eae;" horiz-adv-x="549" 
d="M-24 0q-10 0 -10 8t9 32q15 44 42 106.5t61 132.5t71 140t72.5 130.5t65.5 101.5q8 10 15 16t15 6h99q8 -3 12.5 -7.5t7.5 -14.5q13 -41 23.5 -101.5t18 -130.5t11.5 -140t4.5 -132.5t-2.5 -106.5q-1 -24 -5 -32t-15 -8h-118q-9 0 -11.5 5t-1.5 27t0.5 52t-0.5 49
q0 8 -1 9t-8 1h-154q-7 0 -8.5 -1t-4.5 -9q-7 -19 -20.5 -49t-21.5 -52q-9 -22 -13.5 -27t-13.5 -5h-119zM234 258h90q7 0 8 2.5t1 9.5q-1 40 -4 85.5t-6 79.5q2 9 -4 9h-4q-2 0 -8 -9q-10 -22 -24 -50t-28 -57.5t-27 -57.5q-3 -7 -2 -9.5t8 -2.5zM368 706q-53 0 -76.5 24
t-15.5 64q3 16 6.5 19t13.5 3h46q10 0 12.5 -1.5t0.5 -11.5q-3 -13 5 -21.5t23 -8.5q14 0 25.5 8.5t14.5 21.5q2 10 6.5 11.5t8.5 1.5h51q8 0 10 -2.5t-2 -19.5q-8 -40 -41.5 -64t-87.5 -24zM396 857h-67q-8 0 -8.5 5.5t6.5 12.5l64 72q7 8 11 11t16 3h105q5 0 8.5 -6
t-1.5 -9l-105 -75q-10 -7 -15.5 -10.5t-13.5 -3.5z" />
    <glyph glyph-name="uni1EAF" unicode="&#x1eaf;" horiz-adv-x="479" 
d="M189 -6q-100 0 -144 57t-16 178q17 76 46 124t65.5 75t75 37.5t75.5 10.5q21 0 37 -7t21 -14l2 6q3 8 7 9.5t12 1.5h112q16 0 15 -14q-4 -25 -13 -68t-21 -93.5t-24.5 -100t-24.5 -88.5t-20 -56q-6 -13 -13.5 -19.5t-33.5 -14.5q-19 -7 -63 -15.5t-95 -8.5zM216 106
q9 0 17 1t15 2.5t11 2.5q5 1 7.5 4t4.5 10q5 21 10.5 42t10.5 41.5l10 41t9.5 40t9.5 38.5q2 7 0 11t-7 5q-7 2 -18.5 5.5t-21.5 3.5t-23 -4.5t-26 -17t-25 -37.5t-21 -67q-16 -70 -3.5 -96t40.5 -26zM326 518q-59 0 -85.5 25t-17.5 67q4 18 7 22t16 4h53q12 0 14 -2t0 -13
q-2 -12 6 -20t23 -8t27.5 8t14.5 20q2 10 6.5 12.5t11.5 2.5h58q11 0 12 -4.5t-3 -21.5q-9 -42 -46 -67t-97 -25zM307 658q-10 0 -10.5 3.5t7.5 14.5l69 95q5 8 23 8h89q7 0 9.5 -3.5t-5.5 -11.5l-93 -99q-5 -6 -9.5 -6.5t-13.5 -0.5h-66z" />
    <glyph glyph-name="uni1EB0" unicode="&#x1eb0;" horiz-adv-x="549" 
d="M-24 0q-10 0 -10 8t9 32q15 44 42 106.5t61 132.5t71 140t72.5 130.5t65.5 101.5q8 10 15 16t15 6h99q8 -3 12.5 -7.5t7.5 -14.5q13 -41 23.5 -101.5t18 -130.5t11.5 -140t4.5 -132.5t-2.5 -106.5q-1 -24 -5 -32t-15 -8h-118q-9 0 -11.5 5t-1.5 27t0.5 52t-0.5 49
q0 8 -1 9t-8 1h-154q-7 0 -8.5 -1t-4.5 -9q-7 -19 -20.5 -49t-21.5 -52q-9 -22 -13.5 -27t-13.5 -5h-119zM234 258h90q7 0 8 2.5t1 9.5q-1 40 -4 85.5t-6 79.5q2 9 -4 9h-4q-2 0 -8 -9q-10 -22 -24 -50t-28 -57.5t-27 -57.5q-3 -7 -2 -9.5t8 -2.5zM368 706q-53 0 -76.5 24
t-15.5 64q3 16 6.5 19t13.5 3h46q10 0 12.5 -1.5t0.5 -11.5q-3 -13 5 -21.5t23 -8.5q14 0 25.5 8.5t14.5 21.5q2 10 6.5 11.5t8.5 1.5h51q8 0 10 -2.5t-2 -19.5q-8 -40 -41.5 -64t-87.5 -24zM393 857q-8 0 -13 3.5t-13 10.5l-89 75q-4 3 0.5 9t9.5 6h105q12 0 15.5 -3
t8.5 -11l49 -72q5 -7 3.5 -12.5t-9.5 -5.5h-67z" />
    <glyph glyph-name="uni1EB1" unicode="&#x1eb1;" horiz-adv-x="479" 
d="M189 -6q-100 0 -144 57t-16 178q17 76 46 124t65.5 75t75 37.5t75.5 10.5q21 0 37 -7t21 -14l2 6q3 8 7 9.5t12 1.5h112q16 0 15 -14q-4 -25 -13 -68t-21 -93.5t-24.5 -100t-24.5 -88.5t-20 -56q-6 -13 -13.5 -19.5t-33.5 -14.5q-19 -7 -63 -15.5t-95 -8.5zM216 106
q9 0 17 1t15 2.5t11 2.5q5 1 7.5 4t4.5 10q5 21 10.5 42t10.5 41.5l10 41t9.5 40t9.5 38.5q2 7 0 11t-7 5q-7 2 -18.5 5.5t-21.5 3.5t-23 -4.5t-26 -17t-25 -37.5t-21 -67q-16 -70 -3.5 -96t40.5 -26zM326 518q-59 0 -85.5 25t-17.5 67q4 18 7 22t16 4h53q12 0 14 -2t0 -13
q-2 -12 6 -20t23 -8t27.5 8t14.5 20q2 10 6.5 12.5t11.5 2.5h58q11 0 12 -4.5t-3 -21.5q-9 -42 -46 -67t-97 -25zM335 659q-15 0 -29 14l-94 92q-4 4 -1 9.5t8 5.5h105q12 0 17 -3t10 -11l53 -89q11 -18 -2 -18h-67z" />
    <glyph glyph-name="uni1EB2" unicode="&#x1eb2;" horiz-adv-x="549" 
d="M-24 0q-10 0 -10 8t9 32q15 44 42 106.5t61 132.5t71 140t72.5 130.5t65.5 101.5q8 10 15 16t15 6h99q8 -3 12.5 -7.5t7.5 -14.5q13 -41 23.5 -101.5t18 -130.5t11.5 -140t4.5 -132.5t-2.5 -106.5q-1 -24 -5 -32t-15 -8h-118q-9 0 -11.5 5t-1.5 27t0.5 52t-0.5 49
q0 8 -1 9t-8 1h-154q-7 0 -8.5 -1t-4.5 -9q-7 -19 -20.5 -49t-21.5 -52q-9 -22 -13.5 -27t-13.5 -5h-119zM234 258h90q7 0 8 2.5t1 9.5q-1 40 -4 85.5t-6 79.5q2 9 -4 9h-4q-2 0 -8 -9q-10 -22 -24 -50t-28 -57.5t-27 -57.5q-3 -7 -2 -9.5t8 -2.5zM368 706q-53 0 -76.5 24
t-15.5 64q3 16 6.5 19t13.5 3h46q10 0 12.5 -1.5t0.5 -11.5q-3 -13 5 -21.5t23 -8.5q14 0 25.5 8.5t14.5 21.5q2 10 6.5 11.5t8.5 1.5h51q8 0 10 -2.5t-2 -19.5q-8 -40 -41.5 -64t-87.5 -24zM369 849q-3 0 -5.5 3t-1.5 6q2 13 8.5 21.5t11.5 12.5q11 9 21 15.5t12 16.5
q2 11 -11 11q-7 0 -13.5 -2t-17.5 -9q-10 -6 -13 2l-20 34q-2 4 -0.5 7t5.5 5q14 9 39.5 19t53.5 10q35 0 51 -20t9 -53q-6 -28 -21.5 -39.5t-25.5 -16.5q-6 -3 -9 -6t-4 -8q-2 -9 -12 -9h-57z" />
    <glyph glyph-name="uni1EB3" unicode="&#x1eb3;" horiz-adv-x="479" 
d="M189 -6q-100 0 -144 57t-16 178q17 76 46 124t65.5 75t75 37.5t75.5 10.5q21 0 37 -7t21 -14l2 6q3 8 7 9.5t12 1.5h112q16 0 15 -14q-4 -25 -13 -68t-21 -93.5t-24.5 -100t-24.5 -88.5t-20 -56q-6 -13 -13.5 -19.5t-33.5 -14.5q-19 -7 -63 -15.5t-95 -8.5zM216 106
q9 0 17 1t15 2.5t11 2.5q5 1 7.5 4t4.5 10q5 21 10.5 42t10.5 41.5l10 41t9.5 40t9.5 38.5q2 7 0 11t-7 5q-7 2 -18.5 5.5t-21.5 3.5t-23 -4.5t-26 -17t-25 -37.5t-21 -67q-16 -70 -3.5 -96t40.5 -26zM326 518q-59 0 -85.5 25t-17.5 67q4 18 7 22t16 4h53q12 0 14 -2t0 -13
q-2 -12 6 -20t23 -8t27.5 8t14.5 20q2 10 6.5 12.5t11.5 2.5h58q11 0 12 -4.5t-3 -21.5q-9 -42 -46 -67t-97 -25zM326 652q-3 0 -5.5 3t-1.5 6q2 13 8.5 21.5t11.5 12.5q11 9 21 15.5t12 16.5q2 11 -11 11q-7 0 -13.5 -2t-17.5 -9q-10 -6 -13 2l-20 34q-3 8 5 12
q14 9 39.5 19t53.5 10q35 0 51 -20t9 -53q-6 -28 -21.5 -39.5t-25.5 -16.5q-6 -3 -9 -6t-4 -8q-2 -9 -12 -9h-57z" />
    <glyph glyph-name="uni1EB4" unicode="&#x1eb4;" horiz-adv-x="549" 
d="M-24 0q-10 0 -10 8t9 32q15 44 42 106.5t61 132.5t71 140t72.5 130.5t65.5 101.5q8 10 15 16t15 6h99q8 -3 12.5 -7.5t7.5 -14.5q13 -41 23.5 -101.5t18 -130.5t11.5 -140t4.5 -132.5t-2.5 -106.5q-1 -24 -5 -32t-15 -8h-118q-9 0 -11.5 5t-1.5 27t0.5 52t-0.5 49
q0 8 -1 9t-8 1h-154q-7 0 -8.5 -1t-4.5 -9q-7 -19 -20.5 -49t-21.5 -52q-9 -22 -13.5 -27t-13.5 -5h-119zM234 258h90q7 0 8 2.5t1 9.5q-1 40 -4 85.5t-6 79.5q2 9 -4 9h-4q-2 0 -8 -9q-10 -22 -24 -50t-28 -57.5t-27 -57.5q-3 -7 -2 -9.5t8 -2.5zM368 706q-53 0 -76.5 24
t-15.5 64q3 16 6.5 19t13.5 3h46q10 0 12.5 -1.5t0.5 -11.5q-3 -13 5 -21.5t23 -8.5q14 0 25.5 8.5t14.5 21.5q2 10 6.5 11.5t8.5 1.5h51q8 0 10 -2.5t-2 -19.5q-8 -40 -41.5 -64t-87.5 -24zM289 858q-6 0 -5 6q10 45 34.5 70.5t61.5 25.5q17 0 30.5 -9.5t23.5 -19t15 -9.5
t9.5 5t6.5 15q2 8 8 8h57q5 0 4 -7q-8 -40 -35.5 -67t-61.5 -27q-22 0 -34.5 9t-20 18t-15.5 9q-6 0 -9.5 -4.5t-5.5 -15.5q-1 -7 -8 -7h-55z" />
    <glyph glyph-name="uni1EB5" unicode="&#x1eb5;" horiz-adv-x="479" 
d="M189 -6q-100 0 -144 57t-16 178q17 76 46 124t65.5 75t75 37.5t75.5 10.5q21 0 37 -7t21 -14l2 6q3 8 7 9.5t12 1.5h112q16 0 15 -14q-4 -25 -13 -68t-21 -93.5t-24.5 -100t-24.5 -88.5t-20 -56q-6 -13 -13.5 -19.5t-33.5 -14.5q-19 -7 -63 -15.5t-95 -8.5zM216 106
q9 0 17 1t15 2.5t11 2.5q5 1 7.5 4t4.5 10q5 21 10.5 42t10.5 41.5l10 41t9.5 40t9.5 38.5q2 7 0 11t-7 5q-7 2 -18.5 5.5t-21.5 3.5t-23 -4.5t-26 -17t-25 -37.5t-21 -67q-16 -70 -3.5 -96t40.5 -26zM326 518q-59 0 -85.5 25t-17.5 67q4 18 7 22t16 4h53q12 0 14 -2t0 -13
q-2 -12 6 -20t23 -8t27.5 8t14.5 20q2 10 6.5 12.5t11.5 2.5h58q11 0 12 -4.5t-3 -21.5q-9 -42 -46 -67t-97 -25zM245 660q-6 0 -5 6q9 41 33 64t61 23q17 0 31 -8t24.5 -16t16.5 -8q5 0 9.5 3.5t5.5 12.5q1 4 4 5.5t4 1.5h56q6 0 5 -6q-8 -37 -35 -61.5t-61 -24.5
q-22 0 -35 8t-21 15.5t-16 7.5q-7 0 -10.5 -3.5t-5.5 -12.5q-1 -7 -7 -7h-54z" />
    <glyph glyph-name="uni1EB6" unicode="&#x1eb6;" horiz-adv-x="549" 
d="M-24 0q-10 0 -10 8t9 32q15 44 42 106.5t61 132.5t71 140t72.5 130.5t65.5 101.5q8 10 15 16t15 6h99q8 -3 12.5 -7.5t7.5 -14.5q13 -41 23.5 -101.5t18 -130.5t11.5 -140t4.5 -132.5t-2.5 -106.5q-1 -24 -5 -32t-15 -8h-118q-9 0 -11.5 5t-1.5 27t0.5 52t-0.5 49
q0 8 -1 9t-8 1h-154q-7 0 -8.5 -1t-4.5 -9q-7 -19 -20.5 -49t-21.5 -52q-9 -22 -13.5 -27t-13.5 -5h-119zM234 258h90q7 0 8 2.5t1 9.5q-1 40 -4 85.5t-6 79.5q2 9 -4 9h-4q-2 0 -8 -9q-10 -22 -24 -50t-28 -57.5t-27 -57.5q-3 -7 -2 -9.5t8 -2.5zM258 -96q-5 -25 -19 -38.5
t-47 -13.5t-42.5 13.5t-4.5 38.5q5 23 20.5 37.5t48.5 14.5q35 0 42 -14.5t2 -37.5zM368 706q-53 0 -76.5 24t-15.5 64q3 16 6.5 19t13.5 3h46q10 0 12.5 -1.5t0.5 -11.5q-3 -13 5 -21.5t23 -8.5q14 0 25.5 8.5t14.5 21.5q2 10 6.5 11.5t8.5 1.5h51q8 0 10 -2.5t-2 -19.5
q-8 -40 -41.5 -64t-87.5 -24z" />
    <glyph glyph-name="uni1EB7" unicode="&#x1eb7;" horiz-adv-x="479" 
d="M189 -6q-100 0 -144 57t-16 178q17 76 46 124t65.5 75t75 37.5t75.5 10.5q21 0 37 -7t21 -14l2 6q3 8 7 9.5t12 1.5h112q16 0 15 -14q-4 -25 -13 -68t-21 -93.5t-24.5 -100t-24.5 -88.5t-20 -56q-6 -13 -13.5 -19.5t-33.5 -14.5q-19 -7 -63 -15.5t-95 -8.5zM216 106
q9 0 17 1t15 2.5t11 2.5q5 1 7.5 4t4.5 10q5 21 10.5 42t10.5 41.5l10 41t9.5 40t9.5 38.5q2 7 0 11t-7 5q-7 2 -18.5 5.5t-21.5 3.5t-23 -4.5t-26 -17t-25 -37.5t-21 -67q-16 -70 -3.5 -96t40.5 -26zM224 -96q-5 -25 -19 -38.5t-47 -13.5t-42.5 13.5t-4.5 38.5
q5 23 20.5 37.5t48.5 14.5q35 0 42 -14.5t2 -37.5zM326 518q-59 0 -85.5 25t-17.5 67q4 18 7 22t16 4h53q12 0 14 -2t0 -13q-2 -12 6 -20t23 -8t27.5 8t14.5 20q2 10 6.5 12.5t11.5 2.5h58q11 0 12 -4.5t-3 -21.5q-9 -42 -46 -67t-97 -25z" />
    <glyph glyph-name="uni1EB8" unicode="&#x1eb8;" horiz-adv-x="458" 
d="M25 0q-6 0 -9.5 4t-2.5 10l137 644q3 15 18 15h340q14 0 16 -2t-1 -15l-17 -80q-3 -14 -7 -16.5t-16 -2.5h-194q-7 0 -7.5 -1t-2.5 -7l-31 -144q-1 -7 -0.5 -8t6.5 -1h150q15 0 16.5 -3t-1.5 -19l-15 -71q-3 -15 -6.5 -18t-17.5 -3h-150q-5 0 -7 -1t-3 -6l-31 -150
q-1 -6 -0.5 -7.5t6.5 -1.5h192q17 0 18.5 -3.5t-1.5 -18.5l-15 -72q-4 -16 -8.5 -19t-19.5 -3h-336zM246 -96q-5 -25 -19 -38.5t-47 -13.5t-42.5 13.5t-4.5 38.5q5 23 20.5 37.5t48.5 14.5q35 0 42 -14.5t2 -37.5z" />
    </font>
</defs>
</svg>
