<?xml version="1.0" standalone="no"?>
<!DOCTYPE svg PUBLIC "-//W3C//DTD SVG 1.1//EN" "http://www.w3.org/Graphics/SVG/1.1/DTD/svg11.dtd" >
<svg xmlns="http://www.w3.org/2000/svg" xmlns:xlink="http://www.w3.org/1999/xlink" version="1.1">
<metadata>
Created by FontForge 20201107 at Fri Jun 18 05:32:25 2021
 By 
Copyright 2016-2020 The Glory Project Authors (https://github.com/googlefonts/glory)
</metadata>
<defs>
<font id="Glory-Bold" horiz-adv-x="0" >
  <font-face 
    font-family="Glory"
    font-weight="700"
    font-stretch="normal"
    units-per-em="1000"
    panose-1="0 0 0 0 0 0 0 0 0 0"
    ascent="800"
    descent="-200"
    x-height="472"
    cap-height="673"
    bbox="-83.7778 -250 1125 994"
    underline-thickness="50"
    underline-position="-125"
    unicode-range="U+000D-FB02"
  />
<missing-glyph horiz-adv-x="600" 
d="M98 0q-4 0 -4 4q-4 33 -7 85.5t-5 115.5t-2 129q0 67 2 131.5t5.5 118t7.5 85.5q0 4 4 4h402q4 0 4 -4q4 -32 7.5 -85.5t5.5 -118t2 -131.5q0 -66 -2 -129t-5 -115.5t-7 -85.5q0 -4 -4 -4h-404zM124 30h352q5 42 7 96.5t3 110t1 100.5q0 79 -4 158t-9 148h-348
q-6 -85 -9.5 -162.5t-3.5 -145.5q0 -47 0.5 -101t3 -107t7.5 -97zM170 80q-6 0 -5.5 2.5t1.5 3.5l231 502q3 6 9 6h19q8 0 2 -7l-228 -499q-4 -8 -11 -8h-18zM424 80h-18q-8 0 -11 8l-228 499q-6 7 2 7h19q6 0 9 -6l231 -502q1 -1 1.5 -3.5t-5.5 -2.5z" />
    <glyph glyph-name="fi" unicode="fi" horiz-adv-x="574" 
d="M90 16q-4 31 -6.5 75.5t-5 95t-3 98t-0.5 83.5q0 10 -9 10h-44q-7 0 -10 2t-3 12v65q0 12 3 13.5t13 1.5h43q5 0 6 2t1 9q0 57 6 92t27 65q25 35 70 53.5t112 18.5q30 0 56.5 -9.5t36.5 -14.5q15 -8 18 -12.5t1 -12.5l-18 -56q-3 -11 -6.5 -12.5t-10.5 2.5
q-15 9 -36 16.5t-45 6.5q-32 0 -55.5 -19.5t-25.5 -71.5q-2 -11 -2.5 -23t-0.5 -25q0 -6 1 -7.5t7 -1.5h123q10 0 11.5 -2.5t1.5 -14.5v-63q0 -9 -2.5 -11.5t-11.5 -2.5h-121q-7 0 -8.5 -2t-1.5 -7q0 -56 1.5 -113t4 -106.5t4.5 -85t3 -49.5q0 -10 -1 -12.5t-8 -2.5h-103
q-5 0 -7.5 3.5t-4.5 12.5zM539 601q0 -30 -13 -45.5t-54 -15.5q-39 0 -53.5 15.5t-14.5 45.5q0 26 14.5 42.5t53.5 16.5q43 0 55 -16.5t12 -42.5zM536 12q0 -12 -14 -12h-102q-12 0 -12 12v448q0 12 12 12h102q14 0 14 -12v-448z" />
    <glyph glyph-name="fl" unicode="fl" horiz-adv-x="584" 
d="M90 16q-4 31 -6.5 75.5t-5 95t-3 98t-0.5 83.5q0 10 -9 10h-44q-7 0 -10 2t-3 12v65q0 12 3 13.5t13 1.5h43q5 0 6 2t1 9q0 57 6 92t27 65q25 35 70 53.5t112 18.5q30 0 56.5 -9.5t36.5 -14.5q15 -8 18 -12.5t1 -12.5l-18 -56q-3 -11 -6.5 -12.5t-10.5 2.5
q-15 9 -36 16.5t-45 6.5q-32 0 -55.5 -19.5t-25.5 -71.5q-2 -11 -2.5 -23t-0.5 -25q0 -6 1 -7.5t7 -1.5h123q10 0 11.5 -2.5t1.5 -14.5v-63q0 -9 -2.5 -11.5t-11.5 -2.5h-121q-7 0 -8.5 -2t-1.5 -7q0 -56 1.5 -113t4 -106.5t4.5 -85t3 -49.5q0 -10 -1 -12.5t-8 -2.5h-103
q-5 0 -7.5 3.5t-4.5 12.5zM409 12v684q0 12 13 12h101q14 0 14 -12v-684q0 -12 -14 -12h-101q-13 0 -13 12z" />
    <glyph glyph-name=".notdef" horiz-adv-x="600" 
d="M98 0q-4 0 -4 4q-4 33 -7 85.5t-5 115.5t-2 129q0 67 2 131.5t5.5 118t7.5 85.5q0 4 4 4h402q4 0 4 -4q4 -32 7.5 -85.5t5.5 -118t2 -131.5q0 -66 -2 -129t-5 -115.5t-7 -85.5q0 -4 -4 -4h-404zM124 30h352q5 42 7 96.5t3 110t1 100.5q0 79 -4 158t-9 148h-348
q-6 -85 -9.5 -162.5t-3.5 -145.5q0 -47 0.5 -101t3 -107t7.5 -97zM170 80q-6 0 -5.5 2.5t1.5 3.5l231 502q3 6 9 6h19q8 0 2 -7l-228 -499q-4 -8 -11 -8h-18zM424 80h-18q-8 0 -11 8l-228 499q-6 7 2 7h19q6 0 9 -6l231 -502q1 -1 1.5 -3.5t-5.5 -2.5z" />
    <glyph glyph-name=".null" 
 />
    <glyph glyph-name="nonmarkingreturn" horiz-adv-x="333" 
 />
    <glyph glyph-name="CR" unicode="&#xd;" horiz-adv-x="600" 
 />
    <glyph glyph-name="space" unicode=" " horiz-adv-x="229" 
 />
    <glyph glyph-name="exclam" unicode="!" horiz-adv-x="247" 
d="M82 214q-8 0 -10.5 2t-2.5 13l-16 431q0 7 2 10t9 3h119q11 0 11 -12l-17 -432q0 -10 -2 -12.5t-13 -2.5h-80zM184 37q0 -26 -12.5 -40t-52.5 -14q-35 0 -50.5 14t-15.5 40t15.5 39t50.5 13q40 0 52.5 -13t12.5 -39z" />
    <glyph glyph-name="quotedbl" unicode="&#x22;" horiz-adv-x="365" 
d="M65 446q-5 0 -8.5 4t-3.5 15l-6 219q-1 14 2.5 18t14.5 4h68q14 0 16.5 -4t2.5 -12l-8 -228q0 -10 -3 -13t-11 -3h-64zM232 446q-6 0 -9 4t-3 15l-6 219q-1 14 2.5 18t14.5 4h69q13 0 15.5 -4t2.5 -12l-7 -228q0 -10 -3.5 -13t-11.5 -3h-64z" />
    <glyph glyph-name="numbersign" unicode="#" horiz-adv-x="778" 
d="M214 194h-141q-11 0 -15 2t-2 15l7 53q1 10 5 13t14 3h139l8 140h-134q-10 0 -14 1t-3 14l7 55q2 9 6 12t13 3h130l14 185q1 9 4 12.5t13 3.5h62q10 0 11.5 -4t-0.5 -15l-13 -182l131 -1l13 186q1 9 4 12.5t14 3.5h61q10 0 11.5 -4t-0.5 -15l-13 -183h152q17 1 21.5 -3
t2.5 -11l-7 -57q-1 -9 -6 -11t-11 -2h-157l-9 -141h143q17 1 22 -3t3 -12l-8 -57q0 -8 -5 -10.5t-11 -2.5h-151l-12 -181q0 -4 -2.5 -8.5t-11.5 -4.5h-60q-8 0 -11.5 5t-3.5 20l11 169h-130l-12 -181q-1 -4 -3.5 -8.5t-12.5 -4.5h-59q-9 0 -12.5 5t-2.5 20zM311 280l131 -1
l9 141h-131z" />
    <glyph glyph-name="dollar" unicode="$" horiz-adv-x="489" 
d="M152 37q-15 4 -43.5 14t-48.5 20q-11 8 -15 11t-4 13v51.5v51.5q0 11 6.5 10.5t15.5 -6t14 -9.5q44 -28 75.5 -38.5t57.5 -10.5q34 0 59.5 16.5t25.5 49.5q0 17 -10.5 31t-32 27.5t-56.5 27.5q-37 17 -72 37.5t-58 55t-23 88.5q0 52 23 88.5t60.5 56t83.5 20.5h16.5h16.5
l17 90q2 7 4 10.5t14 3.5h61q12 0 13 -4t0 -13l-20 -102q26 -7 51.5 -21.5t52.5 -31.5q11 -6 12.5 -11t-5.5 -14q-10 -16 -20.5 -34.5t-20.5 -34.5q-5 -9 -11 -6t-18 11q-15 10 -38.5 20t-49 16.5t-48.5 6.5q-29 0 -49.5 -12.5t-20.5 -40.5q0 -17 12 -29.5t34.5 -24
t52.5 -26.5q37 -17 72 -39.5t58 -56t23 -87.5q0 -51 -25.5 -91.5t-66 -64.5t-87.5 -27l-22 -151q-2 -9 -5.5 -10.5t-12.5 -1.5h-64q-5 0 -7.5 4t0.5 20z" />
    <glyph glyph-name="percent" unicode="%" horiz-adv-x="821" 
d="M155 0q-7 0 -8.5 4.5t3.5 10.5l397 681q4 7 7 8.5t10 1.5h86q8 0 9.5 -4t-11.5 -24l-383 -665q-3 -6 -7.5 -9.5t-13.5 -3.5h-89zM205 400q-87 0 -122.5 43.5t-35.5 110.5t35.5 110.5t122.5 43.5q86 0 122.5 -43.5t36.5 -110.5t-36.5 -110.5t-122.5 -43.5zM205 476
q39 0 56.5 20.5t17.5 57.5q0 38 -17.5 57.5t-56.5 19.5t-57 -19t-18 -58q0 -37 18 -57.5t57 -20.5zM615 0q-87 0 -122.5 43.5t-35.5 110.5q0 68 35.5 111.5t122.5 43.5q86 0 122.5 -43.5t36.5 -111.5q0 -67 -36.5 -110.5t-122.5 -43.5zM615 76q40 0 57 20.5t17 57.5
q0 38 -17 57.5t-57 19.5q-38 0 -57 -19t-19 -58q0 -37 19 -57.5t57 -20.5z" />
    <glyph glyph-name="ampersand" unicode="&#x26;" horiz-adv-x="711" 
d="M278 -10q-69 0 -117.5 18.5t-79 48.5t-44.5 65t-14 68q0 44 16.5 80t46 60t66.5 32q-25 7 -42.5 24t-29 39t-17 43t-5.5 35q0 30 13 61t40.5 56.5t70.5 40.5t102 15q62 0 114.5 -25.5t93.5 -85.5q10 -14 6.5 -22t-8.5 -12l-60 -46q-14 -8 -22 4q-20 29 -51 53t-72 24
q-30 0 -53 -9.5t-35.5 -27t-12.5 -42.5q0 -18 10 -32.5t26.5 -23t36.5 -12.5q5 -1 12.5 -1.5t15 -0.5h11.5q18 0 24 -1t6 -9v-88q0 -10 -4 -11t-10 -1h-48q-25 0 -47 -13t-34.5 -35.5t-12.5 -48.5t12.5 -50t39.5 -39.5t73 -15.5q39 0 72 19t60 51t42 68l-72 38q-4 1 -6 5
t4 12l46 74q6 10 10.5 11t10.5 -2l207 -106q7 -4 7 -9t-4 -10l-42 -75q-6 -8 -10 -10.5t-13 2.5l-42 21q-18 -40 -44.5 -77t-61 -65.5t-80 -45t-101.5 -16.5z" />
    <glyph glyph-name="quotesingle" unicode="'" horiz-adv-x="251" 
d="M92 446q-5 0 -8.5 4t-3.5 15l-7 219q0 14 3.5 18t14.5 4h68q14 0 16.5 -4t2.5 -12l-8 -228q0 -10 -3 -13t-11 -3h-64z" />
    <glyph glyph-name="parenleft" unicode="(" horiz-adv-x="373" 
d="M326 -68q0 -8 -4 -10t-29 -2q-78 0 -136.5 51.5t-90 141.5t-31.5 203q0 51 10 104.5t30.5 103.5t51 90t72 63t94.5 23q25 0 29 -3.5t4 -10.5v-59q0 -9 -5.5 -8.5t-22.5 0.5q-37 0 -63 -21t-43 -55.5t-26 -75t-12.5 -80t-3.5 -69.5q0 -37 4 -80t14 -84.5t27.5 -76
t43.5 -55t62 -20.5q19 0 22 -3t3 -10v-57z" />
    <glyph glyph-name="parenright" unicode=")" horiz-adv-x="373" 
d="M47 -68v57q0 7 3.5 10t21.5 3q36 0 62 20.5t43.5 55t27.5 76t14 84.5t4 80q0 30 -3.5 69.5t-13 80t-26 75t-42.5 55.5t-63 21q-16 0 -22 -0.5t-6 8.5v59q0 7 4 10.5t29 3.5q53 0 94 -23t72 -63t51.5 -90t30.5 -103.5t10 -104.5q0 -113 -31.5 -203t-89.5 -141.5
t-137 -51.5q-25 0 -29 2t-4 10z" />
    <glyph glyph-name="asterisk" unicode="*" horiz-adv-x="531" 
d="M265 395l-102 -126q-7 -9 -11.5 -10.5t-11.5 3.5l-49 41q-8 7 -8 12t9 13l100 119l-148 45q-20 6 -16 19l20 61q4 10 8 12t15 -3l149 -50l-3 155q0 12 2.5 16t11.5 4h64q10 0 12.5 -4t2.5 -16l-2 -155l148 49q12 5 16 3t7 -11l20 -62q5 -13 -15 -19l-149 -44l101 -120
q9 -8 8.5 -13t-7.5 -12l-49 -41q-6 -5 -11.5 -3.5t-12.5 10.5z" />
    <glyph glyph-name="plus" unicode="+" horiz-adv-x="498" 
d="M211 99q-9 0 -11.5 2t-2.5 9v156h-136q-8 0 -9.5 2.5t-1.5 8.5v66q0 7 2.5 9t9.5 2h135v156q0 6 2 8.5t11 2.5h72q5 0 6.5 -2t1.5 -11v-154l147 -1q6 0 8.5 -2t2.5 -10v-68q0 -6 -2 -7.5t-10 -1.5l-146 2v-157q0 -7 -2.5 -8.5t-8.5 -1.5h-68z" />
    <glyph glyph-name="comma" unicode="," horiz-adv-x="215" 
d="M170 35q0 -22 -9.5 -49.5t-21.5 -52.5t-22 -41q-4 -7 -12 -7h-23h-25q-5 0 -6 3t4 13q4 8 9.5 24t11.5 33t9 28q-20 3 -29 18t-9 31q0 23 14 38.5t48 15.5q26 0 43.5 -10.5t17.5 -43.5z" />
    <glyph glyph-name="hyphen" unicode="-" horiz-adv-x="403" 
d="M58 229q-9 0 -10 3t-1 9v67q0 8 1.5 10.5t10.5 2.5h286q7 0 9.5 -2t2.5 -10v-71q0 -6 -2 -7.5t-11 -1.5h-286z" />
    <glyph glyph-name="period" unicode="." horiz-adv-x="215" 
d="M173 36q0 -26 -12.5 -39.5t-53.5 -13.5q-34 0 -49.5 13.5t-15.5 39.5t15.5 39.5t49.5 13.5q41 0 53.5 -13.5t12.5 -39.5z" />
    <glyph glyph-name="slash" unicode="/" horiz-adv-x="584" 
d="M148 13q-4 -6 -8.5 -9.5t-13.5 -3.5h-89q-6 0 -7 4.5t3 10.5l426 681q5 7 8.5 8.5t9.5 1.5h85q9 0 10.5 -4t-11.5 -24z" />
    <glyph glyph-name="zero" unicode="0" horiz-adv-x="544" 
d="M509 336q0 -71 -12.5 -133.5t-40.5 -109.5t-73 -73.5t-111 -26.5q-67 0 -112.5 26.5t-73 73t-39.5 109t-12 134.5t12 134.5t39.5 109.5t73 73.5t112.5 26.5q66 0 111 -27t73 -74t40.5 -109.5t12.5 -133.5zM369 336q0 117 -24.5 178t-73.5 61q-50 0 -74.5 -60t-24.5 -179
q0 -118 24.5 -178.5t74.5 -60.5q49 0 73.5 61t24.5 178z" />
    <glyph glyph-name="one" unicode="1" horiz-adv-x="360" 
d="M176 0q-12 0 -12 12v510q0 8 -7 5l-85 -47q-14 -7 -20 4l-38 65q-7 13 7 21l172 96q7 4 11 5.5t11 1.5h68q12 0 12 -13v-648q0 -12 -12 -12h-107z" />
    <glyph glyph-name="two" unicode="2" horiz-adv-x="505" 
d="M49 0q-11 0 -13.5 2t-2.5 11v68q0 16 10 21q48 30 98.5 70t94.5 87t71 97t27 100q0 32 -12.5 56.5t-39 38.5t-68.5 14q-45 0 -78.5 -13t-55 -26t-31.5 -14q-11 -2 -11 8v88q0 7 3 10.5t12 9.5q18 10 45.5 21.5t61.5 20t70 8.5q58 0 111 -22.5t87.5 -71t34.5 -124.5
q0 -51 -18 -98t-50 -91t-74.5 -85t-91.5 -80q-2 -2 -1 -4.5t5 -2.5h223q9 0 9 -9v-77q0 -9 -2 -11t-13 -2h-401z" />
    <glyph glyph-name="three" unicode="3" horiz-adv-x="503" 
d="M232 -5q-40 0 -76.5 11t-67 30.5t-55.5 45.5q-6 7 -4.5 13.5t4.5 10.5l46 55q14 15 26 3q27 -27 58.5 -42.5t68.5 -15.5q35 0 58.5 14.5t35.5 37t12 46.5q0 22 -12.5 45t-40 39t-72.5 16h-16h-19q-7 0 -11.5 3.5t-4.5 13.5v68q0 17 16 17h24h31q30 1 50.5 14t32 33
t11.5 40t-10.5 37t-32 28t-55.5 11t-68 -16t-58 -39q-14 -14 -24 2l-42 71q-3 7 -0.5 14t4.5 8q36 29 71 44t67 20t59 5q69 0 115 -24.5t69.5 -64t23.5 -82.5q0 -54 -28.5 -94t-68.5 -54q-13 -3 -13 -4l14 -4q49 -12 81.5 -49t32.5 -97q0 -52 -27 -100.5t-78.5 -79
t-126.5 -30.5z" />
    <glyph glyph-name="four" unicode="4" horiz-adv-x="527" 
d="M308 0q-12 0 -12 12v148q0 10 -10 10h-254q-12 0 -12 12v61q0 8 5 16.5t8 11.5l272 390q6 7 10 9.5t10 2.5h81q13 0 13 -13v-387q0 -10 10 -10h59q9 0 9 -9v-75q0 -9 -9 -9h-59q-10 0 -10 -10v-148q0 -12 -12 -12h-99zM163 263h123q10 0 10 10v199q0 5 -2 5.5t-4 -3.5
l-133 -200q-4 -6 -1 -8.5t7 -2.5z" />
    <glyph glyph-name="five" unicode="5" horiz-adv-x="506" 
d="M215 -5q-21 0 -51.5 5.5t-61.5 17.5t-56 31q-6 5 -9 10t0 10l47 77q5 7 11 6t12 -5q31 -18 53.5 -25.5t53.5 -7.5q16 0 38 6t42.5 18.5t34 35t13.5 54.5q0 42 -18 69.5t-48.5 41t-67.5 13.5q-13 0 -33 -1t-40.5 -3.5t-37.5 -8.5q-13 -5 -18.5 -5t-5.5 13v312q0 7 2 10.5
t11 3.5h314q5 0 8.5 -1t3.5 -8v-83q0 -10 -12 -10h-209q-9 0 -9 -11v-107q0 -6 2 -8t9 -2q7 1 14.5 1h14.5q82 0 136.5 -26.5t82 -73t27.5 -110.5q0 -71 -35.5 -125t-93.5 -84t-124 -30z" />
    <glyph glyph-name="six" unicode="6" horiz-adv-x="561" 
d="M283 -11q-65 1 -122 32.5t-92.5 100t-35.5 179.5q0 66 21 132.5t63 122t106 89t150 33.5q8 0 26 -1.5t40 -6.5q9 -1 16.5 -7t7.5 -22v-33v-34q0 -11 -2.5 -13t-14.5 2q-6 2 -23 4.5t-40 3t-48 -4.5t-46 -20q-22 -7 -43.5 -23.5t-39.5 -38t-30 -46.5t-17 -48q-1 -6 0 -8
t7 5q20 23 62 37.5t87 14.5q60 0 102 -18.5t67.5 -49.5t37 -69t11.5 -77q0 -60 -30 -114.5t-86 -88t-134 -33.5zM283 101q39 0 66.5 17t42 44t16.5 55q1 28 -11.5 53t-38 40.5t-66.5 15.5q-27 0 -51.5 -11t-45 -28t-34.5 -37q-1 -29 8 -56t26 -48t39.5 -33t48.5 -12z" />
    <glyph glyph-name="seven" unicode="7" horiz-adv-x="493" 
d="M117 0q-14 0 -18 1t-3 12q6 49 22 103.5t35.5 108.5t37.5 101q20 50 41 94.5t40.5 82t33.5 65.5q-2 2 -5 2.5t-7 0.5h-256q-7 0 -9 1t-2 7v82q0 9 3 10.5t10 1.5h416q5 0 7 -1.5t2 -10.5v-50q0 -9 -7 -22q-15 -23 -38 -64.5t-51 -100t-58 -133.5q-16 -44 -33.5 -91.5
t-30 -95.5t-17.5 -93q0 -7 -7 -9t-13 -2h-93z" />
    <glyph glyph-name="eight" unicode="8" horiz-adv-x="531" 
d="M265 -6q-63 0 -116.5 27.5t-85.5 74t-32 104.5q0 51 26 94t67 62q5 2 8 4t5 4q-39 12 -57.5 48t-18.5 79q0 53 28 96t75 68.5t101 25.5q57 0 103.5 -25.5t74 -68.5t27.5 -96q0 -44 -16.5 -78t-49.5 -51l3 -3t5 -4q37 -20 62.5 -60t25.5 -95q0 -58 -32 -104.5t-85.5 -74
t-117.5 -27.5zM265 419q23 0 41.5 9t29.5 25.5t11 37.5q0 20 -11 36t-29.5 26t-41.5 10q-22 0 -41 -10t-30 -26t-11 -36q0 -21 11.5 -37.5t30.5 -25.5t40 -9zM265 107q32 0 57.5 13t40.5 34.5t15 48.5q0 29 -15.5 50.5t-40.5 34t-56 13.5q-30 0 -55.5 -12.5t-41 -34.5
t-15.5 -51q0 -27 15 -48.5t40.5 -34.5t55.5 -13z" />
    <glyph glyph-name="nine" unicode="9" horiz-adv-x="560" 
d="M244 229q-80 0 -129 32t-69.5 82.5t-18.5 106.5q2 57 32 109t86 85.5t134 33.5q51 0 95.5 -18t78.5 -55t53.5 -94t19.5 -135q1 -68 -20 -136t-63 -124.5t-107 -91t-154 -34.5q-7 0 -25 1.5t-39 7.5q-11 2 -18 7.5t-7 21.5v67q0 11 3 13.5t14 -2.5q16 -6 36 -7t31 -1
q37 0 69.5 11.5t59.5 32.5q15 12 30.5 30.5t28.5 40t23 41.5t14 36q-26 -30 -69.5 -45.5t-88.5 -15.5zM279 567q-39 1 -67 -17t-43 -45t-15 -55q0 -30 11.5 -54.5t36.5 -39t65 -14.5q41 0 75 22.5t53 55.5q2 52 -14 84t-43 47.5t-59 15.5z" />
    <glyph glyph-name="colon" unicode=":" horiz-adv-x="225" 
d="M178 36q0 -26 -13 -39.5t-53 -13.5q-35 0 -50 13.5t-15 39.5t15 39.5t50 13.5q40 0 53 -13.5t13 -39.5zM178 435q0 -26 -13 -39t-53 -13q-35 0 -50 13t-15 39t15 40t50 14q40 0 53 -14t13 -40z" />
    <glyph glyph-name="semicolon" unicode=";" horiz-adv-x="226" 
d="M180 436q0 -26 -13 -39.5t-53 -13.5q-35 0 -50.5 13.5t-15.5 39.5t15.5 39.5t50.5 13.5q40 0 53 -13.5t13 -39.5zM176 35q0 -22 -9 -50t-21.5 -52.5t-22.5 -40.5q-5 -7 -12 -7h-23h-25q-5 0 -6 3t3 13q4 8 10 24t11.5 33t9.5 28q-20 3 -29.5 18t-9.5 31q0 23 14.5 38.5
t48.5 15.5q26 0 43.5 -10.5t17.5 -43.5z" />
    <glyph glyph-name="less" unicode="&#x3c;" horiz-adv-x="475" 
d="M63 269q-6 1 -9.5 5t-3.5 16v55q0 7 4 10.5t13 6.5l330 150q18 8 23 5t5 -11v-68q0 -4 -4.5 -8.5t-14.5 -8.5l-233 -107l231 -104q12 -6 16.5 -10t4.5 -11v-64q0 -20 -23 -10z" />
    <glyph glyph-name="equal" unicode="=" horiz-adv-x="501" 
d="M62 352q-9 0 -10.5 3.5t-1.5 9.5v63q0 8 2.5 11t10.5 3h376q7 0 9.5 -2.5t2.5 -10.5v-67q0 -6 -2 -8t-11 -2h-376zM62 156q-9 0 -10.5 3t-1.5 10v63q0 8 2.5 10.5t10.5 2.5h376q7 0 9.5 -2t2.5 -10v-68q0 -6 -2 -7.5t-11 -1.5h-376z" />
    <glyph glyph-name="greater" unicode="&#x3e;" horiz-adv-x="455" 
d="M63 114q-12 -5 -17.5 -2.5t-5.5 12.5v64q0 7 5 11t17 10l230 104l-232 107q-20 9 -20 18v68q0 7 5.5 10.5t22.5 -5.5l331 -149q8 -4 12 -7.5t4 -10.5v-55q0 -11 -3.5 -15t-9.5 -6z" />
    <glyph glyph-name="question" unicode="?" horiz-adv-x="459" 
d="M118 162q-9 0 -10.5 5t-1.5 15q0 48 6 82t18.5 60t30.5 46t40 39q13 12 30.5 23t34 23.5t25.5 28t7 35.5q-2 28 -23.5 40.5t-51.5 12.5q-46 0 -83.5 -13.5t-55.5 -21.5q-8 -4 -11 -6t-7 9l-24 72q-4 10 4 15.5t15 8.5q35 18 77.5 27.5t77.5 9.5q92 0 147 -41.5t55 -116.5
q0 -49 -19 -78.5t-47.5 -49t-54.5 -38.5q-31 -22 -49.5 -47.5t-26 -55.5t-7.5 -68q0 -10 -2.5 -13t-6.5 -3h-87zM93 37q0 26 15 39t50 13q40 0 53 -13t13 -39t-13 -40t-53 -14q-35 0 -50 14t-15 40z" />
    <glyph glyph-name="at" unicode="@" horiz-adv-x="847" 
d="M35 327q0 69 27.5 133.5t79.5 115.5t126 81.5t167 30.5q104 0 176 -26t116.5 -69.5t64.5 -98.5t20 -112q0 -49 -13 -94t-38 -80t-61.5 -55t-83.5 -20q-30 0 -52.5 12t-36 30.5t-18.5 38.5q0 2 -1 3t-2 0t-4 -6q-13 -24 -32 -41t-43 -26t-51 -9q-56 0 -95 25.5t-56.5 67.5
t-12.5 92q7 68 38 121t81 84t112 31q58 0 98.5 -13t80.5 -38q10 -6 13.5 -14.5t-0.5 -19.5q-6 -19 -11.5 -37.5t-11.5 -37.5q-7 -21 -13.5 -46t-11 -50t-5 -45.5t5.5 -33t19 -12.5q29 0 50.5 27.5t34 70.5t12.5 90q0 39 -14 77.5t-45.5 69.5t-83.5 50t-127 19
q-67 0 -121.5 -23.5t-92.5 -64.5t-58.5 -91t-20.5 -104q0 -53 17.5 -100t53.5 -83t89 -57t123 -21q85 0 166.5 11t142.5 43q8 5 13 7t8 5q9 6 13.5 4t9.5 -8l28 -39q7 -10 2 -16t-15 -12q-4 -2 -8 -5t-10 -5q-59 -32 -141 -47.5t-207 -14.5q-95 0 -168 26.5t-123 73
t-75 107.5t-25 128zM505 422q3 11 7.5 20.5t3.5 14.5q-13 4 -28 6.5t-33 2.5q-39 0 -67.5 -27t-44 -66t-16.5 -76q-1 -20 2.5 -37.5t13.5 -28t27 -10.5q23 0 40 15.5t33 44.5q12 22 28 59.5t34 81.5z" />
    <glyph glyph-name="A" unicode="A" horiz-adv-x="550" 
d="M31 0q-8 0 -10 7t1 27q7 45 21 108.5t33 134.5t40.5 142t44.5 132.5t44 102.5q6 9 10.5 14t11.5 5h95q8 -3 13 -6.5t10 -12.5q21 -41 44 -102.5t45 -132.5t41 -142.5t33 -135t20 -107.5q4 -20 2 -27t-11 -7h-103q-8 0 -11 4.5t-7 23.5q-4 23 -10.5 54.5t-11.5 55.5
q-1 7 -3 8.5t-9 1.5h-178q-7 -1 -8 -2t-3 -9q-5 -23 -11.5 -54.5t-11.5 -55.5q-3 -18 -6 -22.5t-11 -4.5h-104zM214 249h122q7 0 8.5 2.5t-0.5 9.5q-13 51 -28 106.5t-31 100.5q-2 9 -7 9h-7q-4 0 -7 -9q-8 -26 -18.5 -61t-20.5 -73t-19 -74q-1 -6 0 -8.5t8 -2.5z" />
    <glyph glyph-name="B" unicode="B" horiz-adv-x="539" 
d="M497 192q0 -70 -28 -112t-75 -61t-104 -19h-212q-13 0 -13 12v648q0 13 13 13h169q49 0 92 -4.5t76.5 -21t52 -51t18.5 -94.5q0 -23 -7.5 -52.5t-23.5 -55.5t-41 -38q-6 -2 -5 -7t5 -7q34 -16 58.5 -58t24.5 -92zM356 194q0 44 -12.5 65.5t-36.5 28t-58 6.5h-45
q-7 0 -7 -5v-191q0 -3 1 -4.5t7 -1.5h59q14 0 30 3t30 12.5t23 30t9 56.5zM347 496q0 38 -14.5 56t-42.5 23.5t-67 5.5h-19q-7 0 -7 -8v-169q0 -7 8 -7h54q30 0 49.5 10t29 31.5t9.5 57.5z" />
    <glyph glyph-name="C" unicode="C" horiz-adv-x="470" 
d="M438 35q0 -24 -28 -31q-14 -5 -34.5 -7.5t-39 -3.5t-28.5 -1q-121 0 -194 87t-73 256q0 170 70.5 257.5t196.5 87.5q10 0 28.5 -1.5t39 -4t34.5 -7.5q14 -3 21 -8t7 -14v-87q0 -27 -29 -7q-20 13 -44 19.5t-47 6.5q-41 0 -68.5 -17.5t-43.5 -49t-23 -72.5t-7 -90
q0 -33 3.5 -68t12 -68.5t24 -60.5t41 -42.5t61.5 -15.5q26 0 50 6.5t38 14.5q19 12 25.5 11t6.5 -16v-74z" />
    <glyph glyph-name="D" unicode="D" horiz-adv-x="584" 
d="M543 346q0 -87 -19 -147.5t-49.5 -99.5t-67.5 -60.5t-73.5 -30t-66.5 -8.5h-189q-13 0 -13 12v648q0 13 13 13h189q36 0 74.5 -6.5t74.5 -25t64.5 -54.5t45.5 -94.5t17 -146.5zM412 346q0 83 -14.5 129.5t-38 66.5t-49.5 24.5t-48 4.5h-54q-8 0 -9.5 -1t-1.5 -7v-452
q0 -6 1.5 -7.5t7.5 -1.5h40q24 0 52 7t54.5 31t43 73t16.5 133z" />
    <glyph glyph-name="E" unicode="E" horiz-adv-x="455" 
d="M78 0q-13 0 -13 12v648q0 13 13 13h334q12 0 14 -2t2 -13v-70q0 -12 -3 -14.5t-13 -2.5h-206q-7 0 -8 -1t-1 -7v-165q0 -6 1.5 -7.5t6.5 -1.5h162q13 0 15 -2.5t2 -16.5v-63q0 -13 -2.5 -15.5t-14.5 -2.5h-162q-5 0 -6.5 -1t-1.5 -6v-171q0 -6 1 -7.5t7 -1.5h205
q14 0 16 -3t2 -16v-64q0 -14 -3 -16.5t-16 -2.5h-331z" />
    <glyph glyph-name="F" unicode="F" horiz-adv-x="445" 
d="M78 0q-13 0 -13 12v648q0 13 13 13h334q12 0 14 -2t2 -13v-70q0 -12 -3 -14.5t-13 -2.5h-206q-7 0 -8 -1t-1 -7v-165q0 -6 1.5 -7.5t6.5 -1.5h160q13 0 15 -2.5t2 -16.5v-63q0 -13 -2.5 -15.5t-14.5 -2.5h-160q-5 0 -6.5 -1t-1.5 -6v-263q0 -14 -2.5 -16.5t-16.5 -2.5
h-100z" />
    <glyph glyph-name="G" unicode="G" horiz-adv-x="575" 
d="M522 31q0 -13 -17.5 -21.5t-46.5 -12t-65 -3.5q-180 0 -271 84.5t-91 247.5q0 109 41.5 188t114.5 121.5t166 42.5q40 0 78.5 -3t60.5 -11q14 -4 19.5 -7t5.5 -16v-70q0 -19 -8 -23.5t-18 1.5q-25 14 -51 20.5t-59 6.5q-29 0 -65.5 -10t-69 -36.5t-54 -74t-21.5 -123.5
q0 -78 20.5 -125t51 -71t63 -32t56.5 -8q26 0 28 13v173q0 6 -1.5 7t-6.5 1h-113q-10 0 -13 2t-3 12v72q0 10 2.5 13t13.5 3h233q15 0 17.5 -3.5t2.5 -18.5v-339z" />
    <glyph glyph-name="H" unicode="H" horiz-adv-x="611" 
d="M95 0q-6 0 -12.5 2t-6.5 10q-4 36 -7.5 89.5t-5.5 117t-3 129.5q0 61 1.5 119.5t6 108t10.5 84.5q1 6 7 9.5t11 3.5h53.5h52.5q9 0 8 -13q-4 -32 -7 -75.5t-5.5 -90.5t-4.5 -90q0 -9 2 -12t12 -3h99h99q7 0 10 2.5t3 12.5q-1 42 -4 89t-6 90.5t-7 76.5q0 13 8 13h52.5
h52.5q6 0 12 -3.5t7 -9.5q7 -35 11 -85.5t6 -109t1 -119.5q0 -65 -2.5 -128.5t-6 -116.5t-7.5 -89q-1 -8 -7 -10t-13 -2h-52.5h-52.5q-7 0 -6 12q3 28 5.5 60.5t5 67.5t3.5 70.5t1 67.5q0 7 -2.5 9t-10.5 2h-100.5h-100.5q-8 0 -10.5 -2t-2.5 -9q0 -33 1.5 -68l3 -70
t4.5 -67.5t6 -60.5q1 -12 -6 -12h-52.5h-53.5z" />
    <glyph glyph-name="I" unicode="I" horiz-adv-x="261" 
d="M197 12q0 -12 -14 -12h-104q-14 0 -14 12v648q0 13 14 13h104q14 0 14 -13v-648z" />
    <glyph glyph-name="J" unicode="J" horiz-adv-x="327" 
d="M267 181q0 -69 -14.5 -108.5t-47.5 -56t-89 -16.5h-75q-9 0 -21.5 3.5t-12.5 13.5v74q0 12 9 11q13 -1 34 -2t33 -1q30 0 40.5 14.5t11.5 57.5v489q0 13 13 13h106q4 0 8.5 -3.5t4.5 -9.5v-479z" />
    <glyph glyph-name="K" unicode="K" horiz-adv-x="557" 
d="M69 0q-4 0 -4 4v333v332q0 4 4 4h21h41h41h21q4 0 4 -4v-68v-57v-57v-68q0 -3 1 -5.5t3 -2.5h20q3 0 6 3.5t5 7.5q20 38 35 66t29 53t29 53.5l35 66.5q4 7 8.5 9.5t9.5 2.5h20.5h39.5h40h21q10 0 8.5 -7t-10.5 -26q-29 -47 -53.5 -90t-47.5 -87.5t-46 -97.5q-4 -9 -5 -16
t-1 -14q0 -20 7 -44t18.5 -47t27 -44t32.5 -37q20 -19 45.5 -31.5t60.5 -12.5q2 0 5 -1t3 -3v-110q0 -5 -3 -5q-63 0 -107 11t-85 43q-19 15 -35.5 34.5t-32 43.5t-27.5 50.5t-21 55.5q-2 8 -6 11t-5 3h-10.5h-9.5l-2 -1t-2 -6v-67v-53.5v-53.5v-67q0 -4 -4 -4h-21h-41h-41
h-21z" />
    <glyph glyph-name="L" unicode="L" horiz-adv-x="438" 
d="M79 0q-14 0 -14 12v648q0 13 14 13h101q10 0 13.5 -3.5t3.5 -13.5v-545q0 -6 1 -7.5t7 -1.5h204q14 0 16.5 -3t2.5 -16v-64q0 -14 -3 -16.5t-16 -2.5h-330z" />
    <glyph glyph-name="M" unicode="M" horiz-adv-x="711" 
d="M76 0q-16 0 -16 17q0 72 2.5 158.5t8 175t12.5 169t16 140.5q2 7 4.5 10t9.5 3h63q9 0 13 -2t8 -8l151 -254q3 -5 7.5 -5t7.5 5l152 253q5 8 8.5 9.5t12.5 1.5h62q11 0 13 -14q8 -60 15.5 -140t13 -168.5t9 -174.5t3.5 -157q0 -11 -3.5 -15t-15.5 -4h-99q-13 0 -13 15
q0 35 -1 73.5t-2 79t-3.5 81t-4.5 80t-5 74.5q-1 5 -4.5 5t-6.5 -5l-110 -176q-5 -6 -12 -6h-35q-8 0 -13 8l-106 170q-4 8 -7.5 6t-3.5 -6q-4 -44 -7 -86t-5 -87t-2.5 -98t-0.5 -120q0 -8 -8 -8h-108z" />
    <glyph glyph-name="N" unicode="N" horiz-adv-x="642" 
d="M435 276q3 -4 8 -4t5 6q1 31 0.5 66t-1 73.5t-2 79.5t-5 81.5t-8.5 80.5q-1 14 7 14h107q6 0 11.5 -3.5t6.5 -9.5q7 -37 11.5 -89.5t6 -114t0.5 -125t-3.5 -124t-6 -111t-7.5 -84.5q-1 -8 -6.5 -10t-12.5 -2h-68q-7 0 -16 16l-259 386q-1 4 -5 4t-4 -5v-101.5t0.5 -89
t2.5 -77t4 -66t6 -54.5q1 -13 -7 -13h-105q-6 0 -12.5 2t-7.5 10q-4 34 -7 84.5t-5 111t-2.5 124.5t1 125.5t5.5 114t11 88.5q2 6 7.5 9.5t10.5 3.5h65q9 0 13 -9z" />
    <glyph glyph-name="O" unicode="O" horiz-adv-x="638" 
d="M41 334q0 109 23.5 186t84 117.5t169.5 40.5q84 0 139 -23t85.5 -67t42 -108t11.5 -146t-11.5 -145.5t-42 -107.5t-85.5 -67t-139 -23q-109 0 -169.5 40.5t-84 117t-23.5 185.5zM178 334q0 -93 15 -143.5t45 -70.5t79 -20q48 0 79 19.5t47.5 70.5t16.5 144
q0 94 -16.5 145.5t-47.5 71.5t-80 20q-48 0 -78.5 -20.5t-45 -71.5t-14.5 -145z" />
    <glyph glyph-name="P" unicode="P" horiz-adv-x="498" 
d="M468 455q0 -64 -23.5 -118t-69.5 -86.5t-116 -32.5h-54q-4 0 -6 -2.5t-2 -6.5v-197q0 -12 -14 -12h-105q-13 0 -13 12v648q0 13 13 13h170q117 0 168.5 -53.5t51.5 -164.5zM197 323q0 -9 8 -9h41q44 0 69 37t25 103q-1 70 -26 98.5t-70 28.5h-39q-5 0 -6.5 -1t-1.5 -8
v-249z" />
    <glyph glyph-name="Q" unicode="Q" horiz-adv-x="638" 
d="M41 332q0 111 23.5 187.5t84 117.5t169.5 41q85 0 139.5 -23t85 -67.5t42 -108.5t11.5 -147q0 -88 -14 -155t-50 -110t-103 -63q-6 -1 -14 -4t-15 -4q-12 -3 -12 -11q0 -26 10 -41t28 -21.5t44 -6.5h47q14 0 14 -15v-61q0 -10 -2.5 -13t-11.5 -5q-5 -1 -24.5 -1.5
t-32.5 -0.5q-71 0 -116 19t-67 55.5t-25 88.5q0 8 -3 10t-9 3q-8 1 -18 4t-24 9q-61 19 -95 61.5t-48 108.5t-14 153zM178 334q0 -93 14.5 -144t45 -70.5t78.5 -19.5q49 0 80 19.5t47.5 70.5t16.5 144q0 94 -16.5 145.5t-47.5 71.5t-80 20q-48 0 -78.5 -20.5t-45 -71.5
t-14.5 -145z" />
    <glyph glyph-name="R" unicode="R" horiz-adv-x="552" 
d="M78 0q-13 0 -13 12v648q0 13 13 13h169q78 0 126.5 -20.5t71.5 -65.5t23 -122q0 -54 -19 -101t-60 -78q-14 -13 -20.5 -24t4.5 -28q8 -19 18 -36.5t22 -31.5t27 -24q16 -11 36 -17t47 -6q9 0 11.5 -2t2.5 -13v-92q0 -6 -2 -8t-12 -3t-34 -1q-41 0 -75.5 12t-62.5 33
q-25 19 -46.5 45.5t-37.5 57.5t-28 65q-1 2 -4 11t-9 9h-23q-6 0 -6 -15v-206q0 -12 -14 -12h-105zM197 346q0 -4 2 -6t6 -2h40q44 0 69 33.5t25 92.5q0 49 -11.5 74t-33 34t-52.5 9h-37q-5 0 -6.5 -1t-1.5 -8v-226z" />
    <glyph glyph-name="S" unicode="S" horiz-adv-x="486" 
d="M48 37v82q0 7 4.5 7t15.5 -4q20 -6 47 -11.5t53 -8.5t42 -3q52 0 79.5 29t27.5 67q0 39 -27.5 63t-73.5 37q-25 6 -56.5 17t-61 31t-48.5 55.5t-19 90.5q0 68 31.5 109t82 60.5t107.5 19.5q22 0 48.5 -4.5t52.5 -11.5t46 -16q8 -2 10 -5.5t2 -9.5v-75q0 -27 -33 -9
q-21 12 -50.5 21.5t-65.5 9.5q-44 0 -71 -23t-27 -55q0 -31 17 -50t44 -30t56 -18t53 -16q40 -13 66.5 -34.5t40.5 -56.5t14 -89q0 -73 -31.5 -120.5t-86.5 -70.5t-125 -23q-31 0 -70 6t-71 17q-13 4 -18 8.5t-5 13.5z" />
    <glyph glyph-name="T" unicode="T" horiz-adv-x="456" 
d="M174 0q-4 0 -8.5 3.5t-4.5 8.5v552q0 5 -1 6t-6 1h-121q-11 0 -13.5 2.5t-2.5 9.5v78q0 7 2.5 9.5t11.5 2.5h392q10 0 13 -2.5t3 -9.5v-77q0 -8 -3 -10.5t-14 -2.5h-121q-6 0 -7 -1t-1 -6v-552q0 -12 -12 -12h-107z" />
    <glyph glyph-name="U" unicode="U" horiz-adv-x="635" 
d="M317 -8q-86 0 -135.5 19.5t-74.5 50t-33 61.5t-11 55q-4 39 -6 83t-2 80q0 47 2 103t6.5 113t12.5 105q1 7 6 9t12 2h48h49q9 0 10 -3t0 -21q-4 -40 -7 -82t-5 -85q-4 -75 -4 -145.5t6 -138.5q2 -29 10.5 -49t24 -32.5t38 -18t50.5 -5.5q30 0 52 5.5t37.5 18t24.5 32.5
t12 49q5 67 4.5 137.5t-3.5 145.5q-1 43 -4.5 85.5t-7.5 82.5q-1 18 0 21t11 3h50.5h50.5q8 0 12.5 -2t4.5 -9q9 -48 13.5 -104.5t6.5 -113t2 -102.5q0 -37 -1 -81t-6 -83q-2 -19 -8 -43.5t-20 -49.5t-41.5 -46.5t-72.5 -34t-114 -12.5z" />
    <glyph glyph-name="V" unicode="V" horiz-adv-x="563" 
d="M237 0q-8 3 -13 6.5t-9 11.5q-22 42 -45 103t-45 132t-41 142.5t-33 134.5t-20 108q-4 20 -2 27.5t11 7.5h102q9 0 12 -4.5t7 -22.5q5 -30 11.5 -61t13.5 -61.5t15.5 -61.5t17.5 -62t17 -61q9 -29 20 -67t20 -69q4 -8 5.5 -8.5t5.5 7.5q11 29 21 68.5t19 68.5q8 29 17 60
t17 62.5t16 62.5t14.5 61.5t11.5 59.5q3 19 6 23.5t11 4.5h104q9 0 10 -7.5t-1 -27.5q-6 -44 -20 -107t-33 -135t-41 -143t-44.5 -132.5t-44.5 -102.5q-6 -9 -11 -12t-11 -6h-91z" />
    <glyph glyph-name="W" unicode="W" horiz-adv-x="856" 
d="M237 0q-18 0 -28 18q-22 42 -45.5 103t-45.5 133t-41 145t-33 139.5t-21 116.5q-1 7 0.5 12.5t10.5 5.5h15.5h33.5h35h19q8 0 11.5 -2.5t4.5 -12.5q4 -31 15 -81.5t33 -138.5q16 -63 27.5 -109t20.5 -77t17 -52q2 -5 3.5 -7.5t2.5 -2.5h2h1q2 0 4 3.5t3 7.5
q5 14 12.5 35.5t16 46.5t17 51.5t15.5 51.5t10 46q4 32 5 70t1 73v57.5v22.5q-1 8 0.5 13t11.5 5h18h33.5h33.5h18q8 0 11 -2.5t3 -12.5q1 -42 4 -85.5t7.5 -78t6.5 -52.5q9 -57 25 -115.5t39 -121.5q4 -9 5 -12t3 -3h2h1q2 0 5 7q3 8 12.5 37t23.5 77t30 112q12 44 19.5 74
t13 53.5t10.5 48t10 56.5q2 12 5.5 15t10.5 3h18.5h33.5h33.5h18.5q16 0 10 -21q-9 -43 -24 -107t-34.5 -138t-40 -147.5t-42.5 -137t-44 -104.5q-1 -4 -6.5 -11t-15.5 -7h-26.5h-37h-27.5q-7 0 -13.5 8t-7.5 10q-13 25 -26.5 56.5t-26.5 68.5t-26 76q-4 12 -8.5 17
t-11.5 -16q-16 -51 -26.5 -83t-17.5 -51.5t-13.5 -34.5t-14.5 -33q-4 -9 -11 -13.5t-12 -4.5h-26.5h-35.5h-23z" />
    <glyph glyph-name="X" unicode="X" horiz-adv-x="566" 
d="M404 359q-7 -12 -6.5 -21t8.5 -22q7 -11 12 -17.5t10 -16.5q25 -40 45 -78.5t36 -72.5t26.5 -61.5t14.5 -45.5q4 -14 -2.5 -19t-16.5 -5h-106q-6 0 -9.5 3t-8.5 16q-5 15 -14.5 38.5t-22.5 51t-27 55.5t-27 52t-23 40q-5 7 -9 7.5t-10 -7.5q-14 -23 -28.5 -49.5t-28 -53
t-25 -51.5t-20.5 -46.5t-14 -36.5q-3 -12 -6.5 -15.5t-11.5 -3.5h-105q-11 0 -16.5 5t-2.5 19q2 8 13 39.5t33.5 80.5t57.5 108q8 14 19 32t21 32q4 5 5 21t-4 22q-32 50 -56.5 93t-41 79t-26.5 65.5t-13 52.5q-3 14 3.5 19t15.5 5h103q9 0 12.5 -2.5t4.5 -9.5l4.5 -15
t13.5 -40t21.5 -56t29.5 -62.5t37 -60.5q2 -2 3 -4t5 -6q3 -4 6.5 -2.5t5.5 3.5q3 4 3.5 4t3.5 4q20 28 36.5 60t29.5 63t21.5 56t13.5 40.5l5 15.5q2 7 5.5 9.5t11.5 2.5h106q8 0 14 -5t4 -19q-5 -23 -18 -56.5t-32.5 -73t-42 -81t-46.5 -79.5z" />
    <glyph glyph-name="Y" unicode="Y" horiz-adv-x="537" 
d="M346 282q-6 -8 -8.5 -22.5t-2.5 -25.5v-222q0 -5 -4 -8.5t-9 -3.5h-107q-13 0 -13 12v221q0 25 -13 50.5t-22 39.5q-5 8 -16.5 26.5t-25 41t-25 41.5t-14.5 26q-27 52 -43.5 92.5t-24 66.5t-9.5 32q-3 14 3.5 19t16.5 5h102q13 0 17 -13q9 -29 19 -55.5t20.5 -50.5
t19.5 -43q14 -26 26 -47.5t24 -40.5q7 -10 11 -11t11 11q5 8 11 17t13 21t14 26q11 20 24.5 49.5t26.5 62.5t19 62q2 8 6 10t12 2h107q7 0 12.5 -5t2.5 -19q-1 -6 -8 -33.5t-23 -69.5t-44 -94q-6 -13 -19 -35t-29 -47.5t-31 -49t-27 -38.5z" />
    <glyph glyph-name="Z" unicode="Z" horiz-adv-x="476" 
d="M430 673q7 0 9 -2t2 -12v-51q0 -19 -17 -45t-42 -56q-23 -28 -48 -64t-50 -77t-48.5 -85.5t-43 -90t-34.5 -88.5h291q11 0 14 -3t3 -10v-77q0 -8 -3 -10t-13 -2h-402q-22 0 -27 13t-3 36q3 37 16.5 81t34.5 92t46.5 96.5t53 94t55.5 86t53 72.5h-233q-13 0 -15.5 3
t-2.5 9v78q0 7 2.5 9.5t14.5 2.5h387z" />
    <glyph glyph-name="bracketleft" unicode="[" horiz-adv-x="362" 
d="M304 -97q0 -13 -10 -13h-243q-9 0 -12.5 3.5t-3.5 12.5v825q0 16 15 16h239q10 0 12.5 -1.5t2.5 -8.5v-60q0 -6 -3.5 -7.5t-10.5 -1.5h-130v-700h131q8 0 10.5 -1.5t2.5 -9.5v-54z" />
    <glyph glyph-name="backslash" unicode="\" horiz-adv-x="589" 
d="M468 0q-7 0 -11.5 3.5t-9.5 10.5l-413 663q-12 20 -11 24.5t10 4.5h84q9 0 11.5 -1.5t7.5 -8.5l426 -680q5 -7 4 -11.5t-9 -4.5h-89z" />
    <glyph glyph-name="bracketright" unicode="]" horiz-adv-x="362" 
d="M69 -110q-11 0 -11 13v54q0 8 3 9.5t10 1.5h132v700h-131q-7 0 -10.5 1.5t-3.5 7.5v60q0 7 3 8.5t13 1.5h239q14 0 14 -16v-825q0 -9 -3 -12.5t-12 -3.5h-243z" />
    <glyph glyph-name="asciicircum" unicode="^" horiz-adv-x="643" 
d="M54 400q-15 0 -18.5 4t4.5 13l210 276q5 6 10.5 9.5t23.5 3.5h83q12 0 16.5 -4t8.5 -11l209 -271q12 -12 6.5 -16t-17.5 -4h-97q-6 0 -11 3.5t-12 10.5l-148 197l-148 -195q-8 -9 -13 -12.5t-16 -3.5h-91z" />
    <glyph glyph-name="underscore" unicode="_" horiz-adv-x="571" 
d="M22 -107q-7 0 -8.5 3t-1.5 10v39q0 9 1.5 11.5t9.5 2.5h524q7 0 9.5 -2.5t2.5 -10.5v-44q0 -6 -2 -7.5t-12 -1.5h-523z" />
    <glyph glyph-name="grave" unicode="`" horiz-adv-x="182" 
d="M115 526q-13 0 -25 12l-88 91q-4 4 -1 9t7 5h93q10 0 15 -3t9 -10l52 -88q9 -16 -2 -16h-60z" />
    <glyph glyph-name="a" unicode="a" horiz-adv-x="470" 
d="M230 -7q-51 0 -95.5 11.5t-72 44.5t-27.5 96q0 52 19.5 85.5t50 51.5t63.5 24.5t59 6.5q21 0 40.5 -1.5t36.5 -4.5q9 -3 9 13q0 37 -22.5 52t-62.5 15q-38 0 -72.5 -14t-58.5 -26q-11 -6 -14.5 -4t-5.5 13l-9 56q-2 13 0 17t11 10q26 17 66 27.5t85 10.5q68 0 109 -15.5
t61.5 -41.5t27 -59.5t6.5 -69.5q1 -42 0.5 -82.5t-2.5 -80.5t-6 -81q-2 -11 -6 -16.5t-16 -11.5q-14 -7 -37 -11.5t-49.5 -8t-49.5 -5t-38 -1.5zM238 70q8 0 18 1t20 4.5t16.5 8.5t7.5 13q3 24 5 53t0 56q0 13 -10 18q-10 7 -28.5 8.5t-30.5 1.5q-9 0 -22.5 -3.5
t-25.5 -12.5t-19.5 -27t-7.5 -46q0 -22 9 -39t26 -26.5t42 -9.5z" />
    <glyph glyph-name="b" unicode="b" horiz-adv-x="486" 
d="M236 -6q-51 0 -92.5 8.5t-56.5 14.5q-16 5 -23.5 9.5t-10.5 11t-5 16.5q-5 19 -7.5 57t-3.5 80.5t-2 75.5q0 123 6.5 235t17.5 196q1 7 5.5 8.5t12.5 1.5h94q15 0 15.5 -4.5t-1.5 -19.5q-2 -17 -5 -38.5t-5 -44.5l-4 -46t-3 -43t-1 -36q0 -8 4.5 -9.5t10.5 -0.5
q10 3 28.5 6.5t33.5 3.5q36 0 71.5 -10.5t64.5 -37.5t47 -75.5t18 -124.5q0 -121 -55.5 -177.5t-153.5 -56.5zM235 92q23 0 41 12.5t28.5 42.5t10.5 81q0 46 -7.5 74t-20 42.5t-26 19.5t-26.5 5q-8 0 -19.5 -2t-22 -5t-18.5 -5q-4 -1 -5.5 -3.5t-2.5 -9.5v-51t0.5 -57
t1.5 -60.5t2 -59.5q0 -6 1.5 -9t4.5 -5q10 -3 25.5 -6.5t32.5 -3.5z" />
    <glyph glyph-name="c" unicode="c" horiz-adv-x="412" 
d="M245 -8q-64 0 -106.5 19t-65.5 53t-32 78t-9 95q0 47 9.5 90t33 78t65 55t104.5 20q44 0 76.5 -9t57.5 -30q7 -7 9.5 -10.5t2.5 -11.5v-74q0 -9 -5.5 -9.5t-10.5 3.5q-26 23 -54.5 30t-58.5 7q-26 0 -45.5 -11.5t-31.5 -31.5t-18.5 -45.5t-6.5 -51.5q0 -46 11 -78.5
t32 -50t52 -17.5q23 0 45.5 6t49.5 19q17 8 24 -8l24 -56q4 -8 2.5 -12.5t-8.5 -8.5q-26 -19 -66 -28.5t-80 -9.5z" />
    <glyph glyph-name="d" unicode="d" horiz-adv-x="489" 
d="M37 229q2 76 20.5 124t48 75t65.5 37t73 10q14 0 32 -3t28 -5q7 -2 11.5 -1t4.5 9q0 18 -0.5 38t-2 40.5t-3.5 41t-3.5 39t-3.5 33.5q-2 17 1.5 20t12.5 3h96q7 0 11.5 -1t5.5 -8q4 -41 7 -95.5t5 -117t2.5 -125.5t-1 -121t-5 -103t-9.5 -69q-3 -12 -8.5 -18t-27.5 -14
q-19 -8 -61 -16.5t-92 -8.5q-39 1 -72.5 9.5t-58.5 27.5q-38 27 -57 76.5t-19 122.5zM168 228q-1 -69 16.5 -97.5t44.5 -32.5q12 -4 25.5 -4.5t27 2t23.5 6.5q3 2 4.5 4.5t1.5 7.5q1 22 2.5 46t2 48t1.5 48t1.5 46t-0.5 41q0 7 -1.5 9.5t-5.5 3.5q-13 5 -30.5 8.5t-29.5 3.5
t-26.5 -5t-27 -19t-20.5 -41.5t-9 -74.5z" />
    <glyph glyph-name="e" unicode="e" horiz-adv-x="471" 
d="M32 237q0 47 10 90t33.5 78t65 55t104.5 20q66 0 105 -18.5t59 -49.5t26.5 -67.5t6.5 -72.5q0 -42 -9.5 -55.5t-29.5 -13.5h-232q-6 0 -7.5 -2.5t-1.5 -9.5q0 -30 13.5 -54.5t39.5 -38.5t61 -14q33 0 63 10.5t44 18.5q12 7 19 8.5t15 -14.5l21 -42q6 -11 3 -15.5
t-13 -11.5q-35 -24 -84 -35t-98 -11q-65 0 -107 19t-65 53t-32.5 78.5t-9.5 94.5zM313 293q0 28 -7 48t-22.5 31t-41.5 11q-21 0 -35.5 -8t-23.5 -21t-14 -28.5t-7 -29.5q-1 -16 0 -19.5t8 -3.5h131q9 0 11 3t1 17z" />
    <glyph glyph-name="f" unicode="f" horiz-adv-x="362" 
d="M90 16q-4 31 -6.5 75.5t-5 95t-3 98t-0.5 83.5q0 10 -9 10h-44q-7 0 -10 2t-3 12v65q0 12 3 13.5t13 1.5h43q5 0 6 2t1 9q0 57 6 92t27 65q25 35 70 53.5t112 18.5q30 0 56.5 -9.5t36.5 -14.5q15 -8 18 -12.5t1 -12.5l-18 -56q-3 -11 -6.5 -12.5t-10.5 2.5
q-15 9 -36 16.5t-45 6.5q-32 0 -55.5 -19.5t-25.5 -71.5q-2 -11 -2.5 -23t-0.5 -25q0 -6 1 -7.5t7 -1.5h123q10 0 11.5 -2.5t1.5 -14.5v-63q0 -9 -2.5 -11.5t-11.5 -2.5h-121q-7 0 -8.5 -2t-1.5 -7q0 -56 1.5 -113t4 -106.5t4.5 -85t3 -49.5q0 -10 -1 -12.5t-8 -2.5h-103
q-5 0 -7.5 3.5t-4.5 12.5z" />
    <glyph glyph-name="g" unicode="g" horiz-adv-x="480" 
d="M32 242q1 68 19.5 121.5t66 84t133.5 30.5q40 0 78.5 -6.5t68.5 -17.5q24 -9 29 -20t8 -37q10 -81 10.5 -175t-11.5 -183q-11 -87 -65 -127.5t-148 -40.5q-37 0 -81.5 10.5t-83.5 39.5q-4 3 -7 10t1 14q5 7 14.5 24t13.5 24q7 12 11.5 13t14.5 -6q11 -8 30.5 -16t41 -14
t35.5 -6q16 0 35 5t35 18t20 39q0 1 0.5 2t0.5 2q1 7 -2 11.5t-13 2.5q-8 -2 -23 -3.5t-29 -1.5q-54 0 -100 22t-74.5 67.5t-28.5 113.5zM166 263q0 -37 7 -67t24 -46.5t48 -16.5q14 0 27.5 1.5t23.5 6.5q13 5 14 20q2 20 2 48.5t-0.5 59t-1.5 55t-2 37.5q0 6 -2.5 13.5
t-7.5 9.5q-9 5 -21.5 7.5t-30.5 2.5q-30 0 -47.5 -17t-24.5 -46.5t-8 -67.5z" />
    <glyph glyph-name="h" unicode="h" horiz-adv-x="469" 
d="M43 12v342v342q0 12 14 12h51.5h50.5q13 0 13 -12v-110v-109q0 -8 4 -9.5t8 0.5q9 3 30.5 7t40.5 4q46 0 78.5 -13.5t53 -41.5t31 -72t12.5 -106q1 -42 -1 -85.5t-6 -83t-9 -67.5q-1 -6 -5.5 -8t-11.5 -2h-47h-46q-16 0 -17.5 3t1.5 21q5 40 8 84.5t4 88.5q1 43 -2 78
t-11.5 59.5t-24 37t-40.5 12.5q-8 0 -18 -2t-19 -4q-6 -2 -9.5 -7.5t-3.5 -14.5v-344q0 -12 -13 -12h-102q-14 0 -14 12z" />
    <glyph glyph-name="i" unicode="i" horiz-adv-x="212" 
d="M177 601q0 -30 -13 -45.5t-54 -15.5q-39 0 -53.5 15.5t-14.5 45.5q0 26 14.5 42.5t53.5 16.5q43 0 55 -16.5t12 -42.5zM174 12q0 -12 -14 -12h-102q-12 0 -12 12v448q0 12 12 12h102q14 0 14 -12v-448z" />
    <glyph glyph-name="j" unicode="j" horiz-adv-x="221" 
d="M-81 -71l23 44q5 7 9.5 6t11.5 -4q21 -10 38 -9q23 2 39 22.5t16 58.5v413q0 12 12 12h103q13 0 13 -12v-413q0 -78 -32.5 -123t-117.5 -45q-26 0 -52 5.5t-45 15.5q-15 9 -19 14.5t1 14.5zM186 601q0 -30 -13 -45.5t-54 -15.5q-39 0 -53.5 15.5t-14.5 45.5
q0 26 14.5 42.5t53.5 16.5q43 0 55 -16.5t12 -42.5z" />
    <glyph glyph-name="k" unicode="k" horiz-adv-x="450" 
d="M47 4v675q0 4 4 4h120q4 0 4 -4v-363q0 -2 0.5 -6t2.5 -4q4 0 9.5 1.5t9.5 2.5q7 6 11 10t10 14q15 20 25.5 39.5t20 40t19.5 45.5q4 10 9 11.5t17 1.5h103q9 0 9.5 -5.5t-1.5 -9.5t-10.5 -23t-22.5 -46t-32 -56.5t-39 -54.5q-4 -5 -7 -8t-6 -7l6 -3t5 -4
q17 -17 35.5 -46.5t35.5 -63.5t31 -64.5t22.5 -50.5t9.5 -22q4 -8 -3 -8h-21h-39.5h-39h-20.5q-4 0 -5 0.5t-4 6.5l-7.5 14.5t-19 36.5t-24.5 46.5t-24 44.5t-17 29q-4 8 -10.5 17t-15.5 14t-20 0q-3 -3 -3 -15v-190q0 -4 -4 -4h-120q-4 0 -4 4z" />
    <glyph glyph-name="l" unicode="l" horiz-adv-x="221" 
d="M47 12v684q0 12 13 12h101q14 0 14 -12v-684q0 -12 -14 -12h-101q-13 0 -13 12z" />
    <glyph glyph-name="m" unicode="m" horiz-adv-x="722" 
d="M61 0q-14 0 -14 13v409q0 10 5 16t17 10q18 6 45.5 12.5t56 11t48.5 4.5q53 0 86.5 -11.5t60.5 -33.5q20 15 39.5 24.5t40 15t44.5 5.5q79 0 121 -30.5t59 -81.5t17 -114q0 -51 -2 -91t-5.5 -75t-9.5 -74q0 -7 -2 -8.5t-7 -1.5h-107q-6 0 -7.5 3.5t-1.5 15.5q3 29 5 67.5
t3 82.5t1 85q0 16 -2.5 36.5t-10 40t-22.5 32.5t-40 13q-29 0 -40 -9t-11 -29q0 -43 0.5 -84t0.5 -80.5t-0.5 -79t-0.5 -80.5q0 -14 -13 -14h-106q-9 0 -9 10v243q0 36 -7 63.5t-24.5 43.5t-49.5 16q-9 0 -17.5 -1.5t-15.5 -4.5q-12 -4 -12 -17v-337q0 -16 -13 -16h-100z
" />
    <glyph glyph-name="n" unicode="n" horiz-adv-x="469" 
d="M61 0q-14 0 -14 13v207.5v207.5q0 10 7 15t27 12q13 4 38.5 9.5t55.5 10.5t54 5q83 0 127.5 -31.5t61 -83t16.5 -113.5q0 -37 -1.5 -77.5t-4.5 -79.5t-6 -71q-2 -18 -6 -21t-18 -3h-82q-14 0 -18.5 3.5t-3.5 15.5q0 4 1.5 31.5t3.5 65.5t3.5 75t1.5 60q0 52 -9 79.5
t-26 37.5t-43 10q-10 0 -19 -1t-16 -3q-9 -1 -13 -8t-4 -23v-97v-114v-119q0 -13 -11 -13h-102z" />
    <glyph glyph-name="o" unicode="o" horiz-adv-x="503" 
d="M251 -8q-87 0 -134.5 32.5t-66 88t-18.5 126.5q0 69 21 123.5t68.5 86t129.5 31.5q83 0 130.5 -31.5t68 -86t20.5 -123.5q0 -70 -18 -125.5t-65.5 -88.5t-135.5 -33zM250 90q49 0 69 38t20 107t-21.5 104.5t-67.5 35.5q-45 0 -66.5 -35.5t-21.5 -104.5q0 -70 19.5 -107.5
t68.5 -37.5z" />
    <glyph glyph-name="p" unicode="p" horiz-adv-x="485" 
d="M55 -98q-4 36 -6.5 112t-1.5 195q0 34 1 75.5t3.5 80.5t7.5 61q2 11 8 17.5t27 14.5q21 7 62.5 15t92.5 8q98 0 152.5 -56.5t54.5 -177.5q0 -50 -8.5 -89.5t-25.5 -69t-39.5 -48.5t-50.5 -29q-18 -8 -42 -12.5t-48 -5t-43 2.5q-9 1 -14 1.5t-5 -6.5t-0.5 -22t0.5 -30
t1 -23q2 -13 1.5 -18.5t-15.5 -5.5h-95q-8 0 -12.5 2t-4.5 8zM178 130q0 -7 2 -9.5t7 -3.5q13 -5 30 -8t29 -3q13 0 26.5 5t26 19.5t20 42.5t7.5 75q0 77 -22 106t-57 29q-16 0 -32 -3t-27 -7q-2 -2 -4 -5t-2 -8q-1 -21 -1.5 -45t-1 -48.5l-1 -49t-0.5 -47v-40.5z" />
    <glyph glyph-name="q" unicode="q" horiz-adv-x="491" 
d="M146 11q-24 10 -45.5 27.5t-38 45.5t-25 68t-5.5 95q5 121 63 177.5t157 56.5q51 0 92 -8t63 -15q19 -8 24.5 -14.5t8.5 -17.5q3 -17 3.5 -56.5t-0.5 -91.5t-4 -109.5t-6 -110.5t-6.5 -94t-7.5 -62q-2 -6 -6.5 -8t-11.5 -2h-96q-14 0 -13.5 5.5t1.5 18.5q1 8 2 23t2.5 30
t0.5 22q0 7 -5 6.5t-16 -1.5q-30 -4 -66 -0.5t-65 15.5zM163 248q-2 -47 4 -75t17.5 -42t25.5 -19.5t26 -5.5q13 0 30.5 3t31.5 8q4 1 6 3.5t2 9.5q1 18 2 40.5t1.5 47l1 49t1 48.5t0.5 45q1 5 -0.5 8t-3.5 5q-12 4 -27.5 7t-32.5 3q-35 0 -58 -29t-27 -106z" />
    <glyph glyph-name="r" unicode="r" horiz-adv-x="338" 
d="M206 476q76 0 125 -22q10 -4 11.5 -8t0.5 -11l-18 -62q-2 -8 -5 -9.5t-12 1.5q-17 5 -38 7.5t-32 2.5q-16 0 -27 -1.5t-17 -3.5t-10 -4q-4 -3 -8.5 -7t-4.5 -18v-320q0 -14 -4 -17.5t-14 -3.5h-97q-5 0 -9 3t-4 14v400q0 16 3.5 20.5t14.5 9.5q30 14 71.5 21.5t73.5 7.5z
" />
    <glyph glyph-name="s" unicode="s" horiz-adv-x="410" 
d="M41 116q3 11 9.5 9.5t12.5 -5.5q17 -8 39.5 -14.5t46.5 -10t43 -3.5q20 0 36.5 4.5t26.5 14.5t10 26q1 22 -19.5 33.5t-71.5 22.5q-32 7 -65.5 20.5t-55.5 41t-22 72.5q0 51 26 83.5t67.5 49.5t88.5 17q37 0 81 -11t73 -28q9 -5 9.5 -9t-1.5 -11l-24 -65q-3 -12 -19 -6
q-22 13 -54 24t-65 11q-23 0 -40.5 -11.5t-17.5 -29.5q0 -22 20 -32t58 -18q28 -6 54 -13.5t48 -22t35 -39t13 -63.5q0 -45 -17 -75.5t-45.5 -48.5t-62 -26t-66.5 -8q-18 0 -47 4t-59 13t-51 24q-4 2 -6.5 5.5t-1.5 9.5z" />
    <glyph glyph-name="t" unicode="t" horiz-adv-x="358" 
d="M232 0q-68 0 -101.5 28.5t-44.5 79.5q-8 42 -8.5 86t-0.5 89q0 29 0.5 51t1.5 49q0 10 -9 10h-41q-8 0 -10.5 2t-2.5 12v50q0 12 2.5 13.5t13.5 1.5h41q8 0 9 4t2 13l4 75q0 12 12 12h100q5 0 10 -3.5t4 -8.5l-5 -75q-1 -12 0.5 -14.5t7.5 -2.5h84q10 0 12 -2.5t2 -14.5
v-47q0 -10 -3 -12.5t-13 -2.5h-83q-6 0 -8.5 -3.5t-2.5 -10.5q-1 -26 -2 -52.5t-1 -54.5q0 -35 1.5 -70.5t8.5 -68.5q6 -19 17 -27t29 -8q12 0 23 3.5t19 5.5q12 7 15 4.5t7 -12.5l17 -60q4 -7 -2 -12.5t-24 -12.5q-12 -4 -26 -7.5t-28 -5t-27 -1.5z" />
    <glyph glyph-name="u" unicode="u" horiz-adv-x="475" 
d="M246 -4q-82 0 -126.5 31t-61.5 82t-17 113q0 37 1.5 77t4.5 78.5t7 70.5q2 18 6 21t18 3h81q14 0 20 -0.5t3 -18.5q0 -4 -1.5 -29t-3.5 -61.5t-3 -75t-1 -69.5q0 -63 17.5 -92.5t58.5 -29.5q5 0 14 0.5t18 2.5t15 6t6 11v339q0 5 1 11t7 6h104q4 0 9 -2t5 -11v-409
q0 -12 -7 -17t-29 -13q-11 -4 -36.5 -9.5t-55 -10t-54.5 -4.5z" />
    <glyph glyph-name="v" unicode="v" horiz-adv-x="422" 
d="M179 0q-8 0 -12 6q-27 41 -46.5 89t-36.5 95q-30 80 -45.5 141t-24.5 112q-5 29 9 29h107q7 0 11 -4.5t5 -9.5q3 -29 9.5 -62t16.5 -76q11 -49 20.5 -81.5t17.5 -59.5q3 -9 7.5 -8t7.5 8q7 19 14 46t17 70q10 48 18.5 94.5t10.5 76.5q1 5 6 5h114q6 0 5 -7
q-10 -64 -26.5 -133.5t-42.5 -141.5q-15 -44 -35 -89.5t-47 -94.5q-3 -6 -9 -6z" />
    <glyph glyph-name="w" unicode="w" horiz-adv-x="649" 
d="M158 16q-27 54 -50.5 111.5t-42 114.5t-31 107t-19.5 88q-3 15 -2 25t10 10h107q14 0 16 -14q6 -30 13 -64t15.5 -67.5t16 -64t14 -54t11.5 -35.5q2 -8 4.5 -6.5t3.5 3.5q7 13 13 33.5t11 44t8 44.5t3 35q0 18 -0.5 36.5t-0.5 36t-0.5 32.5t-0.5 25q0 14 13 14h111
q5 0 9 -3t4 -11q0 -27 1 -64.5t4 -77.5q2 -15 4.5 -31.5t7 -33.5t9 -32.5t9 -27.5t7.5 -21q6 -12 9 0q6 16 12.5 40t14 53.5t15 62.5t14 66t11.5 64q3 17 21 17h92q10 0 11 -8.5t-1 -21.5q-7 -45 -22 -104.5t-35 -121.5t-42 -115t-43 -85q-5 -8 -9 -12t-9 -4h-68
q-7 0 -10 2.5t-8 8.5q-7 11 -17.5 32t-20.5 44t-16 40q-9 24 -18 0q-1 -5 -6.5 -17.5t-11.5 -26t-10 -21.5q-7 -14 -15.5 -29.5t-11.5 -21.5q-3 -4 -7.5 -7.5t-11.5 -3.5h-64q-10 0 -12.5 2.5t-8.5 13.5z" />
    <glyph glyph-name="x" unicode="x" horiz-adv-x="420" 
d="M25 0q-9 0 -11 7.5t0.5 16t2.5 10.5q2 12 9 32.5t18.5 47t27 58.5t34.5 66q3 5 2.5 8.5t-4.5 8.5q-23 32 -41 68.5t-29.5 69t-17.5 53l-6 20.5q-1 6 4 6h120q7 0 10.5 -2t6.5 -12q2 -11 9 -35.5t16.5 -50.5t20 -47t18.5 -26h3h4q10 5 19.5 25t18.5 45.5t15.5 49t8.5 36.5
q2 9 6 13t18 4h89q3 0 8.5 -2t4.5 -12q-2 -10 -7.5 -31.5t-15 -49t-25.5 -59t-39 -63.5q-7 -7 1 -18q25 -35 41.5 -69.5t25.5 -64t13.5 -49t5.5 -24.5q3 -13 1.5 -21.5t-11.5 -8.5h-89q-14 0 -18 4t-6 13q-4 14 -10.5 38t-15.5 50t-19 46.5t-20 27.5q-6 0 -5.5 0h1.5t-5 0
q-14 -23 -26 -51t-20.5 -54t-13.5 -43l-5 -17q-3 -9 -6 -11.5t-12 -2.5h-105z" />
    <glyph glyph-name="y" unicode="y" horiz-adv-x="425" 
d="M124 106q-19 38 -35.5 80.5t-30.5 87.5t-24 90.5t-18 87.5q-3 20 12 20h100q11 0 15.5 -5.5t6.5 -20.5t6 -38.5t10 -51t13 -57t15.5 -56.5t15.5 -49q4 -7 8 -7t5 7q9 28 18 60t18 66t16.5 68t12.5 66q2 10 5.5 14t14.5 4h86q9 0 14.5 -3.5t2.5 -17.5q-6 -40 -15 -76.5
t-20 -74t-27 -84.5q-11 -29 -26 -71.5t-38 -88.5t-54.5 -85t-74 -64t-96.5 -25q-27 0 -45.5 3.5t-31.5 9.5q-21 10 -11 29l24 47q5 9 9 9t11 -2q17 -4 36.5 -0.5t35.5 12.5q18 10 28.5 21t16.5 23q7 17 3.5 36t-12.5 36z" />
    <glyph glyph-name="z" unicode="z" horiz-adv-x="385" 
d="M26 35q5 53 28 104t54 101q21 33 43.5 64t44.5 58q3 3 3.5 6t-6.5 5h-133q-8 0 -10.5 2t-2.5 12v70q0 12 2.5 13.5t13.5 1.5h282q11 0 12.5 -4t1.5 -14v-61q0 -6 -3.5 -14.5t-16.5 -17.5q-15 -10 -33 -29.5t-35.5 -42.5t-35.5 -48q-22 -34 -41.5 -67.5t-31.5 -61.5
q-1 -4 0.5 -9t10.5 -5h174q9 0 10 -3t1 -13v-70q0 -8 -3.5 -10t-15.5 -2h-297q-10 0 -14 5.5t-2 29.5z" />
    <glyph glyph-name="braceleft" unicode="{" horiz-adv-x="437" 
d="M378 -85q0 -16 -4 -21t-22 -5h-91q-54 0 -79.5 20t-33 48.5t-7.5 55.5v181q0 24 -10 42.5t-26 28.5q-6 5 -20.5 9t-38.5 4q-7 0 -9 4.5t-2 10.5v68q0 7 5 8.5t16 1.5q37 0 61 21.5t24 61.5v166q0 28 7.5 56t33 48t79.5 20h107q7 0 8.5 -2.5t1.5 -6.5v-59q0 -3 -1.5 -6.5
t-8.5 -3.5h-61q-22 0 -28.5 -11.5t-6.5 -34.5v-166q0 -25 -12 -51t-33.5 -46.5t-50.5 -29.5q-4 -1 -7.5 -2t-6.5 -2q4 -1 9 -3t9 -4q41 -17 66.5 -52.5t25.5 -69.5v-181q0 -21 6.5 -33.5t28.5 -12.5h45q15 0 20.5 -4t5.5 -21v-27z" />
    <glyph glyph-name="bar" unicode="|" horiz-adv-x="274" 
d="M190 706q10 0 12 -4t2 -15v-784q0 -5 -2.5 -9.5t-12.5 -4.5h-103q-7 0 -11.5 4.5t-4.5 21.5v775q0 9 3 12.5t13 3.5h104z" />
    <glyph glyph-name="braceright" unicode="}" horiz-adv-x="437" 
d="M58 -85v27q0 17 6 21t20 4h45q24 0 30 12.5t6 33.5v181q0 34 25.5 69.5t65.5 52.5q5 2 9.5 4t8.5 3l-6 2t-7 2q-28 9 -50 29.5t-34 46.5t-12 51v166q0 23 -6 34.5t-30 11.5h-60q-7 0 -9 3.5t-2 6.5v59q0 4 2 6.5t9 2.5h106q55 0 80.5 -20t32.5 -48t7 -56v-166
q0 -40 24.5 -61.5t61.5 -21.5q12 0 16.5 -1.5t4.5 -8.5v-68q0 -6 -2 -10.5t-10 -4.5q-23 0 -38 -4t-21 -9q-15 -10 -25.5 -28.5t-10.5 -42.5v-181q0 -27 -7 -55.5t-32.5 -48.5t-80.5 -20h-91q-16 0 -21 5t-5 21z" />
    <glyph glyph-name="asciitilde" unicode="~" horiz-adv-x="500" 
d="M456 576q-27 -26 -60 -41t-67 -15q-24 0 -44 6.5t-38.5 15t-36 15t-36.5 6.5q-16 0 -31.5 -7.5t-28 -17.5t-18.5 -18q-4 -6 -7 -5.5t-10 4.5l-39 39q-6 5 -4.5 11.5t2.5 9.5q12 14 30.5 32.5t43.5 31.5t53 13q17 0 33 -3.5t31 -8.5t30.5 -10.5t29.5 -10.5
q13 -4 32.5 -4.5t41 5.5t37.5 22q4 4 8.5 6t10.5 -5l41 -43q7 -6 5 -13.5t-9 -14.5z" />
    <glyph glyph-name="uni00A0" unicode="&#xa0;" horiz-adv-x="229" 
 />
    <glyph glyph-name="exclamdown" unicode="&#xa1;" horiz-adv-x="247" 
d="M165 264q7 0 10 -2t3 -13l15 -431q0 -6 -1.5 -9.5t-8.5 -3.5h-119q-11 0 -11 12l16 432q1 10 3 12.5t12 2.5h81zM62 441q0 26 13 40t53 14q35 0 50.5 -14t15.5 -40q0 -25 -15.5 -38.5t-50.5 -13.5q-40 0 -53 13.5t-13 38.5z" />
    <glyph glyph-name="cent" unicode="&#xa2;" horiz-adv-x="461" 
d="M260 73q-64 0 -106.5 19t-65.5 52.5t-32 77.5t-9 93q0 46 9.5 89.5t33 78t65 54.5t104.5 20q44 0 76.5 -9t57.5 -29q7 -8 9.5 -11.5t2.5 -10.5v-73q0 -9 -5.5 -9.5t-10.5 3.5q-26 22 -54.5 28.5t-58.5 6.5q-26 0 -45.5 -11.5t-31.5 -31.5t-18.5 -44.5t-6.5 -51.5
q0 -45 11 -77.5t32 -49t52 -16.5q23 0 45.5 6t49.5 18q17 9 24 -7l24 -56q4 -8 2.5 -12.5t-8.5 -9.5q-26 -19 -66 -28t-80 -9zM311 131v-177q0 -5 -2.5 -9.5t-12.5 -4.5h-103q-7 0 -11.5 4.5t-4.5 21.5v165h134zM177 490v200q0 9 3 12.5t13 3.5h104q10 0 12 -4t2 -15v-197
h-134z" />
    <glyph glyph-name="sterling" unicode="&#xa3;" horiz-adv-x="536" 
d="M370 -12q-34 0 -62.5 6.5t-68.5 15.5q-22 6 -42 9.5t-38 2.5q-20 -1 -50.5 -4.5t-52.5 -11.5q-14 -4 -20.5 -2.5t-6.5 12.5v28v28q0 9 3 14t13 8q42 15 66.5 34t36 46.5t9.5 67.5h-45h-45q-11 0 -16 3t-5 11v27v26q0 15 2 18.5t10 3.5h38.5h38.5q-17 45 -30.5 93.5
t-13.5 83.5q0 42 25 80.5t71 62.5t110 24q17 0 40.5 -3.5t47 -9t39.5 -12.5q6 -3 8 -10t2 -12v-33v-34q0 -8 -2.5 -11t-15.5 2q-29 13 -58.5 22t-45.5 9q-30 0 -49.5 -10t-28.5 -27t-9 -38q0 -41 13.5 -84t22.5 -93h54h53q8 0 9.5 -5t1.5 -17v-25v-26q0 -10 -2 -13t-12 -3
h-44.5h-45.5v-7t1 -8q0 -39 -8.5 -66t-27.5 -59q34 -7 56 -12t39.5 -7.5t36.5 -2.5q29 0 56 7.5t47 17.5q14 6 14 -12v-51q0 -15 -3.5 -20.5t-6.5 -7.5q-24 -16 -51 -21t-58 -5z" />
    <glyph glyph-name="currency" unicode="&#xa4;" horiz-adv-x="530" 
d="M91 144l-38 37q-5 6 -6.5 10.5t3.5 9.5l83 75q-6 14 -9.5 29t-3.5 31q0 17 4 32.5t11 30.5l-72 66q-5 4 -2.5 9t7.5 9l40 40q6 5 9 4.5t7 -4.5l69 -64q17 9 35 14t38 5q37 0 71 -18l69 63q5 4 7.5 4.5t8.5 -4.5l40 -40q6 -4 8 -9t-3 -9l-70 -64q8 -15 12.5 -31.5
t4.5 -33.5q0 -33 -16 -62l82 -73q5 -5 3.5 -9.5t-7.5 -10.5l-38 -37q-7 -6 -11 -6t-11 6l-77 70q-32 -19 -73 -19q-42 0 -74 19l-78 -70q-6 -6 -11 -6t-12 6zM193 336q0 -30 21 -50t52 -20t51.5 20t20.5 50t-20.5 50t-51.5 20t-52 -20t-21 -50z" />
    <glyph glyph-name="yen" unicode="&#xa5;" horiz-adv-x="577" 
d="M366 282q-6 -8 -8.5 -22.5t-2.5 -25.5v-222q0 -5 -4 -8.5t-9 -3.5h-107q-13 0 -13 12v221q0 25 -13 50.5t-22 39.5q-5 8 -16.5 26.5t-25 41t-25 41.5t-14.5 26q-27 52 -43.5 92.5t-24 66.5t-9.5 32q-3 14 3.5 19t16.5 5h102q13 0 17 -13q9 -29 19 -55.5t20.5 -50.5
t19.5 -43q14 -26 26 -47.5t24 -40.5q7 -10 11 -11t11 11q5 8 11 17t13 21t14 26q11 20 24.5 49.5t26.5 62.5t19 62q2 8 6 10t12 2h107q7 0 12.5 -5t2.5 -19q-1 -6 -8 -33.5t-23 -69.5t-44 -94q-6 -13 -19 -35t-29 -47.5t-31 -49t-27 -38.5zM116 212q-9 0 -10 3t-1 9v41
q0 9 2 11.5t11 2.5h333q7 0 9.5 -2t2.5 -10v-45q0 -6 -2 -8t-11 -2h-334zM116 104q-9 0 -10 2.5t-1 9.5v41q0 9 2 11.5t11 2.5h333q7 0 9.5 -2t2.5 -11v-45q0 -6 -2 -7.5t-11 -1.5h-334z" />
    <glyph glyph-name="brokenbar" unicode="&#xa6;" horiz-adv-x="274" 
d="M204 298v-395q0 -5 -2.5 -9.5t-12.5 -4.5h-103q-7 0 -11.5 4.5t-4.5 21.5v383h134zM70 347v343q0 9 3 12.5t13 3.5h104q10 0 12 -4t2 -15v-340h-134z" />
    <glyph glyph-name="section" unicode="&#xa7;" horiz-adv-x="578" 
d="M53 -188v74q0 7 4.5 7.5t13.5 -3.5q18 -6 42.5 -11t47.5 -8t39 -3q47 0 71.5 26t24.5 61q0 25 -12.5 42.5t-33 29.5t-46.5 19q-22 5 -50.5 15t-55 28.5t-44 50t-17.5 81.5q0 61 25 110t71 77.5t107 28.5q20 0 48.5 -4.5t57.5 -12t49 -17.5q9 -2 11 -6t2 -12v-82
q0 -29 -34 -10q-14 9 -34.5 17t-43.5 12.5t-46 4.5q-30 0 -54 -11.5t-37 -30t-13 -40.5q4 -34 22 -53.5t43 -30.5t51.5 -18t47.5 -14q26 -9 46.5 -22t34.5 -31.5t22 -45.5t8 -65q0 -66 -28.5 -109t-78 -63.5t-113.5 -20.5q-28 0 -63.5 5t-63.5 16q-12 3 -16.5 7t-4.5 12z
M156 96l-2 76q0 5 3.5 9t8.5 5t10 -3q44 -28 73 -32t52 -3q45 4 69.5 30t24.5 60q0 27 -12 42.5t-33 25.5t-46 16q-22 6 -50.5 15.5t-54.5 28t-43 49.5t-17 80q0 60 28 97t73.5 54.5t95.5 17.5q18 0 41.5 -4t47.5 -10t42 -14q7 -2 9 -5t2 -9v-67q0 -24 -29 -8
q-12 7 -29.5 13.5t-36.5 10t-38 3.5q-39 0 -63 -20t-24 -48q0 -29 15.5 -45.5t39 -26.5t49.5 -16.5t47 -13.5q33 -11 57.5 -30t38 -50t13.5 -79q0 -66 -28.5 -108t-77 -61.5t-109.5 -19.5q-29 0 -63 5t-64 15q-12 4 -16 8t-4 12z" />
    <glyph glyph-name="dieresis" unicode="&#xa8;" horiz-adv-x="277" 
d="M112 574q0 -23 -12 -35.5t-44 -12.5q-28 0 -41 12.5t-13 35.5t13 35t41 12q32 0 44 -12t12 -35zM272 574q0 -23 -11 -35.5t-43 -12.5q-30 0 -42.5 12.5t-12.5 35.5t12.5 35t42.5 12q32 0 43 -12t11 -35z" />
    <glyph glyph-name="copyright" unicode="&#xa9;" horiz-adv-x="863" 
d="M47 333q0 74 30 138.5t83 113.5t122.5 77t149.5 28t149.5 -28t123 -77t83 -113.5t29.5 -138.5t-29.5 -139.5t-83 -115t-123 -77.5t-149.5 -28t-150 28t-122.5 77.5t-82.5 115t-30 139.5zM144 333q0 -56 22 -105.5t62 -86.5t92 -58.5t112 -21.5q59 0 111 21.5t91.5 58.5
t62 86.5t22.5 105.5t-22.5 104.5t-62 85t-91.5 57t-111 20.5q-60 0 -112 -20.5t-91.5 -57t-62 -85t-22.5 -104.5zM255 333q0 64 25 107t71.5 65t109.5 22q13 0 37.5 -1.5t42.5 -6.5q9 -2 15.5 -4.5t6.5 -8.5v-49q0 -14 -25 -3q-17 7 -35 10.5t-34 3.5q-39 0 -63 -15.5
t-35 -44t-11 -68.5q0 -36 10 -70t36 -55t71 -19q16 1 33.5 4.5t27.5 7.5q15 7 20.5 6t5.5 -9v-42q0 -7 -6.5 -11t-15.5 -7q-15 -4 -37.5 -5.5t-34.5 -1.5q-63 -3 -112 19t-76 66.5t-27 109.5z" />
    <glyph glyph-name="ordfeminine" unicode="&#xaa;" horiz-adv-x="470" 
d="M230 -7q-51 0 -95.5 11.5t-72 44.5t-27.5 96q0 52 19.5 85.5t50 51.5t63.5 24.5t59 6.5q21 0 40.5 -1.5t36.5 -4.5q9 -3 9 13q0 37 -22.5 52t-62.5 15q-38 0 -72.5 -14t-58.5 -26q-11 -6 -14.5 -4t-5.5 13l-9 56q-2 13 0 17t11 10q26 17 66 27.5t85 10.5q68 0 109 -15.5
t61.5 -41.5t27 -59.5t6.5 -69.5q1 -42 0.5 -82.5t-2.5 -80.5t-6 -81q-2 -11 -6 -16.5t-16 -11.5q-14 -7 -37 -11.5t-49.5 -8t-49.5 -5t-38 -1.5zM238 70q8 0 18 1t20 4.5t16.5 8.5t7.5 13q3 24 5 53t0 56q0 13 -10 18q-10 7 -28.5 8.5t-30.5 1.5q-9 0 -22.5 -3.5
t-25.5 -12.5t-19.5 -27t-7.5 -46q0 -22 9 -39t26 -26.5t42 -9.5z" />
    <glyph glyph-name="guillemotleft" unicode="&#xab;" horiz-adv-x="553" 
d="M383 148q-5 0 -8 4q-31 43 -62.5 87t-62.5 88q-11 10 0 19q31 44 62.5 87.5t62.5 87.5q2 2 4.5 2.5t3.5 0.5h54.5h52.5q6 0 5 -2.5t-3 -4.5q-1 -1 -14.5 -19.5t-32.5 -45.5t-37.5 -53.5t-31 -44.5l-12.5 -18l12.5 -18t31 -44.5t37.5 -53t32.5 -45.5t14.5 -20q2 -1 3 -4
t-5 -3h-52.5h-54.5zM174 148q-5 0 -8 4q-31 43 -62.5 87t-62.5 88q-11 10 0 19q31 44 62.5 87.5t62.5 87.5q2 2 4.5 2.5t3.5 0.5h54.5h52.5q6 0 5 -2.5t-3 -4.5q-1 -1 -14.5 -19.5t-32.5 -45.5t-37.5 -53.5t-31 -44.5l-12.5 -18l12.5 -18t31 -44.5t37.5 -53t32.5 -45.5
t14.5 -20q2 -1 3 -4t-5 -3h-52.5h-54.5z" />
    <glyph glyph-name="logicalnot" unicode="&#xac;" horiz-adv-x="708" 
d="M595 106q-9 0 -11 2t-2 9v180h-521q-8 0 -9.5 2t-1.5 8v58q0 7 2.5 9.5t10.5 2.5h583q7 0 9.5 -2t2.5 -9v-250q0 -7 -2.5 -8.5t-9.5 -1.5h-51z" />
    <glyph glyph-name="uni00AD" unicode="&#xad;" horiz-adv-x="403" 
d="M58 229q-9 0 -10 3t-1 9v67q0 8 1.5 10.5t10.5 2.5h286q7 0 9.5 -2t2.5 -10v-71q0 -6 -2 -7.5t-11 -1.5h-286z" />
    <glyph glyph-name="registered" unicode="&#xae;" horiz-adv-x="666" 
d="M333 193q-57 0 -106.5 20t-87.5 54.5t-59.5 81t-21.5 98.5q0 53 22 99t60 80.5t87.5 54t105.5 19.5q77 0 139 -34t99 -91t37 -128q0 -52 -21.5 -98.5t-59.5 -81t-87.5 -54.5t-106.5 -20zM333 256q57 0 103.5 26t74 69.5t27.5 95.5q0 53 -27.5 96t-74 68t-103.5 25
q-56 0 -102.5 -25t-74.5 -68t-28 -96q0 -52 28 -95.5t74.5 -69.5t102.5 -26zM247 317q-7 0 -7 5v258q0 6 7 6h78q54 0 78.5 -19.5t24.5 -65.5q0 -22 -10 -40t-28 -31q-6 -5 -8.5 -9t1.5 -12q6 -11 12.5 -19.5t16.5 -13.5q8 -4 17.5 -7t21.5 -3q5 0 5.5 -1t0.5 -5v-37
q0 -4 -2.5 -4.5t-18.5 -0.5q-19 0 -35 4.5t-29 12.5q-18 12 -34.5 28t-17.5 38l-1.5 3.5t-4.5 3.5h-9q-2 0 -2 -5v-81q0 -5 -6 -5h-50zM303 455q0 -3 4 -3h17q20 0 32 12.5t12 35.5q0 30 -11.5 39t-33.5 9h-17q-3 0 -3 -4v-89z" />
    <glyph glyph-name="macron" unicode="&#xaf;" horiz-adv-x="233" 
d="M233 537q0 -4 -1.5 -5t-9.5 -1h-212q-7 0 -8.5 2t-1.5 6v60q0 6 2 7.5t8 1.5h213q7 0 8.5 -1t1.5 -8v-62z" />
    <glyph glyph-name="degree" unicode="&#xb0;" horiz-adv-x="387" 
d="M47 685q0 39 19.5 71t52.5 51.5t74 19.5t74.5 -19.5t53 -51.5t19.5 -71t-19.5 -70.5t-53 -50.5t-74.5 -19t-74 19t-52.5 50.5t-19.5 70.5zM120 685q0 -30 21 -50t52 -20t51.5 20t20.5 50t-20.5 50t-51.5 20t-52 -20t-21 -50z" />
    <glyph glyph-name="plusminus" unicode="&#xb1;" horiz-adv-x="486" 
d="M206 159q-9 0 -11 2t-2 9v129h-131q-8 0 -9.5 2.5t-1.5 8.5v56q0 7 2 9t9 2h131v128q0 7 2 9t10 2h71q5 0 6.5 -2t1.5 -10v-127l142 -1q6 0 8 -2.5t2 -9.5v-59q0 -4 -1.5 -6t-9.5 -2l-141 2v-130q0 -7 -2.5 -8.5t-9.5 -1.5h-66zM64 27q-10 0 -12 2.5t-2 9.5v54
q0 8 2.5 10t12.5 2h355q10 0 12.5 -1.5t2.5 -9.5v-58q0 -6 -2 -7.5t-14 -1.5h-355z" />
    <glyph glyph-name="uni00B2" unicode="&#xb2;" horiz-adv-x="357" 
d="M42 250q-9 0 -11 1.5t-2 8.5v52q0 11 8 16q30 18 63 43t61 53.5t45.5 59t17.5 57.5q0 23 -16 42t-59 19q-31 0 -55 -9.5t-39 -18.5t-21 -9q-5 0 -5 7v69q0 6 1.5 8.5t10.5 7.5q19 10 53 21.5t69 11.5q41 0 77.5 -15t60.5 -47t24 -83q0 -30 -10.5 -57.5t-29 -54
t-44.5 -51.5t-58 -51q-1 -1 0 -3t2 -2h134q7 0 7 -6v-59q0 -8 -1.5 -9.5t-9.5 -1.5h-273z" />
    <glyph glyph-name="uni00B3" unicode="&#xb3;" horiz-adv-x="362" 
d="M168 247q-42 0 -77 16.5t-62 45.5q-6 6 -4.5 10.5t4.5 7.5l36 43q10 11 20 2q17 -17 38 -27.5t45 -10.5q21 0 35 7.5t21 20t7 25.5q0 15 -18 34.5t-59 19.5h-12h-16q-12 0 -12 14v52q0 14 12 14h20.5h23.5q24 0 38.5 14.5t14.5 30.5q0 15 -13.5 27t-44.5 12
q-22 0 -43.5 -9.5t-38.5 -27.5q-11 -11 -19 2l-33 56q-2 4 0 10t4 8q40 31 75 39t62 8q48 0 80 -16.5t48.5 -42.5t16.5 -55q0 -36 -20.5 -62t-45.5 -32q-4 -1 -6.5 -1.5l-2.5 -0.5h2.5t7.5 -2q32 -5 55 -28t23 -64q0 -34 -19 -66.5t-55 -53t-88 -20.5z" />
    <glyph glyph-name="acute" unicode="&#xb4;" horiz-adv-x="181" 
d="M10 525q-9 0 -9.5 3.5t6.5 12.5l65 93q5 8 21 8h80q6 0 8 -3t-5 -10l-87 -97q-5 -6 -9 -6.5t-12 -0.5h-58z" />
    <glyph glyph-name="uni00B5" unicode="&#xb5;" horiz-adv-x="541" 
d="M72 -108q-9 0 -13 3.5t-6 14.5q-1 20 -2 57t-1.5 83.5t0.5 96.5q-1 21 -2 39.5t-1 35.5q0 37 2 77t4.5 78.5t6.5 69.5q1 18 5.5 21.5t18.5 3.5h86q12 0 16 -3.5t2 -15.5q0 -5 -2 -30t-4 -61.5t-3.5 -75.5t-1.5 -72q0 -68 19.5 -93t59.5 -25q25 0 38.5 7.5t13.5 21.5v330
q0 10 2.5 13.5t10.5 3.5h99q7 0 10.5 -3.5t3.5 -13.5v-323q0 -22 10 -30.5t23 -8.5q11 0 21 3.5t15 6.5q15 10 20 -5l18 -61q3 -13 -16 -22q-20 -9 -36.5 -14.5t-42.5 -5.5q-18 0 -40 7t-39 21.5t-24 34.5l38 -8q-23 -24 -57 -39t-72 -15t-69 15t-45 38l29 6q2 -15 4 -35
t3 -40q2 -14 4 -28.5t3 -25t1 -15.5q2 -10 -1 -14.5t-14 -4.5h-95z" />
    <glyph glyph-name="paragraph" unicode="&#xb6;" horiz-adv-x="560" 
d="M226 299q-9 0 -16.5 0.5t-15.5 1.5q-39 4 -69 20.5t-50 42.5t-30 56.5t-10 63.5q0 53 20.5 95.5t63.5 68t110 25.5h142h140q10 0 13.5 -2t3.5 -11v-51q0 -14 -1.5 -17t-8.5 -3h-17h-17v-156.5v-172.5v-172.5v-156.5q0 -8 -1 -9.5t-8 -1.5h-77q-10 0 -12 1.5t-2 9.5v155
v171.5v171.5v155q0 3 -5 5h-22h-21q-5 -1 -5 -4v-654q0 -8 -1.5 -9.5t-8.5 -1.5h-87q-5 0 -6.5 1t-1.5 10v368z" />
    <glyph glyph-name="periodcentered" unicode="&#xb7;" horiz-adv-x="305" 
d="M213 288q0 -26 -12.5 -39.5t-53.5 -13.5q-34 0 -49.5 13.5t-15.5 39.5t15.5 39.5t49.5 13.5q41 0 53.5 -13.5t12.5 -39.5z" />
    <glyph glyph-name="cedilla" unicode="&#xb8;" horiz-adv-x="207" 
d="M194 -127q0 -30 -25.5 -54t-69.5 -24q-34 0 -56.5 13.5t-36.5 31.5q-6 8 -6 16.5t9 12.5l21 9q10 5 15 3.5t8 -6.5q6 -12 16 -19t22 -7q17 0 25 9t8 19q0 12 -8.5 19t-21.5 10.5t-28 3.5q-9 0 -13 6.5t1 13.5l36 62q4 6 8.5 8.5t10.5 2.5h30q12 0 7 -12l-27 -66l-20 26
q47 -5 71 -24t24 -54z" />
    <glyph glyph-name="uni00B9" unicode="&#xb9;" horiz-adv-x="213" 
d="M75 250q-10 0 -10 10v312q0 4 -4 2l-49 -24q-4 -2 -8.5 -1.5t-6.5 4.5l-29 50q-7 10 5 17l117 63q5 3 8 3.5t8 0.5h54q9 0 9 -9v-418q0 -10 -9 -10h-85z" />
    <glyph glyph-name="ordmasculine" unicode="&#xba;" horiz-adv-x="503" 
d="M251 -8q-87 0 -134.5 32.5t-66 88t-18.5 126.5q0 69 21 123.5t68.5 86t129.5 31.5q83 0 130.5 -31.5t68 -86t20.5 -123.5q0 -70 -18 -125.5t-65.5 -88.5t-135.5 -33zM250 90q49 0 69 38t20 107t-21.5 104.5t-67.5 35.5q-45 0 -66.5 -35.5t-21.5 -104.5q0 -70 19.5 -107.5
t68.5 -37.5z" />
    <glyph glyph-name="guillemotright" unicode="&#xbb;" horiz-adv-x="574" 
d="M293 148q-5 0 -3.5 3t2.5 4t14.5 20t32 45.5l37 53t31 44.5l12.5 18l-12.5 18t-31 44.5t-37 53.5t-32 45.5t-14.5 19.5q-1 2 -2.5 4.5t3.5 2.5h53.5h53.5q2 0 4 -0.5t4 -2.5q31 -44 62.5 -87.5t63.5 -87.5q10 -9 0 -19q-32 -44 -63.5 -88t-62.5 -87q-3 -4 -8 -4h-53.5
h-53.5zM62 148q-5 0 -3.5 3t2.5 4t14.5 20t32 45.5t37.5 53t31.5 44.5l12.5 18l-12.5 18t-31.5 44.5t-37.5 53.5t-32 45.5t-14.5 19.5q-1 2 -2.5 4.5t3.5 2.5h53.5h54.5q2 0 4 -0.5t4 -2.5q31 -44 62.5 -87.5t62.5 -87.5q11 -9 0 -19q-31 -44 -62.5 -88t-62.5 -87
q-3 -4 -8 -4h-54.5h-53.5z" />
    <glyph glyph-name="onequarter" unicode="&#xbc;" horiz-adv-x="788" 
d="M159 245q-8 0 -8 8v344q0 6 -4 3l-58 -31q-9 -5 -13 3l-26 43q-4 8 5 14l116 65q4 3 7 4t8 1h45q9 0 9 -9v-437q0 -8 -9 -8h-72zM610 -2q-8 0 -8 9v100q0 7 -7 7h-174q-8 0 -8 9v42q0 5 3.5 10.5t4.5 8.5l188 267q3 5 5.5 7t7.5 2h55q9 0 9 -10v-265q0 -7 7 -7h41
q5 0 5 -6v-51q0 -7 -5 -7h-41q-7 0 -7 -7v-100q0 -9 -8 -9h-68zM511 178h84q7 0 7 7v137q0 4 -1.5 4t-2.5 -3l-91 -137q-2 -4 -1 -6t5 -2zM170 0q-9 0 -9.5 4.5t3.5 10.5l395 675q3 7 5.5 8.5t10.5 1.5h54q10 0 12.5 -4.5t-6.5 -24.5l-386 -657q-4 -6 -8 -10t-12 -4h-59z
" />
    <glyph glyph-name="onehalf" unicode="&#xbd;" horiz-adv-x="840" 
d="M153 0q-8 0 -9 4.5t4 10.5l394 675q3 7 5.5 8.5t10.5 1.5h54q10 0 12.5 -4.5t-6.5 -24.5l-386 -657q-3 -6 -7.5 -10t-12.5 -4h-59zM159 245q-8 0 -8 8v344q0 6 -4 3l-58 -31q-9 -5 -13 3l-26 43q-4 8 5 14l116 65q4 3 7 4t8 1h45q9 0 9 -9v-437q0 -8 -9 -8h-72zM513 0
q-7 0 -8.5 1.5t-1.5 6.5v46q0 9 6 13q31 20 64.5 47t63 57.5t47.5 63.5t18 66q0 21 -8.5 37.5t-26 25.5t-45.5 9q-30 0 -52 -8.5t-36.5 -17t-20.5 -9.5q-7 -1 -7 6v57q0 6 1.5 8.5t7.5 5.5q12 7 30.5 14.5t40.5 13t46 5.5q39 0 74.5 -15t57.5 -47t22 -82q0 -34 -11.5 -64.5
t-32.5 -60t-49 -57t-61 -52.5q-1 -2 -0.5 -3.5t3.5 -1.5h147q6 0 6 -6v-50q0 -7 -1 -8t-9 -1h-265z" />
    <glyph glyph-name="threequarters" unicode="&#xbe;" horiz-adv-x="835" 
d="M657 -2q-8 0 -8 9v100q0 7 -7 7h-174q-9 0 -9 9v42q0 5 3.5 10.5t5.5 8.5l188 267q3 5 5.5 7t7.5 2h55q9 0 9 -10v-265q0 -7 7 -7h40q6 0 6 -6v-51q0 -7 -6 -7h-40q-7 0 -7 -7v-100q0 -9 -8 -9h-68zM557 178h85q7 0 7 7v137q0 4 -1.5 4t-2.5 -3l-92 -137q-2 -4 -0.5 -6
t4.5 -2zM172 253q-27 0 -50.5 7t-43.5 19.5t-36 29.5q-5 6 -4 9.5t4 6.5l30 36q8 10 16 1q17 -17 38 -26.5t45 -9.5q22 0 38 9t24 24t8 30q0 14 -8.5 29t-26.5 25.5t-47 10.5h-11.5h-11.5q-5 0 -8 2.5t-3 9.5v43q0 12 11 12h15.5h20.5q19 0 33 8.5t21 21.5t7 27q0 13 -7 24
t-21 18t-36 7q-21 0 -43.5 -10.5t-38.5 -25.5q-9 -9 -15 1l-28 47q-2 4 -0.5 8.5t2.5 5.5q24 18 47 28.5t44 13.5t38 3q45 0 75 -16t45 -41.5t15 -54.5q0 -35 -18.5 -61t-44.5 -35l-8 -2q0 -1 9 -3q32 -7 53.5 -31.5t21.5 -64.5q0 -34 -18 -65.5t-51.5 -51t-81.5 -19.5z
M206 0q-9 0 -9.5 4.5t3.5 10.5l395 675q3 7 5 8.5t10 1.5h55q9 0 12 -4.5t-6 -24.5l-386 -657q-4 -6 -8 -10t-12 -4h-59z" />
    <glyph glyph-name="questiondown" unicode="&#xbf;" horiz-adv-x="459" 
d="M340 316q10 0 11.5 -5t1.5 -15q0 -48 -6.5 -82t-18.5 -60t-30 -46t-41 -39q-13 -12 -30.5 -23t-33.5 -23.5t-25.5 -28t-6.5 -35.5q1 -27 22.5 -40t52.5 -13q45 0 83 13.5t55 21.5q9 5 12 7t7 -10l24 -72q3 -9 -5 -15t-14 -9q-34 -18 -77.5 -27.5t-77.5 -9.5
q-92 0 -147 41.5t-55 116.5q0 49 19.5 79t47 49.5t53.5 37.5q33 23 51 48t25.5 55.5t7.5 67.5q0 10 2 13t7 3h86zM366 441q0 -25 -15.5 -38.5t-49.5 -13.5q-40 0 -53 13.5t-13 38.5q0 26 13 40t53 14q34 0 49.5 -14t15.5 -40z" />
    <glyph glyph-name="Agrave" unicode="&#xc0;" horiz-adv-x="550" 
d="M31 0q-8 0 -10 7t1 27q7 45 21 108.5t33 134.5t40.5 142t44.5 132.5t44 102.5q6 9 10.5 14t11.5 5h95q8 -3 13 -6.5t10 -12.5q21 -41 44 -102.5t45 -132.5t41 -142.5t33 -135t20 -107.5q4 -20 2 -27t-11 -7h-103q-8 0 -11 4.5t-7 23.5q-4 23 -10.5 54.5t-11.5 55.5
q-1 7 -3 8.5t-9 1.5h-178q-7 -1 -8 -2t-3 -9q-5 -23 -11.5 -54.5t-11.5 -55.5q-3 -18 -6 -22.5t-11 -4.5h-104zM214 249h122q7 0 8.5 2.5t-0.5 9.5q-13 51 -28 106.5t-31 100.5q-2 9 -7 9h-7q-4 0 -7 -9q-8 -26 -18.5 -61t-20.5 -73t-19 -74q-1 -6 0 -8.5t8 -2.5zM271 716
q-7 0 -12 3t-13 9l-100 75q-4 3 -1 8t7 5h93q10 0 14 -2.5t10 -9.5l64 -72q6 -6 5.5 -11t-7.5 -5h-60z" />
    <glyph glyph-name="Aacute" unicode="&#xc1;" horiz-adv-x="550" 
d="M31 0q-8 0 -10 7t1 27q7 45 21 108.5t33 134.5t40.5 142t44.5 132.5t44 102.5q6 9 10.5 14t11.5 5h95q8 -3 13 -6.5t10 -12.5q21 -41 44 -102.5t45 -132.5t41 -142.5t33 -135t20 -107.5q4 -20 2 -27t-11 -7h-103q-8 0 -11 4.5t-7 23.5q-4 23 -10.5 54.5t-11.5 55.5
q-1 7 -3 8.5t-9 1.5h-178q-7 -1 -8 -2t-3 -9q-5 -23 -11.5 -54.5t-11.5 -55.5q-3 -18 -6 -22.5t-11 -4.5h-104zM214 249h122q7 0 8.5 2.5t-0.5 9.5q-13 51 -28 106.5t-31 100.5q-2 9 -7 9h-7q-4 0 -7 -9q-8 -26 -18.5 -61t-20.5 -73t-19 -74q-1 -6 0 -8.5t8 -2.5zM278 716
h-60q-7 0 -7.5 5t5.5 11l64 72q6 7 10 9.5t14 2.5h93q5 0 8 -5t-2 -8l-100 -75q-8 -6 -13 -9t-12 -3z" />
    <glyph glyph-name="Acircumflex" unicode="&#xc2;" horiz-adv-x="550" 
d="M31 0q-8 0 -10 7t1 27q7 45 21 108.5t33 134.5t40.5 142t44.5 132.5t44 102.5q6 9 10.5 14t11.5 5h95q8 -3 13 -6.5t10 -12.5q21 -41 44 -102.5t45 -132.5t41 -142.5t33 -135t20 -107.5q4 -20 2 -27t-11 -7h-103q-8 0 -11 4.5t-7 23.5q-4 23 -10.5 54.5t-11.5 55.5
q-1 7 -3 8.5t-9 1.5h-178q-7 -1 -8 -2t-3 -9q-5 -23 -11.5 -54.5t-11.5 -55.5q-3 -18 -6 -22.5t-11 -4.5h-104zM214 249h122q7 0 8.5 2.5t-0.5 9.5q-13 51 -28 106.5t-31 100.5q-2 9 -7 9h-7q-4 0 -7 -9q-8 -26 -18.5 -61t-20.5 -73t-19 -74q-1 -6 0 -8.5t8 -2.5zM159 714
q-4 0 -5 3t1 6l80 87q5 6 10 6h59q6 0 11 -5l81 -88q2 -3 1.5 -6t-5.5 -3h-53q-7 0 -10.5 2t-8.5 5l-39 32q-5 4 -11 0l-41 -33q-3 -3 -6.5 -4.5t-8.5 -1.5h-55z" />
    <glyph glyph-name="Atilde" unicode="&#xc3;" horiz-adv-x="550" 
d="M31 0q-8 0 -10 7t1 27q7 45 21 108.5t33 134.5t40.5 142t44.5 132.5t44 102.5q6 9 10.5 14t11.5 5h95q8 -3 13 -6.5t10 -12.5q21 -41 44 -102.5t45 -132.5t41 -142.5t33 -135t20 -107.5q4 -20 2 -27t-11 -7h-103q-8 0 -11 4.5t-7 23.5q-4 23 -10.5 54.5t-11.5 55.5
q-1 7 -3 8.5t-9 1.5h-178q-7 -1 -8 -2t-3 -9q-5 -23 -11.5 -54.5t-11.5 -55.5q-3 -18 -6 -22.5t-11 -4.5h-104zM214 249h122q7 0 8.5 2.5t-0.5 9.5q-13 51 -28 106.5t-31 100.5q-2 9 -7 9h-7q-4 0 -7 -9q-8 -26 -18.5 -61t-20.5 -73t-19 -74q-1 -6 0 -8.5t8 -2.5zM170 717
q-6 0 -6 6q0 41 18 65t53 24q16 0 31 -9.5t27.5 -19t18.5 -9.5q5 0 9 5.5t4 15.5q0 8 5 8h51q6 0 6 -7q0 -36 -20 -61.5t-52 -25.5q-21 0 -35.5 9t-24.5 18t-18 9q-7 0 -10 -5t-3 -16q0 -7 -5 -7h-49z" />
    <glyph glyph-name="Adieresis" unicode="&#xc4;" horiz-adv-x="550" 
d="M31 0q-8 0 -10 7t1 27q7 45 21 108.5t33 134.5t40.5 142t44.5 132.5t44 102.5q6 9 10.5 14t11.5 5h95q8 -3 13 -6.5t10 -12.5q21 -41 44 -102.5t45 -132.5t41 -142.5t33 -135t20 -107.5q4 -20 2 -27t-11 -7h-103q-8 0 -11 4.5t-7 23.5q-4 23 -10.5 54.5t-11.5 55.5
q-1 7 -3 8.5t-9 1.5h-178q-7 -1 -8 -2t-3 -9q-5 -23 -11.5 -54.5t-11.5 -55.5q-3 -18 -6 -22.5t-11 -4.5h-104zM214 249h122q7 0 8.5 2.5t-0.5 9.5q-13 51 -28 106.5t-31 100.5q-2 9 -7 9h-7q-4 0 -7 -9q-8 -26 -18.5 -61t-20.5 -73t-19 -74q-1 -6 0 -8.5t8 -2.5zM250 775
q0 -23 -12 -35.5t-44 -12.5q-28 0 -41 12.5t-13 35.5t13 35t41 12q32 0 44 -12t12 -35zM410 775q0 -23 -11 -35.5t-43 -12.5q-30 0 -42.5 12.5t-12.5 35.5t12.5 35t42.5 12q32 0 43 -12t11 -35z" />
    <glyph glyph-name="Aring" unicode="&#xc5;" horiz-adv-x="550" 
d="M31 0q-8 0 -10 7t1 27q7 45 21 108.5t33 134.5t40.5 142t44.5 132.5t44 102.5q6 9 10.5 14t11.5 5h95q8 -3 13 -6.5t10 -12.5q21 -41 44 -102.5t45 -132.5t41 -142.5t33 -135t20 -107.5q4 -20 2 -27t-11 -7h-103q-8 0 -11 4.5t-7 23.5q-4 23 -10.5 54.5t-11.5 55.5
q-1 7 -3 8.5t-9 1.5h-178q-7 -1 -8 -2t-3 -9q-5 -23 -11.5 -54.5t-11.5 -55.5q-3 -18 -6 -22.5t-11 -4.5h-104zM214 249h122q7 0 8.5 2.5t-0.5 9.5q-13 51 -28 106.5t-31 100.5q-2 9 -7 9h-7q-4 0 -7 -9q-8 -26 -18.5 -61t-20.5 -73t-19 -74q-1 -6 0 -8.5t8 -2.5zM369 799
q0 -41 -21.5 -66t-71.5 -25q-52 0 -73.5 25t-21.5 66q0 40 21.5 64.5t73.5 24.5q50 0 71.5 -24t21.5 -65zM316 801q0 13 -8 21.5t-32 8.5q-25 0 -31.5 -8.5t-6.5 -21.5q0 -11 6.5 -22t32.5 -11t32.5 11t6.5 22z" />
    <glyph glyph-name="AE" unicode="&#xc6;" horiz-adv-x="778" 
d="M393 0q-13 0 -13 12v136h-188q-6 -1 -7.5 -2t-3.5 -9q-6 -23 -13.5 -54.5t-11.5 -55.5q-4 -18 -7 -22.5t-11 -4.5h-103q-9 0 -11 7t2 27q6 45 24.5 106.5t46 130.5t61 138.5t69.5 133t71 111.5q7 9 13 14t13 5h403q12 0 14 -2t2 -13v-70q0 -12 -2.5 -14.5t-13.5 -2.5
h-205q-7 0 -8.5 -1t-1.5 -7v-165q0 -6 1.5 -7.5t7.5 -1.5h161q14 0 16 -2.5t2 -16.5v-63q0 -13 -3 -15.5t-15 -2.5h-161q-5 0 -7 -1t-2 -6v-171q0 -6 1.5 -7.5t7.5 -1.5h204q13 0 15.5 -3t2.5 -16v-64q0 -14 -3 -16.5t-15 -2.5h-332zM380 249v275q0 8 -5 8h-7
q-2 0 -4.5 -1.5t-6.5 -8.5q-19 -24 -43.5 -69t-50 -96.5t-46.5 -97.5q-1 -1 0.5 -5.5t5.5 -4.5h157z" />
    <glyph glyph-name="Ccedilla" unicode="&#xc7;" horiz-adv-x="470" 
d="M438 35q0 -24 -28 -31q-14 -5 -34.5 -7.5t-39 -3.5t-28.5 -1q-121 0 -194 87t-73 256q0 170 70.5 257.5t196.5 87.5q10 0 28.5 -1.5t39 -4t34.5 -7.5q14 -3 21 -8t7 -14v-87q0 -27 -29 -7q-20 13 -44 19.5t-47 6.5q-41 0 -68.5 -17.5t-43.5 -49t-23 -72.5t-7 -90
q0 -33 3.5 -68t12 -68.5t24 -60.5t41 -42.5t61.5 -15.5q26 0 50 6.5t38 14.5q19 12 25.5 11t6.5 -16v-74zM383 -131q0 -30 -25.5 -54t-69.5 -24q-34 0 -56.5 13.5t-36.5 31.5q-6 8 -6 16.5t9 12.5l21 9q10 5 15 3.5t8 -6.5q6 -12 16 -19t22 -7q17 0 25 9t8 19q0 12 -8.5 19
t-21.5 10.5t-28 3.5q-9 0 -13 6.5t1 13.5l36 62q4 6 8.5 8.5t10.5 2.5h30q12 0 7 -12l-27 -66l-20 26q47 -5 71 -24t24 -54z" />
    <glyph glyph-name="Egrave" unicode="&#xc8;" horiz-adv-x="455" 
d="M78 0q-13 0 -13 12v648q0 13 13 13h334q12 0 14 -2t2 -13v-70q0 -12 -3 -14.5t-13 -2.5h-206q-7 0 -8 -1t-1 -7v-165q0 -6 1.5 -7.5t6.5 -1.5h162q13 0 15 -2.5t2 -16.5v-63q0 -13 -2.5 -15.5t-14.5 -2.5h-162q-5 0 -6.5 -1t-1.5 -6v-171q0 -6 1 -7.5t7 -1.5h205
q14 0 16 -3t2 -16v-64q0 -14 -3 -16.5t-16 -2.5h-331zM237 716q-7 0 -12 3t-13 9l-100 75q-4 3 -1 8t7 5h93q10 0 14 -2.5t10 -9.5l64 -72q6 -6 5.5 -11t-7.5 -5h-60z" />
    <glyph glyph-name="Eacute" unicode="&#xc9;" horiz-adv-x="455" 
d="M78 0q-13 0 -13 12v648q0 13 13 13h334q12 0 14 -2t2 -13v-70q0 -12 -3 -14.5t-13 -2.5h-206q-7 0 -8 -1t-1 -7v-165q0 -6 1.5 -7.5t6.5 -1.5h162q13 0 15 -2.5t2 -16.5v-63q0 -13 -2.5 -15.5t-14.5 -2.5h-162q-5 0 -6.5 -1t-1.5 -6v-171q0 -6 1 -7.5t7 -1.5h205
q14 0 16 -3t2 -16v-64q0 -14 -3 -16.5t-16 -2.5h-331zM244 716h-60q-7 0 -7.5 5t5.5 11l64 72q6 7 10 9.5t14 2.5h93q5 0 8 -5t-2 -8l-100 -75q-8 -6 -13 -9t-12 -3z" />
    <glyph glyph-name="Ecircumflex" unicode="&#xca;" horiz-adv-x="455" 
d="M78 0q-13 0 -13 12v648q0 13 13 13h334q12 0 14 -2t2 -13v-70q0 -12 -3 -14.5t-13 -2.5h-206q-7 0 -8 -1t-1 -7v-165q0 -6 1.5 -7.5t6.5 -1.5h162q13 0 15 -2.5t2 -16.5v-63q0 -13 -2.5 -15.5t-14.5 -2.5h-162q-5 0 -6.5 -1t-1.5 -6v-171q0 -6 1 -7.5t7 -1.5h205
q14 0 16 -3t2 -16v-64q0 -14 -3 -16.5t-16 -2.5h-331zM125 714q-4 0 -5 3t1 6l80 87q5 6 10 6h59q6 0 11 -5l81 -88q2 -3 1.5 -6t-5.5 -3h-53q-7 0 -10.5 2t-8.5 5l-39 32q-5 4 -11 0l-41 -33q-3 -3 -6.5 -4.5t-8.5 -1.5h-55z" />
    <glyph glyph-name="Edieresis" unicode="&#xcb;" horiz-adv-x="455" 
d="M78 0q-13 0 -13 12v648q0 13 13 13h334q12 0 14 -2t2 -13v-70q0 -12 -3 -14.5t-13 -2.5h-206q-7 0 -8 -1t-1 -7v-165q0 -6 1.5 -7.5t6.5 -1.5h162q13 0 15 -2.5t2 -16.5v-63q0 -13 -2.5 -15.5t-14.5 -2.5h-162q-5 0 -6.5 -1t-1.5 -6v-171q0 -6 1 -7.5t7 -1.5h205
q14 0 16 -3t2 -16v-64q0 -14 -3 -16.5t-16 -2.5h-331zM216 775q0 -23 -12 -35.5t-44 -12.5q-28 0 -41 12.5t-13 35.5t13 35t41 12q32 0 44 -12t12 -35zM376 775q0 -23 -11 -35.5t-43 -12.5q-30 0 -42.5 12.5t-12.5 35.5t12.5 35t42.5 12q32 0 43 -12t11 -35z" />
    <glyph glyph-name="Igrave" unicode="&#xcc;" horiz-adv-x="261" 
d="M197 12q0 -12 -14 -12h-104q-14 0 -14 12v648q0 13 14 13h104q14 0 14 -13v-648zM127 716q-7 0 -12 3t-13 9l-100 75q-4 3 -1 8t7 5h93q10 0 14 -2.5t10 -9.5l64 -72q6 -6 5.5 -11t-7.5 -5h-60z" />
    <glyph glyph-name="Iacute" unicode="&#xcd;" horiz-adv-x="261" 
d="M197 12q0 -12 -14 -12h-104q-14 0 -14 12v648q0 13 14 13h104q14 0 14 -13v-648zM133 716h-60q-7 0 -7.5 5t5.5 11l64 72q6 7 10 9.5t14 2.5h93q5 0 8 -5t-2 -8l-100 -75q-8 -6 -13 -9t-12 -3z" />
    <glyph glyph-name="Icircumflex" unicode="&#xce;" horiz-adv-x="261" 
d="M197 12q0 -12 -14 -12h-104q-14 0 -14 12v648q0 13 14 13h104q14 0 14 -13v-648zM15 714q-4 0 -5 3t1 6l80 87q5 6 10 6h59q6 0 11 -5l81 -88q2 -3 1.5 -6t-5.5 -3h-53q-7 0 -10.5 2t-8.5 5l-39 32q-5 4 -11 0l-41 -33q-3 -3 -6.5 -4.5t-8.5 -1.5h-55z" />
    <glyph glyph-name="Idieresis" unicode="&#xcf;" horiz-adv-x="261" 
d="M197 12q0 -12 -14 -12h-104q-14 0 -14 12v648q0 13 14 13h104q14 0 14 -13v-648zM106 775q0 -23 -12 -35.5t-44 -12.5q-28 0 -41 12.5t-13 35.5t13 35t41 12q32 0 44 -12t12 -35zM266 775q0 -23 -11 -35.5t-43 -12.5q-30 0 -42.5 12.5t-12.5 35.5t12.5 35t42.5 12
q32 0 43 -12t11 -35z" />
    <glyph glyph-name="Eth" unicode="&#xd0;" horiz-adv-x="602" 
d="M590 346q0 -87 -19 -147.5t-49.5 -99.5t-67.5 -60.5t-73.5 -30t-66.5 -8.5h-189q-13 0 -13 12v648q0 13 13 13h189q36 0 74.5 -6.5t74.5 -25t64.5 -54.5t45.5 -94.5t17 -146.5zM459 346q0 83 -14.5 129.5t-38 66.5t-49.5 24.5t-48 4.5h-54q-8 0 -9.5 -1t-1.5 -7v-452
q0 -6 1.5 -7.5t7.5 -1.5h40q24 0 52 7t54.5 31t43 73t16.5 133zM41 287q-9 0 -10 3t-1 9v67q0 8 1.5 10.5t10.5 2.5h286q7 0 9.5 -2t2.5 -10v-71q0 -6 -2 -7.5t-11 -1.5h-286z" />
    <glyph glyph-name="Ntilde" unicode="&#xd1;" horiz-adv-x="642" 
d="M435 276q3 -4 8 -4t5 6q1 31 0.5 66t-1 73.5t-2 79.5t-5 81.5t-8.5 80.5q-1 14 7 14h107q6 0 11.5 -3.5t6.5 -9.5q7 -37 11.5 -89.5t6 -114t0.5 -125t-3.5 -124t-6 -111t-7.5 -84.5q-1 -8 -6.5 -10t-12.5 -2h-68q-7 0 -16 16l-259 386q-1 4 -5 4t-4 -5v-101.5t0.5 -89
t2.5 -77t4 -66t6 -54.5q1 -13 -7 -13h-105q-6 0 -12.5 2t-7.5 10q-4 34 -7 84.5t-5 111t-2.5 124.5t1 125.5t5.5 114t11 88.5q2 6 7.5 9.5t10.5 3.5h65q9 0 13 -9zM208 717q-6 0 -6 6q0 41 18 65t53 24q16 0 31 -9.5t27.5 -19t18.5 -9.5q5 0 9 5.5t4 15.5q0 8 5 8h51
q6 0 6 -7q0 -36 -20 -61.5t-52 -25.5q-21 0 -35.5 9t-24.5 18t-18 9q-7 0 -10 -5t-3 -16q0 -7 -5 -7h-49z" />
    <glyph glyph-name="Ograve" unicode="&#xd2;" horiz-adv-x="638" 
d="M41 334q0 109 23.5 186t84 117.5t169.5 40.5q84 0 139 -23t85.5 -67t42 -108t11.5 -146t-11.5 -145.5t-42 -107.5t-85.5 -67t-139 -23q-109 0 -169.5 40.5t-84 117t-23.5 185.5zM178 334q0 -93 15 -143.5t45 -70.5t79 -20q48 0 79 19.5t47.5 70.5t16.5 144
q0 94 -16.5 145.5t-47.5 71.5t-80 20q-48 0 -78.5 -20.5t-45 -71.5t-14.5 -145zM315 716q-7 0 -12 3t-13 9l-100 75q-4 3 -1 8t7 5h93q10 0 14 -2.5t10 -9.5l64 -72q6 -6 5.5 -11t-7.5 -5h-60z" />
    <glyph glyph-name="Oacute" unicode="&#xd3;" horiz-adv-x="638" 
d="M41 334q0 109 23.5 186t84 117.5t169.5 40.5q84 0 139 -23t85.5 -67t42 -108t11.5 -146t-11.5 -145.5t-42 -107.5t-85.5 -67t-139 -23q-109 0 -169.5 40.5t-84 117t-23.5 185.5zM178 334q0 -93 15 -143.5t45 -70.5t79 -20q48 0 79 19.5t47.5 70.5t16.5 144
q0 94 -16.5 145.5t-47.5 71.5t-80 20q-48 0 -78.5 -20.5t-45 -71.5t-14.5 -145zM322 716h-60q-7 0 -7.5 5t5.5 11l64 72q6 7 10 9.5t14 2.5h93q5 0 8 -5t-2 -8l-100 -75q-8 -6 -13 -9t-12 -3z" />
    <glyph glyph-name="Ocircumflex" unicode="&#xd4;" horiz-adv-x="638" 
d="M41 334q0 109 23.5 186t84 117.5t169.5 40.5q84 0 139 -23t85.5 -67t42 -108t11.5 -146t-11.5 -145.5t-42 -107.5t-85.5 -67t-139 -23q-109 0 -169.5 40.5t-84 117t-23.5 185.5zM178 334q0 -93 15 -143.5t45 -70.5t79 -20q48 0 79 19.5t47.5 70.5t16.5 144
q0 94 -16.5 145.5t-47.5 71.5t-80 20q-48 0 -78.5 -20.5t-45 -71.5t-14.5 -145zM203 714q-4 0 -5 3t1 6l80 87q5 6 10 6h59q6 0 11 -5l81 -88q2 -3 1.5 -6t-5.5 -3h-53q-7 0 -10.5 2t-8.5 5l-39 32q-5 4 -11 0l-41 -33q-3 -3 -6.5 -4.5t-8.5 -1.5h-55z" />
    <glyph glyph-name="Otilde" unicode="&#xd5;" horiz-adv-x="638" 
d="M41 334q0 109 23.5 186t84 117.5t169.5 40.5q84 0 139 -23t85.5 -67t42 -108t11.5 -146t-11.5 -145.5t-42 -107.5t-85.5 -67t-139 -23q-109 0 -169.5 40.5t-84 117t-23.5 185.5zM178 334q0 -93 15 -143.5t45 -70.5t79 -20q48 0 79 19.5t47.5 70.5t16.5 144
q0 94 -16.5 145.5t-47.5 71.5t-80 20q-48 0 -78.5 -20.5t-45 -71.5t-14.5 -145zM214 717q-6 0 -6 6q0 41 18 65t53 24q16 0 31 -9.5t27.5 -19t18.5 -9.5q5 0 9 5.5t4 15.5q0 8 5 8h51q6 0 6 -7q0 -36 -20 -61.5t-52 -25.5q-21 0 -35.5 9t-24.5 18t-18 9q-7 0 -10 -5t-3 -16
q0 -7 -5 -7h-49z" />
    <glyph glyph-name="Odieresis" unicode="&#xd6;" horiz-adv-x="638" 
d="M41 334q0 109 23.5 186t84 117.5t169.5 40.5q84 0 139 -23t85.5 -67t42 -108t11.5 -146t-11.5 -145.5t-42 -107.5t-85.5 -67t-139 -23q-109 0 -169.5 40.5t-84 117t-23.5 185.5zM178 334q0 -93 15 -143.5t45 -70.5t79 -20q48 0 79 19.5t47.5 70.5t16.5 144
q0 94 -16.5 145.5t-47.5 71.5t-80 20q-48 0 -78.5 -20.5t-45 -71.5t-14.5 -145zM294 775q0 -23 -12 -35.5t-44 -12.5q-28 0 -41 12.5t-13 35.5t13 35t41 12q32 0 44 -12t12 -35zM454 775q0 -23 -11 -35.5t-43 -12.5q-30 0 -42.5 12.5t-12.5 35.5t12.5 35t42.5 12
q32 0 43 -12t11 -35z" />
    <glyph glyph-name="multiply" unicode="&#xd7;" horiz-adv-x="517" 
d="M47 162q-5 6 -7 10t4 10l151 136l-139 128q-5 4 -2.5 9t7.5 9l41 40q5 5 8 4.5t7 -4.5l141 -129l142 129q4 4 7 4.5t8 -4.5l41 -40q6 -4 8 -9t-3 -9l-139 -128l151 -136q5 -6 3.5 -10t-6.5 -10l-38 -37q-7 -6 -11.5 -6t-11.5 6l-151 138l-151 -138q-6 -6 -10.5 -6
t-11.5 6z" />
    <glyph glyph-name="Oslash" unicode="&#xd8;" horiz-adv-x="633" 
d="M155 -37q-3 -6 -7.5 -9.5t-13.5 -3.5h-90q-6 0 -6.5 4.5t2.5 10.5l437 748q5 8 8.5 9t9.5 1h85q10 0 10.5 -4.5t-10.5 -23.5zM41 334q0 109 23.5 186t84 117.5t169.5 40.5q85 0 139.5 -23t85 -67t42 -108t11.5 -146t-11.5 -145.5t-42 -107.5t-85 -67t-139.5 -23
q-109 0 -169.5 40.5t-84 117t-23.5 185.5zM178 334q0 -93 14.5 -144t45 -70.5t78.5 -19.5q49 0 80 19.5t47.5 70.5t16.5 144q0 94 -16.5 145.5t-47.5 71.5t-80 20q-48 0 -78.5 -20.5t-45 -71.5t-14.5 -145z" />
    <glyph glyph-name="Ugrave" unicode="&#xd9;" horiz-adv-x="635" 
d="M317 -8q-86 0 -135.5 19.5t-74.5 50t-33 61.5t-11 55q-4 39 -6 83t-2 80q0 47 2 103t6.5 113t12.5 105q1 7 6 9t12 2h48h49q9 0 10 -3t0 -21q-4 -40 -7 -82t-5 -85q-4 -75 -4 -145.5t6 -138.5q2 -29 10.5 -49t24 -32.5t38 -18t50.5 -5.5q30 0 52 5.5t37.5 18t24.5 32.5
t12 49q5 67 4.5 137.5t-3.5 145.5q-1 43 -4.5 85.5t-7.5 82.5q-1 18 0 21t11 3h50.5h50.5q8 0 12.5 -2t4.5 -9q9 -48 13.5 -104.5t6.5 -113t2 -102.5q0 -37 -1 -81t-6 -83q-2 -19 -8 -43.5t-20 -49.5t-41.5 -46.5t-72.5 -34t-114 -12.5zM313 716q-7 0 -12 3t-13 9l-100 75
q-4 3 -1 8t7 5h93q10 0 14 -2.5t10 -9.5l64 -72q6 -6 5.5 -11t-7.5 -5h-60z" />
    <glyph glyph-name="Uacute" unicode="&#xda;" horiz-adv-x="635" 
d="M317 -8q-86 0 -135.5 19.5t-74.5 50t-33 61.5t-11 55q-4 39 -6 83t-2 80q0 47 2 103t6.5 113t12.5 105q1 7 6 9t12 2h48h49q9 0 10 -3t0 -21q-4 -40 -7 -82t-5 -85q-4 -75 -4 -145.5t6 -138.5q2 -29 10.5 -49t24 -32.5t38 -18t50.5 -5.5q30 0 52 5.5t37.5 18t24.5 32.5
t12 49q5 67 4.5 137.5t-3.5 145.5q-1 43 -4.5 85.5t-7.5 82.5q-1 18 0 21t11 3h50.5h50.5q8 0 12.5 -2t4.5 -9q9 -48 13.5 -104.5t6.5 -113t2 -102.5q0 -37 -1 -81t-6 -83q-2 -19 -8 -43.5t-20 -49.5t-41.5 -46.5t-72.5 -34t-114 -12.5zM320 716h-60q-7 0 -7.5 5t5.5 11
l64 72q6 7 10 9.5t14 2.5h93q5 0 8 -5t-2 -8l-100 -75q-8 -6 -13 -9t-12 -3z" />
    <glyph glyph-name="Ucircumflex" unicode="&#xdb;" horiz-adv-x="635" 
d="M317 -8q-86 0 -135.5 19.5t-74.5 50t-33 61.5t-11 55q-4 39 -6 83t-2 80q0 47 2 103t6.5 113t12.5 105q1 7 6 9t12 2h48h49q9 0 10 -3t0 -21q-4 -40 -7 -82t-5 -85q-4 -75 -4 -145.5t6 -138.5q2 -29 10.5 -49t24 -32.5t38 -18t50.5 -5.5q30 0 52 5.5t37.5 18t24.5 32.5
t12 49q5 67 4.5 137.5t-3.5 145.5q-1 43 -4.5 85.5t-7.5 82.5q-1 18 0 21t11 3h50.5h50.5q8 0 12.5 -2t4.5 -9q9 -48 13.5 -104.5t6.5 -113t2 -102.5q0 -37 -1 -81t-6 -83q-2 -19 -8 -43.5t-20 -49.5t-41.5 -46.5t-72.5 -34t-114 -12.5zM202 714q-4 0 -5 3t1 6l80 87
q5 6 10 6h59q6 0 11 -5l81 -88q2 -3 1.5 -6t-5.5 -3h-53q-7 0 -10.5 2t-8.5 5l-39 32q-5 4 -11 0l-41 -33q-3 -3 -6.5 -4.5t-8.5 -1.5h-55z" />
    <glyph glyph-name="Udieresis" unicode="&#xdc;" horiz-adv-x="635" 
d="M317 -8q-86 0 -135.5 19.5t-74.5 50t-33 61.5t-11 55q-4 39 -6 83t-2 80q0 47 2 103t6.5 113t12.5 105q1 7 6 9t12 2h48h49q9 0 10 -3t0 -21q-4 -40 -7 -82t-5 -85q-4 -75 -4 -145.5t6 -138.5q2 -29 10.5 -49t24 -32.5t38 -18t50.5 -5.5q30 0 52 5.5t37.5 18t24.5 32.5
t12 49q5 67 4.5 137.5t-3.5 145.5q-1 43 -4.5 85.5t-7.5 82.5q-1 18 0 21t11 3h50.5h50.5q8 0 12.5 -2t4.5 -9q9 -48 13.5 -104.5t6.5 -113t2 -102.5q0 -37 -1 -81t-6 -83q-2 -19 -8 -43.5t-20 -49.5t-41.5 -46.5t-72.5 -34t-114 -12.5zM292 775q0 -23 -12 -35.5t-44 -12.5
q-28 0 -41 12.5t-13 35.5t13 35t41 12q32 0 44 -12t12 -35zM452 775q0 -23 -11 -35.5t-43 -12.5q-30 0 -42.5 12.5t-12.5 35.5t12.5 35t42.5 12q32 0 43 -12t11 -35z" />
    <glyph glyph-name="Yacute" unicode="&#xdd;" horiz-adv-x="537" 
d="M346 282q-6 -8 -8.5 -22.5t-2.5 -25.5v-222q0 -5 -4 -8.5t-9 -3.5h-107q-13 0 -13 12v221q0 25 -13 50.5t-22 39.5q-5 8 -16.5 26.5t-25 41t-25 41.5t-14.5 26q-27 52 -43.5 92.5t-24 66.5t-9.5 32q-3 14 3.5 19t16.5 5h102q13 0 17 -13q9 -29 19 -55.5t20.5 -50.5
t19.5 -43q14 -26 26 -47.5t24 -40.5q7 -10 11 -11t11 11q5 8 11 17t13 21t14 26q11 20 24.5 49.5t26.5 62.5t19 62q2 8 6 10t12 2h107q7 0 12.5 -5t2.5 -19q-1 -6 -8 -33.5t-23 -69.5t-44 -94q-6 -13 -19 -35t-29 -47.5t-31 -49t-27 -38.5zM271 716h-60q-7 0 -7.5 5t5.5 11
l64 72q6 7 10 9.5t14 2.5h93q5 0 8 -5t-2 -8l-100 -75q-8 -6 -13 -9t-12 -3z" />
    <glyph glyph-name="Thorn" unicode="&#xde;" horiz-adv-x="478" 
d="M448 375q0 -64 -23.5 -118.5t-69.5 -87t-116 -32.5h-54q-8 0 -8 -8v-117q0 -12 -14 -12h-105q-13 0 -13 12v684q0 12 13 12h104q8 0 11.5 -2.5t3.5 -9.5v-93q0 -4 2 -7.5t6 -3.5h43q117 0 168.5 -53t51.5 -164zM320 374q0 70 -25.5 98.5t-70.5 28.5h-40q-4 0 -5.5 -1
t-1.5 -8v-251q0 -8 8 -8h41q44 0 69 37.5t25 103.5z" />
    <glyph glyph-name="germandbls" unicode="&#xdf;" horiz-adv-x="641" 
d="M66 -102q-21 0 -36.5 2t-24.5 8q-3 3 -4.5 7.5t-1.5 9.5v27.5v26.5q3 9 8.5 11t11.5 1q10 0 25 1.5t29.5 12.5t24.5 40.5t10 83.5q0 34 0.5 96t0.5 140v162q0 30 10.5 61.5t34 58t61.5 42.5t93 16q17 0 42.5 -3.5t53 -13.5t52 -29t40 -48.5t15.5 -73.5q0 -21 -5.5 -39.5
t-17.5 -41.5q-9 -15 -22.5 -27.5t-26.5 -20.5q-11 -8 -12 -15.5t5 -13t17 -9.5q28 -9 54.5 -25t48.5 -39q23 -24 35.5 -55.5t12.5 -67.5q0 -59 -24.5 -102t-68.5 -65.5t-103 -22.5q-27 0 -66 8.5t-68 29.5q-3 2 -7 6t-3 10q5 18 9.5 36.5t9.5 37.5q2 11 8 10t12 -6
q9 -6 22.5 -12t29.5 -9.5t29 -3.5q39 0 54.5 21.5t18.5 48.5q3 13 -3 35.5t-28 46.5q-8 16 -23 27.5t-36 22t-48 20.5q-18 7 -29 17t-13.5 22.5t5 25t26.5 25.5q8 4 18.5 12t28.5 28q14 15 22.5 38t8.5 52q-1 29 -20 44.5t-45 15.5q-34 0 -58 -25t-24 -76v-47v-77v-90v-87.5
v-70v-34.5q0 -97 -40 -147t-129 -50z" />
    <glyph glyph-name="agrave" unicode="&#xe0;" horiz-adv-x="470" 
d="M230 -7q-51 0 -95.5 11.5t-72 44.5t-27.5 96q0 52 19.5 85.5t50 51.5t63.5 24.5t59 6.5q21 0 40.5 -1.5t36.5 -4.5q9 -3 9 13q0 37 -22.5 52t-62.5 15q-38 0 -72.5 -14t-58.5 -26q-11 -6 -14.5 -4t-5.5 13l-9 56q-2 13 0 17t11 10q26 17 66 27.5t85 10.5q68 0 109 -15.5
t61.5 -41.5t27 -59.5t6.5 -69.5q1 -42 0.5 -82.5t-2.5 -80.5t-6 -81q-2 -11 -6 -16.5t-16 -11.5q-14 -7 -37 -11.5t-49.5 -8t-49.5 -5t-38 -1.5zM238 70q8 0 18 1t20 4.5t16.5 8.5t7.5 13q3 24 5 53t0 56q0 13 -10 18q-10 7 -28.5 8.5t-30.5 1.5q-9 0 -22.5 -3.5
t-25.5 -12.5t-19.5 -27t-7.5 -46q0 -22 9 -39t26 -26.5t42 -9.5zM237 526q-13 0 -25 12l-88 91q-4 4 -1 9t7 5h93q10 0 15 -3t9 -10l52 -88q9 -16 -2 -16h-60z" />
    <glyph glyph-name="aacute" unicode="&#xe1;" horiz-adv-x="470" 
d="M230 -7q-51 0 -95.5 11.5t-72 44.5t-27.5 96q0 52 19.5 85.5t50 51.5t63.5 24.5t59 6.5q21 0 40.5 -1.5t36.5 -4.5q9 -3 9 13q0 37 -22.5 52t-62.5 15q-38 0 -72.5 -14t-58.5 -26q-11 -6 -14.5 -4t-5.5 13l-9 56q-2 13 0 17t11 10q26 17 66 27.5t85 10.5q68 0 109 -15.5
t61.5 -41.5t27 -59.5t6.5 -69.5q1 -42 0.5 -82.5t-2.5 -80.5t-6 -81q-2 -11 -6 -16.5t-16 -11.5q-14 -7 -37 -11.5t-49.5 -8t-49.5 -5t-38 -1.5zM238 70q8 0 18 1t20 4.5t16.5 8.5t7.5 13q3 24 5 53t0 56q0 13 -10 18q-10 7 -28.5 8.5t-30.5 1.5q-9 0 -22.5 -3.5
t-25.5 -12.5t-19.5 -27t-7.5 -46q0 -22 9 -39t26 -26.5t42 -9.5zM196 525q-9 0 -9.5 3.5t6.5 12.5l65 93q5 8 21 8h80q6 0 8 -3t-5 -10l-87 -97q-5 -6 -9 -6.5t-12 -0.5h-58z" />
    <glyph glyph-name="acircumflex" unicode="&#xe2;" horiz-adv-x="470" 
d="M230 -7q-51 0 -95.5 11.5t-72 44.5t-27.5 96q0 52 19.5 85.5t50 51.5t63.5 24.5t59 6.5q21 0 40.5 -1.5t36.5 -4.5q9 -3 9 13q0 37 -22.5 52t-62.5 15q-38 0 -72.5 -14t-58.5 -26q-11 -6 -14.5 -4t-5.5 13l-9 56q-2 13 0 17t11 10q26 17 66 27.5t85 10.5q68 0 109 -15.5
t61.5 -41.5t27 -59.5t6.5 -69.5q1 -42 0.5 -82.5t-2.5 -80.5t-6 -81q-2 -11 -6 -16.5t-16 -11.5q-14 -7 -37 -11.5t-49.5 -8t-49.5 -5t-38 -1.5zM238 70q8 0 18 1t20 4.5t16.5 8.5t7.5 13q3 24 5 53t0 56q0 13 -10 18q-10 7 -28.5 8.5t-30.5 1.5q-9 0 -22.5 -3.5
t-25.5 -12.5t-19.5 -27t-7.5 -46q0 -22 9 -39t26 -26.5t42 -9.5zM136 525q-4 0 -5 3t1 6l77 100q3 3 8 3h54q5 0 8 -3l77 -100q2 -3 1.5 -6t-5.5 -3h-56q-5 0 -8 4l-39 37q-5 4 -10 0l-39 -37q-3 -4 -8 -4h-56z" />
    <glyph glyph-name="atilde" unicode="&#xe3;" horiz-adv-x="470" 
d="M230 -7q-51 0 -95.5 11.5t-72 44.5t-27.5 96q0 52 19.5 85.5t50 51.5t63.5 24.5t59 6.5q21 0 40.5 -1.5t36.5 -4.5q9 -3 9 13q0 37 -22.5 52t-62.5 15q-38 0 -72.5 -14t-58.5 -26q-11 -6 -14.5 -4t-5.5 13l-9 56q-2 13 0 17t11 10q26 17 66 27.5t85 10.5q68 0 109 -15.5
t61.5 -41.5t27 -59.5t6.5 -69.5q1 -42 0.5 -82.5t-2.5 -80.5t-6 -81q-2 -11 -6 -16.5t-16 -11.5q-14 -7 -37 -11.5t-49.5 -8t-49.5 -5t-38 -1.5zM238 70q8 0 18 1t20 4.5t16.5 8.5t7.5 13q3 24 5 53t0 56q0 13 -10 18q-10 7 -28.5 8.5t-30.5 1.5q-9 0 -22.5 -3.5
t-25.5 -12.5t-19.5 -27t-7.5 -46q0 -22 9 -39t26 -26.5t42 -9.5zM138 527q-6 0 -6 6q0 38 18.5 60t52.5 22q17 0 32 -8t28 -16.5t19 -8.5t10 4.5t4 13.5q0 7 5 7h50q6 0 6 -6q0 -34 -20 -57.5t-52 -23.5q-21 0 -36 8t-25 16t-19 8q-7 0 -10 -4.5t-3 -13.5q0 -7 -6 -7h-48z
" />
    <glyph glyph-name="adieresis" unicode="&#xe4;" horiz-adv-x="470" 
d="M230 -7q-51 0 -95.5 11.5t-72 44.5t-27.5 96q0 52 19.5 85.5t50 51.5t63.5 24.5t59 6.5q21 0 40.5 -1.5t36.5 -4.5q9 -3 9 13q0 37 -22.5 52t-62.5 15q-38 0 -72.5 -14t-58.5 -26q-11 -6 -14.5 -4t-5.5 13l-9 56q-2 13 0 17t11 10q26 17 66 27.5t85 10.5q68 0 109 -15.5
t61.5 -41.5t27 -59.5t6.5 -69.5q1 -42 0.5 -82.5t-2.5 -80.5t-6 -81q-2 -11 -6 -16.5t-16 -11.5q-14 -7 -37 -11.5t-49.5 -8t-49.5 -5t-38 -1.5zM238 70q8 0 18 1t20 4.5t16.5 8.5t7.5 13q3 24 5 53t0 56q0 13 -10 18q-10 7 -28.5 8.5t-30.5 1.5q-9 0 -22.5 -3.5
t-25.5 -12.5t-19.5 -27t-7.5 -46q0 -22 9 -39t26 -26.5t42 -9.5zM220 574q0 -23 -12 -35.5t-44 -12.5q-28 0 -41 12.5t-13 35.5t13 35t41 12q32 0 44 -12t12 -35zM380 574q0 -23 -11 -35.5t-43 -12.5q-30 0 -42.5 12.5t-12.5 35.5t12.5 35t42.5 12q32 0 43 -12t11 -35z" />
    <glyph glyph-name="aring" unicode="&#xe5;" horiz-adv-x="470" 
d="M230 -7q-51 0 -95.5 11.5t-72 44.5t-27.5 96q0 52 19.5 85.5t50 51.5t63.5 24.5t59 6.5q21 0 40.5 -1.5t36.5 -4.5q9 -3 9 13q0 37 -22.5 52t-62.5 15q-38 0 -72.5 -14t-58.5 -26q-11 -6 -14.5 -4t-5.5 13l-9 56q-2 13 0 17t11 10q26 17 66 27.5t85 10.5q68 0 109 -15.5
t61.5 -41.5t27 -59.5t6.5 -69.5q1 -42 0.5 -82.5t-2.5 -80.5t-6 -81q-2 -11 -6 -16.5t-16 -11.5q-14 -7 -37 -11.5t-49.5 -8t-49.5 -5t-38 -1.5zM238 70q8 0 18 1t20 4.5t16.5 8.5t7.5 13q3 24 5 53t0 56q0 13 -10 18q-10 7 -28.5 8.5t-30.5 1.5q-9 0 -22.5 -3.5
t-25.5 -12.5t-19.5 -27t-7.5 -46q0 -22 9 -39t26 -26.5t42 -9.5zM338 598q0 -41 -21.5 -66t-71.5 -25q-52 0 -73.5 25t-21.5 66q0 40 21.5 64.5t73.5 24.5q50 0 71.5 -24t21.5 -65zM285 600q0 13 -8 21.5t-32 8.5q-25 0 -31.5 -8.5t-6.5 -21.5q0 -11 6.5 -22t32.5 -11
t32.5 11t6.5 22z" />
    <glyph glyph-name="ae" unicode="&#xe6;" horiz-adv-x="754" 
d="M230 -7q-51 0 -95.5 11.5t-72 44.5t-27.5 96q0 52 19.5 85.5t50 51.5t63.5 24.5t59 6.5q21 0 40.5 -1.5t36.5 -4.5q9 -3 9 13q0 37 -22.5 52t-62.5 15q-38 0 -72.5 -14t-58.5 -26q-11 -6 -14.5 -4t-5.5 13q-2 14 -4.5 28t-4.5 28q-2 13 0 17t11 10q26 17 66 27.5t85 10.5
q39 0 67.5 -5.5t49 -16t34.5 -23.5q25 21 58.5 34t80.5 13q65 0 104.5 -18.5t59.5 -49t26.5 -67t6.5 -72.5q0 -42 -10.5 -55.5t-29.5 -13.5h-114.5h-113.5q-6 0 -8 -2.5t-2 -8.5q3 -47 31.5 -76.5t79.5 -29.5q35 0 67 10.5t45 18.5q12 7 19.5 8.5t15.5 -14.5l21 -41
q6 -12 2.5 -16t-13.5 -11q-34 -25 -85 -35.5t-101 -10.5q-39 0 -68 7.5t-49 21.5q-1 -1 -2 -3t-2 -3q-1 -2 -3 -2.5t-6 -2.5q-21 -7 -52.5 -11.5t-61.5 -6.5t-47 -2zM305 209q0 13 -13 18t-29 6t-27 1q-9 0 -22.5 -3.5t-25.5 -12.5t-19.5 -27t-7.5 -46q0 -22 9 -39t26 -26.5
t42 -9.5q8 0 18 1t20 4.5t16.5 8.5t7.5 13q2 24 3.5 56t1.5 56zM576 272q9 0 10.5 3.5t0.5 16.5q0 28 -7.5 48t-23 31t-40.5 11q-20 0 -34.5 -8t-24 -20.5t-14.5 -27.5t-7 -30q0 -15 0.5 -19t5.5 -4q33 0 67 -0.5t67 -0.5z" />
    <glyph glyph-name="ccedilla" unicode="&#xe7;" horiz-adv-x="412" 
d="M245 -8q-64 0 -106.5 19t-65.5 53t-32 78t-9 95q0 47 9.5 90t33 78t65 55t104.5 20q44 0 76.5 -9t57.5 -30q7 -7 9.5 -10.5t2.5 -11.5v-74q0 -9 -5.5 -9.5t-10.5 3.5q-26 23 -54.5 30t-58.5 7q-26 0 -45.5 -11.5t-31.5 -31.5t-18.5 -45.5t-6.5 -51.5q0 -46 11 -78.5
t32 -50t52 -17.5q23 0 45.5 6t49.5 19q17 8 24 -8l24 -56q4 -8 2.5 -12.5t-8.5 -8.5q-26 -19 -66 -28.5t-80 -9.5zM324 -131q0 -30 -25.5 -54t-69.5 -24q-34 0 -56.5 13.5t-36.5 31.5q-6 8 -6 16.5t9 12.5l21 9q10 5 15 3.5t8 -6.5q6 -12 16 -19t22 -7q17 0 25 9t8 19
q0 12 -8.5 19t-21.5 10.5t-28 3.5q-9 0 -13 6.5t1 13.5l36 62q4 6 8.5 8.5t10.5 2.5h30q12 0 7 -12l-27 -66l-20 26q47 -5 71 -24t24 -54z" />
    <glyph glyph-name="egrave" unicode="&#xe8;" horiz-adv-x="471" 
d="M32 237q0 47 10 90t33.5 78t65 55t104.5 20q66 0 105 -18.5t59 -49.5t26.5 -67.5t6.5 -72.5q0 -42 -9.5 -55.5t-29.5 -13.5h-232q-6 0 -7.5 -2.5t-1.5 -9.5q0 -30 13.5 -54.5t39.5 -38.5t61 -14q33 0 63 10.5t44 18.5q12 7 19 8.5t15 -14.5l21 -42q6 -11 3 -15.5
t-13 -11.5q-35 -24 -84 -35t-98 -11q-65 0 -107 19t-65 53t-32.5 78.5t-9.5 94.5zM313 293q0 28 -7 48t-22.5 31t-41.5 11q-21 0 -35.5 -8t-23.5 -21t-14 -28.5t-7 -29.5q-1 -16 0 -19.5t8 -3.5h131q9 0 11 3t1 17zM239 526q-13 0 -25 12l-88 91q-4 4 -1 9t7 5h93
q10 0 15 -3t9 -10l52 -88q9 -16 -2 -16h-60z" />
    <glyph glyph-name="eacute" unicode="&#xe9;" horiz-adv-x="471" 
d="M32 237q0 47 10 90t33.5 78t65 55t104.5 20q66 0 105 -18.5t59 -49.5t26.5 -67.5t6.5 -72.5q0 -42 -9.5 -55.5t-29.5 -13.5h-232q-6 0 -7.5 -2.5t-1.5 -9.5q0 -30 13.5 -54.5t39.5 -38.5t61 -14q33 0 63 10.5t44 18.5q12 7 19 8.5t15 -14.5l21 -42q6 -11 3 -15.5
t-13 -11.5q-35 -24 -84 -35t-98 -11q-65 0 -107 19t-65 53t-32.5 78.5t-9.5 94.5zM313 293q0 28 -7 48t-22.5 31t-41.5 11q-21 0 -35.5 -8t-23.5 -21t-14 -28.5t-7 -29.5q-1 -16 0 -19.5t8 -3.5h131q9 0 11 3t1 17zM198 525q-9 0 -9.5 3.5t6.5 12.5l65 93q5 8 21 8h80
q6 0 8 -3t-5 -10l-87 -97q-5 -6 -9 -6.5t-12 -0.5h-58z" />
    <glyph glyph-name="ecircumflex" unicode="&#xea;" horiz-adv-x="471" 
d="M32 237q0 47 10 90t33.5 78t65 55t104.5 20q66 0 105 -18.5t59 -49.5t26.5 -67.5t6.5 -72.5q0 -42 -9.5 -55.5t-29.5 -13.5h-232q-6 0 -7.5 -2.5t-1.5 -9.5q0 -30 13.5 -54.5t39.5 -38.5t61 -14q33 0 63 10.5t44 18.5q12 7 19 8.5t15 -14.5l21 -42q6 -11 3 -15.5
t-13 -11.5q-35 -24 -84 -35t-98 -11q-65 0 -107 19t-65 53t-32.5 78.5t-9.5 94.5zM313 293q0 28 -7 48t-22.5 31t-41.5 11q-21 0 -35.5 -8t-23.5 -21t-14 -28.5t-7 -29.5q-1 -16 0 -19.5t8 -3.5h131q9 0 11 3t1 17zM138 525q-4 0 -5 3t1 6l77 100q3 3 8 3h54q5 0 8 -3
l77 -100q2 -3 1.5 -6t-5.5 -3h-56q-5 0 -8 4l-39 37q-5 4 -10 0l-39 -37q-3 -4 -8 -4h-56z" />
    <glyph glyph-name="edieresis" unicode="&#xeb;" horiz-adv-x="471" 
d="M32 237q0 47 10 90t33.5 78t65 55t104.5 20q66 0 105 -18.5t59 -49.5t26.5 -67.5t6.5 -72.5q0 -42 -9.5 -55.5t-29.5 -13.5h-232q-6 0 -7.5 -2.5t-1.5 -9.5q0 -30 13.5 -54.5t39.5 -38.5t61 -14q33 0 63 10.5t44 18.5q12 7 19 8.5t15 -14.5l21 -42q6 -11 3 -15.5
t-13 -11.5q-35 -24 -84 -35t-98 -11q-65 0 -107 19t-65 53t-32.5 78.5t-9.5 94.5zM313 293q0 28 -7 48t-22.5 31t-41.5 11q-21 0 -35.5 -8t-23.5 -21t-14 -28.5t-7 -29.5q-1 -16 0 -19.5t8 -3.5h131q9 0 11 3t1 17zM222 574q0 -23 -12 -35.5t-44 -12.5q-28 0 -41 12.5
t-13 35.5t13 35t41 12q32 0 44 -12t12 -35zM382 574q0 -23 -11 -35.5t-43 -12.5q-30 0 -42.5 12.5t-12.5 35.5t12.5 35t42.5 12q32 0 43 -12t11 -35z" />
    <glyph glyph-name="igrave" unicode="&#xec;" horiz-adv-x="221" 
d="M174 12q0 -12 -13 -12h-102q-12 0 -12 12v448q0 12 12 12h102q13 0 13 -12v-448zM102 526q-13 0 -25 12l-88 91q-4 4 -1 9t7 5h93q10 0 15 -3t9 -10l52 -88q9 -16 -2 -16h-60z" />
    <glyph glyph-name="iacute" unicode="&#xed;" horiz-adv-x="221" 
d="M174 12q0 -12 -13 -12h-102q-12 0 -12 12v448q0 12 12 12h102q13 0 13 -12v-448zM61 525q-9 0 -9.5 3.5t6.5 12.5l65 93q5 8 21 8h80q6 0 8 -3t-5 -10l-87 -97q-5 -6 -9 -6.5t-12 -0.5h-58z" />
    <glyph glyph-name="icircumflex" unicode="&#xee;" horiz-adv-x="221" 
d="M174 12q0 -12 -13 -12h-102q-12 0 -12 12v448q0 12 12 12h102q13 0 13 -12v-448zM2 525q-4 0 -5 3t1 6l77 100q3 3 8 3h54q5 0 8 -3l77 -100q2 -3 1.5 -6t-5.5 -3h-56q-5 0 -8 4l-39 37q-5 4 -10 0l-39 -37q-3 -4 -8 -4h-56z" />
    <glyph glyph-name="idieresis" unicode="&#xef;" horiz-adv-x="221" 
d="M174 12q0 -12 -13 -12h-102q-12 0 -12 12v448q0 12 12 12h102q13 0 13 -12v-448zM85 574q0 -23 -12 -35.5t-44 -12.5q-28 0 -41 12.5t-13 35.5t13 35t41 12q32 0 44 -12t12 -35zM245 574q0 -23 -11 -35.5t-43 -12.5q-30 0 -42.5 12.5t-12.5 35.5t12.5 35t42.5 12
q32 0 43 -12t11 -35z" />
    <glyph glyph-name="eth" unicode="&#xf0;" horiz-adv-x="508" 
d="M473 238q0 -67 -18.5 -122.5t-66 -88.5t-134.5 -33q-86 0 -134 32t-66.5 87.5t-18.5 124.5t20.5 123t68.5 85.5t130 31.5q9 0 17.5 -1t15.5 -4q-15 18 -34.5 35t-44.5 34q-18 13 -38.5 25.5t-44.5 25.5q-9 4 -12 6.5t1 10.5q5 10 16.5 29t18.5 31q2 4 7 6t18 -4
q9 -3 17 -7t17 -9q90 -43 148.5 -109t87.5 -145.5t29 -163.5zM341 235q0 67 -21.5 103t-67.5 36q-45 0 -66.5 -35.5t-21.5 -103.5q0 -69 20 -106.5t68 -37.5q49 0 69 38t20 106zM142 488q-6 -4 -8 -3.5t-4 4.5l-23 35q-2 5 -1.5 7t7.5 6l219 135q6 4 8.5 4t5.5 -5l23 -38
q2 -3 0.5 -5t-8.5 -5z" />
    <glyph glyph-name="ntilde" unicode="&#xf1;" horiz-adv-x="469" 
d="M61 0q-14 0 -14 13v207.5v207.5q0 10 7 15t27 12q13 4 38.5 9.5t55.5 10.5t54 5q83 0 127.5 -31.5t61 -83t16.5 -113.5q0 -37 -1.5 -77.5t-4.5 -79.5t-6 -71q-2 -18 -6 -21t-18 -3h-82q-14 0 -18.5 3.5t-3.5 15.5q0 4 1.5 31.5t3.5 65.5t3.5 75t1.5 60q0 52 -9 79.5
t-26 37.5t-43 10q-10 0 -19 -1t-16 -3q-9 -1 -13 -8t-4 -23v-97v-114v-119q0 -13 -11 -13h-102zM134 527q-6 0 -6 6q0 38 18.5 60t52.5 22q17 0 32 -8t28 -16.5t19 -8.5t10 4.5t4 13.5q0 7 5 7h50q6 0 6 -6q0 -34 -20 -57.5t-52 -23.5q-21 0 -36 8t-25 16t-19 8
q-7 0 -10 -4.5t-3 -13.5q0 -7 -6 -7h-48z" />
    <glyph glyph-name="ograve" unicode="&#xf2;" horiz-adv-x="503" 
d="M251 -8q-87 0 -134.5 32.5t-66 88t-18.5 126.5q0 69 21 123.5t68.5 86t129.5 31.5q83 0 130.5 -31.5t68 -86t20.5 -123.5q0 -70 -18 -125.5t-65.5 -88.5t-135.5 -33zM250 90q49 0 69 38t20 107t-21.5 104.5t-67.5 35.5q-45 0 -66.5 -35.5t-21.5 -104.5q0 -70 19.5 -107.5
t68.5 -37.5zM244 526q-13 0 -25 12l-88 91q-4 4 -1 9t7 5h93q10 0 15 -3t9 -10l52 -88q9 -16 -2 -16h-60z" />
    <glyph glyph-name="oacute" unicode="&#xf3;" horiz-adv-x="503" 
d="M251 -8q-87 0 -134.5 32.5t-66 88t-18.5 126.5q0 69 21 123.5t68.5 86t129.5 31.5q83 0 130.5 -31.5t68 -86t20.5 -123.5q0 -70 -18 -125.5t-65.5 -88.5t-135.5 -33zM250 90q49 0 69 38t20 107t-21.5 104.5t-67.5 35.5q-45 0 -66.5 -35.5t-21.5 -104.5q0 -70 19.5 -107.5
t68.5 -37.5zM203 525q-9 0 -9.5 3.5t6.5 12.5l65 93q5 8 21 8h80q6 0 8 -3t-5 -10l-87 -97q-5 -6 -9 -6.5t-12 -0.5h-58z" />
    <glyph glyph-name="ocircumflex" unicode="&#xf4;" horiz-adv-x="503" 
d="M251 -8q-87 0 -134.5 32.5t-66 88t-18.5 126.5q0 69 21 123.5t68.5 86t129.5 31.5q83 0 130.5 -31.5t68 -86t20.5 -123.5q0 -70 -18 -125.5t-65.5 -88.5t-135.5 -33zM250 90q49 0 69 38t20 107t-21.5 104.5t-67.5 35.5q-45 0 -66.5 -35.5t-21.5 -104.5q0 -70 19.5 -107.5
t68.5 -37.5zM144 525q-4 0 -5 3t1 6l77 100q3 3 8 3h54q5 0 8 -3l77 -100q2 -3 1.5 -6t-5.5 -3h-56q-5 0 -8 4l-39 37q-5 4 -10 0l-39 -37q-3 -4 -8 -4h-56z" />
    <glyph glyph-name="otilde" unicode="&#xf5;" horiz-adv-x="503" 
d="M251 -8q-87 0 -134.5 32.5t-66 88t-18.5 126.5q0 69 21 123.5t68.5 86t129.5 31.5q83 0 130.5 -31.5t68 -86t20.5 -123.5q0 -70 -18 -125.5t-65.5 -88.5t-135.5 -33zM250 90q49 0 69 38t20 107t-21.5 104.5t-67.5 35.5q-45 0 -66.5 -35.5t-21.5 -104.5q0 -70 19.5 -107.5
t68.5 -37.5zM146 527q-6 0 -6 6q0 38 18.5 60t52.5 22q17 0 32 -8t28 -16.5t19 -8.5t10 4.5t4 13.5q0 7 5 7h50q6 0 6 -6q0 -34 -20 -57.5t-52 -23.5q-21 0 -36 8t-25 16t-19 8q-7 0 -10 -4.5t-3 -13.5q0 -7 -6 -7h-48z" />
    <glyph glyph-name="odieresis" unicode="&#xf6;" horiz-adv-x="503" 
d="M251 -8q-87 0 -134.5 32.5t-66 88t-18.5 126.5q0 69 21 123.5t68.5 86t129.5 31.5q83 0 130.5 -31.5t68 -86t20.5 -123.5q0 -70 -18 -125.5t-65.5 -88.5t-135.5 -33zM250 90q49 0 69 38t20 107t-21.5 104.5t-67.5 35.5q-45 0 -66.5 -35.5t-21.5 -104.5q0 -70 19.5 -107.5
t68.5 -37.5zM227 574q0 -23 -12 -35.5t-44 -12.5q-28 0 -41 12.5t-13 35.5t13 35t41 12q32 0 44 -12t12 -35zM387 574q0 -23 -11 -35.5t-43 -12.5q-30 0 -42.5 12.5t-12.5 35.5t12.5 35t42.5 12q32 0 43 -12t11 -35z" />
    <glyph glyph-name="divide" unicode="&#xf7;" horiz-adv-x="496" 
d="M312 158q0 -25 -13 -37.5t-50 -12.5q-34 0 -48.5 12.5t-14.5 37.5q0 24 14.5 37t48.5 13q37 0 50 -13t13 -37zM312 459q0 -24 -13 -36.5t-50 -12.5q-34 0 -48.5 12.5t-14.5 36.5q0 25 14.5 38t48.5 13q37 0 50 -13t13 -38zM64 266q-10 0 -12 3t-2 10v63q0 8 2.5 10.5
t12.5 2.5h366q10 0 12.5 -2t2.5 -10v-68q0 -6 -2.5 -7.5t-14.5 -1.5h-365z" />
    <glyph glyph-name="oslash" unicode="&#xf8;" horiz-adv-x="486" 
d="M251 -8q-87 0 -134.5 32.5t-66 88t-18.5 126.5q0 69 21 123.5t68.5 86t129.5 31.5q83 0 130.5 -31.5t68 -86t20.5 -123.5q0 -70 -18 -125.5t-65.5 -88.5t-135.5 -33zM250 90q49 0 69 38t20 107t-21.5 104.5t-67.5 35.5q-45 0 -66.5 -35.5t-21.5 -104.5q0 -70 19.5 -107.5
t68.5 -37.5zM138 -63q-6 -13 -15 -13h-56q-3 0 -2.5 4.5t2.5 10.5l296 597q4 7 6.5 8.5t6.5 1.5h53q6 0 5.5 -4t-9.5 -24z" />
    <glyph glyph-name="ugrave" unicode="&#xf9;" horiz-adv-x="475" 
d="M246 -4q-82 0 -126.5 31t-61.5 82t-17 113q0 37 1.5 77t4.5 78.5t7 70.5q2 18 6 21t18 3h81q14 0 20 -0.5t3 -18.5q0 -4 -1.5 -29t-3.5 -61.5t-3 -75t-1 -69.5q0 -63 17.5 -92.5t58.5 -29.5q5 0 14 0.5t18 2.5t15 6t6 11v339q0 5 1 11t7 6h104q4 0 9 -2t5 -11v-409
q0 -12 -7 -17t-29 -13q-11 -4 -36.5 -9.5t-55 -10t-54.5 -4.5zM235 526q-13 0 -25 12l-88 91q-4 4 -1 9t7 5h93q10 0 15 -3t9 -10l52 -88q9 -16 -2 -16h-60z" />
    <glyph glyph-name="uacute" unicode="&#xfa;" horiz-adv-x="475" 
d="M246 -4q-82 0 -126.5 31t-61.5 82t-17 113q0 37 1.5 77t4.5 78.5t7 70.5q2 18 6 21t18 3h81q14 0 20 -0.5t3 -18.5q0 -4 -1.5 -29t-3.5 -61.5t-3 -75t-1 -69.5q0 -63 17.5 -92.5t58.5 -29.5q5 0 14 0.5t18 2.5t15 6t6 11v339q0 5 1 11t7 6h104q4 0 9 -2t5 -11v-409
q0 -12 -7 -17t-29 -13q-11 -4 -36.5 -9.5t-55 -10t-54.5 -4.5zM194 525q-9 0 -9.5 3.5t6.5 12.5l65 93q5 8 21 8h80q6 0 8 -3t-5 -10l-87 -97q-5 -6 -9 -6.5t-12 -0.5h-58z" />
    <glyph glyph-name="ucircumflex" unicode="&#xfb;" horiz-adv-x="475" 
d="M246 -4q-82 0 -126.5 31t-61.5 82t-17 113q0 37 1.5 77t4.5 78.5t7 70.5q2 18 6 21t18 3h81q14 0 20 -0.5t3 -18.5q0 -4 -1.5 -29t-3.5 -61.5t-3 -75t-1 -69.5q0 -63 17.5 -92.5t58.5 -29.5q5 0 14 0.5t18 2.5t15 6t6 11v339q0 5 1 11t7 6h104q4 0 9 -2t5 -11v-409
q0 -12 -7 -17t-29 -13q-11 -4 -36.5 -9.5t-55 -10t-54.5 -4.5zM135 525q-4 0 -5 3t1 6l77 100q3 3 8 3h54q5 0 8 -3l77 -100q2 -3 1.5 -6t-5.5 -3h-56q-5 0 -8 4l-39 37q-5 4 -10 0l-39 -37q-3 -4 -8 -4h-56z" />
    <glyph glyph-name="udieresis" unicode="&#xfc;" horiz-adv-x="475" 
d="M246 -4q-82 0 -126.5 31t-61.5 82t-17 113q0 37 1.5 77t4.5 78.5t7 70.5q2 18 6 21t18 3h81q14 0 20 -0.5t3 -18.5q0 -4 -1.5 -29t-3.5 -61.5t-3 -75t-1 -69.5q0 -63 17.5 -92.5t58.5 -29.5q5 0 14 0.5t18 2.5t15 6t6 11v339q0 5 1 11t7 6h104q4 0 9 -2t5 -11v-409
q0 -12 -7 -17t-29 -13q-11 -4 -36.5 -9.5t-55 -10t-54.5 -4.5zM218 574q0 -23 -12 -35.5t-44 -12.5q-28 0 -41 12.5t-13 35.5t13 35t41 12q32 0 44 -12t12 -35zM378 574q0 -23 -11 -35.5t-43 -12.5q-30 0 -42.5 12.5t-12.5 35.5t12.5 35t42.5 12q32 0 43 -12t11 -35z" />
    <glyph glyph-name="yacute" unicode="&#xfd;" horiz-adv-x="425" 
d="M124 106q-19 38 -35.5 80.5t-30.5 87.5t-24 90.5t-18 87.5q-3 20 12 20h100q11 0 15.5 -5.5t6.5 -20.5t6 -38.5t10 -51t13 -57t15.5 -56.5t15.5 -49q4 -7 8 -7t5 7q9 28 18 60t18 66t16.5 68t12.5 66q2 10 5.5 14t14.5 4h86q9 0 14.5 -3.5t2.5 -17.5q-6 -40 -15 -76.5
t-20 -74t-27 -84.5q-11 -29 -26 -71.5t-38 -88.5t-54.5 -85t-74 -64t-96.5 -25q-27 0 -45.5 3.5t-31.5 9.5q-21 10 -11 29l24 47q5 9 9 9t11 -2q17 -4 36.5 -0.5t35.5 12.5q18 10 28.5 21t16.5 23q7 17 3.5 36t-12.5 36zM170 525q-9 0 -9.5 3.5t6.5 12.5l65 93q5 8 21 8h80
q6 0 8 -3t-5 -10l-87 -97q-5 -6 -9 -6.5t-12 -0.5h-58z" />
    <glyph glyph-name="thorn" unicode="&#xfe;" horiz-adv-x="480" 
d="M449 246q0 -53 -10 -93t-27.5 -68t-39.5 -46t-46 -28q-25 -10 -56.5 -12.5t-49.5 1.5h-15t-8 -1q-6 -6 -14 -11t-11 -10q0 -19 -0.5 -37.5t-0.5 -36.5q-1 -7 -4 -9.5t-12 -2.5q-25 0 -49 0.5t-49 0.5q-5 29 -7.5 59.5t-2.5 65.5v280.5v279.5q1 7 6.5 10t13.5 3h49.5
t48.5 -1q4 -7 8.5 -16t4.5 -23q0 -20 0.5 -40.5t0.5 -40.5q13 4 28.5 7.5t34.5 3.5q98 0 152.5 -58t54.5 -177zM319 247q0 76 -21.5 105.5t-56.5 29.5q-12 0 -25 -2t-22.5 -6.5t-16.5 -11.5q-4 -4 -4 -14q-1 -52 -1.5 -104t-0.5 -104q0 -6 0.5 -8.5t3.5 -4.5q8 -11 28.5 -16
t36.5 -5q12 0 25.5 5.5t26 20t20 42.5t7.5 73z" />
    <glyph glyph-name="ydieresis" unicode="&#xff;" horiz-adv-x="425" 
d="M124 106q-19 38 -35.5 80.5t-30.5 87.5t-24 90.5t-18 87.5q-3 20 12 20h100q11 0 15.5 -5.5t6.5 -20.5t6 -38.5t10 -51t13 -57t15.5 -56.5t15.5 -49q4 -7 8 -7t5 7q9 28 18 60t18 66t16.5 68t12.5 66q2 10 5.5 14t14.5 4h86q9 0 14.5 -3.5t2.5 -17.5q-6 -40 -15 -76.5
t-20 -74t-27 -84.5q-11 -29 -26 -71.5t-38 -88.5t-54.5 -85t-74 -64t-96.5 -25q-27 0 -45.5 3.5t-31.5 9.5q-21 10 -11 29l24 47q5 9 9 9t11 -2q17 -4 36.5 -0.5t35.5 12.5q18 10 28.5 21t16.5 23q7 17 3.5 36t-12.5 36zM194 574q0 -23 -12 -35.5t-44 -12.5q-28 0 -41 12.5
t-13 35.5t13 35t41 12q32 0 44 -12t12 -35zM354 574q0 -23 -11 -35.5t-43 -12.5q-30 0 -42.5 12.5t-12.5 35.5t12.5 35t42.5 12q32 0 43 -12t11 -35z" />
    <glyph glyph-name="Amacron" unicode="&#x100;" horiz-adv-x="550" 
d="M31 0q-8 0 -10 7t1 27q7 45 21 108.5t33 134.5t40.5 142t44.5 132.5t44 102.5q6 9 10.5 14t11.5 5h95q8 -3 13 -6.5t10 -12.5q21 -41 44 -102.5t45 -132.5t41 -142.5t33 -135t20 -107.5q4 -20 2 -27t-11 -7h-103q-8 0 -11 4.5t-7 23.5q-4 23 -10.5 54.5t-11.5 55.5
q-1 7 -3 8.5t-9 1.5h-178q-7 -1 -8 -2t-3 -9q-5 -23 -11.5 -54.5t-11.5 -55.5q-3 -18 -6 -22.5t-11 -4.5h-104zM214 249h122q7 0 8.5 2.5t-0.5 9.5q-13 51 -28 106.5t-31 100.5q-2 9 -7 9h-7q-4 0 -7 -9q-8 -26 -18.5 -61t-20.5 -73t-19 -74q-1 -6 0 -8.5t8 -2.5zM392 738
q0 -4 -1.5 -5t-9.5 -1h-212q-7 0 -8.5 2t-1.5 6v60q0 6 2 7.5t8 1.5h213q7 0 8.5 -1t1.5 -8v-62z" />
    <glyph glyph-name="amacron" unicode="&#x101;" horiz-adv-x="470" 
d="M230 -7q-51 0 -95.5 11.5t-72 44.5t-27.5 96q0 52 19.5 85.5t50 51.5t63.5 24.5t59 6.5q21 0 40.5 -1.5t36.5 -4.5q9 -3 9 13q0 37 -22.5 52t-62.5 15q-38 0 -72.5 -14t-58.5 -26q-11 -6 -14.5 -4t-5.5 13l-9 56q-2 13 0 17t11 10q26 17 66 27.5t85 10.5q68 0 109 -15.5
t61.5 -41.5t27 -59.5t6.5 -69.5q1 -42 0.5 -82.5t-2.5 -80.5t-6 -81q-2 -11 -6 -16.5t-16 -11.5q-14 -7 -37 -11.5t-49.5 -8t-49.5 -5t-38 -1.5zM238 70q8 0 18 1t20 4.5t16.5 8.5t7.5 13q3 24 5 53t0 56q0 13 -10 18q-10 7 -28.5 8.5t-30.5 1.5q-9 0 -22.5 -3.5
t-25.5 -12.5t-19.5 -27t-7.5 -46q0 -22 9 -39t26 -26.5t42 -9.5zM361 537q0 -4 -1.5 -5t-9.5 -1h-212q-7 0 -8.5 2t-1.5 6v60q0 6 2 7.5t8 1.5h213q7 0 8.5 -1t1.5 -8v-62z" />
    <glyph glyph-name="Abreve" unicode="&#x102;" horiz-adv-x="550" 
d="M31 0q-8 0 -10 7t1 27q7 45 21 108.5t33 134.5t40.5 142t44.5 132.5t44 102.5q6 9 10.5 14t11.5 5h95q8 -3 13 -6.5t10 -12.5q21 -41 44 -102.5t45 -132.5t41 -142.5t33 -135t20 -107.5q4 -20 2 -27t-11 -7h-103q-8 0 -11 4.5t-7 23.5q-4 23 -10.5 54.5t-11.5 55.5
q-1 7 -3 8.5t-9 1.5h-178q-7 -1 -8 -2t-3 -9q-5 -23 -11.5 -54.5t-11.5 -55.5q-3 -18 -6 -22.5t-11 -4.5h-104zM214 249h122q7 0 8.5 2.5t-0.5 9.5q-13 51 -28 106.5t-31 100.5q-2 9 -7 9h-7q-4 0 -7 -9q-8 -26 -18.5 -61t-20.5 -73t-19 -74q-1 -6 0 -8.5t8 -2.5zM276 708
q-51 0 -78.5 23t-27.5 63q0 13 2 16t11 3h42q8 0 11 -1.5t3 -9.5q0 -16 10 -25t27 -9q15 0 26 9t11 25q0 8 3.5 9.5t6.5 1.5h46q7 0 9 -2t2 -17q0 -39 -26.5 -62.5t-77.5 -23.5z" />
    <glyph glyph-name="abreve" unicode="&#x103;" horiz-adv-x="470" 
d="M230 -7q-51 0 -95.5 11.5t-72 44.5t-27.5 96q0 52 19.5 85.5t50 51.5t63.5 24.5t59 6.5q21 0 40.5 -1.5t36.5 -4.5q9 -3 9 13q0 37 -22.5 52t-62.5 15q-38 0 -72.5 -14t-58.5 -26q-11 -6 -14.5 -4t-5.5 13l-9 56q-2 13 0 17t11 10q26 17 66 27.5t85 10.5q68 0 109 -15.5
t61.5 -41.5t27 -59.5t6.5 -69.5q1 -42 0.5 -82.5t-2.5 -80.5t-6 -81q-2 -11 -6 -16.5t-16 -11.5q-14 -7 -37 -11.5t-49.5 -8t-49.5 -5t-38 -1.5zM238 70q8 0 18 1t20 4.5t16.5 8.5t7.5 13q3 24 5 53t0 56q0 13 -10 18q-10 7 -28.5 8.5t-30.5 1.5q-9 0 -22.5 -3.5
t-25.5 -12.5t-19.5 -27t-7.5 -46q0 -22 9 -39t26 -26.5t42 -9.5zM245 520q-56 0 -86.5 24t-30.5 65q0 16 2 19t13 3h48q10 0 12.5 -1.5t2.5 -11.5q0 -14 11 -22.5t28 -8.5t28 8.5t11 23.5q0 8 3 10t9 2h53q9 0 10.5 -3.5t1.5 -18.5q0 -41 -29.5 -65t-86.5 -24z" />
    <glyph glyph-name="Aogonek" unicode="&#x104;" horiz-adv-x="550" 
d="M31 0q-8 0 -10 7t1 27q7 45 21 108.5t33 134.5t40.5 142t44.5 132.5t44 102.5q6 9 10.5 14t11.5 5h95q8 -3 13 -6.5t10 -12.5q21 -41 44 -102.5t45 -132.5t41 -142.5t33 -135t20 -107.5q4 -20 2 -27t-11 -7h-103q-8 0 -11 4.5t-7 23.5q-4 23 -10.5 54.5t-11.5 55.5
q-1 7 -3 8.5t-9 1.5h-178q-7 -1 -8 -2t-3 -9q-5 -23 -11.5 -54.5t-11.5 -55.5q-3 -18 -6 -22.5t-11 -4.5h-104zM214 249h122q7 0 8.5 2.5t-0.5 9.5q-13 51 -28 106.5t-31 100.5q-2 9 -7 9h-7q-4 0 -7 -9q-8 -26 -18.5 -61t-20.5 -73t-19 -74q-1 -6 0 -8.5t8 -2.5zM412 -250
q-48 0 -81.5 26.5t-33.5 67.5q0 33 14.5 60.5t40 50t56.5 39.5q10 5 21.5 9.5t25.5 4.5h63q7 0 8 -4t-6 -9q-54 -34 -82.5 -58.5t-39 -44t-10.5 -37.5q0 -19 11.5 -27t25.5 -7q16 1 37.5 10.5t37.5 22.5q6 5 11.5 4.5t5.5 -8.5v-39q0 -16 -18 -29q-20 -15 -40.5 -23.5
t-46.5 -8.5z" />
    <glyph glyph-name="aogonek" unicode="&#x105;" horiz-adv-x="470" 
d="M230 -7q-51 0 -95.5 11.5t-72 44.5t-27.5 96q0 52 19.5 85.5t50 51.5t63.5 24.5t59 6.5q21 0 40.5 -1.5t36.5 -4.5q9 -3 9 13q0 37 -22.5 52t-62.5 15q-38 0 -72.5 -14t-58.5 -26q-11 -6 -14.5 -4t-5.5 13l-9 56q-2 13 0 17t11 10q26 17 66 27.5t85 10.5q68 0 109 -15.5
t61.5 -41.5t27 -59.5t6.5 -69.5q1 -42 0.5 -82.5t-2.5 -80.5t-6 -81q-2 -11 -6 -16.5t-16 -11.5q-14 -7 -37 -11.5t-49.5 -8t-49.5 -5t-38 -1.5zM238 70q8 0 18 1t20 4.5t16.5 8.5t7.5 13q3 24 5 53t0 56q0 13 -10 18q-10 7 -28.5 8.5t-30.5 1.5q-9 0 -22.5 -3.5
t-25.5 -12.5t-19.5 -27t-7.5 -46q0 -22 9 -39t26 -26.5t42 -9.5zM250 -239q-48 0 -81.5 26.5t-33.5 67.5q0 33 14.5 60.5t40 50t56.5 39.5q10 5 21.5 9.5t25.5 4.5h63q7 0 8 -4t-6 -9q-54 -34 -82.5 -58.5t-39 -44t-10.5 -37.5q0 -19 11.5 -27t25.5 -7q16 1 37.5 10.5
t37.5 22.5q6 5 11.5 4.5t5.5 -8.5v-39q0 -16 -18 -29q-20 -15 -40.5 -23.5t-46.5 -8.5z" />
    <glyph glyph-name="Cacute" unicode="&#x106;" horiz-adv-x="470" 
d="M438 35q0 -24 -28 -31q-14 -5 -34.5 -7.5t-39 -3.5t-28.5 -1q-121 0 -194 87t-73 256q0 170 70.5 257.5t196.5 87.5q10 0 28.5 -1.5t39 -4t34.5 -7.5q14 -3 21 -8t7 -14v-87q0 -27 -29 -7q-20 13 -44 19.5t-47 6.5q-41 0 -68.5 -17.5t-43.5 -49t-23 -72.5t-7 -90
q0 -33 3.5 -68t12 -68.5t24 -60.5t41 -42.5t61.5 -15.5q26 0 50 6.5t38 14.5q19 12 25.5 11t6.5 -16v-74zM297 716h-60q-7 0 -7.5 5t5.5 11l64 72q6 7 10 9.5t14 2.5h93q5 0 8 -5t-2 -8l-100 -75q-8 -6 -13 -9t-12 -3z" />
    <glyph glyph-name="cacute" unicode="&#x107;" horiz-adv-x="412" 
d="M245 -8q-64 0 -106.5 19t-65.5 53t-32 78t-9 95q0 47 9.5 90t33 78t65 55t104.5 20q44 0 76.5 -9t57.5 -30q7 -7 9.5 -10.5t2.5 -11.5v-74q0 -9 -5.5 -9.5t-10.5 3.5q-26 23 -54.5 30t-58.5 7q-26 0 -45.5 -11.5t-31.5 -31.5t-18.5 -45.5t-6.5 -51.5q0 -46 11 -78.5
t32 -50t52 -17.5q23 0 45.5 6t49.5 19q17 8 24 -8l24 -56q4 -8 2.5 -12.5t-8.5 -8.5q-26 -19 -66 -28.5t-80 -9.5zM195 525q-9 0 -9.5 3.5t6.5 12.5l65 93q5 8 21 8h80q6 0 8 -3t-5 -10l-87 -97q-5 -6 -9 -6.5t-12 -0.5h-58z" />
    <glyph glyph-name="Cdotaccent" unicode="&#x10a;" horiz-adv-x="470" 
d="M438 35q0 -24 -28 -31q-14 -5 -34.5 -7.5t-39 -3.5t-28.5 -1q-121 0 -194 87t-73 256q0 170 70.5 257.5t196.5 87.5q10 0 28.5 -1.5t39 -4t34.5 -7.5q14 -3 21 -8t7 -14v-87q0 -27 -29 -7q-20 13 -44 19.5t-47 6.5q-41 0 -68.5 -17.5t-43.5 -49t-23 -72.5t-7 -90
q0 -33 3.5 -68t12 -68.5t24 -60.5t41 -42.5t61.5 -15.5q26 0 50 6.5t38 14.5q19 12 25.5 11t6.5 -16v-74zM346 773q0 -23 -10 -35.5t-40 -12.5t-41.5 12.5t-11.5 35.5q0 22 11.5 35t41.5 13q32 0 41 -13t9 -35z" />
    <glyph glyph-name="cdotaccent" unicode="&#x10b;" horiz-adv-x="412" 
d="M245 -8q-64 0 -106.5 19t-65.5 53t-32 78t-9 95q0 47 9.5 90t33 78t65 55t104.5 20q44 0 76.5 -9t57.5 -30q7 -7 9.5 -10.5t2.5 -11.5v-74q0 -9 -5.5 -9.5t-10.5 3.5q-26 23 -54.5 30t-58.5 7q-26 0 -45.5 -11.5t-31.5 -31.5t-18.5 -45.5t-6.5 -51.5q0 -46 11 -78.5
t32 -50t52 -17.5q23 0 45.5 6t49.5 19q17 8 24 -8l24 -56q4 -8 2.5 -12.5t-8.5 -8.5q-26 -19 -66 -28.5t-80 -9.5zM295 572q0 -23 -10 -35.5t-40 -12.5t-41.5 12.5t-11.5 35.5q0 22 11.5 35t41.5 13q32 0 41 -13t9 -35z" />
    <glyph glyph-name="Ccaron" unicode="&#x10c;" horiz-adv-x="470" 
d="M438 35q0 -24 -28 -31q-14 -5 -34.5 -7.5t-39 -3.5t-28.5 -1q-121 0 -194 87t-73 256q0 170 70.5 257.5t196.5 87.5q10 0 28.5 -1.5t39 -4t34.5 -7.5q14 -3 21 -8t7 -14v-87q0 -27 -29 -7q-20 13 -44 19.5t-47 6.5q-41 0 -68.5 -17.5t-43.5 -49t-23 -72.5t-7 -90
q0 -33 3.5 -68t12 -68.5t24 -60.5t41 -42.5t61.5 -15.5q26 0 50 6.5t38 14.5q19 12 25.5 11t6.5 -16v-74zM267 714q-5 0 -8 4l-84 90q-2 2 -1 5t5 3h52q5 0 9 -4l50 -40q5 -5 10 0l51 40q3 4 8 4h53q5 0 5.5 -3t-1.5 -5l-84 -90q-3 -4 -8 -4h-57z" />
    <glyph glyph-name="ccaron" unicode="&#x10d;" horiz-adv-x="412" 
d="M245 -8q-64 0 -106.5 19t-65.5 53t-32 78t-9 95q0 47 9.5 90t33 78t65 55t104.5 20q44 0 76.5 -9t57.5 -30q7 -7 9.5 -10.5t2.5 -11.5v-74q0 -9 -5.5 -9.5t-10.5 3.5q-26 23 -54.5 30t-58.5 7q-26 0 -45.5 -11.5t-31.5 -31.5t-18.5 -45.5t-6.5 -51.5q0 -46 11 -78.5
t32 -50t52 -17.5q23 0 45.5 6t49.5 19q17 8 24 -8l24 -56q4 -8 2.5 -12.5t-8.5 -8.5q-26 -19 -66 -28.5t-80 -9.5zM217 525q-5 0 -8 4l-77 100q-2 3 -1 5.5t5 2.5h56q5 0 8 -3l39 -37q5 -5 10 0l39 37q3 3 8 3h56q5 0 5.5 -2.5t-1.5 -5.5l-77 -100q-3 -4 -8 -4h-54z" />
    <glyph glyph-name="Dcaron" unicode="&#x10e;" horiz-adv-x="584" 
d="M543 346q0 -87 -19 -147.5t-49.5 -99.5t-67.5 -60.5t-73.5 -30t-66.5 -8.5h-189q-13 0 -13 12v648q0 13 13 13h189q36 0 74.5 -6.5t74.5 -25t64.5 -54.5t45.5 -94.5t17 -146.5zM412 346q0 83 -14.5 129.5t-38 66.5t-49.5 24.5t-48 4.5h-54q-8 0 -9.5 -1t-1.5 -7v-452
q0 -6 1.5 -7.5t7.5 -1.5h40q24 0 52 7t54.5 31t43 73t16.5 133zM241 714q-5 0 -8 4l-84 90q-2 2 -1 5t5 3h52q5 0 9 -4l50 -40q5 -5 10 0l51 40q3 4 8 4h53q5 0 5.5 -3t-1.5 -5l-84 -90q-3 -4 -8 -4h-57z" />
    <glyph glyph-name="dcaron" unicode="&#x10f;" horiz-adv-x="489" 
d="M37 229q2 76 20.5 124t48 75t65.5 37t73 10q14 0 32 -3t28 -5q7 -2 11.5 -1t4.5 9q0 18 -0.5 38t-2 40.5t-3.5 41t-3.5 39t-3.5 33.5q-2 17 1.5 20t12.5 3h96q7 0 11.5 -1t5.5 -8q4 -41 7 -95.5t5 -117t2.5 -125.5t-1 -121t-5 -103t-9.5 -69q-3 -12 -8.5 -18t-27.5 -14
q-19 -8 -61 -16.5t-92 -8.5q-39 1 -72.5 9.5t-58.5 27.5q-38 27 -57 76.5t-19 122.5zM168 228q-1 -69 16.5 -97.5t44.5 -32.5q12 -4 25.5 -4.5t27 2t23.5 6.5q3 2 4.5 4.5t1.5 7.5q1 22 2.5 46t2 48t1.5 48t1.5 46t-0.5 41q0 7 -1.5 9.5t-5.5 3.5q-13 5 -30.5 8.5t-29.5 3.5
t-26.5 -5t-27 -19t-20.5 -41.5t-9 -74.5zM510 504q-5 0 -8 4t-4 15l-6 146q-1 15 2.5 19t14.5 4h52q13 0 16.5 -4t2.5 -13l-8 -156q-1 -9 -4 -12t-10 -3h-48z" />
    <glyph glyph-name="Dcroat" unicode="&#x110;" horiz-adv-x="602" 
d="M590 346q0 -87 -19 -147.5t-49.5 -99.5t-67.5 -60.5t-73.5 -30t-66.5 -8.5h-189q-13 0 -13 12v648q0 13 13 13h189q36 0 74.5 -6.5t74.5 -25t64.5 -54.5t45.5 -94.5t17 -146.5zM459 346q0 83 -14.5 129.5t-38 66.5t-49.5 24.5t-48 4.5h-54q-8 0 -9.5 -1t-1.5 -7v-452
q0 -6 1.5 -7.5t7.5 -1.5h40q24 0 52 7t54.5 31t43 73t16.5 133zM41 287q-9 0 -10 3t-1 9v67q0 8 1.5 10.5t10.5 2.5h286q7 0 9.5 -2t2.5 -10v-71q0 -6 -2 -7.5t-11 -1.5h-286z" />
    <glyph glyph-name="dcroat" unicode="&#x111;" horiz-adv-x="477" 
d="M37 229q2 76 20.5 124t48 75t65.5 37t73 10q14 0 32 -3t28 -5q7 -2 11.5 -1t4.5 9q0 18 -0.5 38t-2 40.5t-3.5 41t-3.5 39t-3.5 33.5q-2 17 1.5 20t12.5 3h96q7 0 11.5 -1t5.5 -8q4 -41 7 -95.5t5 -117t2.5 -125.5t-1 -121t-5 -103t-9.5 -69q-3 -12 -8.5 -18t-27.5 -14
q-19 -8 -61 -16.5t-92 -8.5q-39 1 -72.5 9.5t-58.5 27.5q-38 27 -57 76.5t-19 122.5zM168 228q-1 -69 16.5 -97.5t44.5 -32.5q12 -4 25.5 -4.5t27 2t23.5 6.5q3 2 4.5 4.5t1.5 7.5q1 22 2.5 46t2 48t1.5 48t1.5 46t-0.5 41q0 7 -1.5 9.5t-5.5 3.5q-13 5 -30.5 8.5t-29.5 3.5
t-26.5 -5t-27 -19t-20.5 -41.5t-9 -74.5zM189 552q-9 0 -10 3t-1 9v67q0 8 1.5 10.5t10.5 2.5h286q7 0 9.5 -2t2.5 -10v-71q0 -6 -2 -7.5t-11 -1.5h-286z" />
    <glyph glyph-name="Emacron" unicode="&#x112;" horiz-adv-x="455" 
d="M78 0q-13 0 -13 12v648q0 13 13 13h334q12 0 14 -2t2 -13v-70q0 -12 -3 -14.5t-13 -2.5h-206q-7 0 -8 -1t-1 -7v-165q0 -6 1.5 -7.5t6.5 -1.5h162q13 0 15 -2.5t2 -16.5v-63q0 -13 -2.5 -15.5t-14.5 -2.5h-162q-5 0 -6.5 -1t-1.5 -6v-171q0 -6 1 -7.5t7 -1.5h205
q14 0 16 -3t2 -16v-64q0 -14 -3 -16.5t-16 -2.5h-331zM358 738q0 -4 -1.5 -5t-9.5 -1h-212q-7 0 -8.5 2t-1.5 6v60q0 6 2 7.5t8 1.5h213q7 0 8.5 -1t1.5 -8v-62z" />
    <glyph glyph-name="emacron" unicode="&#x113;" horiz-adv-x="471" 
d="M32 237q0 47 10 90t33.5 78t65 55t104.5 20q66 0 105 -18.5t59 -49.5t26.5 -67.5t6.5 -72.5q0 -42 -9.5 -55.5t-29.5 -13.5h-232q-6 0 -7.5 -2.5t-1.5 -9.5q0 -30 13.5 -54.5t39.5 -38.5t61 -14q33 0 63 10.5t44 18.5q12 7 19 8.5t15 -14.5l21 -42q6 -11 3 -15.5
t-13 -11.5q-35 -24 -84 -35t-98 -11q-65 0 -107 19t-65 53t-32.5 78.5t-9.5 94.5zM313 293q0 28 -7 48t-22.5 31t-41.5 11q-21 0 -35.5 -8t-23.5 -21t-14 -28.5t-7 -29.5q-1 -16 0 -19.5t8 -3.5h131q9 0 11 3t1 17zM363 537q0 -4 -1.5 -5t-9.5 -1h-212q-7 0 -8.5 2t-1.5 6
v60q0 6 2 7.5t8 1.5h213q7 0 8.5 -1t1.5 -8v-62z" />
    <glyph glyph-name="Edotaccent" unicode="&#x116;" horiz-adv-x="455" 
d="M78 0q-13 0 -13 12v648q0 13 13 13h334q12 0 14 -2t2 -13v-70q0 -12 -3 -14.5t-13 -2.5h-206q-7 0 -8 -1t-1 -7v-165q0 -6 1.5 -7.5t6.5 -1.5h162q13 0 15 -2.5t2 -16.5v-63q0 -13 -2.5 -15.5t-14.5 -2.5h-162q-5 0 -6.5 -1t-1.5 -6v-171q0 -6 1 -7.5t7 -1.5h205
q14 0 16 -3t2 -16v-64q0 -14 -3 -16.5t-16 -2.5h-331zM293 773q0 -23 -10 -35.5t-40 -12.5t-41.5 12.5t-11.5 35.5q0 22 11.5 35t41.5 13q32 0 41 -13t9 -35z" />
    <glyph glyph-name="edotaccent" unicode="&#x117;" horiz-adv-x="471" 
d="M32 237q0 47 10 90t33.5 78t65 55t104.5 20q66 0 105 -18.5t59 -49.5t26.5 -67.5t6.5 -72.5q0 -42 -9.5 -55.5t-29.5 -13.5h-232q-6 0 -7.5 -2.5t-1.5 -9.5q0 -30 13.5 -54.5t39.5 -38.5t61 -14q33 0 63 10.5t44 18.5q12 7 19 8.5t15 -14.5l21 -42q6 -11 3 -15.5
t-13 -11.5q-35 -24 -84 -35t-98 -11q-65 0 -107 19t-65 53t-32.5 78.5t-9.5 94.5zM313 293q0 28 -7 48t-22.5 31t-41.5 11q-21 0 -35.5 -8t-23.5 -21t-14 -28.5t-7 -29.5q-1 -16 0 -19.5t8 -3.5h131q9 0 11 3t1 17zM298 572q0 -23 -10 -35.5t-40 -12.5t-41.5 12.5
t-11.5 35.5q0 22 11.5 35t41.5 13q32 0 41 -13t9 -35z" />
    <glyph glyph-name="Eogonek" unicode="&#x118;" horiz-adv-x="455" 
d="M78 0q-13 0 -13 12v648q0 13 13 13h334q12 0 14 -2t2 -13v-70q0 -12 -3 -14.5t-13 -2.5h-206q-7 0 -8 -1t-1 -7v-165q0 -6 1.5 -7.5t6.5 -1.5h162q13 0 15 -2.5t2 -16.5v-63q0 -13 -2.5 -15.5t-14.5 -2.5h-162q-5 0 -6.5 -1t-1.5 -6v-171q0 -6 1 -7.5t7 -1.5h205
q14 0 16 -3t2 -16v-64q0 -14 -3 -16.5t-16 -2.5h-331zM230 -248q-48 0 -81.5 26.5t-33.5 67.5q0 33 14.5 60.5t40 50t56.5 39.5q10 5 21.5 9.5t25.5 4.5h63q7 0 8 -4t-6 -9q-54 -34 -82.5 -58.5t-39 -44t-10.5 -37.5q0 -19 11.5 -27t25.5 -7q16 1 37.5 10.5t37.5 22.5
q6 5 11.5 4.5t5.5 -8.5v-39q0 -16 -18 -29q-20 -15 -40.5 -23.5t-46.5 -8.5z" />
    <glyph glyph-name="eogonek" unicode="&#x119;" horiz-adv-x="471" 
d="M32 237q0 47 10 90t33.5 78t65 55t104.5 20q66 0 105 -18.5t59 -49.5t26.5 -67.5t6.5 -72.5q0 -42 -9.5 -55.5t-29.5 -13.5h-232q-6 0 -7.5 -2.5t-1.5 -9.5q0 -30 13.5 -54.5t39.5 -38.5t61 -14q33 0 63 10.5t44 18.5q12 7 19 8.5t15 -14.5l21 -42q6 -11 3 -15.5
t-13 -11.5q-35 -24 -84 -35t-98 -11q-65 0 -107 19t-65 53t-32.5 78.5t-9.5 94.5zM313 293q0 28 -7 48t-22.5 31t-41.5 11q-21 0 -35.5 -8t-23.5 -21t-14 -28.5t-7 -29.5q-1 -16 0 -19.5t8 -3.5h131q9 0 11 3t1 17zM204 -248q-48 0 -81.5 26.5t-33.5 67.5q0 33 14.5 60.5
t40 50t56.5 39.5q10 5 21.5 9.5t25.5 4.5h63q7 0 8 -4t-6 -9q-54 -34 -82.5 -58.5t-39 -44t-10.5 -37.5q0 -19 11.5 -27t25.5 -7q16 1 37.5 10.5t37.5 22.5q6 5 11.5 4.5t5.5 -8.5v-39q0 -16 -18 -29q-20 -15 -40.5 -23.5t-46.5 -8.5z" />
    <glyph glyph-name="Ecaron" unicode="&#x11a;" horiz-adv-x="455" 
d="M78 0q-13 0 -13 12v648q0 13 13 13h334q12 0 14 -2t2 -13v-70q0 -12 -3 -14.5t-13 -2.5h-206q-7 0 -8 -1t-1 -7v-165q0 -6 1.5 -7.5t6.5 -1.5h162q13 0 15 -2.5t2 -16.5v-63q0 -13 -2.5 -15.5t-14.5 -2.5h-162q-5 0 -6.5 -1t-1.5 -6v-171q0 -6 1 -7.5t7 -1.5h205
q14 0 16 -3t2 -16v-64q0 -14 -3 -16.5t-16 -2.5h-331zM213 714q-5 0 -8 4l-84 90q-2 2 -1 5t5 3h52q5 0 9 -4l50 -40q5 -5 10 0l51 40q3 4 8 4h53q5 0 5.5 -3t-1.5 -5l-84 -90q-3 -4 -8 -4h-57z" />
    <glyph glyph-name="ecaron" unicode="&#x11b;" horiz-adv-x="471" 
d="M32 237q0 47 10 90t33.5 78t65 55t104.5 20q66 0 105 -18.5t59 -49.5t26.5 -67.5t6.5 -72.5q0 -42 -9.5 -55.5t-29.5 -13.5h-232q-6 0 -7.5 -2.5t-1.5 -9.5q0 -30 13.5 -54.5t39.5 -38.5t61 -14q33 0 63 10.5t44 18.5q12 7 19 8.5t15 -14.5l21 -42q6 -11 3 -15.5
t-13 -11.5q-35 -24 -84 -35t-98 -11q-65 0 -107 19t-65 53t-32.5 78.5t-9.5 94.5zM313 293q0 28 -7 48t-22.5 31t-41.5 11q-21 0 -35.5 -8t-23.5 -21t-14 -28.5t-7 -29.5q-1 -16 0 -19.5t8 -3.5h131q9 0 11 3t1 17zM220 525q-5 0 -8 4l-77 100q-2 3 -1 5.5t5 2.5h56
q5 0 8 -3l39 -37q5 -5 10 0l39 37q3 3 8 3h56q5 0 5.5 -2.5t-1.5 -5.5l-77 -100q-3 -4 -8 -4h-54z" />
    <glyph glyph-name="Gbreve" unicode="&#x11e;" horiz-adv-x="575" 
d="M522 31q0 -13 -17.5 -21.5t-46.5 -12t-65 -3.5q-180 0 -271 84.5t-91 247.5q0 109 41.5 188t114.5 121.5t166 42.5q40 0 78.5 -3t60.5 -11q14 -4 19.5 -7t5.5 -16v-70q0 -19 -8 -23.5t-18 1.5q-25 14 -51 20.5t-59 6.5q-29 0 -65.5 -10t-69 -36.5t-54 -74t-21.5 -123.5
q0 -78 20.5 -125t51 -71t63 -32t56.5 -8q26 0 28 13v173q0 6 -1.5 7t-6.5 1h-113q-10 0 -13 2t-3 12v72q0 10 2.5 13t13.5 3h233q15 0 17.5 -3.5t2.5 -18.5v-339zM347 708q-51 0 -78.5 23t-27.5 63q0 13 2 16t11 3h42q8 0 11 -1.5t3 -9.5q0 -16 10 -25t27 -9q15 0 26 9
t11 25q0 8 3.5 9.5t6.5 1.5h46q7 0 9 -2t2 -17q0 -39 -26.5 -62.5t-77.5 -23.5z" />
    <glyph glyph-name="gbreve" unicode="&#x11f;" horiz-adv-x="480" 
d="M32 242q1 68 19.5 121.5t66 84t133.5 30.5q40 0 78.5 -6.5t68.5 -17.5q24 -9 29 -20t8 -37q10 -81 10.5 -175t-11.5 -183q-11 -87 -65 -127.5t-148 -40.5q-37 0 -81.5 10.5t-83.5 39.5q-4 3 -7 10t1 14q5 7 14.5 24t13.5 24q7 12 11.5 13t14.5 -6q11 -8 30.5 -16t41 -14
t35.5 -6q16 0 35 5t35 18t20 39q0 1 0.5 2t0.5 2q1 7 -2 11.5t-13 2.5q-8 -2 -23 -3.5t-29 -1.5q-54 0 -100 22t-74.5 67.5t-28.5 113.5zM166 263q0 -37 7 -67t24 -46.5t48 -16.5q14 0 27.5 1.5t23.5 6.5q13 5 14 20q2 20 2 48.5t-0.5 59t-1.5 55t-2 37.5q0 6 -2.5 13.5
t-7.5 9.5q-9 5 -21.5 7.5t-30.5 2.5q-30 0 -47.5 -17t-24.5 -46.5t-8 -67.5zM252 521q-56 0 -86.5 24t-30.5 65q0 16 2 19t13 3h48q10 0 12.5 -1.5t2.5 -11.5q0 -14 11 -22.5t28 -8.5t28 8.5t11 23.5q0 8 3 10t9 2h53q9 0 10.5 -3.5t1.5 -18.5q0 -41 -29.5 -65t-86.5 -24z
" />
    <glyph glyph-name="Gdotaccent" unicode="&#x120;" horiz-adv-x="575" 
d="M522 31q0 -13 -17.5 -21.5t-46.5 -12t-65 -3.5q-180 0 -271 84.5t-91 247.5q0 109 41.5 188t114.5 121.5t166 42.5q40 0 78.5 -3t60.5 -11q14 -4 19.5 -7t5.5 -16v-70q0 -19 -8 -23.5t-18 1.5q-25 14 -51 20.5t-59 6.5q-29 0 -65.5 -10t-69 -36.5t-54 -74t-21.5 -123.5
q0 -78 20.5 -125t51 -71t63 -32t56.5 -8q26 0 28 13v173q0 6 -1.5 7t-6.5 1h-113q-10 0 -13 2t-3 12v72q0 10 2.5 13t13.5 3h233q15 0 17.5 -3.5t2.5 -18.5v-339zM397 773q0 -23 -10 -35.5t-40 -12.5t-41.5 12.5t-11.5 35.5q0 22 11.5 35t41.5 13q32 0 41 -13t9 -35z" />
    <glyph glyph-name="gdotaccent" unicode="&#x121;" horiz-adv-x="480" 
d="M32 242q1 68 19.5 121.5t66 84t133.5 30.5q40 0 78.5 -6.5t68.5 -17.5q24 -9 29 -20t8 -37q10 -81 10.5 -175t-11.5 -183q-11 -87 -65 -127.5t-148 -40.5q-37 0 -81.5 10.5t-83.5 39.5q-4 3 -7 10t1 14q5 7 14.5 24t13.5 24q7 12 11.5 13t14.5 -6q11 -8 30.5 -16t41 -14
t35.5 -6q16 0 35 5t35 18t20 39q0 1 0.5 2t0.5 2q1 7 -2 11.5t-13 2.5q-8 -2 -23 -3.5t-29 -1.5q-54 0 -100 22t-74.5 67.5t-28.5 113.5zM166 263q0 -37 7 -67t24 -46.5t48 -16.5q14 0 27.5 1.5t23.5 6.5q13 5 14 20q2 20 2 48.5t-0.5 59t-1.5 55t-2 37.5q0 6 -2.5 13.5
t-7.5 9.5q-9 5 -21.5 7.5t-30.5 2.5q-30 0 -47.5 -17t-24.5 -46.5t-8 -67.5zM303 573q0 -23 -10 -35.5t-40 -12.5t-41.5 12.5t-11.5 35.5q0 22 11.5 35t41.5 13q32 0 41 -13t9 -35z" />
    <glyph glyph-name="uni0122" unicode="&#x122;" horiz-adv-x="575" 
d="M522 31q0 -13 -17.5 -21.5t-46.5 -12t-65 -3.5q-180 0 -271 84.5t-91 247.5q0 109 41.5 188t114.5 121.5t166 42.5q40 0 78.5 -3t60.5 -11q14 -4 19.5 -7t5.5 -16v-70q0 -19 -8 -23.5t-18 1.5q-25 14 -51 20.5t-59 6.5q-29 0 -65.5 -10t-69 -36.5t-54 -74t-21.5 -123.5
q0 -78 20.5 -125t51 -71t63 -32t56.5 -8q26 0 28 13v173q0 6 -1.5 7t-6.5 1h-113q-10 0 -13 2t-3 12v72q0 10 2.5 13t13.5 3h233q15 0 17.5 -3.5t2.5 -18.5v-339zM345 -83q0 -20 -8.5 -43.5t-20 -45t-20.5 -34.5q-4 -6 -11 -6h-22.5h-21.5q-7 0 -7 2.5t4 11.5q5 12 13 34.5
t15 35.5q-19 3 -28 17t-9 27q0 21 13.5 35.5t45.5 14.5q24 0 40.5 -9.5t16.5 -39.5z" />
    <glyph glyph-name="uni0123" unicode="&#x123;" horiz-adv-x="480" 
d="M32 242q1 68 19.5 121.5t66 84t133.5 30.5q40 0 78.5 -6.5t68.5 -17.5q24 -9 29 -20t8 -37q10 -81 10.5 -175t-11.5 -183q-11 -87 -65 -127.5t-148 -40.5q-37 0 -81.5 10.5t-83.5 39.5q-4 3 -7 10t1 14q5 7 14.5 24t13.5 24q7 12 11.5 13t14.5 -6q11 -8 30.5 -16t41 -14
t35.5 -6q16 0 35 5t35 18t20 39q0 1 0.5 2t0.5 2q1 7 -2 11.5t-13 2.5q-8 -2 -23 -3.5t-29 -1.5q-54 0 -100 22t-74.5 67.5t-28.5 113.5zM166 263q0 -37 7 -67t24 -46.5t48 -16.5q14 0 27.5 1.5t23.5 6.5q13 5 14 20q2 20 2 48.5t-0.5 59t-1.5 55t-2 37.5q0 6 -2.5 13.5
t-7.5 9.5q-9 5 -21.5 7.5t-30.5 2.5q-30 0 -47.5 -17t-24.5 -46.5t-8 -67.5zM190 600q0 22 7.5 50t19.5 53.5t22 40.5q4 7 12 8q12 0 24 0.5t23 0.5q7 0 7 -3.5t-4 -12.5q-3 -8 -8 -24.5t-10 -34t-10 -28.5q21 -2 30.5 -17t9.5 -30q0 -24 -13.5 -39.5t-47.5 -16.5
q-25 -1 -43 9.5t-19 43.5z" />
    <glyph glyph-name="Hbar" unicode="&#x126;" horiz-adv-x="661" 
d="M38 526q-11 0 -13 1.5t-2 5.5v42q0 6 3 8t13 2h584q10 0 12.5 -1.5t2.5 -7.5v-44q0 -4 -2 -5t-14 -1h-584zM138 0q-6 0 -12.5 2t-7.5 10q-4 36 -7.5 89.5t-5.5 117t-3 129.5q0 61 1.5 119.5t6 108t11.5 84.5q0 6 6.5 9.5t11.5 3.5h52.5h52.5q9 0 8 -13q-3 -32 -6 -75.5
t-6 -90.5t-4 -90q0 -9 1.5 -12t11.5 -3h99h99q7 0 10.5 2.5t3.5 12.5q-2 42 -5 89t-6 90.5t-7 76.5q0 13 8 13h53.5h52.5q5 0 11 -3.5t7 -9.5q7 -35 11 -85.5t6 -109t1 -119.5q0 -65 -2.5 -128.5t-5.5 -116.5t-7 -89q-1 -8 -7 -10t-13 -2h-52.5h-53.5q-7 0 -6 12
q4 28 6.5 60.5t4.5 67.5t3 70.5t1 67.5q0 7 -2.5 9t-9.5 2h-101h-101q-8 0 -10 -2t-2 -9q0 -33 1 -68t3 -70t4.5 -67.5t6.5 -60.5q0 -12 -7 -12h-52.5h-52.5z" />
    <glyph glyph-name="hbar" unicode="&#x127;" horiz-adv-x="505" 
d="M85 12v342v342q0 12 14 12h51.5h50.5q13 0 13 -12v-110v-109q0 -8 4 -9.5t8 0.5q9 3 30.5 7t40.5 4q46 0 78.5 -13.5t53 -41.5t31 -72t12.5 -106q1 -42 -1 -85.5t-6 -83t-9 -67.5q-1 -6 -5.5 -8t-11.5 -2h-47h-46q-16 0 -17.5 3t1.5 21q5 40 8 84.5t4 88.5q1 43 -2 78
t-11.5 59.5t-24 37t-40.5 12.5q-8 0 -18 -2t-19 -4q-6 -2 -9.5 -7.5t-3.5 -14.5v-344q0 -12 -13 -12h-102q-14 0 -14 12zM29 575q-9 0 -10 3t-1 9v67q0 8 1.5 10.5t10.5 2.5h286q7 0 9.5 -2t2.5 -10v-71q0 -6 -2 -7.5t-11 -1.5h-286z" />
    <glyph glyph-name="Itilde" unicode="&#x128;" horiz-adv-x="261" 
d="M197 12q0 -12 -14 -12h-104q-14 0 -14 12v648q0 13 14 13h104q14 0 14 -13v-648zM25 717q-6 0 -6 6q0 41 18 65t53 24q16 0 31 -9.5t27.5 -19t18.5 -9.5q5 0 9 5.5t4 15.5q0 8 5 8h51q6 0 6 -7q0 -36 -20 -61.5t-52 -25.5q-21 0 -35.5 9t-24.5 18t-18 9q-7 0 -10 -5
t-3 -16q0 -7 -5 -7h-49z" />
    <glyph glyph-name="itilde" unicode="&#x129;" horiz-adv-x="221" 
d="M174 12q0 -12 -13 -12h-102q-12 0 -12 12v448q0 12 12 12h102q13 0 13 -12v-448zM4 527q-6 0 -6 6q0 38 18.5 60t52.5 22q17 0 32 -8t28 -16.5t19 -8.5t10 4.5t4 13.5q0 7 5 7h50q6 0 6 -6q0 -34 -20 -57.5t-52 -23.5q-21 0 -36 8t-25 16t-19 8q-7 0 -10 -4.5t-3 -13.5
q0 -7 -6 -7h-48z" />
    <glyph glyph-name="Imacron" unicode="&#x12a;" horiz-adv-x="261" 
d="M197 12q0 -12 -14 -12h-104q-14 0 -14 12v648q0 13 14 13h104q14 0 14 -13v-648zM248 738q0 -4 -1.5 -5t-9.5 -1h-212q-7 0 -8.5 2t-1.5 6v60q0 6 2 7.5t8 1.5h213q7 0 8.5 -1t1.5 -8v-62z" />
    <glyph glyph-name="imacron" unicode="&#x12b;" horiz-adv-x="221" 
d="M174 12q0 -12 -13 -12h-102q-12 0 -12 12v448q0 12 12 12h102q13 0 13 -12v-448zM226 537q0 -4 -1.5 -5t-9.5 -1h-212q-7 0 -8.5 2t-1.5 6v60q0 6 2 7.5t8 1.5h213q7 0 8.5 -1t1.5 -8v-62z" />
    <glyph glyph-name="Iogonek" unicode="&#x12e;" horiz-adv-x="261" 
d="M197 12q0 -12 -14 -12h-104q-14 0 -14 12v648q0 13 14 13h104q14 0 14 -13v-648zM83 -248q-48 0 -81.5 26.5t-33.5 67.5q0 33 14.5 60.5t40 50t56.5 39.5q10 5 21.5 9.5t25.5 4.5h63q7 0 8 -4t-6 -9q-54 -34 -82.5 -58.5t-39 -44t-10.5 -37.5q0 -19 11.5 -27t25.5 -7
q16 1 37.5 10.5t37.5 22.5q6 5 11.5 4.5t5.5 -8.5v-39q0 -16 -18 -29q-20 -15 -40.5 -23.5t-46.5 -8.5z" />
    <glyph glyph-name="iogonek" unicode="&#x12f;" horiz-adv-x="221" 
d="M174 12q0 -12 -13 -12h-102q-12 0 -12 12v448q0 12 12 12h102q13 0 13 -12v-448zM161 572q0 -23 -10 -35.5t-40 -12.5t-41.5 12.5t-11.5 35.5q0 22 11.5 35t41.5 13q32 0 41 -13t9 -35zM56 -247q-48 0 -81.5 26.5t-33.5 67.5q0 33 14.5 60.5t40 50t56.5 39.5
q10 5 21.5 9.5t25.5 4.5h63q7 0 8 -4t-6 -9q-54 -34 -82.5 -58.5t-39 -44t-10.5 -37.5q0 -19 11.5 -27t25.5 -7q16 1 37.5 10.5t37.5 22.5q6 5 11.5 4.5t5.5 -8.5v-39q0 -16 -18 -29q-20 -15 -40.5 -23.5t-46.5 -8.5z" />
    <glyph glyph-name="Idotaccent" unicode="&#x130;" horiz-adv-x="261" 
d="M197 12q0 -12 -14 -12h-104q-14 0 -14 12v648q0 13 14 13h104q14 0 14 -13v-648zM182 773q0 -23 -10 -35.5t-40 -12.5t-41.5 12.5t-11.5 35.5q0 22 11.5 35t41.5 13q32 0 41 -13t9 -35z" />
    <glyph glyph-name="dotlessi" unicode="&#x131;" horiz-adv-x="221" 
d="M174 12q0 -12 -13 -12h-102q-12 0 -12 12v448q0 12 12 12h102q13 0 13 -12v-448z" />
    <glyph glyph-name="uni0136" unicode="&#x136;" horiz-adv-x="557" 
d="M69 0q-4 0 -4 4v333v332q0 4 4 4h21h41h41h21q4 0 4 -4v-68v-57v-57v-68q0 -3 1 -5.5t3 -2.5h20q3 0 6 3.5t5 7.5q20 38 35 66t29 53t29 53.5l35 66.5q4 7 8.5 9.5t9.5 2.5h20.5h39.5h40h21q10 0 8.5 -7t-10.5 -26q-29 -47 -53.5 -90t-47.5 -87.5t-46 -97.5q-4 -9 -5 -16
t-1 -14q0 -20 7 -44t18.5 -47t27 -44t32.5 -37q20 -19 45.5 -31.5t60.5 -12.5q2 0 5 -1t3 -3v-110q0 -5 -3 -5q-63 0 -107 11t-85 43q-19 15 -35.5 34.5t-32 43.5t-27.5 50.5t-21 55.5q-2 8 -6 11t-5 3h-10.5h-9.5l-2 -1t-2 -6v-67v-53.5v-53.5v-67q0 -4 -4 -4h-21h-41h-41
h-21zM348 -83q0 -20 -8.5 -43.5t-20 -45t-20.5 -34.5q-4 -6 -11 -6h-22.5h-21.5q-7 0 -7 2.5t4 11.5q5 12 13 34.5t15 35.5q-19 3 -28 17t-9 27q0 21 13.5 35.5t45.5 14.5q24 0 40.5 -9.5t16.5 -39.5z" />
    <glyph glyph-name="uni0137" unicode="&#x137;" horiz-adv-x="450" 
d="M47 4v675q0 4 4 4h120q4 0 4 -4v-363q0 -2 0.5 -6t2.5 -4q4 0 9.5 1.5t9.5 2.5q7 6 11 10t10 14q15 20 25.5 39.5t20 40t19.5 45.5q4 10 9 11.5t17 1.5h103q9 0 9.5 -5.5t-1.5 -9.5t-10.5 -23t-22.5 -46t-32 -56.5t-39 -54.5q-4 -5 -7 -8t-6 -7l6 -3t5 -4
q17 -17 35.5 -46.5t35.5 -63.5t31 -64.5t22.5 -50.5t9.5 -22q4 -8 -3 -8h-21h-39.5h-39h-20.5q-4 0 -5 0.5t-4 6.5l-7.5 14.5t-19 36.5t-24.5 46.5t-24 44.5t-17 29q-4 8 -10.5 17t-15.5 14t-20 0q-3 -3 -3 -15v-190q0 -4 -4 -4h-120q-4 0 -4 4zM293 -83q0 -20 -8.5 -43.5
t-20 -45t-20.5 -34.5q-4 -6 -11 -6h-22.5h-21.5q-7 0 -7 2.5t4 11.5q5 12 13 34.5t15 35.5q-19 3 -28 17t-9 27q0 21 13.5 35.5t45.5 14.5q24 0 40.5 -9.5t16.5 -39.5z" />
    <glyph glyph-name="Lacute" unicode="&#x139;" horiz-adv-x="438" 
d="M79 0q-14 0 -14 12v648q0 13 14 13h101q10 0 13.5 -3.5t3.5 -13.5v-545q0 -6 1 -7.5t7 -1.5h204q14 0 16.5 -3t2.5 -16v-64q0 -14 -3 -16.5t-16 -2.5h-330zM131 716h-60q-7 0 -7.5 5t5.5 11l64 72q6 7 10 9.5t14 2.5h93q5 0 8 -5t-2 -8l-100 -75q-8 -6 -13 -9t-12 -3z
" />
    <glyph glyph-name="lacute" unicode="&#x13a;" horiz-adv-x="221" 
d="M47 12v684q0 12 13 12h101q14 0 14 -12v-684q0 -12 -14 -12h-101q-13 0 -13 12zM62 743q-9 0 -9.5 3.5t6.5 12.5l65 93q5 8 21 8h80q6 0 8 -3t-5 -10l-87 -97q-5 -6 -9 -6.5t-12 -0.5h-58z" />
    <glyph glyph-name="uni013B" unicode="&#x13b;" horiz-adv-x="438" 
d="M79 0q-14 0 -14 12v648q0 13 14 13h101q10 0 13.5 -3.5t3.5 -13.5v-545q0 -6 1 -7.5t7 -1.5h204q14 0 16.5 -3t2.5 -16v-64q0 -14 -3 -16.5t-16 -2.5h-330zM289 -83q0 -20 -8.5 -43.5t-20 -45t-20.5 -34.5q-4 -6 -11 -6h-22.5h-21.5q-7 0 -7 2.5t4 11.5q5 12 13 34.5
t15 35.5q-19 3 -28 17t-9 27q0 21 13.5 35.5t45.5 14.5q24 0 40.5 -9.5t16.5 -39.5z" />
    <glyph glyph-name="uni013C" unicode="&#x13c;" horiz-adv-x="221" 
d="M47 12v684q0 12 13 12h101q14 0 14 -12v-684q0 -12 -14 -12h-101q-13 0 -13 12zM165 -83q0 -20 -8.5 -43.5t-20 -45t-20.5 -34.5q-4 -6 -11 -6h-22.5h-21.5q-7 0 -7 2.5t4 11.5q5 12 13 34.5t15 35.5q-19 3 -28 17t-9 27q0 21 13.5 35.5t45.5 14.5q24 0 40.5 -9.5
t16.5 -39.5z" />
    <glyph glyph-name="Lcaron" unicode="&#x13d;" horiz-adv-x="438" 
d="M79 0q-14 0 -14 12v648q0 13 14 13h101q10 0 13.5 -3.5t3.5 -13.5v-545q0 -6 1 -7.5t7 -1.5h204q14 0 16.5 -3t2.5 -16v-64q0 -14 -3 -16.5t-16 -2.5h-330zM338 489q-5 0 -8 4t-4 15l-6 146q-1 15 2.5 19t14.5 4h52q13 0 16.5 -4t2.5 -13l-8 -156q-1 -9 -4 -12t-10 -3
h-48z" />
    <glyph glyph-name="lcaron" unicode="&#x13e;" horiz-adv-x="221" 
d="M47 12v684q0 12 13 12h101q14 0 14 -12v-684q0 -12 -14 -12h-101q-13 0 -13 12zM260 506q-5 0 -8 4t-4 15l-6 146q-1 15 2.5 19t14.5 4h52q13 0 16.5 -4t2.5 -13l-8 -156q-1 -9 -4 -12t-10 -3h-48z" />
    <glyph glyph-name="Lslash" unicode="&#x141;" horiz-adv-x="464" 
d="M93 0q-14 0 -14 12v648q0 13 14 13h101q10 0 13 -3.5t3 -13.5v-545q0 -6 1 -7.5t8 -1.5h204q14 0 16 -3t2 -16v-64q0 -14 -2.5 -16.5t-16.5 -2.5h-329zM25 104q-2 -1 -3.5 -0.5l-1.5 0.5l-27 39q-2 2 2 4l283 175q2 1 4 -1l26 -39q2 -2 -1 -4z" />
    <glyph glyph-name="lslash" unicode="&#x142;" horiz-adv-x="313" 
d="M98 12v684q0 12 13 12h101q14 0 14 -12v-684q0 -12 -14 -12h-101q-13 0 -13 12zM42 105q-2 -1 -3.5 -0.5l-1.5 0.5l-24 43q-2 2 2 4l257 157q2 1 4 -1l24 -42q2 -2 -1 -4z" />
    <glyph glyph-name="Nacute" unicode="&#x143;" horiz-adv-x="642" 
d="M435 276q3 -4 8 -4t5 6q1 31 0.5 66t-1 73.5t-2 79.5t-5 81.5t-8.5 80.5q-1 14 7 14h107q6 0 11.5 -3.5t6.5 -9.5q7 -37 11.5 -89.5t6 -114t0.5 -125t-3.5 -124t-6 -111t-7.5 -84.5q-1 -8 -6.5 -10t-12.5 -2h-68q-7 0 -16 16l-259 386q-1 4 -5 4t-4 -5v-101.5t0.5 -89
t2.5 -77t4 -66t6 -54.5q1 -13 -7 -13h-105q-6 0 -12.5 2t-7.5 10q-4 34 -7 84.5t-5 111t-2.5 124.5t1 125.5t5.5 114t11 88.5q2 6 7.5 9.5t10.5 3.5h65q9 0 13 -9zM316 716h-60q-7 0 -7.5 5t5.5 11l64 72q6 7 10 9.5t14 2.5h93q5 0 8 -5t-2 -8l-100 -75q-8 -6 -13 -9t-12 -3
z" />
    <glyph glyph-name="nacute" unicode="&#x144;" horiz-adv-x="469" 
d="M61 0q-14 0 -14 13v207.5v207.5q0 10 7 15t27 12q13 4 38.5 9.5t55.5 10.5t54 5q83 0 127.5 -31.5t61 -83t16.5 -113.5q0 -37 -1.5 -77.5t-4.5 -79.5t-6 -71q-2 -18 -6 -21t-18 -3h-82q-14 0 -18.5 3.5t-3.5 15.5q0 4 1.5 31.5t3.5 65.5t3.5 75t1.5 60q0 52 -9 79.5
t-26 37.5t-43 10q-10 0 -19 -1t-16 -3q-9 -1 -13 -8t-4 -23v-97v-114v-119q0 -13 -11 -13h-102zM191 525q-9 0 -9.5 3.5t6.5 12.5l65 93q5 8 21 8h80q6 0 8 -3t-5 -10l-87 -97q-5 -6 -9 -6.5t-12 -0.5h-58z" />
    <glyph glyph-name="uni0145" unicode="&#x145;" horiz-adv-x="642" 
d="M435 276q3 -4 8 -4t5 6q1 31 0.5 66t-1 73.5t-2 79.5t-5 81.5t-8.5 80.5q-1 14 7 14h107q6 0 11.5 -3.5t6.5 -9.5q7 -37 11.5 -89.5t6 -114t0.5 -125t-3.5 -124t-6 -111t-7.5 -84.5q-1 -8 -6.5 -10t-12.5 -2h-68q-7 0 -16 16l-259 386q-1 4 -5 4t-4 -5v-101.5t0.5 -89
t2.5 -77t4 -66t6 -54.5q1 -13 -7 -13h-105q-6 0 -12.5 2t-7.5 10q-4 34 -7 84.5t-5 111t-2.5 124.5t1 125.5t5.5 114t11 88.5q2 6 7.5 9.5t10.5 3.5h65q9 0 13 -9zM375 -83q0 -20 -8.5 -43.5t-20 -45t-20.5 -34.5q-4 -6 -11 -6h-22.5h-21.5q-7 0 -7 2.5t4 11.5q5 12 13 34.5
t15 35.5q-19 3 -28 17t-9 27q0 21 13.5 35.5t45.5 14.5q24 0 40.5 -9.5t16.5 -39.5z" />
    <glyph glyph-name="uni0146" unicode="&#x146;" horiz-adv-x="469" 
d="M61 0q-14 0 -14 13v207.5v207.5q0 10 7 15t27 12q13 4 38.5 9.5t55.5 10.5t54 5q83 0 127.5 -31.5t61 -83t16.5 -113.5q0 -37 -1.5 -77.5t-4.5 -79.5t-6 -71q-2 -18 -6 -21t-18 -3h-82q-14 0 -18.5 3.5t-3.5 15.5q0 4 1.5 31.5t3.5 65.5t3.5 75t1.5 60q0 52 -9 79.5
t-26 37.5t-43 10q-10 0 -19 -1t-16 -3q-9 -1 -13 -8t-4 -23v-97v-114v-119q0 -13 -11 -13h-102zM295 -83q0 -20 -8.5 -43.5t-20 -45t-20.5 -34.5q-4 -6 -11 -6h-22.5h-21.5q-7 0 -7 2.5t4 11.5q5 12 13 34.5t15 35.5q-19 3 -28 17t-9 27q0 21 13.5 35.5t45.5 14.5
q24 0 40.5 -9.5t16.5 -39.5z" />
    <glyph glyph-name="Ncaron" unicode="&#x147;" horiz-adv-x="642" 
d="M435 276q3 -4 8 -4t5 6q1 31 0.5 66t-1 73.5t-2 79.5t-5 81.5t-8.5 80.5q-1 14 7 14h107q6 0 11.5 -3.5t6.5 -9.5q7 -37 11.5 -89.5t6 -114t0.5 -125t-3.5 -124t-6 -111t-7.5 -84.5q-1 -8 -6.5 -10t-12.5 -2h-68q-7 0 -16 16l-259 386q-1 4 -5 4t-4 -5v-101.5t0.5 -89
t2.5 -77t4 -66t6 -54.5q1 -13 -7 -13h-105q-6 0 -12.5 2t-7.5 10q-4 34 -7 84.5t-5 111t-2.5 124.5t1 125.5t5.5 114t11 88.5q2 6 7.5 9.5t10.5 3.5h65q9 0 13 -9zM285 714q-5 0 -8 4l-84 90q-2 2 -1 5t5 3h52q5 0 9 -4l50 -40q5 -5 10 0l51 40q3 4 8 4h53q5 0 5.5 -3
t-1.5 -5l-84 -90q-3 -4 -8 -4h-57z" />
    <glyph glyph-name="ncaron" unicode="&#x148;" horiz-adv-x="469" 
d="M61 0q-14 0 -14 13v207.5v207.5q0 10 7 15t27 12q13 4 38.5 9.5t55.5 10.5t54 5q83 0 127.5 -31.5t61 -83t16.5 -113.5q0 -37 -1.5 -77.5t-4.5 -79.5t-6 -71q-2 -18 -6 -21t-18 -3h-82q-14 0 -18.5 3.5t-3.5 15.5q0 4 1.5 31.5t3.5 65.5t3.5 75t1.5 60q0 52 -9 79.5
t-26 37.5t-43 10q-10 0 -19 -1t-16 -3q-9 -1 -13 -8t-4 -23v-97v-114v-119q0 -13 -11 -13h-102zM213 525q-5 0 -8 4l-77 100q-2 3 -1 5.5t5 2.5h56q5 0 8 -3l39 -37q5 -5 10 0l39 37q3 3 8 3h56q5 0 5.5 -2.5t-1.5 -5.5l-77 -100q-3 -4 -8 -4h-54z" />
    <glyph glyph-name="Eng" unicode="&#x14a;" horiz-adv-x="591" 
d="M539 660q7 -37 11 -94t5.5 -130t0 -156t-5 -171.5t-9.5 -177.5q-4 -55 -20.5 -94t-50.5 -59.5t-91 -20.5q-26 0 -52 5t-43 16q-15 9 -18.5 14.5t2.5 15.5l25 43q5 7 10 6.5t11 -4.5q10 -6 19.5 -8t18.5 -1q22 2 40 23t21 58l9 113l-244 364q-1 4 -5 4t-4 -5v-101.5
t0.5 -89t2.5 -77t4 -66t6 -54.5q1 -13 -7 -13h-105q-6 0 -12.5 2t-7.5 10q-4 34 -7 84.5t-5 111t-2.5 124.5t1 125.5t5.5 114t11 88.5q2 6 7.5 9.5t10.5 3.5h65q9 0 13 -9l261 -388q3 -4 8 -4t5 6q1 31 0.5 66t-1 73.5t-2 79.5t-5 81.5t-8.5 80.5q-1 14 7 14h107
q6 0 11.5 -3.5t6.5 -9.5z" />
    <glyph glyph-name="eng" unicode="&#x14b;" horiz-adv-x="481" 
d="M61 0q-3 0 -8.5 2.5t-5.5 10.5v205.5v205.5q0 11 7 15.5t27 12.5q13 4 38.5 9.5t55.5 10t54 4.5q83 0 127.5 -31t61 -82t16.5 -113q0 -56 -3.5 -115t-8.5 -110q-2 -18 -6 -21.5t-18 -3.5h-41h-41q-14 0 -18.5 2.5t-3.5 16.5q0 3 1 25t2.5 53.5t3 63.5t2.5 56.5t1 31.5
q1 49 -7 75t-22.5 36.5t-35.5 12.5q-9 3 -20 3t-20.5 -1.5t-16.5 -6.5q-4 -3 -6 -15t-2 -36v-135v-165q0 -5 -1 -11t-8 -6h-52h-52zM426 71l-6 -82q-6 -78 -41 -123t-121 -45q-26 0 -51.5 4.5t-43.5 16.5q-14 9 -17.5 14.5t2.5 14.5l25 43q5 8 9.5 7t11.5 -4q9 -6 19 -8
t18 -1q24 1 41 22t20 59l5 82h129z" />
    <glyph glyph-name="Omacron" unicode="&#x14c;" horiz-adv-x="638" 
d="M41 334q0 109 23.5 186t84 117.5t169.5 40.5q84 0 139 -23t85.5 -67t42 -108t11.5 -146t-11.5 -145.5t-42 -107.5t-85.5 -67t-139 -23q-109 0 -169.5 40.5t-84 117t-23.5 185.5zM178 334q0 -93 15 -143.5t45 -70.5t79 -20q48 0 79 19.5t47.5 70.5t16.5 144
q0 94 -16.5 145.5t-47.5 71.5t-80 20q-48 0 -78.5 -20.5t-45 -71.5t-14.5 -145zM436 738q0 -4 -1.5 -5t-9.5 -1h-212q-7 0 -8.5 2t-1.5 6v60q0 6 2 7.5t8 1.5h213q7 0 8.5 -1t1.5 -8v-62z" />
    <glyph glyph-name="omacron" unicode="&#x14d;" horiz-adv-x="503" 
d="M251 -8q-87 0 -134.5 32.5t-66 88t-18.5 126.5q0 69 21 123.5t68.5 86t129.5 31.5q83 0 130.5 -31.5t68 -86t20.5 -123.5q0 -70 -18 -125.5t-65.5 -88.5t-135.5 -33zM250 90q49 0 69 38t20 107t-21.5 104.5t-67.5 35.5q-45 0 -66.5 -35.5t-21.5 -104.5q0 -70 19.5 -107.5
t68.5 -37.5zM368 537q0 -4 -1.5 -5t-9.5 -1h-212q-7 0 -8.5 2t-1.5 6v60q0 6 2 7.5t8 1.5h213q7 0 8.5 -1t1.5 -8v-62z" />
    <glyph glyph-name="Ohungarumlaut" unicode="&#x150;" horiz-adv-x="638" 
d="M41 334q0 109 23.5 186t84 117.5t169.5 40.5q84 0 139 -23t85.5 -67t42 -108t11.5 -146t-11.5 -145.5t-42 -107.5t-85.5 -67t-139 -23q-109 0 -169.5 40.5t-84 117t-23.5 185.5zM178 334q0 -93 15 -143.5t45 -70.5t79 -20q48 0 79 19.5t47.5 70.5t16.5 144
q0 94 -16.5 145.5t-47.5 71.5t-80 20q-48 0 -78.5 -20.5t-45 -71.5t-14.5 -145zM292 721q-3 -4 -6 -5.5t-14 -1.5h-37q-17 0 -8 14l61 100q4 7 20 7h66q6 0 8.5 -4t-2.5 -9zM408 721q-3 -3 -6 -5t-14 -2h-37q-8 0 -10 4t2 10l68 100q3 5 7 6t13 1h66q5 0 7.5 -4t-1.5 -9z
" />
    <glyph glyph-name="ohungarumlaut" unicode="&#x151;" horiz-adv-x="503" 
d="M251 -8q-87 0 -134.5 32.5t-66 88t-18.5 126.5q0 69 21 123.5t68.5 86t129.5 31.5q83 0 130.5 -31.5t68 -86t20.5 -123.5q0 -70 -18 -125.5t-65.5 -88.5t-135.5 -33zM250 90q49 0 69 38t20 107t-21.5 104.5t-67.5 35.5q-45 0 -66.5 -35.5t-21.5 -104.5q0 -70 19.5 -107.5
t68.5 -37.5zM232 532q-2 -4 -5.5 -5.5t-14.5 -1.5h-37q-14 0 -8 14l39 115q2 8 21 8h65q7 0 9 -4t-2 -9zM350 532q-2 -4 -5.5 -5.5t-14.5 -1.5h-37q-14 0 -8 14l45 115q3 8 21 8h66q6 0 8 -4t-1 -9z" />
    <glyph glyph-name="OE" unicode="&#x152;" horiz-adv-x="856" 
d="M318 -9q-109 0 -169.5 40.5t-84 117t-23.5 185.5t23.5 186t84 117.5t169.5 40.5q46 0 83.5 -8t65.5 -22v6v6q0 13 12 13h167h167q12 0 14 -2t2 -13v-35v-35q0 -12 -2 -14.5t-14 -2.5h-102.5h-102.5q-7 0 -8.5 -1t-1.5 -7v-82.5v-82.5q0 -6 1.5 -7.5t6.5 -1.5h81.5h80.5
q13 0 15 -2.5t2 -16.5v-31.5v-31.5q0 -13 -2.5 -15.5t-14.5 -2.5h-80.5h-81.5q-5 0 -6.5 -1t-1.5 -6v-85.5v-85.5q0 -6 1 -7.5t7 -1.5h102.5h102.5q14 0 16 -3t2 -16v-32v-32q0 -14 -2.5 -16.5t-15.5 -2.5h-166h-166q-12 0 -12 7v6.5v6.5q-28 -13 -65.5 -21t-83.5 -8z
M316 100q44 0 73 16.5t45.5 60t19.5 123.5v82q-4 74 -20.5 115.5t-46 57.5t-71.5 16q-48 0 -78.5 -20.5t-45 -71.5t-14.5 -145q0 -93 14.5 -144t45 -70.5t78.5 -19.5z" />
    <glyph glyph-name="oe" unicode="&#x153;" horiz-adv-x="778" 
d="M251 -8q-87 0 -134.5 32.5t-66 88t-18.5 126.5q0 69 21 123.5t68.5 86t129.5 31.5q73 0 115 -33t60.5 -87.5t18.5 -120.5q0 -49 -9 -93.5t-30.5 -78.5t-59 -54.5t-95.5 -20.5zM250 90q34 0 53 17t27.5 49.5t8.5 78.5q0 69 -21.5 104.5t-67.5 35.5q-45 0 -66.5 -35.5
t-21.5 -104.5q0 -70 19.5 -107.5t68.5 -37.5zM357 237q0 47 8.5 90t30 78t58.5 55t94 20q66 0 105 -18.5t59 -49.5t26.5 -67.5t6.5 -72.5q0 -42 -9.5 -55.5t-29.5 -13.5h-231q-6 0 -7.5 -2.5t-1.5 -9.5q4 -44 32.5 -75.5t80.5 -31.5q35 0 67 10.5t45 18.5q12 7 19 8.5
t15 -14.5l21 -41q6 -11 3 -15.5t-13 -11.5q-34 -25 -85.5 -35.5t-101.5 -10.5q-79 0 -120 33.5t-56.5 88.5t-15.5 122zM616 293q0 28 -7.5 48t-22.5 31t-41 11q-21 0 -35.5 -8t-23.5 -21t-14 -28.5t-7 -29.5q-1 -15 0 -19t6 -4h67h68q7 0 9 3.5t1 16.5z" />
    <glyph glyph-name="Racute" unicode="&#x154;" horiz-adv-x="552" 
d="M78 0q-13 0 -13 12v648q0 13 13 13h169q78 0 126.5 -20.5t71.5 -65.5t23 -122q0 -54 -19 -101t-60 -78q-14 -13 -20.5 -24t4.5 -28q8 -19 18 -36.5t22 -31.5t27 -24q16 -11 36 -17t47 -6q9 0 11.5 -2t2.5 -13v-92q0 -6 -2 -8t-12 -3t-34 -1q-41 0 -75.5 12t-62.5 33
q-25 19 -46.5 45.5t-37.5 57.5t-28 65q-1 2 -4 11t-9 9h-23q-6 0 -6 -15v-206q0 -12 -14 -12h-105zM197 346q0 -4 2 -6t6 -2h40q44 0 69 33.5t25 92.5q0 49 -11.5 74t-33 34t-52.5 9h-37q-5 0 -6.5 -1t-1.5 -8v-226zM249 716h-60q-7 0 -7.5 5t5.5 11l64 72q6 7 10 9.5
t14 2.5h93q5 0 8 -5t-2 -8l-100 -75q-8 -6 -13 -9t-12 -3z" />
    <glyph glyph-name="racute" unicode="&#x155;" horiz-adv-x="338" 
d="M206 476q76 0 125 -22q10 -4 11.5 -8t0.5 -11l-18 -62q-2 -8 -5 -9.5t-12 1.5q-17 5 -38 7.5t-32 2.5q-16 0 -27 -1.5t-17 -3.5t-10 -4q-4 -3 -8.5 -7t-4.5 -18v-320q0 -14 -4 -17.5t-14 -3.5h-97q-5 0 -9 3t-4 14v400q0 16 3.5 20.5t14.5 9.5q30 14 71.5 21.5t73.5 7.5z
M133 525q-9 0 -9.5 3.5t6.5 12.5l65 93q5 8 21 8h80q6 0 8 -3t-5 -10l-87 -97q-5 -6 -9 -6.5t-12 -0.5h-58z" />
    <glyph glyph-name="uni0156" unicode="&#x156;" horiz-adv-x="552" 
d="M78 0q-13 0 -13 12v648q0 13 13 13h169q78 0 126.5 -20.5t71.5 -65.5t23 -122q0 -54 -19 -101t-60 -78q-14 -13 -20.5 -24t4.5 -28q8 -19 18 -36.5t22 -31.5t27 -24q16 -11 36 -17t47 -6q9 0 11.5 -2t2.5 -13v-92q0 -6 -2 -8t-12 -3t-34 -1q-41 0 -75.5 12t-62.5 33
q-25 19 -46.5 45.5t-37.5 57.5t-28 65q-1 2 -4 11t-9 9h-23q-6 0 -6 -15v-206q0 -12 -14 -12h-105zM197 346q0 -4 2 -6t6 -2h40q44 0 69 33.5t25 92.5q0 49 -11.5 74t-33 34t-52.5 9h-37q-5 0 -6.5 -1t-1.5 -8v-226zM329 -83q0 -20 -8.5 -43.5t-20 -45t-20.5 -34.5
q-4 -6 -11 -6h-22.5h-21.5q-7 0 -7 2.5t4 11.5q5 12 13 34.5t15 35.5q-19 3 -28 17t-9 27q0 21 13.5 35.5t45.5 14.5q24 0 40.5 -9.5t16.5 -39.5z" />
    <glyph glyph-name="uni0157" unicode="&#x157;" horiz-adv-x="338" 
d="M206 476q76 0 125 -22q10 -4 11.5 -8t0.5 -11l-18 -62q-2 -8 -5 -9.5t-12 1.5q-17 5 -38 7.5t-32 2.5q-16 0 -27 -1.5t-17 -3.5t-10 -4q-4 -3 -8.5 -7t-4.5 -18v-320q0 -14 -4 -17.5t-14 -3.5h-97q-5 0 -9 3t-4 14v400q0 16 3.5 20.5t14.5 9.5q30 14 71.5 21.5t73.5 7.5z
M160 -83q0 -20 -8.5 -43.5t-20 -45t-20.5 -34.5q-4 -6 -11 -6h-22.5h-21.5q-7 0 -7 2.5t4 11.5q5 12 13 34.5t15 35.5q-19 3 -28 17t-9 27q0 21 13.5 35.5t45.5 14.5q24 0 40.5 -9.5t16.5 -39.5z" />
    <glyph glyph-name="Rcaron" unicode="&#x158;" horiz-adv-x="552" 
d="M78 0q-13 0 -13 12v648q0 13 13 13h169q78 0 126.5 -20.5t71.5 -65.5t23 -122q0 -54 -19 -101t-60 -78q-14 -13 -20.5 -24t4.5 -28q8 -19 18 -36.5t22 -31.5t27 -24q16 -11 36 -17t47 -6q9 0 11.5 -2t2.5 -13v-92q0 -6 -2 -8t-12 -3t-34 -1q-41 0 -75.5 12t-62.5 33
q-25 19 -46.5 45.5t-37.5 57.5t-28 65q-1 2 -4 11t-9 9h-23q-6 0 -6 -15v-206q0 -12 -14 -12h-105zM197 346q0 -4 2 -6t6 -2h40q44 0 69 33.5t25 92.5q0 49 -11.5 74t-33 34t-52.5 9h-37q-5 0 -6.5 -1t-1.5 -8v-226zM219 714q-5 0 -8 4l-84 90q-2 2 -1 5t5 3h52q5 0 9 -4
l50 -40q5 -5 10 0l51 40q3 4 8 4h53q5 0 5.5 -3t-1.5 -5l-84 -90q-3 -4 -8 -4h-57z" />
    <glyph glyph-name="rcaron" unicode="&#x159;" horiz-adv-x="338" 
d="M206 476q76 0 125 -22q10 -4 11.5 -8t0.5 -11l-18 -62q-2 -8 -5 -9.5t-12 1.5q-17 5 -38 7.5t-32 2.5q-16 0 -27 -1.5t-17 -3.5t-10 -4q-4 -3 -8.5 -7t-4.5 -18v-320q0 -14 -4 -17.5t-14 -3.5h-97q-5 0 -9 3t-4 14v400q0 16 3.5 20.5t14.5 9.5q30 14 71.5 21.5t73.5 7.5z
M155 525q-5 0 -8 4l-77 100q-2 3 -1 5.5t5 2.5h56q5 0 8 -3l39 -37q5 -5 10 0l39 37q3 3 8 3h56q5 0 5.5 -2.5t-1.5 -5.5l-77 -100q-3 -4 -8 -4h-54z" />
    <glyph glyph-name="Sacute" unicode="&#x15a;" horiz-adv-x="486" 
d="M48 37v82q0 7 4.5 7t15.5 -4q20 -6 47 -11.5t53 -8.5t42 -3q52 0 79.5 29t27.5 67q0 39 -27.5 63t-73.5 37q-25 6 -56.5 17t-61 31t-48.5 55.5t-19 90.5q0 68 31.5 109t82 60.5t107.5 19.5q22 0 48.5 -4.5t52.5 -11.5t46 -16q8 -2 10 -5.5t2 -9.5v-75q0 -27 -33 -9
q-21 12 -50.5 21.5t-65.5 9.5q-44 0 -71 -23t-27 -55q0 -31 17 -50t44 -30t56 -18t53 -16q40 -13 66.5 -34.5t40.5 -56.5t14 -89q0 -73 -31.5 -120.5t-86.5 -70.5t-125 -23q-31 0 -70 6t-71 17q-13 4 -18 8.5t-5 13.5zM237 716h-60q-7 0 -7.5 5t5.5 11l64 72q6 7 10 9.5
t14 2.5h93q5 0 8 -5t-2 -8l-100 -75q-8 -6 -13 -9t-12 -3z" />
    <glyph glyph-name="sacute" unicode="&#x15b;" horiz-adv-x="410" 
d="M41 116q3 11 9.5 9.5t12.5 -5.5q17 -8 39.5 -14.5t46.5 -10t43 -3.5q20 0 36.5 4.5t26.5 14.5t10 26q1 22 -19.5 33.5t-71.5 22.5q-32 7 -65.5 20.5t-55.5 41t-22 72.5q0 51 26 83.5t67.5 49.5t88.5 17q37 0 81 -11t73 -28q9 -5 9.5 -9t-1.5 -11l-24 -65q-3 -12 -19 -6
q-22 13 -54 24t-65 11q-23 0 -40.5 -11.5t-17.5 -29.5q0 -22 20 -32t58 -18q28 -6 54 -13.5t48 -22t35 -39t13 -63.5q0 -45 -17 -75.5t-45.5 -48.5t-62 -26t-66.5 -8q-18 0 -47 4t-59 13t-51 24q-4 2 -6.5 5.5t-1.5 9.5zM158 525q-9 0 -9.5 3.5t6.5 12.5l65 93q5 8 21 8h80
q6 0 8 -3t-5 -10l-87 -97q-5 -6 -9 -6.5t-12 -0.5h-58z" />
    <glyph glyph-name="Scedilla" unicode="&#x15e;" horiz-adv-x="486" 
d="M48 37v82q0 7 4.5 7t15.5 -4q20 -6 47 -11.5t53 -8.5t42 -3q52 0 79.5 29t27.5 67q0 39 -27.5 63t-73.5 37q-25 6 -56.5 17t-61 31t-48.5 55.5t-19 90.5q0 68 31.5 109t82 60.5t107.5 19.5q22 0 48.5 -4.5t52.5 -11.5t46 -16q8 -2 10 -5.5t2 -9.5v-75q0 -27 -33 -9
q-21 12 -50.5 21.5t-65.5 9.5q-44 0 -71 -23t-27 -55q0 -31 17 -50t44 -30t56 -18t53 -16q40 -13 66.5 -34.5t40.5 -56.5t14 -89q0 -73 -31.5 -120.5t-86.5 -70.5t-125 -23q-31 0 -70 6t-71 17q-13 4 -18 8.5t-5 13.5zM299 -83q0 -20 -8.5 -43.5t-20 -45t-20.5 -34.5
q-4 -6 -11 -6h-22.5h-21.5q-7 0 -7 2.5t4 11.5q5 12 13 34.5t15 35.5q-19 3 -28 17t-9 27q0 21 13.5 35.5t45.5 14.5q24 0 40.5 -9.5t16.5 -39.5z" />
    <glyph glyph-name="scedilla" unicode="&#x15f;" horiz-adv-x="410" 
d="M41 116q3 11 9.5 9.5t12.5 -5.5q17 -8 39.5 -14.5t46.5 -10t43 -3.5q20 0 36.5 4.5t26.5 14.5t10 26q1 22 -19.5 33.5t-71.5 22.5q-32 7 -65.5 20.5t-55.5 41t-22 72.5q0 51 26 83.5t67.5 49.5t88.5 17q37 0 81 -11t73 -28q9 -5 9.5 -9t-1.5 -11l-24 -65q-3 -12 -19 -6
q-22 13 -54 24t-65 11q-23 0 -40.5 -11.5t-17.5 -29.5q0 -22 20 -32t58 -18q28 -6 54 -13.5t48 -22t35 -39t13 -63.5q0 -45 -17 -75.5t-45.5 -48.5t-62 -26t-66.5 -8q-18 0 -47 4t-59 13t-51 24q-4 2 -6.5 5.5t-1.5 9.5zM260 -84q0 -20 -8.5 -43.5t-20 -45t-20.5 -34.5
q-4 -6 -11 -6h-22.5h-21.5q-7 0 -7 2.5t4 11.5q5 12 13 34.5t15 35.5q-19 3 -28 17t-9 27q0 21 13.5 35.5t45.5 14.5q24 0 40.5 -9.5t16.5 -39.5z" />
    <glyph glyph-name="Scaron" unicode="&#x160;" horiz-adv-x="486" 
d="M48 37v82q0 7 4.5 7t15.5 -4q20 -6 47 -11.5t53 -8.5t42 -3q52 0 79.5 29t27.5 67q0 39 -27.5 63t-73.5 37q-25 6 -56.5 17t-61 31t-48.5 55.5t-19 90.5q0 68 31.5 109t82 60.5t107.5 19.5q22 0 48.5 -4.5t52.5 -11.5t46 -16q8 -2 10 -5.5t2 -9.5v-75q0 -27 -33 -9
q-21 12 -50.5 21.5t-65.5 9.5q-44 0 -71 -23t-27 -55q0 -31 17 -50t44 -30t56 -18t53 -16q40 -13 66.5 -34.5t40.5 -56.5t14 -89q0 -73 -31.5 -120.5t-86.5 -70.5t-125 -23q-31 0 -70 6t-71 17q-13 4 -18 8.5t-5 13.5zM207 714q-5 0 -8 4l-84 90q-2 2 -1 5t5 3h52q5 0 9 -4
l50 -40q5 -5 10 0l51 40q3 4 8 4h53q5 0 5.5 -3t-1.5 -5l-84 -90q-3 -4 -8 -4h-57z" />
    <glyph glyph-name="scaron" unicode="&#x161;" horiz-adv-x="410" 
d="M41 116q3 11 9.5 9.5t12.5 -5.5q17 -8 39.5 -14.5t46.5 -10t43 -3.5q20 0 36.5 4.5t26.5 14.5t10 26q1 22 -19.5 33.5t-71.5 22.5q-32 7 -65.5 20.5t-55.5 41t-22 72.5q0 51 26 83.5t67.5 49.5t88.5 17q37 0 81 -11t73 -28q9 -5 9.5 -9t-1.5 -11l-24 -65q-3 -12 -19 -6
q-22 13 -54 24t-65 11q-23 0 -40.5 -11.5t-17.5 -29.5q0 -22 20 -32t58 -18q28 -6 54 -13.5t48 -22t35 -39t13 -63.5q0 -45 -17 -75.5t-45.5 -48.5t-62 -26t-66.5 -8q-18 0 -47 4t-59 13t-51 24q-4 2 -6.5 5.5t-1.5 9.5zM180 525q-5 0 -8 4l-77 100q-2 3 -1 5.5t5 2.5h56
q5 0 8 -3l39 -37q5 -5 10 0l39 37q3 3 8 3h56q5 0 5.5 -2.5t-1.5 -5.5l-77 -100q-3 -4 -8 -4h-54z" />
    <glyph glyph-name="uni0162" unicode="&#x162;" horiz-adv-x="456" 
d="M174 0q-4 0 -8.5 3.5t-4.5 8.5v552q0 5 -1 6t-6 1h-121q-11 0 -13.5 2.5t-2.5 9.5v78q0 7 2.5 9.5t11.5 2.5h392q10 0 13 -2.5t3 -9.5v-77q0 -8 -3 -10.5t-14 -2.5h-121q-6 0 -7 -1t-1 -6v-552q0 -12 -12 -12h-107zM283 -83q0 -20 -8.5 -43.5t-20 -45t-20.5 -34.5
q-4 -6 -11 -6h-22.5h-21.5q-7 0 -7 2.5t4 11.5q5 12 13 34.5t15 35.5q-19 3 -28 17t-9 27q0 21 13.5 35.5t45.5 14.5q24 0 40.5 -9.5t16.5 -39.5z" />
    <glyph glyph-name="uni0163" unicode="&#x163;" horiz-adv-x="358" 
d="M232 0q-68 0 -101.5 28.5t-44.5 79.5q-8 42 -8.5 86t-0.5 89q0 29 0.5 51t1.5 49q0 10 -9 10h-41q-8 0 -10.5 2t-2.5 12v50q0 12 2.5 13.5t13.5 1.5h41q8 0 9 4t2 13l4 75q0 12 12 12h100q5 0 10 -3.5t4 -8.5l-5 -75q-1 -12 0.5 -14.5t7.5 -2.5h84q10 0 12 -2.5t2 -14.5
v-47q0 -10 -3 -12.5t-13 -2.5h-83q-6 0 -8.5 -3.5t-2.5 -10.5q-1 -26 -2 -52.5t-1 -54.5q0 -35 1.5 -70.5t8.5 -68.5q6 -19 17 -27t29 -8q12 0 23 3.5t19 5.5q12 7 15 4.5t7 -12.5l17 -60q4 -7 -2 -12.5t-24 -12.5q-12 -4 -26 -7.5t-28 -5t-27 -1.5zM258 -75
q0 -20 -8.5 -43.5t-20 -45t-20.5 -34.5q-4 -6 -11 -6h-22.5h-21.5q-7 0 -7 2.5t4 11.5q5 12 13 34.5t15 35.5q-19 3 -28 17t-9 27q0 21 13.5 35.5t45.5 14.5q24 0 40.5 -9.5t16.5 -39.5z" />
    <glyph glyph-name="Tcaron" unicode="&#x164;" horiz-adv-x="456" 
d="M174 0q-4 0 -8.5 3.5t-4.5 8.5v552q0 5 -1 6t-6 1h-121q-11 0 -13.5 2.5t-2.5 9.5v78q0 7 2.5 9.5t11.5 2.5h392q10 0 13 -2.5t3 -9.5v-77q0 -8 -3 -10.5t-14 -2.5h-121q-6 0 -7 -1t-1 -6v-552q0 -12 -12 -12h-107zM200 714q-5 0 -8 4l-84 90q-2 2 -1 5t5 3h52q5 0 9 -4
l50 -40q5 -5 10 0l51 40q3 4 8 4h53q5 0 5.5 -3t-1.5 -5l-84 -90q-3 -4 -8 -4h-57z" />
    <glyph glyph-name="tcaron" unicode="&#x165;" horiz-adv-x="358" 
d="M232 0q-68 0 -101.5 28.5t-44.5 79.5q-8 42 -8.5 86t-0.5 89q0 29 0.5 51t1.5 49q0 10 -9 10h-41q-8 0 -10.5 2t-2.5 12v50q0 12 2.5 13.5t13.5 1.5h41q8 0 9 4t2 13l4 75q0 12 12 12h100q5 0 10 -3.5t4 -8.5l-5 -75q-1 -12 0.5 -14.5t7.5 -2.5h84q10 0 12 -2.5t2 -14.5
v-47q0 -10 -3 -12.5t-13 -2.5h-83q-6 0 -8.5 -3.5t-2.5 -10.5q-1 -26 -2 -52.5t-1 -54.5q0 -35 1.5 -70.5t8.5 -68.5q6 -19 17 -27t29 -8q12 0 23 3.5t19 5.5q12 7 15 4.5t7 -12.5l17 -60q4 -7 -2 -12.5t-24 -12.5q-12 -4 -26 -7.5t-28 -5t-27 -1.5zM382 389q-5 0 -8 4
t-4 15l-6 146q-1 15 2.5 19t14.5 4h52q13 0 16.5 -4t2.5 -13l-8 -156q-1 -9 -4 -12t-10 -3h-48z" />
    <glyph glyph-name="Tbar" unicode="&#x166;" horiz-adv-x="468" 
d="M174 0q-4 0 -8.5 3.5t-4.5 8.5v552q0 5 -1 6t-6 1h-121q-11 0 -13.5 2.5t-2.5 9.5v78q0 7 2.5 9.5t11.5 2.5h392q10 0 13 -2.5t3 -9.5v-77q0 -8 -3 -10.5t-14 -2.5h-121q-6 0 -7 -1t-1 -6v-552q0 -12 -12 -12h-107zM85 349q-9 0 -10 3t-1 9v67q0 8 1.5 10.5t10.5 2.5h286
q7 0 9.5 -2t2.5 -10v-71q0 -6 -2 -7.5t-11 -1.5h-286z" />
    <glyph glyph-name="tbar" unicode="&#x167;" horiz-adv-x="358" 
d="M31 270q-6 0 -7.5 1.5t-1.5 7.5v48q0 6 2 7.5t8 1.5h216q6 0 8 -1t2 -8v-51q0 -4 -2 -5t-8 -1h-217zM232 0q-68 0 -101.5 28.5t-44.5 79.5q-8 42 -8.5 86t-0.5 89q0 29 0.5 51t1.5 49q0 10 -9 10h-41q-8 0 -10.5 2t-2.5 12v50q0 12 2.5 13.5t13.5 1.5h41q8 0 9 4t2 13
l4 75q0 12 12 12h100q5 0 10 -3.5t4 -8.5l-5 -75q-1 -12 0.5 -14.5t7.5 -2.5h84q10 0 12 -2.5t2 -14.5v-47q0 -10 -3 -12.5t-13 -2.5h-83q-6 0 -8.5 -3.5t-2.5 -10.5q-1 -26 -2 -52.5t-1 -54.5q0 -35 1.5 -70.5t8.5 -68.5q6 -19 17 -27t29 -8q12 0 23 3.5t19 5.5
q12 7 15 4.5t7 -12.5l17 -60q4 -7 -2 -12.5t-24 -12.5q-12 -4 -26 -7.5t-28 -5t-27 -1.5z" />
    <glyph glyph-name="Utilde" unicode="&#x168;" horiz-adv-x="635" 
d="M317 -8q-86 0 -135.5 19.5t-74.5 50t-33 61.5t-11 55q-4 39 -6 83t-2 80q0 47 2 103t6.5 113t12.5 105q1 7 6 9t12 2h48h49q9 0 10 -3t0 -21q-4 -40 -7 -82t-5 -85q-4 -75 -4 -145.5t6 -138.5q2 -29 10.5 -49t24 -32.5t38 -18t50.5 -5.5q30 0 52 5.5t37.5 18t24.5 32.5
t12 49q5 67 4.5 137.5t-3.5 145.5q-1 43 -4.5 85.5t-7.5 82.5q-1 18 0 21t11 3h50.5h50.5q8 0 12.5 -2t4.5 -9q9 -48 13.5 -104.5t6.5 -113t2 -102.5q0 -37 -1 -81t-6 -83q-2 -19 -8 -43.5t-20 -49.5t-41.5 -46.5t-72.5 -34t-114 -12.5zM212 717q-6 0 -6 6q0 41 18 65t53 24
q16 0 31 -9.5t27.5 -19t18.5 -9.5q5 0 9 5.5t4 15.5q0 8 5 8h51q6 0 6 -7q0 -36 -20 -61.5t-52 -25.5q-21 0 -35.5 9t-24.5 18t-18 9q-7 0 -10 -5t-3 -16q0 -7 -5 -7h-49z" />
    <glyph glyph-name="utilde" unicode="&#x169;" horiz-adv-x="475" 
d="M246 -4q-82 0 -126.5 31t-61.5 82t-17 113q0 37 1.5 77t4.5 78.5t7 70.5q2 18 6 21t18 3h81q14 0 20 -0.5t3 -18.5q0 -4 -1.5 -29t-3.5 -61.5t-3 -75t-1 -69.5q0 -63 17.5 -92.5t58.5 -29.5q5 0 14 0.5t18 2.5t15 6t6 11v339q0 5 1 11t7 6h104q4 0 9 -2t5 -11v-409
q0 -12 -7 -17t-29 -13q-11 -4 -36.5 -9.5t-55 -10t-54.5 -4.5zM137 527q-6 0 -6 6q0 38 18.5 60t52.5 22q17 0 32 -8t28 -16.5t19 -8.5t10 4.5t4 13.5q0 7 5 7h50q6 0 6 -6q0 -34 -20 -57.5t-52 -23.5q-21 0 -36 8t-25 16t-19 8q-7 0 -10 -4.5t-3 -13.5q0 -7 -6 -7h-48z" />
    <glyph glyph-name="Umacron" unicode="&#x16a;" horiz-adv-x="635" 
d="M317 -8q-86 0 -135.5 19.5t-74.5 50t-33 61.5t-11 55q-4 39 -6 83t-2 80q0 47 2 103t6.5 113t12.5 105q1 7 6 9t12 2h48h49q9 0 10 -3t0 -21q-4 -40 -7 -82t-5 -85q-4 -75 -4 -145.5t6 -138.5q2 -29 10.5 -49t24 -32.5t38 -18t50.5 -5.5q30 0 52 5.5t37.5 18t24.5 32.5
t12 49q5 67 4.5 137.5t-3.5 145.5q-1 43 -4.5 85.5t-7.5 82.5q-1 18 0 21t11 3h50.5h50.5q8 0 12.5 -2t4.5 -9q9 -48 13.5 -104.5t6.5 -113t2 -102.5q0 -37 -1 -81t-6 -83q-2 -19 -8 -43.5t-20 -49.5t-41.5 -46.5t-72.5 -34t-114 -12.5zM434 738q0 -4 -1.5 -5t-9.5 -1h-212
q-7 0 -8.5 2t-1.5 6v60q0 6 2 7.5t8 1.5h213q7 0 8.5 -1t1.5 -8v-62z" />
    <glyph glyph-name="umacron" unicode="&#x16b;" horiz-adv-x="475" 
d="M246 -4q-82 0 -126.5 31t-61.5 82t-17 113q0 37 1.5 77t4.5 78.5t7 70.5q2 18 6 21t18 3h81q14 0 20 -0.5t3 -18.5q0 -4 -1.5 -29t-3.5 -61.5t-3 -75t-1 -69.5q0 -63 17.5 -92.5t58.5 -29.5q5 0 14 0.5t18 2.5t15 6t6 11v339q0 5 1 11t7 6h104q4 0 9 -2t5 -11v-409
q0 -12 -7 -17t-29 -13q-11 -4 -36.5 -9.5t-55 -10t-54.5 -4.5zM360 537q0 -4 -1.5 -5t-9.5 -1h-212q-7 0 -8.5 2t-1.5 6v60q0 6 2 7.5t8 1.5h213q7 0 8.5 -1t1.5 -8v-62z" />
    <glyph glyph-name="Uring" unicode="&#x16e;" horiz-adv-x="635" 
d="M317 -8q-86 0 -135.5 19.5t-74.5 50t-33 61.5t-11 55q-4 39 -6 83t-2 80q0 47 2 103t6.5 113t12.5 105q1 7 6 9t12 2h48h49q9 0 10 -3t0 -21q-4 -40 -7 -82t-5 -85q-4 -75 -4 -145.5t6 -138.5q2 -29 10.5 -49t24 -32.5t38 -18t50.5 -5.5q30 0 52 5.5t37.5 18t24.5 32.5
t12 49q5 67 4.5 137.5t-3.5 145.5q-1 43 -4.5 85.5t-7.5 82.5q-1 18 0 21t11 3h50.5h50.5q8 0 12.5 -2t4.5 -9q9 -48 13.5 -104.5t6.5 -113t2 -102.5q0 -37 -1 -81t-6 -83q-2 -19 -8 -43.5t-20 -49.5t-41.5 -46.5t-72.5 -34t-114 -12.5zM411 799q0 -41 -21.5 -66t-71.5 -25
q-52 0 -73.5 25t-21.5 66q0 40 21.5 64.5t73.5 24.5q50 0 71.5 -24t21.5 -65zM358 801q0 13 -8 21.5t-32 8.5q-25 0 -31.5 -8.5t-6.5 -21.5q0 -11 6.5 -22t32.5 -11t32.5 11t6.5 22z" />
    <glyph glyph-name="uring" unicode="&#x16f;" horiz-adv-x="475" 
d="M246 -4q-82 0 -126.5 31t-61.5 82t-17 113q0 37 1.5 77t4.5 78.5t7 70.5q2 18 6 21t18 3h81q14 0 20 -0.5t3 -18.5q0 -4 -1.5 -29t-3.5 -61.5t-3 -75t-1 -69.5q0 -63 17.5 -92.5t58.5 -29.5q5 0 14 0.5t18 2.5t15 6t6 11v339q0 5 1 11t7 6h104q4 0 9 -2t5 -11v-409
q0 -12 -7 -17t-29 -13q-11 -4 -36.5 -9.5t-55 -10t-54.5 -4.5zM337 598q0 -41 -21.5 -66t-71.5 -25q-52 0 -73.5 25t-21.5 66q0 40 21.5 64.5t73.5 24.5q50 0 71.5 -24t21.5 -65zM284 600q0 13 -8 21.5t-32 8.5q-25 0 -31.5 -8.5t-6.5 -21.5q0 -11 6.5 -22t32.5 -11t32.5 11
t6.5 22z" />
    <glyph glyph-name="Uhungarumlaut" unicode="&#x170;" horiz-adv-x="635" 
d="M317 -8q-86 0 -135.5 19.5t-74.5 50t-33 61.5t-11 55q-4 39 -6 83t-2 80q0 47 2 103t6.5 113t12.5 105q1 7 6 9t12 2h48h49q9 0 10 -3t0 -21q-4 -40 -7 -82t-5 -85q-4 -75 -4 -145.5t6 -138.5q2 -29 10.5 -49t24 -32.5t38 -18t50.5 -5.5q30 0 52 5.5t37.5 18t24.5 32.5
t12 49q5 67 4.5 137.5t-3.5 145.5q-1 43 -4.5 85.5t-7.5 82.5q-1 18 0 21t11 3h50.5h50.5q8 0 12.5 -2t4.5 -9q9 -48 13.5 -104.5t6.5 -113t2 -102.5q0 -37 -1 -81t-6 -83q-2 -19 -8 -43.5t-20 -49.5t-41.5 -46.5t-72.5 -34t-114 -12.5zM290 721q-3 -4 -6 -5.5t-14 -1.5h-37
q-17 0 -8 14l61 100q4 7 20 7h66q6 0 8.5 -4t-2.5 -9zM406 721q-3 -3 -6 -5t-14 -2h-37q-8 0 -10 4t2 10l68 100q3 5 7 6t13 1h66q5 0 7.5 -4t-1.5 -9z" />
    <glyph glyph-name="uhungarumlaut" unicode="&#x171;" horiz-adv-x="475" 
d="M246 -4q-82 0 -126.5 31t-61.5 82t-17 113q0 37 1.5 77t4.5 78.5t7 70.5q2 18 6 21t18 3h81q14 0 20 -0.5t3 -18.5q0 -4 -1.5 -29t-3.5 -61.5t-3 -75t-1 -69.5q0 -63 17.5 -92.5t58.5 -29.5q5 0 14 0.5t18 2.5t15 6t6 11v339q0 5 1 11t7 6h104q4 0 9 -2t5 -11v-409
q0 -12 -7 -17t-29 -13q-11 -4 -36.5 -9.5t-55 -10t-54.5 -4.5zM223 532q-2 -4 -5.5 -5.5t-14.5 -1.5h-37q-14 0 -8 14l39 115q2 8 21 8h65q7 0 9 -4t-2 -9zM341 532q-2 -4 -5.5 -5.5t-14.5 -1.5h-37q-14 0 -8 14l45 115q3 8 21 8h66q6 0 8 -4t-1 -9z" />
    <glyph glyph-name="Uogonek" unicode="&#x172;" horiz-adv-x="635" 
d="M317 -8q-86 0 -135.5 19.5t-74.5 50t-33 61.5t-11 55q-4 39 -6 83t-2 80q0 47 2 103t6.5 113t12.5 105q1 7 6 9t12 2h48h49q9 0 10 -3t0 -21q-4 -40 -7 -82t-5 -85q-4 -75 -4 -145.5t6 -138.5q2 -29 10.5 -49t24 -32.5t38 -18t50.5 -5.5q30 0 52 5.5t37.5 18t24.5 32.5
t12 49q5 67 4.5 137.5t-3.5 145.5q-1 43 -4.5 85.5t-7.5 82.5q-1 18 0 21t11 3h50.5h50.5q8 0 12.5 -2t4.5 -9q9 -48 13.5 -104.5t6.5 -113t2 -102.5q0 -37 -1 -81t-6 -83q-2 -19 -8 -43.5t-20 -49.5t-41.5 -46.5t-72.5 -34t-114 -12.5zM284 -248q-48 0 -81.5 26.5
t-33.5 67.5q0 33 14.5 60.5t40 50t56.5 39.5q10 5 21.5 9.5t25.5 4.5h63q7 0 8 -4t-6 -9q-54 -34 -82.5 -58.5t-39 -44t-10.5 -37.5q0 -19 11.5 -27t25.5 -7q16 1 37.5 10.5t37.5 22.5q6 5 11.5 4.5t5.5 -8.5v-39q0 -16 -18 -29q-20 -15 -40.5 -23.5t-46.5 -8.5z" />
    <glyph glyph-name="uogonek" unicode="&#x173;" horiz-adv-x="475" 
d="M246 -4q-82 0 -126.5 31t-61.5 82t-17 113q0 37 1.5 77t4.5 78.5t7 70.5q2 18 6 21t18 3h81q14 0 20 -0.5t3 -18.5q0 -4 -1.5 -29t-3.5 -61.5t-3 -75t-1 -69.5q0 -63 17.5 -92.5t58.5 -29.5q5 0 14 0.5t18 2.5t15 6t6 11v339q0 5 1 11t7 6h104q4 0 9 -2t5 -11v-409
q0 -12 -7 -17t-29 -13q-11 -4 -36.5 -9.5t-55 -10t-54.5 -4.5zM236 -237q-48 0 -81.5 26.5t-33.5 67.5q0 33 14.5 60.5t40 50t56.5 39.5q10 5 21.5 9.5t25.5 4.5h63q7 0 8 -4t-6 -9q-54 -34 -82.5 -58.5t-39 -44t-10.5 -37.5q0 -19 11.5 -27t25.5 -7q16 1 37.5 10.5
t37.5 22.5q6 5 11.5 4.5t5.5 -8.5v-39q0 -16 -18 -29q-20 -15 -40.5 -23.5t-46.5 -8.5z" />
    <glyph glyph-name="Wcircumflex" unicode="&#x174;" horiz-adv-x="856" 
d="M237 0q-18 0 -28 18q-22 42 -45.5 103t-45.5 133t-41 145t-33 139.5t-21 116.5q-1 7 0.5 12.5t10.5 5.5h15.5h33.5h35h19q8 0 11.5 -2.5t4.5 -12.5q4 -31 15 -81.5t33 -138.5q16 -63 27.5 -109t20.5 -77t17 -52q2 -5 3.5 -7.5t2.5 -2.5h2h1q2 0 4 3.5t3 7.5
q5 14 12.5 35.5t16 46.5t17 51.5t15.5 51.5t10 46q4 32 5 70t1 73v57.5v22.5q-1 8 0.5 13t11.5 5h18h33.5h33.5h18q8 0 11 -2.5t3 -12.5q1 -42 4 -85.5t7.5 -78t6.5 -52.5q9 -57 25 -115.5t39 -121.5q4 -9 5 -12t3 -3h2h1q2 0 5 7q3 8 12.5 37t23.5 77t30 112q12 44 19.5 74
t13 53.5t10.5 48t10 56.5q2 12 5.5 15t10.5 3h18.5h33.5h33.5h18.5q16 0 10 -21q-9 -43 -24 -107t-34.5 -138t-40 -147.5t-42.5 -137t-44 -104.5q-1 -4 -6.5 -11t-15.5 -7h-26.5h-37h-27.5q-7 0 -13.5 8t-7.5 10q-13 25 -26.5 56.5t-26.5 68.5t-26 76q-4 12 -8.5 17
t-11.5 -16q-16 -51 -26.5 -83t-17.5 -51.5t-13.5 -34.5t-14.5 -33q-4 -9 -11 -13.5t-12 -4.5h-26.5h-35.5h-23zM313 714q-4 0 -5 3t1 6l80 87q5 6 10 6h59q6 0 11 -5l81 -88q2 -3 1.5 -6t-5.5 -3h-53q-7 0 -10.5 2t-8.5 5l-39 32q-5 4 -11 0l-41 -33q-3 -3 -6.5 -4.5
t-8.5 -1.5h-55z" />
    <glyph glyph-name="wcircumflex" unicode="&#x175;" horiz-adv-x="649" 
d="M158 16q-27 54 -50.5 111.5t-42 114.5t-31 107t-19.5 88q-3 15 -2 25t10 10h107q14 0 16 -14q6 -30 13 -64t15.5 -67.5t16 -64t14 -54t11.5 -35.5q2 -8 4.5 -6.5t3.5 3.5q7 13 13 33.5t11 44t8 44.5t3 35q0 18 -0.5 36.5t-0.5 36t-0.5 32.5t-0.5 25q0 14 13 14h111
q5 0 9 -3t4 -11q0 -27 1 -64.5t4 -77.5q2 -15 4.5 -31.5t7 -33.5t9 -32.5t9 -27.5t7.5 -21q6 -12 9 0q6 16 12.5 40t14 53.5t15 62.5t14 66t11.5 64q3 17 21 17h92q10 0 11 -8.5t-1 -21.5q-7 -45 -22 -104.5t-35 -121.5t-42 -115t-43 -85q-5 -8 -9 -12t-9 -4h-68
q-7 0 -10 2.5t-8 8.5q-7 11 -17.5 32t-20.5 44t-16 40q-9 24 -18 0q-1 -5 -6.5 -17.5t-11.5 -26t-10 -21.5q-7 -14 -15.5 -29.5t-11.5 -21.5q-3 -4 -7.5 -7.5t-11.5 -3.5h-64q-10 0 -12.5 2.5t-8.5 13.5zM216 525q-4 0 -5 3t1 6l77 100q3 3 8 3h54q5 0 8 -3l77 -100
q2 -3 1.5 -6t-5.5 -3h-56q-5 0 -8 4l-39 37q-5 4 -10 0l-39 -37q-3 -4 -8 -4h-56z" />
    <glyph glyph-name="Ycircumflex" unicode="&#x176;" horiz-adv-x="537" 
d="M346 282q-6 -8 -8.5 -22.5t-2.5 -25.5v-222q0 -5 -4 -8.5t-9 -3.5h-107q-13 0 -13 12v221q0 25 -13 50.5t-22 39.5q-5 8 -16.5 26.5t-25 41t-25 41.5t-14.5 26q-27 52 -43.5 92.5t-24 66.5t-9.5 32q-3 14 3.5 19t16.5 5h102q13 0 17 -13q9 -29 19 -55.5t20.5 -50.5
t19.5 -43q14 -26 26 -47.5t24 -40.5q7 -10 11 -11t11 11q5 8 11 17t13 21t14 26q11 20 24.5 49.5t26.5 62.5t19 62q2 8 6 10t12 2h107q7 0 12.5 -5t2.5 -19q-1 -6 -8 -33.5t-23 -69.5t-44 -94q-6 -13 -19 -35t-29 -47.5t-31 -49t-27 -38.5zM153 714q-4 0 -5 3t1 6l80 87
q5 6 10 6h59q6 0 11 -5l81 -88q2 -3 1.5 -6t-5.5 -3h-53q-7 0 -10.5 2t-8.5 5l-39 32q-5 4 -11 0l-41 -33q-3 -3 -6.5 -4.5t-8.5 -1.5h-55z" />
    <glyph glyph-name="ycircumflex" unicode="&#x177;" horiz-adv-x="425" 
d="M124 106q-19 38 -35.5 80.5t-30.5 87.5t-24 90.5t-18 87.5q-3 20 12 20h100q11 0 15.5 -5.5t6.5 -20.5t6 -38.5t10 -51t13 -57t15.5 -56.5t15.5 -49q4 -7 8 -7t5 7q9 28 18 60t18 66t16.5 68t12.5 66q2 10 5.5 14t14.5 4h86q9 0 14.5 -3.5t2.5 -17.5q-6 -40 -15 -76.5
t-20 -74t-27 -84.5q-11 -29 -26 -71.5t-38 -88.5t-54.5 -85t-74 -64t-96.5 -25q-27 0 -45.5 3.5t-31.5 9.5q-21 10 -11 29l24 47q5 9 9 9t11 -2q17 -4 36.5 -0.5t35.5 12.5q18 10 28.5 21t16.5 23q7 17 3.5 36t-12.5 36zM111 525q-4 0 -5 3t1 6l77 100q3 3 8 3h54q5 0 8 -3
l77 -100q2 -3 1.5 -6t-5.5 -3h-56q-5 0 -8 4l-39 37q-5 4 -10 0l-39 -37q-3 -4 -8 -4h-56z" />
    <glyph glyph-name="Ydieresis" unicode="&#x178;" horiz-adv-x="537" 
d="M346 282q-6 -8 -8.5 -22.5t-2.5 -25.5v-222q0 -5 -4 -8.5t-9 -3.5h-107q-13 0 -13 12v221q0 25 -13 50.5t-22 39.5q-5 8 -16.5 26.5t-25 41t-25 41.5t-14.5 26q-27 52 -43.5 92.5t-24 66.5t-9.5 32q-3 14 3.5 19t16.5 5h102q13 0 17 -13q9 -29 19 -55.5t20.5 -50.5
t19.5 -43q14 -26 26 -47.5t24 -40.5q7 -10 11 -11t11 11q5 8 11 17t13 21t14 26q11 20 24.5 49.5t26.5 62.5t19 62q2 8 6 10t12 2h107q7 0 12.5 -5t2.5 -19q-1 -6 -8 -33.5t-23 -69.5t-44 -94q-6 -13 -19 -35t-29 -47.5t-31 -49t-27 -38.5zM243 775q0 -23 -12 -35.5
t-44 -12.5q-28 0 -41 12.5t-13 35.5t13 35t41 12q32 0 44 -12t12 -35zM403 775q0 -23 -11 -35.5t-43 -12.5q-30 0 -42.5 12.5t-12.5 35.5t12.5 35t42.5 12q32 0 43 -12t11 -35z" />
    <glyph glyph-name="Zacute" unicode="&#x179;" horiz-adv-x="476" 
d="M430 673q7 0 9 -2t2 -12v-51q0 -19 -17 -45t-42 -56q-23 -28 -48 -64t-50 -77t-48.5 -85.5t-43 -90t-34.5 -88.5h291q11 0 14 -3t3 -10v-77q0 -8 -3 -10t-13 -2h-402q-22 0 -27 13t-3 36q3 37 16.5 81t34.5 92t46.5 96.5t53 94t55.5 86t53 72.5h-233q-13 0 -15.5 3
t-2.5 9v78q0 7 2.5 9.5t14.5 2.5h387zM244 716h-60q-7 0 -7.5 5t5.5 11l64 72q6 7 10 9.5t14 2.5h93q5 0 8 -5t-2 -8l-100 -75q-8 -6 -13 -9t-12 -3z" />
    <glyph glyph-name="zacute" unicode="&#x17a;" horiz-adv-x="385" 
d="M26 35q5 53 28 104t54 101q21 33 43.5 64t44.5 58q3 3 3.5 6t-6.5 5h-133q-8 0 -10.5 2t-2.5 12v70q0 12 2.5 13.5t13.5 1.5h282q11 0 12.5 -4t1.5 -14v-61q0 -6 -3.5 -14.5t-16.5 -17.5q-15 -10 -33 -29.5t-35.5 -42.5t-35.5 -48q-22 -34 -41.5 -67.5t-31.5 -61.5
q-1 -4 0.5 -9t10.5 -5h174q9 0 10 -3t1 -13v-70q0 -8 -3.5 -10t-15.5 -2h-297q-10 0 -14 5.5t-2 29.5zM143 525q-9 0 -9.5 3.5t6.5 12.5l65 93q5 8 21 8h80q6 0 8 -3t-5 -10l-87 -97q-5 -6 -9 -6.5t-12 -0.5h-58z" />
    <glyph glyph-name="Zdotaccent" unicode="&#x17b;" horiz-adv-x="476" 
d="M430 673q7 0 9 -2t2 -12v-51q0 -19 -17 -45t-42 -56q-23 -28 -48 -64t-50 -77t-48.5 -85.5t-43 -90t-34.5 -88.5h291q11 0 14 -3t3 -10v-77q0 -8 -3 -10t-13 -2h-402q-22 0 -27 13t-3 36q3 37 16.5 81t34.5 92t46.5 96.5t53 94t55.5 86t53 72.5h-233q-13 0 -15.5 3
t-2.5 9v78q0 7 2.5 9.5t14.5 2.5h387zM293 773q0 -23 -10 -35.5t-40 -12.5t-41.5 12.5t-11.5 35.5q0 22 11.5 35t41.5 13q32 0 41 -13t9 -35z" />
    <glyph glyph-name="zdotaccent" unicode="&#x17c;" horiz-adv-x="385" 
d="M26 35q5 53 28 104t54 101q21 33 43.5 64t44.5 58q3 3 3.5 6t-6.5 5h-133q-8 0 -10.5 2t-2.5 12v70q0 12 2.5 13.5t13.5 1.5h282q11 0 12.5 -4t1.5 -14v-61q0 -6 -3.5 -14.5t-16.5 -17.5q-15 -10 -33 -29.5t-35.5 -42.5t-35.5 -48q-22 -34 -41.5 -67.5t-31.5 -61.5
q-1 -4 0.5 -9t10.5 -5h174q9 0 10 -3t1 -13v-70q0 -8 -3.5 -10t-15.5 -2h-297q-10 0 -14 5.5t-2 29.5zM243 572q0 -23 -10 -35.5t-40 -12.5t-41.5 12.5t-11.5 35.5q0 22 11.5 35t41.5 13q32 0 41 -13t9 -35z" />
    <glyph glyph-name="Zcaron" unicode="&#x17d;" horiz-adv-x="476" 
d="M430 673q7 0 9 -2t2 -12v-51q0 -19 -17 -45t-42 -56q-23 -28 -48 -64t-50 -77t-48.5 -85.5t-43 -90t-34.5 -88.5h291q11 0 14 -3t3 -10v-77q0 -8 -3 -10t-13 -2h-402q-22 0 -27 13t-3 36q3 37 16.5 81t34.5 92t46.5 96.5t53 94t55.5 86t53 72.5h-233q-13 0 -15.5 3
t-2.5 9v78q0 7 2.5 9.5t14.5 2.5h387zM214 714q-5 0 -8 4l-84 90q-2 2 -1 5t5 3h52q5 0 9 -4l50 -40q5 -5 10 0l51 40q3 4 8 4h53q5 0 5.5 -3t-1.5 -5l-84 -90q-3 -4 -8 -4h-57z" />
    <glyph glyph-name="zcaron" unicode="&#x17e;" horiz-adv-x="385" 
d="M26 35q5 53 28 104t54 101q21 33 43.5 64t44.5 58q3 3 3.5 6t-6.5 5h-133q-8 0 -10.5 2t-2.5 12v70q0 12 2.5 13.5t13.5 1.5h282q11 0 12.5 -4t1.5 -14v-61q0 -6 -3.5 -14.5t-16.5 -17.5q-15 -10 -33 -29.5t-35.5 -42.5t-35.5 -48q-22 -34 -41.5 -67.5t-31.5 -61.5
q-1 -4 0.5 -9t10.5 -5h174q9 0 10 -3t1 -13v-70q0 -8 -3.5 -10t-15.5 -2h-297q-10 0 -14 5.5t-2 29.5zM165 525q-5 0 -8 4l-77 100q-2 3 -1 5.5t5 2.5h56q5 0 8 -3l39 -37q5 -5 10 0l39 37q3 3 8 3h56q5 0 5.5 -2.5t-1.5 -5.5l-77 -100q-3 -4 -8 -4h-54z" />
    <glyph glyph-name="florin" unicode="&#x192;" horiz-adv-x="592" 
d="M114 -109q-11 0 -30.5 0.5t-39.5 4t-34 9.5q-5 2 -4 6q0 2 2 12.5t4.5 23.5t4.5 23.5t3 12.5t2.5 4.5t7.5 0.5q36 -7 61.5 -3t44 19.5t30 40t18.5 56.5q18 85 33 154.5t24 119.5l0.5 1t0.5 2h-41h-41q-2 0 -2.5 2l-0.5 2q1 3 3.5 15.5t5.5 28t5.5 27.5t3.5 15l1 2t3 2h41
h41q1 2 1 4t1 4q4 19 8 37.5t8 37.5q11 50 45.5 85t83 53.5t98.5 18.5q17 0 36 -3t30 -8q7 -3 8 -5t0 -6l-14 -70q-1 -4 -1.5 -6.5t-4.5 -1.5q-16 6 -29.5 8.5t-29.5 2.5q-38 0 -62.5 -20.5t-38.5 -74.5q-3 -14 -4.5 -20.5t-3 -14t-4.5 -21.5h4.5h4.5h46.5h39.5h47q6 0 4 -4
q-1 -3 -3.5 -15t-5.5 -27.5t-5.5 -28t-3.5 -15.5l-1.5 -2t-3.5 -2h-48.5h-41h-49.5q-3 0 -3 -3q-9 -46 -16.5 -79.5t-14.5 -64t-14.5 -64.5t-16.5 -80q-10 -48 -33 -92.5t-62.5 -74t-97.5 -29.5z" />
    <glyph glyph-name="Ohorn" unicode="&#x1a0;" horiz-adv-x="638" 
d="M41 334q0 109 23.5 186t84 117.5t169.5 40.5q84 0 139 -23t85.5 -67t42 -108t11.5 -146t-11.5 -145.5t-42 -107.5t-85.5 -67t-139 -23q-109 0 -169.5 40.5t-84 117t-23.5 185.5zM178 334q0 -93 15 -143.5t45 -70.5t79 -20q48 0 79 19.5t47.5 70.5t16.5 144
q0 94 -16.5 145.5t-47.5 71.5t-80 20q-48 0 -78.5 -20.5t-45 -71.5t-14.5 -145zM515 761q6 2 8 -6q1 -9 1.5 -17.5t0.5 -16.5q0 -42 -18 -68t-49 -38t-69 -14q-6 0 -6 6v60q0 6 6 6q23 1 40 11.5t17 40.5q0 4 -0.5 8.5t-1.5 8.5q0 6 6 7z" />
    <glyph glyph-name="ohorn" unicode="&#x1a1;" horiz-adv-x="503" 
d="M251 -8q-87 0 -134.5 32.5t-66 88t-18.5 126.5q0 69 21 123.5t68.5 86t129.5 31.5q83 0 130.5 -31.5t68 -86t20.5 -123.5q0 -70 -18 -125.5t-65.5 -88.5t-135.5 -33zM250 90q49 0 69 38t20 107t-21.5 104.5t-67.5 35.5q-45 0 -66.5 -35.5t-21.5 -104.5q0 -70 19.5 -107.5
t68.5 -37.5zM446 560q6 2 8 -6q1 -9 1.5 -17.5t0.5 -16.5q0 -42 -18 -68t-49 -38t-69 -14q-6 0 -6 6v60q0 6 6 6q23 1 40 11.5t17 40.5q0 4 -0.5 8.5t-1.5 8.5q0 6 6 7z" />
    <glyph glyph-name="Uhorn" unicode="&#x1af;" horiz-adv-x="635" 
d="M317 -8q-86 0 -135.5 19.5t-74.5 50t-33 61.5t-11 55q-4 39 -6 83t-2 80q0 47 2 103t6.5 113t12.5 105q1 7 6 9t12 2h48h49q9 0 10 -3t0 -21q-4 -40 -7 -82t-5 -85q-4 -75 -4 -145.5t6 -138.5q2 -29 10.5 -49t24 -32.5t38 -18t50.5 -5.5q30 0 52 5.5t37.5 18t24.5 32.5
t12 49q5 67 4.5 137.5t-3.5 145.5q-1 43 -4.5 85.5t-7.5 82.5q-1 18 0 21t11 3h50.5h50.5q8 0 12.5 -2t4.5 -9q9 -48 13.5 -104.5t6.5 -113t2 -102.5q0 -37 -1 -81t-6 -83q-2 -19 -8 -43.5t-20 -49.5t-41.5 -46.5t-72.5 -34t-114 -12.5zM620 761q6 2 8 -6q1 -9 1.5 -17.5
t0.5 -16.5q0 -42 -18 -68t-49 -38t-69 -14q-6 0 -6 6v60q0 6 6 6q23 1 40 11.5t17 40.5q0 4 -0.5 8.5t-1.5 8.5q0 6 6 7z" />
    <glyph glyph-name="uhorn" unicode="&#x1b0;" horiz-adv-x="475" 
d="M246 -4q-82 0 -126.5 31t-61.5 82t-17 113q0 37 1.5 77t4.5 78.5t7 70.5q2 18 6 21t18 3h81q14 0 20 -0.5t3 -18.5q0 -4 -1.5 -29t-3.5 -61.5t-3 -75t-1 -69.5q0 -63 17.5 -92.5t58.5 -29.5q5 0 14 0.5t18 2.5t15 6t6 11v339q0 5 1 11t7 6h104q4 0 9 -2t5 -11v-409
q0 -12 -7 -17t-29 -13q-11 -4 -36.5 -9.5t-55 -10t-54.5 -4.5zM463 560q6 2 8 -6q1 -9 1.5 -17.5t0.5 -16.5q0 -42 -18 -68t-49 -38t-69 -14q-6 0 -6 6v60q0 6 6 6q23 1 40 11.5t17 40.5q0 4 -0.5 8.5t-1.5 8.5q0 6 6 7z" />
    <glyph glyph-name="uni0218" unicode="&#x218;" horiz-adv-x="486" 
d="M48 37v82q0 7 4.5 7t15.5 -4q20 -6 47 -11.5t53 -8.5t42 -3q52 0 79.5 29t27.5 67q0 39 -27.5 63t-73.5 37q-25 6 -56.5 17t-61 31t-48.5 55.5t-19 90.5q0 68 31.5 109t82 60.5t107.5 19.5q22 0 48.5 -4.5t52.5 -11.5t46 -16q8 -2 10 -5.5t2 -9.5v-75q0 -27 -33 -9
q-21 12 -50.5 21.5t-65.5 9.5q-44 0 -71 -23t-27 -55q0 -31 17 -50t44 -30t56 -18t53 -16q40 -13 66.5 -34.5t40.5 -56.5t14 -89q0 -73 -31.5 -120.5t-86.5 -70.5t-125 -23q-31 0 -70 6t-71 17q-13 4 -18 8.5t-5 13.5zM299 -83q0 -20 -8.5 -43.5t-20 -45t-20.5 -34.5
q-4 -6 -11 -6h-22.5h-21.5q-7 0 -7 2.5t4 11.5q5 12 13 34.5t15 35.5q-19 3 -28 17t-9 27q0 21 13.5 35.5t45.5 14.5q24 0 40.5 -9.5t16.5 -39.5z" />
    <glyph glyph-name="uni0219" unicode="&#x219;" horiz-adv-x="410" 
d="M41 116q3 11 9.5 9.5t12.5 -5.5q17 -8 39.5 -14.5t46.5 -10t43 -3.5q20 0 36.5 4.5t26.5 14.5t10 26q1 22 -19.5 33.5t-71.5 22.5q-32 7 -65.5 20.5t-55.5 41t-22 72.5q0 51 26 83.5t67.5 49.5t88.5 17q37 0 81 -11t73 -28q9 -5 9.5 -9t-1.5 -11l-24 -65q-3 -12 -19 -6
q-22 13 -54 24t-65 11q-23 0 -40.5 -11.5t-17.5 -29.5q0 -22 20 -32t58 -18q28 -6 54 -13.5t48 -22t35 -39t13 -63.5q0 -45 -17 -75.5t-45.5 -48.5t-62 -26t-66.5 -8q-18 0 -47 4t-59 13t-51 24q-4 2 -6.5 5.5t-1.5 9.5zM260 -84q0 -20 -8.5 -43.5t-20 -45t-20.5 -34.5
q-4 -6 -11 -6h-22.5h-21.5q-7 0 -7 2.5t4 11.5q5 12 13 34.5t15 35.5q-19 3 -28 17t-9 27q0 21 13.5 35.5t45.5 14.5q24 0 40.5 -9.5t16.5 -39.5z" />
    <glyph glyph-name="uni021A" unicode="&#x21a;" horiz-adv-x="456" 
d="M174 0q-4 0 -8.5 3.5t-4.5 8.5v552q0 5 -1 6t-6 1h-121q-11 0 -13.5 2.5t-2.5 9.5v78q0 7 2.5 9.5t11.5 2.5h392q10 0 13 -2.5t3 -9.5v-77q0 -8 -3 -10.5t-14 -2.5h-121q-6 0 -7 -1t-1 -6v-552q0 -12 -12 -12h-107zM283 -83q0 -20 -8.5 -43.5t-20 -45t-20.5 -34.5
q-4 -6 -11 -6h-22.5h-21.5q-7 0 -7 2.5t4 11.5q5 12 13 34.5t15 35.5q-19 3 -28 17t-9 27q0 21 13.5 35.5t45.5 14.5q24 0 40.5 -9.5t16.5 -39.5z" />
    <glyph glyph-name="uni021B" unicode="&#x21b;" horiz-adv-x="358" 
d="M232 0q-68 0 -101.5 28.5t-44.5 79.5q-8 42 -8.5 86t-0.5 89q0 29 0.5 51t1.5 49q0 10 -9 10h-41q-8 0 -10.5 2t-2.5 12v50q0 12 2.5 13.5t13.5 1.5h41q8 0 9 4t2 13l4 75q0 12 12 12h100q5 0 10 -3.5t4 -8.5l-5 -75q-1 -12 0.5 -14.5t7.5 -2.5h84q10 0 12 -2.5t2 -14.5
v-47q0 -10 -3 -12.5t-13 -2.5h-83q-6 0 -8.5 -3.5t-2.5 -10.5q-1 -26 -2 -52.5t-1 -54.5q0 -35 1.5 -70.5t8.5 -68.5q6 -19 17 -27t29 -8q12 0 23 3.5t19 5.5q12 7 15 4.5t7 -12.5l17 -60q4 -7 -2 -12.5t-24 -12.5q-12 -4 -26 -7.5t-28 -5t-27 -1.5zM258 -75
q0 -20 -8.5 -43.5t-20 -45t-20.5 -34.5q-4 -6 -11 -6h-22.5h-21.5q-7 0 -7 2.5t4 11.5q5 12 13 34.5t15 35.5q-19 3 -28 17t-9 27q0 21 13.5 35.5t45.5 14.5q24 0 40.5 -9.5t16.5 -39.5z" />
    <glyph glyph-name="circumflex" unicode="&#x2c6;" horiz-adv-x="236" 
d="M10 525q-4 0 -5 3t1 6l77 100q3 3 8 3h54q5 0 8 -3l77 -100q2 -3 1.5 -6t-5.5 -3h-56q-5 0 -8 4l-39 37q-5 4 -10 0l-39 -37q-3 -4 -8 -4h-56z" />
    <glyph glyph-name="caron" unicode="&#x2c7;" horiz-adv-x="228" 
d="M87 525q-5 0 -8 4l-77 100q-2 3 -1 5.5t5 2.5h56q5 0 8 -3l39 -37q5 -5 10 0l39 37q3 3 8 3h56q5 0 5.5 -2.5t-1.5 -5.5l-77 -100q-3 -4 -8 -4h-54z" />
    <glyph glyph-name="breve" unicode="&#x2d8;" horiz-adv-x="233" 
d="M117 520q-56 0 -86.5 24t-30.5 65q0 16 2 19t13 3h48q10 0 12.5 -1.5t2.5 -11.5q0 -14 11 -22.5t28 -8.5t28 8.5t11 23.5q0 8 3 10t9 2h53q9 0 10.5 -3.5t1.5 -18.5q0 -41 -29.5 -65t-86.5 -24z" />
    <glyph glyph-name="dotaccent" unicode="&#x2d9;" horiz-adv-x="103" 
d="M103 658q0 -23 -10 -35.5t-40 -12.5t-41.5 12.5t-11.5 35.5q0 21 11.5 34.5t41.5 13.5q32 0 41 -13.5t9 -34.5z" />
    <glyph glyph-name="ring" unicode="&#x2da;" horiz-adv-x="221" 
d="M221 565q0 -46 -25.5 -75t-84.5 -29q-61 0 -86 28.5t-25 75.5q0 48 25 75.5t86 27.5q59 0 84.5 -27.5t25.5 -75.5zM165 568q0 18 -10 30t-43 12q-35 0 -44 -12t-9 -30q0 -10 3 -21.5t14.5 -18.5t35.5 -7t35.5 7t14.5 18.5t3 21.5z" />
    <glyph glyph-name="ogonek" unicode="&#x2db;" horiz-adv-x="228" 
d="M115 -207q-48 0 -81.5 26.5t-33.5 67.5q0 33 14.5 60.5t40 50t56.5 39.5q10 5 21.5 9.5t25.5 4.5h63q7 0 8 -4t-6 -9q-54 -34 -82.5 -58.5t-39 -44t-10.5 -37.5q0 -19 11.5 -27t25.5 -7q16 1 37.5 10.5t37.5 22.5q6 5 11.5 4.5t5.5 -8.5v-39q0 -16 -18 -29
q-20 -15 -40.5 -23.5t-46.5 -8.5z" />
    <glyph glyph-name="tilde" unicode="&#x2dc;" horiz-adv-x="225" 
d="M6 535q-6 0 -6 6q0 38 18.5 60t52.5 22q17 0 32 -8t28 -16.5t19 -8.5t10 4.5t4 13.5q0 7 5 7h50q6 0 6 -6q0 -34 -20 -57.5t-52 -23.5q-21 0 -36 8t-25 16t-19 8q-7 0 -10 -4.5t-3 -13.5q0 -7 -6 -7h-48z" />
    <glyph glyph-name="hungarumlaut" unicode="&#x2dd;" horiz-adv-x="261" 
d="M68 532q-3 -4 -6 -5.5t-14 -1.5h-37q-15 0 -8 14l39 115q3 8 21 8h65q7 0 9 -4t-2 -9zM186 532q-1 -4 -5 -5.5t-15 -1.5h-37q-15 0 -8 14l45 115q3 8 21 8h66q6 0 8 -4t-1 -9z" />
    <glyph glyph-name="gravecomb" unicode="&#x300;" 
d="M115 526q-13 0 -25 12l-88 91q-4 4 -1 9t7 5h93q10 0 15 -3t9 -10l52 -88q9 -16 -2 -16h-60z" />
    <glyph glyph-name="acutecomb" unicode="&#x301;" 
d="M10 525q-9 0 -9.5 3.5t6.5 12.5l65 93q5 8 21 8h80q6 0 8 -3t-5 -10l-87 -97q-5 -6 -9 -6.5t-12 -0.5h-58z" />
    <glyph glyph-name="uni0302" unicode="&#x302;" 
d="M10 525q-4 0 -5 3t1 6l77 100q3 3 8 3h54q5 0 8 -3l77 -100q2 -3 1.5 -6t-5.5 -3h-56q-5 0 -8 4l-39 37q-5 4 -10 0l-39 -37q-3 -4 -8 -4h-56z" />
    <glyph glyph-name="tildecomb" unicode="&#x303;" 
d="M6 535q-6 0 -6 6q0 38 18.5 60t52.5 22q17 0 32 -8t28 -16.5t19 -8.5t10 4.5t4 13.5q0 7 5 7h50q6 0 6 -6q0 -34 -20 -57.5t-52 -23.5q-21 0 -36 8t-25 16t-19 8q-7 0 -10 -4.5t-3 -13.5q0 -7 -6 -7h-48z" />
    <glyph glyph-name="uni0304" unicode="&#x304;" 
d="M233 537q0 -4 -1.5 -5t-9.5 -1h-212q-7 0 -8.5 2t-1.5 6v60q0 6 2 7.5t8 1.5h213q7 0 8.5 -1t1.5 -8v-62z" />
    <glyph glyph-name="uni0306" unicode="&#x306;" 
d="M117 520q-56 0 -86.5 24t-30.5 65q0 16 2 19t13 3h48q10 0 12.5 -1.5t2.5 -11.5q0 -14 11 -22.5t28 -8.5t28 8.5t11 23.5q0 8 3 10t9 2h53q9 0 10.5 -3.5t1.5 -18.5q0 -41 -29.5 -65t-86.5 -24z" />
    <glyph glyph-name="uni0307" unicode="&#x307;" 
d="M103 572q0 -23 -10 -35.5t-40 -12.5t-41.5 12.5t-11.5 35.5q0 22 11.5 35t41.5 13q32 0 41 -13t9 -35z" />
    <glyph glyph-name="uni0308" unicode="&#x308;" 
d="M112 574q0 -23 -12 -35.5t-44 -12.5q-28 0 -41 12.5t-13 35.5t13 35t41 12q32 0 44 -12t12 -35zM272 574q0 -23 -11 -35.5t-43 -12.5q-30 0 -42.5 12.5t-12.5 35.5t12.5 35t42.5 12q32 0 43 -12t11 -35z" />
    <glyph glyph-name="hookabovecomb" unicode="&#x309;" 
d="M52 522q-2 0 -5 2.5t-3 5.5q0 14 5.5 22.5t10.5 13.5q8 8 16 14t8 16q0 13 -15 13q-8 0 -15 -2t-16 -9q-8 -6 -12 1l-24 31q-6 7 2 11q10 10 33 19t49 9q34 0 53 -19t19 -50q0 -27 -12.5 -38t-21.5 -16q-6 -3 -9 -6.5t-3 -9.5q0 -8 -9 -8h-51z" />
    <glyph glyph-name="uni030A" unicode="&#x30a;" 
d="M188 598q0 -41 -21.5 -66t-71.5 -25q-52 0 -73.5 25t-21.5 66q0 40 21.5 64.5t73.5 24.5q50 0 71.5 -24t21.5 -65zM135 600q0 13 -8 21.5t-32 8.5q-25 0 -31.5 -8.5t-6.5 -21.5q0 -11 6.5 -22t32.5 -11t32.5 11t6.5 22z" />
    <glyph glyph-name="uni030B" unicode="&#x30b;" 
d="M68 532q-2 -4 -5.5 -5.5t-14.5 -1.5h-37q-14 0 -8 14l39 115q2 8 21 8h65q7 0 9 -4t-2 -9zM186 532q-2 -4 -5.5 -5.5t-14.5 -1.5h-37q-14 0 -8 14l45 115q3 8 21 8h66q6 0 8 -4t-1 -9z" />
    <glyph glyph-name="uni030C" unicode="&#x30c;" 
d="M91 525q-5 0 -8 4l-77 100q-2 3 -1 5.5t5 2.5h56q5 0 8 -3l39 -37q5 -5 10 0l39 37q3 3 8 3h56q5 0 5.5 -2.5t-1.5 -5.5l-77 -100q-3 -4 -8 -4h-54z" />
    <glyph glyph-name="uni0312" unicode="&#x312;" 
d="M0 599q0 22 7.5 50t19.5 53.5t22 40.5q4 7 12 8q12 0 24 0.5t23 0.5q7 0 7 -3.5t-4 -12.5q-3 -8 -8 -24.5t-10 -34t-10 -28.5q21 -2 30.5 -17t9.5 -30q0 -24 -13.5 -39.5t-47.5 -16.5q-25 -1 -43 9.5t-19 43.5z" />
    <glyph glyph-name="uni031B" unicode="&#x31b;" 
d="M132 560q6 2 8 -6q1 -9 1.5 -17.5t0.5 -16.5q0 -42 -18 -68t-49 -38t-69 -14q-6 0 -6 6v60q0 6 6 6q23 1 40 11.5t17 40.5q0 4 -0.5 8.5t-1.5 8.5q0 6 6 7z" />
    <glyph glyph-name="dotbelowcomb" unicode="&#x323;" 
d="M103 -94q0 -23 -10 -35.5t-40 -12.5t-41.5 12.5t-11.5 35.5q0 21 11.5 34.5t41.5 13.5q32 0 41 -13.5t9 -34.5z" />
    <glyph glyph-name="uni0326" unicode="&#x326;" 
d="M117 -83q0 -20 -8.5 -43.5t-20 -45t-20.5 -34.5q-4 -6 -11 -6h-22.5h-21.5q-7 0 -7 2.5t4 11.5q5 12 13 34.5t15 35.5q-19 3 -28 17t-9 27q0 21 13.5 35.5t45.5 14.5q24 0 40.5 -9.5t16.5 -39.5z" />
    <glyph glyph-name="uni0327" unicode="&#x327;" 
d="M194 -127q0 -30 -25.5 -54t-69.5 -24q-34 0 -56.5 13.5t-36.5 31.5q-6 8 -6 16.5t9 12.5l21 9q10 5 15 3.5t8 -6.5q6 -12 16 -19t22 -7q17 0 25 9t8 19q0 12 -8.5 19t-21.5 10.5t-28 3.5q-9 0 -13 6.5t1 13.5l36 62q4 6 8.5 8.5t10.5 2.5h30q12 0 7 -12l-27 -66l-20 26
q47 -5 71 -24t24 -54z" />
    <glyph glyph-name="uni0328" unicode="&#x328;" 
d="M115 -207q-48 0 -81.5 26.5t-33.5 67.5q0 33 14.5 60.5t40 50t56.5 39.5q10 5 21.5 9.5t25.5 4.5h63q7 0 8 -4t-6 -9q-54 -34 -82.5 -58.5t-39 -44t-10.5 -37.5q0 -19 11.5 -27t25.5 -7q16 1 37.5 10.5t37.5 22.5q6 5 11.5 4.5t5.5 -8.5v-39q0 -16 -18 -29
q-20 -15 -40.5 -23.5t-46.5 -8.5z" />
    <glyph glyph-name="uni03BC" unicode="&#x3bc;" horiz-adv-x="474" 
d="M268 -4q-15 0 -35 2t-36 5t-21 5q2 -25 10.5 -58.5t23.5 -71t37 -78.5h-64.5h-63.5q-18 29 -31 74.5t-21.5 98.5t-14 103t-7.5 89t-2 57q0 37 1.5 77t5 78.5t6.5 70.5q2 18 6 21t19 3h81q13 0 19 -0.5t4 -18.5q0 -4 -1.5 -29t-3.5 -61.5t-3 -75t-1 -69.5q0 -37 2.5 -53.5
t10.5 -37.5q13 -13 25.5 -22t30.5 -9q8 0 18 0.5t19.5 2.5t15.5 6t6 11v339q0 5 1 11t7 6h105q4 0 9 -2t5 -11v-392q0 -18 -7.5 -26.5t-28.5 -20.5q-12 -7 -32 -12.5t-45 -8.5t-50 -3z" />
    <glyph glyph-name="pi" unicode="&#x3c0;" horiz-adv-x="657" 
d="M139 0q-14 0 -19.5 7.5t-5.5 20.5v387h-40q-19 0 -23 5t-4 21v47q0 16 4 21t23 5h509q20 0 23.5 -5t3.5 -21v-47q0 -16 -3.5 -21t-23.5 -5h-41v-387q0 -13 -2 -20.5t-14 -7.5h-90q-13 0 -16 7.5t-3 20.5v387h-175v-387q0 -13 -3.5 -20.5t-17.5 -7.5h-82z" />
    <glyph glyph-name="Wgrave" unicode="&#x1e80;" horiz-adv-x="856" 
d="M237 0q-18 0 -28 18q-22 42 -45.5 103t-45.5 133t-41 145t-33 139.5t-21 116.5q-1 7 0.5 12.5t10.5 5.5h15.5h33.5h35h19q8 0 11.5 -2.5t4.5 -12.5q4 -31 15 -81.5t33 -138.5q16 -63 27.5 -109t20.5 -77t17 -52q2 -5 3.5 -7.5t2.5 -2.5h2h1q2 0 4 3.5t3 7.5
q5 14 12.5 35.5t16 46.5t17 51.5t15.5 51.5t10 46q4 32 5 70t1 73v57.5v22.5q-1 8 0.5 13t11.5 5h18h33.5h33.5h18q8 0 11 -2.5t3 -12.5q1 -42 4 -85.5t7.5 -78t6.5 -52.5q9 -57 25 -115.5t39 -121.5q4 -9 5 -12t3 -3h2h1q2 0 5 7q3 8 12.5 37t23.5 77t30 112q12 44 19.5 74
t13 53.5t10.5 48t10 56.5q2 12 5.5 15t10.5 3h18.5h33.5h33.5h18.5q16 0 10 -21q-9 -43 -24 -107t-34.5 -138t-40 -147.5t-42.5 -137t-44 -104.5q-1 -4 -6.5 -11t-15.5 -7h-26.5h-37h-27.5q-7 0 -13.5 8t-7.5 10q-13 25 -26.5 56.5t-26.5 68.5t-26 76q-4 12 -8.5 17
t-11.5 -16q-16 -51 -26.5 -83t-17.5 -51.5t-13.5 -34.5t-14.5 -33q-4 -9 -11 -13.5t-12 -4.5h-26.5h-35.5h-23zM425 716q-7 0 -12 3t-13 9l-100 75q-4 3 -1 8t7 5h93q10 0 14 -2.5t10 -9.5l64 -72q6 -6 5.5 -11t-7.5 -5h-60z" />
    <glyph glyph-name="wgrave" unicode="&#x1e81;" horiz-adv-x="649" 
d="M158 16q-27 54 -50.5 111.5t-42 114.5t-31 107t-19.5 88q-3 15 -2 25t10 10h107q14 0 16 -14q6 -30 13 -64t15.5 -67.5t16 -64t14 -54t11.5 -35.5q2 -8 4.5 -6.5t3.5 3.5q7 13 13 33.5t11 44t8 44.5t3 35q0 18 -0.5 36.5t-0.5 36t-0.5 32.5t-0.5 25q0 14 13 14h111
q5 0 9 -3t4 -11q0 -27 1 -64.5t4 -77.5q2 -15 4.5 -31.5t7 -33.5t9 -32.5t9 -27.5t7.5 -21q6 -12 9 0q6 16 12.5 40t14 53.5t15 62.5t14 66t11.5 64q3 17 21 17h92q10 0 11 -8.5t-1 -21.5q-7 -45 -22 -104.5t-35 -121.5t-42 -115t-43 -85q-5 -8 -9 -12t-9 -4h-68
q-7 0 -10 2.5t-8 8.5q-7 11 -17.5 32t-20.5 44t-16 40q-9 24 -18 0q-1 -5 -6.5 -17.5t-11.5 -26t-10 -21.5q-7 -14 -15.5 -29.5t-11.5 -21.5q-3 -4 -7.5 -7.5t-11.5 -3.5h-64q-10 0 -12.5 2.5t-8.5 13.5zM317 526q-13 0 -25 12l-88 91q-4 4 -1 9t7 5h93q10 0 15 -3t9 -10
l52 -88q9 -16 -2 -16h-60z" />
    <glyph glyph-name="Wacute" unicode="&#x1e82;" horiz-adv-x="856" 
d="M237 0q-18 0 -28 18q-22 42 -45.5 103t-45.5 133t-41 145t-33 139.5t-21 116.5q-1 7 0.5 12.5t10.5 5.5h15.5h33.5h35h19q8 0 11.5 -2.5t4.5 -12.5q4 -31 15 -81.5t33 -138.5q16 -63 27.5 -109t20.5 -77t17 -52q2 -5 3.5 -7.5t2.5 -2.5h2h1q2 0 4 3.5t3 7.5
q5 14 12.5 35.5t16 46.5t17 51.5t15.5 51.5t10 46q4 32 5 70t1 73v57.5v22.5q-1 8 0.5 13t11.5 5h18h33.5h33.5h18q8 0 11 -2.5t3 -12.5q1 -42 4 -85.5t7.5 -78t6.5 -52.5q9 -57 25 -115.5t39 -121.5q4 -9 5 -12t3 -3h2h1q2 0 5 7q3 8 12.5 37t23.5 77t30 112q12 44 19.5 74
t13 53.5t10.5 48t10 56.5q2 12 5.5 15t10.5 3h18.5h33.5h33.5h18.5q16 0 10 -21q-9 -43 -24 -107t-34.5 -138t-40 -147.5t-42.5 -137t-44 -104.5q-1 -4 -6.5 -11t-15.5 -7h-26.5h-37h-27.5q-7 0 -13.5 8t-7.5 10q-13 25 -26.5 56.5t-26.5 68.5t-26 76q-4 12 -8.5 17
t-11.5 -16q-16 -51 -26.5 -83t-17.5 -51.5t-13.5 -34.5t-14.5 -33q-4 -9 -11 -13.5t-12 -4.5h-26.5h-35.5h-23zM432 716h-60q-7 0 -7.5 5t5.5 11l64 72q6 7 10 9.5t14 2.5h93q5 0 8 -5t-2 -8l-100 -75q-8 -6 -13 -9t-12 -3z" />
    <glyph glyph-name="wacute" unicode="&#x1e83;" horiz-adv-x="649" 
d="M158 16q-27 54 -50.5 111.5t-42 114.5t-31 107t-19.5 88q-3 15 -2 25t10 10h107q14 0 16 -14q6 -30 13 -64t15.5 -67.5t16 -64t14 -54t11.5 -35.5q2 -8 4.5 -6.5t3.5 3.5q7 13 13 33.5t11 44t8 44.5t3 35q0 18 -0.5 36.5t-0.5 36t-0.5 32.5t-0.5 25q0 14 13 14h111
q5 0 9 -3t4 -11q0 -27 1 -64.5t4 -77.5q2 -15 4.5 -31.5t7 -33.5t9 -32.5t9 -27.5t7.5 -21q6 -12 9 0q6 16 12.5 40t14 53.5t15 62.5t14 66t11.5 64q3 17 21 17h92q10 0 11 -8.5t-1 -21.5q-7 -45 -22 -104.5t-35 -121.5t-42 -115t-43 -85q-5 -8 -9 -12t-9 -4h-68
q-7 0 -10 2.5t-8 8.5q-7 11 -17.5 32t-20.5 44t-16 40q-9 24 -18 0q-1 -5 -6.5 -17.5t-11.5 -26t-10 -21.5q-7 -14 -15.5 -29.5t-11.5 -21.5q-3 -4 -7.5 -7.5t-11.5 -3.5h-64q-10 0 -12.5 2.5t-8.5 13.5zM276 525q-9 0 -9.5 3.5t6.5 12.5l65 93q5 8 21 8h80q6 0 8 -3t-5 -10
l-87 -97q-5 -6 -9 -6.5t-12 -0.5h-58z" />
    <glyph glyph-name="Wdieresis" unicode="&#x1e84;" horiz-adv-x="856" 
d="M237 0q-18 0 -28 18q-22 42 -45.5 103t-45.5 133t-41 145t-33 139.5t-21 116.5q-1 7 0.5 12.5t10.5 5.5h15.5h33.5h35h19q8 0 11.5 -2.5t4.5 -12.5q4 -31 15 -81.5t33 -138.5q16 -63 27.5 -109t20.5 -77t17 -52q2 -5 3.5 -7.5t2.5 -2.5h2h1q2 0 4 3.5t3 7.5
q5 14 12.5 35.5t16 46.5t17 51.5t15.5 51.5t10 46q4 32 5 70t1 73v57.5v22.5q-1 8 0.5 13t11.5 5h18h33.5h33.5h18q8 0 11 -2.5t3 -12.5q1 -42 4 -85.5t7.5 -78t6.5 -52.5q9 -57 25 -115.5t39 -121.5q4 -9 5 -12t3 -3h2h1q2 0 5 7q3 8 12.5 37t23.5 77t30 112q12 44 19.5 74
t13 53.5t10.5 48t10 56.5q2 12 5.5 15t10.5 3h18.5h33.5h33.5h18.5q16 0 10 -21q-9 -43 -24 -107t-34.5 -138t-40 -147.5t-42.5 -137t-44 -104.5q-1 -4 -6.5 -11t-15.5 -7h-26.5h-37h-27.5q-7 0 -13.5 8t-7.5 10q-13 25 -26.5 56.5t-26.5 68.5t-26 76q-4 12 -8.5 17
t-11.5 -16q-16 -51 -26.5 -83t-17.5 -51.5t-13.5 -34.5t-14.5 -33q-4 -9 -11 -13.5t-12 -4.5h-26.5h-35.5h-23zM404 775q0 -23 -12 -35.5t-44 -12.5q-28 0 -41 12.5t-13 35.5t13 35t41 12q32 0 44 -12t12 -35zM564 775q0 -23 -11 -35.5t-43 -12.5q-30 0 -42.5 12.5
t-12.5 35.5t12.5 35t42.5 12q32 0 43 -12t11 -35z" />
    <glyph glyph-name="wdieresis" unicode="&#x1e85;" horiz-adv-x="649" 
d="M158 16q-27 54 -50.5 111.5t-42 114.5t-31 107t-19.5 88q-3 15 -2 25t10 10h107q14 0 16 -14q6 -30 13 -64t15.5 -67.5t16 -64t14 -54t11.5 -35.5q2 -8 4.5 -6.5t3.5 3.5q7 13 13 33.5t11 44t8 44.5t3 35q0 18 -0.5 36.5t-0.5 36t-0.5 32.5t-0.5 25q0 14 13 14h111
q5 0 9 -3t4 -11q0 -27 1 -64.5t4 -77.5q2 -15 4.5 -31.5t7 -33.5t9 -32.5t9 -27.5t7.5 -21q6 -12 9 0q6 16 12.5 40t14 53.5t15 62.5t14 66t11.5 64q3 17 21 17h92q10 0 11 -8.5t-1 -21.5q-7 -45 -22 -104.5t-35 -121.5t-42 -115t-43 -85q-5 -8 -9 -12t-9 -4h-68
q-7 0 -10 2.5t-8 8.5q-7 11 -17.5 32t-20.5 44t-16 40q-9 24 -18 0q-1 -5 -6.5 -17.5t-11.5 -26t-10 -21.5q-7 -14 -15.5 -29.5t-11.5 -21.5q-3 -4 -7.5 -7.5t-11.5 -3.5h-64q-10 0 -12.5 2.5t-8.5 13.5zM300 574q0 -23 -12 -35.5t-44 -12.5q-28 0 -41 12.5t-13 35.5t13 35
t41 12q32 0 44 -12t12 -35zM460 574q0 -23 -11 -35.5t-43 -12.5q-30 0 -42.5 12.5t-12.5 35.5t12.5 35t42.5 12q32 0 43 -12t11 -35z" />
    <glyph glyph-name="uni1E9E" unicode="&#x1e9e;" horiz-adv-x="932" 
d="M48 37v82q0 7 4.5 7t15.5 -4q20 -6 47 -11.5t53 -8.5t42 -3q52 0 79.5 29t27.5 67q0 39 -27.5 63t-73.5 37q-25 6 -56.5 17t-61 31t-48.5 55.5t-19 90.5q0 68 31.5 109t82 60.5t107.5 19.5q22 0 48.5 -4.5t52.5 -11.5t46 -16q8 -2 10 -5.5t2 -9.5v-75q0 -27 -33 -9
q-21 12 -50.5 21.5t-65.5 9.5q-44 0 -71 -23t-27 -55q0 -31 17 -50t44 -30t56 -18t53 -16q40 -13 66.5 -34.5t40.5 -56.5t14 -89q0 -73 -31.5 -120.5t-86.5 -70.5t-125 -23q-31 0 -70 6t-71 17q-13 4 -18 8.5t-5 13.5zM486 37v82q0 7 4.5 7t15.5 -4q20 -6 47 -11.5t53 -8.5
t42 -3q52 0 79.5 29t27.5 67q0 39 -27.5 63t-73.5 37q-25 6 -56.5 17t-61 31t-48.5 55.5t-19 90.5q0 68 31.5 109t82 60.5t107.5 19.5q22 0 48.5 -4.5t52.5 -11.5t46 -16q8 -2 10 -5.5t2 -9.5v-75q0 -27 -33 -9q-21 12 -50.5 21.5t-65.5 9.5q-44 0 -71 -23t-27 -55
q0 -31 17 -50t44 -30t56 -18t53 -16q40 -13 66.5 -34.5t40.5 -56.5t14 -89q0 -73 -31.5 -120.5t-86.5 -70.5t-125 -23q-31 0 -70 6t-71 17q-13 4 -18 8.5t-5 13.5z" />
    <glyph glyph-name="uni1EA0" unicode="&#x1ea0;" horiz-adv-x="550" 
d="M31 0q-8 0 -10 7t1 27q7 45 21 108.5t33 134.5t40.5 142t44.5 132.5t44 102.5q6 9 10.5 14t11.5 5h95q8 -3 13 -6.5t10 -12.5q21 -41 44 -102.5t45 -132.5t41 -142.5t33 -135t20 -107.5q4 -20 2 -27t-11 -7h-103q-8 0 -11 4.5t-7 23.5q-4 23 -10.5 54.5t-11.5 55.5
q-1 7 -3 8.5t-9 1.5h-178q-7 -1 -8 -2t-3 -9q-5 -23 -11.5 -54.5t-11.5 -55.5q-3 -18 -6 -22.5t-11 -4.5h-104zM214 249h122q7 0 8.5 2.5t-0.5 9.5q-13 51 -28 106.5t-31 100.5q-2 9 -7 9h-7q-4 0 -7 -9q-8 -26 -18.5 -61t-20.5 -73t-19 -74q-1 -6 0 -8.5t8 -2.5zM326 -94
q0 -23 -10 -35.5t-40 -12.5t-41.5 12.5t-11.5 35.5q0 21 11.5 34.5t41.5 13.5q32 0 41 -13.5t9 -34.5z" />
    <glyph glyph-name="uni1EA1" unicode="&#x1ea1;" horiz-adv-x="470" 
d="M230 -7q-51 0 -95.5 11.5t-72 44.5t-27.5 96q0 52 19.5 85.5t50 51.5t63.5 24.5t59 6.5q21 0 40.5 -1.5t36.5 -4.5q9 -3 9 13q0 37 -22.5 52t-62.5 15q-38 0 -72.5 -14t-58.5 -26q-11 -6 -14.5 -4t-5.5 13l-9 56q-2 13 0 17t11 10q26 17 66 27.5t85 10.5q68 0 109 -15.5
t61.5 -41.5t27 -59.5t6.5 -69.5q1 -42 0.5 -82.5t-2.5 -80.5t-6 -81q-2 -11 -6 -16.5t-16 -11.5q-14 -7 -37 -11.5t-49.5 -8t-49.5 -5t-38 -1.5zM238 70q8 0 18 1t20 4.5t16.5 8.5t7.5 13q3 24 5 53t0 56q0 13 -10 18q-10 7 -28.5 8.5t-30.5 1.5q-9 0 -22.5 -3.5
t-25.5 -12.5t-19.5 -27t-7.5 -46q0 -22 9 -39t26 -26.5t42 -9.5zM286 -94q0 -23 -10 -35.5t-40 -12.5t-41.5 12.5t-11.5 35.5q0 21 11.5 34.5t41.5 13.5q32 0 41 -13.5t9 -34.5z" />
    <glyph glyph-name="uni1EA2" unicode="&#x1ea2;" horiz-adv-x="550" 
d="M31 0q-8 0 -10 7t1 27q7 45 21 108.5t33 134.5t40.5 142t44.5 132.5t44 102.5q6 9 10.5 14t11.5 5h95q8 -3 13 -6.5t10 -12.5q21 -41 44 -102.5t45 -132.5t41 -142.5t33 -135t20 -107.5q4 -20 2 -27t-11 -7h-103q-8 0 -11 4.5t-7 23.5q-4 23 -10.5 54.5t-11.5 55.5
q-1 7 -3 8.5t-9 1.5h-178q-7 -1 -8 -2t-3 -9q-5 -23 -11.5 -54.5t-11.5 -55.5q-3 -18 -6 -22.5t-11 -4.5h-104zM214 249h122q7 0 8.5 2.5t-0.5 9.5q-13 51 -28 106.5t-31 100.5q-2 9 -7 9h-7q-4 0 -7 -9q-8 -26 -18.5 -61t-20.5 -73t-19 -74q-1 -6 0 -8.5t8 -2.5zM249 709
q-2 0 -5 2.5t-3 5.5q0 14 5.5 22.5t10.5 12.5q8 8 16.5 14.5t8.5 16.5q0 13 -17 13q-8 0 -14.5 -2.5t-16.5 -9.5q-7 -5 -12 2l-23 31q-3 3 -2.5 6t4.5 5q10 9 33 18t49 9q33 0 52 -18.5t19 -50.5q0 -26 -12.5 -37t-21.5 -17q-5 -3 -8.5 -6t-3.5 -9q0 -8 -9 -8h-50z" />
    <glyph glyph-name="uni1EA3" unicode="&#x1ea3;" horiz-adv-x="470" 
d="M230 -7q-51 0 -95.5 11.5t-72 44.5t-27.5 96q0 52 19.5 85.5t50 51.5t63.5 24.5t59 6.5q21 0 40.5 -1.5t36.5 -4.5q9 -3 9 13q0 37 -22.5 52t-62.5 15q-38 0 -72.5 -14t-58.5 -26q-11 -6 -14.5 -4t-5.5 13l-9 56q-2 13 0 17t11 10q26 17 66 27.5t85 10.5q68 0 109 -15.5
t61.5 -41.5t27 -59.5t6.5 -69.5q1 -42 0.5 -82.5t-2.5 -80.5t-6 -81q-2 -11 -6 -16.5t-16 -11.5q-14 -7 -37 -11.5t-49.5 -8t-49.5 -5t-38 -1.5zM238 70q8 0 18 1t20 4.5t16.5 8.5t7.5 13q3 24 5 53t0 56q0 13 -10 18q-10 7 -28.5 8.5t-30.5 1.5q-9 0 -22.5 -3.5
t-25.5 -12.5t-19.5 -27t-7.5 -46q0 -22 9 -39t26 -26.5t42 -9.5zM219 519q-2 0 -5 2.5t-3 5.5q0 14 5.5 22.5t10.5 13.5q8 8 16 14t8 16q0 13 -15 13q-8 0 -15 -2t-16 -9q-8 -6 -12 1l-24 31q-6 7 2 11q10 10 33 19t49 9q34 0 53 -19t19 -50q0 -27 -12.5 -38t-21.5 -16
q-6 -3 -9 -6.5t-3 -9.5q0 -8 -9 -8h-51z" />
    <glyph glyph-name="uni1EA4" unicode="&#x1ea4;" horiz-adv-x="550" 
d="M31 0q-8 0 -10 7t1 27q7 45 21 108.5t33 134.5t40.5 142t44.5 132.5t44 102.5q6 9 10.5 14t11.5 5h95q8 -3 13 -6.5t10 -12.5q21 -41 44 -102.5t45 -132.5t41 -142.5t33 -135t20 -107.5q4 -20 2 -27t-11 -7h-103q-8 0 -11 4.5t-7 23.5q-4 23 -10.5 54.5t-11.5 55.5
q-1 7 -3 8.5t-9 1.5h-178q-7 -1 -8 -2t-3 -9q-5 -23 -11.5 -54.5t-11.5 -55.5q-3 -18 -6 -22.5t-11 -4.5h-104zM214 249h122q7 0 8.5 2.5t-0.5 9.5q-13 51 -28 106.5t-31 100.5q-2 9 -7 9h-7q-4 0 -7 -9q-8 -26 -18.5 -61t-20.5 -73t-19 -74q-1 -6 0 -8.5t8 -2.5zM159 714
q-4 0 -5 3t1 6l80 87q5 6 10 6h59q6 0 11 -5l81 -88q2 -3 1.5 -6t-5.5 -3h-53q-7 0 -10.5 2t-8.5 5l-39 32q-5 4 -11 0l-41 -33q-3 -3 -6.5 -4.5t-8.5 -1.5h-55zM454 776h-60q-7 0 -7.5 5t5.5 11l64 72q6 7 10 9.5t14 2.5h93q5 0 8 -5t-2 -8l-100 -75q-8 -6 -13 -9t-12 -3z
" />
    <glyph glyph-name="uni1EA5" unicode="&#x1ea5;" horiz-adv-x="470" 
d="M230 -7q-51 0 -95.5 11.5t-72 44.5t-27.5 96q0 52 19.5 85.5t50 51.5t63.5 24.5t59 6.5q21 0 40.5 -1.5t36.5 -4.5q9 -3 9 13q0 37 -22.5 52t-62.5 15q-38 0 -72.5 -14t-58.5 -26q-11 -6 -14.5 -4t-5.5 13l-9 56q-2 13 0 17t11 10q26 17 66 27.5t85 10.5q68 0 109 -15.5
t61.5 -41.5t27 -59.5t6.5 -69.5q1 -42 0.5 -82.5t-2.5 -80.5t-6 -81q-2 -11 -6 -16.5t-16 -11.5q-14 -7 -37 -11.5t-49.5 -8t-49.5 -5t-38 -1.5zM238 70q8 0 18 1t20 4.5t16.5 8.5t7.5 13q3 24 5 53t0 56q0 13 -10 18q-10 7 -28.5 8.5t-30.5 1.5q-9 0 -22.5 -3.5
t-25.5 -12.5t-19.5 -27t-7.5 -46q0 -22 9 -39t26 -26.5t42 -9.5zM136 525q-4 0 -5 3t1 6l77 100q3 3 8 3h54q5 0 8 -3l77 -100q2 -3 1.5 -6t-5.5 -3h-56q-5 0 -8 4l-39 37q-5 4 -10 0l-39 -37q-3 -4 -8 -4h-56zM359 576q-9 0 -9.5 3.5t6.5 12.5l65 93q5 8 21 8h80q6 0 8 -3
t-5 -10l-87 -97q-5 -6 -9 -6.5t-12 -0.5h-58z" />
    <glyph glyph-name="uni1EA6" unicode="&#x1ea6;" horiz-adv-x="550" 
d="M31 0q-8 0 -10 7t1 27q7 45 21 108.5t33 134.5t40.5 142t44.5 132.5t44 102.5q6 9 10.5 14t11.5 5h95q8 -3 13 -6.5t10 -12.5q21 -41 44 -102.5t45 -132.5t41 -142.5t33 -135t20 -107.5q4 -20 2 -27t-11 -7h-103q-8 0 -11 4.5t-7 23.5q-4 23 -10.5 54.5t-11.5 55.5
q-1 7 -3 8.5t-9 1.5h-178q-7 -1 -8 -2t-3 -9q-5 -23 -11.5 -54.5t-11.5 -55.5q-3 -18 -6 -22.5t-11 -4.5h-104zM214 249h122q7 0 8.5 2.5t-0.5 9.5q-13 51 -28 106.5t-31 100.5q-2 9 -7 9h-7q-4 0 -7 -9q-8 -26 -18.5 -61t-20.5 -73t-19 -74q-1 -6 0 -8.5t8 -2.5zM159 714
q-4 0 -5 3t1 6l80 87q5 6 10 6h59q6 0 11 -5l81 -88q2 -3 1.5 -6t-5.5 -3h-53q-7 0 -10.5 2t-8.5 5l-39 32q-5 4 -11 0l-41 -33q-3 -3 -6.5 -4.5t-8.5 -1.5h-55zM444 779q-7 0 -12 3t-13 9l-100 75q-4 3 -1 8t7 5h93q10 0 14 -2.5t10 -9.5l64 -72q6 -6 5.5 -11t-7.5 -5h-60z
" />
    <glyph glyph-name="uni1EA7" unicode="&#x1ea7;" horiz-adv-x="470" 
d="M230 -7q-51 0 -95.5 11.5t-72 44.5t-27.5 96q0 52 19.5 85.5t50 51.5t63.5 24.5t59 6.5q21 0 40.5 -1.5t36.5 -4.5q9 -3 9 13q0 37 -22.5 52t-62.5 15q-38 0 -72.5 -14t-58.5 -26q-11 -6 -14.5 -4t-5.5 13l-9 56q-2 13 0 17t11 10q26 17 66 27.5t85 10.5q68 0 109 -15.5
t61.5 -41.5t27 -59.5t6.5 -69.5q1 -42 0.5 -82.5t-2.5 -80.5t-6 -81q-2 -11 -6 -16.5t-16 -11.5q-14 -7 -37 -11.5t-49.5 -8t-49.5 -5t-38 -1.5zM238 70q8 0 18 1t20 4.5t16.5 8.5t7.5 13q3 24 5 53t0 56q0 13 -10 18q-10 7 -28.5 8.5t-30.5 1.5q-9 0 -22.5 -3.5
t-25.5 -12.5t-19.5 -27t-7.5 -46q0 -22 9 -39t26 -26.5t42 -9.5zM136 525q-4 0 -5 3t1 6l77 100q3 3 8 3h54q5 0 8 -3l77 -100q2 -3 1.5 -6t-5.5 -3h-56q-5 0 -8 4l-39 37q-5 4 -10 0l-39 -37q-3 -4 -8 -4h-56zM400 577q-13 0 -25 12l-88 91q-4 4 -1 9t7 5h93q10 0 15 -3
t9 -10l52 -88q9 -16 -2 -16h-60z" />
    <glyph glyph-name="uni1EA8" unicode="&#x1ea8;" horiz-adv-x="550" 
d="M31 0q-8 0 -10 7t1 27q7 45 21 108.5t33 134.5t40.5 142t44.5 132.5t44 102.5q6 9 10.5 14t11.5 5h95q8 -3 13 -6.5t10 -12.5q21 -41 44 -102.5t45 -132.5t41 -142.5t33 -135t20 -107.5q4 -20 2 -27t-11 -7h-103q-8 0 -11 4.5t-7 23.5q-4 23 -10.5 54.5t-11.5 55.5
q-1 7 -3 8.5t-9 1.5h-178q-7 -1 -8 -2t-3 -9q-5 -23 -11.5 -54.5t-11.5 -55.5q-3 -18 -6 -22.5t-11 -4.5h-104zM214 249h122q7 0 8.5 2.5t-0.5 9.5q-13 51 -28 106.5t-31 100.5q-2 9 -7 9h-7q-4 0 -7 -9q-8 -26 -18.5 -61t-20.5 -73t-19 -74q-1 -6 0 -8.5t8 -2.5zM159 714
q-4 0 -5 3t1 6l80 87q5 6 10 6h59q6 0 11 -5l81 -88q2 -3 1.5 -6t-5.5 -3h-53q-7 0 -10.5 2t-8.5 5l-39 32q-5 4 -11 0l-41 -33q-3 -3 -6.5 -4.5t-8.5 -1.5h-55zM425 769q-2 0 -5 2.5t-3 5.5q0 14 5.5 22.5t10.5 12.5q8 8 16.5 14.5t8.5 16.5q0 13 -17 13q-8 0 -14.5 -2.5
t-16.5 -9.5q-7 -5 -12 2l-23 31q-3 3 -2.5 6t4.5 5q10 9 33 18t49 9q33 0 52 -18.5t19 -50.5q0 -26 -12.5 -37t-21.5 -17q-5 -3 -8.5 -6t-3.5 -9q0 -8 -9 -8h-50z" />
    <glyph glyph-name="uni1EA9" unicode="&#x1ea9;" horiz-adv-x="470" 
d="M230 -7q-51 0 -95.5 11.5t-72 44.5t-27.5 96q0 52 19.5 85.5t50 51.5t63.5 24.5t59 6.5q21 0 40.5 -1.5t36.5 -4.5q9 -3 9 13q0 37 -22.5 52t-62.5 15q-38 0 -72.5 -14t-58.5 -26q-11 -6 -14.5 -4t-5.5 13l-9 56q-2 13 0 17t11 10q26 17 66 27.5t85 10.5q68 0 109 -15.5
t61.5 -41.5t27 -59.5t6.5 -69.5q1 -42 0.5 -82.5t-2.5 -80.5t-6 -81q-2 -11 -6 -16.5t-16 -11.5q-14 -7 -37 -11.5t-49.5 -8t-49.5 -5t-38 -1.5zM238 70q8 0 18 1t20 4.5t16.5 8.5t7.5 13q3 24 5 53t0 56q0 13 -10 18q-10 7 -28.5 8.5t-30.5 1.5q-9 0 -22.5 -3.5
t-25.5 -12.5t-19.5 -27t-7.5 -46q0 -22 9 -39t26 -26.5t42 -9.5zM136 525q-4 0 -5 3t1 6l77 100q3 3 8 3h54q5 0 8 -3l77 -100q2 -3 1.5 -6t-5.5 -3h-56q-5 0 -8 4l-39 37q-5 4 -10 0l-39 -37q-3 -4 -8 -4h-56zM382 571q-2 0 -5 2.5t-3 5.5q0 14 5.5 22.5t10.5 13.5
q8 8 16 14t8 16q0 13 -15 13q-8 0 -15 -2t-16 -9q-8 -6 -12 1l-24 31q-6 7 2 11q10 10 33 19t49 9q34 0 53 -19t19 -50q0 -27 -12.5 -38t-21.5 -16q-6 -3 -9 -6.5t-3 -9.5q0 -8 -9 -8h-51z" />
    <glyph glyph-name="uni1EAA" unicode="&#x1eaa;" horiz-adv-x="550" 
d="M31 0q-8 0 -10 7t1 27q7 45 21 108.5t33 134.5t40.5 142t44.5 132.5t44 102.5q6 9 10.5 14t11.5 5h95q8 -3 13 -6.5t10 -12.5q21 -41 44 -102.5t45 -132.5t41 -142.5t33 -135t20 -107.5q4 -20 2 -27t-11 -7h-103q-8 0 -11 4.5t-7 23.5q-4 23 -10.5 54.5t-11.5 55.5
q-1 7 -3 8.5t-9 1.5h-178q-7 -1 -8 -2t-3 -9q-5 -23 -11.5 -54.5t-11.5 -55.5q-3 -18 -6 -22.5t-11 -4.5h-104zM214 249h122q7 0 8.5 2.5t-0.5 9.5q-13 51 -28 106.5t-31 100.5q-2 9 -7 9h-7q-4 0 -7 -9q-8 -26 -18.5 -61t-20.5 -73t-19 -74q-1 -6 0 -8.5t8 -2.5zM159 714
q-4 0 -5 3t1 6l80 87q5 6 10 6h59q6 0 11 -5l81 -88q2 -3 1.5 -6t-5.5 -3h-53q-7 0 -10.5 2t-8.5 5l-39 32q-5 4 -11 0l-41 -33q-3 -3 -6.5 -4.5t-8.5 -1.5h-55zM175 842q-6 0 -6 6q0 41 18 65t53 24q16 0 31 -9.5t27.5 -19t18.5 -9.5q5 0 9 5.5t4 15.5q0 8 5 8h51q6 0 6 -7
q0 -36 -20 -61.5t-52 -25.5q-21 0 -35.5 9t-24.5 18t-18 9q-7 0 -10 -5t-3 -16q0 -7 -5 -7h-49z" />
    <glyph glyph-name="uni1EAB" unicode="&#x1eab;" horiz-adv-x="470" 
d="M230 -7q-51 0 -95.5 11.5t-72 44.5t-27.5 96q0 52 19.5 85.5t50 51.5t63.5 24.5t59 6.5q21 0 40.5 -1.5t36.5 -4.5q9 -3 9 13q0 37 -22.5 52t-62.5 15q-38 0 -72.5 -14t-58.5 -26q-11 -6 -14.5 -4t-5.5 13l-9 56q-2 13 0 17t11 10q26 17 66 27.5t85 10.5q68 0 109 -15.5
t61.5 -41.5t27 -59.5t6.5 -69.5q1 -42 0.5 -82.5t-2.5 -80.5t-6 -81q-2 -11 -6 -16.5t-16 -11.5q-14 -7 -37 -11.5t-49.5 -8t-49.5 -5t-38 -1.5zM238 70q8 0 18 1t20 4.5t16.5 8.5t7.5 13q3 24 5 53t0 56q0 13 -10 18q-10 7 -28.5 8.5t-30.5 1.5q-9 0 -22.5 -3.5
t-25.5 -12.5t-19.5 -27t-7.5 -46q0 -22 9 -39t26 -26.5t42 -9.5zM136 525q-4 0 -5 3t1 6l77 100q3 3 8 3h54q5 0 8 -3l77 -100q2 -3 1.5 -6t-5.5 -3h-56q-5 0 -8 4l-39 37q-5 4 -10 0l-39 -37q-3 -4 -8 -4h-56zM142 666q-6 0 -6 6q0 38 18.5 60t52.5 22q17 0 32 -8t28 -16.5
t19 -8.5t10 4.5t4 13.5q0 7 5 7h50q6 0 6 -6q0 -34 -20 -57.5t-52 -23.5q-21 0 -36 8t-25 16t-19 8q-7 0 -10 -4.5t-3 -13.5q0 -7 -6 -7h-48z" />
    <glyph glyph-name="uni1EAC" unicode="&#x1eac;" horiz-adv-x="550" 
d="M31 0q-8 0 -10 7t1 27q7 45 21 108.5t33 134.5t40.5 142t44.5 132.5t44 102.5q6 9 10.5 14t11.5 5h95q8 -3 13 -6.5t10 -12.5q21 -41 44 -102.5t45 -132.5t41 -142.5t33 -135t20 -107.5q4 -20 2 -27t-11 -7h-103q-8 0 -11 4.5t-7 23.5q-4 23 -10.5 54.5t-11.5 55.5
q-1 7 -3 8.5t-9 1.5h-178q-7 -1 -8 -2t-3 -9q-5 -23 -11.5 -54.5t-11.5 -55.5q-3 -18 -6 -22.5t-11 -4.5h-104zM214 249h122q7 0 8.5 2.5t-0.5 9.5q-13 51 -28 106.5t-31 100.5q-2 9 -7 9h-7q-4 0 -7 -9q-8 -26 -18.5 -61t-20.5 -73t-19 -74q-1 -6 0 -8.5t8 -2.5zM326 -94
q0 -23 -10 -35.5t-40 -12.5t-41.5 12.5t-11.5 35.5q0 21 11.5 34.5t41.5 13.5q32 0 41 -13.5t9 -34.5zM159 714q-4 0 -5 3t1 6l80 87q5 6 10 6h59q6 0 11 -5l81 -88q2 -3 1.5 -6t-5.5 -3h-53q-7 0 -10.5 2t-8.5 5l-39 32q-5 4 -11 0l-41 -33q-3 -3 -6.5 -4.5t-8.5 -1.5h-55z
" />
    <glyph glyph-name="uni1EAD" unicode="&#x1ead;" horiz-adv-x="470" 
d="M230 -7q-51 0 -95.5 11.5t-72 44.5t-27.5 96q0 52 19.5 85.5t50 51.5t63.5 24.5t59 6.5q21 0 40.5 -1.5t36.5 -4.5q9 -3 9 13q0 37 -22.5 52t-62.5 15q-38 0 -72.5 -14t-58.5 -26q-11 -6 -14.5 -4t-5.5 13l-9 56q-2 13 0 17t11 10q26 17 66 27.5t85 10.5q68 0 109 -15.5
t61.5 -41.5t27 -59.5t6.5 -69.5q1 -42 0.5 -82.5t-2.5 -80.5t-6 -81q-2 -11 -6 -16.5t-16 -11.5q-14 -7 -37 -11.5t-49.5 -8t-49.5 -5t-38 -1.5zM238 70q8 0 18 1t20 4.5t16.5 8.5t7.5 13q3 24 5 53t0 56q0 13 -10 18q-10 7 -28.5 8.5t-30.5 1.5q-9 0 -22.5 -3.5
t-25.5 -12.5t-19.5 -27t-7.5 -46q0 -22 9 -39t26 -26.5t42 -9.5zM286 -94q0 -23 -10 -35.5t-40 -12.5t-41.5 12.5t-11.5 35.5q0 21 11.5 34.5t41.5 13.5q32 0 41 -13.5t9 -34.5zM136 525q-4 0 -5 3t1 6l77 100q3 3 8 3h54q5 0 8 -3l77 -100q2 -3 1.5 -6t-5.5 -3h-56
q-5 0 -8 4l-39 37q-5 4 -10 0l-39 -37q-3 -4 -8 -4h-56z" />
    <glyph glyph-name="uni1EAE" unicode="&#x1eae;" horiz-adv-x="550" 
d="M31 0q-8 0 -10 7t1 27q7 45 21 108.5t33 134.5t40.5 142t44.5 132.5t44 102.5q6 9 10.5 14t11.5 5h95q8 -3 13 -6.5t10 -12.5q21 -41 44 -102.5t45 -132.5t41 -142.5t33 -135t20 -107.5q4 -20 2 -27t-11 -7h-103q-8 0 -11 4.5t-7 23.5q-4 23 -10.5 54.5t-11.5 55.5
q-1 7 -3 8.5t-9 1.5h-178q-7 -1 -8 -2t-3 -9q-5 -23 -11.5 -54.5t-11.5 -55.5q-3 -18 -6 -22.5t-11 -4.5h-104zM214 249h122q7 0 8.5 2.5t-0.5 9.5q-13 51 -28 106.5t-31 100.5q-2 9 -7 9h-7q-4 0 -7 -9q-8 -26 -18.5 -61t-20.5 -73t-19 -74q-1 -6 0 -8.5t8 -2.5zM276 708
q-51 0 -78.5 23t-27.5 63q0 13 2 16t11 3h42q8 0 11 -1.5t3 -9.5q0 -16 10 -25t27 -9q15 0 26 9t11 25q0 8 3.5 9.5t6.5 1.5h46q7 0 9 -2t2 -17q0 -39 -26.5 -62.5t-77.5 -23.5zM278 855h-60q-7 0 -7.5 5t5.5 11l64 72q6 7 10 9.5t14 2.5h93q5 0 8 -5t-2 -8l-100 -75
q-8 -6 -13 -9t-12 -3z" />
    <glyph glyph-name="uni1EAF" unicode="&#x1eaf;" horiz-adv-x="470" 
d="M230 -7q-51 0 -95.5 11.5t-72 44.5t-27.5 96q0 52 19.5 85.5t50 51.5t63.5 24.5t59 6.5q21 0 40.5 -1.5t36.5 -4.5q9 -3 9 13q0 37 -22.5 52t-62.5 15q-38 0 -72.5 -14t-58.5 -26q-11 -6 -14.5 -4t-5.5 13l-9 56q-2 13 0 17t11 10q26 17 66 27.5t85 10.5q68 0 109 -15.5
t61.5 -41.5t27 -59.5t6.5 -69.5q1 -42 0.5 -82.5t-2.5 -80.5t-6 -81q-2 -11 -6 -16.5t-16 -11.5q-14 -7 -37 -11.5t-49.5 -8t-49.5 -5t-38 -1.5zM238 70q8 0 18 1t20 4.5t16.5 8.5t7.5 13q3 24 5 53t0 56q0 13 -10 18q-10 7 -28.5 8.5t-30.5 1.5q-9 0 -22.5 -3.5
t-25.5 -12.5t-19.5 -27t-7.5 -46q0 -22 9 -39t26 -26.5t42 -9.5zM245 520q-56 0 -86.5 24t-30.5 65q0 16 2 19t13 3h48q10 0 12.5 -1.5t2.5 -11.5q0 -14 11 -22.5t28 -8.5t28 8.5t11 23.5q0 8 3 10t9 2h53q9 0 10.5 -3.5t1.5 -18.5q0 -41 -29.5 -65t-86.5 -24zM196 654
q-9 0 -9.5 3.5t6.5 12.5l65 93q5 8 21 8h80q6 0 8 -3t-5 -10l-87 -97q-5 -6 -9 -6.5t-12 -0.5h-58z" />
    <glyph glyph-name="uni1EB0" unicode="&#x1eb0;" horiz-adv-x="550" 
d="M31 0q-8 0 -10 7t1 27q7 45 21 108.5t33 134.5t40.5 142t44.5 132.5t44 102.5q6 9 10.5 14t11.5 5h95q8 -3 13 -6.5t10 -12.5q21 -41 44 -102.5t45 -132.5t41 -142.5t33 -135t20 -107.5q4 -20 2 -27t-11 -7h-103q-8 0 -11 4.5t-7 23.5q-4 23 -10.5 54.5t-11.5 55.5
q-1 7 -3 8.5t-9 1.5h-178q-7 -1 -8 -2t-3 -9q-5 -23 -11.5 -54.5t-11.5 -55.5q-3 -18 -6 -22.5t-11 -4.5h-104zM214 249h122q7 0 8.5 2.5t-0.5 9.5q-13 51 -28 106.5t-31 100.5q-2 9 -7 9h-7q-4 0 -7 -9q-8 -26 -18.5 -61t-20.5 -73t-19 -74q-1 -6 0 -8.5t8 -2.5zM276 708
q-51 0 -78.5 23t-27.5 63q0 13 2 16t11 3h42q8 0 11 -1.5t3 -9.5q0 -16 10 -25t27 -9q15 0 26 9t11 25q0 8 3.5 9.5t6.5 1.5h46q7 0 9 -2t2 -17q0 -39 -26.5 -62.5t-77.5 -23.5zM271 855q-7 0 -12 3t-13 9l-100 75q-4 3 -1 8t7 5h93q10 0 14 -2.5t10 -9.5l64 -72
q6 -6 5.5 -11t-7.5 -5h-60z" />
    <glyph glyph-name="uni1EB1" unicode="&#x1eb1;" horiz-adv-x="470" 
d="M230 -7q-51 0 -95.5 11.5t-72 44.5t-27.5 96q0 52 19.5 85.5t50 51.5t63.5 24.5t59 6.5q21 0 40.5 -1.5t36.5 -4.5q9 -3 9 13q0 37 -22.5 52t-62.5 15q-38 0 -72.5 -14t-58.5 -26q-11 -6 -14.5 -4t-5.5 13l-9 56q-2 13 0 17t11 10q26 17 66 27.5t85 10.5q68 0 109 -15.5
t61.5 -41.5t27 -59.5t6.5 -69.5q1 -42 0.5 -82.5t-2.5 -80.5t-6 -81q-2 -11 -6 -16.5t-16 -11.5q-14 -7 -37 -11.5t-49.5 -8t-49.5 -5t-38 -1.5zM238 70q8 0 18 1t20 4.5t16.5 8.5t7.5 13q3 24 5 53t0 56q0 13 -10 18q-10 7 -28.5 8.5t-30.5 1.5q-9 0 -22.5 -3.5
t-25.5 -12.5t-19.5 -27t-7.5 -46q0 -22 9 -39t26 -26.5t42 -9.5zM245 520q-56 0 -86.5 24t-30.5 65q0 16 2 19t13 3h48q10 0 12.5 -1.5t2.5 -11.5q0 -14 11 -22.5t28 -8.5t28 8.5t11 23.5q0 8 3 10t9 2h53q9 0 10.5 -3.5t1.5 -18.5q0 -41 -29.5 -65t-86.5 -24zM237 655
q-13 0 -25 12l-88 91q-4 4 -1 9t7 5h93q10 0 15 -3t9 -10l52 -88q9 -16 -2 -16h-60z" />
    <glyph glyph-name="uni1EB2" unicode="&#x1eb2;" horiz-adv-x="550" 
d="M31 0q-8 0 -10 7t1 27q7 45 21 108.5t33 134.5t40.5 142t44.5 132.5t44 102.5q6 9 10.5 14t11.5 5h95q8 -3 13 -6.5t10 -12.5q21 -41 44 -102.5t45 -132.5t41 -142.5t33 -135t20 -107.5q4 -20 2 -27t-11 -7h-103q-8 0 -11 4.5t-7 23.5q-4 23 -10.5 54.5t-11.5 55.5
q-1 7 -3 8.5t-9 1.5h-178q-7 -1 -8 -2t-3 -9q-5 -23 -11.5 -54.5t-11.5 -55.5q-3 -18 -6 -22.5t-11 -4.5h-104zM214 249h122q7 0 8.5 2.5t-0.5 9.5q-13 51 -28 106.5t-31 100.5q-2 9 -7 9h-7q-4 0 -7 -9q-8 -26 -18.5 -61t-20.5 -73t-19 -74q-1 -6 0 -8.5t8 -2.5zM276 708
q-51 0 -78.5 23t-27.5 63q0 13 2 16t11 3h42q8 0 11 -1.5t3 -9.5q0 -16 10 -25t27 -9q15 0 26 9t11 25q0 8 3.5 9.5t6.5 1.5h46q7 0 9 -2t2 -17q0 -39 -26.5 -62.5t-77.5 -23.5zM249 848q-2 0 -5 2.5t-3 5.5q0 14 5.5 22.5t10.5 12.5q8 8 16.5 14.5t8.5 16.5q0 13 -17 13
q-8 0 -14.5 -2.5t-16.5 -9.5q-7 -5 -12 2l-23 31q-3 3 -2.5 6t4.5 5q10 9 33 18t49 9q33 0 52 -18.5t19 -50.5q0 -26 -12.5 -37t-21.5 -17q-5 -3 -8.5 -6t-3.5 -9q0 -8 -9 -8h-50z" />
    <glyph glyph-name="uni1EB3" unicode="&#x1eb3;" horiz-adv-x="470" 
d="M230 -7q-51 0 -95.5 11.5t-72 44.5t-27.5 96q0 52 19.5 85.5t50 51.5t63.5 24.5t59 6.5q21 0 40.5 -1.5t36.5 -4.5q9 -3 9 13q0 37 -22.5 52t-62.5 15q-38 0 -72.5 -14t-58.5 -26q-11 -6 -14.5 -4t-5.5 13l-9 56q-2 13 0 17t11 10q26 17 66 27.5t85 10.5q68 0 109 -15.5
t61.5 -41.5t27 -59.5t6.5 -69.5q1 -42 0.5 -82.5t-2.5 -80.5t-6 -81q-2 -11 -6 -16.5t-16 -11.5q-14 -7 -37 -11.5t-49.5 -8t-49.5 -5t-38 -1.5zM238 70q8 0 18 1t20 4.5t16.5 8.5t7.5 13q3 24 5 53t0 56q0 13 -10 18q-10 7 -28.5 8.5t-30.5 1.5q-9 0 -22.5 -3.5
t-25.5 -12.5t-19.5 -27t-7.5 -46q0 -22 9 -39t26 -26.5t42 -9.5zM245 520q-56 0 -86.5 24t-30.5 65q0 16 2 19t13 3h48q10 0 12.5 -1.5t2.5 -11.5q0 -14 11 -22.5t28 -8.5t28 8.5t11 23.5q0 8 3 10t9 2h53q9 0 10.5 -3.5t1.5 -18.5q0 -41 -29.5 -65t-86.5 -24zM219 648
q-2 0 -5 2.5t-3 5.5q0 14 5.5 22.5t10.5 13.5q8 8 16 14t8 16q0 13 -15 13q-8 0 -15 -2t-16 -9q-8 -6 -12 1l-24 31q-6 7 2 11q10 10 33 19t49 9q34 0 53 -19t19 -50q0 -27 -12.5 -38t-21.5 -16q-6 -3 -9 -6.5t-3 -9.5q0 -8 -9 -8h-51z" />
    <glyph glyph-name="uni1EB4" unicode="&#x1eb4;" horiz-adv-x="550" 
d="M31 0q-8 0 -10 7t1 27q7 45 21 108.5t33 134.5t40.5 142t44.5 132.5t44 102.5q6 9 10.5 14t11.5 5h95q8 -3 13 -6.5t10 -12.5q21 -41 44 -102.5t45 -132.5t41 -142.5t33 -135t20 -107.5q4 -20 2 -27t-11 -7h-103q-8 0 -11 4.5t-7 23.5q-4 23 -10.5 54.5t-11.5 55.5
q-1 7 -3 8.5t-9 1.5h-178q-7 -1 -8 -2t-3 -9q-5 -23 -11.5 -54.5t-11.5 -55.5q-3 -18 -6 -22.5t-11 -4.5h-104zM214 249h122q7 0 8.5 2.5t-0.5 9.5q-13 51 -28 106.5t-31 100.5q-2 9 -7 9h-7q-4 0 -7 -9q-8 -26 -18.5 -61t-20.5 -73t-19 -74q-1 -6 0 -8.5t8 -2.5zM276 708
q-51 0 -78.5 23t-27.5 63q0 13 2 16t11 3h42q8 0 11 -1.5t3 -9.5q0 -16 10 -25t27 -9q15 0 26 9t11 25q0 8 3.5 9.5t6.5 1.5h46q7 0 9 -2t2 -17q0 -39 -26.5 -62.5t-77.5 -23.5zM170 856q-6 0 -6 6q0 41 18 65t53 24q16 0 31 -9.5t27.5 -19t18.5 -9.5q5 0 9 5.5t4 15.5
q0 8 5 8h51q6 0 6 -7q0 -36 -20 -61.5t-52 -25.5q-21 0 -35.5 9t-24.5 18t-18 9q-7 0 -10 -5t-3 -16q0 -7 -5 -7h-49z" />
    <glyph glyph-name="uni1EB5" unicode="&#x1eb5;" horiz-adv-x="470" 
d="M230 -7q-51 0 -95.5 11.5t-72 44.5t-27.5 96q0 52 19.5 85.5t50 51.5t63.5 24.5t59 6.5q21 0 40.5 -1.5t36.5 -4.5q9 -3 9 13q0 37 -22.5 52t-62.5 15q-38 0 -72.5 -14t-58.5 -26q-11 -6 -14.5 -4t-5.5 13l-9 56q-2 13 0 17t11 10q26 17 66 27.5t85 10.5q68 0 109 -15.5
t61.5 -41.5t27 -59.5t6.5 -69.5q1 -42 0.5 -82.5t-2.5 -80.5t-6 -81q-2 -11 -6 -16.5t-16 -11.5q-14 -7 -37 -11.5t-49.5 -8t-49.5 -5t-38 -1.5zM238 70q8 0 18 1t20 4.5t16.5 8.5t7.5 13q3 24 5 53t0 56q0 13 -10 18q-10 7 -28.5 8.5t-30.5 1.5q-9 0 -22.5 -3.5
t-25.5 -12.5t-19.5 -27t-7.5 -46q0 -22 9 -39t26 -26.5t42 -9.5zM245 520q-56 0 -86.5 24t-30.5 65q0 16 2 19t13 3h48q10 0 12.5 -1.5t2.5 -11.5q0 -14 11 -22.5t28 -8.5t28 8.5t11 23.5q0 8 3 10t9 2h53q9 0 10.5 -3.5t1.5 -18.5q0 -41 -29.5 -65t-86.5 -24zM139 657
q-6 0 -6 6q0 38 18.5 60t52.5 22q17 0 32 -8t28 -16.5t19 -8.5t10 4.5t4 13.5q0 7 5 7h50q6 0 6 -6q0 -34 -20 -57.5t-52 -23.5q-21 0 -36 8t-25 16t-19 8q-7 0 -10 -4.5t-3 -13.5q0 -7 -6 -7h-48z" />
    <glyph glyph-name="uni1EB6" unicode="&#x1eb6;" horiz-adv-x="550" 
d="M31 0q-8 0 -10 7t1 27q7 45 21 108.5t33 134.5t40.5 142t44.5 132.5t44 102.5q6 9 10.5 14t11.5 5h95q8 -3 13 -6.5t10 -12.5q21 -41 44 -102.5t45 -132.5t41 -142.5t33 -135t20 -107.5q4 -20 2 -27t-11 -7h-103q-8 0 -11 4.5t-7 23.5q-4 23 -10.5 54.5t-11.5 55.5
q-1 7 -3 8.5t-9 1.5h-178q-7 -1 -8 -2t-3 -9q-5 -23 -11.5 -54.5t-11.5 -55.5q-3 -18 -6 -22.5t-11 -4.5h-104zM214 249h122q7 0 8.5 2.5t-0.5 9.5q-13 51 -28 106.5t-31 100.5q-2 9 -7 9h-7q-4 0 -7 -9q-8 -26 -18.5 -61t-20.5 -73t-19 -74q-1 -6 0 -8.5t8 -2.5zM326 -94
q0 -23 -10 -35.5t-40 -12.5t-41.5 12.5t-11.5 35.5q0 21 11.5 34.5t41.5 13.5q32 0 41 -13.5t9 -34.5zM276 708q-51 0 -78.5 23t-27.5 63q0 13 2 16t11 3h42q8 0 11 -1.5t3 -9.5q0 -16 10 -25t27 -9q15 0 26 9t11 25q0 8 3.5 9.5t6.5 1.5h46q7 0 9 -2t2 -17
q0 -39 -26.5 -62.5t-77.5 -23.5z" />
    <glyph glyph-name="uni1EB7" unicode="&#x1eb7;" horiz-adv-x="470" 
d="M230 -7q-51 0 -95.5 11.5t-72 44.5t-27.5 96q0 52 19.5 85.5t50 51.5t63.5 24.5t59 6.5q21 0 40.5 -1.5t36.5 -4.5q9 -3 9 13q0 37 -22.5 52t-62.5 15q-38 0 -72.5 -14t-58.5 -26q-11 -6 -14.5 -4t-5.5 13l-9 56q-2 13 0 17t11 10q26 17 66 27.5t85 10.5q68 0 109 -15.5
t61.5 -41.5t27 -59.5t6.5 -69.5q1 -42 0.5 -82.5t-2.5 -80.5t-6 -81q-2 -11 -6 -16.5t-16 -11.5q-14 -7 -37 -11.5t-49.5 -8t-49.5 -5t-38 -1.5zM238 70q8 0 18 1t20 4.5t16.5 8.5t7.5 13q3 24 5 53t0 56q0 13 -10 18q-10 7 -28.5 8.5t-30.5 1.5q-9 0 -22.5 -3.5
t-25.5 -12.5t-19.5 -27t-7.5 -46q0 -22 9 -39t26 -26.5t42 -9.5zM286 -94q0 -23 -10 -35.5t-40 -12.5t-41.5 12.5t-11.5 35.5q0 21 11.5 34.5t41.5 13.5q32 0 41 -13.5t9 -34.5zM245 520q-56 0 -86.5 24t-30.5 65q0 16 2 19t13 3h48q10 0 12.5 -1.5t2.5 -11.5
q0 -14 11 -22.5t28 -8.5t28 8.5t11 23.5q0 8 3 10t9 2h53q9 0 10.5 -3.5t1.5 -18.5q0 -41 -29.5 -65t-86.5 -24z" />
    <glyph glyph-name="uni1EB8" unicode="&#x1eb8;" horiz-adv-x="455" 
d="M78 0q-13 0 -13 12v648q0 13 13 13h334q12 0 14 -2t2 -13v-70q0 -12 -3 -14.5t-13 -2.5h-206q-7 0 -8 -1t-1 -7v-165q0 -6 1.5 -7.5t6.5 -1.5h162q13 0 15 -2.5t2 -16.5v-63q0 -13 -2.5 -15.5t-14.5 -2.5h-162q-5 0 -6.5 -1t-1.5 -6v-171q0 -6 1 -7.5t7 -1.5h205
q14 0 16 -3t2 -16v-64q0 -14 -3 -16.5t-16 -2.5h-331zM293 -94q0 -23 -10 -35.5t-40 -12.5t-41.5 12.5t-11.5 35.5q0 21 11.5 34.5t41.5 13.5q32 0 41 -13.5t9 -34.5z" />
    <glyph glyph-name="uni1EB9" unicode="&#x1eb9;" horiz-adv-x="471" 
d="M32 237q0 47 10 90t33.5 78t65 55t104.5 20q66 0 105 -18.5t59 -49.5t26.5 -67.5t6.5 -72.5q0 -42 -9.5 -55.5t-29.5 -13.5h-232q-6 0 -7.5 -2.5t-1.5 -9.5q0 -30 13.5 -54.5t39.5 -38.5t61 -14q33 0 63 10.5t44 18.5q12 7 19 8.5t15 -14.5l21 -42q6 -11 3 -15.5
t-13 -11.5q-35 -24 -84 -35t-98 -11q-65 0 -107 19t-65 53t-32.5 78.5t-9.5 94.5zM313 293q0 28 -7 48t-22.5 31t-41.5 11q-21 0 -35.5 -8t-23.5 -21t-14 -28.5t-7 -29.5q-1 -16 0 -19.5t8 -3.5h131q9 0 11 3t1 17zM289 -94q0 -23 -10 -35.5t-40 -12.5t-41.5 12.5
t-11.5 35.5q0 21 11.5 34.5t41.5 13.5q32 0 41 -13.5t9 -34.5z" />
    <glyph glyph-name="uni1EBA" unicode="&#x1eba;" horiz-adv-x="455" 
d="M78 0q-13 0 -13 12v648q0 13 13 13h334q12 0 14 -2t2 -13v-70q0 -12 -3 -14.5t-13 -2.5h-206q-7 0 -8 -1t-1 -7v-165q0 -6 1.5 -7.5t6.5 -1.5h162q13 0 15 -2.5t2 -16.5v-63q0 -13 -2.5 -15.5t-14.5 -2.5h-162q-5 0 -6.5 -1t-1.5 -6v-171q0 -6 1 -7.5t7 -1.5h205
q14 0 16 -3t2 -16v-64q0 -14 -3 -16.5t-16 -2.5h-331zM215 709q-2 0 -5 2.5t-3 5.5q0 14 5.5 22.5t10.5 12.5q8 8 16.5 14.5t8.5 16.5q0 13 -17 13q-8 0 -14.5 -2.5t-16.5 -9.5q-7 -5 -12 2l-23 31q-3 3 -2.5 6t4.5 5q10 9 33 18t49 9q33 0 52 -18.5t19 -50.5
q0 -26 -12.5 -37t-21.5 -17q-5 -3 -8.5 -6t-3.5 -9q0 -8 -9 -8h-50z" />
    <glyph glyph-name="uni1EBB" unicode="&#x1ebb;" horiz-adv-x="471" 
d="M32 237q0 47 10 90t33.5 78t65 55t104.5 20q66 0 105 -18.5t59 -49.5t26.5 -67.5t6.5 -72.5q0 -42 -9.5 -55.5t-29.5 -13.5h-232q-6 0 -7.5 -2.5t-1.5 -9.5q0 -30 13.5 -54.5t39.5 -38.5t61 -14q33 0 63 10.5t44 18.5q12 7 19 8.5t15 -14.5l21 -42q6 -11 3 -15.5
t-13 -11.5q-35 -24 -84 -35t-98 -11q-65 0 -107 19t-65 53t-32.5 78.5t-9.5 94.5zM313 293q0 28 -7 48t-22.5 31t-41.5 11q-21 0 -35.5 -8t-23.5 -21t-14 -28.5t-7 -29.5q-1 -16 0 -19.5t8 -3.5h131q9 0 11 3t1 17zM221 519q-2 0 -5 2.5t-3 5.5q0 14 5.5 22.5t10.5 13.5
q8 8 16 14t8 16q0 13 -15 13q-8 0 -15 -2t-16 -9q-8 -6 -12 1l-24 31q-6 7 2 11q10 10 33 19t49 9q34 0 53 -19t19 -50q0 -27 -12.5 -38t-21.5 -16q-6 -3 -9 -6.5t-3 -9.5q0 -8 -9 -8h-51z" />
    <glyph glyph-name="uni1EBC" unicode="&#x1ebc;" horiz-adv-x="455" 
d="M78 0q-13 0 -13 12v648q0 13 13 13h334q12 0 14 -2t2 -13v-70q0 -12 -3 -14.5t-13 -2.5h-206q-7 0 -8 -1t-1 -7v-165q0 -6 1.5 -7.5t6.5 -1.5h162q13 0 15 -2.5t2 -16.5v-63q0 -13 -2.5 -15.5t-14.5 -2.5h-162q-5 0 -6.5 -1t-1.5 -6v-171q0 -6 1 -7.5t7 -1.5h205
q14 0 16 -3t2 -16v-64q0 -14 -3 -16.5t-16 -2.5h-331zM136 717q-6 0 -6 6q0 41 18 65t53 24q16 0 31 -9.5t27.5 -19t18.5 -9.5q5 0 9 5.5t4 15.5q0 8 5 8h51q6 0 6 -7q0 -36 -20 -61.5t-52 -25.5q-21 0 -35.5 9t-24.5 18t-18 9q-7 0 -10 -5t-3 -16q0 -7 -5 -7h-49z" />
    <glyph glyph-name="uni1EBD" unicode="&#x1ebd;" horiz-adv-x="471" 
d="M32 237q0 47 10 90t33.5 78t65 55t104.5 20q66 0 105 -18.5t59 -49.5t26.5 -67.5t6.5 -72.5q0 -42 -9.5 -55.5t-29.5 -13.5h-232q-6 0 -7.5 -2.5t-1.5 -9.5q0 -30 13.5 -54.5t39.5 -38.5t61 -14q33 0 63 10.5t44 18.5q12 7 19 8.5t15 -14.5l21 -42q6 -11 3 -15.5
t-13 -11.5q-35 -24 -84 -35t-98 -11q-65 0 -107 19t-65 53t-32.5 78.5t-9.5 94.5zM313 293q0 28 -7 48t-22.5 31t-41.5 11q-21 0 -35.5 -8t-23.5 -21t-14 -28.5t-7 -29.5q-1 -16 0 -19.5t8 -3.5h131q9 0 11 3t1 17zM140 527q-6 0 -6 6q0 38 18.5 60t52.5 22q17 0 32 -8
t28 -16.5t19 -8.5t10 4.5t4 13.5q0 7 5 7h50q6 0 6 -6q0 -34 -20 -57.5t-52 -23.5q-21 0 -36 8t-25 16t-19 8q-7 0 -10 -4.5t-3 -13.5q0 -7 -6 -7h-48z" />
    </font>
</defs>
</svg>
