<?xml version="1.0" standalone="no"?>
<!DOCTYPE svg PUBLIC "-//W3C//DTD SVG 1.1//EN" "http://www.w3.org/Graphics/SVG/1.1/DTD/svg11.dtd" >
<svg xmlns="http://www.w3.org/2000/svg" xmlns:xlink="http://www.w3.org/1999/xlink" version="1.1">
<metadata>
Created by FontForge 20201107 at Fri Jun 18 05:32:25 2021
 By 
Copyright 2016-2020 The Glory Project Authors (https://github.com/googlefonts/glory)
</metadata>
<defs>
<font id="Glory-Regular" horiz-adv-x="0" >
  <font-face 
    font-family="Glory"
    font-weight="400"
    font-stretch="normal"
    units-per-em="1000"
    panose-1="0 0 0 0 0 0 0 0 0 0"
    ascent="800"
    descent="-200"
    x-height="472"
    cap-height="673"
    bbox="-93.4545 -242 1043 975"
    underline-thickness="50"
    underline-position="-125"
    unicode-range="U+000D-FB02"
  />
<missing-glyph horiz-adv-x="600" 
d="M98 0q-4 0 -4 4q-4 33 -7 85.5t-5 115.5t-2 129q0 67 2 131.5t5.5 118t7.5 85.5q0 4 4 4h402q4 0 4 -4q4 -32 7.5 -85.5t5.5 -118t2 -131.5q0 -66 -2 -129t-5 -115.5t-7 -85.5q0 -4 -4 -4h-404zM124 30h352q5 42 7 96.5t3 110t1 100.5q0 79 -4 158t-9 148h-348
q-6 -85 -9.5 -162.5t-3.5 -145.5q0 -47 0.5 -101t3 -107t7.5 -97zM170 80q-6 0 -5.5 2.5t1.5 3.5l231 502q3 6 9 6h19q8 0 2 -7l-229 -499q-4 -8 -11 -8h-17zM424 80h-17q-8 0 -11 8l-229 499q-6 7 2 7h19q6 0 9 -6l231 -502q1 -1 1.5 -3.5t-5.5 -2.5z" />
    <glyph glyph-name="fi" unicode="fi" horiz-adv-x="541" 
d="M103 8q-3 35 -5.5 83t-4 102.5t-2.5 109.5t-1 104q0 9 -8 9h-59q-4 0 -5.5 2t-1.5 6v40q0 4 1.5 6t6.5 2h58q5 0 6.5 1.5t1.5 7.5q-1 49 3.5 90t27.5 75q23 33 64 49.5t100 16.5q29 0 53.5 -8.5t33.5 -13.5q7 -4 8.5 -6.5t0.5 -6.5l-10 -32q-1 -5 -3 -6t-6 1
q-12 7 -31.5 12t-46.5 4q-45 0 -73.5 -15.5t-37.5 -55.5q-8 -25 -10 -51t-2 -53q0 -5 2 -7t6 -2h150q4 0 5.5 -1.5t1.5 -7.5v-39q0 -3 -2 -5.5t-6 -2.5h-148q-4 0 -6.5 -2t-2.5 -7q0 -47 1 -104t3 -114t4 -104.5t4 -77.5q0 -4 -1 -6t-5 -2h-57q-2 0 -4 2t-3 7zM482 602
q0 -18 -7.5 -27.5t-32.5 -9.5q-24 0 -32.5 9.5t-8.5 27.5q0 17 8.5 26.5t32.5 9.5q26 0 33 -9.5t7 -26.5zM478 7q0 -7 -8 -7h-56q-7 0 -7 7v458q0 7 7 7h56q8 0 8 -7v-458z" />
    <glyph glyph-name="fl" unicode="fl" horiz-adv-x="543" 
d="M103 8q-3 35 -5.5 83t-4 102.5t-2.5 109.5t-1 104q0 9 -8 9h-59q-4 0 -5.5 2t-1.5 6v40q0 4 1.5 6t6.5 2h58q5 0 6.5 1.5t1.5 7.5q-1 49 3.5 90t27.5 75q23 33 64 49.5t100 16.5q29 0 53.5 -8.5t33.5 -13.5q7 -4 8.5 -6.5t0.5 -6.5l-10 -32q-1 -5 -3 -6t-6 1
q-12 7 -31.5 12t-46.5 4q-45 0 -73.5 -15.5t-37.5 -55.5q-8 -25 -10 -51t-2 -53q0 -5 2 -7t6 -2h150q4 0 5.5 -1.5t1.5 -7.5v-39q0 -3 -2 -5.5t-6 -2.5h-148q-4 0 -6.5 -2t-2.5 -7q0 -47 1 -104t3 -114t4 -104.5t4 -77.5q0 -4 -1 -6t-5 -2h-57q-2 0 -4 2t-3 7zM406 7v694
q0 7 7 7h56q8 0 8 -7v-694q0 -7 -8 -7h-56q-7 0 -7 7z" />
    <glyph glyph-name=".notdef" horiz-adv-x="600" 
d="M98 0q-4 0 -4 4q-4 33 -7 85.5t-5 115.5t-2 129q0 67 2 131.5t5.5 118t7.5 85.5q0 4 4 4h402q4 0 4 -4q4 -32 7.5 -85.5t5.5 -118t2 -131.5q0 -66 -2 -129t-5 -115.5t-7 -85.5q0 -4 -4 -4h-404zM124 30h352q5 42 7 96.5t3 110t1 100.5q0 79 -4 158t-9 148h-348
q-6 -85 -9.5 -162.5t-3.5 -145.5q0 -47 0.5 -101t3 -107t7.5 -97zM170 80q-6 0 -5.5 2.5t1.5 3.5l231 502q3 6 9 6h19q8 0 2 -7l-229 -499q-4 -8 -11 -8h-17zM424 80h-17q-8 0 -11 8l-229 499q-6 7 2 7h19q6 0 9 -6l231 -502q1 -1 1.5 -3.5t-5.5 -2.5z" />
    <glyph glyph-name=".null" 
 />
    <glyph glyph-name="nonmarkingreturn" horiz-adv-x="333" 
 />
    <glyph glyph-name="CR" unicode="&#xd;" horiz-adv-x="600" 
 />
    <glyph glyph-name="space" unicode=" " horiz-adv-x="242" 
 />
    <glyph glyph-name="exclam" unicode="!" horiz-adv-x="234" 
d="M94 226q-4 0 -5 1.5t-1 6.5l-9 431q0 4 1.5 6t5.5 2h64q7 0 7 -7l-9 -432q-1 -5 -2.5 -6.5t-6.5 -1.5h-45zM155 26q0 -17 -7.5 -26t-32.5 -9q-21 0 -30.5 9t-9.5 26t9.5 25.5t30.5 8.5q25 0 32.5 -8.5t7.5 -25.5z" />
    <glyph glyph-name="quotedbl" unicode="&#x22;" horiz-adv-x="352" 
d="M77 462q-3 0 -5 2t-2 8l-3 224q-1 7 1 9t8 2h44q7 0 8 -2t1 -7l-4 -228q-1 -5 -2.5 -6.5t-6.5 -1.5h-39zM232 462q-3 0 -4.5 2t-1.5 8l-4 224q-1 7 1.5 9t7.5 2h44q7 0 8.5 -2t1.5 -7l-4 -228q0 -5 -2.5 -6.5t-6.5 -1.5h-40z" />
    <glyph glyph-name="numbersign" unicode="#" horiz-adv-x="710" 
d="M198 224h-148q-6 0 -8 2t-2 8l4 34q0 5 2.5 7t7.5 2h147l10 151h-144q-4 0 -6.5 1t-2.5 7l4 35q1 5 3 7t7 2h142l15 218q1 5 3 7t7 2h40q5 0 6.5 -2t-0.5 -8l-15 -217l167 -1l15 219q1 5 3 7t7 2h40q5 0 6.5 -2t-0.5 -8l-15 -218h165q8 1 10 -1.5t1 -6.5l-3 -36
q0 -4 -3 -5.5t-6 -1.5h-167l-10 -151h159q8 0 10.5 -2t2.5 -7l-4 -36q0 -4 -3 -6t-6 -2h-162l-14 -216q0 -3 -1.5 -5.5t-6.5 -2.5h-40q-4 0 -6 2.5t-2 9.5l14 212h-167l-14 -216q0 -3 -1.5 -5.5t-6.5 -2.5h-40q-4 0 -6 2.5t-2 9.5zM257 277h167l10 151h-167z" />
    <glyph glyph-name="dollar" unicode="$" horiz-adv-x="472" 
d="M162 36q-17 3 -41 10.5t-42 15.5q-10 6 -15.5 10.5t-5.5 12.5v27.5v27.5q0 4 3 4.5t8 -1.5t10 -6q31 -20 63 -30t62 -10q47 0 82 25.5t35 74.5q0 31 -15 52t-41 37t-60 31q-35 17 -68.5 36.5t-55 51.5t-21.5 82q0 49 22 82t58.5 49.5t80.5 16.5h15h14l20 102q0 4 1.5 6
t7.5 2h40q6 0 7 -2.5t0 -6.5l-21 -111q27 -6 52 -18.5t49 -29.5q5 -3 7 -5.5t-1 -6.5q-4 -9 -10.5 -23t-12.5 -21q-3 -3 -6 -1.5t-10 5.5q-13 8 -36.5 19t-51 19.5t-53.5 8.5q-43 0 -73 -21.5t-30 -66.5q0 -28 16 -47t42 -34t57 -30q36 -17 69.5 -38.5t55.5 -53t22 -82.5
q0 -49 -24 -86.5t-63 -58.5t-87 -23l-24 -158q-1 -5 -3 -6t-7 -1h-41q-3 0 -4.5 2t-0.5 10z" />
    <glyph glyph-name="percent" unicode="%" horiz-adv-x="789" 
d="M165 0q-4 0 -5 2.5t1 5.5l392 693q2 4 4 5t5 1h53q4 0 5 -2t-5 -11l-385 -686q-2 -4 -4.5 -6t-7.5 -2h-53zM209 420q-77 0 -109.5 40.5t-32.5 104.5q0 63 32.5 103.5t109.5 40.5t110.5 -40.5t33.5 -103.5q0 -64 -33.5 -104.5t-110.5 -40.5zM209 467q48 0 69 26t21 72
q0 47 -21 72t-69 25q-47 0 -68.5 -24.5t-21.5 -72.5q0 -46 21.5 -72t68.5 -26zM579 0q-77 0 -109.5 40.5t-32.5 103.5q0 64 32.5 104.5t109.5 40.5t110.5 -40.5t33.5 -104.5q0 -63 -33.5 -103.5t-110.5 -40.5zM579 47q48 0 69 25.5t21 71.5q0 47 -21 72.5t-69 25.5
q-46 0 -68 -25t-22 -73q0 -46 22 -71.5t68 -25.5z" />
    <glyph glyph-name="ampersand" unicode="&#x26;" horiz-adv-x="689" 
d="M270 -7q-63 0 -108 17.5t-73.5 47t-42 65t-13.5 71.5q0 42 15 78t42 63t64 38q-20 10 -35.5 26.5t-25.5 36.5t-14.5 40t-4.5 35q0 26 10 54.5t33.5 54t63 41t95.5 15.5q51 0 101 -24.5t87 -81.5q5 -8 3.5 -12t-4.5 -7l-35 -27q-8 -5 -15 5q-23 36 -59 60.5t-82 24.5
q-36 0 -64.5 -13t-46 -37t-17.5 -60q0 -21 10.5 -43t30 -37t45.5 -19q3 -1 14 -1.5t22.5 -0.5h13.5q9 0 12.5 -1t3.5 -6v-49q0 -6 -2.5 -7t-6.5 -1h-56q-36 0 -63 -19.5t-41.5 -51t-14.5 -66.5t16.5 -68t52.5 -54.5t96 -21.5q52 0 94.5 28t74 72.5t49.5 92.5l-85 47
q-3 1 -4 3.5t3 7.5l24 41q3 6 6 7t6 -1l189 -101q5 -2 5 -5t-3 -7l-23 -42q-3 -5 -5.5 -6t-7.5 1l-50 27q-16 -43 -41.5 -84t-60 -74t-79 -52.5t-99.5 -19.5z" />
    <glyph glyph-name="quotesingle" unicode="'" horiz-adv-x="170" 
d="M64 462q-3 0 -5 2t-2 8l-4 224q0 7 2 9t8 2h44q7 0 8 -2t1 -7l-4 -228q-1 -5 -2.5 -6.5t-6.5 -1.5h-39z" />
    <glyph glyph-name="parenleft" unicode="(" horiz-adv-x="369" 
d="M303 -76q0 -5 -2.5 -6t-13.5 -1q-72 1 -125.5 52t-82.5 142t-29 210q0 47 9 99t28 102t47 90.5t66 64.5t87 24q11 0 13.5 -1.5t2.5 -5.5v-38q0 -4 -3 -4.5t-11 -0.5q-36 0 -64.5 -21t-49 -56.5t-33.5 -78.5t-19.5 -88.5t-6.5 -84.5q0 -60 7.5 -113t22 -97t35.5 -76
t48.5 -49.5t60.5 -18.5q9 0 11 -2t2 -6v-36z" />
    <glyph glyph-name="parenright" unicode=")" horiz-adv-x="369" 
d="M67 -76v36q0 4 2 6t10 2q33 1 60.5 18.5t48.5 49.5t35.5 76t22 97t7.5 113q0 39 -6 84.5t-19.5 88.5t-34 78.5t-48.5 56.5t-65 21q-7 0 -10 0.5t-3 4.5v38q0 4 2.5 5.5t12.5 1.5q49 0 87 -24t66.5 -64.5t47 -90.5t27.5 -102t9 -99q0 -119 -29 -210t-82 -142t-126 -52
q-10 0 -12.5 1t-2.5 6z" />
    <glyph glyph-name="asterisk" unicode="*" horiz-adv-x="546" 
d="M273 433l-109 -150q-3 -4 -6 -5t-7 1l-32 26q-4 4 -5 7t4 7l111 145l-174 56q-10 3 -8 10l14 40q2 5 4.5 6.5t7.5 -0.5l173 -62l-3 183q0 6 1.5 8t6.5 2h42q5 0 7 -2t2 -8l-3 -183l173 61q6 3 8 1.5t4 -6.5l13 -40q3 -8 -8 -11l-174 -55l112 -145q4 -4 3.5 -7t-4.5 -7
l-33 -26q-3 -3 -6 -2t-7 6z" />
    <glyph glyph-name="plus" unicode="+" horiz-adv-x="475" 
d="M216 113q-5 0 -6.5 1.5t-1.5 5.5v157h-151q-5 0 -6 2t-1 5v40q0 4 1.5 5.5t5.5 1.5h151v157q0 4 1.5 5.5t5.5 1.5h42q3 0 4.5 -1.5t1.5 -5.5v-157l155 -1q4 0 5.5 -1.5t1.5 -5.5v-40q0 -3 -1.5 -4.5t-5.5 -1.5h-155v-158q0 -4 -2 -5t-5 -1h-40z" />
    <glyph glyph-name="comma" unicode="," horiz-adv-x="205" 
d="M145 24q0 -15 -7 -38.5t-17.5 -46.5t-19.5 -38q-2 -4 -6 -5h-14h-16q-2 1 -2 3t3 7q4 9 9.5 24.5t11.5 32t8 28.5q-16 1 -22 10.5t-6 22.5q0 16 8 25.5t30 9.5q19 0 29.5 -7.5t10.5 -27.5z" />
    <glyph glyph-name="hyphen" unicode="-" horiz-adv-x="413" 
d="M74 251q-5 0 -6 2t-1 5v40q0 4 1 5.5t6 1.5h266q4 0 5.5 -1t1.5 -6v-41q0 -3 -1 -4.5t-6 -1.5h-266z" />
    <glyph glyph-name="period" unicode="." horiz-adv-x="175" 
d="M128 25q0 -18 -7.5 -26.5t-33.5 -8.5q-22 0 -31 8.5t-9 26.5q0 17 9 25.5t31 8.5q26 0 33.5 -8.5t7.5 -25.5z" />
    <glyph glyph-name="slash" unicode="/" horiz-adv-x="544" 
d="M110 8q-2 -4 -5 -6t-8 -2h-51q-3 0 -3.5 2.5t1.5 5.5l417 693q3 4 5.5 5t5.5 1h50q5 0 5.5 -2t-5.5 -11z" />
    <glyph glyph-name="zero" unicode="0" horiz-adv-x="542" 
d="M492 336q0 -72 -11.5 -135t-37.5 -109.5t-68 -72.5t-104 -26t-104.5 26t-68 72t-37 109t-11.5 136q0 74 11.5 136.5t37 109t68 72.5t104.5 26t104 -26.5t68 -73t37.5 -109t11.5 -135.5zM416 336q0 136 -35.5 210t-110.5 74t-110 -73t-35 -211q0 -137 35 -210.5t110 -73.5
t110.5 74t35.5 210z" />
    <glyph glyph-name="one" unicode="1" horiz-adv-x="328" 
d="M183 0q-8 0 -8 7v575q0 10 -9 5l-116 -67q-9 -5 -12 2l-23 38q-4 8 4 12l164 95q6 4 9.5 5t8.5 1h38q9 0 9 -9v-657q0 -7 -7 -7h-58z" />
    <glyph glyph-name="two" unicode="2" horiz-adv-x="491" 
d="M44 0q-6 0 -8 1.5t-2 6.5v44q0 10 7 13q52 35 108 78.5t104.5 95.5t79 110.5t30.5 123.5q0 47 -19.5 78t-52.5 46.5t-75 15.5q-35 0 -64.5 -9.5t-50.5 -20t-32 -14.5q-15 -7 -15 2v48q0 6 2 8.5t8 6.5q13 7 37 17.5t56 18.5t66 8q52 0 100 -20.5t79.5 -65.5t31.5 -118
q0 -64 -24.5 -121.5t-66 -108.5t-92.5 -95.5t-103 -82.5q-3 -2 -2 -4t4 -2h280q7 0 7 -6v-46q0 -5 -1.5 -6.5t-7.5 -1.5h-384z" />
    <glyph glyph-name="three" unicode="3" horiz-adv-x="479" 
d="M212 -5q-32 0 -65 8.5t-61.5 24t-47.5 37.5q-3 4 -3 7.5t3 7.5l26 33q7 8 14 1q28 -28 62 -42t70 -14q46 0 77.5 20.5t47.5 51t16 60.5q0 32 -16.5 62.5t-50.5 51t-85 20.5h-11h-11q-4 0 -6.5 2t-2.5 8v41q0 10 9 10h13h19q42 2 71 20t44 45.5t15 55.5q0 29 -14 53.5
t-42 40.5t-70 16q-33 0 -70.5 -14.5t-62.5 -35.5q-10 -10 -17 1l-22 40q-2 4 -1 8t3 5q26 20 56.5 33t61 19t56.5 6q62 0 104 -23.5t63.5 -61.5t21.5 -80q0 -48 -24.5 -89t-70.5 -63q-11 -4 -11 -6q0 -1 14 -6q51 -21 79.5 -61t28.5 -96q0 -49 -25 -94.5t-71.5 -74
t-113.5 -28.5z" />
    <glyph glyph-name="four" unicode="4" horiz-adv-x="495" 
d="M317 0q-7 0 -7 7v168q0 10 -10 10h-270q-7 0 -7 7v37q0 6 3 11t5 8l279 415q3 6 6.5 8t6.5 2h48q8 0 8 -8v-413q0 -10 10 -10h67q6 0 6 -6v-45q0 -6 -6 -6h-67q-10 0 -10 -10v-168q0 -7 -7 -7h-55zM112 242h188q10 0 10 10v299q0 4 -2 4.5t-4 -3.5l-197 -298
q-4 -6 -2.5 -9t7.5 -3z" />
    <glyph glyph-name="five" unicode="5" horiz-adv-x="476" 
d="M192 -5q-20 0 -45 4.5t-49.5 14t-46.5 23.5q-3 3 -4.5 6t0.5 6l26 44q3 4 6.5 3.5t6.5 -2.5q28 -16 53 -23.5t53 -7.5q30 0 59 10t53 29.5t38.5 50t14.5 69.5q0 42 -18.5 75t-55 52.5t-89.5 19.5q-15 0 -32.5 -1t-34.5 -3.5t-32 -8.5q-10 -3 -13.5 -1t-3.5 9v297q0 6 2 9
t10 3h275q5 0 7 -1.5t2 -5.5v-47q0 -7 -9 -7h-215q-8 0 -8 -8v-173q0 -4 2 -6.5t8 -1.5q13 2 26 2h22q77 0 127.5 -27t75 -71.5t24.5 -100.5q1 -70 -32 -122.5t-87 -81t-116 -27.5z" />
    <glyph glyph-name="six" unicode="6" horiz-adv-x="546" 
d="M277 -12q-59 1 -112.5 32.5t-87.5 100t-34 179.5q0 66 21 133t61.5 123t102 89.5t143.5 33.5q8 0 23.5 -1t27.5 -4q4 0 8 -3t4 -11v-19v-20q0 -6 -2 -7.5t-8 0.5q-6 1 -16 2t-22.5 1.5t-25 -1.5t-23.5 -8q-50 -3 -90 -27.5t-68.5 -62.5t-45 -84.5t-19.5 -93.5
q-1 -8 1.5 -10.5t8.5 6.5q27 37 73.5 60t98.5 23q56 0 96.5 -17t65.5 -46.5t37 -66t12 -75.5q0 -56 -27 -108t-78.5 -85t-124.5 -33zM277 51q52 0 87.5 24.5t53.5 62t19 77.5q0 36 -17 68t-49.5 52.5t-83.5 20.5q-36 0 -69.5 -17t-60 -42t-40.5 -52q-1 -35 11 -70t33.5 -63
t51 -44.5t64.5 -16.5z" />
    <glyph glyph-name="seven" unicode="7" horiz-adv-x="453" 
d="M128 0q-6 0 -8 1t-2 7q3 29 16.5 79.5t34 111t42.5 120.5q22 59 46 114t44 99.5t33 70.5q2 6 0 8t-11 3h-296q-4 0 -5.5 1t-1.5 5v46q0 5 2 6t6 1h394q3 0 4.5 -1t1.5 -6v-27q0 -7 -5 -15q-15 -25 -38.5 -72.5t-51 -111t-55.5 -135.5q-21 -57 -40 -113.5t-31.5 -104.5
t-14.5 -80q0 -4 -3.5 -5.5t-7.5 -1.5h-53z" />
    <glyph glyph-name="eight" unicode="8" horiz-adv-x="494" 
d="M246 -6q-57 0 -105.5 25.5t-78 69t-29.5 97.5q0 62 29.5 104.5t74.5 63.5q8 3 9.5 7.5t-3.5 7.5q-36 15 -57 48t-21 85q0 49 25 88.5t66.5 63t89.5 23.5q51 0 92.5 -23.5t66 -63t24.5 -88.5q0 -56 -21 -88.5t-57 -48.5q-2 -2 -1 -6t8 -6q47 -22 75 -62.5t28 -104.5
q0 -54 -29.5 -97.5t-78 -69t-107.5 -25.5zM248 395q29 0 54.5 12t41.5 36t16 59q0 29 -15 53.5t-41 39t-58 14.5q-31 0 -56.5 -14.5t-41 -39t-15.5 -53.5q0 -34 17 -58t43 -36t55 -13zM246 60q42 0 74.5 17.5t52 46.5t19.5 63q0 44 -20.5 74t-53 46t-69.5 17
q-37 0 -70.5 -15.5t-54.5 -46t-21 -75.5q0 -34 19 -63t51.5 -46.5t72.5 -17.5z" />
    <glyph glyph-name="nine" unicode="9" horiz-adv-x="541" 
d="M246 249q-73 0 -119.5 29t-67.5 75.5t-21 98.5q1 56 28 108t79 86t127 33q54 0 95.5 -21t70.5 -58t44 -87.5t15 -110.5q2 -74 -18 -146.5t-61.5 -132t-107 -95t-156.5 -35.5q-7 0 -21 1t-29 4q-5 1 -9 4t-4 10l1 39q0 7 2.5 8.5t8.5 -0.5q13 -3 27 -4t23 -1
q63 0 111 25.5t80 60.5q22 25 37 57t24.5 63t15 53.5t6.5 28.5q-31 -44 -79.5 -68.5t-101.5 -24.5zM271 615q-53 1 -89 -23.5t-54 -62t-18 -77.5q1 -37 15.5 -69t45.5 -52t82 -20q54 0 99 32.5t73 78.5q-1 74 -23.5 116t-57.5 59.5t-73 17.5z" />
    <glyph glyph-name="colon" unicode=":" horiz-adv-x="215" 
d="M148 25q0 -18 -8 -26.5t-33 -8.5q-23 0 -31.5 8.5t-8.5 26.5q0 17 8.5 25.5t31.5 8.5q25 0 33 -8.5t8 -25.5zM148 446q0 -17 -8 -25.5t-33 -8.5q-23 0 -31.5 8.5t-8.5 25.5t8.5 26t31.5 9q25 0 33 -9t8 -26z" />
    <glyph glyph-name="semicolon" unicode=";" horiz-adv-x="221" 
d="M155 446q0 -17 -8 -25.5t-34 -8.5q-22 0 -31 8.5t-9 25.5t9 26t31 9q26 0 34 -9t8 -26zM153 24q0 -15 -7 -39t-17 -46.5t-20 -37.5q-2 -4 -6 -5h-13.5h-16.5q-1 1 -1 3t2 7q4 9 10 24.5t11.5 32t8.5 28.5q-16 1 -22.5 10.5t-6.5 22.5q0 16 8.5 25.5t29.5 9.5
q19 0 29.5 -7.5t10.5 -27.5z" />
    <glyph glyph-name="less" unicode="&#x3c;" horiz-adv-x="446" 
d="M58 277q-3 1 -5.5 3.5t-2.5 7.5v40q0 4 2.5 5t6.5 3l324 154q7 4 10 2.5t3 -6.5v-43q0 -3 -2.5 -5t-7.5 -4l-266 -128l265 -126q6 -4 8.5 -5.5t2.5 -5.5v-42q0 -11 -11 -6z" />
    <glyph glyph-name="equal" unicode="=" horiz-adv-x="476" 
d="M57 365q-5 0 -6 2.5t-1 5.5v38q0 5 1.5 6.5t6.5 1.5h361q4 0 5.5 -1.5t1.5 -5.5v-40q0 -3 -1 -5t-6 -2h-362zM57 182q-5 0 -6 2t-1 5v39q0 4 1.5 5.5t6.5 1.5h361q4 0 5.5 -1t1.5 -6v-40q0 -3 -1 -4.5t-6 -1.5h-362z" />
    <glyph glyph-name="greater" unicode="&#x3e;" horiz-adv-x="426" 
d="M52 121q-6 -3 -9 -1t-3 6v42q0 4 3 6t8 5l266 126l-267 128q-10 5 -10 10v43q0 4 3 6t11 -2l323 -154q4 -2 6.5 -3.5t2.5 -5.5v-39q0 -5 -2 -7.5t-5 -4.5z" />
    <glyph glyph-name="question" unicode="?" horiz-adv-x="448" 
d="M128 175q-6 0 -7 3t-1 9q0 51 7.5 86t22.5 59.5t36.5 43.5t48.5 38q14 10 30 22t29.5 26t21 30.5t6.5 36.5q-1 41 -31.5 63t-80.5 22q-38 0 -71 -9t-54 -18q-7 -3 -9 -4t-5 6l-12 40q-2 5 1.5 8.5t8.5 6.5q26 15 65 22.5t73 7.5q84 0 133.5 -40t49.5 -107q0 -48 -18 -76
t-43.5 -45.5t-48.5 -33.5q-36 -24 -57.5 -49t-30.5 -57.5t-9 -80.5q0 -6 -1.5 -8t-4.5 -2h-49zM113 26q0 17 8.5 25.5t30.5 8.5q24 0 32 -8.5t8 -25.5t-8 -26t-32 -9q-22 0 -30.5 9t-8.5 26z" />
    <glyph glyph-name="at" unicode="@" horiz-adv-x="839" 
d="M50 328q0 73 28 137.5t79 113.5t120 77t150 28q101 0 170 -25.5t111.5 -68.5t61.5 -96.5t19 -109.5q0 -49 -13 -94t-37.5 -80.5t-58.5 -56t-75 -20.5q-39 0 -60.5 19t-30 47t-9.5 56v6.5t-1.5 3t-6.5 -11.5q-13 -28 -32.5 -55.5t-46.5 -45t-63 -17.5q-52 0 -85 26.5
t-46 69t-8 91.5q7 59 35 109.5t74 82t105 31.5q55 0 93.5 -13t67.5 -32q9 -5 10.5 -13t-1.5 -19q-4 -14 -8.5 -28t-8.5 -28q-7 -24 -14 -54.5t-11.5 -61t-3 -56t12.5 -41.5t34 -16q36 0 64 30.5t44.5 78t16.5 100.5q0 44 -15.5 88t-51 79t-92.5 56.5t-140 21.5
q-68 0 -125.5 -24t-100 -67t-66 -98.5t-23.5 -118.5q0 -69 23.5 -123.5t66 -93.5t100 -59t127.5 -21q85 -1 160 12.5t130 39.5q8 5 14.5 7.5t12.5 5.5q5 4 8.5 3t5.5 -5l16 -26q4 -5 1.5 -9t-8.5 -7q-6 -4 -12 -7.5t-14 -6.5q-55 -27 -131.5 -41.5t-181.5 -13.5
q-81 1 -150 23.5t-121 66.5t-80.5 108t-28.5 146zM525 441q2 9 5 16.5t-4 13.5q-21 10 -42 15.5t-49 5.5q-45 0 -78 -28.5t-52 -71t-23 -84.5q-3 -32 3 -59.5t22.5 -44.5t45.5 -17q28 0 50 21t39 54q17 30 39.5 79t43.5 100z" />
    <glyph glyph-name="A" unicode="A" horiz-adv-x="553" 
d="M45 0q-5 0 -6 3.5t0 13.5q7 47 21 113t33 141t40.5 149t44.5 137.5t44 105.5q3 5 6 7.5t7 2.5h82q5 -1 8.5 -3t6.5 -8q20 -40 42.5 -104t44.5 -139t41.5 -151t33.5 -141.5t20 -109.5q2 -10 1 -13.5t-7 -3.5h-57q-4 0 -5.5 2.5t-4.5 11.5q-4 27 -11 63.5t-15 74.5
q-1 6 -3.5 8t-9.5 2h-252q-6 -1 -8 -2.5t-4 -8.5q-8 -37 -15 -73.5t-12 -64.5q-1 -8 -2.5 -10.5t-6.5 -2.5h-57zM165 220h221q5 0 7.5 3t0.5 12q-22 85 -44.5 171t-54.5 164q-2 6 -9 6h-19q-6 0 -8 -7q-16 -39 -34.5 -95.5t-35.5 -119.5t-31 -123q-1 -4 0 -7.5t7 -3.5z" />
    <glyph glyph-name="B" unicode="B" horiz-adv-x="522" 
d="M475 184q0 -67 -25.5 -107.5t-69 -58.5t-95.5 -18h-197q-8 0 -8 7v658q0 8 8 8h143q47 0 87.5 -4.5t71.5 -20t48 -48.5t17 -89q0 -35 -8.5 -65.5t-25.5 -53.5t-39 -34q-5 -2 -5 -7t5 -7q40 -16 66.5 -59t26.5 -101zM399 187q0 53 -17.5 81.5t-50 38.5t-77.5 10h-95
q-6 0 -6 -5v-252q0 -3 1 -4.5t5 -1.5h118q18 0 39.5 5t40 18.5t30.5 40t12 69.5zM379 509q0 50 -19 73t-53 29.5t-79 6.5h-69q-6 0 -6 -6v-231q0 -6 6 -6h104q40 0 65.5 17t38 47t12.5 70z" />
    <glyph glyph-name="C" unicode="C" horiz-adv-x="450" 
d="M415 21q0 -13 -16 -18q-14 -5 -33.5 -7.5t-37.5 -3.5t-28 -1q-112 0 -180.5 86.5t-68.5 257.5q0 172 66 258.5t183 86.5q10 0 28 -1.5t37.5 -4t33.5 -6.5q8 -2 12 -6t4 -9v-48q0 -16 -15 -7q-14 9 -38.5 16t-54.5 7q-53 0 -88 -22.5t-55.5 -61t-29 -87t-8.5 -101.5
q0 -36 4 -76.5t14.5 -80t31 -72t52.5 -52t79 -19.5q32 0 56 7t36 14q9 6 12.5 4.5t3.5 -10.5v-43z" />
    <glyph glyph-name="D" unicode="D" horiz-adv-x="579" 
d="M527 347q0 -88 -16.5 -149t-43.5 -100t-59 -60.5t-63.5 -29.5t-57.5 -8h-199q-8 0 -8 7v658q0 8 8 8h199q31 0 64.5 -6t65 -24.5t56.5 -54.5t39.5 -94.5t14.5 -146.5zM455 347q0 93 -16.5 147t-42 80t-54.5 33t-54 7h-128q-5 0 -6 -1.5t-1 -4.5v-543q0 -4 1 -5.5t5 -1.5
h112q27 0 58 10.5t60 40.5t47.5 87t18.5 151z" />
    <glyph glyph-name="E" unicode="E" horiz-adv-x="446" 
d="M88 0q-8 0 -8 7v658q0 8 8 8h315q6 0 7 -1.5t1 -6.5v-42q0 -6 -1.5 -7.5t-6.5 -1.5h-243q-5 0 -6 -1.5t-1 -5.5v-231q0 -4 2 -6t5 -2h198q6 0 7.5 -1.5t1.5 -8.5v-38q0 -6 -1.5 -8t-7.5 -2h-198q-5 0 -6 -1.5t-1 -5.5v-236q0 -4 1 -6.5t6 -2.5h242q7 0 8 -1.5t1 -7.5v-39
q0 -7 -1.5 -8.5t-7.5 -1.5h-314z" />
    <glyph glyph-name="F" unicode="F" horiz-adv-x="430" 
d="M88 0q-8 0 -8 7v658q0 8 8 8h315q6 0 7 -1.5t1 -6.5v-42q0 -6 -1.5 -7.5t-6.5 -1.5h-243q-5 0 -6 -1.5t-1 -5.5v-231q0 -4 2 -6t5 -2h190q6 0 7.5 -1.5t1.5 -8.5v-38q0 -6 -1.5 -8t-7.5 -2h-190q-5 0 -6 -1.5t-1 -5.5v-293q0 -7 -1.5 -8.5t-8.5 -1.5h-55z" />
    <glyph glyph-name="G" unicode="G" horiz-adv-x="559" 
d="M496 23q0 -12 -14.5 -18t-37 -8.5t-46.5 -2.5q-173 0 -265 84t-92 247q0 110 41.5 189t113 121.5t160.5 42.5q30 0 64 -2.5t56 -9.5q9 -3 12 -5.5t3 -9.5v-42q0 -10 -3.5 -12.5t-9.5 0.5q-25 14 -52.5 18.5t-58.5 4.5q-34 0 -77 -14t-82 -46t-64.5 -88t-25.5 -140
q0 -88 25.5 -143t65 -85t84 -41t83.5 -11q40 0 47 11v239q0 6 -2 8t-7 2h-146q-5 0 -6.5 2t-1.5 6v42q0 4 1.5 6t6.5 2h215q9 0 11 -2.5t2 -11.5v-333z" />
    <glyph glyph-name="H" unicode="H" horiz-adv-x="610" 
d="M100 0q-3 0 -6.5 1.5t-3.5 5.5q-4 34 -7.5 87t-5.5 116.5t-2 129.5q0 64 2 126t5.5 114t8.5 85q1 4 4 6t6 2h28.5h28.5q5 0 6 -7q-6 -61 -9 -118t-4 -101.5t-2 -67.5q0 -7 2 -9t7 -2h147h147q4 0 7 1.5t3 9.5q-1 20 -2.5 64t-4.5 102.5t-9 120.5q2 7 6 7h28.5h28.5
q3 0 6.5 -2t3.5 -6q5 -33 9 -85t6 -114.5t1 -126.5q0 -66 -2 -129t-5 -116t-7 -87q-1 -4 -4 -5.5t-7 -1.5h-28.5h-29.5q-4 0 -4 7q6 40 8.5 83.5t4 84t1.5 74v52.5q0 6 -2.5 7.5t-6.5 1.5h-148h-147q-5 0 -7.5 -1.5t-2.5 -7.5v-54.5t1.5 -73.5t4.5 -83t8 -83q1 -7 -4 -7h-29
h-29z" />
    <glyph glyph-name="I" unicode="I" horiz-adv-x="232" 
d="M153 7q0 -7 -8 -7h-58q-7 0 -7 7v658q0 8 7 8h58q8 0 8 -8v-658z" />
    <glyph glyph-name="J" unicode="J" horiz-adv-x="299" 
d="M224 173q0 -68 -13 -106t-42 -53t-79 -15l-76 1q-6 0 -11.5 2t-5.5 7v41q0 8 8 7q16 0 35.5 -0.5t35.5 -0.5q38 0 56.5 20t18.5 75v514q0 8 8 8h58q3 0 5 -2t2 -6v-492z" />
    <glyph glyph-name="K" unicode="K" horiz-adv-x="529" 
d="M84 0q-4 0 -4 4v333v332q0 4 4 4h12h20.5h20.5h12q4 0 4 -4v-73v-69v-69v-73q0 -3 1 -5.5t5 -2.5h73q6 0 9.5 3t6.5 7q20 38 37.5 72t35 67t35 67.5t37.5 72.5l5 5t5 2h12h19.5h20h12.5q5 0 5.5 -3.5t-4.5 -12.5q-28 -50 -53.5 -99t-51 -98.5t-51.5 -102.5q-4 -9 -5 -15
t-1 -12q2 -26 12 -57.5t25 -62.5t34 -58.5t39 -45.5q21 -18 45.5 -29.5t53.5 -11.5q2 0 5 -1t3 -3v-56q0 -5 -3 -5q-47 0 -83 12t-67 37q-22 18 -42 45.5t-37.5 60t-30 65.5t-17.5 63q-2 8 -5.5 10t-5.5 2h-37h-36l-3 -1t-3 -6v-73.5v-68.5v-68.5v-73.5q0 -4 -4 -4h-12
h-20.5h-20.5h-12z" />
    <glyph glyph-name="L" unicode="L" horiz-adv-x="424" 
d="M87 0q-7 0 -7 7v658q0 8 7 8h57q5 0 7 -2t2 -7v-597q0 -4 1 -6.5t6 -2.5h241q7 0 8.5 -1.5t1.5 -7.5v-39q0 -7 -1.5 -8.5t-8.5 -1.5h-314z" />
    <glyph glyph-name="M" unicode="M" horiz-adv-x="713" 
d="M84 0q-9 0 -9 9q0 86 3 178t9 181t12.5 166t13.5 131q1 4 2.5 6t5.5 2h38q6 0 8.5 -2t4.5 -6l178 -307q3 -6 7 -6t7 5l176 306q3 6 6 8t9 2h35q9 0 10 -11q6 -53 13 -128t12.5 -163t9 -180t3.5 -179q0 -7 -2 -9.5t-8 -2.5h-53q-9 0 -9 10q0 42 -1.5 94t-3.5 108t-5 111.5
t-6.5 104t-6.5 84.5q-1 7 -6 7t-8 -5l-150 -255q-4 -6 -12 -6h-23q-7 0 -12 7l-148 252q-3 6 -8 5.5t-5 -7.5q-4 -46 -8.5 -105t-8 -125.5t-5 -136.5t-1.5 -137q0 -6 -6 -6h-58z" />
    <glyph glyph-name="N" unicode="N" horiz-adv-x="641" 
d="M475 157q2 -4 6.5 -3.5t4.5 6.5q3 35 4.5 84t2 105t-0.5 113t-4.5 109t-8.5 93q-1 9 5 9h58q3 0 6 -2t3 -6q6 -35 9.5 -87.5t4.5 -115.5t0.5 -129t-2.5 -128t-5 -113.5t-7 -84.5q-1 -4 -4.5 -5.5t-7.5 -1.5h-39q-5 0 -9 9l-327 510q-1 4 -4.5 4t-4.5 -5q-2 -45 -4 -98.5
t-2.5 -111.5t1 -113.5t4 -103.5t7.5 -82q0 -9 -5 -9h-57q-4 0 -7 1.5t-4 5.5q-4 34 -7 86t-4.5 114.5t-1.5 128.5t2 128.5t5 115t9 85.5q0 4 3.5 6t5.5 2h40q5 0 8 -7z" />
    <glyph glyph-name="O" unicode="O" horiz-adv-x="628" 
d="M51 334q0 111 22.5 187.5t79.5 115.5t160 39q80 0 131.5 -22.5t80.5 -65.5t40 -107t11 -147t-11 -146.5t-40 -107t-80.5 -65.5t-131.5 -22q-103 0 -160 39t-79.5 115t-22.5 187zM127 334q0 -109 19.5 -169.5t60 -84.5t104.5 -24q65 0 106.5 24t62.5 84t21 170t-21 171
t-62.5 85.5t-106.5 24.5q-64 0 -104.5 -25t-60 -85.5t-19.5 -170.5z" />
    <glyph glyph-name="P" unicode="P" horiz-adv-x="484" 
d="M442 462q0 -64 -22 -116.5t-65 -84.5t-107 -32h-87q-4 0 -6 -2.5t-2 -5.5v-214q0 -7 -8 -7h-57q-8 0 -8 7v658q0 8 8 8h149q109 0 157 -51.5t48 -159.5zM153 294q0 -8 7 -8h80q63 0 97 46.5t34 128.5q0 86 -33 121.5t-101 35.5h-76q-5 0 -6.5 -1.5t-1.5 -7.5v-315z" />
    <glyph glyph-name="Q" unicode="Q" horiz-adv-x="628" 
d="M51 333q0 112 22.5 188t79.5 115.5t160 39.5q80 0 131.5 -22.5t80.5 -65.5t40 -107t11 -148q0 -96 -15.5 -166t-56.5 -112t-116 -56q-6 -1 -13 -2.5t-13 -1.5q-10 -1 -10 -9q0 -43 9 -69t33.5 -37.5t71.5 -11.5h29q8 0 8 -9v-33q0 -5 -1.5 -7.5t-7.5 -3.5
q-3 -1 -14.5 -1.5t-23.5 -0.5q-69 0 -107.5 20t-54 58t-16.5 94q0 4 -2 6.5t-7 3.5q-7 0 -14.5 1.5t-16.5 4.5q-72 13 -113 54t-57.5 111.5t-16.5 166.5zM127 334q0 -109 19.5 -169.5t60 -84.5t104.5 -24q65 0 106.5 24t62.5 84t21 170t-21 171t-62.5 85.5t-106.5 24.5
q-64 0 -104.5 -25t-60 -85.5t-19.5 -170.5z" />
    <glyph glyph-name="R" unicode="R" horiz-adv-x="529" 
d="M88 0q-8 0 -8 7v658q0 8 8 8h144q75 0 121 -18t67.5 -60t21.5 -115q0 -65 -24.5 -114.5t-78.5 -71.5q-11 -7 -14.5 -14t1.5 -17q8 -31 22 -62.5t32.5 -58.5t39.5 -44q20 -15 42.5 -24t47.5 -9q5 0 8 -1.5t3 -7.5v-48q0 -4 -1 -5.5t-5 -2t-15 -0.5q-39 0 -71 12.5
t-58 33.5q-27 22 -50.5 55.5t-41 73t-26.5 77.5q-1 4 -4 9.5t-13 5.5h-75q-8 0 -8 -11v-249q0 -7 -8 -7h-57zM153 335q0 -4 2.5 -6t5.5 -2h79q63 0 97 36.5t34 116.5q0 58 -15 87t-46 40t-81 11h-68q-5 0 -6.5 -1.5t-1.5 -7.5v-274z" />
    <glyph glyph-name="S" unicode="S" horiz-adv-x="459" 
d="M58 27v48q0 6 3.5 5t8.5 -3q20 -6 44 -12t48 -9.5t41 -3.5q70 0 105 38t35 100q0 55 -29.5 84.5t-95.5 47.5q-29 7 -60 17t-57.5 28.5t-43 51t-16.5 84.5q0 62 28 100t74 56t100 18q24 0 49 -3.5t47.5 -9.5t39.5 -14q6 -1 7.5 -3.5t1.5 -7.5v-42q0 -14 -18 -5
q-24 11 -54.5 19.5t-68.5 8.5q-59 0 -96 -29.5t-37 -83.5q0 -36 14 -58t37 -35t50 -21t54 -15q49 -15 82 -35t50.5 -55t17.5 -94q0 -65 -26.5 -110t-74 -69t-114.5 -24q-28 0 -65.5 7t-69.5 17q-6 2 -8.5 4.5t-2.5 7.5z" />
    <glyph glyph-name="T" unicode="T" horiz-adv-x="435" 
d="M188 0q-3 0 -5.5 2t-2.5 5v599q0 5 -1.5 6.5t-5.5 1.5h-143q-5 0 -7 1.5t-2 5.5v45q0 4 1.5 5.5t6.5 1.5h375q6 0 8 -2t2 -6v-43q0 -5 -2 -6.5t-8 -1.5h-142q-5 0 -7 -1.5t-2 -6.5v-599q0 -7 -7 -7h-58z" />
    <glyph glyph-name="U" unicode="U" horiz-adv-x="634" 
d="M317 -6q-82 0 -129 19t-70 48t-30.5 59t-10.5 53q-4 42 -6 91.5t-1 97.5q1 49 3 102t6.5 104t10.5 95q0 4 2.5 7t6.5 3h27h27q5 0 6 -2t1 -10q-4 -40 -7.5 -84t-5.5 -91q-4 -80 -4.5 -158t6.5 -147q2 -20 8 -42.5t22.5 -42t49 -32t86.5 -12.5q55 0 87.5 12.5t49.5 32
t23.5 42t8.5 42.5q6 67 6 143.5t-4 155.5q-2 48 -5.5 94t-7.5 87q-1 8 0.5 10t5.5 2h28.5h28.5q4 0 6 -3t2 -7q7 -44 11 -94.5t6.5 -102.5t2.5 -101q1 -49 -0.5 -99t-6.5 -93q-2 -18 -7 -41.5t-17.5 -47.5t-38.5 -44.5t-69 -33t-108 -12.5z" />
    <glyph glyph-name="V" unicode="V" horiz-adv-x="538" 
d="M236 0q-5 1 -8 3t-5 7q-22 42 -45 105.5t-45 137.5t-41 149t-32.5 141t-20.5 113q-1 9 0 13t6 4h56q6 0 7.5 -2.5t2.5 -10.5q6 -38 16.5 -88t23.5 -106t29 -112t32 -106.5t31 -89.5q4 -12 9 -29.5t11 -29.5q3 -3 5 -3.5t5 3.5q6 11 11 28.5t10 30.5q14 38 30 88.5t32 107
t30 113t24.5 106.5t15.5 86q2 9 3.5 11.5t6.5 2.5h57q5 0 6 -4t-1 -14q-6 -43 -20 -108.5t-33 -141.5t-41 -151.5t-44.5 -139t-42.5 -104.5q-3 -6 -7 -7.5t-8 -2.5h-66z" />
    <glyph glyph-name="W" unicode="W" horiz-adv-x="825" 
d="M228 0q-11 0 -15 10q-22 42 -45 105.5t-45 138t-41 150t-33 142.5t-21 117q0 4 1 7t6 3h10h17.5h17.5h11q6 0 7.5 -1.5t1.5 -6.5q7 -44 21.5 -112t36.5 -156q16 -63 31.5 -118.5t30 -100t27.5 -75.5q2 -4 3.5 -6.5t3.5 -2.5h3.5h3.5t4 2.5t3 6.5q9 21 20.5 53.5
t23.5 70.5t23.5 76t21.5 70.5t15 53.5q-1 32 -2 70t-3 73.5t-3 61t-1 32.5q0 4 1 7t6 3h11h17.5h17.5h11q5 0 6.5 -2t1.5 -7q1 -46 4.5 -92t9.5 -88t13 -76q16 -79 40.5 -155t51.5 -149q3 -6 4 -8.5t4 -2.5h3.5h3.5q3 0 6 7q11 26 25.5 69.5t31.5 100t33 120.5
q12 44 21 81.5t16 70.5t13 62.5t10 57.5q1 6 3 8t6 2h11h17h17.5h11.5q9 0 6 -12q-7 -43 -21.5 -109t-34 -143t-41 -153t-44 -140.5t-42.5 -105.5q-1 -4 -4.5 -7t-9.5 -3h-20.5h-25h-21.5q-4 0 -7.5 4t-4.5 6q-17 34 -35 80.5t-35 101.5t-33 112q-2 8 -5 10t-7 -10
q-14 -51 -27.5 -95t-25.5 -80.5t-23.5 -65.5t-22.5 -53q-2 -6 -6.5 -8t-8.5 -2h-20.5h-24h-19.5z" />
    <glyph glyph-name="X" unicode="X" horiz-adv-x="519" 
d="M340 354q-5 -8 -5 -15t6 -16q7 -11 14.5 -21t12.5 -20q28 -44 50 -87t39 -80.5t27 -64t12 -37.5q2 -8 -1 -10.5t-8 -2.5h-58q-3 0 -5.5 2.5t-5.5 9.5q-2 6 -11.5 29.5t-24.5 56.5t-33 70t-37 70t-35 56q-8 2 -16.5 2.5t-16.5 -2.5q-19 -26 -38 -60t-37 -70t-32.5 -68.5
t-23.5 -55t-11 -28.5q-3 -7 -5 -9.5t-7 -2.5h-57q-6 0 -9 2.5t-1 10.5t16 44.5t39.5 91t60.5 113.5q8 14 18 30.5t20 30.5q4 5 5 15t-4 16q-32 50 -58 98.5t-45 91t-30 72.5t-13 44q-2 7 1 10t8 3h56q5 0 7 -2t3 -8l7 -19t19.5 -50t29 -67.5t35.5 -72.5t39 -65q2 -2 4.5 -5
t6.5 -5q6 -1 11 -0.5t10 1.5q4 1 5.5 2t4.5 5q20 28 39.5 64.5t36 73t29 68t20 51l7.5 19.5q2 6 4 8t6 2h57q5 0 8 -3t1 -10q-2 -14 -15 -46t-33 -75.5t-45 -91.5t-54 -93z" />
    <glyph glyph-name="Y" unicode="Y" horiz-adv-x="487" 
d="M293 302q-6 -8 -8.5 -22.5t-2.5 -25.5v-247q0 -3 -2.5 -5t-5.5 -2h-58q-7 0 -7 7v245q0 18 -7 36.5t-15 29.5q-9 12 -21 30t-24.5 38t-22.5 37t-15 27q-28 53 -47 98t-29 75.5t-12 36.5q-2 7 1 10t9 3h55q7 0 10 -11q4 -11 15.5 -40t28 -66t34.5 -74q13 -26 29 -53
t35 -54q6 -8 10 -9.5t11 8.5q11 14 22.5 32t23 37.5t19.5 35.5q18 35 34 73.5t27.5 68.5t14.5 42q2 6 4.5 8t6.5 2h57q4 0 7 -3t1 -10q-1 -6 -10.5 -35.5t-27.5 -74t-46 -96.5q-6 -13 -17.5 -32.5t-24.5 -41.5t-26.5 -42.5t-25.5 -35.5z" />
    <glyph glyph-name="Z" unicode="Z" horiz-adv-x="449" 
d="M406 673q5 0 6 -2t1 -9v-33q0 -12 -9.5 -28t-22.5 -31q-29 -33 -63 -80.5t-68 -103.5t-64.5 -114t-54 -113t-35.5 -101h333q5 0 7 -1.5t2 -5.5v-43q0 -5 -2 -6.5t-7 -1.5h-391q-11 0 -14 6.5t-2 17.5q1 40 18 92t45 110t61 115.5t67 110.5t64 95t50 67h-288q-6 0 -7.5 2
t-1.5 6v43q0 4 1.5 6t7.5 2h367z" />
    <glyph glyph-name="bracketleft" unicode="[" horiz-adv-x="348" 
d="M265 -106q0 -8 -6 -8h-200q-5 0 -7 2.5t-2 6.5v846q0 8 8 8h199q6 0 7 -1t1 -5v-37q0 -4 -2 -5t-5 -1h-138v-764h138q4 0 5.5 -1.5t1.5 -5.5v-35z" />
    <glyph glyph-name="backslash" unicode="\" horiz-adv-x="550" 
d="M462 0q-5 0 -8 2.5t-7 7.5l-408 680q-7 10 -6 13.5t7 3.5h45q6 0 8 -1.5t7 -7.5l414 -687q3 -4 3 -7.5t-7 -3.5h-48z" />
    <glyph glyph-name="bracketright" unicode="]" horiz-adv-x="348" 
d="M90 -114q-7 0 -7 8v35q0 4 2 5.5t6 1.5h138v764h-138q-3 0 -5.5 1t-2.5 5v37q0 4 2 5t7 1h199q7 0 7 -8v-846q0 -4 -1.5 -6.5t-6.5 -2.5h-200z" />
    <glyph glyph-name="asciicircum" unicode="^" horiz-adv-x="571" 
d="M60 414q-7 0 -9.5 2.5t1.5 6.5l193 277q3 3 6 5t11 2h49q6 0 9 -2t5 -6l192 -275q6 -5 3 -7.5t-9 -2.5h-54q-3 0 -5.5 2t-6.5 6l-159 232l-160 -231q-4 -5 -6.5 -7t-8.5 -2h-51z" />
    <glyph glyph-name="underscore" unicode="_" horiz-adv-x="555" 
d="M23 -85q-3 0 -4.5 2t-1.5 6v31q0 5 1.5 6t5.5 1h508q4 0 5.5 -1t1.5 -6v-33q0 -3 -1.5 -4.5t-6.5 -1.5h-508z" />
    <glyph glyph-name="grave" unicode="`" horiz-adv-x="128" 
d="M86 530q-7 0 -14 6l-71 88q-2 3 -0.5 5.5t3.5 2.5h58q5 0 8.5 -1.5t5.5 -5.5l49 -87q5 -8 -2 -8h-37z" />
    <glyph glyph-name="a" unicode="a" horiz-adv-x="481" 
d="M232 -8q-49 0 -90.5 11.5t-66.5 43t-25 91.5q0 51 17 83.5t45 50t60 24.5t61 7q30 0 59 -3t47 -7q14 -3 14 20q0 60 -29.5 84.5t-92.5 24.5q-39 0 -73 -11t-56 -25q-6 -4 -9 -3t-3 6l-6 38q-1 6 0.5 8.5t5.5 5.5q24 17 60.5 26.5t81.5 9.5q64 0 102 -15t57 -40
t25.5 -57.5t6.5 -68.5q1 -49 0.5 -91t-2.5 -82.5t-6 -83.5q-1 -7 -5.5 -12.5t-18.5 -11.5q-15 -5 -35 -9.5t-42 -7.5t-43 -4.5t-39 -1.5zM237 41q9 0 25.5 1t34.5 5t31 10.5t15 16.5q4 30 6 70t1 75q0 20 -14 24q-13 4 -42 7.5t-63 3.5q-15 0 -34.5 -5t-36.5 -17t-28.5 -35
t-11.5 -59q0 -34 15 -55.5t41.5 -31.5t60.5 -10z" />
    <glyph glyph-name="b" unicode="b" horiz-adv-x="475" 
d="M231 -6q-50 0 -90 9t-49 12q-14 5 -21 9.5t-9 12.5t-5 24q-3 18 -5.5 55t-3.5 81t-2 82q-1 108 3 217t12 204q1 4 3.5 6t7.5 2h51q9 0 9.5 -3.5t-0.5 -10.5q-2 -16 -4 -40.5t-3.5 -52.5t-3 -54t-2 -45.5t-0.5 -27.5q0 -10 4.5 -13t11.5 0q15 4 44.5 9.5t57.5 5.5
q33 0 67 -11t61.5 -38.5t45 -76t17.5 -124.5q0 -121 -52.5 -176.5t-144.5 -55.5zM230 50q36 0 64.5 17t45 55.5t16.5 105.5q0 60 -11.5 96.5t-31 56.5t-41.5 27t-42 7q-13 0 -33.5 -3.5t-37.5 -7.5t-25 -6q-5 -1 -9 -4.5t-5 -11.5q-1 -18 -1 -50.5t0.5 -75t2 -87t4.5 -83.5
q1 -9 4 -13.5t8 -6.5q15 -5 39 -10.5t53 -5.5z" />
    <glyph glyph-name="c" unicode="c" horiz-adv-x="395" 
d="M237 -6q-60 0 -99.5 18.5t-61.5 51.5t-30.5 76.5t-8.5 94.5q0 47 9 90.5t31 78t61 54.5t98 20q42 0 72.5 -8.5t51.5 -26.5q5 -5 6.5 -7.5t1.5 -8.5v-44q0 -6 -4 -6.5t-8 3.5q-20 20 -51 29t-62 9q-38 0 -64.5 -16t-41.5 -43t-22 -59.5t-7 -65.5q0 -55 13 -96.5t42.5 -64
t77.5 -22.5q31 0 56 6.5t48 17.5q10 5 14 -4l15 -32q3 -5 1.5 -7.5t-5.5 -5.5q-24 -16 -59 -24t-74 -8z" />
    <glyph glyph-name="d" unicode="d" horiz-adv-x="494" 
d="M45 230q1 76 18.5 123.5t46.5 74t63.5 36t68.5 9.5q27 0 52.5 -3.5t41.5 -7.5q11 -3 15.5 -2.5t4.5 9.5q0 17 -0.5 42.5t-2 53.5t-2.5 54t-2 45t-2 25q-1 8 1.5 10t6.5 2h54q4 0 6.5 -1t2.5 -5q4 -50 6.5 -105.5t3.5 -114t1.5 -117t-1 -115t-4 -107.5t-6.5 -94
q-1 -7 -5 -12.5t-18 -11.5q-25 -10 -65.5 -18.5t-84.5 -8.5q-41 1 -77 11t-60 33q-32 29 -47.5 77.5t-15.5 117.5zM117 229q0 -66 14.5 -103t40.5 -53q19 -16 49 -21t61.5 -1t53.5 14q5 3 9 6t4 8q1 25 3 58.5t2.5 69.5t1.5 69.5t1 60.5t-1 41q0 9 -4 13t-9 6q-22 6 -50 10
t-48 4q-19 0 -41.5 -6.5t-42 -24.5t-31.5 -54.5t-13 -96.5z" />
    <glyph glyph-name="e" unicode="e" horiz-adv-x="460" 
d="M40 237q0 47 9.5 90t31.5 77.5t60.5 54t98.5 19.5q61 0 98 -18t55.5 -48t25 -66t6.5 -72q0 -37 -7.5 -46t-22.5 -9h-273q-3 0 -6.5 -2t-3.5 -11q0 -46 15 -81.5t46.5 -55.5t79.5 -20q33 0 69 8.5t60 20.5q8 5 13 6t9 -8l13 -25q3 -6 1.5 -8.5t-7.5 -6.5
q-32 -21 -77.5 -31.5t-92.5 -10.5q-62 0 -101 18.5t-61 52t-30.5 77.5t-8.5 95zM352 286q0 36 -9 66.5t-33.5 49.5t-71.5 19q-34 0 -58 -13t-38 -33.5t-21 -45t-9 -46.5q0 -10 1.5 -13.5t9.5 -3.5h212q10 0 14 3t3 17z" />
    <glyph glyph-name="f" unicode="f" horiz-adv-x="339" 
d="M103 8q-3 35 -5.5 83t-4 102.5t-2.5 109.5t-1 104q0 9 -8 9h-59q-4 0 -5.5 2t-1.5 6v40q0 4 1.5 6t6.5 2h58q5 0 6.5 1.5t1.5 7.5q-1 49 3.5 90t27.5 75q23 33 64 49.5t100 16.5q29 0 53.5 -8.5t33.5 -13.5q7 -4 8.5 -6.5t0.5 -6.5l-10 -32q-1 -5 -3 -6t-6 1
q-12 7 -31.5 12t-46.5 4q-45 0 -73.5 -15.5t-37.5 -55.5q-8 -25 -10 -51t-2 -53q0 -5 2 -7t6 -2h150q4 0 5.5 -1.5t1.5 -7.5v-39q0 -3 -2 -5.5t-6 -2.5h-148q-4 0 -6.5 -2t-2.5 -7q0 -47 1 -104t3 -114t4 -104.5t4 -77.5q0 -4 -1 -6t-5 -2h-57q-2 0 -4 2t-3 7z" />
    <glyph glyph-name="g" unicode="g" horiz-adv-x="485" 
d="M40 242q1 67 18.5 120.5t62.5 84.5t125 31q39 0 77 -6t67 -18q15 -5 20 -15t7 -31q9 -72 10.5 -171.5t-11.5 -207.5q-10 -86 -60.5 -125.5t-139.5 -39.5q-35 0 -76 10t-74 34q-6 5 -7.5 8.5t1.5 7.5q3 5 8 14.5t8 14.5q4 6 7.5 6.5t7.5 -3.5q16 -9 36.5 -17.5t43.5 -14
t45 -5.5q28 0 54.5 10t46 32t25.5 60q0 2 0.5 3.5t0.5 3.5q1 7 -3.5 8t-13.5 -1q-18 -5 -43.5 -9.5t-49.5 -4.5q-62 0 -105.5 26.5t-66 76t-21.5 118.5zM113 250q0 -50 12 -89t40.5 -61t77.5 -22q22 0 44 3t39 10q24 9 25 26q3 28 3 64.5t-0.5 75t-2 71.5t-4.5 55q0 7 -3 16
t-14 14q-12 6 -35.5 9.5t-49.5 3.5q-49 0 -77.5 -22t-41 -62t-13.5 -92z" />
    <glyph glyph-name="h" unicode="h" horiz-adv-x="462" 
d="M53 7v347v347q0 7 8 7h28.5h27.5q8 0 8 -7v-116.5v-115.5q0 -7 2.5 -9t8.5 0q22 6 49.5 11.5t55.5 5.5q37 0 68.5 -11.5t54.5 -38.5t36 -73.5t14 -117.5q0 -39 -1.5 -80t-4.5 -79.5t-7 -69.5q0 -4 -3 -5.5t-9 -1.5h-23.5h-23.5q-9 0 -10.5 2t0.5 12q5 46 7 99t3 104
q0 58 -8.5 97.5t-24 62.5t-36.5 33t-46 10q-18 0 -41.5 -4t-44.5 -9q-7 -2 -11.5 -7t-4.5 -17v-376q0 -7 -8 -7h-56q-8 0 -8 7z" />
    <glyph glyph-name="i" unicode="i" horiz-adv-x="202" 
d="M143 602q0 -18 -7.5 -27.5t-32.5 -9.5q-24 0 -32.5 9.5t-8.5 27.5q0 17 8.5 26.5t32.5 9.5q26 0 33 -9.5t7 -26.5zM139 7q0 -7 -8 -7h-56q-7 0 -7 7v458q0 7 7 7h56q8 0 8 -7v-458z" />
    <glyph glyph-name="j" unicode="j" horiz-adv-x="198" 
d="M-92 -69l14 25q3 5 5.5 5t7.5 -2q28 -12 56 -12q46 1 63.5 29t17.5 81v408q0 7 7 7h57q7 0 7 -7v-408q0 -77 -28.5 -119.5t-108.5 -42.5q-20 0 -42 4t-38 10q-8 4 -15 9t-3 13zM148 602q0 -18 -8 -27.5t-33 -9.5q-24 0 -32 9.5t-8 27.5q0 17 8 26.5t32 9.5
q26 0 33.5 -9.5t7.5 -26.5z" />
    <glyph glyph-name="k" unicode="k" horiz-adv-x="433" 
d="M67 4v690q0 4 4 4h63q4 0 4 -4v-399q0 -2 1 -5t4 -3q13 0 26.5 1t26.5 1q9 2 13.5 4.5t11.5 11.5q20 23 36 50t29.5 55t23.5 53q3 7 6 8t9 1h57q6 0 7 -3t-1 -7q-1 -1 -9.5 -20t-23 -47.5t-33.5 -59.5t-41 -58q-4 -4 -7 -7.5t-6 -7.5q2 -1 5 -3t4 -4q17 -18 35 -47.5
t35.5 -63.5t31.5 -64t22.5 -50t9.5 -22q4 -8 -3 -8h-12.5h-20h-19.5h-12q-4 0 -5 0.5t-4 6.5l-7 15.5t-18.5 40.5t-26 52.5t-29 53t-27.5 40.5q-5 8 -13.5 14t-24.5 8.5t-46 0.5q-5 -1 -5 -10v-218q0 -4 -4 -4h-63q-4 0 -4 4z" />
    <glyph glyph-name="l" unicode="l" horiz-adv-x="204" 
d="M67 7v694q0 7 7 7h56q8 0 8 -7v-694q0 -7 -8 -7h-56q-7 0 -7 7z" />
    <glyph glyph-name="m" unicode="m" horiz-adv-x="744" 
d="M75 0q-8 0 -8 8v413q0 13 4.5 19t14.5 10q13 5 35.5 11t49 10.5t49.5 4.5q57 0 92.5 -17.5t57.5 -47.5q14 21 35.5 35t46 22t48.5 8q74 0 114.5 -30t56.5 -80.5t16 -113.5q0 -51 -2 -97.5t-4.5 -83.5t-5.5 -63q0 -5 -2 -6.5t-6 -1.5h-54q-5 0 -6.5 2.5t-1.5 8.5
q2 18 3.5 57.5t3 89.5t1.5 98q0 28 -5.5 56.5t-18.5 52t-35 38t-55 14.5q-39 0 -63.5 -20.5t-24.5 -57.5q0 -52 0.5 -95t0.5 -80.5t-0.5 -74.5t-0.5 -79q0 -10 -10 -10h-53q-8 0 -8 8v245q0 49 -11 86t-36.5 57.5t-71.5 20.5q-19 0 -36 -3.5t-31 -8.5q-16 -6 -16 -23v-373
q0 -9 -8 -9h-55z" />
    <glyph glyph-name="n" unicode="n" horiz-adv-x="486" 
d="M75 0q-8 0 -8 8v212v213q0 6 4 10.5t18 9.5q13 4 38.5 9.5t55 10.5t54.5 5q77 0 118.5 -30t57.5 -81.5t16 -113.5q0 -46 -2 -92.5t-4.5 -85.5t-4.5 -62q-1 -9 -3.5 -11t-11.5 -2h-43q-8 0 -11 2.5t-2 9.5q0 6 1.5 32t3.5 62.5t3.5 76t1.5 72.5q0 54 -13 90t-39.5 54
t-68.5 18q-22 0 -43 -4t-38 -10q-6 -1 -11.5 -6.5t-5.5 -18.5v-118v-125.5v-126.5q0 -8 -7 -8h-56z" />
    <glyph glyph-name="o" unicode="o" horiz-adv-x="493" 
d="M246 -6q-81 0 -126 31t-62.5 86t-17.5 126q0 70 19.5 124.5t64.5 85.5t122 31q78 0 123 -31t64.5 -85.5t19.5 -124.5t-17.5 -125t-62 -86.5t-127.5 -31.5zM246 51q75 0 104.5 48.5t29.5 136.5t-32 135t-102 47q-69 0 -101.5 -47t-32.5 -135q0 -89 30 -137t104 -48z" />
    <glyph glyph-name="p" unicode="p" horiz-adv-x="492" 
d="M72 -105q-3 60 -4.5 136t-0.5 169q0 38 1 79.5t3 81.5t5 73q1 7 5 12.5t17 9.5q31 11 71.5 17.5t88.5 6.5q96 0 144 -56.5t48 -177.5q0 -48 -9.5 -91t-30 -76.5t-52 -54t-76.5 -24.5q-18 -3 -42 -3.5t-47 1.5t-37 6q-7 2 -10.5 1.5t-3.5 -6.5q0 -7 -0.5 -23.5t0 -36.5
t0.5 -38q1 -6 0.5 -10t-9.5 -4h-51q-5 0 -7.5 2.5t-2.5 5.5zM140 87q0 -9 5 -12t10 -5q21 -6 48 -9.5t47 -3.5t42.5 7.5t41.5 27.5t31.5 57t12.5 97q0 101 -33.5 139.5t-89.5 38.5q-26 0 -51 -4.5t-45 -11.5q-5 -2 -9 -5.5t-4 -8.5q-2 -25 -3 -59t-2 -71.5t-1.5 -73
t-0.5 -63t1 -40.5z" />
    <glyph glyph-name="q" unicode="q" horiz-adv-x="477" 
d="M191 0q-28 4 -56.5 17.5t-51.5 41.5t-36 73.5t-10 113.5q5 121 56.5 177.5t147.5 56.5q49 0 88 -6.5t71 -17.5q12 -4 15.5 -9.5t4.5 -12.5q2 -29 2 -70.5t-1 -90.5t-3 -101.5t-4.5 -103t-6 -95.5t-6.5 -78q-1 -3 -3.5 -5.5t-6.5 -2.5h-52q-9 0 -9 4t1 10q1 18 2 38
t2 36.5t1 23.5q0 6 -4.5 6t-11.5 -1q-26 -5 -60.5 -7t-68.5 3zM109 246q-2 -60 8.5 -97t29 -56.5t40.5 -27t41 -7.5q20 0 48.5 3t51.5 9q5 2 9 5t4 12q1 13 2.5 40.5t2.5 63t1.5 73t0.5 71.5v59q1 5 -2.5 8.5t-8.5 5.5q-20 7 -45 11.5t-51 4.5q-57 0 -92 -38.5t-40 -139.5z
" />
    <glyph glyph-name="r" unicode="r" horiz-adv-x="327" 
d="M211 477q61 0 103 -16q5 -3 7.5 -5t1.5 -7l-10 -38q-1 -5 -3.5 -6t-7.5 1q-18 6 -39 8.5t-39 2.5q-16 0 -33 -3t-30.5 -6.5t-20.5 -6.5q-4 -3 -10 -7t-6 -18v-365q0 -7 -2 -9t-7 -2h-54q-3 0 -5.5 2t-2.5 7v409q0 15 4 20t12 9q30 14 70 22t72 8z" />
    <glyph glyph-name="s" unicode="s" horiz-adv-x="394" 
d="M41 83q1 5 4.5 4.5t7.5 -3.5q16 -10 40 -17t49 -11t43 -4q28 0 53 9t40.5 28.5t15.5 50.5q0 37 -27.5 52.5t-88.5 23.5q-38 5 -70.5 17.5t-52 37.5t-19.5 67q0 46 24 76.5t63 46.5t83 16q36 0 77 -10t65 -27q5 -2 5 -4.5t-1 -6.5l-13 -39q-2 -8 -12 -2q-19 13 -53.5 23
t-67.5 10q-45 0 -73 -22.5t-28 -55.5q0 -34 28.5 -49t78.5 -21q33 -4 60 -11.5t47 -21t31 -36.5t11 -58q0 -43 -16 -72t-42.5 -46.5t-58.5 -25t-63 -7.5q-15 0 -42 4t-54.5 12t-45.5 20q-4 2 -5.5 4t-0.5 6z" />
    <glyph glyph-name="t" unicode="t" horiz-adv-x="327" 
d="M222 0q-62 0 -92 26.5t-39 74.5q-9 42 -9 88.5v95.5q0 34 0.5 65t2.5 63q0 9 -8 9h-51q-4 0 -6 2t-2 6v34q0 4 2 6t7 2h51q5 0 7 2.5t2 9.5l5 85q0 7 6 7h56q3 0 5.5 -2t2.5 -5l-4 -85q-1 -7 0.5 -9.5t6.5 -2.5h117q5 0 6.5 -1.5t1.5 -7.5v-32q0 -4 -2 -6.5t-7 -2.5h-116
q-4 0 -7 -2.5t-3 -8.5q-1 -32 -2 -65t-1 -67q0 -41 0.5 -83.5t9.5 -82.5q6 -28 22.5 -42t51.5 -14q14 0 28 3.5t28 7.5q7 4 9 3t4 -7l11 -33q2 -6 -1.5 -9t-13.5 -8q-11 -4 -26.5 -7.5t-29.5 -5t-23 -1.5z" />
    <glyph glyph-name="u" unicode="u" horiz-adv-x="487" 
d="M250 -4q-76 0 -117.5 30t-58 81t-16.5 113q0 46 2 92t4.5 85t3.5 62q2 9 5 11t11 2h43q8 0 11 -1t2 -11q0 -6 -1.5 -31t-3.5 -61t-3 -76t-1 -76q0 -75 27.5 -118t91.5 -43q8 0 24.5 1.5t34 5.5t29.5 10.5t12 16.5v374q0 3 1 6t4 3h57q3 0 5.5 -1.5t2.5 -6.5v-415
q0 -12 -6 -17.5t-25 -12.5q-9 -3 -32.5 -8.5t-52.5 -10t-54 -4.5z" />
    <glyph glyph-name="v" unicode="v" horiz-adv-x="402" 
d="M178 0q-7 0 -10 6q-24 42 -43 89.5t-36 94.5q-27 80 -44 148t-24 118q-3 16 6 16h58q4 0 7 -2.5t4 -7.5q4 -34 14.5 -80.5t24.5 -99.5q16 -59 33 -108t31 -76q2 -6 5.5 -5t5.5 5q12 22 26.5 63.5t29.5 94.5q15 58 27.5 115.5t16.5 93.5q1 7 7 7h60q6 0 5 -7
q-8 -54 -24 -123t-42 -144q-15 -48 -35.5 -96.5t-44.5 -95.5q-3 -6 -9 -6h-49z" />
    <glyph glyph-name="w" unicode="w" horiz-adv-x="626" 
d="M164 10q-28 56 -52 117.5t-42 122t-30.5 113t-18.5 91.5q-2 9 -0.5 13.5t6.5 4.5h58q9 0 11 -10q5 -30 13.5 -71.5t20.5 -85.5t25 -85.5t24.5 -74t21.5 -49.5q2 -6 5 -5t4 4q12 19 23 50t20 65.5t14.5 64.5t5.5 47q0 12 -0.5 31.5t-0.5 40.5t-0.5 39.5t-0.5 28.5t9 10h57
q4 0 7 -2t3 -8q0 -22 1 -58t2 -88q1 -14 6.5 -38t14.5 -51t18.5 -54t18 -48t14.5 -31q4 -9 9 0q10 19 22 52t24.5 74t23.5 84.5t19.5 84.5t13.5 72q1 11 13 11h51q6 0 7.5 -4t-0.5 -12q-6 -42 -19.5 -98.5t-32 -119t-42 -122t-48.5 -106.5q-3 -6 -6 -8t-7 -2h-48
q-4 0 -6.5 1.5t-5.5 6.5q-13 23 -26.5 53.5t-25 60t-17.5 51.5q-6 19 -15 0q-4 -16 -11 -35t-15 -38t-16 -36q-7 -15 -14.5 -30t-12.5 -26q-2 -4 -5.5 -6t-7.5 -2h-46q-6 0 -8 1.5t-6 8.5z" />
    <glyph glyph-name="x" unicode="x" horiz-adv-x="392" 
d="M21 0q-4 0 -5.5 3.5t-0.5 7.5t1 6q1 5 8.5 26.5t22 53.5t33.5 68.5t42 71.5q3 5 3 9.5t-4 9.5q-23 32 -41 68.5t-30.5 68.5t-19 52.5l-6.5 20.5q-1 6 4 6h62q4 0 6.5 -1.5t4.5 -8.5q1 -4 8.5 -27.5t19.5 -53.5t27.5 -59t30.5 -45h12.5h11.5q17 16 32 44.5t27 58.5t19 53
t8 28q2 7 4.5 9t9.5 2h50q3 0 5.5 -1.5t1.5 -7.5q-1 -4 -7 -25t-18 -51t-29.5 -64.5t-40.5 -66.5q-7 -7 1 -18q25 -35 44.5 -72t32.5 -69.5t20.5 -54t8.5 -26.5q1 -7 0 -11.5t-7 -4.5h-51q-6 0 -9 2t-5 9q-3 9 -11.5 34t-21.5 57t-29.5 62t-34.5 48h-9h-6h-9
q-20 -25 -37 -59t-30.5 -67t-21 -54.5l-7.5 -21.5q-2 -7 -4.5 -8.5t-7.5 -1.5h-58z" />
    <glyph glyph-name="y" unicode="y" horiz-adv-x="411" 
d="M158 70q-23 34 -44.5 82.5t-39 103.5t-29.5 108.5t-19 95.5q-2 12 8 12h55q6 0 9.5 -3t4.5 -12q2 -25 9.5 -60.5t18.5 -74.5t23 -77t25 -69t24 -48q4 -7 8 -7t5 4q14 25 29 66t30 89t26 95.5t15 85.5q0 7 3.5 9t9.5 2h49q5 0 8 -2t2 -11q-5 -35 -13 -69.5t-17.5 -69
t-21.5 -72.5q-12 -34 -28.5 -81.5t-40.5 -98t-56 -94t-74.5 -70.5t-96.5 -27q-15 0 -28 1.5t-24 4.5q-12 5 -8 15l14 31q3 5 6 5.5t8 -1.5q25 -4 53.5 5t49.5 26q20 14 30.5 26.5t20.5 29.5q5 11 4.5 24t-8.5 26z" />
    <glyph glyph-name="z" unicode="z" horiz-adv-x="359" 
d="M25 18q8 60 36.5 120.5t66.5 121.5q26 43 52.5 80t49.5 64q4 4 4.5 6.5t-6.5 3.5h-174q-4 0 -6 2t-2 6v42q0 6 2 7t7 1h267q7 0 8 -2t1 -9v-33q0 -5 -4 -12.5t-11 -13.5q-22 -19 -46 -48t-45.5 -61t-40.5 -62q-27 -47 -49 -88t-32 -72q-1 -4 0 -9t9 -5h210q5 0 6 -1.5
t1 -6.5v-42q0 -4 -2 -5.5t-8 -1.5h-284q-5 0 -7.5 3t-2.5 15z" />
    <glyph glyph-name="braceleft" unicode="{" horiz-adv-x="420" 
d="M337 -101q0 -7 -2.5 -10.5t-11.5 -3.5h-61q-47 0 -69.5 18t-29 44t-6.5 51v190q0 27 -11 49.5t-28 35.5q-9 7 -23 13.5t-36 6.5q-7 0 -8 4t-1 9v42q0 4 3 6t9 2q43 0 69 29t26 74v175q0 25 6.5 51t29 43.5t69.5 17.5h68q4 0 5.5 -1.5t1.5 -4.5v-36q0 -2 -1.5 -4t-5.5 -2
h-50q-33 0 -42 -17.5t-9 -46.5v-175q0 -28 -11 -55t-31 -47t-48 -30q-3 -1 -4.5 -2.5t-1.5 -2.5q4 -1 12 -5.5t14 -8.5q32 -18 51 -51.5t19 -68.5v-190q0 -28 9 -45.5t42 -17.5h43q8 0 11 -2.5t3 -10.5v-23z" />
    <glyph glyph-name="bar" unicode="|" horiz-adv-x="273" 
d="M165 707q6 0 7.5 -2t1.5 -8v-804q0 -3 -2 -5.5t-7 -2.5h-56q-4 0 -6.5 2.5t-2.5 10.5v800q0 5 2 7t7 2h56z" />
    <glyph glyph-name="braceright" unicode="}" horiz-adv-x="420" 
d="M83 -101v23q0 8 3 10.5t11 2.5h43q34 0 42.5 17.5t8.5 45.5v190q0 35 19.5 68.5t50.5 51.5q6 4 14 8.5t12 5.5q0 1 -1 2.5t-5 2.5q-27 10 -47.5 30t-31.5 47t-11 55v175q0 29 -8.5 46.5t-42.5 17.5h-49q-5 0 -6.5 2t-1.5 4v36q0 3 1.5 4.5t6.5 1.5h67q48 0 70 -17.5
t28.5 -43.5t6.5 -51v-175q0 -45 26 -74t69 -29q6 0 9 -2t3 -6v-42q0 -5 -1 -9t-8 -4q-22 0 -36 -6.5t-23 -13.5q-17 -13 -28 -35.5t-11 -49.5v-190q0 -25 -6.5 -51t-28.5 -44t-70 -18h-61q-9 0 -11.5 3.5t-2.5 10.5z" />
    <glyph glyph-name="asciitilde" unicode="~" horiz-adv-x="492" 
d="M437 596q-21 -21 -48 -36.5t-61 -15.5q-25 0 -46.5 8.5t-41.5 19t-38.5 19t-37.5 8.5q-14 0 -29 -9t-28 -21t-21 -23q-2 -4 -4 -3l-6 3l-23 23q-3 3 -2.5 6t1.5 6q10 14 26.5 30.5t37.5 28.5t44 12q21 0 41 -7t38 -16.5t36.5 -17.5t36.5 -10q12 -2 28.5 2t33.5 12.5
t29 19.5q2 2 4.5 3.5t6.5 -2.5l26 -25q4 -4 2.5 -8t-5.5 -7z" />
    <glyph glyph-name="uni00A0" unicode="&#xa0;" horiz-adv-x="242" 
 />
    <glyph glyph-name="exclamdown" unicode="&#xa1;" horiz-adv-x="234" 
d="M140 252q3 0 4.5 -1t1.5 -7l9 -431q0 -3 -1.5 -5.5t-5.5 -2.5h-64q-7 0 -7 7l9 432q1 5 2.5 6.5t6.5 1.5h45zM79 452q0 17 7.5 26t31.5 9q23 0 32 -9t9 -26t-9 -25.5t-32 -8.5q-24 0 -31.5 8.5t-7.5 25.5z" />
    <glyph glyph-name="cent" unicode="&#xa2;" horiz-adv-x="472" 
d="M267 73q-60 0 -99.5 18.5t-61.5 52t-30.5 77.5t-8.5 94q0 47 9 91t31 78.5t61 54.5t98 20q42 0 72.5 -8.5t51.5 -26.5q5 -5 6.5 -7.5t1.5 -8.5v-43q0 -6 -4 -6.5t-8 3.5q-20 20 -51 28.5t-62 8.5q-39 0 -65 -16.5t-41 -43.5t-22 -59.5t-7 -65.5q0 -56 13 -97.5t42 -64
t78 -22.5q31 0 56 6.5t48 17.5q10 6 14 -4l15 -32q2 -5 1 -7.5t-5 -5.5q-24 -16 -59 -24t-74 -8zM299 106v-192q0 -3 -1.5 -5.5t-6.5 -2.5h-57q-4 0 -6.5 2.5t-2.5 10.5v187h74zM225 520v178q0 5 2 7t7 2h57q5 0 6.5 -2t1.5 -8v-177h-74z" />
    <glyph glyph-name="sterling" unicode="&#xa3;" horiz-adv-x="526" 
d="M356 -13q-36 0 -69 9.5t-71 18.5q-25 6 -48.5 8.5t-46.5 -2.5q-14 -2 -32.5 -5t-33.5 -8q-6 -2 -9.5 -1t-3.5 7v19.5v19.5q0 5 2 8.5t8 6.5q46 18 71.5 47.5t35 67.5t3.5 82h-46.5h-47.5q-5 0 -8 1.5t-3 5.5v17.5v17.5q0 7 2 9t6 2h42.5h42.5q-22 63 -35.5 114t-13.5 85
q0 40 21 76t61.5 59t99.5 23q16 0 37 -3t41.5 -8.5t35.5 -11.5q4 -1 5.5 -6t1.5 -8v-19.5v-20.5q0 -6 -2 -7t-10 2q-23 10 -53 17.5t-50 7.5q-39 0 -64.5 -14t-37.5 -37.5t-12 -49.5q0 -36 13 -84t33 -115h59.5h58.5q5 0 6 -2.5t1 -8.5v-16.5v-17.5q0 -5 -1.5 -6.5
t-6.5 -1.5h-54h-54q0 -6 0.5 -11t1.5 -11q2 -47 -10.5 -89t-44.5 -78q36 -2 65.5 -10t57.5 -15t57 -7q27 0 52 7.5t40 14.5q10 4 10 -6v-33q0 -8 -2 -12t-4 -5q-18 -12 -42.5 -17.5t-54.5 -5.5z" />
    <glyph glyph-name="currency" unicode="&#xa4;" horiz-adv-x="529" 
d="M96 149l-26 25q-3 4 -3.5 6.5t2.5 4.5l83 81q-9 16 -15 33t-6 37q0 19 5.5 37t16.5 34l-73 70q-2 2 -1 5t3 5l27 27q4 3 5.5 2.5t4.5 -2.5l71 -70q16 11 34.5 17t39.5 6q41 0 74 -23l72 70q3 2 5 2.5t5 -2.5l27 -27q3 -2 4 -5t-2 -5l-74 -71q11 -15 16.5 -33t5.5 -37
q0 -38 -21 -70l84 -81q3 -2 2.5 -4.5t-3.5 -6.5l-26 -25q-4 -3 -6 -3t-6 3l-83 79q-32 -22 -74 -22t-74 22l-82 -79q-3 -3 -6 -3t-6 3zM180 336q0 -36 23.5 -59.5t60.5 -23.5q36 0 60 23.5t24 59.5q0 35 -24 59t-60 24q-37 0 -60.5 -24t-23.5 -59z" />
    <glyph glyph-name="yen" unicode="&#xa5;" horiz-adv-x="533" 
d="M316 302q-6 -8 -8.5 -22.5t-2.5 -25.5v-247q0 -3 -2.5 -5t-5.5 -2h-58q-7 0 -7 7v245q0 18 -7 36.5t-15 29.5q-9 12 -21 30t-24.5 38t-22.5 37t-15 27q-28 53 -47 98t-29 75.5t-12 36.5q-2 7 1 10t9 3h55q7 0 10 -11q4 -11 15.5 -40t28 -66t34.5 -74q13 -26 29 -53
t35 -54q6 -8 10 -9.5t11 8.5q11 14 22.5 32t23 37.5t19.5 35.5q18 35 34 73.5t27.5 68.5t14.5 42q2 6 4.5 8t6.5 2h57q4 0 7 -3t1 -10q-1 -6 -10.5 -35.5t-27.5 -74t-46 -96.5q-6 -13 -17.5 -32.5t-24.5 -41.5t-26.5 -42.5t-25.5 -35.5zM95 242q-5 0 -6 2t-1 5v30
q0 5 1.5 6.5t6.5 1.5h339q4 0 5.5 -1.5t1.5 -5.5v-32q0 -3 -1.5 -4.5t-6.5 -1.5h-339zM95 143q-5 0 -6 2t-1 5v30q0 5 1.5 6.5t6.5 1.5h339q4 0 5.5 -1.5t1.5 -6.5v-31q0 -3 -1.5 -4.5t-6.5 -1.5h-339z" />
    <glyph glyph-name="brokenbar" unicode="&#xa6;" horiz-adv-x="273" 
d="M174 281v-388q0 -3 -2 -5.5t-7 -2.5h-56q-4 0 -6.5 2.5t-2.5 10.5v383h74zM100 366v332q0 5 2 7t7 2h56q6 0 7.5 -2t1.5 -8v-331h-74z" />
    <glyph glyph-name="section" unicode="&#xa7;" horiz-adv-x="512" 
d="M67 -197v44q0 5 3 4.5t8 -2.5q18 -6 40 -11.5t43 -8.5t38 -3q62 0 94 34t32 90q0 41 -16 64t-42 35.5t-56 21.5q-25 6 -53 15.5t-52.5 25.5t-39.5 45.5t-15 76.5q0 55 26 96t69.5 63t95.5 22q13 0 36.5 -3t49 -9t42.5 -14q5 -1 7 -4t2 -8v-43q0 -15 -18 -6
q-12 6 -33.5 12.5t-44 11t-37.5 4.5q-36 0 -66.5 -14.5t-48.5 -39.5t-18 -59q1 -34 14.5 -55t33.5 -33t44 -19.5t48 -13.5q27 -8 52 -19t45 -29t31.5 -46.5t11.5 -73.5q0 -59 -23.5 -99.5t-67 -62t-103.5 -21.5q-26 0 -60 6t-63 16q-4 1 -6.5 3.5t-2.5 6.5zM173 98v44
q0 3 5.5 4t12 0t8.5 -2q26 -14 54 -19.5t54 -5.5q53 2 84.5 30.5t31.5 90.5q0 36 -15.5 56t-41.5 31.5t-55 19.5q-26 6 -53.5 15t-51.5 25.5t-38.5 45.5t-14.5 75q0 54 25 88.5t66 50.5t89 16q13 0 35 -2.5t45.5 -8t40.5 -12.5q4 -2 6.5 -4.5t2.5 -5.5v-38q0 -13 -16 -5
q-14 6 -35 12t-41.5 9.5t-33.5 3.5q-53 0 -86 -26.5t-33 -73.5q0 -32 13 -52t33 -31.5t44.5 -18.5t47.5 -14q35 -10 65.5 -26t49.5 -45.5t19 -81.5q0 -63 -24 -102t-64 -56t-92 -17q-32 0 -62 4.5t-65 15.5q-5 2 -7.5 4t-2.5 6z" />
    <glyph glyph-name="dieresis" unicode="&#xa8;" horiz-adv-x="223" 
d="M80 573q0 -16 -8 -24.5t-31 -8.5q-21 0 -29.5 8.5t-8.5 24.5q0 17 8.5 25.5t29.5 8.5q23 0 31 -8.5t8 -25.5zM219 573q0 -16 -7 -24.5t-31 -8.5q-22 0 -30 8.5t-8 24.5q0 17 8 25.5t30 8.5q24 0 31 -8.5t7 -25.5z" />
    <glyph glyph-name="copyright" unicode="&#xa9;" horiz-adv-x="867" 
d="M67 333q0 73 28.5 137.5t78.5 113.5t116.5 77t143.5 28q76 0 142.5 -28t117 -77t79 -113.5t28.5 -137.5q0 -74 -28.5 -139t-79 -114t-117 -77t-142.5 -28q-77 0 -143.5 28t-116.5 77t-78.5 114t-28.5 139zM125 333q0 -63 24 -118.5t66.5 -97t98.5 -65.5t120 -24t119.5 24
t98 65.5t66.5 97t24 118.5q0 62 -24 117t-66.5 96.5t-98 65t-119.5 23.5t-120 -23.5t-98.5 -65t-66.5 -96.5t-24 -117zM259 337q0 65 25.5 107.5t70.5 63.5t102 21q19 0 42 -2.5t44 -7.5q5 -1 8.5 -2.5t3.5 -5.5v-32q0 -7 -13 -2q-19 6 -39 9.5t-39 3.5q-42 0 -74.5 -16.5
t-50.5 -49.5t-18 -85q0 -55 19.5 -96.5t59.5 -60.5t97 -9q13 1 26 5t20 7q9 4 11.5 3t2.5 -5v-27q0 -5 -2.5 -7.5t-7.5 -4.5q-9 -3 -24 -5.5l-27 -4.5q-69 -12 -123 9.5t-84 71t-30 122.5z" />
    <glyph glyph-name="ordfeminine" unicode="&#xaa;" horiz-adv-x="481" 
d="M232 -8q-49 0 -90.5 11.5t-66.5 43t-25 91.5q0 51 17 83.5t45 50t60 24.5t61 7q30 0 59 -3t47 -7q14 -3 14 20q0 60 -29.5 84.5t-92.5 24.5q-39 0 -73 -11t-56 -25q-6 -4 -9 -3t-3 6l-6 38q-1 6 0.5 8.5t5.5 5.5q24 17 60.5 26.5t81.5 9.5q64 0 102 -15t57 -40
t25.5 -57.5t6.5 -68.5q1 -49 0.5 -91t-2.5 -82.5t-6 -83.5q-1 -7 -5.5 -12.5t-18.5 -11.5q-15 -5 -35 -9.5t-42 -7.5t-43 -4.5t-39 -1.5zM237 41q9 0 25.5 1t34.5 5t31 10.5t15 16.5q4 30 6 70t1 75q0 20 -14 24q-13 4 -42 7.5t-63 3.5q-15 0 -34.5 -5t-36.5 -17t-28.5 -35
t-11.5 -59q0 -34 15 -55.5t41.5 -31.5t60.5 -10z" />
    <glyph glyph-name="guillemotleft" unicode="&#xab;" horiz-adv-x="561" 
d="M411 162q-5 0 -8 4q-35 40 -69.5 80.5t-69.5 80.5q-9 10 0 19q35 40 69.5 80.5t69.5 80.5q2 2 4.5 2.5t3.5 0.5h32.5h29.5q6 0 5 -2.5t-3 -4.5q-1 -1 -15.5 -18t-35.5 -42t-41.5 -49.5t-34.5 -41l-14 -16.5l14 -16.5t34.5 -41t41.5 -49t35.5 -42t15.5 -18.5q2 -1 3 -4
t-5 -3h-29.5h-32.5zM202 162q-5 0 -8 4q-35 40 -69.5 80.5t-69.5 80.5q-9 10 0 19q35 40 69.5 80.5t69.5 80.5q2 2 4.5 2.5t3.5 0.5h32.5h29.5q6 0 5 -2.5t-3 -4.5q-1 -1 -15.5 -18t-35.5 -42t-41.5 -49.5t-34.5 -41l-14 -16.5l14 -16.5t34.5 -41t41.5 -49t35.5 -42
t15.5 -18.5q2 -1 3 -4t-5 -3h-29.5h-32.5z" />
    <glyph glyph-name="logicalnot" unicode="&#xac;" horiz-adv-x="667" 
d="M576 104q-4 0 -5.5 1t-1.5 5v179h-512q-5 0 -6 2t-1 5v36q0 4 1.5 5.5t6.5 1.5h552q4 0 5.5 -1t1.5 -5v-223q0 -4 -1.5 -5t-5.5 -1h-34z" />
    <glyph glyph-name="uni00AD" unicode="&#xad;" horiz-adv-x="413" 
d="M74 251q-5 0 -6 2t-1 5v40q0 4 1 5.5t6 1.5h266q4 0 5.5 -1t1.5 -6v-41q0 -3 -1 -4.5t-6 -1.5h-266z" />
    <glyph glyph-name="registered" unicode="&#xae;" horiz-adv-x="709" 
d="M355 189q-56 0 -105.5 20t-86.5 55t-58.5 81.5t-21.5 99.5t21.5 99.5t59 81t86.5 54.5t105 20q75 0 136.5 -34.5t98 -92t36.5 -128.5q0 -53 -21 -99.5t-58.5 -81.5t-86.5 -55t-105 -20zM355 230q63 0 114 29.5t81.5 78t30.5 107.5t-30.5 107.5t-81.5 77t-114 28.5
q-62 0 -114 -28.5t-82.5 -77t-30.5 -107.5t30.5 -107.5t82.5 -78t114 -29.5zM276 311q-4 0 -4 3v267q0 3 4 3h69q53 0 78.5 -19.5t25.5 -66.5q0 -27 -13.5 -46.5t-39.5 -27.5q-5 -3 -6.5 -5.5t0.5 -7.5q7 -16 15 -30t20 -22q9 -7 22 -11t23 -4q4 0 5 -0.5t1 -2.5v-25
q0 -2 -1 -2.5t-9 -0.5q-20 0 -34.5 4t-27.5 13q-19 13 -34.5 33t-19.5 43q-1 2 -2.5 4t-5.5 2h-27q-3 0 -3 -4v-94q0 -3 -4 -3h-32zM312 445q0 -4 3 -4h34q30 0 45.5 13.5t15.5 43.5q0 34 -15 46.5t-51 12.5h-29q-3 0 -3 -4v-108z" />
    <glyph glyph-name="macron" unicode="&#xaf;" horiz-adv-x="213" 
d="M213 546q0 -2 -1 -3t-5 -1h-201q-4 0 -5 1.5t-1 3.5v38q0 4 1.5 5t4.5 1h201q4 0 5 -1t1 -5v-39z" />
    <glyph glyph-name="degree" unicode="&#xb0;" horiz-adv-x="399" 
d="M67 695q0 36 18 65.5t48 47.5t66 18q37 0 67.5 -18t48 -47.5t17.5 -65.5t-17.5 -65.5t-48 -47t-67.5 -17.5q-36 0 -66 17.5t-48 47t-18 65.5zM115 695q0 -36 24 -60t60 -24t60 24t24 60q0 35 -24 58.5t-60 23.5t-60 -23.5t-24 -58.5z" />
    <glyph glyph-name="plusminus" unicode="&#xb1;" horiz-adv-x="450" 
d="M204 151q-5 0 -7 1.5t-2 5.5v131h-138q-4 0 -5.5 2t-1.5 5v36q0 4 1.5 5.5t5.5 1.5h138v131q0 4 2 5.5t6 1.5h42q3 0 4.5 -1.5t1.5 -6.5v-130l143 -1q3 0 4.5 -1.5t1.5 -5.5v-37q0 -2 -1 -3.5t-6 -1.5h-142v-131q0 -4 -2 -5.5t-6 -1.5h-39zM59 50q-6 0 -7.5 2t-1.5 6v34
q0 5 1.5 6.5t7.5 1.5h332q5 0 7 -1.5t2 -5.5v-37q0 -3 -2 -4.5t-8 -1.5h-331z" />
    <glyph glyph-name="uni00B2" unicode="&#xb2;" horiz-adv-x="341" 
d="M40 250q-4 0 -5.5 1t-1.5 5v33q0 7 5 11q34 21 70.5 49t68 60.5t51.5 69.5t20 75q0 42 -26 64t-68 22q-23 0 -44 -6.5t-35.5 -14t-22.5 -10.5q-9 -3 -9 3v39q0 4 1.5 6t7.5 5q13 7 43.5 18t65.5 11q36 0 69 -13.5t54.5 -43.5t21.5 -78q0 -40 -15.5 -75.5t-41.5 -67.5
t-58 -59.5t-66 -51.5q-3 -2 -2 -4t2 -2h177q5 0 5 -4v-36q0 -4 -0.5 -5t-5.5 -1h-261z" />
    <glyph glyph-name="uni00B3" unicode="&#xb3;" horiz-adv-x="332" 
d="M148 247q-35 0 -67.5 13t-53.5 36q-3 3 -2.5 6t2.5 5l21 26q5 7 12 1q18 -18 40.5 -27t46.5 -9q29 0 48.5 11.5t30 30t10.5 36.5q0 28 -24.5 54.5t-73.5 26.5h-8h-9q-7 0 -7 8v32q0 8 7 8h13.5h12.5q37 1 58.5 23t21.5 48q0 25 -19.5 45t-59.5 20q-22 0 -46.5 -9.5
t-41.5 -24.5q-8 -6 -13 2l-18 32q-2 3 -0.5 6t3.5 5q28 21 61 30t59 9q42 0 71 -15.5t44 -40.5t15 -53q0 -32 -17.5 -58.5t-46.5 -39.5q-5 -2 -6.5 -2t-1.5 -1t2.5 -1.5t6.5 -2.5q34 -11 53.5 -36.5t19.5 -63.5q0 -32 -16.5 -62t-49 -49t-78.5 -19z" />
    <glyph glyph-name="acute" unicode="&#xb4;" horiz-adv-x="127" 
d="M6 529q-6 0 -6 2.5t3 6.5l55 88q3 6 13 6h52q3 0 4.5 -2t-2.5 -6l-71 -90q-2 -3 -4.5 -4t-7.5 -1h-36z" />
    <glyph glyph-name="uni00B5" unicode="&#xb5;" horiz-adv-x="525" 
d="M83 -113q-6 0 -8.5 2.5t-3.5 10.5q0 37 -0.5 80.5t-0.5 85.5v74q-1 22 -2 43.5t-1 36.5q0 46 2 92t4 84.5t4 61.5q0 9 3.5 11.5t11.5 2.5h45q7 0 9.5 -2.5t1.5 -9.5q-1 -9 -2 -34.5t-3 -62t-3 -78.5t-1 -83q0 -75 28.5 -111t95.5 -36q46 0 70.5 14t24.5 33v361q0 5 1.5 7
t5.5 2h56q4 0 6 -2t2 -7v-353q0 -32 10.5 -45t29.5 -13q10 0 19 3.5t14 6.5q10 6 14 -3l11 -33q3 -9 -9 -15q-14 -7 -27.5 -11t-33.5 -4q-15 0 -33 6t-31 20t-17 36l24 -6q-25 -28 -62 -42t-79 -14q-50 0 -88.5 20t-56.5 61l20 7q2 -23 3 -47t2 -49q1 -15 2 -33.5t1.5 -33.5
t0.5 -22t-2 -9.5t-9 -2.5h-49z" />
    <glyph glyph-name="paragraph" unicode="&#xb6;" horiz-adv-x="512" 
d="M243 314h-17t-17 1q-39 1 -68.5 18t-50 44t-30.5 58.5t-10 62.5q0 48 18.5 87.5t58.5 63.5t102 24h119h118q5 0 7 -1.5t2 -6.5v-35q0 -6 -1.5 -8t-5.5 -2h-18.5h-18.5v-165v-181.5v-181v-165.5q0 -5 -1 -6t-5 -1h-46q-5 0 -6.5 1t-1.5 6v164.5v180v180v164.5q0 3 -6 4
h-28h-29q-5 0 -5 -5v-688q0 -5 -0.5 -6t-4.5 -1h-50q-3 0 -4 1t-1 6v387z" />
    <glyph glyph-name="periodcentered" unicode="&#xb7;" horiz-adv-x="295" 
d="M168 277q0 -18 -7.5 -26.5t-33.5 -8.5q-22 0 -31 8.5t-9 26.5q0 17 9 25.5t31 8.5q26 0 33.5 -8.5t7.5 -25.5z" />
    <glyph glyph-name="cedilla" unicode="&#xb8;" horiz-adv-x="193" 
d="M170 -122q0 -28 -23 -50t-64 -22q-26 0 -47 10.5t-32 25.5q-4 5 -3.5 9.5t4.5 6.5l18 9q7 3 9 2.5t4 -4.5q7 -9 19.5 -16t24.5 -7q22 0 32.5 12t10.5 25q0 16 -11 24t-28 11t-34 4q-6 0 -8.5 5t1.5 11l36 60q3 5 6.5 6t6.5 1h21q10 0 5 -8l-29 -63l-11 16q40 -2 66 -18
t26 -50z" />
    <glyph glyph-name="uni00B9" unicode="&#xb9;" horiz-adv-x="179" 
d="M81 250q-6 0 -6 6v361q0 6 -6 2l-73 -39q-2 -1 -4.5 -1t-4.5 3l-17 30q-4 6 2 10l112 62q4 2 6.5 2.5t6.5 0.5h31q6 0 6 -6v-425q0 -6 -6 -6h-47z" />
    <glyph glyph-name="ordmasculine" unicode="&#xba;" horiz-adv-x="493" 
d="M246 -6q-81 0 -126 31t-62.5 86t-17.5 126q0 70 19.5 124.5t64.5 85.5t122 31q78 0 123 -31t64.5 -85.5t19.5 -124.5t-17.5 -125t-62 -86.5t-127.5 -31.5zM246 51q75 0 104.5 48.5t29.5 136.5t-32 135t-102 47q-69 0 -101.5 -47t-32.5 -135q0 -89 30 -137t104 -48z" />
    <glyph glyph-name="guillemotright" unicode="&#xbb;" horiz-adv-x="569" 
d="M305 162q-6 0 -4.5 3t2.5 4t16 18.5l36 42t41 49t34 41l14 16.5l-14 16.5t-34 41t-41 49.5t-36 42t-16 18q-1 2 -2.5 4.5t4.5 2.5h30h33q2 0 3.5 -0.5t4.5 -2.5q34 -40 68.5 -80.5t69.5 -80.5q10 -9 0 -19q-35 -40 -69.5 -80.5t-68.5 -80.5q-4 -4 -8 -4h-33h-30zM88 162
q-6 0 -4.5 3t2.5 4t16 18.5t35.5 42l41 49t34.5 41l14 16.5l-14 16.5t-34.5 41t-41 49.5t-35.5 42t-16 18q-1 2 -2.5 4.5t4.5 2.5h30h33q2 0 3.5 -0.5t4.5 -2.5q34 -40 68.5 -80.5t69.5 -80.5q10 -9 0 -19q-35 -40 -69.5 -80.5t-68.5 -80.5q-4 -4 -8 -4h-33h-30z" />
    <glyph glyph-name="onequarter" unicode="&#xbc;" horiz-adv-x="771" 
d="M181 245q-5 0 -5 5v388q0 6 -6 3l-78 -45q-6 -3 -8 2l-15 25q-3 5 2 8l111 64l6 3t6 1h26q6 0 6 -6v-443q0 -5 -6 -5h-39zM598 -2q-5 0 -5 5v115q0 7 -7 7h-185q-5 0 -5 5v25q0 4 2 7.5t3 5.5l192 285q2 4 4.5 5.5t4.5 1.5h33q5 0 5 -6v-283q0 -7 7 -7h46q4 0 4 -4v-31
q0 -4 -4 -4h-46q-7 0 -7 -7v-115q0 -5 -4 -5h-38zM458 164h128q7 0 7 7v205q0 3 -1.5 3.5t-2.5 -2.5l-135 -205q-2 -4 -1.5 -6t5.5 -2zM170 0q-7 0 -7 3.5t2 6.5l397 682q3 6 5 7t7 1h33q6 0 7.5 -2.5t-4.5 -13.5l-391 -674q-3 -4 -6.5 -7t-8.5 -3h-34z" />
    <glyph glyph-name="onehalf" unicode="&#xbd;" horiz-adv-x="832" 
d="M163 0q-7 0 -7 3.5t3 6.5l396 682q3 6 5 7t7 1h33q6 0 7.5 -2.5t-3.5 -13.5l-392 -674q-3 -4 -6 -7t-8 -3h-35zM181 245q-5 0 -5 5v388q0 6 -6 3l-78 -45q-6 -3 -8 2l-15 25q-3 5 2 8l111 64l6 3t6 1h26q6 0 6 -6v-443q0 -5 -6 -5h-39zM490 0q-4 0 -5 1t-1 4v29q0 6 4 8
q34 23 71 52.5t69.5 63.5t52.5 73t20 81q0 32 -13 52.5t-35 30.5t-49 10q-23 0 -43 -6.5t-33.5 -13.5t-20.5 -9q-11 -4 -11 1v32q0 4 1.5 6t6.5 4q7 5 23.5 12t37 12t43.5 5q35 0 67 -14t52.5 -43.5t20.5 -76.5q0 -43 -16 -81t-43.5 -72t-61 -63t-69.5 -54q-1 -2 -0.5 -3.5
t3.5 -1.5h185q4 0 4 -4v-30q0 -4 -1 -4.5t-4 -0.5h-255z" />
    <glyph glyph-name="threequarters" unicode="&#xbe;" horiz-adv-x="798" 
d="M625 -2q-5 0 -5 5v115q0 7 -7 7h-184q-6 0 -6 5v25q0 4 2 7.5t4 5.5l192 285q2 4 4 5.5t5 1.5h32q5 0 5 -6v-283q0 -7 7 -7h46q4 0 4 -4v-31q0 -4 -4 -4h-46q-7 0 -7 -7v-115q0 -5 -4 -5h-38zM485 164h128q7 0 7 7v205q0 3 -1.5 3.5t-2.5 -2.5l-135 -205q-2 -4 -1.5 -6
t5.5 -2zM167 253q-21 0 -42.5 5.5t-40 15.5t-31.5 24q-2 3 -2 5t2 5l17 21q5 6 9 1q18 -18 40.5 -27t46.5 -9q29 0 49.5 13t31.5 33t11 40q0 21 -11.5 41t-33.5 33t-55 13h-7.5h-6.5t-4.5 1.5t-1.5 5.5v27q0 6 6 6h8h13q27 1 46 13t28.5 30t9.5 36q0 19 -9 35t-27 26.5
t-46 10.5q-21 0 -45.5 -10t-41.5 -23q-6 -6 -10 1l-15 26q-2 2 -1 4.5t2 3.5q18 13 38 21.5t39.5 12.5t36.5 4q40 0 67.5 -15.5t41.5 -40t14 -52.5q0 -31 -16 -57.5t-46 -41.5q-8 -2 -8 -3t9 -5q34 -13 52.5 -39t18.5 -63q0 -32 -16 -61.5t-46.5 -48t-73.5 -18.5zM193 0
q-7 0 -7 3.5t2 6.5l397 682q3 6 4.5 7t6.5 1h34q6 0 7.5 -2.5t-4.5 -13.5l-391 -674q-3 -4 -6.5 -7t-8.5 -3h-34z" />
    <glyph glyph-name="questiondown" unicode="&#xbf;" horiz-adv-x="448" 
d="M320 303q7 0 7.5 -3t0.5 -9q0 -51 -7.5 -86t-22 -59.5t-36 -43t-49.5 -38.5q-14 -10 -30 -22t-29 -26t-21 -30.5t-7 -36.5q1 -40 31.5 -62.5t80.5 -22.5q38 0 71.5 9t53.5 18q8 4 10 4.5t4 -6.5l12 -40q2 -5 -1.5 -8.5t-8.5 -6.5q-26 -15 -65 -22.5t-73 -7.5
q-83 0 -133 40t-50 107q0 48 18 76.5t43.5 46t48.5 32.5q37 24 58 49t30 58t9 80q0 6 1.5 8t4.5 2h49zM336 452q0 -17 -9 -25.5t-31 -8.5q-24 0 -31.5 8.5t-7.5 25.5t7.5 26t31.5 9q22 0 31 -9t9 -26z" />
    <glyph glyph-name="Agrave" unicode="&#xc0;" horiz-adv-x="553" 
d="M45 0q-5 0 -6 3.5t0 13.5q7 47 21 113t33 141t40.5 149t44.5 137.5t44 105.5q3 5 6 7.5t7 2.5h82q5 -1 8.5 -3t6.5 -8q20 -40 42.5 -104t44.5 -139t41.5 -151t33.5 -141.5t20 -109.5q2 -10 1 -13.5t-7 -3.5h-57q-4 0 -5.5 2.5t-4.5 11.5q-4 27 -11 63.5t-15 74.5
q-1 6 -3.5 8t-9.5 2h-252q-6 -1 -8 -2.5t-4 -8.5q-8 -37 -15 -73.5t-12 -64.5q-1 -8 -2.5 -10.5t-6.5 -2.5h-57zM165 220h221q5 0 7.5 3t0.5 12q-22 85 -44.5 171t-54.5 164q-2 6 -9 6h-19q-6 0 -8 -7q-16 -39 -34.5 -95.5t-35.5 -119.5t-31 -123q-1 -4 0 -7.5t7 -3.5z
M280 719q-4 0 -6.5 2t-6.5 5l-85 73q-2 2 -0.5 4.5t3.5 2.5h58q5 0 7.5 -1.5t6.5 -5.5l64 -71q3 -3 3 -6t-5 -3h-39z" />
    <glyph glyph-name="Aacute" unicode="&#xc1;" horiz-adv-x="553" 
d="M45 0q-5 0 -6 3.5t0 13.5q7 47 21 113t33 141t40.5 149t44.5 137.5t44 105.5q3 5 6 7.5t7 2.5h82q5 -1 8.5 -3t6.5 -8q20 -40 42.5 -104t44.5 -139t41.5 -151t33.5 -141.5t20 -109.5q2 -10 1 -13.5t-7 -3.5h-57q-4 0 -5.5 2.5t-4.5 11.5q-4 27 -11 63.5t-15 74.5
q-1 6 -3.5 8t-9.5 2h-252q-6 -1 -8 -2.5t-4 -8.5q-8 -37 -15 -73.5t-12 -64.5q-1 -8 -2.5 -10.5t-6.5 -2.5h-57zM165 220h221q5 0 7.5 3t0.5 12q-22 85 -44.5 171t-54.5 164q-2 6 -9 6h-19q-6 0 -8 -7q-16 -39 -34.5 -95.5t-35.5 -119.5t-31 -123q-1 -4 0 -7.5t7 -3.5z
M270 719h-38q-5 0 -5 3t3 6l64 71q4 4 6.5 5.5t7.5 1.5h58q3 0 4.5 -2.5t-1.5 -4.5l-85 -73q-4 -3 -7 -5t-7 -2z" />
    <glyph glyph-name="Acircumflex" unicode="&#xc2;" horiz-adv-x="553" 
d="M45 0q-5 0 -6 3.5t0 13.5q7 47 21 113t33 141t40.5 149t44.5 137.5t44 105.5q3 5 6 7.5t7 2.5h82q5 -1 8.5 -3t6.5 -8q20 -40 42.5 -104t44.5 -139t41.5 -151t33.5 -141.5t20 -109.5q2 -10 1 -13.5t-7 -3.5h-57q-4 0 -5.5 2.5t-4.5 11.5q-4 27 -11 63.5t-15 74.5
q-1 6 -3.5 8t-9.5 2h-252q-6 -1 -8 -2.5t-4 -8.5q-8 -37 -15 -73.5t-12 -64.5q-1 -8 -2.5 -10.5t-6.5 -2.5h-57zM165 220h221q5 0 7.5 3t0.5 12q-22 85 -44.5 171t-54.5 164q-2 6 -9 6h-19q-6 0 -8 -7q-16 -39 -34.5 -95.5t-35.5 -119.5t-31 -123q-1 -4 0 -7.5t7 -3.5z
M183 718q-4 0 -4.5 2.5t0.5 4.5l68 78q3 4 7 4h45q5 0 8 -4l67 -78q2 -2 1.5 -4.5t-4.5 -2.5h-33q-4 0 -6 1.5t-6 3.5l-44 41q-4 3 -9 0l-46 -42q-2 -1 -4 -2.5t-6 -1.5h-34z" />
    <glyph glyph-name="Atilde" unicode="&#xc3;" horiz-adv-x="553" 
d="M45 0q-5 0 -6 3.5t0 13.5q7 47 21 113t33 141t40.5 149t44.5 137.5t44 105.5q3 5 6 7.5t7 2.5h82q5 -1 8.5 -3t6.5 -8q20 -40 42.5 -104t44.5 -139t41.5 -151t33.5 -141.5t20 -109.5q2 -10 1 -13.5t-7 -3.5h-57q-4 0 -5.5 2.5t-4.5 11.5q-4 27 -11 63.5t-15 74.5
q-1 6 -3.5 8t-9.5 2h-252q-6 -1 -8 -2.5t-4 -8.5q-8 -37 -15 -73.5t-12 -64.5q-1 -8 -2.5 -10.5t-6.5 -2.5h-57zM165 220h221q5 0 7.5 3t0.5 12q-22 85 -44.5 171t-54.5 164q-2 6 -9 6h-19q-6 0 -8 -7q-16 -39 -34.5 -95.5t-35.5 -119.5t-31 -123q-1 -4 0 -7.5t7 -3.5z
M186 720q-5 0 -5 5q0 31 15.5 50t41.5 19q14 0 28.5 -9.5t27.5 -19t22 -9.5q6 0 11 7.5t5 17.5q0 7 4 7h31q5 0 5 -6q0 -26 -15.5 -47t-40.5 -21q-17 0 -31.5 10t-26 19t-20.5 9q-8 0 -12.5 -7.5t-4.5 -18.5q0 -6 -5 -6h-30z" />
    <glyph glyph-name="Adieresis" unicode="&#xc4;" horiz-adv-x="553" 
d="M45 0q-5 0 -6 3.5t0 13.5q7 47 21 113t33 141t40.5 149t44.5 137.5t44 105.5q3 5 6 7.5t7 2.5h82q5 -1 8.5 -3t6.5 -8q20 -40 42.5 -104t44.5 -139t41.5 -151t33.5 -141.5t20 -109.5q2 -10 1 -13.5t-7 -3.5h-57q-4 0 -5.5 2.5t-4.5 11.5q-4 27 -11 63.5t-15 74.5
q-1 6 -3.5 8t-9.5 2h-252q-6 -1 -8 -2.5t-4 -8.5q-8 -37 -15 -73.5t-12 -64.5q-1 -8 -2.5 -10.5t-6.5 -2.5h-57zM165 220h221q5 0 7.5 3t0.5 12q-22 85 -44.5 171t-54.5 164q-2 6 -9 6h-19q-6 0 -8 -7q-16 -39 -34.5 -95.5t-35.5 -119.5t-31 -123q-1 -4 0 -7.5t7 -3.5z
M246 773q0 -16 -8 -24.5t-31 -8.5q-21 0 -29.5 8.5t-8.5 24.5q0 17 8.5 25.5t29.5 8.5q23 0 31 -8.5t8 -25.5zM385 773q0 -16 -7 -24.5t-31 -8.5q-22 0 -30 8.5t-8 24.5q0 17 8 25.5t30 8.5q24 0 31 -8.5t7 -25.5z" />
    <glyph glyph-name="Aring" unicode="&#xc5;" horiz-adv-x="553" 
d="M45 0q-5 0 -6 3.5t0 13.5q7 47 21 113t33 141t40.5 149t44.5 137.5t44 105.5q3 5 6 7.5t7 2.5h82q5 -1 8.5 -3t6.5 -8q20 -40 42.5 -104t44.5 -139t41.5 -151t33.5 -141.5t20 -109.5q2 -10 1 -13.5t-7 -3.5h-57q-4 0 -5.5 2.5t-4.5 11.5q-4 27 -11 63.5t-15 74.5
q-1 6 -3.5 8t-9.5 2h-252q-6 -1 -8 -2.5t-4 -8.5q-8 -37 -15 -73.5t-12 -64.5q-1 -8 -2.5 -10.5t-6.5 -2.5h-57zM165 220h221q5 0 7.5 3t0.5 12q-22 85 -44.5 171t-54.5 164q-2 6 -9 6h-19q-6 0 -8 -7q-16 -39 -34.5 -95.5t-35.5 -119.5t-31 -123q-1 -4 0 -7.5t7 -3.5z
M360 790q0 -35 -19.5 -56.5t-63.5 -21.5q-46 0 -65 21.5t-19 56.5q0 34 19 55t65 21q44 0 63.5 -21t19.5 -55zM323 792q0 16 -8 26.5t-37 10.5q-30 0 -38.5 -10.5t-8.5 -26.5q0 -14 8 -28t39 -14q32 0 38.5 14t6.5 28z" />
    <glyph glyph-name="AE" unicode="&#xc6;" horiz-adv-x="771" 
d="M397 0q-7 0 -7 7v155h-234q-5 -1 -7.5 -2.5t-5.5 -8.5q-12 -37 -22 -73.5t-15 -64.5q-1 -8 -2.5 -10.5t-6.5 -2.5h-57q-5 0 -6 3.5t0 13.5q7 47 28 112.5t51 139t65.5 147t71 138t66.5 109.5q3 5 7 7.5t8 2.5h381q6 0 7.5 -1.5t1.5 -6.5v-42q0 -6 -1.5 -7.5t-7.5 -1.5
h-242q-5 0 -6.5 -1.5t-1.5 -5.5v-231q0 -4 2 -6t6 -2h198q6 0 7.5 -1.5t1.5 -8.5v-38q0 -6 -1.5 -8t-7.5 -2h-198q-5 0 -6.5 -1.5t-1.5 -5.5v-236q0 -4 1.5 -6.5t6.5 -2.5h241q7 0 8.5 -1.5t1.5 -7.5v-39q0 -7 -2 -8.5t-8 -1.5h-314zM390 220v373q-2 5 -5 5h-25q-3 0 -5 -1
t-5 -6q-25 -39 -57 -99.5t-64 -129t-59 -132.5q-1 -1 0 -5.5t6 -4.5h214z" />
    <glyph glyph-name="Ccedilla" unicode="&#xc7;" horiz-adv-x="450" 
d="M415 21q0 -13 -16 -18q-14 -5 -33.5 -7.5t-37.5 -3.5t-28 -1q-112 0 -180.5 86.5t-68.5 257.5q0 172 66 258.5t183 86.5q10 0 28 -1.5t37.5 -4t33.5 -6.5q8 -2 12 -6t4 -9v-48q0 -16 -15 -7q-14 9 -38.5 16t-54.5 7q-53 0 -88 -22.5t-55.5 -61t-29 -87t-8.5 -101.5
q0 -36 4 -76.5t14.5 -80t31 -72t52.5 -52t79 -19.5q32 0 56 7t36 14q9 6 12.5 4.5t3.5 -10.5v-43zM367 -122q0 -28 -23 -50t-64 -22q-26 0 -47 10.5t-32 25.5q-4 5 -3.5 9.5t4.5 6.5l18 9q7 3 9 2.5t4 -4.5q7 -9 19.5 -16t24.5 -7q22 0 32.5 12t10.5 25q0 16 -11 24t-28 11
t-34 4q-6 0 -8.5 5t1.5 11l36 60q3 5 6.5 6t6.5 1h21q10 0 5 -8l-29 -63l-11 16q40 -2 66 -18t26 -50z" />
    <glyph glyph-name="Egrave" unicode="&#xc8;" horiz-adv-x="446" 
d="M88 0q-8 0 -8 7v658q0 8 8 8h315q6 0 7 -1.5t1 -6.5v-42q0 -6 -1.5 -7.5t-6.5 -1.5h-243q-5 0 -6 -1.5t-1 -5.5v-231q0 -4 2 -6t5 -2h198q6 0 7.5 -1.5t1.5 -8.5v-38q0 -6 -1.5 -8t-7.5 -2h-198q-5 0 -6 -1.5t-1 -5.5v-236q0 -4 1 -6.5t6 -2.5h242q7 0 8 -1.5t1 -7.5v-39
q0 -7 -1.5 -8.5t-7.5 -1.5h-314zM244 719q-4 0 -6.5 2t-6.5 5l-85 73q-2 2 -0.5 4.5t3.5 2.5h58q5 0 7.5 -1.5t6.5 -5.5l64 -71q3 -3 3 -6t-5 -3h-39z" />
    <glyph glyph-name="Eacute" unicode="&#xc9;" horiz-adv-x="446" 
d="M88 0q-8 0 -8 7v658q0 8 8 8h315q6 0 7 -1.5t1 -6.5v-42q0 -6 -1.5 -7.5t-6.5 -1.5h-243q-5 0 -6 -1.5t-1 -5.5v-231q0 -4 2 -6t5 -2h198q6 0 7.5 -1.5t1.5 -8.5v-38q0 -6 -1.5 -8t-7.5 -2h-198q-5 0 -6 -1.5t-1 -5.5v-236q0 -4 1 -6.5t6 -2.5h242q7 0 8 -1.5t1 -7.5v-39
q0 -7 -1.5 -8.5t-7.5 -1.5h-314zM234 719h-38q-5 0 -5 3t3 6l64 71q4 4 6.5 5.5t7.5 1.5h58q3 0 4.5 -2.5t-1.5 -4.5l-85 -73q-4 -3 -7 -5t-7 -2z" />
    <glyph glyph-name="Ecircumflex" unicode="&#xca;" horiz-adv-x="446" 
d="M88 0q-8 0 -8 7v658q0 8 8 8h315q6 0 7 -1.5t1 -6.5v-42q0 -6 -1.5 -7.5t-6.5 -1.5h-243q-5 0 -6 -1.5t-1 -5.5v-231q0 -4 2 -6t5 -2h198q6 0 7.5 -1.5t1.5 -8.5v-38q0 -6 -1.5 -8t-7.5 -2h-198q-5 0 -6 -1.5t-1 -5.5v-236q0 -4 1 -6.5t6 -2.5h242q7 0 8 -1.5t1 -7.5v-39
q0 -7 -1.5 -8.5t-7.5 -1.5h-314zM147 718q-4 0 -4.5 2.5t0.5 4.5l68 78q3 4 7 4h45q5 0 8 -4l67 -78q2 -2 1.5 -4.5t-4.5 -2.5h-33q-4 0 -6 1.5t-6 3.5l-44 41q-4 3 -9 0l-46 -42q-2 -1 -4 -2.5t-6 -1.5h-34z" />
    <glyph glyph-name="Edieresis" unicode="&#xcb;" horiz-adv-x="446" 
d="M88 0q-8 0 -8 7v658q0 8 8 8h315q6 0 7 -1.5t1 -6.5v-42q0 -6 -1.5 -7.5t-6.5 -1.5h-243q-5 0 -6 -1.5t-1 -5.5v-231q0 -4 2 -6t5 -2h198q6 0 7.5 -1.5t1.5 -8.5v-38q0 -6 -1.5 -8t-7.5 -2h-198q-5 0 -6 -1.5t-1 -5.5v-236q0 -4 1 -6.5t6 -2.5h242q7 0 8 -1.5t1 -7.5v-39
q0 -7 -1.5 -8.5t-7.5 -1.5h-314zM209 773q0 -16 -8 -24.5t-31 -8.5q-21 0 -29.5 8.5t-8.5 24.5q0 17 8.5 25.5t29.5 8.5q23 0 31 -8.5t8 -25.5zM348 773q0 -16 -7 -24.5t-31 -8.5q-22 0 -30 8.5t-8 24.5q0 17 8 25.5t30 8.5q24 0 31 -8.5t7 -25.5z" />
    <glyph glyph-name="Igrave" unicode="&#xcc;" horiz-adv-x="232" 
d="M153 7q0 -7 -8 -7h-58q-7 0 -7 7v658q0 8 7 8h58q8 0 8 -8v-658zM120 719q-4 0 -6.5 2t-6.5 5l-85 73q-2 2 -0.5 4.5t3.5 2.5h58q5 0 7.5 -1.5t6.5 -5.5l64 -71q3 -3 3 -6t-5 -3h-39z" />
    <glyph glyph-name="Iacute" unicode="&#xcd;" horiz-adv-x="232" 
d="M153 7q0 -7 -8 -7h-58q-7 0 -7 7v658q0 8 7 8h58q8 0 8 -8v-658zM110 719h-38q-5 0 -5 3t3 6l64 71q4 4 6.5 5.5t7.5 1.5h58q3 0 4.5 -2.5t-1.5 -4.5l-85 -73q-4 -3 -7 -5t-7 -2z" />
    <glyph glyph-name="Icircumflex" unicode="&#xce;" horiz-adv-x="232" 
d="M153 7q0 -7 -8 -7h-58q-7 0 -7 7v658q0 8 7 8h58q8 0 8 -8v-658zM23 718q-4 0 -4.5 2.5t0.5 4.5l68 78q3 4 7 4h45q5 0 8 -4l67 -78q2 -2 1.5 -4.5t-4.5 -2.5h-33q-4 0 -6 1.5t-6 3.5l-44 41q-4 3 -9 0l-46 -42q-2 -1 -4 -2.5t-6 -1.5h-34z" />
    <glyph glyph-name="Idieresis" unicode="&#xcf;" horiz-adv-x="232" 
d="M153 7q0 -7 -8 -7h-58q-7 0 -7 7v658q0 8 7 8h58q8 0 8 -8v-658zM85 773q0 -16 -8 -24.5t-31 -8.5q-21 0 -29.5 8.5t-8.5 24.5q0 17 8.5 25.5t29.5 8.5q23 0 31 -8.5t8 -25.5zM224 773q0 -16 -7 -24.5t-31 -8.5q-22 0 -30 8.5t-8 24.5q0 17 8 25.5t30 8.5q24 0 31 -8.5
t7 -25.5z" />
    <glyph glyph-name="Eth" unicode="&#xd0;" horiz-adv-x="566" 
d="M546 347q0 -88 -16.5 -149t-43.5 -100t-59 -60.5t-63.5 -29.5t-57.5 -8h-199q-8 0 -8 7v658q0 8 8 8h199q31 0 64.5 -6t65 -24.5t56.5 -54.5t39.5 -94.5t14.5 -146.5zM474 347q0 93 -16.5 147t-42 80t-54.5 33t-54 7h-128q-5 0 -6 -1.5t-1 -4.5v-543q0 -4 1 -5.5t5 -1.5
h112q27 0 58 10.5t60 40.5t47.5 87t18.5 151zM19 298q-5 0 -6 2t-1 5v40q0 4 1 5.5t6 1.5h266q4 0 5.5 -1t1.5 -6v-41q0 -3 -1 -4.5t-6 -1.5h-266z" />
    <glyph glyph-name="Ntilde" unicode="&#xd1;" horiz-adv-x="641" 
d="M475 157q2 -4 6.5 -3.5t4.5 6.5q3 35 4.5 84t2 105t-0.5 113t-4.5 109t-8.5 93q-1 9 5 9h58q3 0 6 -2t3 -6q6 -35 9.5 -87.5t4.5 -115.5t0.5 -129t-2.5 -128t-5 -113.5t-7 -84.5q-1 -4 -4.5 -5.5t-7.5 -1.5h-39q-5 0 -9 9l-327 510q-1 4 -4.5 4t-4.5 -5q-2 -45 -4 -98.5
t-2.5 -111.5t1 -113.5t4 -103.5t7.5 -82q0 -9 -5 -9h-57q-4 0 -7 1.5t-4 5.5q-4 34 -7 86t-4.5 114.5t-1.5 128.5t2 128.5t5 115t9 85.5q0 4 3.5 6t5.5 2h40q5 0 8 -7zM227 720q-5 0 -5 5q0 31 15.5 50t41.5 19q14 0 28.5 -9.5t27.5 -19t22 -9.5q6 0 11 7.5t5 17.5q0 7 4 7
h31q5 0 5 -6q0 -26 -15.5 -47t-40.5 -21q-17 0 -31.5 10t-26 19t-20.5 9q-8 0 -12.5 -7.5t-4.5 -18.5q0 -6 -5 -6h-30z" />
    <glyph glyph-name="Ograve" unicode="&#xd2;" horiz-adv-x="628" 
d="M51 334q0 111 22.5 187.5t79.5 115.5t160 39q80 0 131.5 -22.5t80.5 -65.5t40 -107t11 -147t-11 -146.5t-40 -107t-80.5 -65.5t-131.5 -22q-103 0 -160 39t-79.5 115t-22.5 187zM127 334q0 -109 19.5 -169.5t60 -84.5t104.5 -24q65 0 106.5 24t62.5 84t21 170t-21 171
t-62.5 85.5t-106.5 24.5q-64 0 -104.5 -25t-60 -85.5t-19.5 -170.5zM317 719q-4 0 -6.5 2t-6.5 5l-85 73q-2 2 -0.5 4.5t3.5 2.5h58q5 0 7.5 -1.5t6.5 -5.5l64 -71q3 -3 3 -6t-5 -3h-39z" />
    <glyph glyph-name="Oacute" unicode="&#xd3;" horiz-adv-x="628" 
d="M51 334q0 111 22.5 187.5t79.5 115.5t160 39q80 0 131.5 -22.5t80.5 -65.5t40 -107t11 -147t-11 -146.5t-40 -107t-80.5 -65.5t-131.5 -22q-103 0 -160 39t-79.5 115t-22.5 187zM127 334q0 -109 19.5 -169.5t60 -84.5t104.5 -24q65 0 106.5 24t62.5 84t21 170t-21 171
t-62.5 85.5t-106.5 24.5q-64 0 -104.5 -25t-60 -85.5t-19.5 -170.5zM308 719h-38q-5 0 -5 3t3 6l64 71q4 4 6.5 5.5t7.5 1.5h58q3 0 4.5 -2.5t-1.5 -4.5l-85 -73q-4 -3 -7 -5t-7 -2z" />
    <glyph glyph-name="Ocircumflex" unicode="&#xd4;" horiz-adv-x="628" 
d="M51 334q0 111 22.5 187.5t79.5 115.5t160 39q80 0 131.5 -22.5t80.5 -65.5t40 -107t11 -147t-11 -146.5t-40 -107t-80.5 -65.5t-131.5 -22q-103 0 -160 39t-79.5 115t-22.5 187zM127 334q0 -109 19.5 -169.5t60 -84.5t104.5 -24q65 0 106.5 24t62.5 84t21 170t-21 171
t-62.5 85.5t-106.5 24.5q-64 0 -104.5 -25t-60 -85.5t-19.5 -170.5zM221 718q-4 0 -4.5 2.5t0.5 4.5l68 78q3 4 7 4h45q5 0 8 -4l67 -78q2 -2 1.5 -4.5t-4.5 -2.5h-33q-4 0 -6 1.5t-6 3.5l-44 41q-4 3 -9 0l-46 -42q-2 -1 -4 -2.5t-6 -1.5h-34z" />
    <glyph glyph-name="Otilde" unicode="&#xd5;" horiz-adv-x="628" 
d="M51 334q0 111 22.5 187.5t79.5 115.5t160 39q80 0 131.5 -22.5t80.5 -65.5t40 -107t11 -147t-11 -146.5t-40 -107t-80.5 -65.5t-131.5 -22q-103 0 -160 39t-79.5 115t-22.5 187zM127 334q0 -109 19.5 -169.5t60 -84.5t104.5 -24q65 0 106.5 24t62.5 84t21 170t-21 171
t-62.5 85.5t-106.5 24.5q-64 0 -104.5 -25t-60 -85.5t-19.5 -170.5zM224 720q-5 0 -5 5q0 31 15.5 50t41.5 19q14 0 28.5 -9.5t27.5 -19t22 -9.5q6 0 11 7.5t5 17.5q0 7 4 7h31q5 0 5 -6q0 -26 -15.5 -47t-40.5 -21q-17 0 -31.5 10t-26 19t-20.5 9q-8 0 -12.5 -7.5
t-4.5 -18.5q0 -6 -5 -6h-30z" />
    <glyph glyph-name="Odieresis" unicode="&#xd6;" horiz-adv-x="628" 
d="M51 334q0 111 22.5 187.5t79.5 115.5t160 39q80 0 131.5 -22.5t80.5 -65.5t40 -107t11 -147t-11 -146.5t-40 -107t-80.5 -65.5t-131.5 -22q-103 0 -160 39t-79.5 115t-22.5 187zM127 334q0 -109 19.5 -169.5t60 -84.5t104.5 -24q65 0 106.5 24t62.5 84t21 170t-21 171
t-62.5 85.5t-106.5 24.5q-64 0 -104.5 -25t-60 -85.5t-19.5 -170.5zM283 773q0 -16 -8 -24.5t-31 -8.5q-21 0 -29.5 8.5t-8.5 24.5q0 17 8.5 25.5t29.5 8.5q23 0 31 -8.5t8 -25.5zM422 773q0 -16 -7 -24.5t-31 -8.5q-22 0 -30 8.5t-8 24.5q0 17 8 25.5t30 8.5q24 0 31 -8.5
t7 -25.5z" />
    <glyph glyph-name="multiply" unicode="&#xd7;" horiz-adv-x="476" 
d="M43 145l-3 6t2 5l157 151l-145 141q-3 2 -2 5t4 4l27 28q3 2 5 2t4 -2l146 -142l146 142q3 2 4.5 2t4.5 -2l28 -28q3 -1 3.5 -4t-1.5 -5l-145 -141l156 -151q3 -3 2.5 -5t-4.5 -6l-26 -25q-3 -3 -5.5 -3t-5.5 3l-157 151l-157 -151q-3 -3 -5.5 -3t-6.5 3z" />
    <glyph glyph-name="Oslash" unicode="&#xd8;" horiz-adv-x="628" 
d="M143 -42q-2 -4 -4.5 -6t-7.5 -2h-52q-3 0 -3.5 2.5t1.5 5.5l398 750q2 4 4.5 5t5.5 1h50q5 0 5.5 -2.5t-4.5 -11.5zM51 334q0 111 22.5 187.5t79.5 115.5t160 39q80 0 131.5 -22.5t80.5 -65.5t40 -107t11 -147t-11 -146.5t-40 -107t-80.5 -65.5t-131.5 -22
q-103 0 -160 39t-79.5 115t-22.5 187zM127 334q0 -109 19.5 -169.5t60 -84.5t104.5 -24q65 0 106.5 24t62.5 84t21 170t-21 171t-62.5 85.5t-106.5 24.5q-64 0 -104.5 -25t-60 -85.5t-19.5 -170.5z" />
    <glyph glyph-name="Ugrave" unicode="&#xd9;" horiz-adv-x="634" 
d="M317 -6q-82 0 -129 19t-70 48t-30.5 59t-10.5 53q-4 42 -6 91.5t-1 97.5q1 49 3 102t6.5 104t10.5 95q0 4 2.5 7t6.5 3h27h27q5 0 6 -2t1 -10q-4 -40 -7.5 -84t-5.5 -91q-4 -80 -4.5 -158t6.5 -147q2 -20 8 -42.5t22.5 -42t49 -32t86.5 -12.5q55 0 87.5 12.5t49.5 32
t23.5 42t8.5 42.5q6 67 6 143.5t-4 155.5q-2 48 -5.5 94t-7.5 87q-1 8 0.5 10t5.5 2h28.5h28.5q4 0 6 -3t2 -7q7 -44 11 -94.5t6.5 -102.5t2.5 -101q1 -49 -0.5 -99t-6.5 -93q-2 -18 -7 -41.5t-17.5 -47.5t-38.5 -44.5t-69 -33t-108 -12.5zM320 719q-4 0 -6.5 2t-6.5 5
l-85 73q-2 2 -0.5 4.5t3.5 2.5h58q5 0 7.5 -1.5t6.5 -5.5l64 -71q3 -3 3 -6t-5 -3h-39z" />
    <glyph glyph-name="Uacute" unicode="&#xda;" horiz-adv-x="634" 
d="M317 -6q-82 0 -129 19t-70 48t-30.5 59t-10.5 53q-4 42 -6 91.5t-1 97.5q1 49 3 102t6.5 104t10.5 95q0 4 2.5 7t6.5 3h27h27q5 0 6 -2t1 -10q-4 -40 -7.5 -84t-5.5 -91q-4 -80 -4.5 -158t6.5 -147q2 -20 8 -42.5t22.5 -42t49 -32t86.5 -12.5q55 0 87.5 12.5t49.5 32
t23.5 42t8.5 42.5q6 67 6 143.5t-4 155.5q-2 48 -5.5 94t-7.5 87q-1 8 0.5 10t5.5 2h28.5h28.5q4 0 6 -3t2 -7q7 -44 11 -94.5t6.5 -102.5t2.5 -101q1 -49 -0.5 -99t-6.5 -93q-2 -18 -7 -41.5t-17.5 -47.5t-38.5 -44.5t-69 -33t-108 -12.5zM311 719h-38q-5 0 -5 3t3 6l64 71
q4 4 6.5 5.5t7.5 1.5h58q3 0 4.5 -2.5t-1.5 -4.5l-85 -73q-4 -3 -7 -5t-7 -2z" />
    <glyph glyph-name="Ucircumflex" unicode="&#xdb;" horiz-adv-x="634" 
d="M317 -6q-82 0 -129 19t-70 48t-30.5 59t-10.5 53q-4 42 -6 91.5t-1 97.5q1 49 3 102t6.5 104t10.5 95q0 4 2.5 7t6.5 3h27h27q5 0 6 -2t1 -10q-4 -40 -7.5 -84t-5.5 -91q-4 -80 -4.5 -158t6.5 -147q2 -20 8 -42.5t22.5 -42t49 -32t86.5 -12.5q55 0 87.5 12.5t49.5 32
t23.5 42t8.5 42.5q6 67 6 143.5t-4 155.5q-2 48 -5.5 94t-7.5 87q-1 8 0.5 10t5.5 2h28.5h28.5q4 0 6 -3t2 -7q7 -44 11 -94.5t6.5 -102.5t2.5 -101q1 -49 -0.5 -99t-6.5 -93q-2 -18 -7 -41.5t-17.5 -47.5t-38.5 -44.5t-69 -33t-108 -12.5zM224 718q-4 0 -4.5 2.5t0.5 4.5
l68 78q3 4 7 4h45q5 0 8 -4l67 -78q2 -2 1.5 -4.5t-4.5 -2.5h-33q-4 0 -6 1.5t-6 3.5l-44 41q-4 3 -9 0l-46 -42q-2 -1 -4 -2.5t-6 -1.5h-34z" />
    <glyph glyph-name="Udieresis" unicode="&#xdc;" horiz-adv-x="634" 
d="M317 -6q-82 0 -129 19t-70 48t-30.5 59t-10.5 53q-4 42 -6 91.5t-1 97.5q1 49 3 102t6.5 104t10.5 95q0 4 2.5 7t6.5 3h27h27q5 0 6 -2t1 -10q-4 -40 -7.5 -84t-5.5 -91q-4 -80 -4.5 -158t6.5 -147q2 -20 8 -42.5t22.5 -42t49 -32t86.5 -12.5q55 0 87.5 12.5t49.5 32
t23.5 42t8.5 42.5q6 67 6 143.5t-4 155.5q-2 48 -5.5 94t-7.5 87q-1 8 0.5 10t5.5 2h28.5h28.5q4 0 6 -3t2 -7q7 -44 11 -94.5t6.5 -102.5t2.5 -101q1 -49 -0.5 -99t-6.5 -93q-2 -18 -7 -41.5t-17.5 -47.5t-38.5 -44.5t-69 -33t-108 -12.5zM286 773q0 -16 -8 -24.5t-31 -8.5
q-21 0 -29.5 8.5t-8.5 24.5q0 17 8.5 25.5t29.5 8.5q23 0 31 -8.5t8 -25.5zM425 773q0 -16 -7 -24.5t-31 -8.5q-22 0 -30 8.5t-8 24.5q0 17 8 25.5t30 8.5q24 0 31 -8.5t7 -25.5z" />
    <glyph glyph-name="Yacute" unicode="&#xdd;" horiz-adv-x="487" 
d="M293 302q-6 -8 -8.5 -22.5t-2.5 -25.5v-247q0 -3 -2.5 -5t-5.5 -2h-58q-7 0 -7 7v245q0 18 -7 36.5t-15 29.5q-9 12 -21 30t-24.5 38t-22.5 37t-15 27q-28 53 -47 98t-29 75.5t-12 36.5q-2 7 1 10t9 3h55q7 0 10 -11q4 -11 15.5 -40t28 -66t34.5 -74q13 -26 29 -53
t35 -54q6 -8 10 -9.5t11 8.5q11 14 22.5 32t23 37.5t19.5 35.5q18 35 34 73.5t27.5 68.5t14.5 42q2 6 4.5 8t6.5 2h57q4 0 7 -3t1 -10q-1 -6 -10.5 -35.5t-27.5 -74t-46 -96.5q-6 -13 -17.5 -32.5t-24.5 -41.5t-26.5 -42.5t-25.5 -35.5zM237 719h-38q-5 0 -5 3t3 6l64 71
q4 4 6.5 5.5t7.5 1.5h58q3 0 4.5 -2.5t-1.5 -4.5l-85 -73q-4 -3 -7 -5t-7 -2z" />
    <glyph glyph-name="Thorn" unicode="&#xde;" horiz-adv-x="464" 
d="M422 380q0 -64 -22 -116.5t-65 -84t-107 -31.5h-88q-7 0 -7 -6v-135q0 -7 -8 -7h-57q-8 0 -8 7v694q0 7 8 7h56q5 0 7 -1.5t2 -6.5v-99q0 -3 0.5 -6t2.5 -4h81q109 0 157 -51.5t48 -159.5zM351 379q0 86 -33 121.5t-101 35.5h-78q-4 0 -5 -1t-1 -5v-320q0 -6 6 -6h81
q63 0 97 47t34 128z" />
    <glyph glyph-name="germandbls" unicode="&#xdf;" horiz-adv-x="607" 
d="M31 -107q-18 0 -27.5 1t-12.5 5q-2 4 -2.5 9t-0.5 10q0 7 0.5 13.5t2.5 11.5q10 4 20 5.5t19 3.5q23 6 38.5 22.5t24 46.5t12 78.5t3.5 118.5v94v111.5v120.5q0 34 10.5 64t32 53t54.5 35.5t77 12.5q22 0 47 -5t49 -16t43.5 -29t31 -44t11.5 -61q0 -27 -7.5 -48.5
t-21.5 -37.5q-14 -14 -34.5 -24t-42.5 -19q-20 -9 -25.5 -21.5t1 -24.5t22.5 -19q31 -13 65 -30.5t64 -39.5q31 -22 47.5 -56.5t16.5 -72.5q0 -51 -24 -89t-65 -58.5t-95 -20.5q-29 0 -67 8t-67 28q-3 2 -5 5t-2 8q2 10 4 20.5t4 20.5q1 7 4.5 7t8.5 -3q13 -9 32.5 -16
t40.5 -11t37 -4q35 0 56.5 14t33.5 34q13 16 16 38.5t-5 46.5q-3 36 -24.5 57.5t-59 39t-86.5 40.5q-19 8 -30 23.5t-11.5 33t13 34.5t41.5 28q17 6 33.5 12.5t29.5 20.5q11 12 21 30t10 48q-1 48 -31.5 71t-72.5 23q-51 0 -80.5 -29.5t-29.5 -87.5v-66.5v-79v-84v-83v-76
v-62.5q0 -96 -37.5 -142.5t-110.5 -46.5z" />
    <glyph glyph-name="agrave" unicode="&#xe0;" horiz-adv-x="481" 
d="M232 -8q-49 0 -90.5 11.5t-66.5 43t-25 91.5q0 51 17 83.5t45 50t60 24.5t61 7q30 0 59 -3t47 -7q14 -3 14 20q0 60 -29.5 84.5t-92.5 24.5q-39 0 -73 -11t-56 -25q-6 -4 -9 -3t-3 6l-6 38q-1 6 0.5 8.5t5.5 5.5q24 17 60.5 26.5t81.5 9.5q64 0 102 -15t57 -40
t25.5 -57.5t6.5 -68.5q1 -49 0.5 -91t-2.5 -82.5t-6 -83.5q-1 -7 -5.5 -12.5t-18.5 -11.5q-15 -5 -35 -9.5t-42 -7.5t-43 -4.5t-39 -1.5zM237 41q9 0 25.5 1t34.5 5t31 10.5t15 16.5q4 30 6 70t1 75q0 20 -14 24q-13 4 -42 7.5t-63 3.5q-15 0 -34.5 -5t-36.5 -17t-28.5 -35
t-11.5 -59q0 -34 15 -55.5t41.5 -31.5t60.5 -10zM247 530q-7 0 -14 6l-71 88q-2 3 -0.5 5.5t3.5 2.5h58q5 0 8.5 -1.5t5.5 -5.5l49 -87q5 -8 -2 -8h-37z" />
    <glyph glyph-name="aacute" unicode="&#xe1;" horiz-adv-x="481" 
d="M232 -8q-49 0 -90.5 11.5t-66.5 43t-25 91.5q0 51 17 83.5t45 50t60 24.5t61 7q30 0 59 -3t47 -7q14 -3 14 20q0 60 -29.5 84.5t-92.5 24.5q-39 0 -73 -11t-56 -25q-6 -4 -9 -3t-3 6l-6 38q-1 6 0.5 8.5t5.5 5.5q24 17 60.5 26.5t81.5 9.5q64 0 102 -15t57 -40
t25.5 -57.5t6.5 -68.5q1 -49 0.5 -91t-2.5 -82.5t-6 -83.5q-1 -7 -5.5 -12.5t-18.5 -11.5q-15 -5 -35 -9.5t-42 -7.5t-43 -4.5t-39 -1.5zM237 41q9 0 25.5 1t34.5 5t31 10.5t15 16.5q4 30 6 70t1 75q0 20 -14 24q-13 4 -42 7.5t-63 3.5q-15 0 -34.5 -5t-36.5 -17t-28.5 -35
t-11.5 -59q0 -34 15 -55.5t41.5 -31.5t60.5 -10zM212 529q-6 0 -6 2.5t3 6.5l55 88q3 6 13 6h52q3 0 4.5 -2t-2.5 -6l-71 -90q-2 -3 -4.5 -4t-7.5 -1h-36z" />
    <glyph glyph-name="acircumflex" unicode="&#xe2;" horiz-adv-x="481" 
d="M232 -8q-49 0 -90.5 11.5t-66.5 43t-25 91.5q0 51 17 83.5t45 50t60 24.5t61 7q30 0 59 -3t47 -7q14 -3 14 20q0 60 -29.5 84.5t-92.5 24.5q-39 0 -73 -11t-56 -25q-6 -4 -9 -3t-3 6l-6 38q-1 6 0.5 8.5t5.5 5.5q24 17 60.5 26.5t81.5 9.5q64 0 102 -15t57 -40
t25.5 -57.5t6.5 -68.5q1 -49 0.5 -91t-2.5 -82.5t-6 -83.5q-1 -7 -5.5 -12.5t-18.5 -11.5q-15 -5 -35 -9.5t-42 -7.5t-43 -4.5t-39 -1.5zM237 41q9 0 25.5 1t34.5 5t31 10.5t15 16.5q4 30 6 70t1 75q0 20 -14 24q-13 4 -42 7.5t-63 3.5q-15 0 -34.5 -5t-36.5 -17t-28.5 -35
t-11.5 -59q0 -34 15 -55.5t41.5 -31.5t60.5 -10zM155 529q-3 0 -3.5 2t0.5 5l66 90q3 3 7 3h42q5 0 7 -3l66 -90q2 -3 1.5 -5t-4.5 -2h-35q-5 0 -7 3l-46 51q-4 4 -8 0l-44 -51q-2 -3 -7 -3h-35z" />
    <glyph glyph-name="atilde" unicode="&#xe3;" horiz-adv-x="481" 
d="M232 -8q-49 0 -90.5 11.5t-66.5 43t-25 91.5q0 51 17 83.5t45 50t60 24.5t61 7q30 0 59 -3t47 -7q14 -3 14 20q0 60 -29.5 84.5t-92.5 24.5q-39 0 -73 -11t-56 -25q-6 -4 -9 -3t-3 6l-6 38q-1 6 0.5 8.5t5.5 5.5q24 17 60.5 26.5t81.5 9.5q64 0 102 -15t57 -40
t25.5 -57.5t6.5 -68.5q1 -49 0.5 -91t-2.5 -82.5t-6 -83.5q-1 -7 -5.5 -12.5t-18.5 -11.5q-15 -5 -35 -9.5t-42 -7.5t-43 -4.5t-39 -1.5zM237 41q9 0 25.5 1t34.5 5t31 10.5t15 16.5q4 30 6 70t1 75q0 20 -14 24q-13 4 -42 7.5t-63 3.5q-15 0 -34.5 -5t-36.5 -17t-28.5 -35
t-11.5 -59q0 -34 15 -55.5t41.5 -31.5t60.5 -10zM154 533q-5 0 -5 6q0 29 16 47t43 18q15 0 30 -8.5t28.5 -17t21.5 -8.5q7 0 12 6.5t5 15.5q0 7 4 7h33q5 0 5 -6q0 -26 -16 -45.5t-42 -19.5q-18 0 -33 9t-27 17.5t-21 8.5q-8 0 -13 -7t-5 -17q0 -6 -4 -6h-32z" />
    <glyph glyph-name="adieresis" unicode="&#xe4;" horiz-adv-x="481" 
d="M232 -8q-49 0 -90.5 11.5t-66.5 43t-25 91.5q0 51 17 83.5t45 50t60 24.5t61 7q30 0 59 -3t47 -7q14 -3 14 20q0 60 -29.5 84.5t-92.5 24.5q-39 0 -73 -11t-56 -25q-6 -4 -9 -3t-3 6l-6 38q-1 6 0.5 8.5t5.5 5.5q24 17 60.5 26.5t81.5 9.5q64 0 102 -15t57 -40
t25.5 -57.5t6.5 -68.5q1 -49 0.5 -91t-2.5 -82.5t-6 -83.5q-1 -7 -5.5 -12.5t-18.5 -11.5q-15 -5 -35 -9.5t-42 -7.5t-43 -4.5t-39 -1.5zM237 41q9 0 25.5 1t34.5 5t31 10.5t15 16.5q4 30 6 70t1 75q0 20 -14 24q-13 4 -42 7.5t-63 3.5q-15 0 -34.5 -5t-36.5 -17t-28.5 -35
t-11.5 -59q0 -34 15 -55.5t41.5 -31.5t60.5 -10zM217 573q0 -16 -8 -24.5t-31 -8.5q-21 0 -29.5 8.5t-8.5 24.5q0 17 8.5 25.5t29.5 8.5q23 0 31 -8.5t8 -25.5zM356 573q0 -16 -7 -24.5t-31 -8.5q-22 0 -30 8.5t-8 24.5q0 17 8 25.5t30 8.5q24 0 31 -8.5t7 -25.5z" />
    <glyph glyph-name="aring" unicode="&#xe5;" horiz-adv-x="481" 
d="M232 -8q-49 0 -90.5 11.5t-66.5 43t-25 91.5q0 51 17 83.5t45 50t60 24.5t61 7q30 0 59 -3t47 -7q14 -3 14 20q0 60 -29.5 84.5t-92.5 24.5q-39 0 -73 -11t-56 -25q-6 -4 -9 -3t-3 6l-6 38q-1 6 0.5 8.5t5.5 5.5q24 17 60.5 26.5t81.5 9.5q64 0 102 -15t57 -40
t25.5 -57.5t6.5 -68.5q1 -49 0.5 -91t-2.5 -82.5t-6 -83.5q-1 -7 -5.5 -12.5t-18.5 -11.5q-15 -5 -35 -9.5t-42 -7.5t-43 -4.5t-39 -1.5zM237 41q9 0 25.5 1t34.5 5t31 10.5t15 16.5q4 30 6 70t1 75q0 20 -14 24q-13 4 -42 7.5t-63 3.5q-15 0 -34.5 -5t-36.5 -17t-28.5 -35
t-11.5 -59q0 -34 15 -55.5t41.5 -31.5t60.5 -10zM331 590q0 -35 -19.5 -56.5t-63.5 -21.5q-46 0 -65 21.5t-19 56.5q0 34 19 55t65 21q44 0 63.5 -21t19.5 -55zM294 592q0 16 -8 26.5t-37 10.5q-30 0 -38.5 -10.5t-8.5 -26.5q0 -14 8 -28t39 -14q32 0 38.5 14t6.5 28z" />
    <glyph glyph-name="ae" unicode="&#xe6;" horiz-adv-x="779" 
d="M232 -8q-49 0 -90.5 11.5t-66.5 43t-25 91.5q0 51 17 83.5t45 50t60 24.5t61 7q30 0 59 -3t47 -7q14 -3 14 20q0 60 -29.5 84.5t-92.5 24.5q-39 0 -73 -11t-56 -25q-6 -4 -9 -3t-3 6q-2 10 -3.5 19.5t-2.5 18.5q-1 6 0.5 8.5t5.5 5.5q24 17 60.5 26.5t81.5 9.5
q50 0 82.5 -10t52 -27.5t30.5 -39.5q22 36 59 58.5t96 22.5q62 0 98.5 -18t55.5 -48.5t25 -67t6 -73.5t-7.5 -46t-22.5 -9h-135.5h-135.5q-3 0 -6.5 -2t-3.5 -8q4 -80 37 -119.5t103 -39.5q35 0 73.5 8.5t61.5 23.5q6 4 12 5.5t11 -8.5l13 -25q3 -6 1 -8.5t-7 -6.5
q-32 -24 -79.5 -34t-97.5 -10q-55 0 -90 16.5t-55 45.5q-1 -7 -2 -14.5t-2 -14.5q-1 -4 -5 -7.5t-14 -7.5q-21 -7 -48.5 -11.5t-55.5 -7t-50 -2.5zM349 230q0 11 -17.5 16t-44.5 6.5t-56 1.5q-15 0 -34.5 -5t-36.5 -17t-28.5 -35t-11.5 -59q0 -34 15 -55.5t41.5 -31.5
t60.5 -10q9 0 26 1t35.5 5t31.5 10.5t14 17.5q2 27 3.5 71t1.5 84zM648 264q10 0 13.5 3.5t3.5 16.5q0 36 -9.5 68t-34 52t-70.5 20q-35 0 -58.5 -13.5t-38 -34.5t-21 -45.5t-8.5 -47.5q0 -10 1 -13.5t8 -3.5q54 -1 107 -1.5t107 -0.5z" />
    <glyph glyph-name="ccedilla" unicode="&#xe7;" horiz-adv-x="395" 
d="M237 -6q-60 0 -99.5 18.5t-61.5 51.5t-30.5 76.5t-8.5 94.5q0 47 9 90.5t31 78t61 54.5t98 20q42 0 72.5 -8.5t51.5 -26.5q5 -5 6.5 -7.5t1.5 -8.5v-44q0 -6 -4 -6.5t-8 3.5q-20 20 -51 29t-62 9q-38 0 -64.5 -16t-41.5 -43t-22 -59.5t-7 -65.5q0 -55 13 -96.5t42.5 -64
t77.5 -22.5q31 0 56 6.5t48 17.5q10 5 14 -4l15 -32q3 -5 1.5 -7.5t-5.5 -5.5q-24 -16 -59 -24t-74 -8zM310 -122q0 -28 -23 -50t-64 -22q-26 0 -47 10.5t-32 25.5q-4 5 -3.5 9.5t4.5 6.5l18 9q7 3 9 2.5t4 -4.5q7 -9 19.5 -16t24.5 -7q22 0 32.5 12t10.5 25q0 16 -11 24
t-28 11t-34 4q-6 0 -8.5 5t1.5 11l36 60q3 5 6.5 6t6.5 1h21q10 0 5 -8l-29 -63l-11 16q40 -2 66 -18t26 -50z" />
    <glyph glyph-name="egrave" unicode="&#xe8;" horiz-adv-x="460" 
d="M40 237q0 47 9.5 90t31.5 77.5t60.5 54t98.5 19.5q61 0 98 -18t55.5 -48t25 -66t6.5 -72q0 -37 -7.5 -46t-22.5 -9h-273q-3 0 -6.5 -2t-3.5 -11q0 -46 15 -81.5t46.5 -55.5t79.5 -20q33 0 69 8.5t60 20.5q8 5 13 6t9 -8l13 -25q3 -6 1.5 -8.5t-7.5 -6.5
q-32 -21 -77.5 -31.5t-92.5 -10.5q-62 0 -101 18.5t-61 52t-30.5 77.5t-8.5 95zM352 286q0 36 -9 66.5t-33.5 49.5t-71.5 19q-34 0 -58 -13t-38 -33.5t-21 -45t-9 -46.5q0 -10 1.5 -13.5t9.5 -3.5h212q10 0 14 3t3 17zM238 530q-7 0 -14 6l-71 88q-2 3 -0.5 5.5t3.5 2.5h58
q5 0 8.5 -1.5t5.5 -5.5l49 -87q5 -8 -2 -8h-37z" />
    <glyph glyph-name="eacute" unicode="&#xe9;" horiz-adv-x="460" 
d="M40 237q0 47 9.5 90t31.5 77.5t60.5 54t98.5 19.5q61 0 98 -18t55.5 -48t25 -66t6.5 -72q0 -37 -7.5 -46t-22.5 -9h-273q-3 0 -6.5 -2t-3.5 -11q0 -46 15 -81.5t46.5 -55.5t79.5 -20q33 0 69 8.5t60 20.5q8 5 13 6t9 -8l13 -25q3 -6 1.5 -8.5t-7.5 -6.5
q-32 -21 -77.5 -31.5t-92.5 -10.5q-62 0 -101 18.5t-61 52t-30.5 77.5t-8.5 95zM352 286q0 36 -9 66.5t-33.5 49.5t-71.5 19q-34 0 -58 -13t-38 -33.5t-21 -45t-9 -46.5q0 -10 1.5 -13.5t9.5 -3.5h212q10 0 14 3t3 17zM202 529q-6 0 -6 2.5t3 6.5l55 88q3 6 13 6h52
q3 0 4.5 -2t-2.5 -6l-71 -90q-2 -3 -4.5 -4t-7.5 -1h-36z" />
    <glyph glyph-name="ecircumflex" unicode="&#xea;" horiz-adv-x="460" 
d="M40 237q0 47 9.5 90t31.5 77.5t60.5 54t98.5 19.5q61 0 98 -18t55.5 -48t25 -66t6.5 -72q0 -37 -7.5 -46t-22.5 -9h-273q-3 0 -6.5 -2t-3.5 -11q0 -46 15 -81.5t46.5 -55.5t79.5 -20q33 0 69 8.5t60 20.5q8 5 13 6t9 -8l13 -25q3 -6 1.5 -8.5t-7.5 -6.5
q-32 -21 -77.5 -31.5t-92.5 -10.5q-62 0 -101 18.5t-61 52t-30.5 77.5t-8.5 95zM352 286q0 36 -9 66.5t-33.5 49.5t-71.5 19q-34 0 -58 -13t-38 -33.5t-21 -45t-9 -46.5q0 -10 1.5 -13.5t9.5 -3.5h212q10 0 14 3t3 17zM145 529q-3 0 -3.5 2t0.5 5l66 90q3 3 7 3h42q5 0 7 -3
l66 -90q2 -3 1.5 -5t-4.5 -2h-35q-5 0 -7 3l-46 51q-4 4 -8 0l-44 -51q-2 -3 -7 -3h-35z" />
    <glyph glyph-name="edieresis" unicode="&#xeb;" horiz-adv-x="460" 
d="M40 237q0 47 9.5 90t31.5 77.5t60.5 54t98.5 19.5q61 0 98 -18t55.5 -48t25 -66t6.5 -72q0 -37 -7.5 -46t-22.5 -9h-273q-3 0 -6.5 -2t-3.5 -11q0 -46 15 -81.5t46.5 -55.5t79.5 -20q33 0 69 8.5t60 20.5q8 5 13 6t9 -8l13 -25q3 -6 1.5 -8.5t-7.5 -6.5
q-32 -21 -77.5 -31.5t-92.5 -10.5q-62 0 -101 18.5t-61 52t-30.5 77.5t-8.5 95zM352 286q0 36 -9 66.5t-33.5 49.5t-71.5 19q-34 0 -58 -13t-38 -33.5t-21 -45t-9 -46.5q0 -10 1.5 -13.5t9.5 -3.5h212q10 0 14 3t3 17zM207 573q0 -16 -8 -24.5t-31 -8.5q-21 0 -29.5 8.5
t-8.5 24.5q0 17 8.5 25.5t29.5 8.5q23 0 31 -8.5t8 -25.5zM346 573q0 -16 -7 -24.5t-31 -8.5q-22 0 -30 8.5t-8 24.5q0 17 8 25.5t30 8.5q24 0 31 -8.5t7 -25.5z" />
    <glyph glyph-name="igrave" unicode="&#xec;" horiz-adv-x="204" 
d="M138 7q0 -7 -7 -7h-57q-7 0 -7 7v458q0 7 7 7h57q7 0 7 -7v-458zM101 530q-7 0 -14 6l-71 88q-2 3 -0.5 5.5t3.5 2.5h58q5 0 8.5 -1.5t5.5 -5.5l49 -87q5 -8 -2 -8h-37z" />
    <glyph glyph-name="iacute" unicode="&#xed;" horiz-adv-x="204" 
d="M138 7q0 -7 -7 -7h-57q-7 0 -7 7v458q0 7 7 7h57q7 0 7 -7v-458zM66 529q-6 0 -6 2.5t3 6.5l55 88q3 6 13 6h52q3 0 4.5 -2t-2.5 -6l-71 -90q-2 -3 -4.5 -4t-7.5 -1h-36z" />
    <glyph glyph-name="icircumflex" unicode="&#xee;" horiz-adv-x="204" 
d="M138 7q0 -7 -7 -7h-57q-7 0 -7 7v458q0 7 7 7h57q7 0 7 -7v-458zM9 529q-3 0 -3.5 2t0.5 5l66 90q3 3 7 3h42q5 0 7 -3l66 -90q2 -3 1.5 -5t-4.5 -2h-35q-5 0 -7 3l-46 51q-4 4 -8 0l-44 -51q-2 -3 -7 -3h-35z" />
    <glyph glyph-name="idieresis" unicode="&#xef;" horiz-adv-x="204" 
d="M138 7q0 -7 -7 -7h-57q-7 0 -7 7v458q0 7 7 7h57q7 0 7 -7v-458zM70 573q0 -16 -8 -24.5t-31 -8.5q-21 0 -29.5 8.5t-8.5 24.5q0 17 8.5 25.5t29.5 8.5q23 0 31 -8.5t8 -25.5zM209 573q0 -16 -7 -24.5t-31 -8.5q-22 0 -30 8.5t-8 24.5q0 17 8 25.5t30 8.5q24 0 31 -8.5
t7 -25.5z" />
    <glyph glyph-name="eth" unicode="&#xf0;" horiz-adv-x="513" 
d="M463 239q0 -66 -18.5 -122t-63 -90t-125.5 -34q-77 0 -122.5 31.5t-64.5 87t-19 126.5t20 126t65 86t121 31q22 0 40.5 -4t33.5 -12q-19 25 -42 48t-51 45q-24 18 -50.5 34t-53.5 30q-4 3 -5 5.5t1 6.5q4 7 10.5 17.5t11.5 17.5q2 3 5 3.5t10 -2.5q12 -6 23.5 -12.5
t23.5 -13.5q80 -44 135.5 -106t85 -137.5t29.5 -161.5zM390 237q0 88 -31.5 136t-102.5 48t-102.5 -47.5t-31.5 -136.5q0 -90 31 -138.5t103 -48.5t103 49.5t31 137.5zM140 509q-3 -2 -4.5 -2t-2.5 2l-16 25q-1 3 -0.5 4.5t4.5 3.5l203 125q4 2 5 2t3 -3l16 -26q1 -2 0.5 -3
t-4.5 -3z" />
    <glyph glyph-name="ntilde" unicode="&#xf1;" horiz-adv-x="486" 
d="M75 0q-8 0 -8 8v212v213q0 6 4 10.5t18 9.5q13 4 38.5 9.5t55 10.5t54.5 5q77 0 118.5 -30t57.5 -81.5t16 -113.5q0 -46 -2 -92.5t-4.5 -85.5t-4.5 -62q-1 -9 -3.5 -11t-11.5 -2h-43q-8 0 -11 2.5t-2 9.5q0 6 1.5 32t3.5 62.5t3.5 76t1.5 72.5q0 54 -13 90t-39.5 54
t-68.5 18q-22 0 -43 -4t-38 -10q-6 -1 -11.5 -6.5t-5.5 -18.5v-118v-125.5v-126.5q0 -8 -7 -8h-56zM154 533q-5 0 -5 6q0 29 16 47t43 18q15 0 30 -8.5t28.5 -17t21.5 -8.5q7 0 12 6.5t5 15.5q0 7 4 7h33q5 0 5 -6q0 -26 -16 -45.5t-42 -19.5q-18 0 -33 9t-27 17.5t-21 8.5
q-8 0 -13 -7t-5 -17q0 -6 -4 -6h-32z" />
    <glyph glyph-name="ograve" unicode="&#xf2;" horiz-adv-x="493" 
d="M246 -6q-81 0 -126 31t-62.5 86t-17.5 126q0 70 19.5 124.5t64.5 85.5t122 31q78 0 123 -31t64.5 -85.5t19.5 -124.5t-17.5 -125t-62 -86.5t-127.5 -31.5zM246 51q75 0 104.5 48.5t29.5 136.5t-32 135t-102 47q-69 0 -101.5 -47t-32.5 -135q0 -89 30 -137t104 -48z
M246 530q-7 0 -14 6l-71 88q-2 3 -0.5 5.5t3.5 2.5h58q5 0 8.5 -1.5t5.5 -5.5l49 -87q5 -8 -2 -8h-37z" />
    <glyph glyph-name="oacute" unicode="&#xf3;" horiz-adv-x="493" 
d="M246 -6q-81 0 -126 31t-62.5 86t-17.5 126q0 70 19.5 124.5t64.5 85.5t122 31q78 0 123 -31t64.5 -85.5t19.5 -124.5t-17.5 -125t-62 -86.5t-127.5 -31.5zM246 51q75 0 104.5 48.5t29.5 136.5t-32 135t-102 47q-69 0 -101.5 -47t-32.5 -135q0 -89 30 -137t104 -48z
M211 529q-6 0 -6 2.5t3 6.5l55 88q3 6 13 6h52q3 0 4.5 -2t-2.5 -6l-71 -90q-2 -3 -4.5 -4t-7.5 -1h-36z" />
    <glyph glyph-name="ocircumflex" unicode="&#xf4;" horiz-adv-x="493" 
d="M246 -6q-81 0 -126 31t-62.5 86t-17.5 126q0 70 19.5 124.5t64.5 85.5t122 31q78 0 123 -31t64.5 -85.5t19.5 -124.5t-17.5 -125t-62 -86.5t-127.5 -31.5zM246 51q75 0 104.5 48.5t29.5 136.5t-32 135t-102 47q-69 0 -101.5 -47t-32.5 -135q0 -89 30 -137t104 -48z
M154 529q-3 0 -3.5 2t0.5 5l66 90q3 3 7 3h42q5 0 7 -3l66 -90q2 -3 1.5 -5t-4.5 -2h-35q-5 0 -7 3l-46 51q-4 4 -8 0l-44 -51q-2 -3 -7 -3h-35z" />
    <glyph glyph-name="otilde" unicode="&#xf5;" horiz-adv-x="493" 
d="M246 -6q-81 0 -126 31t-62.5 86t-17.5 126q0 70 19.5 124.5t64.5 85.5t122 31q78 0 123 -31t64.5 -85.5t19.5 -124.5t-17.5 -125t-62 -86.5t-127.5 -31.5zM246 51q75 0 104.5 48.5t29.5 136.5t-32 135t-102 47q-69 0 -101.5 -47t-32.5 -135q0 -89 30 -137t104 -48z
M153 533q-5 0 -5 6q0 29 16 47t43 18q15 0 30 -8.5t28.5 -17t21.5 -8.5q7 0 12 6.5t5 15.5q0 7 4 7h33q5 0 5 -6q0 -26 -16 -45.5t-42 -19.5q-18 0 -33 9t-27 17.5t-21 8.5q-8 0 -13 -7t-5 -17q0 -6 -4 -6h-32z" />
    <glyph glyph-name="odieresis" unicode="&#xf6;" horiz-adv-x="493" 
d="M246 -6q-81 0 -126 31t-62.5 86t-17.5 126q0 70 19.5 124.5t64.5 85.5t122 31q78 0 123 -31t64.5 -85.5t19.5 -124.5t-17.5 -125t-62 -86.5t-127.5 -31.5zM246 51q75 0 104.5 48.5t29.5 136.5t-32 135t-102 47q-69 0 -101.5 -47t-32.5 -135q0 -89 30 -137t104 -48z
M215 573q0 -16 -8 -24.5t-31 -8.5q-21 0 -29.5 8.5t-8.5 24.5q0 17 8.5 25.5t29.5 8.5q23 0 31 -8.5t8 -25.5zM354 573q0 -16 -7 -24.5t-31 -8.5q-22 0 -30 8.5t-8 24.5q0 17 8 25.5t30 8.5q24 0 31 -8.5t7 -25.5z" />
    <glyph glyph-name="divide" unicode="&#xf7;" horiz-adv-x="468" 
d="M277 174q0 -18 -8.5 -26.5t-33.5 -8.5q-23 0 -31.5 8.5t-8.5 26.5q0 17 8.5 26t31.5 9q25 0 33.5 -9t8.5 -26zM277 430q0 -17 -8.5 -25.5t-33.5 -8.5q-23 0 -31.5 8.5t-8.5 25.5q0 18 8.5 27t31.5 9q25 0 33.5 -9t8.5 -27zM59 277q-6 0 -7.5 2t-1.5 5v39q0 4 1.5 5.5
t7.5 1.5h351q5 0 6.5 -1t1.5 -6v-40q0 -3 -1.5 -4.5t-7.5 -1.5h-350z" />
    <glyph glyph-name="oslash" unicode="&#xf8;" horiz-adv-x="486" 
d="M246 -6q-81 0 -126 31t-62.5 86t-17.5 126q0 70 19.5 124.5t64.5 85.5t122 31q78 0 123 -31t64.5 -85.5t19.5 -124.5t-17.5 -125t-62 -86.5t-127.5 -31.5zM246 51q75 0 104.5 48.5t29.5 136.5t-32 135t-102 47q-69 0 -101.5 -47t-32.5 -135q0 -89 30 -137t104 -48z
M115 -68q-3 -8 -10 -8h-38q-2 0 -2 2.5t2 5.5l311 599q2 4 4.5 5.5t4.5 1.5h37q3 0 3 -2.5t-4 -11.5z" />
    <glyph glyph-name="ugrave" unicode="&#xf9;" horiz-adv-x="487" 
d="M250 -4q-76 0 -117.5 30t-58 81t-16.5 113q0 46 2 92t4.5 85t3.5 62q2 9 5 11t11 2h43q8 0 11 -1t2 -11q0 -6 -1.5 -31t-3.5 -61t-3 -76t-1 -76q0 -75 27.5 -118t91.5 -43q8 0 24.5 1.5t34 5.5t29.5 10.5t12 16.5v374q0 3 1 6t4 3h57q3 0 5.5 -1.5t2.5 -6.5v-415
q0 -12 -6 -17.5t-25 -12.5q-9 -3 -32.5 -8.5t-52.5 -10t-54 -4.5zM244 530q-7 0 -14 6l-71 88q-2 3 -0.5 5.5t3.5 2.5h58q5 0 8.5 -1.5t5.5 -5.5l49 -87q5 -8 -2 -8h-37z" />
    <glyph glyph-name="uacute" unicode="&#xfa;" horiz-adv-x="487" 
d="M250 -4q-76 0 -117.5 30t-58 81t-16.5 113q0 46 2 92t4.5 85t3.5 62q2 9 5 11t11 2h43q8 0 11 -1t2 -11q0 -6 -1.5 -31t-3.5 -61t-3 -76t-1 -76q0 -75 27.5 -118t91.5 -43q8 0 24.5 1.5t34 5.5t29.5 10.5t12 16.5v374q0 3 1 6t4 3h57q3 0 5.5 -1.5t2.5 -6.5v-415
q0 -12 -6 -17.5t-25 -12.5q-9 -3 -32.5 -8.5t-52.5 -10t-54 -4.5zM209 529q-6 0 -6 2.5t3 6.5l55 88q3 6 13 6h52q3 0 4.5 -2t-2.5 -6l-71 -90q-2 -3 -4.5 -4t-7.5 -1h-36z" />
    <glyph glyph-name="ucircumflex" unicode="&#xfb;" horiz-adv-x="487" 
d="M250 -4q-76 0 -117.5 30t-58 81t-16.5 113q0 46 2 92t4.5 85t3.5 62q2 9 5 11t11 2h43q8 0 11 -1t2 -11q0 -6 -1.5 -31t-3.5 -61t-3 -76t-1 -76q0 -75 27.5 -118t91.5 -43q8 0 24.5 1.5t34 5.5t29.5 10.5t12 16.5v374q0 3 1 6t4 3h57q3 0 5.5 -1.5t2.5 -6.5v-415
q0 -12 -6 -17.5t-25 -12.5q-9 -3 -32.5 -8.5t-52.5 -10t-54 -4.5zM151 529q-3 0 -3.5 2t0.5 5l66 90q3 3 7 3h42q5 0 7 -3l66 -90q2 -3 1.5 -5t-4.5 -2h-35q-5 0 -7 3l-46 51q-4 4 -8 0l-44 -51q-2 -3 -7 -3h-35z" />
    <glyph glyph-name="udieresis" unicode="&#xfc;" horiz-adv-x="487" 
d="M250 -4q-76 0 -117.5 30t-58 81t-16.5 113q0 46 2 92t4.5 85t3.5 62q2 9 5 11t11 2h43q8 0 11 -1t2 -11q0 -6 -1.5 -31t-3.5 -61t-3 -76t-1 -76q0 -75 27.5 -118t91.5 -43q8 0 24.5 1.5t34 5.5t29.5 10.5t12 16.5v374q0 3 1 6t4 3h57q3 0 5.5 -1.5t2.5 -6.5v-415
q0 -12 -6 -17.5t-25 -12.5q-9 -3 -32.5 -8.5t-52.5 -10t-54 -4.5zM213 573q0 -16 -8 -24.5t-31 -8.5q-21 0 -29.5 8.5t-8.5 24.5q0 17 8.5 25.5t29.5 8.5q23 0 31 -8.5t8 -25.5zM352 573q0 -16 -7 -24.5t-31 -8.5q-22 0 -30 8.5t-8 24.5q0 17 8 25.5t30 8.5q24 0 31 -8.5
t7 -25.5z" />
    <glyph glyph-name="yacute" unicode="&#xfd;" horiz-adv-x="411" 
d="M158 70q-23 34 -44.5 82.5t-39 103.5t-29.5 108.5t-19 95.5q-2 12 8 12h55q6 0 9.5 -3t4.5 -12q2 -25 9.5 -60.5t18.5 -74.5t23 -77t25 -69t24 -48q4 -7 8 -7t5 4q14 25 29 66t30 89t26 95.5t15 85.5q0 7 3.5 9t9.5 2h49q5 0 8 -2t2 -11q-5 -35 -13 -69.5t-17.5 -69
t-21.5 -72.5q-12 -34 -28.5 -81.5t-40.5 -98t-56 -94t-74.5 -70.5t-96.5 -27q-15 0 -28 1.5t-24 4.5q-12 5 -8 15l14 31q3 5 6 5.5t8 -1.5q25 -4 53.5 5t49.5 26q20 14 30.5 26.5t20.5 29.5q5 11 4.5 24t-8.5 26zM175 529q-6 0 -6 2.5t3 6.5l55 88q3 6 13 6h52q3 0 4.5 -2
t-2.5 -6l-71 -90q-2 -3 -4.5 -4t-7.5 -1h-36z" />
    <glyph glyph-name="thorn" unicode="&#xfe;" horiz-adv-x="499" 
d="M450 244q0 -62 -14.5 -106.5t-39 -73.5t-53.5 -44.5t-58 -19.5q-32 -4 -67.5 1.5t-58.5 18.5q-5 0 -8 1t-4 -2l-6 -48t-4 -47q0 -9 -1 -17l-2 -16q-4 -2 -9 -3t-12 -1q-12 0 -22 0.5t-20 1.5q-2 119 -3 238.5t-1 239.5q0 58 0.5 114.5t1.5 112.5q4 3 10 4t13 1h21.5
t20.5 -2q2 -28 3.5 -58t1.5 -62q0 -8 1 -17t3 -16q17 13 45 24.5t70 11.5q95 0 143.5 -61.5t48.5 -174.5zM378 245q0 92 -31.5 135t-89.5 43q-21 0 -46 -6t-43.5 -19t-26.5 -34q-4 -7 -4 -19q0 -54 -0.5 -109t-0.5 -109q0 -7 1 -11.5t3 -8.5q10 -26 43.5 -37.5t67.5 -11.5
q19 0 41 9t41.5 29.5t32 56.5t12.5 92z" />
    <glyph glyph-name="ydieresis" unicode="&#xff;" horiz-adv-x="411" 
d="M158 70q-23 34 -44.5 82.5t-39 103.5t-29.5 108.5t-19 95.5q-2 12 8 12h55q6 0 9.5 -3t4.5 -12q2 -25 9.5 -60.5t18.5 -74.5t23 -77t25 -69t24 -48q4 -7 8 -7t5 4q14 25 29 66t30 89t26 95.5t15 85.5q0 7 3.5 9t9.5 2h49q5 0 8 -2t2 -11q-5 -35 -13 -69.5t-17.5 -69
t-21.5 -72.5q-12 -34 -28.5 -81.5t-40.5 -98t-56 -94t-74.5 -70.5t-96.5 -27q-15 0 -28 1.5t-24 4.5q-12 5 -8 15l14 31q3 5 6 5.5t8 -1.5q25 -4 53.5 5t49.5 26q20 14 30.5 26.5t20.5 29.5q5 11 4.5 24t-8.5 26zM179 573q0 -16 -8 -24.5t-31 -8.5q-21 0 -29.5 8.5
t-8.5 24.5q0 17 8.5 25.5t29.5 8.5q23 0 31 -8.5t8 -25.5zM318 573q0 -16 -7 -24.5t-31 -8.5q-22 0 -30 8.5t-8 24.5q0 17 8 25.5t30 8.5q24 0 31 -8.5t7 -25.5z" />
    <glyph glyph-name="Amacron" unicode="&#x100;" horiz-adv-x="553" 
d="M45 0q-5 0 -6 3.5t0 13.5q7 47 21 113t33 141t40.5 149t44.5 137.5t44 105.5q3 5 6 7.5t7 2.5h82q5 -1 8.5 -3t6.5 -8q20 -40 42.5 -104t44.5 -139t41.5 -151t33.5 -141.5t20 -109.5q2 -10 1 -13.5t-7 -3.5h-57q-4 0 -5.5 2.5t-4.5 11.5q-4 27 -11 63.5t-15 74.5
q-1 6 -3.5 8t-9.5 2h-252q-6 -1 -8 -2.5t-4 -8.5q-8 -37 -15 -73.5t-12 -64.5q-1 -8 -2.5 -10.5t-6.5 -2.5h-57zM165 220h221q5 0 7.5 3t0.5 12q-22 85 -44.5 171t-54.5 164q-2 6 -9 6h-19q-6 0 -8 -7q-16 -39 -34.5 -95.5t-35.5 -119.5t-31 -123q-1 -4 0 -7.5t7 -3.5z
M383 746q0 -2 -1 -3t-5 -1h-201q-4 0 -5 1.5t-1 3.5v38q0 4 1.5 5t4.5 1h201q4 0 5 -1t1 -5v-39z" />
    <glyph glyph-name="amacron" unicode="&#x101;" horiz-adv-x="481" 
d="M232 -8q-49 0 -90.5 11.5t-66.5 43t-25 91.5q0 51 17 83.5t45 50t60 24.5t61 7q30 0 59 -3t47 -7q14 -3 14 20q0 60 -29.5 84.5t-92.5 24.5q-39 0 -73 -11t-56 -25q-6 -4 -9 -3t-3 6l-6 38q-1 6 0.5 8.5t5.5 5.5q24 17 60.5 26.5t81.5 9.5q64 0 102 -15t57 -40
t25.5 -57.5t6.5 -68.5q1 -49 0.5 -91t-2.5 -82.5t-6 -83.5q-1 -7 -5.5 -12.5t-18.5 -11.5q-15 -5 -35 -9.5t-42 -7.5t-43 -4.5t-39 -1.5zM237 41q9 0 25.5 1t34.5 5t31 10.5t15 16.5q4 30 6 70t1 75q0 20 -14 24q-13 4 -42 7.5t-63 3.5q-15 0 -34.5 -5t-36.5 -17t-28.5 -35
t-11.5 -59q0 -34 15 -55.5t41.5 -31.5t60.5 -10zM354 546q0 -2 -1 -3t-5 -1h-201q-4 0 -5 1.5t-1 3.5v38q0 4 1.5 5t4.5 1h201q4 0 5 -1t1 -5v-39z" />
    <glyph glyph-name="Abreve" unicode="&#x102;" horiz-adv-x="553" 
d="M45 0q-5 0 -6 3.5t0 13.5q7 47 21 113t33 141t40.5 149t44.5 137.5t44 105.5q3 5 6 7.5t7 2.5h82q5 -1 8.5 -3t6.5 -8q20 -40 42.5 -104t44.5 -139t41.5 -151t33.5 -141.5t20 -109.5q2 -10 1 -13.5t-7 -3.5h-57q-4 0 -5.5 2.5t-4.5 11.5q-4 27 -11 63.5t-15 74.5
q-1 6 -3.5 8t-9.5 2h-252q-6 -1 -8 -2.5t-4 -8.5q-8 -37 -15 -73.5t-12 -64.5q-1 -8 -2.5 -10.5t-6.5 -2.5h-57zM165 220h221q5 0 7.5 3t0.5 12q-22 85 -44.5 171t-54.5 164q-2 6 -9 6h-19q-6 0 -8 -7q-16 -39 -34.5 -95.5t-35.5 -119.5t-31 -123q-1 -4 0 -7.5t7 -3.5z
M278 715q-43 0 -66 20t-24 60q0 4 1 6t6 2h29q4 0 5.5 -0.5t1.5 -5.5q1 -23 13.5 -33t33.5 -10q20 0 33 10.5t13 33.5q0 4 2 4.5t4 0.5h30q4 0 5 -1t1 -7q0 -38 -22 -59t-66 -21z" />
    <glyph glyph-name="abreve" unicode="&#x103;" horiz-adv-x="481" 
d="M232 -8q-49 0 -90.5 11.5t-66.5 43t-25 91.5q0 51 17 83.5t45 50t60 24.5t61 7q30 0 59 -3t47 -7q14 -3 14 20q0 60 -29.5 84.5t-92.5 24.5q-39 0 -73 -11t-56 -25q-6 -4 -9 -3t-3 6l-6 38q-1 6 0.5 8.5t5.5 5.5q24 17 60.5 26.5t81.5 9.5q64 0 102 -15t57 -40
t25.5 -57.5t6.5 -68.5q1 -49 0.5 -91t-2.5 -82.5t-6 -83.5q-1 -7 -5.5 -12.5t-18.5 -11.5q-15 -5 -35 -9.5t-42 -7.5t-43 -4.5t-39 -1.5zM237 41q9 0 25.5 1t34.5 5t31 10.5t15 16.5q4 30 6 70t1 75q0 20 -14 24q-13 4 -42 7.5t-63 3.5q-15 0 -34.5 -5t-36.5 -17t-28.5 -35
t-11.5 -59q0 -34 15 -55.5t41.5 -31.5t60.5 -10zM248 526q-47 0 -72 20.5t-26 60.5q0 7 1 8.5t7 1.5h32q5 0 6.5 -1t1.5 -6q1 -22 14 -31.5t36 -9.5t36 9.5t14 32.5q0 4 1.5 5t4.5 1h35q4 0 5 -1.5t1 -8.5q-1 -38 -24 -59.5t-73 -21.5z" />
    <glyph glyph-name="Aogonek" unicode="&#x104;" horiz-adv-x="553" 
d="M45 0q-5 0 -6 3.5t0 13.5q7 47 21 113t33 141t40.5 149t44.5 137.5t44 105.5q3 5 6 7.5t7 2.5h82q5 -1 8.5 -3t6.5 -8q20 -40 42.5 -104t44.5 -139t41.5 -151t33.5 -141.5t20 -109.5q2 -10 1 -13.5t-7 -3.5h-57q-4 0 -5.5 2.5t-4.5 11.5q-4 27 -11 63.5t-15 74.5
q-1 6 -3.5 8t-9.5 2h-252q-6 -1 -8 -2.5t-4 -8.5q-8 -37 -15 -73.5t-12 -64.5q-1 -8 -2.5 -10.5t-6.5 -2.5h-57zM165 220h221q5 0 7.5 3t0.5 12q-22 85 -44.5 171t-54.5 164q-2 6 -9 6h-19q-6 0 -8 -7q-16 -39 -34.5 -95.5t-35.5 -119.5t-31 -123q-1 -4 0 -7.5t7 -3.5z
M430 -218q-35 0 -60.5 21.5t-25.5 54.5q0 30 15 56t38 47.5t46 35.5q6 4 12.5 6t14.5 2h38q4 0 5 -3t-5 -7q-30 -20 -55 -41.5t-39.5 -44t-14.5 -46.5q0 -19 11.5 -28t28.5 -8q19 0 37.5 9.5t31.5 20.5q4 4 7 3.5t3 -5.5v-28q0 -10 -11 -18q-14 -11 -32.5 -19t-44.5 -8z" />
    <glyph glyph-name="aogonek" unicode="&#x105;" horiz-adv-x="481" 
d="M232 -8q-49 0 -90.5 11.5t-66.5 43t-25 91.5q0 51 17 83.5t45 50t60 24.5t61 7q30 0 59 -3t47 -7q14 -3 14 20q0 60 -29.5 84.5t-92.5 24.5q-39 0 -73 -11t-56 -25q-6 -4 -9 -3t-3 6l-6 38q-1 6 0.5 8.5t5.5 5.5q24 17 60.5 26.5t81.5 9.5q64 0 102 -15t57 -40
t25.5 -57.5t6.5 -68.5q1 -49 0.5 -91t-2.5 -82.5t-6 -83.5q-1 -7 -5.5 -12.5t-18.5 -11.5q-15 -5 -35 -9.5t-42 -7.5t-43 -4.5t-39 -1.5zM237 41q9 0 25.5 1t34.5 5t31 10.5t15 16.5q4 30 6 70t1 75q0 20 -14 24q-13 4 -42 7.5t-63 3.5q-15 0 -34.5 -5t-36.5 -17t-28.5 -35
t-11.5 -59q0 -34 15 -55.5t41.5 -31.5t60.5 -10zM238 -206q-35 0 -60.5 21.5t-25.5 54.5q0 30 15 56t38 47.5t46 35.5q6 4 12.5 6t14.5 2h38q4 0 5 -3t-5 -7q-30 -20 -55 -41.5t-39.5 -44t-14.5 -46.5q0 -19 11.5 -28t28.5 -8q19 0 37.5 9.5t31.5 20.5q4 4 7 3.5t3 -5.5v-28
q0 -10 -11 -18q-14 -11 -32.5 -19t-44.5 -8z" />
    <glyph glyph-name="Cacute" unicode="&#x106;" horiz-adv-x="450" 
d="M415 21q0 -13 -16 -18q-14 -5 -33.5 -7.5t-37.5 -3.5t-28 -1q-112 0 -180.5 86.5t-68.5 257.5q0 172 66 258.5t183 86.5q10 0 28 -1.5t37.5 -4t33.5 -6.5q8 -2 12 -6t4 -9v-48q0 -16 -15 -7q-14 9 -38.5 16t-54.5 7q-53 0 -88 -22.5t-55.5 -61t-29 -87t-8.5 -101.5
q0 -36 4 -76.5t14.5 -80t31 -72t52.5 -52t79 -19.5q32 0 56 7t36 14q9 6 12.5 4.5t3.5 -10.5v-43zM282 719h-38q-5 0 -5 3t3 6l64 71q4 4 6.5 5.5t7.5 1.5h58q3 0 4.5 -2.5t-1.5 -4.5l-85 -73q-4 -3 -7 -5t-7 -2z" />
    <glyph glyph-name="cacute" unicode="&#x107;" horiz-adv-x="395" 
d="M237 -6q-60 0 -99.5 18.5t-61.5 51.5t-30.5 76.5t-8.5 94.5q0 47 9 90.5t31 78t61 54.5t98 20q42 0 72.5 -8.5t51.5 -26.5q5 -5 6.5 -7.5t1.5 -8.5v-44q0 -6 -4 -6.5t-8 3.5q-20 20 -51 29t-62 9q-38 0 -64.5 -16t-41.5 -43t-22 -59.5t-7 -65.5q0 -55 13 -96.5t42.5 -64
t77.5 -22.5q31 0 56 6.5t48 17.5q10 5 14 -4l15 -32q3 -5 1.5 -7.5t-5.5 -5.5q-24 -16 -59 -24t-74 -8zM201 529q-6 0 -6 2.5t3 6.5l55 88q3 6 13 6h52q3 0 4.5 -2t-2.5 -6l-71 -90q-2 -3 -4.5 -4t-7.5 -1h-36z" />
    <glyph glyph-name="Cdotaccent" unicode="&#x10a;" horiz-adv-x="450" 
d="M415 21q0 -13 -16 -18q-14 -5 -33.5 -7.5t-37.5 -3.5t-28 -1q-112 0 -180.5 86.5t-68.5 257.5q0 172 66 258.5t183 86.5q10 0 28 -1.5t37.5 -4t33.5 -6.5q8 -2 12 -6t4 -9v-48q0 -16 -15 -7q-14 9 -38.5 16t-54.5 7q-53 0 -88 -22.5t-55.5 -61t-29 -87t-8.5 -101.5
q0 -36 4 -76.5t14.5 -80t31 -72t52.5 -52t79 -19.5q32 0 56 7t36 14q9 6 12.5 4.5t3.5 -10.5v-43zM325 776q0 -18 -7 -27t-30 -9q-21 0 -29 9t-8 27q0 17 8 26t29 9q23 0 30 -9t7 -26z" />
    <glyph glyph-name="cdotaccent" unicode="&#x10b;" horiz-adv-x="395" 
d="M237 -6q-60 0 -99.5 18.5t-61.5 51.5t-30.5 76.5t-8.5 94.5q0 47 9 90.5t31 78t61 54.5t98 20q42 0 72.5 -8.5t51.5 -26.5q5 -5 6.5 -7.5t1.5 -8.5v-44q0 -6 -4 -6.5t-8 3.5q-20 20 -51 29t-62 9q-38 0 -64.5 -16t-41.5 -43t-22 -59.5t-7 -65.5q0 -55 13 -96.5t42.5 -64
t77.5 -22.5q31 0 56 6.5t48 17.5q10 5 14 -4l15 -32q3 -5 1.5 -7.5t-5.5 -5.5q-24 -16 -59 -24t-74 -8zM274 576q0 -18 -7 -27t-30 -9q-21 0 -29 9t-8 27q0 17 8 26t29 9q23 0 30 -9t7 -26z" />
    <glyph glyph-name="Ccaron" unicode="&#x10c;" horiz-adv-x="450" 
d="M415 21q0 -13 -16 -18q-14 -5 -33.5 -7.5t-37.5 -3.5t-28 -1q-112 0 -180.5 86.5t-68.5 257.5q0 172 66 258.5t183 86.5q10 0 28 -1.5t37.5 -4t33.5 -6.5q8 -2 12 -6t4 -9v-48q0 -16 -15 -7q-14 9 -38.5 16t-54.5 7q-53 0 -88 -22.5t-55.5 -61t-29 -87t-8.5 -101.5
q0 -36 4 -76.5t14.5 -80t31 -72t52.5 -52t79 -19.5q32 0 56 7t36 14q9 6 12.5 4.5t3.5 -10.5v-43zM267 718q-4 0 -7 4l-69 78q-1 2 -0.5 4.5t4.5 2.5h33q5 0 7 -3l49 -45q4 -4 8 0l50 45q3 3 7 3h34q4 0 4.5 -2.5t-1.5 -4.5l-69 -78q-1 -4 -6 -4h-44z" />
    <glyph glyph-name="ccaron" unicode="&#x10d;" horiz-adv-x="395" 
d="M237 -6q-60 0 -99.5 18.5t-61.5 51.5t-30.5 76.5t-8.5 94.5q0 47 9 90.5t31 78t61 54.5t98 20q42 0 72.5 -8.5t51.5 -26.5q5 -5 6.5 -7.5t1.5 -8.5v-44q0 -6 -4 -6.5t-8 3.5q-20 20 -51 29t-62 9q-38 0 -64.5 -16t-41.5 -43t-22 -59.5t-7 -65.5q0 -55 13 -96.5t42.5 -64
t77.5 -22.5q31 0 56 6.5t48 17.5q10 5 14 -4l15 -32q3 -5 1.5 -7.5t-5.5 -5.5q-24 -16 -59 -24t-74 -8zM216 529q-4 0 -7 3l-66 90q-1 3 -0.5 5t3.5 2h35q5 0 7 -3l44 -51q4 -4 8 0l46 51q2 3 7 3h35q4 0 4.5 -2t-1.5 -5l-66 -90q-2 -3 -7 -3h-42z" />
    <glyph glyph-name="Dcaron" unicode="&#x10e;" horiz-adv-x="579" 
d="M527 347q0 -88 -16.5 -149t-43.5 -100t-59 -60.5t-63.5 -29.5t-57.5 -8h-199q-8 0 -8 7v658q0 8 8 8h199q31 0 64.5 -6t65 -24.5t56.5 -54.5t39.5 -94.5t14.5 -146.5zM455 347q0 93 -16.5 147t-42 80t-54.5 33t-54 7h-128q-5 0 -6 -1.5t-1 -4.5v-543q0 -4 1 -5.5t5 -1.5
h112q27 0 58 10.5t60 40.5t47.5 87t18.5 151zM243 718q-4 0 -7 4l-69 78q-1 2 -0.5 4.5t4.5 2.5h33q5 0 7 -3l49 -45q4 -4 8 0l50 45q3 3 7 3h34q4 0 4.5 -2.5t-1.5 -4.5l-69 -78q-1 -4 -6 -4h-44z" />
    <glyph glyph-name="dcaron" unicode="&#x10f;" horiz-adv-x="494" 
d="M45 230q1 76 18.5 123.5t46.5 74t63.5 36t68.5 9.5q27 0 52.5 -3.5t41.5 -7.5q11 -3 15.5 -2.5t4.5 9.5q0 17 -0.5 42.5t-2 53.5t-2.5 54t-2 45t-2 25q-1 8 1.5 10t6.5 2h54q4 0 6.5 -1t2.5 -5q4 -50 6.5 -105.5t3.5 -114t1.5 -117t-1 -115t-4 -107.5t-6.5 -94
q-1 -7 -5 -12.5t-18 -11.5q-25 -10 -65.5 -18.5t-84.5 -8.5q-41 1 -77 11t-60 33q-32 29 -47.5 77.5t-15.5 117.5zM117 229q0 -66 14.5 -103t40.5 -53q19 -16 49 -21t61.5 -1t53.5 14q5 3 9 6t4 8q1 25 3 58.5t2.5 69.5t1.5 69.5t1 60.5t-1 41q0 9 -4 13t-9 6q-22 6 -50 10
t-48 4q-19 0 -41.5 -6.5t-42 -24.5t-31.5 -54.5t-13 -96.5zM493 539q-2 0 -4 2.5t-2 7.5l-4 142q0 7 2 9t7 2h38q6 0 8 -2t1 -7l-4 -145q-1 -5 -3 -7t-6 -2h-33z" />
    <glyph glyph-name="Dcroat" unicode="&#x110;" horiz-adv-x="566" 
d="M546 347q0 -88 -16.5 -149t-43.5 -100t-59 -60.5t-63.5 -29.5t-57.5 -8h-199q-8 0 -8 7v658q0 8 8 8h199q31 0 64.5 -6t65 -24.5t56.5 -54.5t39.5 -94.5t14.5 -146.5zM474 347q0 93 -16.5 147t-42 80t-54.5 33t-54 7h-128q-5 0 -6 -1.5t-1 -4.5v-543q0 -4 1 -5.5t5 -1.5
h112q27 0 58 10.5t60 40.5t47.5 87t18.5 151zM19 298q-5 0 -6 2t-1 5v40q0 4 1 5.5t6 1.5h266q4 0 5.5 -1t1.5 -6v-41q0 -3 -1 -4.5t-6 -1.5h-266z" />
    <glyph glyph-name="dcroat" unicode="&#x111;" horiz-adv-x="477" 
d="M45 230q1 76 18.5 123.5t46.5 74t63.5 36t68.5 9.5q27 0 52.5 -3.5t41.5 -7.5q11 -3 15.5 -2.5t4.5 9.5q0 17 -0.5 42.5t-2 53.5t-2.5 54t-2 45t-2 25q-1 8 1.5 10t6.5 2h54q4 0 6.5 -1t2.5 -5q4 -50 6.5 -105.5t3.5 -114t1.5 -117t-1 -115t-4 -107.5t-6.5 -94
q-1 -7 -5 -12.5t-18 -11.5q-25 -10 -65.5 -18.5t-84.5 -8.5q-41 1 -77 11t-60 33q-32 29 -47.5 77.5t-15.5 117.5zM117 229q0 -66 14.5 -103t40.5 -53q19 -16 49 -21t61.5 -1t53.5 14q5 3 9 6t4 8q1 25 3 58.5t2.5 69.5t1.5 69.5t1 60.5t-1 41q0 9 -4 13t-9 6q-22 6 -50 10
t-48 4q-19 0 -41.5 -6.5t-42 -24.5t-31.5 -54.5t-13 -96.5zM205 574q-5 0 -6 2t-1 5v40q0 4 1 5.5t6 1.5h266q4 0 5.5 -1t1.5 -6v-41q0 -3 -1 -4.5t-6 -1.5h-266z" />
    <glyph glyph-name="Emacron" unicode="&#x112;" horiz-adv-x="446" 
d="M88 0q-8 0 -8 7v658q0 8 8 8h315q6 0 7 -1.5t1 -6.5v-42q0 -6 -1.5 -7.5t-6.5 -1.5h-243q-5 0 -6 -1.5t-1 -5.5v-231q0 -4 2 -6t5 -2h198q6 0 7.5 -1.5t1.5 -8.5v-38q0 -6 -1.5 -8t-7.5 -2h-198q-5 0 -6 -1.5t-1 -5.5v-236q0 -4 1 -6.5t6 -2.5h242q7 0 8 -1.5t1 -7.5v-39
q0 -7 -1.5 -8.5t-7.5 -1.5h-314zM347 746q0 -2 -1 -3t-5 -1h-201q-4 0 -5 1.5t-1 3.5v38q0 4 1.5 5t4.5 1h201q4 0 5 -1t1 -5v-39z" />
    <glyph glyph-name="emacron" unicode="&#x113;" horiz-adv-x="460" 
d="M40 237q0 47 9.5 90t31.5 77.5t60.5 54t98.5 19.5q61 0 98 -18t55.5 -48t25 -66t6.5 -72q0 -37 -7.5 -46t-22.5 -9h-273q-3 0 -6.5 -2t-3.5 -11q0 -46 15 -81.5t46.5 -55.5t79.5 -20q33 0 69 8.5t60 20.5q8 5 13 6t9 -8l13 -25q3 -6 1.5 -8.5t-7.5 -6.5
q-32 -21 -77.5 -31.5t-92.5 -10.5q-62 0 -101 18.5t-61 52t-30.5 77.5t-8.5 95zM352 286q0 36 -9 66.5t-33.5 49.5t-71.5 19q-34 0 -58 -13t-38 -33.5t-21 -45t-9 -46.5q0 -10 1.5 -13.5t9.5 -3.5h212q10 0 14 3t3 17zM344 546q0 -2 -1 -3t-5 -1h-201q-4 0 -5 1.5t-1 3.5v38
q0 4 1.5 5t4.5 1h201q4 0 5 -1t1 -5v-39z" />
    <glyph glyph-name="Edotaccent" unicode="&#x116;" horiz-adv-x="446" 
d="M88 0q-8 0 -8 7v658q0 8 8 8h315q6 0 7 -1.5t1 -6.5v-42q0 -6 -1.5 -7.5t-6.5 -1.5h-243q-5 0 -6 -1.5t-1 -5.5v-231q0 -4 2 -6t5 -2h198q6 0 7.5 -1.5t1.5 -8.5v-38q0 -6 -1.5 -8t-7.5 -2h-198q-5 0 -6 -1.5t-1 -5.5v-236q0 -4 1 -6.5t6 -2.5h242q7 0 8 -1.5t1 -7.5v-39
q0 -7 -1.5 -8.5t-7.5 -1.5h-314zM278 776q0 -18 -7 -27t-30 -9q-21 0 -29 9t-8 27q0 17 8 26t29 9q23 0 30 -9t7 -26z" />
    <glyph glyph-name="edotaccent" unicode="&#x117;" horiz-adv-x="460" 
d="M40 237q0 47 9.5 90t31.5 77.5t60.5 54t98.5 19.5q61 0 98 -18t55.5 -48t25 -66t6.5 -72q0 -37 -7.5 -46t-22.5 -9h-273q-3 0 -6.5 -2t-3.5 -11q0 -46 15 -81.5t46.5 -55.5t79.5 -20q33 0 69 8.5t60 20.5q8 5 13 6t9 -8l13 -25q3 -6 1.5 -8.5t-7.5 -6.5
q-32 -21 -77.5 -31.5t-92.5 -10.5q-62 0 -101 18.5t-61 52t-30.5 77.5t-8.5 95zM352 286q0 36 -9 66.5t-33.5 49.5t-71.5 19q-34 0 -58 -13t-38 -33.5t-21 -45t-9 -46.5q0 -10 1.5 -13.5t9.5 -3.5h212q10 0 14 3t3 17zM275 576q0 -18 -7 -27t-30 -9q-21 0 -29 9t-8 27
q0 17 8 26t29 9q23 0 30 -9t7 -26z" />
    <glyph glyph-name="Eogonek" unicode="&#x118;" horiz-adv-x="446" 
d="M88 0q-8 0 -8 7v658q0 8 8 8h315q6 0 7 -1.5t1 -6.5v-42q0 -6 -1.5 -7.5t-6.5 -1.5h-243q-5 0 -6 -1.5t-1 -5.5v-231q0 -4 2 -6t5 -2h198q6 0 7.5 -1.5t1.5 -8.5v-38q0 -6 -1.5 -8t-7.5 -2h-198q-5 0 -6 -1.5t-1 -5.5v-236q0 -4 1 -6.5t6 -2.5h242q7 0 8 -1.5t1 -7.5v-39
q0 -7 -1.5 -8.5t-7.5 -1.5h-314zM234 -212q-35 0 -60.5 21.5t-25.5 54.5q0 30 15 56t38 47.5t46 35.5q6 4 12.5 6t14.5 2h38q4 0 5 -3t-5 -7q-30 -20 -55 -41.5t-39.5 -44t-14.5 -46.5q0 -19 11.5 -28t28.5 -8q19 0 37.5 9.5t31.5 20.5q4 4 7 3.5t3 -5.5v-28q0 -10 -11 -18
q-14 -11 -32.5 -19t-44.5 -8z" />
    <glyph glyph-name="eogonek" unicode="&#x119;" horiz-adv-x="460" 
d="M40 237q0 47 9.5 90t31.5 77.5t60.5 54t98.5 19.5q61 0 98 -18t55.5 -48t25 -66t6.5 -72q0 -37 -7.5 -46t-22.5 -9h-273q-3 0 -6.5 -2t-3.5 -11q0 -46 15 -81.5t46.5 -55.5t79.5 -20q33 0 69 8.5t60 20.5q8 5 13 6t9 -8l13 -25q3 -6 1.5 -8.5t-7.5 -6.5
q-32 -21 -77.5 -31.5t-92.5 -10.5q-62 0 -101 18.5t-61 52t-30.5 77.5t-8.5 95zM352 286q0 36 -9 66.5t-33.5 49.5t-71.5 19q-34 0 -58 -13t-38 -33.5t-21 -45t-9 -46.5q0 -10 1.5 -13.5t9.5 -3.5h212q10 0 14 3t3 17zM204 -211q-35 0 -60.5 21.5t-25.5 54.5q0 30 15 56
t38 47.5t46 35.5q6 4 12.5 6t14.5 2h38q4 0 5 -3t-5 -7q-30 -20 -55 -41.5t-39.5 -44t-14.5 -46.5q0 -19 11.5 -28t28.5 -8q19 0 37.5 9.5t31.5 20.5q4 4 7 3.5t3 -5.5v-28q0 -10 -11 -18q-14 -11 -32.5 -19t-44.5 -8z" />
    <glyph glyph-name="Ecaron" unicode="&#x11a;" horiz-adv-x="446" 
d="M88 0q-8 0 -8 7v658q0 8 8 8h315q6 0 7 -1.5t1 -6.5v-42q0 -6 -1.5 -7.5t-6.5 -1.5h-243q-5 0 -6 -1.5t-1 -5.5v-231q0 -4 2 -6t5 -2h198q6 0 7.5 -1.5t1.5 -8.5v-38q0 -6 -1.5 -8t-7.5 -2h-198q-5 0 -6 -1.5t-1 -5.5v-236q0 -4 1 -6.5t6 -2.5h242q7 0 8 -1.5t1 -7.5v-39
q0 -7 -1.5 -8.5t-7.5 -1.5h-314zM219 718q-4 0 -7 4l-69 78q-1 2 -0.5 4.5t4.5 2.5h33q5 0 7 -3l49 -45q4 -4 8 0l50 45q3 3 7 3h34q4 0 4.5 -2.5t-1.5 -4.5l-69 -78q-1 -4 -6 -4h-44z" />
    <glyph glyph-name="ecaron" unicode="&#x11b;" horiz-adv-x="460" 
d="M40 237q0 47 9.5 90t31.5 77.5t60.5 54t98.5 19.5q61 0 98 -18t55.5 -48t25 -66t6.5 -72q0 -37 -7.5 -46t-22.5 -9h-273q-3 0 -6.5 -2t-3.5 -11q0 -46 15 -81.5t46.5 -55.5t79.5 -20q33 0 69 8.5t60 20.5q8 5 13 6t9 -8l13 -25q3 -6 1.5 -8.5t-7.5 -6.5
q-32 -21 -77.5 -31.5t-92.5 -10.5q-62 0 -101 18.5t-61 52t-30.5 77.5t-8.5 95zM352 286q0 36 -9 66.5t-33.5 49.5t-71.5 19q-34 0 -58 -13t-38 -33.5t-21 -45t-9 -46.5q0 -10 1.5 -13.5t9.5 -3.5h212q10 0 14 3t3 17zM217 529q-4 0 -7 3l-66 90q-1 3 -0.5 5t3.5 2h35
q5 0 7 -3l44 -51q4 -4 8 0l46 51q2 3 7 3h35q4 0 4.5 -2t-1.5 -5l-66 -90q-2 -3 -7 -3h-42z" />
    <glyph glyph-name="Gbreve" unicode="&#x11e;" horiz-adv-x="559" 
d="M496 23q0 -12 -14.5 -18t-37 -8.5t-46.5 -2.5q-173 0 -265 84t-92 247q0 110 41.5 189t113 121.5t160.5 42.5q30 0 64 -2.5t56 -9.5q9 -3 12 -5.5t3 -9.5v-42q0 -10 -3.5 -12.5t-9.5 0.5q-25 14 -52.5 18.5t-58.5 4.5q-34 0 -77 -14t-82 -46t-64.5 -88t-25.5 -140
q0 -88 25.5 -143t65 -85t84 -41t83.5 -11q40 0 47 11v239q0 6 -2 8t-7 2h-146q-5 0 -6.5 2t-1.5 6v42q0 4 1.5 6t6.5 2h215q9 0 11 -2.5t2 -11.5v-333zM345 715q-43 0 -66 20t-24 60q0 4 1 6t6 2h29q4 0 5.5 -0.5t1.5 -5.5q1 -23 13.5 -33t33.5 -10q20 0 33 10.5t13 33.5
q0 4 2 4.5t4 0.5h30q4 0 5 -1t1 -7q0 -38 -22 -59t-66 -21z" />
    <glyph glyph-name="gbreve" unicode="&#x11f;" horiz-adv-x="485" 
d="M40 242q1 67 18.5 120.5t62.5 84.5t125 31q39 0 77 -6t67 -18q15 -5 20 -15t7 -31q9 -72 10.5 -171.5t-11.5 -207.5q-10 -86 -60.5 -125.5t-139.5 -39.5q-35 0 -76 10t-74 34q-6 5 -7.5 8.5t1.5 7.5q3 5 8 14.5t8 14.5q4 6 7.5 6.5t7.5 -3.5q16 -9 36.5 -17.5t43.5 -14
t45 -5.5q28 0 54.5 10t46 32t25.5 60q0 2 0.5 3.5t0.5 3.5q1 7 -3.5 8t-13.5 -1q-18 -5 -43.5 -9.5t-49.5 -4.5q-62 0 -105.5 26.5t-66 76t-21.5 118.5zM113 250q0 -50 12 -89t40.5 -61t77.5 -22q22 0 44 3t39 10q24 9 25 26q3 28 3 64.5t-0.5 75t-2 71.5t-4.5 55q0 7 -3 16
t-14 14q-12 6 -35.5 9.5t-49.5 3.5q-49 0 -77.5 -22t-41 -62t-13.5 -92zM251 530q-47 0 -72 20.5t-26 60.5q0 7 1 8.5t7 1.5h32q5 0 6.5 -1t1.5 -6q1 -22 14 -31.5t36 -9.5t36 9.5t14 32.5q0 4 1.5 5t4.5 1h35q4 0 5 -1.5t1 -8.5q-1 -38 -24 -59.5t-73 -21.5z" />
    <glyph glyph-name="Gdotaccent" unicode="&#x120;" horiz-adv-x="559" 
d="M496 23q0 -12 -14.5 -18t-37 -8.5t-46.5 -2.5q-173 0 -265 84t-92 247q0 110 41.5 189t113 121.5t160.5 42.5q30 0 64 -2.5t56 -9.5q9 -3 12 -5.5t3 -9.5v-42q0 -10 -3.5 -12.5t-9.5 0.5q-25 14 -52.5 18.5t-58.5 4.5q-34 0 -77 -14t-82 -46t-64.5 -88t-25.5 -140
q0 -88 25.5 -143t65 -85t84 -41t83.5 -11q40 0 47 11v239q0 6 -2 8t-7 2h-146q-5 0 -6.5 2t-1.5 6v42q0 4 1.5 6t6.5 2h215q9 0 11 -2.5t2 -11.5v-333zM381 776q0 -18 -7 -27t-30 -9q-21 0 -29 9t-8 27q0 17 8 26t29 9q23 0 30 -9t7 -26z" />
    <glyph glyph-name="gdotaccent" unicode="&#x121;" horiz-adv-x="485" 
d="M40 242q1 67 18.5 120.5t62.5 84.5t125 31q39 0 77 -6t67 -18q15 -5 20 -15t7 -31q9 -72 10.5 -171.5t-11.5 -207.5q-10 -86 -60.5 -125.5t-139.5 -39.5q-35 0 -76 10t-74 34q-6 5 -7.5 8.5t1.5 7.5q3 5 8 14.5t8 14.5q4 6 7.5 6.5t7.5 -3.5q16 -9 36.5 -17.5t43.5 -14
t45 -5.5q28 0 54.5 10t46 32t25.5 60q0 2 0.5 3.5t0.5 3.5q1 7 -3.5 8t-13.5 -1q-18 -5 -43.5 -9.5t-49.5 -4.5q-62 0 -105.5 26.5t-66 76t-21.5 118.5zM113 250q0 -50 12 -89t40.5 -61t77.5 -22q22 0 44 3t39 10q24 9 25 26q3 28 3 64.5t-0.5 75t-2 71.5t-4.5 55q0 7 -3 16
t-14 14q-12 6 -35.5 9.5t-49.5 3.5q-49 0 -77.5 -22t-41 -62t-13.5 -92zM288 580q0 -18 -7 -27t-30 -9q-21 0 -29 9t-8 27q0 17 8 26t29 9q23 0 30 -9t7 -26z" />
    <glyph glyph-name="uni0122" unicode="&#x122;" horiz-adv-x="559" 
d="M496 23q0 -12 -14.5 -18t-37 -8.5t-46.5 -2.5q-173 0 -265 84t-92 247q0 110 41.5 189t113 121.5t160.5 42.5q30 0 64 -2.5t56 -9.5q9 -3 12 -5.5t3 -9.5v-42q0 -10 -3.5 -12.5t-9.5 0.5q-25 14 -52.5 18.5t-58.5 4.5q-34 0 -77 -14t-82 -46t-64.5 -88t-25.5 -140
q0 -88 25.5 -143t65 -85t84 -41t83.5 -11q40 0 47 11v239q0 6 -2 8t-7 2h-146q-5 0 -6.5 2t-1.5 6v42q0 4 1.5 6t6.5 2h215q9 0 11 -2.5t2 -11.5v-333zM336 -69q0 -13 -6.5 -33t-16 -40t-19.5 -34q-2 -4 -5 -4h-14h-15q-2 1 -2 2t2 8q7 13 15 34.5t13 36.5q-16 1 -22 10
t-6 20q0 15 8.5 24t28.5 9q18 0 28.5 -7t10.5 -26z" />
    <glyph glyph-name="uni0123" unicode="&#x123;" horiz-adv-x="485" 
d="M40 242q1 67 18.5 120.5t62.5 84.5t125 31q39 0 77 -6t67 -18q15 -5 20 -15t7 -31q9 -72 10.5 -171.5t-11.5 -207.5q-10 -86 -60.5 -125.5t-139.5 -39.5q-35 0 -76 10t-74 34q-6 5 -7.5 8.5t1.5 7.5q3 5 8 14.5t8 14.5q4 6 7.5 6.5t7.5 -3.5q16 -9 36.5 -17.5t43.5 -14
t45 -5.5q28 0 54.5 10t46 32t25.5 60q0 2 0.5 3.5t0.5 3.5q1 7 -3.5 8t-13.5 -1q-18 -5 -43.5 -9.5t-49.5 -4.5q-62 0 -105.5 26.5t-66 76t-21.5 118.5zM113 250q0 -50 12 -89t40.5 -61t77.5 -22q22 0 44 3t39 10q24 9 25 26q3 28 3 64.5t-0.5 75t-2 71.5t-4.5 55q0 7 -3 16
t-14 14q-12 6 -35.5 9.5t-49.5 3.5q-49 0 -77.5 -22t-41 -62t-13.5 -92zM212 589q-1 16 4.5 40t14.5 47.5t17 38.5q2 4 6 5q6 0 14.5 0.5t15.5 0.5q2 0 2 -2.5t-2 -7.5q-3 -8 -8 -24.5t-9.5 -33.5t-6.5 -29q17 1 23.5 -8.5t6.5 -22.5q1 -16 -6.5 -25.5t-29.5 -11.5
q-19 -1 -30 6t-12 27z" />
    <glyph glyph-name="Hbar" unicode="&#x126;" horiz-adv-x="659" 
d="M42 542q-6 0 -7.5 1.5t-1.5 3.5v30q0 3 2 4.5t8 1.5h575q5 0 6.5 -1t1.5 -5v-31q0 -2 -1.5 -3t-7.5 -1h-575zM134 0q-3 0 -6.5 1.5t-3.5 5.5q-4 34 -7 87t-5 116.5t-3 129.5q0 64 2 126t6 114t9 85q0 4 3.5 6t5.5 2h29h29q4 0 5 -7q-5 -61 -8 -118t-4.5 -101.5
t-2.5 -67.5q0 -7 2 -9t7 -2h147.5h146.5q4 0 7 1.5t3 9.5q-1 20 -2.5 64t-4.5 102.5t-8 120.5q1 7 5 7h29.5h28.5q2 0 5.5 -2t3.5 -6q6 -33 9.5 -85t5.5 -114.5t2 -126.5q0 -66 -2.5 -129t-5.5 -116t-7 -87q0 -4 -3 -5.5t-7 -1.5h-29h-29q-5 0 -5 7q6 40 9 83.5t4 84t1 74
v52.5q0 6 -2.5 7.5t-6.5 1.5h-147h-148q-5 0 -7.5 -1.5t-2.5 -7.5q0 -21 0.5 -54.5t1.5 -73.5t4 -83t9 -83q0 -7 -5 -7h-28.5h-29.5z" />
    <glyph glyph-name="hbar" unicode="&#x127;" horiz-adv-x="507" 
d="M100 7v347v347q0 7 8 7h28.5h27.5q8 0 8 -7v-116.5v-115.5q0 -7 2.5 -9t8.5 0q22 6 49.5 11.5t55.5 5.5q37 0 68.5 -11.5t54.5 -38.5t36 -73.5t14 -117.5q0 -39 -1.5 -80t-4.5 -79.5t-7 -69.5q0 -4 -3 -5.5t-9 -1.5h-23.5h-23.5q-9 0 -10.5 2t0.5 12q5 46 7 99t3 104
q0 58 -8.5 97.5t-24 62.5t-36.5 33t-46 10q-18 0 -41.5 -4t-44.5 -9q-7 -2 -11.5 -7t-4.5 -17v-376q0 -7 -8 -7h-56q-8 0 -8 7zM32 597q-5 0 -6 2t-1 5v40q0 4 1 5.5t6 1.5h266q4 0 5.5 -1t1.5 -6v-41q0 -3 -1 -4.5t-6 -1.5h-266z" />
    <glyph glyph-name="Itilde" unicode="&#x128;" horiz-adv-x="232" 
d="M153 7q0 -7 -8 -7h-58q-7 0 -7 7v658q0 8 7 8h58q8 0 8 -8v-658zM26 720q-5 0 -5 5q0 31 15.5 50t41.5 19q14 0 28.5 -9.5t27.5 -19t22 -9.5q6 0 11 7.5t5 17.5q0 7 4 7h31q5 0 5 -6q0 -26 -15.5 -47t-40.5 -21q-17 0 -31.5 10t-26 19t-20.5 9q-8 0 -12.5 -7.5
t-4.5 -18.5q0 -6 -5 -6h-30z" />
    <glyph glyph-name="itilde" unicode="&#x129;" horiz-adv-x="204" 
d="M138 7q0 -7 -7 -7h-57q-7 0 -7 7v458q0 7 7 7h57q7 0 7 -7v-458zM8 533q-5 0 -5 6q0 29 16 47t43 18q15 0 30 -8.5t28.5 -17t21.5 -8.5q7 0 12 6.5t5 15.5q0 7 4 7h33q5 0 5 -6q0 -26 -16 -45.5t-42 -19.5q-18 0 -33 9t-27 17.5t-21 8.5q-8 0 -13 -7t-5 -17q0 -6 -4 -6
h-32z" />
    <glyph glyph-name="Imacron" unicode="&#x12a;" horiz-adv-x="232" 
d="M153 7q0 -7 -8 -7h-58q-7 0 -7 7v658q0 8 7 8h58q8 0 8 -8v-658zM223 746q0 -2 -1 -3t-5 -1h-201q-4 0 -5 1.5t-1 3.5v38q0 4 1.5 5t4.5 1h201q4 0 5 -1t1 -5v-39z" />
    <glyph glyph-name="imacron" unicode="&#x12b;" horiz-adv-x="204" 
d="M138 7q0 -7 -7 -7h-57q-7 0 -7 7v458q0 7 7 7h57q7 0 7 -7v-458zM208 546q0 -2 -1 -3t-5 -1h-201q-4 0 -5 1.5t-1 3.5v38q0 4 1.5 5t4.5 1h201q4 0 5 -1t1 -5v-39z" />
    <glyph glyph-name="Iogonek" unicode="&#x12e;" horiz-adv-x="232" 
d="M153 7q0 -7 -8 -7h-58q-7 0 -7 7v658q0 8 7 8h58q8 0 8 -8v-658zM70 -215q-35 0 -60.5 21.5t-25.5 54.5q0 30 15 56t38 47.5t46 35.5q6 4 12.5 6t14.5 2h38q4 0 5 -3t-5 -7q-30 -20 -55 -41.5t-39.5 -44t-14.5 -46.5q0 -19 11.5 -28t28.5 -8q19 0 37.5 9.5t31.5 20.5
q4 4 7 3.5t3 -5.5v-28q0 -10 -11 -18q-14 -11 -32.5 -19t-44.5 -8z" />
    <glyph glyph-name="iogonek" unicode="&#x12f;" horiz-adv-x="204" 
d="M138 7q0 -7 -7 -7h-57q-7 0 -7 7v458q0 7 7 7h57q7 0 7 -7v-458zM139 576q0 -18 -7 -27t-30 -9q-21 0 -29 9t-8 27q0 17 8 26t29 9q23 0 30 -9t7 -26zM53 -217q-35 0 -60.5 21.5t-25.5 54.5q0 30 15 56t38 47.5t46 35.5q6 4 12.5 6t14.5 2h38q4 0 5 -3t-5 -7
q-30 -20 -55 -41.5t-39.5 -44t-14.5 -46.5q0 -19 11.5 -28t28.5 -8q19 0 37.5 9.5t31.5 20.5q4 4 7 3.5t3 -5.5v-28q0 -10 -11 -18q-14 -11 -32.5 -19t-44.5 -8z" />
    <glyph glyph-name="Idotaccent" unicode="&#x130;" horiz-adv-x="232" 
d="M153 7q0 -7 -8 -7h-58q-7 0 -7 7v658q0 8 7 8h58q8 0 8 -8v-658zM154 776q0 -18 -7 -27t-30 -9q-21 0 -29 9t-8 27q0 17 8 26t29 9q23 0 30 -9t7 -26z" />
    <glyph glyph-name="dotlessi" unicode="&#x131;" horiz-adv-x="204" 
d="M138 7q0 -7 -7 -7h-57q-7 0 -7 7v458q0 7 7 7h57q7 0 7 -7v-458z" />
    <glyph glyph-name="uni0136" unicode="&#x136;" horiz-adv-x="529" 
d="M84 0q-4 0 -4 4v333v332q0 4 4 4h12h20.5h20.5h12q4 0 4 -4v-73v-69v-69v-73q0 -3 1 -5.5t5 -2.5h73q6 0 9.5 3t6.5 7q20 38 37.5 72t35 67t35 67.5t37.5 72.5l5 5t5 2h12h19.5h20h12.5q5 0 5.5 -3.5t-4.5 -12.5q-28 -50 -53.5 -99t-51 -98.5t-51.5 -102.5q-4 -9 -5 -15
t-1 -12q2 -26 12 -57.5t25 -62.5t34 -58.5t39 -45.5q21 -18 45.5 -29.5t53.5 -11.5q2 0 5 -1t3 -3v-56q0 -5 -3 -5q-47 0 -83 12t-67 37q-22 18 -42 45.5t-37.5 60t-30 65.5t-17.5 63q-2 8 -5.5 10t-5.5 2h-37h-36l-3 -1t-3 -6v-73.5v-68.5v-68.5v-73.5q0 -4 -4 -4h-12
h-20.5h-20.5h-12zM317 -69q0 -13 -6.5 -33t-16 -40t-19.5 -34q-2 -4 -5 -4h-14h-15q-2 1 -2 2t2 8q7 13 15 34.5t13 36.5q-16 1 -22 10t-6 20q0 15 8.5 24t28.5 9q18 0 28.5 -7t10.5 -26z" />
    <glyph glyph-name="uni0137" unicode="&#x137;" horiz-adv-x="433" 
d="M67 4v690q0 4 4 4h63q4 0 4 -4v-399q0 -2 1 -5t4 -3q13 0 26.5 1t26.5 1q9 2 13.5 4.5t11.5 11.5q20 23 36 50t29.5 55t23.5 53q3 7 6 8t9 1h57q6 0 7 -3t-1 -7q-1 -1 -9.5 -20t-23 -47.5t-33.5 -59.5t-41 -58q-4 -4 -7 -7.5t-6 -7.5q2 -1 5 -3t4 -4q17 -18 35 -47.5
t35.5 -63.5t31.5 -64t22.5 -50t9.5 -22q4 -8 -3 -8h-12.5h-20h-19.5h-12q-4 0 -5 0.5t-4 6.5l-7 15.5t-18.5 40.5t-26 52.5t-29 53t-27.5 40.5q-5 8 -13.5 14t-24.5 8.5t-46 0.5q-5 -1 -5 -10v-218q0 -4 -4 -4h-63q-4 0 -4 4zM263 -69q0 -13 -6.5 -33t-16 -40t-19.5 -34
q-2 -4 -5 -4h-14h-15q-2 1 -2 2t2 8q7 13 15 34.5t13 36.5q-16 1 -22 10t-6 20q0 15 8.5 24t28.5 9q18 0 28.5 -7t10.5 -26z" />
    <glyph glyph-name="Lacute" unicode="&#x139;" horiz-adv-x="424" 
d="M87 0q-7 0 -7 7v658q0 8 7 8h57q5 0 7 -2t2 -7v-597q0 -4 1 -6.5t6 -2.5h241q7 0 8.5 -1.5t1.5 -7.5v-39q0 -7 -1.5 -8.5t-8.5 -1.5h-314zM111 719h-38q-5 0 -5 3t3 6l64 71q4 4 6.5 5.5t7.5 1.5h58q3 0 4.5 -2.5t-1.5 -4.5l-85 -73q-4 -3 -7 -5t-7 -2z" />
    <glyph glyph-name="lacute" unicode="&#x13a;" horiz-adv-x="204" 
d="M67 7v694q0 7 7 7h56q8 0 8 -7v-694q0 -7 -8 -7h-56q-7 0 -7 7zM67 758q-6 0 -6 2.5t3 6.5l55 88q3 6 13 6h52q3 0 4.5 -2t-2.5 -6l-71 -90q-2 -3 -4.5 -4t-7.5 -1h-36z" />
    <glyph glyph-name="uni013B" unicode="&#x13b;" horiz-adv-x="424" 
d="M87 0q-7 0 -7 7v658q0 8 7 8h57q5 0 7 -2t2 -7v-597q0 -4 1 -6.5t6 -2.5h241q7 0 8.5 -1.5t1.5 -7.5v-39q0 -7 -1.5 -8.5t-8.5 -1.5h-314zM262 -69q0 -13 -6.5 -33t-16 -40t-19.5 -34q-2 -4 -5 -4h-14h-15q-2 1 -2 2t2 8q7 13 15 34.5t13 36.5q-16 1 -22 10t-6 20
q0 15 8.5 24t28.5 9q18 0 28.5 -7t10.5 -26z" />
    <glyph glyph-name="uni013C" unicode="&#x13c;" horiz-adv-x="204" 
d="M67 7v694q0 7 7 7h56q8 0 8 -7v-694q0 -7 -8 -7h-56q-7 0 -7 7zM137 -69q0 -13 -6.5 -33t-16 -40t-19.5 -34q-2 -4 -5 -4h-14h-15q-2 1 -2 2t2 8q7 13 15 34.5t13 36.5q-16 1 -22 10t-6 20q0 15 8.5 24t28.5 9q18 0 28.5 -7t10.5 -26z" />
    <glyph glyph-name="Lcaron" unicode="&#x13d;" horiz-adv-x="424" 
d="M87 0q-7 0 -7 7v658q0 8 7 8h57q5 0 7 -2t2 -7v-597q0 -4 1 -6.5t6 -2.5h241q7 0 8.5 -1.5t1.5 -7.5v-39q0 -7 -1.5 -8.5t-8.5 -1.5h-314zM296 511q-2 0 -4 2.5t-2 7.5l-4 142q0 7 2 9t7 2h38q6 0 8 -2t1 -7l-4 -145q-1 -5 -3 -7t-6 -2h-33z" />
    <glyph glyph-name="lcaron" unicode="&#x13e;" horiz-adv-x="204" 
d="M67 7v694q0 7 7 7h56q8 0 8 -7v-694q0 -7 -8 -7h-56q-7 0 -7 7zM223 540q-2 0 -4 2.5t-2 7.5l-4 142q0 7 2 9t7 2h38q6 0 8 -2t1 -7l-4 -145q-1 -5 -3 -7t-6 -2h-33z" />
    <glyph glyph-name="Lslash" unicode="&#x141;" horiz-adv-x="454" 
d="M101 0q-8 0 -8 7v658q0 8 8 8h56q5 0 7 -2t2 -7v-597q0 -4 1 -6.5t7 -2.5h241q6 0 7.5 -1.5t1.5 -7.5v-39q0 -7 -1.5 -8.5t-8.5 -1.5h-313zM23 121q-2 -1 -3.5 -0.5l-1.5 0.5l-17 27q-2 2 2 4l243 150q2 1 4 -1l17 -27q2 -2 -1 -4z" />
    <glyph glyph-name="lslash" unicode="&#x142;" horiz-adv-x="290" 
d="M112 7v694q0 7 7 7h56q8 0 8 -7v-694q0 -7 -8 -7h-56q-7 0 -7 7zM39 109q-2 -1 -3.5 -0.5l-1.5 0.5l-16 28q-2 2 2 4l232 143q2 1 4 -1l16 -28q2 -2 -1 -4z" />
    <glyph glyph-name="Nacute" unicode="&#x143;" horiz-adv-x="641" 
d="M475 157q2 -4 6.5 -3.5t4.5 6.5q3 35 4.5 84t2 105t-0.5 113t-4.5 109t-8.5 93q-1 9 5 9h58q3 0 6 -2t3 -6q6 -35 9.5 -87.5t4.5 -115.5t0.5 -129t-2.5 -128t-5 -113.5t-7 -84.5q-1 -4 -4.5 -5.5t-7.5 -1.5h-39q-5 0 -9 9l-327 510q-1 4 -4.5 4t-4.5 -5q-2 -45 -4 -98.5
t-2.5 -111.5t1 -113.5t4 -103.5t7.5 -82q0 -9 -5 -9h-57q-4 0 -7 1.5t-4 5.5q-4 34 -7 86t-4.5 114.5t-1.5 128.5t2 128.5t5 115t9 85.5q0 4 3.5 6t5.5 2h40q5 0 8 -7zM311 719h-38q-5 0 -5 3t3 6l64 71q4 4 6.5 5.5t7.5 1.5h58q3 0 4.5 -2.5t-1.5 -4.5l-85 -73q-4 -3 -7 -5
t-7 -2z" />
    <glyph glyph-name="nacute" unicode="&#x144;" horiz-adv-x="486" 
d="M75 0q-8 0 -8 8v212v213q0 6 4 10.5t18 9.5q13 4 38.5 9.5t55 10.5t54.5 5q77 0 118.5 -30t57.5 -81.5t16 -113.5q0 -46 -2 -92.5t-4.5 -85.5t-4.5 -62q-1 -9 -3.5 -11t-11.5 -2h-43q-8 0 -11 2.5t-2 9.5q0 6 1.5 32t3.5 62.5t3.5 76t1.5 72.5q0 54 -13 90t-39.5 54
t-68.5 18q-22 0 -43 -4t-38 -10q-6 -1 -11.5 -6.5t-5.5 -18.5v-118v-125.5v-126.5q0 -8 -7 -8h-56zM212 529q-6 0 -6 2.5t3 6.5l55 88q3 6 13 6h52q3 0 4.5 -2t-2.5 -6l-71 -90q-2 -3 -4.5 -4t-7.5 -1h-36z" />
    <glyph glyph-name="uni0145" unicode="&#x145;" horiz-adv-x="641" 
d="M475 157q2 -4 6.5 -3.5t4.5 6.5q3 35 4.5 84t2 105t-0.5 113t-4.5 109t-8.5 93q-1 9 5 9h58q3 0 6 -2t3 -6q6 -35 9.5 -87.5t4.5 -115.5t0.5 -129t-2.5 -128t-5 -113.5t-7 -84.5q-1 -4 -4.5 -5.5t-7.5 -1.5h-39q-5 0 -9 9l-327 510q-1 4 -4.5 4t-4.5 -5q-2 -45 -4 -98.5
t-2.5 -111.5t1 -113.5t4 -103.5t7.5 -82q0 -9 -5 -9h-57q-4 0 -7 1.5t-4 5.5q-4 34 -7 86t-4.5 114.5t-1.5 128.5t2 128.5t5 115t9 85.5q0 4 3.5 6t5.5 2h40q5 0 8 -7zM355 -69q0 -13 -6.5 -33t-16 -40t-19.5 -34q-2 -4 -5 -4h-14h-15q-2 1 -2 2t2 8q7 13 15 34.5t13 36.5
q-16 1 -22 10t-6 20q0 15 8.5 24t28.5 9q18 0 28.5 -7t10.5 -26z" />
    <glyph glyph-name="uni0146" unicode="&#x146;" horiz-adv-x="486" 
d="M75 0q-8 0 -8 8v212v213q0 6 4 10.5t18 9.5q13 4 38.5 9.5t55 10.5t54.5 5q77 0 118.5 -30t57.5 -81.5t16 -113.5q0 -46 -2 -92.5t-4.5 -85.5t-4.5 -62q-1 -9 -3.5 -11t-11.5 -2h-43q-8 0 -11 2.5t-2 9.5q0 6 1.5 32t3.5 62.5t3.5 76t1.5 72.5q0 54 -13 90t-39.5 54
t-68.5 18q-22 0 -43 -4t-38 -10q-6 -1 -11.5 -6.5t-5.5 -18.5v-118v-125.5v-126.5q0 -8 -7 -8h-56zM283 -69q0 -13 -6.5 -33t-16 -40t-19.5 -34q-2 -4 -5 -4h-14h-15q-2 1 -2 2t2 8q7 13 15 34.5t13 36.5q-16 1 -22 10t-6 20q0 15 8.5 24t28.5 9q18 0 28.5 -7t10.5 -26z" />
    <glyph glyph-name="Ncaron" unicode="&#x147;" horiz-adv-x="641" 
d="M475 157q2 -4 6.5 -3.5t4.5 6.5q3 35 4.5 84t2 105t-0.5 113t-4.5 109t-8.5 93q-1 9 5 9h58q3 0 6 -2t3 -6q6 -35 9.5 -87.5t4.5 -115.5t0.5 -129t-2.5 -128t-5 -113.5t-7 -84.5q-1 -4 -4.5 -5.5t-7.5 -1.5h-39q-5 0 -9 9l-327 510q-1 4 -4.5 4t-4.5 -5q-2 -45 -4 -98.5
t-2.5 -111.5t1 -113.5t4 -103.5t7.5 -82q0 -9 -5 -9h-57q-4 0 -7 1.5t-4 5.5q-4 34 -7 86t-4.5 114.5t-1.5 128.5t2 128.5t5 115t9 85.5q0 4 3.5 6t5.5 2h40q5 0 8 -7zM296 718q-4 0 -7 4l-69 78q-1 2 -0.5 4.5t4.5 2.5h33q5 0 7 -3l49 -45q4 -4 8 0l50 45q3 3 7 3h34
q4 0 4.5 -2.5t-1.5 -4.5l-69 -78q-1 -4 -6 -4h-44z" />
    <glyph glyph-name="ncaron" unicode="&#x148;" horiz-adv-x="486" 
d="M75 0q-8 0 -8 8v212v213q0 6 4 10.5t18 9.5q13 4 38.5 9.5t55 10.5t54.5 5q77 0 118.5 -30t57.5 -81.5t16 -113.5q0 -46 -2 -92.5t-4.5 -85.5t-4.5 -62q-1 -9 -3.5 -11t-11.5 -2h-43q-8 0 -11 2.5t-2 9.5q0 6 1.5 32t3.5 62.5t3.5 76t1.5 72.5q0 54 -13 90t-39.5 54
t-68.5 18q-22 0 -43 -4t-38 -10q-6 -1 -11.5 -6.5t-5.5 -18.5v-118v-125.5v-126.5q0 -8 -7 -8h-56zM227 529q-4 0 -7 3l-66 90q-1 3 -0.5 5t3.5 2h35q5 0 7 -3l44 -51q4 -4 8 0l46 51q2 3 7 3h35q4 0 4.5 -2t-1.5 -5l-66 -90q-2 -3 -7 -3h-42z" />
    <glyph glyph-name="Eng" unicode="&#x14a;" horiz-adv-x="591" 
d="M526 665q7 -46 10.5 -112.5t4 -145t-1.5 -160.5t-5.5 -160t-9.5 -142q-7 -64 -22 -105.5t-46 -61.5t-84 -20q-21 0 -42.5 3.5t-37.5 10.5q-7 4 -14 9t-2 13l15 25q3 5 6 5.5t7 -2.5q12 -8 27.5 -10t28.5 -1q42 0 63 30t25 79l9 101l-318 498q-1 4 -4.5 4t-4.5 -5
q-2 -45 -4 -98.5t-2.5 -111.5t1 -113.5t4 -103.5t7.5 -82q0 -9 -5 -9h-57q-4 0 -7 1.5t-4 5.5q-4 34 -7 86t-4.5 114.5t-1.5 128.5t2 128.5t5 115t9 85.5q0 4 3.5 6t5.5 2h40q5 0 8 -7l327 -509q2 -4 6.5 -3.5t4.5 6.5q3 35 4.5 84t2 105t-0.5 113t-4.5 109t-8.5 93
q-1 9 5 9h58q3 0 6 -2t3 -6z" />
    <glyph glyph-name="eng" unicode="&#x14b;" horiz-adv-x="495" 
d="M75 0q-3 0 -5.5 1.5t-2.5 6.5v211.5v211.5q0 6 4 10.5t18 9.5q13 4 38.5 9.5t55 10.5t54.5 5q77 0 118.5 -30t57.5 -81t16 -113q0 -69 -3.5 -126.5t-8.5 -111.5q-1 -9 -3 -11.5t-11 -2.5h-21h-22q-8 0 -11 2t-2 10q0 5 1 24t2.5 47t3 59t2.5 60.5t1 51.5q0 41 -7.5 71
t-22 49.5t-38.5 28.5q-20 12 -45 13t-49.5 -3.5t-42.5 -12.5q-5 -2 -9.5 -9.5t-4.5 -23.5v-172.5v-185.5q0 -3 -1 -6t-5 -3h-29h-28zM422 82l-6 -90q-4 -76 -35.5 -118.5t-111.5 -42.5q-21 0 -42 3t-37 10q-8 5 -14.5 9.5t-1.5 12.5l15 25q3 5 5.5 5.5t7.5 -2.5q12 -6 27 -9
t28 -2q46 0 65.5 28t23.5 81l6 90h70z" />
    <glyph glyph-name="Omacron" unicode="&#x14c;" horiz-adv-x="628" 
d="M51 334q0 111 22.5 187.5t79.5 115.5t160 39q80 0 131.5 -22.5t80.5 -65.5t40 -107t11 -147t-11 -146.5t-40 -107t-80.5 -65.5t-131.5 -22q-103 0 -160 39t-79.5 115t-22.5 187zM127 334q0 -109 19.5 -169.5t60 -84.5t104.5 -24q65 0 106.5 24t62.5 84t21 170t-21 171
t-62.5 85.5t-106.5 24.5q-64 0 -104.5 -25t-60 -85.5t-19.5 -170.5zM421 746q0 -2 -1 -3t-5 -1h-201q-4 0 -5 1.5t-1 3.5v38q0 4 1.5 5t4.5 1h201q4 0 5 -1t1 -5v-39z" />
    <glyph glyph-name="omacron" unicode="&#x14d;" horiz-adv-x="493" 
d="M246 -6q-81 0 -126 31t-62.5 86t-17.5 126q0 70 19.5 124.5t64.5 85.5t122 31q78 0 123 -31t64.5 -85.5t19.5 -124.5t-17.5 -125t-62 -86.5t-127.5 -31.5zM246 51q75 0 104.5 48.5t29.5 136.5t-32 135t-102 47q-69 0 -101.5 -47t-32.5 -135q0 -89 30 -137t104 -48z
M353 546q0 -2 -1 -3t-5 -1h-201q-4 0 -5 1.5t-1 3.5v38q0 4 1.5 5t4.5 1h201q4 0 5 -1t1 -5v-39z" />
    <glyph glyph-name="Ohungarumlaut" unicode="&#x150;" horiz-adv-x="628" 
d="M51 334q0 111 22.5 187.5t79.5 115.5t160 39q80 0 131.5 -22.5t80.5 -65.5t40 -107t11 -147t-11 -146.5t-40 -107t-80.5 -65.5t-131.5 -22q-103 0 -160 39t-79.5 115t-22.5 187zM127 334q0 -109 19.5 -169.5t60 -84.5t104.5 -24q65 0 106.5 24t62.5 84t21 170t-21 171
t-62.5 85.5t-106.5 24.5q-64 0 -104.5 -25t-60 -85.5t-19.5 -170.5zM288 720q-2 -2 -4 -3.5t-8 -1.5h-28q-9 0 -5 8l55 90q3 5 13 5h48q3 0 4.5 -2t-1.5 -5zM376 720q-2 -2 -4 -3.5t-8 -1.5h-28q-5 0 -6 2.5t1 5.5l64 90q2 4 5 4.5t7 0.5h47q3 0 4.5 -2t-1.5 -5z" />
    <glyph glyph-name="ohungarumlaut" unicode="&#x151;" horiz-adv-x="493" 
d="M246 -6q-81 0 -126 31t-62.5 86t-17.5 126q0 70 19.5 124.5t64.5 85.5t122 31q78 0 123 -31t64.5 -85.5t19.5 -124.5t-17.5 -125t-62 -86.5t-127.5 -31.5zM246 51q75 0 104.5 48.5t29.5 136.5t-32 135t-102 47q-69 0 -101.5 -47t-32.5 -135q0 -89 30 -137t104 -48z
M225 534q-1 -2 -3.5 -3.5t-7.5 -1.5h-26q-8 0 -4 8l34 103q1 6 13 6h44q4 0 5 -2.5t-2 -5.5zM313 534q-1 -2 -3.5 -3.5t-8.5 -1.5h-25q-8 0 -5 8l42 103q2 6 13 6h44q3 0 4.5 -2.5t-1.5 -5.5z" />
    <glyph glyph-name="OE" unicode="&#x152;" horiz-adv-x="850" 
d="M313 -7q-103 0 -160 39t-79.5 115t-22.5 187t22.5 187.5t79.5 115.5t160 39q58 0 100.5 -13t70.5 -38v20v20q0 8 7 8h158h158q6 0 7 -1.5t1 -6.5v-21v-21q0 -6 -1 -7.5t-7 -1.5h-121.5h-121.5q-5 0 -6 -1.5t-1 -5.5v-115.5v-115.5q0 -4 1.5 -6t5.5 -2h99.5h98.5
q6 0 7.5 -1.5t1.5 -8.5v-19v-19q0 -6 -1.5 -8t-7.5 -2h-98.5h-99.5q-5 0 -6 -1.5t-1 -5.5v-118v-118q0 -4 1 -6.5t6 -2.5h121.5h120.5q7 0 8 -1.5t1 -7.5v-20v-19q0 -7 -1 -8.5t-8 -1.5h-157.5h-157.5q-7 0 -7 5v19.5v18.5q-28 -25 -70.5 -37.5t-100.5 -12.5zM311 56
q45 0 78 12t55.5 42.5t34.5 84.5v284q-12 52 -34.5 81.5t-55.5 42t-78 12.5q-64 0 -104.5 -25t-60 -85.5t-19.5 -170.5q0 -109 19.5 -169.5t60 -84.5t104.5 -24z" />
    <glyph glyph-name="oe" unicode="&#x153;" horiz-adv-x="801" 
d="M246 -6q-81 0 -126 31t-62.5 86t-17.5 126q0 70 19.5 124.5t64.5 85.5t122 31q73 0 115.5 -31.5t60.5 -86t18 -123.5q0 -51 -9 -95.5t-30.5 -77.5t-59 -51.5t-95.5 -18.5zM246 51q52 0 81.5 22t41 63.5t11.5 99.5q0 88 -30.5 135t-103.5 47q-69 0 -101.5 -47t-32.5 -135
q0 -89 30 -137t104 -48zM391 237q0 47 8.5 90t29.5 77.5t57.5 54t91.5 19.5q62 0 99 -18t55.5 -48t25 -66t6.5 -72q0 -37 -7.5 -46t-22.5 -9h-273q-3 0 -6.5 -2t-3.5 -11q3 -67 35.5 -110.5t105.5 -43.5q35 0 73.5 8.5t62.5 23.5q6 4 11.5 5.5t10.5 -8.5l13 -25q3 -5 1.5 -8
t-7.5 -7q-32 -24 -80 -34t-98 -10q-77 0 -117.5 32.5t-55.5 86.5t-15 121zM691 286q0 36 -9 66.5t-33.5 49.5t-71.5 19q-34 0 -58 -13t-38 -33.5t-21 -45t-9 -46.5q0 -10 1 -13.5t9 -3.5h106.5h107.5q9 0 13 3.5t3 16.5z" />
    <glyph glyph-name="Racute" unicode="&#x154;" horiz-adv-x="529" 
d="M88 0q-8 0 -8 7v658q0 8 8 8h144q75 0 121 -18t67.5 -60t21.5 -115q0 -65 -24.5 -114.5t-78.5 -71.5q-11 -7 -14.5 -14t1.5 -17q8 -31 22 -62.5t32.5 -58.5t39.5 -44q20 -15 42.5 -24t47.5 -9q5 0 8 -1.5t3 -7.5v-48q0 -4 -1 -5.5t-5 -2t-15 -0.5q-39 0 -71 12.5
t-58 33.5q-27 22 -50.5 55.5t-41 73t-26.5 77.5q-1 4 -4 9.5t-13 5.5h-75q-8 0 -8 -11v-249q0 -7 -8 -7h-57zM153 335q0 -4 2.5 -6t5.5 -2h79q63 0 97 36.5t34 116.5q0 58 -15 87t-46 40t-81 11h-68q-5 0 -6.5 -1.5t-1.5 -7.5v-274zM225 720h-38q-5 0 -5 3t3 6l64 71
q4 4 6.5 5.5t7.5 1.5h58q3 0 4.5 -2.5t-1.5 -4.5l-85 -73q-4 -3 -7 -5t-7 -2z" />
    <glyph glyph-name="racute" unicode="&#x155;" horiz-adv-x="327" 
d="M211 477q61 0 103 -16q5 -3 7.5 -5t1.5 -7l-10 -38q-1 -5 -3.5 -6t-7.5 1q-18 6 -39 8.5t-39 2.5q-16 0 -33 -3t-30.5 -6.5t-20.5 -6.5q-4 -3 -10 -7t-6 -18v-365q0 -7 -2 -9t-7 -2h-54q-3 0 -5.5 2t-2.5 7v409q0 15 4 20t12 9q30 14 70 22t72 8zM139 529q-6 0 -6 2.5
t3 6.5l55 88q3 6 13 6h52q3 0 4.5 -2t-2.5 -6l-71 -90q-2 -3 -4.5 -4t-7.5 -1h-36z" />
    <glyph glyph-name="uni0156" unicode="&#x156;" horiz-adv-x="529" 
d="M88 0q-8 0 -8 7v658q0 8 8 8h144q75 0 121 -18t67.5 -60t21.5 -115q0 -65 -24.5 -114.5t-78.5 -71.5q-11 -7 -14.5 -14t1.5 -17q8 -31 22 -62.5t32.5 -58.5t39.5 -44q20 -15 42.5 -24t47.5 -9q5 0 8 -1.5t3 -7.5v-48q0 -4 -1 -5.5t-5 -2t-15 -0.5q-39 0 -71 12.5
t-58 33.5q-27 22 -50.5 55.5t-41 73t-26.5 77.5q-1 4 -4 9.5t-13 5.5h-75q-8 0 -8 -11v-249q0 -7 -8 -7h-57zM153 335q0 -4 2.5 -6t5.5 -2h79q63 0 97 36.5t34 116.5q0 58 -15 87t-46 40t-81 11h-68q-5 0 -6.5 -1.5t-1.5 -7.5v-274zM302 -69q0 -13 -6.5 -33t-16 -40
t-19.5 -34q-2 -4 -5 -4h-14h-15q-2 1 -2 2t2 8q7 13 15 34.5t13 36.5q-16 1 -22 10t-6 20q0 15 8.5 24t28.5 9q18 0 28.5 -7t10.5 -26z" />
    <glyph glyph-name="uni0157" unicode="&#x157;" horiz-adv-x="327" 
d="M211 477q61 0 103 -16q5 -3 7.5 -5t1.5 -7l-10 -38q-1 -5 -3.5 -6t-7.5 1q-18 6 -39 8.5t-39 2.5q-16 0 -33 -3t-30.5 -6.5t-20.5 -6.5q-4 -3 -10 -7t-6 -18v-365q0 -7 -2 -9t-7 -2h-54q-3 0 -5.5 2t-2.5 7v409q0 15 4 20t12 9q30 14 70 22t72 8zM123 -69q0 -13 -6.5 -33
t-16 -40t-19.5 -34q-2 -4 -5 -4h-14h-15q-2 1 -2 2t2 8q7 13 15 34.5t13 36.5q-16 1 -22 10t-6 20q0 15 8.5 24t28.5 9q18 0 28.5 -7t10.5 -26z" />
    <glyph glyph-name="Rcaron" unicode="&#x158;" horiz-adv-x="529" 
d="M88 0q-8 0 -8 7v658q0 8 8 8h144q75 0 121 -18t67.5 -60t21.5 -115q0 -65 -24.5 -114.5t-78.5 -71.5q-11 -7 -14.5 -14t1.5 -17q8 -31 22 -62.5t32.5 -58.5t39.5 -44q20 -15 42.5 -24t47.5 -9q5 0 8 -1.5t3 -7.5v-48q0 -4 -1 -5.5t-5 -2t-15 -0.5q-39 0 -71 12.5
t-58 33.5q-27 22 -50.5 55.5t-41 73t-26.5 77.5q-1 4 -4 9.5t-13 5.5h-75q-8 0 -8 -11v-249q0 -7 -8 -7h-57zM153 335q0 -4 2.5 -6t5.5 -2h79q63 0 97 36.5t34 116.5q0 58 -15 87t-46 40t-81 11h-68q-5 0 -6.5 -1.5t-1.5 -7.5v-274zM210 719q-4 0 -7 4l-69 78q-1 2 -0.5 4.5
t4.5 2.5h33q5 0 7 -3l49 -45q4 -4 8 0l50 45q3 3 7 3h34q4 0 4.5 -2.5t-1.5 -4.5l-69 -78q-1 -4 -6 -4h-44z" />
    <glyph glyph-name="rcaron" unicode="&#x159;" horiz-adv-x="327" 
d="M211 477q61 0 103 -16q5 -3 7.5 -5t1.5 -7l-10 -38q-1 -5 -3.5 -6t-7.5 1q-18 6 -39 8.5t-39 2.5q-16 0 -33 -3t-30.5 -6.5t-20.5 -6.5q-4 -3 -10 -7t-6 -18v-365q0 -7 -2 -9t-7 -2h-54q-3 0 -5.5 2t-2.5 7v409q0 15 4 20t12 9q30 14 70 22t72 8zM154 529q-4 0 -7 3
l-66 90q-1 3 -0.5 5t3.5 2h35q5 0 7 -3l44 -51q4 -4 8 0l46 51q2 3 7 3h35q4 0 4.5 -2t-1.5 -5l-66 -90q-2 -3 -7 -3h-42z" />
    <glyph glyph-name="Sacute" unicode="&#x15a;" horiz-adv-x="459" 
d="M58 27v48q0 6 3.5 5t8.5 -3q20 -6 44 -12t48 -9.5t41 -3.5q70 0 105 38t35 100q0 55 -29.5 84.5t-95.5 47.5q-29 7 -60 17t-57.5 28.5t-43 51t-16.5 84.5q0 62 28 100t74 56t100 18q24 0 49 -3.5t47.5 -9.5t39.5 -14q6 -1 7.5 -3.5t1.5 -7.5v-42q0 -14 -18 -5
q-24 11 -54.5 19.5t-68.5 8.5q-59 0 -96 -29.5t-37 -83.5q0 -36 14 -58t37 -35t50 -21t54 -15q49 -15 82 -35t50.5 -55t17.5 -94q0 -65 -26.5 -110t-74 -69t-114.5 -24q-28 0 -65.5 7t-69.5 17q-6 2 -8.5 4.5t-2.5 7.5zM220 719h-38q-5 0 -5 3t3 6l64 71q4 4 6.5 5.5
t7.5 1.5h58q3 0 4.5 -2.5t-1.5 -4.5l-85 -73q-4 -3 -7 -5t-7 -2z" />
    <glyph glyph-name="sacute" unicode="&#x15b;" horiz-adv-x="394" 
d="M41 83q1 5 4.5 4.5t7.5 -3.5q16 -10 40 -17t49 -11t43 -4q28 0 53 9t40.5 28.5t15.5 50.5q0 37 -27.5 52.5t-88.5 23.5q-38 5 -70.5 17.5t-52 37.5t-19.5 67q0 46 24 76.5t63 46.5t83 16q36 0 77 -10t65 -27q5 -2 5 -4.5t-1 -6.5l-13 -39q-2 -8 -12 -2q-19 13 -53.5 23
t-67.5 10q-45 0 -73 -22.5t-28 -55.5q0 -34 28.5 -49t78.5 -21q33 -4 60 -11.5t47 -21t31 -36.5t11 -58q0 -43 -16 -72t-42.5 -46.5t-58.5 -25t-63 -7.5q-15 0 -42 4t-54.5 12t-45.5 20q-4 2 -5.5 4t-0.5 6zM170 529q-6 0 -6 2.5t3 6.5l55 88q3 6 13 6h52q3 0 4.5 -2
t-2.5 -6l-71 -90q-2 -3 -4.5 -4t-7.5 -1h-36z" />
    <glyph glyph-name="Scedilla" unicode="&#x15e;" horiz-adv-x="459" 
d="M58 27v48q0 6 3.5 5t8.5 -3q20 -6 44 -12t48 -9.5t41 -3.5q70 0 105 38t35 100q0 55 -29.5 84.5t-95.5 47.5q-29 7 -60 17t-57.5 28.5t-43 51t-16.5 84.5q0 62 28 100t74 56t100 18q24 0 49 -3.5t47.5 -9.5t39.5 -14q6 -1 7.5 -3.5t1.5 -7.5v-42q0 -14 -18 -5
q-24 11 -54.5 19.5t-68.5 8.5q-59 0 -96 -29.5t-37 -83.5q0 -36 14 -58t37 -35t50 -21t54 -15q49 -15 82 -35t50.5 -55t17.5 -94q0 -65 -26.5 -110t-74 -69t-114.5 -24q-28 0 -65.5 7t-69.5 17q-6 2 -8.5 4.5t-2.5 7.5zM265 -69q0 -13 -6.5 -33t-16 -40t-19.5 -34
q-2 -4 -5 -4h-14h-15q-2 1 -2 2t2 8q7 13 15 34.5t13 36.5q-16 1 -22 10t-6 20q0 15 8.5 24t28.5 9q18 0 28.5 -7t10.5 -26z" />
    <glyph glyph-name="scedilla" unicode="&#x15f;" horiz-adv-x="394" 
d="M41 83q1 5 4.5 4.5t7.5 -3.5q16 -10 40 -17t49 -11t43 -4q28 0 53 9t40.5 28.5t15.5 50.5q0 37 -27.5 52.5t-88.5 23.5q-38 5 -70.5 17.5t-52 37.5t-19.5 67q0 46 24 76.5t63 46.5t83 16q36 0 77 -10t65 -27q5 -2 5 -4.5t-1 -6.5l-13 -39q-2 -8 -12 -2q-19 13 -53.5 23
t-67.5 10q-45 0 -73 -22.5t-28 -55.5q0 -34 28.5 -49t78.5 -21q33 -4 60 -11.5t47 -21t31 -36.5t11 -58q0 -43 -16 -72t-42.5 -46.5t-58.5 -25t-63 -7.5q-15 0 -42 4t-54.5 12t-45.5 20q-4 2 -5.5 4t-0.5 6zM233 -72q0 -13 -6.5 -33t-16 -40t-19.5 -34q-2 -4 -5 -4h-14h-15
q-2 1 -2 2t2 8q7 13 15 34.5t13 36.5q-16 1 -22 10t-6 20q0 15 8.5 24t28.5 9q18 0 28.5 -7t10.5 -26z" />
    <glyph glyph-name="Scaron" unicode="&#x160;" horiz-adv-x="459" 
d="M58 27v48q0 6 3.5 5t8.5 -3q20 -6 44 -12t48 -9.5t41 -3.5q70 0 105 38t35 100q0 55 -29.5 84.5t-95.5 47.5q-29 7 -60 17t-57.5 28.5t-43 51t-16.5 84.5q0 62 28 100t74 56t100 18q24 0 49 -3.5t47.5 -9.5t39.5 -14q6 -1 7.5 -3.5t1.5 -7.5v-42q0 -14 -18 -5
q-24 11 -54.5 19.5t-68.5 8.5q-59 0 -96 -29.5t-37 -83.5q0 -36 14 -58t37 -35t50 -21t54 -15q49 -15 82 -35t50.5 -55t17.5 -94q0 -65 -26.5 -110t-74 -69t-114.5 -24q-28 0 -65.5 7t-69.5 17q-6 2 -8.5 4.5t-2.5 7.5zM205 718q-4 0 -7 4l-69 78q-1 2 -0.5 4.5t4.5 2.5h33
q5 0 7 -3l49 -45q4 -4 8 0l50 45q3 3 7 3h34q4 0 4.5 -2.5t-1.5 -4.5l-69 -78q-1 -4 -6 -4h-44z" />
    <glyph glyph-name="scaron" unicode="&#x161;" horiz-adv-x="394" 
d="M41 83q1 5 4.5 4.5t7.5 -3.5q16 -10 40 -17t49 -11t43 -4q28 0 53 9t40.5 28.5t15.5 50.5q0 37 -27.5 52.5t-88.5 23.5q-38 5 -70.5 17.5t-52 37.5t-19.5 67q0 46 24 76.5t63 46.5t83 16q36 0 77 -10t65 -27q5 -2 5 -4.5t-1 -6.5l-13 -39q-2 -8 -12 -2q-19 13 -53.5 23
t-67.5 10q-45 0 -73 -22.5t-28 -55.5q0 -34 28.5 -49t78.5 -21q33 -4 60 -11.5t47 -21t31 -36.5t11 -58q0 -43 -16 -72t-42.5 -46.5t-58.5 -25t-63 -7.5q-15 0 -42 4t-54.5 12t-45.5 20q-4 2 -5.5 4t-0.5 6zM184 529q-4 0 -7 3l-66 90q-1 3 -0.5 5t3.5 2h35q5 0 7 -3l44 -51
q4 -4 8 0l46 51q2 3 7 3h35q4 0 4.5 -2t-1.5 -5l-66 -90q-2 -3 -7 -3h-42z" />
    <glyph glyph-name="uni0162" unicode="&#x162;" horiz-adv-x="435" 
d="M188 0q-3 0 -5.5 2t-2.5 5v599q0 5 -1.5 6.5t-5.5 1.5h-143q-5 0 -7 1.5t-2 5.5v45q0 4 1.5 5.5t6.5 1.5h375q6 0 8 -2t2 -6v-43q0 -5 -2 -6.5t-8 -1.5h-142q-5 0 -7 -1.5t-2 -6.5v-599q0 -7 -7 -7h-58zM253 -69q0 -13 -6.5 -33t-16 -40t-19.5 -34q-2 -4 -5 -4h-14h-15
q-2 1 -2 2t2 8q7 13 15 34.5t13 36.5q-16 1 -22 10t-6 20q0 15 8.5 24t28.5 9q18 0 28.5 -7t10.5 -26z" />
    <glyph glyph-name="uni0163" unicode="&#x163;" horiz-adv-x="327" 
d="M222 0q-62 0 -92 26.5t-39 74.5q-9 42 -9 88.5v95.5q0 34 0.5 65t2.5 63q0 9 -8 9h-51q-4 0 -6 2t-2 6v34q0 4 2 6t7 2h51q5 0 7 2.5t2 9.5l5 85q0 7 6 7h56q3 0 5.5 -2t2.5 -5l-4 -85q-1 -7 0.5 -9.5t6.5 -2.5h117q5 0 6.5 -1.5t1.5 -7.5v-32q0 -4 -2 -6.5t-7 -2.5h-116
q-4 0 -7 -2.5t-3 -8.5q-1 -32 -2 -65t-1 -67q0 -41 0.5 -83.5t9.5 -82.5q6 -28 22.5 -42t51.5 -14q14 0 28 3.5t28 7.5q7 4 9 3t4 -7l11 -33q2 -6 -1.5 -9t-13.5 -8q-11 -4 -26.5 -7.5t-29.5 -5t-23 -1.5zM236 -66q0 -13 -6.5 -33t-16 -40t-19.5 -34q-2 -4 -5 -4h-14h-15
q-2 1 -2 2t2 8q7 13 15 34.5t13 36.5q-16 1 -22 10t-6 20q0 15 8.5 24t28.5 9q18 0 28.5 -7t10.5 -26z" />
    <glyph glyph-name="Tcaron" unicode="&#x164;" horiz-adv-x="435" 
d="M188 0q-3 0 -5.5 2t-2.5 5v599q0 5 -1.5 6.5t-5.5 1.5h-143q-5 0 -7 1.5t-2 5.5v45q0 4 1.5 5.5t6.5 1.5h375q6 0 8 -2t2 -6v-43q0 -5 -2 -6.5t-8 -1.5h-142q-5 0 -7 -1.5t-2 -6.5v-599q0 -7 -7 -7h-58zM196 718q-4 0 -7 4l-69 78q-1 2 -0.5 4.5t4.5 2.5h33q5 0 7 -3
l49 -45q4 -4 8 0l50 45q3 3 7 3h34q4 0 4.5 -2.5t-1.5 -4.5l-69 -78q-1 -4 -6 -4h-44z" />
    <glyph glyph-name="tcaron" unicode="&#x165;" horiz-adv-x="327" 
d="M222 0q-62 0 -92 26.5t-39 74.5q-9 42 -9 88.5v95.5q0 34 0.5 65t2.5 63q0 9 -8 9h-51q-4 0 -6 2t-2 6v34q0 4 2 6t7 2h51q5 0 7 2.5t2 9.5l5 85q0 7 6 7h56q3 0 5.5 -2t2.5 -5l-4 -85q-1 -7 0.5 -9.5t6.5 -2.5h117q5 0 6.5 -1.5t1.5 -7.5v-32q0 -4 -2 -6.5t-7 -2.5h-116
q-4 0 -7 -2.5t-3 -8.5q-1 -32 -2 -65t-1 -67q0 -41 0.5 -83.5t9.5 -82.5q6 -28 22.5 -42t51.5 -14q14 0 28 3.5t28 7.5q7 4 9 3t4 -7l11 -33q2 -6 -1.5 -9t-13.5 -8q-11 -4 -26.5 -7.5t-29.5 -5t-23 -1.5zM345 411q-2 0 -4 2.5t-2 7.5l-4 142q0 7 2 9t7 2h38q6 0 8 -2t1 -7
l-4 -145q-1 -5 -3 -7t-6 -2h-33z" />
    <glyph glyph-name="Tbar" unicode="&#x166;" horiz-adv-x="459" 
d="M188 0q-3 0 -5.5 2t-2.5 5v599q0 5 -1.5 6.5t-5.5 1.5h-143q-5 0 -7 1.5t-2 5.5v45q0 4 1.5 5.5t6.5 1.5h375q6 0 8 -2t2 -6v-43q0 -5 -2 -6.5t-8 -1.5h-142q-5 0 -7 -1.5t-2 -6.5v-599q0 -7 -7 -7h-58zM95 411q-5 0 -6 2t-1 5v40q0 4 1 5.5t6 1.5h266q4 0 5.5 -1t1.5 -6
v-41q0 -3 -1 -4.5t-6 -1.5h-266z" />
    <glyph glyph-name="tbar" unicode="&#x167;" horiz-adv-x="327" 
d="M22 308q-3 0 -4 1.5t-1 4.5v33q0 3 1 4.5t4 1.5h203q3 0 4.5 -1t1.5 -5v-34q0 -2 -1.5 -3.5t-4.5 -1.5h-203zM222 0q-62 0 -92 26.5t-39 74.5q-9 42 -9 88.5v95.5q0 34 0.5 65t2.5 63q0 9 -8 9h-51q-4 0 -6 2t-2 6v34q0 4 2 6t7 2h51q5 0 7 2.5t2 9.5l5 85q0 7 6 7h56
q3 0 5.5 -2t2.5 -5l-4 -85q-1 -7 0.5 -9.5t6.5 -2.5h117q5 0 6.5 -1.5t1.5 -7.5v-32q0 -4 -2 -6.5t-7 -2.5h-116q-4 0 -7 -2.5t-3 -8.5q-1 -32 -2 -65t-1 -67q0 -41 0.5 -83.5t9.5 -82.5q6 -28 22.5 -42t51.5 -14q14 0 28 3.5t28 7.5q7 4 9 3t4 -7l11 -33q2 -6 -1.5 -9
t-13.5 -8q-11 -4 -26.5 -7.5t-29.5 -5t-23 -1.5z" />
    <glyph glyph-name="Utilde" unicode="&#x168;" horiz-adv-x="634" 
d="M317 -6q-82 0 -129 19t-70 48t-30.5 59t-10.5 53q-4 42 -6 91.5t-1 97.5q1 49 3 102t6.5 104t10.5 95q0 4 2.5 7t6.5 3h27h27q5 0 6 -2t1 -10q-4 -40 -7.5 -84t-5.5 -91q-4 -80 -4.5 -158t6.5 -147q2 -20 8 -42.5t22.5 -42t49 -32t86.5 -12.5q55 0 87.5 12.5t49.5 32
t23.5 42t8.5 42.5q6 67 6 143.5t-4 155.5q-2 48 -5.5 94t-7.5 87q-1 8 0.5 10t5.5 2h28.5h28.5q4 0 6 -3t2 -7q7 -44 11 -94.5t6.5 -102.5t2.5 -101q1 -49 -0.5 -99t-6.5 -93q-2 -18 -7 -41.5t-17.5 -47.5t-38.5 -44.5t-69 -33t-108 -12.5zM227 720q-5 0 -5 5q0 31 15.5 50
t41.5 19q14 0 28.5 -9.5t27.5 -19t22 -9.5q6 0 11 7.5t5 17.5q0 7 4 7h31q5 0 5 -6q0 -26 -15.5 -47t-40.5 -21q-17 0 -31.5 10t-26 19t-20.5 9q-8 0 -12.5 -7.5t-4.5 -18.5q0 -6 -5 -6h-30z" />
    <glyph glyph-name="utilde" unicode="&#x169;" horiz-adv-x="487" 
d="M250 -4q-76 0 -117.5 30t-58 81t-16.5 113q0 46 2 92t4.5 85t3.5 62q2 9 5 11t11 2h43q8 0 11 -1t2 -11q0 -6 -1.5 -31t-3.5 -61t-3 -76t-1 -76q0 -75 27.5 -118t91.5 -43q8 0 24.5 1.5t34 5.5t29.5 10.5t12 16.5v374q0 3 1 6t4 3h57q3 0 5.5 -1.5t2.5 -6.5v-415
q0 -12 -6 -17.5t-25 -12.5q-9 -3 -32.5 -8.5t-52.5 -10t-54 -4.5zM150 533q-5 0 -5 6q0 29 16 47t43 18q15 0 30 -8.5t28.5 -17t21.5 -8.5q7 0 12 6.5t5 15.5q0 7 4 7h33q5 0 5 -6q0 -26 -16 -45.5t-42 -19.5q-18 0 -33 9t-27 17.5t-21 8.5q-8 0 -13 -7t-5 -17q0 -6 -4 -6
h-32z" />
    <glyph glyph-name="Umacron" unicode="&#x16a;" horiz-adv-x="634" 
d="M317 -6q-82 0 -129 19t-70 48t-30.5 59t-10.5 53q-4 42 -6 91.5t-1 97.5q1 49 3 102t6.5 104t10.5 95q0 4 2.5 7t6.5 3h27h27q5 0 6 -2t1 -10q-4 -40 -7.5 -84t-5.5 -91q-4 -80 -4.5 -158t6.5 -147q2 -20 8 -42.5t22.5 -42t49 -32t86.5 -12.5q55 0 87.5 12.5t49.5 32
t23.5 42t8.5 42.5q6 67 6 143.5t-4 155.5q-2 48 -5.5 94t-7.5 87q-1 8 0.5 10t5.5 2h28.5h28.5q4 0 6 -3t2 -7q7 -44 11 -94.5t6.5 -102.5t2.5 -101q1 -49 -0.5 -99t-6.5 -93q-2 -18 -7 -41.5t-17.5 -47.5t-38.5 -44.5t-69 -33t-108 -12.5zM424 746q0 -2 -1 -3t-5 -1h-201
q-4 0 -5 1.5t-1 3.5v38q0 4 1.5 5t4.5 1h201q4 0 5 -1t1 -5v-39z" />
    <glyph glyph-name="umacron" unicode="&#x16b;" horiz-adv-x="487" 
d="M250 -4q-76 0 -117.5 30t-58 81t-16.5 113q0 46 2 92t4.5 85t3.5 62q2 9 5 11t11 2h43q8 0 11 -1t2 -11q0 -6 -1.5 -31t-3.5 -61t-3 -76t-1 -76q0 -75 27.5 -118t91.5 -43q8 0 24.5 1.5t34 5.5t29.5 10.5t12 16.5v374q0 3 1 6t4 3h57q3 0 5.5 -1.5t2.5 -6.5v-415
q0 -12 -6 -17.5t-25 -12.5q-9 -3 -32.5 -8.5t-52.5 -10t-54 -4.5zM351 546q0 -2 -1 -3t-5 -1h-201q-4 0 -5 1.5t-1 3.5v38q0 4 1.5 5t4.5 1h201q4 0 5 -1t1 -5v-39z" />
    <glyph glyph-name="Uring" unicode="&#x16e;" horiz-adv-x="634" 
d="M317 -6q-82 0 -129 19t-70 48t-30.5 59t-10.5 53q-4 42 -6 91.5t-1 97.5q1 49 3 102t6.5 104t10.5 95q0 4 2.5 7t6.5 3h27h27q5 0 6 -2t1 -10q-4 -40 -7.5 -84t-5.5 -91q-4 -80 -4.5 -158t6.5 -147q2 -20 8 -42.5t22.5 -42t49 -32t86.5 -12.5q55 0 87.5 12.5t49.5 32
t23.5 42t8.5 42.5q6 67 6 143.5t-4 155.5q-2 48 -5.5 94t-7.5 87q-1 8 0.5 10t5.5 2h28.5h28.5q4 0 6 -3t2 -7q7 -44 11 -94.5t6.5 -102.5t2.5 -101q1 -49 -0.5 -99t-6.5 -93q-2 -18 -7 -41.5t-17.5 -47.5t-38.5 -44.5t-69 -33t-108 -12.5zM400 790q0 -35 -19.5 -56.5
t-63.5 -21.5q-46 0 -65 21.5t-19 56.5q0 34 19 55t65 21q44 0 63.5 -21t19.5 -55zM363 792q0 16 -8 26.5t-37 10.5q-30 0 -38.5 -10.5t-8.5 -26.5q0 -14 8 -28t39 -14q32 0 38.5 14t6.5 28z" />
    <glyph glyph-name="uring" unicode="&#x16f;" horiz-adv-x="487" 
d="M250 -4q-76 0 -117.5 30t-58 81t-16.5 113q0 46 2 92t4.5 85t3.5 62q2 9 5 11t11 2h43q8 0 11 -1t2 -11q0 -6 -1.5 -31t-3.5 -61t-3 -76t-1 -76q0 -75 27.5 -118t91.5 -43q8 0 24.5 1.5t34 5.5t29.5 10.5t12 16.5v374q0 3 1 6t4 3h57q3 0 5.5 -1.5t2.5 -6.5v-415
q0 -12 -6 -17.5t-25 -12.5q-9 -3 -32.5 -8.5t-52.5 -10t-54 -4.5zM327 590q0 -35 -19.5 -56.5t-63.5 -21.5q-46 0 -65 21.5t-19 56.5q0 34 19 55t65 21q44 0 63.5 -21t19.5 -55zM290 592q0 16 -8 26.5t-37 10.5q-30 0 -38.5 -10.5t-8.5 -26.5q0 -14 8 -28t39 -14
q32 0 38.5 14t6.5 28z" />
    <glyph glyph-name="Uhungarumlaut" unicode="&#x170;" horiz-adv-x="634" 
d="M317 -6q-82 0 -129 19t-70 48t-30.5 59t-10.5 53q-4 42 -6 91.5t-1 97.5q1 49 3 102t6.5 104t10.5 95q0 4 2.5 7t6.5 3h27h27q5 0 6 -2t1 -10q-4 -40 -7.5 -84t-5.5 -91q-4 -80 -4.5 -158t6.5 -147q2 -20 8 -42.5t22.5 -42t49 -32t86.5 -12.5q55 0 87.5 12.5t49.5 32
t23.5 42t8.5 42.5q6 67 6 143.5t-4 155.5q-2 48 -5.5 94t-7.5 87q-1 8 0.5 10t5.5 2h28.5h28.5q4 0 6 -3t2 -7q7 -44 11 -94.5t6.5 -102.5t2.5 -101q1 -49 -0.5 -99t-6.5 -93q-2 -18 -7 -41.5t-17.5 -47.5t-38.5 -44.5t-69 -33t-108 -12.5zM291 720q-2 -2 -4 -3.5t-8 -1.5
h-28q-9 0 -5 8l55 90q3 5 13 5h48q3 0 4.5 -2t-1.5 -5zM379 720q-2 -2 -4 -3.5t-8 -1.5h-28q-5 0 -6 2.5t1 5.5l64 90q2 4 5 4.5t7 0.5h47q3 0 4.5 -2t-1.5 -5z" />
    <glyph glyph-name="uhungarumlaut" unicode="&#x171;" horiz-adv-x="487" 
d="M250 -4q-76 0 -117.5 30t-58 81t-16.5 113q0 46 2 92t4.5 85t3.5 62q2 9 5 11t11 2h43q8 0 11 -1t2 -11q0 -6 -1.5 -31t-3.5 -61t-3 -76t-1 -76q0 -75 27.5 -118t91.5 -43q8 0 24.5 1.5t34 5.5t29.5 10.5t12 16.5v374q0 3 1 6t4 3h57q3 0 5.5 -1.5t2.5 -6.5v-415
q0 -12 -6 -17.5t-25 -12.5q-9 -3 -32.5 -8.5t-52.5 -10t-54 -4.5zM223 534q-1 -2 -3.5 -3.5t-7.5 -1.5h-26q-8 0 -4 8l34 103q1 6 13 6h44q4 0 5 -2.5t-2 -5.5zM311 534q-1 -2 -3.5 -3.5t-8.5 -1.5h-25q-8 0 -5 8l42 103q2 6 13 6h44q3 0 4.5 -2.5t-1.5 -5.5z" />
    <glyph glyph-name="Uogonek" unicode="&#x172;" horiz-adv-x="634" 
d="M317 -6q-82 0 -129 19t-70 48t-30.5 59t-10.5 53q-4 42 -6 91.5t-1 97.5q1 49 3 102t6.5 104t10.5 95q0 4 2.5 7t6.5 3h27h27q5 0 6 -2t1 -10q-4 -40 -7.5 -84t-5.5 -91q-4 -80 -4.5 -158t6.5 -147q2 -20 8 -42.5t22.5 -42t49 -32t86.5 -12.5q55 0 87.5 12.5t49.5 32
t23.5 42t8.5 42.5q6 67 6 143.5t-4 155.5q-2 48 -5.5 94t-7.5 87q-1 8 0.5 10t5.5 2h28.5h28.5q4 0 6 -3t2 -7q7 -44 11 -94.5t6.5 -102.5t2.5 -101q1 -49 -0.5 -99t-6.5 -93q-2 -18 -7 -41.5t-17.5 -47.5t-38.5 -44.5t-69 -33t-108 -12.5zM303 -212q-35 0 -60.5 21.5
t-25.5 54.5q0 30 15 56t38 47.5t46 35.5q6 4 12.5 6t14.5 2h38q4 0 5 -3t-5 -7q-30 -20 -55 -41.5t-39.5 -44t-14.5 -46.5q0 -19 11.5 -28t28.5 -8q19 0 37.5 9.5t31.5 20.5q4 4 7 3.5t3 -5.5v-28q0 -10 -11 -18q-14 -11 -32.5 -19t-44.5 -8z" />
    <glyph glyph-name="uogonek" unicode="&#x173;" horiz-adv-x="487" 
d="M250 -4q-76 0 -117.5 30t-58 81t-16.5 113q0 46 2 92t4.5 85t3.5 62q2 9 5 11t11 2h43q8 0 11 -1t2 -11q0 -6 -1.5 -31t-3.5 -61t-3 -76t-1 -76q0 -75 27.5 -118t91.5 -43q8 0 24.5 1.5t34 5.5t29.5 10.5t12 16.5v374q0 3 1 6t4 3h57q3 0 5.5 -1.5t2.5 -6.5v-415
q0 -12 -6 -17.5t-25 -12.5q-9 -3 -32.5 -8.5t-52.5 -10t-54 -4.5zM242 -207q-35 0 -60.5 21.5t-25.5 54.5q0 30 15 56t38 47.5t46 35.5q6 4 12.5 6t14.5 2h38q4 0 5 -3t-5 -7q-30 -20 -55 -41.5t-39.5 -44t-14.5 -46.5q0 -19 11.5 -28t28.5 -8q19 0 37.5 9.5t31.5 20.5
q4 4 7 3.5t3 -5.5v-28q0 -10 -11 -18q-14 -11 -32.5 -19t-44.5 -8z" />
    <glyph glyph-name="Wcircumflex" unicode="&#x174;" horiz-adv-x="825" 
d="M228 0q-11 0 -15 10q-22 42 -45 105.5t-45 138t-41 150t-33 142.5t-21 117q0 4 1 7t6 3h10h17.5h17.5h11q6 0 7.5 -1.5t1.5 -6.5q7 -44 21.5 -112t36.5 -156q16 -63 31.5 -118.5t30 -100t27.5 -75.5q2 -4 3.5 -6.5t3.5 -2.5h3.5h3.5t4 2.5t3 6.5q9 21 20.5 53.5
t23.5 70.5t23.5 76t21.5 70.5t15 53.5q-1 32 -2 70t-3 73.5t-3 61t-1 32.5q0 4 1 7t6 3h11h17.5h17.5h11q5 0 6.5 -2t1.5 -7q1 -46 4.5 -92t9.5 -88t13 -76q16 -79 40.5 -155t51.5 -149q3 -6 4 -8.5t4 -2.5h3.5h3.5q3 0 6 7q11 26 25.5 69.5t31.5 100t33 120.5
q12 44 21 81.5t16 70.5t13 62.5t10 57.5q1 6 3 8t6 2h11h17h17.5h11.5q9 0 6 -12q-7 -43 -21.5 -109t-34 -143t-41 -153t-44 -140.5t-42.5 -105.5q-1 -4 -4.5 -7t-9.5 -3h-20.5h-25h-21.5q-4 0 -7.5 4t-4.5 6q-17 34 -35 80.5t-35 101.5t-33 112q-2 8 -5 10t-7 -10
q-14 -51 -27.5 -95t-25.5 -80.5t-23.5 -65.5t-22.5 -53q-2 -6 -6.5 -8t-8.5 -2h-20.5h-24h-19.5zM319 718q-4 0 -4.5 2.5t0.5 4.5l68 78q3 4 7 4h45q5 0 8 -4l67 -78q2 -2 1.5 -4.5t-4.5 -2.5h-33q-4 0 -6 1.5t-6 3.5l-44 41q-4 3 -9 0l-46 -42q-2 -1 -4 -2.5t-6 -1.5h-34z
" />
    <glyph glyph-name="wcircumflex" unicode="&#x175;" horiz-adv-x="626" 
d="M164 10q-28 56 -52 117.5t-42 122t-30.5 113t-18.5 91.5q-2 9 -0.5 13.5t6.5 4.5h58q9 0 11 -10q5 -30 13.5 -71.5t20.5 -85.5t25 -85.5t24.5 -74t21.5 -49.5q2 -6 5 -5t4 4q12 19 23 50t20 65.5t14.5 64.5t5.5 47q0 12 -0.5 31.5t-0.5 40.5t-0.5 39.5t-0.5 28.5t9 10h57
q4 0 7 -2t3 -8q0 -22 1 -58t2 -88q1 -14 6.5 -38t14.5 -51t18.5 -54t18 -48t14.5 -31q4 -9 9 0q10 19 22 52t24.5 74t23.5 84.5t19.5 84.5t13.5 72q1 11 13 11h51q6 0 7.5 -4t-0.5 -12q-6 -42 -19.5 -98.5t-32 -119t-42 -122t-48.5 -106.5q-3 -6 -6 -8t-7 -2h-48
q-4 0 -6.5 1.5t-5.5 6.5q-13 23 -26.5 53.5t-25 60t-17.5 51.5q-6 19 -15 0q-4 -16 -11 -35t-15 -38t-16 -36q-7 -15 -14.5 -30t-12.5 -26q-2 -4 -5.5 -6t-7.5 -2h-46q-6 0 -8 1.5t-6 8.5zM220 529q-3 0 -3.5 2t0.5 5l66 90q3 3 7 3h42q5 0 7 -3l66 -90q2 -3 1.5 -5t-4.5 -2
h-35q-5 0 -7 3l-46 51q-4 4 -8 0l-44 -51q-2 -3 -7 -3h-35z" />
    <glyph glyph-name="Ycircumflex" unicode="&#x176;" horiz-adv-x="487" 
d="M293 302q-6 -8 -8.5 -22.5t-2.5 -25.5v-247q0 -3 -2.5 -5t-5.5 -2h-58q-7 0 -7 7v245q0 18 -7 36.5t-15 29.5q-9 12 -21 30t-24.5 38t-22.5 37t-15 27q-28 53 -47 98t-29 75.5t-12 36.5q-2 7 1 10t9 3h55q7 0 10 -11q4 -11 15.5 -40t28 -66t34.5 -74q13 -26 29 -53
t35 -54q6 -8 10 -9.5t11 8.5q11 14 22.5 32t23 37.5t19.5 35.5q18 35 34 73.5t27.5 68.5t14.5 42q2 6 4.5 8t6.5 2h57q4 0 7 -3t1 -10q-1 -6 -10.5 -35.5t-27.5 -74t-46 -96.5q-6 -13 -17.5 -32.5t-24.5 -41.5t-26.5 -42.5t-25.5 -35.5zM150 718q-4 0 -4.5 2.5t0.5 4.5
l68 78q3 4 7 4h45q5 0 8 -4l67 -78q2 -2 1.5 -4.5t-4.5 -2.5h-33q-4 0 -6 1.5t-6 3.5l-44 41q-4 3 -9 0l-46 -42q-2 -1 -4 -2.5t-6 -1.5h-34z" />
    <glyph glyph-name="ycircumflex" unicode="&#x177;" horiz-adv-x="411" 
d="M158 70q-23 34 -44.5 82.5t-39 103.5t-29.5 108.5t-19 95.5q-2 12 8 12h55q6 0 9.5 -3t4.5 -12q2 -25 9.5 -60.5t18.5 -74.5t23 -77t25 -69t24 -48q4 -7 8 -7t5 4q14 25 29 66t30 89t26 95.5t15 85.5q0 7 3.5 9t9.5 2h49q5 0 8 -2t2 -11q-5 -35 -13 -69.5t-17.5 -69
t-21.5 -72.5q-12 -34 -28.5 -81.5t-40.5 -98t-56 -94t-74.5 -70.5t-96.5 -27q-15 0 -28 1.5t-24 4.5q-12 5 -8 15l14 31q3 5 6 5.5t8 -1.5q25 -4 53.5 5t49.5 26q20 14 30.5 26.5t20.5 29.5q5 11 4.5 24t-8.5 26zM118 529q-3 0 -3.5 2t0.5 5l66 90q3 3 7 3h42q5 0 7 -3
l66 -90q2 -3 1.5 -5t-4.5 -2h-35q-5 0 -7 3l-46 51q-4 4 -8 0l-44 -51q-2 -3 -7 -3h-35z" />
    <glyph glyph-name="Ydieresis" unicode="&#x178;" horiz-adv-x="487" 
d="M293 302q-6 -8 -8.5 -22.5t-2.5 -25.5v-247q0 -3 -2.5 -5t-5.5 -2h-58q-7 0 -7 7v245q0 18 -7 36.5t-15 29.5q-9 12 -21 30t-24.5 38t-22.5 37t-15 27q-28 53 -47 98t-29 75.5t-12 36.5q-2 7 1 10t9 3h55q7 0 10 -11q4 -11 15.5 -40t28 -66t34.5 -74q13 -26 29 -53
t35 -54q6 -8 10 -9.5t11 8.5q11 14 22.5 32t23 37.5t19.5 35.5q18 35 34 73.5t27.5 68.5t14.5 42q2 6 4.5 8t6.5 2h57q4 0 7 -3t1 -10q-1 -6 -10.5 -35.5t-27.5 -74t-46 -96.5q-6 -13 -17.5 -32.5t-24.5 -41.5t-26.5 -42.5t-25.5 -35.5zM212 773q0 -16 -8 -24.5t-31 -8.5
q-21 0 -29.5 8.5t-8.5 24.5q0 17 8.5 25.5t29.5 8.5q23 0 31 -8.5t8 -25.5zM351 773q0 -16 -7 -24.5t-31 -8.5q-22 0 -30 8.5t-8 24.5q0 17 8 25.5t30 8.5q24 0 31 -8.5t7 -25.5z" />
    <glyph glyph-name="Zacute" unicode="&#x179;" horiz-adv-x="449" 
d="M406 673q5 0 6 -2t1 -9v-33q0 -12 -9.5 -28t-22.5 -31q-29 -33 -63 -80.5t-68 -103.5t-64.5 -114t-54 -113t-35.5 -101h333q5 0 7 -1.5t2 -5.5v-43q0 -5 -2 -6.5t-7 -1.5h-391q-11 0 -14 6.5t-2 17.5q1 40 18 92t45 110t61 115.5t67 110.5t64 95t50 67h-288q-6 0 -7.5 2
t-1.5 6v43q0 4 1.5 6t7.5 2h367zM223 719h-38q-5 0 -5 3t3 6l64 71q4 4 6.5 5.5t7.5 1.5h58q3 0 4.5 -2.5t-1.5 -4.5l-85 -73q-4 -3 -7 -5t-7 -2z" />
    <glyph glyph-name="zacute" unicode="&#x17a;" horiz-adv-x="359" 
d="M25 18q8 60 36.5 120.5t66.5 121.5q26 43 52.5 80t49.5 64q4 4 4.5 6.5t-6.5 3.5h-174q-4 0 -6 2t-2 6v42q0 6 2 7t7 1h267q7 0 8 -2t1 -9v-33q0 -5 -4 -12.5t-11 -13.5q-22 -19 -46 -48t-45.5 -61t-40.5 -62q-27 -47 -49 -88t-32 -72q-1 -4 0 -9t9 -5h210q5 0 6 -1.5
t1 -6.5v-42q0 -4 -2 -5.5t-8 -1.5h-284q-5 0 -7.5 3t-2.5 15zM143 529q-6 0 -6 2.5t3 6.5l55 88q3 6 13 6h52q3 0 4.5 -2t-2.5 -6l-71 -90q-2 -3 -4.5 -4t-7.5 -1h-36z" />
    <glyph glyph-name="Zdotaccent" unicode="&#x17b;" horiz-adv-x="449" 
d="M406 673q5 0 6 -2t1 -9v-33q0 -12 -9.5 -28t-22.5 -31q-29 -33 -63 -80.5t-68 -103.5t-64.5 -114t-54 -113t-35.5 -101h333q5 0 7 -1.5t2 -5.5v-43q0 -5 -2 -6.5t-7 -1.5h-391q-11 0 -14 6.5t-2 17.5q1 40 18 92t45 110t61 115.5t67 110.5t64 95t50 67h-288q-6 0 -7.5 2
t-1.5 6v43q0 4 1.5 6t7.5 2h367zM267 776q0 -18 -7 -27t-30 -9q-21 0 -29 9t-8 27q0 17 8 26t29 9q23 0 30 -9t7 -26z" />
    <glyph glyph-name="zdotaccent" unicode="&#x17c;" horiz-adv-x="359" 
d="M25 18q8 60 36.5 120.5t66.5 121.5q26 43 52.5 80t49.5 64q4 4 4.5 6.5t-6.5 3.5h-174q-4 0 -6 2t-2 6v42q0 6 2 7t7 1h267q7 0 8 -2t1 -9v-33q0 -5 -4 -12.5t-11 -13.5q-22 -19 -46 -48t-45.5 -61t-40.5 -62q-27 -47 -49 -88t-32 -72q-1 -4 0 -9t9 -5h210q5 0 6 -1.5
t1 -6.5v-42q0 -4 -2 -5.5t-8 -1.5h-284q-5 0 -7.5 3t-2.5 15zM215 576q0 -18 -7 -27t-30 -9q-21 0 -29 9t-8 27q0 17 8 26t29 9q23 0 30 -9t7 -26z" />
    <glyph glyph-name="Zcaron" unicode="&#x17d;" horiz-adv-x="449" 
d="M406 673q5 0 6 -2t1 -9v-33q0 -12 -9.5 -28t-22.5 -31q-29 -33 -63 -80.5t-68 -103.5t-64.5 -114t-54 -113t-35.5 -101h333q5 0 7 -1.5t2 -5.5v-43q0 -5 -2 -6.5t-7 -1.5h-391q-11 0 -14 6.5t-2 17.5q1 40 18 92t45 110t61 115.5t67 110.5t64 95t50 67h-288q-6 0 -7.5 2
t-1.5 6v43q0 4 1.5 6t7.5 2h367zM208 718q-4 0 -7 4l-69 78q-1 2 -0.5 4.5t4.5 2.5h33q5 0 7 -3l49 -45q4 -4 8 0l50 45q3 3 7 3h34q4 0 4.5 -2.5t-1.5 -4.5l-69 -78q-1 -4 -6 -4h-44z" />
    <glyph glyph-name="zcaron" unicode="&#x17e;" horiz-adv-x="359" 
d="M25 18q8 60 36.5 120.5t66.5 121.5q26 43 52.5 80t49.5 64q4 4 4.5 6.5t-6.5 3.5h-174q-4 0 -6 2t-2 6v42q0 6 2 7t7 1h267q7 0 8 -2t1 -9v-33q0 -5 -4 -12.5t-11 -13.5q-22 -19 -46 -48t-45.5 -61t-40.5 -62q-27 -47 -49 -88t-32 -72q-1 -4 0 -9t9 -5h210q5 0 6 -1.5
t1 -6.5v-42q0 -4 -2 -5.5t-8 -1.5h-284q-5 0 -7.5 3t-2.5 15zM157 529q-4 0 -7 3l-66 90q-1 3 -0.5 5t3.5 2h35q5 0 7 -3l44 -51q4 -4 8 0l46 51q2 3 7 3h35q4 0 4.5 -2t-1.5 -5l-66 -90q-2 -3 -7 -3h-42z" />
    <glyph glyph-name="florin" unicode="&#x192;" horiz-adv-x="557" 
d="M86 -108q-11 0 -25.5 0.5t-27 3t-21.5 6.5q-5 2 -4 6q0 2 1.5 7.5t2.5 12t2 12t2 7.5t2.5 4.5t7.5 0.5q39 -9 65.5 0.5t45 32.5t29 53.5t17.5 62.5q18 85 34.5 163t30.5 149l0.5 1t0.5 2h-41h-41q-2 0 -2.5 2l-0.5 2q1 3 2.5 9.5t3 14.5t2.5 14.5t2 9.5l1 2t3 2h41h41
q1 2 1 4t1 4q4 19 8 37.5t8 37.5q11 50 36 85t63.5 53.5t88.5 18.5q17 0 36 -3t30 -8q7 -3 8 -5t0 -6l-7 -38q-1 -4 -2 -5.5t-5 -0.5q-16 6 -31.5 9t-31.5 3q-53 0 -77.5 -27.5t-38.5 -86.5q-3 -14 -5.5 -24.5t-5 -22t-5.5 -25.5h4.5h4.5h51h48h51q5 0 4 -4q-1 -3 -2.5 -9.5
t-3 -14.5t-2.5 -14.5t-2 -9.5l-1.5 -2t-3.5 -2h-53h-50h-54q-3 0 -3 -3q-9 -46 -17.5 -86.5t-17.5 -80t-17.5 -80.5t-17.5 -87q-10 -48 -30.5 -90t-53 -69t-79.5 -28z" />
    <glyph glyph-name="Ohorn" unicode="&#x1a0;" horiz-adv-x="628" 
d="M51 334q0 111 22.5 187.5t79.5 115.5t160 39q80 0 131.5 -22.5t80.5 -65.5t40 -107t11 -147t-11 -146.5t-40 -107t-80.5 -65.5t-131.5 -22q-103 0 -160 39t-79.5 115t-22.5 187zM127 334q0 -109 19.5 -169.5t60 -84.5t104.5 -24q65 0 106.5 24t62.5 84t21 170t-21 171
t-62.5 85.5t-106.5 24.5q-64 0 -104.5 -25t-60 -85.5t-19.5 -170.5zM474 753q3 1 5 -4q1 -7 1.5 -14t0.5 -14q0 -29 -13 -49.5t-37 -31.5t-59 -13q-4 0 -4 4v37q0 4 4 4q31 2 44.5 14.5t14.5 36.5v8.5t-1 8.5q0 4 4 5z" />
    <glyph glyph-name="ohorn" unicode="&#x1a1;" horiz-adv-x="493" 
d="M246 -6q-81 0 -126 31t-62.5 86t-17.5 126q0 70 19.5 124.5t64.5 85.5t122 31q78 0 123 -31t64.5 -85.5t19.5 -124.5t-17.5 -125t-62 -86.5t-127.5 -31.5zM246 51q75 0 104.5 48.5t29.5 136.5t-32 135t-102 47q-69 0 -101.5 -47t-32.5 -135q0 -89 30 -137t104 -48z
M408 553q3 1 5 -4q1 -7 1.5 -14t0.5 -14q0 -29 -13 -49.5t-37 -31.5t-59 -13q-4 0 -4 4v37q0 4 4 4q31 2 44.5 14.5t14.5 36.5v8.5t-1 8.5q0 4 4 5z" />
    <glyph glyph-name="Uhorn" unicode="&#x1af;" horiz-adv-x="634" 
d="M317 -6q-82 0 -129 19t-70 48t-30.5 59t-10.5 53q-4 42 -6 91.5t-1 97.5q1 49 3 102t6.5 104t10.5 95q0 4 2.5 7t6.5 3h27h27q5 0 6 -2t1 -10q-4 -40 -7.5 -84t-5.5 -91q-4 -80 -4.5 -158t6.5 -147q2 -20 8 -42.5t22.5 -42t49 -32t86.5 -12.5q55 0 87.5 12.5t49.5 32
t23.5 42t8.5 42.5q6 67 6 143.5t-4 155.5q-2 48 -5.5 94t-7.5 87q-1 8 0.5 10t5.5 2h28.5h28.5q4 0 6 -3t2 -7q7 -44 11 -94.5t6.5 -102.5t2.5 -101q1 -49 -0.5 -99t-6.5 -93q-2 -18 -7 -41.5t-17.5 -47.5t-38.5 -44.5t-69 -33t-108 -12.5zM605 753q3 1 5 -4q1 -7 1.5 -14
t0.5 -14q0 -29 -13 -49.5t-37 -31.5t-59 -13q-4 0 -4 4v37q0 4 4 4q31 2 44.5 14.5t14.5 36.5v8.5t-1 8.5q0 4 4 5z" />
    <glyph glyph-name="uhorn" unicode="&#x1b0;" horiz-adv-x="487" 
d="M250 -4q-76 0 -117.5 30t-58 81t-16.5 113q0 46 2 92t4.5 85t3.5 62q2 9 5 11t11 2h43q8 0 11 -1t2 -11q0 -6 -1.5 -31t-3.5 -61t-3 -76t-1 -76q0 -75 27.5 -118t91.5 -43q8 0 24.5 1.5t34 5.5t29.5 10.5t12 16.5v374q0 3 1 6t4 3h57q3 0 5.5 -1.5t2.5 -6.5v-415
q0 -12 -6 -17.5t-25 -12.5q-9 -3 -32.5 -8.5t-52.5 -10t-54 -4.5zM469 553q3 1 5 -4q1 -7 1.5 -14t0.5 -14q0 -29 -13 -49.5t-37 -31.5t-59 -13q-4 0 -4 4v37q0 4 4 4q31 2 44.5 14.5t14.5 36.5v8.5t-1 8.5q0 4 4 5z" />
    <glyph glyph-name="uni0218" unicode="&#x218;" horiz-adv-x="459" 
d="M58 27v48q0 6 3.5 5t8.5 -3q20 -6 44 -12t48 -9.5t41 -3.5q70 0 105 38t35 100q0 55 -29.5 84.5t-95.5 47.5q-29 7 -60 17t-57.5 28.5t-43 51t-16.5 84.5q0 62 28 100t74 56t100 18q24 0 49 -3.5t47.5 -9.5t39.5 -14q6 -1 7.5 -3.5t1.5 -7.5v-42q0 -14 -18 -5
q-24 11 -54.5 19.5t-68.5 8.5q-59 0 -96 -29.5t-37 -83.5q0 -36 14 -58t37 -35t50 -21t54 -15q49 -15 82 -35t50.5 -55t17.5 -94q0 -65 -26.5 -110t-74 -69t-114.5 -24q-28 0 -65.5 7t-69.5 17q-6 2 -8.5 4.5t-2.5 7.5zM265 -69q0 -13 -6.5 -33t-16 -40t-19.5 -34
q-2 -4 -5 -4h-14h-15q-2 1 -2 2t2 8q7 13 15 34.5t13 36.5q-16 1 -22 10t-6 20q0 15 8.5 24t28.5 9q18 0 28.5 -7t10.5 -26z" />
    <glyph glyph-name="uni0219" unicode="&#x219;" horiz-adv-x="394" 
d="M41 83q1 5 4.5 4.5t7.5 -3.5q16 -10 40 -17t49 -11t43 -4q28 0 53 9t40.5 28.5t15.5 50.5q0 37 -27.5 52.5t-88.5 23.5q-38 5 -70.5 17.5t-52 37.5t-19.5 67q0 46 24 76.5t63 46.5t83 16q36 0 77 -10t65 -27q5 -2 5 -4.5t-1 -6.5l-13 -39q-2 -8 -12 -2q-19 13 -53.5 23
t-67.5 10q-45 0 -73 -22.5t-28 -55.5q0 -34 28.5 -49t78.5 -21q33 -4 60 -11.5t47 -21t31 -36.5t11 -58q0 -43 -16 -72t-42.5 -46.5t-58.5 -25t-63 -7.5q-15 0 -42 4t-54.5 12t-45.5 20q-4 2 -5.5 4t-0.5 6zM233 -72q0 -13 -6.5 -33t-16 -40t-19.5 -34q-2 -4 -5 -4h-14h-15
q-2 1 -2 2t2 8q7 13 15 34.5t13 36.5q-16 1 -22 10t-6 20q0 15 8.5 24t28.5 9q18 0 28.5 -7t10.5 -26z" />
    <glyph glyph-name="uni021A" unicode="&#x21a;" horiz-adv-x="435" 
d="M188 0q-3 0 -5.5 2t-2.5 5v599q0 5 -1.5 6.5t-5.5 1.5h-143q-5 0 -7 1.5t-2 5.5v45q0 4 1.5 5.5t6.5 1.5h375q6 0 8 -2t2 -6v-43q0 -5 -2 -6.5t-8 -1.5h-142q-5 0 -7 -1.5t-2 -6.5v-599q0 -7 -7 -7h-58zM253 -69q0 -13 -6.5 -33t-16 -40t-19.5 -34q-2 -4 -5 -4h-14h-15
q-2 1 -2 2t2 8q7 13 15 34.5t13 36.5q-16 1 -22 10t-6 20q0 15 8.5 24t28.5 9q18 0 28.5 -7t10.5 -26z" />
    <glyph glyph-name="uni021B" unicode="&#x21b;" horiz-adv-x="327" 
d="M222 0q-62 0 -92 26.5t-39 74.5q-9 42 -9 88.5v95.5q0 34 0.5 65t2.5 63q0 9 -8 9h-51q-4 0 -6 2t-2 6v34q0 4 2 6t7 2h51q5 0 7 2.5t2 9.5l5 85q0 7 6 7h56q3 0 5.5 -2t2.5 -5l-4 -85q-1 -7 0.5 -9.5t6.5 -2.5h117q5 0 6.5 -1.5t1.5 -7.5v-32q0 -4 -2 -6.5t-7 -2.5h-116
q-4 0 -7 -2.5t-3 -8.5q-1 -32 -2 -65t-1 -67q0 -41 0.5 -83.5t9.5 -82.5q6 -28 22.5 -42t51.5 -14q14 0 28 3.5t28 7.5q7 4 9 3t4 -7l11 -33q2 -6 -1.5 -9t-13.5 -8q-11 -4 -26.5 -7.5t-29.5 -5t-23 -1.5zM236 -66q0 -13 -6.5 -33t-16 -40t-19.5 -34q-2 -4 -5 -4h-14h-15
q-2 1 -2 2t2 8q7 13 15 34.5t13 36.5q-16 1 -22 10t-6 20q0 15 8.5 24t28.5 9q18 0 28.5 -7t10.5 -26z" />
    <glyph glyph-name="circumflex" unicode="&#x2c6;" horiz-adv-x="194" 
d="M6 529q-3 0 -3.5 2t0.5 5l66 90q3 3 7 3h42q5 0 7 -3l66 -90q2 -3 1.5 -5t-4.5 -2h-35q-5 0 -7 3l-46 51q-4 4 -8 0l-44 -51q-2 -3 -7 -3h-35z" />
    <glyph glyph-name="caron" unicode="&#x2c7;" horiz-adv-x="191" 
d="M74 529q-4 0 -7 3l-66 90q-1 3 -0.5 5t3.5 2h35q5 0 7 -3l44 -51q4 -4 8 0l46 51q2 3 7 3h35q4 0 4.5 -2t-1.5 -5l-66 -90q-2 -3 -7 -3h-42z" />
    <glyph glyph-name="breve" unicode="&#x2d8;" horiz-adv-x="195" 
d="M98 526q-47 0 -72 20.5t-26 60.5q0 7 1 8.5t7 1.5h32q5 0 6.5 -1t1.5 -6q1 -22 14 -31.5t36 -9.5t36 9.5t14 32.5q0 4 1.5 5t4.5 1h35q4 0 5 -1.5t1 -8.5q-1 -38 -24 -59.5t-73 -21.5z" />
    <glyph glyph-name="dotaccent" unicode="&#x2d9;" horiz-adv-x="74" 
d="M74 667q0 -18 -7 -27t-30 -9q-21 0 -29 9t-8 27q0 17 8 26t29 9q23 0 30 -9t7 -26z" />
    <glyph glyph-name="ring" unicode="&#x2da;" horiz-adv-x="191" 
d="M191 573q0 -39 -22.5 -63t-73.5 -24q-52 0 -73.5 23.5t-21.5 63.5t21.5 63t73.5 23q51 0 73.5 -23t22.5 -63zM152 576q0 19 -10 32t-46 13t-46 -13t-10 -32q0 -12 3 -24t15.5 -20t38.5 -8q25 0 37 8t15 20t3 24z" />
    <glyph glyph-name="ogonek" unicode="&#x2db;" horiz-adv-x="178" 
d="M86 -200q-35 0 -60.5 21.5t-25.5 54.5q0 30 15 56t38 47.5t46 35.5q6 4 12.5 6t14.5 2h38q4 0 5 -3t-5 -7q-30 -20 -55 -41.5t-39.5 -44t-14.5 -46.5q0 -19 11.5 -28t28.5 -8q19 0 37.5 9.5t31.5 20.5q4 4 7 3.5t3 -5.5v-28q0 -10 -11 -18q-14 -11 -32.5 -19t-44.5 -8z
" />
    <glyph glyph-name="tilde" unicode="&#x2dc;" horiz-adv-x="198" 
d="M5 536q-5 0 -5 6q0 29 16 47t43 18q15 0 30 -8.5t28.5 -17t21.5 -8.5q7 0 12 6.5t5 15.5q0 7 4 7h33q5 0 5 -6q0 -26 -16 -45.5t-42 -19.5q-18 0 -33 9t-27 17.5t-21 8.5q-8 0 -13 -7t-5 -17q0 -6 -4 -6h-32z" />
    <glyph glyph-name="hungarumlaut" unicode="&#x2dd;" horiz-adv-x="192" 
d="M43 534q-1 -2 -3.5 -3.5t-7.5 -1.5h-26q-8 0 -4 8l34 103q2 6 13 6h44q4 0 5 -2.5t-2 -5.5zM131 534q-1 -2 -3.5 -3.5t-8.5 -1.5h-25q-9 0 -5 8l42 103q2 6 13 6h44q3 0 4.5 -2.5t-1.5 -5.5z" />
    <glyph glyph-name="gravecomb" unicode="&#x300;" 
d="M86 530q-7 0 -14 6l-71 88q-2 3 -0.5 5.5t3.5 2.5h58q5 0 8.5 -1.5t5.5 -5.5l49 -87q5 -8 -2 -8h-37z" />
    <glyph glyph-name="acutecomb" unicode="&#x301;" 
d="M6 529q-6 0 -6 2.5t3 6.5l55 88q3 6 13 6h52q3 0 4.5 -2t-2.5 -6l-71 -90q-2 -3 -4.5 -4t-7.5 -1h-36z" />
    <glyph glyph-name="uni0302" unicode="&#x302;" 
d="M6 529q-3 0 -3.5 2t0.5 5l66 90q3 3 7 3h42q5 0 7 -3l66 -90q2 -3 1.5 -5t-4.5 -2h-35q-5 0 -7 3l-46 51q-4 4 -8 0l-44 -51q-2 -3 -7 -3h-35z" />
    <glyph glyph-name="tildecomb" unicode="&#x303;" 
d="M5 536q-5 0 -5 6q0 29 16 47t43 18q15 0 30 -8.5t28.5 -17t21.5 -8.5q7 0 12 6.5t5 15.5q0 7 4 7h33q5 0 5 -6q0 -26 -16 -45.5t-42 -19.5q-18 0 -33 9t-27 17.5t-21 8.5q-8 0 -13 -7t-5 -17q0 -6 -4 -6h-32z" />
    <glyph glyph-name="uni0304" unicode="&#x304;" 
d="M213 546q0 -2 -1 -3t-5 -1h-201q-4 0 -5 1.5t-1 3.5v38q0 4 1.5 5t4.5 1h201q4 0 5 -1t1 -5v-39z" />
    <glyph glyph-name="uni0306" unicode="&#x306;" 
d="M98 526q-47 0 -72 20.5t-26 60.5q0 7 1 8.5t7 1.5h32q5 0 6.5 -1t1.5 -6q1 -22 14 -31.5t36 -9.5t36 9.5t14 32.5q0 4 1.5 5t4.5 1h35q4 0 5 -1.5t1 -8.5q-1 -38 -24 -59.5t-73 -21.5z" />
    <glyph glyph-name="uni0307" unicode="&#x307;" 
d="M74 576q0 -18 -7 -27t-30 -9q-21 0 -29 9t-8 27q0 17 8 26t29 9q23 0 30 -9t7 -26z" />
    <glyph glyph-name="uni0308" unicode="&#x308;" 
d="M80 573q0 -16 -8 -24.5t-31 -8.5q-21 0 -29.5 8.5t-8.5 24.5q0 17 8.5 25.5t29.5 8.5q23 0 31 -8.5t8 -25.5zM219 573q0 -16 -7 -24.5t-31 -8.5q-22 0 -30 8.5t-8 24.5q0 17 8 25.5t30 8.5q24 0 31 -8.5t7 -25.5z" />
    <glyph glyph-name="hookabovecomb" unicode="&#x309;" 
d="M47 525q-2 0 -4 2t-2 4q0 17 8 26t16 14q8 6 14.5 11t6.5 15q0 19 -25 19q-11 0 -19.5 -3t-16.5 -10q-6 -6 -10 0l-14 22q-3 5 2 8q9 10 27.5 17.5t40.5 7.5q30 0 46 -16t16 -43q0 -22 -10.5 -32.5t-20.5 -15.5q-7 -3 -12 -7t-5 -13q0 -6 -7 -6h-31z" />
    <glyph glyph-name="uni030A" unicode="&#x30a;" 
d="M167 590q0 -35 -19.5 -56.5t-63.5 -21.5q-46 0 -65 21.5t-19 56.5q0 34 19 55t65 21q44 0 63.5 -21t19.5 -55zM130 592q0 16 -8 26.5t-37 10.5q-30 0 -38.5 -10.5t-8.5 -26.5q0 -14 8 -28t39 -14q32 0 38.5 14t6.5 28z" />
    <glyph glyph-name="uni030B" unicode="&#x30b;" 
d="M43 534q-1 -2 -3.5 -3.5t-7.5 -1.5h-26q-8 0 -4 8l34 103q1 6 13 6h44q4 0 5 -2.5t-2 -5.5zM131 534q-1 -2 -3.5 -3.5t-8.5 -1.5h-25q-8 0 -5 8l42 103q2 6 13 6h44q3 0 4.5 -2.5t-1.5 -5.5z" />
    <glyph glyph-name="uni030C" unicode="&#x30c;" 
d="M76 529q-4 0 -7 3l-66 90q-1 3 -0.5 5t3.5 2h35q5 0 7 -3l44 -51q4 -4 8 0l46 51q2 3 7 3h35q4 0 4.5 -2t-1.5 -5l-66 -90q-2 -3 -7 -3h-42z" />
    <glyph glyph-name="uni0312" unicode="&#x312;" 
d="M0 585q-1 16 4.5 40t14.5 47.5t17 38.5q2 4 6 5q6 0 14.5 0.5t15.5 0.5q2 0 2 -2.5t-2 -7.5q-3 -8 -8 -24.5t-9.5 -33.5t-6.5 -29q17 1 23.5 -8.5t6.5 -22.5q1 -16 -6.5 -25.5t-29.5 -11.5q-19 -1 -30 6t-12 27z" />
    <glyph glyph-name="uni031B" unicode="&#x31b;" 
d="M106 553q3 1 5 -4q1 -7 1.5 -14t0.5 -14q0 -29 -13 -49.5t-37 -31.5t-59 -13q-4 0 -4 4v37q0 4 4 4q31 2 44.5 14.5t14.5 36.5v8.5t-1 8.5q0 4 4 5z" />
    <glyph glyph-name="dotbelowcomb" unicode="&#x323;" 
d="M74 -87q0 -18 -7 -27t-30 -9q-21 0 -29 9t-8 27q0 17 8 26t29 9q23 0 30 -9t7 -26z" />
    <glyph glyph-name="uni0326" unicode="&#x326;" 
d="M82 -69q0 -13 -6.5 -33t-16 -40t-19.5 -34q-2 -4 -5 -4h-14h-15q-2 1 -2 2t2 8q7 13 15 34.5t13 36.5q-16 1 -22 10t-6 20q0 15 8.5 24t28.5 9q18 0 28.5 -7t10.5 -26z" />
    <glyph glyph-name="uni0327" unicode="&#x327;" 
d="M170 -122q0 -28 -23 -50t-64 -22q-26 0 -47 10.5t-32 25.5q-4 5 -3.5 9.5t4.5 6.5l18 9q7 3 9 2.5t4 -4.5q7 -9 19.5 -16t24.5 -7q22 0 32.5 12t10.5 25q0 16 -11 24t-28 11t-34 4q-6 0 -8.5 5t1.5 11l36 60q3 5 6.5 6t6.5 1h21q10 0 5 -8l-29 -63l-11 16q40 -2 66 -18
t26 -50z" />
    <glyph glyph-name="uni0328" unicode="&#x328;" 
d="M86 -200q-35 0 -60.5 21.5t-25.5 54.5q0 30 15 56t38 47.5t46 35.5q6 4 12.5 6t14.5 2h38q4 0 5 -3t-5 -7q-30 -20 -55 -41.5t-39.5 -44t-14.5 -46.5q0 -19 11.5 -28t28.5 -8q19 0 37.5 9.5t31.5 20.5q4 4 7 3.5t3 -5.5v-28q0 -10 -11 -18q-14 -11 -32.5 -19t-44.5 -8z
" />
    <glyph glyph-name="uni03BC" unicode="&#x3bc;" horiz-adv-x="469" 
d="M253 -4q-21 0 -45 4.5t-43.5 11.5t-30.5 14q2 -41 8 -82.5t16.5 -79t26.5 -64.5h-43h-37q-11 18 -19 55t-14 85t-10.5 99.5t-6.5 98.5t-2 82q0 46 2 92t4.5 85t3.5 62q2 9 5 11t11 2h43q8 0 11 -1t2 -11q0 -6 -1.5 -31t-3.5 -61t-3 -76t-1 -76q0 -43 3.5 -68.5
t12.5 -48.5q16 -20 44.5 -32t56.5 -12q9 0 26 1.5t34.5 5.5t29.5 10.5t12 16.5v374q0 3 1 6t4 3h57q3 0 5.5 -1.5t2.5 -6.5v-408q0 -15 -6 -21.5t-25 -15.5q-9 -4 -30.5 -9.5t-48.5 -9.5t-52 -4z" />
    <glyph glyph-name="pi" unicode="&#x3c0;" horiz-adv-x="652" 
d="M148 0q-6 0 -9 3.5t-3 10.5v436h-56q-9 0 -11 2.5t-2 10.5v31q0 8 2 10t11 2h492q9 0 11 -2t2 -10v-31q0 -8 -2 -10.5t-11 -2.5h-56v-436q0 -7 -1.5 -10.5t-7.5 -3.5h-51q-6 0 -8 3.5t-2 10.5v436h-239v-436q0 -7 -2 -10.5t-9 -3.5h-48z" />
    <glyph glyph-name="Wgrave" unicode="&#x1e80;" horiz-adv-x="825" 
d="M228 0q-11 0 -15 10q-22 42 -45 105.5t-45 138t-41 150t-33 142.5t-21 117q0 4 1 7t6 3h10h17.5h17.5h11q6 0 7.5 -1.5t1.5 -6.5q7 -44 21.5 -112t36.5 -156q16 -63 31.5 -118.5t30 -100t27.5 -75.5q2 -4 3.5 -6.5t3.5 -2.5h3.5h3.5t4 2.5t3 6.5q9 21 20.5 53.5
t23.5 70.5t23.5 76t21.5 70.5t15 53.5q-1 32 -2 70t-3 73.5t-3 61t-1 32.5q0 4 1 7t6 3h11h17.5h17.5h11q5 0 6.5 -2t1.5 -7q1 -46 4.5 -92t9.5 -88t13 -76q16 -79 40.5 -155t51.5 -149q3 -6 4 -8.5t4 -2.5h3.5h3.5q3 0 6 7q11 26 25.5 69.5t31.5 100t33 120.5
q12 44 21 81.5t16 70.5t13 62.5t10 57.5q1 6 3 8t6 2h11h17h17.5h11.5q9 0 6 -12q-7 -43 -21.5 -109t-34 -143t-41 -153t-44 -140.5t-42.5 -105.5q-1 -4 -4.5 -7t-9.5 -3h-20.5h-25h-21.5q-4 0 -7.5 4t-4.5 6q-17 34 -35 80.5t-35 101.5t-33 112q-2 8 -5 10t-7 -10
q-14 -51 -27.5 -95t-25.5 -80.5t-23.5 -65.5t-22.5 -53q-2 -6 -6.5 -8t-8.5 -2h-20.5h-24h-19.5zM416 719q-4 0 -6.5 2t-6.5 5l-85 73q-2 2 -0.5 4.5t3.5 2.5h58q5 0 7.5 -1.5t6.5 -5.5l64 -71q3 -3 3 -6t-5 -3h-39z" />
    <glyph glyph-name="wgrave" unicode="&#x1e81;" horiz-adv-x="626" 
d="M164 10q-28 56 -52 117.5t-42 122t-30.5 113t-18.5 91.5q-2 9 -0.5 13.5t6.5 4.5h58q9 0 11 -10q5 -30 13.5 -71.5t20.5 -85.5t25 -85.5t24.5 -74t21.5 -49.5q2 -6 5 -5t4 4q12 19 23 50t20 65.5t14.5 64.5t5.5 47q0 12 -0.5 31.5t-0.5 40.5t-0.5 39.5t-0.5 28.5t9 10h57
q4 0 7 -2t3 -8q0 -22 1 -58t2 -88q1 -14 6.5 -38t14.5 -51t18.5 -54t18 -48t14.5 -31q4 -9 9 0q10 19 22 52t24.5 74t23.5 84.5t19.5 84.5t13.5 72q1 11 13 11h51q6 0 7.5 -4t-0.5 -12q-6 -42 -19.5 -98.5t-32 -119t-42 -122t-48.5 -106.5q-3 -6 -6 -8t-7 -2h-48
q-4 0 -6.5 1.5t-5.5 6.5q-13 23 -26.5 53.5t-25 60t-17.5 51.5q-6 19 -15 0q-4 -16 -11 -35t-15 -38t-16 -36q-7 -15 -14.5 -30t-12.5 -26q-2 -4 -5.5 -6t-7.5 -2h-46q-6 0 -8 1.5t-6 8.5zM313 530q-7 0 -14 6l-71 88q-2 3 -0.5 5.5t3.5 2.5h58q5 0 8.5 -1.5t5.5 -5.5
l49 -87q5 -8 -2 -8h-37z" />
    <glyph glyph-name="Wacute" unicode="&#x1e82;" horiz-adv-x="825" 
d="M228 0q-11 0 -15 10q-22 42 -45 105.5t-45 138t-41 150t-33 142.5t-21 117q0 4 1 7t6 3h10h17.5h17.5h11q6 0 7.5 -1.5t1.5 -6.5q7 -44 21.5 -112t36.5 -156q16 -63 31.5 -118.5t30 -100t27.5 -75.5q2 -4 3.5 -6.5t3.5 -2.5h3.5h3.5t4 2.5t3 6.5q9 21 20.5 53.5
t23.5 70.5t23.5 76t21.5 70.5t15 53.5q-1 32 -2 70t-3 73.5t-3 61t-1 32.5q0 4 1 7t6 3h11h17.5h17.5h11q5 0 6.5 -2t1.5 -7q1 -46 4.5 -92t9.5 -88t13 -76q16 -79 40.5 -155t51.5 -149q3 -6 4 -8.5t4 -2.5h3.5h3.5q3 0 6 7q11 26 25.5 69.5t31.5 100t33 120.5
q12 44 21 81.5t16 70.5t13 62.5t10 57.5q1 6 3 8t6 2h11h17h17.5h11.5q9 0 6 -12q-7 -43 -21.5 -109t-34 -143t-41 -153t-44 -140.5t-42.5 -105.5q-1 -4 -4.5 -7t-9.5 -3h-20.5h-25h-21.5q-4 0 -7.5 4t-4.5 6q-17 34 -35 80.5t-35 101.5t-33 112q-2 8 -5 10t-7 -10
q-14 -51 -27.5 -95t-25.5 -80.5t-23.5 -65.5t-22.5 -53q-2 -6 -6.5 -8t-8.5 -2h-20.5h-24h-19.5zM406 719h-38q-5 0 -5 3t3 6l64 71q4 4 6.5 5.5t7.5 1.5h58q3 0 4.5 -2.5t-1.5 -4.5l-85 -73q-4 -3 -7 -5t-7 -2z" />
    <glyph glyph-name="wacute" unicode="&#x1e83;" horiz-adv-x="626" 
d="M164 10q-28 56 -52 117.5t-42 122t-30.5 113t-18.5 91.5q-2 9 -0.5 13.5t6.5 4.5h58q9 0 11 -10q5 -30 13.5 -71.5t20.5 -85.5t25 -85.5t24.5 -74t21.5 -49.5q2 -6 5 -5t4 4q12 19 23 50t20 65.5t14.5 64.5t5.5 47q0 12 -0.5 31.5t-0.5 40.5t-0.5 39.5t-0.5 28.5t9 10h57
q4 0 7 -2t3 -8q0 -22 1 -58t2 -88q1 -14 6.5 -38t14.5 -51t18.5 -54t18 -48t14.5 -31q4 -9 9 0q10 19 22 52t24.5 74t23.5 84.5t19.5 84.5t13.5 72q1 11 13 11h51q6 0 7.5 -4t-0.5 -12q-6 -42 -19.5 -98.5t-32 -119t-42 -122t-48.5 -106.5q-3 -6 -6 -8t-7 -2h-48
q-4 0 -6.5 1.5t-5.5 6.5q-13 23 -26.5 53.5t-25 60t-17.5 51.5q-6 19 -15 0q-4 -16 -11 -35t-15 -38t-16 -36q-7 -15 -14.5 -30t-12.5 -26q-2 -4 -5.5 -6t-7.5 -2h-46q-6 0 -8 1.5t-6 8.5zM277 529q-6 0 -6 2.5t3 6.5l55 88q3 6 13 6h52q3 0 4.5 -2t-2.5 -6l-71 -90
q-2 -3 -4.5 -4t-7.5 -1h-36z" />
    <glyph glyph-name="Wdieresis" unicode="&#x1e84;" horiz-adv-x="825" 
d="M228 0q-11 0 -15 10q-22 42 -45 105.5t-45 138t-41 150t-33 142.5t-21 117q0 4 1 7t6 3h10h17.5h17.5h11q6 0 7.5 -1.5t1.5 -6.5q7 -44 21.5 -112t36.5 -156q16 -63 31.5 -118.5t30 -100t27.5 -75.5q2 -4 3.5 -6.5t3.5 -2.5h3.5h3.5t4 2.5t3 6.5q9 21 20.5 53.5
t23.5 70.5t23.5 76t21.5 70.5t15 53.5q-1 32 -2 70t-3 73.5t-3 61t-1 32.5q0 4 1 7t6 3h11h17.5h17.5h11q5 0 6.5 -2t1.5 -7q1 -46 4.5 -92t9.5 -88t13 -76q16 -79 40.5 -155t51.5 -149q3 -6 4 -8.5t4 -2.5h3.5h3.5q3 0 6 7q11 26 25.5 69.5t31.5 100t33 120.5
q12 44 21 81.5t16 70.5t13 62.5t10 57.5q1 6 3 8t6 2h11h17h17.5h11.5q9 0 6 -12q-7 -43 -21.5 -109t-34 -143t-41 -153t-44 -140.5t-42.5 -105.5q-1 -4 -4.5 -7t-9.5 -3h-20.5h-25h-21.5q-4 0 -7.5 4t-4.5 6q-17 34 -35 80.5t-35 101.5t-33 112q-2 8 -5 10t-7 -10
q-14 -51 -27.5 -95t-25.5 -80.5t-23.5 -65.5t-22.5 -53q-2 -6 -6.5 -8t-8.5 -2h-20.5h-24h-19.5zM382 773q0 -16 -8 -24.5t-31 -8.5q-21 0 -29.5 8.5t-8.5 24.5q0 17 8.5 25.5t29.5 8.5q23 0 31 -8.5t8 -25.5zM521 773q0 -16 -7 -24.5t-31 -8.5q-22 0 -30 8.5t-8 24.5
q0 17 8 25.5t30 8.5q24 0 31 -8.5t7 -25.5z" />
    <glyph glyph-name="wdieresis" unicode="&#x1e85;" horiz-adv-x="626" 
d="M164 10q-28 56 -52 117.5t-42 122t-30.5 113t-18.5 91.5q-2 9 -0.5 13.5t6.5 4.5h58q9 0 11 -10q5 -30 13.5 -71.5t20.5 -85.5t25 -85.5t24.5 -74t21.5 -49.5q2 -6 5 -5t4 4q12 19 23 50t20 65.5t14.5 64.5t5.5 47q0 12 -0.5 31.5t-0.5 40.5t-0.5 39.5t-0.5 28.5t9 10h57
q4 0 7 -2t3 -8q0 -22 1 -58t2 -88q1 -14 6.5 -38t14.5 -51t18.5 -54t18 -48t14.5 -31q4 -9 9 0q10 19 22 52t24.5 74t23.5 84.5t19.5 84.5t13.5 72q1 11 13 11h51q6 0 7.5 -4t-0.5 -12q-6 -42 -19.5 -98.5t-32 -119t-42 -122t-48.5 -106.5q-3 -6 -6 -8t-7 -2h-48
q-4 0 -6.5 1.5t-5.5 6.5q-13 23 -26.5 53.5t-25 60t-17.5 51.5q-6 19 -15 0q-4 -16 -11 -35t-15 -38t-16 -36q-7 -15 -14.5 -30t-12.5 -26q-2 -4 -5.5 -6t-7.5 -2h-46q-6 0 -8 1.5t-6 8.5zM282 573q0 -16 -8 -24.5t-31 -8.5q-21 0 -29.5 8.5t-8.5 24.5q0 17 8.5 25.5
t29.5 8.5q23 0 31 -8.5t8 -25.5zM421 573q0 -16 -7 -24.5t-31 -8.5q-22 0 -30 8.5t-8 24.5q0 17 8 25.5t30 8.5q24 0 31 -8.5t7 -25.5z" />
    <glyph glyph-name="uni1E9E" unicode="&#x1e9e;" horiz-adv-x="901" 
d="M58 27v48q0 6 3.5 5t8.5 -3q20 -6 44 -12t48 -9.5t41 -3.5q70 0 105 38t35 100q0 55 -29.5 84.5t-95.5 47.5q-29 7 -60 17t-57.5 28.5t-43 51t-16.5 84.5q0 62 28 100t74 56t100 18q24 0 49 -3.5t47.5 -9.5t39.5 -14q6 -1 7.5 -3.5t1.5 -7.5v-42q0 -14 -18 -5
q-24 11 -54.5 19.5t-68.5 8.5q-59 0 -96 -29.5t-37 -83.5q0 -36 14 -58t37 -35t50 -21t54 -15q49 -15 82 -35t50.5 -55t17.5 -94q0 -65 -26.5 -110t-74 -69t-114.5 -24q-28 0 -65.5 7t-69.5 17q-6 2 -8.5 4.5t-2.5 7.5zM481 27v48q0 6 3.5 5t8.5 -3q20 -6 44 -12t48 -9.5
t41 -3.5q70 0 105 38t35 100q0 55 -29.5 84.5t-95.5 47.5q-29 7 -60 17t-57.5 28.5t-43 51t-16.5 84.5q0 62 28 100t74 56t100 18q24 0 49 -3.5t47.5 -9.5t39.5 -14q6 -1 7.5 -3.5t1.5 -7.5v-42q0 -14 -18 -5q-24 11 -54.5 19.5t-68.5 8.5q-59 0 -96 -29.5t-37 -83.5
q0 -36 14 -58t37 -35t50 -21t54 -15q49 -15 82 -35t50.5 -55t17.5 -94q0 -65 -26.5 -110t-74 -69t-114.5 -24q-28 0 -65.5 7t-69.5 17q-6 2 -8.5 4.5t-2.5 7.5z" />
    <glyph glyph-name="uni1EA0" unicode="&#x1ea0;" horiz-adv-x="553" 
d="M45 0q-5 0 -6 3.5t0 13.5q7 47 21 113t33 141t40.5 149t44.5 137.5t44 105.5q3 5 6 7.5t7 2.5h82q5 -1 8.5 -3t6.5 -8q20 -40 42.5 -104t44.5 -139t41.5 -151t33.5 -141.5t20 -109.5q2 -10 1 -13.5t-7 -3.5h-57q-4 0 -5.5 2.5t-4.5 11.5q-4 27 -11 63.5t-15 74.5
q-1 6 -3.5 8t-9.5 2h-252q-6 -1 -8 -2.5t-4 -8.5q-8 -37 -15 -73.5t-12 -64.5q-1 -8 -2.5 -10.5t-6.5 -2.5h-57zM165 220h221q5 0 7.5 3t0.5 12q-22 85 -44.5 171t-54.5 164q-2 6 -9 6h-19q-6 0 -8 -7q-16 -39 -34.5 -95.5t-35.5 -119.5t-31 -123q-1 -4 0 -7.5t7 -3.5z
M314 -87q0 -18 -7 -27t-30 -9q-21 0 -29 9t-8 27q0 17 8 26t29 9q23 0 30 -9t7 -26z" />
    <glyph glyph-name="uni1EA1" unicode="&#x1ea1;" horiz-adv-x="481" 
d="M232 -8q-49 0 -90.5 11.5t-66.5 43t-25 91.5q0 51 17 83.5t45 50t60 24.5t61 7q30 0 59 -3t47 -7q14 -3 14 20q0 60 -29.5 84.5t-92.5 24.5q-39 0 -73 -11t-56 -25q-6 -4 -9 -3t-3 6l-6 38q-1 6 0.5 8.5t5.5 5.5q24 17 60.5 26.5t81.5 9.5q64 0 102 -15t57 -40
t25.5 -57.5t6.5 -68.5q1 -49 0.5 -91t-2.5 -82.5t-6 -83.5q-1 -7 -5.5 -12.5t-18.5 -11.5q-15 -5 -35 -9.5t-42 -7.5t-43 -4.5t-39 -1.5zM237 41q9 0 25.5 1t34.5 5t31 10.5t15 16.5q4 30 6 70t1 75q0 20 -14 24q-13 4 -42 7.5t-63 3.5q-15 0 -34.5 -5t-36.5 -17t-28.5 -35
t-11.5 -59q0 -34 15 -55.5t41.5 -31.5t60.5 -10zM274 -87q0 -18 -7 -27t-30 -9q-21 0 -29 9t-8 27q0 17 8 26t29 9q23 0 30 -9t7 -26z" />
    <glyph glyph-name="uni1EA2" unicode="&#x1ea2;" horiz-adv-x="553" 
d="M45 0q-5 0 -6 3.5t0 13.5q7 47 21 113t33 141t40.5 149t44.5 137.5t44 105.5q3 5 6 7.5t7 2.5h82q5 -1 8.5 -3t6.5 -8q20 -40 42.5 -104t44.5 -139t41.5 -151t33.5 -141.5t20 -109.5q2 -10 1 -13.5t-7 -3.5h-57q-4 0 -5.5 2.5t-4.5 11.5q-4 27 -11 63.5t-15 74.5
q-1 6 -3.5 8t-9.5 2h-252q-6 -1 -8 -2.5t-4 -8.5q-8 -37 -15 -73.5t-12 -64.5q-1 -8 -2.5 -10.5t-6.5 -2.5h-57zM165 220h221q5 0 7.5 3t0.5 12q-22 85 -44.5 171t-54.5 164q-2 6 -9 6h-19q-6 0 -8 -7q-16 -39 -34.5 -95.5t-35.5 -119.5t-31 -123q-1 -4 0 -7.5t7 -3.5z
M259 714q-2 0 -4 1.5t-2 3.5q0 19 8 27.5t16 12.5q8 6 15 11t7 15q0 21 -27 21q-11 0 -20 -4t-17 -11q-7 -4 -9 1l-13 21q-2 2 -1 4t3 3q9 10 27.5 17t38.5 7q29 0 45 -15.5t16 -41.5q0 -22 -10.5 -31.5t-20.5 -15.5q-7 -4 -12.5 -8t-5.5 -13q0 -5 -6 -5h-28z" />
    <glyph glyph-name="uni1EA3" unicode="&#x1ea3;" horiz-adv-x="481" 
d="M232 -8q-49 0 -90.5 11.5t-66.5 43t-25 91.5q0 51 17 83.5t45 50t60 24.5t61 7q30 0 59 -3t47 -7q14 -3 14 20q0 60 -29.5 84.5t-92.5 24.5q-39 0 -73 -11t-56 -25q-6 -4 -9 -3t-3 6l-6 38q-1 6 0.5 8.5t5.5 5.5q24 17 60.5 26.5t81.5 9.5q64 0 102 -15t57 -40
t25.5 -57.5t6.5 -68.5q1 -49 0.5 -91t-2.5 -82.5t-6 -83.5q-1 -7 -5.5 -12.5t-18.5 -11.5q-15 -5 -35 -9.5t-42 -7.5t-43 -4.5t-39 -1.5zM237 41q9 0 25.5 1t34.5 5t31 10.5t15 16.5q4 30 6 70t1 75q0 20 -14 24q-13 4 -42 7.5t-63 3.5q-15 0 -34.5 -5t-36.5 -17t-28.5 -35
t-11.5 -59q0 -34 15 -55.5t41.5 -31.5t60.5 -10zM233 523q-2 0 -4 2t-2 4q0 17 8 26t16 14q8 6 14.5 11t6.5 15q0 19 -25 19q-11 0 -19.5 -3t-16.5 -10q-6 -6 -10 0l-14 22q-3 5 2 8q9 10 27.5 17.5t40.5 7.5q30 0 46 -16t16 -43q0 -22 -10.5 -32.5t-20.5 -15.5
q-7 -3 -12 -7t-5 -13q0 -6 -7 -6h-31z" />
    <glyph glyph-name="uni1EA4" unicode="&#x1ea4;" horiz-adv-x="553" 
d="M45 0q-5 0 -6 3.5t0 13.5q7 47 21 113t33 141t40.5 149t44.5 137.5t44 105.5q3 5 6 7.5t7 2.5h82q5 -1 8.5 -3t6.5 -8q20 -40 42.5 -104t44.5 -139t41.5 -151t33.5 -141.5t20 -109.5q2 -10 1 -13.5t-7 -3.5h-57q-4 0 -5.5 2.5t-4.5 11.5q-4 27 -11 63.5t-15 74.5
q-1 6 -3.5 8t-9.5 2h-252q-6 -1 -8 -2.5t-4 -8.5q-8 -37 -15 -73.5t-12 -64.5q-1 -8 -2.5 -10.5t-6.5 -2.5h-57zM165 220h221q5 0 7.5 3t0.5 12q-22 85 -44.5 171t-54.5 164q-2 6 -9 6h-19q-6 0 -8 -7q-16 -39 -34.5 -95.5t-35.5 -119.5t-31 -123q-1 -4 0 -7.5t7 -3.5z
M183 718q-4 0 -4.5 2.5t0.5 4.5l68 78q3 4 7 4h45q5 0 8 -4l67 -78q2 -2 1.5 -4.5t-4.5 -2.5h-33q-4 0 -6 1.5t-6 3.5l-44 41q-4 3 -9 0l-46 -42q-2 -1 -4 -2.5t-6 -1.5h-34zM415 771h-38q-5 0 -5 3t3 6l64 71q4 4 6.5 5.5t7.5 1.5h58q3 0 4.5 -2.5t-1.5 -4.5l-85 -73
q-4 -3 -7 -5t-7 -2z" />
    <glyph glyph-name="uni1EA5" unicode="&#x1ea5;" horiz-adv-x="481" 
d="M232 -8q-49 0 -90.5 11.5t-66.5 43t-25 91.5q0 51 17 83.5t45 50t60 24.5t61 7q30 0 59 -3t47 -7q14 -3 14 20q0 60 -29.5 84.5t-92.5 24.5q-39 0 -73 -11t-56 -25q-6 -4 -9 -3t-3 6l-6 38q-1 6 0.5 8.5t5.5 5.5q24 17 60.5 26.5t81.5 9.5q64 0 102 -15t57 -40
t25.5 -57.5t6.5 -68.5q1 -49 0.5 -91t-2.5 -82.5t-6 -83.5q-1 -7 -5.5 -12.5t-18.5 -11.5q-15 -5 -35 -9.5t-42 -7.5t-43 -4.5t-39 -1.5zM237 41q9 0 25.5 1t34.5 5t31 10.5t15 16.5q4 30 6 70t1 75q0 20 -14 24q-13 4 -42 7.5t-63 3.5q-15 0 -34.5 -5t-36.5 -17t-28.5 -35
t-11.5 -59q0 -34 15 -55.5t41.5 -31.5t60.5 -10zM155 529q-3 0 -3.5 2t0.5 5l66 90q3 3 7 3h42q5 0 7 -3l66 -90q2 -3 1.5 -5t-4.5 -2h-35q-5 0 -7 3l-46 51q-4 4 -8 0l-44 -51q-2 -3 -7 -3h-35zM336 578q-6 0 -6 2.5t3 6.5l55 88q3 6 13 6h52q3 0 4.5 -2t-2.5 -6l-71 -90
q-2 -3 -4.5 -4t-7.5 -1h-36z" />
    <glyph glyph-name="uni1EA6" unicode="&#x1ea6;" horiz-adv-x="553" 
d="M45 0q-5 0 -6 3.5t0 13.5q7 47 21 113t33 141t40.5 149t44.5 137.5t44 105.5q3 5 6 7.5t7 2.5h82q5 -1 8.5 -3t6.5 -8q20 -40 42.5 -104t44.5 -139t41.5 -151t33.5 -141.5t20 -109.5q2 -10 1 -13.5t-7 -3.5h-57q-4 0 -5.5 2.5t-4.5 11.5q-4 27 -11 63.5t-15 74.5
q-1 6 -3.5 8t-9.5 2h-252q-6 -1 -8 -2.5t-4 -8.5q-8 -37 -15 -73.5t-12 -64.5q-1 -8 -2.5 -10.5t-6.5 -2.5h-57zM165 220h221q5 0 7.5 3t0.5 12q-22 85 -44.5 171t-54.5 164q-2 6 -9 6h-19q-6 0 -8 -7q-16 -39 -34.5 -95.5t-35.5 -119.5t-31 -123q-1 -4 0 -7.5t7 -3.5z
M183 718q-4 0 -4.5 2.5t0.5 4.5l68 78q3 4 7 4h45q5 0 8 -4l67 -78q2 -2 1.5 -4.5t-4.5 -2.5h-33q-4 0 -6 1.5t-6 3.5l-44 41q-4 3 -9 0l-46 -42q-2 -1 -4 -2.5t-6 -1.5h-34zM409 781q-4 0 -6.5 2t-6.5 5l-85 73q-2 2 -0.5 4.5t3.5 2.5h58q5 0 7.5 -1.5t6.5 -5.5l64 -71
q3 -3 3 -6t-5 -3h-39z" />
    <glyph glyph-name="uni1EA7" unicode="&#x1ea7;" horiz-adv-x="481" 
d="M232 -8q-49 0 -90.5 11.5t-66.5 43t-25 91.5q0 51 17 83.5t45 50t60 24.5t61 7q30 0 59 -3t47 -7q14 -3 14 20q0 60 -29.5 84.5t-92.5 24.5q-39 0 -73 -11t-56 -25q-6 -4 -9 -3t-3 6l-6 38q-1 6 0.5 8.5t5.5 5.5q24 17 60.5 26.5t81.5 9.5q64 0 102 -15t57 -40
t25.5 -57.5t6.5 -68.5q1 -49 0.5 -91t-2.5 -82.5t-6 -83.5q-1 -7 -5.5 -12.5t-18.5 -11.5q-15 -5 -35 -9.5t-42 -7.5t-43 -4.5t-39 -1.5zM237 41q9 0 25.5 1t34.5 5t31 10.5t15 16.5q4 30 6 70t1 75q0 20 -14 24q-13 4 -42 7.5t-63 3.5q-15 0 -34.5 -5t-36.5 -17t-28.5 -35
t-11.5 -59q0 -34 15 -55.5t41.5 -31.5t60.5 -10zM155 529q-3 0 -3.5 2t0.5 5l66 90q3 3 7 3h42q5 0 7 -3l66 -90q2 -3 1.5 -5t-4.5 -2h-35q-5 0 -7 3l-46 51q-4 4 -8 0l-44 -51q-2 -3 -7 -3h-35zM372 579q-7 0 -14 6l-71 88q-2 3 -0.5 5.5t3.5 2.5h58q5 0 8.5 -1.5t5.5 -5.5
l49 -87q5 -8 -2 -8h-37z" />
    <glyph glyph-name="uni1EA8" unicode="&#x1ea8;" horiz-adv-x="553" 
d="M45 0q-5 0 -6 3.5t0 13.5q7 47 21 113t33 141t40.5 149t44.5 137.5t44 105.5q3 5 6 7.5t7 2.5h82q5 -1 8.5 -3t6.5 -8q20 -40 42.5 -104t44.5 -139t41.5 -151t33.5 -141.5t20 -109.5q2 -10 1 -13.5t-7 -3.5h-57q-4 0 -5.5 2.5t-4.5 11.5q-4 27 -11 63.5t-15 74.5
q-1 6 -3.5 8t-9.5 2h-252q-6 -1 -8 -2.5t-4 -8.5q-8 -37 -15 -73.5t-12 -64.5q-1 -8 -2.5 -10.5t-6.5 -2.5h-57zM165 220h221q5 0 7.5 3t0.5 12q-22 85 -44.5 171t-54.5 164q-2 6 -9 6h-19q-6 0 -8 -7q-16 -39 -34.5 -95.5t-35.5 -119.5t-31 -123q-1 -4 0 -7.5t7 -3.5z
M183 718q-4 0 -4.5 2.5t0.5 4.5l68 78q3 4 7 4h45q5 0 8 -4l67 -78q2 -2 1.5 -4.5t-4.5 -2.5h-33q-4 0 -6 1.5t-6 3.5l-44 41q-4 3 -9 0l-46 -42q-2 -1 -4 -2.5t-6 -1.5h-34zM403 766q-2 0 -4 1.5t-2 3.5q0 19 8 27.5t16 12.5q8 6 15 11t7 15q0 21 -27 21q-11 0 -20 -4
t-17 -11q-7 -4 -9 1l-13 21q-2 2 -1 4t3 3q9 10 27.5 17t38.5 7q29 0 45 -15.5t16 -41.5q0 -22 -10.5 -31.5t-20.5 -15.5q-7 -4 -12.5 -8t-5.5 -13q0 -5 -6 -5h-28z" />
    <glyph glyph-name="uni1EA9" unicode="&#x1ea9;" horiz-adv-x="481" 
d="M232 -8q-49 0 -90.5 11.5t-66.5 43t-25 91.5q0 51 17 83.5t45 50t60 24.5t61 7q30 0 59 -3t47 -7q14 -3 14 20q0 60 -29.5 84.5t-92.5 24.5q-39 0 -73 -11t-56 -25q-6 -4 -9 -3t-3 6l-6 38q-1 6 0.5 8.5t5.5 5.5q24 17 60.5 26.5t81.5 9.5q64 0 102 -15t57 -40
t25.5 -57.5t6.5 -68.5q1 -49 0.5 -91t-2.5 -82.5t-6 -83.5q-1 -7 -5.5 -12.5t-18.5 -11.5q-15 -5 -35 -9.5t-42 -7.5t-43 -4.5t-39 -1.5zM237 41q9 0 25.5 1t34.5 5t31 10.5t15 16.5q4 30 6 70t1 75q0 20 -14 24q-13 4 -42 7.5t-63 3.5q-15 0 -34.5 -5t-36.5 -17t-28.5 -35
t-11.5 -59q0 -34 15 -55.5t41.5 -31.5t60.5 -10zM155 529q-3 0 -3.5 2t0.5 5l66 90q3 3 7 3h42q5 0 7 -3l66 -90q2 -3 1.5 -5t-4.5 -2h-35q-5 0 -7 3l-46 51q-4 4 -8 0l-44 -51q-2 -3 -7 -3h-35zM357 572q-2 0 -4 2t-2 4q0 17 8 26t16 14q8 6 14.5 11t6.5 15q0 19 -25 19
q-11 0 -19.5 -3t-16.5 -10q-6 -6 -10 0l-14 22q-3 5 2 8q9 10 27.5 17.5t40.5 7.5q30 0 46 -16t16 -43q0 -22 -10.5 -32.5t-20.5 -15.5q-7 -3 -12 -7t-5 -13q0 -6 -7 -6h-31z" />
    <glyph glyph-name="uni1EAA" unicode="&#x1eaa;" horiz-adv-x="553" 
d="M45 0q-5 0 -6 3.5t0 13.5q7 47 21 113t33 141t40.5 149t44.5 137.5t44 105.5q3 5 6 7.5t7 2.5h82q5 -1 8.5 -3t6.5 -8q20 -40 42.5 -104t44.5 -139t41.5 -151t33.5 -141.5t20 -109.5q2 -10 1 -13.5t-7 -3.5h-57q-4 0 -5.5 2.5t-4.5 11.5q-4 27 -11 63.5t-15 74.5
q-1 6 -3.5 8t-9.5 2h-252q-6 -1 -8 -2.5t-4 -8.5q-8 -37 -15 -73.5t-12 -64.5q-1 -8 -2.5 -10.5t-6.5 -2.5h-57zM165 220h221q5 0 7.5 3t0.5 12q-22 85 -44.5 171t-54.5 164q-2 6 -9 6h-19q-6 0 -8 -7q-16 -39 -34.5 -95.5t-35.5 -119.5t-31 -123q-1 -4 0 -7.5t7 -3.5z
M183 718q-4 0 -4.5 2.5t0.5 4.5l68 78q3 4 7 4h45q5 0 8 -4l67 -78q2 -2 1.5 -4.5t-4.5 -2.5h-33q-4 0 -6 1.5t-6 3.5l-44 41q-4 3 -9 0l-46 -42q-2 -1 -4 -2.5t-6 -1.5h-34zM190 828q-5 0 -5 5q0 31 15.5 50t41.5 19q14 0 28.5 -9.5t27.5 -19t22 -9.5q6 0 11 7.5t5 17.5
q0 7 4 7h31q5 0 5 -6q0 -26 -15.5 -47t-40.5 -21q-17 0 -31.5 10t-26 19t-20.5 9q-8 0 -12.5 -7.5t-4.5 -18.5q0 -6 -5 -6h-30z" />
    <glyph glyph-name="uni1EAB" unicode="&#x1eab;" horiz-adv-x="481" 
d="M232 -8q-49 0 -90.5 11.5t-66.5 43t-25 91.5q0 51 17 83.5t45 50t60 24.5t61 7q30 0 59 -3t47 -7q14 -3 14 20q0 60 -29.5 84.5t-92.5 24.5q-39 0 -73 -11t-56 -25q-6 -4 -9 -3t-3 6l-6 38q-1 6 0.5 8.5t5.5 5.5q24 17 60.5 26.5t81.5 9.5q64 0 102 -15t57 -40
t25.5 -57.5t6.5 -68.5q1 -49 0.5 -91t-2.5 -82.5t-6 -83.5q-1 -7 -5.5 -12.5t-18.5 -11.5q-15 -5 -35 -9.5t-42 -7.5t-43 -4.5t-39 -1.5zM237 41q9 0 25.5 1t34.5 5t31 10.5t15 16.5q4 30 6 70t1 75q0 20 -14 24q-13 4 -42 7.5t-63 3.5q-15 0 -34.5 -5t-36.5 -17t-28.5 -35
t-11.5 -59q0 -34 15 -55.5t41.5 -31.5t60.5 -10zM155 529q-3 0 -3.5 2t0.5 5l66 90q3 3 7 3h42q5 0 7 -3l66 -90q2 -3 1.5 -5t-4.5 -2h-35q-5 0 -7 3l-46 51q-4 4 -8 0l-44 -51q-2 -3 -7 -3h-35zM154 656q-5 0 -5 6q0 29 16 47t43 18q15 0 30 -8.5t28.5 -17t21.5 -8.5
q7 0 12 6.5t5 15.5q0 7 4 7h33q5 0 5 -6q0 -26 -16 -45.5t-42 -19.5q-18 0 -33 9t-27 17.5t-21 8.5q-8 0 -13 -7t-5 -17q0 -6 -4 -6h-32z" />
    <glyph glyph-name="uni1EAC" unicode="&#x1eac;" horiz-adv-x="553" 
d="M45 0q-5 0 -6 3.5t0 13.5q7 47 21 113t33 141t40.5 149t44.5 137.5t44 105.5q3 5 6 7.5t7 2.5h82q5 -1 8.5 -3t6.5 -8q20 -40 42.5 -104t44.5 -139t41.5 -151t33.5 -141.5t20 -109.5q2 -10 1 -13.5t-7 -3.5h-57q-4 0 -5.5 2.5t-4.5 11.5q-4 27 -11 63.5t-15 74.5
q-1 6 -3.5 8t-9.5 2h-252q-6 -1 -8 -2.5t-4 -8.5q-8 -37 -15 -73.5t-12 -64.5q-1 -8 -2.5 -10.5t-6.5 -2.5h-57zM165 220h221q5 0 7.5 3t0.5 12q-22 85 -44.5 171t-54.5 164q-2 6 -9 6h-19q-6 0 -8 -7q-16 -39 -34.5 -95.5t-35.5 -119.5t-31 -123q-1 -4 0 -7.5t7 -3.5z
M314 -87q0 -18 -7 -27t-30 -9q-21 0 -29 9t-8 27q0 17 8 26t29 9q23 0 30 -9t7 -26zM183 718q-4 0 -4.5 2.5t0.5 4.5l68 78q3 4 7 4h45q5 0 8 -4l67 -78q2 -2 1.5 -4.5t-4.5 -2.5h-33q-4 0 -6 1.5t-6 3.5l-44 41q-4 3 -9 0l-46 -42q-2 -1 -4 -2.5t-6 -1.5h-34z" />
    <glyph glyph-name="uni1EAD" unicode="&#x1ead;" horiz-adv-x="481" 
d="M232 -8q-49 0 -90.5 11.5t-66.5 43t-25 91.5q0 51 17 83.5t45 50t60 24.5t61 7q30 0 59 -3t47 -7q14 -3 14 20q0 60 -29.5 84.5t-92.5 24.5q-39 0 -73 -11t-56 -25q-6 -4 -9 -3t-3 6l-6 38q-1 6 0.5 8.5t5.5 5.5q24 17 60.5 26.5t81.5 9.5q64 0 102 -15t57 -40
t25.5 -57.5t6.5 -68.5q1 -49 0.5 -91t-2.5 -82.5t-6 -83.5q-1 -7 -5.5 -12.5t-18.5 -11.5q-15 -5 -35 -9.5t-42 -7.5t-43 -4.5t-39 -1.5zM237 41q9 0 25.5 1t34.5 5t31 10.5t15 16.5q4 30 6 70t1 75q0 20 -14 24q-13 4 -42 7.5t-63 3.5q-15 0 -34.5 -5t-36.5 -17t-28.5 -35
t-11.5 -59q0 -34 15 -55.5t41.5 -31.5t60.5 -10zM274 -87q0 -18 -7 -27t-30 -9q-21 0 -29 9t-8 27q0 17 8 26t29 9q23 0 30 -9t7 -26zM155 529q-3 0 -3.5 2t0.5 5l66 90q3 3 7 3h42q5 0 7 -3l66 -90q2 -3 1.5 -5t-4.5 -2h-35q-5 0 -7 3l-46 51q-4 4 -8 0l-44 -51
q-2 -3 -7 -3h-35z" />
    <glyph glyph-name="uni1EAE" unicode="&#x1eae;" horiz-adv-x="553" 
d="M45 0q-5 0 -6 3.5t0 13.5q7 47 21 113t33 141t40.5 149t44.5 137.5t44 105.5q3 5 6 7.5t7 2.5h82q5 -1 8.5 -3t6.5 -8q20 -40 42.5 -104t44.5 -139t41.5 -151t33.5 -141.5t20 -109.5q2 -10 1 -13.5t-7 -3.5h-57q-4 0 -5.5 2.5t-4.5 11.5q-4 27 -11 63.5t-15 74.5
q-1 6 -3.5 8t-9.5 2h-252q-6 -1 -8 -2.5t-4 -8.5q-8 -37 -15 -73.5t-12 -64.5q-1 -8 -2.5 -10.5t-6.5 -2.5h-57zM165 220h221q5 0 7.5 3t0.5 12q-22 85 -44.5 171t-54.5 164q-2 6 -9 6h-19q-6 0 -8 -7q-16 -39 -34.5 -95.5t-35.5 -119.5t-31 -123q-1 -4 0 -7.5t7 -3.5z
M278 715q-43 0 -66 20t-24 60q0 4 1 6t6 2h29q4 0 5.5 -0.5t1.5 -5.5q1 -23 13.5 -33t33.5 -10q20 0 33 10.5t13 33.5q0 4 2 4.5t4 0.5h30q4 0 5 -1t1 -7q0 -38 -22 -59t-66 -21zM270 850h-38q-5 0 -5 3t3 6l64 71q4 4 6.5 5.5t7.5 1.5h58q3 0 4.5 -2.5t-1.5 -4.5l-85 -73
q-4 -3 -7 -5t-7 -2z" />
    <glyph glyph-name="uni1EAF" unicode="&#x1eaf;" horiz-adv-x="481" 
d="M232 -8q-49 0 -90.5 11.5t-66.5 43t-25 91.5q0 51 17 83.5t45 50t60 24.5t61 7q30 0 59 -3t47 -7q14 -3 14 20q0 60 -29.5 84.5t-92.5 24.5q-39 0 -73 -11t-56 -25q-6 -4 -9 -3t-3 6l-6 38q-1 6 0.5 8.5t5.5 5.5q24 17 60.5 26.5t81.5 9.5q64 0 102 -15t57 -40
t25.5 -57.5t6.5 -68.5q1 -49 0.5 -91t-2.5 -82.5t-6 -83.5q-1 -7 -5.5 -12.5t-18.5 -11.5q-15 -5 -35 -9.5t-42 -7.5t-43 -4.5t-39 -1.5zM237 41q9 0 25.5 1t34.5 5t31 10.5t15 16.5q4 30 6 70t1 75q0 20 -14 24q-13 4 -42 7.5t-63 3.5q-15 0 -34.5 -5t-36.5 -17t-28.5 -35
t-11.5 -59q0 -34 15 -55.5t41.5 -31.5t60.5 -10zM248 526q-47 0 -72 20.5t-26 60.5q0 7 1 8.5t7 1.5h32q5 0 6.5 -1t1.5 -6q1 -22 14 -31.5t36 -9.5t36 9.5t14 32.5q0 4 1.5 5t4.5 1h35q4 0 5 -1.5t1 -8.5q-1 -38 -24 -59.5t-73 -21.5zM213 643q-6 0 -6 2.5t3 6.5l55 88
q3 6 13 6h52q3 0 4.5 -2t-2.5 -6l-71 -90q-2 -3 -4.5 -4t-7.5 -1h-36z" />
    <glyph glyph-name="uni1EB0" unicode="&#x1eb0;" horiz-adv-x="553" 
d="M45 0q-5 0 -6 3.5t0 13.5q7 47 21 113t33 141t40.5 149t44.5 137.5t44 105.5q3 5 6 7.5t7 2.5h82q5 -1 8.5 -3t6.5 -8q20 -40 42.5 -104t44.5 -139t41.5 -151t33.5 -141.5t20 -109.5q2 -10 1 -13.5t-7 -3.5h-57q-4 0 -5.5 2.5t-4.5 11.5q-4 27 -11 63.5t-15 74.5
q-1 6 -3.5 8t-9.5 2h-252q-6 -1 -8 -2.5t-4 -8.5q-8 -37 -15 -73.5t-12 -64.5q-1 -8 -2.5 -10.5t-6.5 -2.5h-57zM165 220h221q5 0 7.5 3t0.5 12q-22 85 -44.5 171t-54.5 164q-2 6 -9 6h-19q-6 0 -8 -7q-16 -39 -34.5 -95.5t-35.5 -119.5t-31 -123q-1 -4 0 -7.5t7 -3.5z
M278 715q-43 0 -66 20t-24 60q0 4 1 6t6 2h29q4 0 5.5 -0.5t1.5 -5.5q1 -23 13.5 -33t33.5 -10q20 0 33 10.5t13 33.5q0 4 2 4.5t4 0.5h30q4 0 5 -1t1 -7q0 -38 -22 -59t-66 -21zM280 850q-4 0 -6.5 2t-6.5 5l-85 73q-2 2 -0.5 4.5t3.5 2.5h58q5 0 7.5 -1.5t6.5 -5.5l64 -71
q3 -3 3 -6t-5 -3h-39z" />
    <glyph glyph-name="uni1EB1" unicode="&#x1eb1;" horiz-adv-x="481" 
d="M232 -8q-49 0 -90.5 11.5t-66.5 43t-25 91.5q0 51 17 83.5t45 50t60 24.5t61 7q30 0 59 -3t47 -7q14 -3 14 20q0 60 -29.5 84.5t-92.5 24.5q-39 0 -73 -11t-56 -25q-6 -4 -9 -3t-3 6l-6 38q-1 6 0.5 8.5t5.5 5.5q24 17 60.5 26.5t81.5 9.5q64 0 102 -15t57 -40
t25.5 -57.5t6.5 -68.5q1 -49 0.5 -91t-2.5 -82.5t-6 -83.5q-1 -7 -5.5 -12.5t-18.5 -11.5q-15 -5 -35 -9.5t-42 -7.5t-43 -4.5t-39 -1.5zM237 41q9 0 25.5 1t34.5 5t31 10.5t15 16.5q4 30 6 70t1 75q0 20 -14 24q-13 4 -42 7.5t-63 3.5q-15 0 -34.5 -5t-36.5 -17t-28.5 -35
t-11.5 -59q0 -34 15 -55.5t41.5 -31.5t60.5 -10zM248 526q-47 0 -72 20.5t-26 60.5q0 7 1 8.5t7 1.5h32q5 0 6.5 -1t1.5 -6q1 -22 14 -31.5t36 -9.5t36 9.5t14 32.5q0 4 1.5 5t4.5 1h35q4 0 5 -1.5t1 -8.5q-1 -38 -24 -59.5t-73 -21.5zM248 644q-7 0 -14 6l-71 88
q-2 3 -0.5 5.5t3.5 2.5h58q5 0 8.5 -1.5t5.5 -5.5l49 -87q5 -8 -2 -8h-37z" />
    <glyph glyph-name="uni1EB2" unicode="&#x1eb2;" horiz-adv-x="553" 
d="M45 0q-5 0 -6 3.5t0 13.5q7 47 21 113t33 141t40.5 149t44.5 137.5t44 105.5q3 5 6 7.5t7 2.5h82q5 -1 8.5 -3t6.5 -8q20 -40 42.5 -104t44.5 -139t41.5 -151t33.5 -141.5t20 -109.5q2 -10 1 -13.5t-7 -3.5h-57q-4 0 -5.5 2.5t-4.5 11.5q-4 27 -11 63.5t-15 74.5
q-1 6 -3.5 8t-9.5 2h-252q-6 -1 -8 -2.5t-4 -8.5q-8 -37 -15 -73.5t-12 -64.5q-1 -8 -2.5 -10.5t-6.5 -2.5h-57zM165 220h221q5 0 7.5 3t0.5 12q-22 85 -44.5 171t-54.5 164q-2 6 -9 6h-19q-6 0 -8 -7q-16 -39 -34.5 -95.5t-35.5 -119.5t-31 -123q-1 -4 0 -7.5t7 -3.5z
M278 715q-43 0 -66 20t-24 60q0 4 1 6t6 2h29q4 0 5.5 -0.5t1.5 -5.5q1 -23 13.5 -33t33.5 -10q20 0 33 10.5t13 33.5q0 4 2 4.5t4 0.5h30q4 0 5 -1t1 -7q0 -38 -22 -59t-66 -21zM259 845q-2 0 -4 1.5t-2 3.5q0 19 8 27.5t16 12.5q8 6 15 11t7 15q0 21 -27 21q-11 0 -20 -4
t-17 -11q-7 -4 -9 1l-13 21q-2 2 -1 4t3 3q9 10 27.5 17t38.5 7q29 0 45 -15.5t16 -41.5q0 -22 -10.5 -31.5t-20.5 -15.5q-7 -4 -12.5 -8t-5.5 -13q0 -5 -6 -5h-28z" />
    <glyph glyph-name="uni1EB3" unicode="&#x1eb3;" horiz-adv-x="481" 
d="M232 -8q-49 0 -90.5 11.5t-66.5 43t-25 91.5q0 51 17 83.5t45 50t60 24.5t61 7q30 0 59 -3t47 -7q14 -3 14 20q0 60 -29.5 84.5t-92.5 24.5q-39 0 -73 -11t-56 -25q-6 -4 -9 -3t-3 6l-6 38q-1 6 0.5 8.5t5.5 5.5q24 17 60.5 26.5t81.5 9.5q64 0 102 -15t57 -40
t25.5 -57.5t6.5 -68.5q1 -49 0.5 -91t-2.5 -82.5t-6 -83.5q-1 -7 -5.5 -12.5t-18.5 -11.5q-15 -5 -35 -9.5t-42 -7.5t-43 -4.5t-39 -1.5zM237 41q9 0 25.5 1t34.5 5t31 10.5t15 16.5q4 30 6 70t1 75q0 20 -14 24q-13 4 -42 7.5t-63 3.5q-15 0 -34.5 -5t-36.5 -17t-28.5 -35
t-11.5 -59q0 -34 15 -55.5t41.5 -31.5t60.5 -10zM248 526q-47 0 -72 20.5t-26 60.5q0 7 1 8.5t7 1.5h32q5 0 6.5 -1t1.5 -6q1 -22 14 -31.5t36 -9.5t36 9.5t14 32.5q0 4 1.5 5t4.5 1h35q4 0 5 -1.5t1 -8.5q-1 -38 -24 -59.5t-73 -21.5zM233 637q-2 0 -4 2t-2 4q0 17 8 26
t16 14q8 6 14.5 11t6.5 15q0 19 -25 19q-11 0 -19.5 -3t-16.5 -10q-6 -6 -10 0l-14 22q-3 5 2 8q9 10 27.5 17.5t40.5 7.5q30 0 46 -16t16 -43q0 -22 -10.5 -32.5t-20.5 -15.5q-7 -3 -12 -7t-5 -13q0 -6 -7 -6h-31z" />
    <glyph glyph-name="uni1EB4" unicode="&#x1eb4;" horiz-adv-x="553" 
d="M45 0q-5 0 -6 3.5t0 13.5q7 47 21 113t33 141t40.5 149t44.5 137.5t44 105.5q3 5 6 7.5t7 2.5h82q5 -1 8.5 -3t6.5 -8q20 -40 42.5 -104t44.5 -139t41.5 -151t33.5 -141.5t20 -109.5q2 -10 1 -13.5t-7 -3.5h-57q-4 0 -5.5 2.5t-4.5 11.5q-4 27 -11 63.5t-15 74.5
q-1 6 -3.5 8t-9.5 2h-252q-6 -1 -8 -2.5t-4 -8.5q-8 -37 -15 -73.5t-12 -64.5q-1 -8 -2.5 -10.5t-6.5 -2.5h-57zM165 220h221q5 0 7.5 3t0.5 12q-22 85 -44.5 171t-54.5 164q-2 6 -9 6h-19q-6 0 -8 -7q-16 -39 -34.5 -95.5t-35.5 -119.5t-31 -123q-1 -4 0 -7.5t7 -3.5z
M278 715q-43 0 -66 20t-24 60q0 4 1 6t6 2h29q4 0 5.5 -0.5t1.5 -5.5q1 -23 13.5 -33t33.5 -10q20 0 33 10.5t13 33.5q0 4 2 4.5t4 0.5h30q4 0 5 -1t1 -7q0 -38 -22 -59t-66 -21zM186 851q-5 0 -5 5q0 31 15.5 50t41.5 19q14 0 28.5 -9.5t27.5 -19t22 -9.5q6 0 11 7.5
t5 17.5q0 7 4 7h31q5 0 5 -6q0 -26 -15.5 -47t-40.5 -21q-17 0 -31.5 10t-26 19t-20.5 9q-8 0 -12.5 -7.5t-4.5 -18.5q0 -6 -5 -6h-30z" />
    <glyph glyph-name="uni1EB5" unicode="&#x1eb5;" horiz-adv-x="481" 
d="M232 -8q-49 0 -90.5 11.5t-66.5 43t-25 91.5q0 51 17 83.5t45 50t60 24.5t61 7q30 0 59 -3t47 -7q14 -3 14 20q0 60 -29.5 84.5t-92.5 24.5q-39 0 -73 -11t-56 -25q-6 -4 -9 -3t-3 6l-6 38q-1 6 0.5 8.5t5.5 5.5q24 17 60.5 26.5t81.5 9.5q64 0 102 -15t57 -40
t25.5 -57.5t6.5 -68.5q1 -49 0.5 -91t-2.5 -82.5t-6 -83.5q-1 -7 -5.5 -12.5t-18.5 -11.5q-15 -5 -35 -9.5t-42 -7.5t-43 -4.5t-39 -1.5zM237 41q9 0 25.5 1t34.5 5t31 10.5t15 16.5q4 30 6 70t1 75q0 20 -14 24q-13 4 -42 7.5t-63 3.5q-15 0 -34.5 -5t-36.5 -17t-28.5 -35
t-11.5 -59q0 -34 15 -55.5t41.5 -31.5t60.5 -10zM248 526q-47 0 -72 20.5t-26 60.5q0 7 1 8.5t7 1.5h32q5 0 6.5 -1t1.5 -6q1 -22 14 -31.5t36 -9.5t36 9.5t14 32.5q0 4 1.5 5t4.5 1h35q4 0 5 -1.5t1 -8.5q-1 -38 -24 -59.5t-73 -21.5zM155 647q-5 0 -5 6q0 29 16 47t43 18
q15 0 30 -8.5t28.5 -17t21.5 -8.5q7 0 12 6.5t5 15.5q0 7 4 7h33q5 0 5 -6q0 -26 -16 -45.5t-42 -19.5q-18 0 -33 9t-27 17.5t-21 8.5q-8 0 -13 -7t-5 -17q0 -6 -4 -6h-32z" />
    <glyph glyph-name="uni1EB6" unicode="&#x1eb6;" horiz-adv-x="553" 
d="M45 0q-5 0 -6 3.5t0 13.5q7 47 21 113t33 141t40.5 149t44.5 137.5t44 105.5q3 5 6 7.5t7 2.5h82q5 -1 8.5 -3t6.5 -8q20 -40 42.5 -104t44.5 -139t41.5 -151t33.5 -141.5t20 -109.5q2 -10 1 -13.5t-7 -3.5h-57q-4 0 -5.5 2.5t-4.5 11.5q-4 27 -11 63.5t-15 74.5
q-1 6 -3.5 8t-9.5 2h-252q-6 -1 -8 -2.5t-4 -8.5q-8 -37 -15 -73.5t-12 -64.5q-1 -8 -2.5 -10.5t-6.5 -2.5h-57zM165 220h221q5 0 7.5 3t0.5 12q-22 85 -44.5 171t-54.5 164q-2 6 -9 6h-19q-6 0 -8 -7q-16 -39 -34.5 -95.5t-35.5 -119.5t-31 -123q-1 -4 0 -7.5t7 -3.5z
M314 -87q0 -18 -7 -27t-30 -9q-21 0 -29 9t-8 27q0 17 8 26t29 9q23 0 30 -9t7 -26zM278 715q-43 0 -66 20t-24 60q0 4 1 6t6 2h29q4 0 5.5 -0.5t1.5 -5.5q1 -23 13.5 -33t33.5 -10q20 0 33 10.5t13 33.5q0 4 2 4.5t4 0.5h30q4 0 5 -1t1 -7q0 -38 -22 -59t-66 -21z" />
    <glyph glyph-name="uni1EB7" unicode="&#x1eb7;" horiz-adv-x="481" 
d="M232 -8q-49 0 -90.5 11.5t-66.5 43t-25 91.5q0 51 17 83.5t45 50t60 24.5t61 7q30 0 59 -3t47 -7q14 -3 14 20q0 60 -29.5 84.5t-92.5 24.5q-39 0 -73 -11t-56 -25q-6 -4 -9 -3t-3 6l-6 38q-1 6 0.5 8.5t5.5 5.5q24 17 60.5 26.5t81.5 9.5q64 0 102 -15t57 -40
t25.5 -57.5t6.5 -68.5q1 -49 0.5 -91t-2.5 -82.5t-6 -83.5q-1 -7 -5.5 -12.5t-18.5 -11.5q-15 -5 -35 -9.5t-42 -7.5t-43 -4.5t-39 -1.5zM237 41q9 0 25.5 1t34.5 5t31 10.5t15 16.5q4 30 6 70t1 75q0 20 -14 24q-13 4 -42 7.5t-63 3.5q-15 0 -34.5 -5t-36.5 -17t-28.5 -35
t-11.5 -59q0 -34 15 -55.5t41.5 -31.5t60.5 -10zM274 -87q0 -18 -7 -27t-30 -9q-21 0 -29 9t-8 27q0 17 8 26t29 9q23 0 30 -9t7 -26zM248 526q-47 0 -72 20.5t-26 60.5q0 7 1 8.5t7 1.5h32q5 0 6.5 -1t1.5 -6q1 -22 14 -31.5t36 -9.5t36 9.5t14 32.5q0 4 1.5 5t4.5 1h35
q4 0 5 -1.5t1 -8.5q-1 -38 -24 -59.5t-73 -21.5z" />
    <glyph glyph-name="uni1EB8" unicode="&#x1eb8;" horiz-adv-x="446" 
d="M88 0q-8 0 -8 7v658q0 8 8 8h315q6 0 7 -1.5t1 -6.5v-42q0 -6 -1.5 -7.5t-6.5 -1.5h-243q-5 0 -6 -1.5t-1 -5.5v-231q0 -4 2 -6t5 -2h198q6 0 7.5 -1.5t1.5 -8.5v-38q0 -6 -1.5 -8t-7.5 -2h-198q-5 0 -6 -1.5t-1 -5.5v-236q0 -4 1 -6.5t6 -2.5h242q7 0 8 -1.5t1 -7.5v-39
q0 -7 -1.5 -8.5t-7.5 -1.5h-314zM278 -87q0 -18 -7 -27t-30 -9q-21 0 -29 9t-8 27q0 17 8 26t29 9q23 0 30 -9t7 -26z" />
    <glyph glyph-name="uni1EB9" unicode="&#x1eb9;" horiz-adv-x="460" 
d="M40 237q0 47 9.5 90t31.5 77.5t60.5 54t98.5 19.5q61 0 98 -18t55.5 -48t25 -66t6.5 -72q0 -37 -7.5 -46t-22.5 -9h-273q-3 0 -6.5 -2t-3.5 -11q0 -46 15 -81.5t46.5 -55.5t79.5 -20q33 0 69 8.5t60 20.5q8 5 13 6t9 -8l13 -25q3 -6 1.5 -8.5t-7.5 -6.5
q-32 -21 -77.5 -31.5t-92.5 -10.5q-62 0 -101 18.5t-61 52t-30.5 77.5t-8.5 95zM352 286q0 36 -9 66.5t-33.5 49.5t-71.5 19q-34 0 -58 -13t-38 -33.5t-21 -45t-9 -46.5q0 -10 1.5 -13.5t9.5 -3.5h212q10 0 14 3t3 17zM268 -87q0 -18 -7 -27t-30 -9q-21 0 -29 9t-8 27
q0 17 8 26t29 9q23 0 30 -9t7 -26z" />
    <glyph glyph-name="uni1EBA" unicode="&#x1eba;" horiz-adv-x="446" 
d="M88 0q-8 0 -8 7v658q0 8 8 8h315q6 0 7 -1.5t1 -6.5v-42q0 -6 -1.5 -7.5t-6.5 -1.5h-243q-5 0 -6 -1.5t-1 -5.5v-231q0 -4 2 -6t5 -2h198q6 0 7.5 -1.5t1.5 -8.5v-38q0 -6 -1.5 -8t-7.5 -2h-198q-5 0 -6 -1.5t-1 -5.5v-236q0 -4 1 -6.5t6 -2.5h242q7 0 8 -1.5t1 -7.5v-39
q0 -7 -1.5 -8.5t-7.5 -1.5h-314zM223 714q-2 0 -4 1.5t-2 3.5q0 19 8 27.5t16 12.5q8 6 15 11t7 15q0 21 -27 21q-11 0 -20 -4t-17 -11q-7 -4 -9 1l-13 21q-2 2 -1 4t3 3q9 10 27.5 17t38.5 7q29 0 45 -15.5t16 -41.5q0 -22 -10.5 -31.5t-20.5 -15.5q-7 -4 -12.5 -8
t-5.5 -13q0 -5 -6 -5h-28z" />
    <glyph glyph-name="uni1EBB" unicode="&#x1ebb;" horiz-adv-x="460" 
d="M40 237q0 47 9.5 90t31.5 77.5t60.5 54t98.5 19.5q61 0 98 -18t55.5 -48t25 -66t6.5 -72q0 -37 -7.5 -46t-22.5 -9h-273q-3 0 -6.5 -2t-3.5 -11q0 -46 15 -81.5t46.5 -55.5t79.5 -20q33 0 69 8.5t60 20.5q8 5 13 6t9 -8l13 -25q3 -6 1.5 -8.5t-7.5 -6.5
q-32 -21 -77.5 -31.5t-92.5 -10.5q-62 0 -101 18.5t-61 52t-30.5 77.5t-8.5 95zM352 286q0 36 -9 66.5t-33.5 49.5t-71.5 19q-34 0 -58 -13t-38 -33.5t-21 -45t-9 -46.5q0 -10 1.5 -13.5t9.5 -3.5h212q10 0 14 3t3 17zM223 523q-2 0 -4 2t-2 4q0 17 8 26t16 14q8 6 14.5 11
t6.5 15q0 19 -25 19q-11 0 -19.5 -3t-16.5 -10q-6 -6 -10 0l-14 22q-3 5 2 8q9 10 27.5 17.5t40.5 7.5q30 0 46 -16t16 -43q0 -22 -10.5 -32.5t-20.5 -15.5q-7 -3 -12 -7t-5 -13q0 -6 -7 -6h-31z" />
    <glyph glyph-name="uni1EBC" unicode="&#x1ebc;" horiz-adv-x="446" 
d="M88 0q-8 0 -8 7v658q0 8 8 8h315q6 0 7 -1.5t1 -6.5v-42q0 -6 -1.5 -7.5t-6.5 -1.5h-243q-5 0 -6 -1.5t-1 -5.5v-231q0 -4 2 -6t5 -2h198q6 0 7.5 -1.5t1.5 -8.5v-38q0 -6 -1.5 -8t-7.5 -2h-198q-5 0 -6 -1.5t-1 -5.5v-236q0 -4 1 -6.5t6 -2.5h242q7 0 8 -1.5t1 -7.5v-39
q0 -7 -1.5 -8.5t-7.5 -1.5h-314zM150 720q-5 0 -5 5q0 31 15.5 50t41.5 19q14 0 28.5 -9.5t27.5 -19t22 -9.5q6 0 11 7.5t5 17.5q0 7 4 7h31q5 0 5 -6q0 -26 -15.5 -47t-40.5 -21q-17 0 -31.5 10t-26 19t-20.5 9q-8 0 -12.5 -7.5t-4.5 -18.5q0 -6 -5 -6h-30z" />
    <glyph glyph-name="uni1EBD" unicode="&#x1ebd;" horiz-adv-x="460" 
d="M40 237q0 47 9.5 90t31.5 77.5t60.5 54t98.5 19.5q61 0 98 -18t55.5 -48t25 -66t6.5 -72q0 -37 -7.5 -46t-22.5 -9h-273q-3 0 -6.5 -2t-3.5 -11q0 -46 15 -81.5t46.5 -55.5t79.5 -20q33 0 69 8.5t60 20.5q8 5 13 6t9 -8l13 -25q3 -6 1.5 -8.5t-7.5 -6.5
q-32 -21 -77.5 -31.5t-92.5 -10.5q-62 0 -101 18.5t-61 52t-30.5 77.5t-8.5 95zM352 286q0 36 -9 66.5t-33.5 49.5t-71.5 19q-34 0 -58 -13t-38 -33.5t-21 -45t-9 -46.5q0 -10 1.5 -13.5t9.5 -3.5h212q10 0 14 3t3 17zM144 533q-5 0 -5 6q0 29 16 47t43 18q15 0 30 -8.5
t28.5 -17t21.5 -8.5q7 0 12 6.5t5 15.5q0 7 4 7h33q5 0 5 -6q0 -26 -16 -45.5t-42 -19.5q-18 0 -33 9t-27 17.5t-21 8.5q-8 0 -13 -7t-5 -17q0 -6 -4 -6h-32z" />
    <glyph glyph-name="uni1EBE" unicode="&#x1ebe;" horiz-adv-x="446" 
d="M88 0q-8 0 -8 7v658q0 8 8 8h315q6 0 7 -1.5t1 -6.5v-42q0 -6 -1.5 -7.5t-6.5 -1.5h-243q-5 0 -6 -1.5t-1 -5.5v-231q0 -4 2 -6t5 -2h198q6 0 7.5 -1.5t1.5 -8.5v-38q0 -6 -1.5 -8t-7.5 -2h-198q-5 0 -6 -1.5t-1 -5.5v-236q0 -4 1 -6.5t6 -2.5h242q7 0 8 -1.5t1 -7.5v-39
q0 -7 -1.5 -8.5t-7.5 -1.5h-314zM147 718q-4 0 -4.5 2.5t0.5 4.5l68 78q3 4 7 4h45q5 0 8 -4l67 -78q2 -2 1.5 -4.5t-4.5 -2.5h-33q-4 0 -6 1.5t-6 3.5l-44 41q-4 3 -9 0l-46 -42q-2 -1 -4 -2.5t-6 -1.5h-34zM378 771h-38q-5 0 -5 3t3 6l64 71q4 4 6.5 5.5t7.5 1.5h58
q3 0 4.5 -2.5t-1.5 -4.5l-85 -73q-4 -3 -7 -5t-7 -2z" />
    <glyph glyph-name="uni1EBF" unicode="&#x1ebf;" horiz-adv-x="460" 
d="M40 237q0 47 9.5 90t31.5 77.5t60.5 54t98.5 19.5q61 0 98 -18t55.5 -48t25 -66t6.5 -72q0 -37 -7.5 -46t-22.5 -9h-273q-3 0 -6.5 -2t-3.5 -11q0 -46 15 -81.5t46.5 -55.5t79.5 -20q33 0 69 8.5t60 20.5q8 5 13 6t9 -8l13 -25q3 -6 1.5 -8.5t-7.5 -6.5
q-32 -21 -77.5 -31.5t-92.5 -10.5q-62 0 -101 18.5t-61 52t-30.5 77.5t-8.5 95zM352 286q0 36 -9 66.5t-33.5 49.5t-71.5 19q-34 0 -58 -13t-38 -33.5t-21 -45t-9 -46.5q0 -10 1.5 -13.5t9.5 -3.5h212q10 0 14 3t3 17zM145 529q-3 0 -3.5 2t0.5 5l66 90q3 3 7 3h42q5 0 7 -3
l66 -90q2 -3 1.5 -5t-4.5 -2h-35q-5 0 -7 3l-46 51q-4 4 -8 0l-44 -51q-2 -3 -7 -3h-35zM327 578q-6 0 -6 2.5t3 6.5l55 88q3 6 13 6h52q3 0 4.5 -2t-2.5 -6l-71 -90q-2 -3 -4.5 -4t-7.5 -1h-36z" />
    <glyph glyph-name="uni1EC0" unicode="&#x1ec0;" horiz-adv-x="446" 
d="M88 0q-8 0 -8 7v658q0 8 8 8h315q6 0 7 -1.5t1 -6.5v-42q0 -6 -1.5 -7.5t-6.5 -1.5h-243q-5 0 -6 -1.5t-1 -5.5v-231q0 -4 2 -6t5 -2h198q6 0 7.5 -1.5t1.5 -8.5v-38q0 -6 -1.5 -8t-7.5 -2h-198q-5 0 -6 -1.5t-1 -5.5v-236q0 -4 1 -6.5t6 -2.5h242q7 0 8 -1.5t1 -7.5v-39
q0 -7 -1.5 -8.5t-7.5 -1.5h-314zM147 718q-4 0 -4.5 2.5t0.5 4.5l68 78q3 4 7 4h45q5 0 8 -4l67 -78q2 -2 1.5 -4.5t-4.5 -2.5h-33q-4 0 -6 1.5t-6 3.5l-44 41q-4 3 -9 0l-46 -42q-2 -1 -4 -2.5t-6 -1.5h-34zM373 781q-4 0 -6.5 2t-6.5 5l-85 73q-2 2 -0.5 4.5t3.5 2.5h58
q5 0 7.5 -1.5t6.5 -5.5l64 -71q3 -3 3 -6t-5 -3h-39z" />
    <glyph glyph-name="uni1EC1" unicode="&#x1ec1;" horiz-adv-x="460" 
d="M40 237q0 47 9.5 90t31.5 77.5t60.5 54t98.5 19.5q61 0 98 -18t55.5 -48t25 -66t6.5 -72q0 -37 -7.5 -46t-22.5 -9h-273q-3 0 -6.5 -2t-3.5 -11q0 -46 15 -81.5t46.5 -55.5t79.5 -20q33 0 69 8.5t60 20.5q8 5 13 6t9 -8l13 -25q3 -6 1.5 -8.5t-7.5 -6.5
q-32 -21 -77.5 -31.5t-92.5 -10.5q-62 0 -101 18.5t-61 52t-30.5 77.5t-8.5 95zM352 286q0 36 -9 66.5t-33.5 49.5t-71.5 19q-34 0 -58 -13t-38 -33.5t-21 -45t-9 -46.5q0 -10 1.5 -13.5t9.5 -3.5h212q10 0 14 3t3 17zM145 529q-3 0 -3.5 2t0.5 5l66 90q3 3 7 3h42q5 0 7 -3
l66 -90q2 -3 1.5 -5t-4.5 -2h-35q-5 0 -7 3l-46 51q-4 4 -8 0l-44 -51q-2 -3 -7 -3h-35zM362 579q-7 0 -14 6l-71 88q-2 3 -0.5 5.5t3.5 2.5h58q5 0 8.5 -1.5t5.5 -5.5l49 -87q5 -8 -2 -8h-37z" />
    <glyph glyph-name="uni1EC2" unicode="&#x1ec2;" horiz-adv-x="446" 
d="M88 0q-8 0 -8 7v658q0 8 8 8h315q6 0 7 -1.5t1 -6.5v-42q0 -6 -1.5 -7.5t-6.5 -1.5h-243q-5 0 -6 -1.5t-1 -5.5v-231q0 -4 2 -6t5 -2h198q6 0 7.5 -1.5t1.5 -8.5v-38q0 -6 -1.5 -8t-7.5 -2h-198q-5 0 -6 -1.5t-1 -5.5v-236q0 -4 1 -6.5t6 -2.5h242q7 0 8 -1.5t1 -7.5v-39
q0 -7 -1.5 -8.5t-7.5 -1.5h-314zM147 718q-4 0 -4.5 2.5t0.5 4.5l68 78q3 4 7 4h45q5 0 8 -4l67 -78q2 -2 1.5 -4.5t-4.5 -2.5h-33q-4 0 -6 1.5t-6 3.5l-44 41q-4 3 -9 0l-46 -42q-2 -1 -4 -2.5t-6 -1.5h-34zM367 766q-2 0 -4 1.5t-2 3.5q0 19 8 27.5t16 12.5q8 6 15 11
t7 15q0 21 -27 21q-11 0 -20 -4t-17 -11q-7 -4 -9 1l-13 21q-2 2 -1 4t3 3q9 10 27.5 17t38.5 7q29 0 45 -15.5t16 -41.5q0 -22 -10.5 -31.5t-20.5 -15.5q-7 -4 -12.5 -8t-5.5 -13q0 -5 -6 -5h-28z" />
    </font>
</defs>
</svg>
