<?xml version="1.0" standalone="no"?>
<!DOCTYPE svg PUBLIC "-//W3C//DTD SVG 1.1//EN" "http://www.w3.org/Graphics/SVG/1.1/DTD/svg11.dtd" >
<svg xmlns="http://www.w3.org/2000/svg" xmlns:xlink="http://www.w3.org/1999/xlink" version="1.1">
<metadata>
Created by FontForge 20201107 at Fri Jun 18 05:32:25 2021
 By 
Copyright 2016-2020 The Glory Project Authors (https://github.com/googlefonts/glory)
</metadata>
<defs>
<font id="Glory-Light" horiz-adv-x="490" >
  <font-face 
    font-family="Glory Light"
    font-weight="300"
    font-stretch="normal"
    units-per-em="1000"
    panose-1="0 0 0 0 0 0 0 0 0 0"
    ascent="800"
    descent="-200"
    x-height="472"
    cap-height="673"
    bbox="-96.3333 -241 1021 969"
    underline-thickness="50"
    underline-position="-125"
    unicode-range="U+000D-FB02"
  />
<missing-glyph horiz-adv-x="600" 
d="M98 0q-4 0 -4 4q-4 33 -7 85.5t-5 115.5t-2 129q0 67 2 131.5t5.5 118t7.5 85.5q0 4 4 4h402q4 0 4 -4q4 -32 7.5 -85.5t5.5 -118t2 -131.5q0 -66 -2 -129t-5 -115.5t-7 -85.5q0 -4 -4 -4h-404zM124 30h352q5 42 7 96.5t3 110t1 100.5q0 79 -4 158t-9 148h-348
q-6 -85 -9.5 -162.5t-3.5 -145.5q0 -47 0.5 -101t3 -107t7.5 -97zM170 80q-6 0 -5.5 2.5t1.5 3.5l231 502q3 6 9 6h19q8 0 2 -7l-230 -499q-4 -8 -11 -8h-16zM424 80h-16q-8 0 -11 8l-230 499q-6 7 2 7h19q6 0 9 -6l231 -502q1 -1 1.5 -3.5t-5.5 -2.5z" />
    <glyph glyph-name="fi" unicode="fi" horiz-adv-x="531" 
d="M107 5q-3 37 -6 86t-4 104.5t-2 112.5t-1 110q0 9 -8 9h-62q-4 0 -5.5 2t-1.5 4v32q0 3 1.5 5t5.5 2h62q5 0 6.5 1.5t1.5 7.5q-1 46 3 88.5t28 78.5q22 32 62 48t97 16q28 0 52.5 -8.5t32.5 -13.5q5 -2 6 -4.5t0 -5.5l-7 -25q-1 -3 -2.5 -4t-4.5 1q-11 6 -30.5 10.5
t-47.5 4.5q-48 0 -77.5 -15t-41.5 -52q-10 -28 -12.5 -58t-1.5 -61q0 -4 2 -6.5t6 -2.5h157q3 0 4.5 -1.5t1.5 -5.5v-32q0 -2 -2 -4t-5 -2h-155q-4 0 -6.5 -2t-2.5 -7q0 -45 0.5 -102t2.5 -116t4 -109.5t4 -85.5q0 -3 -0.5 -4.5t-3.5 -1.5h-44q-2 0 -4 1.5t-2 4.5zM465 603
q0 -16 -5.5 -23.5t-26.5 -7.5q-20 0 -27 7.5t-7 23.5q0 14 7 22t27 8q22 0 27 -8t5 -22zM461 6q0 -6 -5 -6h-45q-6 0 -6 6v460q0 6 6 6h45q5 0 5 -6v-460z" />
    <glyph glyph-name="fl" unicode="fl" horiz-adv-x="532" 
d="M107 5q-3 37 -6 86t-4 104.5t-2 112.5t-1 110q0 9 -8 9h-62q-4 0 -5.5 2t-1.5 4v32q0 3 1.5 5t5.5 2h62q5 0 6.5 1.5t1.5 7.5q-1 46 3 88.5t28 78.5q22 32 62 48t97 16q28 0 52.5 -8.5t32.5 -13.5q5 -2 6 -4.5t0 -5.5l-7 -25q-1 -3 -2.5 -4t-4.5 1q-11 6 -30.5 10.5
t-47.5 4.5q-48 0 -77.5 -15t-41.5 -52q-10 -28 -12.5 -58t-1.5 -61q0 -4 2 -6.5t6 -2.5h157q3 0 4.5 -1.5t1.5 -5.5v-32q0 -2 -2 -4t-5 -2h-155q-4 0 -6.5 -2t-2.5 -7q0 -45 0.5 -102t2.5 -116t4 -109.5t4 -85.5q0 -3 -0.5 -4.5t-3.5 -1.5h-44q-2 0 -4 1.5t-2 4.5zM404 6
v696q0 6 6 6h43q7 0 7 -6v-696q0 -6 -7 -6h-43q-6 0 -6 6z" />
    <glyph glyph-name=".notdef" horiz-adv-x="600" 
d="M98 0q-4 0 -4 4q-4 33 -7 85.5t-5 115.5t-2 129q0 67 2 131.5t5.5 118t7.5 85.5q0 4 4 4h402q4 0 4 -4q4 -32 7.5 -85.5t5.5 -118t2 -131.5q0 -66 -2 -129t-5 -115.5t-7 -85.5q0 -4 -4 -4h-404zM124 30h352q5 42 7 96.5t3 110t1 100.5q0 79 -4 158t-9 148h-348
q-6 -85 -9.5 -162.5t-3.5 -145.5q0 -47 0.5 -101t3 -107t7.5 -97zM170 80q-6 0 -5.5 2.5t1.5 3.5l231 502q3 6 9 6h19q8 0 2 -7l-230 -499q-4 -8 -11 -8h-16zM424 80h-16q-8 0 -11 8l-230 499q-6 7 2 7h19q6 0 9 -6l231 -502q1 -1 1.5 -3.5t-5.5 -2.5z" />
    <glyph glyph-name=".null" horiz-adv-x="0" 
 />
    <glyph glyph-name="nonmarkingreturn" horiz-adv-x="333" 
 />
    <glyph glyph-name="CR" unicode="&#xd;" horiz-adv-x="600" 
 />
    <glyph glyph-name="space" unicode=" " horiz-adv-x="245" 
 />
    <glyph glyph-name="exclam" unicode="!" horiz-adv-x="230" 
d="M97 229q-2 0 -3 1.5t-1 4.5l-7 432q0 3 1 4.5t4 1.5h50q6 0 6 -6l-7 -432q-1 -3 -2.5 -4.5t-5.5 -1.5h-35zM147 23q0 -14 -6 -22t-27 -8q-18 0 -25.5 8t-7.5 22q0 15 7.5 22.5t25.5 7.5q21 0 27 -7.5t6 -22.5z" />
    <glyph glyph-name="quotedbl" unicode="&#x22;" horiz-adv-x="348" 
d="M80 466q-2 0 -3.5 1.5t-1.5 5.5l-3 226q0 5 1.5 7t5.5 2h38q5 0 6 -2t1 -5l-4 -228q-1 -4 -2.5 -5.5t-4.5 -1.5h-33zM232 466q-2 0 -3 1.5t-1 5.5l-4 226q0 5 2 7t5 2h38q4 0 5.5 -2t1.5 -5l-3 -228q-1 -4 -2.5 -5.5t-4.5 -1.5h-34z" />
    <glyph glyph-name="numbersign" unicode="#" horiz-adv-x="691" 
d="M193 233h-150q-4 0 -5.5 1.5t-1.5 5.5l3 29q0 4 2 5.5t5 1.5h150l10 154h-146q-3 0 -5 1t-2 6l3 29q1 4 2.5 5.5t4.5 1.5h145l16 228q1 3 2.5 5t5.5 2h34q4 0 5 -2t-1 -6l-15 -227h177l16 228q1 3 2.5 5t4.5 2h34q4 0 5 -2t0 -6l-16 -227h169q5 0 6.5 -1.5t1.5 -5.5
l-3 -30q0 -4 -2 -5t-5 -1h-169l-10 -154h163q6 0 8 -1.5t1 -5.5l-2 -30q-1 -3 -3 -4.5t-4 -1.5h-166l-14 -227q0 -2 -1.5 -4t-5.5 -2h-33q-3 0 -4.5 2t-1.5 7l14 224h-177l-14 -227q0 -2 -1.5 -4t-5.5 -2h-34q-3 0 -4.5 2t-1.5 7zM242 276h177l11 154h-177z" />
    <glyph glyph-name="dollar" unicode="$" horiz-adv-x="468" 
d="M165 35q-17 4 -40.5 10.5t-40.5 14.5q-10 5 -15.5 10t-5.5 12v21v21q0 3 2 3.5t6 -1t8 -4.5q28 -18 60 -28t63 -10q51 0 88.5 28t37.5 82q0 35 -16.5 57.5t-43.5 39.5t-61 32q-34 17 -67 36t-54.5 50t-21.5 80t22 81t58.5 47.5t79.5 16.5q8 0 14.5 -0.5t13.5 -0.5l20 105
q1 3 2 4.5t5 1.5h34q5 0 6 -1.5t0 -5.5l-21 -112q27 -7 52 -18.5t48 -28.5q3 -2 5 -4t0 -5q-2 -7 -7 -19.5t-11 -16.5q-2 -2 -4.5 -1t-7.5 4q-12 7 -35.5 18.5t-51.5 21t-55 9.5q-47 0 -79.5 -24.5t-32.5 -74.5q0 -30 16.5 -51t44 -36.5t59.5 -31.5q35 -17 68 -38
t54.5 -52.5t21.5 -80.5t-23 -86t-62 -57t-87 -22l-25 -159q0 -4 -2 -5t-5 -1h-35q-2 0 -3.5 1.5t-0.5 7.5z" />
    <glyph glyph-name="percent" unicode="%" horiz-adv-x="780" 
d="M167 0q-3 0 -3.5 2t0.5 5l391 695q1 3 2.5 4.5t4.5 1.5h43q3 0 4 -2t-3 -8l-386 -692q-2 -3 -4 -4.5t-5 -1.5h-44zM210 426q-75 0 -106.5 39.5t-31.5 102.5q0 62 31.5 102t106.5 40t107.5 -40t32.5 -102q0 -63 -32.5 -102.5t-107.5 -39.5zM210 465q50 0 72.5 27t22.5 76
t-22.5 76t-72.5 27q-49 0 -71.5 -26.5t-22.5 -76.5q0 -49 22.5 -76t71.5 -27zM569 0q-74 0 -106 39.5t-32 102.5q0 62 32 102t106 40q75 0 107 -40t32 -102q0 -63 -32 -102.5t-107 -39.5zM569 39q50 0 72.5 27t22.5 76t-22.5 76t-72.5 27q-49 0 -71.5 -26.5t-22.5 -76.5
q0 -49 22.5 -76t71.5 -27z" />
    <glyph glyph-name="ampersand" unicode="&#x26;" horiz-adv-x="683" 
d="M268 -6q-61 0 -105 17.5t-72.5 46.5t-41.5 65t-13 72q0 41 14 77.5t41 64t64 39.5q-20 11 -34.5 27.5t-24 35.5t-14 38.5t-4.5 35.5q0 25 9.5 53t32 53t60.5 41t94 16q48 0 97.5 -24t84.5 -81q4 -6 3.5 -9t-3.5 -5l-29 -22q-6 -4 -13 5q-24 38 -61 63t-85 25
q-37 0 -67.5 -14t-49 -40.5t-18.5 -64.5q0 -23 10.5 -46.5t30.5 -40.5t49 -21q3 0 15 -0.5l24 -1t14 -0.5q6 0 8.5 -1t2.5 -5v-38q0 -5 -1.5 -6t-5.5 -1h-59q-39 0 -67 -21.5t-43 -55.5t-15 -71t17.5 -73t56 -59t102.5 -23q56 0 101 30.5t78 78.5t51 100l-88 48q-3 1 -3.5 3
t2.5 7l18 33q2 4 5 5t5 -1l183 -99q5 -2 5 -4.5t-3 -6.5l-17 -33q-2 -3 -4.5 -4t-6.5 1l-52 28q-16 -44 -41 -86t-59.5 -76.5t-78.5 -54.5t-99 -20z" />
    <glyph glyph-name="quotesingle" unicode="'" horiz-adv-x="147" 
d="M56 466q-2 0 -3.5 1.5t-1.5 5.5l-3 226q0 5 1.5 7t5.5 2h38q4 0 5 -2t1 -5l-3 -228q-1 -4 -2.5 -5.5t-4.5 -1.5h-33z" />
    <glyph glyph-name="parenleft" unicode="(" horiz-adv-x="368" 
d="M296 -78q0 -4 -1.5 -5t-9.5 -1q-70 1 -122 52t-80.5 142t-28.5 212q0 47 9 98.5t27 101.5t45.5 90.5t65 65t84.5 24.5q8 0 9.5 -1.5t1.5 -4.5v-32q0 -2 -2 -3t-7 -1q-37 0 -65.5 -21t-50 -56.5t-36 -80t-22 -91t-7.5 -88.5q0 -66 9 -122t24.5 -100.5t37.5 -76t50 -48.5
t60 -18q6 0 7.5 -1.5t1.5 -4.5v-30z" />
    <glyph glyph-name="parenright" unicode=")" horiz-adv-x="368" 
d="M72 -78v30q0 3 2 4.5t7 1.5q32 1 60 18t50 48.5t38 76t24.5 100.5t8.5 122q0 42 -7.5 88.5t-22 91t-36 80t-50 56.5t-64.5 21q-5 0 -7.5 1t-2.5 3v32q0 3 2 4.5t9 1.5q48 0 85 -24.5t64.5 -65t46 -90.5t27 -101.5t8.5 -98.5q0 -121 -28.5 -212t-80 -142t-122.5 -52
q-7 0 -9 1t-2 5z" />
    <glyph glyph-name="asterisk" unicode="*" horiz-adv-x="550" 
d="M275 444l-110 -157q-3 -3 -5 -4t-6 1l-28 22q-2 3 -3 5.5t2 5.5l114 151l-181 59q-7 2 -6 8l12 35q2 4 4 5t5 -1l180 -64l-3 190q0 4 1 6t5 2h37q4 0 5 -2t1 -6l-2 -190l179 64q4 2 6 0.5t3 -4.5l12 -35q2 -6 -6 -8l-181 -59l115 -152q2 -2 2 -4.5t-4 -5.5l-28 -22
q-3 -2 -5 -1.5t-5 4.5z" />
    <glyph glyph-name="plus" unicode="+" horiz-adv-x="469" 
d="M217 117q-4 0 -5 1t-1 4v158h-155q-4 0 -5 2t-1 4v33q0 3 1.5 4t4.5 1h155v159q0 3 1 4t5 1h34q2 0 3.5 -1t1.5 -5v-158h157q3 0 4.5 -1t1.5 -5v-33q0 -2 -1 -3.5t-5 -1.5h-157v-158q0 -3 -2 -4t-4 -1h-33z" />
    <glyph glyph-name="comma" unicode="," horiz-adv-x="202" 
d="M138 21q0 -13 -6.5 -35.5t-16 -45t-19.5 -37.5q-1 -3 -4 -4h-11h-14q-1 1 -0.5 3t2.5 5q4 10 9.5 25t11.5 31.5t8 28.5q-15 1 -20.5 8.5t-5.5 20.5q0 14 7 22t25 8q17 0 25.5 -6.5t8.5 -23.5z" />
    <glyph glyph-name="hyphen" unicode="-" horiz-adv-x="416" 
d="M78 256q-4 0 -5 2t-1 4v33q0 4 1 5t5 1h261q3 0 4 -1t1 -5v-33q0 -3 -1 -4.5t-4 -1.5h-261z" />
    <glyph glyph-name="period" unicode="." horiz-adv-x="164" 
d="M116 22q0 -16 -6 -23.5t-28 -7.5q-19 0 -26.5 7.5t-7.5 23.5q0 14 7.5 21.5t26.5 7.5q22 0 28 -7.5t6 -21.5z" />
    <glyph glyph-name="slash" unicode="/" horiz-adv-x="533" 
d="M99 6q-2 -3 -4 -4.5t-5 -1.5h-42q-2 0 -2.5 2t1.5 5l415 695q2 3 4.5 4.5t4.5 1.5h40q4 0 4 -2t-4 -8z" />
    <glyph glyph-name="zero" unicode="0" horiz-adv-x="542" 
d="M488 336q0 -73 -11.5 -135.5t-37 -109t-67 -72.5t-102.5 -26q-60 0 -101.5 25.5t-66.5 72t-36.5 109t-11.5 136.5t11.5 136.5t36.5 109.5t66.5 72.5t101.5 25.5q61 0 102.5 -26t67 -73t37 -109.5t11.5 -135.5zM429 336q0 141 -38.5 218.5t-120.5 77.5t-120 -76.5
t-38 -219.5q0 -142 38 -219t120 -77t120.5 77.5t38.5 218.5z" />
    <glyph glyph-name="one" unicode="1" horiz-adv-x="319" 
d="M184 0q-6 0 -6 6v592q0 11 -10 5l-124 -72q-7 -4 -10 2l-18 30q-4 7 2 10l162 94q6 4 9.5 5t7.5 1h30q8 0 8 -8v-659q0 -6 -6 -6h-45z" />
    <glyph glyph-name="two" unicode="2" horiz-adv-x="488" 
d="M42 0q-4 0 -5.5 1.5t-1.5 5.5v37q0 8 6 11q52 36 110 81t107.5 98t81 114t31.5 129q0 52 -21.5 85t-56.5 48.5t-76 15.5q-33 0 -61.5 -8.5t-49 -18.5t-31.5 -15q-17 -8 -17 1v37q0 5 2 7.5t7 6.5q12 6 34.5 16t54 18t65.5 8q50 0 97 -20t77.5 -64t30.5 -116
q0 -67 -26 -127.5t-70.5 -114t-97.5 -98.5t-107 -83q-2 -2 -1 -4t4 -2h295q6 0 6 -6v-37q0 -4 -1 -5t-5 -1h-381z" />
    <glyph glyph-name="three" unicode="3" horiz-adv-x="473" 
d="M207 -5q-30 0 -62.5 8t-60 22.5t-45.5 34.5q-2 3 -2 6t2 7l21 26q5 7 11 1q28 -28 62.5 -41.5t71.5 -13.5q48 0 81.5 21.5t51 54.5t17.5 66q0 34 -18 66.5t-53.5 54t-88.5 21.5h-9.5h-8.5q-3 0 -5 2t-2 6v34q0 8 7 8h10h16q45 3 76 22.5t47 48.5t16 60q0 30 -15 57
t-44.5 44.5t-73.5 17.5q-33 0 -71.5 -14.5t-63.5 -34.5q-9 -8 -15 2l-17 30q-2 3 -1 6.5t3 4.5q23 18 52.5 30.5t59.5 18.5t55 6q60 0 100.5 -23.5t62 -61t21.5 -78.5q0 -47 -23.5 -88t-70.5 -66q-12 -4 -12 -6q0 -1 14 -7q52 -23 79.5 -64t27.5 -96q0 -48 -24 -92.5
t-69 -72.5t-110 -28z" />
    <glyph glyph-name="four" unicode="4" horiz-adv-x="486" 
d="M319 0q-6 0 -6 6v173q0 10 -10 10h-273q-6 0 -6 6v31q0 5 2 9t4 6l281 423q3 5 6.5 7t5.5 2h39q6 0 6 -6v-421q0 -10 10 -10h69q5 0 5 -5v-37q0 -5 -5 -5h-69q-10 0 -10 -10v-173q0 -6 -6 -6h-43zM98 236h205q10 0 10 10v327q0 4 -2 4.5t-4 -3.5l-214 -325
q-4 -6 -2.5 -9.5t7.5 -3.5z" />
    <glyph glyph-name="five" unicode="5" horiz-adv-x="468" 
d="M186 -5q-20 0 -43.5 4t-46.5 13t-44 22q-2 2 -3 4.5t0 4.5l21 35q2 3 5 3t5 -2q28 -16 53.5 -23.5t53.5 -7.5q32 0 63.5 11.5t56.5 33.5t39.5 54t14.5 73q0 42 -19 77t-56.5 55.5t-95.5 20.5q-16 0 -32.5 -1t-32.5 -3.5t-31 -8.5q-8 -2 -11.5 0.5t-3.5 7.5v294q0 6 2 8.5
t10 2.5h265q4 0 5.5 -2t1.5 -5v-36q0 -6 -7 -6h-218q-7 0 -7 -7v-191q0 -5 2 -7.5t7 -1.5q15 3 30 3h24q76 0 125 -27t73 -71.5t24 -97.5q1 -70 -31.5 -122t-85 -80t-113.5 -27z" />
    <glyph glyph-name="six" unicode="6" horiz-adv-x="542" 
d="M275 -12q-57 1 -110 32.5t-86 100t-33 178.5q0 67 20.5 134t61 123t101.5 90t142 34q8 0 22.5 -1.5t24.5 -3.5q3 0 5.5 -2t2.5 -8v-15v-16q0 -5 -2 -6t-6 0q-5 0 -13.5 1t-18 1.5t-19 -0.5t-16.5 -5q-58 -1 -103 -28t-77 -70t-49.5 -95t-20.5 -105q0 -9 2.5 -12t8.5 6
q29 42 77 67.5t102 25.5q55 0 95 -17t65 -46t37 -65t12 -75q0 -55 -26.5 -106.5t-76.5 -84t-122 -32.5zM275 38q56 0 94 26t57 66.5t18 83.5q0 39 -18 73t-52.5 55.5t-87.5 21.5q-38 0 -74.5 -18.5t-65 -46t-42.5 -55.5q0 -37 12.5 -74t36 -67t54.5 -47.5t68 -17.5z" />
    <glyph glyph-name="seven" unicode="7" horiz-adv-x="442" 
d="M131 0q-4 0 -5.5 1t-1.5 5q2 25 14.5 73.5t33.5 111t44 126.5q23 61 47.5 119.5t45 104.5t33.5 72q3 7 1.5 9.5t-12.5 3.5h-307q-3 0 -4 1t-1 4v36q0 4 1.5 5t4.5 1h387q3 0 4.5 -1t1.5 -5v-20q0 -7 -5 -13q-15 -25 -39 -74.5t-51 -114.5t-54 -137q-22 -60 -42 -118.5
t-32.5 -106.5t-13.5 -77q0 -4 -2.5 -5t-4.5 -1h-43z" />
    <glyph glyph-name="eight" unicode="8" horiz-adv-x="484" 
d="M241 -6q-56 0 -103 25t-75.5 67.5t-28.5 95.5q0 65 30 107.5t77 64.5q8 3 9.5 8t-5.5 8q-36 16 -57.5 48t-21.5 87q0 47 24 86t64 62t87 23q49 0 89 -23t64 -62t24 -86q0 -59 -22.5 -91t-58.5 -48q-3 -3 -2.5 -7t8.5 -6q50 -23 78.5 -63.5t28.5 -107.5q0 -53 -29 -95.5
t-75.5 -67.5t-104.5 -25zM243 389q31 0 58.5 12.5t45 38.5t17.5 65q0 32 -16.5 58.5t-44 42.5t-62.5 16q-33 0 -61 -16t-44 -42.5t-16 -58.5q0 -37 18 -63t46 -39.5t59 -13.5zM241 47q45 0 79.5 18.5t54.5 49.5t20 68q0 47 -21.5 79.5t-56 49.5t-72.5 18q-39 1 -75 -15.5
t-59 -49.5t-23 -82q0 -37 20.5 -68t55 -49.5t77.5 -18.5z" />
    <glyph glyph-name="nine" unicode="9" horiz-adv-x="536" 
d="M246 254q-71 0 -116.5 28.5t-67 74t-21.5 95.5q0 56 26.5 108.5t77.5 86t125 33.5q55 -1 96 -22.5t68.5 -58.5t41.5 -85.5t14 -104.5q1 -75 -18.5 -149t-60.5 -134t-107 -96t-157 -36q-8 0 -20.5 0.5t-26.5 3.5q-4 1 -6.5 3t-2.5 7v31q0 5 3 6.5t7 0.5q12 -2 25 -3t21 -1
q70 0 122.5 29t85.5 69q23 28 38 63.5t23.5 69.5t12.5 57t4 26q-32 -47 -81.5 -74.5t-105.5 -27.5zM269 629q-56 0 -94.5 -26.5t-58 -66.5t-18.5 -84q1 -39 16.5 -73t48.5 -55.5t86 -21.5q58 0 106 35.5t78 85.5q-2 79 -26 124t-61 63.5t-77 18.5z" />
    <glyph glyph-name="colon" unicode=":" horiz-adv-x="212" 
d="M140 22q0 -16 -6.5 -23.5t-28.5 -7.5q-19 0 -26 7.5t-7 23.5q0 14 7 21.5t26 7.5q22 0 28.5 -7.5t6.5 -21.5zM140 449q0 -15 -6.5 -22.5t-28.5 -7.5q-19 0 -26 7.5t-7 22.5q0 14 7 22t26 8q22 0 28.5 -8t6.5 -22z" />
    <glyph glyph-name="semicolon" unicode=";" horiz-adv-x="220" 
d="M148 449q0 -15 -6.5 -22t-28.5 -7q-19 0 -26 7t-7 22t7 22.5t26 7.5q22 0 28.5 -7.5t6.5 -22.5zM147 21q0 -13 -6.5 -36t-16 -45t-19.5 -37q-1 -3 -4 -4h-11h-14q-1 1 -0.5 3t2.5 5q4 10 9.5 25t11.5 31.5t8 28.5q-15 1 -20.5 8.5t-5.5 20.5q0 14 7 22t25 8
q17 0 25.5 -6.5t8.5 -23.5z" />
    <glyph glyph-name="less" unicode="&#x3c;" horiz-adv-x="439" 
d="M56 279q-2 1 -4 3t-2 6v35q0 3 2 4t5 2l322 156q5 2 7.5 0.5t2.5 -4.5v-37q0 -2 -2.5 -3.5t-5.5 -3.5l-276 -134l275 -132q5 -2 7 -3.5t2 -4.5v-36q0 -8 -9 -4z" />
    <glyph glyph-name="equal" unicode="=" horiz-adv-x="470" 
d="M56 369q-4 0 -5 2t-1 4v32q0 3 1.5 4.5t4.5 1.5h358q3 0 4.5 -1.5t1.5 -4.5v-33q0 -2 -1.5 -3.5t-4.5 -1.5h-358zM56 189q-4 0 -5 1.5t-1 4.5v32q0 3 1.5 4.5t4.5 1.5h358q3 0 4.5 -1.5t1.5 -4.5v-33q0 -2 -1.5 -3.5t-4.5 -1.5h-358z" />
    <glyph glyph-name="greater" unicode="&#x3e;" horiz-adv-x="419" 
d="M49 122q-4 -2 -6.5 0t-2.5 5v36q0 3 2.5 4.5t5.5 3.5l275 132l-275 134q-8 3 -8 7v37q0 3 2.5 4.5t7.5 -1.5l322 -155q2 -1 4.5 -2t2.5 -4v-36q0 -3 -2 -5t-5 -3z" />
    <glyph glyph-name="question" unicode="?" horiz-adv-x="445" 
d="M130 179q-5 0 -6 2t-1 7q0 53 8 88t23.5 58.5t38 42.5t52.5 38q14 10 29.5 22t28 26.5t19.5 31.5t6 36q0 45 -33.5 70t-87.5 25q-37 0 -68.5 -7.5t-52.5 -17.5q-8 -3 -9.5 -3.5t-3.5 5.5l-10 30q-1 4 1.5 7t7.5 6q23 14 61 21.5t72 7.5q81 0 129 -40t48 -105
q0 -47 -17.5 -75t-42 -45t-47.5 -32q-36 -24 -58.5 -49.5t-32.5 -58.5t-10 -83q0 -5 -0.5 -6.5t-3.5 -1.5h-40zM118 23q0 15 7 22.5t25 7.5q21 0 27 -7.5t6 -22.5q0 -14 -6 -22t-27 -8q-18 0 -25 8t-7 22z" />
    <glyph glyph-name="at" unicode="@" horiz-adv-x="837" 
d="M54 329q0 74 28.5 138t79 113t118 76t145.5 27q100 0 168 -25.5t110 -68t61 -96t19 -109.5q0 -48 -13.5 -93.5t-37.5 -80.5t-57 -56t-73 -21q-41 0 -62.5 21t-28.5 52t-7 61v6.5t-1.5 4.5t-6.5 -13q-13 -29 -33 -59.5t-47.5 -50.5t-66.5 -20q-50 0 -81.5 26.5t-43.5 69.5
t-7 91q7 57 34.5 107t72 81.5t103.5 31.5q54 0 91.5 -13t63.5 -30q9 -5 9.5 -13t-1.5 -19q-4 -13 -8 -25.5t-7 -25.5q-7 -25 -14.5 -56.5t-11.5 -63.5t-2 -59t14.5 -44t37.5 -17q38 0 68 31t47.5 80t17.5 103q0 46 -16 91.5t-52.5 81.5t-95 58t-143.5 22q-68 0 -126.5 -24
t-102 -67.5t-68 -100t-24.5 -122.5q0 -73 25 -130t69.5 -96.5t103.5 -60t128 -20.5q86 -1 158.5 12.5t127.5 38.5q8 5 14.5 7.5t12.5 6.5q5 3 8 2t5 -5l12 -22q3 -3 1.5 -6t-6.5 -6q-6 -4 -13 -7.5t-16 -7.5q-53 -25 -128.5 -39.5t-174.5 -13.5q-77 1 -145 22.5t-120.5 65
t-82 108t-29.5 151.5zM530 446q2 9 4.5 15.5t-5.5 12.5q-23 13 -45.5 19t-53.5 6q-47 0 -81.5 -29t-54.5 -72t-25 -87q-3 -35 3.5 -65.5t25 -49.5t50.5 -19q30 0 53.5 23t40.5 57q18 32 42 84t46 105z" />
    <glyph glyph-name="A" unicode="A" horiz-adv-x="554" 
d="M49 0q-5 0 -5.5 2.5t-0.5 9.5q7 48 21 115t33 142.5t40.5 150.5t44.5 139t44 106q2 4 5 6t6 2h79q4 -1 7 -2t5 -6q20 -41 42.5 -105.5t44.5 -140.5t41.5 -153t33.5 -143t20 -110q1 -8 0.5 -10.5t-5.5 -2.5h-44q-3 0 -4.5 2t-3.5 8q-4 28 -11.5 66t-15.5 80q-1 6 -4 7.5
t-9 1.5h-274q-5 0 -7 -2t-4 -8q-9 -41 -16.5 -79t-12.5 -66q0 -6 -1.5 -8t-5.5 -2h-43zM151 212h249q4 0 7 3.5t1 12.5q-24 94 -49 188.5t-62 181.5q-2 6 -9 6h-22q-7 0 -9 -7q-18 -43 -38.5 -105.5t-39.5 -132.5t-35 -136q-1 -3 0 -7t7 -4z" />
    <glyph glyph-name="B" unicode="B" horiz-adv-x="518" 
d="M470 182q0 -66 -25 -106t-67.5 -58t-94.5 -18h-193q-6 0 -6 6v661q0 6 6 6h136q47 0 87 -4.5t70 -20t46.5 -47.5t16.5 -88q0 -38 -9 -69t-25.5 -52.5t-38.5 -33.5q-5 -2 -5.5 -7t5.5 -7q42 -16 69.5 -59t27.5 -103zM411 185q0 56 -19 86t-54 41t-83 11h-108q-6 0 -6 -5
v-269q0 -2 1 -3.5t4 -1.5h135q19 0 42 5t42.5 20t32.5 43t13 73zM388 512q0 54 -20.5 78.5t-56 31t-82.5 6.5h-83q-5 0 -5 -5v-248q0 -5 5 -5h118q43 0 70 18.5t40.5 50.5t13.5 73z" />
    <glyph glyph-name="C" unicode="C" horiz-adv-x="445" 
d="M408 17q0 -10 -12 -15q-14 -4 -33 -6.5t-37 -3.5t-28 -1q-110 0 -177 86.5t-67 257.5q0 172 64.5 258.5t179.5 86.5q10 0 28 -1.5t37 -4t33 -6.5q7 -2 9.5 -5.5t2.5 -7.5v-37q0 -13 -10 -7q-13 8 -37.5 15t-56.5 7q-56 0 -93.5 -23.5t-59 -64.5t-30.5 -91.5t-9 -104.5
q0 -36 4 -78.5t15.5 -83.5t33 -75t56 -54.5t83.5 -20.5q33 0 57.5 7t35.5 14q7 4 9 2t2 -8v-35z" />
    <glyph glyph-name="D" unicode="D" horiz-adv-x="577" 
d="M523 347q0 -88 -16 -149t-42 -100t-56.5 -60.5t-61 -29.5t-55.5 -8h-202q-6 0 -6 6v661q0 6 6 6h202q30 0 62 -6t62.5 -24t54.5 -54t38 -95t14 -147zM467 347q0 96 -17 152t-43.5 83.5t-56 35.5t-55.5 8h-148q-4 0 -5 -1.5t-1 -4.5v-568q0 -3 1 -4.5t4 -1.5h131
q28 0 60.5 11.5t62 43t48.5 91t19 155.5z" />
    <glyph glyph-name="E" unicode="E" horiz-adv-x="444" 
d="M90 0q-6 0 -6 6v661q0 6 6 6h311q4 0 5 -1t1 -6v-33q0 -4 -1 -5.5t-5 -1.5h-254q-4 0 -5 -2t-1 -5v-249q0 -3 2 -5.5t5 -2.5h208q4 0 5 -1t1 -6v-32q0 -4 -1 -5.5t-5 -1.5h-209q-4 0 -5 -1.5t-1 -5.5v-254q0 -4 1 -6.5t6 -2.5h252q5 0 6 -1t1 -6v-31q0 -5 -1.5 -6.5
t-5.5 -1.5h-310z" />
    <glyph glyph-name="F" unicode="F" horiz-adv-x="426" 
d="M90 0q-6 0 -6 6v661q0 6 6 6h311q4 0 5 -1t1 -6v-33q0 -4 -1 -5.5t-5 -1.5h-254q-4 0 -5 -2t-1 -5v-249q0 -3 2 -5.5t5 -2.5h198q5 0 6 -1t1 -6v-32q0 -4 -1.5 -5.5t-5.5 -1.5h-199q-4 0 -5 -1.5t-1 -5.5v-301q0 -5 -1.5 -6.5t-6.5 -1.5h-43z" />
    <glyph glyph-name="G" unicode="G" horiz-adv-x="555" 
d="M489 21q0 -11 -13.5 -17t-34 -8t-42.5 -2q-171 0 -263 83.5t-92 246.5q0 111 41 190t112 121.5t160 42.5q27 0 60 -2t55 -10q7 -2 9.5 -4.5t2.5 -8.5v-33q0 -8 -2.5 -10t-7.5 0q-25 14 -53 18t-58 4q-35 0 -80 -14.5t-86 -49t-67.5 -92t-26.5 -144.5q0 -90 27 -147.5
t69.5 -89t90 -44t90.5 -12.5t53 11v257q0 7 -2.5 9t-7.5 2h-156q-3 0 -4.5 1.5t-1.5 4.5v34q0 3 1.5 5t4.5 2h211q8 0 9.5 -2.5t1.5 -9.5v-332z" />
    <glyph glyph-name="H" unicode="H" horiz-adv-x="610" 
d="M101 0q-2 0 -4.5 1t-3.5 5q-4 34 -7 86.5t-5 115.5t-2 129t2 129t5.5 115.5t8.5 85.5q0 3 2.5 4.5t4.5 1.5h22h22q3 0 5 -5q-6 -69 -9 -130t-4 -104.5t-1 -61.5q0 -6 1.5 -8t5.5 -2h161h160q3 0 6 1.5t3 8.5q-1 14 -2 57.5t-4 106t-9 132.5q2 5 5 5h22h22q2 0 4.5 -1.5
t2.5 -4.5q5 -33 8.5 -85.5t5.5 -116t2 -128.5q0 -66 -2 -129t-5 -115.5t-7 -86.5q0 -4 -2.5 -5t-5.5 -1h-22.5h-22.5q-4 0 -4 6q7 43 9.5 89.5t3.5 88.5t1 75v48q0 5 -2.5 7t-5.5 2h-160.5h-160.5q-5 0 -7 -2t-2 -7q0 -18 -0.5 -50.5t1 -74.5t4.5 -87.5t9 -88.5q0 -6 -4 -6
h-22.5h-22.5z" />
    <glyph glyph-name="I" unicode="I" horiz-adv-x="225" 
d="M140 6q0 -6 -6 -6h-44q-6 0 -6 6v661q0 6 6 6h44q6 0 6 -6v-661z" />
    <glyph glyph-name="J" unicode="J" horiz-adv-x="291" 
d="M212 171q0 -67 -12.5 -105t-40.5 -52.5t-76 -14.5l-76 1q-5 0 -9 1.5t-4 5.5v31q0 7 8 7q17 0 36 -0.5t36 -0.5q41 0 61 21.5t21 80.5v521q0 6 6 6h45q2 0 3.5 -1.5t1.5 -4.5v-496z" />
    <glyph glyph-name="K" unicode="K" horiz-adv-x="521" 
d="M88 0q-4 0 -4 4v333v332q0 4 4 4h9.5h15h15h9.5q4 0 4 -4v-74.5v-72v-72.5v-75q0 -3 0.5 -5.5t5.5 -2.5h88q7 0 10.5 3t6.5 7q20 38 38.5 74t37 71t37 71t38.5 74l3 4.5t3 1.5h10h14.5h14.5h10q4 0 4.5 -3t-2.5 -8q-27 -52 -53.5 -102.5t-52.5 -101t-52 -103.5
q-4 -9 -5 -15t-1 -11q1 -28 12 -61.5t27.5 -67t36.5 -62.5t40 -47q22 -19 46.5 -30t51.5 -11q2 0 5 -1t3 -3v-41q0 -5 -3 -5q-43 0 -77 12t-63 36q-22 19 -43 48.5t-39 64.5t-30.5 70t-16.5 64q-2 8 -5.5 10t-5.5 2h-44h-44l-3 -1t-3 -6v-75.5v-72.5v-72.5v-75.5q0 -4 -4 -4
h-9.5h-15h-15h-9.5z" />
    <glyph glyph-name="L" unicode="L" horiz-adv-x="420" 
d="M90 0q-6 0 -6 6v661q0 6 6 6h43q4 0 5.5 -1.5t1.5 -5.5v-611q0 -4 1 -6.5t7 -2.5h251q5 0 6.5 -1t1.5 -6v-31q0 -5 -1.5 -6.5t-6.5 -1.5h-309z" />
    <glyph glyph-name="M" unicode="M" horiz-adv-x="713" 
d="M86 0q-7 0 -7 7q0 90 3.5 183.5t9 182.5t12 165t13.5 129q0 3 1.5 4.5t4.5 1.5h32q5 0 7 -2t4 -5l184 -323q3 -5 7 -5t7 5l182 321q3 5 6 7t8 2h28q8 0 9 -10q6 -51 13 -124.5t12.5 -161.5t8.5 -182t3 -185q0 -6 -1.5 -8t-6.5 -2h-40q-8 0 -8 9q0 43 -1 98.5t-4 116.5
t-6 120.5t-6.5 110.5t-7.5 88q-1 7 -6 7t-8 -5l-161 -277q-4 -6 -12 -6h-21q-6 0 -11 7l-160 274q-3 6 -8 5.5t-6 -7.5q-4 -47 -8.5 -111t-8 -136t-6 -146.5t-2.5 -142.5q0 -5 -4 -5h-45z" />
    <glyph glyph-name="N" unicode="N" horiz-adv-x="640" 
d="M486 124q2 -4 6 -3.5t5 6.5q3 36 5.5 89t3 113.5t-0.5 122.5t-4.5 117t-8.5 96q-1 8 4 8h45q3 0 5 -1.5t2 -4.5q6 -35 8.5 -88t4 -116t1 -130t-2.5 -129t-5 -114t-7 -84q0 -4 -3 -5t-6 -1h-32q-5 0 -8 7l-345 544q-1 4 -4.5 4t-4.5 -5q-3 -42 -5 -97.5t-3 -117.5t0 -123
t4 -114t8 -90q0 -8 -5 -8h-43q-3 0 -5.5 1t-2.5 5q-4 34 -7 86.5t-4.5 115t-1.5 129.5t2 130t5 115t8 85q0 3 2.5 4.5t4.5 1.5h33q4 0 7 -6z" />
    <glyph glyph-name="O" unicode="O" horiz-adv-x="625" 
d="M54 334q0 111 22 187.5t78 115.5t157 39q79 0 130 -22.5t79.5 -65t39.5 -106.5t11 -148t-11 -147.5t-39.5 -106.5t-79.5 -65t-130 -22q-101 0 -157 39t-78 115t-22 187zM112 334q0 -114 21.5 -177t64.5 -88t112 -25t113.5 25t67 88t22.5 177q0 115 -22.5 178.5t-67 89
t-113.5 25.5t-112.5 -26t-64.5 -89t-21 -178z" />
    <glyph glyph-name="P" unicode="P" horiz-adv-x="480" 
d="M435 463q0 -63 -21.5 -115.5t-63.5 -84t-105 -31.5h-96q-5 0 -6.5 -2.5t-1.5 -5.5v-218q0 -6 -7 -6h-44q-6 0 -6 6v661q0 6 6 6h144q107 0 154 -51t47 -159zM141 286q0 -8 7 -8h90q69 0 105.5 49.5t36.5 135.5q0 90 -35 127.5t-109 37.5h-88q-4 0 -5.5 -1.5t-1.5 -7.5
v-333z" />
    <glyph glyph-name="Q" unicode="Q" horiz-adv-x="625" 
d="M54 334q0 111 22 187.5t78 115.5t157 39q79 0 130 -22.5t79.5 -65.5t39.5 -107t11 -147q0 -99 -16.5 -170t-58.5 -112.5t-120 -53.5q-6 -1 -12.5 -2t-12.5 -2q-9 0 -9 -8q0 -47 9 -76t35 -42.5t79 -13.5h24q7 0 7 -6v-26q0 -3 -1.5 -5.5t-6.5 -3.5q-3 -1 -12.5 -1h-20.5
q-68 0 -105 19.5t-51 58.5t-14 95q0 4 -1.5 6.5t-7.5 2.5q-6 1 -13 2t-14 3q-75 11 -118 52t-60 112t-17 171zM112 334q0 -114 21 -177t64.5 -88t112.5 -25t113.5 25t67 88t22.5 177q0 115 -22.5 178.5t-67 89t-113.5 25.5t-112.5 -26t-64.5 -89t-21 -178z" />
    <glyph glyph-name="R" unicode="R" horiz-adv-x="523" 
d="M90 0q-6 0 -6 6v661q0 6 6 6h138q74 0 119.5 -17.5t66.5 -58.5t21 -113q0 -68 -26 -118t-83 -70q-11 -5 -13.5 -11.5t0.5 -14.5q8 -34 23 -69t35.5 -65.5t43.5 -50.5q20 -16 43.5 -25.5t48.5 -9.5q4 0 6.5 -1.5t2.5 -5.5v-36q0 -3 -0.5 -4.5t-3 -2t-9.5 -0.5
q-38 0 -69.5 12.5t-57.5 33.5q-27 23 -51 58.5t-42 77t-26 81.5q-1 5 -4.5 9.5t-13.5 4.5h-90q-8 0 -8 -10v-261q0 -6 -7 -6h-44zM141 332q0 -4 2.5 -6t5.5 -2h89q69 0 105.5 37.5t36.5 122.5q0 60 -16 91t-49.5 42t-88.5 11h-78q-4 0 -5.5 -1.5t-1.5 -7.5v-287z" />
    <glyph glyph-name="S" unicode="S" horiz-adv-x="452" 
d="M60 24v39q0 5 3.5 4t6.5 -2q20 -7 43.5 -13t47 -9.5t41.5 -3.5q74 0 111 40.5t37 108.5q0 60 -30 91t-102 50q-29 8 -60 17.5t-57 27.5t-42 49.5t-16 82.5q0 61 27.5 98t72 55t98.5 18q25 0 49 -3.5t45.5 -9t38.5 -13.5q5 -1 6.5 -3.5t1.5 -5.5v-33q0 -11 -14 -5
q-25 12 -56 19.5t-69 7.5q-63 0 -103 -31t-40 -91q0 -37 13 -60t35 -36.5t49 -21.5l54 -16q51 -14 86 -34t53 -55t18 -95q0 -63 -24.5 -107.5t-70 -68.5t-111.5 -24q-28 0 -65 7t-69 17q-4 1 -6 3t-2 6z" />
    <glyph glyph-name="T" unicode="T" horiz-adv-x="429" 
d="M192 0q-3 0 -5 1.5t-2 4.5v612q0 4 -1.5 6t-5.5 2h-149q-3 0 -5 1.5t-2 4.5v35q0 3 1.5 4.5t5.5 1.5h370q5 0 6.5 -1.5t1.5 -5.5v-33q0 -4 -1.5 -5.5t-6.5 -1.5h-148q-5 0 -7 -2t-2 -7v-611q0 -6 -6 -6h-44z" />
    <glyph glyph-name="U" unicode="U" horiz-adv-x="634" 
d="M317 -6q-81 0 -127.5 19t-68.5 48t-30 58.5t-10 52.5q-4 43 -6 93.5t-1 102.5q1 50 3.5 101.5t6.5 101.5t10 93q0 3 2 6t4 3h21.5h21.5q4 0 5 -1.5t0 -7.5q-4 -40 -7 -84.5t-6 -92.5q-4 -81 -4.5 -161.5t6.5 -148.5q2 -18 7.5 -41t22.5 -44.5t52.5 -36t96.5 -14.5
t96.5 14.5t53 36t23.5 44.5t7 41q6 67 6.5 145t-3.5 157q-3 50 -6.5 97t-7.5 88q0 6 1 7.5t4 1.5h22.5h21.5q4 0 5 -3l2 -6q5 -43 9.5 -92t6.5 -100t2 -100q2 -53 0.5 -105t-6.5 -95q-2 -18 -6.5 -41t-17 -47t-38 -44.5t-68 -33t-106.5 -12.5z" />
    <glyph glyph-name="V" unicode="V" horiz-adv-x="531" 
d="M235 0q-4 1 -6 2.5t-4 4.5q-21 43 -44 107t-45 139t-41 150.5t-33 142.5t-20 115q-1 6 -0.5 9t5.5 3h42q5 0 6.5 -2t2.5 -8q5 -39 16.5 -94.5t27 -118t33 -125.5t35.5 -119t35 -97q3 -9 6.5 -20t8.5 -19q2 -2 4.5 -2t4.5 2q5 7 9 18t7 21q16 39 34 95t36 119.5t33.5 127
t27 118.5t16.5 94q2 6 3 8t5 2h44q5 0 5.5 -3t-0.5 -10q-6 -43 -20 -109.5t-33.5 -143.5t-41.5 -153.5t-44.5 -141t-42.5 -104.5q-2 -5 -5 -6t-7 -2h-60z" />
    <glyph glyph-name="W" unicode="W" horiz-adv-x="816" 
d="M226 0q-9 0 -12 7q-22 43 -45 107t-45 139t-41 151t-32.5 144t-20.5 117q0 3 0.5 5.5t5.5 2.5h8h12.5h12.5h9q5 0 6.5 -1.5t1.5 -5.5q7 -47 22.5 -120t37.5 -161q16 -63 32.5 -120.5t33 -106t30.5 -82.5q2 -3 3.5 -6t3.5 -3h4h4q3 0 4.5 2.5t2.5 6.5q10 23 22.5 58.5
t25.5 77t25.5 82.5t23 75.5t16.5 56.5q-2 32 -4 70t-4 73.5t-3.5 62t-1.5 34.5q0 4 1 6.5t5 2.5h9h13h13h9q5 0 6 -2t1 -6q0 -47 4 -94t10 -90.5t15 -82.5q18 -85 44.5 -166t55.5 -157q3 -5 4 -7.5t3 -2.5h4.5h4.5q3 0 6 8q13 30 29 77.5t33.5 106.5t33.5 123q12 44 21.5 84
t17 75t14 66t9.5 58q1 4 2.5 6t4.5 2h9.5h13h12.5h9q8 0 5 -10q-7 -43 -21 -109.5t-33.5 -144t-41 -154.5t-44 -142t-42.5 -105q-1 -4 -4 -6t-8 -2h-19h-21.5h-19.5q-3 0 -6 2.5t-4 4.5q-17 37 -36.5 88t-38 110.5t-34.5 121.5q-2 7 -4 8t-6 -8q-13 -51 -27.5 -98.5
t-28 -88.5t-26.5 -74t-25 -58q-2 -5 -5.5 -6.5t-6.5 -1.5h-19h-21h-18z" />
    <glyph glyph-name="X" unicode="X" horiz-adv-x="506" 
d="M322 352q-4 -7 -4 -13t5 -14l16 -22t13 -21q28 -45 50.5 -89.5t39.5 -82.5t27.5 -64.5t11.5 -35.5q2 -6 -0.5 -8t-5.5 -2h-45q-2 0 -4.5 2t-4.5 9q-1 3 -11 26t-25.5 58t-34.5 74t-39 75t-39 60q-8 2 -17.5 2t-19.5 -2q-19 -26 -39.5 -62.5t-39.5 -75t-34.5 -73t-25 -57
t-10.5 -25.5q-3 -6 -4.5 -8.5t-4.5 -2.5h-44q-5 0 -7 2t-1 8q2 8 17 46t41 93.5t61 114.5q8 14 18 30.5t20 30.5q4 5 4.5 13t-4.5 14q-32 50 -58 100.5t-46 94.5t-31.5 74.5t-12.5 41.5q-2 5 0.5 7.5t6.5 2.5h42q4 0 5.5 -2t3.5 -8l7.5 -20t21 -52.5t31 -70.5t37 -75.5
t39.5 -66.5l5 -5t7 -4q7 -1 12.5 -0.5t11.5 0.5q4 1 6 2t5 5q20 28 40 65.5t37.5 76t31 71.5t21.5 53.5l8 20.5q2 6 4 8t4 2h44q4 0 6 -2.5t1 -7.5q-2 -11 -14.5 -42.5t-33 -76.5t-46.5 -95t-56 -97z" />
    <glyph glyph-name="Y" unicode="Y" horiz-adv-x="473" 
d="M278 307q-6 -8 -8.5 -22.5t-2.5 -25.5v-253q0 -3 -2 -4.5t-4 -1.5h-45q-6 0 -6 6v251q0 16 -5 33t-12 27q-10 13 -22.5 31t-24.5 37t-22 35.5t-15 27.5q-28 53 -48 99.5t-31 78t-13 37.5q-1 5 1.5 7.5t6.5 2.5h42q5 0 9 -10q2 -7 13.5 -36.5t30 -70t38.5 -81.5
q13 -27 30 -55.5t39 -57.5q5 -8 9 -9.5t11 7.5q13 16 26 36.5t25.5 42t20.5 37.5q20 40 37 80.5t28 70t13 36.5q2 6 4 8t5 2h43q4 0 6 -2.5t0 -7.5q-1 -6 -11 -36.5t-28.5 -75.5t-46.5 -97q-6 -13 -17 -31.5t-23.5 -39.5t-25.5 -41t-25 -35z" />
    <glyph glyph-name="Z" unicode="Z" horiz-adv-x="442" 
d="M400 673q4 0 5 -2t1 -8v-28q0 -10 -8 -23.5t-18 -24.5q-30 -34 -66.5 -85t-73 -110.5t-69 -121.5t-56.5 -120t-36 -104h344q4 0 5.5 -1.5t1.5 -4.5v-33q0 -5 -1.5 -6t-5.5 -1h-388q-8 0 -10.5 5t-1.5 13q0 41 18 94.5t48 114t65.5 121t71 115.5t66 97t49.5 66h-303
q-5 0 -6 2t-1 5v33q0 4 1 5.5t6 1.5h362z" />
    <glyph glyph-name="bracketleft" unicode="[" horiz-adv-x="345" 
d="M254 -108q0 -7 -4 -7h-189q-4 0 -5.5 2t-1.5 5v851q0 6 7 6h187q4 0 5 -0.5t1 -3.5v-31q0 -3 -1.5 -4t-3.5 -1h-140v-782h140q3 0 4 -1.5t1 -4.5v-29z" />
    <glyph glyph-name="backslash" unicode="\" horiz-adv-x="539" 
d="M460 0q-4 0 -7 2.5t-6 6.5l-407 685q-5 7 -4.5 10.5t5.5 3.5h35q6 0 7.5 -1.5t5.5 -7.5l412 -689q3 -3 2.5 -6.5t-6.5 -3.5h-37z" />
    <glyph glyph-name="bracketright" unicode="]" horiz-adv-x="345" 
d="M96 -115q-6 0 -6 7v29q0 3 2 4.5t4 1.5h140v782h-140q-2 0 -4 1t-2 4v31q0 3 1.5 3.5t5.5 0.5h188q6 0 6 -6v-851q0 -3 -1.5 -5t-4.5 -2h-189z" />
    <glyph glyph-name="asciicircum" unicode="^" horiz-adv-x="551" 
d="M62 418q-5 0 -7 2t0 5l189 276q2 3 4.5 5t8.5 2h39q4 0 6.5 -2t4.5 -5l187 -276q4 -3 2 -5t-7 -2h-42q-2 0 -4 1.5t-5 4.5l-163 242l-163 -242q-2 -3 -4 -4.5t-7 -1.5h-39z" />
    <glyph glyph-name="underscore" unicode="_" horiz-adv-x="551" 
d="M24 -79q-3 0 -4.5 2t-1.5 4v29q0 4 1.5 5t4.5 1h504q3 0 4 -1t1 -4v-31q0 -2 -1 -3.5t-5 -1.5h-503z" />
    <glyph glyph-name="grave" unicode="`" horiz-adv-x="113" 
d="M78 531q-6 0 -11 5l-66 87q-1 2 0 4t2 2h48q4 0 7 -1t4 -5l49 -86q3 -6 -2 -6h-31z" />
    <glyph glyph-name="a" unicode="a" horiz-adv-x="484" 
d="M232 -8q-48 0 -88.5 11t-65 42.5t-24.5 90.5q0 50 16.5 82.5t43.5 50t59 24.5t62 7q32 0 64 -3t50 -7q15 -3 15 22q0 66 -31.5 93t-100.5 27q-40 0 -73.5 -10t-55.5 -25q-4 -3 -7 -2.5t-3 4.5l-5 32q-1 5 0.5 6.5t4.5 3.5q23 17 58.5 26.5t80.5 9.5q64 0 101 -14.5
t55.5 -39.5t25 -57.5t6.5 -68.5q1 -51 0.5 -93.5t-2.5 -83t-6 -83.5q-1 -6 -5.5 -11.5t-19.5 -11.5q-14 -5 -33.5 -9t-40.5 -7t-41.5 -4.5t-39.5 -1.5zM236 33q10 0 28.5 1.5t38.5 5t35 10.5t17 18q4 31 6 74.5t2 80.5q0 21 -15 25q-15 3 -47 7t-71 4q-17 0 -38 -5t-40 -18
t-31 -37t-12 -63q0 -37 16.5 -60t45.5 -33t65 -10z" />
    <glyph glyph-name="b" unicode="b" horiz-adv-x="472" 
d="M230 -6q-50 0 -89.5 9t-47.5 12q-14 5 -20 9t-8.5 12.5t-5.5 26.5q-2 18 -4.5 54.5t-3.5 80.5t-2 84q-2 104 1.5 212.5t11.5 205.5q0 3 2 5.5t7 2.5h38q8 0 8.5 -3.5t-0.5 -8.5q-1 -15 -3 -40.5t-3.5 -54.5t-3 -56t-2 -46.5t-0.5 -25.5q0 -10 4.5 -13.5t12.5 -0.5
q17 5 49 11t64 6q33 0 66 -11t60.5 -38.5t45 -76.5t17.5 -125q0 -121 -52 -176t-142 -55zM228 39q40 0 71.5 17.5t50 59t18.5 112.5q0 64 -13 103t-34.5 60t-45.5 29t-47 8q-14 0 -36.5 -4t-42 -8.5t-27.5 -5.5q-5 -1 -9.5 -5t-5.5 -13q-1 -15 -1.5 -49.5t0.5 -80t2.5 -94
t5.5 -91.5q1 -10 4 -14.5t9 -7.5q16 -5 43 -10.5t58 -5.5z" />
    <glyph glyph-name="c" unicode="c" horiz-adv-x="391" 
d="M235 -6q-59 0 -98 18.5t-60.5 51t-30 76.5t-8.5 95q0 47 9 90t31 78t60 55t96 20q41 0 71 -9t50 -26q5 -4 6 -6t1 -8v-35q0 -6 -3.5 -6t-7.5 3q-18 20 -49.5 29t-63.5 9q-42 0 -70 -17t-44 -46t-23.5 -63.5t-7.5 -68.5q0 -58 14 -102t45.5 -68t84.5 -24q33 0 59 6.5
t48 17.5q8 4 12 -3l12 -25q3 -4 1.5 -6.5t-5.5 -4.5q-23 -16 -56.5 -23.5t-72.5 -7.5z" />
    <glyph glyph-name="d" unicode="d" horiz-adv-x="495" 
d="M47 230q0 76 18 123.5t46.5 73.5t63 36t67.5 10q30 0 57.5 -4t45.5 -8q12 -4 16.5 -3.5t4.5 9.5q0 18 -0.5 44.5t-1.5 56.5t-2.5 58t-2 47t-1.5 22q0 6 2 7.5t5 1.5h42q3 0 5 -1t2 -5q3 -52 5.5 -107.5t3.5 -113t1.5 -115t-1 -113.5t-3.5 -108.5t-6 -100.5q-1 -6 -4 -11
t-16 -11q-26 -11 -66 -19t-83 -8q-41 1 -78 11.5t-61 34.5q-29 28 -44 76.5t-15 116.5zM103 230q0 -66 14 -105.5t39 -57.5q22 -20 56.5 -26.5t70.5 -2t62 16.5q6 3 10 6t4 8q2 26 4 62t2.5 75.5t1.5 76t1 64.5t-1 40q0 10 -4.5 14.5t-10.5 6.5q-25 6 -56 10.5t-53 4.5
q-21 0 -45.5 -7t-46 -26t-35 -58t-13.5 -102z" />
    <glyph glyph-name="e" unicode="e" horiz-adv-x="457" 
d="M42 237q0 47 9 90t31 77t60 54t96 20q61 0 97 -18t54.5 -47.5t24.5 -65.5t6 -72t-7 -44t-20 -8h-285q-2 0 -6 -2t-4 -11q1 -50 16 -89t47.5 -60.5t84.5 -21.5q34 0 71.5 8t64.5 22q7 4 11.5 4.5t7.5 -6.5l10 -20q3 -4 1.5 -6.5t-5.5 -5.5q-32 -20 -76.5 -30.5
t-91.5 -10.5q-60 0 -98.5 19t-60 52t-30 77t-8.5 95zM363 284q0 38 -9.5 71.5t-36.5 55t-80 21.5q-38 0 -64.5 -14.5t-42 -37.5t-22.5 -49.5t-9 -50.5q-1 -9 0.5 -12.5t10.5 -3.5h235q10 0 14.5 3.5t3.5 16.5z" />
    <glyph glyph-name="f" unicode="f" horiz-adv-x="332" 
d="M107 5q-3 37 -6 86t-4 104.5t-2 112.5t-1 110q0 9 -8 9h-62q-4 0 -5.5 2t-1.5 4v32q0 3 1.5 5t5.5 2h62q5 0 6.5 1.5t1.5 7.5q-1 46 3 88.5t28 78.5q22 32 62 48t97 16q28 0 52.5 -8.5t32.5 -13.5q5 -2 6 -4.5t0 -5.5l-7 -25q-1 -3 -2.5 -4t-4.5 1q-11 6 -30.5 10.5
t-47.5 4.5q-48 0 -77.5 -15t-41.5 -52q-10 -28 -12.5 -58t-1.5 -61q0 -4 2 -6.5t6 -2.5h157q3 0 4.5 -1.5t1.5 -5.5v-32q0 -2 -2 -4t-5 -2h-155q-4 0 -6.5 -2t-2.5 -7q0 -45 0.5 -102t2.5 -116t4 -109.5t4 -85.5q0 -3 -0.5 -4.5t-3.5 -1.5h-44q-2 0 -4 1.5t-2 4.5z" />
    <glyph glyph-name="g" unicode="g" horiz-adv-x="486" 
d="M42 242q1 66 18.5 119.5t61.5 85t123 31.5q38 0 76.5 -6t66.5 -18q13 -4 18 -13.5t6 -29.5q9 -70 11 -171t-12 -214q-10 -85 -59 -124t-137 -39q-35 0 -75 9t-72 33q-5 5 -6.5 7.5t0.5 5.5q3 5 7 12t7 12q2 4 5.5 4.5t6.5 -2.5q17 -9 37.5 -18t44 -14.5t47.5 -5.5
q32 0 60.5 11.5t49 36.5t27.5 66q0 2 0.5 3.5t0.5 3.5q1 7 -4 7.5t-14 -1.5q-22 -6 -49.5 -11.5t-54.5 -5.5q-65 0 -107.5 28t-63.5 78.5t-20 119.5zM99 247q0 -54 13 -95.5t44.5 -65t85.5 -23.5q25 0 49 3.5t43 10.5q27 10 29 28q2 30 2.5 69t-0.5 79.5t-2.5 75.5t-4.5 59
q0 8 -3.5 17.5t-15.5 15.5q-13 6 -40 10t-54 4q-54 0 -86 -24t-46 -66t-14 -98z" />
    <glyph glyph-name="h" unicode="h" horiz-adv-x="461" 
d="M56 6v348v348q0 6 6 6h22h22q6 0 6 -6v-118v-118q0 -6 2.5 -8.5t8.5 -0.5q25 7 54 13.5t60 6.5q35 0 66 -11t55 -38t37.5 -74.5t13.5 -119.5q1 -38 -1 -78.5t-4.5 -79t-5.5 -70.5q0 -4 -2.5 -5t-8.5 -1h-17.5h-16.5q-7 0 -8.5 2t-0.5 9q5 48 7 103.5t2 107.5
q1 63 -9.5 103.5t-28 63.5t-40 32t-46.5 9q-21 0 -48.5 -4.5t-51.5 -11.5q-7 -1 -12 -6t-5 -18v-384q0 -6 -6 -6h-44q-6 0 -6 6z" />
    <glyph glyph-name="i" unicode="i" horiz-adv-x="199" 
d="M133 603q0 -16 -5.5 -23.5t-26.5 -7.5q-20 0 -27 7.5t-7 23.5q0 14 7 22t27 8q22 0 27 -8t5 -22zM129 6q0 -6 -5 -6h-45q-6 0 -6 6v460q0 6 6 6h45q5 0 5 -6v-460z" />
    <glyph glyph-name="j" unicode="j" horiz-adv-x="191" 
d="M-95 -69l11 21q3 4 5 4.5t6 -2.5q30 -12 61 -12q53 1 71 30.5t18 86.5v407q0 6 5 6h44q6 0 6 -6v-407q0 -76 -27.5 -117.5t-105.5 -41.5q-19 0 -39.5 3t-36.5 8q-6 3 -14 8t-4 12zM137 603q0 -16 -6 -23.5t-27 -7.5q-20 0 -26.5 7.5t-6.5 23.5q0 14 6.5 22t26.5 8
q22 0 27.5 -8t5.5 -22z" />
    <glyph glyph-name="k" unicode="k" horiz-adv-x="429" 
d="M72 4v694q0 4 4 4h48q4 0 4 -4v-409q0 -2 0.5 -4.5t4.5 -2.5q16 0 32 0.5t31 0.5q10 2 14.5 4t11.5 10q21 24 38.5 53t32 59t24.5 55q3 6 5 7t8 1h44q4 0 5.5 -2t-0.5 -6q-1 -1 -9.5 -19.5t-23 -47.5t-34 -61t-40.5 -59q-4 -4 -7 -7.5t-6 -7.5q2 -1 4.5 -3t3.5 -4
q17 -18 35 -47.5t35.5 -63.5t31.5 -64t22.5 -50t9.5 -22q4 -8 -3 -8h-10h-15h-14.5h-9.5q-4 0 -5 0.5t-4 6.5l-7 16t-18.5 41.5t-26 54t-30 55t-30.5 44.5q-6 8 -14.5 12.5t-27 6.5t-53.5 1q-5 -1 -5 -9v-225q0 -4 -4 -4h-48q-4 0 -4 4z" />
    <glyph glyph-name="l" unicode="l" horiz-adv-x="200" 
d="M72 6v696q0 6 6 6h43q7 0 7 -6v-696q0 -6 -7 -6h-43q-6 0 -6 6z" />
    <glyph glyph-name="m" unicode="m" horiz-adv-x="750" 
d="M79 0q-7 0 -7 6v415q0 13 4.5 19t13.5 10q12 5 33.5 11t47.5 10.5t49 4.5q59 0 94.5 -19t56.5 -51q13 22 34.5 37.5t47.5 24t50 8.5q73 0 112.5 -29.5t55.5 -80.5t16 -114q0 -51 -2 -99t-4.5 -85.5t-4.5 -59.5q0 -5 -2 -6.5t-5 -1.5h-40q-5 0 -6.5 2t-1.5 7q2 15 3.5 55
t3.5 91.5t2 100.5q0 31 -6.5 62t-21 56t-38.5 40t-60 15q-42 0 -69.5 -24t-27.5 -65q0 -56 0.5 -99t0.5 -80t-0.5 -73.5t-0.5 -78.5q0 -9 -9 -9h-39q-8 0 -8 8v245q0 53 -12 92.5t-40 61.5t-78 22q-21 0 -40.5 -4.5t-35.5 -10.5q-18 -6 -18 -24v-383q0 -7 -6 -7h-42z" />
    <glyph glyph-name="n" unicode="n" 
d="M79 0q-7 0 -7 6v214v214q0 6 3.5 10t15.5 8q14 4 39 10t54.5 11t54.5 5q75 0 116 -30t56.5 -81t15.5 -114q0 -48 -2 -96t-4 -87t-4 -60q-1 -7 -3 -8.5t-9 -1.5h-33q-7 0 -9 2t-1 8q0 7 1.5 32.5t3.5 61.5t3 76t1 76q0 55 -13.5 93.5t-43 58.5t-76.5 20q-24 0 -48.5 -4.5
t-44.5 -12.5q-6 -1 -12 -6t-6 -17v-124v-128.5v-129.5q0 -6 -5 -6h-43z" />
    <glyph glyph-name="o" unicode="o" 
d="M245 -6q-80 0 -124 31t-61.5 86t-17.5 126q0 70 19 124.5t63.5 85.5t120.5 31q77 0 121 -31t63 -85.5t19 -124.5q0 -71 -17.5 -126t-61 -86t-124.5 -31zM245 40q81 0 114 51.5t33 144.5t-35.5 143.5t-111.5 50.5t-111.5 -50.5t-35.5 -143.5q0 -94 33 -145t114 -51z" />
    <glyph glyph-name="p" unicode="p" horiz-adv-x="493" 
d="M76 -107q-2 66 -3.5 142t-0.5 163q1 39 1.5 80t2.5 81.5t5 76.5q1 6 4 11t14 9q34 11 74 17.5t87 6.5q95 0 141.5 -56.5t46.5 -178.5q0 -47 -9.5 -91t-31 -78t-56 -55t-82.5 -24q-18 -2 -42.5 -1.5t-47 3.5t-35.5 7q-6 2 -9.5 1.5t-3.5 -5.5q0 -8 -0.5 -25t0 -38t0.5 -42
q1 -4 0.5 -8t-8.5 -4h-39q-4 0 -6 3t-2 5zM129 75q0 -9 6 -12.5t11 -5.5q24 -7 53.5 -10.5t51.5 -3.5t47 8.5t46 29.5t34.5 61t13.5 104q0 106 -36.5 148t-98.5 42q-28 0 -56 -5t-50 -13q-6 -3 -11 -6t-5 -8q-1 -26 -2.5 -63t-2.5 -78t-1.5 -79.5t-0.5 -67.5t1 -41z" />
    <glyph glyph-name="q" unicode="q" horiz-adv-x="474" 
d="M204 -3q-30 3 -60.5 15.5t-55 40.5t-39 75t-11.5 117q5 122 55 178.5t145 56.5q48 0 86.5 -6.5t73.5 -17.5q11 -4 13.5 -9t3.5 -11q1 -32 1.5 -74t-0.5 -90t-3.5 -99.5t-4.5 -101.5t-5.5 -95.5t-6.5 -82.5q0 -2 -2 -5t-6 -3h-39q-8 0 -8 4v8q2 21 3 42t1.5 38t0.5 25
q0 5 -4 5.5t-10 -1.5q-25 -6 -59 -9t-69 0zM94 246q-2 -64 10 -104t32 -61t44.5 -29t45.5 -8q22 0 53.5 3.5t56.5 9.5q6 2 10.5 5.5t4.5 12.5q1 12 2.5 41t2.5 67.5t1.5 79.5t1 78t-0.5 63q2 5 -2.5 8t-11.5 6q-21 8 -49 13t-56 5q-63 0 -101.5 -42t-43.5 -148z" />
    <glyph glyph-name="r" unicode="r" horiz-adv-x="324" 
d="M213 477q57 0 97 -15q4 -1 6.5 -3t1.5 -6l-8 -31q-1 -4 -3.5 -5t-6.5 1q-17 5 -38 8t-42 3q-16 0 -34.5 -3.5t-34.5 -7t-23 -7.5q-5 -3 -11 -7.5t-6 -18.5v-377q0 -5 -1.5 -6.5t-5.5 -1.5h-42q-3 0 -4.5 1.5t-1.5 5.5v412q0 14 4 19t12 9q29 14 68.5 22t72.5 8z" />
    <glyph glyph-name="s" unicode="s" horiz-adv-x="390" 
d="M41 73q1 4 3.5 4t5.5 -3q16 -10 40.5 -17.5t49.5 -11.5t43 -4q31 0 58 10t44 32.5t17 57.5q0 41 -29.5 57.5t-93.5 23.5q-39 5 -71.5 17t-51.5 36.5t-19 65.5q0 45 23.5 74.5t62 45.5t82.5 16q35 0 75.5 -9.5t62.5 -26.5q3 -2 3.5 -3.5t-0.5 -5.5l-10 -32q-2 -6 -10 -1
q-18 14 -53.5 23.5t-67.5 9.5q-52 0 -82.5 -26t-30.5 -62q0 -38 30.5 -54t83.5 -22q34 -4 61.5 -11.5t47 -20.5t30 -35.5t10.5 -55.5q0 -43 -15.5 -71.5t-42 -46t-57.5 -25t-62 -7.5q-15 0 -41 4t-52.5 12t-44.5 19q-4 2 -5 3.5t0 5.5z" />
    <glyph glyph-name="t" unicode="t" horiz-adv-x="318" 
d="M220 0q-61 0 -90 26t-38 73q-9 43 -9 90v97q0 35 1 68t3 67q0 9 -9 9h-53q-2 0 -4 2t-2 5v28q0 3 2 5t5 2h53q5 0 7 2t2 8l5 88q0 6 5 6h43q3 0 5 -1.5t2 -4.5l-5 -87q-1 -6 1 -8.5t7 -2.5h126q4 0 5 -1.5t1 -5.5v-28q0 -2 -1.5 -4.5t-5.5 -2.5h-126q-3 0 -5.5 -2
t-2.5 -8q-1 -34 -2.5 -69t-1.5 -71q0 -41 0.5 -85.5t9.5 -86.5q7 -31 24.5 -47t57.5 -16q15 0 30 3.5t29 8.5q6 4 8 3t4 -6l8 -26q3 -4 0 -7t-11 -7q-11 -4 -26.5 -7.5t-30 -5t-21.5 -1.5z" />
    <glyph glyph-name="u" unicode="u" 
d="M251 -4q-75 0 -115.5 30t-56.5 81t-16 113q0 48 2 95.5t4 86.5t3 60q1 7 4 8.5t10 1.5h32q7 0 9 -1t1 -9q0 -7 -1.5 -32t-3 -60.5t-2.5 -76t-1 -77.5q0 -79 30.5 -125.5t100.5 -46.5q8 0 26.5 1.5t38.5 6t33.5 12t13.5 18.5v383q0 3 1 5t3 2h45q2 0 4 -1t2 -5v-418
q0 -12 -6 -17t-24 -12q-8 -3 -31 -8.5t-52 -10t-54 -4.5z" />
    <glyph glyph-name="v" unicode="v" horiz-adv-x="396" 
d="M178 0q-7 0 -10 6q-23 43 -42 90t-35 94q-27 80 -44 150t-25 120q-2 12 6 12h44q3 0 6 -2t4 -7q4 -35 15.5 -85.5t27.5 -105.5q17 -63 36.5 -116t34.5 -80q2 -5 5.5 -4.5t4.5 4.5q14 23 30 68t32 101q17 61 30.5 121.5t17.5 98.5q1 7 8 7h45q6 0 5 -7q-7 -51 -23 -120
t-41 -145q-16 -48 -36.5 -98t-44.5 -96q-2 -6 -8 -6h-43z" />
    <glyph glyph-name="w" unicode="w" horiz-adv-x="619" 
d="M166 8q-29 57 -53 119.5t-42 124t-30 115t-18 91.5q-2 8 0 11t5 3h44q9 0 10 -9q4 -30 13.5 -73.5t22.5 -90.5t27 -91.5t27.5 -79.5t24.5 -53q2 -5 5 -4.5t4 3.5q14 21 26.5 55t22 71.5t15.5 70t6 49.5v31t-0.5 42t-0.5 41v29q0 9 7 9h43q3 0 6 -1.5t3 -7.5
q0 -21 1 -56.5t1 -89.5q1 -15 7.5 -40.5t16.5 -56t21 -60.5t21 -53t16 -33q4 -8 10 0q11 19 24.5 54.5t27 79.5t25.5 91t21 90t13 74q2 9 12 9h40q4 0 5.5 -3t0.5 -10q-5 -40 -18.5 -95.5t-32 -118.5t-42 -124.5t-50.5 -112.5q-2 -5 -4.5 -6.5t-5.5 -1.5h-43q-4 0 -6.5 1.5
t-4.5 5.5q-14 26 -28.5 59t-26 65t-18.5 55q-5 17 -14 0q-5 -19 -12.5 -40t-16 -41.5t-16.5 -40.5q-7 -14 -14.5 -29.5t-13.5 -27.5q-1 -4 -4 -5.5t-7 -1.5h-41q-5 0 -7 1.5t-5 6.5z" />
    <glyph glyph-name="x" unicode="x" horiz-adv-x="385" 
d="M20 0q-3 0 -4.5 2t-1 5t0.5 6q1 3 9 25t23 55t35 71t44 73q4 5 3.5 10t-4.5 10q-23 32 -41 68t-30.5 68t-19.5 52.5l-7 20.5q-1 6 4 6h47q3 0 5 -1t4 -8q0 -2 8 -25t21 -54.5t29.5 -62.5t34.5 -49h14h14q19 18 35 49t29 62t20.5 54t8.5 26q2 6 4 7.5t7 1.5h38q3 0 5.5 -1
t1.5 -7q-1 -2 -7.5 -23t-19 -52t-30 -66t-40.5 -67q-7 -7 1 -18q25 -35 44.5 -72.5t33.5 -71t22.5 -55.5t9.5 -27q1 -6 0 -9t-5 -3h-41q-4 0 -6.5 1.5t-4.5 7.5q-3 8 -12 33.5t-23.5 59t-32.5 65.5t-38 54h-10h-8h-10q-22 -25 -40.5 -61t-33 -70.5t-23 -57.5l-8.5 -23
q-2 -6 -4 -7.5t-6 -1.5h-45z" />
    <glyph glyph-name="y" unicode="y" horiz-adv-x="408" 
d="M168 59q-25 34 -47.5 84.5t-41 108t-31.5 113t-19 97.5q-2 10 7 10h42q4 0 7.5 -2t4.5 -10q2 -27 10.5 -66t20.5 -81.5t26 -83t28 -72t27 -48.5q4 -7 8 -6.5t5 3.5q14 24 31 67.5t33 95.5t28 103t16 90q0 7 3.5 8.5t8.5 1.5h38q5 0 7.5 -1.5t0.5 -8.5q-4 -35 -11.5 -69
t-16.5 -67.5t-21 -68.5q-11 -36 -28 -85t-41.5 -100.5t-56.5 -96.5t-74.5 -72.5t-96.5 -27.5q-13 0 -24 1.5t-21 3.5q-10 4 -7 11l11 27q2 3 4.5 3.5t7.5 -0.5q27 -4 58 6t54 30q19 16 29.5 28.5t21.5 31.5q5 8 5.5 19.5t-6.5 22.5z" />
    <glyph glyph-name="z" unicode="z" horiz-adv-x="352" 
d="M25 13q8 63 38.5 125.5t69.5 127.5q28 45 55.5 83.5t51.5 65.5q4 5 4 7.5t-6 3.5h-186q-2 0 -4 1.5t-2 4.5v33q0 5 2 6t5 1h263q6 0 6.5 -1.5t0.5 -7.5v-26q0 -4 -4 -11.5t-10 -11.5q-23 -22 -48.5 -53.5t-48.5 -66t-42 -65.5q-28 -51 -51 -94.5t-32 -74.5q-1 -4 0 -9.5
t8 -5.5h221q3 0 4.5 -1t1.5 -5v-33q0 -4 -2 -5t-6 -1h-280q-4 0 -6.5 2.5t-2.5 10.5z" />
    <glyph glyph-name="braceleft" unicode="{" horiz-adv-x="416" 
d="M325 -106q0 -4 -1.5 -7t-7.5 -3h-54q-45 0 -67 17.5t-28 42.5t-6 50v192q0 28 -11 51.5t-29 37.5q-9 8 -23 15t-36 7q-6 0 -7 4t-1 8v35q0 3 2.5 5.5t7.5 2.5q44 0 70.5 31t26.5 78v177q0 24 6 49.5t28 42.5t67 17h57q4 0 5 -1.5t1 -4.5v-30q0 -2 -1 -3t-5 -1h-46
q-37 0 -46.5 -19.5t-9.5 -49.5v-177q0 -30 -11 -57t-30.5 -47t-46.5 -30q-4 -1 -4.5 -3t1.5 -3q4 -1 12.5 -6t14.5 -9q30 -18 47 -51t17 -69v-192q0 -29 9.5 -48.5t46.5 -19.5h43q5 0 7 -2t2 -7v-23z" />
    <glyph glyph-name="bar" unicode="|" horiz-adv-x="273" 
d="M159 708q4 0 5 -2t1 -6v-809q0 -3 -1.5 -5t-4.5 -2h-44q-3 0 -5 2t-2 8v807q0 3 1.5 5t5.5 2h44z" />
    <glyph glyph-name="braceright" unicode="}" horiz-adv-x="416" 
d="M90 -106v23q0 5 2 7t8 2h43q37 0 46 19.5t9 48.5v192q0 36 17.5 69t46.5 51q7 4 15.5 9t12.5 6q2 1 1 3t-4 3q-27 10 -47.5 30t-31 47t-10.5 57v177q0 30 -9 49.5t-46 19.5h-47q-4 0 -5 1t-1 3v30q0 3 1 4.5t5 1.5h58q46 0 66.5 -17t27 -42.5t6.5 -49.5v-177
q0 -47 26.5 -78t71.5 -31q4 0 6.5 -2.5t2.5 -5.5v-35q0 -4 -0.5 -8t-6.5 -4q-23 0 -36.5 -7t-22.5 -15q-19 -14 -30 -37.5t-11 -51.5v-192q0 -25 -6.5 -50t-27 -42.5t-66.5 -17.5h-54q-6 0 -8 3t-2 7z" />
    <glyph glyph-name="asciitilde" unicode="~" 
d="M432 601q-20 -19 -45 -35t-60 -16q-25 0 -47 9t-42 20.5t-38.5 20.5t-38.5 9q-13 0 -28 -9.5t-28.5 -22.5t-20.5 -24q-2 -4 -4 -3t-5 3l-19 19q-2 2 -1.5 4t1.5 5q9 14 25 30.5t36 28t42 11.5t42.5 -8t40 -19t38.5 -19.5t38 -9.5q12 -1 28 4t31.5 14t26.5 19q2 2 3.5 3
t5.5 -2l21 -21q3 -3 2 -5.5t-4 -5.5z" />
    <glyph glyph-name="uni00A0" unicode="&#xa0;" horiz-adv-x="245" 
 />
    <glyph glyph-name="exclamdown" unicode="&#xa1;" horiz-adv-x="230" 
d="M133 249q3 0 3.5 -1t0.5 -5l7 -432q0 -2 -1 -4t-4 -2h-50q-6 0 -6 6l7 432q1 4 2.5 5t5.5 1h35zM83 455q0 14 6.5 22t26.5 8q19 0 26 -8t7 -22q0 -15 -7 -22.5t-26 -7.5q-20 0 -26.5 7.5t-6.5 22.5z" />
    <glyph glyph-name="cent" unicode="&#xa2;" horiz-adv-x="475" 
d="M269 73q-59 0 -98 18.5t-60.5 51.5t-30 77t-8.5 95q0 48 9 91.5t31 78.5t60 55t96 20q41 0 71 -8.5t50 -25.5q5 -5 6 -7t1 -8v-34q0 -6 -3.5 -6t-7.5 3q-18 19 -49.5 28.5t-63.5 9.5q-42 0 -70 -17.5t-44 -47t-23.5 -64t-7.5 -69.5q0 -59 14 -102.5t45.5 -68t84.5 -24.5
q33 0 59 6.5t48 16.5q8 5 12 -2l12 -26q2 -4 1 -6t-5 -4q-23 -16 -56.5 -23.5t-72.5 -7.5zM296 99v-196q0 -3 -1.5 -5t-5.5 -2h-43q-4 0 -5.5 2t-1.5 8v193h57zM239 529v172q0 3 1.5 5t5.5 2h43q4 0 5.5 -2t1.5 -6v-171h-57z" />
    <glyph glyph-name="sterling" unicode="&#xa3;" horiz-adv-x="523" 
d="M352 -13q-36 0 -70.5 10.5t-72.5 18.5q-25 6 -50 8.5t-49 -4.5q-12 -2 -27 -5t-28 -7q-5 -1 -7.5 0t-2.5 6v16.5v17.5q0 4 2 7t6 6q48 19 74 51t34.5 73t2.5 86h-48h-47q-4 0 -6.5 1.5t-2.5 4.5v14.5v15.5q0 5 2 6t4 1h45h43q-24 68 -37 120t-13 85q0 39 19.5 75t59 58.5
t97.5 22.5q15 0 35 -3t40 -8t35 -11q4 -1 5 -5t1 -7v-16.5v-16.5q0 -5 -1.5 -5.5t-8.5 2.5q-22 8 -52 15.5t-51 7.5q-42 0 -69.5 -15.5t-40 -40.5t-12.5 -53q0 -34 12.5 -83.5t36.5 -121.5h61h61q3 0 4 -1.5t1 -5.5v-15v-15q0 -3 -1.5 -4.5t-4.5 -1.5h-57.5h-56.5
q1 -6 1.5 -11.5t0.5 -11.5q3 -50 -10.5 -96t-48.5 -83q36 -1 67.5 -9.5t62.5 -17t63 -8.5q27 0 51 7t38 14q9 3 9 -4v-28q0 -7 -1.5 -10t-3.5 -4q-17 -11 -40.5 -16.5t-53.5 -5.5z" />
    <glyph glyph-name="currency" unicode="&#xa4;" horiz-adv-x="529" 
d="M97 150l-23 23q-2 3 -2 4.5t2 3.5l83 83q-10 15 -16.5 33t-6.5 39q0 20 6 38.5t18 34.5l-73 71q-2 2 -1.5 4.5t2.5 3.5l24 24q2 2 3.5 1.5l4.5 -1.5l71 -72q16 11 34.5 17.5t39.5 6.5q42 0 76 -25l72 73l4.5 1.5t4.5 -1.5l23 -24q2 -1 2.5 -3.5t-1.5 -4.5l-74 -73
q11 -15 17 -33.5t6 -37.5q0 -40 -23 -72l85 -83q3 -2 2.5 -3.5t-3.5 -4.5l-23 -23q-2 -2 -4 -2t-4 2l-85 82q-33 -23 -75 -23q-41 0 -73 23l-84 -82q-2 -2 -4 -2t-5 2zM176 336q0 -38 24.5 -62.5t62.5 -24.5t62.5 24.5t24.5 62.5q0 37 -24.5 61.5t-62.5 24.5t-62.5 -24.5
t-24.5 -61.5z" />
    <glyph glyph-name="yen" unicode="&#xa5;" horiz-adv-x="520" 
d="M302 307q-6 -8 -8.5 -22.5t-2.5 -25.5v-253q0 -3 -2 -4.5t-4 -1.5h-45q-6 0 -6 6v251q0 16 -5 33t-12 27q-11 13 -23 31t-24 37t-22 35.5t-15 27.5q-28 53 -48 99.5t-31 78t-13 37.5q-1 5 1 7.5t7 2.5h42q5 0 8 -10q2 -7 14 -36.5t30.5 -70t38.5 -81.5q12 -27 29.5 -55.5
t38.5 -57.5q6 -8 10 -9.5t11 7.5q12 16 25.5 36.5t26 42t20.5 37.5q20 40 37 80.5t28 70t13 36.5q2 6 4 8t5 2h43q3 0 5.5 -2.5t0.5 -7.5q-1 -6 -11 -36.5t-28.5 -75.5t-46.5 -97q-6 -13 -17 -31.5t-23.5 -39.5t-25.5 -41t-25 -35zM89 250q-3 0 -4 2t-1 4v27q0 3 1 4.5
t5 1.5h340q4 0 5 -1.5t1 -4.5v-28q0 -2 -1 -3.5t-5 -1.5h-341zM89 154q-3 0 -4 1.5t-1 4.5v26q0 4 1 5t5 1h340q4 0 5 -1t1 -5v-27q0 -2 -1 -3.5t-5 -1.5h-341z" />
    <glyph glyph-name="brokenbar" unicode="&#xa6;" horiz-adv-x="273" 
d="M165 276v-385q0 -3 -1.5 -5t-4.5 -2h-44q-3 0 -5 2t-2 8v382h57zM108 371v330q0 3 1.5 5t5.5 2h44q4 0 5 -2t1 -6v-329h-57z" />
    <glyph glyph-name="section" unicode="&#xa7;" horiz-adv-x="493" 
d="M71 -199v35q0 4 2.5 3.5t5.5 -1.5q18 -7 39.5 -12t42.5 -8.5t37 -3.5q67 0 101 36.5t34 98.5q0 45 -17 69t-44.5 37.5t-58.5 21.5q-26 7 -54 16t-52 25t-38 44.5t-14 74.5q0 54 26.5 93t69 59.5t91.5 20.5q12 0 34 -3t46.5 -8.5t41.5 -12.5q4 -2 6 -4.5t2 -6.5v-32
q0 -11 -14 -5q-12 5 -34 11t-44 10t-35 4q-38 0 -70.5 -14.5t-52 -42t-19.5 -63.5q1 -35 13 -56t31 -33.5t42.5 -20t47.5 -13.5q27 -8 53.5 -18.5t48 -28t34 -46.5t12.5 -76q0 -57 -22 -97t-64 -61.5t-100 -21.5q-26 0 -59.5 6t-62.5 16q-3 1 -4.5 2.5t-1.5 5.5zM178 99v34
q0 3 6 3t13 -1t8 -2q21 -10 49 -16t55 -5q55 0 88.5 29.5t33.5 98.5q0 39 -16.5 60t-44 33t-58.5 20q-26 7 -53.5 15.5t-51 24.5t-37 44.5t-13.5 73.5q0 53 24 86.5t64 49.5t87 16q12 0 33.5 -2.5t45 -7.5t40.5 -12q3 -2 5.5 -4t2.5 -5v-30q0 -9 -13 -4q-14 6 -36 12
t-42.5 9t-33.5 3q-55 0 -91 -28t-36 -80q0 -33 12 -54t31.5 -32.5t43.5 -19.5t47 -14q36 -10 68 -25t52.5 -44t20.5 -82q0 -63 -22.5 -101t-60.5 -54.5t-87 -16.5q-33 0 -62 4.5t-65 15.5q-3 1 -5 3t-2 5z" />
    <glyph glyph-name="dieresis" unicode="&#xa8;" horiz-adv-x="208" 
d="M71 573q0 -14 -6.5 -21.5t-27.5 -7.5q-19 0 -26 7.5t-7 21.5q0 16 7 23t26 7q21 0 27.5 -7t6.5 -23zM204 573q0 -14 -6 -21.5t-27 -7.5q-19 0 -26.5 7.5t-7.5 21.5q0 16 7.5 23t26.5 7q21 0 27 -7t6 -23z" />
    <glyph glyph-name="copyright" unicode="&#xa9;" horiz-adv-x="868" 
d="M72 333q0 73 28 137t77.5 113t115.5 77t141 28q76 0 141 -28t115 -77t78 -113t28 -137q0 -74 -28 -138.5t-78 -114t-115 -77.5t-141 -28q-75 0 -141 28t-115.5 77.5t-77.5 114t-28 138.5zM120 333q0 -64 24.5 -121.5t67.5 -100.5t100 -67.5t122 -24.5t122 24.5t100 67.5
t67.5 100.5t24.5 121.5t-24.5 120.5t-67.5 99.5t-100 67t-122 24q-64 0 -121 -24t-100.5 -67t-68 -99.5t-24.5 -120.5zM260 338q0 65 26 107.5t70.5 63.5t99.5 21q20 0 43 -3t45 -8q4 0 6.5 -1.5t2.5 -5.5v-28q0 -4 -10 0q-20 5 -40.5 8.5t-39.5 3.5q-44 0 -78.5 -16.5
t-54.5 -51t-20 -89.5q0 -61 22.5 -104t66 -62t103.5 -7q12 2 24 6t19 7t9 2t2 -4v-23q0 -5 -2 -6.5t-6 -3.5q-7 -3 -20 -6t-25 -5q-71 -14 -126 7t-86 72t-31 126z" />
    <glyph glyph-name="ordfeminine" unicode="&#xaa;" horiz-adv-x="484" 
d="M232 -8q-48 0 -88.5 11t-65 42.5t-24.5 90.5q0 50 16.5 82.5t43.5 50t59 24.5t62 7q32 0 64 -3t50 -7q15 -3 15 22q0 66 -31.5 93t-100.5 27q-40 0 -73.5 -10t-55.5 -25q-4 -3 -7 -2.5t-3 4.5l-5 32q-1 5 0.5 6.5t4.5 3.5q23 17 58.5 26.5t80.5 9.5q64 0 101 -14.5
t55.5 -39.5t25 -57.5t6.5 -68.5q1 -51 0.5 -93.5t-2.5 -83t-6 -83.5q-1 -6 -5.5 -11.5t-19.5 -11.5q-14 -5 -33.5 -9t-40.5 -7t-41.5 -4.5t-39.5 -1.5zM236 33q10 0 28.5 1.5t38.5 5t35 10.5t17 18q4 31 6 74.5t2 80.5q0 21 -15 25q-15 3 -47 7t-71 4q-17 0 -38 -5t-40 -18
t-31 -37t-12 -63q0 -37 16.5 -60t45.5 -33t65 -10z" />
    <glyph glyph-name="guillemotleft" unicode="&#xab;" horiz-adv-x="564" 
d="M418 166q-4 0 -8 3q-36 40 -71 79.5t-71 78.5q-9 10 0 19q36 39 71 78.5t71 78.5q3 3 5 3.5t3 0.5h27h24t5 -2.5t-3 -4.5q-1 -1 -16 -18t-37 -41t-42.5 -48.5t-35 -40.5l-14.5 -16l14.5 -16t35 -40t42.5 -48t37 -41t16 -18q2 -1 3 -4t-5 -3h-24h-27zM209 166q-4 0 -8 3
q-36 40 -71 79.5t-71 78.5q-9 10 0 19q36 39 71 78.5t71 78.5q3 3 5 3.5t3 0.5h27h24t5 -2.5t-3 -4.5q-1 -1 -16 -18t-37 -41t-42.5 -48.5t-35 -40.5l-14.5 -16l14.5 -16t35 -40t42.5 -48t37 -41t16 -18q2 -1 3 -4t-5 -3h-24h-27z" />
    <glyph glyph-name="logicalnot" unicode="&#xac;" horiz-adv-x="656" 
d="M571 103q-3 0 -4.5 1t-1.5 5v178h-509q-4 0 -5 1.5t-1 4.5v30q0 3 1.5 4.5t5.5 1.5h543q3 0 4.5 -1.5t1.5 -4.5v-215q0 -3 -1.5 -4t-4.5 -1h-29z" />
    <glyph glyph-name="uni00AD" unicode="&#xad;" horiz-adv-x="416" 
d="M78 256q-4 0 -5 2t-1 4v33q0 4 1 5t5 1h261q3 0 4 -1t1 -5v-33q0 -3 -1 -4.5t-4 -1.5h-261z" />
    <glyph glyph-name="registered" unicode="&#xae;" horiz-adv-x="721" 
d="M361 188q-56 0 -105 20t-86.5 55t-58.5 81.5t-21 99.5q0 54 21 100t58.5 81t86.5 55t105 20q75 0 136 -34.5t97.5 -92t36.5 -129.5q0 -53 -21 -99.5t-58.5 -81.5t-86 -55t-104.5 -20zM361 223q65 0 117 30.5t83.5 80.5t31.5 110q0 61 -31.5 111t-83.5 79.5t-117 29.5
q-64 0 -117 -29.5t-84.5 -79.5t-31.5 -111q0 -60 31.5 -110t84.5 -80.5t117 -30.5zM284 309q-3 0 -3 2v270q0 3 3 3h66q53 0 79 -20t26 -67q0 -28 -15 -48t-42 -27q-5 -2 -6.5 -4.5t0.5 -5.5q7 -18 15.5 -33t20.5 -24q10 -8 24 -12t23 -4q4 0 5 -1t1 -2v-21q0 -2 -1 -2.5
t-5 -0.5q-22 0 -35.5 3.5t-26.5 12.5q-19 14 -34.5 35t-20.5 44q-1 2 -2.5 4t-5.5 2h-32q-4 0 -4 -4v-98q0 -2 -3 -2h-27zM314 442q0 -4 4 -4h38q33 0 49.5 14t16.5 45q0 35 -16 48.5t-56 13.5h-33q-3 0 -3 -4v-113z" />
    <glyph glyph-name="macron" unicode="&#xaf;" horiz-adv-x="208" 
d="M208 548q0 -1 -1 -2t-4 -1h-198q-3 0 -4 1t-1 3v32q0 3 1 4t4 1h198q3 0 4 -0.5t1 -3.5v-34z" />
    <glyph glyph-name="degree" unicode="&#xb0;" horiz-adv-x="402" 
d="M72 697q0 35 17.5 64t47 46.5t64.5 17.5q36 0 65.5 -17.5t46.5 -46.5t17 -64t-17 -64t-46.5 -46t-65.5 -17q-35 0 -64.5 17t-47 46t-17.5 64zM114 697q0 -37 24.5 -62t62.5 -25q37 0 62 25t25 62t-25 61.5t-62 24.5q-38 0 -62.5 -24.5t-24.5 -61.5z" />
    <glyph glyph-name="plusminus" unicode="&#xb1;" horiz-adv-x="440" 
d="M203 149q-4 0 -5.5 1.5t-1.5 4.5v132h-140q-4 0 -5 1.5t-1 3.5v30q0 4 1.5 5t4.5 1h140v132q0 3 1.5 4.5t5.5 1.5h33q2 0 3.5 -1.5t1.5 -4.5v-132h144q2 0 3.5 -1.5t1.5 -4.5v-31q0 -1 -1 -3t-5 -2l-143 1v-132q0 -4 -1.5 -5t-3.5 -1h-33zM57 57q-5 0 -6 1.5t-1 4.5v29
q0 4 1.5 5t5.5 1h326q3 0 5 -1t2 -5v-30q0 -2 -1.5 -3.5t-6.5 -1.5h-325z" />
    <glyph glyph-name="uni00B2" unicode="&#xb2;" horiz-adv-x="336" 
d="M40 250q-3 0 -4.5 1t-1.5 4v28q0 6 5 9q34 23 71.5 51.5t70 62t53 72t20.5 80.5q0 47 -28.5 69.5t-70.5 22.5q-21 0 -41 -5.5t-34.5 -12.5t-22.5 -10q-10 -4 -10 1v31q0 3 1 5t7 5q11 6 41 17t64 11q35 0 67 -13.5t53 -43t21 -76.5q0 -42 -17 -80t-45.5 -71.5t-62 -62
t-67.5 -51.5q-3 -2 -2 -4t2 -2h189q4 0 4 -4v-29q0 -3 -0.5 -4t-4.5 -1h-257z" />
    <glyph glyph-name="uni00B3" unicode="&#xb3;" horiz-adv-x="324" 
d="M143 247q-33 0 -65 12t-51 33q-2 3 -2 5.5t2 4.5l17 21q4 5 9 0q19 -18 41.5 -27t46.5 -9q31 0 52.5 13.5t32.5 33t11 39.5q0 31 -26 59.5t-78 28.5h-6h-7q-6 0 -6 6v27q0 6 6 6h10.5h10.5q41 2 64 26t23 53q0 27 -21 49.5t-63 22.5q-22 0 -47.5 -9t-42.5 -24
q-7 -5 -11 2l-15 25q-1 3 0 5.5t3 3.5q25 19 57.5 28t57.5 9q41 0 69 -15.5t42.5 -40t14.5 -52.5q0 -31 -16.5 -57.5t-47.5 -40.5q-5 -3 -6 -2.5t-1 -1.5q0 -1 2.5 -1.5t6.5 -2.5q34 -14 53 -40t19 -62q0 -32 -16.5 -61.5t-47.5 -48t-75 -18.5z" />
    <glyph glyph-name="acute" unicode="&#xb4;" horiz-adv-x="112" 
d="M5 530q-5 0 -5 2t2 5l52 87q2 5 11 5h44q3 0 4 -1.5t-3 -4.5l-65 -89q-2 -2 -4 -3t-6 -1h-30z" />
    <glyph glyph-name="uni00B5" unicode="&#xb5;" horiz-adv-x="521" 
d="M86 -115q-5 0 -7.5 3t-2.5 9v87.5v86t-1 67.5q-1 22 -2 44.5t-1 37.5q0 48 2 95.5t4 86t3 59.5q1 7 3.5 9t10.5 2h32q7 0 8.5 -2t1.5 -9q-1 -9 -2 -34.5t-3 -62t-3 -79.5t-1 -86q0 -77 31.5 -116t104.5 -39q53 0 80.5 16t27.5 36v369q0 4 1.5 5.5t4.5 1.5h43
q3 0 4.5 -1.5t1.5 -5.5v-360q0 -36 11 -50.5t31 -14.5q10 0 18.5 3.5t14.5 6.5q8 6 12 -2l9 -25q4 -7 -6 -13q-13 -6 -26 -10t-31 -4q-15 0 -31.5 6t-28.5 20t-15 36l20 -6q-26 -28 -63.5 -42t-81.5 -14q-52 0 -93 21.5t-59 67.5l17 7q1 -25 2 -50.5t2 -51.5
q1 -16 1.5 -35.5t1 -35.5t0.5 -23q0 -6 -2 -8.5t-8 -2.5h-36z" />
    <glyph glyph-name="paragraph" unicode="&#xb6;" horiz-adv-x="498" 
d="M247 318h-17h-17q-39 1 -68.5 18t-50 44t-30.5 59t-10 62q0 47 18 86t57 62.5t100 23.5h112.5h111.5q4 0 5.5 -1.5t1.5 -4.5v-31q0 -4 -1 -5.5t-4 -1.5h-19.5h-19.5v-168v-184v-183.5v-167.5q0 -4 -0.5 -5t-3.5 -1h-38q-4 0 -5.5 1t-1.5 5v166.5v182.5v182.5v167.5
q0 3 -5 4h-30.5h-30.5q-5 0 -5 -5v-698q0 -4 -0.5 -5t-4.5 -1h-40q-1 0 -2.5 1t-1.5 5v392z" />
    <glyph glyph-name="periodcentered" unicode="&#xb7;" horiz-adv-x="292" 
d="M156 274q0 -16 -6 -23.5t-28 -7.5q-19 0 -26.5 7.5t-7.5 23.5q0 14 7.5 21.5t26.5 7.5q22 0 28 -7.5t6 -21.5z" />
    <glyph glyph-name="cedilla" unicode="&#xb8;" horiz-adv-x="190" 
d="M164 -121q0 -27 -22.5 -48.5t-63.5 -21.5q-24 0 -44 10t-31 23q-3 4 -2 8t3 5l18 9q5 3 6.5 2.5t3.5 -3.5q6 -8 19.5 -15t25.5 -7q23 0 34.5 12t11.5 26q0 18 -12 26t-30 11t-35 4q-5 1 -7 5t1 10l36 59q3 5 6 6t6 1h18q9 0 5 -8l-31 -62l-8 14q38 -1 65 -16.5t27 -49.5z
" />
    <glyph glyph-name="uni00B9" unicode="&#xb9;" horiz-adv-x="169" 
d="M83 250q-5 0 -5 5v374q0 7 -6 3l-80 -43q-1 -1 -3.5 -1t-3.5 1l-15 25q-3 5 2 8l110 62q5 2 6.5 2.5t6.5 0.5h24q6 0 6 -5v-427q0 -5 -6 -5h-36z" />
    <glyph glyph-name="ordmasculine" unicode="&#xba;" 
d="M245 -6q-80 0 -124 31t-61.5 86t-17.5 126q0 70 19 124.5t63.5 85.5t120.5 31q77 0 121 -31t63 -85.5t19 -124.5q0 -71 -17.5 -126t-61 -86t-124.5 -31zM245 40q81 0 114 51.5t33 144.5t-35.5 143.5t-111.5 50.5t-111.5 -50.5t-35.5 -143.5q0 -94 33 -145t114 -51z" />
    <glyph glyph-name="guillemotright" unicode="&#xbb;" horiz-adv-x="568" 
d="M308 166q-6 0 -4.5 3t2.5 4t16 18t37 41t42.5 48t35 40l14.5 16l-14.5 16t-35 40.5t-42.5 48.5t-37 41t-16 18q-1 2 -2.5 4.5t4.5 2.5h24h27q2 0 3.5 -0.5t4.5 -3.5q36 -39 71 -78.5t71 -78.5q10 -9 0 -19q-36 -39 -71 -78.5t-71 -79.5q-4 -3 -8 -3h-27h-24zM95 166
q-6 0 -4.5 3t2.5 4t16 18t36.5 41t42.5 48t35.5 40l14.5 16l-14.5 16t-35.5 40.5t-42.5 48.5t-36.5 41t-16 18q-1 2 -2.5 4.5t4.5 2.5h23.5h27.5q2 0 3.5 -0.5t4.5 -3.5q35 -39 70.5 -78.5t70.5 -78.5q11 -9 0 -19q-35 -39 -70.5 -78.5t-70.5 -79.5q-4 -3 -8 -3h-27.5h-23.5
z" />
    <glyph glyph-name="onequarter" unicode="&#xbc;" horiz-adv-x="766" 
d="M187 245q-4 0 -4 4v400q0 7 -6 3l-84 -49q-5 -2 -7 2l-12 20q-3 4 1 6l110 64q4 2 5.5 3t5.5 1h21q5 0 5 -5v-445q0 -4 -5 -4h-30zM595 -2q-4 0 -4 4v119q0 7 -7 7h-188q-4 0 -4 4v21q0 3 1.5 6t2.5 4l193 290q2 4 4 5.5t4 1.5h27q3 0 3 -5v-288q0 -7 7 -7h48q3 0 3 -3
v-25q0 -4 -3 -4h-48q-7 0 -7 -7v-119q0 -4 -3 -4h-29zM443 160h141q7 0 7 7v224q0 3 -1.5 3.5t-2.5 -2.5l-148 -224q-2 -4 -1.5 -6t5.5 -2zM170 0q-7 0 -6.5 3t2.5 5l397 685q3 6 4.5 6.5t5.5 0.5h28q5 0 6 -2t-3 -10l-393 -679l-6 -6t-7 -3h-28z" />
    <glyph glyph-name="onehalf" unicode="&#xbd;" horiz-adv-x="830" 
d="M166 0q-7 0 -6.5 3t2.5 5l397 685q3 6 4.5 6.5t5.5 0.5h28q5 0 6 -2t-3 -10l-393 -679l-6 -6t-7 -3h-28zM187 245q-4 0 -4 4v400q0 7 -6 3l-84 -49q-5 -2 -7 2l-12 20q-3 4 1 6l110 64q4 2 5.5 3t5.5 1h21q5 0 5 -5v-445q0 -4 -5 -4h-30zM483 0q-2 0 -3 1t-1 3v25
q0 5 3 7q35 24 73 54t71.5 65t54 75t20.5 85q0 34 -14 56t-37.5 32.5t-50.5 10.5q-21 0 -40 -5.5t-33 -12.5t-21 -10q-11 -5 -11 1v24q0 4 1.5 5.5t5.5 3.5q6 4 21.5 11t36 12t43.5 5q33 0 64 -13.5t51 -42.5t20 -76q0 -44 -17 -84.5t-46 -75.5t-64.5 -64.5t-71.5 -54.5
q-2 -2 -1 -3.5t3 -1.5h195q4 0 4 -3v-25q0 -3 -0.5 -3.5t-3.5 -0.5h-252z" />
    <glyph glyph-name="threequarters" unicode="&#xbe;" horiz-adv-x="788" 
d="M616 -2q-4 0 -4 4v119q0 7 -7 7h-187q-5 0 -5 4v21q0 3 1.5 6t3.5 4l193 290q1 4 3.5 5.5t4.5 1.5h26q4 0 4 -5v-288q0 -7 7 -7h48q3 0 3 -3v-25q0 -4 -3 -4h-48q-7 0 -7 -7v-119q0 -4 -3 -4h-30zM465 160h140q7 0 7 7v224q0 3 -1.5 3.5t-2.5 -2.5l-147 -224
q-2 -4 -1.5 -6t5.5 -2zM166 253q-20 0 -41 5t-39 14.5t-30 22.5q-1 2 -1.5 4t1.5 4l14 17q3 5 7 1q18 -18 40.5 -27t46.5 -9q31 0 53 14.5t33.5 35.5t11.5 43t-12 43.5t-35 35.5t-58 14h-5.5h-5.5t-3.5 1t-1.5 4v22q0 5 5 5h6.5h10.5q29 2 49.5 14.5t31 32t10.5 39.5
q0 19 -10 36.5t-29 29.5t-48 12q-21 0 -46.5 -10t-41.5 -22q-6 -6 -9 1l-12 19q-2 2 -1 4t2 3q16 11 35 19.5t38.5 12.5t35.5 4q39 0 66 -15t40.5 -39.5t13.5 -52.5q0 -30 -15 -57t-46 -42q-8 -3 -8 -4t9 -5q34 -15 52 -41.5t18 -63.5q0 -31 -16 -59.5t-45 -47t-71 -18.5z
M189 0q-6 0 -6 3t2 5l397 685q3 6 4.5 6.5t6.5 0.5h27q5 0 6 -2t-3 -10l-393 -679l-6 -6t-7 -3h-28z" />
    <glyph glyph-name="questiondown" unicode="&#xbf;" horiz-adv-x="445" 
d="M315 299q5 0 6 -2t1 -7q0 -53 -8 -88t-23.5 -58.5t-38 -42t-51.5 -38.5q-15 -10 -30 -22t-28 -26.5t-20 -31t-6 -36.5q0 -44 33.5 -69.5t87.5 -25.5q37 0 69 7.5t53 17.5q8 3 9.5 3.5t2.5 -5.5l10 -30q2 -4 -0.5 -7t-7.5 -6q-24 -14 -62 -21.5t-71 -7.5q-82 0 -130 40
t-48 105q0 47 17.5 75t42.5 45.5t47 31.5q38 25 59.5 50t31.5 58.5t10 82.5q0 5 1 6.5t3 1.5h40zM327 455q0 -15 -6.5 -22.5t-25.5 -7.5q-20 0 -26.5 7.5t-6.5 22.5q0 14 6.5 22t26.5 8q19 0 25.5 -8t6.5 -22z" />
    <glyph glyph-name="Agrave" unicode="&#xc0;" horiz-adv-x="554" 
d="M49 0q-5 0 -5.5 2.5t-0.5 9.5q7 48 21 115t33 142.5t40.5 150.5t44.5 139t44 106q2 4 5 6t6 2h79q4 -1 7 -2t5 -6q20 -41 42.5 -105.5t44.5 -140.5t41.5 -153t33.5 -143t20 -110q1 -8 0.5 -10.5t-5.5 -2.5h-44q-3 0 -4.5 2t-3.5 8q-4 28 -11.5 66t-15.5 80q-1 6 -4 7.5
t-9 1.5h-274q-5 0 -7 -2t-4 -8q-9 -41 -16.5 -79t-12.5 -66q0 -6 -1.5 -8t-5.5 -2h-43zM151 212h249q4 0 7 3.5t1 12.5q-24 94 -49 188.5t-62 181.5q-2 6 -9 6h-22q-7 0 -9 -7q-18 -43 -38.5 -105.5t-39.5 -132.5t-35 -136q-1 -3 0 -7t7 -4zM283 720q-3 0 -5 1.5t-6 3.5
l-80 73q-1 2 0 4t2 2h48q4 0 6 -1.5t5 -4.5l64 -71q3 -3 2.5 -5t-4.5 -2h-32z" />
    <glyph glyph-name="Aacute" unicode="&#xc1;" horiz-adv-x="554" 
d="M49 0q-5 0 -5.5 2.5t-0.5 9.5q7 48 21 115t33 142.5t40.5 150.5t44.5 139t44 106q2 4 5 6t6 2h79q4 -1 7 -2t5 -6q20 -41 42.5 -105.5t44.5 -140.5t41.5 -153t33.5 -143t20 -110q1 -8 0.5 -10.5t-5.5 -2.5h-44q-3 0 -4.5 2t-3.5 8q-4 28 -11.5 66t-15.5 80q-1 6 -4 7.5
t-9 1.5h-274q-5 0 -7 -2t-4 -8q-9 -41 -16.5 -79t-12.5 -66q0 -6 -1.5 -8t-5.5 -2h-43zM151 212h249q4 0 7 3.5t1 12.5q-24 94 -49 188.5t-62 181.5q-2 6 -9 6h-22q-7 0 -9 -7q-18 -43 -38.5 -105.5t-39.5 -132.5t-35 -136q-1 -3 0 -7t7 -4zM269 720h-33q-4 0 -4 2t2 5
l64 71q3 3 5.5 4.5t6.5 1.5h47q3 0 4 -2t-2 -4l-80 -73q-3 -2 -5 -3.5t-5 -1.5z" />
    <glyph glyph-name="Acircumflex" unicode="&#xc2;" horiz-adv-x="554" 
d="M49 0q-5 0 -5.5 2.5t-0.5 9.5q7 48 21 115t33 142.5t40.5 150.5t44.5 139t44 106q2 4 5 6t6 2h79q4 -1 7 -2t5 -6q20 -41 42.5 -105.5t44.5 -140.5t41.5 -153t33.5 -143t20 -110q1 -8 0.5 -10.5t-5.5 -2.5h-44q-3 0 -4.5 2t-3.5 8q-4 28 -11.5 66t-15.5 80q-1 6 -4 7.5
t-9 1.5h-274q-5 0 -7 -2t-4 -8q-9 -41 -16.5 -79t-12.5 -66q0 -6 -1.5 -8t-5.5 -2h-43zM151 212h249q4 0 7 3.5t1 12.5q-24 94 -49 188.5t-62 181.5q-2 6 -9 6h-22q-7 0 -9 -7q-18 -43 -38.5 -105.5t-39.5 -132.5t-35 -136q-1 -3 0 -7t7 -4zM189 719q-3 0 -3.5 2.5t0.5 4.5
l64 75q3 4 7 4h40q5 0 7 -4l64 -75q2 -2 1.5 -4.5t-4.5 -2.5h-27q-3 0 -5 1.5t-5 2.5l-45 44q-4 3 -8 0l-48 -44q-2 -1 -4 -2.5t-4 -1.5h-30z" />
    <glyph glyph-name="Atilde" unicode="&#xc3;" horiz-adv-x="554" 
d="M49 0q-5 0 -5.5 2.5t-0.5 9.5q7 48 21 115t33 142.5t40.5 150.5t44.5 139t44 106q2 4 5 6t6 2h79q4 -1 7 -2t5 -6q20 -41 42.5 -105.5t44.5 -140.5t41.5 -153t33.5 -143t20 -110q1 -8 0.5 -10.5t-5.5 -2.5h-44q-3 0 -4.5 2t-3.5 8q-4 28 -11.5 66t-15.5 80q-1 6 -4 7.5
t-9 1.5h-274q-5 0 -7 -2t-4 -8q-9 -41 -16.5 -79t-12.5 -66q0 -6 -1.5 -8t-5.5 -2h-43zM151 212h249q4 0 7 3.5t1 12.5q-24 94 -49 188.5t-62 181.5q-2 6 -9 6h-22q-7 0 -9 -7q-18 -43 -38.5 -105.5t-39.5 -132.5t-35 -136q-1 -3 0 -7t7 -4zM191 721q-5 0 -5 5q0 27 15 45
t38 18q14 0 28.5 -9.5t27.5 -19t22 -9.5q7 0 12 8t5 19q0 6 4 6h25q5 0 5 -6q0 -23 -14 -42.5t-38 -19.5q-15 0 -29.5 9.5t-26.5 19t-21 9.5q-8 0 -13.5 -8.5t-5.5 -19.5q0 -5 -4 -5h-25z" />
    <glyph glyph-name="Adieresis" unicode="&#xc4;" horiz-adv-x="554" 
d="M49 0q-5 0 -5.5 2.5t-0.5 9.5q7 48 21 115t33 142.5t40.5 150.5t44.5 139t44 106q2 4 5 6t6 2h79q4 -1 7 -2t5 -6q20 -41 42.5 -105.5t44.5 -140.5t41.5 -153t33.5 -143t20 -110q1 -8 0.5 -10.5t-5.5 -2.5h-44q-3 0 -4.5 2t-3.5 8q-4 28 -11.5 66t-15.5 80q-1 6 -4 7.5
t-9 1.5h-274q-5 0 -7 -2t-4 -8q-9 -41 -16.5 -79t-12.5 -66q0 -6 -1.5 -8t-5.5 -2h-43zM151 212h249q4 0 7 3.5t1 12.5q-24 94 -49 188.5t-62 181.5q-2 6 -9 6h-22q-7 0 -9 -7q-18 -43 -38.5 -105.5t-39.5 -132.5t-35 -136q-1 -3 0 -7t7 -4zM244 773q0 -14 -6.5 -21.5
t-27.5 -7.5q-19 0 -26 7.5t-7 21.5q0 16 7 23t26 7q21 0 27.5 -7t6.5 -23zM377 773q0 -14 -6 -21.5t-27 -7.5q-19 0 -26.5 7.5t-7.5 21.5q0 16 7.5 23t26.5 7q21 0 27 -7t6 -23z" />
    <glyph glyph-name="Aring" unicode="&#xc5;" horiz-adv-x="554" 
d="M49 0q-5 0 -5.5 2.5t-0.5 9.5q7 48 21 115t33 142.5t40.5 150.5t44.5 139t44 106q2 4 5 6t6 2h79q4 -1 7 -2t5 -6q20 -41 42.5 -105.5t44.5 -140.5t41.5 -153t33.5 -143t20 -110q1 -8 0.5 -10.5t-5.5 -2.5h-44q-3 0 -4.5 2t-3.5 8q-4 28 -11.5 66t-15.5 80q-1 6 -4 7.5
t-9 1.5h-274q-5 0 -7 -2t-4 -8q-9 -41 -16.5 -79t-12.5 -66q0 -6 -1.5 -8t-5.5 -2h-43zM151 212h249q4 0 7 3.5t1 12.5q-24 94 -49 188.5t-62 181.5q-2 6 -9 6h-22q-7 0 -9 -7q-18 -43 -38.5 -105.5t-39.5 -132.5t-35 -136q-1 -3 0 -7t7 -4zM357 787q0 -33 -18.5 -53.5
t-61.5 -20.5q-44 0 -62.5 20.5t-18.5 53.5q0 34 18.5 53.5t62.5 19.5q43 0 61.5 -19.5t18.5 -53.5zM325 790q0 16 -8.5 27t-38.5 11q-32 0 -40.5 -11t-8.5 -27q0 -15 8 -29.5t41 -14.5t40 14.5t7 29.5z" />
    <glyph glyph-name="AE" unicode="&#xc6;" horiz-adv-x="769" 
d="M398 0q-6 0 -6 6v159h-246q-5 0 -7.5 -2t-5.5 -8q-14 -41 -25 -79t-15 -66q-1 -6 -2 -8t-6 -2h-43q-5 0 -5.5 2.5t0.5 9.5q6 48 28 114.5t52.5 141.5t66.5 149.5t71.5 139t65.5 108.5q2 4 5 6t6 2h376q4 0 5.5 -1t1.5 -6v-33q0 -4 -1.5 -5.5t-5.5 -1.5h-252q-5 0 -6 -2
t-1 -5v-249q0 -3 1.5 -5.5t5.5 -2.5h208q5 0 5.5 -1t0.5 -6v-32q0 -4 -1 -5.5t-5 -1.5h-209q-4 0 -5 -1.5t-1 -5.5v-254q0 -4 1 -6.5t6 -2.5h252q4 0 5.5 -1t1.5 -6v-31q0 -5 -1.5 -6.5t-6.5 -1.5h-309zM392 212v400q-2 5 -4 5h-30q-3 0 -5.5 -1.5t-4.5 -5.5
q-27 -43 -60.5 -107.5t-68 -138t-62.5 -141.5q-1 -2 -0.5 -6.5t6.5 -4.5h229z" />
    <glyph glyph-name="Ccedilla" unicode="&#xc7;" horiz-adv-x="445" 
d="M408 17q0 -10 -12 -15q-14 -4 -33 -6.5t-37 -3.5t-28 -1q-110 0 -177 86.5t-67 257.5q0 172 64.5 258.5t179.5 86.5q10 0 28 -1.5t37 -4t33 -6.5q7 -2 9.5 -5.5t2.5 -7.5v-37q0 -13 -10 -7q-13 8 -37.5 15t-56.5 7q-56 0 -93.5 -23.5t-59 -64.5t-30.5 -91.5t-9 -104.5
q0 -36 4 -78.5t15.5 -83.5t33 -75t56 -54.5t83.5 -20.5q33 0 57.5 7t35.5 14q7 4 9 2t2 -8v-35zM363 -120q0 -27 -22.5 -48.5t-63.5 -21.5q-24 0 -44 10t-31 23q-3 4 -2 8t3 5l18 9q5 3 6.5 2.5t3.5 -3.5q6 -8 19.5 -15t25.5 -7q23 0 34.5 12t11.5 26q0 18 -12 26t-30 11
t-35 4q-5 1 -7 5t1 10l36 59q3 5 6 6t6 1h18q9 0 5 -8l-31 -62l-8 14q38 -1 65 -16.5t27 -49.5z" />
    <glyph glyph-name="Egrave" unicode="&#xc8;" horiz-adv-x="444" 
d="M90 0q-6 0 -6 6v661q0 6 6 6h311q4 0 5 -1t1 -6v-33q0 -4 -1 -5.5t-5 -1.5h-254q-4 0 -5 -2t-1 -5v-249q0 -3 2 -5.5t5 -2.5h208q4 0 5 -1t1 -6v-32q0 -4 -1 -5.5t-5 -1.5h-209q-4 0 -5 -1.5t-1 -5.5v-254q0 -4 1 -6.5t6 -2.5h252q5 0 6 -1t1 -6v-31q0 -5 -1.5 -6.5
t-5.5 -1.5h-310zM246 720q-3 0 -5 1.5t-6 3.5l-80 73q-1 2 0 4t2 2h48q4 0 6 -1.5t5 -4.5l64 -71q3 -3 2.5 -5t-4.5 -2h-32z" />
    <glyph glyph-name="Eacute" unicode="&#xc9;" horiz-adv-x="444" 
d="M90 0q-6 0 -6 6v661q0 6 6 6h311q4 0 5 -1t1 -6v-33q0 -4 -1 -5.5t-5 -1.5h-254q-4 0 -5 -2t-1 -5v-249q0 -3 2 -5.5t5 -2.5h208q4 0 5 -1t1 -6v-32q0 -4 -1 -5.5t-5 -1.5h-209q-4 0 -5 -1.5t-1 -5.5v-254q0 -4 1 -6.5t6 -2.5h252q5 0 6 -1t1 -6v-31q0 -5 -1.5 -6.5
t-5.5 -1.5h-310zM232 720h-33q-4 0 -4 2t2 5l64 71q3 3 5.5 4.5t6.5 1.5h47q3 0 4 -2t-2 -4l-80 -73q-3 -2 -5 -3.5t-5 -1.5z" />
    <glyph glyph-name="Ecircumflex" unicode="&#xca;" horiz-adv-x="444" 
d="M90 0q-6 0 -6 6v661q0 6 6 6h311q4 0 5 -1t1 -6v-33q0 -4 -1 -5.5t-5 -1.5h-254q-4 0 -5 -2t-1 -5v-249q0 -3 2 -5.5t5 -2.5h208q4 0 5 -1t1 -6v-32q0 -4 -1 -5.5t-5 -1.5h-209q-4 0 -5 -1.5t-1 -5.5v-254q0 -4 1 -6.5t6 -2.5h252q5 0 6 -1t1 -6v-31q0 -5 -1.5 -6.5
t-5.5 -1.5h-310zM152 719q-3 0 -3.5 2.5t0.5 4.5l64 75q3 4 7 4h40q5 0 7 -4l64 -75q2 -2 1.5 -4.5t-4.5 -2.5h-27q-3 0 -5 1.5t-5 2.5l-45 44q-4 3 -8 0l-48 -44q-2 -1 -4 -2.5t-4 -1.5h-30z" />
    <glyph glyph-name="Edieresis" unicode="&#xcb;" horiz-adv-x="444" 
d="M90 0q-6 0 -6 6v661q0 6 6 6h311q4 0 5 -1t1 -6v-33q0 -4 -1 -5.5t-5 -1.5h-254q-4 0 -5 -2t-1 -5v-249q0 -3 2 -5.5t5 -2.5h208q4 0 5 -1t1 -6v-32q0 -4 -1 -5.5t-5 -1.5h-209q-4 0 -5 -1.5t-1 -5.5v-254q0 -4 1 -6.5t6 -2.5h252q5 0 6 -1t1 -6v-31q0 -5 -1.5 -6.5
t-5.5 -1.5h-310zM207 773q0 -14 -6.5 -21.5t-27.5 -7.5q-19 0 -26 7.5t-7 21.5q0 16 7 23t26 7q21 0 27.5 -7t6.5 -23zM340 773q0 -14 -6 -21.5t-27 -7.5q-19 0 -26.5 7.5t-7.5 21.5q0 16 7.5 23t26.5 7q21 0 27 -7t6 -23z" />
    <glyph glyph-name="Igrave" unicode="&#xcc;" horiz-adv-x="225" 
d="M140 6q0 -6 -6 -6h-44q-6 0 -6 6v661q0 6 6 6h44q6 0 6 -6v-661zM119 720q-3 0 -5 1.5t-6 3.5l-80 73q-1 2 0 4t2 2h48q4 0 6 -1.5t5 -4.5l64 -71q3 -3 2.5 -5t-4.5 -2h-32z" />
    <glyph glyph-name="Iacute" unicode="&#xcd;" horiz-adv-x="225" 
d="M140 6q0 -6 -6 -6h-44q-6 0 -6 6v661q0 6 6 6h44q6 0 6 -6v-661zM104 720h-33q-4 0 -4 2t2 5l64 71q3 3 5.5 4.5t6.5 1.5h47q3 0 4 -2t-2 -4l-80 -73q-3 -2 -5 -3.5t-5 -1.5z" />
    <glyph glyph-name="Icircumflex" unicode="&#xce;" horiz-adv-x="225" 
d="M140 6q0 -6 -6 -6h-44q-6 0 -6 6v661q0 6 6 6h44q6 0 6 -6v-661zM24 719q-3 0 -3.5 2.5t0.5 4.5l64 75q3 4 7 4h40q5 0 7 -4l64 -75q2 -2 1.5 -4.5t-4.5 -2.5h-27q-3 0 -5 1.5t-5 2.5l-45 44q-4 3 -8 0l-48 -44q-2 -1 -4 -2.5t-4 -1.5h-30z" />
    <glyph glyph-name="Idieresis" unicode="&#xcf;" horiz-adv-x="225" 
d="M140 6q0 -6 -6 -6h-44q-6 0 -6 6v661q0 6 6 6h44q6 0 6 -6v-661zM79 773q0 -14 -6.5 -21.5t-27.5 -7.5q-19 0 -26 7.5t-7 21.5q0 16 7 23t26 7q21 0 27.5 -7t6.5 -23zM212 773q0 -14 -6 -21.5t-27 -7.5q-19 0 -26.5 7.5t-7.5 21.5q0 16 7.5 23t26.5 7q21 0 27 -7t6 -23z
" />
    <glyph glyph-name="Eth" unicode="&#xd0;" horiz-adv-x="556" 
d="M534 347q0 -88 -16 -149t-42 -100t-56.5 -60.5t-61 -29.5t-55.5 -8h-202q-6 0 -6 6v661q0 6 6 6h202q30 0 62 -6t62.5 -24t54.5 -54t38 -95t14 -147zM478 347q0 96 -17 152t-43.5 83.5t-56 35.5t-55.5 8h-148q-4 0 -5 -1.5t-1 -4.5v-568q0 -3 1 -4.5t4 -1.5h131
q28 0 60.5 11.5t62 43t48.5 91t19 155.5zM13 300q-4 0 -5 2t-1 4v33q0 4 1 5t5 1h261q3 0 4 -1t1 -5v-33q0 -3 -1 -4.5t-4 -1.5h-261z" />
    <glyph glyph-name="Ntilde" unicode="&#xd1;" horiz-adv-x="640" 
d="M486 124q2 -4 6 -3.5t5 6.5q3 36 5.5 89t3 113.5t-0.5 122.5t-4.5 117t-8.5 96q-1 8 4 8h45q3 0 5 -1.5t2 -4.5q6 -35 8.5 -88t4 -116t1 -130t-2.5 -129t-5 -114t-7 -84q0 -4 -3 -5t-6 -1h-32q-5 0 -8 7l-345 544q-1 4 -4.5 4t-4.5 -5q-3 -42 -5 -97.5t-3 -117.5t0 -123
t4 -114t8 -90q0 -8 -5 -8h-43q-3 0 -5.5 1t-2.5 5q-4 34 -7 86.5t-4.5 115t-1.5 129.5t2 130t5 115t8 85q0 3 2.5 4.5t4.5 1.5h33q4 0 7 -6zM232 721q-5 0 -5 5q0 27 15 45t38 18q14 0 28.5 -9.5t27.5 -19t22 -9.5q7 0 12 8t5 19q0 6 4 6h25q5 0 5 -6q0 -23 -14 -42.5
t-38 -19.5q-15 0 -29.5 9.5t-26.5 19t-21 9.5q-8 0 -13.5 -8.5t-5.5 -19.5q0 -5 -4 -5h-25z" />
    <glyph glyph-name="Ograve" unicode="&#xd2;" horiz-adv-x="625" 
d="M54 334q0 111 22 187.5t78 115.5t157 39q79 0 130 -22.5t79.5 -65t39.5 -106.5t11 -148t-11 -147.5t-39.5 -106.5t-79.5 -65t-130 -22q-101 0 -157 39t-78 115t-22 187zM112 334q0 -114 21.5 -177t64.5 -88t112 -25t113.5 25t67 88t22.5 177q0 115 -22.5 178.5t-67 89
t-113.5 25.5t-112.5 -26t-64.5 -89t-21 -178zM319 720q-3 0 -5 1.5t-6 3.5l-80 73q-1 2 0 4t2 2h48q4 0 6 -1.5t5 -4.5l64 -71q3 -3 2.5 -5t-4.5 -2h-32z" />
    <glyph glyph-name="Oacute" unicode="&#xd3;" horiz-adv-x="625" 
d="M54 334q0 111 22 187.5t78 115.5t157 39q79 0 130 -22.5t79.5 -65t39.5 -106.5t11 -148t-11 -147.5t-39.5 -106.5t-79.5 -65t-130 -22q-101 0 -157 39t-78 115t-22 187zM112 334q0 -114 21.5 -177t64.5 -88t112 -25t113.5 25t67 88t22.5 177q0 115 -22.5 178.5t-67 89
t-113.5 25.5t-112.5 -26t-64.5 -89t-21 -178zM305 720h-33q-4 0 -4 2t2 5l64 71q3 3 5.5 4.5t6.5 1.5h47q3 0 4 -2t-2 -4l-80 -73q-3 -2 -5 -3.5t-5 -1.5z" />
    <glyph glyph-name="Ocircumflex" unicode="&#xd4;" horiz-adv-x="625" 
d="M54 334q0 111 22 187.5t78 115.5t157 39q79 0 130 -22.5t79.5 -65t39.5 -106.5t11 -148t-11 -147.5t-39.5 -106.5t-79.5 -65t-130 -22q-101 0 -157 39t-78 115t-22 187zM112 334q0 -114 21.5 -177t64.5 -88t112 -25t113.5 25t67 88t22.5 177q0 115 -22.5 178.5t-67 89
t-113.5 25.5t-112.5 -26t-64.5 -89t-21 -178zM225 719q-3 0 -3.5 2.5t0.5 4.5l64 75q3 4 7 4h40q5 0 7 -4l64 -75q2 -2 1.5 -4.5t-4.5 -2.5h-27q-3 0 -5 1.5t-5 2.5l-45 44q-4 3 -8 0l-48 -44q-2 -1 -4 -2.5t-4 -1.5h-30z" />
    <glyph glyph-name="Otilde" unicode="&#xd5;" horiz-adv-x="625" 
d="M54 334q0 111 22 187.5t78 115.5t157 39q79 0 130 -22.5t79.5 -65t39.5 -106.5t11 -148t-11 -147.5t-39.5 -106.5t-79.5 -65t-130 -22q-101 0 -157 39t-78 115t-22 187zM112 334q0 -114 21.5 -177t64.5 -88t112 -25t113.5 25t67 88t22.5 177q0 115 -22.5 178.5t-67 89
t-113.5 25.5t-112.5 -26t-64.5 -89t-21 -178zM227 721q-5 0 -5 5q0 27 15 45t38 18q14 0 28.5 -9.5t27.5 -19t22 -9.5q7 0 12 8t5 19q0 6 4 6h25q5 0 5 -6q0 -23 -14 -42.5t-38 -19.5q-15 0 -29.5 9.5t-26.5 19t-21 9.5q-8 0 -13.5 -8.5t-5.5 -19.5q0 -5 -4 -5h-25z" />
    <glyph glyph-name="Odieresis" unicode="&#xd6;" horiz-adv-x="625" 
d="M54 334q0 111 22 187.5t78 115.5t157 39q79 0 130 -22.5t79.5 -65t39.5 -106.5t11 -148t-11 -147.5t-39.5 -106.5t-79.5 -65t-130 -22q-101 0 -157 39t-78 115t-22 187zM112 334q0 -114 21.5 -177t64.5 -88t112 -25t113.5 25t67 88t22.5 177q0 115 -22.5 178.5t-67 89
t-113.5 25.5t-112.5 -26t-64.5 -89t-21 -178zM280 773q0 -14 -6.5 -21.5t-27.5 -7.5q-19 0 -26 7.5t-7 21.5q0 16 7 23t26 7q21 0 27.5 -7t6.5 -23zM413 773q0 -14 -6 -21.5t-27 -7.5q-19 0 -26.5 7.5t-7.5 21.5q0 16 7.5 23t26.5 7q21 0 27 -7t6 -23z" />
    <glyph glyph-name="multiply" unicode="&#xd7;" horiz-adv-x="465" 
d="M42 141q-2 3 -2 4.5t2 3.5l158 155l-147 144q-2 2 -1.5 4.5t2.5 3.5l24 24q2 2 3.5 1.5l4.5 -1.5l146 -146l147 146l4.5 1.5t4.5 -1.5l23 -24q2 -1 2.5 -3.5t-1.5 -4.5l-147 -144l158 -155q2 -2 2 -3.5t-3 -4.5l-23 -23q-2 -2 -4 -2t-4 2l-159 155l-158 -155q-2 -2 -4 -2
t-5 2z" />
    <glyph glyph-name="Oslash" unicode="&#xd8;" horiz-adv-x="627" 
d="M140 -44q-2 -3 -4 -4.5t-6 -1.5h-41q-2 0 -2.5 2t0.5 5l387 749q2 4 4.5 5t4.5 1h40q4 0 4 -2t-4 -8zM54 334q0 111 22 187.5t78 115.5t157 39q79 0 130 -22.5t79.5 -65t39.5 -106.5t11 -148t-11 -147.5t-39.5 -106.5t-79.5 -65t-130 -22q-101 0 -157 39t-78 115t-22 187
zM112 334q0 -114 21 -177t64.5 -88t112.5 -25t113.5 25t67 88t22.5 177q0 115 -22.5 178.5t-67 89t-113.5 25.5t-112.5 -26t-64.5 -89t-21 -178z" />
    <glyph glyph-name="Ugrave" unicode="&#xd9;" horiz-adv-x="634" 
d="M317 -6q-81 0 -127.5 19t-68.5 48t-30 58.5t-10 52.5q-4 43 -6 93.5t-1 102.5q1 50 3.5 101.5t6.5 101.5t10 93q0 3 2 6t4 3h21.5h21.5q4 0 5 -1.5t0 -7.5q-4 -40 -7 -84.5t-6 -92.5q-4 -81 -4.5 -161.5t6.5 -148.5q2 -18 7.5 -41t22.5 -44.5t52.5 -36t96.5 -14.5
t96.5 14.5t53 36t23.5 44.5t7 41q6 67 6.5 145t-3.5 157q-3 50 -6.5 97t-7.5 88q0 6 1 7.5t4 1.5h22.5h21.5q4 0 5 -3l2 -6q5 -43 9.5 -92t6.5 -100t2 -100q2 -53 0.5 -105t-6.5 -95q-2 -18 -6.5 -41t-17 -47t-38 -44.5t-68 -33t-106.5 -12.5zM323 720q-3 0 -5 1.5t-6 3.5
l-80 73q-1 2 0 4t2 2h48q4 0 6 -1.5t5 -4.5l64 -71q3 -3 2.5 -5t-4.5 -2h-32z" />
    <glyph glyph-name="Uacute" unicode="&#xda;" horiz-adv-x="634" 
d="M317 -6q-81 0 -127.5 19t-68.5 48t-30 58.5t-10 52.5q-4 43 -6 93.5t-1 102.5q1 50 3.5 101.5t6.5 101.5t10 93q0 3 2 6t4 3h21.5h21.5q4 0 5 -1.5t0 -7.5q-4 -40 -7 -84.5t-6 -92.5q-4 -81 -4.5 -161.5t6.5 -148.5q2 -18 7.5 -41t22.5 -44.5t52.5 -36t96.5 -14.5
t96.5 14.5t53 36t23.5 44.5t7 41q6 67 6.5 145t-3.5 157q-3 50 -6.5 97t-7.5 88q0 6 1 7.5t4 1.5h22.5h21.5q4 0 5 -3l2 -6q5 -43 9.5 -92t6.5 -100t2 -100q2 -53 0.5 -105t-6.5 -95q-2 -18 -6.5 -41t-17 -47t-38 -44.5t-68 -33t-106.5 -12.5zM309 720h-33q-4 0 -4 2t2 5
l64 71q3 3 5.5 4.5t6.5 1.5h47q3 0 4 -2t-2 -4l-80 -73q-3 -2 -5 -3.5t-5 -1.5z" />
    <glyph glyph-name="Ucircumflex" unicode="&#xdb;" horiz-adv-x="634" 
d="M317 -6q-81 0 -127.5 19t-68.5 48t-30 58.5t-10 52.5q-4 43 -6 93.5t-1 102.5q1 50 3.5 101.5t6.5 101.5t10 93q0 3 2 6t4 3h21.5h21.5q4 0 5 -1.5t0 -7.5q-4 -40 -7 -84.5t-6 -92.5q-4 -81 -4.5 -161.5t6.5 -148.5q2 -18 7.5 -41t22.5 -44.5t52.5 -36t96.5 -14.5
t96.5 14.5t53 36t23.5 44.5t7 41q6 67 6.5 145t-3.5 157q-3 50 -6.5 97t-7.5 88q0 6 1 7.5t4 1.5h22.5h21.5q4 0 5 -3l2 -6q5 -43 9.5 -92t6.5 -100t2 -100q2 -53 0.5 -105t-6.5 -95q-2 -18 -6.5 -41t-17 -47t-38 -44.5t-68 -33t-106.5 -12.5zM229 719q-3 0 -3.5 2.5
t0.5 4.5l64 75q3 4 7 4h40q5 0 7 -4l64 -75q2 -2 1.5 -4.5t-4.5 -2.5h-27q-3 0 -5 1.5t-5 2.5l-45 44q-4 3 -8 0l-48 -44q-2 -1 -4 -2.5t-4 -1.5h-30z" />
    <glyph glyph-name="Udieresis" unicode="&#xdc;" horiz-adv-x="634" 
d="M317 -6q-81 0 -127.5 19t-68.5 48t-30 58.5t-10 52.5q-4 43 -6 93.5t-1 102.5q1 50 3.5 101.5t6.5 101.5t10 93q0 3 2 6t4 3h21.5h21.5q4 0 5 -1.5t0 -7.5q-4 -40 -7 -84.5t-6 -92.5q-4 -81 -4.5 -161.5t6.5 -148.5q2 -18 7.5 -41t22.5 -44.5t52.5 -36t96.5 -14.5
t96.5 14.5t53 36t23.5 44.5t7 41q6 67 6.5 145t-3.5 157q-3 50 -6.5 97t-7.5 88q0 6 1 7.5t4 1.5h22.5h21.5q4 0 5 -3l2 -6q5 -43 9.5 -92t6.5 -100t2 -100q2 -53 0.5 -105t-6.5 -95q-2 -18 -6.5 -41t-17 -47t-38 -44.5t-68 -33t-106.5 -12.5zM284 773q0 -14 -6.5 -21.5
t-27.5 -7.5q-19 0 -26 7.5t-7 21.5q0 16 7 23t26 7q21 0 27.5 -7t6.5 -23zM417 773q0 -14 -6 -21.5t-27 -7.5q-19 0 -26.5 7.5t-7.5 21.5q0 16 7.5 23t26.5 7q21 0 27 -7t6 -23z" />
    <glyph glyph-name="Yacute" unicode="&#xdd;" horiz-adv-x="473" 
d="M278 307q-6 -8 -8.5 -22.5t-2.5 -25.5v-253q0 -3 -2 -4.5t-4 -1.5h-45q-6 0 -6 6v251q0 16 -5 33t-12 27q-10 13 -22.5 31t-24.5 37t-22 35.5t-15 27.5q-28 53 -48 99.5t-31 78t-13 37.5q-1 5 1.5 7.5t6.5 2.5h42q5 0 9 -10q2 -7 13.5 -36.5t30 -70t38.5 -81.5
q13 -27 30 -55.5t39 -57.5q5 -8 9 -9.5t11 7.5q13 16 26 36.5t25.5 42t20.5 37.5q20 40 37 80.5t28 70t13 36.5q2 6 4 8t5 2h43q4 0 6 -2.5t0 -7.5q-1 -6 -11 -36.5t-28.5 -75.5t-46.5 -97q-6 -13 -17 -31.5t-23.5 -39.5t-25.5 -41t-25 -35zM229 720h-33q-4 0 -4 2t2 5
l64 71q3 3 5.5 4.5t6.5 1.5h47q3 0 4 -2t-2 -4l-80 -73q-3 -2 -5 -3.5t-5 -1.5z" />
    <glyph glyph-name="Thorn" unicode="&#xde;" horiz-adv-x="460" 
d="M415 381q0 -63 -21.5 -115.5t-63.5 -83.5t-105 -31h-98q-6 0 -6 -6v-139q0 -6 -7 -6h-44q-6 0 -6 6v696q0 6 6 6h43q5 0 6.5 -1.5t1.5 -5.5v-100v-6t1 -5h92q107 0 154 -50.5t47 -158.5zM360 381q0 90 -35 127.5t-109 37.5h-90q-3 0 -4 -1t-1 -4v-340q0 -5 5 -5h92
q69 0 105.5 49.5t36.5 135.5z" />
    <glyph glyph-name="germandbls" unicode="&#xdf;" horiz-adv-x="597" 
d="M21 -108q-17 0 -24.5 1t-9.5 4q-1 4 -1.5 9.5t-0.5 10.5q0 4 1 8.5t2 7.5q12 2 23.5 3.5t21.5 4.5q26 8 41.5 28.5t22.5 56t9 89t2 128.5v93v103.5v108.5q0 36 10.5 65.5t31.5 51.5t52.5 33.5t72.5 11.5q23 0 48 -5t48 -16.5t41 -29.5t28.5 -43t10.5 -58q0 -28 -8 -50
t-23 -37q-15 -13 -37.5 -22.5t-47.5 -19.5q-22 -8 -28.5 -22t0 -27.5t23.5 -22.5q32 -14 68.5 -31.5t68.5 -39.5q33 -22 50.5 -57t16.5 -73q0 -50 -23 -86.5t-64 -56.5t-93 -20q-30 0 -67.5 7.5t-66.5 27.5q-3 3 -4.5 5.5t-1.5 7.5q1 8 2.5 16t2.5 15q0 7 3 7t8 -3
q14 -9 35 -16.5t44 -12t40 -4.5q33 0 56.5 12t37.5 31q15 17 21 39.5t2 46.5q-2 41 -25.5 65t-65 44t-97.5 46q-20 9 -31 25.5t-10.5 35.5t15.5 37t46 29q19 6 37 12.5t30 18.5q11 12 21 28t10 46q-1 55 -34.5 79.5t-80.5 24.5q-55 0 -86.5 -30.5t-31.5 -90.5v-72v-79v-83
v-82.5v-77.5v-69q0 -96 -37 -141.5t-105 -45.5z" />
    <glyph glyph-name="agrave" unicode="&#xe0;" horiz-adv-x="484" 
d="M232 -8q-48 0 -88.5 11t-65 42.5t-24.5 90.5q0 50 16.5 82.5t43.5 50t59 24.5t62 7q32 0 64 -3t50 -7q15 -3 15 22q0 66 -31.5 93t-100.5 27q-40 0 -73.5 -10t-55.5 -25q-4 -3 -7 -2.5t-3 4.5l-5 32q-1 5 0.5 6.5t4.5 3.5q23 17 58.5 26.5t80.5 9.5q64 0 101 -14.5
t55.5 -39.5t25 -57.5t6.5 -68.5q1 -51 0.5 -93.5t-2.5 -83t-6 -83.5q-1 -6 -5.5 -11.5t-19.5 -11.5q-14 -5 -33.5 -9t-40.5 -7t-41.5 -4.5t-39.5 -1.5zM236 33q10 0 28.5 1.5t38.5 5t35 10.5t17 18q4 31 6 74.5t2 80.5q0 21 -15 25q-15 3 -47 7t-71 4q-17 0 -38 -5t-40 -18
t-31 -37t-12 -63q0 -37 16.5 -60t45.5 -33t65 -10zM250 531q-6 0 -11 5l-66 87q-1 2 0 4t2 2h48q4 0 7 -1t4 -5l49 -86q3 -6 -2 -6h-31z" />
    <glyph glyph-name="aacute" unicode="&#xe1;" horiz-adv-x="484" 
d="M232 -8q-48 0 -88.5 11t-65 42.5t-24.5 90.5q0 50 16.5 82.5t43.5 50t59 24.5t62 7q32 0 64 -3t50 -7q15 -3 15 22q0 66 -31.5 93t-100.5 27q-40 0 -73.5 -10t-55.5 -25q-4 -3 -7 -2.5t-3 4.5l-5 32q-1 5 0.5 6.5t4.5 3.5q23 17 58.5 26.5t80.5 9.5q64 0 101 -14.5
t55.5 -39.5t25 -57.5t6.5 -68.5q1 -51 0.5 -93.5t-2.5 -83t-6 -83.5q-1 -6 -5.5 -11.5t-19.5 -11.5q-14 -5 -33.5 -9t-40.5 -7t-41.5 -4.5t-39.5 -1.5zM236 33q10 0 28.5 1.5t38.5 5t35 10.5t17 18q4 31 6 74.5t2 80.5q0 21 -15 25q-15 3 -47 7t-71 4q-17 0 -38 -5t-40 -18
t-31 -37t-12 -63q0 -37 16.5 -60t45.5 -33t65 -10zM217 530q-5 0 -5 2t2 5l52 87q2 5 11 5h44q3 0 4 -1.5t-3 -4.5l-65 -89q-2 -2 -4 -3t-6 -1h-30z" />
    <glyph glyph-name="acircumflex" unicode="&#xe2;" horiz-adv-x="484" 
d="M232 -8q-48 0 -88.5 11t-65 42.5t-24.5 90.5q0 50 16.5 82.5t43.5 50t59 24.5t62 7q32 0 64 -3t50 -7q15 -3 15 22q0 66 -31.5 93t-100.5 27q-40 0 -73.5 -10t-55.5 -25q-4 -3 -7 -2.5t-3 4.5l-5 32q-1 5 0.5 6.5t4.5 3.5q23 17 58.5 26.5t80.5 9.5q64 0 101 -14.5
t55.5 -39.5t25 -57.5t6.5 -68.5q1 -51 0.5 -93.5t-2.5 -83t-6 -83.5q-1 -6 -5.5 -11.5t-19.5 -11.5q-14 -5 -33.5 -9t-40.5 -7t-41.5 -4.5t-39.5 -1.5zM236 33q10 0 28.5 1.5t38.5 5t35 10.5t17 18q4 31 6 74.5t2 80.5q0 21 -15 25q-15 3 -47 7t-71 4q-17 0 -38 -5t-40 -18
t-31 -37t-12 -63q0 -37 16.5 -60t45.5 -33t65 -10zM160 530q-3 0 -3.5 2t0.5 4l64 88q2 3 6 3h39q5 0 6 -3l63 -88q2 -2 1.5 -4t-4.5 -2h-29q-4 0 -7 3l-47 54q-3 4 -8 0l-45 -54q-2 -3 -7 -3h-29z" />
    <glyph glyph-name="atilde" unicode="&#xe3;" horiz-adv-x="484" 
d="M232 -8q-48 0 -88.5 11t-65 42.5t-24.5 90.5q0 50 16.5 82.5t43.5 50t59 24.5t62 7q32 0 64 -3t50 -7q15 -3 15 22q0 66 -31.5 93t-100.5 27q-40 0 -73.5 -10t-55.5 -25q-4 -3 -7 -2.5t-3 4.5l-5 32q-1 5 0.5 6.5t4.5 3.5q23 17 58.5 26.5t80.5 9.5q64 0 101 -14.5
t55.5 -39.5t25 -57.5t6.5 -68.5q1 -51 0.5 -93.5t-2.5 -83t-6 -83.5q-1 -6 -5.5 -11.5t-19.5 -11.5q-14 -5 -33.5 -9t-40.5 -7t-41.5 -4.5t-39.5 -1.5zM236 33q10 0 28.5 1.5t38.5 5t35 10.5t17 18q4 31 6 74.5t2 80.5q0 21 -15 25q-15 3 -47 7t-71 4q-17 0 -38 -5t-40 -18
t-31 -37t-12 -63q0 -37 16.5 -60t45.5 -33t65 -10zM158 535q-5 0 -5 5q0 27 15.5 44t40.5 17q14 0 29 -8.5t28.5 -17.5t22.5 -9q8 0 13 7t5 17q0 6 4 6h28q5 0 5 -6q0 -23 -15 -41.5t-40 -18.5q-16 0 -31.5 9t-28 18t-20.5 9q-9 0 -14.5 -7.5t-5.5 -18.5q0 -5 -4 -5h-27z
" />
    <glyph glyph-name="adieresis" unicode="&#xe4;" horiz-adv-x="484" 
d="M232 -8q-48 0 -88.5 11t-65 42.5t-24.5 90.5q0 50 16.5 82.5t43.5 50t59 24.5t62 7q32 0 64 -3t50 -7q15 -3 15 22q0 66 -31.5 93t-100.5 27q-40 0 -73.5 -10t-55.5 -25q-4 -3 -7 -2.5t-3 4.5l-5 32q-1 5 0.5 6.5t4.5 3.5q23 17 58.5 26.5t80.5 9.5q64 0 101 -14.5
t55.5 -39.5t25 -57.5t6.5 -68.5q1 -51 0.5 -93.5t-2.5 -83t-6 -83.5q-1 -6 -5.5 -11.5t-19.5 -11.5q-14 -5 -33.5 -9t-40.5 -7t-41.5 -4.5t-39.5 -1.5zM236 33q10 0 28.5 1.5t38.5 5t35 10.5t17 18q4 31 6 74.5t2 80.5q0 21 -15 25q-15 3 -47 7t-71 4q-17 0 -38 -5t-40 -18
t-31 -37t-12 -63q0 -37 16.5 -60t45.5 -33t65 -10zM215 573q0 -14 -6.5 -21.5t-27.5 -7.5q-19 0 -26 7.5t-7 21.5q0 16 7 23t26 7q21 0 27.5 -7t6.5 -23zM348 573q0 -14 -6 -21.5t-27 -7.5q-19 0 -26.5 7.5t-7.5 21.5q0 16 7.5 23t26.5 7q21 0 27 -7t6 -23z" />
    <glyph glyph-name="aring" unicode="&#xe5;" horiz-adv-x="484" 
d="M232 -8q-48 0 -88.5 11t-65 42.5t-24.5 90.5q0 50 16.5 82.5t43.5 50t59 24.5t62 7q32 0 64 -3t50 -7q15 -3 15 22q0 66 -31.5 93t-100.5 27q-40 0 -73.5 -10t-55.5 -25q-4 -3 -7 -2.5t-3 4.5l-5 32q-1 5 0.5 6.5t4.5 3.5q23 17 58.5 26.5t80.5 9.5q64 0 101 -14.5
t55.5 -39.5t25 -57.5t6.5 -68.5q1 -51 0.5 -93.5t-2.5 -83t-6 -83.5q-1 -6 -5.5 -11.5t-19.5 -11.5q-14 -5 -33.5 -9t-40.5 -7t-41.5 -4.5t-39.5 -1.5zM236 33q10 0 28.5 1.5t38.5 5t35 10.5t17 18q4 31 6 74.5t2 80.5q0 21 -15 25q-15 3 -47 7t-71 4q-17 0 -38 -5t-40 -18
t-31 -37t-12 -63q0 -37 16.5 -60t45.5 -33t65 -10zM329 587q0 -33 -18.5 -53.5t-61.5 -20.5q-44 0 -62.5 20.5t-18.5 53.5q0 34 18.5 53.5t62.5 19.5q43 0 61.5 -19.5t18.5 -53.5zM297 590q0 16 -8.5 27t-38.5 11q-32 0 -40.5 -11t-8.5 -27q0 -15 8 -29.5t41 -14.5t40 14.5
t7 29.5z" />
    <glyph glyph-name="ae" unicode="&#xe6;" horiz-adv-x="786" 
d="M232 -8q-48 0 -88.5 11t-65 42.5t-24.5 90.5q0 50 16.5 82.5t43.5 50t59 24.5t62 7q32 0 64 -3t50 -7q15 -3 15 22q0 66 -31.5 93t-100.5 27q-40 0 -73.5 -10t-55.5 -25q-4 -3 -7 -2.5t-3 4.5q-1 8 -2.5 16t-2.5 16q-1 5 0.5 6.5t4.5 3.5q23 17 58.5 26.5t80.5 9.5
q54 0 87.5 -11t52.5 -30.5t29 -44.5q21 41 59.5 66t100.5 25q61 0 97 -18t54.5 -48.5t24.5 -67t6 -73.5q0 -36 -7 -44t-20 -8h-142h-142q-2 0 -6 -2t-4 -7q5 -89 39 -132t109 -43q35 0 75.5 8.5t66.5 24.5q5 3 10 4.5t9 -5.5l11 -21q2 -4 0.5 -6t-5.5 -5
q-31 -25 -77.5 -34.5t-96.5 -9.5q-60 0 -96.5 19t-56.5 52l-2 -18l-2 -18q-1 -4 -5 -8.5t-17 -8.5q-20 -7 -46.5 -11.5t-54 -7t-51.5 -2.5zM361 236q0 10 -18.5 15t-48.5 6.5t-64 1.5q-17 0 -38 -5t-40 -18t-31 -37t-12 -63q0 -37 16.5 -60t45.5 -33t65 -10q10 0 29 1.5
t40 5t36 11t16 18.5q2 28 3 75t1 92zM668 261q10 0 14 3.5t4 16.5q0 39 -9.5 74t-36.5 57.5t-80 22.5q-38 0 -64 -14.5t-42 -38.5t-23 -50.5t-9 -51.5q0 -9 1.5 -12.5t8.5 -3.5q59 -1 118 -1.5t118 -1.5z" />
    <glyph glyph-name="ccedilla" unicode="&#xe7;" horiz-adv-x="391" 
d="M235 -6q-59 0 -98 18.5t-60.5 51t-30 76.5t-8.5 95q0 47 9 90t31 78t60 55t96 20q41 0 71 -9t50 -26q5 -4 6 -6t1 -8v-35q0 -6 -3.5 -6t-7.5 3q-18 20 -49.5 29t-63.5 9q-42 0 -70 -17t-44 -46t-23.5 -63.5t-7.5 -68.5q0 -58 14 -102t45.5 -68t84.5 -24q33 0 59 6.5
t48 17.5q8 4 12 -3l12 -25q3 -4 1.5 -6.5t-5.5 -4.5q-23 -16 -56.5 -23.5t-72.5 -7.5zM307 -120q0 -27 -22.5 -48.5t-63.5 -21.5q-24 0 -44 10t-31 23q-3 4 -2 8t3 5l18 9q5 3 6.5 2.5t3.5 -3.5q6 -8 19.5 -15t25.5 -7q23 0 34.5 12t11.5 26q0 18 -12 26t-30 11t-35 4
q-5 1 -7 5t1 10l36 59q3 5 6 6t6 1h18q9 0 5 -8l-31 -62l-8 14q38 -1 65 -16.5t27 -49.5z" />
    <glyph glyph-name="egrave" unicode="&#xe8;" horiz-adv-x="457" 
d="M42 237q0 47 9 90t31 77t60 54t96 20q61 0 97 -18t54.5 -47.5t24.5 -65.5t6 -72t-7 -44t-20 -8h-285q-2 0 -6 -2t-4 -11q1 -50 16 -89t47.5 -60.5t84.5 -21.5q34 0 71.5 8t64.5 22q7 4 11.5 4.5t7.5 -6.5l10 -20q3 -4 1.5 -6.5t-5.5 -5.5q-32 -20 -76.5 -30.5
t-91.5 -10.5q-60 0 -98.5 19t-60 52t-30 77t-8.5 95zM363 284q0 38 -9.5 71.5t-36.5 55t-80 21.5q-38 0 -64.5 -14.5t-42 -37.5t-22.5 -49.5t-9 -50.5q-1 -9 0.5 -12.5t10.5 -3.5h235q10 0 14.5 3.5t3.5 16.5zM237 531q-6 0 -11 5l-66 87q-1 2 0 4t2 2h48q4 0 7 -1t4 -5
l49 -86q3 -6 -2 -6h-31z" />
    <glyph glyph-name="eacute" unicode="&#xe9;" horiz-adv-x="457" 
d="M42 237q0 47 9 90t31 77t60 54t96 20q61 0 97 -18t54.5 -47.5t24.5 -65.5t6 -72t-7 -44t-20 -8h-285q-2 0 -6 -2t-4 -11q1 -50 16 -89t47.5 -60.5t84.5 -21.5q34 0 71.5 8t64.5 22q7 4 11.5 4.5t7.5 -6.5l10 -20q3 -4 1.5 -6.5t-5.5 -5.5q-32 -20 -76.5 -30.5
t-91.5 -10.5q-60 0 -98.5 19t-60 52t-30 77t-8.5 95zM363 284q0 38 -9.5 71.5t-36.5 55t-80 21.5q-38 0 -64.5 -14.5t-42 -37.5t-22.5 -49.5t-9 -50.5q-1 -9 0.5 -12.5t10.5 -3.5h235q10 0 14.5 3.5t3.5 16.5zM204 530q-5 0 -5 2t2 5l52 87q2 5 11 5h44q3 0 4 -1.5t-3 -4.5
l-65 -89q-2 -2 -4 -3t-6 -1h-30z" />
    <glyph glyph-name="ecircumflex" unicode="&#xea;" horiz-adv-x="457" 
d="M42 237q0 47 9 90t31 77t60 54t96 20q61 0 97 -18t54.5 -47.5t24.5 -65.5t6 -72t-7 -44t-20 -8h-285q-2 0 -6 -2t-4 -11q1 -50 16 -89t47.5 -60.5t84.5 -21.5q34 0 71.5 8t64.5 22q7 4 11.5 4.5t7.5 -6.5l10 -20q3 -4 1.5 -6.5t-5.5 -5.5q-32 -20 -76.5 -30.5
t-91.5 -10.5q-60 0 -98.5 19t-60 52t-30 77t-8.5 95zM363 284q0 38 -9.5 71.5t-36.5 55t-80 21.5q-38 0 -64.5 -14.5t-42 -37.5t-22.5 -49.5t-9 -50.5q-1 -9 0.5 -12.5t10.5 -3.5h235q10 0 14.5 3.5t3.5 16.5zM147 530q-3 0 -3.5 2t0.5 4l64 88q2 3 6 3h39q5 0 6 -3l63 -88
q2 -2 1.5 -4t-4.5 -2h-29q-4 0 -7 3l-47 54q-3 4 -8 0l-45 -54q-2 -3 -7 -3h-29z" />
    <glyph glyph-name="edieresis" unicode="&#xeb;" horiz-adv-x="457" 
d="M42 237q0 47 9 90t31 77t60 54t96 20q61 0 97 -18t54.5 -47.5t24.5 -65.5t6 -72t-7 -44t-20 -8h-285q-2 0 -6 -2t-4 -11q1 -50 16 -89t47.5 -60.5t84.5 -21.5q34 0 71.5 8t64.5 22q7 4 11.5 4.5t7.5 -6.5l10 -20q3 -4 1.5 -6.5t-5.5 -5.5q-32 -20 -76.5 -30.5
t-91.5 -10.5q-60 0 -98.5 19t-60 52t-30 77t-8.5 95zM363 284q0 38 -9.5 71.5t-36.5 55t-80 21.5q-38 0 -64.5 -14.5t-42 -37.5t-22.5 -49.5t-9 -50.5q-1 -9 0.5 -12.5t10.5 -3.5h235q10 0 14.5 3.5t3.5 16.5zM202 573q0 -14 -6.5 -21.5t-27.5 -7.5q-19 0 -26 7.5t-7 21.5
q0 16 7 23t26 7q21 0 27.5 -7t6.5 -23zM335 573q0 -14 -6 -21.5t-27 -7.5q-19 0 -26.5 7.5t-7.5 21.5q0 16 7.5 23t26.5 7q21 0 27 -7t6 -23z" />
    <glyph glyph-name="igrave" unicode="&#xec;" horiz-adv-x="200" 
d="M127 6q0 -6 -5 -6h-44q-6 0 -6 6v460q0 6 6 6h44q5 0 5 -6v-460zM101 531q-6 0 -11 5l-66 87q-1 2 0 4t2 2h48q4 0 7 -1t4 -5l49 -86q3 -6 -2 -6h-31z" />
    <glyph glyph-name="iacute" unicode="&#xed;" horiz-adv-x="200" 
d="M127 6q0 -6 -5 -6h-44q-6 0 -6 6v460q0 6 6 6h44q5 0 5 -6v-460zM67 530q-5 0 -5 2t2 5l52 87q2 5 11 5h44q3 0 4 -1.5t-3 -4.5l-65 -89q-2 -2 -4 -3t-6 -1h-30z" />
    <glyph glyph-name="icircumflex" unicode="&#xee;" horiz-adv-x="200" 
d="M127 6q0 -6 -5 -6h-44q-6 0 -6 6v460q0 6 6 6h44q5 0 5 -6v-460zM11 530q-3 0 -3.5 2t0.5 4l64 88q2 3 6 3h39q5 0 6 -3l63 -88q2 -2 1.5 -4t-4.5 -2h-29q-4 0 -7 3l-47 54q-3 4 -8 0l-45 -54q-2 -3 -7 -3h-29z" />
    <glyph glyph-name="idieresis" unicode="&#xef;" horiz-adv-x="200" 
d="M127 6q0 -6 -5 -6h-44q-6 0 -6 6v460q0 6 6 6h44q5 0 5 -6v-460zM66 573q0 -14 -6.5 -21.5t-27.5 -7.5q-19 0 -26 7.5t-7 21.5q0 16 7 23t26 7q21 0 27.5 -7t6.5 -23zM199 573q0 -14 -6 -21.5t-27 -7.5q-19 0 -26.5 7.5t-7.5 21.5q0 16 7.5 23t26.5 7q21 0 27 -7t6 -23z
" />
    <glyph glyph-name="eth" unicode="&#xf0;" horiz-adv-x="514" 
d="M460 240q0 -67 -18 -123t-62 -90t-123 -34q-75 0 -119.5 31.5t-64 87t-19.5 126.5t20 126.5t64.5 86.5t118.5 31q25 0 46 -5t39 -14q-20 27 -44 51.5t-53 47.5q-26 20 -54 36.5t-55 31.5q-4 3 -4.5 5.5t1.5 4.5q3 7 8.5 15t9.5 14q2 2 5 2.5t7 -1.5q13 -7 25.5 -14.5
t25.5 -14.5q78 -45 132.5 -105.5t84 -135t29.5 -160.5zM404 237q0 94 -34.5 145.5t-112.5 51.5t-112.5 -51t-34.5 -146t34 -147t113 -52q78 0 112.5 53t34.5 146zM140 515q-2 -2 -3.5 -2t-2.5 2l-14 22q-1 2 -0.5 3t3.5 3l199 123q3 2 4 1.5t2 -2.5l14 -23q2 -1 1.5 -2
t-3.5 -3z" />
    <glyph glyph-name="ntilde" unicode="&#xf1;" 
d="M79 0q-7 0 -7 6v214v214q0 6 3.5 10t15.5 8q14 4 39 10t54.5 11t54.5 5q75 0 116 -30t56.5 -81t15.5 -114q0 -48 -2 -96t-4 -87t-4 -60q-1 -7 -3 -8.5t-9 -1.5h-33q-7 0 -9 2t-1 8q0 7 1.5 32.5t3.5 61.5t3 76t1 76q0 55 -13.5 93.5t-43 58.5t-76.5 20q-24 0 -48.5 -4.5
t-44.5 -12.5q-6 -1 -12 -6t-6 -17v-124v-128.5v-129.5q0 -6 -5 -6h-43zM160 535q-5 0 -5 5q0 27 15.5 44t40.5 17q14 0 29 -8.5t28.5 -17.5t22.5 -9q8 0 13 7t5 17q0 6 4 6h28q5 0 5 -6q0 -23 -15 -41.5t-40 -18.5q-16 0 -31.5 9t-28 18t-20.5 9q-9 0 -14.5 -7.5t-5.5 -18.5
q0 -5 -4 -5h-27z" />
    <glyph glyph-name="ograve" unicode="&#xf2;" 
d="M245 -6q-80 0 -124 31t-61.5 86t-17.5 126q0 70 19 124.5t63.5 85.5t120.5 31q77 0 121 -31t63 -85.5t19 -124.5q0 -71 -17.5 -126t-61 -86t-124.5 -31zM245 40q81 0 114 51.5t33 144.5t-35.5 143.5t-111.5 50.5t-111.5 -50.5t-35.5 -143.5q0 -94 33 -145t114 -51z
M247 531q-6 0 -11 5l-66 87q-1 2 0 4t2 2h48q4 0 7 -1t4 -5l49 -86q3 -6 -2 -6h-31z" />
    <glyph glyph-name="oacute" unicode="&#xf3;" 
d="M245 -6q-80 0 -124 31t-61.5 86t-17.5 126q0 70 19 124.5t63.5 85.5t120.5 31q77 0 121 -31t63 -85.5t19 -124.5q0 -71 -17.5 -126t-61 -86t-124.5 -31zM245 40q81 0 114 51.5t33 144.5t-35.5 143.5t-111.5 50.5t-111.5 -50.5t-35.5 -143.5q0 -94 33 -145t114 -51z
M213 530q-5 0 -5 2t2 5l52 87q2 5 11 5h44q3 0 4 -1.5t-3 -4.5l-65 -89q-2 -2 -4 -3t-6 -1h-30z" />
    <glyph glyph-name="ocircumflex" unicode="&#xf4;" 
d="M245 -6q-80 0 -124 31t-61.5 86t-17.5 126q0 70 19 124.5t63.5 85.5t120.5 31q77 0 121 -31t63 -85.5t19 -124.5q0 -71 -17.5 -126t-61 -86t-124.5 -31zM245 40q81 0 114 51.5t33 144.5t-35.5 143.5t-111.5 50.5t-111.5 -50.5t-35.5 -143.5q0 -94 33 -145t114 -51z
M156 530q-3 0 -3.5 2t0.5 4l64 88q2 3 6 3h39q5 0 6 -3l63 -88q2 -2 1.5 -4t-4.5 -2h-29q-4 0 -7 3l-47 54q-3 4 -8 0l-45 -54q-2 -3 -7 -3h-29z" />
    <glyph glyph-name="otilde" unicode="&#xf5;" 
d="M245 -6q-80 0 -124 31t-61.5 86t-17.5 126q0 70 19 124.5t63.5 85.5t120.5 31q77 0 121 -31t63 -85.5t19 -124.5q0 -71 -17.5 -126t-61 -86t-124.5 -31zM245 40q81 0 114 51.5t33 144.5t-35.5 143.5t-111.5 50.5t-111.5 -50.5t-35.5 -143.5q0 -94 33 -145t114 -51z
M155 535q-5 0 -5 5q0 27 15.5 44t40.5 17q14 0 29 -8.5t28.5 -17.5t22.5 -9q8 0 13 7t5 17q0 6 4 6h28q5 0 5 -6q0 -23 -15 -41.5t-40 -18.5q-16 0 -31.5 9t-28 18t-20.5 9q-9 0 -14.5 -7.5t-5.5 -18.5q0 -5 -4 -5h-27z" />
    <glyph glyph-name="odieresis" unicode="&#xf6;" 
d="M245 -6q-80 0 -124 31t-61.5 86t-17.5 126q0 70 19 124.5t63.5 85.5t120.5 31q77 0 121 -31t63 -85.5t19 -124.5q0 -71 -17.5 -126t-61 -86t-124.5 -31zM245 40q81 0 114 51.5t33 144.5t-35.5 143.5t-111.5 50.5t-111.5 -50.5t-35.5 -143.5q0 -94 33 -145t114 -51z
M212 573q0 -14 -6.5 -21.5t-27.5 -7.5q-19 0 -26 7.5t-7 21.5q0 16 7 23t26 7q21 0 27.5 -7t6.5 -23zM345 573q0 -14 -6 -21.5t-27 -7.5q-19 0 -26.5 7.5t-7.5 21.5q0 16 7.5 23t26.5 7q21 0 27 -7t6 -23z" />
    <glyph glyph-name="divide" unicode="&#xf7;" horiz-adv-x="461" 
d="M267 179q0 -16 -7 -23.5t-29 -7.5q-20 0 -27 7.5t-7 23.5q0 14 7 22t27 8q22 0 29 -8t7 -22zM267 423q0 -15 -7 -23t-29 -8q-20 0 -27 8t-7 23q0 14 7 22t27 8q22 0 29 -8t7 -22zM57 280q-5 0 -6 1.5t-1 4.5v32q0 3 1.5 4.5t5.5 1.5h347q4 0 5.5 -1.5t1.5 -4.5v-33
q0 -2 -1.5 -3.5t-5.5 -1.5h-347z" />
    <glyph glyph-name="oslash" unicode="&#xf8;" horiz-adv-x="486" 
d="M245 -6q-80 0 -124 31t-61.5 86t-17.5 126q0 70 19 124.5t63.5 85.5t120.5 31q77 0 121 -31t63 -85.5t19 -124.5q0 -71 -17.5 -126t-61 -86t-124.5 -31zM245 40q81 0 114 51.5t33 144.5t-35.5 143.5t-111.5 50.5t-111.5 -50.5t-35.5 -143.5q0 -94 33 -145t114 -51z
M108 -70q-2 -6 -8 -6h-33q-1 0 -1.5 2t0.5 5l316 599q2 3 4 4t4 1h32q3 0 3 -1.5t-3 -7.5z" />
    <glyph glyph-name="ugrave" unicode="&#xf9;" 
d="M251 -4q-75 0 -115.5 30t-56.5 81t-16 113q0 48 2 95.5t4 86.5t3 60q1 7 4 8.5t10 1.5h32q7 0 9 -1t1 -9q0 -7 -1.5 -32t-3 -60.5t-2.5 -76t-1 -77.5q0 -79 30.5 -125.5t100.5 -46.5q8 0 26.5 1.5t38.5 6t33.5 12t13.5 18.5v383q0 3 1 5t3 2h45q2 0 4 -1t2 -5v-418
q0 -12 -6 -17t-24 -12q-8 -3 -31 -8.5t-52 -10t-54 -4.5zM246 531q-6 0 -11 5l-66 87q-1 2 0 4t2 2h48q4 0 7 -1t4 -5l49 -86q3 -6 -2 -6h-31z" />
    <glyph glyph-name="uacute" unicode="&#xfa;" 
d="M251 -4q-75 0 -115.5 30t-56.5 81t-16 113q0 48 2 95.5t4 86.5t3 60q1 7 4 8.5t10 1.5h32q7 0 9 -1t1 -9q0 -7 -1.5 -32t-3 -60.5t-2.5 -76t-1 -77.5q0 -79 30.5 -125.5t100.5 -46.5q8 0 26.5 1.5t38.5 6t33.5 12t13.5 18.5v383q0 3 1 5t3 2h45q2 0 4 -1t2 -5v-418
q0 -12 -6 -17t-24 -12q-8 -3 -31 -8.5t-52 -10t-54 -4.5zM213 530q-5 0 -5 2t2 5l52 87q2 5 11 5h44q3 0 4 -1.5t-3 -4.5l-65 -89q-2 -2 -4 -3t-6 -1h-30z" />
    <glyph glyph-name="ucircumflex" unicode="&#xfb;" 
d="M251 -4q-75 0 -115.5 30t-56.5 81t-16 113q0 48 2 95.5t4 86.5t3 60q1 7 4 8.5t10 1.5h32q7 0 9 -1t1 -9q0 -7 -1.5 -32t-3 -60.5t-2.5 -76t-1 -77.5q0 -79 30.5 -125.5t100.5 -46.5q8 0 26.5 1.5t38.5 6t33.5 12t13.5 18.5v383q0 3 1 5t3 2h45q2 0 4 -1t2 -5v-418
q0 -12 -6 -17t-24 -12q-8 -3 -31 -8.5t-52 -10t-54 -4.5zM156 530q-3 0 -3.5 2t0.5 4l64 88q2 3 6 3h39q5 0 6 -3l63 -88q2 -2 1.5 -4t-4.5 -2h-29q-4 0 -7 3l-47 54q-3 4 -8 0l-45 -54q-2 -3 -7 -3h-29z" />
    <glyph glyph-name="udieresis" unicode="&#xfc;" 
d="M251 -4q-75 0 -115.5 30t-56.5 81t-16 113q0 48 2 95.5t4 86.5t3 60q1 7 4 8.5t10 1.5h32q7 0 9 -1t1 -9q0 -7 -1.5 -32t-3 -60.5t-2.5 -76t-1 -77.5q0 -79 30.5 -125.5t100.5 -46.5q8 0 26.5 1.5t38.5 6t33.5 12t13.5 18.5v383q0 3 1 5t3 2h45q2 0 4 -1t2 -5v-418
q0 -12 -6 -17t-24 -12q-8 -3 -31 -8.5t-52 -10t-54 -4.5zM211 573q0 -14 -6.5 -21.5t-27.5 -7.5q-19 0 -26 7.5t-7 21.5q0 16 7 23t26 7q21 0 27.5 -7t6.5 -23zM344 573q0 -14 -6 -21.5t-27 -7.5q-19 0 -26.5 7.5t-7.5 21.5q0 16 7.5 23t26.5 7q21 0 27 -7t6 -23z" />
    <glyph glyph-name="yacute" unicode="&#xfd;" horiz-adv-x="408" 
d="M168 59q-25 34 -47.5 84.5t-41 108t-31.5 113t-19 97.5q-2 10 7 10h42q4 0 7.5 -2t4.5 -10q2 -27 10.5 -66t20.5 -81.5t26 -83t28 -72t27 -48.5q4 -7 8 -6.5t5 3.5q14 24 31 67.5t33 95.5t28 103t16 90q0 7 3.5 8.5t8.5 1.5h38q5 0 7.5 -1.5t0.5 -8.5q-4 -35 -11.5 -69
t-16.5 -67.5t-21 -68.5q-11 -36 -28 -85t-41.5 -100.5t-56.5 -96.5t-74.5 -72.5t-96.5 -27.5q-13 0 -24 1.5t-21 3.5q-10 4 -7 11l11 27q2 3 4.5 3.5t7.5 -0.5q27 -4 58 6t54 30q19 16 29.5 28.5t21.5 31.5q5 8 5.5 19.5t-6.5 22.5zM176 530q-5 0 -5 2t2 5l52 87q2 5 11 5
h44q3 0 4 -1.5t-3 -4.5l-65 -89q-2 -2 -4 -3t-6 -1h-30z" />
    <glyph glyph-name="thorn" unicode="&#xfe;" horiz-adv-x="504" 
d="M451 244q0 -65 -16 -111t-42 -75t-57.5 -43.5t-61.5 -17.5q-34 -2 -71 5.5t-61 22.5q-3 1 -5.5 1.5t-3.5 -2.5q-2 -29 -3.5 -58t-2.5 -57q0 -6 -1 -11.5t-2 -9.5q-5 -2 -10.5 -2.5t-12.5 -0.5t-14 1t-12 2q-2 144 -2.5 287.5t-0.5 288.5q0 34 1 68t2 67q5 1 11 2t13 1
t14 -0.5t12 -2.5q1 -34 2 -69.5t1 -72.5q0 -5 1 -11t3 -9q19 16 51 29.5t79 13.5q95 0 142 -63t47 -173zM394 244q0 96 -34 143.5t-98 47.5q-25 0 -52.5 -7.5t-49 -22.5t-30.5 -40q-3 -9 -3 -21v-110.5v-110.5q0 -7 0.5 -12t2.5 -9q11 -31 48 -44t76 -13q21 0 45.5 9.5
t46 32.5t35 61t13.5 96z" />
    <glyph glyph-name="ydieresis" unicode="&#xff;" horiz-adv-x="408" 
d="M168 59q-25 34 -47.5 84.5t-41 108t-31.5 113t-19 97.5q-2 10 7 10h42q4 0 7.5 -2t4.5 -10q2 -27 10.5 -66t20.5 -81.5t26 -83t28 -72t27 -48.5q4 -7 8 -6.5t5 3.5q14 24 31 67.5t33 95.5t28 103t16 90q0 7 3.5 8.5t8.5 1.5h38q5 0 7.5 -1.5t0.5 -8.5q-4 -35 -11.5 -69
t-16.5 -67.5t-21 -68.5q-11 -36 -28 -85t-41.5 -100.5t-56.5 -96.5t-74.5 -72.5t-96.5 -27.5q-13 0 -24 1.5t-21 3.5q-10 4 -7 11l11 27q2 3 4.5 3.5t7.5 -0.5q27 -4 58 6t54 30q19 16 29.5 28.5t21.5 31.5q5 8 5.5 19.5t-6.5 22.5zM175 573q0 -14 -6.5 -21.5t-27.5 -7.5
q-19 0 -26 7.5t-7 21.5q0 16 7 23t26 7q21 0 27.5 -7t6.5 -23zM308 573q0 -14 -6 -21.5t-27 -7.5q-19 0 -26.5 7.5t-7.5 21.5q0 16 7.5 23t26.5 7q21 0 27 -7t6 -23z" />
    <glyph glyph-name="Amacron" unicode="&#x100;" horiz-adv-x="554" 
d="M49 0q-5 0 -5.5 2.5t-0.5 9.5q7 48 21 115t33 142.5t40.5 150.5t44.5 139t44 106q2 4 5 6t6 2h79q4 -1 7 -2t5 -6q20 -41 42.5 -105.5t44.5 -140.5t41.5 -153t33.5 -143t20 -110q1 -8 0.5 -10.5t-5.5 -2.5h-44q-3 0 -4.5 2t-3.5 8q-4 28 -11.5 66t-15.5 80q-1 6 -4 7.5
t-9 1.5h-274q-5 0 -7 -2t-4 -8q-9 -41 -16.5 -79t-12.5 -66q0 -6 -1.5 -8t-5.5 -2h-43zM151 212h249q4 0 7 3.5t1 12.5q-24 94 -49 188.5t-62 181.5q-2 6 -9 6h-22q-7 0 -9 -7q-18 -43 -38.5 -105.5t-39.5 -132.5t-35 -136q-1 -3 0 -7t7 -4zM381 748q0 -1 -1 -2t-4 -1h-198
q-3 0 -4 1t-1 3v32q0 3 1 4t4 1h198q3 0 4 -0.5t1 -3.5v-34z" />
    <glyph glyph-name="amacron" unicode="&#x101;" horiz-adv-x="484" 
d="M232 -8q-48 0 -88.5 11t-65 42.5t-24.5 90.5q0 50 16.5 82.5t43.5 50t59 24.5t62 7q32 0 64 -3t50 -7q15 -3 15 22q0 66 -31.5 93t-100.5 27q-40 0 -73.5 -10t-55.5 -25q-4 -3 -7 -2.5t-3 4.5l-5 32q-1 5 0.5 6.5t4.5 3.5q23 17 58.5 26.5t80.5 9.5q64 0 101 -14.5
t55.5 -39.5t25 -57.5t6.5 -68.5q1 -51 0.5 -93.5t-2.5 -83t-6 -83.5q-1 -6 -5.5 -11.5t-19.5 -11.5q-14 -5 -33.5 -9t-40.5 -7t-41.5 -4.5t-39.5 -1.5zM236 33q10 0 28.5 1.5t38.5 5t35 10.5t17 18q4 31 6 74.5t2 80.5q0 21 -15 25q-15 3 -47 7t-71 4q-17 0 -38 -5t-40 -18
t-31 -37t-12 -63q0 -37 16.5 -60t45.5 -33t65 -10zM353 548q0 -1 -1 -2t-4 -1h-198q-3 0 -4 1t-1 3v32q0 3 1 4t4 1h198q3 0 4 -0.5t1 -3.5v-34z" />
    <glyph glyph-name="Abreve" unicode="&#x102;" horiz-adv-x="554" 
d="M49 0q-5 0 -5.5 2.5t-0.5 9.5q7 48 21 115t33 142.5t40.5 150.5t44.5 139t44 106q2 4 5 6t6 2h79q4 -1 7 -2t5 -6q20 -41 42.5 -105.5t44.5 -140.5t41.5 -153t33.5 -143t20 -110q1 -8 0.5 -10.5t-5.5 -2.5h-44q-3 0 -4.5 2t-3.5 8q-4 28 -11.5 66t-15.5 80q-1 6 -4 7.5
t-9 1.5h-274q-5 0 -7 -2t-4 -8q-9 -41 -16.5 -79t-12.5 -66q0 -6 -1.5 -8t-5.5 -2h-43zM151 212h249q4 0 7 3.5t1 12.5q-24 94 -49 188.5t-62 181.5q-2 6 -9 6h-22q-7 0 -9 -7q-18 -43 -38.5 -105.5t-39.5 -132.5t-35 -136q-1 -3 0 -7t7 -4zM278 716q-41 0 -62 19.5
t-23 59.5q0 2 1 4t4 2h26q3 0 4 -1t1 -4q2 -25 14.5 -35t34.5 -10t35.5 10.5t13.5 35.5q0 2 1.5 3t3.5 1h26q2 0 3 -1t1 -5q0 -38 -20.5 -58.5t-63.5 -20.5z" />
    <glyph glyph-name="abreve" unicode="&#x103;" horiz-adv-x="484" 
d="M232 -8q-48 0 -88.5 11t-65 42.5t-24.5 90.5q0 50 16.5 82.5t43.5 50t59 24.5t62 7q32 0 64 -3t50 -7q15 -3 15 22q0 66 -31.5 93t-100.5 27q-40 0 -73.5 -10t-55.5 -25q-4 -3 -7 -2.5t-3 4.5l-5 32q-1 5 0.5 6.5t4.5 3.5q23 17 58.5 26.5t80.5 9.5q64 0 101 -14.5
t55.5 -39.5t25 -57.5t6.5 -68.5q1 -51 0.5 -93.5t-2.5 -83t-6 -83.5q-1 -6 -5.5 -11.5t-19.5 -11.5q-14 -5 -33.5 -9t-40.5 -7t-41.5 -4.5t-39.5 -1.5zM236 33q10 0 28.5 1.5t38.5 5t35 10.5t17 18q4 31 6 74.5t2 80.5q0 21 -15 25q-15 3 -47 7t-71 4q-17 0 -38 -5t-40 -18
t-31 -37t-12 -63q0 -37 16.5 -60t45.5 -33t65 -10zM249 528q-44 0 -67.5 19t-25.5 60q0 4 1 5.5t5 1.5h28q4 0 5 -1t1 -5q2 -24 15.5 -34t37.5 -10q25 0 38.5 10t13.5 35q0 3 1.5 4t4.5 1h29q3 0 3.5 -1.5t0.5 -5.5q-1 -38 -22 -58.5t-69 -20.5z" />
    <glyph glyph-name="Aogonek" unicode="&#x104;" horiz-adv-x="554" 
d="M49 0q-5 0 -5.5 2.5t-0.5 9.5q7 48 21 115t33 142.5t40.5 150.5t44.5 139t44 106q2 4 5 6t6 2h79q4 -1 7 -2t5 -6q20 -41 42.5 -105.5t44.5 -140.5t41.5 -153t33.5 -143t20 -110q1 -8 0.5 -10.5t-5.5 -2.5h-44q-3 0 -4.5 2t-3.5 8q-4 28 -11.5 66t-15.5 80q-1 6 -4 7.5
t-9 1.5h-274q-5 0 -7 -2t-4 -8q-9 -41 -16.5 -79t-12.5 -66q0 -6 -1.5 -8t-5.5 -2h-43zM151 212h249q4 0 7 3.5t1 12.5q-24 94 -49 188.5t-62 181.5q-2 6 -9 6h-22q-7 0 -9 -7q-18 -43 -38.5 -105.5t-39.5 -132.5t-35 -136q-1 -3 0 -7t7 -4zM435 -210q-32 0 -55 20t-23 51
q0 30 15 55.5t37.5 46.5t43.5 35q4 2 9.5 4t11.5 2h31q3 0 4.5 -3t-4.5 -6q-24 -17 -48 -38t-39.5 -44t-15.5 -48q0 -19 11.5 -28.5t29.5 -8.5q19 0 37 9.5t30 20.5q3 3 5.5 2.5t2.5 -4.5v-25q0 -9 -9 -16q-12 -9 -30 -17t-44 -8z" />
    <glyph glyph-name="aogonek" unicode="&#x105;" horiz-adv-x="484" 
d="M232 -8q-48 0 -88.5 11t-65 42.5t-24.5 90.5q0 50 16.5 82.5t43.5 50t59 24.5t62 7q32 0 64 -3t50 -7q15 -3 15 22q0 66 -31.5 93t-100.5 27q-40 0 -73.5 -10t-55.5 -25q-4 -3 -7 -2.5t-3 4.5l-5 32q-1 5 0.5 6.5t4.5 3.5q23 17 58.5 26.5t80.5 9.5q64 0 101 -14.5
t55.5 -39.5t25 -57.5t6.5 -68.5q1 -51 0.5 -93.5t-2.5 -83t-6 -83.5q-1 -6 -5.5 -11.5t-19.5 -11.5q-14 -5 -33.5 -9t-40.5 -7t-41.5 -4.5t-39.5 -1.5zM236 33q10 0 28.5 1.5t38.5 5t35 10.5t17 18q4 31 6 74.5t2 80.5q0 21 -15 25q-15 3 -47 7t-71 4q-17 0 -38 -5t-40 -18
t-31 -37t-12 -63q0 -37 16.5 -60t45.5 -33t65 -10zM234 -197q-32 0 -55 20t-23 51q0 30 15 55.5t37.5 46.5t43.5 35q4 2 9.5 4t11.5 2h31q3 0 4.5 -3t-4.5 -6q-24 -17 -48 -38t-39.5 -44t-15.5 -48q0 -19 11.5 -28.5t29.5 -8.5q19 0 37 9.5t30 20.5q3 3 5.5 2.5t2.5 -4.5
v-25q0 -9 -9 -16q-12 -9 -30 -17t-44 -8z" />
    <glyph glyph-name="Cacute" unicode="&#x106;" horiz-adv-x="445" 
d="M408 17q0 -10 -12 -15q-14 -4 -33 -6.5t-37 -3.5t-28 -1q-110 0 -177 86.5t-67 257.5q0 172 64.5 258.5t179.5 86.5q10 0 28 -1.5t37 -4t33 -6.5q7 -2 9.5 -5.5t2.5 -7.5v-37q0 -13 -10 -7q-13 8 -37.5 15t-56.5 7q-56 0 -93.5 -23.5t-59 -64.5t-30.5 -91.5t-9 -104.5
q0 -36 4 -78.5t15.5 -83.5t33 -75t56 -54.5t83.5 -20.5q33 0 57.5 7t35.5 14q7 4 9 2t2 -8v-35zM278 720h-33q-4 0 -4 2t2 5l64 71q3 3 5.5 4.5t6.5 1.5h47q3 0 4 -2t-2 -4l-80 -73q-3 -2 -5 -3.5t-5 -1.5z" />
    <glyph glyph-name="cacute" unicode="&#x107;" horiz-adv-x="391" 
d="M235 -6q-59 0 -98 18.5t-60.5 51t-30 76.5t-8.5 95q0 47 9 90t31 78t60 55t96 20q41 0 71 -9t50 -26q5 -4 6 -6t1 -8v-35q0 -6 -3.5 -6t-7.5 3q-18 20 -49.5 29t-63.5 9q-42 0 -70 -17t-44 -46t-23.5 -63.5t-7.5 -68.5q0 -58 14 -102t45.5 -68t84.5 -24q33 0 59 6.5
t48 17.5q8 4 12 -3l12 -25q3 -4 1.5 -6.5t-5.5 -4.5q-23 -16 -56.5 -23.5t-72.5 -7.5zM203 530q-5 0 -5 2t2 5l52 87q2 5 11 5h44q3 0 4 -1.5t-3 -4.5l-65 -89q-2 -2 -4 -3t-6 -1h-30z" />
    <glyph glyph-name="Cdotaccent" unicode="&#x10a;" horiz-adv-x="445" 
d="M408 17q0 -10 -12 -15q-14 -4 -33 -6.5t-37 -3.5t-28 -1q-110 0 -177 86.5t-67 257.5q0 172 64.5 258.5t179.5 86.5q10 0 28 -1.5t37 -4t33 -6.5q7 -2 9.5 -5.5t2.5 -7.5v-37q0 -13 -10 -7q-13 8 -37.5 15t-56.5 7q-56 0 -93.5 -23.5t-59 -64.5t-30.5 -91.5t-9 -104.5
q0 -36 4 -78.5t15.5 -83.5t33 -75t56 -54.5t83.5 -20.5q33 0 57.5 7t35.5 14q7 4 9 2t2 -8v-35zM320 777q0 -17 -6.5 -25t-26.5 -8q-19 0 -26 8t-7 25q0 15 7 23.5t26 8.5q21 0 27 -8.5t6 -23.5z" />
    <glyph glyph-name="cdotaccent" unicode="&#x10b;" horiz-adv-x="391" 
d="M235 -6q-59 0 -98 18.5t-60.5 51t-30 76.5t-8.5 95q0 47 9 90t31 78t60 55t96 20q41 0 71 -9t50 -26q5 -4 6 -6t1 -8v-35q0 -6 -3.5 -6t-7.5 3q-18 20 -49.5 29t-63.5 9q-42 0 -70 -17t-44 -46t-23.5 -63.5t-7.5 -68.5q0 -58 14 -102t45.5 -68t84.5 -24q33 0 59 6.5
t48 17.5q8 4 12 -3l12 -25q3 -4 1.5 -6.5t-5.5 -4.5q-23 -16 -56.5 -23.5t-72.5 -7.5zM268 577q0 -17 -6.5 -25t-26.5 -8q-19 0 -26 8t-7 25q0 15 7 23.5t26 8.5q21 0 27 -8.5t6 -23.5z" />
    <glyph glyph-name="Ccaron" unicode="&#x10c;" horiz-adv-x="445" 
d="M408 17q0 -10 -12 -15q-14 -4 -33 -6.5t-37 -3.5t-28 -1q-110 0 -177 86.5t-67 257.5q0 172 64.5 258.5t179.5 86.5q10 0 28 -1.5t37 -4t33 -6.5q7 -2 9.5 -5.5t2.5 -7.5v-37q0 -13 -10 -7q-13 8 -37.5 15t-56.5 7q-56 0 -93.5 -23.5t-59 -64.5t-30.5 -91.5t-9 -104.5
q0 -36 4 -78.5t15.5 -83.5t33 -75t56 -54.5t83.5 -20.5q33 0 57.5 7t35.5 14q7 4 9 2t2 -8v-35zM267 719q-5 0 -7 4l-65 75q-1 2 -0.5 4.5t3.5 2.5h28q5 0 7 -4l48 -45q5 -4 8 0l50 45q3 4 7 4h28q4 0 4.5 -2.5t-1.5 -4.5l-65 -75q-1 -4 -6 -4h-39z" />
    <glyph glyph-name="ccaron" unicode="&#x10d;" horiz-adv-x="391" 
d="M235 -6q-59 0 -98 18.5t-60.5 51t-30 76.5t-8.5 95q0 47 9 90t31 78t60 55t96 20q41 0 71 -9t50 -26q5 -4 6 -6t1 -8v-35q0 -6 -3.5 -6t-7.5 3q-18 20 -49.5 29t-63.5 9q-42 0 -70 -17t-44 -46t-23.5 -63.5t-7.5 -68.5q0 -58 14 -102t45.5 -68t84.5 -24q33 0 59 6.5
t48 17.5q8 4 12 -3l12 -25q3 -4 1.5 -6.5t-5.5 -4.5q-23 -16 -56.5 -23.5t-72.5 -7.5zM216 530q-4 0 -6 3l-64 88q-1 2 -0.5 4t3.5 2h29q5 0 7 -3l45 -54q5 -5 8 0l47 54q3 3 7 3h29q4 0 4.5 -2t-1.5 -4l-63 -88q-1 -3 -6 -3h-39z" />
    <glyph glyph-name="Dcaron" unicode="&#x10e;" horiz-adv-x="577" 
d="M523 347q0 -88 -16 -149t-42 -100t-56.5 -60.5t-61 -29.5t-55.5 -8h-202q-6 0 -6 6v661q0 6 6 6h202q30 0 62 -6t62.5 -24t54.5 -54t38 -95t14 -147zM467 347q0 96 -17 152t-43.5 83.5t-56 35.5t-55.5 8h-148q-4 0 -5 -1.5t-1 -4.5v-568q0 -3 1 -4.5t4 -1.5h131
q28 0 60.5 11.5t62 43t48.5 91t19 155.5zM244 719q-5 0 -7 4l-65 75q-1 2 -0.5 4.5t3.5 2.5h28q5 0 7 -4l48 -45q5 -4 8 0l50 45q3 4 7 4h28q4 0 4.5 -2.5t-1.5 -4.5l-65 -75q-1 -4 -6 -4h-39z" />
    <glyph glyph-name="dcaron" unicode="&#x10f;" horiz-adv-x="495" 
d="M47 230q0 76 18 123.5t46.5 73.5t63 36t67.5 10q30 0 57.5 -4t45.5 -8q12 -4 16.5 -3.5t4.5 9.5q0 18 -0.5 44.5t-1.5 56.5t-2.5 58t-2 47t-1.5 22q0 6 2 7.5t5 1.5h42q3 0 5 -1t2 -5q3 -52 5.5 -107.5t3.5 -113t1.5 -115t-1 -113.5t-3.5 -108.5t-6 -100.5q-1 -6 -4 -11
t-16 -11q-26 -11 -66 -19t-83 -8q-41 1 -78 11.5t-61 34.5q-29 28 -44 76.5t-15 116.5zM103 230q0 -66 14 -105.5t39 -57.5q22 -20 56.5 -26.5t70.5 -2t62 16.5q6 3 10 6t4 8q2 26 4 62t2.5 75.5t1.5 76t1 64.5t-1 40q0 10 -4.5 14.5t-10.5 6.5q-25 6 -56 10.5t-53 4.5
q-21 0 -45.5 -7t-46 -26t-35 -58t-13.5 -102zM489 549q-2 0 -3.5 1.5t-1.5 5.5l-3 140q0 5 1.5 7t5.5 2h34q5 0 6 -2t0 -5l-3 -143q-1 -3 -2.5 -4.5t-4.5 -1.5h-29z" />
    <glyph glyph-name="Dcroat" unicode="&#x110;" horiz-adv-x="556" 
d="M534 347q0 -88 -16 -149t-42 -100t-56.5 -60.5t-61 -29.5t-55.5 -8h-202q-6 0 -6 6v661q0 6 6 6h202q30 0 62 -6t62.5 -24t54.5 -54t38 -95t14 -147zM478 347q0 96 -17 152t-43.5 83.5t-56 35.5t-55.5 8h-148q-4 0 -5 -1.5t-1 -4.5v-568q0 -3 1 -4.5t4 -1.5h131
q28 0 60.5 11.5t62 43t48.5 91t19 155.5zM13 300q-4 0 -5 2t-1 4v33q0 4 1 5t5 1h261q3 0 4 -1t1 -5v-33q0 -3 -1 -4.5t-4 -1.5h-261z" />
    <glyph glyph-name="dcroat" unicode="&#x111;" horiz-adv-x="477" 
d="M47 230q0 76 18 123.5t46.5 73.5t63 36t67.5 10q30 0 57.5 -4t45.5 -8q12 -4 16.5 -3.5t4.5 9.5q0 18 -0.5 44.5t-1.5 56.5t-2.5 58t-2 47t-1.5 22q0 6 2 7.5t5 1.5h42q3 0 5 -1t2 -5q3 -52 5.5 -107.5t3.5 -113t1.5 -115t-1 -113.5t-3.5 -108.5t-6 -100.5q-1 -6 -4 -11
t-16 -11q-26 -11 -66 -19t-83 -8q-41 1 -78 11.5t-61 34.5q-29 28 -44 76.5t-15 116.5zM103 230q0 -66 14 -105.5t39 -57.5q22 -20 56.5 -26.5t70.5 -2t62 16.5q6 3 10 6t4 8q2 26 4 62t2.5 75.5t1.5 76t1 64.5t-1 40q0 10 -4.5 14.5t-10.5 6.5q-25 6 -56 10.5t-53 4.5
q-21 0 -45.5 -7t-46 -26t-35 -58t-13.5 -102zM209 579q-4 0 -5 2t-1 4v33q0 4 1 5t5 1h261q3 0 4 -1t1 -5v-33q0 -3 -1 -4.5t-4 -1.5h-261z" />
    <glyph glyph-name="Emacron" unicode="&#x112;" horiz-adv-x="444" 
d="M90 0q-6 0 -6 6v661q0 6 6 6h311q4 0 5 -1t1 -6v-33q0 -4 -1 -5.5t-5 -1.5h-254q-4 0 -5 -2t-1 -5v-249q0 -3 2 -5.5t5 -2.5h208q4 0 5 -1t1 -6v-32q0 -4 -1 -5.5t-5 -1.5h-209q-4 0 -5 -1.5t-1 -5.5v-254q0 -4 1 -6.5t6 -2.5h252q5 0 6 -1t1 -6v-31q0 -5 -1.5 -6.5
t-5.5 -1.5h-310zM344 748q0 -1 -1 -2t-4 -1h-198q-3 0 -4 1t-1 3v32q0 3 1 4t4 1h198q3 0 4 -0.5t1 -3.5v-34z" />
    <glyph glyph-name="emacron" unicode="&#x113;" horiz-adv-x="457" 
d="M42 237q0 47 9 90t31 77t60 54t96 20q61 0 97 -18t54.5 -47.5t24.5 -65.5t6 -72t-7 -44t-20 -8h-285q-2 0 -6 -2t-4 -11q1 -50 16 -89t47.5 -60.5t84.5 -21.5q34 0 71.5 8t64.5 22q7 4 11.5 4.5t7.5 -6.5l10 -20q3 -4 1.5 -6.5t-5.5 -5.5q-32 -20 -76.5 -30.5
t-91.5 -10.5q-60 0 -98.5 19t-60 52t-30 77t-8.5 95zM363 284q0 38 -9.5 71.5t-36.5 55t-80 21.5q-38 0 -64.5 -14.5t-42 -37.5t-22.5 -49.5t-9 -50.5q-1 -9 0.5 -12.5t10.5 -3.5h235q10 0 14.5 3.5t3.5 16.5zM340 548q0 -1 -1 -2t-4 -1h-198q-3 0 -4 1t-1 3v32q0 3 1 4t4 1
h198q3 0 4 -0.5t1 -3.5v-34z" />
    <glyph glyph-name="Edotaccent" unicode="&#x116;" horiz-adv-x="444" 
d="M90 0q-6 0 -6 6v661q0 6 6 6h311q4 0 5 -1t1 -6v-33q0 -4 -1 -5.5t-5 -1.5h-254q-4 0 -5 -2t-1 -5v-249q0 -3 2 -5.5t5 -2.5h208q4 0 5 -1t1 -6v-32q0 -4 -1 -5.5t-5 -1.5h-209q-4 0 -5 -1.5t-1 -5.5v-254q0 -4 1 -6.5t6 -2.5h252q5 0 6 -1t1 -6v-31q0 -5 -1.5 -6.5
t-5.5 -1.5h-310zM273 777q0 -17 -6.5 -25t-26.5 -8q-19 0 -26 8t-7 25q0 15 7 23.5t26 8.5q21 0 27 -8.5t6 -23.5z" />
    <glyph glyph-name="edotaccent" unicode="&#x117;" horiz-adv-x="457" 
d="M42 237q0 47 9 90t31 77t60 54t96 20q61 0 97 -18t54.5 -47.5t24.5 -65.5t6 -72t-7 -44t-20 -8h-285q-2 0 -6 -2t-4 -11q1 -50 16 -89t47.5 -60.5t84.5 -21.5q34 0 71.5 8t64.5 22q7 4 11.5 4.5t7.5 -6.5l10 -20q3 -4 1.5 -6.5t-5.5 -5.5q-32 -20 -76.5 -30.5
t-91.5 -10.5q-60 0 -98.5 19t-60 52t-30 77t-8.5 95zM363 284q0 38 -9.5 71.5t-36.5 55t-80 21.5q-38 0 -64.5 -14.5t-42 -37.5t-22.5 -49.5t-9 -50.5q-1 -9 0.5 -12.5t10.5 -3.5h235q10 0 14.5 3.5t3.5 16.5zM269 577q0 -17 -6.5 -25t-26.5 -8q-19 0 -26 8t-7 25
q0 15 7 23.5t26 8.5q21 0 27 -8.5t6 -23.5z" />
    <glyph glyph-name="Eogonek" unicode="&#x118;" horiz-adv-x="444" 
d="M90 0q-6 0 -6 6v661q0 6 6 6h311q4 0 5 -1t1 -6v-33q0 -4 -1 -5.5t-5 -1.5h-254q-4 0 -5 -2t-1 -5v-249q0 -3 2 -5.5t5 -2.5h208q4 0 5 -1t1 -6v-32q0 -4 -1 -5.5t-5 -1.5h-209q-4 0 -5 -1.5t-1 -5.5v-254q0 -4 1 -6.5t6 -2.5h252q5 0 6 -1t1 -6v-31q0 -5 -1.5 -6.5
t-5.5 -1.5h-310zM236 -202q-32 0 -55 20t-23 51q0 30 15 55.5t37.5 46.5t43.5 35q4 2 9.5 4t11.5 2h31q3 0 4.5 -3t-4.5 -6q-24 -17 -48 -38t-39.5 -44t-15.5 -48q0 -19 11.5 -28.5t29.5 -8.5q19 0 37 9.5t30 20.5q3 3 5.5 2.5t2.5 -4.5v-25q0 -9 -9 -16q-12 -9 -30 -17
t-44 -8z" />
    <glyph glyph-name="eogonek" unicode="&#x119;" horiz-adv-x="457" 
d="M42 237q0 47 9 90t31 77t60 54t96 20q61 0 97 -18t54.5 -47.5t24.5 -65.5t6 -72t-7 -44t-20 -8h-285q-2 0 -6 -2t-4 -11q1 -50 16 -89t47.5 -60.5t84.5 -21.5q34 0 71.5 8t64.5 22q7 4 11.5 4.5t7.5 -6.5l10 -20q3 -4 1.5 -6.5t-5.5 -5.5q-32 -20 -76.5 -30.5
t-91.5 -10.5q-60 0 -98.5 19t-60 52t-30 77t-8.5 95zM363 284q0 38 -9.5 71.5t-36.5 55t-80 21.5q-38 0 -64.5 -14.5t-42 -37.5t-22.5 -49.5t-9 -50.5q-1 -9 0.5 -12.5t10.5 -3.5h235q10 0 14.5 3.5t3.5 16.5zM204 -201q-32 0 -55 20t-23 51q0 30 15 55.5t37.5 46.5t43.5 35
q4 2 9.5 4t11.5 2h31q3 0 4.5 -3t-4.5 -6q-24 -17 -48 -38t-39.5 -44t-15.5 -48q0 -19 11.5 -28.5t29.5 -8.5q19 0 37 9.5t30 20.5q3 3 5.5 2.5t2.5 -4.5v-25q0 -9 -9 -16q-12 -9 -30 -17t-44 -8z" />
    <glyph glyph-name="Ecaron" unicode="&#x11a;" horiz-adv-x="444" 
d="M90 0q-6 0 -6 6v661q0 6 6 6h311q4 0 5 -1t1 -6v-33q0 -4 -1 -5.5t-5 -1.5h-254q-4 0 -5 -2t-1 -5v-249q0 -3 2 -5.5t5 -2.5h208q4 0 5 -1t1 -6v-32q0 -4 -1 -5.5t-5 -1.5h-209q-4 0 -5 -1.5t-1 -5.5v-254q0 -4 1 -6.5t6 -2.5h252q5 0 6 -1t1 -6v-31q0 -5 -1.5 -6.5
t-5.5 -1.5h-310zM221 719q-5 0 -7 4l-65 75q-1 2 -0.5 4.5t3.5 2.5h28q5 0 7 -4l48 -45q5 -4 8 0l50 45q3 4 7 4h28q4 0 4.5 -2.5t-1.5 -4.5l-65 -75q-1 -4 -6 -4h-39z" />
    <glyph glyph-name="ecaron" unicode="&#x11b;" horiz-adv-x="457" 
d="M42 237q0 47 9 90t31 77t60 54t96 20q61 0 97 -18t54.5 -47.5t24.5 -65.5t6 -72t-7 -44t-20 -8h-285q-2 0 -6 -2t-4 -11q1 -50 16 -89t47.5 -60.5t84.5 -21.5q34 0 71.5 8t64.5 22q7 4 11.5 4.5t7.5 -6.5l10 -20q3 -4 1.5 -6.5t-5.5 -5.5q-32 -20 -76.5 -30.5
t-91.5 -10.5q-60 0 -98.5 19t-60 52t-30 77t-8.5 95zM363 284q0 38 -9.5 71.5t-36.5 55t-80 21.5q-38 0 -64.5 -14.5t-42 -37.5t-22.5 -49.5t-9 -50.5q-1 -9 0.5 -12.5t10.5 -3.5h235q10 0 14.5 3.5t3.5 16.5zM216 530q-4 0 -6 3l-64 88q-1 2 -0.5 4t3.5 2h29q5 0 7 -3
l45 -54q5 -5 8 0l47 54q3 3 7 3h29q4 0 4.5 -2t-1.5 -4l-63 -88q-1 -3 -6 -3h-39z" />
    <glyph glyph-name="Gbreve" unicode="&#x11e;" horiz-adv-x="555" 
d="M489 21q0 -11 -13.5 -17t-34 -8t-42.5 -2q-171 0 -263 83.5t-92 246.5q0 111 41 190t112 121.5t160 42.5q27 0 60 -2t55 -10q7 -2 9.5 -4.5t2.5 -8.5v-33q0 -8 -2.5 -10t-7.5 0q-25 14 -53 18t-58 4q-35 0 -80 -14.5t-86 -49t-67.5 -92t-26.5 -144.5q0 -90 27 -147.5
t69.5 -89t90 -44t90.5 -12.5t53 11v257q0 7 -2.5 9t-7.5 2h-156q-3 0 -4.5 1.5t-1.5 4.5v34q0 3 1.5 5t4.5 2h211q8 0 9.5 -2.5t1.5 -9.5v-332zM344 716q-41 0 -62 19.5t-23 59.5q0 2 1 4t4 2h26q3 0 4 -1t1 -4q2 -25 14.5 -35t34.5 -10t35.5 10.5t13.5 35.5q0 2 1.5 3
t3.5 1h26q2 0 3 -1t1 -5q0 -38 -20.5 -58.5t-63.5 -20.5z" />
    <glyph glyph-name="gbreve" unicode="&#x11f;" horiz-adv-x="486" 
d="M42 242q1 66 18.5 119.5t61.5 85t123 31.5q38 0 76.5 -6t66.5 -18q13 -4 18 -13.5t6 -29.5q9 -70 11 -171t-12 -214q-10 -85 -59 -124t-137 -39q-35 0 -75 9t-72 33q-5 5 -6.5 7.5t0.5 5.5q3 5 7 12t7 12q2 4 5.5 4.5t6.5 -2.5q17 -9 37.5 -18t44 -14.5t47.5 -5.5
q32 0 60.5 11.5t49 36.5t27.5 66q0 2 0.5 3.5t0.5 3.5q1 7 -4 7.5t-14 -1.5q-22 -6 -49.5 -11.5t-54.5 -5.5q-65 0 -107.5 28t-63.5 78.5t-20 119.5zM99 247q0 -54 13 -95.5t44.5 -65t85.5 -23.5q25 0 49 3.5t43 10.5q27 10 29 28q2 30 2.5 69t-0.5 79.5t-2.5 75.5t-4.5 59
q0 8 -3.5 17.5t-15.5 15.5q-13 6 -40 10t-54 4q-54 0 -86 -24t-46 -66t-14 -98zM251 533q-44 0 -67.5 19t-25.5 60q0 4 1 5.5t5 1.5h28q4 0 5 -1t1 -5q2 -24 15.5 -34t37.5 -10q25 0 38.5 10t13.5 35q0 3 1.5 4t4.5 1h29q3 0 3.5 -1.5t0.5 -5.5q-1 -38 -22 -58.5t-69 -20.5z
" />
    <glyph glyph-name="Gdotaccent" unicode="&#x120;" horiz-adv-x="555" 
d="M489 21q0 -11 -13.5 -17t-34 -8t-42.5 -2q-171 0 -263 83.5t-92 246.5q0 111 41 190t112 121.5t160 42.5q27 0 60 -2t55 -10q7 -2 9.5 -4.5t2.5 -8.5v-33q0 -8 -2.5 -10t-7.5 0q-25 14 -53 18t-58 4q-35 0 -80 -14.5t-86 -49t-67.5 -92t-26.5 -144.5q0 -90 27 -147.5
t69.5 -89t90 -44t90.5 -12.5t53 11v257q0 7 -2.5 9t-7.5 2h-156q-3 0 -4.5 1.5t-1.5 4.5v34q0 3 1.5 5t4.5 2h211q8 0 9.5 -2.5t1.5 -9.5v-332zM377 777q0 -17 -6.5 -25t-26.5 -8q-19 0 -26 8t-7 25q0 15 7 23.5t26 8.5q21 0 27 -8.5t6 -23.5z" />
    <glyph glyph-name="gdotaccent" unicode="&#x121;" horiz-adv-x="486" 
d="M42 242q1 66 18.5 119.5t61.5 85t123 31.5q38 0 76.5 -6t66.5 -18q13 -4 18 -13.5t6 -29.5q9 -70 11 -171t-12 -214q-10 -85 -59 -124t-137 -39q-35 0 -75 9t-72 33q-5 5 -6.5 7.5t0.5 5.5q3 5 7 12t7 12q2 4 5.5 4.5t6.5 -2.5q17 -9 37.5 -18t44 -14.5t47.5 -5.5
q32 0 60.5 11.5t49 36.5t27.5 66q0 2 0.5 3.5t0.5 3.5q1 7 -4 7.5t-14 -1.5q-22 -6 -49.5 -11.5t-54.5 -5.5q-65 0 -107.5 28t-63.5 78.5t-20 119.5zM99 247q0 -54 13 -95.5t44.5 -65t85.5 -23.5q25 0 49 3.5t43 10.5q27 10 29 28q2 30 2.5 69t-0.5 79.5t-2.5 75.5t-4.5 59
q0 8 -3.5 17.5t-15.5 15.5q-13 6 -40 10t-54 4q-54 0 -86 -24t-46 -66t-14 -98zM283 582q0 -17 -6.5 -25t-26.5 -8q-19 0 -26 8t-7 25q0 15 7 23.5t26 8.5q21 0 27 -8.5t6 -23.5z" />
    <glyph glyph-name="uni0122" unicode="&#x122;" horiz-adv-x="555" 
d="M489 21q0 -11 -13.5 -17t-34 -8t-42.5 -2q-171 0 -263 83.5t-92 246.5q0 111 41 190t112 121.5t160 42.5q27 0 60 -2t55 -10q7 -2 9.5 -4.5t2.5 -8.5v-33q0 -8 -2.5 -10t-7.5 0q-25 14 -53 18t-58 4q-35 0 -80 -14.5t-86 -49t-67.5 -92t-26.5 -144.5q0 -90 27 -147.5
t69.5 -89t90 -44t90.5 -12.5t53 11v257q0 7 -2.5 9t-7.5 2h-156q-3 0 -4.5 1.5t-1.5 4.5v34q0 3 1.5 5t4.5 2h211q8 0 9.5 -2.5t1.5 -9.5v-332zM334 -65q0 -11 -6.5 -30t-15 -38.5t-18.5 -33.5q-2 -4 -4 -4h-12h-13q-1 1 -1 2t2 6q7 13 15 34.5t13 37.5q-15 0 -20.5 7.5
t-5.5 18.5q0 13 7 21t25 8q16 0 25 -6.5t9 -22.5z" />
    <glyph glyph-name="uni0123" unicode="&#x123;" horiz-adv-x="486" 
d="M42 242q1 66 18.5 119.5t61.5 85t123 31.5q38 0 76.5 -6t66.5 -18q13 -4 18 -13.5t6 -29.5q9 -70 11 -171t-12 -214q-10 -85 -59 -124t-137 -39q-35 0 -75 9t-72 33q-5 5 -6.5 7.5t0.5 5.5q3 5 7 12t7 12q2 4 5.5 4.5t6.5 -2.5q17 -9 37.5 -18t44 -14.5t47.5 -5.5
q32 0 60.5 11.5t49 36.5t27.5 66q0 2 0.5 3.5t0.5 3.5q1 7 -4 7.5t-14 -1.5q-22 -6 -49.5 -11.5t-54.5 -5.5q-65 0 -107.5 28t-63.5 78.5t-20 119.5zM99 247q0 -54 13 -95.5t44.5 -65t85.5 -23.5q25 0 49 3.5t43 10.5q27 10 29 28q2 30 2.5 69t-0.5 79.5t-2.5 75.5t-4.5 59
q0 8 -3.5 17.5t-15.5 15.5q-13 6 -40 10t-54 4q-54 0 -86 -24t-46 -66t-14 -98zM217 586q-1 15 4 37.5t13 45.5t16 38q1 3 4 5q4 0 11.5 0.5t13.5 0.5q1 -1 0.5 -3l-1.5 -6q-3 -8 -8 -24.5t-9 -33t-6 -29.5q16 2 21.5 -6t6.5 -21q1 -14 -5 -22t-25 -9q-17 -1 -26 5t-10 22z
" />
    <glyph glyph-name="Hbar" unicode="&#x126;" horiz-adv-x="659" 
d="M43 546q-5 0 -6 1.5t-1 3.5v26q0 3 1.5 4.5t6.5 1.5h572q4 0 5.5 -1.5t1.5 -3.5v-28q0 -1 -1.5 -2.5t-5.5 -1.5h-573zM133 0q-2 0 -4.5 1t-2.5 5q-4 34 -7.5 86.5t-5.5 115.5t-2 129t2 129t5.5 115.5t8.5 85.5q0 3 2.5 4.5t4.5 1.5h22.5h21.5q3 0 5 -5q-6 -69 -9 -130
t-4 -104.5t-1 -61.5q0 -6 2 -8t6 -2h160h160q4 0 6.5 1.5t2.5 8.5q0 14 -1.5 57.5t-4.5 106t-9 132.5q2 5 5 5h22h22q2 0 4.5 -1.5t3.5 -4.5q4 -33 8 -85.5t6 -116t1 -128.5q0 -66 -2 -129t-5 -115.5t-7 -86.5q0 -4 -2.5 -5t-5.5 -1h-22h-23q-4 0 -3 6q6 43 9 89.5t3.5 88.5
t0.5 75v48q0 5 -2.5 7t-5.5 2h-160.5h-160.5q-4 0 -6.5 -2t-2.5 -7v-50.5t1 -74.5t4 -87.5t9 -88.5q0 -6 -4 -6h-22h-23z" />
    <glyph glyph-name="hbar" unicode="&#x127;" horiz-adv-x="508" 
d="M105 6v348v348q0 6 6 6h22h22q6 0 6 -6v-118v-118q0 -6 2.5 -8.5t8.5 -0.5q25 7 54 13.5t60 6.5q35 0 66 -11t55 -38t37.5 -74.5t13.5 -119.5q1 -38 -1 -78.5t-4.5 -79t-5.5 -70.5q0 -4 -2.5 -5t-8.5 -1h-17.5h-16.5q-7 0 -8.5 2t-0.5 9q5 48 7 103.5t2 107.5
q1 63 -9.5 103.5t-28 63.5t-40 32t-46.5 9q-21 0 -48.5 -4.5t-51.5 -11.5q-7 -1 -12 -6t-5 -18v-384q0 -6 -6 -6h-44q-6 0 -6 6zM33 602q-4 0 -5 2t-1 4v33q0 4 1 5t5 1h261q3 0 4 -1t1 -5v-33q0 -3 -1 -4.5t-4 -1.5h-261z" />
    <glyph glyph-name="Itilde" unicode="&#x128;" horiz-adv-x="225" 
d="M140 6q0 -6 -6 -6h-44q-6 0 -6 6v661q0 6 6 6h44q6 0 6 -6v-661zM26 721q-5 0 -5 5q0 27 15 45t38 18q14 0 28.5 -9.5t27.5 -19t22 -9.5q7 0 12 8t5 19q0 6 4 6h25q5 0 5 -6q0 -23 -14 -42.5t-38 -19.5q-15 0 -29.5 9.5t-26.5 19t-21 9.5q-8 0 -13.5 -8.5t-5.5 -19.5
q0 -5 -4 -5h-25z" />
    <glyph glyph-name="itilde" unicode="&#x129;" horiz-adv-x="200" 
d="M127 6q0 -6 -5 -6h-44q-6 0 -6 6v460q0 6 6 6h44q5 0 5 -6v-460zM9 535q-5 0 -5 5q0 27 15.5 44t40.5 17q14 0 29 -8.5t28.5 -17.5t22.5 -9q8 0 13 7t5 17q0 6 4 6h28q5 0 5 -6q0 -23 -15 -41.5t-40 -18.5q-16 0 -31.5 9t-28 18t-20.5 9q-9 0 -14.5 -7.5t-5.5 -18.5
q0 -5 -4 -5h-27z" />
    <glyph glyph-name="Imacron" unicode="&#x12a;" horiz-adv-x="225" 
d="M140 6q0 -6 -6 -6h-44q-6 0 -6 6v661q0 6 6 6h44q6 0 6 -6v-661zM217 748q0 -1 -1 -2t-4 -1h-198q-3 0 -4 1t-1 3v32q0 3 1 4t4 1h198q3 0 4 -0.5t1 -3.5v-34z" />
    <glyph glyph-name="imacron" unicode="&#x12b;" horiz-adv-x="200" 
d="M127 6q0 -6 -5 -6h-44q-6 0 -6 6v460q0 6 6 6h44q5 0 5 -6v-460zM203 548q0 -1 -1 -2t-4 -1h-198q-3 0 -4 1t-1 3v32q0 3 1 4t4 1h198q3 0 4 -0.5t1 -3.5v-34z" />
    <glyph glyph-name="Iogonek" unicode="&#x12e;" horiz-adv-x="225" 
d="M140 6q0 -6 -6 -6h-44q-6 0 -6 6v661q0 6 6 6h44q6 0 6 -6v-661zM67 -206q-32 0 -55 20t-23 51q0 30 15 55.5t37.5 46.5t43.5 35q4 2 9.5 4t11.5 2h31q3 0 4.5 -3t-4.5 -6q-24 -17 -48 -38t-39.5 -44t-15.5 -48q0 -19 11.5 -28.5t29.5 -8.5q19 0 37 9.5t30 20.5
q3 3 5.5 2.5t2.5 -4.5v-25q0 -9 -9 -16q-12 -9 -30 -17t-44 -8z" />
    <glyph glyph-name="iogonek" unicode="&#x12f;" horiz-adv-x="200" 
d="M127 6q0 -6 -5 -6h-44q-6 0 -6 6v460q0 6 6 6h44q5 0 5 -6v-460zM132 577q0 -17 -6.5 -25t-26.5 -8q-19 0 -26 8t-7 25q0 15 7 23.5t26 8.5q21 0 27 -8.5t6 -23.5zM52 -208q-32 0 -55 20t-23 51q0 30 15 55.5t37.5 46.5t43.5 35q4 2 9.5 4t11.5 2h31q3 0 4.5 -3t-4.5 -6
q-24 -17 -48 -38t-39.5 -44t-15.5 -48q0 -19 11.5 -28.5t29.5 -8.5q19 0 37 9.5t30 20.5q3 3 5.5 2.5t2.5 -4.5v-25q0 -9 -9 -16q-12 -9 -30 -17t-44 -8z" />
    <glyph glyph-name="Idotaccent" unicode="&#x130;" horiz-adv-x="225" 
d="M140 6q0 -6 -6 -6h-44q-6 0 -6 6v661q0 6 6 6h44q6 0 6 -6v-661zM146 777q0 -17 -6.5 -25t-26.5 -8q-19 0 -26 8t-7 25q0 15 7 23.5t26 8.5q21 0 27 -8.5t6 -23.5z" />
    <glyph glyph-name="dotlessi" unicode="&#x131;" horiz-adv-x="200" 
d="M127 6q0 -6 -5 -6h-44q-6 0 -6 6v460q0 6 6 6h44q5 0 5 -6v-460z" />
    <glyph glyph-name="uni0136" unicode="&#x136;" horiz-adv-x="521" 
d="M88 0q-4 0 -4 4v333v332q0 4 4 4h9.5h15h15h9.5q4 0 4 -4v-74.5v-72v-72.5v-75q0 -3 0.5 -5.5t5.5 -2.5h88q7 0 10.5 3t6.5 7q20 38 38.5 74t37 71t37 71t38.5 74l3 4.5t3 1.5h10h14.5h14.5h10q4 0 4.5 -3t-2.5 -8q-27 -52 -53.5 -102.5t-52.5 -101t-52 -103.5
q-4 -9 -5 -15t-1 -11q1 -28 12 -61.5t27.5 -67t36.5 -62.5t40 -47q22 -19 46.5 -30t51.5 -11q2 0 5 -1t3 -3v-41q0 -5 -3 -5q-43 0 -77 12t-63 36q-22 19 -43 48.5t-39 64.5t-30.5 70t-16.5 64q-2 8 -5.5 10t-5.5 2h-44h-44l-3 -1t-3 -6v-75.5v-72.5v-72.5v-75.5q0 -4 -4 -4
h-9.5h-15h-15h-9.5zM309 -65q0 -11 -6.5 -30t-15 -38.5t-18.5 -33.5q-2 -4 -4 -4h-12h-13q-1 1 -1 2t2 6q7 13 15 34.5t13 37.5q-15 0 -20.5 7.5t-5.5 18.5q0 13 7 21t25 8q16 0 25 -6.5t9 -22.5z" />
    <glyph glyph-name="uni0137" unicode="&#x137;" horiz-adv-x="429" 
d="M72 4v694q0 4 4 4h48q4 0 4 -4v-409q0 -2 0.5 -4.5t4.5 -2.5q16 0 32 0.5t31 0.5q10 2 14.5 4t11.5 10q21 24 38.5 53t32 59t24.5 55q3 6 5 7t8 1h44q4 0 5.5 -2t-0.5 -6q-1 -1 -9.5 -19.5t-23 -47.5t-34 -61t-40.5 -59q-4 -4 -7 -7.5t-6 -7.5q2 -1 4.5 -3t3.5 -4
q17 -18 35 -47.5t35.5 -63.5t31.5 -64t22.5 -50t9.5 -22q4 -8 -3 -8h-10h-15h-14.5h-9.5q-4 0 -5 0.5t-4 6.5l-7 16t-18.5 41.5t-26 54t-30 55t-30.5 44.5q-6 8 -14.5 12.5t-27 6.5t-53.5 1q-5 -1 -5 -9v-225q0 -4 -4 -4h-48q-4 0 -4 4zM255 -65q0 -11 -6.5 -30t-15 -38.5
t-18.5 -33.5q-2 -4 -4 -4h-12h-13q-1 1 -1 2t2 6q7 13 15 34.5t13 37.5q-15 0 -20.5 7.5t-5.5 18.5q0 13 7 21t25 8q16 0 25 -6.5t9 -22.5z" />
    <glyph glyph-name="Lacute" unicode="&#x139;" horiz-adv-x="420" 
d="M90 0q-6 0 -6 6v661q0 6 6 6h43q4 0 5.5 -1.5t1.5 -5.5v-611q0 -4 1 -6.5t7 -2.5h251q5 0 6.5 -1t1.5 -6v-31q0 -5 -1.5 -6.5t-6.5 -1.5h-309zM107 720h-33q-4 0 -4 2t2 5l64 71q3 3 5.5 4.5t6.5 1.5h47q3 0 4 -2t-2 -4l-80 -73q-3 -2 -5 -3.5t-5 -1.5z" />
    <glyph glyph-name="lacute" unicode="&#x13a;" horiz-adv-x="200" 
d="M72 6v696q0 6 6 6h43q7 0 7 -6v-696q0 -6 -7 -6h-43q-6 0 -6 6zM68 762q-5 0 -5 2t2 5l52 87q2 5 11 5h44q3 0 4 -1.5t-3 -4.5l-65 -89q-2 -2 -4 -3t-6 -1h-30z" />
    <glyph glyph-name="uni013B" unicode="&#x13b;" horiz-adv-x="420" 
d="M90 0q-6 0 -6 6v661q0 6 6 6h43q4 0 5.5 -1.5t1.5 -5.5v-611q0 -4 1 -6.5t7 -2.5h251q5 0 6.5 -1t1.5 -6v-31q0 -5 -1.5 -6.5t-6.5 -1.5h-309zM256 -65q0 -11 -6.5 -30t-15 -38.5t-18.5 -33.5q-2 -4 -4 -4h-12h-13q-1 1 -1 2t2 6q7 13 15 34.5t13 37.5q-15 0 -20.5 7.5
t-5.5 18.5q0 13 7 21t25 8q16 0 25 -6.5t9 -22.5z" />
    <glyph glyph-name="uni013C" unicode="&#x13c;" horiz-adv-x="200" 
d="M72 6v696q0 6 6 6h43q7 0 7 -6v-696q0 -6 -7 -6h-43q-6 0 -6 6zM130 -65q0 -11 -6.5 -30t-15 -38.5t-18.5 -33.5q-2 -4 -4 -4h-12h-13q-1 1 -1 2t2 6q7 13 15 34.5t13 37.5q-15 0 -20.5 7.5t-5.5 18.5q0 13 7 21t25 8q16 0 25 -6.5t9 -22.5z" />
    <glyph glyph-name="Lcaron" unicode="&#x13d;" horiz-adv-x="420" 
d="M90 0q-6 0 -6 6v661q0 6 6 6h43q4 0 5.5 -1.5t1.5 -5.5v-611q0 -4 1 -6.5t7 -2.5h251q5 0 6.5 -1t1.5 -6v-31q0 -5 -1.5 -6.5t-6.5 -1.5h-309zM284 518q-2 0 -3.5 1.5t-1.5 5.5l-3 140q0 5 1.5 7t5.5 2h34q5 0 6 -2t0 -5l-3 -143q-1 -3 -2.5 -4.5t-4.5 -1.5h-29z" />
    <glyph glyph-name="lcaron" unicode="&#x13e;" horiz-adv-x="200" 
d="M72 6v696q0 6 6 6h43q7 0 7 -6v-696q0 -6 -7 -6h-43q-6 0 -6 6zM213 550q-2 0 -3.5 1.5t-1.5 5.5l-3 140q0 5 1.5 7t5.5 2h34q5 0 6 -2t0 -5l-3 -143q-1 -3 -2.5 -4.5t-4.5 -1.5h-29z" />
    <glyph glyph-name="Lslash" unicode="&#x141;" horiz-adv-x="452" 
d="M103 0q-6 0 -6 6v661q0 6 6 6h44q4 0 5.5 -1.5t1.5 -5.5v-611q0 -4 1 -6.5t6 -2.5h251q5 0 6.5 -1t1.5 -6v-31q0 -5 -1.5 -6.5t-6.5 -1.5h-309zM23 125q-2 -1 -3.5 -0.5l-1.5 0.5l-15 24q-2 2 2 4l232 143q2 1 4 -1l14 -23q2 -2 -1 -4z" />
    <glyph glyph-name="lslash" unicode="&#x142;" horiz-adv-x="284" 
d="M115 6v696q0 6 6 6h44q6 0 6 -6v-696q0 -6 -6 -6h-44q-6 0 -6 6zM38 110q-2 -1 -3.5 -0.5l-1.5 0.5l-14 24q-2 2 2 4l226 139q2 1 4 -1l14 -24q2 -2 -1 -4z" />
    <glyph glyph-name="Nacute" unicode="&#x143;" horiz-adv-x="640" 
d="M486 124q2 -4 6 -3.5t5 6.5q3 36 5.5 89t3 113.5t-0.5 122.5t-4.5 117t-8.5 96q-1 8 4 8h45q3 0 5 -1.5t2 -4.5q6 -35 8.5 -88t4 -116t1 -130t-2.5 -129t-5 -114t-7 -84q0 -4 -3 -5t-6 -1h-32q-5 0 -8 7l-345 544q-1 4 -4.5 4t-4.5 -5q-3 -42 -5 -97.5t-3 -117.5t0 -123
t4 -114t8 -90q0 -8 -5 -8h-43q-3 0 -5.5 1t-2.5 5q-4 34 -7 86.5t-4.5 115t-1.5 129.5t2 130t5 115t8 85q0 3 2.5 4.5t4.5 1.5h33q4 0 7 -6zM310 720h-33q-4 0 -4 2t2 5l64 71q3 3 5.5 4.5t6.5 1.5h47q3 0 4 -2t-2 -4l-80 -73q-3 -2 -5 -3.5t-5 -1.5z" />
    <glyph glyph-name="nacute" unicode="&#x144;" 
d="M79 0q-7 0 -7 6v214v214q0 6 3.5 10t15.5 8q14 4 39 10t54.5 11t54.5 5q75 0 116 -30t56.5 -81t15.5 -114q0 -48 -2 -96t-4 -87t-4 -60q-1 -7 -3 -8.5t-9 -1.5h-33q-7 0 -9 2t-1 8q0 7 1.5 32.5t3.5 61.5t3 76t1 76q0 55 -13.5 93.5t-43 58.5t-76.5 20q-24 0 -48.5 -4.5
t-44.5 -12.5q-6 -1 -12 -6t-6 -17v-124v-128.5v-129.5q0 -6 -5 -6h-43zM218 530q-5 0 -5 2t2 5l52 87q2 5 11 5h44q3 0 4 -1.5t-3 -4.5l-65 -89q-2 -2 -4 -3t-6 -1h-30z" />
    <glyph glyph-name="uni0145" unicode="&#x145;" horiz-adv-x="640" 
d="M486 124q2 -4 6 -3.5t5 6.5q3 36 5.5 89t3 113.5t-0.5 122.5t-4.5 117t-8.5 96q-1 8 4 8h45q3 0 5 -1.5t2 -4.5q6 -35 8.5 -88t4 -116t1 -130t-2.5 -129t-5 -114t-7 -84q0 -4 -3 -5t-6 -1h-32q-5 0 -8 7l-345 544q-1 4 -4.5 4t-4.5 -5q-3 -42 -5 -97.5t-3 -117.5t0 -123
t4 -114t8 -90q0 -8 -5 -8h-43q-3 0 -5.5 1t-2.5 5q-4 34 -7 86.5t-4.5 115t-1.5 129.5t2 130t5 115t8 85q0 3 2.5 4.5t4.5 1.5h33q4 0 7 -6zM350 -65q0 -11 -6.5 -30t-15 -38.5t-18.5 -33.5q-2 -4 -4 -4h-12h-13q-1 1 -1 2t2 6q7 13 15 34.5t13 37.5q-15 0 -20.5 7.5
t-5.5 18.5q0 13 7 21t25 8q16 0 25 -6.5t9 -22.5z" />
    <glyph glyph-name="uni0146" unicode="&#x146;" 
d="M79 0q-7 0 -7 6v214v214q0 6 3.5 10t15.5 8q14 4 39 10t54.5 11t54.5 5q75 0 116 -30t56.5 -81t15.5 -114q0 -48 -2 -96t-4 -87t-4 -60q-1 -7 -3 -8.5t-9 -1.5h-33q-7 0 -9 2t-1 8q0 7 1.5 32.5t3.5 61.5t3 76t1 76q0 55 -13.5 93.5t-43 58.5t-76.5 20q-24 0 -48.5 -4.5
t-44.5 -12.5q-6 -1 -12 -6t-6 -17v-124v-128.5v-129.5q0 -6 -5 -6h-43zM280 -65q0 -11 -6.5 -30t-15 -38.5t-18.5 -33.5q-2 -4 -4 -4h-12h-13q-1 1 -1 2t2 6q7 13 15 34.5t13 37.5q-15 0 -20.5 7.5t-5.5 18.5q0 13 7 21t25 8q16 0 25 -6.5t9 -22.5z" />
    <glyph glyph-name="Ncaron" unicode="&#x147;" horiz-adv-x="640" 
d="M486 124q2 -4 6 -3.5t5 6.5q3 36 5.5 89t3 113.5t-0.5 122.5t-4.5 117t-8.5 96q-1 8 4 8h45q3 0 5 -1.5t2 -4.5q6 -35 8.5 -88t4 -116t1 -130t-2.5 -129t-5 -114t-7 -84q0 -4 -3 -5t-6 -1h-32q-5 0 -8 7l-345 544q-1 4 -4.5 4t-4.5 -5q-3 -42 -5 -97.5t-3 -117.5t0 -123
t4 -114t8 -90q0 -8 -5 -8h-43q-3 0 -5.5 1t-2.5 5q-4 34 -7 86.5t-4.5 115t-1.5 129.5t2 130t5 115t8 85q0 3 2.5 4.5t4.5 1.5h33q4 0 7 -6zM299 719q-5 0 -7 4l-65 75q-1 2 -0.5 4.5t3.5 2.5h28q5 0 7 -4l48 -45q5 -4 8 0l50 45q3 4 7 4h28q4 0 4.5 -2.5t-1.5 -4.5l-65 -75
q-1 -4 -6 -4h-39z" />
    <glyph glyph-name="ncaron" unicode="&#x148;" 
d="M79 0q-7 0 -7 6v214v214q0 6 3.5 10t15.5 8q14 4 39 10t54.5 11t54.5 5q75 0 116 -30t56.5 -81t15.5 -114q0 -48 -2 -96t-4 -87t-4 -60q-1 -7 -3 -8.5t-9 -1.5h-33q-7 0 -9 2t-1 8q0 7 1.5 32.5t3.5 61.5t3 76t1 76q0 55 -13.5 93.5t-43 58.5t-76.5 20q-24 0 -48.5 -4.5
t-44.5 -12.5q-6 -1 -12 -6t-6 -17v-124v-128.5v-129.5q0 -6 -5 -6h-43zM231 530q-4 0 -6 3l-64 88q-1 2 -0.5 4t3.5 2h29q5 0 7 -3l45 -54q5 -5 8 0l47 54q3 3 7 3h29q4 0 4.5 -2t-1.5 -4l-63 -88q-1 -3 -6 -3h-39z" />
    <glyph glyph-name="Eng" unicode="&#x14a;" horiz-adv-x="591" 
d="M523 667q7 -49 10.5 -118t3.5 -149.5t-2 -162t-6 -156.5t-10 -132q-7 -67 -22 -109t-45 -61.5t-82 -19.5q-19 0 -40 3t-35 8q-6 3 -14 8t-3 12l12 20q3 4 5.5 5t5.5 -2q13 -8 30 -10t31 -2q48 1 70 33t26 84l9 99l-339 534q-1 4 -4.5 4t-4.5 -5q-3 -42 -5 -97.5
t-3 -117.5t0 -123t4 -114t8 -90q0 -8 -5 -8h-43q-3 0 -5.5 1t-2.5 5q-4 34 -7 86.5t-4.5 115t-1.5 129.5t2 130t5 115t8 85q0 3 2.5 4.5t4.5 1.5h33q4 0 7 -6l345 -543q2 -4 6 -3.5t5 6.5q3 36 5.5 89t3 113.5t-0.5 122.5t-4.5 117t-8.5 96q-1 8 4 8h45q3 0 5 -1.5t2 -4.5z
" />
    <glyph glyph-name="eng" unicode="&#x14b;" horiz-adv-x="499" 
d="M79 0q-3 0 -5 1.5t-2 4.5v213.5v212.5q0 6 3.5 10t15.5 8q14 4 39 10t54.5 11t54.5 5q75 0 116 -30t56.5 -80.5t15.5 -113.5q0 -72 -3 -129t-8 -112q-1 -6 -2.5 -8.5t-8.5 -2.5h-16.5h-16.5q-7 0 -9 1.5t-1 8.5q0 5 1 23.5t2.5 45.5t2.5 58l2 62t1 56q0 39 -7 70t-22 53
t-39 34q-23 14 -52 15.5t-57.5 -4t-50.5 -14.5q-5 -1 -10.5 -7.5t-5.5 -20.5v-183.5v-190.5q0 -3 -1 -5t-4 -2h-21.5h-21.5zM421 85l-6 -92q-4 -76 -34.5 -118t-108.5 -42q-19 0 -39.5 3t-35.5 9q-5 3 -13 7.5t-3 12.5l12 20q2 4 4.5 4.5t6.5 -1.5q13 -7 29.5 -9.5
t30.5 -2.5q53 0 73 30t24 87l6 92h54z" />
    <glyph glyph-name="Omacron" unicode="&#x14c;" horiz-adv-x="625" 
d="M54 334q0 111 22 187.5t78 115.5t157 39q79 0 130 -22.5t79.5 -65t39.5 -106.5t11 -148t-11 -147.5t-39.5 -106.5t-79.5 -65t-130 -22q-101 0 -157 39t-78 115t-22 187zM112 334q0 -114 21.5 -177t64.5 -88t112 -25t113.5 25t67 88t22.5 177q0 115 -22.5 178.5t-67 89
t-113.5 25.5t-112.5 -26t-64.5 -89t-21 -178zM417 748q0 -1 -1 -2t-4 -1h-198q-3 0 -4 1t-1 3v32q0 3 1 4t4 1h198q3 0 4 -0.5t1 -3.5v-34z" />
    <glyph glyph-name="omacron" unicode="&#x14d;" 
d="M245 -6q-80 0 -124 31t-61.5 86t-17.5 126q0 70 19 124.5t63.5 85.5t120.5 31q77 0 121 -31t63 -85.5t19 -124.5q0 -71 -17.5 -126t-61 -86t-124.5 -31zM245 40q81 0 114 51.5t33 144.5t-35.5 143.5t-111.5 50.5t-111.5 -50.5t-35.5 -143.5q0 -94 33 -145t114 -51z
M349 548q0 -1 -1 -2t-4 -1h-198q-3 0 -4 1t-1 3v32q0 3 1 4t4 1h198q3 0 4 -0.5t1 -3.5v-34z" />
    <glyph glyph-name="Ohungarumlaut" unicode="&#x150;" horiz-adv-x="625" 
d="M54 334q0 111 22 187.5t78 115.5t157 39q79 0 130 -22.5t79.5 -65t39.5 -106.5t11 -148t-11 -147.5t-39.5 -106.5t-79.5 -65t-130 -22q-101 0 -157 39t-78 115t-22 187zM112 334q0 -114 21.5 -177t64.5 -88t112 -25t113.5 25t67 88t22.5 177q0 115 -22.5 178.5t-67 89
t-113.5 25.5t-112.5 -26t-64.5 -89t-21 -178zM286 719q-1 -1 -3 -2t-6 -1h-26q-7 0 -4 6l54 87q2 5 11 5h42q3 0 4 -2t-2 -4zM366 719q-1 -1 -3 -2t-6 -1h-26q-4 0 -4.5 2t0.5 4l62 87q2 3 4.5 4t6.5 1h42q2 0 3 -2t-1 -4z" />
    <glyph glyph-name="ohungarumlaut" unicode="&#x151;" 
d="M245 -6q-80 0 -124 31t-61.5 86t-17.5 126q0 70 19 124.5t63.5 85.5t120.5 31q77 0 121 -31t63 -85.5t19 -124.5q0 -71 -17.5 -126t-61 -86t-124.5 -31zM245 40q81 0 114 51.5t33 144.5t-35.5 143.5t-111.5 50.5t-111.5 -50.5t-35.5 -143.5q0 -94 33 -145t114 -51z
M224 534q-1 -1 -3 -2.5t-7 -1.5h-22q-6 0 -4 7l33 100q2 4 11 4h38q3 0 4 -1.5t-2 -4.5zM303 534q-1 -1 -3 -2.5t-7 -1.5h-22q-6 0 -4 7l41 100q2 4 11 4h38q3 0 4 -1.5t-2 -4.5z" />
    <glyph glyph-name="OE" unicode="&#x152;" horiz-adv-x="848" 
d="M311 -7q-101 0 -157 39t-78 115t-22 187t22 187.5t78 115.5t157 39q62 0 105.5 -14.5t72.5 -42.5v24v24q0 6 5 6h156h155q5 0 6 -1t1 -6v-16.5v-16.5q0 -4 -1 -5.5t-6 -1.5h-126.5h-126.5q-4 0 -5.5 -2t-1.5 -5v-125v-124q0 -3 2 -5.5t6 -2.5h104h103q5 0 6 -1t1 -6v-16
v-16q0 -4 -1 -5.5t-6 -1.5h-103.5h-104.5q-4 0 -5.5 -1.5t-1.5 -5.5v-127v-127q0 -4 1 -6.5t7 -2.5h126h126q5 0 6 -1t1 -6v-15.5v-15.5q0 -5 -1 -6.5t-6 -1.5h-155.5h-155.5q-5 0 -5 5v22v22q-29 -28 -73 -42t-105 -14zM310 44q45 0 79 11t58.5 37.5t38.5 73.5v340
q-15 45 -39 72t-58 38t-79 11q-69 0 -112.5 -26t-64.5 -89t-21 -178q0 -114 21 -177t64.5 -88t112.5 -25z" />
    <glyph glyph-name="oe" unicode="&#x153;" horiz-adv-x="807" 
d="M245 -6q-80 0 -124 31t-61.5 86t-17.5 126q0 70 19 124.5t63.5 85.5t120.5 31q73 0 115.5 -31t60.5 -85.5t18 -124.5q0 -52 -9 -96.5t-30.5 -77t-59 -51t-95.5 -18.5zM245 40q57 0 89 23.5t45 67.5t13 105q0 93 -33.5 143.5t-113.5 50.5q-76 0 -111.5 -50.5t-35.5 -143.5
q0 -94 33 -145t114 -51zM401 237q0 47 8.5 90t29 77t57 54t91.5 20q60 0 96 -18t54.5 -47.5t25 -65.5t6.5 -72t-7 -44t-20 -8h-284q-3 0 -7 -2t-4 -11q2 -73 36 -120t112 -47q36 0 76 8t67 25q5 3 10 4.5t9 -6.5l10 -20q3 -4 1.5 -6.5t-5.5 -5.5q-32 -24 -78.5 -34
t-96.5 -10q-77 0 -117 32t-55 86t-15 121zM712 284q0 38 -9.5 71.5t-36.5 55t-80 21.5q-38 0 -64.5 -14.5t-42 -37.5t-23 -49.5t-9.5 -50.5q0 -9 1.5 -12.5t9.5 -3.5h118h118q10 0 14 3.5t4 16.5z" />
    <glyph glyph-name="Racute" unicode="&#x154;" horiz-adv-x="523" 
d="M90 0q-6 0 -6 6v661q0 6 6 6h138q74 0 119.5 -17.5t66.5 -58.5t21 -113q0 -68 -26 -118t-83 -70q-11 -5 -13.5 -11.5t0.5 -14.5q8 -34 23 -69t35.5 -65.5t43.5 -50.5q20 -16 43.5 -25.5t48.5 -9.5q4 0 6.5 -1.5t2.5 -5.5v-36q0 -3 -0.5 -4.5t-3 -2t-9.5 -0.5
q-38 0 -69.5 12.5t-57.5 33.5q-27 23 -51 58.5t-42 77t-26 81.5q-1 5 -4.5 9.5t-13.5 4.5h-90q-8 0 -8 -10v-261q0 -6 -7 -6h-44zM141 332q0 -4 2.5 -6t5.5 -2h89q69 0 105.5 37.5t36.5 122.5q0 60 -16 91t-49.5 42t-88.5 11h-78q-4 0 -5.5 -1.5t-1.5 -7.5v-287zM220 721
h-33q-4 0 -4 2t2 5l64 71q3 3 5.5 4.5t6.5 1.5h47q3 0 4 -2t-2 -4l-80 -73q-3 -2 -5 -3.5t-5 -1.5z" />
    <glyph glyph-name="racute" unicode="&#x155;" horiz-adv-x="324" 
d="M213 477q57 0 97 -15q4 -1 6.5 -3t1.5 -6l-8 -31q-1 -4 -3.5 -5t-6.5 1q-17 5 -38 8t-42 3q-16 0 -34.5 -3.5t-34.5 -7t-23 -7.5q-5 -3 -11 -7.5t-6 -18.5v-377q0 -5 -1.5 -6.5t-5.5 -1.5h-42q-3 0 -4.5 1.5t-1.5 5.5v412q0 14 4 19t12 9q29 14 68.5 22t72.5 8zM141 530
q-5 0 -5 2t2 5l52 87q2 5 11 5h44q3 0 4 -1.5t-3 -4.5l-65 -89q-2 -2 -4 -3t-6 -1h-30z" />
    <glyph glyph-name="uni0156" unicode="&#x156;" horiz-adv-x="523" 
d="M90 0q-6 0 -6 6v661q0 6 6 6h138q74 0 119.5 -17.5t66.5 -58.5t21 -113q0 -68 -26 -118t-83 -70q-11 -5 -13.5 -11.5t0.5 -14.5q8 -34 23 -69t35.5 -65.5t43.5 -50.5q20 -16 43.5 -25.5t48.5 -9.5q4 0 6.5 -1.5t2.5 -5.5v-36q0 -3 -0.5 -4.5t-3 -2t-9.5 -0.5
q-38 0 -69.5 12.5t-57.5 33.5q-27 23 -51 58.5t-42 77t-26 81.5q-1 5 -4.5 9.5t-13.5 4.5h-90q-8 0 -8 -10v-261q0 -6 -7 -6h-44zM141 332q0 -4 2.5 -6t5.5 -2h89q69 0 105.5 37.5t36.5 122.5q0 60 -16 91t-49.5 42t-88.5 11h-78q-4 0 -5.5 -1.5t-1.5 -7.5v-287zM295 -65
q0 -11 -6.5 -30t-15 -38.5t-18.5 -33.5q-2 -4 -4 -4h-12h-13q-1 1 -1 2t2 6q7 13 15 34.5t13 37.5q-15 0 -20.5 7.5t-5.5 18.5q0 13 7 21t25 8q16 0 25 -6.5t9 -22.5z" />
    <glyph glyph-name="uni0157" unicode="&#x157;" horiz-adv-x="324" 
d="M213 477q57 0 97 -15q4 -1 6.5 -3t1.5 -6l-8 -31q-1 -4 -3.5 -5t-6.5 1q-17 5 -38 8t-42 3q-16 0 -34.5 -3.5t-34.5 -7t-23 -7.5q-5 -3 -11 -7.5t-6 -18.5v-377q0 -5 -1.5 -6.5t-5.5 -1.5h-42q-3 0 -4.5 1.5t-1.5 5.5v412q0 14 4 19t12 9q29 14 68.5 22t72.5 8zM114 -65
q0 -11 -6.5 -30t-15 -38.5t-18.5 -33.5q-2 -4 -4 -4h-12h-13q-1 1 -1 2t2 6q7 13 15 34.5t13 37.5q-15 0 -20.5 7.5t-5.5 18.5q0 13 7 21t25 8q16 0 25 -6.5t9 -22.5z" />
    <glyph glyph-name="Rcaron" unicode="&#x158;" horiz-adv-x="523" 
d="M90 0q-6 0 -6 6v661q0 6 6 6h138q74 0 119.5 -17.5t66.5 -58.5t21 -113q0 -68 -26 -118t-83 -70q-11 -5 -13.5 -11.5t0.5 -14.5q8 -34 23 -69t35.5 -65.5t43.5 -50.5q20 -16 43.5 -25.5t48.5 -9.5q4 0 6.5 -1.5t2.5 -5.5v-36q0 -3 -0.5 -4.5t-3 -2t-9.5 -0.5
q-38 0 -69.5 12.5t-57.5 33.5q-27 23 -51 58.5t-42 77t-26 81.5q-1 5 -4.5 9.5t-13.5 4.5h-90q-8 0 -8 -10v-261q0 -6 -7 -6h-44zM141 332q0 -4 2.5 -6t5.5 -2h89q69 0 105.5 37.5t36.5 122.5q0 60 -16 91t-49.5 42t-88.5 11h-78q-4 0 -5.5 -1.5t-1.5 -7.5v-287zM209 720
q-5 0 -7 4l-65 75q-1 2 -0.5 4.5t3.5 2.5h28q5 0 7 -4l48 -45q5 -4 8 0l50 45q3 4 7 4h28q4 0 4.5 -2.5t-1.5 -4.5l-65 -75q-1 -4 -6 -4h-39z" />
    <glyph glyph-name="rcaron" unicode="&#x159;" horiz-adv-x="324" 
d="M213 477q57 0 97 -15q4 -1 6.5 -3t1.5 -6l-8 -31q-1 -4 -3.5 -5t-6.5 1q-17 5 -38 8t-42 3q-16 0 -34.5 -3.5t-34.5 -7t-23 -7.5q-5 -3 -11 -7.5t-6 -18.5v-377q0 -5 -1.5 -6.5t-5.5 -1.5h-42q-3 0 -4.5 1.5t-1.5 5.5v412q0 14 4 19t12 9q29 14 68.5 22t72.5 8zM154 530
q-4 0 -6 3l-64 88q-1 2 -0.5 4t3.5 2h29q5 0 7 -3l45 -54q5 -5 8 0l47 54q3 3 7 3h29q4 0 4.5 -2t-1.5 -4l-63 -88q-1 -3 -6 -3h-39z" />
    <glyph glyph-name="Sacute" unicode="&#x15a;" horiz-adv-x="452" 
d="M60 24v39q0 5 3.5 4t6.5 -2q20 -7 43.5 -13t47 -9.5t41.5 -3.5q74 0 111 40.5t37 108.5q0 60 -30 91t-102 50q-29 8 -60 17.5t-57 27.5t-42 49.5t-16 82.5q0 61 27.5 98t72 55t98.5 18q25 0 49 -3.5t45.5 -9t38.5 -13.5q5 -1 6.5 -3.5t1.5 -5.5v-33q0 -11 -14 -5
q-25 12 -56 19.5t-69 7.5q-63 0 -103 -31t-40 -91q0 -37 13 -60t35 -36.5t49 -21.5l54 -16q51 -14 86 -34t53 -55t18 -95q0 -63 -24.5 -107.5t-70 -68.5t-111.5 -24q-28 0 -65 7t-69 17q-4 1 -6 3t-2 6zM216 720h-33q-4 0 -4 2t2 5l64 71q3 3 5.5 4.5t6.5 1.5h47q3 0 4 -2
t-2 -4l-80 -73q-3 -2 -5 -3.5t-5 -1.5z" />
    <glyph glyph-name="sacute" unicode="&#x15b;" horiz-adv-x="390" 
d="M41 73q1 4 3.5 4t5.5 -3q16 -10 40.5 -17.5t49.5 -11.5t43 -4q31 0 58 10t44 32.5t17 57.5q0 41 -29.5 57.5t-93.5 23.5q-39 5 -71.5 17t-51.5 36.5t-19 65.5q0 45 23.5 74.5t62 45.5t82.5 16q35 0 75.5 -9.5t62.5 -26.5q3 -2 3.5 -3.5t-0.5 -5.5l-10 -32q-2 -6 -10 -1
q-18 14 -53.5 23.5t-67.5 9.5q-52 0 -82.5 -26t-30.5 -62q0 -38 30.5 -54t83.5 -22q34 -4 61.5 -11.5t47 -20.5t30 -35.5t10.5 -55.5q0 -43 -15.5 -71.5t-42 -46t-57.5 -25t-62 -7.5q-15 0 -41 4t-52.5 12t-44.5 19q-4 2 -5 3.5t0 5.5zM173 530q-5 0 -5 2t2 5l52 87
q2 5 11 5h44q3 0 4 -1.5t-3 -4.5l-65 -89q-2 -2 -4 -3t-6 -1h-30z" />
    <glyph glyph-name="Scedilla" unicode="&#x15e;" horiz-adv-x="452" 
d="M60 24v39q0 5 3.5 4t6.5 -2q20 -7 43.5 -13t47 -9.5t41.5 -3.5q74 0 111 40.5t37 108.5q0 60 -30 91t-102 50q-29 8 -60 17.5t-57 27.5t-42 49.5t-16 82.5q0 61 27.5 98t72 55t98.5 18q25 0 49 -3.5t45.5 -9t38.5 -13.5q5 -1 6.5 -3.5t1.5 -5.5v-33q0 -11 -14 -5
q-25 12 -56 19.5t-69 7.5q-63 0 -103 -31t-40 -91q0 -37 13 -60t35 -36.5t49 -21.5l54 -16q51 -14 86 -34t53 -55t18 -95q0 -63 -24.5 -107.5t-70 -68.5t-111.5 -24q-28 0 -65 7t-69 17q-4 1 -6 3t-2 6zM257 -65q0 -11 -6.5 -30t-15 -38.5t-18.5 -33.5q-2 -4 -4 -4h-12h-13
q-1 1 -1 2t2 6q7 13 15 34.5t13 37.5q-15 0 -20.5 7.5t-5.5 18.5q0 13 7 21t25 8q16 0 25 -6.5t9 -22.5z" />
    <glyph glyph-name="scedilla" unicode="&#x15f;" horiz-adv-x="390" 
d="M41 73q1 4 3.5 4t5.5 -3q16 -10 40.5 -17.5t49.5 -11.5t43 -4q31 0 58 10t44 32.5t17 57.5q0 41 -29.5 57.5t-93.5 23.5q-39 5 -71.5 17t-51.5 36.5t-19 65.5q0 45 23.5 74.5t62 45.5t82.5 16q35 0 75.5 -9.5t62.5 -26.5q3 -2 3.5 -3.5t-0.5 -5.5l-10 -32q-2 -6 -10 -1
q-18 14 -53.5 23.5t-67.5 9.5q-52 0 -82.5 -26t-30.5 -62q0 -38 30.5 -54t83.5 -22q34 -4 61.5 -11.5t47 -20.5t30 -35.5t10.5 -55.5q0 -43 -15.5 -71.5t-42 -46t-57.5 -25t-62 -7.5q-15 0 -41 4t-52.5 12t-44.5 19q-4 2 -5 3.5t0 5.5zM226 -69q0 -11 -6.5 -30t-15 -38.5
t-18.5 -33.5q-2 -4 -4 -4h-12h-13q-1 1 -1 2t2 6q7 13 15 34.5t13 37.5q-15 0 -20.5 7.5t-5.5 18.5q0 13 7 21t25 8q16 0 25 -6.5t9 -22.5z" />
    <glyph glyph-name="Scaron" unicode="&#x160;" horiz-adv-x="452" 
d="M60 24v39q0 5 3.5 4t6.5 -2q20 -7 43.5 -13t47 -9.5t41.5 -3.5q74 0 111 40.5t37 108.5q0 60 -30 91t-102 50q-29 8 -60 17.5t-57 27.5t-42 49.5t-16 82.5q0 61 27.5 98t72 55t98.5 18q25 0 49 -3.5t45.5 -9t38.5 -13.5q5 -1 6.5 -3.5t1.5 -5.5v-33q0 -11 -14 -5
q-25 12 -56 19.5t-69 7.5q-63 0 -103 -31t-40 -91q0 -37 13 -60t35 -36.5t49 -21.5l54 -16q51 -14 86 -34t53 -55t18 -95q0 -63 -24.5 -107.5t-70 -68.5t-111.5 -24q-28 0 -65 7t-69 17q-4 1 -6 3t-2 6zM205 719q-5 0 -7 4l-65 75q-1 2 -0.5 4.5t3.5 2.5h28q5 0 7 -4l48 -45
q5 -4 8 0l50 45q3 4 7 4h28q4 0 4.5 -2.5t-1.5 -4.5l-65 -75q-1 -4 -6 -4h-39z" />
    <glyph glyph-name="scaron" unicode="&#x161;" horiz-adv-x="390" 
d="M41 73q1 4 3.5 4t5.5 -3q16 -10 40.5 -17.5t49.5 -11.5t43 -4q31 0 58 10t44 32.5t17 57.5q0 41 -29.5 57.5t-93.5 23.5q-39 5 -71.5 17t-51.5 36.5t-19 65.5q0 45 23.5 74.5t62 45.5t82.5 16q35 0 75.5 -9.5t62.5 -26.5q3 -2 3.5 -3.5t-0.5 -5.5l-10 -32q-2 -6 -10 -1
q-18 14 -53.5 23.5t-67.5 9.5q-52 0 -82.5 -26t-30.5 -62q0 -38 30.5 -54t83.5 -22q34 -4 61.5 -11.5t47 -20.5t30 -35.5t10.5 -55.5q0 -43 -15.5 -71.5t-42 -46t-57.5 -25t-62 -7.5q-15 0 -41 4t-52.5 12t-44.5 19q-4 2 -5 3.5t0 5.5zM185 530q-4 0 -6 3l-64 88
q-1 2 -0.5 4t3.5 2h29q5 0 7 -3l45 -54q5 -5 8 0l47 54q3 3 7 3h29q4 0 4.5 -2t-1.5 -4l-63 -88q-1 -3 -6 -3h-39z" />
    <glyph glyph-name="uni0162" unicode="&#x162;" horiz-adv-x="429" 
d="M192 0q-3 0 -5 1.5t-2 4.5v612q0 4 -1.5 6t-5.5 2h-149q-3 0 -5 1.5t-2 4.5v35q0 3 1.5 4.5t5.5 1.5h370q5 0 6.5 -1.5t1.5 -5.5v-33q0 -4 -1.5 -5.5t-6.5 -1.5h-148q-5 0 -7 -2t-2 -7v-611q0 -6 -6 -6h-44zM245 -65q0 -11 -6.5 -30t-15 -38.5t-18.5 -33.5q-2 -4 -4 -4
h-12h-13q-1 1 -1 2t2 6q7 13 15 34.5t13 37.5q-15 0 -20.5 7.5t-5.5 18.5q0 13 7 21t25 8q16 0 25 -6.5t9 -22.5z" />
    <glyph glyph-name="uni0163" unicode="&#x163;" horiz-adv-x="318" 
d="M220 0q-61 0 -90 26t-38 73q-9 43 -9 90v97q0 35 1 68t3 67q0 9 -9 9h-53q-2 0 -4 2t-2 5v28q0 3 2 5t5 2h53q5 0 7 2t2 8l5 88q0 6 5 6h43q3 0 5 -1.5t2 -4.5l-5 -87q-1 -6 1 -8.5t7 -2.5h126q4 0 5 -1.5t1 -5.5v-28q0 -2 -1.5 -4.5t-5.5 -2.5h-126q-3 0 -5.5 -2
t-2.5 -8q-1 -34 -2.5 -69t-1.5 -71q0 -41 0.5 -85.5t9.5 -86.5q7 -31 24.5 -47t57.5 -16q15 0 30 3.5t29 8.5q6 4 8 3t4 -6l8 -26q3 -4 0 -7t-11 -7q-11 -4 -26.5 -7.5t-30 -5t-21.5 -1.5zM231 -63q0 -11 -6.5 -30t-15 -38.5t-18.5 -33.5q-2 -4 -4 -4h-12h-13q-1 1 -1 2t2 6
q7 13 15 34.5t13 37.5q-15 0 -20.5 7.5t-5.5 18.5q0 13 7 21t25 8q16 0 25 -6.5t9 -22.5z" />
    <glyph glyph-name="Tcaron" unicode="&#x164;" horiz-adv-x="429" 
d="M192 0q-3 0 -5 1.5t-2 4.5v612q0 4 -1.5 6t-5.5 2h-149q-3 0 -5 1.5t-2 4.5v35q0 3 1.5 4.5t5.5 1.5h370q5 0 6.5 -1.5t1.5 -5.5v-33q0 -4 -1.5 -5.5t-6.5 -1.5h-148q-5 0 -7 -2t-2 -7v-611q0 -6 -6 -6h-44zM196 719q-5 0 -7 4l-65 75q-1 2 -0.5 4.5t3.5 2.5h28q5 0 7 -4
l48 -45q5 -4 8 0l50 45q3 4 7 4h28q4 0 4.5 -2.5t-1.5 -4.5l-65 -75q-1 -4 -6 -4h-39z" />
    <glyph glyph-name="tcaron" unicode="&#x165;" horiz-adv-x="318" 
d="M220 0q-61 0 -90 26t-38 73q-9 43 -9 90v97q0 35 1 68t3 67q0 9 -9 9h-53q-2 0 -4 2t-2 5v28q0 3 2 5t5 2h53q5 0 7 2t2 8l5 88q0 6 5 6h43q3 0 5 -1.5t2 -4.5l-5 -87q-1 -6 1 -8.5t7 -2.5h126q4 0 5 -1.5t1 -5.5v-28q0 -2 -1.5 -4.5t-5.5 -2.5h-126q-3 0 -5.5 -2
t-2.5 -8q-1 -34 -2.5 -69t-1.5 -71q0 -41 0.5 -85.5t9.5 -86.5q7 -31 24.5 -47t57.5 -16q15 0 30 3.5t29 8.5q6 4 8 3t4 -6l8 -26q3 -4 0 -7t-11 -7q-11 -4 -26.5 -7.5t-30 -5t-21.5 -1.5zM335 418q-2 0 -3.5 1.5t-1.5 5.5l-3 140q0 5 1.5 7t5.5 2h34q5 0 6 -2t0 -5l-3 -143
q-1 -3 -2.5 -4.5t-4.5 -1.5h-29z" />
    <glyph glyph-name="Tbar" unicode="&#x166;" horiz-adv-x="457" 
d="M192 0q-3 0 -5 1.5t-2 4.5v612q0 4 -1.5 6t-5.5 2h-149q-3 0 -5 1.5t-2 4.5v35q0 3 1.5 4.5t5.5 1.5h370q5 0 6.5 -1.5t1.5 -5.5v-33q0 -4 -1.5 -5.5t-6.5 -1.5h-148q-5 0 -7 -2t-2 -7v-611q0 -6 -6 -6h-44zM97 427q-4 0 -5 2t-1 4v33q0 4 1 5t5 1h261q3 0 4 -1t1 -5v-33
q0 -3 -1 -4.5t-4 -1.5h-261z" />
    <glyph glyph-name="tbar" unicode="&#x167;" horiz-adv-x="318" 
d="M20 319q-3 0 -4 1.5t-1 3.5v28q0 3 1.5 4t3.5 1h199q2 0 3.5 -1t1.5 -4v-29q0 -1 -1.5 -2.5t-3.5 -1.5h-199zM220 0q-61 0 -90 26t-38 73q-9 43 -9 90v97q0 35 1 68t3 67q0 9 -9 9h-53q-2 0 -4 2t-2 5v28q0 3 2 5t5 2h53q5 0 7 2t2 8l5 88q0 6 5 6h43q3 0 5 -1.5t2 -4.5
l-5 -87q-1 -6 1 -8.5t7 -2.5h126q4 0 5 -1.5t1 -5.5v-28q0 -2 -1.5 -4.5t-5.5 -2.5h-126q-3 0 -5.5 -2t-2.5 -8q-1 -34 -2.5 -69t-1.5 -71q0 -41 0.5 -85.5t9.5 -86.5q7 -31 24.5 -47t57.5 -16q15 0 30 3.5t29 8.5q6 4 8 3t4 -6l8 -26q3 -4 0 -7t-11 -7q-11 -4 -26.5 -7.5
t-30 -5t-21.5 -1.5z" />
    <glyph glyph-name="Utilde" unicode="&#x168;" horiz-adv-x="634" 
d="M317 -6q-81 0 -127.5 19t-68.5 48t-30 58.5t-10 52.5q-4 43 -6 93.5t-1 102.5q1 50 3.5 101.5t6.5 101.5t10 93q0 3 2 6t4 3h21.5h21.5q4 0 5 -1.5t0 -7.5q-4 -40 -7 -84.5t-6 -92.5q-4 -81 -4.5 -161.5t6.5 -148.5q2 -18 7.5 -41t22.5 -44.5t52.5 -36t96.5 -14.5
t96.5 14.5t53 36t23.5 44.5t7 41q6 67 6.5 145t-3.5 157q-3 50 -6.5 97t-7.5 88q0 6 1 7.5t4 1.5h22.5h21.5q4 0 5 -3l2 -6q5 -43 9.5 -92t6.5 -100t2 -100q2 -53 0.5 -105t-6.5 -95q-2 -18 -6.5 -41t-17 -47t-38 -44.5t-68 -33t-106.5 -12.5zM231 721q-5 0 -5 5q0 27 15 45
t38 18q14 0 28.5 -9.5t27.5 -19t22 -9.5q7 0 12 8t5 19q0 6 4 6h25q5 0 5 -6q0 -23 -14 -42.5t-38 -19.5q-15 0 -29.5 9.5t-26.5 19t-21 9.5q-8 0 -13.5 -8.5t-5.5 -19.5q0 -5 -4 -5h-25z" />
    <glyph glyph-name="utilde" unicode="&#x169;" 
d="M251 -4q-75 0 -115.5 30t-56.5 81t-16 113q0 48 2 95.5t4 86.5t3 60q1 7 4 8.5t10 1.5h32q7 0 9 -1t1 -9q0 -7 -1.5 -32t-3 -60.5t-2.5 -76t-1 -77.5q0 -79 30.5 -125.5t100.5 -46.5q8 0 26.5 1.5t38.5 6t33.5 12t13.5 18.5v383q0 3 1 5t3 2h45q2 0 4 -1t2 -5v-418
q0 -12 -6 -17t-24 -12q-8 -3 -31 -8.5t-52 -10t-54 -4.5zM154 535q-5 0 -5 5q0 27 15.5 44t40.5 17q14 0 29 -8.5t28.5 -17.5t22.5 -9q8 0 13 7t5 17q0 6 4 6h28q5 0 5 -6q0 -23 -15 -41.5t-40 -18.5q-16 0 -31.5 9t-28 18t-20.5 9q-9 0 -14.5 -7.5t-5.5 -18.5q0 -5 -4 -5
h-27z" />
    <glyph glyph-name="Umacron" unicode="&#x16a;" horiz-adv-x="634" 
d="M317 -6q-81 0 -127.5 19t-68.5 48t-30 58.5t-10 52.5q-4 43 -6 93.5t-1 102.5q1 50 3.5 101.5t6.5 101.5t10 93q0 3 2 6t4 3h21.5h21.5q4 0 5 -1.5t0 -7.5q-4 -40 -7 -84.5t-6 -92.5q-4 -81 -4.5 -161.5t6.5 -148.5q2 -18 7.5 -41t22.5 -44.5t52.5 -36t96.5 -14.5
t96.5 14.5t53 36t23.5 44.5t7 41q6 67 6.5 145t-3.5 157q-3 50 -6.5 97t-7.5 88q0 6 1 7.5t4 1.5h22.5h21.5q4 0 5 -3l2 -6q5 -43 9.5 -92t6.5 -100t2 -100q2 -53 0.5 -105t-6.5 -95q-2 -18 -6.5 -41t-17 -47t-38 -44.5t-68 -33t-106.5 -12.5zM421 748q0 -1 -1 -2t-4 -1
h-198q-3 0 -4 1t-1 3v32q0 3 1 4t4 1h198q3 0 4 -0.5t1 -3.5v-34z" />
    <glyph glyph-name="umacron" unicode="&#x16b;" 
d="M251 -4q-75 0 -115.5 30t-56.5 81t-16 113q0 48 2 95.5t4 86.5t3 60q1 7 4 8.5t10 1.5h32q7 0 9 -1t1 -9q0 -7 -1.5 -32t-3 -60.5t-2.5 -76t-1 -77.5q0 -79 30.5 -125.5t100.5 -46.5q8 0 26.5 1.5t38.5 6t33.5 12t13.5 18.5v383q0 3 1 5t3 2h45q2 0 4 -1t2 -5v-418
q0 -12 -6 -17t-24 -12q-8 -3 -31 -8.5t-52 -10t-54 -4.5zM349 548q0 -1 -1 -2t-4 -1h-198q-3 0 -4 1t-1 3v32q0 3 1 4t4 1h198q3 0 4 -0.5t1 -3.5v-34z" />
    <glyph glyph-name="Uring" unicode="&#x16e;" horiz-adv-x="634" 
d="M317 -6q-81 0 -127.5 19t-68.5 48t-30 58.5t-10 52.5q-4 43 -6 93.5t-1 102.5q1 50 3.5 101.5t6.5 101.5t10 93q0 3 2 6t4 3h21.5h21.5q4 0 5 -1.5t0 -7.5q-4 -40 -7 -84.5t-6 -92.5q-4 -81 -4.5 -161.5t6.5 -148.5q2 -18 7.5 -41t22.5 -44.5t52.5 -36t96.5 -14.5
t96.5 14.5t53 36t23.5 44.5t7 41q6 67 6.5 145t-3.5 157q-3 50 -6.5 97t-7.5 88q0 6 1 7.5t4 1.5h22.5h21.5q4 0 5 -3l2 -6q5 -43 9.5 -92t6.5 -100t2 -100q2 -53 0.5 -105t-6.5 -95q-2 -18 -6.5 -41t-17 -47t-38 -44.5t-68 -33t-106.5 -12.5zM397 787q0 -33 -18.5 -53.5
t-61.5 -20.5q-44 0 -62.5 20.5t-18.5 53.5q0 34 18.5 53.5t62.5 19.5q43 0 61.5 -19.5t18.5 -53.5zM365 790q0 16 -8.5 27t-38.5 11q-32 0 -40.5 -11t-8.5 -27q0 -15 8 -29.5t41 -14.5t40 14.5t7 29.5z" />
    <glyph glyph-name="uring" unicode="&#x16f;" 
d="M251 -4q-75 0 -115.5 30t-56.5 81t-16 113q0 48 2 95.5t4 86.5t3 60q1 7 4 8.5t10 1.5h32q7 0 9 -1t1 -9q0 -7 -1.5 -32t-3 -60.5t-2.5 -76t-1 -77.5q0 -79 30.5 -125.5t100.5 -46.5q8 0 26.5 1.5t38.5 6t33.5 12t13.5 18.5v383q0 3 1 5t3 2h45q2 0 4 -1t2 -5v-418
q0 -12 -6 -17t-24 -12q-8 -3 -31 -8.5t-52 -10t-54 -4.5zM324 587q0 -33 -18.5 -53.5t-61.5 -20.5q-44 0 -62.5 20.5t-18.5 53.5q0 34 18.5 53.5t62.5 19.5q43 0 61.5 -19.5t18.5 -53.5zM292 590q0 16 -8.5 27t-38.5 11q-32 0 -40.5 -11t-8.5 -27q0 -15 8 -29.5t41 -14.5
t40 14.5t7 29.5z" />
    <glyph glyph-name="Uhungarumlaut" unicode="&#x170;" horiz-adv-x="634" 
d="M317 -6q-81 0 -127.5 19t-68.5 48t-30 58.5t-10 52.5q-4 43 -6 93.5t-1 102.5q1 50 3.5 101.5t6.5 101.5t10 93q0 3 2 6t4 3h21.5h21.5q4 0 5 -1.5t0 -7.5q-4 -40 -7 -84.5t-6 -92.5q-4 -81 -4.5 -161.5t6.5 -148.5q2 -18 7.5 -41t22.5 -44.5t52.5 -36t96.5 -14.5
t96.5 14.5t53 36t23.5 44.5t7 41q6 67 6.5 145t-3.5 157q-3 50 -6.5 97t-7.5 88q0 6 1 7.5t4 1.5h22.5h21.5q4 0 5 -3l2 -6q5 -43 9.5 -92t6.5 -100t2 -100q2 -53 0.5 -105t-6.5 -95q-2 -18 -6.5 -41t-17 -47t-38 -44.5t-68 -33t-106.5 -12.5zM290 719q-1 -1 -3 -2t-6 -1
h-26q-7 0 -4 6l54 87q2 5 11 5h42q3 0 4 -2t-2 -4zM370 719q-1 -1 -3 -2t-6 -1h-26q-4 0 -4.5 2t0.5 4l62 87q2 3 4.5 4t6.5 1h42q2 0 3 -2t-1 -4z" />
    <glyph glyph-name="uhungarumlaut" unicode="&#x171;" 
d="M251 -4q-75 0 -115.5 30t-56.5 81t-16 113q0 48 2 95.5t4 86.5t3 60q1 7 4 8.5t10 1.5h32q7 0 9 -1t1 -9q0 -7 -1.5 -32t-3 -60.5t-2.5 -76t-1 -77.5q0 -79 30.5 -125.5t100.5 -46.5q8 0 26.5 1.5t38.5 6t33.5 12t13.5 18.5v383q0 3 1 5t3 2h45q2 0 4 -1t2 -5v-418
q0 -12 -6 -17t-24 -12q-8 -3 -31 -8.5t-52 -10t-54 -4.5zM223 534q-1 -1 -3 -2.5t-7 -1.5h-22q-6 0 -4 7l33 100q2 4 11 4h38q3 0 4 -1.5t-2 -4.5zM302 534q-1 -1 -3 -2.5t-7 -1.5h-22q-6 0 -4 7l41 100q2 4 11 4h38q3 0 4 -1.5t-2 -4.5z" />
    <glyph glyph-name="Uogonek" unicode="&#x172;" horiz-adv-x="634" 
d="M317 -6q-81 0 -127.5 19t-68.5 48t-30 58.5t-10 52.5q-4 43 -6 93.5t-1 102.5q1 50 3.5 101.5t6.5 101.5t10 93q0 3 2 6t4 3h21.5h21.5q4 0 5 -1.5t0 -7.5q-4 -40 -7 -84.5t-6 -92.5q-4 -81 -4.5 -161.5t6.5 -148.5q2 -18 7.5 -41t22.5 -44.5t52.5 -36t96.5 -14.5
t96.5 14.5t53 36t23.5 44.5t7 41q6 67 6.5 145t-3.5 157q-3 50 -6.5 97t-7.5 88q0 6 1 7.5t4 1.5h22.5h21.5q4 0 5 -3l2 -6q5 -43 9.5 -92t6.5 -100t2 -100q2 -53 0.5 -105t-6.5 -95q-2 -18 -6.5 -41t-17 -47t-38 -44.5t-68 -33t-106.5 -12.5zM309 -203q-32 0 -55 20t-23 51
q0 30 15 55.5t37.5 46.5t43.5 35q4 2 9.5 4t11.5 2h31q3 0 4.5 -3t-4.5 -6q-24 -17 -48 -38t-39.5 -44t-15.5 -48q0 -19 11.5 -28.5t29.5 -8.5q19 0 37 9.5t30 20.5q3 3 5.5 2.5t2.5 -4.5v-25q0 -9 -9 -16q-12 -9 -30 -17t-44 -8z" />
    <glyph glyph-name="uogonek" unicode="&#x173;" 
d="M251 -4q-75 0 -115.5 30t-56.5 81t-16 113q0 48 2 95.5t4 86.5t3 60q1 7 4 8.5t10 1.5h32q7 0 9 -1t1 -9q0 -7 -1.5 -32t-3 -60.5t-2.5 -76t-1 -77.5q0 -79 30.5 -125.5t100.5 -46.5q8 0 26.5 1.5t38.5 6t33.5 12t13.5 18.5v383q0 3 1 5t3 2h45q2 0 4 -1t2 -5v-418
q0 -12 -6 -17t-24 -12q-8 -3 -31 -8.5t-52 -10t-54 -4.5zM244 -199q-32 0 -55 20t-23 51q0 30 15 55.5t37.5 46.5t43.5 35q4 2 9.5 4t11.5 2h31q3 0 4.5 -3t-4.5 -6q-24 -17 -48 -38t-39.5 -44t-15.5 -48q0 -19 11.5 -28.5t29.5 -8.5q19 0 37 9.5t30 20.5q3 3 5.5 2.5
t2.5 -4.5v-25q0 -9 -9 -16q-12 -9 -30 -17t-44 -8z" />
    <glyph glyph-name="Wcircumflex" unicode="&#x174;" horiz-adv-x="816" 
d="M226 0q-9 0 -12 7q-22 43 -45 107t-45 139t-41 151t-32.5 144t-20.5 117q0 3 0.5 5.5t5.5 2.5h8h12.5h12.5h9q5 0 6.5 -1.5t1.5 -5.5q7 -47 22.5 -120t37.5 -161q16 -63 32.5 -120.5t33 -106t30.5 -82.5q2 -3 3.5 -6t3.5 -3h4h4q3 0 4.5 2.5t2.5 6.5q10 23 22.5 58.5
t25.5 77t25.5 82.5t23 75.5t16.5 56.5q-2 32 -4 70t-4 73.5t-3.5 62t-1.5 34.5q0 4 1 6.5t5 2.5h9h13h13h9q5 0 6 -2t1 -6q0 -47 4 -94t10 -90.5t15 -82.5q18 -85 44.5 -166t55.5 -157q3 -5 4 -7.5t3 -2.5h4.5h4.5q3 0 6 8q13 30 29 77.5t33.5 106.5t33.5 123q12 44 21.5 84
t17 75t14 66t9.5 58q1 4 2.5 6t4.5 2h9.5h13h12.5h9q8 0 5 -10q-7 -43 -21 -109.5t-33.5 -144t-41 -154.5t-44 -142t-42.5 -105q-1 -4 -4 -6t-8 -2h-19h-21.5h-19.5q-3 0 -6 2.5t-4 4.5q-17 37 -36.5 88t-38 110.5t-34.5 121.5q-2 7 -4 8t-6 -8q-13 -51 -27.5 -98.5
t-28 -88.5t-26.5 -74t-25 -58q-2 -5 -5.5 -6.5t-6.5 -1.5h-19h-21h-18zM320 719q-3 0 -3.5 2.5t0.5 4.5l64 75q3 4 7 4h40q5 0 7 -4l64 -75q2 -2 1.5 -4.5t-4.5 -2.5h-27q-3 0 -5 1.5t-5 2.5l-45 44q-4 3 -8 0l-48 -44q-2 -1 -4 -2.5t-4 -1.5h-30z" />
    <glyph glyph-name="wcircumflex" unicode="&#x175;" horiz-adv-x="619" 
d="M166 8q-29 57 -53 119.5t-42 124t-30 115t-18 91.5q-2 8 0 11t5 3h44q9 0 10 -9q4 -30 13.5 -73.5t22.5 -90.5t27 -91.5t27.5 -79.5t24.5 -53q2 -5 5 -4.5t4 3.5q14 21 26.5 55t22 71.5t15.5 70t6 49.5v31t-0.5 42t-0.5 41v29q0 9 7 9h43q3 0 6 -1.5t3 -7.5
q0 -21 1 -56.5t1 -89.5q1 -15 7.5 -40.5t16.5 -56t21 -60.5t21 -53t16 -33q4 -8 10 0q11 19 24.5 54.5t27 79.5t25.5 91t21 90t13 74q2 9 12 9h40q4 0 5.5 -3t0.5 -10q-5 -40 -18.5 -95.5t-32 -118.5t-42 -124.5t-50.5 -112.5q-2 -5 -4.5 -6.5t-5.5 -1.5h-43q-4 0 -6.5 1.5
t-4.5 5.5q-14 26 -28.5 59t-26 65t-18.5 55q-5 17 -14 0q-5 -19 -12.5 -40t-16 -41.5t-16.5 -40.5q-7 -14 -14.5 -29.5t-13.5 -27.5q-1 -4 -4 -5.5t-7 -1.5h-41q-5 0 -7 1.5t-5 6.5zM221 530q-3 0 -3.5 2t0.5 4l64 88q2 3 6 3h39q5 0 6 -3l63 -88q2 -2 1.5 -4t-4.5 -2h-29
q-4 0 -7 3l-47 54q-3 4 -8 0l-45 -54q-2 -3 -7 -3h-29z" />
    <glyph glyph-name="Ycircumflex" unicode="&#x176;" horiz-adv-x="473" 
d="M278 307q-6 -8 -8.5 -22.5t-2.5 -25.5v-253q0 -3 -2 -4.5t-4 -1.5h-45q-6 0 -6 6v251q0 16 -5 33t-12 27q-10 13 -22.5 31t-24.5 37t-22 35.5t-15 27.5q-28 53 -48 99.5t-31 78t-13 37.5q-1 5 1.5 7.5t6.5 2.5h42q5 0 9 -10q2 -7 13.5 -36.5t30 -70t38.5 -81.5
q13 -27 30 -55.5t39 -57.5q5 -8 9 -9.5t11 7.5q13 16 26 36.5t25.5 42t20.5 37.5q20 40 37 80.5t28 70t13 36.5q2 6 4 8t5 2h43q4 0 6 -2.5t0 -7.5q-1 -6 -11 -36.5t-28.5 -75.5t-46.5 -97q-6 -13 -17 -31.5t-23.5 -39.5t-25.5 -41t-25 -35zM149 719q-3 0 -3.5 2.5t0.5 4.5
l64 75q3 4 7 4h40q5 0 7 -4l64 -75q2 -2 1.5 -4.5t-4.5 -2.5h-27q-3 0 -5 1.5t-5 2.5l-45 44q-4 3 -8 0l-48 -44q-2 -1 -4 -2.5t-4 -1.5h-30z" />
    <glyph glyph-name="ycircumflex" unicode="&#x177;" horiz-adv-x="408" 
d="M168 59q-25 34 -47.5 84.5t-41 108t-31.5 113t-19 97.5q-2 10 7 10h42q4 0 7.5 -2t4.5 -10q2 -27 10.5 -66t20.5 -81.5t26 -83t28 -72t27 -48.5q4 -7 8 -6.5t5 3.5q14 24 31 67.5t33 95.5t28 103t16 90q0 7 3.5 8.5t8.5 1.5h38q5 0 7.5 -1.5t0.5 -8.5q-4 -35 -11.5 -69
t-16.5 -67.5t-21 -68.5q-11 -36 -28 -85t-41.5 -100.5t-56.5 -96.5t-74.5 -72.5t-96.5 -27.5q-13 0 -24 1.5t-21 3.5q-10 4 -7 11l11 27q2 3 4.5 3.5t7.5 -0.5q27 -4 58 6t54 30q19 16 29.5 28.5t21.5 31.5q5 8 5.5 19.5t-6.5 22.5zM120 530q-3 0 -3.5 2t0.5 4l64 88
q2 3 6 3h39q5 0 6 -3l63 -88q2 -2 1.5 -4t-4.5 -2h-29q-4 0 -7 3l-47 54q-3 4 -8 0l-45 -54q-2 -3 -7 -3h-29z" />
    <glyph glyph-name="Ydieresis" unicode="&#x178;" horiz-adv-x="473" 
d="M278 307q-6 -8 -8.5 -22.5t-2.5 -25.5v-253q0 -3 -2 -4.5t-4 -1.5h-45q-6 0 -6 6v251q0 16 -5 33t-12 27q-10 13 -22.5 31t-24.5 37t-22 35.5t-15 27.5q-28 53 -48 99.5t-31 78t-13 37.5q-1 5 1.5 7.5t6.5 2.5h42q5 0 9 -10q2 -7 13.5 -36.5t30 -70t38.5 -81.5
q13 -27 30 -55.5t39 -57.5q5 -8 9 -9.5t11 7.5q13 16 26 36.5t25.5 42t20.5 37.5q20 40 37 80.5t28 70t13 36.5q2 6 4 8t5 2h43q4 0 6 -2.5t0 -7.5q-1 -6 -11 -36.5t-28.5 -75.5t-46.5 -97q-6 -13 -17 -31.5t-23.5 -39.5t-25.5 -41t-25 -35zM204 773q0 -14 -6.5 -21.5
t-27.5 -7.5q-19 0 -26 7.5t-7 21.5q0 16 7 23t26 7q21 0 27.5 -7t6.5 -23zM337 773q0 -14 -6 -21.5t-27 -7.5q-19 0 -26.5 7.5t-7.5 21.5q0 16 7.5 23t26.5 7q21 0 27 -7t6 -23z" />
    <glyph glyph-name="Zacute" unicode="&#x179;" horiz-adv-x="442" 
d="M400 673q4 0 5 -2t1 -8v-28q0 -10 -8 -23.5t-18 -24.5q-30 -34 -66.5 -85t-73 -110.5t-69 -121.5t-56.5 -120t-36 -104h344q4 0 5.5 -1.5t1.5 -4.5v-33q0 -5 -1.5 -6t-5.5 -1h-388q-8 0 -10.5 5t-1.5 13q0 41 18 94.5t48 114t65.5 121t71 115.5t66 97t49.5 66h-303
q-5 0 -6 2t-1 5v33q0 4 1 5.5t6 1.5h362zM218 720h-33q-4 0 -4 2t2 5l64 71q3 3 5.5 4.5t6.5 1.5h47q3 0 4 -2t-2 -4l-80 -73q-3 -2 -5 -3.5t-5 -1.5z" />
    <glyph glyph-name="zacute" unicode="&#x17a;" horiz-adv-x="352" 
d="M25 13q8 63 38.5 125.5t69.5 127.5q28 45 55.5 83.5t51.5 65.5q4 5 4 7.5t-6 3.5h-186q-2 0 -4 1.5t-2 4.5v33q0 5 2 6t5 1h263q6 0 6.5 -1.5t0.5 -7.5v-26q0 -4 -4 -11.5t-10 -11.5q-23 -22 -48.5 -53.5t-48.5 -66t-42 -65.5q-28 -51 -51 -94.5t-32 -74.5q-1 -4 0 -9.5
t8 -5.5h221q3 0 4.5 -1t1.5 -5v-33q0 -4 -2 -5t-6 -1h-280q-4 0 -6.5 2.5t-2.5 10.5zM143 530q-5 0 -5 2t2 5l52 87q2 5 11 5h44q3 0 4 -1.5t-3 -4.5l-65 -89q-2 -2 -4 -3t-6 -1h-30z" />
    <glyph glyph-name="Zdotaccent" unicode="&#x17b;" horiz-adv-x="442" 
d="M400 673q4 0 5 -2t1 -8v-28q0 -10 -8 -23.5t-18 -24.5q-30 -34 -66.5 -85t-73 -110.5t-69 -121.5t-56.5 -120t-36 -104h344q4 0 5.5 -1.5t1.5 -4.5v-33q0 -5 -1.5 -6t-5.5 -1h-388q-8 0 -10.5 5t-1.5 13q0 41 18 94.5t48 114t65.5 121t71 115.5t66 97t49.5 66h-303
q-5 0 -6 2t-1 5v33q0 4 1 5.5t6 1.5h362zM260 777q0 -17 -6.5 -25t-26.5 -8q-19 0 -26 8t-7 25q0 15 7 23.5t26 8.5q21 0 27 -8.5t6 -23.5z" />
    <glyph glyph-name="zdotaccent" unicode="&#x17c;" horiz-adv-x="352" 
d="M25 13q8 63 38.5 125.5t69.5 127.5q28 45 55.5 83.5t51.5 65.5q4 5 4 7.5t-6 3.5h-186q-2 0 -4 1.5t-2 4.5v33q0 5 2 6t5 1h263q6 0 6.5 -1.5t0.5 -7.5v-26q0 -4 -4 -11.5t-10 -11.5q-23 -22 -48.5 -53.5t-48.5 -66t-42 -65.5q-28 -51 -51 -94.5t-32 -74.5q-1 -4 0 -9.5
t8 -5.5h221q3 0 4.5 -1t1.5 -5v-33q0 -4 -2 -5t-6 -1h-280q-4 0 -6.5 2.5t-2.5 10.5zM208 577q0 -17 -6.5 -25t-26.5 -8q-19 0 -26 8t-7 25q0 15 7 23.5t26 8.5q21 0 27 -8.5t6 -23.5z" />
    <glyph glyph-name="Zcaron" unicode="&#x17d;" horiz-adv-x="442" 
d="M400 673q4 0 5 -2t1 -8v-28q0 -10 -8 -23.5t-18 -24.5q-30 -34 -66.5 -85t-73 -110.5t-69 -121.5t-56.5 -120t-36 -104h344q4 0 5.5 -1.5t1.5 -4.5v-33q0 -5 -1.5 -6t-5.5 -1h-388q-8 0 -10.5 5t-1.5 13q0 41 18 94.5t48 114t65.5 121t71 115.5t66 97t49.5 66h-303
q-5 0 -6 2t-1 5v33q0 4 1 5.5t6 1.5h362zM207 719q-5 0 -7 4l-65 75q-1 2 -0.5 4.5t3.5 2.5h28q5 0 7 -4l48 -45q5 -4 8 0l50 45q3 4 7 4h28q4 0 4.5 -2.5t-1.5 -4.5l-65 -75q-1 -4 -6 -4h-39z" />
    <glyph glyph-name="zcaron" unicode="&#x17e;" horiz-adv-x="352" 
d="M25 13q8 63 38.5 125.5t69.5 127.5q28 45 55.5 83.5t51.5 65.5q4 5 4 7.5t-6 3.5h-186q-2 0 -4 1.5t-2 4.5v33q0 5 2 6t5 1h263q6 0 6.5 -1.5t0.5 -7.5v-26q0 -4 -4 -11.5t-10 -11.5q-23 -22 -48.5 -53.5t-48.5 -66t-42 -65.5q-28 -51 -51 -94.5t-32 -74.5q-1 -4 0 -9.5
t8 -5.5h221q3 0 4.5 -1t1.5 -5v-33q0 -4 -2 -5t-6 -1h-280q-4 0 -6.5 2.5t-2.5 10.5zM155 530q-4 0 -6 3l-64 88q-1 2 -0.5 4t3.5 2h29q5 0 7 -3l45 -54q5 -5 8 0l47 54q3 3 7 3h29q4 0 4.5 -2t-1.5 -4l-63 -88q-1 -3 -6 -3h-39z" />
    <glyph glyph-name="florin" unicode="&#x192;" horiz-adv-x="547" 
d="M79 -108q-12 0 -25 1t-23.5 3t-17.5 5q-5 2 -4 6q0 2 1 6t2 9t1.5 9t1.5 6t2.5 4.5t7.5 0.5q39 -9 66.5 2t45.5 36t28.5 57t17.5 64q18 85 34.5 165t32.5 157q0 1 0.5 2t0.5 2h-41h-41q-2 0 -2.5 2l-0.5 2q1 3 2 7.5t2 10.5t2 11t2 8l1 2t3 2h41h41q1 2 1 4t1 4
q4 19 8 37.5t8 37.5q11 50 33.5 85t58 53.5t85.5 18.5q17 0 36 -3t30 -8q7 -3 8 -5t0 -6l-6 -29q-1 -4 -2 -5t-5 0q-16 6 -32 9t-32 3q-56 0 -81 -29.5t-39 -89.5q-3 -14 -5.5 -26t-5 -24.5t-5.5 -26.5h4.5h4.5h52h50h52q4 0 4 -4q-1 -3 -2 -8t-2 -11t-2 -10.5t-2 -7.5
l-1.5 -2t-3.5 -2h-54.5h-52h-54.5q-3 0 -3 -3q-9 -46 -18 -89t-18.5 -84.5t-18.5 -84.5t-18 -89q-10 -48 -29.5 -89.5t-50.5 -68t-74 -27.5z" />
    <glyph glyph-name="Ohorn" unicode="&#x1a0;" horiz-adv-x="625" 
d="M54 334q0 111 22 187.5t78 115.5t157 39q79 0 130 -22.5t79.5 -65t39.5 -106.5t11 -148t-11 -147.5t-39.5 -106.5t-79.5 -65t-130 -22q-101 0 -157 39t-78 115t-22 187zM112 334q0 -114 21.5 -177t64.5 -88t112 -25t113.5 25t67 88t22.5 177q0 115 -22.5 178.5t-67 89
t-113.5 25.5t-112.5 -26t-64.5 -89t-21 -178zM463 751q2 1 4 -3q2 -7 2.5 -13.5t0.5 -12.5q0 -26 -12 -45.5t-34.5 -30t-55.5 -12.5q-4 0 -4 4v30q0 4 4 4q33 2 45.5 15t13.5 35v8.5t-1 8.5q0 4 3 5z" />
    <glyph glyph-name="ohorn" unicode="&#x1a1;" 
d="M245 -6q-80 0 -124 31t-61.5 86t-17.5 126q0 70 19 124.5t63.5 85.5t120.5 31q77 0 121 -31t63 -85.5t19 -124.5q0 -71 -17.5 -126t-61 -86t-124.5 -31zM245 40q81 0 114 51.5t33 144.5t-35.5 143.5t-111.5 50.5t-111.5 -50.5t-35.5 -143.5q0 -94 33 -145t114 -51z
M398 551q2 1 4 -3q2 -7 2.5 -13.5t0.5 -12.5q0 -26 -12 -45.5t-34.5 -30t-55.5 -12.5q-4 0 -4 4v30q0 4 4 4q33 2 45.5 15t13.5 35v8.5t-1 8.5q0 4 3 5z" />
    <glyph glyph-name="Uhorn" unicode="&#x1af;" horiz-adv-x="634" 
d="M317 -6q-81 0 -127.5 19t-68.5 48t-30 58.5t-10 52.5q-4 43 -6 93.5t-1 102.5q1 50 3.5 101.5t6.5 101.5t10 93q0 3 2 6t4 3h21.5h21.5q4 0 5 -1.5t0 -7.5q-4 -40 -7 -84.5t-6 -92.5q-4 -81 -4.5 -161.5t6.5 -148.5q2 -18 7.5 -41t22.5 -44.5t52.5 -36t96.5 -14.5
t96.5 14.5t53 36t23.5 44.5t7 41q6 67 6.5 145t-3.5 157q-3 50 -6.5 97t-7.5 88q0 6 1 7.5t4 1.5h22.5h21.5q4 0 5 -3l2 -6q5 -43 9.5 -92t6.5 -100t2 -100q2 -53 0.5 -105t-6.5 -95q-2 -18 -6.5 -41t-17 -47t-38 -44.5t-68 -33t-106.5 -12.5zM601 751q2 1 4 -3
q2 -7 2.5 -13.5t0.5 -12.5q0 -26 -12 -45.5t-34.5 -30t-55.5 -12.5q-4 0 -4 4v30q0 4 4 4q33 2 45.5 15t13.5 35v8.5t-1 8.5q0 4 3 5z" />
    <glyph glyph-name="uhorn" unicode="&#x1b0;" 
d="M251 -4q-75 0 -115.5 30t-56.5 81t-16 113q0 48 2 95.5t4 86.5t3 60q1 7 4 8.5t10 1.5h32q7 0 9 -1t1 -9q0 -7 -1.5 -32t-3 -60.5t-2.5 -76t-1 -77.5q0 -79 30.5 -125.5t100.5 -46.5q8 0 26.5 1.5t38.5 6t33.5 12t13.5 18.5v383q0 3 1 5t3 2h45q2 0 4 -1t2 -5v-418
q0 -12 -6 -17t-24 -12q-8 -3 -31 -8.5t-52 -10t-54 -4.5zM471 551q2 1 4 -3q2 -7 2.5 -13.5t0.5 -12.5q0 -26 -12 -45.5t-34.5 -30t-55.5 -12.5q-4 0 -4 4v30q0 4 4 4q33 2 45.5 15t13.5 35v8.5t-1 8.5q0 4 3 5z" />
    <glyph glyph-name="uni0218" unicode="&#x218;" horiz-adv-x="452" 
d="M60 24v39q0 5 3.5 4t6.5 -2q20 -7 43.5 -13t47 -9.5t41.5 -3.5q74 0 111 40.5t37 108.5q0 60 -30 91t-102 50q-29 8 -60 17.5t-57 27.5t-42 49.5t-16 82.5q0 61 27.5 98t72 55t98.5 18q25 0 49 -3.5t45.5 -9t38.5 -13.5q5 -1 6.5 -3.5t1.5 -5.5v-33q0 -11 -14 -5
q-25 12 -56 19.5t-69 7.5q-63 0 -103 -31t-40 -91q0 -37 13 -60t35 -36.5t49 -21.5l54 -16q51 -14 86 -34t53 -55t18 -95q0 -63 -24.5 -107.5t-70 -68.5t-111.5 -24q-28 0 -65 7t-69 17q-4 1 -6 3t-2 6zM257 -65q0 -11 -6.5 -30t-15 -38.5t-18.5 -33.5q-2 -4 -4 -4h-12h-13
q-1 1 -1 2t2 6q7 13 15 34.5t13 37.5q-15 0 -20.5 7.5t-5.5 18.5q0 13 7 21t25 8q16 0 25 -6.5t9 -22.5z" />
    <glyph glyph-name="uni0219" unicode="&#x219;" horiz-adv-x="390" 
d="M41 73q1 4 3.5 4t5.5 -3q16 -10 40.5 -17.5t49.5 -11.5t43 -4q31 0 58 10t44 32.5t17 57.5q0 41 -29.5 57.5t-93.5 23.5q-39 5 -71.5 17t-51.5 36.5t-19 65.5q0 45 23.5 74.5t62 45.5t82.5 16q35 0 75.5 -9.5t62.5 -26.5q3 -2 3.5 -3.5t-0.5 -5.5l-10 -32q-2 -6 -10 -1
q-18 14 -53.5 23.5t-67.5 9.5q-52 0 -82.5 -26t-30.5 -62q0 -38 30.5 -54t83.5 -22q34 -4 61.5 -11.5t47 -20.5t30 -35.5t10.5 -55.5q0 -43 -15.5 -71.5t-42 -46t-57.5 -25t-62 -7.5q-15 0 -41 4t-52.5 12t-44.5 19q-4 2 -5 3.5t0 5.5zM226 -69q0 -11 -6.5 -30t-15 -38.5
t-18.5 -33.5q-2 -4 -4 -4h-12h-13q-1 1 -1 2t2 6q7 13 15 34.5t13 37.5q-15 0 -20.5 7.5t-5.5 18.5q0 13 7 21t25 8q16 0 25 -6.5t9 -22.5z" />
    <glyph glyph-name="uni021A" unicode="&#x21a;" horiz-adv-x="429" 
d="M192 0q-3 0 -5 1.5t-2 4.5v612q0 4 -1.5 6t-5.5 2h-149q-3 0 -5 1.5t-2 4.5v35q0 3 1.5 4.5t5.5 1.5h370q5 0 6.5 -1.5t1.5 -5.5v-33q0 -4 -1.5 -5.5t-6.5 -1.5h-148q-5 0 -7 -2t-2 -7v-611q0 -6 -6 -6h-44zM245 -65q0 -11 -6.5 -30t-15 -38.5t-18.5 -33.5q-2 -4 -4 -4
h-12h-13q-1 1 -1 2t2 6q7 13 15 34.5t13 37.5q-15 0 -20.5 7.5t-5.5 18.5q0 13 7 21t25 8q16 0 25 -6.5t9 -22.5z" />
    <glyph glyph-name="uni021B" unicode="&#x21b;" horiz-adv-x="318" 
d="M220 0q-61 0 -90 26t-38 73q-9 43 -9 90v97q0 35 1 68t3 67q0 9 -9 9h-53q-2 0 -4 2t-2 5v28q0 3 2 5t5 2h53q5 0 7 2t2 8l5 88q0 6 5 6h43q3 0 5 -1.5t2 -4.5l-5 -87q-1 -6 1 -8.5t7 -2.5h126q4 0 5 -1.5t1 -5.5v-28q0 -2 -1.5 -4.5t-5.5 -2.5h-126q-3 0 -5.5 -2
t-2.5 -8q-1 -34 -2.5 -69t-1.5 -71q0 -41 0.5 -85.5t9.5 -86.5q7 -31 24.5 -47t57.5 -16q15 0 30 3.5t29 8.5q6 4 8 3t4 -6l8 -26q3 -4 0 -7t-11 -7q-11 -4 -26.5 -7.5t-30 -5t-21.5 -1.5zM231 -63q0 -11 -6.5 -30t-15 -38.5t-18.5 -33.5q-2 -4 -4 -4h-12h-13q-1 1 -1 2t2 6
q7 13 15 34.5t13 37.5q-15 0 -20.5 7.5t-5.5 18.5q0 13 7 21t25 8q16 0 25 -6.5t9 -22.5z" />
    <glyph glyph-name="circumflex" unicode="&#x2c6;" horiz-adv-x="183" 
d="M5 530q-3 0 -3.5 2t0.5 4l64 88q2 3 6 3h39q5 0 6 -3l63 -88q2 -2 1.5 -4t-4.5 -2h-29q-4 0 -7 3l-47 54q-3 4 -8 0l-45 -54q-2 -3 -7 -3h-29z" />
    <glyph glyph-name="caron" unicode="&#x2c7;" horiz-adv-x="181" 
d="M71 530q-4 0 -6 3l-64 88q-1 2 -0.5 4t3.5 2h29q5 0 7 -3l45 -54q5 -5 8 0l47 54q3 3 7 3h29q4 0 4.5 -2t-1.5 -4l-63 -88q-1 -3 -6 -3h-39z" />
    <glyph glyph-name="breve" unicode="&#x2d8;" horiz-adv-x="184" 
d="M93 528q-44 0 -67.5 19t-25.5 60q0 4 1 5.5t5 1.5h28q4 0 5 -1t1 -5q2 -24 15.5 -34t37.5 -10q25 0 38.5 10t13.5 35q0 3 1.5 4t4.5 1h29q3 0 3.5 -1.5t0.5 -5.5q-1 -38 -22 -58.5t-69 -20.5z" />
    <glyph glyph-name="dotaccent" unicode="&#x2d9;" horiz-adv-x="66" 
d="M66 669q0 -16 -6.5 -24t-26.5 -8q-19 0 -26 8t-7 24t7 24t26 8q21 0 27 -8t6 -24z" />
    <glyph glyph-name="ring" unicode="&#x2da;" horiz-adv-x="182" 
d="M182 575q0 -37 -21.5 -60t-70.5 -23t-69.5 22.5t-20.5 60.5t20.5 60t69.5 22t70.5 -22t21.5 -60zM148 578q0 19 -9.5 32.5t-46.5 13.5t-47 -13.5t-10 -32.5q0 -12 3 -24.5t15.5 -20.5t38.5 -8q27 0 38.5 8t14.5 20.5t3 24.5z" />
    <glyph glyph-name="ogonek" unicode="&#x2db;" horiz-adv-x="164" 
d="M78 -198q-32 0 -55 20t-23 51q0 30 15 55.5t37.5 46.5t43.5 35q4 2 9.5 4t11.5 2h31q3 0 4.5 -3t-4.5 -6q-24 -17 -48 -38t-39.5 -44t-15.5 -48q0 -19 11.5 -28.5t29.5 -8.5q19 0 37 9.5t30 20.5q3 3 5.5 2.5t2.5 -4.5v-25q0 -9 -9 -16q-12 -9 -30 -17t-44 -8z" />
    <glyph glyph-name="tilde" unicode="&#x2dc;" horiz-adv-x="191" 
d="M5 537q-5 0 -5 5q0 27 15.5 44t40.5 17q14 0 29 -8.5t28.5 -17.5t22.5 -9q8 0 13 7t5 17q0 6 4 6h28q5 0 5 -6q0 -23 -15 -41.5t-40 -18.5q-16 0 -31.5 9t-28 18t-20.5 9q-9 0 -14.5 -7.5t-5.5 -18.5q0 -5 -4 -5h-27z" />
    <glyph glyph-name="hungarumlaut" unicode="&#x2dd;" horiz-adv-x="173" 
d="M37 534q-2 -1 -3.5 -2.5t-6.5 -1.5h-22q-7 0 -4 7l33 100q2 4 11 4h38q3 0 4 -1.5t-2 -4.5zM116 534q-1 -1 -3 -2.5t-7 -1.5h-22q-6 0 -4 7l41 100q2 4 11 4h38q3 0 4 -1.5t-2 -4.5z" />
    <glyph glyph-name="gravecomb" unicode="&#x300;" horiz-adv-x="0" 
d="M78 531q-6 0 -11 5l-66 87q-1 2 0 4t2 2h48q4 0 7 -1t4 -5l49 -86q3 -6 -2 -6h-31z" />
    <glyph glyph-name="acutecomb" unicode="&#x301;" horiz-adv-x="0" 
d="M5 530q-5 0 -5 2t2 5l52 87q2 5 11 5h44q3 0 4 -1.5t-3 -4.5l-65 -89q-2 -2 -4 -3t-6 -1h-30z" />
    <glyph glyph-name="uni0302" unicode="&#x302;" horiz-adv-x="0" 
d="M5 530q-3 0 -3.5 2t0.5 4l64 88q2 3 6 3h39q5 0 6 -3l63 -88q2 -2 1.5 -4t-4.5 -2h-29q-4 0 -7 3l-47 54q-3 4 -8 0l-45 -54q-2 -3 -7 -3h-29z" />
    <glyph glyph-name="tildecomb" unicode="&#x303;" horiz-adv-x="0" 
d="M5 537q-5 0 -5 5q0 27 15.5 44t40.5 17q14 0 29 -8.5t28.5 -17.5t22.5 -9q8 0 13 7t5 17q0 6 4 6h28q5 0 5 -6q0 -23 -15 -41.5t-40 -18.5q-16 0 -31.5 9t-28 18t-20.5 9q-9 0 -14.5 -7.5t-5.5 -18.5q0 -5 -4 -5h-27z" />
    <glyph glyph-name="uni0304" unicode="&#x304;" horiz-adv-x="0" 
d="M208 548q0 -1 -1 -2t-4 -1h-198q-3 0 -4 1t-1 3v32q0 3 1 4t4 1h198q3 0 4 -0.5t1 -3.5v-34z" />
    <glyph glyph-name="uni0306" unicode="&#x306;" horiz-adv-x="0" 
d="M93 528q-44 0 -67.5 19t-25.5 60q0 4 1 5.5t5 1.5h28q4 0 5 -1t1 -5q2 -24 15.5 -34t37.5 -10q25 0 38.5 10t13.5 35q0 3 1.5 4t4.5 1h29q3 0 3.5 -1.5t0.5 -5.5q-1 -38 -22 -58.5t-69 -20.5z" />
    <glyph glyph-name="uni0307" unicode="&#x307;" horiz-adv-x="0" 
d="M66 577q0 -17 -6.5 -25t-26.5 -8q-19 0 -26 8t-7 25q0 15 7 23.5t26 8.5q21 0 27 -8.5t6 -23.5z" />
    <glyph glyph-name="uni0308" unicode="&#x308;" horiz-adv-x="0" 
d="M71 573q0 -14 -6.5 -21.5t-27.5 -7.5q-19 0 -26 7.5t-7 21.5q0 16 7 23t26 7q21 0 27.5 -7t6.5 -23zM204 573q0 -14 -6 -21.5t-27 -7.5q-19 0 -26.5 7.5t-7.5 21.5q0 16 7.5 23t26.5 7q21 0 27 -7t6 -23z" />
    <glyph glyph-name="hookabovecomb" unicode="&#x309;" horiz-adv-x="0" 
d="M46 526q-2 0 -4 1.5t-2 3.5q0 18 8.5 27t17.5 14q8 6 14 11t6 15q0 20 -27 20q-12 0 -20.5 -3.5t-17.5 -10.5q-5 -5 -9 0l-12 20q-2 4 2 7q9 10 26.5 17t38.5 7q29 0 44.5 -15.5t15.5 -41.5q0 -20 -10.5 -30t-19.5 -15q-8 -4 -13.5 -8t-5.5 -14q0 -5 -6 -5h-26z" />
    <glyph glyph-name="uni030A" unicode="&#x30a;" horiz-adv-x="0" 
d="M161 587q0 -33 -18.5 -53.5t-61.5 -20.5q-44 0 -62.5 20.5t-18.5 53.5q0 34 18.5 53.5t62.5 19.5q43 0 61.5 -19.5t18.5 -53.5zM129 590q0 16 -8.5 27t-38.5 11q-32 0 -40.5 -11t-8.5 -27q0 -15 8 -29.5t41 -14.5t40 14.5t7 29.5z" />
    <glyph glyph-name="uni030B" unicode="&#x30b;" horiz-adv-x="0" 
d="M37 534q-1 -1 -3 -2.5t-7 -1.5h-22q-6 0 -4 7l33 100q2 4 11 4h38q3 0 4 -1.5t-2 -4.5zM116 534q-1 -1 -3 -2.5t-7 -1.5h-22q-6 0 -4 7l41 100q2 4 11 4h38q3 0 4 -1.5t-2 -4.5z" />
    <glyph glyph-name="uni030C" unicode="&#x30c;" horiz-adv-x="0" 
d="M72 530q-4 0 -6 3l-64 88q-1 2 -0.5 4t3.5 2h29q5 0 7 -3l45 -54q5 -5 8 0l47 54q3 3 7 3h29q4 0 4.5 -2t-1.5 -4l-63 -88q-1 -3 -6 -3h-39z" />
    <glyph glyph-name="uni0312" unicode="&#x312;" horiz-adv-x="0" 
d="M0 581q-1 15 4 37.5t13 45.5t16 38q1 3 4 5q4 0 11.5 0.5t13.5 0.5q1 -1 0.5 -3l-1.5 -6q-3 -8 -8 -24.5t-9 -33t-6 -29.5q16 2 21.5 -6t6.5 -21q1 -14 -5 -22t-25 -9q-17 -1 -26 5t-10 22z" />
    <glyph glyph-name="uni031B" unicode="&#x31b;" horiz-adv-x="0" 
d="M99 551q2 1 4 -3q2 -7 2.5 -13.5t0.5 -12.5q0 -26 -12 -45.5t-34.5 -30t-55.5 -12.5q-4 0 -4 4v30q0 4 4 4q33 2 45.5 15t13.5 35v8.5t-1 8.5q0 4 3 5z" />
    <glyph glyph-name="dotbelowcomb" unicode="&#x323;" horiz-adv-x="0" 
d="M66 -85q0 -16 -6.5 -24t-26.5 -8q-19 0 -26 8t-7 24t7 24t26 8q21 0 27 -8t6 -24z" />
    <glyph glyph-name="uni0326" unicode="&#x326;" horiz-adv-x="0" 
d="M73 -65q0 -11 -6.5 -30t-15 -38.5t-18.5 -33.5q-2 -4 -4 -4h-12h-13q-1 1 -1 2t2 6q7 13 15 34.5t13 37.5q-15 0 -20.5 7.5t-5.5 18.5q0 13 7 21t25 8q16 0 25 -6.5t9 -22.5z" />
    <glyph glyph-name="uni0327" unicode="&#x327;" horiz-adv-x="0" 
d="M164 -121q0 -27 -22.5 -48.5t-63.5 -21.5q-24 0 -44 10t-31 23q-3 4 -2 8t3 5l18 9q5 3 6.5 2.5t3.5 -3.5q6 -8 19.5 -15t25.5 -7q23 0 34.5 12t11.5 26q0 18 -12 26t-30 11t-35 4q-5 1 -7 5t1 10l36 59q3 5 6 6t6 1h18q9 0 5 -8l-31 -62l-8 14q38 -1 65 -16.5t27 -49.5z
" />
    <glyph glyph-name="uni0328" unicode="&#x328;" horiz-adv-x="0" 
d="M78 -198q-32 0 -55 20t-23 51q0 30 15 55.5t37.5 46.5t43.5 35q4 2 9.5 4t11.5 2h31q3 0 4.5 -3t-4.5 -6q-24 -17 -48 -38t-39.5 -44t-15.5 -48q0 -19 11.5 -28.5t29.5 -8.5q19 0 37 9.5t30 20.5q3 3 5.5 2.5t2.5 -4.5v-25q0 -9 -9 -16q-12 -9 -30 -17t-44 -8z" />
    <glyph glyph-name="uni03BC" unicode="&#x3bc;" horiz-adv-x="467" 
d="M249 -4q-23 0 -47.5 5t-46 13.5t-32.5 16.5q2 -45 7 -89t14.5 -81.5t23.5 -60.5h-37h-30q-8 15 -15 50t-12.5 81.5t-9.5 98t-6 101t-2 89.5q0 48 2 95.5t4 86.5t3 60q1 7 4 8.5t10 1.5h32q7 0 9 -1t1 -9q0 -7 -1.5 -32t-3 -60.5t-2.5 -76t-1 -77.5q0 -45 3.5 -73
t12.5 -52q16 -21 49.5 -34t63.5 -13q9 0 28 1.5t38.5 6t33.5 12t14 18.5v383q0 3 1 5t3 2h45q2 0 4 -1t2 -5v-413q0 -14 -6 -20t-24 -14q-8 -4 -30 -9.5t-49.5 -9.5t-52.5 -4z" />
    <glyph glyph-name="pi" unicode="&#x3c0;" horiz-adv-x="651" 
d="M150 0q-4 0 -6 2.5t-2 7.5v449h-60q-6 0 -8 2t-2 7v28q0 5 2 6.5t8 1.5h487q7 0 8.5 -1.5t1.5 -6.5v-28q0 -5 -1.5 -7t-8.5 -2h-60v-449q0 -5 -1.5 -7.5t-5.5 -2.5h-41q-4 0 -5.5 2.5t-1.5 7.5v449h-257v-449q0 -5 -1.5 -7.5t-6.5 -2.5h-39z" />
    <glyph glyph-name="Wgrave" unicode="&#x1e80;" horiz-adv-x="816" 
d="M226 0q-9 0 -12 7q-22 43 -45 107t-45 139t-41 151t-32.5 144t-20.5 117q0 3 0.5 5.5t5.5 2.5h8h12.5h12.5h9q5 0 6.5 -1.5t1.5 -5.5q7 -47 22.5 -120t37.5 -161q16 -63 32.5 -120.5t33 -106t30.5 -82.5q2 -3 3.5 -6t3.5 -3h4h4q3 0 4.5 2.5t2.5 6.5q10 23 22.5 58.5
t25.5 77t25.5 82.5t23 75.5t16.5 56.5q-2 32 -4 70t-4 73.5t-3.5 62t-1.5 34.5q0 4 1 6.5t5 2.5h9h13h13h9q5 0 6 -2t1 -6q0 -47 4 -94t10 -90.5t15 -82.5q18 -85 44.5 -166t55.5 -157q3 -5 4 -7.5t3 -2.5h4.5h4.5q3 0 6 8q13 30 29 77.5t33.5 106.5t33.5 123q12 44 21.5 84
t17 75t14 66t9.5 58q1 4 2.5 6t4.5 2h9.5h13h12.5h9q8 0 5 -10q-7 -43 -21 -109.5t-33.5 -144t-41 -154.5t-44 -142t-42.5 -105q-1 -4 -4 -6t-8 -2h-19h-21.5h-19.5q-3 0 -6 2.5t-4 4.5q-17 37 -36.5 88t-38 110.5t-34.5 121.5q-2 7 -4 8t-6 -8q-13 -51 -27.5 -98.5
t-28 -88.5t-26.5 -74t-25 -58q-2 -5 -5.5 -6.5t-6.5 -1.5h-19h-21h-18zM414 720q-3 0 -5 1.5t-6 3.5l-80 73q-1 2 0 4t2 2h48q4 0 6 -1.5t5 -4.5l64 -71q3 -3 2.5 -5t-4.5 -2h-32z" />
    <glyph glyph-name="wgrave" unicode="&#x1e81;" horiz-adv-x="619" 
d="M166 8q-29 57 -53 119.5t-42 124t-30 115t-18 91.5q-2 8 0 11t5 3h44q9 0 10 -9q4 -30 13.5 -73.5t22.5 -90.5t27 -91.5t27.5 -79.5t24.5 -53q2 -5 5 -4.5t4 3.5q14 21 26.5 55t22 71.5t15.5 70t6 49.5v31t-0.5 42t-0.5 41v29q0 9 7 9h43q3 0 6 -1.5t3 -7.5
q0 -21 1 -56.5t1 -89.5q1 -15 7.5 -40.5t16.5 -56t21 -60.5t21 -53t16 -33q4 -8 10 0q11 19 24.5 54.5t27 79.5t25.5 91t21 90t13 74q2 9 12 9h40q4 0 5.5 -3t0.5 -10q-5 -40 -18.5 -95.5t-32 -118.5t-42 -124.5t-50.5 -112.5q-2 -5 -4.5 -6.5t-5.5 -1.5h-43q-4 0 -6.5 1.5
t-4.5 5.5q-14 26 -28.5 59t-26 65t-18.5 55q-5 17 -14 0q-5 -19 -12.5 -40t-16 -41.5t-16.5 -40.5q-7 -14 -14.5 -29.5t-13.5 -27.5q-1 -4 -4 -5.5t-7 -1.5h-41q-5 0 -7 1.5t-5 6.5zM311 531q-6 0 -11 5l-66 87q-1 2 0 4t2 2h48q4 0 7 -1t4 -5l49 -86q3 -6 -2 -6h-31z" />
    <glyph glyph-name="Wacute" unicode="&#x1e82;" horiz-adv-x="816" 
d="M226 0q-9 0 -12 7q-22 43 -45 107t-45 139t-41 151t-32.5 144t-20.5 117q0 3 0.5 5.5t5.5 2.5h8h12.5h12.5h9q5 0 6.5 -1.5t1.5 -5.5q7 -47 22.5 -120t37.5 -161q16 -63 32.5 -120.5t33 -106t30.5 -82.5q2 -3 3.5 -6t3.5 -3h4h4q3 0 4.5 2.5t2.5 6.5q10 23 22.5 58.5
t25.5 77t25.5 82.5t23 75.5t16.5 56.5q-2 32 -4 70t-4 73.5t-3.5 62t-1.5 34.5q0 4 1 6.5t5 2.5h9h13h13h9q5 0 6 -2t1 -6q0 -47 4 -94t10 -90.5t15 -82.5q18 -85 44.5 -166t55.5 -157q3 -5 4 -7.5t3 -2.5h4.5h4.5q3 0 6 8q13 30 29 77.5t33.5 106.5t33.5 123q12 44 21.5 84
t17 75t14 66t9.5 58q1 4 2.5 6t4.5 2h9.5h13h12.5h9q8 0 5 -10q-7 -43 -21 -109.5t-33.5 -144t-41 -154.5t-44 -142t-42.5 -105q-1 -4 -4 -6t-8 -2h-19h-21.5h-19.5q-3 0 -6 2.5t-4 4.5q-17 37 -36.5 88t-38 110.5t-34.5 121.5q-2 7 -4 8t-6 -8q-13 -51 -27.5 -98.5
t-28 -88.5t-26.5 -74t-25 -58q-2 -5 -5.5 -6.5t-6.5 -1.5h-19h-21h-18zM400 720h-33q-4 0 -4 2t2 5l64 71q3 3 5.5 4.5t6.5 1.5h47q3 0 4 -2t-2 -4l-80 -73q-3 -2 -5 -3.5t-5 -1.5z" />
    <glyph glyph-name="wacute" unicode="&#x1e83;" horiz-adv-x="619" 
d="M166 8q-29 57 -53 119.5t-42 124t-30 115t-18 91.5q-2 8 0 11t5 3h44q9 0 10 -9q4 -30 13.5 -73.5t22.5 -90.5t27 -91.5t27.5 -79.5t24.5 -53q2 -5 5 -4.5t4 3.5q14 21 26.5 55t22 71.5t15.5 70t6 49.5v31t-0.5 42t-0.5 41v29q0 9 7 9h43q3 0 6 -1.5t3 -7.5
q0 -21 1 -56.5t1 -89.5q1 -15 7.5 -40.5t16.5 -56t21 -60.5t21 -53t16 -33q4 -8 10 0q11 19 24.5 54.5t27 79.5t25.5 91t21 90t13 74q2 9 12 9h40q4 0 5.5 -3t0.5 -10q-5 -40 -18.5 -95.5t-32 -118.5t-42 -124.5t-50.5 -112.5q-2 -5 -4.5 -6.5t-5.5 -1.5h-43q-4 0 -6.5 1.5
t-4.5 5.5q-14 26 -28.5 59t-26 65t-18.5 55q-5 17 -14 0q-5 -19 -12.5 -40t-16 -41.5t-16.5 -40.5q-7 -14 -14.5 -29.5t-13.5 -27.5q-1 -4 -4 -5.5t-7 -1.5h-41q-5 0 -7 1.5t-5 6.5zM278 530q-5 0 -5 2t2 5l52 87q2 5 11 5h44q3 0 4 -1.5t-3 -4.5l-65 -89q-2 -2 -4 -3t-6 -1
h-30z" />
    <glyph glyph-name="Wdieresis" unicode="&#x1e84;" horiz-adv-x="816" 
d="M226 0q-9 0 -12 7q-22 43 -45 107t-45 139t-41 151t-32.5 144t-20.5 117q0 3 0.5 5.5t5.5 2.5h8h12.5h12.5h9q5 0 6.5 -1.5t1.5 -5.5q7 -47 22.5 -120t37.5 -161q16 -63 32.5 -120.5t33 -106t30.5 -82.5q2 -3 3.5 -6t3.5 -3h4h4q3 0 4.5 2.5t2.5 6.5q10 23 22.5 58.5
t25.5 77t25.5 82.5t23 75.5t16.5 56.5q-2 32 -4 70t-4 73.5t-3.5 62t-1.5 34.5q0 4 1 6.5t5 2.5h9h13h13h9q5 0 6 -2t1 -6q0 -47 4 -94t10 -90.5t15 -82.5q18 -85 44.5 -166t55.5 -157q3 -5 4 -7.5t3 -2.5h4.5h4.5q3 0 6 8q13 30 29 77.5t33.5 106.5t33.5 123q12 44 21.5 84
t17 75t14 66t9.5 58q1 4 2.5 6t4.5 2h9.5h13h12.5h9q8 0 5 -10q-7 -43 -21 -109.5t-33.5 -144t-41 -154.5t-44 -142t-42.5 -105q-1 -4 -4 -6t-8 -2h-19h-21.5h-19.5q-3 0 -6 2.5t-4 4.5q-17 37 -36.5 88t-38 110.5t-34.5 121.5q-2 7 -4 8t-6 -8q-13 -51 -27.5 -98.5
t-28 -88.5t-26.5 -74t-25 -58q-2 -5 -5.5 -6.5t-6.5 -1.5h-19h-21h-18zM375 773q0 -14 -6.5 -21.5t-27.5 -7.5q-19 0 -26 7.5t-7 21.5q0 16 7 23t26 7q21 0 27.5 -7t6.5 -23zM508 773q0 -14 -6 -21.5t-27 -7.5q-19 0 -26.5 7.5t-7.5 21.5q0 16 7.5 23t26.5 7q21 0 27 -7
t6 -23z" />
    <glyph glyph-name="wdieresis" unicode="&#x1e85;" horiz-adv-x="619" 
d="M166 8q-29 57 -53 119.5t-42 124t-30 115t-18 91.5q-2 8 0 11t5 3h44q9 0 10 -9q4 -30 13.5 -73.5t22.5 -90.5t27 -91.5t27.5 -79.5t24.5 -53q2 -5 5 -4.5t4 3.5q14 21 26.5 55t22 71.5t15.5 70t6 49.5v31t-0.5 42t-0.5 41v29q0 9 7 9h43q3 0 6 -1.5t3 -7.5
q0 -21 1 -56.5t1 -89.5q1 -15 7.5 -40.5t16.5 -56t21 -60.5t21 -53t16 -33q4 -8 10 0q11 19 24.5 54.5t27 79.5t25.5 91t21 90t13 74q2 9 12 9h40q4 0 5.5 -3t0.5 -10q-5 -40 -18.5 -95.5t-32 -118.5t-42 -124.5t-50.5 -112.5q-2 -5 -4.5 -6.5t-5.5 -1.5h-43q-4 0 -6.5 1.5
t-4.5 5.5q-14 26 -28.5 59t-26 65t-18.5 55q-5 17 -14 0q-5 -19 -12.5 -40t-16 -41.5t-16.5 -40.5q-7 -14 -14.5 -29.5t-13.5 -27.5q-1 -4 -4 -5.5t-7 -1.5h-41q-5 0 -7 1.5t-5 6.5zM276 573q0 -14 -6.5 -21.5t-27.5 -7.5q-19 0 -26 7.5t-7 21.5q0 16 7 23t26 7
q21 0 27.5 -7t6.5 -23zM409 573q0 -14 -6 -21.5t-27 -7.5q-19 0 -26.5 7.5t-7.5 21.5q0 16 7.5 23t26.5 7q21 0 27 -7t6 -23z" />
    <glyph glyph-name="uni1E9E" unicode="&#x1e9e;" horiz-adv-x="892" 
d="M60 24v39q0 5 3.5 4t6.5 -2q20 -7 43.5 -13t47 -9.5t41.5 -3.5q74 0 111 40.5t37 108.5q0 60 -30 91t-102 50q-29 8 -60 17.5t-57 27.5t-42 49.5t-16 82.5q0 61 27.5 98t72 55t98.5 18q25 0 49 -3.5t45.5 -9t38.5 -13.5q5 -1 6.5 -3.5t1.5 -5.5v-33q0 -11 -14 -5
q-25 12 -56 19.5t-69 7.5q-63 0 -103 -31t-40 -91q0 -37 13 -60t35 -36.5t49 -21.5l54 -16q51 -14 86 -34t53 -55t18 -95q0 -63 -24.5 -107.5t-70 -68.5t-111.5 -24q-28 0 -65 7t-69 17q-4 1 -6 3t-2 6zM479 24v39q0 5 3.5 4t6.5 -2q20 -7 43.5 -13t47 -9.5t41.5 -3.5
q74 0 111 40.5t37 108.5q0 60 -30 91t-102 50q-29 8 -60 17.5t-57 27.5t-42 49.5t-16 82.5q0 61 27.5 98t72 55t98.5 18q25 0 49 -3.5t45.5 -9t38.5 -13.5q5 -1 6.5 -3.5t1.5 -5.5v-33q0 -11 -14 -5q-25 12 -56 19.5t-69 7.5q-63 0 -103 -31t-40 -91q0 -37 13 -60t35 -36.5
t49 -21.5l54 -16q51 -14 86 -34t53 -55t18 -95q0 -63 -24.5 -107.5t-70 -68.5t-111.5 -24q-28 0 -65 7t-69 17q-4 1 -6 3t-2 6z" />
    <glyph glyph-name="uni1EA0" unicode="&#x1ea0;" horiz-adv-x="554" 
d="M49 0q-5 0 -5.5 2.5t-0.5 9.5q7 48 21 115t33 142.5t40.5 150.5t44.5 139t44 106q2 4 5 6t6 2h79q4 -1 7 -2t5 -6q20 -41 42.5 -105.5t44.5 -140.5t41.5 -153t33.5 -143t20 -110q1 -8 0.5 -10.5t-5.5 -2.5h-44q-3 0 -4.5 2t-3.5 8q-4 28 -11.5 66t-15.5 80q-1 6 -4 7.5
t-9 1.5h-274q-5 0 -7 -2t-4 -8q-9 -41 -16.5 -79t-12.5 -66q0 -6 -1.5 -8t-5.5 -2h-43zM151 212h249q4 0 7 3.5t1 12.5q-24 94 -49 188.5t-62 181.5q-2 6 -9 6h-22q-7 0 -9 -7q-18 -43 -38.5 -105.5t-39.5 -132.5t-35 -136q-1 -3 0 -7t7 -4zM310 -85q0 -16 -6.5 -24
t-26.5 -8q-19 0 -26 8t-7 24t7 24t26 8q21 0 27 -8t6 -24z" />
    <glyph glyph-name="uni1EA1" unicode="&#x1ea1;" horiz-adv-x="484" 
d="M232 -8q-48 0 -88.5 11t-65 42.5t-24.5 90.5q0 50 16.5 82.5t43.5 50t59 24.5t62 7q32 0 64 -3t50 -7q15 -3 15 22q0 66 -31.5 93t-100.5 27q-40 0 -73.5 -10t-55.5 -25q-4 -3 -7 -2.5t-3 4.5l-5 32q-1 5 0.5 6.5t4.5 3.5q23 17 58.5 26.5t80.5 9.5q64 0 101 -14.5
t55.5 -39.5t25 -57.5t6.5 -68.5q1 -51 0.5 -93.5t-2.5 -83t-6 -83.5q-1 -6 -5.5 -11.5t-19.5 -11.5q-14 -5 -33.5 -9t-40.5 -7t-41.5 -4.5t-39.5 -1.5zM236 33q10 0 28.5 1.5t38.5 5t35 10.5t17 18q4 31 6 74.5t2 80.5q0 21 -15 25q-15 3 -47 7t-71 4q-17 0 -38 -5t-40 -18
t-31 -37t-12 -63q0 -37 16.5 -60t45.5 -33t65 -10zM271 -85q0 -16 -6.5 -24t-26.5 -8q-19 0 -26 8t-7 24t7 24t26 8q21 0 27 -8t6 -24z" />
    <glyph glyph-name="uni1EA2" unicode="&#x1ea2;" horiz-adv-x="554" 
d="M49 0q-5 0 -5.5 2.5t-0.5 9.5q7 48 21 115t33 142.5t40.5 150.5t44.5 139t44 106q2 4 5 6t6 2h79q4 -1 7 -2t5 -6q20 -41 42.5 -105.5t44.5 -140.5t41.5 -153t33.5 -143t20 -110q1 -8 0.5 -10.5t-5.5 -2.5h-44q-3 0 -4.5 2t-3.5 8q-4 28 -11.5 66t-15.5 80q-1 6 -4 7.5
t-9 1.5h-274q-5 0 -7 -2t-4 -8q-9 -41 -16.5 -79t-12.5 -66q0 -6 -1.5 -8t-5.5 -2h-43zM151 212h249q4 0 7 3.5t1 12.5q-24 94 -49 188.5t-62 181.5q-2 6 -9 6h-22q-7 0 -9 -7q-18 -43 -38.5 -105.5t-39.5 -132.5t-35 -136q-1 -3 0 -7t7 -4zM261 715q-1 0 -3 1.5t-2 2.5
q0 20 9 28.5t18 13.5q7 5 13.5 10t6.5 15q0 22 -29 22q-12 0 -21.5 -4t-17.5 -11q-7 -4 -8 1l-11 18q-1 2 0 3.5t2 2.5q10 11 27 17t36 6q27 0 42.5 -14.5t15.5 -39.5q0 -20 -10 -29.5t-20 -15.5q-8 -4 -14 -8t-6 -15q0 -4 -5 -4h-23z" />
    <glyph glyph-name="uni1EA3" unicode="&#x1ea3;" horiz-adv-x="484" 
d="M232 -8q-48 0 -88.5 11t-65 42.5t-24.5 90.5q0 50 16.5 82.5t43.5 50t59 24.5t62 7q32 0 64 -3t50 -7q15 -3 15 22q0 66 -31.5 93t-100.5 27q-40 0 -73.5 -10t-55.5 -25q-4 -3 -7 -2.5t-3 4.5l-5 32q-1 5 0.5 6.5t4.5 3.5q23 17 58.5 26.5t80.5 9.5q64 0 101 -14.5
t55.5 -39.5t25 -57.5t6.5 -68.5q1 -51 0.5 -93.5t-2.5 -83t-6 -83.5q-1 -6 -5.5 -11.5t-19.5 -11.5q-14 -5 -33.5 -9t-40.5 -7t-41.5 -4.5t-39.5 -1.5zM236 33q10 0 28.5 1.5t38.5 5t35 10.5t17 18q4 31 6 74.5t2 80.5q0 21 -15 25q-15 3 -47 7t-71 4q-17 0 -38 -5t-40 -18
t-31 -37t-12 -63q0 -37 16.5 -60t45.5 -33t65 -10zM237 525q-2 0 -4 1.5t-2 3.5q0 18 8.5 27t17.5 14q8 6 14 11t6 15q0 20 -27 20q-12 0 -20.5 -3.5t-17.5 -10.5q-5 -5 -9 0l-12 20q-2 4 2 7q9 10 26.5 17t38.5 7q29 0 44.5 -15.5t15.5 -41.5q0 -20 -10.5 -30t-19.5 -15
q-8 -4 -13.5 -8t-5.5 -14q0 -5 -6 -5h-26z" />
    <glyph glyph-name="uni1EA4" unicode="&#x1ea4;" horiz-adv-x="554" 
d="M49 0q-5 0 -5.5 2.5t-0.5 9.5q7 48 21 115t33 142.5t40.5 150.5t44.5 139t44 106q2 4 5 6t6 2h79q4 -1 7 -2t5 -6q20 -41 42.5 -105.5t44.5 -140.5t41.5 -153t33.5 -143t20 -110q1 -8 0.5 -10.5t-5.5 -2.5h-44q-3 0 -4.5 2t-3.5 8q-4 28 -11.5 66t-15.5 80q-1 6 -4 7.5
t-9 1.5h-274q-5 0 -7 -2t-4 -8q-9 -41 -16.5 -79t-12.5 -66q0 -6 -1.5 -8t-5.5 -2h-43zM151 212h249q4 0 7 3.5t1 12.5q-24 94 -49 188.5t-62 181.5q-2 6 -9 6h-22q-7 0 -9 -7q-18 -43 -38.5 -105.5t-39.5 -132.5t-35 -136q-1 -3 0 -7t7 -4zM189 719q-3 0 -3.5 2.5t0.5 4.5
l64 75q3 4 7 4h40q5 0 7 -4l64 -75q2 -2 1.5 -4.5t-4.5 -2.5h-27q-3 0 -5 1.5t-5 2.5l-45 44q-4 3 -8 0l-48 -44q-2 -1 -4 -2.5t-4 -1.5h-30zM405 770h-33q-4 0 -4 2t2 5l64 71q3 3 5.5 4.5t6.5 1.5h47q3 0 4 -2t-2 -4l-80 -73q-3 -2 -5 -3.5t-5 -1.5z" />
    <glyph glyph-name="uni1EA5" unicode="&#x1ea5;" horiz-adv-x="484" 
d="M232 -8q-48 0 -88.5 11t-65 42.5t-24.5 90.5q0 50 16.5 82.5t43.5 50t59 24.5t62 7q32 0 64 -3t50 -7q15 -3 15 22q0 66 -31.5 93t-100.5 27q-40 0 -73.5 -10t-55.5 -25q-4 -3 -7 -2.5t-3 4.5l-5 32q-1 5 0.5 6.5t4.5 3.5q23 17 58.5 26.5t80.5 9.5q64 0 101 -14.5
t55.5 -39.5t25 -57.5t6.5 -68.5q1 -51 0.5 -93.5t-2.5 -83t-6 -83.5q-1 -6 -5.5 -11.5t-19.5 -11.5q-14 -5 -33.5 -9t-40.5 -7t-41.5 -4.5t-39.5 -1.5zM236 33q10 0 28.5 1.5t38.5 5t35 10.5t17 18q4 31 6 74.5t2 80.5q0 21 -15 25q-15 3 -47 7t-71 4q-17 0 -38 -5t-40 -18
t-31 -37t-12 -63q0 -37 16.5 -60t45.5 -33t65 -10zM160 530q-3 0 -3.5 2t0.5 4l64 88q2 3 6 3h39q5 0 6 -3l63 -88q2 -2 1.5 -4t-4.5 -2h-29q-4 0 -7 3l-47 54q-3 4 -8 0l-45 -54q-2 -3 -7 -3h-29zM330 578q-5 0 -5 2t2 5l52 87q2 5 11 5h44q3 0 4 -1.5t-3 -4.5l-65 -89
q-2 -2 -4 -3t-6 -1h-30z" />
    <glyph glyph-name="uni1EA6" unicode="&#x1ea6;" horiz-adv-x="554" 
d="M49 0q-5 0 -5.5 2.5t-0.5 9.5q7 48 21 115t33 142.5t40.5 150.5t44.5 139t44 106q2 4 5 6t6 2h79q4 -1 7 -2t5 -6q20 -41 42.5 -105.5t44.5 -140.5t41.5 -153t33.5 -143t20 -110q1 -8 0.5 -10.5t-5.5 -2.5h-44q-3 0 -4.5 2t-3.5 8q-4 28 -11.5 66t-15.5 80q-1 6 -4 7.5
t-9 1.5h-274q-5 0 -7 -2t-4 -8q-9 -41 -16.5 -79t-12.5 -66q0 -6 -1.5 -8t-5.5 -2h-43zM151 212h249q4 0 7 3.5t1 12.5q-24 94 -49 188.5t-62 181.5q-2 6 -9 6h-22q-7 0 -9 -7q-18 -43 -38.5 -105.5t-39.5 -132.5t-35 -136q-1 -3 0 -7t7 -4zM189 719q-3 0 -3.5 2.5t0.5 4.5
l64 75q3 4 7 4h40q5 0 7 -4l64 -75q2 -2 1.5 -4.5t-4.5 -2.5h-27q-3 0 -5 1.5t-5 2.5l-45 44q-4 3 -8 0l-48 -44q-2 -1 -4 -2.5t-4 -1.5h-30zM401 781q-3 0 -5 1.5t-6 3.5l-80 73q-1 2 0 4t2 2h48q4 0 6 -1.5t5 -4.5l64 -71q3 -3 2.5 -5t-4.5 -2h-32z" />
    <glyph glyph-name="uni1EA7" unicode="&#x1ea7;" horiz-adv-x="484" 
d="M232 -8q-48 0 -88.5 11t-65 42.5t-24.5 90.5q0 50 16.5 82.5t43.5 50t59 24.5t62 7q32 0 64 -3t50 -7q15 -3 15 22q0 66 -31.5 93t-100.5 27q-40 0 -73.5 -10t-55.5 -25q-4 -3 -7 -2.5t-3 4.5l-5 32q-1 5 0.5 6.5t4.5 3.5q23 17 58.5 26.5t80.5 9.5q64 0 101 -14.5
t55.5 -39.5t25 -57.5t6.5 -68.5q1 -51 0.5 -93.5t-2.5 -83t-6 -83.5q-1 -6 -5.5 -11.5t-19.5 -11.5q-14 -5 -33.5 -9t-40.5 -7t-41.5 -4.5t-39.5 -1.5zM236 33q10 0 28.5 1.5t38.5 5t35 10.5t17 18q4 31 6 74.5t2 80.5q0 21 -15 25q-15 3 -47 7t-71 4q-17 0 -38 -5t-40 -18
t-31 -37t-12 -63q0 -37 16.5 -60t45.5 -33t65 -10zM160 530q-3 0 -3.5 2t0.5 4l64 88q2 3 6 3h39q5 0 6 -3l63 -88q2 -2 1.5 -4t-4.5 -2h-29q-4 0 -7 3l-47 54q-3 4 -8 0l-45 -54q-2 -3 -7 -3h-29zM364 579q-6 0 -11 5l-66 87q-1 2 0 4t2 2h48q4 0 7 -1t4 -5l49 -86
q3 -6 -2 -6h-31z" />
    <glyph glyph-name="uni1EA8" unicode="&#x1ea8;" horiz-adv-x="554" 
d="M49 0q-5 0 -5.5 2.5t-0.5 9.5q7 48 21 115t33 142.5t40.5 150.5t44.5 139t44 106q2 4 5 6t6 2h79q4 -1 7 -2t5 -6q20 -41 42.5 -105.5t44.5 -140.5t41.5 -153t33.5 -143t20 -110q1 -8 0.5 -10.5t-5.5 -2.5h-44q-3 0 -4.5 2t-3.5 8q-4 28 -11.5 66t-15.5 80q-1 6 -4 7.5
t-9 1.5h-274q-5 0 -7 -2t-4 -8q-9 -41 -16.5 -79t-12.5 -66q0 -6 -1.5 -8t-5.5 -2h-43zM151 212h249q4 0 7 3.5t1 12.5q-24 94 -49 188.5t-62 181.5q-2 6 -9 6h-22q-7 0 -9 -7q-18 -43 -38.5 -105.5t-39.5 -132.5t-35 -136q-1 -3 0 -7t7 -4zM189 719q-3 0 -3.5 2.5t0.5 4.5
l64 75q3 4 7 4h40q5 0 7 -4l64 -75q2 -2 1.5 -4.5t-4.5 -2.5h-27q-3 0 -5 1.5t-5 2.5l-45 44q-4 3 -8 0l-48 -44q-2 -1 -4 -2.5t-4 -1.5h-30zM397 765q-1 0 -3 1.5t-2 2.5q0 20 9 28.5t18 13.5q7 5 13.5 10t6.5 15q0 22 -29 22q-12 0 -21.5 -4t-17.5 -11q-7 -4 -8 1l-11 18
q-1 2 0 3.5t2 2.5q10 11 27 17t36 6q27 0 42.5 -14.5t15.5 -39.5q0 -20 -10 -29.5t-20 -15.5q-8 -4 -14 -8t-6 -15q0 -4 -5 -4h-23z" />
    <glyph glyph-name="uni1EA9" unicode="&#x1ea9;" horiz-adv-x="484" 
d="M232 -8q-48 0 -88.5 11t-65 42.5t-24.5 90.5q0 50 16.5 82.5t43.5 50t59 24.5t62 7q32 0 64 -3t50 -7q15 -3 15 22q0 66 -31.5 93t-100.5 27q-40 0 -73.5 -10t-55.5 -25q-4 -3 -7 -2.5t-3 4.5l-5 32q-1 5 0.5 6.5t4.5 3.5q23 17 58.5 26.5t80.5 9.5q64 0 101 -14.5
t55.5 -39.5t25 -57.5t6.5 -68.5q1 -51 0.5 -93.5t-2.5 -83t-6 -83.5q-1 -6 -5.5 -11.5t-19.5 -11.5q-14 -5 -33.5 -9t-40.5 -7t-41.5 -4.5t-39.5 -1.5zM236 33q10 0 28.5 1.5t38.5 5t35 10.5t17 18q4 31 6 74.5t2 80.5q0 21 -15 25q-15 3 -47 7t-71 4q-17 0 -38 -5t-40 -18
t-31 -37t-12 -63q0 -37 16.5 -60t45.5 -33t65 -10zM160 530q-3 0 -3.5 2t0.5 4l64 88q2 3 6 3h39q5 0 6 -3l63 -88q2 -2 1.5 -4t-4.5 -2h-29q-4 0 -7 3l-47 54q-3 4 -8 0l-45 -54q-2 -3 -7 -3h-29zM350 573q-2 0 -4 1.5t-2 3.5q0 18 8.5 27t17.5 14q8 6 14 11t6 15
q0 20 -27 20q-12 0 -20.5 -3.5t-17.5 -10.5q-5 -5 -9 0l-12 20q-2 4 2 7q9 10 26.5 17t38.5 7q29 0 44.5 -15.5t15.5 -41.5q0 -20 -10.5 -30t-19.5 -15q-8 -4 -13.5 -8t-5.5 -14q0 -5 -6 -5h-26z" />
    <glyph glyph-name="uni1EAA" unicode="&#x1eaa;" horiz-adv-x="554" 
d="M49 0q-5 0 -5.5 2.5t-0.5 9.5q7 48 21 115t33 142.5t40.5 150.5t44.5 139t44 106q2 4 5 6t6 2h79q4 -1 7 -2t5 -6q20 -41 42.5 -105.5t44.5 -140.5t41.5 -153t33.5 -143t20 -110q1 -8 0.5 -10.5t-5.5 -2.5h-44q-3 0 -4.5 2t-3.5 8q-4 28 -11.5 66t-15.5 80q-1 6 -4 7.5
t-9 1.5h-274q-5 0 -7 -2t-4 -8q-9 -41 -16.5 -79t-12.5 -66q0 -6 -1.5 -8t-5.5 -2h-43zM151 212h249q4 0 7 3.5t1 12.5q-24 94 -49 188.5t-62 181.5q-2 6 -9 6h-22q-7 0 -9 -7q-18 -43 -38.5 -105.5t-39.5 -132.5t-35 -136q-1 -3 0 -7t7 -4zM189 719q-3 0 -3.5 2.5t0.5 4.5
l64 75q3 4 7 4h40q5 0 7 -4l64 -75q2 -2 1.5 -4.5t-4.5 -2.5h-27q-3 0 -5 1.5t-5 2.5l-45 44q-4 3 -8 0l-48 -44q-2 -1 -4 -2.5t-4 -1.5h-30zM194 824q-5 0 -5 5q0 27 15 45t38 18q14 0 28.5 -9.5t27.5 -19t22 -9.5q7 0 12 8t5 19q0 6 4 6h25q5 0 5 -6q0 -23 -14 -42.5
t-38 -19.5q-15 0 -29.5 9.5t-26.5 19t-21 9.5q-8 0 -13.5 -8.5t-5.5 -19.5q0 -5 -4 -5h-25z" />
    <glyph glyph-name="uni1EAB" unicode="&#x1eab;" horiz-adv-x="484" 
d="M232 -8q-48 0 -88.5 11t-65 42.5t-24.5 90.5q0 50 16.5 82.5t43.5 50t59 24.5t62 7q32 0 64 -3t50 -7q15 -3 15 22q0 66 -31.5 93t-100.5 27q-40 0 -73.5 -10t-55.5 -25q-4 -3 -7 -2.5t-3 4.5l-5 32q-1 5 0.5 6.5t4.5 3.5q23 17 58.5 26.5t80.5 9.5q64 0 101 -14.5
t55.5 -39.5t25 -57.5t6.5 -68.5q1 -51 0.5 -93.5t-2.5 -83t-6 -83.5q-1 -6 -5.5 -11.5t-19.5 -11.5q-14 -5 -33.5 -9t-40.5 -7t-41.5 -4.5t-39.5 -1.5zM236 33q10 0 28.5 1.5t38.5 5t35 10.5t17 18q4 31 6 74.5t2 80.5q0 21 -15 25q-15 3 -47 7t-71 4q-17 0 -38 -5t-40 -18
t-31 -37t-12 -63q0 -37 16.5 -60t45.5 -33t65 -10zM160 530q-3 0 -3.5 2t0.5 4l64 88q2 3 6 3h39q5 0 6 -3l63 -88q2 -2 1.5 -4t-4.5 -2h-29q-4 0 -7 3l-47 54q-3 4 -8 0l-45 -54q-2 -3 -7 -3h-29zM157 654q-5 0 -5 5q0 27 15.5 44t40.5 17q14 0 29 -8.5t28.5 -17.5t22.5 -9
q8 0 13 7t5 17q0 6 4 6h28q5 0 5 -6q0 -23 -15 -41.5t-40 -18.5q-16 0 -31.5 9t-28 18t-20.5 9q-9 0 -14.5 -7.5t-5.5 -18.5q0 -5 -4 -5h-27z" />
    <glyph glyph-name="uni1EAC" unicode="&#x1eac;" horiz-adv-x="554" 
d="M49 0q-5 0 -5.5 2.5t-0.5 9.5q7 48 21 115t33 142.5t40.5 150.5t44.5 139t44 106q2 4 5 6t6 2h79q4 -1 7 -2t5 -6q20 -41 42.5 -105.5t44.5 -140.5t41.5 -153t33.5 -143t20 -110q1 -8 0.5 -10.5t-5.5 -2.5h-44q-3 0 -4.5 2t-3.5 8q-4 28 -11.5 66t-15.5 80q-1 6 -4 7.5
t-9 1.5h-274q-5 0 -7 -2t-4 -8q-9 -41 -16.5 -79t-12.5 -66q0 -6 -1.5 -8t-5.5 -2h-43zM151 212h249q4 0 7 3.5t1 12.5q-24 94 -49 188.5t-62 181.5q-2 6 -9 6h-22q-7 0 -9 -7q-18 -43 -38.5 -105.5t-39.5 -132.5t-35 -136q-1 -3 0 -7t7 -4zM310 -85q0 -16 -6.5 -24
t-26.5 -8q-19 0 -26 8t-7 24t7 24t26 8q21 0 27 -8t6 -24zM189 719q-3 0 -3.5 2.5t0.5 4.5l64 75q3 4 7 4h40q5 0 7 -4l64 -75q2 -2 1.5 -4.5t-4.5 -2.5h-27q-3 0 -5 1.5t-5 2.5l-45 44q-4 3 -8 0l-48 -44q-2 -1 -4 -2.5t-4 -1.5h-30z" />
    <glyph glyph-name="uni1EAD" unicode="&#x1ead;" horiz-adv-x="484" 
d="M232 -8q-48 0 -88.5 11t-65 42.5t-24.5 90.5q0 50 16.5 82.5t43.5 50t59 24.5t62 7q32 0 64 -3t50 -7q15 -3 15 22q0 66 -31.5 93t-100.5 27q-40 0 -73.5 -10t-55.5 -25q-4 -3 -7 -2.5t-3 4.5l-5 32q-1 5 0.5 6.5t4.5 3.5q23 17 58.5 26.5t80.5 9.5q64 0 101 -14.5
t55.5 -39.5t25 -57.5t6.5 -68.5q1 -51 0.5 -93.5t-2.5 -83t-6 -83.5q-1 -6 -5.5 -11.5t-19.5 -11.5q-14 -5 -33.5 -9t-40.5 -7t-41.5 -4.5t-39.5 -1.5zM236 33q10 0 28.5 1.5t38.5 5t35 10.5t17 18q4 31 6 74.5t2 80.5q0 21 -15 25q-15 3 -47 7t-71 4q-17 0 -38 -5t-40 -18
t-31 -37t-12 -63q0 -37 16.5 -60t45.5 -33t65 -10zM271 -85q0 -16 -6.5 -24t-26.5 -8q-19 0 -26 8t-7 24t7 24t26 8q21 0 27 -8t6 -24zM160 530q-3 0 -3.5 2t0.5 4l64 88q2 3 6 3h39q5 0 6 -3l63 -88q2 -2 1.5 -4t-4.5 -2h-29q-4 0 -7 3l-47 54q-3 4 -8 0l-45 -54
q-2 -3 -7 -3h-29z" />
    <glyph glyph-name="uni1EAE" unicode="&#x1eae;" horiz-adv-x="554" 
d="M49 0q-5 0 -5.5 2.5t-0.5 9.5q7 48 21 115t33 142.5t40.5 150.5t44.5 139t44 106q2 4 5 6t6 2h79q4 -1 7 -2t5 -6q20 -41 42.5 -105.5t44.5 -140.5t41.5 -153t33.5 -143t20 -110q1 -8 0.5 -10.5t-5.5 -2.5h-44q-3 0 -4.5 2t-3.5 8q-4 28 -11.5 66t-15.5 80q-1 6 -4 7.5
t-9 1.5h-274q-5 0 -7 -2t-4 -8q-9 -41 -16.5 -79t-12.5 -66q0 -6 -1.5 -8t-5.5 -2h-43zM151 212h249q4 0 7 3.5t1 12.5q-24 94 -49 188.5t-62 181.5q-2 6 -9 6h-22q-7 0 -9 -7q-18 -43 -38.5 -105.5t-39.5 -132.5t-35 -136q-1 -3 0 -7t7 -4zM278 716q-41 0 -62 19.5
t-23 59.5q0 2 1 4t4 2h26q3 0 4 -1t1 -4q2 -25 14.5 -35t34.5 -10t35.5 10.5t13.5 35.5q0 2 1.5 3t3.5 1h26q2 0 3 -1t1 -5q0 -38 -20.5 -58.5t-63.5 -20.5zM269 848h-33q-4 0 -4 2t2 5l64 71q3 3 5.5 4.5t6.5 1.5h47q3 0 4 -2t-2 -4l-80 -73q-3 -2 -5 -3.5t-5 -1.5z" />
    <glyph glyph-name="uni1EAF" unicode="&#x1eaf;" horiz-adv-x="484" 
d="M232 -8q-48 0 -88.5 11t-65 42.5t-24.5 90.5q0 50 16.5 82.5t43.5 50t59 24.5t62 7q32 0 64 -3t50 -7q15 -3 15 22q0 66 -31.5 93t-100.5 27q-40 0 -73.5 -10t-55.5 -25q-4 -3 -7 -2.5t-3 4.5l-5 32q-1 5 0.5 6.5t4.5 3.5q23 17 58.5 26.5t80.5 9.5q64 0 101 -14.5
t55.5 -39.5t25 -57.5t6.5 -68.5q1 -51 0.5 -93.5t-2.5 -83t-6 -83.5q-1 -6 -5.5 -11.5t-19.5 -11.5q-14 -5 -33.5 -9t-40.5 -7t-41.5 -4.5t-39.5 -1.5zM236 33q10 0 28.5 1.5t38.5 5t35 10.5t17 18q4 31 6 74.5t2 80.5q0 21 -15 25q-15 3 -47 7t-71 4q-17 0 -38 -5t-40 -18
t-31 -37t-12 -63q0 -37 16.5 -60t45.5 -33t65 -10zM249 528q-44 0 -67.5 19t-25.5 60q0 4 1 5.5t5 1.5h28q4 0 5 -1t1 -5q2 -24 15.5 -34t37.5 -10q25 0 38.5 10t13.5 35q0 3 1.5 4t4.5 1h29q3 0 3.5 -1.5t0.5 -5.5q-1 -38 -22 -58.5t-69 -20.5zM218 640q-5 0 -5 2t2 5
l52 87q2 5 11 5h44q3 0 4 -1.5t-3 -4.5l-65 -89q-2 -2 -4 -3t-6 -1h-30z" />
    <glyph glyph-name="uni1EB0" unicode="&#x1eb0;" horiz-adv-x="554" 
d="M49 0q-5 0 -5.5 2.5t-0.5 9.5q7 48 21 115t33 142.5t40.5 150.5t44.5 139t44 106q2 4 5 6t6 2h79q4 -1 7 -2t5 -6q20 -41 42.5 -105.5t44.5 -140.5t41.5 -153t33.5 -143t20 -110q1 -8 0.5 -10.5t-5.5 -2.5h-44q-3 0 -4.5 2t-3.5 8q-4 28 -11.5 66t-15.5 80q-1 6 -4 7.5
t-9 1.5h-274q-5 0 -7 -2t-4 -8q-9 -41 -16.5 -79t-12.5 -66q0 -6 -1.5 -8t-5.5 -2h-43zM151 212h249q4 0 7 3.5t1 12.5q-24 94 -49 188.5t-62 181.5q-2 6 -9 6h-22q-7 0 -9 -7q-18 -43 -38.5 -105.5t-39.5 -132.5t-35 -136q-1 -3 0 -7t7 -4zM278 716q-41 0 -62 19.5
t-23 59.5q0 2 1 4t4 2h26q3 0 4 -1t1 -4q2 -25 14.5 -35t34.5 -10t35.5 10.5t13.5 35.5q0 2 1.5 3t3.5 1h26q2 0 3 -1t1 -5q0 -38 -20.5 -58.5t-63.5 -20.5zM283 848q-3 0 -5 1.5t-6 3.5l-80 73q-1 2 0 4t2 2h48q4 0 6 -1.5t5 -4.5l64 -71q3 -3 2.5 -5t-4.5 -2h-32z" />
    <glyph glyph-name="uni1EB1" unicode="&#x1eb1;" horiz-adv-x="484" 
d="M232 -8q-48 0 -88.5 11t-65 42.5t-24.5 90.5q0 50 16.5 82.5t43.5 50t59 24.5t62 7q32 0 64 -3t50 -7q15 -3 15 22q0 66 -31.5 93t-100.5 27q-40 0 -73.5 -10t-55.5 -25q-4 -3 -7 -2.5t-3 4.5l-5 32q-1 5 0.5 6.5t4.5 3.5q23 17 58.5 26.5t80.5 9.5q64 0 101 -14.5
t55.5 -39.5t25 -57.5t6.5 -68.5q1 -51 0.5 -93.5t-2.5 -83t-6 -83.5q-1 -6 -5.5 -11.5t-19.5 -11.5q-14 -5 -33.5 -9t-40.5 -7t-41.5 -4.5t-39.5 -1.5zM236 33q10 0 28.5 1.5t38.5 5t35 10.5t17 18q4 31 6 74.5t2 80.5q0 21 -15 25q-15 3 -47 7t-71 4q-17 0 -38 -5t-40 -18
t-31 -37t-12 -63q0 -37 16.5 -60t45.5 -33t65 -10zM249 528q-44 0 -67.5 19t-25.5 60q0 4 1 5.5t5 1.5h28q4 0 5 -1t1 -5q2 -24 15.5 -34t37.5 -10q25 0 38.5 10t13.5 35q0 3 1.5 4t4.5 1h29q3 0 3.5 -1.5t0.5 -5.5q-1 -38 -22 -58.5t-69 -20.5zM251 641q-6 0 -11 5l-66 87
q-1 2 0 4t2 2h48q4 0 7 -1t4 -5l49 -86q3 -6 -2 -6h-31z" />
    <glyph glyph-name="uni1EB2" unicode="&#x1eb2;" horiz-adv-x="554" 
d="M49 0q-5 0 -5.5 2.5t-0.5 9.5q7 48 21 115t33 142.5t40.5 150.5t44.5 139t44 106q2 4 5 6t6 2h79q4 -1 7 -2t5 -6q20 -41 42.5 -105.5t44.5 -140.5t41.5 -153t33.5 -143t20 -110q1 -8 0.5 -10.5t-5.5 -2.5h-44q-3 0 -4.5 2t-3.5 8q-4 28 -11.5 66t-15.5 80q-1 6 -4 7.5
t-9 1.5h-274q-5 0 -7 -2t-4 -8q-9 -41 -16.5 -79t-12.5 -66q0 -6 -1.5 -8t-5.5 -2h-43zM151 212h249q4 0 7 3.5t1 12.5q-24 94 -49 188.5t-62 181.5q-2 6 -9 6h-22q-7 0 -9 -7q-18 -43 -38.5 -105.5t-39.5 -132.5t-35 -136q-1 -3 0 -7t7 -4zM278 716q-41 0 -62 19.5
t-23 59.5q0 2 1 4t4 2h26q3 0 4 -1t1 -4q2 -25 14.5 -35t34.5 -10t35.5 10.5t13.5 35.5q0 2 1.5 3t3.5 1h26q2 0 3 -1t1 -5q0 -38 -20.5 -58.5t-63.5 -20.5zM261 843q-1 0 -3 1.5t-2 2.5q0 20 9 28.5t18 13.5q7 5 13.5 10t6.5 15q0 22 -29 22q-12 0 -21.5 -4t-17.5 -11
q-7 -4 -8 1l-11 18q-1 2 0 3.5t2 2.5q10 11 27 17t36 6q27 0 42.5 -14.5t15.5 -39.5q0 -20 -10 -29.5t-20 -15.5q-8 -4 -14 -8t-6 -15q0 -4 -5 -4h-23z" />
    <glyph glyph-name="uni1EB3" unicode="&#x1eb3;" horiz-adv-x="484" 
d="M232 -8q-48 0 -88.5 11t-65 42.5t-24.5 90.5q0 50 16.5 82.5t43.5 50t59 24.5t62 7q32 0 64 -3t50 -7q15 -3 15 22q0 66 -31.5 93t-100.5 27q-40 0 -73.5 -10t-55.5 -25q-4 -3 -7 -2.5t-3 4.5l-5 32q-1 5 0.5 6.5t4.5 3.5q23 17 58.5 26.5t80.5 9.5q64 0 101 -14.5
t55.5 -39.5t25 -57.5t6.5 -68.5q1 -51 0.5 -93.5t-2.5 -83t-6 -83.5q-1 -6 -5.5 -11.5t-19.5 -11.5q-14 -5 -33.5 -9t-40.5 -7t-41.5 -4.5t-39.5 -1.5zM236 33q10 0 28.5 1.5t38.5 5t35 10.5t17 18q4 31 6 74.5t2 80.5q0 21 -15 25q-15 3 -47 7t-71 4q-17 0 -38 -5t-40 -18
t-31 -37t-12 -63q0 -37 16.5 -60t45.5 -33t65 -10zM249 528q-44 0 -67.5 19t-25.5 60q0 4 1 5.5t5 1.5h28q4 0 5 -1t1 -5q2 -24 15.5 -34t37.5 -10q25 0 38.5 10t13.5 35q0 3 1.5 4t4.5 1h29q3 0 3.5 -1.5t0.5 -5.5q-1 -38 -22 -58.5t-69 -20.5zM237 635q-2 0 -4 1.5t-2 3.5
q0 18 8.5 27t17.5 14q8 6 14 11t6 15q0 20 -27 20q-12 0 -20.5 -3.5t-17.5 -10.5q-5 -5 -9 0l-12 20q-2 4 2 7q9 10 26.5 17t38.5 7q29 0 44.5 -15.5t15.5 -41.5q0 -20 -10.5 -30t-19.5 -15q-8 -4 -13.5 -8t-5.5 -14q0 -5 -6 -5h-26z" />
    <glyph glyph-name="uni1EB4" unicode="&#x1eb4;" horiz-adv-x="554" 
d="M49 0q-5 0 -5.5 2.5t-0.5 9.5q7 48 21 115t33 142.5t40.5 150.5t44.5 139t44 106q2 4 5 6t6 2h79q4 -1 7 -2t5 -6q20 -41 42.5 -105.5t44.5 -140.5t41.5 -153t33.5 -143t20 -110q1 -8 0.5 -10.5t-5.5 -2.5h-44q-3 0 -4.5 2t-3.5 8q-4 28 -11.5 66t-15.5 80q-1 6 -4 7.5
t-9 1.5h-274q-5 0 -7 -2t-4 -8q-9 -41 -16.5 -79t-12.5 -66q0 -6 -1.5 -8t-5.5 -2h-43zM151 212h249q4 0 7 3.5t1 12.5q-24 94 -49 188.5t-62 181.5q-2 6 -9 6h-22q-7 0 -9 -7q-18 -43 -38.5 -105.5t-39.5 -132.5t-35 -136q-1 -3 0 -7t7 -4zM278 716q-41 0 -62 19.5
t-23 59.5q0 2 1 4t4 2h26q3 0 4 -1t1 -4q2 -25 14.5 -35t34.5 -10t35.5 10.5t13.5 35.5q0 2 1.5 3t3.5 1h26q2 0 3 -1t1 -5q0 -38 -20.5 -58.5t-63.5 -20.5zM191 849q-5 0 -5 5q0 27 15 45t38 18q14 0 28.5 -9.5t27.5 -19t22 -9.5q7 0 12 8t5 19q0 6 4 6h25q5 0 5 -6
q0 -23 -14 -42.5t-38 -19.5q-15 0 -29.5 9.5t-26.5 19t-21 9.5q-8 0 -13.5 -8.5t-5.5 -19.5q0 -5 -4 -5h-25z" />
    <glyph glyph-name="uni1EB5" unicode="&#x1eb5;" horiz-adv-x="484" 
d="M232 -8q-48 0 -88.5 11t-65 42.5t-24.5 90.5q0 50 16.5 82.5t43.5 50t59 24.5t62 7q32 0 64 -3t50 -7q15 -3 15 22q0 66 -31.5 93t-100.5 27q-40 0 -73.5 -10t-55.5 -25q-4 -3 -7 -2.5t-3 4.5l-5 32q-1 5 0.5 6.5t4.5 3.5q23 17 58.5 26.5t80.5 9.5q64 0 101 -14.5
t55.5 -39.5t25 -57.5t6.5 -68.5q1 -51 0.5 -93.5t-2.5 -83t-6 -83.5q-1 -6 -5.5 -11.5t-19.5 -11.5q-14 -5 -33.5 -9t-40.5 -7t-41.5 -4.5t-39.5 -1.5zM236 33q10 0 28.5 1.5t38.5 5t35 10.5t17 18q4 31 6 74.5t2 80.5q0 21 -15 25q-15 3 -47 7t-71 4q-17 0 -38 -5t-40 -18
t-31 -37t-12 -63q0 -37 16.5 -60t45.5 -33t65 -10zM249 528q-44 0 -67.5 19t-25.5 60q0 4 1 5.5t5 1.5h28q4 0 5 -1t1 -5q2 -24 15.5 -34t37.5 -10q25 0 38.5 10t13.5 35q0 3 1.5 4t4.5 1h29q3 0 3.5 -1.5t0.5 -5.5q-1 -38 -22 -58.5t-69 -20.5zM159 645q-5 0 -5 5
q0 27 15.5 44t40.5 17q14 0 29 -8.5t28.5 -17.5t22.5 -9q8 0 13 7t5 17q0 6 4 6h28q5 0 5 -6q0 -23 -15 -41.5t-40 -18.5q-16 0 -31.5 9t-28 18t-20.5 9q-9 0 -14.5 -7.5t-5.5 -18.5q0 -5 -4 -5h-27z" />
    <glyph glyph-name="uni1EB6" unicode="&#x1eb6;" horiz-adv-x="554" 
d="M49 0q-5 0 -5.5 2.5t-0.5 9.5q7 48 21 115t33 142.5t40.5 150.5t44.5 139t44 106q2 4 5 6t6 2h79q4 -1 7 -2t5 -6q20 -41 42.5 -105.5t44.5 -140.5t41.5 -153t33.5 -143t20 -110q1 -8 0.5 -10.5t-5.5 -2.5h-44q-3 0 -4.5 2t-3.5 8q-4 28 -11.5 66t-15.5 80q-1 6 -4 7.5
t-9 1.5h-274q-5 0 -7 -2t-4 -8q-9 -41 -16.5 -79t-12.5 -66q0 -6 -1.5 -8t-5.5 -2h-43zM151 212h249q4 0 7 3.5t1 12.5q-24 94 -49 188.5t-62 181.5q-2 6 -9 6h-22q-7 0 -9 -7q-18 -43 -38.5 -105.5t-39.5 -132.5t-35 -136q-1 -3 0 -7t7 -4zM310 -85q0 -16 -6.5 -24
t-26.5 -8q-19 0 -26 8t-7 24t7 24t26 8q21 0 27 -8t6 -24zM278 716q-41 0 -62 19.5t-23 59.5q0 2 1 4t4 2h26q3 0 4 -1t1 -4q2 -25 14.5 -35t34.5 -10t35.5 10.5t13.5 35.5q0 2 1.5 3t3.5 1h26q2 0 3 -1t1 -5q0 -38 -20.5 -58.5t-63.5 -20.5z" />
    <glyph glyph-name="uni1EB7" unicode="&#x1eb7;" horiz-adv-x="484" 
d="M232 -8q-48 0 -88.5 11t-65 42.5t-24.5 90.5q0 50 16.5 82.5t43.5 50t59 24.5t62 7q32 0 64 -3t50 -7q15 -3 15 22q0 66 -31.5 93t-100.5 27q-40 0 -73.5 -10t-55.5 -25q-4 -3 -7 -2.5t-3 4.5l-5 32q-1 5 0.5 6.5t4.5 3.5q23 17 58.5 26.5t80.5 9.5q64 0 101 -14.5
t55.5 -39.5t25 -57.5t6.5 -68.5q1 -51 0.5 -93.5t-2.5 -83t-6 -83.5q-1 -6 -5.5 -11.5t-19.5 -11.5q-14 -5 -33.5 -9t-40.5 -7t-41.5 -4.5t-39.5 -1.5zM236 33q10 0 28.5 1.5t38.5 5t35 10.5t17 18q4 31 6 74.5t2 80.5q0 21 -15 25q-15 3 -47 7t-71 4q-17 0 -38 -5t-40 -18
t-31 -37t-12 -63q0 -37 16.5 -60t45.5 -33t65 -10zM271 -85q0 -16 -6.5 -24t-26.5 -8q-19 0 -26 8t-7 24t7 24t26 8q21 0 27 -8t6 -24zM249 528q-44 0 -67.5 19t-25.5 60q0 4 1 5.5t5 1.5h28q4 0 5 -1t1 -5q2 -24 15.5 -34t37.5 -10q25 0 38.5 10t13.5 35q0 3 1.5 4t4.5 1
h29q3 0 3.5 -1.5t0.5 -5.5q-1 -38 -22 -58.5t-69 -20.5z" />
    <glyph glyph-name="uni1EB8" unicode="&#x1eb8;" horiz-adv-x="444" 
d="M90 0q-6 0 -6 6v661q0 6 6 6h311q4 0 5 -1t1 -6v-33q0 -4 -1 -5.5t-5 -1.5h-254q-4 0 -5 -2t-1 -5v-249q0 -3 2 -5.5t5 -2.5h208q4 0 5 -1t1 -6v-32q0 -4 -1 -5.5t-5 -1.5h-209q-4 0 -5 -1.5t-1 -5.5v-254q0 -4 1 -6.5t6 -2.5h252q5 0 6 -1t1 -6v-31q0 -5 -1.5 -6.5
t-5.5 -1.5h-310zM273 -85q0 -16 -6.5 -24t-26.5 -8q-19 0 -26 8t-7 24t7 24t26 8q21 0 27 -8t6 -24z" />
    <glyph glyph-name="uni1EB9" unicode="&#x1eb9;" horiz-adv-x="457" 
d="M42 237q0 47 9 90t31 77t60 54t96 20q61 0 97 -18t54.5 -47.5t24.5 -65.5t6 -72t-7 -44t-20 -8h-285q-2 0 -6 -2t-4 -11q1 -50 16 -89t47.5 -60.5t84.5 -21.5q34 0 71.5 8t64.5 22q7 4 11.5 4.5t7.5 -6.5l10 -20q3 -4 1.5 -6.5t-5.5 -5.5q-32 -20 -76.5 -30.5
t-91.5 -10.5q-60 0 -98.5 19t-60 52t-30 77t-8.5 95zM363 284q0 38 -9.5 71.5t-36.5 55t-80 21.5q-38 0 -64.5 -14.5t-42 -37.5t-22.5 -49.5t-9 -50.5q-1 -9 0.5 -12.5t10.5 -3.5h235q10 0 14.5 3.5t3.5 16.5zM263 -85q0 -16 -6.5 -24t-26.5 -8q-19 0 -26 8t-7 24t7 24t26 8
q21 0 27 -8t6 -24z" />
    <glyph glyph-name="uni1EBA" unicode="&#x1eba;" horiz-adv-x="444" 
d="M90 0q-6 0 -6 6v661q0 6 6 6h311q4 0 5 -1t1 -6v-33q0 -4 -1 -5.5t-5 -1.5h-254q-4 0 -5 -2t-1 -5v-249q0 -3 2 -5.5t5 -2.5h208q4 0 5 -1t1 -6v-32q0 -4 -1 -5.5t-5 -1.5h-209q-4 0 -5 -1.5t-1 -5.5v-254q0 -4 1 -6.5t6 -2.5h252q5 0 6 -1t1 -6v-31q0 -5 -1.5 -6.5
t-5.5 -1.5h-310zM224 715q-1 0 -3 1.5t-2 2.5q0 20 9 28.5t18 13.5q7 5 13.5 10t6.5 15q0 22 -29 22q-12 0 -21.5 -4t-17.5 -11q-7 -4 -8 1l-11 18q-1 2 0 3.5t2 2.5q10 11 27 17t36 6q27 0 42.5 -14.5t15.5 -39.5q0 -20 -10 -29.5t-20 -15.5q-8 -4 -14 -8t-6 -15
q0 -4 -5 -4h-23z" />
    <glyph glyph-name="uni1EBB" unicode="&#x1ebb;" horiz-adv-x="457" 
d="M42 237q0 47 9 90t31 77t60 54t96 20q61 0 97 -18t54.5 -47.5t24.5 -65.5t6 -72t-7 -44t-20 -8h-285q-2 0 -6 -2t-4 -11q1 -50 16 -89t47.5 -60.5t84.5 -21.5q34 0 71.5 8t64.5 22q7 4 11.5 4.5t7.5 -6.5l10 -20q3 -4 1.5 -6.5t-5.5 -5.5q-32 -20 -76.5 -30.5
t-91.5 -10.5q-60 0 -98.5 19t-60 52t-30 77t-8.5 95zM363 284q0 38 -9.5 71.5t-36.5 55t-80 21.5q-38 0 -64.5 -14.5t-42 -37.5t-22.5 -49.5t-9 -50.5q-1 -9 0.5 -12.5t10.5 -3.5h235q10 0 14.5 3.5t3.5 16.5zM223 525q-2 0 -4 1.5t-2 3.5q0 18 8.5 27t17.5 14q8 6 14 11
t6 15q0 20 -27 20q-12 0 -20.5 -3.5t-17.5 -10.5q-5 -5 -9 0l-12 20q-2 4 2 7q9 10 26.5 17t38.5 7q29 0 44.5 -15.5t15.5 -41.5q0 -20 -10.5 -30t-19.5 -15q-8 -4 -13.5 -8t-5.5 -14q0 -5 -6 -5h-26z" />
    <glyph glyph-name="uni1EBC" unicode="&#x1ebc;" horiz-adv-x="444" 
d="M90 0q-6 0 -6 6v661q0 6 6 6h311q4 0 5 -1t1 -6v-33q0 -4 -1 -5.5t-5 -1.5h-254q-4 0 -5 -2t-1 -5v-249q0 -3 2 -5.5t5 -2.5h208q4 0 5 -1t1 -6v-32q0 -4 -1 -5.5t-5 -1.5h-209q-4 0 -5 -1.5t-1 -5.5v-254q0 -4 1 -6.5t6 -2.5h252q5 0 6 -1t1 -6v-31q0 -5 -1.5 -6.5
t-5.5 -1.5h-310zM154 721q-5 0 -5 5q0 27 15 45t38 18q14 0 28.5 -9.5t27.5 -19t22 -9.5q7 0 12 8t5 19q0 6 4 6h25q5 0 5 -6q0 -23 -14 -42.5t-38 -19.5q-15 0 -29.5 9.5t-26.5 19t-21 9.5q-8 0 -13.5 -8.5t-5.5 -19.5q0 -5 -4 -5h-25z" />
    <glyph glyph-name="uni1EBD" unicode="&#x1ebd;" horiz-adv-x="457" 
d="M42 237q0 47 9 90t31 77t60 54t96 20q61 0 97 -18t54.5 -47.5t24.5 -65.5t6 -72t-7 -44t-20 -8h-285q-2 0 -6 -2t-4 -11q1 -50 16 -89t47.5 -60.5t84.5 -21.5q34 0 71.5 8t64.5 22q7 4 11.5 4.5t7.5 -6.5l10 -20q3 -4 1.5 -6.5t-5.5 -5.5q-32 -20 -76.5 -30.5
t-91.5 -10.5q-60 0 -98.5 19t-60 52t-30 77t-8.5 95zM363 284q0 38 -9.5 71.5t-36.5 55t-80 21.5q-38 0 -64.5 -14.5t-42 -37.5t-22.5 -49.5t-9 -50.5q-1 -9 0.5 -12.5t10.5 -3.5h235q10 0 14.5 3.5t3.5 16.5zM145 535q-5 0 -5 5q0 27 15.5 44t40.5 17q14 0 29 -8.5
t28.5 -17.5t22.5 -9q8 0 13 7t5 17q0 6 4 6h28q5 0 5 -6q0 -23 -15 -41.5t-40 -18.5q-16 0 -31.5 9t-28 18t-20.5 9q-9 0 -14.5 -7.5t-5.5 -18.5q0 -5 -4 -5h-27z" />
    <glyph glyph-name="uni1EBE" unicode="&#x1ebe;" horiz-adv-x="444" 
d="M90 0q-6 0 -6 6v661q0 6 6 6h311q4 0 5 -1t1 -6v-33q0 -4 -1 -5.5t-5 -1.5h-254q-4 0 -5 -2t-1 -5v-249q0 -3 2 -5.5t5 -2.5h208q4 0 5 -1t1 -6v-32q0 -4 -1 -5.5t-5 -1.5h-209q-4 0 -5 -1.5t-1 -5.5v-254q0 -4 1 -6.5t6 -2.5h252q5 0 6 -1t1 -6v-31q0 -5 -1.5 -6.5
t-5.5 -1.5h-310zM152 719q-3 0 -3.5 2.5t0.5 4.5l64 75q3 4 7 4h40q5 0 7 -4l64 -75q2 -2 1.5 -4.5t-4.5 -2.5h-27q-3 0 -5 1.5t-5 2.5l-45 44q-4 3 -8 0l-48 -44q-2 -1 -4 -2.5t-4 -1.5h-30zM368 770h-33q-4 0 -4 2t2 5l64 71q3 3 5.5 4.5t6.5 1.5h47q3 0 4 -2t-2 -4
l-80 -73q-3 -2 -5 -3.5t-5 -1.5z" />
    <glyph glyph-name="uni1EBF" unicode="&#x1ebf;" horiz-adv-x="457" 
d="M42 237q0 47 9 90t31 77t60 54t96 20q61 0 97 -18t54.5 -47.5t24.5 -65.5t6 -72t-7 -44t-20 -8h-285q-2 0 -6 -2t-4 -11q1 -50 16 -89t47.5 -60.5t84.5 -21.5q34 0 71.5 8t64.5 22q7 4 11.5 4.5t7.5 -6.5l10 -20q3 -4 1.5 -6.5t-5.5 -5.5q-32 -20 -76.5 -30.5
t-91.5 -10.5q-60 0 -98.5 19t-60 52t-30 77t-8.5 95zM363 284q0 38 -9.5 71.5t-36.5 55t-80 21.5q-38 0 -64.5 -14.5t-42 -37.5t-22.5 -49.5t-9 -50.5q-1 -9 0.5 -12.5t10.5 -3.5h235q10 0 14.5 3.5t3.5 16.5zM147 530q-3 0 -3.5 2t0.5 4l64 88q2 3 6 3h39q5 0 6 -3l63 -88
q2 -2 1.5 -4t-4.5 -2h-29q-4 0 -7 3l-47 54q-3 4 -8 0l-45 -54q-2 -3 -7 -3h-29zM317 578q-5 0 -5 2t2 5l52 87q2 5 11 5h44q3 0 4 -1.5t-3 -4.5l-65 -89q-2 -2 -4 -3t-6 -1h-30z" />
    <glyph glyph-name="uni1EC0" unicode="&#x1ec0;" horiz-adv-x="444" 
d="M90 0q-6 0 -6 6v661q0 6 6 6h311q4 0 5 -1t1 -6v-33q0 -4 -1 -5.5t-5 -1.5h-254q-4 0 -5 -2t-1 -5v-249q0 -3 2 -5.5t5 -2.5h208q4 0 5 -1t1 -6v-32q0 -4 -1 -5.5t-5 -1.5h-209q-4 0 -5 -1.5t-1 -5.5v-254q0 -4 1 -6.5t6 -2.5h252q5 0 6 -1t1 -6v-31q0 -5 -1.5 -6.5
t-5.5 -1.5h-310zM152 719q-3 0 -3.5 2.5t0.5 4.5l64 75q3 4 7 4h40q5 0 7 -4l64 -75q2 -2 1.5 -4.5t-4.5 -2.5h-27q-3 0 -5 1.5t-5 2.5l-45 44q-4 3 -8 0l-48 -44q-2 -1 -4 -2.5t-4 -1.5h-30zM364 781q-3 0 -5 1.5t-6 3.5l-80 73q-1 2 0 4t2 2h48q4 0 6 -1.5t5 -4.5l64 -71
q3 -3 2.5 -5t-4.5 -2h-32z" />
    <glyph glyph-name="uni1EC1" unicode="&#x1ec1;" horiz-adv-x="457" 
d="M42 237q0 47 9 90t31 77t60 54t96 20q61 0 97 -18t54.5 -47.5t24.5 -65.5t6 -72t-7 -44t-20 -8h-285q-2 0 -6 -2t-4 -11q1 -50 16 -89t47.5 -60.5t84.5 -21.5q34 0 71.5 8t64.5 22q7 4 11.5 4.5t7.5 -6.5l10 -20q3 -4 1.5 -6.5t-5.5 -5.5q-32 -20 -76.5 -30.5
t-91.5 -10.5q-60 0 -98.5 19t-60 52t-30 77t-8.5 95zM363 284q0 38 -9.5 71.5t-36.5 55t-80 21.5q-38 0 -64.5 -14.5t-42 -37.5t-22.5 -49.5t-9 -50.5q-1 -9 0.5 -12.5t10.5 -3.5h235q10 0 14.5 3.5t3.5 16.5zM147 530q-3 0 -3.5 2t0.5 4l64 88q2 3 6 3h39q5 0 6 -3l63 -88
q2 -2 1.5 -4t-4.5 -2h-29q-4 0 -7 3l-47 54q-3 4 -8 0l-45 -54q-2 -3 -7 -3h-29zM351 579q-6 0 -11 5l-66 87q-1 2 0 4t2 2h48q4 0 7 -1t4 -5l49 -86q3 -6 -2 -6h-31z" />
    <glyph glyph-name="uni1EC2" unicode="&#x1ec2;" horiz-adv-x="444" 
d="M90 0q-6 0 -6 6v661q0 6 6 6h311q4 0 5 -1t1 -6v-33q0 -4 -1 -5.5t-5 -1.5h-254q-4 0 -5 -2t-1 -5v-249q0 -3 2 -5.5t5 -2.5h208q4 0 5 -1t1 -6v-32q0 -4 -1 -5.5t-5 -1.5h-209q-4 0 -5 -1.5t-1 -5.5v-254q0 -4 1 -6.5t6 -2.5h252q5 0 6 -1t1 -6v-31q0 -5 -1.5 -6.5
t-5.5 -1.5h-310zM152 719q-3 0 -3.5 2.5t0.5 4.5l64 75q3 4 7 4h40q5 0 7 -4l64 -75q2 -2 1.5 -4.5t-4.5 -2.5h-27q-3 0 -5 1.5t-5 2.5l-45 44q-4 3 -8 0l-48 -44q-2 -1 -4 -2.5t-4 -1.5h-30zM360 765q-1 0 -3 1.5t-2 2.5q0 20 9 28.5t18 13.5q7 5 13.5 10t6.5 15
q0 22 -29 22q-12 0 -21.5 -4t-17.5 -11q-7 -4 -8 1l-11 18q-1 2 0 3.5t2 2.5q10 11 27 17t36 6q27 0 42.5 -14.5t15.5 -39.5q0 -20 -10 -29.5t-20 -15.5q-8 -4 -14 -8t-6 -15q0 -4 -5 -4h-23z" />
    <glyph glyph-name="uni1EC3" unicode="&#x1ec3;" horiz-adv-x="457" 
d="M42 237q0 47 9 90t31 77t60 54t96 20q61 0 97 -18t54.5 -47.5t24.5 -65.5t6 -72t-7 -44t-20 -8h-285q-2 0 -6 -2t-4 -11q1 -50 16 -89t47.5 -60.5t84.5 -21.5q34 0 71.5 8t64.5 22q7 4 11.5 4.5t7.5 -6.5l10 -20q3 -4 1.5 -6.5t-5.5 -5.5q-32 -20 -76.5 -30.5
t-91.5 -10.5q-60 0 -98.5 19t-60 52t-30 77t-8.5 95zM363 284q0 38 -9.5 71.5t-36.5 55t-80 21.5q-38 0 -64.5 -14.5t-42 -37.5t-22.5 -49.5t-9 -50.5q-1 -9 0.5 -12.5t10.5 -3.5h235q10 0 14.5 3.5t3.5 16.5zM147 530q-3 0 -3.5 2t0.5 4l64 88q2 3 6 3h39q5 0 6 -3l63 -88
q2 -2 1.5 -4t-4.5 -2h-29q-4 0 -7 3l-47 54q-3 4 -8 0l-45 -54q-2 -3 -7 -3h-29zM337 573q-2 0 -4 1.5t-2 3.5q0 18 8.5 27t17.5 14q8 6 14 11t6 15q0 20 -27 20q-12 0 -20.5 -3.5t-17.5 -10.5q-5 -5 -9 0l-12 20q-2 4 2 7q9 10 26.5 17t38.5 7q29 0 44.5 -15.5t15.5 -41.5
q0 -20 -10.5 -30t-19.5 -15q-8 -4 -13.5 -8t-5.5 -14q0 -5 -6 -5h-26z" />
    <glyph glyph-name="uni1EC4" unicode="&#x1ec4;" horiz-adv-x="444" 
d="M90 0q-6 0 -6 6v661q0 6 6 6h311q4 0 5 -1t1 -6v-33q0 -4 -1 -5.5t-5 -1.5h-254q-4 0 -5 -2t-1 -5v-249q0 -3 2 -5.5t5 -2.5h208q4 0 5 -1t1 -6v-32q0 -4 -1 -5.5t-5 -1.5h-209q-4 0 -5 -1.5t-1 -5.5v-254q0 -4 1 -6.5t6 -2.5h252q5 0 6 -1t1 -6v-31q0 -5 -1.5 -6.5
t-5.5 -1.5h-310zM152 719q-3 0 -3.5 2.5t0.5 4.5l64 75q3 4 7 4h40q5 0 7 -4l64 -75q2 -2 1.5 -4.5t-4.5 -2.5h-27q-3 0 -5 1.5t-5 2.5l-45 44q-4 3 -8 0l-48 -44q-2 -1 -4 -2.5t-4 -1.5h-30zM157 824q-5 0 -5 5q0 27 15 45t38 18q14 0 28.5 -9.5t27.5 -19t22 -9.5q7 0 12 8
t5 19q0 6 4 6h25q5 0 5 -6q0 -23 -14 -42.5t-38 -19.5q-15 0 -29.5 9.5t-26.5 19t-21 9.5q-8 0 -13.5 -8.5t-5.5 -19.5q0 -5 -4 -5h-25z" />
    <glyph glyph-name="uni1EC5" unicode="&#x1ec5;" horiz-adv-x="457" 
d="M42 237q0 47 9 90t31 77t60 54t96 20q61 0 97 -18t54.5 -47.5t24.5 -65.5t6 -72t-7 -44t-20 -8h-285q-2 0 -6 -2t-4 -11q1 -50 16 -89t47.5 -60.5t84.5 -21.5q34 0 71.5 8t64.5 22q7 4 11.5 4.5t7.5 -6.5l10 -20q3 -4 1.5 -6.5t-5.5 -5.5q-32 -20 -76.5 -30.5
t-91.5 -10.5q-60 0 -98.5 19t-60 52t-30 77t-8.5 95zM363 284q0 38 -9.5 71.5t-36.5 55t-80 21.5q-38 0 -64.5 -14.5t-42 -37.5t-22.5 -49.5t-9 -50.5q-1 -9 0.5 -12.5t10.5 -3.5h235q10 0 14.5 3.5t3.5 16.5zM147 530q-3 0 -3.5 2t0.5 4l64 88q2 3 6 3h39q5 0 6 -3l63 -88
q2 -2 1.5 -4t-4.5 -2h-29q-4 0 -7 3l-47 54q-3 4 -8 0l-45 -54q-2 -3 -7 -3h-29zM144 654q-5 0 -5 5q0 27 15.5 44t40.5 17q14 0 29 -8.5t28.5 -17.5t22.5 -9q8 0 13 7t5 17q0 6 4 6h28q5 0 5 -6q0 -23 -15 -41.5t-40 -18.5q-16 0 -31.5 9t-28 18t-20.5 9q-9 0 -14.5 -7.5
t-5.5 -18.5q0 -5 -4 -5h-27z" />
    </font>
</defs>
</svg>
