<svg width="36" height="37" viewBox="0 0 36 37" fill="currentColor" xmlns="http://www.w3.org/2000/svg">
<path d="M33.8078 2.79942C36.2688 5.26046 36.2688 9.25059 33.8078 11.7116L12.7307 32.7888C12.2431 33.2764 11.6367 33.6283 10.9714 33.8097L1.96227 36.2667C0.976293 36.5356 0.0715755 35.6309 0.340479 34.6449L2.79751 25.6358C2.97895 24.9706 3.33086 24.3642 3.81846 23.8766L24.8956 2.79942C27.3566 0.338384 31.3468 0.338384 33.8078 2.79942ZM23.1882 8.24274L5.68636 25.7445C5.52383 25.907 5.40652 26.1091 5.34605 26.3309L3.49719 33.11L10.2763 31.2612C10.4981 31.2007 10.7002 31.0834 10.8628 30.9209L28.364 13.4185L23.1882 8.24274ZM26.7635 4.66733L25.055 6.37424L30.2308 11.5518L31.9399 9.84373C33.3693 8.4143 33.3693 6.09675 31.9399 4.66733C30.5105 3.2379 28.1929 3.2379 26.7635 4.66733Z" fill="white"/>
</svg>
